<svg xmlns="http://www.w3.org/2000/svg" xml:space="preserve" width="6.7cm" height="8.4cm" style="shape-rendering:geometricPrecision;text-rendering:geometricPrecision;image-rendering:optimizeQuality;fill-rule:evenodd;clip-rule:evenodd" viewBox="0 0 6700 8400"><defs><style>.fil3{fill:#000}.fil0{fill:#f69d05}.fil1{fill:#fffefe}</style></defs><g id="Слой_x0020_1"><g id="_315515696"><path class="fil0" d="M5037 1478h1412v243H5037zM3259 279h330l100 100v105l-100 100h-330l-100-100V379z"/><path class="fil0" d="M1408 4950c0-26 30-56 57-56h3993c26 0 56 30 56 56v2681c0 27-30 56-56 56H1476c-42 0-68-28-68-56V4950zm5015-3376h-662l-584-2c-52 1-51-12-64 27 0 33 93 231 111 285 36 108 62 199 82 314 89 495-42 857-254 1269-183 357-481 586-830 753-165 79-401 151-605 177-574 74-1333-200-1681-670-543-735-623-1557-101-2343 130-195 204-267 383-403 287-217 688-407 1154-424-19-58-12-173-12-251H376v7797h-67 6114V1574z"/><path class="fil1" d="M3895 6611h71l42 2v443l-42 4-71-1v-448zm-314-169h71l42 3v611l-42 4-71-1v-617zm-411 628c-281 0-275-471 0-471h11c313 0 305 471 0 471h-11zm1277-157c-63-29-140-32-210-68-134-71-63-284 173-242 91 17 121 53 141 130l-102 10c-27-33-21-45-69-53-45-7-73 3-99 16 6 59 34 54 93 68 43 11 78 16 114 32 74 33 110 122 51 198-63 79-318 128-382-78l116-13c15 45 31 65 86 68 63 4 88-12 88-68zm-1980-86v232h-120v-617c190 0 423-43 460 139 57 286-272 237-340 246zm1428-385h71l42 3v96l-42 2h-71v-101zm175-1277 122-2v617l-80 1-42-4v-612zm-1376 301c0-433 588-411 588 0 0 433-588 449-588 0zm848-165c56-154 10-138 181-137l213 616h-131l-153-452c-55 85-100 372-157 452h-119l166-479zm984 167c-20-55-68-88-103-133-63-82-50-35-50-171l419 4v95l-270 1 153 191c-37 62-112 141-167 223l297 4v96l-440 2c0-133-6-107 76-209 30-38 52-71 85-103zm-2492-305h487v617l-122-3-1-513h-243v513l-120 3-1-617zm-547 2446h3960l-11-2636H1487v2636zM3944 1559c214-42 420 71 509 190 120 163 92 374 92 610 0 175 19 535-25 677-122 399-686 433-898 138-124-173-96-374-96-613 0-435-94-903 418-1002zm-1591 6 953 1-3 254-714 4 3 394c44-16 83-49 143-68 290-93 578 95 603 478 9 137 9 283-32 406-178 528-987 388-983-129l252 3c39 149 124 228 314 204 169-22 181-159 191-327 9-161-19-323-138-378-180-83-283 38-356 124l-237-2 4-964zm832-577c-1251 175-1682 1709-918 2498 60 62 118 133 193 189 1175 879 2630-109 2449-1405-115-819-869-1401-1724-1282z"/><path d="M3185 988c855-119 1609 463 1724 1282 181 1296-1274 2284-2449 1405-75-56-133-127-193-189-764-789-333-2323 918-2498zm1928 611-6-6-66-107c-26-46-42-72-70-109-48-62-97-134-151-197-276-322-946-640-1448-623-466 17-867 207-1154 424-179 136-253 208-383 403-522 786-442 1608 101 2343 348 470 1107 744 1681 670 204-26 440-98 605-177 349-167 647-396 830-753 212-412 343-774 254-1269-20-115-46-206-82-314-18-54-111-252-111-285z" style="fill:#c00"/><path class="fil0" d="M3372 557c502-17 1172 301 1448 623 54 63 103 135 151 197 28 37 44 63 70 109l66 107 6 6c13-39 12-26 64-27l584 2h662V306H3360c0 78-7 193 12 251z"/><path class="fil3" d="M3360 306h3063v7797H309h67V306h2984zM298 284v7841c0 26 30 56 56 56h6091c26 0 56-30 56-56V284c0-27-30-57-56-57H354c-26 0-56 30-56 57z"/><path class="fil3" d="M1487 4973h3949l11 2636H1487V4973zm-79-23v2681c0 28 26 56 68 56h3982c26 0 56-29 56-56V4950c0-26-30-56-56-56H1465c-27 0-57 30-57 56zM3788 2897c-14-96-14-807 4-892 58-280 452-266 493 21 12 85 13 816-2 889-56 276-453 271-495-18zm156-1338c-512 99-418 567-418 1002 0 239-28 440 96 613 212 295 776 261 898-138 44-142 25-502 25-677 0-236 28-447-92-610-89-119-295-232-509-190zM2349 2529l237 2c73-86 176-207 356-124 119 55 147 217 138 378-10 168-22 305-191 327-190 24-275-55-314-204l-252-3c-4 517 805 657 983 129 41-123 41-269 32-406-25-383-313-571-603-478-60 19-99 52-143 68l-3-394 714-4 3-254-953-1-4 964z"/><path class="fil1" d="M3788 2897c42 289 439 294 495 18 15-73 14-804 2-889-41-287-435-301-493-21-18 85-18 796-4 892z"/><path class="fil3" d="M2935 5261c259-82 287 354 113 420-250 94-319-354-113-420zm-241 205c0 449 588 433 588 0 0-411-588-433-588 0zM2035 5780l120-3v-513h243l1 513 122 3v-617h-487zM2467 6547c298-41 265 176 97 176l-56 1-41-5v-172zm0 280c68-9 397 40 340-246-37-182-270-139-460-139v617h120v-232zM4526 5468c-33 32-55 65-85 103-82 102-76 76-76 209l440-2v-96l-297-4c55-82 130-161 167-223l-153-191 270-1v-95l-419-4c0 136-13 89 50 171 35 45 83 78 103 133zM3376 5780h119c57-80 102-367 157-452l153 452h131l-213-616c-171-1-125-17-181 137l-166 479z"/><path class="fil1" d="M2935 5261c-206 66-137 514 113 420 174-66 146-502-113-420z"/><path class="fil3" d="M3281 6913c-65 159-275 20-191-158 72-154 266-25 191 158zm-111 157h11c305 0 313-471 0-471h-11c-275 0-281 471 0 471zM4447 6913c0 56-25 72-88 68-55-3-71-23-86-68l-116 13c64 206 319 157 382 78 59-76 23-165-51-198-36-16-71-21-114-32-59-14-87-9-93-68 26-13 54-23 99-16 48 8 42 20 69 53l102-10c-20-77-50-113-141-130-236-42-307 171-173 242 70 36 147 39 210 68zM4070 5777l42 4 80-1v-617l-122 2zM3581 7059l71 1 42-4v-611l-42-3h-71z"/><path class="fil1" d="M3281 6913c75-183-119-312-191-158-84 178 126 317 191 158z"/><path class="fil3" d="m3895 7059 71 1 42-4v-443l-42-2h-71z"/><path class="fil1" d="m2467 6719 41 5 56-1c168 0 201-217-97-176v172z"/><path class="fil3" d="M3895 6543h71l42-2v-96l-42-3h-71z"/></g></g></svg>