<?xml version="1.0" encoding="UTF-8"?>
<!DOCTYPE svg PUBLIC "-//W3C//DTD SVG 1.1//EN" "http://www.w3.org/Graphics/SVG/1.1/DTD/svg11.dtd">
<!-- Creator: CorelDRAW X6 -->
<svg xmlns="http://www.w3.org/2000/svg" xml:space="preserve" width="6.7cm" height="8.4cm" version="1.1" style="shape-rendering:geometricPrecision; text-rendering:geometricPrecision; image-rendering:optimizeQuality; fill-rule:evenodd; clip-rule:evenodd"
viewBox="0 0 6700 8400"
 xmlns:xlink="http://www.w3.org/1999/xlink">
 <defs>
  <style type="text/css">
   <![CDATA[
    .fil3 {fill:black}
    .fil2 {fill:#CC0000}
    .fil0 {fill:#F69D05}
    .fil1 {fill:#FFFEFE}
   ]]>
  </style>
 </defs>
 <g id="Слой_x0020_1">
  <metadata id="CorelCorpID_0Corel-Layer"/>
  <g id="_315515696">
   <polygon class="fil0" points="5037,1478 6449,1478 6449,1721 5037,1721 "/>
   <polygon class="fil0" points="3259,279 3589,279 3689,379 3689,484 3589,584 3259,584 3159,484 3159,379 "/>
   <path class="fil0" d="M1408 4950c0,-26 30,-56 57,-56l3993 0c26,0 56,30 56,56l0 2681c0,27 -30,56 -56,56l-3982 0c-42,0 -68,-28 -68,-56l0 -2681zm5015 -3376c-221,0 -441,0 -662,0l-584 -2c-52,1 -51,-12 -64,27 0,33 93,231 111,285 36,108 62,199 82,314 89,495 -42,857 -254,1269 -183,357 -481,586 -830,753 -165,79 -401,151 -605,177 -574,74 -1333,-200 -1681,-670 -543,-735 -623,-1557 -101,-2343 130,-195 204,-267 383,-403 287,-217 688,-407 1154,-424 -19,-58 -12,-173 -12,-251l-2984 0 0 7797 -67 0 6103 0 11 0 0 -6529z"/>
   <path class="fil1" d="M3895 6611l71 0 42 2 0 443 -42 4 -71 -1 0 -448zm-314 -169l71 0 42 3 0 611 -42 4 -71 -1 0 -617zm-411 628c-281,0 -275,-471 0,-471l11 0c313,0 305,471 0,471l-11 0zm1277 -157c-63,-29 -140,-32 -210,-68 -134,-71 -63,-284 173,-242 91,17 121,53 141,130l-102 10c-27,-33 -21,-45 -69,-53 -45,-7 -73,3 -99,16 6,59 34,54 93,68 43,11 78,16 114,32 74,33 110,122 51,198 -63,79 -318,128 -382,-78l116 -13c15,45 31,65 86,68 63,4 88,-12 88,-68zm-1980 -86l0 232 -120 0 0 -617c190,0 423,-43 460,139 57,286 -272,237 -340,246zm1428 -385l71 0 42 3 0 96 -42 2 -71 0 0 -101zm175 -1277l122 -2 0 617 -80 1 -42 -4 0 -612zm-1376 301c0,-433 588,-411 588,0 0,433 -588,449 -588,0zm848 -165c56,-154 10,-138 181,-137l213 616 -131 0 -153 -452c-55,85 -100,372 -157,452l-119 0 166 -479zm984 167c-20,-55 -68,-88 -103,-133 -63,-82 -50,-35 -50,-171l419 4 0 95 -270 1 153 191c-37,62 -112,141 -167,223l297 4 0 96 -440 2c0,-133 -6,-107 76,-209 30,-38 52,-71 85,-103zm-2492 -305l487 0 0 617 -122 -3 -1 -513 -243 0 0 513 -120 3 -1 -617zm-547 2446l3960 0 -11 -2636 -3938 0 -11 0 0 2636z"/>
   <path class="fil1" d="M3944 1559c214,-42 420,71 509,190 120,163 92,374 92,610 0,175 19,535 -25,677 -122,399 -686,433 -898,138 -124,-173 -96,-374 -96,-613 0,-435 -94,-903 418,-1002zm-1591 6l953 1 -3 254 -714 4 3 394c44,-16 83,-49 143,-68 290,-93 578,95 603,478 9,137 9,283 -32,406 -178,528 -987,388 -983,-129l252 3c39,149 124,228 314,204 169,-22 181,-159 191,-327 9,-161 -19,-323 -138,-378 -180,-83 -283,38 -356,124l-237 -2 4 -964zm832 -577c-1251,175 -1682,1709 -918,2498 60,62 118,133 193,189 1175,879 2630,-109 2449,-1405 -115,-819 -869,-1401 -1724,-1282z"/>
   <path class="fil2" d="M3185 988c855,-119 1609,463 1724,1282 181,1296 -1274,2284 -2449,1405 -75,-56 -133,-127 -193,-189 -764,-789 -333,-2323 918,-2498zm1928 611c-2,-2 -5,-5 -6,-6l-66 -107c-26,-46 -42,-72 -70,-109 -48,-62 -97,-134 -151,-197 -276,-322 -946,-640 -1448,-623 -466,17 -867,207 -1154,424 -179,136 -253,208 -383,403 -522,786 -442,1608 101,2343 348,470 1107,744 1681,670 204,-26 440,-98 605,-177 349,-167 647,-396 830,-753 212,-412 343,-774 254,-1269 -20,-115 -46,-206 -82,-314 -18,-54 -111,-252 -111,-285z"/>
   <path class="fil0" d="M3372 557c502,-17 1172,301 1448,623 54,63 103,135 151,197 28,37 44,63 70,109l66 107c1,1 4,4 6,6 13,-39 12,-26 64,-27l584 2c221,0 441,0 662,0l0 -1268 -3063 0c0,78 -7,193 12,251z"/>
   <path class="fil3" d="M3360 306l3063 0 0 1268 0 6529 -11 0 -6103 0 67 0 0 -7797 2984 0zm-3062 -22l0 7841c0,26 30,56 56,56l6091 0c26,0 56,-30 56,-56l0 -7841c0,-27 -30,-57 -56,-57l-6091 0c-26,0 -56,30 -56,57z"/>
   <path class="fil3" d="M1487 4973l11 0 3938 0 11 2636 -3960 0 0 -2636zm-79 -23l0 2681c0,28 26,56 68,56l3982 0c26,0 56,-29 56,-56l0 -2681c0,-26 -30,-56 -56,-56l-3993 0c-27,0 -57,30 -57,56z"/>
   <path class="fil3" d="M3788 2897c-14,-96 -14,-807 4,-892 58,-280 452,-266 493,21 12,85 13,816 -2,889 -56,276 -453,271 -495,-18zm156 -1338c-512,99 -418,567 -418,1002 0,239 -28,440 96,613 212,295 776,261 898,-138 44,-142 25,-502 25,-677 0,-236 28,-447 -92,-610 -89,-119 -295,-232 -509,-190z"/>
   <path class="fil3" d="M2349 2529l237 2c73,-86 176,-207 356,-124 119,55 147,217 138,378 -10,168 -22,305 -191,327 -190,24 -275,-55 -314,-204l-252 -3c-4,517 805,657 983,129 41,-123 41,-269 32,-406 -25,-383 -313,-571 -603,-478 -60,19 -99,52 -143,68l-3 -394 714 -4 3 -254 -953 -1 -4 964z"/>
   <path class="fil1" d="M3788 2897c42,289 439,294 495,18 15,-73 14,-804 2,-889 -41,-287 -435,-301 -493,-21 -18,85 -18,796 -4,892z"/>
   <path class="fil3" d="M2935 5261c259,-82 287,354 113,420 -250,94 -319,-354 -113,-420zm-241 205c0,449 588,433 588,0 0,-411 -588,-433 -588,0z"/>
   <polygon class="fil3" points="2035,5780 2155,5777 2155,5264 2398,5264 2399,5777 2521,5780 2521,5163 2034,5163 "/>
   <path class="fil3" d="M2467 6547c298,-41 265,176 97,176l-56 1 -41 -5 0 -172zm0 280c68,-9 397,40 340,-246 -37,-182 -270,-139 -460,-139l0 617 120 0 0 -232z"/>
   <path class="fil3" d="M4526 5468c-33,32 -55,65 -85,103 -82,102 -76,76 -76,209l440 -2 0 -96 -297 -4c55,-82 130,-161 167,-223l-153 -191 270 -1 0 -95 -419 -4c0,136 -13,89 50,171 35,45 83,78 103,133z"/>
   <path class="fil3" d="M3376 5780l119 0c57,-80 102,-367 157,-452l153 452 131 0 -213 -616c-171,-1 -125,-17 -181,137l-166 479z"/>
   <path class="fil1" d="M2935 5261c-206,66 -137,514 113,420 174,-66 146,-502 -113,-420z"/>
   <path class="fil3" d="M3281 6913c-65,159 -275,20 -191,-158 72,-154 266,-25 191,158zm-111 157l11 0c305,0 313,-471 0,-471l-11 0c-275,0 -281,471 0,471z"/>
   <path class="fil3" d="M4447 6913c0,56 -25,72 -88,68 -55,-3 -71,-23 -86,-68l-116 13c64,206 319,157 382,78 59,-76 23,-165 -51,-198 -36,-16 -71,-21 -114,-32 -59,-14 -87,-9 -93,-68 26,-13 54,-23 99,-16 48,8 42,20 69,53l102 -10c-20,-77 -50,-113 -141,-130 -236,-42 -307,171 -173,242 70,36 147,39 210,68z"/>
   <polygon class="fil3" points="4070,5777 4112,5781 4192,5780 4192,5163 4070,5165 "/>
   <polygon class="fil3" points="3581,7059 3652,7060 3694,7056 3694,6445 3652,6442 3581,6442 "/>
   <path class="fil1" d="M3281 6913c75,-183 -119,-312 -191,-158 -84,178 126,317 191,158z"/>
   <polygon class="fil3" points="3895,7059 3966,7060 4008,7056 4008,6613 3966,6611 3895,6611 "/>
   <path class="fil1" d="M2467 6719l41 5 56 -1c168,0 201,-217 -97,-176l0 172z"/>
   <polygon class="fil3" points="3895,6543 3966,6543 4008,6541 4008,6445 3966,6442 3895,6442 "/>
  </g>
 </g>
</svg>
