<svg xmlns="http://www.w3.org/2000/svg" width="149.848" height="148.582"><defs><clipPath clipPathUnits="userSpaceOnUse" id="d"><path d="M32.598 263.055h114.997v116.221H32.598V263.055z"/></clipPath><clipPath clipPathUnits="userSpaceOnUse" id="c"><path d="M0 0h311v595H0V0z"/></clipPath><clipPath clipPathUnits="userSpaceOnUse" id="b"><path d="M32.598 263.055h114.997v116.221H32.598V263.055z"/></clipPath><clipPath clipPathUnits="userSpaceOnUse" id="a"><path d="M0 0h311v595H0V0z"/></clipPath></defs><g clip-path="url(#a)" transform="matrix(1.324 0 0 -1.324 -45.45 499.513)"><path d="M34.879 265.33h112.076v111.671H34.879V265.33z" style="fill:#007ac2;fill-opacity:1;fill-rule:nonzero;stroke:none"/></g><g clip-path="url(#b)" transform="matrix(1.324 0 0 -1.324 -45.45 499.513)"><path d="M34.879 265.33h112.076v111.671H34.879V265.33z" style="fill:none;stroke:#000;stroke-width:.55136079;stroke-linecap:butt;stroke-linejoin:miter;stroke-miterlimit:10;stroke-opacity:1;stroke-dasharray:none"/></g><g clip-path="url(#c)" transform="matrix(1.324 0 0 -1.324 -45.45 499.513)"><path d="M0 0v5.555h-1.984v1.132H3.33V5.555H1.35V0H0z" style="fill:#ffdb00;fill-opacity:1;fill-rule:nonzero;stroke:none" transform="translate(71.458 362.189)"/><path d="M0 0h4.63v-1.131H1.665l1.728-2.062L1.487-5.56h3.284v-1.127H-.087v1.25l1.793 2.244L0-1.204V0z" style="fill:#ffdb00;fill-opacity:1;fill-rule:nonzero;stroke:none" transform="translate(75.663 368.875)"/><path d="M0 0v6.687h4.958V5.555H1.35V4.073h3.357V2.946H1.35V1.127h3.736V0H0z" style="fill:#ffdb00;fill-opacity:1;fill-rule:nonzero;stroke:none" transform="translate(81.638 362.189)"/></g><g clip-path="url(#d)" transform="matrix(1.324 0 0 -1.324 -45.45 499.513)"><path d="M0 0v-1.897h.739c.532 0 .888.034 1.067.105.18.07.32.179.422.328a.897.897 0 0 1 .153.52.868.868 0 0 1-.214.602.934.934 0 0 1-.543.296C1.463-.015 1.139 0 .652 0H0zm-1.35-5.555v6.686H.816c.822 0 1.357-.033 1.606-.1.383-.101.704-.319.962-.655.259-.336.388-.77.388-1.302 0-.41-.075-.755-.223-1.035-.15-.28-.339-.5-.568-.659a1.96 1.96 0 0 0-.7-.317c-.323-.064-.789-.096-1.401-.096H0v-2.522h-1.35z" style="fill:#ffdb00;fill-opacity:1;fill-rule:nonzero;stroke:none" transform="translate(89.405 367.744)"/><path d="M94.431 362.188h1.35v6.687h-1.35v-6.687z" style="fill:#ffdb00;fill-opacity:1;fill-rule:nonzero;stroke:none"/><path d="M0 0v5.555h-1.984v1.132H3.33V5.555H1.35V0H0z" style="fill:#fff;fill-opacity:1;fill-rule:nonzero;stroke:none" transform="translate(71.458 349.345)"/><path d="m0 0 1.286.196c.055-.249.166-.438.333-.568.167-.129.402-.194.703-.194.331 0 .58.061.748.183a.407.407 0 0 1 .168.342l-.091.242c-.064.061-.207.117-.429.168C1.685.597 1.029.806.753.994a1.247 1.247 0 0 0-.575 1.09c0 .42.166.773.497 1.059.332.285.845.428 1.542.428.663 0 1.155-.107 1.477-.323.323-.217.545-.536.666-.958l-1.208-.224a.747.747 0 0 1-.294.433c-.145.101-.351.151-.618.151-.338 0-.58-.047-.726-.141a.305.305 0 0 1-.146-.26l.128-.233c.116-.085.515-.205 1.197-.36.683-.155 1.16-.345 1.43-.57.268-.228.402-.546.402-.954 0-.444-.186-.825-.557-1.145-.371-.319-.92-.478-1.646-.478-.66 0-1.182.134-1.567.401A1.848 1.848 0 0 0 0 0" style="fill:#fff;fill-opacity:1;fill-rule:nonzero;stroke:none" transform="translate(75.385 350.727)"/><path d="M0 0c-.009.371-.105.653-.287.846a.884.884 0 0 1-.666.29.892.892 0 0 1-.694-.306C-1.829.627-1.919.349-1.916 0H0zm-.073-1.295 1.277-.215C1.04-1.978.781-2.335.426-2.579c-.354-.245-.797-.367-1.329-.367-.842 0-1.466.275-1.87.825-.319.441-.479.997-.479 1.669 0 .803.21 1.432.629 1.886.42.455.95.682 1.592.682.721 0 1.289-.237 1.706-.713.416-.476.616-1.205.597-2.188h-3.211c.01-.38.113-.675.311-.887a.97.97 0 0 1 .738-.317c.201 0 .37.055.507.165.137.109.24.285.31.529" style="fill:#fff;fill-opacity:1;fill-rule:nonzero;stroke:none" transform="translate(84.096 352.182)"/><path d="M0 0h-1.282v4.844h1.191v-.689c.204.326.387.54.549.643.163.103.348.155.555.155.291 0 .573-.08.843-.241L1.46 3.594c-.216.14-.417.21-.602.21a.718.718 0 0 1-.457-.148C.277 3.557.179 3.378.107 3.12.036 2.862 0 2.32 0 1.496V0z" style="fill:#fff;fill-opacity:1;fill-rule:nonzero;stroke:none" transform="translate(87.827 349.345)"/><path d="M0 0h1.282v-4.844H0V0zm0 1.842h1.282V.656H0v1.186z" style="fill:#fff;fill-opacity:1;fill-rule:nonzero;stroke:none" transform="translate(90.422 354.189)"/><path d="m0 0 2.39-6.687H.926L-.766-1.742l-1.638-4.945h-1.432L-1.441 0H0z" style="fill:#ffdb00;fill-opacity:1;fill-rule:nonzero;stroke:none" transform="translate(73.11 339.685)"/><path d="m0 0-.921 2.481L-1.824 0H0zm2.486-2.645H1.017L.433-1.127h-2.672l-.552-1.518h-1.432l2.604 6.686h1.428l2.677-6.686z" style="fill:#ffdb00;fill-opacity:1;fill-rule:nonzero;stroke:none" transform="translate(79.914 335.643)"/><path d="M0 0v6.687h1.35v-2.97l2.728 2.97h1.815L3.375 4.082 6.03 0H4.283L2.445 3.138 1.35 2.021V0H0z" style="fill:#ffdb00;fill-opacity:1;fill-rule:nonzero;stroke:none" transform="translate(83.321 332.998)"/><path d="m0 0-.921 2.481L-1.824 0H0zm2.486-2.645H1.017L.433-1.127H-2.24l-.551-1.518h-1.433l2.605 6.686h1.427l2.678-6.686z" style="fill:#ffdb00;fill-opacity:1;fill-rule:nonzero;stroke:none" transform="translate(93.78 335.643)"/><path d="M0 0v5.555h-1.984v1.132h5.313V5.555H1.35V0H0z" style="fill:#ffdb00;fill-opacity:1;fill-rule:nonzero;stroke:none" transform="translate(97.898 332.998)"/><path d="m0 0-.921 2.481L-1.824 0H0zm2.486-2.645H1.017L.433-1.127H-2.24l-.551-1.518h-1.433l2.605 6.686h1.427l2.678-6.686z" style="fill:#ffdb00;fill-opacity:1;fill-rule:nonzero;stroke:none" transform="translate(105.136 335.643)"/><path d="M0 0v6.687h2.021l1.213-4.562 1.199 4.562h2.025V0H5.204v5.263L3.877 0h-1.3L1.254 5.263V0H0z" style="fill:#ffdb00;fill-opacity:1;fill-rule:nonzero;stroke:none" transform="translate(108.507 332.998)"/><path d="M0 0v6.687h4.958V5.555H1.35V4.073h3.357V2.946H1.35V1.127h3.735V0H0z" style="fill:#ffdb00;fill-opacity:1;fill-rule:nonzero;stroke:none" transform="translate(116.493 332.998)"/><path d="M122.869 332.998h1.35v6.687h-1.35v-6.687z" style="fill:#ffdb00;fill-opacity:1;fill-rule:nonzero;stroke:none"/><path d="m0 0-.921 2.481L-1.824 0H0zm2.486-2.645H1.017L.433-1.127H-2.24l-.551-1.518h-1.433l2.605 6.686h1.428l2.677-6.686z" style="fill:#ffdb00;fill-opacity:1;fill-rule:nonzero;stroke:none" transform="translate(129.236 335.643)"/><path d="M0 0v6.632h1.35V1.127h3.357V0H0z" style="fill:#fff;fill-opacity:1;fill-rule:nonzero;stroke:none" transform="translate(69.99 317.819)"/><path d="M0 0a7.905 7.905 0 0 0-.78-.196c-.356-.076-.588-.151-.698-.224a.534.534 0 0 1-.251-.451c0-.18.067-.335.201-.465a.7.7 0 0 1 .511-.197c.231 0 .451.076.661.229A.804.804 0 0 1-.05-.88c.033.109.05.317.05.625V0zm-1.715 1.04-1.163.21c.131.468.356.815.675 1.04.319.225.794.337 1.423.337.572 0 .997-.068 1.277-.203.28-.135.477-.307.591-.515.114-.208.171-.591.171-1.147L1.245-.734c0-.426.021-.74.062-.942.041-.203.118-.419.23-.65H.269a5.06 5.06 0 0 0-.123.378L.1-1.797a2.322 2.322 0 0 0-.702-.479 2 2 0 0 0-.798-.16c-.499 0-.892.136-1.179.406a1.349 1.349 0 0 0-.431 1.027c0 .273.065.517.196.732.131.214.314.378.55.492.235.114.575.214 1.019.299C-.646.632-.231.737 0 .835v.127c0 .247-.061.422-.182.527-.122.105-.352.158-.689.158-.228 0-.406-.045-.534-.135-.128-.089-.231-.247-.31-.472" style="fill:#fff;fill-opacity:1;fill-rule:nonzero;stroke:none" transform="translate(78.51 320.145)"/><path d="M0 0v6.687h1.282V3.138l1.5 1.706H4.36l-1.655-1.77L4.479 0H3.097L1.879 2.176l-.597-.625V0H0z" style="fill:#fff;fill-opacity:1;fill-rule:nonzero;stroke:none" transform="translate(81.173 317.819)"/><path d="M0 0a7.905 7.905 0 0 0-.78-.196c-.356-.076-.588-.151-.698-.224a.534.534 0 0 1-.251-.451c0-.18.067-.335.201-.465a.7.7 0 0 1 .511-.197c.231 0 .451.076.661.229A.804.804 0 0 1-.05-.88c.033.109.05.317.05.625V0zm-1.715 1.04-1.163.21c.131.468.356.815.675 1.04.319.225.794.337 1.423.337.572 0 .997-.068 1.277-.203.28-.135.477-.307.591-.515.114-.208.171-.591.171-1.147L1.245-.734c0-.426.021-.74.062-.942a2.71 2.71 0 0 1 .23-.65H.269a5.06 5.06 0 0 0-.123.378L.1-1.797a2.322 2.322 0 0 0-.702-.479 2 2 0 0 0-.798-.16c-.499 0-.892.136-1.179.406a1.349 1.349 0 0 0-.431 1.027c0 .273.065.517.196.732.131.214.314.378.55.492.235.114.575.214 1.019.299C-.646.632-.231.737 0 .835v.127c0 .247-.061.422-.182.527-.122.105-.352.158-.689.158-.228 0-.406-.045-.534-.135-.128-.089-.231-.247-.31-.472" style="fill:#fff;fill-opacity:1;fill-rule:nonzero;stroke:none" transform="translate(89.273 320.145)"/><path d="M0 0v-1.022h-.876v-1.952c0-.395.009-.625.025-.691l.114-.162.217-.064c.119 0 .29.042.515.124l.11-.995a2.563 2.563 0 0 0-1.013-.191c-.231 0-.439.039-.625.116a.92.92 0 0 0-.408.301c-.086.123-.146.29-.18.5-.027.148-.041.449-.041.903v2.111h-.588V0h.588v.962l1.286.748V0H0z" style="fill:#fff;fill-opacity:1;fill-rule:nonzero;stroke:none" transform="translate(94.203 322.663)"/><path d="M0 0a7.905 7.905 0 0 0-.78-.196c-.356-.076-.588-.151-.698-.224a.534.534 0 0 1-.251-.451c0-.18.067-.335.201-.465a.7.7 0 0 1 .511-.197c.231 0 .451.076.661.229A.804.804 0 0 1-.05-.88c.033.109.05.317.05.625V0zm-1.715 1.04-1.163.21c.131.468.356.815.675 1.04.319.225.794.337 1.423.337.572 0 .997-.068 1.277-.203.28-.135.477-.307.591-.515.114-.208.171-.591.171-1.147L1.245-.734c0-.426.021-.74.062-.942.041-.203.118-.419.23-.65H.269a5.06 5.06 0 0 0-.123.378L.1-1.797a2.322 2.322 0 0 0-.702-.479 2.003 2.003 0 0 0-.798-.16c-.499 0-.892.136-1.179.406a1.349 1.349 0 0 0-.431 1.027c0 .273.065.517.196.732.13.214.314.378.549.492.236.114.576.214 1.02.299C-.646.632-.231.737 0 .835v.127c0 .247-.061.422-.183.527-.121.105-.351.158-.688.158-.228 0-.406-.045-.534-.135-.128-.089-.231-.247-.31-.472" style="fill:#fff;fill-opacity:1;fill-rule:nonzero;stroke:none" transform="translate(97.952 320.145)"/><path d="M0 0h1.181v-.661c.423.513.926.77 1.51.77.31 0 .579-.063.807-.191.228-.128.415-.321.561-.579.213.258.443.451.689.579.246.128.509.191.789.191.356 0 .657-.072.903-.216.247-.144.43-.356.552-.636.088-.207.132-.541.132-1.004v-3.097H5.843v2.769c0 .48-.044.791-.133.93-.118.183-.301.274-.547.274a.876.876 0 0 1-.506-.164.913.913 0 0 1-.342-.482c-.07-.211-.105-.545-.105-1.001v-2.326H2.928v2.655c0 .471-.023.775-.068.912a.59.59 0 0 1-.212.306.678.678 0 0 1-.39.1.93.93 0 0 1-.534-.16.879.879 0 0 1-.34-.46c-.068-.201-.102-.534-.102-.999v-2.354H0V0z" style="fill:#fff;fill-opacity:1;fill-rule:nonzero;stroke:none" transform="translate(100.566 322.663)"/><path d="M0 0c-.009.371-.105.653-.287.846a.884.884 0 0 1-.666.29.888.888 0 0 1-.693-.306c-.183-.203-.273-.481-.27-.83H0zm-.073-1.295 1.277-.215C1.04-1.978.781-2.335.427-2.579c-.355-.245-.798-.367-1.33-.367-.842 0-1.466.275-1.87.825-.319.441-.479.997-.479 1.669 0 .803.21 1.432.629 1.886.42.455.951.682 1.592.682.721 0 1.289-.237 1.706-.713.417-.477.616-1.205.598-2.188h-3.211c.009-.38.112-.675.31-.887a.97.97 0 0 1 .739-.317c.2 0 .369.055.506.165.137.109.24.285.31.529" style="fill:#fff;fill-opacity:1;fill-rule:nonzero;stroke:none" transform="translate(112.032 320.656)"/><path d="M0 0h1.282v-4.844H0V0zm0 1.842h1.282V.656H0v1.186z" style="fill:#fff;fill-opacity:1;fill-rule:nonzero;stroke:none" transform="translate(114.536 322.663)"/><path d="M0 0a7.905 7.905 0 0 0-.78-.196c-.356-.076-.588-.151-.698-.224a.534.534 0 0 1-.251-.451c0-.18.067-.335.201-.465a.7.7 0 0 1 .511-.197c.231 0 .452.076.661.229A.804.804 0 0 1-.05-.88c.033.109.05.317.05.625V0zm-1.715 1.04-1.163.21c.131.468.356.815.675 1.04.319.225.794.337 1.423.337.572 0 .997-.068 1.277-.203.28-.135.477-.307.591-.515.114-.208.171-.591.171-1.147L1.245-.734c0-.426.021-.74.062-.942.041-.203.118-.419.23-.65H.269a5.06 5.06 0 0 0-.123.378L.1-1.797a2.322 2.322 0 0 0-.702-.479 2 2 0 0 0-.798-.16c-.499 0-.892.136-1.179.406a1.349 1.349 0 0 0-.431 1.027c0 .273.065.517.196.732.131.214.314.378.55.492.235.114.575.214 1.019.299C-.646.632-.231.737 0 .835v.127c0 .247-.061.422-.182.527-.122.105-.352.158-.689.158-.228 0-.406-.045-.534-.135-.128-.089-.231-.247-.31-.472" style="fill:#fff;fill-opacity:1;fill-rule:nonzero;stroke:none" transform="translate(119.99 320.145)"/><path d="m0 0 2.39-6.686H.926L-.766-1.742l-1.638-4.944h-1.432L-1.441 0H0z" style="fill:#ffdb00;fill-opacity:1;fill-rule:nonzero;stroke:none" transform="translate(73.11 295.132)"/><path d="m0 0-.921 2.481L-1.824 0H0zm2.486-2.645H1.017L.433-1.127h-2.672l-.552-1.518h-1.432l2.604 6.686h1.428l2.677-6.686z" style="fill:#ffdb00;fill-opacity:1;fill-rule:nonzero;stroke:none" transform="translate(79.914 291.091)"/><path d="M0 0v5.555h-1.984v1.131h5.313V5.555H1.35V0H0z" style="fill:#ffdb00;fill-opacity:1;fill-rule:nonzero;stroke:none" transform="translate(84.033 288.446)"/><path d="M0 0h4.63v-1.131H1.665l1.728-2.062L1.487-5.56h3.284v-1.126H-.087v1.249l1.793 2.244L0-1.204V0z" style="fill:#ffdb00;fill-opacity:1;fill-rule:nonzero;stroke:none" transform="translate(88.238 295.132)"/><path d="M94.172 288.446h1.35v6.686h-1.35v-6.686z" style="fill:#ffdb00;fill-opacity:1;fill-rule:nonzero;stroke:none"/><path d="m0 0-.921 2.481L-1.824 0H0zm2.486-2.645H1.017L.433-1.127H-2.24l-.551-1.518h-1.433l2.605 6.686h1.427l2.678-6.686z" style="fill:#ffdb00;fill-opacity:1;fill-rule:nonzero;stroke:none" transform="translate(100.538 291.091)"/><path d="M0 0v6.632h1.35V1.126h3.357V0H0z" style="fill:#fff;fill-opacity:1;fill-rule:nonzero;stroke:none" transform="translate(69.99 275.602)"/><path d="M0 0a7.905 7.905 0 0 0-.78-.196c-.356-.076-.588-.15-.698-.224a.534.534 0 0 1-.251-.451c0-.18.067-.335.201-.465a.7.7 0 0 1 .511-.197c.231 0 .451.076.661.229A.804.804 0 0 1-.05-.88c.033.109.05.317.05.625V0zm-1.715 1.04-1.163.21c.131.468.356.815.675 1.04.319.225.794.337 1.423.337.572 0 .997-.068 1.277-.203.28-.135.477-.307.591-.515.114-.208.171-.591.171-1.147L1.245-.734c0-.426.021-.74.062-.942a2.77 2.77 0 0 1 .23-.65H.269a4.963 4.963 0 0 0-.123.379l-.046.15a2.322 2.322 0 0 0-.702-.479 2 2 0 0 0-.798-.16c-.499 0-.892.136-1.179.406a1.349 1.349 0 0 0-.431 1.027c0 .273.065.517.196.732.131.214.314.378.55.492.235.114.575.214 1.019.299C-.646.632-.231.737 0 .835v.127c0 .247-.061.422-.182.527-.122.105-.352.158-.689.158-.228 0-.406-.045-.534-.135-.128-.089-.231-.247-.31-.472" style="fill:#fff;fill-opacity:1;fill-rule:nonzero;stroke:none" transform="translate(78.51 277.928)"/><path d="M0 0v-1.022h-.876v-1.952c0-.395.009-.625.025-.691l.114-.162.217-.064c.119 0 .29.041.515.124l.11-.995a2.563 2.563 0 0 0-1.013-.191 1.6 1.6 0 0 0-.625.116.92.92 0 0 0-.408.301c-.086.123-.146.29-.18.5-.027.148-.041.449-.041.903v2.111h-.588V0h.588v.962l1.286.748V0H0z" style="fill:#fff;fill-opacity:1;fill-rule:nonzero;stroke:none" transform="translate(83.44 280.446)"/><path d="m0 0 1.286.196c.055-.249.166-.438.333-.568.167-.129.402-.194.703-.194.331 0 .58.061.748.183a.407.407 0 0 1 .168.342l-.091.242c-.064.061-.207.116-.429.168C1.684.598 1.029.806.753.994a1.247 1.247 0 0 0-.575 1.09c0 .42.166.773.497 1.059.331.285.845.428 1.542.428.663 0 1.155-.107 1.478-.324.322-.216.544-.535.665-.957l-1.208-.224a.747.747 0 0 1-.294.433c-.145.101-.351.151-.618.151-.338 0-.58-.047-.726-.141a.305.305 0 0 1-.146-.261l.128-.232c.115-.085.515-.205 1.197-.36.683-.155 1.16-.345 1.43-.571.268-.228.402-.545.402-.953 0-.444-.186-.825-.557-1.145-.371-.319-.92-.479-1.646-.479-.66 0-1.183.134-1.567.402A1.848 1.848 0 0 0 0 0" style="fill:#fff;fill-opacity:1;fill-rule:nonzero;stroke:none" transform="translate(84.064 276.984)"/><path d="M0 0h1.282v-4.844H0V0zm0 1.842h1.282V.656H0v1.186z" style="fill:#fff;fill-opacity:1;fill-rule:nonzero;stroke:none" transform="translate(89.898 280.446)"/><path d="M0 0a7.905 7.905 0 0 0-.78-.196c-.356-.076-.588-.15-.698-.224a.534.534 0 0 1-.251-.451c0-.18.067-.335.201-.465a.7.7 0 0 1 .511-.197c.231 0 .451.076.661.229A.804.804 0 0 1-.05-.88c.033.109.05.317.05.625V0zm-1.715 1.04-1.163.21c.131.468.356.815.675 1.04.319.225.794.337 1.423.337.572 0 .997-.068 1.277-.203.28-.135.477-.307.591-.515.114-.208.171-.591.171-1.147L1.245-.734c0-.426.021-.74.062-.942.041-.202.117-.419.23-.65H.269a4.963 4.963 0 0 0-.123.379l-.046.15a2.322 2.322 0 0 0-.702-.479 2 2 0 0 0-.798-.16c-.499 0-.892.136-1.179.406a1.349 1.349 0 0 0-.431 1.027c0 .273.065.517.196.732.131.214.314.378.549.492.236.114.576.214 1.02.299C-.646.632-.231.737 0 .835v.127c0 .247-.061.422-.183.527-.121.105-.351.158-.688.158-.228 0-.406-.045-.534-.135-.128-.089-.231-.247-.31-.472" style="fill:#fff;fill-opacity:1;fill-rule:nonzero;stroke:none" transform="translate(95.353 277.928)"/><path d="M0 0h112.076" style="fill:none;stroke:#fff;stroke-width:1.10272157;stroke-linecap:butt;stroke-linejoin:miter;stroke-miterlimit:10;stroke-opacity:1;stroke-dasharray:none" transform="translate(34.879 304.673)"/><path d="M47.542 333.671h5.659v16.532h-5.659v-16.532z" style="fill:#fff;fill-opacity:1;fill-rule:evenodd;stroke:none"/><path d="M0 0h10.929L5.465 8.771 0 0z" style="fill:#fff;fill-opacity:1;fill-rule:evenodd;stroke:none" transform="translate(44.907 349.394)"/><path d="M46.086 280.443h12.871v5.659H46.086v-5.659z" style="fill:#fff;fill-opacity:1;fill-rule:evenodd;stroke:none"/><path d="M0 0v10.929l-8.771-5.464L0 0z" style="fill:#fff;fill-opacity:1;fill-rule:evenodd;stroke:none" transform="translate(46.896 277.808)"/></g></svg>