<svg xmlns="http://www.w3.org/2000/svg" width="332.513" height="273.095"><path d="M-311.868 545.616H19.75V273.415h-331.62v272.201z" style="fill:#007ac2;fill-opacity:1;fill-rule:nonzero;stroke:none" transform="translate(312.314 -272.967)"/><path style="fill:none;stroke:#000;stroke-width:.89394039;stroke-linecap:butt;stroke-linejoin:miter;stroke-miterlimit:10;stroke-opacity:1;stroke-dasharray:none" d="M-311.868 273.414h331.62v272.201h-331.62V273.414z" transform="translate(312.314 -272.967)"/><path style="fill:#ffdb00;fill-opacity:1;fill-rule:nonzero;stroke:none" d="m-230.137 349.692-2.238-7.263-2.193 7.263h4.43zm6.037 7.747h-3.567l-1.418-4.447h-6.49l-1.338 4.447h-3.48l6.326-19.58h3.465l6.502 19.58zM-222.804 337.857h11.24v3.312h-7.196l4.194 6.04-4.627 6.93h7.974v3.3h-11.796v-3.659l4.354-6.571-4.143-5.826v-3.526zM-205.094 357.44v-16.27h-4.82v-3.312h12.904v3.312h-4.805v16.27h-3.279zM-191.614 341.17v5.557h1.794c1.291 0 2.155-.099 2.59-.306.438-.201.778-.527 1.028-.962.247-.435.371-.947.371-1.524 0-.71-.175-1.3-.524-1.763-.346-.46-.783-.752-1.314-.867-.395-.088-1.18-.135-2.362-.135h-1.583zm-3.279 16.27v-19.582h5.261c1.993 0 3.294.1 3.9.296.93.293 1.71.932 2.338 1.915.627.985.94 2.257.94 3.809 0 1.209-.182 2.215-.545 3.037-.36.82-.82 1.461-1.378 1.932-.556.465-1.124.774-1.699.928-.781.184-1.916.282-3.401.282h-2.137v7.383h-3.279zM-177.048 347.636c0 2.217.424 3.898 1.272 5.041.849 1.146 1.927 1.717 3.237 1.717 1.303 0 2.377-.567 3.218-1.702.836-1.135 1.255-2.839 1.255-5.109 0-2.245-.408-3.917-1.224-5.022-.817-1.106-1.9-1.658-3.25-1.658-1.352 0-2.442.558-3.266 1.677-.83 1.118-1.242 2.805-1.242 5.056m-3.381.133c0-1.991.25-3.67.744-5.022.37-1 .872-1.892 1.51-2.687.638-.793 1.342-1.376 2.1-1.76 1.015-.517 2.181-.774 3.502-.774 2.392 0 4.306.896 5.743 2.684 1.437 1.786 2.155 4.278 2.155 7.466 0 3.16-.714 5.635-2.14 7.42-1.425 1.786-3.33 2.678-5.716 2.678-2.41 0-4.334-.886-5.76-2.662-1.424-1.78-2.138-4.227-2.138-7.343M-162.162 357.44v-19.582h4.908l2.946 13.357 2.911-13.357h4.92v19.582h-3.048v-15.416l-3.222 15.416h-3.159l-3.211-15.416v15.416h-3.045zM-143.222 357.44v-19.582h12.04v3.312h-8.76v4.344h8.15v3.295h-8.15v5.331h9.07v3.3h-12.35zM-124.813 341.17v5.557h1.794c1.29 0 2.155-.099 2.59-.306.438-.201.78-.527 1.027-.962.247-.435.372-.947.372-1.524 0-.71-.173-1.3-.522-1.763-.349-.46-.788-.752-1.316-.867-.393-.088-1.181-.135-2.363-.135h-1.582zm-3.277 16.27v-19.582h5.259c1.992 0 3.292.1 3.9.296.93.293 1.71.932 2.337 1.915.628.985.94 2.257.94 3.809 0 1.209-.181 2.215-.54 3.037-.364.82-.825 1.461-1.38 1.932-.558.465-1.126.774-1.701.928-.784.184-1.917.282-3.402.282h-2.136v7.383h-3.277zM-113.063 357.436h3.28v-19.582h-3.28v19.582zM-103.004 357.44v-16.27h-4.817v-3.312h12.903v3.312h-4.807v16.27h-3.279zM-92.792 357.44v-19.582h3.277v7.709h6.426v-7.71h3.28v19.583h-3.28v-8.565h-6.426v8.565h-3.277zM-76.864 337.857h11.24v3.312h-7.196l4.197 6.04-4.632 6.93h7.976v3.3h-11.796v-3.659l4.355-6.571-4.144-5.826v-3.526z" transform="translate(312.314 -272.967)"/><path style="fill:#fff;fill-opacity:1;fill-rule:nonzero;stroke:none" d="m-230.137 378.143-2.238-7.267-2.193 7.267h4.43zm6.037 7.747h-3.567l-1.418-4.443h-6.49l-1.338 4.443h-3.48l6.326-19.58h3.465l6.502 19.58zM-223.48 381.844l3.125-.575c.13.732.401 1.286.81 1.664.403.376.973.569 1.702.569.807 0 1.412-.18 1.817-.535.273-.25.41-.586.41-1.002l-.224-.708c-.154-.18-.5-.343-1.04-.495-2.51-.668-4.1-1.279-4.772-1.828-.93-.768-1.395-1.833-1.395-3.194 0-1.228.402-2.264 1.207-3.101.805-.837 2.051-1.254 3.744-1.254 1.608 0 2.806.315 3.587.95.784.63 1.323 1.561 1.619 2.8l-2.935.658c-.127-.552-.365-.973-.716-1.269-.353-.296-.85-.442-1.5-.442-.82 0-1.408.14-1.763.417a.94.94 0 0 0-.355.763l.313.676c.28.25 1.249.603 2.905 1.057 1.657.457 2.817 1.013 3.474 1.668.65.672.974 1.598.974 2.797 0 1.293-.45 2.416-1.35 3.348-.904.936-2.235 1.406-4 1.406-1.601 0-2.871-.394-3.803-1.176-.934-.786-1.549-1.85-1.834-3.194M-204.374 371.707v2.991h-2.125v5.716c0 1.159.019 1.833.061 2.025l.275.476.526.186c.29 0 .706-.125 1.253-.364l.264 2.913c-.72.374-1.543.564-2.457.564a3.304 3.304 0 0 1-1.518-.342c-.452-.226-.781-.522-.99-.884-.214-.361-.36-.85-.438-1.462-.068-.434-.104-1.315-.104-2.643v-6.185h-1.428v-2.99h1.428v-2.823l3.128-2.19v5.012h2.125zM-199.234 385.891h-3.112v-14.184h2.888v2.015c.497-.953.942-1.581 1.335-1.881a2.167 2.167 0 0 1 1.346-.457c.71 0 1.393.237 2.052.708l-.963 3.272c-.527-.408-1.015-.613-1.465-.613-.435 0-.805.142-1.107.436-.302.287-.54.811-.712 1.568-.178.757-.262 2.34-.262 4.754v4.382zM-190.916 378.8c0 1.404.275 2.484.83 3.234.554.747 1.237 1.119 2.05 1.119.811 0 1.494-.372 2.045-1.119.548-.75.822-1.836.822-3.263 0-1.391-.274-2.457-.822-3.205-.551-.746-1.234-1.124-2.045-1.124-.813 0-1.496.378-2.05 1.124-.555.748-.83 1.826-.83 3.234m-3.19-.205c0-1.245.255-2.45.762-3.616.512-1.167 1.234-2.057 2.166-2.672.934-.618 1.98-.922 3.13-.922 1.778 0 3.236.7 4.373 2.095 1.137 1.386 1.707 3.15 1.707 5.278 0 2.148-.574 3.925-1.722 5.34-1.145 1.411-2.594 2.115-4.335 2.115-1.08 0-2.11-.296-3.085-.881-.979-.59-1.722-1.45-2.234-2.587-.507-1.133-.763-2.518-.763-4.15M-179.762 371.707h2.867v1.935c1.027-1.505 2.25-2.256 3.668-2.256.75 0 1.406.188 1.96.56.555.372 1.007.939 1.362 1.696.518-.757 1.075-1.324 1.673-1.696a3.566 3.566 0 0 1 1.917-.56c.864 0 1.593.211 2.193.634.598.425 1.044 1.042 1.34 1.863.215.606.32 1.585.32 2.936v9.072h-3.114v-8.109c0-1.403-.103-2.314-.319-2.724-.29-.533-.729-.801-1.329-.801-.437 0-.845.158-1.23.482-.384.319-.66.788-.83 1.407-.169.62-.255 1.596-.255 2.934v6.811h-3.113v-7.77c0-1.38-.055-2.275-.165-2.676-.114-.402-.283-.698-.515-.897-.235-.194-.547-.291-.947-.291-.482 0-.915.156-1.297.465-.385.315-.66.763-.824 1.35-.167.588-.252 1.565-.252 2.928v6.891h-3.11v-14.184zM-152.37 377.583c-.022-1.087-.257-1.913-.696-2.48-.448-.564-.985-.847-1.62-.847-.679 0-1.239.3-1.685.896-.441.596-.659 1.406-.65 2.431h4.65zm-.18 3.79 3.106.632c-.402 1.374-1.034 2.416-1.892 3.13-.862.72-1.935 1.079-3.228 1.079-2.045 0-3.56-.808-4.543-2.416-.775-1.296-1.16-2.926-1.16-4.894 0-2.35.51-4.19 1.528-5.521 1.02-1.334 2.305-1.998 3.866-1.998 1.748 0 3.13.698 4.142 2.09 1.012 1.392 1.496 3.53 1.45 6.406h-7.798c.024 1.112.273 1.978.753 2.595.481.624 1.08.93 1.794.93.49 0 .898-.16 1.231-.481.332-.32.584-.833.75-1.552M-143.765 385.891h-3.11v-14.184h2.89v2.015c.492-.953.938-1.581 1.331-1.881a2.17 2.17 0 0 1 1.35-.457c.706 0 1.39.237 2.048.708l-.964 3.272c-.526-.408-1.012-.613-1.462-.613a1.53 1.53 0 0 0-1.11.436c-.301.287-.542.811-.715 1.568-.174.757-.258 2.34-.258 4.754v4.382zM-137.917 371.708h3.11v14.184h-3.11v-14.184zm0-5.397h3.11v3.471h-3.11v-3.47zM-126.22 371.707v2.991h-2.128v5.716c0 1.159.021 1.833.061 2.025l.277.476.528.186c.288 0 .704-.125 1.251-.364l.264 2.913c-.72.374-1.542.564-2.46.564a3.3 3.3 0 0 1-1.514-.342c-.452-.226-.782-.522-.991-.884-.214-.361-.36-.85-.438-1.462-.067-.434-.103-1.315-.103-2.643v-6.185h-1.428v-2.99h1.428v-2.823l3.125-2.19v5.012h2.128zM-124.061 371.708h3.112v14.184h-3.112v-14.184zm0-5.397h3.112v3.471h-3.112v-3.47zM-118.854 381.844l3.125-.575c.131.732.402 1.286.805 1.664.408.376.974.569 1.708.569.802 0 1.411-.18 1.817-.535.272-.25.41-.586.41-1.002l-.224-.708c-.155-.18-.501-.343-1.04-.495-2.51-.668-4.101-1.279-4.773-1.828-.93-.768-1.397-1.833-1.397-3.194 0-1.228.404-2.264 1.207-3.101.807-.837 2.054-1.254 3.746-1.254 1.608 0 2.806.315 3.586.95.781.63 1.322 1.561 1.62 2.8l-2.937.658c-.124-.552-.363-.973-.714-1.269-.348-.296-.853-.442-1.5-.442-.82 0-1.41.14-1.762.417a.94.94 0 0 0-.355.763l.31.676c.28.25 1.25.603 2.908 1.057 1.656.457 2.814 1.013 3.473 1.668.651.672.975 1.598.975 2.797 0 1.293-.45 2.416-1.355 3.348-.9.936-2.231 1.406-3.995 1.406-1.602 0-2.872-.394-3.804-1.176-.936-.786-1.549-1.85-1.834-3.194" transform="translate(312.314 -272.967)"/><path style="fill:#ffdb00;fill-opacity:1;fill-rule:nonzero;stroke:none" d="M-238.7 419.086v-19.582h3.28v8.694l6.623-8.694h4.408l-6.115 7.625 6.447 11.957h-4.24l-4.466-9.188-2.658 3.27v5.918h-3.279zM-213.756 411.339l-2.238-7.268-2.191 7.268h4.429zm6.036 7.747h-3.564l-1.418-4.444h-6.493l-1.338 4.444h-3.48l6.327-19.58h3.465l6.501 19.58zM-205.935 419.086v-19.582h3.279v8.694l6.624-8.694h4.408l-6.115 7.625 6.446 11.957h-4.243l-4.462-9.188-2.658 3.27v5.918h-3.28zM-186.884 409.282c0 2.218.42 3.898 1.272 5.042.85 1.145 1.93 1.716 3.237 1.716 1.304 0 2.377-.566 3.218-1.706.837-1.13 1.255-2.834 1.255-5.105 0-2.24-.407-3.917-1.225-5.022-.816-1.103-1.9-1.657-3.248-1.657-1.354 0-2.442.562-3.266 1.676-.83 1.118-1.243 2.803-1.243 5.056m-3.38.133c0-1.995.249-3.67.743-5.022a9.508 9.508 0 0 1 1.511-2.683c.638-.796 1.342-1.38 2.1-1.767 1.01-.515 2.179-.771 3.5-.771 2.393 0 4.308.896 5.744 2.684 1.437 1.789 2.156 4.279 2.156 7.468 0 3.158-.717 5.634-2.14 7.418-1.425 1.786-3.33 2.682-5.714 2.682-2.417 0-4.336-.89-5.762-2.667-1.424-1.778-2.139-4.226-2.139-7.342M-171.898 419.086v-19.582h12.982v19.582h-3.28v-16.27h-6.425v16.27h-3.277zM-155.572 419.086v-19.582h12.04v3.313h-8.763v4.341h8.154v3.298h-8.154v5.33h9.073v3.3h-12.35zM-136.787 419.086v-16.27h-4.818v-3.312h12.904v3.313h-4.809v16.27h-3.277zM-123.306 402.818v5.557h1.793c1.291 0 2.156-.1 2.591-.309a2.259 2.259 0 0 0 1.025-.96c.247-.437.372-.946.372-1.523 0-.713-.174-1.3-.52-1.765-.349-.463-.788-.75-1.32-.867-.392-.09-1.178-.133-2.359-.133h-1.582zm-3.278 16.27v-19.583h5.26c1.992 0 3.294.095 3.9.294.93.294 1.71.93 2.337 1.918.625.98.94 2.253.94 3.809 0 1.207-.181 2.215-.545 3.035-.36.822-.82 1.46-1.378 1.932-.555.465-1.124.774-1.698.926-.782.188-1.917.281-3.402.281h-2.136v7.388h-3.278zM-111.556 419.088h3.279v-19.583h-3.28v19.583zM-96.547 411.339l-2.238-7.268-2.19 7.268h4.428zm6.037 7.747h-3.567l-1.418-4.444h-6.49l-1.338 4.444h-3.48l6.326-19.58h3.465l6.502 19.58z" transform="translate(312.314 -272.967)"/><path style="fill:#fff;fill-opacity:1;fill-rule:nonzero;stroke:none" d="M-238.7 447.538v-19.583h3.28v8.699l6.623-8.699h4.408l-6.115 7.625 6.447 11.958h-4.24l-4.466-9.191-2.658 3.274v5.917h-3.279zM-215.893 440.727c-.4.158-1.03.349-1.894.575-.864.222-1.428.442-1.696.649-.408.348-.609.79-.609 1.325 0 .524.163.979.486 1.363.328.383.74.575 1.243.575.562 0 1.096-.226 1.605-.67.377-.336.626-.75.744-1.24.078-.32.12-.93.12-1.827v-.75zm-4.167-3.048-2.823-.613c.317-1.374.864-2.387 1.642-3.048.773-.658 1.923-.985 3.454-.985 1.387 0 2.42.194 3.102.594.68.395 1.156.898 1.435 1.507.277.61.412 1.729.412 3.363l-.03 4.377c0 1.248.05 2.167.146 2.763.102.59.285 1.224.56 1.9h-3.078c-.08-.247-.182-.619-.298-1.107l-.112-.442c-.529.624-1.1 1.093-1.706 1.402a4.129 4.129 0 0 1-1.937.467c-1.21 0-2.166-.396-2.863-1.188-.7-.793-1.048-1.793-1.048-3.004 0-.801.156-1.513.475-2.145a3.44 3.44 0 0 1 1.336-1.444c.572-.334 1.398-.624 2.474-.873 1.456-.328 2.464-.634 3.026-.92v-.378c0-.717-.148-1.235-.444-1.541-.294-.309-.854-.46-1.67-.46-.557 0-.986.128-1.297.394-.31.26-.562.723-.756 1.38M-209.879 447.538v-19.583h3.113v10.392l3.645-4.993h3.832l-4.023 5.18 4.31 9.004h-3.357l-2.956-6.372-1.451 1.831v4.54h-3.113zM-194.682 440.445c0 1.408.279 2.486.83 3.232.554.748 1.237 1.122 2.05 1.122.811 0 1.494-.374 2.045-1.122.548-.746.822-1.835.822-3.26 0-1.39-.274-2.458-.822-3.206-.551-.746-1.234-1.12-2.045-1.12-.813 0-1.496.374-2.05 1.12-.551.748-.83 1.826-.83 3.234m-3.193-.203c0-1.245.258-2.45.767-3.619.51-1.167 1.232-2.054 2.164-2.667a5.561 5.561 0 0 1 3.13-.924c1.78 0 3.236.697 4.373 2.093 1.137 1.39 1.707 3.151 1.707 5.28 0 2.145-.572 3.923-1.722 5.337-1.149 1.412-2.594 2.116-4.335 2.116-1.078 0-2.107-.296-3.083-.881-.98-.586-1.724-1.45-2.234-2.585-.509-1.136-.767-2.516-.767-4.15M-180.305 440.205c0 1.596.262 2.77.784 3.534.526.76 1.164 1.14 1.919 1.14.722 0 1.324-.35 1.804-1.05.48-.697.72-1.842.72-3.438 0-1.488-.245-2.594-.741-3.313-.497-.72-1.11-1.082-1.84-1.082-.757 0-1.39.355-1.894 1.061-.5.71-.752 1.761-.752 3.148m-3.08-6.851h2.905v2.08a4.807 4.807 0 0 1 1.527-1.736 3.673 3.673 0 0 1 2.139-.668c1.363 0 2.523.65 3.475 1.939.953 1.291 1.429 3.092 1.429 5.398 0 2.368-.482 4.207-1.44 5.522-.96 1.31-2.12 1.97-3.49 1.97a3.406 3.406 0 0 1-1.766-.467c-.526-.313-1.086-.848-1.665-1.605v7.15h-3.115v-19.583zM-162.45 439.23c-.02-1.087-.255-1.914-.699-2.48-.444-.565-.98-.848-1.616-.848-.679 0-1.24.3-1.684.896-.444.597-.662 1.406-.653 2.431h4.653zm-.175 3.794 3.098.627c-.397 1.37-1.03 2.417-1.887 3.131-.862.719-1.938 1.078-3.229 1.078-2.045 0-3.56-.807-4.543-2.42-.775-1.292-1.164-2.922-1.164-4.89 0-2.35.512-4.19 1.532-5.523 1.016-1.327 2.305-1.995 3.863-1.995 1.751 0 3.133.697 4.143 2.09 1.01 1.395 1.498 3.53 1.454 6.405h-7.8c.02 1.112.273 1.98.753 2.598.482.617 1.08.93 1.794.93a1.71 1.71 0 0 0 1.232-.484c.332-.315.58-.837.754-1.547M-151.43 433.352v2.991h-2.126v5.72c0 1.154.02 1.833.062 2.021l.274.476.528.188c.288 0 .706-.123 1.251-.362l.267 2.911c-.723.372-1.545.562-2.46.562-.56 0-1.07-.114-1.517-.342-.452-.226-.782-.522-.991-.88-.211-.361-.355-.85-.437-1.464-.068-.436-.1-1.317-.1-2.643v-6.187h-1.428v-2.99h1.428v-2.819l3.123-2.192v5.01h2.126zM-146.29 447.538h-3.113v-14.184h2.893v2.014c.494-.949.938-1.583 1.33-1.883.398-.3.846-.455 1.351-.455.706 0 1.388.237 2.048.709l-.964 3.272c-.526-.408-1.012-.613-1.462-.613-.437 0-.805.146-1.105.431-.307.292-.543.816-.716 1.573-.174.756-.262 2.34-.262 4.758v4.378zM-140.442 433.352h3.11v14.183h-3.11v-14.183zm0-5.397h3.11v3.475h-3.11v-3.475zM-127.65 440.727c-.396.158-1.028.349-1.892.575-.865.222-1.429.442-1.697.649-.406.348-.609.79-.609 1.325 0 .524.163.979.489 1.363.325.383.737.575 1.24.575.562 0 1.096-.226 1.606-.67.378-.336.625-.75.743-1.24.079-.32.12-.93.12-1.827v-.75zm-4.164-3.048-2.823-.613c.315-1.374.865-2.387 1.64-3.048.773-.658 1.927-.985 3.455-.985 1.386 0 2.421.194 3.101.594.68.395 1.156.898 1.435 1.507.277.61.414 1.729.414 3.363l-.032 4.377c0 1.248.05 2.167.148 2.763.1.59.286 1.224.558 1.9h-3.078c-.08-.247-.18-.619-.298-1.107l-.112-.442c-.533.624-1.099 1.093-1.707 1.402a4.115 4.115 0 0 1-1.936.467c-1.21 0-2.166-.396-2.863-1.188-.697-.793-1.048-1.793-1.048-3.004 0-.801.16-1.513.475-2.145a3.44 3.44 0 0 1 1.336-1.444c.572-.334 1.396-.624 2.474-.873 1.456-.328 2.464-.634 3.026-.92v-.378c0-.717-.148-1.235-.444-1.541-.294-.309-.851-.46-1.67-.46-.557 0-.986.128-1.296.394-.311.26-.563.723-.755 1.38" transform="translate(312.314 -272.967)"/><path style="fill:#ffdb00;fill-opacity:1;fill-rule:nonzero;stroke:none" d="M-235.088 480.733v-16.27h-4.82v-3.313h12.904v3.313h-4.805v16.27h-3.28zM-221.61 464.463v5.559h1.795c1.295 0 2.155-.101 2.594-.309.433-.2.776-.526 1.023-.961.247-.436.372-.947.372-1.524 0-.71-.173-1.3-.52-1.763-.346-.461-.788-.753-1.318-.867-.396-.089-1.18-.135-2.36-.135h-1.585zm-3.279 16.27V461.15h5.264c1.992 0 3.292.1 3.898.296.93.294 1.71.933 2.337 1.915.628.985.94 2.258.94 3.814 0 1.205-.181 2.21-.54 3.031-.364.822-.825 1.463-1.38 1.934-.558.465-1.122.774-1.701.928-.782.188-1.917.277-3.4.277h-2.138v7.388h-3.28zM-207.043 470.928c0 2.218.425 3.898 1.274 5.042.848 1.145 1.927 1.716 3.235 1.716 1.304 0 2.377-.566 3.218-1.702.837-1.135 1.255-2.838 1.255-5.109 0-2.244-.407-3.917-1.223-5.022-.818-1.106-1.902-1.657-3.25-1.657-1.354 0-2.442.558-3.266 1.676-.83 1.116-1.243 2.805-1.243 5.056m-3.38.133c0-1.99.249-3.67.743-5.022a9.62 9.62 0 0 1 1.511-2.687c.638-.788 1.342-1.376 2.1-1.763 1.014-.513 2.179-.771 3.5-.771 2.393 0 4.308.896 5.744 2.684 1.437 1.787 2.156 4.279 2.156 7.466 0 3.16-.715 5.636-2.14 7.422-1.425 1.784-3.33 2.676-5.714 2.676-2.413 0-4.336-.886-5.762-2.663-1.424-1.778-2.139-4.226-2.139-7.342M-189.399 470.928c0 2.218.425 3.898 1.274 5.042.848 1.145 1.927 1.716 3.235 1.716 1.304 0 2.377-.566 3.218-1.702.837-1.135 1.258-2.838 1.258-5.109 0-2.244-.41-3.917-1.226-5.022-.813-1.106-1.9-1.657-3.25-1.657-1.352 0-2.442.558-3.266 1.676-.83 1.116-1.243 2.805-1.243 5.056m-3.376.133c0-1.99.245-3.67.74-5.022a9.62 9.62 0 0 1 1.51-2.687c.638-.788 1.342-1.376 2.1-1.763 1.015-.513 2.181-.771 3.502-.771 2.391 0 4.308.896 5.743 2.684 1.436 1.787 2.155 4.279 2.155 7.466 0 3.16-.714 5.636-2.14 7.422-1.425 1.784-3.33 2.676-5.714 2.676-2.413 0-4.336-.886-5.762-2.663-1.424-1.778-2.134-4.226-2.134-7.342M-165.053 477.433l-3.655-11.71-3.546 11.71h7.201zm4.62 3.3h-16.294l6.322-19.583h3.47l6.501 19.583zM-156.669 470.928c0 2.218.425 3.898 1.274 5.042.848 1.145 1.927 1.716 3.235 1.716 1.304 0 2.377-.566 3.218-1.702.837-1.135 1.257-2.838 1.257-5.109 0-2.244-.41-3.917-1.225-5.022-.818-1.106-1.9-1.657-3.25-1.657-1.352 0-2.442.558-3.266 1.676-.83 1.116-1.243 2.805-1.243 5.056m-3.376.133c0-1.99.245-3.67.74-5.022a9.62 9.62 0 0 1 1.51-2.687c.642-.788 1.342-1.376 2.1-1.763 1.014-.513 2.179-.771 3.501-.771 2.392 0 4.307.896 5.743 2.684 1.437 1.787 2.156 4.279 2.156 7.466 0 3.16-.715 5.636-2.14 7.422-1.423 1.784-3.33 2.676-5.714 2.676-2.413 0-4.336-.886-5.762-2.663-1.424-1.778-2.134-4.226-2.134-7.342M-142.18 461.15h11.24v3.312h-7.196l4.196 6.039-4.63 6.931h7.975v3.3h-11.797v-3.66l4.355-6.571-4.144-5.823v-3.528z" transform="translate(312.314 -272.967)"/><path style="fill:#fff;fill-opacity:1;fill-rule:nonzero;stroke:none" d="M-235.088 509.184v-16.27h-4.82v-3.312h12.904v3.312h-4.805v16.27h-3.28zM-223.182 509.184h-3.11V495h2.89v2.015c.495-.954.939-1.581 1.332-1.884.397-.3.845-.454 1.346-.454.71 0 1.392.237 2.051.708l-.963 3.272c-.526-.408-1.014-.613-1.465-.613-.433 0-.805.142-1.105.433-.304.29-.54.814-.714 1.571-.173.757-.262 2.34-.262 4.754v4.382zM-214.862 502.093c0 1.404.278 2.484.83 3.234.554.746 1.236 1.12 2.05 1.12.81 0 1.491-.374 2.045-1.12.547-.75.822-1.837.822-3.264 0-1.39-.275-2.456-.822-3.204-.554-.75-1.234-1.125-2.046-1.125-.813 0-1.495.374-2.05 1.125-.55.748-.83 1.826-.83 3.234m-3.19-.203c0-1.247.256-2.452.765-3.619.51-1.167 1.232-2.057 2.164-2.672a5.593 5.593 0 0 1 3.129-.921c1.781 0 3.237.7 4.374 2.094 1.136 1.391 1.707 3.15 1.707 5.279 0 2.147-.573 3.925-1.722 5.34-1.15 1.411-2.595 2.115-4.336 2.115-1.08 0-2.107-.296-3.085-.884-.978-.587-1.722-1.447-2.231-2.585-.51-1.133-.765-2.517-.765-4.147M-201.007 502.093c0 1.404.279 2.484.83 3.234.554.746 1.236 1.12 2.05 1.12.811 0 1.494-.374 2.045-1.12.55-.75.822-1.837.822-3.264 0-1.39-.272-2.456-.822-3.204-.551-.75-1.234-1.125-2.045-1.125-.814 0-1.496.374-2.05 1.125-.551.748-.83 1.826-.83 3.234m-3.19-.203c0-1.247.255-2.452.762-3.619.512-1.167 1.234-2.057 2.17-2.672.93-.613 1.976-.921 3.13-.921 1.776 0 3.237.7 4.373 2.094 1.137 1.391 1.703 3.15 1.703 5.279 0 2.147-.572 3.925-1.72 5.34-1.151 1.411-2.592 2.115-4.337 2.115-1.08 0-2.107-.296-3.085-.884-.979-.587-1.722-1.447-2.234-2.585-.507-1.133-.763-2.517-.763-4.147M-187.14 501.785c0 1.513.174 2.608.52 3.287.501.978 1.203 1.466 2.107 1.466.714 0 1.323-.365 1.828-1.103.5-.733.75-1.828.75-3.291 0-1.628-.241-2.803-.731-3.52-.484-.716-1.11-1.076-1.87-1.076-.74 0-1.357.356-1.857 1.064-.5.706-.746 1.765-.746 3.173m8.308 7.4h-2.89v-2.086c-.482.813-1.05 1.414-1.702 1.81-.652.399-1.314.597-1.977.597-1.35 0-2.51-.657-3.474-1.976-.964-1.306-1.445-3.143-1.445-5.494 0-2.4.47-4.232 1.407-5.479.938-1.256 2.126-1.88 3.556-1.88 1.314 0 2.451.66 3.41 1.98v-7.054h3.115v19.582zM-173.295 502.093c0 1.404.28 2.484.829 3.234.555.746 1.238 1.12 2.051 1.12.812 0 1.494-.374 2.046-1.12.547-.75.824-1.837.824-3.264 0-1.39-.277-2.456-.824-3.204-.552-.75-1.234-1.125-2.046-1.125-.813 0-1.496.374-2.051 1.125-.55.748-.829 1.826-.829 3.234m-3.19-.203c0-1.247.256-2.452.765-3.619.509-1.167 1.232-2.057 2.163-2.672a5.593 5.593 0 0 1 3.13-.921c1.78 0 3.237.7 4.373 2.094 1.141 1.391 1.708 3.15 1.708 5.279 0 2.147-.573 3.925-1.72 5.34-1.152 1.411-2.593 2.115-4.338 2.115-1.076 0-2.107-.296-3.083-.884-.98-.587-1.724-1.447-2.233-2.585-.51-1.133-.765-2.517-.765-4.147M-163.005 505.137l3.125-.575c.133.731.402 1.285.81 1.663.403.379.974.569 1.703.569.807 0 1.411-.18 1.817-.535.274-.25.41-.585.41-1.002l-.22-.708c-.154-.175-.505-.342-1.044-.495-2.51-.668-4.101-1.279-4.773-1.828-.93-.763-1.397-1.833-1.397-3.194 0-1.228.404-2.26 1.209-3.101.805-.833 2.054-1.254 3.744-1.254 1.608 0 2.808.315 3.59.95.782.63 1.32 1.566 1.616 2.805l-2.935.653c-.126-.552-.365-.975-.716-1.268-.348-.294-.85-.442-1.5-.442-.82 0-1.405.14-1.762.416a.94.94 0 0 0-.355.763l.313.677c.278.25 1.248.6 2.905 1.057 1.659.456 2.816 1.012 3.474 1.67.65.67.974 1.6.974 2.79 0 1.302-.448 2.42-1.35 3.352-.9.937-2.236 1.406-4 1.406-1.602 0-2.868-.393-3.804-1.175-.934-.785-1.544-1.85-1.834-3.194" transform="translate(312.314 -272.967)"/><path style="fill:#f5f5f5;fill-opacity:1;fill-rule:nonzero;stroke:none" d="M-11.27 365.243v-6.495l-3.619 6.495h3.62zm0 7.027v-3.824h-6.448v-3.192l6.84-12.07h2.535v12.06h1.957v3.202h-1.957v3.824h-2.926zM-15.244 434.918v3.386h-10.592a10.012 10.012 0 0 1 1.033-3.642c.573-1.146 1.705-2.661 3.396-4.555 1.363-1.533 2.197-2.569 2.508-3.114.412-.75.621-1.497.621-2.23 0-.814-.182-1.437-.54-1.875-.369-.435-.865-.651-1.501-.651-.634 0-1.135.226-1.507.687-.374.459-.59 1.217-.644 2.28l-3.011-.36c.18-2.009.742-3.446 1.688-4.32.947-.876 2.13-1.312 3.548-1.312 1.555 0 2.776.505 3.666 1.518.89 1.012 1.335 2.268 1.335 3.775 0 .856-.129 1.668-.384 2.446-.254.77-.655 1.579-1.207 2.428-.365.563-1.029 1.368-1.98 2.425-.955 1.055-1.557 1.757-1.81 2.101-.256.345-.463.68-.622 1.013h6.003zM-2.998 434.918v3.386H-13.59c.116-1.281.46-2.494 1.033-3.642.573-1.146 1.705-2.661 3.4-4.555 1.359-1.533 2.193-2.569 2.504-3.114.416-.75.621-1.497.621-2.23 0-.814-.18-1.437-.54-1.875-.364-.435-.863-.651-1.501-.651-.632 0-1.135.226-1.507.687-.374.459-.59 1.217-.644 2.28l-3.011-.36c.18-2.009.744-3.446 1.688-4.32.947-.876 2.13-1.312 3.548-1.312 1.555 0 2.776.505 3.666 1.518.89 1.012 1.335 2.268 1.335 3.775 0 .856-.129 1.668-.382 2.446-.256.77-.657 1.579-1.209 2.428-.365.563-1.027 1.368-1.98 2.425-.955 1.055-1.557 1.757-1.81 2.101-.256.345-.463.68-.62 1.013h6.001zM-19.527 487.414v-6.496l-3.62 6.496h3.62zm0 7.028v-3.826h-6.448v-3.191l6.84-12.07h2.535v12.059h1.956v3.202H-16.6v3.826h-2.927zM-2.998 491.055v3.388H-13.59c.116-1.28.46-2.494 1.033-3.64.573-1.145 1.705-2.663 3.4-4.555 1.359-1.53 2.193-2.568 2.504-3.114.416-.75.621-1.496.621-2.23 0-.813-.18-1.437-.54-1.877-.364-.433-.863-.653-1.501-.653-.632 0-1.135.228-1.507.691-.374.455-.59 1.218-.644 2.281l-3.011-.366c.18-2.006.744-3.443 1.688-4.318.947-.873 2.13-1.304 3.548-1.304 1.555 0 2.776.503 3.666 1.513.89 1.013 1.335 2.27 1.335 3.773 0 .856-.129 1.67-.382 2.444-.256.774-.657 1.583-1.209 2.43-.365.565-1.027 1.37-1.98 2.427-.955 1.055-1.557 1.755-1.81 2.102a6.074 6.074 0 0 0-.62 1.008h6.001z" transform="translate(312.314 -272.967)"/><path d="M-282.9 476.736h14.214v-77.84H-282.9v77.84z" style="fill:#fff;fill-opacity:1;fill-rule:evenodd;stroke:none" transform="translate(312.314 -272.967)"/><path style="fill:#fff;fill-opacity:1;fill-rule:evenodd;stroke:none" d="M-289.837 401.405h28.088l-14.041-27.184-14.047 27.184z" transform="translate(312.314 -272.967)"/><path style="fill:#ffdb00;fill-opacity:1;fill-rule:nonzero;stroke:none" d="M-152.828 299.204h3.954c.676 0 1.153-.03 1.428-.093.482-.103.885-.279 1.21-.52.326-.243.592-.598.801-1.067.21-.463.315-1.002.315-1.609 0-.716-.152-1.336-.454-1.862a2.505 2.505 0 0 0-1.261-1.11c-.537-.211-1.313-.319-2.323-.319h-3.67v6.58zm0-8.84h3.434c.93 0 1.595-.074 2-.222.533-.192.939-.507 1.207-.953.27-.442.406-1 .406-1.67 0-.636-.127-1.194-.378-1.678-.252-.482-.613-.814-1.084-.994-.467-.175-1.272-.266-2.413-.266h-3.172v5.783zm-2.1 11.098v-19.139h5.954c1.213 0 2.185.195 2.918.58.731.386 1.306.985 1.72 1.788.414.807.624 1.65.624 2.526 0 .82-.184 1.59-.552 2.31-.37.725-.925 1.309-1.67 1.75.962.343 1.7.92 2.217 1.736.516.82.774 1.786.774 2.902 0 .896-.157 1.73-.472 2.499-.312.771-.701 1.365-1.164 1.782-.462.416-1.04.735-1.737.947-.695.213-1.548.319-2.558.319h-6.054zM-132.572 288.589c0-1.347-.298-2.42-.892-3.213-.598-.79-1.312-1.188-2.149-1.188-.868 0-1.623.427-2.263 1.281-.644.852-.963 1.957-.963 3.317 0 1.217.302 2.206.912 2.97.611.76 1.363 1.14 2.26 1.14.901 0 1.641-.38 2.222-1.14.581-.764.873-1.818.873-3.167m-7.98 8.445 1.875-.205c.157 1.06.461 1.832.907 2.31.45.478 1.022.717 1.724.717.598 0 1.122-.167 1.574-.495.452-.332.82-.774 1.11-1.325.289-.554.532-1.3.724-2.241.195-.939.294-1.894.294-2.87l-.01-.472a4.937 4.937 0 0 1-1.598 1.822 3.79 3.79 0 0 1-2.193.698c-1.312 0-2.426-.575-3.332-1.723-.913-1.15-1.367-2.664-1.367-4.545 0-1.938.477-3.502 1.424-4.684.949-1.184 2.138-1.78 3.567-1.78 1.033 0 1.977.336 2.833 1.006.852.67 1.503 1.628 1.948 2.865.444 1.242.666 3.037.666 5.388 0 2.447-.22 4.394-.66 5.842-.44 1.45-1.096 2.554-1.964 3.31-.87.757-1.894 1.136-3.06 1.136-1.24 0-2.257-.415-3.04-1.245-.789-.833-1.262-2.002-1.422-3.51" transform="translate(312.314 -272.967)"/></svg>