<?xml version="1.0" encoding="UTF-8" standalone="no"?>
<!-- Created with Inkscape (http://www.inkscape.org/) -->

<svg
   width="1010.4"
   height="1010.4002"
   id="svg2"
   sodipodi:version="0.32"
   inkscape:version="1.1 (c68e22c387, 2021-05-23)"
   version="1.0"
   sodipodi:docname="Cyprus road sign - STOP.svg"
   inkscape:output_extension="org.inkscape.output.svg.inkscape"
   xmlns:inkscape="http://www.inkscape.org/namespaces/inkscape"
   xmlns:sodipodi="http://sodipodi.sourceforge.net/DTD/sodipodi-0.dtd"
   xmlns="http://www.w3.org/2000/svg"
   xmlns:svg="http://www.w3.org/2000/svg"
   xmlns:rdf="http://www.w3.org/1999/02/22-rdf-syntax-ns#"
   xmlns:cc="http://creativecommons.org/ns#"
   xmlns:dc="http://purl.org/dc/elements/1.1/">
  <defs
     id="defs4">
    <inkscape:perspective
       sodipodi:type="inkscape:persp3d"
       inkscape:vp_x="0 : 300.5 : 1"
       inkscape:vp_y="0 : 1000 : 0"
       inkscape:vp_z="601 : 300.5 : 1"
       inkscape:persp3d-origin="300.5 : 200.33333 : 1"
       id="perspective3380" />
    <inkscape:perspective
       id="perspective3990"
       inkscape:persp3d-origin="375 : 250 : 1"
       inkscape:vp_z="750 : 375 : 1"
       inkscape:vp_y="0 : 1000 : 0"
       inkscape:vp_x="0 : 375 : 1"
       sodipodi:type="inkscape:persp3d" />
  </defs>
  <sodipodi:namedview
     id="base"
     pagecolor="#ffffff"
     bordercolor="#666666"
     borderopacity="1.0"
     gridtolerance="10000"
     guidetolerance="10"
     objecttolerance="10"
     inkscape:pageopacity="0.0"
     inkscape:pageshadow="2"
     inkscape:zoom="0.44192573"
     inkscape:cx="557.78603"
     inkscape:cy="417.49097"
     inkscape:document-units="px"
     inkscape:current-layer="layer1"
     width="601px"
     height="601px"
     inkscape:window-width="1366"
     inkscape:window-height="715"
     inkscape:window-x="-8"
     inkscape:window-y="-8"
     showgrid="false"
     fit-margin-top="0.2"
     fit-margin-left="0.2"
     fit-margin-right="0.2"
     fit-margin-bottom="0.2"
     inkscape:window-maximized="1"
     showguides="true"
     inkscape:guide-bbox="true"
     inkscape:pagecheckerboard="0" />
  <metadata
     id="metadata7">
    <rdf:RDF>
      <cc:Work
         rdf:about="">
        <dc:format>image/svg+xml</dc:format>
        <dc:type
           rdf:resource="http://purl.org/dc/dcmitype/StillImage" />
      </cc:Work>
    </rdf:RDF>
  </metadata>
  <g
     inkscape:label="Layer 1"
     inkscape:groupmode="layer"
     id="layer1"
     transform="translate(1515.529,3241.075)">
    <rect
       style="color:#000000;fill:#000000;fill-opacity:1;fill-rule:nonzero;stroke:none;stroke-width:0.8735441;marker:none;visibility:visible;display:inline;overflow:visible"
       id="rect3653"
       width="0"
       height="27.202072"
       x="578.73834"
       y="298.1684"
       rx="249.48199"
       ry="27.202072" />
    <path
       inkscape:connector-curvature="0"
       id="path3940"
       d="m -801.1513,-2230.8749 295.8223,-295.8221 -10e-5,-418.3556 -295.822,-295.8224 -418.3557,3e-4 -295.8222,295.8221 2e-4,418.3558 295.822,295.822 z"
       style="fill:#000000;fill-opacity:1;stroke:none" />
    <path
       inkscape:connector-curvature="0"
       id="path3942"
       d="m -803.2223,-2235.875 292.8933,-292.8932 -10e-5,-414.2135 -292.8931,-292.8935 -414.2135,3e-4 -292.8933,292.8932 2e-4,414.2136 292.8931,292.8932 z"
       style="fill:#ffffff;fill-opacity:1;stroke:none" />
    <path
       style="fill:#ec1d24;fill-opacity:1;stroke:none"
       d="m -1203.7669,-3202.875 -273.5621,273.562 10e-5,386.8758 273.5619,273.5623 386.87553,-4e-4 273.56247,-273.5618 -2.9e-4,-386.8759 -273.56208,-273.5621 z"
       id="path3944"
       inkscape:connector-curvature="0" />
    <path
       id="path2864"
       style="fill:#ffffff;fill-opacity:1;fill-rule:evenodd;stroke:none"
       d="m -1400.3079,-2662.1066 v 63.9927 c 0.1687,13.8525 2.6662,26.9898 7.7204,39.4268 18.2353,41.9939 56.3732,55.8906 93.4143,56.4812 42.9456,-0.5248 92.4236,-33.8665 93.4177,-91.2567 v -33.8918 -36.0853 c -0.1688,-7.4504 -1.232,-14.4283 -3.1101,-21.4948 -4.6508,-15.4219 -12.6042,-24.5998 -23.3739,-34.3348 l -89.1871,-79.2858 c -7.0201,-6.345 -10.5132,-11.589 -10.6618,-22.3828 v -21.4715 -14.6139 c 0,-5.6258 0.6076,-10.876 2.2006,-16.1622 4.6339,-12.4181 16.3774,-16.6453 26.8654,-16.8372 7.7659,0.1518 15.1455,2.4511 20.7311,9.2623 5.6902,7.6593 7.2326,17.5186 7.4082,27.5045 v 43.8543 h 63.2499 v -52.2792 c -0.1856,-15.713 -3.9167,-30.2066 -10.3041,-43.8524 -17.4304,-34.5181 -47.8293,-51.1486 -80.7207,-51.6147 -24.1214,0.2767 -48.0858,7.636 -67.1058,26.1481 -16.8398,17.238 -26.0013,40.9771 -26.317,67.5429 v 23.0388 37.0008 c 0,8.2267 1.5019,16.2044 3.851,23.8995 3.7682,11.5342 9.2273,19.6787 17.3038,27.2492 l 88.4479,79.52 c 8.7363,8.1001 13.8546,18.4868 14.1533,31.8984 v 17.4974 18.8285 c 0,5.6257 -0.7426,10.895 -2.3912,16.1622 -4.8855,13.363 -15.8627,18.6977 -27.3969,19.0563 -8.5456,-0.1518 -17.1149,-2.1178 -23.5409,-9.353 -5.6701,-7.0434 -7.4049,-16.2868 -7.5348,-25.8655 v -57.5823 z m 265.3606,156.1396 h 62.5327 v -380.7377 l 61.5978,-0.2312 v -66.4438 l -185.9223,0.2346 0.1856,66.2097 h 61.6045 v 380.9697 z m 224.71855,-62.0225 h -0.3544 c -17.4962,-0.3848 -28.9814,-15.9113 -29.4235,-36.5348 v -244.7555 -5.5244 c 0.3206,-20.7733 12.0353,-35.9843 29.4235,-36.5517 h 0.3544 0.3882 c 17.4725,0.4017 28.9815,15.928 29.4236,36.5517 v 244.7364 5.5435 c -0.3206,20.7481 -12.0523,35.9589 -29.4236,36.5348 z m 0,65.7836 h 0.3882 c 24.4555,-0.2514 48.6529,-7.9102 66.9338,-28.2997 16.7537,-19.7629 23.7974,-46.2275 24.091,-74.0187 v -244.7555 -5.5244 c -0.2531,-28.4327 -7.7204,-55.4878 -25.193,-75.2632 -18.2117,-19.5289 -41.8673,-26.7388 -65.8318,-27.0805 h -0.3882 -0.3544 c -24.4538,0.2767 -48.6731,7.9102 -66.9506,28.325 -16.7554,19.7608 -23.77885,46.202 -24.07245,74.0187 v 244.7364 5.5435 c 0.2362,28.4072 7.71875,55.4814 25.17105,75.2442 18.232,19.5457 41.8876,26.7578 65.852,27.0742 z m 180.9781,-249.6155 v -136.2164 h 30.3331 c 16.585,0.3425 24.5382,14.2786 24.8319,33.2336 v 60.9067 8.8615 c -0.2363,19.0205 -8.3111,32.7907 -24.8319,33.2146 z m -61.6249,245.8544 h 61.6249 v -180.5116 h 50.5547 c 37.7413,-0.7594 65.3896,-45.8857 66.2165,-88.5968 v -85.2723 -4.4424 c -0.4893,-43.1119 -28.7485,-87.2806 -66.2165,-88.5715 l -112.1796,-0.017"
       inkscape:connector-curvature="0" />
  </g>
</svg>
