<svg xmlns="http://www.w3.org/2000/svg" width="153.961" height="261.42" viewBox="-0.025 -0.17 153.961 261.42" xml:space="preserve"><path d="M65.562 261.235V118.543h22.782v142.692" style="fill:#fff;stroke:#000;stroke-width:4.795856;stroke-linecap:butt;stroke-linejoin:miter;stroke-miterlimit:10;stroke-opacity:1;stroke-dasharray:none"/><path d="M140.455 228.02c0 7.507-6.089 13.596-13.596 13.596H27.047c-7.511 0-13.596-6.089-13.596-13.596v-58.337c0-7.512 6.085-13.6 13.596-13.6h99.812c7.507 0 13.596 6.088 13.596 13.6v58.337z" style="fill:#fff;stroke:#000;stroke-width:4.79675388;stroke-linecap:butt;stroke-linejoin:miter;stroke-miterlimit:10;stroke-opacity:1;stroke-dasharray:none"/><path d="M47.199 208.427v4.16H31.512c.17-1.575.677-3.065 1.53-4.47.848-1.404 2.526-3.27 5.03-5.595 2.019-1.88 3.257-3.154 3.71-3.823.62-.924.925-1.835.925-2.742 0-.991-.27-1.759-.803-2.297-.539-.538-1.28-.803-2.221-.803-.938 0-1.679.282-2.23.843-.552.561-.871 1.495-.956 2.8l-4.46-.444c.264-2.463 1.099-4.227 2.499-5.308 1.404-1.068 3.154-1.607 5.259-1.607 2.302 0 4.11.624 5.43 1.867 1.314 1.243 1.974 2.787 1.974 4.63 0 1.055-.189 2.051-.566 3.007-.377.947-.974 1.943-1.795 2.984-.538.691-1.516 1.683-2.925 2.975-1.414 1.297-2.311 2.158-2.688 2.585l-.916 1.238h8.89zM57.803 192.857c-.543 0-1.027.17-1.449.516-.426.346-.754.965-.987 1.853-.31 1.158-.462 3.106-.462 5.847 0 2.737.139 4.617.413 5.645.278 1.023.623 1.71 1.045 2.046.417.337.897.512 1.44.512.543 0 1.023-.175 1.45-.52.426-.346.754-.966.987-1.854.305-1.144.462-3.092.462-5.829 0-2.741-.14-4.617-.417-5.65-.274-1.018-.624-1.704-1.041-2.05a2.192 2.192 0 0 0-1.44-.516m0-3.715c2.26 0 4.029.812 5.303 2.423 1.517 1.911 2.275 5.075 2.275 9.508 0 4.416-.763 7.588-2.293 9.522-1.26 1.593-3.024 2.392-5.286 2.392-2.275 0-4.105-.88-5.492-2.62-1.39-1.746-2.086-4.86-2.086-9.339 0-4.402.762-7.56 2.293-9.494 1.26-1.593 3.024-2.392 5.285-2.392M75.943 192.857c-.543 0-1.028.17-1.45.516-.426.346-.754.965-.987 1.853-.31 1.158-.462 3.106-.462 5.847 0 2.737.139 4.617.413 5.645.278 1.023.623 1.71 1.04 2.046.423.337.903.512 1.446.512.543 0 1.023-.175 1.444-.52.427-.346.759-.966.992-1.854.305-1.144.462-3.092.462-5.829 0-2.741-.139-4.617-.417-5.65-.274-1.018-.624-1.704-1.041-2.05a2.192 2.192 0 0 0-1.44-.516m0-3.715c2.261 0 4.029.812 5.303 2.423 1.517 1.911 2.275 5.075 2.275 9.508 0 4.416-.762 7.588-2.293 9.522-1.26 1.593-3.024 2.392-5.285 2.392-2.275 0-4.106-.88-5.493-2.62-1.395-1.746-2.09-4.86-2.09-9.339 0-4.402.767-7.56 2.292-9.494 1.266-1.593 3.03-2.392 5.29-2.392M96.198 195.673h4.124v2.31c1.476-1.794 3.23-2.691 5.272-2.691 1.082 0 2.02.22 2.818.668.794.449 1.45 1.122 1.96 2.024.741-.902 1.545-1.575 2.406-2.024a5.854 5.854 0 0 1 2.755-.668c1.239 0 2.293.255 3.15.753.862.507 1.503 1.248 1.93 2.226.31.722.462 1.89.462 3.504v10.81H116.6v-9.665c0-1.679-.157-2.76-.467-3.254-.412-.637-1.05-.955-1.911-.955-.624 0-1.216.197-1.764.579-.551.376-.95.942-1.193 1.682-.247.736-.368 1.898-.368 3.491v8.122h-4.478v-9.266c0-1.647-.076-2.71-.238-3.186-.157-.48-.404-.83-.74-1.063-.337-.234-.786-.36-1.36-.36-.69 0-1.31.19-1.867.566-.551.368-.942.907-1.184 1.607-.238.695-.36 1.862-.36 3.486v8.216h-4.473v-16.912z" style="fill:#000;fill-opacity:1;fill-rule:nonzero;stroke:none"/><path d="M10.133-.17c-3.626.05-6.987 1.988-8.795 5.138a10.213 10.213 0 0 0 0 10.195l66.832 115.53a10.191 10.191 0 0 0 17.626 0l66.75-115.53a10.042 10.042 0 0 0 0-10.195 10.165 10.165 0 0 0-8.804-5.088L10.132-.17z" style="fill:#ed1d24;fill-opacity:1;fill-rule:evenodd;stroke:none"/><path style="fill:#fff;fill-opacity:1;fill-rule:evenodd;stroke:none" d="M137.828 13.476H16.092l60.85 105.335z"/></svg>