<svg xmlns="http://www.w3.org/2000/svg" width="211.851" height="211.713"><path d="M0 0c7.465 0 13.608 6.117 13.608 13.582 0 7.49-6.143 13.61-13.608 13.61-7.491 0-13.61-6.12-13.61-13.61C-13.61 6.117-7.491 0 0 0" style="fill:#fff;fill-opacity:1;fill-rule:evenodd;stroke:none" transform="matrix(6.22998 0 0 -6.22998 105.916 190.553)"/><path d="M0 0c7.467 0 13.608 6.119 13.608 13.584 0 7.491-6.141 13.608-13.608 13.608-7.491 0-13.608-6.117-13.608-13.608C-13.608 6.119-7.491 0 0 0m0-3.394c9.356 0 17.004 7.648 17.004 16.978 0 9.359-7.648 17.005-17.004 17.005-9.354 0-17.001-7.646-17.001-17.005 0-9.33 7.647-16.978 17.001-16.978" style="fill:#ed1d24;fill-opacity:1;fill-rule:evenodd;stroke:none" transform="matrix(6.22998 0 0 -6.22998 105.916 190.569)"/><g style="stroke:#000;stroke-width:.49053115;stroke-miterlimit:4;stroke-opacity:1;stroke-dasharray:none"><path d="M0 0h-2.538C-1.247.844-.452 1.966-.452 3.201c0 2.622-3.553 4.747-7.934 4.747-4.383 0-7.933-2.125-7.933-4.747 0-1.235.794-2.357 2.086-3.201h-2.482v-1.337h5.983c.743-.136 1.53-.21 2.346-.21.816 0 1.603.074 2.344.21H0V0z" style="fill:#f8ac20;fill-opacity:1;fill-rule:nonzero;stroke:#000;stroke-width:.49053115;stroke-miterlimit:4;stroke-opacity:1;stroke-dasharray:none" transform="matrix(6.22998 0 0 -6.22998 158.635 102.613)"/></g><path d="M0 0h-2.538C-1.247.844-.452 1.966-.452 3.201c0 2.622-3.553 4.747-7.934 4.747-4.383 0-7.933-2.125-7.933-4.747 0-1.235.794-2.357 2.086-3.201h-2.482v-1.337h5.983c.743-.136 1.53-.21 2.346-.21.816 0 1.603.074 2.344.21H0V0z" style="fill:none;stroke:#000;stroke-width:.09630847;stroke-linecap:butt;stroke-linejoin:miter;stroke-miterlimit:10;stroke-opacity:1;stroke-dasharray:none" transform="matrix(6.22998 0 0 -6.22998 158.635 102.613)"/><path d="M228.917 548.08H320v-6.355h-91.083v6.354z" style="fill:#000;fill-opacity:1;fill-rule:nonzero;stroke:none" transform="translate(-167.542 -419.795)"/><path d="M312.405 556.21h4.586v-21.893h-4.586v21.892z" style="fill:#000;fill-opacity:1;fill-rule:nonzero;stroke:none" transform="translate(-167.542 -419.795)"/><path d="M310.113 554.533h4.585v-16.596h-4.585v16.596zM231.384 556.21h4.598v-21.893h-4.598v21.892z" style="fill:#000;fill-opacity:1;fill-rule:nonzero;stroke:none" transform="translate(-167.542 -419.795)"/><path d="M233.69 554.533h4.585v-16.596h-4.585v16.596z" style="fill:#000;fill-opacity:1;fill-rule:nonzero;stroke:none" transform="translate(-167.542 -419.795)"/><path d="M0 0c0-.623-.457-1.128-1.02-1.128-.562 0-1.019.505-1.019 1.128 0 .623.457 1.128 1.019 1.128C-.457 1.128 0 .623 0 0" style="fill:#000;fill-opacity:1;fill-rule:nonzero;stroke:none" transform="matrix(6.22998 0 0 -6.22998 113.268 125.497)"/><path style="fill:none;stroke:#59a8ca;stroke-width:3.3499999;stroke-linecap:butt;stroke-linejoin:miter;stroke-miterlimit:10;stroke-opacity:1;stroke-dasharray:none" d="M212.038 561.97c4.043-.248 8.105-.442 12.16-.504 4.848-.08 7.184.997 11.595 2.343 5.464 1.67 10.092 2.629 15.593 1.146 6.604-1.782 13.233-4.056 20.036-4.934 7.432-.96 13.93 4.155 20.952 5.681 6.192 1.352 13.886-1.339 19.992-2.548 7.239-1.42 15.157-1.009 22.515-1.42m-122.843 6.404c4.043-.249 8.105-.442 12.16-.504 4.848-.075 7.184 1.003 11.595 2.348 5.464 1.658 10.092 2.617 15.593 1.14 6.604-1.781 13.233-4.043 20.036-4.927 7.432-.966 13.93 4.149 20.952 5.681 6.192 1.346 13.886-1.352 19.992-2.548 7.239-1.42 15.157-1.009 22.515-1.426" transform="translate(-167.542 -419.795)"/></svg>