<svg xmlns="http://www.w3.org/2000/svg" width="213.966" height="213.96"><path d="m0 0 15.968 15.968L31.938 0l-15.97-15.969L0 0z" style="fill:#000;fill-opacity:1;fill-rule:evenodd;stroke:none" transform="matrix(6.69943 0 0 -6.69943 0 106.977)"/><path d="m0 0 15.082 15.081L30.163 0 15.082-15.082 0 0z" style="fill:#fff;fill-opacity:1;fill-rule:evenodd;stroke:none" transform="matrix(6.69943 0 0 -6.69943 5.944 106.977)"/><path d="m0 0 9.226 9.226L18.453 0 9.226-9.227 0 0z" style="fill:#000;fill-opacity:1;fill-rule:evenodd;stroke:none" transform="matrix(6.69943 0 0 -6.69943 45.166 106.977)"/><path d="m0 0 8.517 8.516L17.033 0 8.517-8.517 0 0z" style="fill:#ffdb00;fill-opacity:1;fill-rule:evenodd;stroke:none" transform="matrix(6.69943 0 0 -6.69943 49.924 106.977)"/></svg>