<?xml version="1.0" encoding="UTF-8" standalone="no"?>
<!-- Created with Inkscape (http://www.inkscape.org/) -->

<svg
   xmlns:dc="http://purl.org/dc/elements/1.1/"
   xmlns:cc="http://creativecommons.org/ns#"
   xmlns:rdf="http://www.w3.org/1999/02/22-rdf-syntax-ns#"
   xmlns:svg="http://www.w3.org/2000/svg"
   xmlns="http://www.w3.org/2000/svg"
   xmlns:sodipodi="http://sodipodi.sourceforge.net/DTD/sodipodi-0.dtd"
   xmlns:inkscape="http://www.inkscape.org/namespaces/inkscape"
   width="267.28412"
   height="421.90918"
   id="svg3949"
   version="1.1"
   inkscape:version="0.47 r22583"
   sodipodi:docname="Cyprus road sign SOS.svg">
  <defs
     id="defs3951">
    <inkscape:perspective
       sodipodi:type="inkscape:persp3d"
       inkscape:vp_x="0 : 526.18109 : 1"
       inkscape:vp_y="0 : 1000 : 0"
       inkscape:vp_z="744.09448 : 526.18109 : 1"
       inkscape:persp3d-origin="372.04724 : 350.78739 : 1"
       id="perspective3957" />
    <inkscape:perspective
       id="perspective3866"
       inkscape:persp3d-origin="0.5 : 0.33333333 : 1"
       inkscape:vp_z="1 : 0.5 : 1"
       inkscape:vp_y="0 : 1000 : 0"
       inkscape:vp_x="0 : 0.5 : 1"
       sodipodi:type="inkscape:persp3d" />
    <clipPath
       clipPathUnits="userSpaceOnUse"
       id="clipPath3544">
      <path
         d="m 224.645,53.859 54.567,0 0,86.456 -54.567,0 0,-86.456 z"
         id="path3546" />
    </clipPath>
    <clipPath
       clipPathUnits="userSpaceOnUse"
       id="clipPath3524">
      <path
         d="M 0,0 311,0 311,595 0,595 0,0 z"
         id="path3526" />
    </clipPath>
    <inkscape:perspective
       id="perspective6206"
       inkscape:persp3d-origin="0.5 : 0.33333333 : 1"
       inkscape:vp_z="1 : 0.5 : 1"
       inkscape:vp_y="0 : 1000 : 0"
       inkscape:vp_x="0 : 0.5 : 1"
       sodipodi:type="inkscape:persp3d" />
    <clipPath
       clipPathUnits="userSpaceOnUse"
       id="clipPath4388">
      <path
         d="m 224.504,464.882 34.299,0 0,58.11 -34.299,0 0,-58.11 z"
         id="path4390" />
    </clipPath>
    <clipPath
       clipPathUnits="userSpaceOnUse"
       id="clipPath4374">
      <path
         d="M 0,0 311,0 311,595 0,595 0,0 z"
         id="path4376" />
    </clipPath>
    <inkscape:perspective
       id="perspective6324"
       inkscape:persp3d-origin="0.5 : 0.33333333 : 1"
       inkscape:vp_z="1 : 0.5 : 1"
       inkscape:vp_y="0 : 1000 : 0"
       inkscape:vp_x="0 : 0.5 : 1"
       sodipodi:type="inkscape:persp3d" />
    <clipPath
       clipPathUnits="userSpaceOnUse"
       id="clipPath4554">
      <path
         d="m 153.071,381.26 55.275,0 0,58.11 -55.275,0 0,-58.11 z"
         id="path4556" />
    </clipPath>
    <clipPath
       clipPathUnits="userSpaceOnUse"
       id="clipPath4528">
      <path
         d="m 92.693,381.26 55.275,0 0,58.11 -55.275,0 0,-58.11 z"
         id="path4530" />
    </clipPath>
    <clipPath
       clipPathUnits="userSpaceOnUse"
       id="clipPath4440">
      <path
         d="m 214.016,381.26 55.276,0 0,58.11 -55.276,0 0,-58.11 z"
         id="path4442" />
    </clipPath>
    <inkscape:perspective
       id="perspective6436"
       inkscape:persp3d-origin="0.5 : 0.33333333 : 1"
       inkscape:vp_z="1 : 0.5 : 1"
       inkscape:vp_y="0 : 1000 : 0"
       inkscape:vp_x="0 : 0.5 : 1"
       sodipodi:type="inkscape:persp3d" />
    <clipPath
       clipPathUnits="userSpaceOnUse"
       id="clipPath4554-4">
      <path
         d="m 153.071,381.26 55.275,0 0,58.11 -55.275,0 0,-58.11 z"
         id="path4556-0" />
    </clipPath>
    <clipPath
       clipPathUnits="userSpaceOnUse"
       id="clipPath4440-9">
      <path
         d="m 214.016,381.26 55.276,0 0,58.11 -55.276,0 0,-58.11 z"
         id="path4442-4" />
    </clipPath>
    <inkscape:perspective
       id="perspective6436-8"
       inkscape:persp3d-origin="0.5 : 0.33333333 : 1"
       inkscape:vp_z="1 : 0.5 : 1"
       inkscape:vp_y="0 : 1000 : 0"
       inkscape:vp_x="0 : 0.5 : 1"
       sodipodi:type="inkscape:persp3d" />
    <clipPath
       clipPathUnits="userSpaceOnUse"
       id="clipPath4554-8">
      <path
         d="m 153.071,381.26 55.275,0 0,58.11 -55.275,0 0,-58.11 z"
         id="path4556-2" />
    </clipPath>
    <clipPath
       clipPathUnits="userSpaceOnUse"
       id="clipPath4440-4">
      <path
         d="m 214.016,381.26 55.276,0 0,58.11 -55.276,0 0,-58.11 z"
         id="path4442-5" />
    </clipPath>
    <inkscape:perspective
       id="perspective6552"
       inkscape:persp3d-origin="0.5 : 0.33333333 : 1"
       inkscape:vp_z="1 : 0.5 : 1"
       inkscape:vp_y="0 : 1000 : 0"
       inkscape:vp_x="0 : 0.5 : 1"
       sodipodi:type="inkscape:persp3d" />
    <clipPath
       clipPathUnits="userSpaceOnUse"
       id="clipPath4492">
      <path
         d="m 32.598,287.716 55.276,0 0,50.315 -55.276,0 0,-50.315 z"
         id="path4494" />
    </clipPath>
    <inkscape:perspective
       id="perspective6625"
       inkscape:persp3d-origin="0.5 : 0.33333333 : 1"
       inkscape:vp_z="1 : 0.5 : 1"
       inkscape:vp_y="0 : 1000 : 0"
       inkscape:vp_x="0 : 0.5 : 1"
       sodipodi:type="inkscape:persp3d" />
    <clipPath
       clipPathUnits="userSpaceOnUse"
       id="clipPath5156">
      <path
         d="m 32.598,20.626 71.434,0 0,121.106 -71.434,0 0,-121.106 z"
         id="path5158" />
    </clipPath>
  </defs>
  <sodipodi:namedview
     id="base"
     pagecolor="#ffffff"
     bordercolor="#666666"
     borderopacity="1.0"
     inkscape:pageopacity="0.0"
     inkscape:pageshadow="2"
     inkscape:zoom="0.83535156"
     inkscape:cx="568.74256"
     inkscape:cy="163.93562"
     inkscape:document-units="px"
     inkscape:current-layer="layer1"
     showgrid="false"
     inkscape:window-width="1600"
     inkscape:window-height="838"
     inkscape:window-x="-8"
     inkscape:window-y="-8"
     inkscape:window-maximized="1" />
  <metadata
     id="metadata3954">
    <rdf:RDF>
      <cc:Work
         rdf:about="">
        <dc:format>image/svg+xml</dc:format>
        <dc:type
           rdf:resource="http://purl.org/dc/dcmitype/StillImage" />
        <dc:title></dc:title>
      </cc:Work>
    </rdf:RDF>
  </metadata>
  <g
     inkscape:label="Livello 1"
     inkscape:groupmode="layer"
     id="layer1"
     transform="translate(193.74256,-159.35071)">
    <g
       transform="matrix(3.9180304,0,0,-3.9180304,-327.75997,708.4094)"
       id="g5152">
      <g
         id="g5154"
         clip-path="url(#clipPath5156)">
        <g
           id="g5160"
           transform="translate(102.4243,33.971405)">
          <path
             d="m 0,0 c 0,-0.839 -0.68,-1.519 -1.518,-1.519 l -65.181,0 c -0.839,0 -1.52,0.68 -1.52,1.519 l 0,104.647 c 0,0.838 0.681,1.518 1.52,1.518 l 65.181,0 c 0.838,0 1.518,-0.68 1.518,-1.518 L 0,0 z"
             style="fill:#007ac2;fill-opacity:1;fill-rule:nonzero;stroke:none"
             id="path5162" />
        </g>
        <g
           id="g5164"
           transform="translate(53.626404,135.882)">
          <path
             d="m 0,0 c 0,-0.521 0.12,-0.916 0.361,-1.185 0.241,-0.269 0.546,-0.403 0.917,-0.403 0.37,0 0.674,0.133 0.912,0.4 0.237,0.267 0.356,0.667 0.356,1.201 0,0.527 -0.116,0.92 -0.347,1.18 C 1.968,1.452 1.661,1.582 1.278,1.582 0.895,1.582 0.586,1.451 0.352,1.188 0.117,0.926 0,0.529 0,0 m -0.958,-0.031 c 0,0.468 0.071,0.862 0.211,1.18 0.105,0.234 0.247,0.445 0.428,0.631 0.181,0.186 0.38,0.324 0.595,0.414 0.287,0.122 0.618,0.182 0.992,0.182 0.678,0 1.221,-0.21 1.628,-0.631 0.407,-0.42 0.61,-1.005 0.61,-1.754 0,-0.743 -0.202,-1.325 -0.605,-1.744 -0.404,-0.42 -0.944,-0.63 -1.62,-0.63 -0.685,0 -1.229,0.209 -1.633,0.627 -0.404,0.417 -0.606,0.992 -0.606,1.725"
             style="fill:#ffffff;fill-opacity:1;fill-rule:nonzero;stroke:none"
             id="path5166" />
        </g>
        <g
           id="g5168"
           transform="translate(60.030304,138.17979)">
          <path
             d="m 0,0 1.645,-4.602 -1.008,0 -1.164,3.403 -1.127,-3.403 -0.986,0 L -0.992,0 0,0 z"
             style="fill:#ffffff;fill-opacity:1;fill-rule:nonzero;stroke:none"
             id="path5170" />
        </g>
        <g
           id="g5172"
           transform="translate(62.770798,133.5779)">
          <path
             d="m 0,0 0,1.937 -1.686,2.665 1.089,0 1.084,-1.821 1.061,1.821 1.07,0 L 0.926,1.931 0.926,0 0,0 z"
             style="fill:#ffffff;fill-opacity:1;fill-rule:nonzero;stroke:none"
             id="path5174" />
        </g>
        <g
           id="g5176"
           transform="translate(65.837707,133.5779)">
          <path
             d="m 0,0 0,4.602 1.391,0 0.835,-3.139 0.825,3.139 1.394,0 0,-4.602 -0.863,0 0,3.623 L 2.668,0 1.774,0 0.863,3.623 0.863,0 0,0 z"
             style="fill:#ffffff;fill-opacity:1;fill-rule:nonzero;stroke:none"
             id="path5178" />
        </g>
        <g
           id="g5180"
           transform="translate(71.221298,133.5779)">
          <path
             d="m 0,0 0,4.602 3.679,0 0,-4.602 -0.929,0 0,3.823 -1.821,0 L 0.929,0 0,0 z"
             style="fill:#ffffff;fill-opacity:1;fill-rule:nonzero;stroke:none"
             id="path5182" />
        </g>
        <g
           id="g5184"
           transform="translate(76.617401,135.882)">
          <path
             d="m 0,0 c 0,-0.521 0.12,-0.916 0.361,-1.185 0.241,-0.269 0.546,-0.403 0.917,-0.403 0.37,0 0.674,0.133 0.912,0.4 0.237,0.267 0.356,0.667 0.356,1.201 0,0.527 -0.116,0.92 -0.347,1.18 C 1.968,1.452 1.661,1.582 1.278,1.582 0.895,1.582 0.586,1.451 0.352,1.188 0.117,0.926 0,0.529 0,0 m -0.957,-0.031 c 0,0.468 0.07,0.862 0.21,1.18 0.105,0.234 0.247,0.445 0.428,0.631 0.181,0.186 0.38,0.324 0.595,0.414 0.287,0.122 0.618,0.182 0.992,0.182 0.678,0 1.221,-0.21 1.628,-0.631 0.407,-0.42 0.61,-1.005 0.61,-1.754 0,-0.743 -0.202,-1.325 -0.605,-1.744 -0.404,-0.42 -0.944,-0.63 -1.62,-0.63 -0.685,0 -1.229,0.209 -1.633,0.627 -0.403,0.417 -0.605,0.992 -0.605,1.725"
             style="fill:#ffffff;fill-opacity:1;fill-rule:nonzero;stroke:none"
             id="path5186" />
        </g>
        <g
           id="g5188"
           transform="translate(80.723495,138.17979)">
          <path
             d="m 0,0 3.186,0 0,-0.779 -2.04,0 1.19,-1.418 -1.313,-1.63 2.26,0 0,-0.775 -3.343,0 0,0.86 1.234,1.545 L 0,-0.829 0,0 z"
             style="fill:#ffffff;fill-opacity:1;fill-rule:nonzero;stroke:none"
             id="path5190" />
        </g>
        <g
           id="g5192"
           transform="translate(53.626404,128.16701)">
          <path
             d="m 0,0 c 0,-0.521 0.12,-0.916 0.361,-1.185 0.241,-0.269 0.546,-0.403 0.917,-0.403 0.37,0 0.674,0.133 0.912,0.4 0.237,0.267 0.356,0.667 0.356,1.201 0,0.527 -0.116,0.92 -0.347,1.18 C 1.968,1.452 1.661,1.582 1.278,1.582 0.895,1.582 0.586,1.451 0.352,1.188 0.117,0.926 0,0.53 0,0 m -0.958,-0.031 c 0,0.468 0.071,0.862 0.211,1.18 0.105,0.234 0.247,0.445 0.428,0.631 0.181,0.186 0.38,0.324 0.595,0.414 0.287,0.122 0.618,0.182 0.992,0.182 0.678,0 1.221,-0.21 1.628,-0.631 0.407,-0.42 0.61,-1.005 0.61,-1.754 0,-0.743 -0.202,-1.325 -0.605,-1.744 -0.404,-0.42 -0.944,-0.63 -1.62,-0.63 -0.685,0 -1.229,0.209 -1.633,0.627 -0.404,0.417 -0.606,0.992 -0.606,1.725"
             style="fill:#ffffff;fill-opacity:1;fill-rule:nonzero;stroke:none"
             id="path5194" />
        </g>
        <g
           id="g5196"
           transform="translate(57.883102,125.86301)">
          <path
             d="m 0,0 0,4.564 0.929,0 0,-3.789 2.311,0 L 3.24,0 0,0 z"
             style="fill:#ffffff;fill-opacity:1;fill-rule:nonzero;stroke:none"
             id="path5198" />
        </g>
        <g
           id="g5200"
           transform="translate(62.403397,125.86301)">
          <path
             d="m 0,0 0,1.937 -1.686,2.665 1.09,0 1.083,-1.821 1.061,1.821 1.07,0 L 0.926,1.93 0.926,0 0,0 z"
             style="fill:#ffffff;fill-opacity:1;fill-rule:nonzero;stroke:none"
             id="path5202" />
        </g>
        <g
           id="g5204"
           transform="translate(65.470398,125.86301)">
          <path
             d="m 0,0 0,4.602 1.391,0 0.835,-3.139 0.825,3.139 1.394,0 0,-4.602 -0.863,0 0,3.622 L 2.668,0 1.774,0 0.863,3.622 0.863,0 0,0 z"
             style="fill:#ffffff;fill-opacity:1;fill-rule:nonzero;stroke:none"
             id="path5206" />
        </g>
        <g
           id="g5208"
           transform="translate(71.767502,129.6864)">
          <path
             d="m 0,0 0,-1.306 0.509,0 c 0.366,0 0.611,0.024 0.734,0.072 0.124,0.049 0.22,0.124 0.29,0.226 0.07,0.103 0.106,0.222 0.106,0.358 0,0.168 -0.05,0.306 -0.148,0.415 C 1.393,-0.127 1.268,-0.059 1.117,-0.031 1.007,-0.01 0.784,0 0.449,0 L 0,0 z m -0.929,-3.823 0,4.602 1.491,0 c 0.565,0 0.933,-0.023 1.105,-0.07 C 1.93,0.64 2.151,0.49 2.329,0.259 2.507,0.028 2.596,-0.271 2.596,-0.637 2.596,-0.92 2.545,-1.157 2.442,-1.35 2.34,-1.542 2.209,-1.694 2.051,-1.803 1.893,-1.913 1.733,-1.986 1.57,-2.022 1.348,-2.066 1.027,-2.087 0.606,-2.087 l -0.606,0 0,-1.736 -0.929,0 z"
             style="fill:#ffffff;fill-opacity:1;fill-rule:nonzero;stroke:none"
             id="path5210" />
        </g>
        <g
           id="g5212"
           transform="translate(75.120102,130.465)">
          <path
             d="m 0,0 0.929,0 0,-2.492 c 0,-0.396 0.012,-0.652 0.035,-0.77 0.039,-0.188 0.134,-0.339 0.284,-0.453 0.149,-0.114 0.354,-0.171 0.613,-0.171 0.264,0 0.463,0.054 0.597,0.161 0.134,0.108 0.214,0.241 0.242,0.397 0.027,0.157 0.04,0.418 0.04,0.782 l 0,2.546 0.93,0 0,-2.417 C 3.67,-2.97 3.644,-3.36 3.594,-3.588 3.544,-3.816 3.451,-4.009 3.316,-4.166 3.181,-4.323 3.001,-4.448 2.775,-4.541 2.549,-4.634 2.254,-4.681 1.89,-4.681 c -0.44,0 -0.773,0.051 -1,0.153 C 0.663,-4.427 0.483,-4.295 0.352,-4.133 0.22,-3.971 0.133,-3.8 0.091,-3.623 0.03,-3.359 0,-2.97 0,-2.455 L 0,0 z"
             style="fill:#ffffff;fill-opacity:1;fill-rule:nonzero;stroke:none"
             id="path5214" />
        </g>
        <g
           id="g5216"
           transform="translate(79.533707,127.36031)">
          <path
             d="m 0,0 0.904,0.088 c 0.054,-0.304 0.165,-0.526 0.331,-0.669 0.167,-0.142 0.391,-0.213 0.674,-0.213 0.299,0 0.524,0.063 0.676,0.19 0.152,0.126 0.228,0.274 0.228,0.444 0,0.109 -0.032,0.201 -0.096,0.278 C 2.653,0.194 2.542,0.261 2.383,0.317 2.274,0.355 2.026,0.422 1.639,0.518 1.141,0.641 0.791,0.793 0.59,0.973 0.308,1.226 0.166,1.535 0.166,1.899 c 0,0.235 0.067,0.454 0.2,0.658 0.133,0.204 0.324,0.359 0.574,0.466 0.25,0.107 0.552,0.16 0.906,0.16 0.577,0 1.012,-0.126 1.304,-0.38 C 3.442,2.55 3.595,2.212 3.61,1.789 L 2.681,1.748 C 2.641,1.985 2.556,2.155 2.425,2.259 2.294,2.362 2.098,2.414 1.836,2.414 1.566,2.414 1.355,2.359 1.202,2.248 1.104,2.177 1.055,2.081 1.055,1.962 1.055,1.853 1.101,1.76 1.193,1.683 1.31,1.584 1.595,1.482 2.047,1.375 2.499,1.268 2.833,1.158 3.05,1.044 3.266,0.93 3.436,0.774 3.558,0.576 3.681,0.378 3.742,0.134 3.742,-0.157 3.742,-0.421 3.669,-0.668 3.522,-0.898 3.376,-1.128 3.168,-1.299 2.901,-1.411 2.633,-1.523 2.299,-1.579 1.899,-1.579 c -0.582,0 -1.028,0.135 -1.34,0.403 C 0.247,-0.907 0.061,-0.515 0,0"
             style="fill:#ffffff;fill-opacity:1;fill-rule:nonzero;stroke:none"
             id="path5218" />
        </g>
        <path
           d="m 41.885,91.931 53.218,0 0,32.681 -53.218,0 0,-32.681 z"
           style="fill:#389f47;fill-opacity:1;fill-rule:nonzero;stroke:none"
           id="path5220" />
        <path
           d="m 41.171,63.358 53.396,0 0,24.644 -53.396,0 0,-24.644 z"
           style="fill:#ffffff;fill-opacity:1;fill-rule:nonzero;stroke:none"
           id="path5222" />
        <path
           d="m 41.171,34.428 53.396,0 0,24.644 -53.396,0 0,-24.644 z"
           style="fill:#ffffff;fill-opacity:1;fill-rule:nonzero;stroke:none"
           id="path5224" />
        <g
           id="g5226"
           transform="translate(42.801605,48.037094)">
          <path
             d="m 0,0 0,3.835 3.066,0 0,-3.835 -0.774,0 0,3.186 -1.518,0 L 0.774,0 0,0 z"
             style="fill:#000000;fill-opacity:1;fill-rule:nonzero;stroke:none"
             id="path5228" />
        </g>
        <g
           id="g5230"
           transform="translate(48.253403,51.872101)">
          <path
             d="m 0,0 1.371,-3.835 -0.84,0 -0.971,2.836 -0.939,-2.836 -0.821,0 L -0.827,0 0,0 z"
             style="fill:#000000;fill-opacity:1;fill-rule:nonzero;stroke:none"
             id="path5232" />
        </g>
        <g
           id="g5234"
           transform="translate(51.834793,49.554306)">
          <path
             d="M 0,0 -0.528,1.423 -1.046,0 0,0 z m 1.426,-1.517 -0.843,0 -0.335,0.871 -1.532,0 -0.317,-0.871 -0.821,0 1.493,3.835 0.819,0 1.536,-3.835 z"
             style="fill:#000000;fill-opacity:1;fill-rule:nonzero;stroke:none"
             id="path5236" />
        </g>
        <g
           id="g5238"
           transform="translate(53.875503,48.037094)">
          <path
             d="m 0,0 0,3.186 -1.138,0 0,0.649 3.048,0 0,-0.649 -1.136,0 L 0.774,0 0,0 z"
             style="fill:#000000;fill-opacity:1;fill-rule:nonzero;stroke:none"
             id="path5240" />
        </g>
        <g
           id="g5242"
           transform="translate(56.070496,48.037094)">
          <path
             d="m 0,0 0,3.835 2.844,0 0,-0.649 -2.07,0 0,-0.85 1.926,0 0,-0.646 -1.926,0 0,-1.044 2.143,0 L 2.917,0 0,0 z"
             style="fill:#000000;fill-opacity:1;fill-rule:nonzero;stroke:none"
             id="path5244" />
        </g>
        <path
           d="m 59.406,48.037 0.774,0 0,3.835 -0.774,0 0,-3.835 z"
           style="fill:#000000;fill-opacity:1;fill-rule:nonzero;stroke:none"
           id="path5246" />
        <g
           id="g5248"
           transform="translate(62.736404,49.554306)">
          <path
             d="M 0,0 -0.528,1.423 -1.046,0 0,0 z m 1.426,-1.517 -0.843,0 -0.335,0.871 -1.532,0 -0.317,-0.871 -0.821,0 1.493,3.835 0.819,0 1.536,-3.835 z"
             style="fill:#000000;fill-opacity:1;fill-rule:nonzero;stroke:none"
             id="path5250" />
        </g>
        <g
           id="g5252"
           transform="translate(66.495804,48.037094)">
          <path
             d="m 0,0 0,3.186 -1.138,0 0,0.649 3.048,0 0,-0.649 -1.136,0 L 0.774,0 0,0 z"
             style="fill:#000000;fill-opacity:1;fill-rule:nonzero;stroke:none"
             id="path5254" />
        </g>
        <g
           id="g5256"
           transform="translate(69.465195,51.223297)">
          <path
             d="m 0,0 0,-1.088 0.424,0 c 0.305,0 0.509,0.02 0.612,0.06 0.103,0.04 0.183,0.103 0.242,0.188 0.058,0.086 0.087,0.185 0.087,0.298 0,0.14 -0.041,0.255 -0.122,0.346 -0.083,0.09 -0.186,0.147 -0.312,0.17 C 0.839,-0.009 0.653,0 0.374,0 L 0,0 z m -0.774,-3.186 0,3.835 1.242,0 c 0.471,0 0.778,-0.02 0.921,-0.058 C 1.609,0.534 1.793,0.409 1.941,0.216 2.089,0.023 2.163,-0.226 2.163,-0.531 2.163,-0.766 2.121,-0.964 2.035,-1.125 1.95,-1.285 1.841,-1.412 1.709,-1.503 1.578,-1.595 1.444,-1.655 1.308,-1.685 1.123,-1.721 0.855,-1.74 0.505,-1.74 l -0.505,0 0,-1.446 -0.774,0 z"
             style="fill:#000000;fill-opacity:1;fill-rule:nonzero;stroke:none"
             id="path5258" />
        </g>
        <g
           id="g5260"
           transform="translate(72.690903,49.957107)">
          <path
             d="m 0,0 c 0,-0.434 0.1,-0.763 0.301,-0.988 0.2,-0.224 0.455,-0.336 0.764,-0.336 0.308,0 0.562,0.111 0.76,0.334 0.197,0.222 0.297,0.556 0.297,1.001 0,0.439 -0.097,0.767 -0.29,0.983 C 1.64,1.21 1.384,1.318 1.065,1.318 0.746,1.318 0.488,1.209 0.293,0.99 0.098,0.771 0,0.441 0,0 m -0.798,-0.026 c 0,0.391 0.058,0.718 0.175,0.984 0.087,0.195 0.207,0.37 0.358,0.525 0.15,0.156 0.315,0.271 0.495,0.346 0.239,0.101 0.514,0.151 0.827,0.151 0.565,0 1.017,-0.175 1.356,-0.525 0.339,-0.351 0.509,-0.839 0.509,-1.463 0,-0.619 -0.168,-1.103 -0.505,-1.453 -0.337,-0.35 -0.786,-0.524 -1.35,-0.524 -0.57,0 -1.024,0.174 -1.36,0.521 -0.337,0.349 -0.505,0.827 -0.505,1.438"
             style="fill:#000000;fill-opacity:1;fill-rule:nonzero;stroke:none"
             id="path5262" />
        </g>
        <g
           id="g5264"
           transform="translate(76.643799,49.957107)">
          <path
             d="m 0,0 c 0,-0.434 0.1,-0.763 0.301,-0.988 0.2,-0.224 0.455,-0.336 0.764,-0.336 0.308,0 0.562,0.111 0.76,0.334 0.197,0.222 0.296,0.556 0.296,1.001 0,0.439 -0.096,0.767 -0.289,0.983 C 1.64,1.21 1.384,1.318 1.065,1.318 0.746,1.318 0.488,1.209 0.293,0.99 0.098,0.771 0,0.441 0,0 m -0.798,-0.026 c 0,0.391 0.059,0.718 0.175,0.984 0.088,0.195 0.207,0.37 0.358,0.525 0.15,0.156 0.316,0.271 0.495,0.346 0.239,0.101 0.515,0.151 0.827,0.151 0.565,0 1.017,-0.175 1.356,-0.525 0.339,-0.351 0.509,-0.839 0.509,-1.463 0,-0.619 -0.168,-1.103 -0.505,-1.453 -0.336,-0.35 -0.786,-0.524 -1.35,-0.524 -0.57,0 -1.023,0.174 -1.36,0.521 -0.337,0.349 -0.505,0.827 -0.505,1.438"
             style="fill:#000000;fill-opacity:1;fill-rule:nonzero;stroke:none"
             id="path5266" />
        </g>
        <g
           id="g5268"
           transform="translate(82.179199,48.683197)">
          <path
             d="M 0,0 -0.863,2.294 -1.7,0 0,0 z m 1.091,-0.646 -3.848,0 1.493,3.835 0.819,0 1.536,-3.835 z"
             style="fill:#000000;fill-opacity:1;fill-rule:nonzero;stroke:none"
             id="path5270" />
        </g>
        <g
           id="g5272"
           transform="translate(83.945297,49.957107)">
          <path
             d="m 0,0 c 0,-0.434 0.1,-0.763 0.301,-0.988 0.2,-0.224 0.455,-0.336 0.764,-0.336 0.308,0 0.562,0.111 0.76,0.334 0.198,0.222 0.297,0.556 0.297,1.001 0,0.439 -0.097,0.767 -0.29,0.983 C 1.64,1.21 1.384,1.318 1.065,1.318 0.746,1.318 0.488,1.209 0.293,0.99 0.098,0.771 0,0.441 0,0 m -0.798,-0.026 c 0,0.391 0.059,0.718 0.175,0.984 0.088,0.195 0.207,0.37 0.357,0.525 0.151,0.156 0.317,0.271 0.496,0.346 0.239,0.101 0.515,0.151 0.827,0.151 0.565,0 1.017,-0.175 1.356,-0.525 0.339,-0.351 0.509,-0.839 0.509,-1.463 0,-0.619 -0.168,-1.103 -0.505,-1.453 -0.336,-0.35 -0.786,-0.524 -1.35,-0.524 -0.57,0 -1.023,0.174 -1.36,0.521 -0.337,0.349 -0.505,0.827 -0.505,1.438"
             style="fill:#000000;fill-opacity:1;fill-rule:nonzero;stroke:none"
             id="path5274" />
        </g>
        <g
           id="g5276"
           transform="translate(88.115204,48.037094)">
          <path
             d="m 0,0 0,1.614 -1.405,2.221 0.908,0 0.903,-1.517 0.884,1.517 0.892,0 L 0.772,1.609 0.772,0 0,0 z"
             style="fill:#000000;fill-opacity:1;fill-rule:nonzero;stroke:none"
             id="path5278" />
        </g>
        <g
           id="g5280"
           transform="translate(90.362701,51.872101)">
          <path
             d="m 0,0 2.655,0 0,-0.649 -1.7,0 0.991,-1.182 -1.093,-1.358 1.883,0 0,-0.646 -2.786,0 0,0.717 1.028,1.287 L 0,-0.691 0,0 z"
             style="fill:#000000;fill-opacity:1;fill-rule:nonzero;stroke:none"
             id="path5282" />
        </g>
        <g
           id="g5284"
           transform="translate(44.744095,41.6082)">
          <path
             d="m 0,0 0,3.186 -1.138,0 0,0.649 3.048,0 0,-0.649 -1.136,0 L 0.774,0 0,0 z"
             style="fill:#000000;fill-opacity:1;fill-rule:nonzero;stroke:none"
             id="path5286" />
        </g>
        <g
           id="g5288"
           transform="translate(47.716003,43.821197)">
          <path
             d="M 0,0 0.573,0 C 0.944,0 1.176,0.016 1.269,0.047 1.361,0.078 1.434,0.132 1.486,0.209 1.538,0.286 1.564,0.382 1.564,0.497 1.564,0.626 1.53,0.73 1.461,0.81 1.392,0.889 1.295,0.939 1.169,0.96 1.107,0.969 0.918,0.973 0.604,0.973 L 0,0.973 0,0 z m -0.774,-2.213 0,3.835 1.629,0 c 0.41,0 0.708,-0.035 0.894,-0.104 C 1.934,1.45 2.083,1.327 2.195,1.151 2.306,0.975 2.362,0.773 2.362,0.547 2.362,0.259 2.278,0.021 2.108,-0.166 1.939,-0.354 1.687,-0.472 1.35,-0.521 1.517,-0.618 1.655,-0.726 1.764,-0.842 1.874,-0.959 2.02,-1.167 2.205,-1.465 l 0.468,-0.748 -0.926,0 -0.559,0.834 c -0.199,0.299 -0.335,0.486 -0.408,0.564 -0.074,0.078 -0.151,0.131 -0.233,0.16 -0.082,0.028 -0.212,0.043 -0.39,0.043 l -0.157,0 0,-1.601 -0.774,0 z"
             style="fill:#000000;fill-opacity:1;fill-rule:nonzero;stroke:none"
             id="path5290" />
        </g>
        <g
           id="g5292"
           transform="translate(51.234695,43.528198)">
          <path
             d="m 0,0 c 0,-0.434 0.1,-0.763 0.301,-0.988 0.2,-0.224 0.455,-0.336 0.764,-0.336 0.308,0 0.562,0.111 0.76,0.334 0.198,0.222 0.297,0.556 0.297,1.001 0,0.439 -0.097,0.767 -0.29,0.983 C 1.64,1.21 1.384,1.318 1.065,1.318 0.746,1.318 0.488,1.209 0.293,0.99 0.098,0.771 0,0.441 0,0 m -0.798,-0.026 c 0,0.391 0.058,0.718 0.175,0.984 0.088,0.195 0.207,0.37 0.357,0.525 C -0.115,1.639 0.05,1.754 0.23,1.829 0.469,1.93 0.745,1.98 1.057,1.98 1.622,1.98 2.074,1.805 2.413,1.455 2.752,1.104 2.922,0.616 2.922,-0.008 c 0,-0.619 -0.168,-1.103 -0.505,-1.453 -0.336,-0.35 -0.786,-0.524 -1.35,-0.524 -0.57,0 -1.023,0.174 -1.36,0.521 -0.337,0.349 -0.505,0.827 -0.505,1.438"
             style="fill:#000000;fill-opacity:1;fill-rule:nonzero;stroke:none"
             id="path5294" />
        </g>
        <g
           id="g5296"
           transform="translate(55.187607,43.528198)">
          <path
             d="m 0,0 c 0,-0.434 0.1,-0.763 0.301,-0.988 0.2,-0.224 0.455,-0.336 0.764,-0.336 0.308,0 0.562,0.111 0.76,0.334 0.198,0.222 0.297,0.556 0.297,1.001 0,0.439 -0.097,0.767 -0.29,0.983 C 1.64,1.21 1.384,1.318 1.065,1.318 0.746,1.318 0.488,1.209 0.293,0.99 0.098,0.771 0,0.441 0,0 m -0.798,-0.026 c 0,0.391 0.058,0.718 0.175,0.984 0.088,0.195 0.207,0.37 0.357,0.525 0.151,0.156 0.317,0.271 0.496,0.346 0.239,0.101 0.515,0.151 0.827,0.151 0.565,0 1.017,-0.175 1.356,-0.525 0.339,-0.351 0.509,-0.839 0.509,-1.463 0,-0.619 -0.168,-1.103 -0.505,-1.453 -0.336,-0.35 -0.786,-0.524 -1.35,-0.524 -0.57,0 -1.023,0.174 -1.36,0.521 -0.337,0.349 -0.505,0.827 -0.505,1.438"
             style="fill:#000000;fill-opacity:1;fill-rule:nonzero;stroke:none"
             id="path5298" />
        </g>
        <g
           id="g5300"
           transform="translate(59.271393,44.794403)">
          <path
             d="m 0,0 0,-2.54 0.578,0 c 0.216,0 0.372,0.012 0.468,0.037 0.126,0.031 0.23,0.084 0.313,0.159 0.083,0.075 0.15,0.198 0.203,0.37 0.052,0.172 0.078,0.406 0.078,0.703 0,0.296 -0.026,0.524 -0.078,0.682 -0.053,0.159 -0.126,0.283 -0.22,0.372 -0.094,0.089 -0.214,0.149 -0.358,0.18 C 0.875,-0.012 0.663,0 0.348,0 L 0,0 z m -0.774,0.649 1.415,0 C 0.96,0.649 1.203,0.624 1.371,0.575 1.596,0.509 1.788,0.391 1.949,0.222 2.109,0.053 2.231,-0.154 2.315,-0.399 2.399,-0.644 2.441,-0.946 2.441,-1.305 2.441,-1.621 2.401,-1.893 2.323,-2.122 2.227,-2.4 2.09,-2.626 1.912,-2.799 1.778,-2.93 1.597,-3.032 1.368,-3.105 1.197,-3.159 0.969,-3.186 0.683,-3.186 l -1.457,0 0,3.835 z"
             style="fill:#000000;fill-opacity:1;fill-rule:nonzero;stroke:none"
             id="path5302" />
        </g>
        <g
           id="g5304"
           transform="translate(62.795197,43.528198)">
          <path
             d="m 0,0 c 0,-0.434 0.1,-0.763 0.301,-0.988 0.2,-0.224 0.455,-0.336 0.764,-0.336 0.308,0 0.562,0.111 0.76,0.334 0.198,0.222 0.297,0.556 0.297,1.001 0,0.439 -0.097,0.767 -0.29,0.983 C 1.64,1.21 1.384,1.318 1.065,1.318 0.746,1.318 0.488,1.209 0.293,0.99 0.098,0.771 0,0.441 0,0 m -0.798,-0.026 c 0,0.391 0.059,0.718 0.175,0.984 0.088,0.195 0.207,0.37 0.357,0.525 0.151,0.156 0.317,0.271 0.496,0.346 0.239,0.101 0.515,0.151 0.827,0.151 0.565,0 1.017,-0.175 1.356,-0.525 0.339,-0.351 0.509,-0.839 0.509,-1.463 0,-0.619 -0.168,-1.103 -0.505,-1.453 -0.336,-0.35 -0.786,-0.524 -1.35,-0.524 -0.57,0 -1.023,0.174 -1.36,0.521 -0.337,0.349 -0.505,0.827 -0.505,1.438"
             style="fill:#000000;fill-opacity:1;fill-rule:nonzero;stroke:none"
             id="path5306" />
        </g>
        <g
           id="g5308"
           transform="translate(65.910904,42.855896)">
          <path
             d="m 0,0 0.753,0.073 c 0.046,-0.252 0.138,-0.438 0.276,-0.557 0.139,-0.119 0.326,-0.178 0.562,-0.178 0.249,0 0.437,0.053 0.563,0.158 0.127,0.106 0.19,0.229 0.19,0.371 0,0.09 -0.027,0.168 -0.08,0.231 C 2.211,0.162 2.118,0.217 1.986,0.264 1.895,0.296 1.688,0.352 1.366,0.432 0.951,0.535 0.659,0.661 0.492,0.811 0.256,1.022 0.139,1.279 0.139,1.583 0.139,1.778 0.194,1.96 0.305,2.131 0.416,2.3 0.575,2.43 0.783,2.519 0.992,2.608 1.244,2.653 1.538,2.653 2.02,2.653 2.382,2.547 2.625,2.336 2.868,2.125 2.996,1.843 3.008,1.491 L 2.234,1.457 C 2.201,1.654 2.13,1.796 2.021,1.882 1.912,1.969 1.748,2.012 1.53,2.012 1.305,2.012 1.129,1.966 1.002,1.873 0.92,1.814 0.879,1.734 0.879,1.635 0.879,1.544 0.917,1.467 0.994,1.402 1.092,1.32 1.329,1.235 1.706,1.146 2.082,1.057 2.361,0.965 2.541,0.87 2.722,0.775 2.863,0.645 2.965,0.48 3.067,0.315 3.118,0.111 3.118,-0.131 3.118,-0.351 3.057,-0.556 2.935,-0.748 2.813,-0.94 2.64,-1.083 2.417,-1.176 2.194,-1.269 1.916,-1.316 1.583,-1.316 1.098,-1.316 0.726,-1.204 0.466,-0.98 0.206,-0.756 0.051,-0.429 0,0"
             style="fill:#000000;fill-opacity:1;fill-rule:nonzero;stroke:none"
             id="path5310" />
        </g>
        <g
           id="g5312"
           transform="translate(70.544296,42.855896)">
          <path
             d="m 0,0 0.753,0.073 c 0.046,-0.252 0.138,-0.438 0.276,-0.557 0.139,-0.119 0.326,-0.178 0.561,-0.178 0.25,0 0.438,0.053 0.564,0.158 0.127,0.106 0.19,0.229 0.19,0.371 0,0.09 -0.027,0.168 -0.08,0.231 C 2.211,0.162 2.118,0.217 1.985,0.264 1.895,0.296 1.688,0.352 1.366,0.432 0.95,0.535 0.659,0.661 0.492,0.811 0.256,1.022 0.139,1.279 0.139,1.583 c 0,0.195 0.055,0.377 0.166,0.548 0.11,0.169 0.27,0.299 0.478,0.388 0.209,0.089 0.46,0.134 0.755,0.134 0.481,0 0.844,-0.106 1.087,-0.317 C 2.868,2.125 2.996,1.843 3.008,1.491 L 2.234,1.457 C 2.201,1.654 2.13,1.796 2.021,1.882 1.912,1.969 1.748,2.012 1.53,2.012 1.305,2.012 1.129,1.966 1.002,1.873 0.92,1.814 0.879,1.734 0.879,1.635 0.879,1.544 0.917,1.467 0.994,1.402 1.092,1.32 1.329,1.235 1.706,1.146 2.082,1.057 2.361,0.965 2.541,0.87 2.722,0.775 2.863,0.645 2.965,0.48 3.067,0.315 3.118,0.111 3.118,-0.131 3.118,-0.351 3.057,-0.556 2.935,-0.748 2.813,-0.94 2.64,-1.083 2.417,-1.176 2.194,-1.269 1.916,-1.316 1.583,-1.316 1.098,-1.316 0.725,-1.204 0.466,-0.98 0.206,-0.756 0.05,-0.429 0,0"
             style="fill:#000000;fill-opacity:1;fill-rule:nonzero;stroke:none"
             id="path5314" />
        </g>
        <g
           id="g5316"
           transform="translate(76.563797,42.531601)">
          <path
             d="m 0,0 c 0.099,0.117 0.174,0.258 0.224,0.424 0.049,0.166 0.074,0.356 0.074,0.57 0,0.443 -0.098,0.774 -0.293,0.993 -0.195,0.219 -0.451,0.328 -0.766,0.328 -0.316,0 -0.572,-0.11 -0.768,-0.33 -0.196,-0.219 -0.294,-0.55 -0.294,-0.991 0,-0.448 0.098,-0.783 0.294,-1.006 0.196,-0.222 0.444,-0.333 0.744,-0.333 0.112,0 0.217,0.018 0.317,0.055 -0.157,0.103 -0.317,0.183 -0.479,0.24 L -0.73,0.392 C -0.475,0.305 -0.232,0.174 0,0 m 0.623,-0.437 c 0.19,-0.136 0.396,-0.244 0.62,-0.324 L 0.957,-1.308 c -0.117,0.035 -0.231,0.083 -0.342,0.144 -0.025,0.012 -0.196,0.125 -0.516,0.34 -0.251,-0.11 -0.529,-0.165 -0.834,-0.165 -0.59,0 -1.051,0.174 -1.385,0.521 -0.334,0.347 -0.501,0.834 -0.501,1.462 0,0.626 0.167,1.113 0.502,1.461 0.335,0.348 0.789,0.522 1.363,0.522 0.568,0 1.019,-0.174 1.352,-0.522 C 0.929,2.107 1.096,1.62 1.096,0.994 1.096,0.663 1.05,0.371 0.957,0.12 0.888,-0.072 0.776,-0.258 0.623,-0.437"
             style="fill:#000000;fill-opacity:1;fill-rule:nonzero;stroke:none"
             id="path5318" />
        </g>
        <g
           id="g5320"
           transform="translate(78.047195,45.4431)">
          <path
             d="m 0,0 0.774,0 0,-2.077 c 0,-0.33 0.01,-0.543 0.029,-0.641 0.033,-0.157 0.112,-0.283 0.237,-0.378 0.124,-0.095 0.295,-0.143 0.511,-0.143 0.22,0 0.386,0.045 0.497,0.135 0.112,0.09 0.179,0.2 0.202,0.331 0.022,0.131 0.034,0.348 0.034,0.651 l 0,2.122 0.774,0 0,-2.014 C 3.058,-2.475 3.037,-2.8 2.995,-2.99 2.953,-3.18 2.876,-3.341 2.764,-3.471 2.651,-3.602 2.501,-3.706 2.312,-3.784 2.124,-3.862 1.878,-3.9 1.575,-3.9 1.209,-3.9 0.931,-3.858 0.742,-3.773 0.552,-3.689 0.403,-3.579 0.293,-3.444 0.183,-3.309 0.111,-3.167 0.076,-3.019 0.025,-2.799 0,-2.475 0,-2.046 L 0,0 z"
             style="fill:#000000;fill-opacity:1;fill-rule:nonzero;stroke:none"
             id="path5322" />
        </g>
        <g
           id="g5324"
           transform="translate(83.739594,43.125397)">
          <path
             d="M 0,0 -0.528,1.423 -1.046,0 0,0 z m 1.426,-1.517 -0.843,0 -0.335,0.871 -1.532,0 -0.317,-0.871 -0.821,0 1.493,3.835 0.819,0 1.536,-3.835 z"
             style="fill:#000000;fill-opacity:1;fill-rule:nonzero;stroke:none"
             id="path5326" />
        </g>
        <g
           id="g5328"
           transform="translate(86.138702,43.821197)">
          <path
             d="M 0,0 0.573,0 C 0.944,0 1.176,0.016 1.269,0.047 1.361,0.078 1.434,0.132 1.486,0.209 1.538,0.286 1.564,0.382 1.564,0.497 1.564,0.626 1.53,0.73 1.461,0.81 1.392,0.889 1.295,0.939 1.169,0.96 1.107,0.969 0.918,0.973 0.604,0.973 L 0,0.973 0,0 z m -0.774,-2.213 0,3.835 1.629,0 c 0.41,0 0.708,-0.035 0.894,-0.104 C 1.934,1.45 2.083,1.327 2.195,1.151 2.306,0.975 2.362,0.773 2.362,0.547 2.362,0.259 2.278,0.021 2.108,-0.166 1.939,-0.354 1.686,-0.472 1.35,-0.521 1.517,-0.618 1.655,-0.726 1.764,-0.842 1.873,-0.959 2.02,-1.167 2.205,-1.465 l 0.468,-0.748 -0.926,0 -0.559,0.834 c -0.199,0.299 -0.335,0.486 -0.408,0.564 -0.074,0.078 -0.151,0.131 -0.233,0.16 -0.082,0.028 -0.212,0.043 -0.39,0.043 l -0.157,0 0,-1.601 -0.774,0 z"
             style="fill:#000000;fill-opacity:1;fill-rule:nonzero;stroke:none"
             id="path5330" />
        </g>
        <g
           id="g5332"
           transform="translate(89.016495,41.6082)">
          <path
             d="m 0,0 0,3.835 2.844,0 0,-0.649 -2.07,0 0,-0.85 1.926,0 0,-0.646 -1.926,0 0,-1.044 2.143,0 L 2.917,0 0,0 z"
             style="fill:#000000;fill-opacity:1;fill-rule:nonzero;stroke:none"
             id="path5334" />
        </g>
        <g
           id="g5336"
           transform="translate(50.755707,112.3244)">
          <path
             d="M 0,0 -0.814,2.194 -1.612,0 0,0 z m 2.197,-2.338 -1.298,0 -0.516,1.342 -2.363,0 -0.487,-1.342 -1.267,0 2.303,5.91 1.261,0 2.367,-5.91 z"
             style="fill:#ffffff;fill-opacity:1;fill-rule:nonzero;stroke:none"
             id="path5338" />
        </g>
        <g
           id="g5340"
           transform="translate(53.598206,109.9863)">
          <path
             d="m 0,0 0,5.91 1.161,0 2.419,-3.946 0,3.946 1.109,0 L 4.689,0 3.491,0 1.109,3.854 1.109,0 0,0 z"
             style="fill:#ffffff;fill-opacity:1;fill-rule:nonzero;stroke:none"
             id="path5342" />
        </g>
        <g
           id="g5344"
           transform="translate(60.536697,112.9454)">
          <path
             d="M 0,0 C 0,-0.669 0.154,-1.177 0.464,-1.522 0.773,-1.867 1.165,-2.04 1.64,-2.04 c 0.476,0 0.867,0.171 1.172,0.514 0.305,0.343 0.457,0.857 0.457,1.542 0,0.678 -0.148,1.183 -0.445,1.516 C 2.527,1.865 2.133,2.032 1.64,2.032 1.149,2.032 0.752,1.864 0.452,1.526 0.15,1.189 0,0.68 0,0 m -1.23,-0.04 c 0,0.602 0.09,1.107 0.27,1.516 0.135,0.301 0.318,0.571 0.551,0.81 0.232,0.239 0.487,0.417 0.764,0.532 0.368,0.156 0.792,0.234 1.274,0.234 0.87,0 1.567,-0.27 2.09,-0.81 0.523,-0.541 0.784,-1.292 0.784,-2.254 0,-0.954 -0.259,-1.701 -0.778,-2.24 -0.518,-0.539 -1.212,-0.808 -2.08,-0.808 -0.879,0 -1.578,0.268 -2.097,0.805 -0.519,0.536 -0.778,1.274 -0.778,2.215"
             style="fill:#ffffff;fill-opacity:1;fill-rule:nonzero;stroke:none"
             id="path5346" />
        </g>
        <path
           d="m 65.936,109.987 1.193,0 0,5.91 -1.193,0 0,-5.91 z"
           style="fill:#ffffff;fill-opacity:1;fill-rule:nonzero;stroke:none"
           id="path5348" />
        <g
           id="g5350"
           transform="translate(68.281403,109.9863)">
          <path
             d="m 0,0 0,5.91 1.193,0 0,-2.624 2.412,2.624 1.604,0 L 2.984,3.608 5.33,0 3.786,0 2.161,2.774 1.193,1.786 1.193,0 0,0 z"
             style="fill:#ffffff;fill-opacity:1;fill-rule:nonzero;stroke:none"
             id="path5352" />
        </g>
        <g
           id="g5354"
           transform="translate(75.559006,109.9863)">
          <path
             d="m 0,0 0,4.911 -1.754,0 0,0.999 4.697,0 0,-0.999 -1.751,0 L 1.192,0 0,0 z"
             style="fill:#ffffff;fill-opacity:1;fill-rule:nonzero;stroke:none"
             id="path5356" />
        </g>
        <g
           id="g5358"
           transform="translate(80.110794,112.9454)">
          <path
             d="M 0,0 C 0,-0.669 0.154,-1.177 0.464,-1.522 0.772,-1.867 1.165,-2.04 1.64,-2.04 c 0.477,0 0.867,0.171 1.172,0.514 0.305,0.343 0.458,0.857 0.458,1.542 0,0.678 -0.149,1.183 -0.446,1.516 C 2.527,1.865 2.132,2.032 1.64,2.032 1.148,2.032 0.752,1.864 0.452,1.526 0.151,1.189 0,0.68 0,0 m -1.23,-0.04 c 0,0.602 0.09,1.107 0.27,1.516 0.134,0.301 0.318,0.571 0.551,0.81 0.232,0.239 0.487,0.417 0.764,0.532 0.368,0.156 0.793,0.234 1.274,0.234 0.871,0 1.568,-0.27 2.09,-0.81 0.523,-0.541 0.785,-1.292 0.785,-2.254 0,-0.954 -0.26,-1.701 -0.779,-2.24 -0.519,-0.539 -1.213,-0.808 -2.08,-0.808 -0.879,0 -1.578,0.268 -2.097,0.805 -0.519,0.536 -0.778,1.274 -0.778,2.215"
             style="fill:#ffffff;fill-opacity:1;fill-rule:nonzero;stroke:none"
             id="path5360" />
        </g>
        <g
           id="g5362"
           transform="translate(85.384598,115.8967)">
          <path
             d="m 0,0 4.092,0 0,-1 -2.621,0 1.528,-1.822 -1.685,-2.093 2.903,0 0,-0.995 -4.294,0 0,1.104 1.585,1.984 L 0,-1.064 0,0 z"
             style="fill:#ffffff;fill-opacity:1;fill-rule:nonzero;stroke:none"
             id="path5364" />
        </g>
        <g
           id="g5366"
           transform="translate(58.349197,103.03729)">
          <path
             d="m 0,0 c 0,-0.669 0.155,-1.177 0.464,-1.522 0.309,-0.345 0.702,-0.518 1.177,-0.518 0.476,0 0.866,0.171 1.172,0.514 0.304,0.343 0.456,0.857 0.456,1.542 0,0.678 -0.148,1.183 -0.445,1.516 -0.296,0.333 -0.691,0.5 -1.183,0.5 C 1.149,2.032 0.753,1.864 0.452,1.526 0.151,1.189 0,0.68 0,0 m -1.229,-0.04 c 0,0.602 0.089,1.107 0.27,1.516 0.134,0.301 0.318,0.571 0.55,0.81 0.232,0.239 0.488,0.417 0.764,0.532 0.367,0.156 0.793,0.234 1.274,0.234 0.871,0 1.568,-0.27 2.09,-0.81 0.523,-0.541 0.785,-1.292 0.785,-2.254 0,-0.954 -0.26,-1.701 -0.778,-2.24 C 3.207,-2.791 2.513,-3.06 1.645,-3.06 c -0.879,0 -1.578,0.268 -2.096,0.804 -0.519,0.537 -0.778,1.275 -0.778,2.216"
             style="fill:#ffffff;fill-opacity:1;fill-rule:nonzero;stroke:none"
             id="path5368" />
        </g>
        <g
           id="g5370"
           transform="translate(64.9776,104.9888)">
          <path
             d="m 0,0 0,-1.677 0.653,0 c 0.47,0 0.785,0.031 0.944,0.092 0.158,0.063 0.283,0.159 0.373,0.291 0.09,0.131 0.135,0.285 0.135,0.46 0,0.215 -0.064,0.392 -0.19,0.532 C 1.789,-0.163 1.629,-0.075 1.435,-0.04 1.293,-0.014 1.007,0 0.576,0 L 0,0 z m -1.193,-4.911 0,5.911 1.914,0 C 1.448,1 1.921,0.97 2.141,0.911 2.479,0.822 2.763,0.629 2.992,0.333 3.22,0.036 3.334,-0.348 3.334,-0.818 3.334,-1.181 3.268,-1.486 3.136,-1.734 3.005,-1.981 2.838,-2.175 2.635,-2.316 2.432,-2.457 2.226,-2.551 2.016,-2.597 1.731,-2.653 1.318,-2.681 0.778,-2.681 l -0.778,0 0,-2.23 -1.193,0 z"
             style="fill:#ffffff;fill-opacity:1;fill-rule:nonzero;stroke:none"
             id="path5372" />
        </g>
        <g
           id="g5374"
           transform="translate(69.291199,100.07809)">
          <path
             d="m 0,0 0,5.91 4.383,0 0,-0.999 -3.189,0 0,-1.311 2.967,0 0,-0.996 -2.967,0 0,-1.608 3.302,0 L 4.496,0 0,0 z"
             style="fill:#ffffff;fill-opacity:1;fill-rule:nonzero;stroke:none"
             id="path5376" />
        </g>
        <g
           id="g5378"
           transform="translate(74.810898,100.07809)">
          <path
             d="m 0,0 0,5.91 1.161,0 2.419,-3.947 0,3.947 1.109,0 L 4.689,0 3.492,0 1.109,3.854 1.109,0 0,0 z"
             style="fill:#ffffff;fill-opacity:1;fill-rule:nonzero;stroke:none"
             id="path5380" />
        </g>
        <g
           id="g5382"
           transform="translate(67.466904,65.326904)">
          <path
             d="M 0,0 C -0.328,-0.465 -1.345,-0.169 -1.803,-0.042 -1.942,-0.02 -2.095,0.063 -2.188,0.164 -2.484,0.232 -2.817,0.359 -3.082,0.49 -3.317,0.485 -3.555,0.634 -3.661,0.823 -4.717,1.541 -5.509,2.733 -6.004,3.878 -6.516,3.931 -6.8,4.617 -6.421,4.996 -6.9,6.506 -7.133,8.173 -7.176,9.762 c -0.369,0.264 -0.369,0.812 0,1.076 0.043,1.588 0.276,3.255 0.755,4.765 -0.379,0.379 -0.1,1.066 0.417,1.118 0.506,1.172 1.276,2.327 2.343,3.055 0.106,0.201 0.344,0.338 0.579,0.338 0.259,0.127 0.613,0.258 0.894,0.322 0.089,0.101 0.246,0.184 0.385,0.212 0.458,0.125 1.472,0.41 1.803,-0.043 0.275,0.48 1.325,0.333 1.784,0.254 l 0,0.004 C 2,20.847 2.185,20.732 2.296,20.568 2.555,20.859 3.045,20.884 3.31,20.557 l 0.3,0.005 c 3.055,0 5.556,-4.59 5.54,-10.263 C 9.139,4.633 6.665,0.043 3.61,0.043 l -0.3,0 C 3.061,-0.263 2.54,-0.269 2.296,0.037 2.027,-0.375 1.052,-0.338 0.613,-0.328 0.35,-0.338 0.122,-0.216 0,0"
             style="fill:#000000;fill-opacity:1;fill-rule:evenodd;stroke:none"
             id="path5384" />
        </g>
        <g
           id="g5386"
           transform="translate(63.483795,80.322494)">
          <path
             d="M 0,0 C -0.274,0.19 -0.613,0.365 -0.933,0.47 -1.209,0.618 -0.987,1.034 -0.718,0.892 -0.496,0.834 0.491,0.448 0.322,0.106 0.258,-0.01 0.116,-0.058 0,0"
             style="fill:#ffffff;fill-opacity:1;fill-rule:evenodd;stroke:none"
             id="path5388" />
        </g>
        <g
           id="g5390"
           transform="translate(65.884201,82.216995)">
          <path
             d="M 0,0 C -0.362,0.026 -0.681,0 -1.044,-0.059 -1.36,-0.069 -1.371,0.406 -1.065,0.417 -0.838,0.475 0.217,0.634 0.228,0.248 0.232,0.117 0.132,0.005 0,0"
             style="fill:#ffffff;fill-opacity:1;fill-rule:evenodd;stroke:none"
             id="path5392" />
        </g>
        <g
           id="g5394"
           transform="translate(63.647095,82.011398)">
          <path
             d="m 0,0 c -0.39,-0.063 -0.637,-0.142 -1.012,-0.264 -0.306,-0.074 -0.408,0.385 -0.111,0.459 0.2,0.106 1.208,0.464 1.299,0.09 C 0.207,0.158 0.126,0.031 0,0"
             style="fill:#ffffff;fill-opacity:1;fill-rule:evenodd;stroke:none"
             id="path5396" />
        </g>
        <g
           id="g5398"
           transform="translate(68.015701,77.847794)">
          <path
             d="m 0,0 c -0.386,0.065 -0.648,0.065 -1.038,0.065 -0.307,0.01 -0.29,0.49 0.031,0.468 C -0.785,0.565 0.28,0.607 0.254,0.222 0.243,0.09 0.133,-0.005 0,0"
             style="fill:#ffffff;fill-opacity:1;fill-rule:evenodd;stroke:none"
             id="path5400" />
        </g>
        <g
           id="g5402"
           transform="translate(68.9077,81.304596)">
          <path
             d="M 0,0 C -0.269,0.238 -0.531,0.432 -0.85,0.601 -1.102,0.776 -0.818,1.166 -0.574,0.986 -0.365,0.887 0.555,0.369 0.332,0.052 0.253,-0.053 0.105,-0.08 0,0"
             style="fill:#ffffff;fill-opacity:1;fill-rule:evenodd;stroke:none"
             id="path5404" />
        </g>
        <g
           id="g5406"
           transform="translate(70.527496,85.461807)">
          <path
             d="M 0,0 C 0,-0.338 -0.521,-0.353 -0.521,0 -0.521,0.354 0,0.333 0,0"
             style="fill:#ffffff;fill-opacity:1;fill-rule:evenodd;stroke:none"
             id="path5408" />
        </g>
        <g
           id="g5410"
           transform="translate(69.134796,85.304306)">
          <path
             d="M 0,0 C -0.354,0.058 -0.675,0.074 -1.039,0.047 -1.34,0.058 -1.324,0.533 -1.013,0.522 -0.79,0.554 0.276,0.612 0.248,0.221 0.244,0.095 0.132,-0.006 0,0"
             style="fill:#ffffff;fill-opacity:1;fill-rule:evenodd;stroke:none"
             id="path5412" />
        </g>
        <g
           id="g5414"
           transform="translate(67.578293,82.764694)">
          <path
             d="M 0,0 C 0.559,0.898 1.319,1.705 2.259,2.196 2.428,2.054 2.654,2.001 2.871,2.064 2.896,1.816 3.149,1.531 3.256,1.326 3.314,1.22 3.377,1.093 3.429,0.977 2.839,0.671 2.296,0.08 1.837,-0.722 1.446,-0.389 0.596,0.359 0.1,-0.157 0.079,-0.099 0.037,-0.052 0,0"
             style="fill:#ffffff;fill-opacity:1;fill-rule:evenodd;stroke:none"
             id="path5416" />
        </g>
        <g
           id="g5418"
           transform="translate(67.0242,81.710007)">
          <path
             d="M 0,0 C 0.2,-0.015 0.364,0.048 0.505,0.185 0.618,-0.11 0.991,-0.257 1.23,-0.428 1.418,-0.564 1.604,-0.776 1.831,-0.875 1.577,-1.561 1.383,-2.284 1.256,-3.002 c -0.454,0.1 -1.604,0.274 -1.904,-0.174 -0.054,0.058 -0.169,0.143 -0.238,0.169 C -0.691,-1.899 -0.395,-0.881 0,0"
             style="fill:#ffffff;fill-opacity:1;fill-rule:evenodd;stroke:none"
             id="path5420" />
        </g>
        <g
           id="g5422"
           transform="translate(62.387299,82.623505)">
          <path
             d="M 0,0 C 0.41,0.728 0.902,1.324 1.456,1.778 1.676,1.467 2.074,1.477 2.41,1.403 2.522,1.377 2.649,1.34 2.774,1.356 2.806,1.272 2.869,1.181 2.932,1.123 3.164,0.928 3.424,0.707 3.619,0.48 3.234,0.543 2.727,0.485 2.341,0.433 2.083,0.422 1.866,0.275 1.771,0.053 1.408,0.48 0.453,0.148 0,0"
             style="fill:#ffffff;fill-opacity:1;fill-rule:evenodd;stroke:none"
             id="path5424" />
        </g>
        <g
           id="g5426"
           transform="translate(66.1651,84.744598)">
          <path
             d="M 0,0 C 0.428,0.132 1.102,0.031 1.349,0.459 1.609,0.1 2.051,0.206 2.427,0.19 2.569,0.185 2.77,0.158 2.912,0.143 2.2,-0.338 1.609,-1.034 1.155,-1.762 1.118,-1.747 1.05,-1.72 1.007,-1.72 1.399,-1.119 0.495,-0.386 0.073,-0.058 0.052,-0.037 -0.027,-0.005 0,0"
             style="fill:#ffffff;fill-opacity:1;fill-rule:evenodd;stroke:none"
             id="path5428" />
        </g>
        <g
           id="g5430"
           transform="translate(67.325699,82.364594)">
          <path
             d="m 0,0 c 0,-0.142 -0.117,-0.258 -0.264,-0.258 -0.142,0 -0.264,0.116 -0.264,0.258 0,0.148 0.122,0.264 0.264,0.264 C -0.117,0.264 0,0.148 0,0"
             style="fill:#ffffff;fill-opacity:1;fill-rule:evenodd;stroke:none"
             id="path5432" />
        </g>
        <g
           id="g5434"
           transform="translate(66.4189,83.272797)">
          <path
             d="M 0,0 C -0.106,0.121 -0.238,0.274 -0.355,0.39 -0.471,0.495 -1.019,0.796 -0.762,1.055 -0.487,1.33 0.198,0.522 0.325,0.338 0.552,0.126 0.215,-0.217 0,0"
             style="fill:#ffffff;fill-opacity:1;fill-rule:evenodd;stroke:none"
             id="path5436" />
        </g>
        <g
           id="g5438"
           transform="translate(64.967102,84.427902)">
          <path
             d="M 0,0 C -0.153,0.037 -0.839,0.022 -0.75,0.385 -0.681,0.681 -0.117,0.512 0.052,0.48 0.421,0.385 0.312,-0.074 0,0"
             style="fill:#ffffff;fill-opacity:1;fill-rule:evenodd;stroke:none"
             id="path5440" />
        </g>
        <g
           id="g5442"
           transform="translate(66.919693,85.293396)">
          <path
             d="m 0,0 c -0.397,-0.027 -0.645,-0.101 -1.029,-0.195 -0.318,-0.047 -0.381,0.411 -0.084,0.469 0.231,0.09 1.229,0.38 1.302,0 C 0.21,0.148 0.124,0.027 0,0"
             style="fill:#ffffff;fill-opacity:1;fill-rule:evenodd;stroke:none"
             id="path5444" />
        </g>
        <g
           id="g5446"
           transform="translate(71.435806,83.820999)">
          <path
             d="M 0,0 C -0.116,0.354 -0.328,0.612 -0.506,0.913 -0.659,1.193 -0.232,1.415 -0.095,1.14 0.137,0.892 0.279,0.537 0.416,0.232 0.564,-0.037 0.146,-0.274 0,0"
             style="fill:#ffffff;fill-opacity:1;fill-rule:evenodd;stroke:none"
             id="path5448" />
        </g>
        <g
           id="g5450"
           transform="translate(61.789795,81.389297)">
          <path
             d="M 0,0 C 0,-0.36 -0.528,-0.333 -0.528,-0.001 -0.528,0.331 0,0.353 0,0"
             style="fill:#ffffff;fill-opacity:1;fill-rule:evenodd;stroke:none"
             id="path5452" />
        </g>
        <g
           id="g5454"
           transform="translate(64.718597,77.684097)">
          <path
             d="M 0,0 C -0.359,-0.057 -0.67,-0.163 -1.002,-0.311 -1.309,-0.4 -1.424,0.058 -1.14,0.143 -0.939,0.259 0.048,0.659 0.154,0.296 0.19,0.169 0.121,0.037 -0.006,0 L 0,0 z"
             style="fill:#ffffff;fill-opacity:1;fill-rule:evenodd;stroke:none"
             id="path5456" />
        </g>
        <g
           id="g5458"
           transform="translate(62.587601,76.851196)">
          <path
             d="M 0,0 C -0.344,-0.185 -0.582,-0.323 -0.882,-0.566 -1.146,-0.728 -1.394,-0.323 -1.129,-0.159 -0.961,0 -0.122,0.654 0.078,0.327 0.148,0.211 0.115,0.068 0,0"
             style="fill:#ffffff;fill-opacity:1;fill-rule:evenodd;stroke:none"
             id="path5460" />
        </g>
        <g
           id="g5462"
           transform="translate(66.127502,78.101105)">
          <path
             d="M 0,0 C 0,-0.342 -0.521,-0.332 -0.521,0 -0.521,0.332 0,0.354 0,0"
             style="fill:#ffffff;fill-opacity:1;fill-rule:evenodd;stroke:none"
             id="path5464" />
        </g>
        <g
           id="g5466"
           transform="translate(64.312103,80.470001)">
          <path
             d="m 0,0 c 0.011,0.512 -0.67,0.834 -1.082,1.024 0.391,0.096 0.829,0.053 1.03,0.481 C 0.249,1.14 0.664,1.31 1.067,1.325 1.466,1.34 1.89,1.219 2.163,1.594 2.211,1.489 2.296,1.404 2.39,1.34 2.053,0.559 1.794,-0.279 1.62,-1.112 1.287,-0.712 0.608,0.269 0,0"
             style="fill:#ffffff;fill-opacity:1;fill-rule:evenodd;stroke:none"
             id="path5468" />
        </g>
        <g
           id="g5470"
           transform="translate(65.161697,78.893097)">
          <path
             d="M 0,0 C -0.216,0.306 -0.459,0.505 -0.728,0.749 -0.94,0.971 -0.601,1.303 -0.385,1.076 -0.19,0.944 0.617,0.258 0.338,-0.006 0.243,-0.095 0.095,-0.095 0,0"
             style="fill:#ffffff;fill-opacity:1;fill-rule:evenodd;stroke:none"
             id="path5472" />
        </g>
        <g
           id="g5474"
           transform="translate(60.909302,76.718796)">
          <path
             d="M 0,0 C 0.067,1.33 0.275,2.738 0.67,4.01 0.839,4.026 0.923,4.089 1.049,4.164 1.145,3.741 1.599,3.657 1.926,3.493 2.258,3.324 2.575,3.002 2.986,3.165 2.975,2.744 3.356,2.533 3.604,2.28 3.746,2.127 3.879,1.979 3.988,1.842 3.604,1.942 2.838,1.631 2.479,1.498 2.216,1.419 2.009,1.16 2.009,0.886 1.524,1.261 0.653,0.602 0.264,0.295 0.137,0.222 0.052,0.122 0,0"
             style="fill:#ffffff;fill-opacity:1;fill-rule:evenodd;stroke:none"
             id="path5476" />
        </g>
        <g
           id="g5478"
           transform="translate(63.483795,70.930206)">
          <path
             d="m 0,0 c 0.289,0.143 0.497,-0.285 0.216,-0.422 -0.185,-0.131 -1.076,-0.712 -1.25,-0.364 -0.163,0.332 0.438,0.449 0.586,0.517 C -0.381,-0.232 -0.053,-0.037 0,0"
             style="fill:#ffffff;fill-opacity:1;fill-rule:evenodd;stroke:none"
             id="path5480" />
        </g>
        <g
           id="g5482"
           transform="translate(65.884201,69.036301)">
          <path
             d="m 0,0 c 0.318,-0.01 0.285,-0.485 -0.02,-0.476 -0.223,0 -1.283,-0.1 -1.272,0.307 0.01,0.375 0.586,0.169 0.771,0.164 C -0.448,-0.01 -0.063,0 0,0"
             style="fill:#ffffff;fill-opacity:1;fill-rule:evenodd;stroke:none"
             id="path5484" />
        </g>
        <g
           id="g5486"
           transform="translate(63.647095,69.247696)">
          <path
             d="m 0,0 c 0.307,-0.074 0.191,-0.533 -0.117,-0.459 -0.215,0.016 -1.271,0.169 -1.179,0.543 0.082,0.365 0.604,0.052 0.778,0.011 C -0.437,0.074 -0.062,0.005 0,0"
             style="fill:#ffffff;fill-opacity:1;fill-rule:evenodd;stroke:none"
             id="path5488" />
        </g>
        <g
           id="g5490"
           transform="translate(68.015701,73.405395)">
          <path
             d="m 0,0 c 0.322,0.02 0.333,-0.454 0.033,-0.476 -0.238,-0.036 -1.267,-0.231 -1.294,0.165 -0.026,0.374 0.586,0.237 0.744,0.243 C -0.437,-0.064 -0.063,-0.01 0,0"
             style="fill:#ffffff;fill-opacity:1;fill-rule:evenodd;stroke:none"
             id="path5492" />
        </g>
        <g
           id="g5494"
           transform="translate(68.9077,69.954498)">
          <path
             d="m 0,0 c 0.264,0.185 0.528,-0.217 0.275,-0.385 -0.159,-0.159 -0.95,-0.86 -1.177,-0.549 -0.221,0.295 0.371,0.512 0.497,0.602 C -0.343,-0.291 -0.046,-0.042 0,0"
             style="fill:#ffffff;fill-opacity:1;fill-rule:evenodd;stroke:none"
             id="path5496" />
        </g>
        <g
           id="g5498"
           transform="translate(70.527496,65.791504)">
          <path
             d="M 0,0 C 0,-0.333 -0.521,-0.354 -0.521,0 -0.521,0.353 0,0.337 0,0"
             style="fill:#ffffff;fill-opacity:1;fill-rule:evenodd;stroke:none"
             id="path5500" />
        </g>
        <g
           id="g5502"
           transform="translate(69.134796,65.949402)">
          <path
             d="m 0,0 c 0.312,0.022 0.328,-0.454 0.026,-0.474 l 0,0.004 c -0.225,-0.037 -1.277,-0.221 -1.288,0.174 -0.009,0.37 0.577,0.226 0.739,0.238 0.081,0 0.459,0.048 0.523,0.058"
             style="fill:#ffffff;fill-opacity:1;fill-rule:evenodd;stroke:none"
             id="path5504" />
        </g>
        <g
           id="g5506"
           transform="translate(67.578293,68.493301)">
          <path
             d="M 0,0 C 0.037,0.048 0.079,0.094 0.1,0.153 0.596,-0.364 1.451,0.385 1.837,0.717 2.2,0.074 2.754,-0.629 3.429,-0.977 3.292,-1.267 3.129,-1.573 2.949,-1.831 2.913,-1.906 2.882,-1.984 2.871,-2.063 2.654,-2.005 2.428,-2.058 2.259,-2.196 1.367,-1.736 0.612,-0.987 0,0"
             style="fill:#ffffff;fill-opacity:1;fill-rule:evenodd;stroke:none"
             id="path5508" />
        </g>
        <g
           id="g5510"
           transform="translate(67.0242,69.548492)">
          <path
             d="m 0,0 c -0.416,0.928 -0.712,1.994 -0.886,3.002 0.089,0.042 0.174,0.095 0.238,0.169 C -0.316,2.686 0.766,2.945 1.256,2.996 1.383,2.28 1.577,1.557 1.831,0.87 1.604,0.771 1.43,0.565 1.23,0.422 1.003,0.258 0.613,0.105 0.505,-0.19 0.364,-0.052 0.185,0.01 0,0"
             style="fill:#ffffff;fill-opacity:1;fill-rule:evenodd;stroke:none"
             id="path5512" />
        </g>
        <g
           id="g5514"
           transform="translate(68.000504,75.621094)">
          <path
             d="m 0,0 c 0,-0.606 0.031,-1.202 0.089,-1.778 -0.19,0 -0.432,-0.064 -0.623,-0.074 -0.364,-0.026 -0.779,0.079 -1.048,-0.242 -0.111,0.169 -0.26,0.252 -0.454,0.279 -0.106,1.213 -0.106,2.427 0,3.641 0.201,0.027 0.343,0.117 0.454,0.28 C -1.324,1.794 -0.887,1.884 -0.534,1.868 -0.337,1.857 -0.101,1.794 0.089,1.794 0.031,1.208 0,0.596 0,0"
             style="fill:#ffffff;fill-opacity:1;fill-rule:evenodd;stroke:none"
             id="path5516" />
        </g>
        <g
           id="g5518"
           transform="translate(76.199402,75.626404)">
          <path
             d="m 0,0 c -0.009,-5.012 -1.961,-9.139 -4.574,-9.682 0.248,0.312 0.47,0.755 0.623,1.118 0.037,0.079 0.068,0.169 0.078,0.255 1.995,0.41 3.557,3.977 3.557,8.304 l 0,0.011 c 0,4.332 -1.562,7.893 -3.557,8.305 -0.026,0.227 -0.236,0.617 -0.332,0.791 -0.1,0.19 -0.232,0.407 -0.369,0.581 C -1.961,9.139 -0.009,5.018 0,0"
             style="fill:#ffffff;fill-opacity:1;fill-rule:evenodd;stroke:none"
             id="path5520" />
        </g>
        <g
           id="g5522"
           transform="translate(62.387299,68.634995)">
          <path
             d="m 0,0 c 0.453,-0.164 1.408,-0.479 1.771,-0.052 0.211,-0.513 1.289,-0.46 1.752,-0.433 l 0.096,0 C 3.413,-0.707 3.171,-0.934 2.932,-1.124 2.859,-1.192 2.806,-1.271 2.774,-1.36 2.659,-1.345 2.515,-1.388 2.41,-1.404 2.074,-1.487 1.682,-1.472 1.456,-1.778 0.902,-1.329 0.41,-0.728 0,0"
             style="fill:#ffffff;fill-opacity:1;fill-rule:evenodd;stroke:none"
             id="path5524" />
        </g>
        <g
           id="g5526"
           transform="translate(66.1651,66.509293)">
          <path
             d="m 0,0 c 0.432,0.343 1.413,1.092 1.007,1.719 0.043,0 0.111,0.027 0.148,0.043 C 1.609,1.034 2.2,0.337 2.912,-0.142 2.574,-0.19 2.183,-0.207 1.841,-0.19 1.645,-0.201 1.465,-0.29 1.349,-0.459 1.124,-0.064 0.69,-0.127 0.306,-0.064 0.2,-0.043 0.1,-0.021 0,0"
             style="fill:#ffffff;fill-opacity:1;fill-rule:evenodd;stroke:none"
             id="path5528" />
        </g>
        <g
           id="g5530"
           transform="translate(67.325699,68.888199)">
          <path
             d="M 0,0 C 0,-0.354 -0.528,-0.332 -0.528,0 -0.528,0.333 0,0.359 0,0"
             style="fill:#ffffff;fill-opacity:1;fill-rule:evenodd;stroke:none"
             id="path5532" />
        </g>
        <g
           id="g5534"
           transform="translate(66.4189,67.986206)">
          <path
             d="m 0,0 c 0.232,0.217 0.543,-0.127 0.325,-0.343 -0.136,-0.18 -0.806,-0.997 -1.087,-0.717 -0.252,0.269 0.285,0.554 0.407,0.67 C -0.297,-0.337 -0.043,-0.053 0,0"
             style="fill:#ffffff;fill-opacity:1;fill-rule:evenodd;stroke:none"
             id="path5536" />
        </g>
        <g
           id="g5538"
           transform="translate(64.967102,66.825806)">
          <path
             d="M 0,0 C 0.306,0.073 0.433,-0.38 0.052,-0.475 -0.101,-0.517 -0.681,-0.681 -0.75,-0.385 -0.839,-0.021 -0.153,-0.037 0,0"
             style="fill:#ffffff;fill-opacity:1;fill-rule:evenodd;stroke:none"
             id="path5540" />
        </g>
        <g
           id="g5542"
           transform="translate(66.919693,65.960495)">
          <path
             d="m 0,0 c 0.305,-0.048 0.216,-0.523 -0.092,-0.465 -0.227,0.017 -1.286,0.079 -1.212,0.471 0.057,0.369 0.612,0.083 0.781,0.057 C -0.448,0.047 -0.07,0.006 0,0"
             style="fill:#ffffff;fill-opacity:1;fill-rule:evenodd;stroke:none"
             id="path5544" />
        </g>
        <g
           id="g5546"
           transform="translate(71.435806,67.432205)">
          <path
             d="m 0,0 c 0.153,0.28 0.559,0.038 0.416,-0.227 -0.093,-0.227 -0.479,-1.182 -0.834,-1.008 -0.316,0.18 0.112,0.612 0.195,0.76 C -0.18,-0.407 -0.021,-0.059 0,0"
             style="fill:#ffffff;fill-opacity:1;fill-rule:evenodd;stroke:none"
             id="path5548" />
        </g>
        <g
           id="g5550"
           transform="translate(61.789795,69.865005)">
          <path
             d="M 0,0 C 0,-0.348 -0.528,-0.323 -0.528,0 -0.528,0.338 0,0.359 0,0"
             style="fill:#ffffff;fill-opacity:1;fill-rule:evenodd;stroke:none"
             id="path5552" />
        </g>
        <g
           id="g5554"
           transform="translate(75.139893,75.626404)">
          <path
             d="m 0,0 c 0,-4.163 -1.436,-7.545 -3.203,-7.545 -1.763,0 -3.198,3.382 -3.198,7.545 0,4.169 1.435,7.545 3.198,7.545 C -1.436,7.545 0,4.169 0,0"
             style="fill:#ffffff;fill-opacity:1;fill-rule:evenodd;stroke:none"
             id="path5556" />
        </g>
        <g
           id="g5558"
           transform="translate(74.976196,75.626404)">
          <path
             d="m 0,0 c 0,-3.794 -1.308,-6.869 -2.928,-6.869 -1.614,0 -3.066,3.075 -3.066,6.869 0,3.793 1.452,6.87 3.066,6.87 C -1.308,6.87 0,3.793 0,0"
             style="fill:#000000;fill-opacity:1;fill-rule:evenodd;stroke:none"
             id="path5560" />
        </g>
        <g
           id="g5562"
           transform="translate(74.749207,75.626404)">
          <path
             d="m 0,0 c 0,-3.498 -1.256,-6.569 -2.749,-6.569 -1.246,0 -2.015,2.016 -2.275,2.892 0.216,-0.354 0.465,-0.549 0.729,-0.549 1.267,0.001 1.483,3.693 1.483,4.226 0,0.534 -0.216,4.232 -1.483,4.232 -0.327,0 -0.58,-0.306 -0.729,-0.554 0.26,0.881 1.029,2.897 2.275,2.897 C -1.256,6.575 0,3.499 0,0"
             style="fill:#ffffff;fill-opacity:1;fill-rule:evenodd;stroke:none"
             id="path5564" />
        </g>
        <g
           id="g5566"
           transform="translate(71.551407,75.626404)">
          <path
             d="M 0,0 C 0,-0.601 -0.185,-3.588 -1.24,-3.788 -0.511,-2.949 -0.339,-1.029 -0.332,0 -0.339,1.098 -0.511,2.971 -1.24,3.789 -0.548,3.657 -0.009,2.016 0,0"
             style="fill:#ffffff;fill-opacity:1;fill-rule:evenodd;stroke:none"
             id="path5568" />
        </g>
        <g
           id="g5570"
           transform="translate(64.718597,73.568695)">
          <path
             d="m 0,0 -0.006,0 c 0.301,-0.085 0.16,-0.538 -0.136,-0.454 -0.227,0.053 -1.262,0.211 -1.157,0.607 0.101,0.359 0.617,0.022 0.783,-0.032 C -0.438,0.095 -0.063,0.01 0,0"
             style="fill:#ffffff;fill-opacity:1;fill-rule:evenodd;stroke:none"
             id="path5572" />
        </g>
        <g
           id="g5574"
           transform="translate(60.935394,75.626404)">
          <path
             d="m 0,0 c 0,-0.142 -0.116,-0.258 -0.264,-0.258 -0.143,0 -0.259,0.116 -0.259,0.258 0,0.143 0.116,0.258 0.259,0.258 C -0.116,0.258 0,0.143 0,0"
             style="fill:#ffffff;fill-opacity:1;fill-rule:evenodd;stroke:none"
             id="path5576" />
        </g>
        <g
           id="g5578"
           transform="translate(62.587601,74.407898)">
          <path
             d="M 0,0 C 0.274,-0.174 0.005,-0.56 -0.248,-0.407 -0.454,-0.295 -1.415,0.143 -1.21,0.485 -1.003,0.791 -0.613,0.343 -0.46,0.248 -0.397,0.206 -0.059,0.026 0,0"
             style="fill:#ffffff;fill-opacity:1;fill-rule:evenodd;stroke:none"
             id="path5580" />
        </g>
        <g
           id="g5582"
           transform="translate(66.127502,73.152206)">
          <path
             d="M 0,0 C 0,-0.344 -0.521,-0.338 -0.521,0 -0.521,0.337 0,0.353 0,0"
             style="fill:#ffffff;fill-opacity:1;fill-rule:evenodd;stroke:none"
             id="path5584" />
        </g>
        <g
           id="g5586"
           transform="translate(64.312103,70.783203)">
          <path
             d="M 0,0 C 0.554,-0.249 1.251,0.638 1.541,1.012 1.567,1.045 1.594,1.081 1.62,1.119 1.794,0.296 2.053,-0.559 2.39,-1.335 2.296,-1.399 2.211,-1.489 2.163,-1.588 1.883,-1.22 1.462,-1.329 1.067,-1.325 0.675,-1.309 0.253,-1.14 -0.052,-1.499 c -0.201,0.412 -0.655,0.39 -1.03,0.48 C -0.67,-0.829 0.011,-0.517 0,0"
             style="fill:#ffffff;fill-opacity:1;fill-rule:evenodd;stroke:none"
             id="path5588" />
        </g>
        <g
           id="g5590"
           transform="translate(65.161697,72.360596)">
          <path
             d="m 0,0 c 0.217,0.217 0.56,-0.095 0.344,-0.327 -0.138,-0.174 -0.782,-1.04 -1.066,-0.754 -0.096,0.089 -0.096,0.243 -0.006,0.337 l 0,-0.005 C -0.464,-0.512 -0.206,-0.296 0,0"
             style="fill:#ffffff;fill-opacity:1;fill-rule:evenodd;stroke:none"
             id="path5592" />
        </g>
        <g
           id="g5594"
           transform="translate(60.909302,74.539703)">
          <path
             d="m 0,0 c 0.095,-0.227 0.559,-0.522 0.743,-0.644 0.345,-0.217 0.877,-0.538 1.266,-0.247 0.013,-0.645 1.108,-0.845 1.606,-0.951 0.105,-0.026 0.268,-0.031 0.373,0 C 3.757,-2.131 3.468,-2.448 3.171,-2.686 3.071,-2.796 2.986,-3.007 2.986,-3.171 2.568,-3.003 2.263,-3.319 1.926,-3.493 1.603,-3.662 1.15,-3.741 1.049,-4.169 0.938,-4.084 0.829,-4.021 0.67,-4.015 0.307,-2.85 0.078,-1.498 0,0"
             style="fill:#ffffff;fill-opacity:1;fill-rule:evenodd;stroke:none"
             id="path5596" />
        </g>
        <g
           id="g5598"
           transform="translate(65.558197,75.626404)">
          <path
             d="m 0,0 c 0,-0.611 0.03,-1.244 0.089,-1.852 -0.126,-0.042 -0.233,-0.121 -0.31,-0.222 -0.159,0.449 -0.629,0.444 -1.009,0.549 -0.375,0.111 -0.764,0.391 -1.145,0.095 -0.011,0.497 -0.491,0.618 -0.828,0.829 -0.328,0.2 -0.628,0.553 -1.056,0.396 0.022,0.073 0.039,0.131 0.039,0.205 l 0,-0.005 c 0,0.074 -0.017,0.137 -0.039,0.211 0.439,-0.147 0.728,0.19 1.056,0.401 0.337,0.212 0.817,0.316 0.828,0.823 0.381,-0.28 0.775,-0.016 1.145,0.095 0.39,0.116 0.85,0.094 1.009,0.554 C -0.144,1.974 -0.033,1.89 0.089,1.852 0.03,1.252 0,0.633 0,0"
             style="fill:#ffffff;fill-opacity:1;fill-rule:evenodd;stroke:none"
             id="path5600" />
        </g>
      </g>
    </g>
  </g>
</svg>
