<svg xmlns="http://www.w3.org/2000/svg" width="213.556" height="213.418"><path d="M0 0c7.465 0 13.608 6.117 13.608 13.582 0 7.49-6.143 13.61-13.608 13.61-7.491 0-13.61-6.12-13.61-13.61C-13.61 6.117-7.491 0 0 0" style="fill:#fff;fill-opacity:1;fill-rule:evenodd;stroke:none" transform="matrix(6.28013 0 0 -6.28013 106.769 192.088)"/><path d="M0 0c7.467 0 13.608 6.119 13.608 13.584 0 7.491-6.141 13.608-13.608 13.608-7.491 0-13.608-6.117-13.608-13.608C-13.608 6.119-7.491 0 0 0m0-3.394c9.356 0 17.004 7.648 17.004 16.978 0 9.359-7.648 17.005-17.004 17.005-9.354 0-17.001-7.646-17.001-17.005 0-9.33 7.647-16.978 17.001-16.978" style="fill:#ed1d24;fill-opacity:1;fill-rule:evenodd;stroke:none" transform="matrix(6.28013 0 0 -6.28013 106.769 192.103)"/><path style="fill:#000;fill-opacity:1;fill-rule:evenodd;stroke:none" d="M0 0a14.03 14.03 0 0 0 .628-4.163C.628-5.612.408-7.01 0-8.324l-4.161 4.161L0 0z" transform="matrix(6.09667 0 0 -6.09667 188.734 81.75)"/><path style="fill:#000;fill-opacity:1;fill-rule:evenodd;stroke:none" d="m0 0 4.162-4.163L0-8.325a14.056 14.056 0 0 0-.627 4.162c0 1.45.22 2.847.627 4.163" transform="matrix(6.09667 0 0 -6.09667 25.232 81.75)"/><path style="fill:#000;fill-opacity:1;fill-rule:nonzero;stroke:none" d="M0 0c-.389-.017-.701-.203-.937-.558-.237-.355-.354-.988-.354-1.901l-2.689.304c0 1.503.364 2.665 1.09 3.486.727.819 1.699 1.23 2.916 1.23 1.404 0 2.409-.377 3.016-1.13.61-.754.914-1.765.914-3.035.017-.779-.063-1.473-.241-2.083a11.206 11.206 0 0 0-.799-1.955l-3.575-7.035h4.437v-2.561h-7.605v2.387a470.315 470.315 0 0 1 2.243 4.305C-.848-7.116-.11-5.681.635-4.241c.237.44.385.876.443 1.308.059.431.089.884.089 1.359 0 .151-.014.321-.037.507a1.454 1.454 0 0 1-.167.509 1.199 1.199 0 0 1-.354.393C.457-.055.253 0 0 0" transform="matrix(6.09667 0 0 -6.09667 87.41 62.796)"/><path style="fill:#000;fill-opacity:1;fill-rule:nonzero;stroke:none" d="M0 0c.216 0 .398-.034.546-.103a.908.908 0 0 0 .356-.286c.089-.123.155-.266.195-.432.037-.166.058-.346.058-.54V-5.4H-.012v3.694c0 .187-.042.329-.124.426a.43.43 0 0 1-.344.146.489.489 0 0 1-.366-.151.598.598 0 0 1-.159-.411V-5.4H-2.17v3.694c0 .187-.043.329-.125.426a.424.424 0 0 1-.342.146.474.474 0 0 1-.365-.167c-.101-.112-.153-.265-.153-.459V-5.4H-4.32v5.346h1.165V-.54l.042-.011c.108.151.242.281.404.389A.953.953 0 0 0-2.166 0c.272 0 .49-.056.657-.168a.993.993 0 0 0 .365-.448c.15.188.326.337.523.448C-.422-.056-.216 0 0 0" transform="matrix(6.09667 0 0 -6.09667 147.938 122.774)"/></svg>