<?xml version="1.0" encoding="UTF-8" standalone="no"?>
<!-- Created with Inkscape (http://www.inkscape.org/) -->

<svg
   xmlns:dc="http://purl.org/dc/elements/1.1/"
   xmlns:cc="http://creativecommons.org/ns#"
   xmlns:rdf="http://www.w3.org/1999/02/22-rdf-syntax-ns#"
   xmlns:svg="http://www.w3.org/2000/svg"
   xmlns="http://www.w3.org/2000/svg"
   xmlns:sodipodi="http://sodipodi.sourceforge.net/DTD/sodipodi-0.dtd"
   xmlns:inkscape="http://www.inkscape.org/namespaces/inkscape"
   width="149.84828"
   height="148.58206"
   id="svg4366"
   version="1.1"
   inkscape:version="0.47 r22583"
   sodipodi:docname="Cyprus road sign next destinations.svg">
  <defs
     id="defs4368">
    <inkscape:perspective
       sodipodi:type="inkscape:persp3d"
       inkscape:vp_x="0 : 526.18109 : 1"
       inkscape:vp_y="0 : 1000 : 0"
       inkscape:vp_z="744.09448 : 526.18109 : 1"
       inkscape:persp3d-origin="372.04724 : 350.78739 : 1"
       id="perspective4374" />
    <inkscape:perspective
       id="perspective4198"
       inkscape:persp3d-origin="0.5 : 0.33333333 : 1"
       inkscape:vp_z="1 : 0.5 : 1"
       inkscape:vp_y="0 : 1000 : 0"
       inkscape:vp_x="0 : 0.5 : 1"
       sodipodi:type="inkscape:persp3d" />
    <clipPath
       clipPathUnits="userSpaceOnUse"
       id="clipPath2876">
      <path
         d="m 32.598,406.205 114.997,0 0,116.22 -114.997,0 0,-116.22 z"
         id="path2878" />
    </clipPath>
    <clipPath
       clipPathUnits="userSpaceOnUse"
       id="clipPath2864">
      <path
         d="M 0,0 311,0 311,595 0,595 0,0 z"
         id="path2866" />
    </clipPath>
    <clipPath
       clipPathUnits="userSpaceOnUse"
       id="clipPath2848">
      <path
         d="m 32.598,406.205 114.997,0 0,116.22 -114.997,0 0,-116.22 z"
         id="path2850" />
    </clipPath>
    <inkscape:perspective
       id="perspective4719"
       inkscape:persp3d-origin="0.5 : 0.33333333 : 1"
       inkscape:vp_z="1 : 0.5 : 1"
       inkscape:vp_y="0 : 1000 : 0"
       inkscape:vp_x="0 : 0.5 : 1"
       sodipodi:type="inkscape:persp3d" />
    <clipPath
       clipPathUnits="userSpaceOnUse"
       id="clipPath3216">
      <path
         d="m 32.598,263.055 114.997,0 0,116.221 -114.997,0 0,-116.221 z"
         id="path3218" />
    </clipPath>
    <clipPath
       clipPathUnits="userSpaceOnUse"
       id="clipPath3196">
      <path
         d="M 0,0 311,0 311,595 0,595 0,0 z"
         id="path3198" />
    </clipPath>
    <clipPath
       clipPathUnits="userSpaceOnUse"
       id="clipPath3186">
      <path
         d="m 32.598,263.055 114.997,0 0,116.221 -114.997,0 0,-116.221 z"
         id="path3188" />
    </clipPath>
    <clipPath
       clipPathUnits="userSpaceOnUse"
       id="clipPath3176">
      <path
         d="M 0,0 311,0 311,595 0,595 0,0 z"
         id="path3178" />
    </clipPath>
  </defs>
  <sodipodi:namedview
     id="base"
     pagecolor="#ffffff"
     bordercolor="#666666"
     borderopacity="1.0"
     inkscape:pageopacity="0.0"
     inkscape:pageshadow="2"
     inkscape:zoom="0.83535156"
     inkscape:cx="580.15191"
     inkscape:cy="308.67421"
     inkscape:document-units="px"
     inkscape:current-layer="layer1"
     showgrid="false"
     inkscape:window-width="1600"
     inkscape:window-height="838"
     inkscape:window-x="-8"
     inkscape:window-y="-8"
     inkscape:window-maximized="1" />
  <metadata
     id="metadata4371">
    <rdf:RDF>
      <cc:Work
         rdf:about="">
        <dc:format>image/svg+xml</dc:format>
        <dc:type
           rdf:resource="http://purl.org/dc/dcmitype/StillImage" />
        <dc:title></dc:title>
      </cc:Work>
    </rdf:RDF>
  </metadata>
  <g
     inkscape:label="Livello 1"
     inkscape:groupmode="layer"
     id="layer1"
     transform="translate(205.1519,-692.45434)">
    <g
       transform="matrix(1.3239969,0,0,-1.3239969,-250.60159,1191.9675)"
       id="g3172">
      <g
         id="g3174"
         clip-path="url(#clipPath3176)">
        <path
           d="m 34.879,265.33 112.076,0 0,111.671 -112.076,0 0,-111.671 z"
           style="fill:#007ac2;fill-opacity:1;fill-rule:nonzero;stroke:none"
           id="path3180" />
      </g>
    </g>
    <g
       transform="matrix(1.3239969,0,0,-1.3239969,-250.60159,1191.9675)"
       id="g3182">
      <g
         id="g3184"
         clip-path="url(#clipPath3186)">
        <path
           d="m 34.879,265.33 112.076,0 0,111.671 -112.076,0 0,-111.671 z"
           style="fill:none;stroke:#000000;stroke-width:0.55136079;stroke-linecap:butt;stroke-linejoin:miter;stroke-miterlimit:10;stroke-opacity:1;stroke-dasharray:none"
           id="path3190" />
      </g>
    </g>
    <g
       transform="matrix(1.3239969,0,0,-1.3239969,-250.60159,1191.9675)"
       id="g3192">
      <g
         id="g3194"
         clip-path="url(#clipPath3196)">
        <g
           id="g3200"
           transform="translate(71.458099,362.18871)">
          <path
             d="m 0,0 0,5.555 -1.984,0 0,1.132 5.314,0 0,-1.132 -1.98,0 L 1.35,0 0,0 z"
             style="fill:#ffdb00;fill-opacity:1;fill-rule:nonzero;stroke:none"
             id="path3202" />
        </g>
        <g
           id="g3204"
           transform="translate(75.663193,368.8752)">
          <path
             d="m 0,0 4.63,0 0,-1.131 -2.965,0 1.728,-2.062 -1.906,-2.367 3.284,0 0,-1.127 -4.858,0 0,1.25 1.793,2.244 L 0,-1.204 0,0 z"
             style="fill:#ffdb00;fill-opacity:1;fill-rule:nonzero;stroke:none"
             id="path3206" />
        </g>
        <g
           id="g3208"
           transform="translate(81.638107,362.18871)">
          <path
             d="m 0,0 0,6.687 4.958,0 0,-1.132 -3.608,0 0,-1.482 3.357,0 0,-1.127 -3.357,0 0,-1.819 3.736,0 L 5.086,0 0,0 z"
             style="fill:#ffdb00;fill-opacity:1;fill-rule:nonzero;stroke:none"
             id="path3210" />
        </g>
      </g>
    </g>
    <g
       transform="matrix(1.3239969,0,0,-1.3239969,-250.60159,1191.9675)"
       id="g3212">
      <g
         id="g3214"
         clip-path="url(#clipPath3216)">
        <g
           id="g3220"
           transform="translate(89.405304,367.74409)">
          <path
             d="m 0,0 0,-1.897 0.739,0 c 0.532,0 0.888,0.034 1.067,0.105 0.18,0.07 0.32,0.179 0.422,0.328 0.102,0.149 0.153,0.322 0.153,0.52 0,0.243 -0.072,0.444 -0.214,0.602 C 2.023,-0.184 1.843,-0.085 1.624,-0.046 1.463,-0.015 1.139,0 0.652,0 L 0,0 z m -1.35,-5.555 0,6.686 2.166,0 c 0.822,0 1.357,-0.033 1.606,-0.1 C 2.805,0.93 3.126,0.712 3.384,0.376 3.643,0.04 3.772,-0.394 3.772,-0.926 3.772,-1.336 3.697,-1.681 3.549,-1.961 3.399,-2.241 3.21,-2.461 2.981,-2.62 2.751,-2.78 2.518,-2.885 2.281,-2.937 1.958,-3.001 1.492,-3.033 0.88,-3.033 l -0.88,0 0,-2.522 -1.35,0 z"
             style="fill:#ffdb00;fill-opacity:1;fill-rule:nonzero;stroke:none"
             id="path3222" />
        </g>
        <path
           d="m 94.431,362.188 1.35,0 0,6.687 -1.35,0 0,-6.687 z"
           style="fill:#ffdb00;fill-opacity:1;fill-rule:nonzero;stroke:none"
           id="path3224" />
        <g
           id="g3226"
           transform="translate(71.458099,349.3448)">
          <path
             d="m 0,0 0,5.555 -1.984,0 0,1.132 5.314,0 0,-1.132 -1.98,0 L 1.35,0 0,0 z"
             style="fill:#ffffff;fill-opacity:1;fill-rule:nonzero;stroke:none"
             id="path3228" />
        </g>
        <g
           id="g3230"
           transform="translate(75.384903,350.72681)">
          <path
             d="m 0,0 1.286,0.196 c 0.055,-0.249 0.166,-0.438 0.333,-0.568 0.167,-0.129 0.402,-0.194 0.703,-0.194 0.331,0 0.58,0.061 0.748,0.183 0.112,0.085 0.168,0.199 0.168,0.342 L 3.147,0.201 C 3.083,0.262 2.94,0.318 2.718,0.369 1.685,0.597 1.029,0.806 0.753,0.994 0.369,1.256 0.178,1.619 0.178,2.084 c 0,0.42 0.166,0.773 0.497,1.059 C 1.007,3.428 1.52,3.571 2.217,3.571 2.88,3.571 3.372,3.464 3.694,3.248 4.017,3.031 4.239,2.712 4.36,2.29 L 3.152,2.066 C 3.1,2.255 3.002,2.399 2.858,2.499 2.713,2.6 2.507,2.65 2.24,2.65 1.902,2.65 1.66,2.603 1.514,2.509 1.417,2.442 1.368,2.355 1.368,2.249 L 1.496,2.016 C 1.612,1.931 2.011,1.811 2.693,1.656 3.376,1.501 3.853,1.311 4.123,1.086 4.391,0.858 4.525,0.54 4.525,0.132 4.525,-0.312 4.339,-0.693 3.968,-1.013 3.597,-1.332 3.048,-1.491 2.322,-1.491 1.662,-1.491 1.14,-1.357 0.755,-1.09 0.37,-0.823 0.119,-0.459 0,0"
             style="fill:#ffffff;fill-opacity:1;fill-rule:nonzero;stroke:none"
             id="path3232" />
        </g>
        <g
           id="g3234"
           transform="translate(84.096497,352.18179)">
          <path
             d="m 0,0 c -0.009,0.371 -0.105,0.653 -0.287,0.846 -0.183,0.193 -0.405,0.29 -0.666,0.29 -0.28,0 -0.511,-0.102 -0.694,-0.306 C -1.829,0.627 -1.919,0.349 -1.916,0 L 0,0 z M -0.073,-1.295 1.204,-1.51 C 1.04,-1.978 0.781,-2.335 0.426,-2.579 0.072,-2.824 -0.371,-2.946 -0.903,-2.946 c -0.842,0 -1.466,0.275 -1.87,0.825 -0.319,0.441 -0.479,0.997 -0.479,1.669 0,0.803 0.21,1.432 0.629,1.886 0.42,0.455 0.95,0.682 1.592,0.682 0.721,0 1.289,-0.237 1.706,-0.713 0.416,-0.476 0.616,-1.205 0.597,-2.188 l -3.211,0 c 0.01,-0.38 0.113,-0.675 0.311,-0.887 0.197,-0.211 0.444,-0.317 0.738,-0.317 0.201,0 0.37,0.055 0.507,0.165 0.137,0.109 0.24,0.285 0.31,0.529"
             style="fill:#ffffff;fill-opacity:1;fill-rule:nonzero;stroke:none"
             id="path3236" />
        </g>
        <g
           id="g3238"
           transform="translate(87.827194,349.3448)">
          <path
             d="m 0,0 -1.282,0 0,4.844 1.191,0 0,-0.689 c 0.204,0.326 0.387,0.54 0.549,0.643 0.163,0.103 0.348,0.155 0.555,0.155 0.291,0 0.573,-0.08 0.843,-0.241 L 1.46,3.594 C 1.244,3.734 1.043,3.804 0.858,3.804 0.678,3.804 0.526,3.754 0.401,3.656 0.277,3.557 0.179,3.378 0.107,3.12 0.036,2.862 0,2.32 0,1.496 L 0,0 z"
             style="fill:#ffffff;fill-opacity:1;fill-rule:nonzero;stroke:none"
             id="path3240" />
        </g>
        <g
           id="g3242"
           transform="translate(90.421997,354.189)">
          <path
             d="m 0,0 1.282,0 0,-4.844 L 0,-4.844 0,0 z m 0,1.842 1.282,0 0,-1.186 -1.282,0 0,1.186 z"
             style="fill:#ffffff;fill-opacity:1;fill-rule:nonzero;stroke:none"
             id="path3244" />
        </g>
        <g
           id="g3246"
           transform="translate(73.109207,339.6846)">
          <path
             d="m 0,0 2.39,-6.687 -1.464,0 -1.692,4.945 -1.638,-4.945 -1.432,0 L -1.441,0 0,0 z"
             style="fill:#ffdb00;fill-opacity:1;fill-rule:nonzero;stroke:none"
             id="path3248" />
        </g>
        <g
           id="g3250"
           transform="translate(79.914093,335.6434)">
          <path
             d="M 0,0 -0.921,2.481 -1.824,0 0,0 z m 2.486,-2.645 -1.469,0 -0.584,1.518 -2.672,0 -0.552,-1.518 -1.432,0 2.604,6.686 1.428,0 2.677,-6.686 z"
             style="fill:#ffdb00;fill-opacity:1;fill-rule:nonzero;stroke:none"
             id="path3252" />
        </g>
        <g
           id="g3254"
           transform="translate(83.321106,332.998)">
          <path
             d="m 0,0 0,6.687 1.35,0 0,-2.97 2.728,2.97 1.815,0 L 3.375,4.082 6.03,0 4.283,0 2.445,3.138 1.35,2.021 1.35,0 0,0 z"
             style="fill:#ffdb00;fill-opacity:1;fill-rule:nonzero;stroke:none"
             id="path3256" />
        </g>
        <g
           id="g3258"
           transform="translate(93.779404,335.6434)">
          <path
             d="M 0,0 -0.921,2.481 -1.824,0 0,0 z m 2.486,-2.645 -1.469,0 -0.584,1.518 -2.673,0 -0.551,-1.518 -1.433,0 2.605,6.686 1.427,0 2.678,-6.686 z"
             style="fill:#ffdb00;fill-opacity:1;fill-rule:nonzero;stroke:none"
             id="path3260" />
        </g>
        <g
           id="g3262"
           transform="translate(97.897903,332.998)">
          <path
             d="m 0,0 0,5.555 -1.984,0 0,1.132 5.313,0 0,-1.132 -1.979,0 L 1.35,0 0,0 z"
             style="fill:#ffdb00;fill-opacity:1;fill-rule:nonzero;stroke:none"
             id="path3264" />
        </g>
        <g
           id="g3266"
           transform="translate(105.136,335.6434)">
          <path
             d="M 0,0 -0.921,2.481 -1.824,0 0,0 z m 2.486,-2.645 -1.469,0 -0.584,1.518 -2.673,0 -0.551,-1.518 -1.433,0 2.605,6.686 1.427,0 2.678,-6.686 z"
             style="fill:#ffdb00;fill-opacity:1;fill-rule:nonzero;stroke:none"
             id="path3268" />
        </g>
        <g
           id="g3270"
           transform="translate(108.5065,332.998)">
          <path
             d="m 0,0 0,6.687 2.021,0 1.213,-4.562 1.199,4.562 2.025,0 0,-6.687 -1.254,0 0,5.263 L 3.877,0 2.577,0 1.254,5.263 1.254,0 0,0 z"
             style="fill:#ffdb00;fill-opacity:1;fill-rule:nonzero;stroke:none"
             id="path3272" />
        </g>
        <g
           id="g3274"
           transform="translate(116.49271,332.998)">
          <path
             d="m 0,0 0,6.687 4.958,0 0,-1.132 -3.608,0 0,-1.482 3.357,0 0,-1.127 -3.357,0 0,-1.819 3.735,0 L 5.085,0 0,0 z"
             style="fill:#ffdb00;fill-opacity:1;fill-rule:nonzero;stroke:none"
             id="path3276" />
        </g>
        <path
           d="m 122.869,332.998 1.35,0 0,6.687 -1.35,0 0,-6.687 z"
           style="fill:#ffdb00;fill-opacity:1;fill-rule:nonzero;stroke:none"
           id="path3278" />
        <g
           id="g3280"
           transform="translate(129.23579,335.6434)">
          <path
             d="M 0,0 -0.921,2.481 -1.824,0 0,0 z m 2.486,-2.645 -1.469,0 -0.584,1.518 -2.673,0 -0.551,-1.518 -1.433,0 2.605,6.686 1.428,0 2.677,-6.686 z"
             style="fill:#ffdb00;fill-opacity:1;fill-rule:nonzero;stroke:none"
             id="path3282" />
        </g>
        <g
           id="g3284"
           transform="translate(69.989502,317.81889)">
          <path
             d="m 0,0 0,6.632 1.35,0 0,-5.505 3.357,0 L 4.707,0 0,0 z"
             style="fill:#ffffff;fill-opacity:1;fill-rule:nonzero;stroke:none"
             id="path3286" />
        </g>
        <g
           id="g3288"
           transform="translate(78.509293,320.145)">
          <path
             d="m 0,0 c -0.164,-0.055 -0.424,-0.12 -0.78,-0.196 -0.356,-0.076 -0.588,-0.151 -0.698,-0.224 -0.167,-0.118 -0.251,-0.269 -0.251,-0.451 0,-0.18 0.067,-0.335 0.201,-0.465 0.134,-0.131 0.304,-0.197 0.511,-0.197 0.231,0 0.451,0.076 0.661,0.229 0.155,0.115 0.257,0.257 0.306,0.424 C -0.017,-0.771 0,-0.563 0,-0.255 L 0,0 z m -1.715,1.04 -1.163,0.21 c 0.131,0.468 0.356,0.815 0.675,1.04 0.319,0.225 0.794,0.337 1.423,0.337 0.572,0 0.997,-0.068 1.277,-0.203 C 0.777,2.289 0.974,2.117 1.088,1.909 1.202,1.701 1.259,1.318 1.259,0.762 L 1.245,-0.734 c 0,-0.426 0.021,-0.74 0.062,-0.942 0.041,-0.203 0.118,-0.419 0.23,-0.65 l -1.268,0 C 0.236,-2.241 0.195,-2.115 0.146,-1.948 L 0.1,-1.797 c -0.219,-0.213 -0.453,-0.372 -0.702,-0.479 -0.249,-0.107 -0.515,-0.16 -0.798,-0.16 -0.499,0 -0.892,0.136 -1.179,0.406 -0.288,0.271 -0.431,0.613 -0.431,1.027 0,0.273 0.065,0.517 0.196,0.732 0.131,0.214 0.314,0.378 0.55,0.492 0.235,0.114 0.575,0.214 1.019,0.299 C -0.646,0.632 -0.231,0.737 0,0.835 L 0,0.962 C 0,1.209 -0.061,1.384 -0.182,1.489 -0.304,1.594 -0.534,1.647 -0.871,1.647 -1.099,1.647 -1.277,1.602 -1.405,1.512 -1.533,1.423 -1.636,1.265 -1.715,1.04"
             style="fill:#ffffff;fill-opacity:1;fill-rule:nonzero;stroke:none"
             id="path3290" />
        </g>
        <g
           id="g3292"
           transform="translate(81.172897,317.81889)">
          <path
             d="m 0,0 0,6.687 1.282,0 0,-3.549 1.5,1.706 1.578,0 L 2.705,3.074 4.479,0 3.097,0 1.879,2.176 1.282,1.551 1.282,0 0,0 z"
             style="fill:#ffffff;fill-opacity:1;fill-rule:nonzero;stroke:none"
             id="path3294" />
        </g>
        <g
           id="g3296"
           transform="translate(89.273102,320.145)">
          <path
             d="m 0,0 c -0.164,-0.055 -0.424,-0.12 -0.78,-0.196 -0.356,-0.076 -0.588,-0.151 -0.698,-0.224 -0.167,-0.118 -0.251,-0.269 -0.251,-0.451 0,-0.18 0.067,-0.335 0.201,-0.465 0.134,-0.131 0.304,-0.197 0.511,-0.197 0.231,0 0.451,0.076 0.661,0.229 0.155,0.115 0.257,0.257 0.306,0.424 C -0.017,-0.771 0,-0.563 0,-0.255 L 0,0 z m -1.715,1.04 -1.163,0.21 c 0.131,0.468 0.356,0.815 0.675,1.04 0.319,0.225 0.794,0.337 1.423,0.337 0.572,0 0.997,-0.068 1.277,-0.203 C 0.777,2.289 0.974,2.117 1.088,1.909 1.202,1.701 1.259,1.318 1.259,0.762 L 1.245,-0.734 c 0,-0.426 0.021,-0.74 0.062,-0.942 0.041,-0.203 0.117,-0.419 0.23,-0.65 l -1.268,0 C 0.236,-2.241 0.195,-2.115 0.146,-1.948 L 0.1,-1.797 c -0.219,-0.213 -0.453,-0.372 -0.702,-0.479 -0.249,-0.107 -0.515,-0.16 -0.798,-0.16 -0.499,0 -0.892,0.136 -1.179,0.406 -0.288,0.271 -0.431,0.613 -0.431,1.027 0,0.273 0.065,0.517 0.196,0.732 0.131,0.214 0.314,0.378 0.55,0.492 0.235,0.114 0.575,0.214 1.019,0.299 C -0.646,0.632 -0.231,0.737 0,0.835 L 0,0.962 C 0,1.209 -0.061,1.384 -0.182,1.489 -0.304,1.594 -0.534,1.647 -0.871,1.647 -1.099,1.647 -1.277,1.602 -1.405,1.512 -1.533,1.423 -1.636,1.265 -1.715,1.04"
             style="fill:#ffffff;fill-opacity:1;fill-rule:nonzero;stroke:none"
             id="path3298" />
        </g>
        <g
           id="g3300"
           transform="translate(94.2034,322.6627)">
          <path
             d="m 0,0 0,-1.022 -0.876,0 0,-1.952 c 0,-0.395 0.009,-0.625 0.025,-0.691 l 0.114,-0.162 0.217,-0.064 c 0.119,0 0.29,0.042 0.515,0.124 l 0.11,-0.995 c -0.298,-0.127 -0.636,-0.191 -1.013,-0.191 -0.231,0 -0.439,0.039 -0.625,0.116 -0.185,0.078 -0.321,0.178 -0.408,0.301 -0.086,0.123 -0.146,0.29 -0.18,0.5 -0.027,0.148 -0.041,0.449 -0.041,0.903 l 0,2.111 -0.588,0 0,1.022 0.588,0 0,0.962 1.286,0.748 0,-1.71 L 0,0 z"
             style="fill:#ffffff;fill-opacity:1;fill-rule:nonzero;stroke:none"
             id="path3302" />
        </g>
        <g
           id="g3304"
           transform="translate(97.952393,320.145)">
          <path
             d="m 0,0 c -0.164,-0.055 -0.424,-0.12 -0.78,-0.196 -0.356,-0.076 -0.588,-0.151 -0.698,-0.224 -0.167,-0.118 -0.251,-0.269 -0.251,-0.451 0,-0.18 0.067,-0.335 0.201,-0.465 0.134,-0.131 0.304,-0.197 0.511,-0.197 0.231,0 0.451,0.076 0.661,0.229 0.155,0.115 0.257,0.257 0.306,0.424 C -0.017,-0.771 0,-0.563 0,-0.255 L 0,0 z m -1.715,1.04 -1.163,0.21 c 0.131,0.468 0.356,0.815 0.675,1.04 0.319,0.225 0.794,0.337 1.423,0.337 0.572,0 0.997,-0.068 1.277,-0.203 C 0.777,2.289 0.974,2.117 1.088,1.909 1.202,1.701 1.259,1.318 1.259,0.762 L 1.245,-0.734 c 0,-0.426 0.021,-0.74 0.062,-0.942 0.041,-0.203 0.118,-0.419 0.23,-0.65 l -1.268,0 C 0.236,-2.241 0.195,-2.115 0.146,-1.948 L 0.1,-1.797 c -0.219,-0.213 -0.453,-0.372 -0.702,-0.479 -0.249,-0.107 -0.516,-0.16 -0.798,-0.16 -0.499,0 -0.892,0.136 -1.179,0.406 -0.288,0.271 -0.431,0.613 -0.431,1.027 0,0.273 0.065,0.517 0.196,0.732 0.13,0.214 0.314,0.378 0.549,0.492 0.236,0.114 0.576,0.214 1.02,0.299 C -0.646,0.632 -0.231,0.737 0,0.835 L 0,0.962 C 0,1.209 -0.061,1.384 -0.183,1.489 -0.304,1.594 -0.534,1.647 -0.871,1.647 -1.099,1.647 -1.277,1.602 -1.405,1.512 -1.533,1.423 -1.636,1.265 -1.715,1.04"
             style="fill:#ffffff;fill-opacity:1;fill-rule:nonzero;stroke:none"
             id="path3306" />
        </g>
        <g
           id="g3308"
           transform="translate(100.5657,322.6627)">
          <path
             d="m 0,0 1.181,0 0,-0.661 c 0.423,0.513 0.926,0.77 1.51,0.77 0.31,0 0.579,-0.063 0.807,-0.191 0.228,-0.128 0.415,-0.321 0.561,-0.579 0.213,0.258 0.443,0.451 0.689,0.579 0.246,0.128 0.509,0.191 0.789,0.191 0.356,0 0.657,-0.072 0.903,-0.216 0.247,-0.144 0.43,-0.356 0.552,-0.636 0.088,-0.207 0.132,-0.541 0.132,-1.004 l 0,-3.097 -1.281,0 0,2.769 c 0,0.48 -0.044,0.791 -0.133,0.93 -0.118,0.183 -0.301,0.274 -0.547,0.274 -0.179,0 -0.348,-0.055 -0.506,-0.164 C 4.499,-1.145 4.385,-1.305 4.315,-1.517 4.245,-1.728 4.21,-2.062 4.21,-2.518 l 0,-2.326 -1.282,0 0,2.655 c 0,0.471 -0.023,0.775 -0.068,0.912 -0.046,0.137 -0.117,0.239 -0.212,0.306 -0.096,0.066 -0.226,0.1 -0.39,0.1 -0.198,0 -0.376,-0.053 -0.534,-0.16 C 1.566,-1.137 1.453,-1.291 1.384,-1.491 1.316,-1.692 1.282,-2.025 1.282,-2.49 l 0,-2.354 L 0,-4.844 0,0 z"
             style="fill:#ffffff;fill-opacity:1;fill-rule:nonzero;stroke:none"
             id="path3310" />
        </g>
        <g
           id="g3312"
           transform="translate(112.03191,320.6559)">
          <path
             d="m 0,0 c -0.009,0.371 -0.105,0.653 -0.287,0.846 -0.183,0.193 -0.405,0.29 -0.666,0.29 -0.28,0 -0.511,-0.102 -0.693,-0.306 C -1.829,0.627 -1.919,0.349 -1.916,0 L 0,0 z M -0.073,-1.295 1.204,-1.51 C 1.04,-1.978 0.781,-2.335 0.427,-2.579 c -0.355,-0.245 -0.798,-0.367 -1.33,-0.367 -0.842,0 -1.466,0.275 -1.87,0.825 -0.319,0.441 -0.479,0.997 -0.479,1.669 0,0.803 0.21,1.432 0.629,1.886 0.42,0.455 0.951,0.682 1.592,0.682 0.721,0 1.289,-0.237 1.706,-0.713 0.417,-0.477 0.616,-1.205 0.598,-2.188 l -3.211,0 c 0.009,-0.38 0.112,-0.675 0.31,-0.887 0.197,-0.211 0.444,-0.317 0.739,-0.317 0.2,0 0.369,0.055 0.506,0.165 0.137,0.109 0.24,0.285 0.31,0.529"
             style="fill:#ffffff;fill-opacity:1;fill-rule:nonzero;stroke:none"
             id="path3314" />
        </g>
        <g
           id="g3316"
           transform="translate(114.536,322.66299)">
          <path
             d="m 0,0 1.282,0 0,-4.844 L 0,-4.844 0,0 z m 0,1.842 1.282,0 0,-1.186 -1.282,0 0,1.186 z"
             style="fill:#ffffff;fill-opacity:1;fill-rule:nonzero;stroke:none"
             id="path3318" />
        </g>
        <g
           id="g3320"
           transform="translate(119.99049,320.145)">
          <path
             d="m 0,0 c -0.164,-0.055 -0.424,-0.12 -0.78,-0.196 -0.356,-0.076 -0.588,-0.151 -0.698,-0.224 -0.167,-0.118 -0.251,-0.269 -0.251,-0.451 0,-0.18 0.067,-0.335 0.201,-0.465 0.134,-0.131 0.304,-0.197 0.511,-0.197 0.231,0 0.452,0.076 0.661,0.229 0.155,0.115 0.257,0.257 0.306,0.424 C -0.017,-0.771 0,-0.563 0,-0.255 L 0,0 z m -1.715,1.04 -1.163,0.21 c 0.131,0.468 0.356,0.815 0.675,1.04 0.319,0.225 0.794,0.337 1.423,0.337 0.572,0 0.997,-0.068 1.277,-0.203 C 0.777,2.289 0.974,2.117 1.088,1.909 1.202,1.701 1.259,1.318 1.259,0.762 L 1.245,-0.734 c 0,-0.426 0.021,-0.74 0.062,-0.942 0.041,-0.203 0.118,-0.419 0.23,-0.65 l -1.268,0 C 0.236,-2.241 0.195,-2.115 0.146,-1.948 L 0.1,-1.797 c -0.219,-0.213 -0.453,-0.372 -0.702,-0.479 -0.249,-0.107 -0.515,-0.16 -0.798,-0.16 -0.499,0 -0.892,0.136 -1.179,0.406 -0.288,0.271 -0.431,0.613 -0.431,1.027 0,0.273 0.065,0.517 0.196,0.732 0.131,0.214 0.314,0.378 0.55,0.492 0.235,0.114 0.575,0.214 1.019,0.299 C -0.646,0.632 -0.231,0.737 0,0.835 L 0,0.962 C 0,1.209 -0.061,1.384 -0.182,1.489 -0.304,1.594 -0.534,1.647 -0.871,1.647 -1.099,1.647 -1.277,1.602 -1.405,1.512 -1.533,1.423 -1.636,1.265 -1.715,1.04"
             style="fill:#ffffff;fill-opacity:1;fill-rule:nonzero;stroke:none"
             id="path3322" />
        </g>
        <g
           id="g3324"
           transform="translate(73.109207,295.13229)">
          <path
             d="m 0,0 2.39,-6.686 -1.464,0 -1.692,4.944 -1.638,-4.944 -1.432,0 L -1.441,0 0,0 z"
             style="fill:#ffdb00;fill-opacity:1;fill-rule:nonzero;stroke:none"
             id="path3326" />
        </g>
        <g
           id="g3328"
           transform="translate(79.914093,291.0912)">
          <path
             d="M 0,0 -0.921,2.481 -1.824,0 0,0 z m 2.486,-2.645 -1.469,0 -0.584,1.518 -2.672,0 -0.552,-1.518 -1.432,0 2.604,6.686 1.428,0 2.677,-6.686 z"
             style="fill:#ffdb00;fill-opacity:1;fill-rule:nonzero;stroke:none"
             id="path3330" />
        </g>
        <g
           id="g3332"
           transform="translate(84.032593,288.44591)">
          <path
             d="m 0,0 0,5.555 -1.984,0 0,1.131 5.313,0 0,-1.131 -1.979,0 L 1.35,0 0,0 z"
             style="fill:#ffdb00;fill-opacity:1;fill-rule:nonzero;stroke:none"
             id="path3334" />
        </g>
        <g
           id="g3336"
           transform="translate(88.237701,295.13229)">
          <path
             d="m 0,0 4.63,0 0,-1.131 -2.965,0 1.728,-2.062 -1.906,-2.367 3.284,0 0,-1.126 -4.858,0 0,1.249 1.793,2.244 L 0,-1.204 0,0 z"
             style="fill:#ffdb00;fill-opacity:1;fill-rule:nonzero;stroke:none"
             id="path3338" />
        </g>
        <path
           d="m 94.172,288.446 1.35,0 0,6.686 -1.35,0 0,-6.686 z"
           style="fill:#ffdb00;fill-opacity:1;fill-rule:nonzero;stroke:none"
           id="path3340" />
        <g
           id="g3342"
           transform="translate(100.5385,291.0912)">
          <path
             d="M 0,0 -0.921,2.481 -1.824,0 0,0 z m 2.486,-2.645 -1.469,0 -0.584,1.518 -2.673,0 -0.551,-1.518 -1.433,0 2.605,6.686 1.427,0 2.678,-6.686 z"
             style="fill:#ffdb00;fill-opacity:1;fill-rule:nonzero;stroke:none"
             id="path3344" />
        </g>
        <g
           id="g3346"
           transform="translate(69.989502,275.60201)">
          <path
             d="m 0,0 0,6.632 1.35,0 0,-5.506 3.357,0 L 4.707,0 0,0 z"
             style="fill:#ffffff;fill-opacity:1;fill-rule:nonzero;stroke:none"
             id="path3348" />
        </g>
        <g
           id="g3350"
           transform="translate(78.509293,277.9279)">
          <path
             d="m 0,0 c -0.164,-0.055 -0.424,-0.12 -0.78,-0.196 -0.356,-0.076 -0.588,-0.15 -0.698,-0.224 -0.167,-0.118 -0.251,-0.269 -0.251,-0.451 0,-0.18 0.067,-0.335 0.201,-0.465 0.134,-0.131 0.304,-0.197 0.511,-0.197 0.231,0 0.451,0.076 0.661,0.229 0.155,0.115 0.257,0.257 0.306,0.424 C -0.017,-0.771 0,-0.563 0,-0.255 L 0,0 z m -1.715,1.04 -1.163,0.21 c 0.131,0.468 0.356,0.815 0.675,1.04 0.319,0.225 0.794,0.337 1.423,0.337 0.572,0 0.997,-0.068 1.277,-0.203 C 0.777,2.289 0.974,2.117 1.088,1.909 1.202,1.701 1.259,1.318 1.259,0.762 L 1.245,-0.734 c 0,-0.426 0.021,-0.74 0.062,-0.942 0.041,-0.202 0.118,-0.419 0.23,-0.65 l -1.268,0 C 0.236,-2.241 0.195,-2.115 0.146,-1.947 L 0.1,-1.797 c -0.219,-0.213 -0.453,-0.372 -0.702,-0.479 -0.249,-0.107 -0.515,-0.16 -0.798,-0.16 -0.499,0 -0.892,0.136 -1.179,0.406 -0.288,0.271 -0.431,0.613 -0.431,1.027 0,0.273 0.065,0.517 0.196,0.732 0.131,0.214 0.314,0.378 0.55,0.492 0.235,0.114 0.575,0.214 1.019,0.299 C -0.646,0.632 -0.231,0.737 0,0.835 L 0,0.962 C 0,1.209 -0.061,1.384 -0.182,1.489 -0.304,1.594 -0.534,1.647 -0.871,1.647 -1.099,1.647 -1.277,1.602 -1.405,1.512 -1.533,1.423 -1.636,1.265 -1.715,1.04"
             style="fill:#ffffff;fill-opacity:1;fill-rule:nonzero;stroke:none"
             id="path3352" />
        </g>
        <g
           id="g3354"
           transform="translate(83.439697,280.44569)">
          <path
             d="m 0,0 0,-1.022 -0.876,0 0,-1.952 c 0,-0.395 0.009,-0.625 0.025,-0.691 l 0.114,-0.162 0.217,-0.064 c 0.119,0 0.29,0.041 0.515,0.124 l 0.11,-0.995 c -0.298,-0.127 -0.636,-0.191 -1.013,-0.191 -0.231,0 -0.439,0.038 -0.625,0.116 -0.185,0.078 -0.321,0.178 -0.408,0.301 -0.086,0.123 -0.146,0.29 -0.18,0.5 -0.027,0.148 -0.041,0.449 -0.041,0.903 l 0,2.111 -0.588,0 0,1.022 0.588,0 0,0.962 1.286,0.748 0,-1.71 L 0,0 z"
             style="fill:#ffffff;fill-opacity:1;fill-rule:nonzero;stroke:none"
             id="path3356" />
        </g>
        <g
           id="g3358"
           transform="translate(84.064407,276.9839)">
          <path
             d="m 0,0 1.286,0.196 c 0.055,-0.249 0.166,-0.438 0.333,-0.568 0.167,-0.129 0.402,-0.194 0.703,-0.194 0.331,0 0.58,0.061 0.748,0.183 0.112,0.085 0.168,0.199 0.168,0.342 L 3.147,0.201 C 3.083,0.262 2.94,0.317 2.718,0.369 1.684,0.598 1.029,0.806 0.753,0.994 0.369,1.256 0.178,1.619 0.178,2.084 c 0,0.42 0.166,0.773 0.497,1.059 C 1.006,3.428 1.52,3.571 2.217,3.571 2.88,3.571 3.372,3.464 3.695,3.247 4.017,3.031 4.239,2.712 4.36,2.29 L 3.152,2.066 C 3.1,2.255 3.002,2.399 2.858,2.499 2.713,2.6 2.507,2.65 2.24,2.65 1.902,2.65 1.66,2.603 1.514,2.509 1.417,2.442 1.368,2.355 1.368,2.248 L 1.496,2.016 C 1.611,1.931 2.011,1.811 2.693,1.656 3.376,1.501 3.853,1.311 4.123,1.085 4.391,0.857 4.525,0.54 4.525,0.132 4.525,-0.312 4.339,-0.693 3.968,-1.013 3.597,-1.332 3.048,-1.492 2.322,-1.492 1.662,-1.492 1.139,-1.358 0.755,-1.09 0.37,-0.823 0.119,-0.459 0,0"
             style="fill:#ffffff;fill-opacity:1;fill-rule:nonzero;stroke:none"
             id="path3360" />
        </g>
        <g
           id="g3362"
           transform="translate(89.897995,280.446)">
          <path
             d="m 0,0 1.282,0 0,-4.844 L 0,-4.844 0,0 z m 0,1.842 1.282,0 0,-1.186 -1.282,0 0,1.186 z"
             style="fill:#ffffff;fill-opacity:1;fill-rule:nonzero;stroke:none"
             id="path3364" />
        </g>
        <g
           id="g3366"
           transform="translate(95.3526,277.9279)">
          <path
             d="m 0,0 c -0.164,-0.055 -0.424,-0.12 -0.78,-0.196 -0.356,-0.076 -0.588,-0.15 -0.698,-0.224 -0.167,-0.118 -0.251,-0.269 -0.251,-0.451 0,-0.18 0.067,-0.335 0.201,-0.465 0.134,-0.131 0.304,-0.197 0.511,-0.197 0.231,0 0.451,0.076 0.661,0.229 0.155,0.115 0.257,0.257 0.306,0.424 C -0.017,-0.771 0,-0.563 0,-0.255 L 0,0 z m -1.715,1.04 -1.163,0.21 c 0.131,0.468 0.356,0.815 0.675,1.04 0.319,0.225 0.794,0.337 1.423,0.337 0.572,0 0.997,-0.068 1.277,-0.203 C 0.777,2.289 0.974,2.117 1.088,1.909 1.202,1.701 1.259,1.318 1.259,0.762 L 1.245,-0.734 c 0,-0.426 0.021,-0.74 0.062,-0.942 0.041,-0.202 0.117,-0.419 0.23,-0.65 l -1.268,0 C 0.236,-2.241 0.195,-2.115 0.146,-1.947 L 0.1,-1.797 c -0.219,-0.213 -0.453,-0.372 -0.702,-0.479 -0.249,-0.107 -0.515,-0.16 -0.798,-0.16 -0.499,0 -0.892,0.136 -1.179,0.406 -0.288,0.271 -0.431,0.613 -0.431,1.027 0,0.273 0.065,0.517 0.196,0.732 0.131,0.214 0.314,0.378 0.549,0.492 0.236,0.114 0.576,0.214 1.02,0.299 C -0.646,0.632 -0.231,0.737 0,0.835 L 0,0.962 C 0,1.209 -0.061,1.384 -0.183,1.489 -0.304,1.594 -0.534,1.647 -0.871,1.647 -1.099,1.647 -1.277,1.602 -1.405,1.512 -1.533,1.423 -1.636,1.265 -1.715,1.04"
             style="fill:#ffffff;fill-opacity:1;fill-rule:nonzero;stroke:none"
             id="path3368" />
        </g>
        <g
           id="g3370"
           transform="translate(34.878998,304.67281)">
          <path
             d="M 0,0 112.076,0"
             style="fill:none;stroke:#ffffff;stroke-width:1.10272157;stroke-linecap:butt;stroke-linejoin:miter;stroke-miterlimit:10;stroke-opacity:1;stroke-dasharray:none"
             id="path3372" />
        </g>
        <path
           d="m 47.542,333.671 5.659,0 0,16.532 -5.659,0 0,-16.532 z"
           style="fill:#ffffff;fill-opacity:1;fill-rule:evenodd;stroke:none"
           id="path3374" />
        <g
           id="g3376"
           transform="translate(44.906998,349.39391)">
          <path
             d="M 0,0 10.929,0 5.465,8.771 0,0 z"
             style="fill:#ffffff;fill-opacity:1;fill-rule:evenodd;stroke:none"
             id="path3378" />
        </g>
        <path
           d="m 46.086,280.443 12.871,0 0,5.659 -12.871,0 0,-5.659 z"
           style="fill:#ffffff;fill-opacity:1;fill-rule:evenodd;stroke:none"
           id="path3380" />
        <g
           id="g3382"
           transform="translate(46.895599,277.80769)">
          <path
             d="M 0,0 0,10.929 -8.771,5.465 0,0 z"
             style="fill:#ffffff;fill-opacity:1;fill-rule:evenodd;stroke:none"
             id="path3384" />
        </g>
      </g>
    </g>
  </g>
</svg>
