<svg xmlns="http://www.w3.org/2000/svg" width="214.453" height="214.314"><path style="fill:#fff;fill-opacity:1;fill-rule:evenodd;stroke:none" d="M1.406 606.657c47.078 0 85.819-38.577 85.819-85.655 0-47.235-38.741-85.831-85.82-85.831-47.241 0-85.83 38.596-85.83 85.831 0 47.078 38.589 85.655 85.83 85.655" transform="translate(105.811 -413.763)"/><path style="fill:#ed1d24;fill-opacity:1;fill-rule:evenodd;stroke:none" d="M1.406 606.673c47.09 0 85.819-38.59 85.819-85.668 0-47.242-38.729-85.818-85.82-85.818-47.241 0-85.818 38.576-85.818 85.818 0 47.078 38.577 85.668 85.819 85.668m0 21.404c59.003 0 107.236-48.232 107.236-107.072 0-59.022-48.233-107.242-107.236-107.242-58.991 0-107.217 48.22-107.217 107.242 0 58.84 48.226 107.072 107.217 107.072" transform="translate(105.811 -413.763)"/><path d="M291.303 465.934c0 5.855 4.433 8.954 9.044 8.954 4.605 0 8.948-3.1 8.948-8.954 0-5.938-4.343-8.949-8.948-8.949-4.611 0-9.044 3.01-9.044 8.949m-1.148 26.5c0 5.676 4.783 9.93 10.192 9.93 5.313 0 10.102-4.254 10.102-9.93 0-5.67-4.79-9.924-10.102-9.924-5.409 0-10.192 4.254-10.192 9.924m-8.687.095c0-5.765 2.481-10.727 7.354-13.922-3.814-3.457-6.206-7.086-6.206-12.495 0-9.93 7.794-17.82 17.73-17.82 9.925 0 17.731 7.89 17.731 17.82 0 5.409-2.493 9.038-6.295 12.495 4.873 3.195 7.443 8.157 7.443 13.922 0 10.9-8.603 18.522-18.878 18.522-10.288 0-18.879-7.622-18.879-18.522M327.402 500.247v-24.165h-4.209v-7.24h4.21v-12.717h8.335v12.718h6.149v7.239h-6.149v22.654c0 2.27.925 4.037 3.03 4.037h3.119v7.75h-4.382c-5.804 0-10.103-3.623-10.103-10.276" style="fill:#000;fill-opacity:1;fill-rule:nonzero;stroke:none" transform="translate(-204.846 -413.224)"/><path d="M261.906 538.829c3.515 0 6.385 2.863 6.385 6.365v8.17h3.45v-8.177c0-3.495 2.858-6.358 6.353-6.358 3.507 0 6.378 2.863 6.378 6.365v8.17h15.995c2.545-3.266 7.29-5.447 12.724-5.447 5.428-.006 10.154 2.181 12.718 5.447h16.008v-8.177c0-3.495 2.858-6.358 6.36-6.358 3.5 0 6.358 2.863 6.358 6.365v8.17h3.463v-8.177c0-3.495 2.857-6.358 6.359-6.358 3.501 0 6.359 2.863 6.359 6.365v8.183c2.882.191 5.191 2.608 5.191 5.536 0 2.927-2.309 5.332-5.191 5.53v8.189c0 3.514-2.858 6.365-6.36 6.365-3.5 0-6.358-2.851-6.358-6.365v-8.177h-3.463v8.177c0 3.514-2.857 6.365-6.359 6.365-3.501 0-6.359-2.851-6.359-6.365v-8.177h-16.015c-2.557 3.253-7.29 5.453-12.71 5.453-5.422 0-10.16-2.2-12.725-5.453h-15.995v8.177c0 3.514-2.87 6.365-6.378 6.365-3.495 0-6.353-2.851-6.353-6.365v-8.177h-3.45v8.177c0 3.514-2.87 6.365-6.385 6.365-3.488 0-6.346-2.851-6.346-6.365v-8.19c-2.882-.197-5.185-2.602-5.185-5.53 0-2.927 2.303-5.344 5.185-5.535v-8.19c0-3.495 2.858-6.358 6.346-6.358" style="fill:#000;fill-opacity:1;fill-rule:evenodd;stroke:none" transform="translate(-204.846 -413.224)"/><path d="M307.207 516.492h11.96v14.28h6.753l-12.724 10.313-12.743-10.313h6.754v-14.28z" style="fill:#000;fill-opacity:1;fill-rule:evenodd;stroke:none" transform="translate(-204.846 -413.224)"/></svg>