<svg xmlns="http://www.w3.org/2000/svg" width="213.966" height="213.96"><defs><clipPath clipPathUnits="userSpaceOnUse" id="a"><path d="M0 0h311v595H0V0z"/></clipPath></defs><g clip-path="url(#a)" transform="matrix(6.69943 0 0 -6.69943 -1103.666 3514.353)"><path d="m0 0 15.968 15.968L31.938 0l-15.97-15.969L0 0z" style="fill:#000;fill-opacity:1;fill-rule:evenodd;stroke:none" transform="translate(164.74 508.607)"/><path d="m0 0 15.082 15.081L30.163 0 15.082-15.082 0 0z" style="fill:#fff;fill-opacity:1;fill-rule:evenodd;stroke:none" transform="translate(165.627 508.607)"/><path d="m0 0 9.226 9.226L18.453 0 9.226-9.227 0 0z" style="fill:#000;fill-opacity:1;fill-rule:evenodd;stroke:none" transform="translate(171.482 508.607)"/><path d="m0 0 8.517 8.516L17.033 0 8.517-8.517 0 0z" style="fill:#ffdb00;fill-opacity:1;fill-rule:evenodd;stroke:none" transform="translate(172.192 508.607)"/><path d="m0 0 2.918-2.918-15.969-15.967-2.918 2.917L0 0z" style="fill:#000;fill-opacity:1;fill-rule:evenodd;stroke:none" transform="translate(187.234 518.049)"/></g></svg>