<svg width="1010.4" height="1010.4" version="1.0" xmlns="http://www.w3.org/2000/svg"><path d="m-801.151-2230.875 295.822-295.822v-418.356l-295.822-295.822h-418.356l-295.822 295.822v418.356l295.822 295.822z" style="fill:#000;fill-opacity:1;stroke:none" transform="translate(1515.529 3241.075)"/><path d="m-803.222-2235.875 292.893-292.893v-414.214l-292.893-292.893h-414.214l-292.893 292.893v414.214l292.893 292.893z" style="fill:#fff;fill-opacity:1;stroke:none" transform="translate(1515.529 3241.075)"/><path style="fill:#ec1d24;fill-opacity:1;stroke:none" d="m-1203.767-3202.875-273.562 273.562v386.876l273.562 273.562h386.876l273.562-273.562v-386.876l-273.562-273.562z" transform="translate(1515.529 3241.075)"/><path style="fill:#fff;fill-opacity:1;fill-rule:evenodd;stroke:none" d="M-1400.308-2662.107v63.993c.169 13.853 2.666 26.99 7.72 39.427 18.236 41.994 56.374 55.89 93.415 56.481 42.945-.525 92.423-33.866 93.417-91.257v-69.977c-.168-7.45-1.232-14.428-3.11-21.494-4.65-15.422-12.604-24.6-23.374-34.335l-89.187-79.286c-7.02-6.345-10.513-11.59-10.661-22.383v-36.085c0-5.626.607-10.876 2.2-16.162 4.634-12.419 16.378-16.646 26.866-16.838 7.765.152 15.145 2.451 20.73 9.263 5.69 7.659 7.233 17.518 7.409 27.504v43.854h63.25v-52.279c-.186-15.713-3.917-30.206-10.304-43.852-17.43-34.518-47.83-51.149-80.721-51.615-24.121.277-48.086 7.636-67.106 26.148-16.84 17.238-26.001 40.977-26.317 67.543v60.039c0 8.227 1.502 16.205 3.851 23.9 3.768 11.534 9.227 19.679 17.304 27.25l88.448 79.52c8.736 8.1 13.854 18.486 14.153 31.898v36.326c0 5.625-.742 10.895-2.391 16.162-4.886 13.363-15.863 18.698-27.397 19.056-8.546-.152-17.115-2.118-23.54-9.353-5.67-7.043-7.406-16.287-7.536-25.865v-57.583zm265.36 156.14h62.533v-380.738l61.598-.23v-66.445l-185.922.235.186 66.21h61.604v380.97zm224.72-62.023h-.355c-17.496-.384-28.982-15.91-29.424-36.534v-250.28c.32-20.773 12.036-35.984 29.424-36.552h.742c17.473.402 28.982 15.928 29.424 36.552v250.28c-.32 20.748-12.052 35.959-29.424 36.535zm0 65.784h.387c24.456-.251 48.653-7.91 66.934-28.3 16.754-19.763 23.798-46.227 24.091-74.018v-250.28c-.253-28.433-7.72-55.488-25.193-75.263-18.211-19.53-41.867-26.74-65.832-27.08h-.742c-24.454.276-48.673 7.91-66.95 28.324-16.756 19.76-23.78 46.202-24.073 74.019v250.28c.236 28.407 7.719 55.481 25.17 75.244 18.233 19.546 41.888 26.758 65.853 27.074zm180.977-249.615v-136.217h30.333c16.585.343 24.539 14.279 24.832 33.234v69.768c-.236 19.02-8.31 32.79-24.832 33.215zm-61.625 245.854h61.625v-180.512h50.555c37.741-.759 65.39-45.885 66.217-88.596v-89.715c-.49-43.112-28.749-87.28-66.217-88.572l-112.18-.017" transform="translate(1515.529 3241.075)"/></svg>