<?xml version="1.0" encoding="UTF-8" standalone="no"?>
<!-- Created with Inkscape (http://www.inkscape.org/) -->

<svg
   xmlns:dc="http://purl.org/dc/elements/1.1/"
   xmlns:cc="http://creativecommons.org/ns#"
   xmlns:rdf="http://www.w3.org/1999/02/22-rdf-syntax-ns#"
   xmlns:svg="http://www.w3.org/2000/svg"
   xmlns="http://www.w3.org/2000/svg"
   xmlns:sodipodi="http://sodipodi.sourceforge.net/DTD/sodipodi-0.dtd"
   xmlns:inkscape="http://www.inkscape.org/namespaces/inkscape"
   width="198.19754"
   height="331.01321"
   id="svg3949"
   version="1.1"
   inkscape:version="0.47 r22583"
   sodipodi:docname="Nuovo documento 4">
  <defs
     id="defs3951">
    <inkscape:perspective
       sodipodi:type="inkscape:persp3d"
       inkscape:vp_x="0 : 526.18109 : 1"
       inkscape:vp_y="0 : 1000 : 0"
       inkscape:vp_z="744.09448 : 526.18109 : 1"
       inkscape:persp3d-origin="372.04724 : 350.78739 : 1"
       id="perspective3957" />
    <inkscape:perspective
       id="perspective3866"
       inkscape:persp3d-origin="0.5 : 0.33333333 : 1"
       inkscape:vp_z="1 : 0.5 : 1"
       inkscape:vp_y="0 : 1000 : 0"
       inkscape:vp_x="0 : 0.5 : 1"
       sodipodi:type="inkscape:persp3d" />
    <clipPath
       clipPathUnits="userSpaceOnUse"
       id="clipPath3544">
      <path
         d="m 224.645,53.859 54.567,0 0,86.456 -54.567,0 0,-86.456 z"
         id="path3546" />
    </clipPath>
    <clipPath
       clipPathUnits="userSpaceOnUse"
       id="clipPath3524">
      <path
         d="M 0,0 311,0 311,595 0,595 0,0 z"
         id="path3526" />
    </clipPath>
  </defs>
  <sodipodi:namedview
     id="base"
     pagecolor="#ffffff"
     bordercolor="#666666"
     borderopacity="1.0"
     inkscape:pageopacity="0.0"
     inkscape:pageshadow="2"
     inkscape:zoom="0.83535156"
     inkscape:cx="374.15829"
     inkscape:cy="-20.406799"
     inkscape:document-units="px"
     inkscape:current-layer="layer1"
     showgrid="false"
     inkscape:window-width="1600"
     inkscape:window-height="838"
     inkscape:window-x="-8"
     inkscape:window-y="-8"
     inkscape:window-maximized="1" />
  <metadata
     id="metadata3954">
    <rdf:RDF>
      <cc:Work
         rdf:about="">
        <dc:format>image/svg+xml</dc:format>
        <dc:type
           rdf:resource="http://purl.org/dc/dcmitype/StillImage" />
        <dc:title></dc:title>
      </cc:Work>
    </rdf:RDF>
  </metadata>
  <g
     inkscape:label="Livello 1"
     inkscape:groupmode="layer"
     id="layer1"
     transform="translate(-0.84171024,-180.94217)">
    <g
       transform="matrix(4.5196923,0,0,-4.5196923,-1037.2706,791.15712)"
       id="g3520">
      <g
         id="g3522"
         clip-path="url(#clipPath3524)">
        <path
           d="m 229.801,91.172 43.623,0 0,43.726 -43.623,0 0,-43.726 z"
           style="fill:#007ac2;fill-opacity:1;fill-rule:nonzero;stroke:#000000;stroke-width:0.22899789;stroke-linecap:butt;stroke-linejoin:miter;stroke-miterlimit:10;stroke-opacity:1;stroke-dasharray:none"
           id="path3528" />
        <path
           d="m 229.801,76.526 43.623,0 0,14.646 -43.623,0 0,-14.646 z"
           style="fill:#ffdb00;fill-opacity:1;fill-rule:nonzero;stroke:#000000;stroke-width:0.22899789;stroke-linecap:butt;stroke-linejoin:miter;stroke-miterlimit:10;stroke-opacity:1;stroke-dasharray:none"
           id="path3530" />
        <path
           d="m 232.148,104.815 38.377,0 0,14.609 -38.377,0 0,-14.609 z"
           style="fill:#ffffff;fill-opacity:1;fill-rule:nonzero;stroke:none"
           id="path3532" />
        <path
           d="m 229.801,61.889 43.623,0 0,14.637 -43.623,0 0,-14.637 z"
           style="fill:#ffdb00;fill-opacity:1;fill-rule:nonzero;stroke:#000000;stroke-width:0.22899789;stroke-linecap:butt;stroke-linejoin:miter;stroke-miterlimit:10;stroke-opacity:1;stroke-dasharray:none"
           id="path3534" />
        <g
           id="g3536"
           transform="translate(237.68359,88.361496)">
          <path
             d="m 0,0 2.679,0 0,-0.646 -1.911,0 0,-3.159 L 0,-3.805 0,0 z"
             style="fill:#000000;fill-opacity:1;fill-rule:nonzero;stroke:none"
             id="path3538" />
        </g>
      </g>
    </g>
    <g
       transform="matrix(4.5196923,0,0,-4.5196923,-1037.2706,791.15712)"
       id="g3540">
      <g
         id="g3542"
         clip-path="url(#clipPath3544)">
        <g
           id="g3548"
           transform="translate(241.74071,87.717606)">
          <path
             d="m 0,0 0,-1.079 0.421,0 c 0.302,0 0.505,0.019 0.607,0.059 0.102,0.04 0.182,0.102 0.24,0.187 0.058,0.085 0.087,0.183 0.087,0.296 0,0.138 -0.041,0.252 -0.122,0.342 -0.081,0.09 -0.184,0.147 -0.309,0.169 C 0.832,-0.009 0.648,0 0.371,0 L 0,0 z m -0.768,-3.162 0,3.806 1.233,0 C 0.932,0.644 1.236,0.625 1.378,0.587 1.596,0.53 1.779,0.406 1.926,0.214 2.073,0.023 2.147,-0.224 2.147,-0.527 2.147,-0.76 2.104,-0.957 2.019,-1.116 1.935,-1.275 1.827,-1.4 1.696,-1.491 1.566,-1.582 1.433,-1.642 1.298,-1.672 1.114,-1.708 0.849,-1.726 0.501,-1.726 l -0.501,0 0,-1.436 -0.768,0 z"
             style="fill:#000000;fill-opacity:1;fill-rule:nonzero;stroke:none"
             id="path3550" />
        </g>
        <path
           d="m 243.939,84.556 0.729,0 0,0.73 -0.729,0 0,-0.73 z"
           style="fill:#000000;fill-opacity:1;fill-rule:nonzero;stroke:none"
           id="path3552" />
        <g
           id="g3554"
           transform="translate(247.8766,85.197205)">
          <path
             d="M 0,0 -0.857,2.277 -1.687,0 0,0 z m 1.083,-0.641 -3.819,0 1.482,3.805 0.813,0 1.524,-3.805 z"
             style="fill:#000000;fill-opacity:1;fill-rule:nonzero;stroke:none"
             id="path3556" />
        </g>
        <path
           d="m 249.432,84.556 0.768,0 0,3.805 -0.768,0 0,-3.805 z"
           style="fill:#000000;fill-opacity:1;fill-rule:nonzero;stroke:none"
           id="path3558" />
        <g
           id="g3560"
           transform="translate(251.0511,88.361496)">
          <path
             d="m 0,0 2.679,0 0,-0.646 -1.911,0 0,-3.159 L 0,-3.805 0,0 z"
             style="fill:#000000;fill-opacity:1;fill-rule:nonzero;stroke:none"
             id="path3562" />
        </g>
        <g
           id="g3564"
           transform="translate(254.3398,84.556)">
          <path
             d="m 0,0 0,3.805 2.822,0 0,-0.643 -2.054,0 0,-0.844 1.911,0 0,-0.641 -1.911,0 0,-1.036 2.126,0 L 2.894,0 0,0 z"
             style="fill:#000000;fill-opacity:1;fill-rule:nonzero;stroke:none"
             id="path3566" />
        </g>
        <g
           id="g3568"
           transform="translate(257.9998,84.556)">
          <path
             d="m 0,0 0,3.805 0.748,0 1.557,-2.541 0,2.541 0.714,0 L 3.019,0 2.248,0 0.714,2.482 0.714,0 0,0 z"
             style="fill:#000000;fill-opacity:1;fill-rule:nonzero;stroke:none"
             id="path3570" />
        </g>
        <g
           id="g3572"
           transform="translate(261.9398,84.556)">
          <path
             d="m 0,0 0,3.805 0.768,0 0,-1.498 1.506,0 0,1.498 0.768,0 0,-3.805 -0.768,0 0,1.664 -1.506,0 L 0.768,0 0,0 z"
             style="fill:#000000;fill-opacity:1;fill-rule:nonzero;stroke:none"
             id="path3574" />
        </g>
        <g
           id="g3576"
           transform="translate(246.1778,78.633499)">
          <path
             d="m 0,0 0,-0.704 -2.656,0 c 0.029,0.266 0.115,0.519 0.259,0.756 0.144,0.239 0.428,0.555 0.852,0.948 0.342,0.318 0.551,0.534 0.628,0.647 0.104,0.157 0.157,0.312 0.157,0.464 0,0.169 -0.046,0.299 -0.137,0.39 -0.09,0.091 -0.216,0.136 -0.376,0.136 C -1.431,2.637 -1.557,2.59 -1.65,2.494 -1.744,2.399 -1.798,2.241 -1.812,2.02 l -0.755,0.075 c 0.045,0.417 0.186,0.716 0.424,0.898 0.237,0.182 0.533,0.272 0.889,0.272 0.39,0 0.697,-0.105 0.92,-0.315 C -0.112,2.739 0,2.478 0,2.165 0,1.987 -0.032,1.818 -0.096,1.657 -0.159,1.496 -0.261,1.328 -0.399,1.151 -0.491,1.034 -0.656,0.867 -0.895,0.647 -1.134,0.428 -1.286,0.282 -1.35,0.21 L -1.504,0 0,0 z"
             style="fill:#000000;fill-opacity:1;fill-rule:nonzero;stroke:none"
             id="path3578" />
        </g>
        <g
           id="g3580"
           transform="translate(247.6498,79.261795)">
          <path
             d="m 0,0 c 0,-0.247 0.057,-0.436 0.17,-0.57 0.113,-0.134 0.242,-0.201 0.388,-0.201 0.14,0 0.257,0.055 0.351,0.164 0.093,0.11 0.14,0.29 0.14,0.54 0,0.257 -0.051,0.445 -0.151,0.564 C 0.797,0.617 0.671,0.677 0.52,0.677 0.375,0.677 0.252,0.62 0.151,0.506 0.05,0.391 0,0.223 0,0 M 1.717,1.653 0.984,1.572 C 0.966,1.723 0.919,1.834 0.844,1.906 0.768,1.978 0.67,2.014 0.55,2.014 0.39,2.014 0.255,1.942 0.144,1.798 0.034,1.654 -0.036,1.355 -0.065,0.9 0.124,1.123 0.359,1.235 0.639,1.235 0.955,1.235 1.226,1.115 1.452,0.874 1.677,0.632 1.79,0.322 1.79,-0.059 1.79,-0.464 1.672,-0.788 1.434,-1.033 1.197,-1.277 0.892,-1.399 0.52,-1.399 c -0.399,0 -0.727,0.154 -0.984,0.465 -0.257,0.31 -0.385,0.818 -0.385,1.524 0,0.725 0.133,1.247 0.401,1.567 0.268,0.32 0.616,0.48 1.044,0.48 0.3,0 0.548,-0.084 0.745,-0.252 C 1.538,2.217 1.663,1.973 1.717,1.653"
             style="fill:#000000;fill-opacity:1;fill-rule:nonzero;stroke:none"
             id="path3582" />
        </g>
        <g
           id="g3584"
           transform="translate(250.12469,78.6875)">
          <path
             d="m 0,0 0.758,0 0,-0.542 C 0.758,-0.761 0.739,-0.935 0.701,-1.061 0.663,-1.188 0.592,-1.301 0.487,-1.402 0.382,-1.503 0.248,-1.582 0.086,-1.639 l -0.148,0.312 c 0.153,0.051 0.262,0.12 0.326,0.208 0.065,0.088 0.099,0.209 0.103,0.361 L 0,-0.758 0,0 z"
             style="fill:#000000;fill-opacity:1;fill-rule:nonzero;stroke:none"
             id="path3586" />
        </g>
        <g
           id="g3588"
           transform="translate(255.8298,78.633499)">
          <path
             d="m 0,0 0,-0.704 -2.656,0 c 0.029,0.266 0.115,0.519 0.259,0.756 0.144,0.239 0.428,0.555 0.852,0.948 0.342,0.318 0.551,0.534 0.628,0.647 0.104,0.157 0.157,0.312 0.157,0.464 0,0.169 -0.046,0.299 -0.136,0.39 C -0.987,2.592 -1.113,2.637 -1.273,2.637 -1.431,2.637 -1.557,2.59 -1.65,2.494 -1.743,2.399 -1.797,2.241 -1.812,2.02 l -0.755,0.075 c 0.045,0.417 0.186,0.716 0.424,0.898 0.237,0.182 0.533,0.272 0.889,0.272 0.39,0 0.697,-0.105 0.92,-0.315 C -0.111,2.739 0,2.478 0,2.165 0,1.987 -0.032,1.818 -0.096,1.657 -0.159,1.496 -0.261,1.328 -0.399,1.151 -0.491,1.034 -0.656,0.867 -0.895,0.647 -1.134,0.428 -1.286,0.282 -1.349,0.21 L -1.504,0 0,0 z"
             style="fill:#000000;fill-opacity:1;fill-rule:nonzero;stroke:none"
             id="path3590" />
        </g>
        <g
           id="g3592"
           transform="translate(256.4525,81.124893)">
          <path
             d="m 0,0 0,0.704 2.591,0 0,-0.55 C 2.377,-0.057 2.16,-0.359 1.939,-0.752 1.718,-1.146 1.549,-1.564 1.433,-2.008 1.317,-2.45 1.26,-2.846 1.262,-3.195 l -0.731,0 c 0.013,0.546 0.126,1.104 0.338,1.672 C 1.083,-0.956 1.367,-0.448 1.723,0 L 0,0 z"
             style="fill:#000000;fill-opacity:1;fill-rule:nonzero;stroke:none"
             id="path3594" />
        </g>
        <g
           id="g3596"
           transform="translate(239.5603,73.5905)">
          <path
             d="m 0,0 2.635,0 0,-0.644 -1.688,0 0.984,-1.173 -1.085,-1.347 1.869,0 0,-0.641 -2.764,0 0,0.711 1.02,1.277 L 0,-0.685 0,0 z"
             style="fill:#000000;fill-opacity:1;fill-rule:nonzero;stroke:none"
             id="path3598" />
        </g>
        <g
           id="g3600"
           transform="translate(242.5739,69.785004)">
          <path
             d="m 0,0 1.3,1.986 -1.178,1.819 0.898,0 0.763,-1.222 0.748,1.222 0.89,0 L 2.237,1.957 3.538,0 2.611,0 1.768,1.316 0.921,0 0,0 z"
             style="fill:#000000;fill-opacity:1;fill-rule:nonzero;stroke:none"
             id="path3602" />
        </g>
        <g
           id="g3604"
           transform="translate(247.2486,71.690201)">
          <path
             d="m 0,0 c 0,-0.431 0.099,-0.758 0.299,-0.98 0.199,-0.222 0.451,-0.333 0.757,-0.333 0.307,0 0.558,0.11 0.754,0.331 0.197,0.22 0.295,0.551 0.295,0.992 0,0.437 -0.096,0.762 -0.287,0.976 C 1.627,1.201 1.373,1.308 1.056,1.308 0.74,1.308 0.484,1.2 0.291,0.983 0.097,0.765 0,0.438 0,0 m -0.792,-0.026 c 0,0.388 0.058,0.713 0.174,0.976 0.087,0.194 0.205,0.368 0.355,0.522 0.149,0.154 0.313,0.268 0.491,0.343 0.237,0.1 0.511,0.15 0.821,0.15 0.56,0 1.009,-0.174 1.346,-0.521 C 2.731,1.096 2.9,0.612 2.9,-0.008 2.9,-0.622 2.732,-1.103 2.399,-1.449 2.064,-1.797 1.618,-1.97 1.059,-1.97 c -0.566,0 -1.016,0.173 -1.35,0.518 -0.334,0.345 -0.501,0.821 -0.501,1.426"
             style="fill:#000000;fill-opacity:1;fill-rule:nonzero;stroke:none"
             id="path3606" />
        </g>
        <g
           id="g3608"
           transform="translate(252.5074,73.5905)">
          <path
             d="m 0,0 1.36,-3.805 -0.833,0 -0.963,2.813 -0.932,-2.813 -0.815,0 L -0.82,0 0,0 z"
             style="fill:#000000;fill-opacity:1;fill-rule:nonzero;stroke:none"
             id="path3610" />
        </g>
        <path
           d="m 254.34,69.786 0.768,0 0,3.805 -0.768,0 0,-3.805 z"
           style="fill:#000000;fill-opacity:1;fill-rule:nonzero;stroke:none"
           id="path3612" />
        <g
           id="g3614"
           transform="translate(255.957,69.785004)">
          <path
             d="m 0,0 0,3.805 0.768,0 0,-1.689 1.553,1.689 1.033,0 L 1.921,2.323 3.432,0 2.437,0 1.391,1.786 0.768,1.15 0.768,0 0,0 z"
             style="fill:#000000;fill-opacity:1;fill-rule:nonzero;stroke:none"
             id="path3616" />
        </g>
        <g
           id="g3618"
           transform="translate(260.2838,71.690201)">
          <path
             d="m 0,0 c 0,-0.431 0.099,-0.758 0.299,-0.98 0.199,-0.222 0.451,-0.333 0.758,-0.333 0.306,0 0.557,0.11 0.754,0.331 0.196,0.22 0.294,0.551 0.294,0.992 0,0.437 -0.096,0.762 -0.287,0.976 C 1.627,1.201 1.373,1.308 1.057,1.308 0.74,1.308 0.484,1.2 0.291,0.983 0.097,0.765 0,0.438 0,0 m -0.792,-0.026 c 0,0.388 0.058,0.713 0.174,0.976 0.087,0.194 0.205,0.368 0.355,0.522 0.149,0.154 0.313,0.268 0.491,0.343 0.237,0.1 0.511,0.15 0.821,0.15 0.56,0 1.009,-0.174 1.346,-0.521 C 2.731,1.096 2.9,0.612 2.9,-0.008 2.9,-0.622 2.733,-1.103 2.399,-1.449 2.064,-1.797 1.618,-1.97 1.059,-1.97 c -0.566,0 -1.016,0.173 -1.35,0.518 -0.334,0.345 -0.501,0.821 -0.501,1.426"
             style="fill:#000000;fill-opacity:1;fill-rule:nonzero;stroke:none"
             id="path3620" />
        </g>
        <g
           id="g3622"
           transform="translate(245.43089,63.824905)">
          <path
             d="M 0,0 -0.89,2.365 -1.753,0 0,0 z m 1.124,-0.666 -3.966,0 1.54,3.953 0.844,0 1.582,-3.953 z"
             style="fill:#000000;fill-opacity:1;fill-rule:nonzero;stroke:none"
             id="path3624" />
        </g>
        <g
           id="g3626"
           transform="translate(248.8416,63.158798)">
          <path
             d="m 0,0 -0.758,0 0,2.855 C -1.034,2.596 -1.361,2.405 -1.736,2.281 l 0,0.688 c 0.197,0.064 0.412,0.187 0.644,0.368 0.232,0.18 0.391,0.391 0.477,0.632 L 0,3.969 0,0 z"
             style="fill:#000000;fill-opacity:1;fill-rule:nonzero;stroke:none"
             id="path3628" />
        </g>
        <g
           id="g3630"
           transform="translate(250.2272,63.916504)">
          <path
             d="m 0,0 0.758,0 0,-0.542 C 0.758,-0.761 0.739,-0.935 0.701,-1.061 0.663,-1.188 0.592,-1.301 0.487,-1.402 0.382,-1.503 0.248,-1.582 0.086,-1.639 l -0.148,0.312 c 0.153,0.051 0.262,0.12 0.326,0.208 0.065,0.088 0.099,0.209 0.103,0.361 L 0,-0.758 0,0 z"
             style="fill:#000000;fill-opacity:1;fill-rule:nonzero;stroke:none"
             id="path3632" />
        </g>
        <g
           id="g3634"
           transform="translate(255.77589,63.824905)">
          <path
             d="M 0,0 -0.89,2.365 -1.753,0 0,0 z m 1.124,-0.666 -3.966,0 1.54,3.953 0.844,0 1.582,-3.953 z"
             style="fill:#000000;fill-opacity:1;fill-rule:nonzero;stroke:none"
             id="path3636" />
        </g>
        <g
           id="g3638"
           transform="translate(259.80659,63.862503)">
          <path
             d="m 0,0 0,-0.704 -2.656,0 c 0.029,0.266 0.115,0.519 0.259,0.756 0.144,0.239 0.428,0.555 0.852,0.948 0.342,0.319 0.551,0.534 0.628,0.647 0.105,0.157 0.157,0.312 0.157,0.464 0,0.169 -0.046,0.299 -0.137,0.39 -0.09,0.091 -0.216,0.136 -0.376,0.136 C -1.431,2.637 -1.557,2.59 -1.65,2.494 -1.743,2.399 -1.797,2.241 -1.812,2.02 l -0.755,0.075 c 0.045,0.417 0.186,0.716 0.424,0.898 0.237,0.182 0.533,0.272 0.889,0.272 0.39,0 0.697,-0.105 0.92,-0.315 C -0.112,2.739 0,2.478 0,2.165 0,1.987 -0.032,1.818 -0.096,1.657 -0.159,1.496 -0.261,1.328 -0.399,1.151 -0.491,1.034 -0.656,0.867 -0.895,0.647 -1.134,0.428 -1.286,0.282 -1.349,0.21 L -1.504,0 0,0 z"
             style="fill:#000000;fill-opacity:1;fill-rule:nonzero;stroke:none"
             id="path3640" />
        </g>
        <g
           id="g3642"
           transform="translate(242.40491,106.82899)">
          <path
             d="M 0,0 C 1.141,0 2.069,0.927 2.069,2.069 2.069,3.212 1.141,4.138 0,4.138 -1.144,4.138 -2.07,3.212 -2.07,2.069 -2.07,0.927 -1.144,0 0,0"
             style="fill:#000000;fill-opacity:1;fill-rule:evenodd;stroke:none"
             id="path3644" />
        </g>
        <g
           id="g3646"
           transform="translate(260.0291,106.82899)">
          <path
             d="M 0,0 C 1.143,0 2.07,0.927 2.07,2.069 2.07,3.212 1.143,4.138 0,4.138 -1.143,4.138 -2.068,3.212 -2.068,2.069 -2.068,0.927 -1.143,0 0,0"
             style="fill:#000000;fill-opacity:1;fill-rule:evenodd;stroke:none"
             id="path3648" />
        </g>
        <g
           id="g3650"
           transform="translate(235.90601,112.5244)">
          <path
             d="m 0,0 31.916,0 0,-2.7 -5.202,-1.102 0.005,0.176 c 0,1.433 -1.161,2.596 -2.596,2.596 -1.433,0 -2.595,-1.163 -2.595,-2.596 l 0.006,-0.176 -12.447,0 0.008,0.176 c 0,1.433 -1.164,2.596 -2.596,2.596 -1.434,0 -2.595,-1.163 -2.595,-2.596 L 3.908,-3.802 0,-3.802 0,0 z"
             style="fill:#000000;fill-opacity:1;fill-rule:evenodd;stroke:none"
             id="path3652" />
        </g>
        <g
           id="g3654"
           transform="translate(262.2357,117.4521)">
          <path
             d="M 0,0 4.678,0 4.966,0 5,-0.274 l 0.49,-3.829 0.045,-0.35 -0.368,0 -5.167,0 -0.324,0 -0.324,0 -4.844,0 -0.324,0 -0.324,0 -4.844,0 -0.322,0 -0.326,0 -4.842,0 -0.325,0 -0.325,0 -4.843,0 -0.322,0 -0.325,0 -3.332,0 -0.372,0 0.051,0.355 0.566,3.83 0.039,0.268 0.28,0 2.768,0 0.325,0 0.322,0 4.843,0 0.325,0 0.325,0 4.842,0 0.326,0 0.322,0 4.844,0 0.324,0 0.324,0 4.844,0 0.324,0 L 0,0 z"
             style="fill:#000000;fill-opacity:1;fill-rule:evenodd;stroke:none"
             id="path3656" />
        </g>
        <g
           id="g3658"
           transform="translate(260.0291,108.2218)">
          <path
             d="M 0,0 C 0.374,0 0.677,0.302 0.677,0.676 0.677,1.05 0.374,1.354 0,1.354 -0.373,1.354 -0.677,1.05 -0.677,0.676 -0.677,0.302 -0.373,0 0,0 m -17.624,0 c 0.373,0 0.677,0.302 0.677,0.676 0,0.374 -0.304,0.678 -0.677,0.678 -0.375,0 -0.678,-0.304 -0.678,-0.678 0,-0.374 0.303,-0.676 0.678,-0.676 z m 24.222,8.606 -4.391,0 0,-3.205 4.8,0 -0.409,3.205 z m -5.039,0 -4.844,0 0,-3.205 4.844,0 0,3.205 z m -5.493,0 -4.844,0 0,-3.205 4.844,0 0,3.205 z m -5.491,0 -4.842,0 0,-3.205 4.842,0 0,3.205 z m -5.492,0 -4.844,0 0,-3.205 4.844,0 0,3.205 z m -5.49,0 -2.487,0 -0.471,-3.205 2.958,0 0,3.205 z"
             style="fill:#ffffff;fill-opacity:1;fill-rule:evenodd;stroke:none"
             id="path3660" />
        </g>
        <g
           id="g3662"
           transform="translate(236.8642,109.09061)">
          <path
             d="m 0,0 c 0,-0.203 -0.165,-0.368 -0.368,-0.368 l -0.724,0 c -0.203,0 -0.368,0.165 -0.368,0.368 l 0,3.066 c 0,0.203 0.165,0.368 0.368,0.368 l 0.724,0 C -0.165,3.434 0,3.269 0,3.066 L 0,0 z"
             style="fill:#000000;fill-opacity:1;fill-rule:evenodd;stroke:none"
             id="path3664" />
        </g>
        <g
           id="g3666"
           transform="translate(235.9173,112.99899)">
          <path
             d="m 0,0 -0.134,-0.66 4.027,-0.198 0,4.956 -2.703,0 L 0,0 z"
             style="fill:#000000;fill-opacity:1;fill-rule:evenodd;stroke:none"
             id="path3668" />
        </g>
        <g
           id="g3670"
           transform="translate(239.02769,109.87309)">
          <path
             d="m 0,0 c 0,-0.221 -0.203,-0.4 -0.452,-0.4 l -0.908,0 c -0.25,0 -0.452,0.179 -0.452,0.4 l 0,6.553 c 0,0.222 0.202,0.401 0.452,0.401 l 0.908,0 C -0.203,6.954 0,6.775 0,6.553 L 0,0 z"
             style="fill:#ffffff;fill-opacity:1;fill-rule:evenodd;stroke:none"
             id="path3672" />
        </g>
        <g
           id="g3674"
           transform="translate(239.67641,113.3662)">
          <path
             d="M 0,0 -0.109,-1.027 28.146,-1.226 28.094,-0.367 0,0 z"
             style="fill:#000000;fill-opacity:1;fill-rule:evenodd;stroke:none"
             id="path3676" />
        </g>
      </g>
    </g>
  </g>
</svg>
