<?xml version="1.0" encoding="UTF-8" standalone="no"?>
<!-- Created with Inkscape (http://www.inkscape.org/) -->

<svg
   xmlns:dc="http://purl.org/dc/elements/1.1/"
   xmlns:cc="http://creativecommons.org/ns#"
   xmlns:rdf="http://www.w3.org/1999/02/22-rdf-syntax-ns#"
   xmlns:svg="http://www.w3.org/2000/svg"
   xmlns="http://www.w3.org/2000/svg"
   xmlns:sodipodi="http://sodipodi.sourceforge.net/DTD/sodipodi-0.dtd"
   xmlns:inkscape="http://www.inkscape.org/namespaces/inkscape"
   width="76.169998"
   height="146.96138"
   id="svg6419"
   version="1.1"
   inkscape:version="0.47 r22583"
   sodipodi:docname="Cyprus road sign taxi parking.svg">
  <defs
     id="defs6421">
    <inkscape:perspective
       sodipodi:type="inkscape:persp3d"
       inkscape:vp_x="0 : 526.18109 : 1"
       inkscape:vp_y="0 : 1000 : 0"
       inkscape:vp_z="744.09448 : 526.18109 : 1"
       inkscape:persp3d-origin="372.04724 : 350.78739 : 1"
       id="perspective6427" />
    <inkscape:perspective
       id="perspective6455"
       inkscape:persp3d-origin="300 : 200 : 1"
       inkscape:vp_z="600 : 300 : 1"
       inkscape:vp_y="0 : 1000 : 0"
       inkscape:vp_x="0 : 300 : 1"
       sodipodi:type="inkscape:persp3d" />
    <clipPath
       id="clipPath20">
      <path
         d="m 0.014999,205.28 205.270001,0 0,-205.28 -205.270001,0 0,205.28 z"
         id="path9" />
    </clipPath>
    <inkscape:perspective
       id="perspective6487"
       inkscape:persp3d-origin="0.5 : 0.33333333 : 1"
       inkscape:vp_z="1 : 0.5 : 1"
       inkscape:vp_y="0 : 1000 : 0"
       inkscape:vp_x="0 : 0.5 : 1"
       sodipodi:type="inkscape:persp3d" />
    <clipPath
       clipPathUnits="userSpaceOnUse"
       id="clipPath5883">
      <path
         d="m 233.519,209.338 34.845,0 0,34.016 -34.845,0 0,-34.016 z"
         id="path5885" />
    </clipPath>
    <inkscape:perspective
       id="perspective7191"
       inkscape:persp3d-origin="0.5 : 0.33333333 : 1"
       inkscape:vp_z="1 : 0.5 : 1"
       inkscape:vp_y="0 : 1000 : 0"
       inkscape:vp_x="0 : 0.5 : 1"
       sodipodi:type="inkscape:persp3d" />
    <clipPath
       clipPathUnits="userSpaceOnUse"
       id="clipPath6115">
      <path
         d="m 112.397,129.449 34.845,0 0,34.016 -34.845,0 0,-34.016 z"
         id="path6117" />
    </clipPath>
    <inkscape:perspective
       id="perspective7283"
       inkscape:persp3d-origin="0.5 : 0.33333333 : 1"
       inkscape:vp_z="1 : 0.5 : 1"
       inkscape:vp_y="0 : 1000 : 0"
       inkscape:vp_x="0 : 0.5 : 1"
       sodipodi:type="inkscape:persp3d" />
    <clipPath
       clipPathUnits="userSpaceOnUse"
       id="clipPath5487">
      <path
         d="m 52.071,490.394 34.845,0 0,34.016 -34.845,0 0,-34.016 z"
         id="path5489" />
    </clipPath>
    <inkscape:perspective
       id="perspective7383"
       inkscape:persp3d-origin="0.5 : 0.33333333 : 1"
       inkscape:vp_z="1 : 0.5 : 1"
       inkscape:vp_y="0 : 1000 : 0"
       inkscape:vp_x="0 : 0.5 : 1"
       sodipodi:type="inkscape:persp3d" />
    <clipPath
       clipPathUnits="userSpaceOnUse"
       id="clipPath5335">
      <path
         d="m 51.732,129.449 34.845,0 0,34.016 -34.845,0 0,-34.016 z"
         id="path5337" />
    </clipPath>
    <inkscape:perspective
       id="perspective7487"
       inkscape:persp3d-origin="0.5 : 0.33333333 : 1"
       inkscape:vp_z="1 : 0.5 : 1"
       inkscape:vp_y="0 : 1000 : 0"
       inkscape:vp_x="0 : 0.5 : 1"
       sodipodi:type="inkscape:persp3d" />
    <clipPath
       clipPathUnits="userSpaceOnUse"
       id="clipPath6159">
      <path
         d="m 234.152,129.449 34.845,0 0,34.016 -34.845,0 0,-34.016 z"
         id="path6161" />
    </clipPath>
    <inkscape:perspective
       id="perspective7591"
       inkscape:persp3d-origin="0.5 : 0.33333333 : 1"
       inkscape:vp_z="1 : 0.5 : 1"
       inkscape:vp_y="0 : 1000 : 0"
       inkscape:vp_x="0 : 0.5 : 1"
       sodipodi:type="inkscape:persp3d" />
    <clipPath
       clipPathUnits="userSpaceOnUse"
       id="clipPath6391">
      <path
         d="m 138.483,43.228 34.845,0 0,34.016 -34.845,0 0,-34.016 z"
         id="path6393" />
    </clipPath>
    <inkscape:perspective
       id="perspective7668"
       inkscape:persp3d-origin="0.5 : 0.33333333 : 1"
       inkscape:vp_z="1 : 0.5 : 1"
       inkscape:vp_y="0 : 1000 : 0"
       inkscape:vp_x="0 : 0.5 : 1"
       sodipodi:type="inkscape:persp3d" />
    <inkscape:perspective
       id="perspective7699"
       inkscape:persp3d-origin="0.5 : 0.33333333 : 1"
       inkscape:vp_z="1 : 0.5 : 1"
       inkscape:vp_y="0 : 1000 : 0"
       inkscape:vp_x="0 : 0.5 : 1"
       sodipodi:type="inkscape:persp3d" />
    <clipPath
       clipPathUnits="userSpaceOnUse"
       id="clipPath6143">
      <path
         d="M 0,0 311,0 311,595 0,595 0,0 z"
         id="path6145" />
    </clipPath>
    <inkscape:perspective
       id="perspective7742"
       inkscape:persp3d-origin="0.5 : 0.33333333 : 1"
       inkscape:vp_z="1 : 0.5 : 1"
       inkscape:vp_y="0 : 1000 : 0"
       inkscape:vp_x="0 : 0.5 : 1"
       sodipodi:type="inkscape:persp3d" />
    <clipPath
       clipPathUnits="userSpaceOnUse"
       id="clipPath6335">
      <path
         d="m 234.901,294.331 34.845,0 0,58.11 -34.845,0 0,-58.11 z"
         id="path6337" />
    </clipPath>
    <inkscape:perspective
       id="perspective9466"
       inkscape:persp3d-origin="0.5 : 0.33333333 : 1"
       inkscape:vp_z="1 : 0.5 : 1"
       inkscape:vp_y="0 : 1000 : 0"
       inkscape:vp_x="0 : 0.5 : 1"
       sodipodi:type="inkscape:persp3d" />
    <clipPath
       clipPathUnits="userSpaceOnUse"
       id="clipPath8409">
      <path
         d="m 32.598,401.177 76.28,0 0,121.107 -76.28,0 0,-121.107 z"
         id="path8411" />
    </clipPath>
  </defs>
  <sodipodi:namedview
     id="base"
     pagecolor="#ffffff"
     bordercolor="#666666"
     borderopacity="1.0"
     inkscape:pageopacity="0.0"
     inkscape:pageshadow="2"
     inkscape:zoom="0.59068275"
     inkscape:cx="-169.57286"
     inkscape:cy="-0.93682996"
     inkscape:document-units="px"
     inkscape:current-layer="layer1"
     showgrid="false"
     inkscape:window-width="1600"
     inkscape:window-height="838"
     inkscape:window-x="-8"
     inkscape:window-y="-8"
     inkscape:window-maximized="1" />
  <metadata
     id="metadata6424">
    <rdf:RDF>
      <cc:Work
         rdf:about="">
        <dc:format>image/svg+xml</dc:format>
        <dc:type
           rdf:resource="http://purl.org/dc/dcmitype/StillImage" />
        <dc:title></dc:title>
      </cc:Work>
    </rdf:RDF>
  </metadata>
  <g
     inkscape:label="Livello 1"
     inkscape:groupmode="layer"
     id="layer1"
     transform="translate(-135.68372,-390.5116)">
    <g
       id="g8385"
       transform="matrix(1.25,0,0,-1.25,178.03984,510.05498)">
      <path
         d="m 0,0 -6.052,0.065 0,17.359 L 0,17.387 0,0 z"
         style="fill:#ffffff;fill-opacity:1;fill-rule:nonzero;stroke:none"
         id="path8387" />
    </g>
    <g
       id="g8389"
       transform="matrix(1.25,0,0,-1.25,178.03984,510.05498)">
      <path
         d="m 0,0 -6.052,0.065 0,17.359 L 0,17.387 0,0 z"
         style="fill:none;stroke:#000000;stroke-width:1.09800005;stroke-linecap:butt;stroke-linejoin:miter;stroke-miterlimit:4;stroke-opacity:1;stroke-dasharray:none"
         id="path8391" />
    </g>
    <g
       id="g8393"
       transform="matrix(1.25,0,0,-1.25,211.16747,492.36285)">
      <path
         d="m 0,0 -59.838,0.405 0,80.515 L 0,80.932 0,0 z"
         style="fill:#ffdb00;fill-opacity:1;fill-rule:nonzero;stroke:none"
         id="path8395" />
    </g>
    <g
       id="g8397"
       transform="matrix(1.25,0,0,-1.25,211.16747,492.36285)">
      <path
         d="m 0,0 -59.838,0.405 0,80.515 L 0,80.932 0,0 z"
         style="fill:none;stroke:#ed1d24;stroke-width:1.09800005;stroke-linecap:butt;stroke-linejoin:miter;stroke-miterlimit:4;stroke-opacity:1;stroke-dasharray:none"
         id="path8399" />
    </g>
    <g
       id="g8401"
       transform="matrix(1.25,0,0,-1.25,165.26659,436.50772)">
      <path
         d="M 0,0 -8.394,0 7.135,27.184 22.918,0 0,0 z"
         style="fill:#ffffff;fill-opacity:1;fill-rule:evenodd;stroke:none"
         id="path8403" />
    </g>
    <g
       transform="matrix(1.25,0,0,-1.25,85.439129,1040.5081)"
       id="g8405">
      <g
         id="g8407"
         clip-path="url(#clipPath8409)">
        <g
           id="g8413"
           transform="translate(57.162506,484.3439)">
          <path
             d="M 0,0 27.774,0 13.892,24.031 0,0 z m 29.136,-3.104 c 0.826,0 1.586,0.444 2,1.163 0.423,0.719 0.423,1.606 0,2.325 l -15.232,26.37 c -0.416,0.717 -1.181,1.159 -2.012,1.159 -0.832,0 -1.6,-0.445 -2.015,-1.166 L -3.359,0.384 c -0.414,-0.719 -0.414,-1.606 0,-2.325 0.413,-0.719 1.192,-1.163 2.019,-1.163 l 30.476,0 z"
             style="fill:#ed1d24;fill-opacity:1;fill-rule:evenodd;stroke:none"
             id="path8415" />
        </g>
        <g
           id="g8417"
           transform="translate(81.350494,487.1705)">
          <path
             d="m 0,0 0,-1.556 -20.7,0 0,1.556 2.975,0 0.007,0 c 0.529,0 1.034,0.201 1.417,0.559 l 0.013,-0.014 c 1.622,1.481 3.739,2.304 5.934,2.304 2.168,0 4.262,-0.804 5.877,-2.253 l 0.002,0.005 C -4.094,0.222 -3.582,0.006 -3.045,0 L 0,0 z"
             style="fill:#000000;fill-opacity:1;fill-rule:evenodd;stroke:none"
             id="path8419" />
        </g>
        <g
           id="g8421"
           transform="translate(95.003403,442.61079)">
          <path
             d="m 0,0 -47.899,0.282 0,29.082 L 0,29.459 0,0 z"
             style="fill:#ed1d24;fill-opacity:1;fill-rule:nonzero;stroke:none"
             id="path8423" />
        </g>
        <g
           id="g8425"
           transform="translate(95.003403,442.61079)">
          <path
             d="m 0,0 -47.899,0.282 0,29.082 L 0,29.459 0,0 z"
             style="fill:none;stroke:#bcbec0;stroke-width:1.64600003;stroke-linecap:butt;stroke-linejoin:miter;stroke-miterlimit:4;stroke-opacity:1;stroke-dasharray:none"
             id="path8427" />
        </g>
        <g
           id="g8429"
           transform="translate(55.162399,464.50481)">
          <path
             d="m 0,0 0,3.772 0.762,0 0,-1.675 1.538,1.675 1.024,0 L 1.904,2.303 3.401,0 2.416,0 1.38,1.77 0.762,1.139 0.762,0 0,0 z"
             style="fill:#dadbdc;fill-opacity:1;fill-rule:nonzero;stroke:none"
             id="path8431" />
        </g>
        <g
           id="g8433"
           transform="translate(59.948395,464.50481)">
          <path
             d="m 0,0 0,1.588 -1.382,2.184 0.893,0 0.888,-1.493 0.869,1.493 0.877,0 L 0.759,1.582 0.759,0 0,0 z"
             style="fill:#dadbdc;fill-opacity:1;fill-rule:nonzero;stroke:none"
             id="path8435" />
        </g>
        <g
           id="g8437"
           transform="translate(63.232803,467.638)">
          <path
             d="m 0,0 0,-1.07 0.417,0 c 0.3,0 0.5,0.02 0.601,0.059 0.102,0.04 0.182,0.102 0.238,0.186 0.058,0.083 0.087,0.181 0.087,0.293 0,0.137 -0.041,0.25 -0.121,0.339 -0.08,0.09 -0.182,0.145 -0.307,0.167 C 0.825,-0.009 0.642,0 0.368,0 L 0,0 z m -0.761,-3.133 0,3.771 1.222,0 C 0.924,0.638 1.225,0.62 1.366,0.582 1.582,0.525 1.763,0.402 1.909,0.212 2.055,0.023 2.128,-0.222 2.128,-0.522 2.128,-0.753 2.086,-0.948 2.001,-1.106 1.918,-1.264 1.81,-1.388 1.681,-1.478 1.552,-1.568 1.42,-1.627 1.286,-1.657 1.104,-1.693 0.841,-1.711 0.496,-1.711 l -0.496,0 0,-1.422 -0.761,0 z"
             style="fill:#dadbdc;fill-opacity:1;fill-rule:nonzero;stroke:none"
             id="path8439" />
        </g>
        <g
           id="g8441"
           transform="translate(66.834396,464.50481)">
          <path
             d="m 0,0 0,3.133 -1.119,0 0,0.639 2.997,0 0,-0.639 -1.117,0 L 0.761,0 0,0 z"
             style="fill:#dadbdc;fill-opacity:1;fill-rule:nonzero;stroke:none"
             id="path8443" />
        </g>
        <g
           id="g8445"
           transform="translate(68.976105,464.50481)">
          <path
             d="m 0,0 0,0.636 0.731,0 C 0.283,1.105 0.059,1.611 0.059,2.153 0.059,2.627 0.22,3.026 0.54,3.35 0.861,3.673 1.301,3.836 1.86,3.836 2.414,3.836 2.852,3.675 3.175,3.352 3.498,3.03 3.658,2.63 3.658,2.153 3.658,1.611 3.434,1.105 2.987,0.636 l 0.734,0 0,-0.636 -1.727,0 0,0.607 C 2.284,0.715 2.503,0.89 2.651,1.132 2.8,1.374 2.874,1.652 2.874,1.968 2.874,2.292 2.788,2.576 2.618,2.82 2.447,3.063 2.194,3.185 1.86,3.185 1.527,3.185 1.276,3.064 1.104,2.822 0.933,2.58 0.847,2.295 0.847,1.968 0.847,1.651 0.921,1.371 1.069,1.131 1.218,0.89 1.436,0.715 1.727,0.607 L 1.727,0 0,0 z"
             style="fill:#dadbdc;fill-opacity:1;fill-rule:nonzero;stroke:none"
             id="path8447" />
        </g>
        <g
           id="g8449"
           transform="translate(73.321701,464.50481)">
          <path
             d="m 0,0 0,3.772 1.139,0 0.685,-2.573 0.677,2.573 1.141,0 0,-3.772 -0.707,0 0,2.969 L 2.187,0 1.454,0 0.707,2.969 0.707,0 0,0 z"
             style="fill:#dadbdc;fill-opacity:1;fill-rule:nonzero;stroke:none"
             id="path8451" />
        </g>
        <g
           id="g8453"
           transform="translate(79.718903,465.99699)">
          <path
             d="M 0,0 -0.519,1.399 -1.029,0 0,0 z m 1.402,-1.492 -0.827,0 -0.331,0.856 -1.507,0 -0.311,-0.856 -0.808,0 1.469,3.771 0.806,0 1.509,-3.771 z"
             style="fill:#dadbdc;fill-opacity:1;fill-rule:nonzero;stroke:none"
             id="path8455" />
        </g>
        <g
           id="g8457"
           transform="translate(81.937805,464.50481)">
          <path
             d="m 0,0 0,3.133 -1.119,0 0,0.639 2.997,0 0,-0.639 -1.117,0 L 0.761,0 0,0 z"
             style="fill:#dadbdc;fill-opacity:1;fill-rule:nonzero;stroke:none"
             id="path8459" />
        </g>
        <g
           id="g8461"
           transform="translate(85.913605,465.99699)">
          <path
             d="M 0,0 -0.519,1.399 -1.029,0 0,0 z m 1.402,-1.492 -0.828,0 -0.33,0.856 -1.507,0 -0.311,-0.856 -0.808,0 1.469,3.771 0.806,0 1.509,-3.771 z"
             style="fill:#dadbdc;fill-opacity:1;fill-rule:nonzero;stroke:none"
             id="path8463" />
        </g>
        <g
           id="g8465"
           transform="translate(50.088898,460.0714)">
          <path
             d="m 0,0 c 0,-0.428 0.099,-0.751 0.296,-0.971 0.197,-0.221 0.447,-0.331 0.75,-0.331 0.305,0 0.553,0.109 0.748,0.328 0.194,0.218 0.292,0.546 0.292,0.984 0,0.432 -0.094,0.754 -0.284,0.968 C 1.612,1.19 1.36,1.296 1.046,1.296 0.733,1.296 0.48,1.189 0.287,0.973 0.095,0.758 0,0.433 0,0 m -0.785,-0.026 c 0,0.384 0.057,0.707 0.172,0.967 0.086,0.192 0.203,0.365 0.351,0.517 0.148,0.153 0.311,0.266 0.488,0.34 0.235,0.099 0.506,0.149 0.813,0.149 0.556,0 1,-0.172 1.334,-0.517 0.334,-0.345 0.5,-0.824 0.5,-1.439 0,-0.608 -0.165,-1.084 -0.497,-1.429 -0.331,-0.344 -0.772,-0.515 -1.327,-0.515 -0.56,0 -1.006,0.171 -1.337,0.513 -0.332,0.342 -0.497,0.814 -0.497,1.414"
             style="fill:#dadbdc;fill-opacity:1;fill-rule:nonzero;stroke:none"
             id="path8467" />
        </g>
        <g
           id="g8469"
           transform="translate(55.743393,458.81841)">
          <path
             d="M 0,0 -0.849,2.256 -1.672,0 0,0 z m 1.072,-0.636 -3.784,0 1.468,3.771 0.807,0 1.509,-3.771 z"
             style="fill:#dadbdc;fill-opacity:1;fill-rule:nonzero;stroke:none"
             id="path8471" />
        </g>
        <g
           id="g8473"
           transform="translate(57.690994,460.0714)">
          <path
             d="m 0,0 c 0,-0.428 0.099,-0.751 0.296,-0.971 0.197,-0.221 0.447,-0.331 0.75,-0.331 0.305,0 0.553,0.109 0.748,0.328 0.194,0.218 0.292,0.546 0.292,0.984 0,0.432 -0.094,0.754 -0.284,0.968 C 1.612,1.19 1.36,1.296 1.046,1.296 0.733,1.296 0.48,1.189 0.287,0.973 0.095,0.758 0,0.433 0,0 m -0.785,-0.026 c 0,0.384 0.057,0.707 0.172,0.967 0.086,0.192 0.203,0.365 0.351,0.517 0.148,0.153 0.311,0.266 0.488,0.34 0.235,0.099 0.506,0.149 0.813,0.149 0.556,0 1,-0.172 1.334,-0.517 0.334,-0.345 0.5,-0.824 0.5,-1.439 0,-0.608 -0.165,-1.084 -0.497,-1.429 -0.331,-0.344 -0.772,-0.515 -1.327,-0.515 -0.56,0 -1.006,0.171 -1.337,0.513 -0.332,0.342 -0.497,0.814 -0.497,1.414"
             style="fill:#dadbdc;fill-opacity:1;fill-rule:nonzero;stroke:none"
             id="path8475" />
        </g>
        <g
           id="g8477"
           transform="translate(61.055801,461.9536)">
          <path
             d="m 0,0 2.611,0 0,-0.638 -1.672,0 0.974,-1.163 -1.075,-1.334 1.853,0 0,-0.636 -2.74,0 0,0.705 1.011,1.265 L 0,-0.679 0,0 z"
             style="fill:#dadbdc;fill-opacity:1;fill-rule:nonzero;stroke:none"
             id="path8479" />
        </g>
        <g
           id="g8481"
           transform="translate(65.169693,458.18269)">
          <path
             d="m 0,0 0,3.133 -1.119,0 0,0.638 2.997,0 0,-0.638 -1.117,0 L 0.761,0 0,0 z"
             style="fill:#dadbdc;fill-opacity:1;fill-rule:nonzero;stroke:none"
             id="path8483" />
        </g>
        <g
           id="g8485"
           transform="translate(68.299805,461.3159)">
          <path
             d="m 0,0 0,-1.07 0.417,0 c 0.3,0 0.501,0.019 0.601,0.059 0.102,0.04 0.182,0.101 0.238,0.186 0.058,0.083 0.087,0.181 0.087,0.292 0,0.137 -0.041,0.251 -0.121,0.34 C 1.142,-0.104 1.04,-0.048 0.915,-0.026 0.825,-0.009 0.642,0 0.368,0 L 0,0 z m -0.761,-3.133 0,3.771 1.222,0 C 0.924,0.638 1.225,0.62 1.366,0.582 1.582,0.525 1.763,0.402 1.909,0.212 2.055,0.022 2.128,-0.222 2.128,-0.522 2.128,-0.754 2.086,-0.949 2.001,-1.106 1.918,-1.264 1.81,-1.388 1.681,-1.478 1.552,-1.568 1.42,-1.627 1.286,-1.656 1.104,-1.693 0.841,-1.711 0.496,-1.711 l -0.496,0 0,-1.422 -0.761,0 z"
             style="fill:#dadbdc;fill-opacity:1;fill-rule:nonzero;stroke:none"
             id="path8487" />
        </g>
        <g
           id="g8489"
           transform="translate(70.920593,458.18269)">
          <path
             d="m 0,0 0,0.636 0.731,0 C 0.283,1.105 0.059,1.611 0.059,2.153 0.059,2.626 0.22,3.025 0.54,3.35 0.861,3.673 1.301,3.835 1.86,3.835 2.414,3.835 2.852,3.674 3.175,3.352 3.498,3.029 3.658,2.63 3.658,2.153 3.658,1.611 3.434,1.105 2.987,0.636 l 0.734,0 0,-0.636 -1.727,0 0,0.607 C 2.284,0.715 2.503,0.89 2.651,1.132 2.8,1.374 2.874,1.653 2.874,1.968 2.874,2.292 2.788,2.576 2.618,2.819 2.447,3.064 2.194,3.185 1.86,3.185 1.527,3.185 1.276,3.064 1.104,2.822 0.933,2.58 0.847,2.296 0.847,1.968 0.847,1.651 0.921,1.372 1.069,1.131 1.218,0.89 1.436,0.715 1.727,0.607 L 1.727,0 0,0 z"
             style="fill:#dadbdc;fill-opacity:1;fill-rule:nonzero;stroke:none"
             id="path8491" />
        </g>
        <g
           id="g8493"
           transform="translate(75.266205,458.18269)">
          <path
             d="m 0,0 0,3.771 1.139,0 0.685,-2.573 0.677,2.573 1.141,0 0,-3.771 -0.707,0 0,2.969 L 2.187,0 1.454,0 0.707,2.969 0.707,0 0,0 z"
             style="fill:#dadbdc;fill-opacity:1;fill-rule:nonzero;stroke:none"
             id="path8495" />
        </g>
        <g
           id="g8497"
           transform="translate(81.663406,459.6747)">
          <path
             d="M 0,0 -0.519,1.4 -1.029,0 0,0 z m 1.402,-1.492 -0.827,0 -0.331,0.856 -1.507,0 -0.311,-0.856 -0.808,0 1.469,3.771 0.806,0 1.509,-3.771 z"
             style="fill:#dadbdc;fill-opacity:1;fill-rule:nonzero;stroke:none"
             id="path8499" />
        </g>
        <g
           id="g8501"
           transform="translate(83.882294,458.18269)">
          <path
             d="m 0,0 0,3.133 -1.119,0 0,0.638 2.997,0 0,-0.638 -1.117,0 L 0.761,0 0,0 z"
             style="fill:#dadbdc;fill-opacity:1;fill-rule:nonzero;stroke:none"
             id="path8503" />
        </g>
        <g
           id="g8505"
           transform="translate(86.786102,460.0714)">
          <path
             d="m 0,0 c 0,-0.428 0.099,-0.751 0.296,-0.971 0.197,-0.221 0.447,-0.331 0.75,-0.331 0.305,0 0.553,0.109 0.748,0.328 0.194,0.218 0.292,0.546 0.292,0.984 0,0.432 -0.094,0.754 -0.284,0.968 C 1.612,1.19 1.36,1.296 1.046,1.296 0.733,1.296 0.48,1.189 0.287,0.973 0.095,0.758 0,0.433 0,0 m -0.785,-0.026 c 0,0.384 0.057,0.707 0.172,0.967 0.086,0.192 0.204,0.365 0.351,0.517 0.148,0.153 0.311,0.266 0.488,0.34 0.235,0.099 0.506,0.149 0.813,0.149 0.556,0 1,-0.172 1.334,-0.517 0.334,-0.345 0.5,-0.824 0.5,-1.439 0,-0.608 -0.165,-1.084 -0.497,-1.429 -0.331,-0.344 -0.772,-0.515 -1.327,-0.515 -0.56,0 -1.006,0.171 -1.337,0.513 -0.332,0.342 -0.497,0.814 -0.497,1.414"
             style="fill:#dadbdc;fill-opacity:1;fill-rule:nonzero;stroke:none"
             id="path8507" />
        </g>
        <g
           id="g8509"
           transform="translate(90.150803,461.9536)">
          <path
             d="m 0,0 2.611,0 0,-0.638 -1.672,0 0.974,-1.163 -1.075,-1.334 1.853,0 0,-0.636 -2.74,0 0,0.705 1.011,1.265 L 0,-0.679 0,0 z"
             style="fill:#dadbdc;fill-opacity:1;fill-rule:nonzero;stroke:none"
             id="path8511" />
        </g>
        <g
           id="g8513"
           transform="translate(55.954498,454.0365)">
          <path
             d="m 0,0 0.564,0 c 0.365,0 0.594,0.016 0.684,0.047 l 0.214,0.159 c 0.052,0.076 0.077,0.17 0.077,0.283 0,0.127 -0.034,0.229 -0.102,0.307 C 1.37,0.875 1.273,0.924 1.15,0.944 1.089,0.953 0.904,0.957 0.595,0.957 L 0,0.957 0,0 z m -0.761,-2.176 0,3.771 1.602,0 C 1.245,1.595 1.537,1.562 1.72,1.494 1.903,1.426 2.05,1.306 2.159,1.132 2.268,0.959 2.324,0.761 2.324,0.538 2.324,0.255 2.24,0.021 2.074,-0.163 1.908,-0.347 1.659,-0.463 1.328,-0.511 1.492,-0.608 1.628,-0.713 1.735,-0.828 1.843,-0.943 1.987,-1.147 2.17,-1.441 l 0.459,-0.735 -0.91,0 -0.551,0.821 c -0.195,0.293 -0.329,0.478 -0.4,0.554 l -0.23,0.157 c -0.08,0.029 -0.208,0.043 -0.384,0.043 l -0.154,0 0,-1.575 -0.761,0 z"
             style="fill:#dadbdc;fill-opacity:1;fill-rule:nonzero;stroke:none"
             id="path8515" />
        </g>
        <g
           id="g8517"
           transform="translate(59.564697,453.226)">
          <path
             d="m 0,0 c 0,-0.27 0.064,-0.478 0.193,-0.622 0.129,-0.144 0.287,-0.216 0.476,-0.216 0.188,0 0.347,0.072 0.475,0.216 0.127,0.144 0.192,0.353 0.192,0.627 0,0.268 -0.065,0.474 -0.192,0.618 C 1.016,0.768 0.857,0.839 0.669,0.839 0.48,0.839 0.322,0.768 0.193,0.623 0.064,0.479 0,0.271 0,0 m -0.741,0.039 c 0,0.24 0.059,0.472 0.177,0.697 0.119,0.224 0.286,0.396 0.504,0.515 0.217,0.118 0.459,0.177 0.727,0.177 0.412,0 0.751,-0.134 1.016,-0.402 0.264,-0.269 0.396,-0.608 0.396,-1.017 0,-0.414 -0.133,-0.757 -0.4,-1.028 -0.267,-0.273 -0.603,-0.409 -1.008,-0.409 -0.25,0 -0.489,0.057 -0.716,0.171 -0.227,0.112 -0.4,0.278 -0.519,0.497 -0.118,0.219 -0.177,0.486 -0.177,0.799"
             style="fill:#dadbdc;fill-opacity:1;fill-rule:nonzero;stroke:none"
             id="path8519" />
        </g>
        <g
           id="g8521"
           transform="translate(63.716202,453.1725)">
          <path
             d="m 0,0 c -0.092,-0.031 -0.239,-0.068 -0.439,-0.11 -0.201,-0.043 -0.333,-0.085 -0.394,-0.127 -0.094,-0.066 -0.141,-0.151 -0.141,-0.254 0,-0.102 0.037,-0.189 0.112,-0.263 0.076,-0.074 0.172,-0.11 0.289,-0.11 0.13,0 0.255,0.043 0.373,0.129 l 0.172,0.239 C -0.01,-0.435 0,-0.317 0,-0.144 L 0,0 z m -0.967,0.586 -0.656,0.119 c 0.074,0.264 0.201,0.459 0.381,0.587 0.18,0.126 0.448,0.189 0.803,0.189 0.322,0 0.562,-0.037 0.72,-0.113 C 0.438,1.291 0.55,1.194 0.614,1.076 0.679,0.959 0.711,0.744 0.711,0.43 L 0.702,-0.414 c 0,-0.24 0.012,-0.418 0.036,-0.531 0.022,-0.114 0.066,-0.236 0.129,-0.367 l -0.715,0 -0.069,0.213 -0.026,0.085 c -0.123,-0.12 -0.255,-0.21 -0.397,-0.27 -0.14,-0.06 -0.29,-0.09 -0.45,-0.09 -0.281,0 -0.503,0.077 -0.665,0.229 -0.161,0.152 -0.243,0.345 -0.243,0.579 0,0.154 0.038,0.292 0.11,0.413 0.074,0.121 0.178,0.213 0.311,0.277 0.133,0.065 0.324,0.121 0.575,0.17 C -0.364,0.357 -0.13,0.416 0,0.471 L 0,0.542 C 0,0.682 -0.034,0.78 -0.103,0.84 -0.171,0.899 -0.301,0.928 -0.491,0.928 -0.619,0.928 -0.72,0.904 -0.792,0.853 -0.864,0.802 -0.923,0.714 -0.967,0.586"
             style="fill:#dadbdc;fill-opacity:1;fill-rule:nonzero;stroke:none"
             id="path8523" />
        </g>
        <g
           id="g8525"
           transform="translate(65.715393,453.2861)">
          <path
             d="m 0,0 c 0,-0.292 0.041,-0.503 0.121,-0.633 0.117,-0.189 0.28,-0.283 0.489,-0.283 0.166,0 0.308,0.07 0.424,0.212 0.117,0.141 0.175,0.352 0.175,0.634 0,0.314 -0.056,0.54 -0.169,0.678 C 0.926,0.746 0.781,0.815 0.605,0.815 0.433,0.815 0.289,0.747 0.174,0.611 0.058,0.474 0,0.27 0,0 m 1.929,-1.426 -0.671,0 0,0.401 C 1.147,-1.18 1.015,-1.297 0.864,-1.373 0.712,-1.449 0.558,-1.488 0.404,-1.488 c -0.314,0 -0.582,0.127 -0.806,0.38 -0.224,0.253 -0.336,0.606 -0.336,1.059 0,0.463 0.109,0.814 0.326,1.056 0.219,0.241 0.493,0.361 0.827,0.361 0.305,0 0.569,-0.127 0.792,-0.381 l 0,1.358 0.722,0 0,-3.771 z"
             style="fill:#dadbdc;fill-opacity:1;fill-rule:nonzero;stroke:none"
             id="path8527" />
        </g>
        <g
           id="g8529"
           transform="translate(69.829498,451.8605)">
          <path
             d="m 0,0 0,3.771 0.761,0 0,-1.484 1.492,0 0,1.484 0.762,0 0,-3.771 -0.762,0 0,1.649 -1.492,0 L 0.761,0 0,0 z"
             style="fill:#dadbdc;fill-opacity:1;fill-rule:nonzero;stroke:none"
             id="path8531" />
        </g>
        <g
           id="g8533"
           transform="translate(75.424805,451.8605)">
          <path
             d="M 0,0 0,0.409 C -0.099,0.264 -0.229,0.148 -0.392,0.064 c -0.162,-0.083 -0.333,-0.126 -0.513,-0.126 -0.184,0 -0.348,0.041 -0.494,0.121 -0.146,0.08 -0.252,0.194 -0.316,0.34 -0.065,0.145 -0.099,0.347 -0.099,0.604 l 0,1.729 0.724,0 0,-1.255 c 0,-0.385 0.013,-0.62 0.04,-0.706 l 0.145,-0.206 c 0.07,-0.051 0.159,-0.076 0.267,-0.076 0.124,0 0.235,0.034 0.333,0.102 0.097,0.067 0.164,0.151 0.2,0.252 0.036,0.1 0.054,0.346 0.054,0.737 l 0,1.152 0.723,0 L 0.672,0 0,0 z"
             style="fill:#dadbdc;fill-opacity:1;fill-rule:nonzero;stroke:none"
             id="path8535" />
        </g>
        <g
           id="g8537"
           transform="translate(76.790497,454.5928)">
          <path
             d="m 0,0 0.667,0 0,-0.373 c 0.238,0.289 0.522,0.434 0.851,0.434 0.176,0 0.327,-0.035 0.455,-0.107 0.129,-0.073 0.235,-0.181 0.317,-0.327 0.12,0.146 0.249,0.254 0.389,0.327 0.138,0.072 0.287,0.107 0.445,0.107 0.2,0 0.37,-0.041 0.509,-0.122 0.139,-0.082 0.243,-0.201 0.312,-0.358 0.049,-0.117 0.074,-0.306 0.074,-0.566 l 0,-1.747 -0.723,0 0,1.561 c 0,0.272 -0.025,0.446 -0.075,0.525 -0.066,0.102 -0.169,0.154 -0.309,0.154 -0.1,0 -0.196,-0.03 -0.285,-0.092 C 2.538,-0.646 2.474,-0.736 2.434,-0.855 2.395,-0.974 2.375,-1.163 2.375,-1.42 l 0,-1.312 -0.723,0 0,1.497 c 0,0.266 -0.013,0.437 -0.039,0.515 l -0.119,0.172 -0.221,0.056 c -0.111,0 -0.211,-0.03 -0.3,-0.09 C 0.883,-0.642 0.82,-0.728 0.781,-0.841 0.743,-0.955 0.723,-1.143 0.723,-1.405 l 0,-1.327 L 0,-2.732 0,0 z"
             style="fill:#dadbdc;fill-opacity:1;fill-rule:nonzero;stroke:none"
             id="path8539" />
        </g>
        <g
           id="g8541"
           transform="translate(82.224106,453.2733)">
          <path
             d="M 0,0 C 0,-0.308 0.061,-0.534 0.182,-0.681 0.304,-0.827 0.452,-0.9 0.627,-0.9 c 0.168,0 0.309,0.066 0.42,0.201 0.112,0.135 0.167,0.356 0.167,0.663 0,0.286 -0.057,0.499 -0.172,0.637 C 0.927,0.741 0.785,0.81 0.614,0.81 0.438,0.81 0.292,0.742 0.175,0.606 0.058,0.469 0,0.267 0,0 m -0.715,1.32 0.673,0 0,-0.402 C 0.046,1.055 0.164,1.166 0.314,1.252 0.463,1.338 0.628,1.381 0.81,1.381 1.128,1.381 1.397,1.256 1.617,1.008 1.839,0.759 1.95,0.413 1.95,-0.031 c 0,-0.457 -0.112,-0.812 -0.335,-1.064 -0.223,-0.253 -0.493,-0.38 -0.81,-0.38 -0.151,0 -0.287,0.03 -0.411,0.09 -0.122,0.06 -0.251,0.163 -0.387,0.309 l 0,-1.377 -0.722,0 0,3.773 z"
             style="fill:#dadbdc;fill-opacity:1;fill-rule:nonzero;stroke:none"
             id="path8543" />
        </g>
        <g
           id="g8545"
           transform="translate(84.492203,452.6398)">
          <path
             d="m 0,0 0.726,0.11 c 0.031,-0.14 0.093,-0.246 0.187,-0.319 0.094,-0.073 0.226,-0.109 0.397,-0.109 0.186,0 0.327,0.034 0.421,0.103 L 1.826,-0.023 1.775,0.114 C 1.74,0.148 1.658,0.179 1.534,0.209 0.951,0.338 0.581,0.454 0.424,0.561 0.209,0.709 0.101,0.913 0.101,1.176 c 0,0.237 0.093,0.435 0.279,0.597 0.188,0.161 0.477,0.241 0.871,0.241 0.373,0 0.652,-0.06 0.833,-0.182 C 2.266,1.71 2.391,1.53 2.46,1.292 L 1.778,1.165 C 1.748,1.272 1.694,1.354 1.612,1.41 1.531,1.466 1.414,1.495 1.264,1.495 1.073,1.495 0.937,1.468 0.854,1.415 L 0.772,1.268 0.844,1.137 C 0.909,1.089 1.134,1.022 1.519,0.934 1.905,0.847 2.173,0.74 2.326,0.612 2.477,0.483 2.552,0.304 2.552,0.075 c 0,-0.251 -0.105,-0.466 -0.314,-0.646 -0.209,-0.18 -0.519,-0.27 -0.928,-0.27 -0.372,0 -0.667,0.076 -0.884,0.227 C 0.209,-0.464 0.068,-0.258 0,0"
             style="fill:#dadbdc;fill-opacity:1;fill-rule:nonzero;stroke:none"
             id="path8547" />
        </g>
        <g
           id="g8549"
           transform="translate(66.980301,446.2083)">
          <path
             d="m 0,0 0,-0.671 -2.534,0 c 0.028,0.254 0.11,0.494 0.248,0.721 0.137,0.228 0.408,0.529 0.812,0.905 0.326,0.303 0.526,0.509 0.599,0.617 0.1,0.149 0.15,0.297 0.15,0.443 0,0.161 -0.044,0.285 -0.13,0.371 -0.086,0.087 -0.206,0.131 -0.358,0.131 -0.152,0 -0.272,-0.046 -0.361,-0.137 -0.09,-0.09 -0.141,-0.242 -0.154,-0.453 l -0.72,0.072 c 0.043,0.398 0.177,0.684 0.403,0.857 0.227,0.173 0.51,0.26 0.849,0.26 0.373,0 0.664,-0.101 0.878,-0.301 C -0.106,2.614 0,2.365 0,2.067 0,1.896 -0.03,1.734 -0.091,1.581 -0.152,1.428 -0.249,1.267 -0.381,1.099 -0.467,0.987 -0.626,0.828 -0.853,0.617 -1.082,0.408 -1.226,0.27 -1.287,0.202 L -1.435,0 0,0 z"
             style="fill:#dadbdc;fill-opacity:1;fill-rule:nonzero;stroke:none"
             id="path8551" />
        </g>
        <g
           id="g8553"
           transform="translate(68.692093,448.7252)">
          <path
             d="m 0,0 -0.235,-0.084 c -0.068,-0.055 -0.121,-0.156 -0.158,-0.3 -0.051,-0.186 -0.075,-0.501 -0.075,-0.944 0,-0.443 0.022,-0.746 0.066,-0.912 0.045,-0.165 0.101,-0.276 0.169,-0.33 L 0,-2.653 0.234,-2.569 c 0.068,0.055 0.122,0.155 0.159,0.3 0.05,0.185 0.075,0.498 0.075,0.941 0,0.443 -0.022,0.747 -0.067,0.912 C 0.357,-0.251 0.3,-0.139 0.233,-0.084 L 0,0 z m 0,0.599 c 0.365,0 0.651,-0.131 0.857,-0.391 0.245,-0.309 0.367,-0.821 0.367,-1.536 0,-0.713 -0.123,-1.226 -0.37,-1.538 C 0.65,-3.124 0.365,-3.252 0,-3.252 c -0.368,0 -0.664,0.141 -0.888,0.423 -0.225,0.282 -0.337,0.785 -0.337,1.508 0,0.711 0.124,1.222 0.371,1.534 0.203,0.258 0.488,0.386 0.854,0.386"
             style="fill:#dadbdc;fill-opacity:1;fill-rule:nonzero;stroke:none"
             id="path8555" />
        </g>
        <g
           id="g8557"
           transform="translate(71.622696,448.7252)">
          <path
             d="m 0,0 -0.235,-0.084 c -0.068,-0.055 -0.121,-0.156 -0.158,-0.3 -0.051,-0.186 -0.075,-0.501 -0.075,-0.944 0,-0.443 0.022,-0.746 0.066,-0.912 0.045,-0.165 0.101,-0.276 0.169,-0.33 L 0,-2.653 0.234,-2.569 c 0.068,0.055 0.122,0.155 0.159,0.3 0.05,0.185 0.075,0.498 0.075,0.941 0,0.443 -0.022,0.747 -0.067,0.912 C 0.357,-0.251 0.3,-0.139 0.233,-0.084 L 0,0 z m 0,0.599 c 0.366,0 0.651,-0.131 0.856,-0.391 0.246,-0.309 0.368,-0.821 0.368,-1.536 0,-0.713 -0.123,-1.226 -0.37,-1.538 C 0.65,-3.124 0.366,-3.252 0,-3.252 c -0.368,0 -0.663,0.141 -0.887,0.423 -0.226,0.282 -0.338,0.785 -0.338,1.508 0,0.711 0.124,1.222 0.371,1.534 0.203,0.258 0.488,0.386 0.854,0.386"
             style="fill:#dadbdc;fill-opacity:1;fill-rule:nonzero;stroke:none"
             id="path8559" />
        </g>
        <g
           id="g8561"
           transform="translate(73.431,448.2695)">
          <path
             d="m 0,0 0.667,0 0,-0.373 c 0.238,0.289 0.522,0.434 0.851,0.434 0.176,0 0.327,-0.035 0.455,-0.107 0.129,-0.073 0.235,-0.181 0.317,-0.327 0.12,0.146 0.249,0.254 0.389,0.327 0.138,0.072 0.287,0.107 0.445,0.107 0.2,0 0.37,-0.041 0.509,-0.122 0.139,-0.082 0.243,-0.201 0.312,-0.358 0.049,-0.117 0.074,-0.306 0.074,-0.566 l 0,-1.747 -0.723,0 0,1.561 c 0,0.272 -0.024,0.446 -0.075,0.525 -0.066,0.103 -0.169,0.154 -0.309,0.154 -0.1,0 -0.196,-0.03 -0.285,-0.092 C 2.538,-0.646 2.474,-0.736 2.434,-0.855 2.395,-0.974 2.375,-1.163 2.375,-1.42 l 0,-1.312 -0.723,0 0,1.497 c 0,0.266 -0.013,0.437 -0.039,0.515 l -0.119,0.172 -0.221,0.056 c -0.111,0 -0.211,-0.03 -0.3,-0.09 C 0.883,-0.642 0.82,-0.728 0.781,-0.841 0.743,-0.955 0.724,-1.143 0.724,-1.405 l 0,-1.327 L 0,-2.732 0,0 z"
             style="fill:#dadbdc;fill-opacity:1;fill-rule:nonzero;stroke:none"
             id="path8563" />
        </g>
        <g
           id="g8565"
           transform="translate(71.055603,404.9122)">
          <path
             d="m 0,0 c 5.46,0 9.956,4.476 9.956,9.938 0,5.481 -4.496,9.958 -9.956,9.958 -5.482,0 -9.958,-4.477 -9.958,-9.958 C -9.958,4.476 -5.482,0 0,0"
             style="fill:#ffffff;fill-opacity:1;fill-rule:evenodd;stroke:none"
             id="path8567" />
        </g>
        <g
           id="g8569"
           transform="translate(71.053604,404.9111)">
          <path
             d="m 0,0 c 5.464,0 9.956,4.477 9.956,9.939 0,5.481 -4.492,9.956 -9.956,9.956 -5.481,0 -9.957,-4.475 -9.957,-9.956 C -9.957,4.477 -5.481,0 0,0 m 0,-2.483 c 6.845,0 12.441,5.595 12.441,12.422 0,6.848 -5.596,12.443 -12.441,12.443 -6.844,0 -12.44,-5.595 -12.44,-12.443 0,-6.827 5.596,-12.422 12.44,-12.422"
             style="fill:#ed1d24;fill-opacity:1;fill-rule:evenodd;stroke:none"
             id="path8571" />
        </g>
        <g
           id="g8573"
           transform="translate(70.293503,411.97549)">
          <path
             d="m 0,0 c -0.439,-0.864 -1.522,-1.454 -2.648,-1.454 -1.331,0 -2.852,0.629 -3.087,2.415 l 1.726,0 c 0.176,-0.654 0.615,-0.973 1.302,-0.973 0.659,0 0.952,0.246 1.113,0.592 0.131,0.333 0.131,0.715 0.131,1.06 0,0.875 -0.234,1.466 -1.287,1.466 -0.483,0 -0.834,-0.159 -1.186,-0.69 l -1.594,0 0,4.747 5.155,0 0,-1.455 -3.502,0 0,-1.566 c 0.454,0.309 0.893,0.406 1.434,0.406 C -1.389,4.548 -0.439,4.056 0,3.254 0.205,2.873 0.278,2.391 0.278,1.553 0.278,0.813 0.19,0.382 0,0"
             style="fill:#000000;fill-opacity:1;fill-rule:nonzero;stroke:none"
             id="path8575" />
        </g>
        <g
           id="g8577"
           transform="translate(75.807404,416.62331)">
          <path
             d="M 0,0 C 0,0.74 -0.497,1.134 -1.243,1.134 -1.989,1.134 -2.486,0.74 -2.486,0 l 0,-3.514 c 0,-0.739 0.497,-1.146 1.243,-1.146 0.746,0 1.243,0.407 1.243,1.146 L 0,0 z m -1.243,-6.102 c -1.535,0 -2.97,0.899 -2.97,2.514 l 0,3.65 c 0,1.614 1.435,2.515 2.97,2.515 1.537,0 2.985,-0.901 2.985,-2.515 l 0,-3.65 c 0,-1.615 -1.448,-2.514 -2.985,-2.514"
             style="fill:#000000;fill-opacity:1;fill-rule:nonzero;stroke:none"
             id="path8579" />
        </g>
      </g>
    </g>
  </g>
</svg>
