<svg xmlns="http://www.w3.org/2000/svg" width="342.988" height="326.535"><path d="M42.186 600.242h342.336V274.36H42.186v325.882z" style="fill:#007ac2;fill-opacity:1;fill-rule:nonzero;stroke:none" transform="translate(-41.86 -274.034)"/><path d="M43.017 599.412H383.69V275.19H43.017v324.22z" style="fill:#007ac2;fill-opacity:1;fill-rule:nonzero;stroke:none" transform="translate(-41.86 -274.034)"/><path style="fill:#007ac2;fill-opacity:1;fill-rule:nonzero;stroke:none" d="M384.522 600.242H42.186V274.36h342.336v325.882zm-341.505-.83H383.69V275.19H43.017v324.22z" transform="translate(-41.86 -274.034)"/><path d="M42.186 600.242h342.336V274.36H42.186v325.882z" style="fill:none;stroke:#000;stroke-width:.65250003;stroke-linecap:butt;stroke-linejoin:miter;stroke-miterlimit:10;stroke-opacity:1;stroke-dasharray:none" transform="translate(-41.86 -274.034)"/><path d="M186.622 372.077H334.41v-88.084H186.622v88.084z" style="fill:#fff;fill-opacity:1;fill-rule:evenodd;stroke:#000;stroke-width:.65250003;stroke-linecap:butt;stroke-linejoin:miter;stroke-miterlimit:10;stroke-opacity:1;stroke-dasharray:none" transform="translate(-41.86 -274.034)"/><path style="fill:#000;fill-opacity:1;fill-rule:nonzero;stroke:none" d="M194.602 302.552v-11.874h9.492v11.874h-2.4v-9.865h-4.696v9.865h-2.396zM212.83 297.855l-1.635-4.408-1.603 4.408h3.239zm4.414 4.697h-2.609l-1.034-2.695h-4.748l-.98 2.695h-2.542l4.623-11.873h2.536l4.754 11.873zM218.54 302.552v-11.874h2.332l4.859 7.931v-7.93h2.227v11.873h-2.405l-4.786-7.743v7.743h-2.227zM230.492 302.552v-11.874h8.802v2.009h-6.406v2.631h5.963v2.002h-5.963v3.23h6.635v2.002h-9.03zM241.595 302.552v-11.874h9.492v11.874h-2.4v-9.865h-4.696v9.865h-2.396zM253.456 302.55h2.396v-11.87h-2.396v11.87zM257.816 290.68h8.219v2.007h-5.263l3.067 3.66-3.382 4.204h5.83v2.002h-8.624v-2.218l3.182-3.988-3.03-3.53v-2.138zM270.765 302.552v-9.865h-3.523v-2.009h9.435v2.009h-3.516v9.865h-2.396zM278.231 302.552v-11.874h2.396v4.672h4.697v-4.672h2.4v11.874h-2.4v-5.19h-4.697v5.19h-2.396zM290.167 302.552v-11.874h3.587l2.154 8.1 2.132-8.1h3.595v11.874h-2.227v-9.347l-2.358 9.347h-2.307l-2.348-9.347v9.347h-2.228zM303.945 302.55h2.396v-11.87h-2.396v11.87zM310.607 296.608c0 1.346.312 2.364.933 3.058.62.694 1.41 1.04 2.364 1.04.955 0 1.74-.343 2.351-1.034.615-.687.92-1.718.92-3.096 0-1.362-.3-2.377-.894-3.046-.598-.671-1.39-1.005-2.377-1.005-.99 0-1.785.34-2.39 1.015-.604.68-.907 1.702-.907 3.068m-2.469.082c0-1.212.182-2.224.541-3.045.27-.608.64-1.15 1.108-1.63a4.59 4.59 0 0 1 1.533-1.069c.738-.315 1.591-.471 2.559-.471 1.75 0 3.15.544 4.2 1.63 1.05 1.085 1.575 2.593 1.575 4.528 0 1.916-.522 3.415-1.563 4.497-1.043 1.082-2.437 1.626-4.18 1.626-1.763 0-3.17-.54-4.21-1.617-1.04-1.078-1.563-2.561-1.563-4.449M194.593 322.94v-11.873h2.396v5.273l4.843-5.273h3.224l-4.47 4.624 4.715 7.25h-3.103l-3.264-5.573-1.945 1.986v3.586h-2.396zM209.656 322.94v-4.996l-4.35-6.877h2.81l2.794 4.697 2.74-4.697h2.758l-4.362 6.893v4.98h-2.39zM217.641 322.94v-11.873h9.492v11.873h-2.4v-9.865h-4.696v9.865h-2.396zM231.975 313.075v3.367h1.31c.946 0 1.579-.06 1.897-.184.318-.124.566-.318.748-.582.181-.265.273-.573.273-.923 0-.433-.127-.79-.381-1.07a1.668 1.668 0 0 0-.965-.528c-.286-.054-.862-.08-1.724-.08h-1.158zm-2.396 9.866v-11.874h3.847c1.457 0 2.405.058 2.847.179.681.178 1.25.563 1.71 1.161.46.598.69 1.369.69 2.31 0 .73-.134 1.344-.398 1.84-.264.5-.602.888-1.009 1.171-.407.283-.82.471-1.244.563-.57.112-1.4.169-2.485.169h-1.562v4.48h-2.396zM242.624 316.996c0 1.346.312 2.364.932 3.055.62.697 1.41 1.044 2.364 1.044.955 0 1.74-.344 2.352-1.035.614-.687.92-1.718.92-3.096 0-1.362-.3-2.377-.895-3.046-.598-.671-1.39-1.005-2.377-1.005-.99 0-1.785.34-2.39 1.015-.604.68-.906 1.702-.906 3.068m-2.47.08c0-1.21.182-2.222.541-3.043.27-.608.64-1.15 1.108-1.63a4.59 4.59 0 0 1 1.533-1.07c.739-.314 1.595-.47 2.559-.47 1.75 0 3.15.544 4.2 1.63 1.05 1.085 1.575 2.593 1.575 4.528 0 1.916-.522 3.415-1.562 4.497-1.044 1.082-2.438 1.626-4.181 1.626-1.763 0-3.17-.541-4.21-1.617-1.04-1.079-1.562-2.562-1.562-4.452M256.196 322.94v-4.996l-4.35-6.877h2.81l2.794 4.697 2.74-4.697h2.758l-4.362 6.893v4.98h-2.39zM194.545 331.455h2.396v6.429c0 1.021.032 1.683.09 1.985.104.487.346.876.734 1.172.385.292.913.442 1.582.442.68 0 1.193-.14 1.54-.417.343-.28.553-.62.623-1.028.07-.404.105-1.076.105-2.014v-6.569h2.396v6.238c0 1.422-.063 2.431-.194 3.02-.13.589-.369 1.085-.716 1.49-.35.403-.814.728-1.397.967-.582.242-1.346.36-2.284.36-1.133 0-1.992-.131-2.581-.392-.585-.261-1.047-.602-1.387-1.019-.34-.42-.564-.859-.672-1.317-.156-.681-.235-1.687-.235-3.014v-6.333zM214.345 343.328h-2.275v-4.392c0-.926-.048-1.527-.146-1.798l-.474-.636c-.22-.153-.48-.23-.79-.23-.394 0-.747.109-1.06.325a1.638 1.638 0 0 0-.645.86c-.115.356-.172 1.015-.172 1.976v3.895h-2.278v-8.602h2.116v1.263c.748-.97 1.693-1.457 2.832-1.457.503 0 .96.089 1.378.27.416.182.728.414.945.694.213.28.36.598.445.955.083.356.124.869.124 1.53v5.347zM216.654 334.725h2.275v8.602h-2.275v-8.602zm0-3.269h2.275v2.107h-2.275v-2.107zM223.625 343.328l-3.465-8.602h2.39l1.62 4.389.467 1.467c.124-.373.204-.618.235-.739l.242-.728 1.636-4.389h2.342l-3.418 8.602h-2.049zM235.594 338.29c-.014-.658-.187-1.161-.509-1.502a1.567 1.567 0 0 0-1.183-.515 1.58 1.58 0 0 0-1.232.544c-.324.36-.483.853-.477 1.473h3.401zm-.13 2.301 2.269.379c-.293.834-.751 1.467-1.381 1.9-.63.436-1.416.652-2.361.652-1.496 0-2.603-.487-3.32-1.467-.569-.78-.852-1.77-.852-2.963 0-1.425.372-2.542 1.12-3.348.745-.808 1.687-1.212 2.826-1.212 1.279 0 2.288.423 3.029 1.266.738.847 1.091 2.142 1.06 3.886h-5.703c.015.675.201 1.2.55 1.576.354.375.79.56 1.315.56.356 0 .656-.096.897-.29.245-.194.427-.506.55-.939M241.887 343.328h-2.275v-8.602h2.113v1.222c.362-.576.687-.955.976-1.142.29-.182.618-.274.984-.274a2.89 2.89 0 0 1 1.498.43l-.706 1.982c-.382-.248-.738-.369-1.066-.369-.321 0-.592.086-.811.26-.223.176-.395.494-.522.952-.128.459-.191 1.423-.191 2.884v2.657zM245.36 340.873l2.286-.347c.095.443.292.78.588 1.01.3.228.713.343 1.247.343.59 0 1.031-.108 1.33-.325l.3-.608-.163-.43c-.114-.107-.365-.206-.76-.298-1.836-.405-3-.774-3.49-1.111-.682-.465-1.022-1.108-1.022-1.935 0-.745.296-1.372.885-1.878.588-.509 1.498-.76 2.736-.76 1.177 0 2.052.19 2.622.573.573.381.967.951 1.184 1.699l-2.145.398a1.323 1.323 0 0 0-.525-.767c-.255-.178-.62-.267-1.095-.267-.601 0-1.03.082-1.288.25l-.261.46.229.413c.204.153.913.366 2.125.64 1.213.276 2.06.614 2.54 1.012.474.407.712.97.712 1.696 0 .786-.33 1.464-.99 2.03-.658.567-1.632.853-2.923.853-1.171 0-2.097-.239-2.781-.713a3.29 3.29 0 0 1-1.34-1.938M255.385 334.725h2.275v8.602h-2.275v-8.602zm0-3.269h2.275v2.107h-2.275v-2.107zM263.938 334.726v1.814h-1.556v3.465c0 .704.015 1.114.044 1.229l.204.29.385.11c.21 0 .515-.072.913-.216l.198 1.763c-.532.23-1.13.341-1.798.341-.41 0-.783-.07-1.11-.204-.332-.14-.574-.318-.726-.537-.153-.22-.261-.513-.318-.888-.051-.265-.074-.796-.074-1.601v-3.752h-1.046v-1.814h1.046v-1.71l2.282-1.326v3.036h1.556zM264.44 334.726h2.421l2.056 6.107 2.011-6.107h2.355l-3.036 8.277-.544 1.5c-.2.502-.388.887-.57 1.151l-.623.643a2.743 2.743 0 0 1-.866.385c-.343.09-.732.137-1.164.137-.436 0-.866-.048-1.286-.137l-.204-1.782c.357.07.678.105.965.105.528 0 .92-.156 1.174-.468.254-.309.448-.703.582-1.184l-3.271-8.627zM196.545 357.771c0 1.346.312 2.365.933 3.055.62.697 1.406 1.044 2.364 1.044.954 0 1.74-.343 2.351-1.034.614-.687.92-1.719.92-3.097 0-1.362-.3-2.377-.894-3.045-.598-.672-1.39-1.006-2.377-1.006-.99 0-1.785.34-2.39 1.015-.604.678-.907 1.703-.907 3.068m-2.469.08c0-1.21.182-2.222.541-3.043.27-.608.64-1.149 1.107-1.63a4.59 4.59 0 0 1 1.534-1.068c.738-.315 1.591-.471 2.558-.471 1.75 0 3.15.544 4.2 1.629 1.05 1.085 1.576 2.594 1.576 4.529 0 1.915-.522 3.414-1.563 4.496-1.043 1.082-2.437 1.627-4.18 1.627-1.764 0-3.17-.541-4.21-1.617-1.044-1.079-1.563-2.562-1.563-4.452M206.45 355.114h1.262v-.646c0-.726.077-1.267.233-1.62.153-.357.436-.65.85-.872.413-.223.935-.338 1.565-.338.649 0 1.282.1 1.903.293l-.306 1.588a4.558 4.558 0 0 0-1.047-.13c-.327 0-.563.08-.706.229-.143.156-.216.452-.216.888v.608h1.702v1.791h-1.702v6.81h-2.275v-6.81h-1.264v-1.791zM225.188 359.35l2.323.738c-.356 1.296-.948 2.26-1.775 2.887-.83.63-1.88.945-3.157.945-1.575 0-2.87-.54-3.885-1.617-1.015-1.078-1.524-2.552-1.524-4.417 0-1.976.512-3.513 1.53-4.605 1.022-1.095 2.365-1.642 4.026-1.642 1.454 0 2.631.43 3.541 1.289.538.51.942 1.238 1.212 2.186l-2.37.567c-.143-.614-.436-1.101-.882-1.458-.445-.356-.986-.534-1.622-.534-.879 0-1.595.318-2.142.948-.547.63-.82 1.655-.82 3.071 0 1.499.267 2.568.807 3.205.541.636 1.241.958 2.107.958a2.4 2.4 0 0 0 1.642-.608c.461-.404.789-1.044.99-1.913M228.476 355.114h2.422l2.055 6.107 2.011-6.107h2.355l-3.036 8.277-.544 1.5c-.2.502-.388.887-.57 1.151l-.623.643a2.82 2.82 0 0 1-.866.385c-.343.09-.732.137-1.164.137-.436 0-.866-.048-1.286-.137l-.203-1.782c.356.07.677.105.964.105.528 0 .92-.156 1.174-.468.254-.309.448-.703.582-1.184l-3.271-8.627zM240.963 359.269c0 .967.191 1.68.576 2.142.382.461.85.694 1.4.694.529 0 .968-.214 1.32-.637.35-.423.526-1.117.526-2.084 0-.901-.181-1.573-.541-2.009-.363-.439-.811-.655-1.346-.655-.554 0-1.018.213-1.384.643-.366.426-.55 1.063-.55 1.906m-2.25-4.156h2.119v1.266c.277-.432.649-.783 1.12-1.053.468-.27.99-.404 1.562-.404 1 0 1.846.391 2.543 1.174.697.78 1.043 1.871 1.043 3.272 0 1.435-.35 2.552-1.053 3.348-.7.795-1.55 1.193-2.549 1.193-.477 0-.906-.092-1.292-.283-.388-.188-.792-.513-1.218-.97v4.334h-2.275v-11.877zM251.086 363.716h-2.275v-8.602h2.113v1.222c.363-.576.687-.955.977-1.142.29-.182.617-.274.983-.274.519 0 1.018.143 1.499.43l-.707 1.982c-.382-.248-.738-.369-1.069-.369-.318 0-.589.086-.808.26-.223.176-.395.494-.522.952-.127.459-.19 1.423-.19 2.884v2.657zM261.022 363.716v-1.289a3.314 3.314 0 0 1-1.234 1.085 3.47 3.47 0 0 1-1.617.398 3.145 3.145 0 0 1-1.552-.382 2.228 2.228 0 0 1-1-1.069c-.203-.458-.305-1.092-.305-1.903v-5.442h2.275v3.953c0 1.209.041 1.95.124 2.224l.458.646c.223.16.503.242.844.242.388 0 .735-.108 1.043-.321.309-.214.519-.478.633-.796.112-.315.169-1.088.169-2.32v-3.628h2.275v8.602h-2.113zM264.69 361.261l2.286-.347c.095.443.292.78.588 1.006.3.232.713.344 1.248.344.588 0 1.034-.105 1.33-.322l.299-.608-.162-.43c-.115-.107-.366-.206-.76-.298-1.837-.405-3.002-.774-3.492-1.111-.68-.465-1.02-1.11-1.02-1.935 0-.745.295-1.372.884-1.878.588-.509 1.498-.76 2.736-.76 1.177 0 2.053.19 2.622.573.573.382.967.951 1.184 1.7l-2.145.397a1.323 1.323 0 0 0-.525-.767c-.254-.178-.62-.267-1.094-.267-.602 0-1.031.082-1.29.248l-.26.461.229.414c.204.153.913.366 2.126.64 1.212.277 2.058.614 2.539 1.012.474.407.713.97.713 1.696 0 .786-.331 1.464-.99 2.03-.659.567-1.632.85-2.924.85-1.171 0-2.097-.235-2.781-.71a3.29 3.29 0 0 1-1.34-1.938" transform="translate(-41.86 -274.034)"/><path style="fill:#ffdb00;fill-opacity:1;fill-rule:nonzero;stroke:none" d="M193.226 377.103h8.694v2.097h-6.202v10.254h-2.492v-12.35zM204.191 389.453v-12.35h9.155v2.09h-6.66v2.737h6.198v2.081h-6.198v3.36h6.895v2.082h-9.39zM218.829 379.193v3.504h1.365c.983 0 1.638-.064 1.97-.194.33-.127.591-.331.779-.605.188-.277.283-.595.283-.96 0-.45-.134-.822-.398-1.115a1.74 1.74 0 0 0-1.002-.547c-.296-.054-.894-.083-1.791-.083h-1.206zm-2.495 10.26v-12.35h4.003c1.514 0 2.504.063 2.965.184.707.188 1.299.592 1.776 1.209.477.624.716 1.423.716 2.406 0 .757-.137 1.397-.41 1.913-.277.518-.627.923-1.05 1.218a3.6 3.6 0 0 1-1.292.586c-.595.115-1.458.175-2.587.175h-1.626v4.66h-2.495zM228.405 389.453h2.494v-12.35h-2.494v12.35z" transform="translate(-41.86 -274.034)"/><path style="fill:#fff;fill-opacity:1;fill-rule:nonzero;stroke:none" d="M198.929 402.855v-2.082h5.374v4.92c-.522.506-1.279.952-2.272 1.337a8.233 8.233 0 0 1-3.01.576c-1.292 0-2.418-.27-3.376-.811a5.168 5.168 0 0 1-2.167-2.327c-.48-1.009-.722-2.103-.722-3.29 0-1.286.267-2.429.808-3.428.538-1 1.327-1.766 2.367-2.3.79-.408 1.776-.615 2.956-.615 1.531 0 2.73.321 3.593.964.862.643 1.416 1.534 1.664 2.667l-2.479.465a2.609 2.609 0 0 0-.98-1.439c-.48-.35-1.078-.525-1.798-.525-1.09 0-1.956.344-2.6 1.038-.642.687-.963 1.712-.963 3.074 0 1.464.324 2.565.977 3.297.652.732 1.505 1.098 2.561 1.098.522 0 1.044-.102 1.569-.306a5.36 5.36 0 0 0 1.352-.747v-1.566h-2.854zM212.538 402.156c-.014-.685-.194-1.207-.53-1.563a1.625 1.625 0 0 0-1.23-.535c-.518 0-.944.188-1.281.564-.335.378-.503.888-.497 1.534h3.538zm-.133 2.393 2.358.394c-.303.866-.783 1.525-1.435 1.977-.656.452-1.474.678-2.457.678-1.556 0-2.708-.51-3.452-1.525-.592-.815-.885-1.842-.885-3.084 0-1.48.385-2.641 1.162-3.484.773-.837 1.753-1.257 2.94-1.257 1.33 0 2.38.439 3.15 1.317.77.882 1.136 2.225 1.104 4.039h-5.931c.014.703.206 1.25.573 1.639.365.391.82.585 1.365.585.369 0 .68-.098.935-.302.251-.2.442-.528.573-.977M219.721 407.396h-2.367v-8.946h2.199v1.273c.375-.604.716-1 1.015-1.19.299-.191.643-.286 1.024-.286.538 0 1.057.149 1.556.445l-.731 2.066c-.398-.258-.77-.389-1.11-.389-.332 0-.615.092-.844.274-.23.185-.41.512-.544.99-.13.48-.198 1.48-.198 3v2.763zM224.806 398.45h2.367v8.946h-2.367v-8.946zm0-3.405h2.367v2.19h-2.367v-2.19z" transform="translate(-41.86 -274.034)"/><path style="fill:#ffdb00;fill-opacity:1;fill-rule:nonzero;stroke:none" d="m323.6 492.155 4.413 12.351h-2.705l-3.124-9.133-3.023 9.133h-2.644l4.423-12.35h2.66zM336.46 499.619l-1.703-4.583-1.667 4.583h3.37zm4.591 4.888h-2.714l-1.075-2.807h-4.939l-1.018 2.807h-2.644l4.808-12.351h2.638l4.944 12.35zM344.359 504.505v-10.26h-3.666v-2.09h9.814v2.09h-3.657v10.26h-2.491zM352.418 492.155h8.55v2.091h-5.476l3.191 3.806-3.519 4.373h6.065v2.081h-8.97v-2.31l3.31-4.144-3.151-3.672v-2.225zM363.67 504.508h2.495v-12.351h-2.495v12.351zM375.722 499.619l-1.706-4.583-1.667 4.583h3.373zm4.588 4.888h-2.71l-1.08-2.807h-4.935l-1.018 2.807h-2.647l4.81-12.351h2.635l4.945 12.35z" transform="translate(-41.86 -274.034)"/><path style="fill:#fff;fill-opacity:1;fill-rule:nonzero;stroke:none" d="M317.839 522.448V510.2h2.494v10.168h6.199v2.081h-8.693zM333.866 518.152c-.303.102-.783.223-1.442.363-.655.14-1.085.276-1.288.413-.309.22-.462.497-.462.834 0 .331.124.614.37.856.248.242.563.366.944.366.427 0 .834-.143 1.22-.423.289-.213.476-.474.566-.783.06-.204.092-.589.092-1.155v-.471zm-3.166-1.922-2.148-.385c.242-.866.655-1.506 1.244-1.923.592-.417 1.467-.623 2.628-.623 1.057 0 1.843.124 2.358.375.519.248.882.567 1.092.952.213.385.318 1.091.318 2.12l-.026 2.762c0 .786.039 1.365.112 1.74.076.373.22.774.426 1.2h-2.342a9.053 9.053 0 0 1-.226-.7l-.086-.277a4.33 4.33 0 0 1-1.295.885 3.719 3.719 0 0 1-1.476.296c-.92 0-1.645-.251-2.177-.751-.531-.5-.795-1.133-.795-1.897 0-.503.12-.955.362-1.35.242-.397.58-.7 1.016-.913.432-.21 1.062-.391 1.88-.55 1.107-.207 1.874-.401 2.3-.58v-.238c0-.455-.11-.777-.337-.97-.222-.195-.649-.29-1.272-.29-.42 0-.748.082-.984.248-.235.165-.426.455-.572.869M343.264 513.502v1.887h-1.617v3.606c0 .729.015 1.155.045 1.276l.213.3.398.117c.22 0 .537-.077.951-.226l.204 1.836c-.55.236-1.175.353-1.871.353a2.95 2.95 0 0 1-1.152-.216c-.344-.144-.595-.328-.754-.554-.163-.229-.27-.538-.334-.923-.051-.277-.077-.83-.077-1.667v-3.902h-1.085v-1.887h1.085v-1.78l2.377-1.38v3.16h1.616zM344.71 519.896l2.374-.363c.102.462.309.812.618 1.05.308.24.741.357 1.295.357.614 0 1.072-.112 1.38-.337l.312-.63-.168-.45c-.118-.11-.382-.216-.79-.311-1.908-.42-3.12-.805-3.63-1.152-.71-.484-1.063-1.155-1.063-2.015 0-.773.306-1.425.92-1.954.611-.528 1.56-.792 2.848-.792 1.222 0 2.132.2 2.727.598.595.401 1.005.99 1.231 1.77l-2.233.413a1.384 1.384 0 0 0-.545-.802c-.264-.184-.646-.276-1.139-.276-.623 0-1.069.085-1.34.26l-.27.481.236.43c.213.159.951.378 2.211.665 1.26.286 2.142.636 2.641 1.053.493.42.742 1.006.742 1.76 0 .821-.344 1.524-1.028 2.113-.684.592-1.7.888-3.042.888-1.219 0-2.183-.248-2.893-.741a3.435 3.435 0 0 1-1.393-2.015M355.776 513.502h2.367v8.946h-2.367v-8.946zm0-3.402h2.367v2.19h-2.367v-2.19zM366.144 518.152c-.303.102-.783.223-1.442.363-.655.14-1.085.276-1.288.413-.31.22-.462.497-.462.834 0 .331.121.614.37.856.247.242.562.366.944.366.427 0 .834-.143 1.219-.423.286-.213.477-.474.566-.783.064-.204.093-.589.093-1.155v-.471zm-3.166-1.922-2.148-.385c.238-.866.655-1.506 1.244-1.923.592-.417 1.467-.623 2.628-.623 1.057 0 1.843.124 2.358.375.519.248.882.567 1.095.952.206.385.315 1.091.315 2.12l-.026 2.762c0 .786.035 1.365.111 1.74.077.373.22.774.427 1.2h-2.339a7.583 7.583 0 0 1-.229-.7l-.086-.277a4.33 4.33 0 0 1-1.295.885 3.719 3.719 0 0 1-1.476.296c-.92 0-1.645-.251-2.177-.751-.531-.5-.795-1.133-.795-1.897 0-.503.12-.955.363-1.35.238-.397.579-.7 1.015-.913.432-.21 1.062-.391 1.88-.55 1.107-.207 1.874-.401 2.3-.58v-.238c0-.455-.114-.777-.337-.97-.226-.195-.649-.29-1.272-.29-.42 0-.748.082-.984.248-.235.165-.43.455-.572.869" transform="translate(-41.86 -274.034)"/><path style="fill:#ffdb00;fill-opacity:1;fill-rule:nonzero;stroke:none" d="m63.279 546.138-1.702-4.583-1.668 4.583h3.37zm4.591 4.888h-2.714l-1.078-2.807h-4.936l-1.018 2.807H55.48l4.808-12.35h2.638l4.944 12.35zM72.82 543.805h4.008v2.09H72.82v-2.09zm-1.414 1.037c0 1.436.331 2.505.993 3.208.662.704 1.473 1.054 2.434 1.054.955 0 1.76-.347 2.419-1.041.655-.694.983-1.776.983-3.246 0-1.388-.303-2.438-.907-3.15-.608-.714-1.438-1.07-2.495-1.07-1.066 0-1.906.36-2.514 1.085-.61.723-.913 1.776-.913 3.16m-2.57.083c0-2.008.527-3.59 1.584-4.739 1.056-1.148 2.517-1.721 4.388-1.721 1.88 0 3.354.582 4.413 1.744 1.063 1.161 1.591 2.714 1.591 4.656 0 1.944-.528 3.494-1.59 4.643-1.06 1.152-2.464 1.728-4.204 1.728-1.381 0-2.501-.242-3.364-.726-.862-.48-1.546-1.206-2.055-2.17-.51-.961-.764-2.1-.764-3.415M89.504 546.138l-1.702-4.583-1.667 4.583h3.37zm4.592 4.888h-2.714l-1.079-2.807h-4.935l-1.018 2.807h-2.645l4.808-12.35h2.638l4.945 12.35zM101.884 538.674l4.414 12.352h-2.705l-3.125-9.134-3.022 9.134H94.8l4.42-12.352h2.663zM114.744 546.138l-1.702-4.583-1.667 4.583h3.37zm4.592 4.888h-2.714l-1.079-2.807h-4.935l-1.018 2.807h-2.645l4.808-12.35h2.638l4.945 12.35zM120.958 538.674h8.55v2.091h-5.476l3.195 3.807-3.522 4.372h6.064v2.082h-8.97v-2.31l3.31-4.144-3.15-3.673v-2.225zM131.949 538.674h8.55v2.091h-5.477l3.192 3.807-3.52 4.372h6.066v2.082h-8.97v-2.31l3.309-4.144-3.15-3.673v-2.225zM149.82 546.138l-1.702-4.583-1.667 4.583h3.37zm4.592 4.888h-2.714l-1.079-2.807h-4.935l-1.018 2.807h-2.644l4.808-12.35h2.637l4.945 12.35z" transform="translate(-41.86 -274.034)"/><path style="fill:#fff;fill-opacity:1;fill-rule:nonzero;stroke:none" d="m63.279 564.08-1.702-4.582-1.668 4.583h3.37zm4.591 4.89h-2.714l-1.078-2.808h-4.936l-1.018 2.807H55.48l4.808-12.351h2.638l4.944 12.351zM73.915 560.021v1.888h-1.616v3.605c0 .729.015 1.155.044 1.276l.213.3.398.117c.22 0 .538-.076.952-.225l.203 1.836c-.55.235-1.174.353-1.87.353a2.95 2.95 0 0 1-1.153-.216c-.343-.143-.595-.328-.754-.554-.162-.23-.27-.538-.334-.923-.05-.277-.076-.83-.076-1.668v-3.901h-1.085v-1.887h1.085v-1.78l2.377-1.38v3.16h1.616zM78.554 556.618v4.541c.764-.894 1.677-1.34 2.737-1.34a3.47 3.47 0 0 1 1.476.303c.436.203.767.461.99.776.22.315.372.662.452 1.044.082.382.124.974.124 1.776v5.25h-2.368v-4.725c0-.939-.044-1.534-.133-1.789l-.478-.601c-.225-.15-.512-.223-.855-.223-.392 0-.742.095-1.05.286-.31.191-.538.478-.681.863-.14.385-.214.955-.214 1.709v4.48h-2.367v-12.35h2.367zM92.307 564.671c-.302.102-.782.223-1.441.363-.656.14-1.085.277-1.289.414-.308.22-.461.496-.461.834 0 .33.124.614.369.856.248.241.563.366.945.366.426 0 .834-.143 1.219-.424.286-.213.477-.474.566-.783.06-.203.092-.588.092-1.155v-.47zm-3.166-1.922-2.147-.385c.238-.866.655-1.505 1.244-1.922.592-.417 1.467-.624 2.628-.624 1.056 0 1.842.124 2.358.376.518.248.881.566 1.091.951.21.385.318 1.092.318 2.12l-.025 2.762c0 .786.038 1.365.111 1.74.077.373.22.774.427 1.2h-2.342a8.985 8.985 0 0 1-.226-.7l-.086-.277a4.329 4.329 0 0 1-1.295.885 3.719 3.719 0 0 1-1.476.296c-.92 0-1.645-.251-2.177-.75-.531-.5-.795-1.134-.795-1.898 0-.502.12-.954.362-1.349.242-.398.58-.7 1.016-.913.432-.21 1.062-.392 1.88-.55 1.107-.208 1.874-.402 2.3-.58v-.239c0-.455-.11-.776-.337-.97-.226-.195-.649-.29-1.272-.29-.42 0-.748.083-.984.248-.235.166-.43.455-.572.87M97.603 568.968h2.368v-12.35h-2.368v12.35zM107.97 564.671c-.302.102-.783.223-1.441.363-.656.14-1.085.277-1.29.414-.308.22-.46.496-.46.834 0 .33.123.614.369.856.248.241.563.366.945.366.426 0 .833-.143 1.222-.424.286-.213.474-.474.563-.783.06-.203.092-.588.092-1.155v-.47zm-3.166-1.922-2.148-.385c.242-.866.656-1.505 1.244-1.922.592-.417 1.467-.624 2.629-.624 1.056 0 1.842.124 2.36.376.516.248.879.566 1.089.951.213.385.318 1.092.318 2.12l-.025 2.762c0 .786.038 1.365.11 1.74.077.373.22.774.427 1.2h-2.342a9.032 9.032 0 0 1-.226-.7l-.086-.277a4.328 4.328 0 0 1-1.295.885 3.708 3.708 0 0 1-1.476.296c-.92 0-1.645-.251-2.177-.75-.53-.5-.795-1.134-.795-1.898 0-.502.12-.954.363-1.349.242-.398.579-.7 1.015-.913.432-.21 1.063-.392 1.88-.55 1.108-.208 1.874-.402 2.3-.58v-.239c0-.455-.11-.776-.336-.97-.223-.195-.65-.29-1.273-.29-.42 0-.748.083-.983.248-.236.166-.427.455-.573.87M112.433 566.416l2.377-.363c.098.461.305.811.614 1.05.308.238.741.356 1.295.356.614 0 1.072-.111 1.384-.337l.312-.633-.172-.446c-.118-.111-.382-.216-.79-.312-1.908-.42-3.12-.805-3.63-1.152-.71-.483-1.063-1.155-1.063-2.014 0-.777.306-1.426.92-1.954.611-.529 1.56-.793 2.848-.793 1.222 0 2.132.2 2.727.599.595.4 1.005.99 1.231 1.769l-2.233.414a1.384 1.384 0 0 0-.545-.802c-.264-.185-.646-.277-1.139-.277-.623 0-1.069.086-1.34.26l-.27.481.236.43c.213.156.951.379 2.211.665 1.26.287 2.142.637 2.641 1.054.493.42.742 1.005.742 1.76 0 .82-.344 1.524-1.028 2.113-.684.592-1.7.888-3.042.888-1.219 0-2.183-.249-2.893-.742a3.435 3.435 0 0 1-1.393-2.014M122.665 566.416l2.377-.363c.098.461.305.811.614 1.05.308.238.741.356 1.295.356.614 0 1.072-.111 1.384-.337l.312-.633-.172-.446c-.118-.111-.382-.216-.79-.312-1.908-.42-3.12-.805-3.63-1.152-.71-.483-1.063-1.155-1.063-2.014 0-.777.306-1.426.92-1.954.611-.529 1.56-.793 2.848-.793 1.222 0 2.132.2 2.727.599.595.4 1.005.99 1.231 1.769l-2.234.414a1.384 1.384 0 0 0-.544-.802c-.264-.185-.646-.277-1.139-.277-.623 0-1.072.086-1.34.26l-.27.481.236.43c.213.156.951.379 2.211.665 1.26.287 2.142.637 2.641 1.054.493.42.742 1.005.742 1.76 0 .82-.344 1.524-1.028 2.113-.684.592-1.7.888-3.042.888-1.219 0-2.183-.249-2.893-.742a3.435 3.435 0 0 1-1.393-2.014M138.667 564.671c-.303.102-.783.223-1.442.363-.655.14-1.085.277-1.288.414-.309.22-.462.496-.462.834 0 .33.124.614.37.856.248.241.563.366.944.366.427 0 .834-.143 1.22-.424.285-.213.476-.474.566-.783.06-.203.092-.588.092-1.155v-.47zm-3.166-1.922-2.148-.385c.242-.866.655-1.505 1.244-1.922.592-.417 1.467-.624 2.628-.624 1.057 0 1.843.124 2.358.376.519.248.882.566 1.092.951.21.385.318 1.092.318 2.12l-.026 2.762c0 .786.038 1.365.112 1.74.076.373.22.774.426 1.2h-2.342a8.961 8.961 0 0 1-.226-.7l-.086-.277a4.329 4.329 0 0 1-1.295.885 3.719 3.719 0 0 1-1.476.296c-.92 0-1.645-.251-2.177-.75-.531-.5-.795-1.134-.795-1.898 0-.502.12-.954.363-1.349.241-.398.579-.7 1.015-.913.432-.21 1.062-.392 1.88-.55 1.108-.208 1.874-.402 2.3-.58v-.239c0-.455-.11-.776-.336-.97-.223-.195-.65-.29-1.273-.29-.42 0-.748.083-.983.248-.236.166-.427.455-.573.87" transform="translate(-41.86 -274.034)"/><path style="fill:#ffdb00;fill-opacity:1;fill-rule:nonzero;stroke:none" d="M59.236 586.844v3.303h2.307c.9 0 1.47-.025 1.712-.076.369-.067.671-.233.903-.493.233-.261.35-.611.35-1.047 0-.373-.089-.688-.27-.946-.178-.257-.44-.445-.776-.563-.34-.12-1.08-.178-2.212-.178h-2.014zm0-4.91v2.854h1.635c.97 0 1.576-.013 1.811-.041.426-.051.76-.197 1.005-.442.245-.245.366-.567.366-.965 0-.382-.105-.69-.315-.932-.21-.239-.525-.382-.938-.433-.249-.029-.958-.041-2.132-.041h-1.432zm-2.495-2.056h4.939c.976 0 1.705.04 2.186.12a3.23 3.23 0 0 1 1.288.513c.379.258.694.601.945 1.031.255.426.382.91.382 1.445 0 .579-.156 1.107-.468 1.591a2.891 2.891 0 0 1-1.27 1.085c.755.22 1.331.592 1.738 1.124.404.525.605 1.149.605 1.858 0 .564-.13 1.11-.392 1.64a3.28 3.28 0 0 1-1.069 1.272c-.452.318-1.008.513-1.673.586-.414.044-1.416.073-3.007.086H56.74v-12.351zM75.364 592.227h-2.367v-8.923a8.136 8.136 0 0 1-3.058 1.795v-2.149c.617-.2 1.288-.585 2.014-1.148.725-.564 1.222-1.222 1.49-1.977h1.921v12.402z" transform="translate(-41.86 -274.034)"/><path d="M49.848 533.236h178.299v-42.091H49.848v42.091z" style="fill:#fff;fill-opacity:1;fill-rule:evenodd;stroke:#000;stroke-width:.65250003;stroke-linecap:butt;stroke-linejoin:miter;stroke-miterlimit:10;stroke-opacity:1;stroke-dasharray:none" transform="translate(-41.86 -274.034)"/><path style="fill:#000;fill-opacity:1;fill-rule:nonzero;stroke:none" d="M56.853 494.93h9.208v2.22h-6.567v10.863h-2.641V494.93zM67.499 508.011v-13.083h9.698v2.215H70.14v2.9h6.567v2.205H70.14v3.561h7.306v2.202h-9.947zM79.42 508.011v-13.083h2.572l5.352 8.74v-8.74h2.453v13.083h-2.65l-5.273-8.532v8.532h-2.453zM92.28 508.012h2.507v-2.508H92.28v2.508zM101.893 508.011v-13.083h2.571l5.352 8.74v-8.74h2.454v13.083h-2.65l-5.273-8.532v8.532h-2.454zM116.956 501.462c0 1.48.34 2.603 1.025 3.367.684.767 1.553 1.148 2.606 1.148s1.919-.378 2.593-1.139c.675-.757 1.012-1.897 1.012-3.411 0-1.5-.328-2.616-.986-3.358-.656-.735-1.53-1.104-2.62-1.104-1.087 0-1.966.372-2.63 1.12-.666.745-1 1.871-1 3.377m-2.72.089c0-1.33.197-2.45.598-3.355a6.17 6.17 0 0 1 1.215-1.795c.516-.528 1.08-.922 1.693-1.177.815-.344 1.753-.516 2.82-.516 1.924 0 3.468.595 4.626 1.792 1.155 1.197 1.734 2.858 1.734 4.99 0 2.11-.573 3.765-1.721 4.955-1.149 1.194-2.683 1.792-4.605 1.792-1.944 0-3.49-.595-4.639-1.782s-1.721-2.823-1.721-4.904M128.334 494.93h9.056v2.211h-5.798l3.38 4.036-3.73 4.63h6.425v2.206h-9.502v-2.448l3.507-4.388-3.338-3.892v-2.355zM141.55 501.462c0 1.48.343 2.603 1.027 3.367.685.767 1.55 1.148 2.603 1.148 1.054 0 1.919-.378 2.594-1.139.674-.757 1.011-1.897 1.011-3.411 0-1.5-.327-2.616-.986-3.358-.655-.735-1.53-1.104-2.619-1.104-1.088 0-1.966.372-2.631 1.12-.665.745-1 1.871-1 3.377m-2.72.089c0-1.33.2-2.45.598-3.355a6.17 6.17 0 0 1 1.216-1.795c.515-.528 1.078-.922 1.693-1.177.814-.344 1.753-.516 2.819-.516 1.928 0 3.468.595 4.626 1.792 1.155 1.197 1.735 2.858 1.735 4.99 0 2.11-.573 3.765-1.722 4.955-1.149 1.194-2.682 1.792-4.604 1.792-1.944 0-3.49-.595-4.64-1.782-1.148-1.187-1.72-2.823-1.72-4.904M153.32 508.011v-13.083h2.642v5.811l5.336-5.81h3.551l-4.926 5.098 5.193 7.984H161.7l-3.596-6.139-2.141 2.187v3.952h-2.641z" transform="translate(-41.86 -274.034)"/><path style="fill:#000;fill-opacity:1;fill-rule:nonzero;stroke:none" d="M167.536 501.462c0 1.48.34 2.603 1.024 3.367.684.767 1.553 1.148 2.606 1.148s1.919-.378 2.593-1.139c.675-.757 1.012-1.897 1.012-3.411 0-1.5-.327-2.616-.986-3.358-.656-.735-1.53-1.104-2.619-1.104-1.088 0-1.966.372-2.631 1.12-.665.745-1 1.871-1 3.377m-2.72.089c0-1.33.197-2.45.598-3.355a6.169 6.169 0 0 1 1.216-1.795c.515-.528 1.078-.922 1.692-1.177.815-.344 1.754-.516 2.82-.516 1.928 0 3.468.595 4.626 1.792 1.155 1.197 1.734 2.858 1.734 4.99 0 2.11-.572 3.765-1.721 4.955-1.149 1.194-2.682 1.792-4.604 1.792-1.944 0-3.49-.595-4.64-1.782-1.148-1.187-1.721-2.823-1.721-4.904M179.235 508.011v-13.083h3.952l2.373 8.924 2.349-8.924h3.958v13.083h-2.453v-10.298l-2.597 10.298h-2.542l-2.587-10.298v10.298h-2.453zM194.2 508.011v-13.083h9.698v2.215h-7.057v2.9h6.567v2.205h-6.567v3.561h7.305v2.202H194.2zM206.013 508.012h2.641v-13.083h-2.64v13.083zM213.065 501.462c0 1.48.34 2.603 1.025 3.367.684.767 1.553 1.148 2.606 1.148s1.918-.378 2.593-1.139c.675-.757 1.012-1.897 1.012-3.411 0-1.5-.328-2.616-.986-3.358-.656-.735-1.531-1.104-2.62-1.104-1.087 0-1.966.372-2.63 1.12-.666.745-1 1.871-1 3.377m-2.72.089c0-1.33.197-2.45.598-3.355a6.17 6.17 0 0 1 1.215-1.795c.516-.528 1.079-.922 1.693-1.177.815-.344 1.753-.516 2.82-.516 1.924 0 3.468.595 4.626 1.792 1.155 1.197 1.734 2.858 1.734 4.99 0 2.11-.573 3.765-1.721 4.955-1.15 1.194-2.683 1.792-4.605 1.792-1.944 0-3.49-.595-4.639-1.782s-1.721-2.823-1.721-4.904M62.893 523.14v-2.206h5.692v5.213c-.553.534-1.355 1.005-2.405 1.413a8.752 8.752 0 0 1-3.188.61c-1.369 0-2.562-.286-3.58-.858a5.506 5.506 0 0 1-2.291-2.464c-.512-1.069-.767-2.23-.767-3.484 0-1.366.283-2.575.856-3.635.57-1.056 1.406-1.871 2.507-2.434.837-.436 1.88-.65 3.131-.65 1.623 0 2.893.338 3.806 1.019.913.68 1.499 1.623 1.763 2.826l-2.625.49c-.185-.643-.532-1.149-1.038-1.521-.509-.373-1.145-.557-1.906-.557-1.155 0-2.071.363-2.752 1.098-.68.728-1.021 1.817-1.021 3.255 0 1.553.343 2.718 1.034 3.495.69.776 1.594 1.164 2.714 1.164.55 0 1.107-.108 1.66-.327a5.75 5.75 0 0 0 1.436-.79v-1.658h-3.026zM76.34 522.398c-.017-.726-.203-1.276-.563-1.655a1.717 1.717 0 0 0-1.301-.567c-.547 0-1 .198-1.356.599-.356.398-.534.939-.528 1.623h3.749zm-.142 2.533 2.497.42c-.321.917-.827 1.614-1.52 2.094-.694.478-1.56.716-2.6.716-1.649 0-2.867-.538-3.66-1.613-.623-.863-.935-1.951-.935-3.265 0-1.573.41-2.804 1.231-3.692.821-.888 1.859-1.334 3.112-1.334 1.41 0 2.524.465 3.338 1.398.815.932 1.206 2.358 1.168 4.277h-6.281c.02.744.22 1.324.608 1.737.385.414.868.621 1.444.621.395 0 .722-.108.99-.321.27-.217.47-.56.608-1.038M89.2 527.948h-2.507v-4.837c0-1.022-.055-1.683-.16-1.986a1.403 1.403 0 0 0-.521-.697c-.242-.169-.532-.251-.872-.251a2 2 0 0 0-1.168.356 1.792 1.792 0 0 0-.71.946c-.127.391-.19 1.12-.19 2.176v4.293h-2.508v-9.477h2.33v1.394c.823-1.072 1.867-1.607 3.12-1.607.554 0 1.06.099 1.519.3.458.196.801.451 1.037.763.235.309.4.659.493 1.05.09.395.137.955.137 1.687v5.89zM91.45 527.947h2.507v-2.508H91.45v2.508zM101.046 527.948v-13.083h2.64v5.15h5.175v-5.15h2.64v13.083h-2.64v-5.722h-5.174v5.722h-2.641zM115.912 523.21c0 .94.223 1.659.668 2.159.45.5.996.75 1.652.75.655 0 1.203-.25 1.645-.75.445-.5.665-1.226.665-2.177 0-.93-.22-1.642-.665-2.142-.442-.5-.99-.751-1.645-.751-.656 0-1.203.251-1.652.751-.445.5-.668 1.219-.668 2.16m-2.57-.133c0-.833.206-1.639.616-2.418.411-.78.993-1.375 1.744-1.786.754-.41 1.594-.617 2.52-.617 1.435 0 2.61.468 3.526 1.397.916.932 1.375 2.11 1.375 3.53 0 1.435-.465 2.622-1.388 3.564-.926.945-2.09 1.416-3.494 1.416a5.52 5.52 0 0 1-2.485-.589 4.037 4.037 0 0 1-1.797-1.728c-.411-.757-.618-1.68-.618-2.769M123.909 525.246l2.517-.386c.105.49.324.86.649 1.111.328.255.786.382 1.374.382.65 0 1.136-.12 1.464-.36l.331-.668-.178-.47c-.127-.122-.404-.233-.84-.332-2.02-.449-3.303-.856-3.844-1.225-.75-.51-1.126-1.222-1.126-2.132 0-.821.324-1.509.973-2.069.65-.56 1.655-.84 3.017-.84 1.295 0 2.259.21 2.89.636.63.42 1.065 1.044 1.304 1.872l-2.365.439a1.485 1.485 0 0 0-.575-.85c-.284-.197-.688-.293-1.21-.293-.661 0-1.132.093-1.419.274l-.286.51.251.454c.226.17 1.006.401 2.342.707 1.333.302 2.266.674 2.797 1.114.522.448.786 1.069.786 1.865 0 .868-.363 1.616-1.092 2.24-.725.627-1.797.939-3.22.939-1.288 0-2.31-.261-3.064-.786a3.632 3.632 0 0 1-1.476-2.132M137.071 523.049c0 1.066.21 1.852.633 2.361.423.51.939.764 1.544.764.582 0 1.069-.236 1.454-.7.388-.468.579-1.235.579-2.298 0-.996-.197-1.734-.595-2.215-.401-.484-.894-.722-1.483-.722-.611 0-1.12.235-1.524.71-.404.473-.608 1.17-.608 2.1m-2.482-4.577h2.339v1.391a3.478 3.478 0 0 1 1.231-1.158 3.381 3.381 0 0 1 1.722-.45c1.1 0 2.036.434 2.803 1.296.767.863 1.149 2.066 1.149 3.606 0 1.582-.385 2.813-1.158 3.688-.774.879-1.712 1.318-2.81 1.318-.525 0-1-.105-1.426-.312-.423-.21-.872-.566-1.342-1.07v4.771h-2.508v-13.08zM145.53 518.473h2.508v9.477h-2.508v-9.477zm0-3.606h2.508v2.32h-2.508v-2.32zM154.661 518.472v1.998h-1.712v3.82c0 .773.015 1.224.048 1.352l.223.318.423.124c.232 0 .57-.08 1.008-.242l.214 1.945c-.583.25-1.241.375-1.98.375-.451 0-.859-.076-1.222-.226-.362-.153-.63-.35-.798-.589-.169-.242-.287-.566-.353-.98-.054-.29-.08-.878-.08-1.763v-4.134h-1.152v-1.999h1.152v-1.884l2.517-1.463v3.347h1.712zM161.337 523.397c-.322.109-.83.236-1.524.386-.697.146-1.152.292-1.365.436-.328.232-.494.528-.494.884 0 .35.13.653.395.907.26.258.595.385.999.385.452 0 .881-.15 1.292-.445.305-.226.503-.503.598-.83.067-.214.099-.621.099-1.223v-.5zm-3.354-2.033-2.275-.41c.254-.917.694-1.595 1.32-2.037.624-.44 1.553-.66 2.785-.66 1.116 0 1.95.134 2.497.399.548.264.933.598 1.156 1.005.222.408.334 1.159.334 2.244l-.03 2.928c0 .834.042 1.448.122 1.842.083.398.232.821.452 1.273h-2.482a11.035 11.035 0 0 1-.239-.738l-.089-.296c-.43.417-.888.729-1.375.936a3.903 3.903 0 0 1-1.562.312c-.974 0-1.744-.265-2.307-.796-.56-.528-.843-1.197-.843-2.005 0-.535.13-1.012.385-1.432.255-.42.614-.742 1.076-.964.46-.223 1.126-.417 1.991-.586 1.175-.22 1.986-.423 2.438-.614v-.251c0-.481-.118-.825-.357-1.032-.238-.203-.687-.305-1.349-.305-.445 0-.792.09-1.043.264-.249.175-.452.484-.605.923M165.978 527.95h2.507v-13.083h-2.507v13.083z" transform="translate(-41.86 -274.034)"/><path style="fill:#fff;fill-opacity:1;fill-rule:evenodd;stroke:none" d="M342.155 468.578h-33.182c-2.727-13.255-13.285-23.633-26.62-26.128l-1.346-32.853s-4.671-6.333-6.437-6.126c-1.766.207-6.542 6.543-6.542 6.543v32.878c-12.299 3.074-21.905 12.92-24.594 25.37l-34.976 1.433s-6.332 4.672-6.125 6.438c.21 1.763 6.542 6.54 6.542 6.54h34.613c2.928 13.146 13.565 23.356 26.93 25.67v35.62h12.043v-35.707c3.726-.71 7.191-2.097 10.367-3.93l-4.837-10.938c-3.49 2.59-7.796 4.144-12.476 4.144-11.583 0-20.973-9.392-20.973-20.976s9.39-20.975 20.973-20.975c11.582 0 20.972 9.39 20.972 20.975 0 3.084-.684 6.002-1.877 8.637l11.512 4.917c1.12-2.272 2.062-4.643 2.648-7.17l33.802-1.384s6.332-4.672 6.125-6.435c-.21-1.767-6.542-6.543-6.542-6.543" transform="translate(-41.86 -274.034)"/></svg>