<svg xmlns="http://www.w3.org/2000/svg" width="76.17" height="146.961"><defs><clipPath clipPathUnits="userSpaceOnUse" id="b"><path d="M112.819 401.177h76.28v121.107h-76.28V401.177z"/></clipPath><clipPath clipPathUnits="userSpaceOnUse" id="a"><path d="M0 0h311v595H0V0z"/></clipPath></defs><g clip-path="url(#a)" transform="matrix(1.25 0 0 -1.25 -150.52 649.996)"><path d="m0 0-6.052.065v17.359L0 17.387V0z" style="fill:#fff;fill-opacity:1;fill-rule:nonzero;stroke:none" transform="translate(154.301 424.363)"/><path d="m0 0-6.052.065v17.359L0 17.387V0z" style="fill:none;stroke:#000;stroke-width:1.09800005;stroke-linecap:butt;stroke-linejoin:miter;stroke-miterlimit:4;stroke-opacity:1;stroke-dasharray:none" transform="translate(154.301 424.363)"/><path d="m0 0-59.838.405V80.92L0 80.932V0z" style="fill:#ffdb00;fill-opacity:1;fill-rule:nonzero;stroke:none" transform="translate(180.803 438.516)"/><path d="m0 0-59.838.405V80.92L0 80.932V0z" style="fill:none;stroke:#ed1d24;stroke-width:1.09800005;stroke-linecap:butt;stroke-linejoin:miter;stroke-miterlimit:4;stroke-opacity:1;stroke-dasharray:none" transform="translate(180.803 438.516)"/><path d="M0 0h-8.394L7.135 27.184 22.918 0H0z" style="fill:#fff;fill-opacity:1;fill-rule:evenodd;stroke:none" transform="translate(144.082 483.2)"/></g><g clip-path="url(#b)" transform="matrix(1.25 0 0 -1.25 -150.52 649.996)"><path d="M0 0h27.774L13.892 24.031 0 0zm29.136-3.104c.826 0 1.586.444 2 1.163a2.289 2.289 0 0 1 0 2.325l-15.232 26.37a2.325 2.325 0 0 1-4.027-.007L-3.359.384a2.331 2.331 0 0 1 0-2.325A2.337 2.337 0 0 1-1.34-3.104h30.476z" style="fill:#ed1d24;fill-opacity:1;fill-rule:evenodd;stroke:none" transform="translate(137.383 484.344)"/><path d="M0 0v-1.556h-20.7V0h2.985c.526 0 1.031.201 1.414.559l.013-.014a8.803 8.803 0 0 0 5.934 2.304A8.805 8.805 0 0 0-4.477.596l.002.005A2.06 2.06 0 0 1-3.045 0H0z" style="fill:#000;fill-opacity:1;fill-rule:evenodd;stroke:none" transform="translate(161.57 487.17)"/><path d="m0 0-47.899.282v29.082L0 29.459V0z" style="fill:#ed1d24;fill-opacity:1;fill-rule:nonzero;stroke:none" transform="translate(175.224 442.61)"/><path d="m0 0-47.899.282v29.082L0 29.459V0z" style="fill:none;stroke:#bcbec0;stroke-width:1.64600003;stroke-linecap:butt;stroke-linejoin:miter;stroke-miterlimit:4;stroke-opacity:1;stroke-dasharray:none" transform="translate(175.224 442.61)"/><path d="M0 0v3.772h.762V2.097L2.3 3.772h1.024l-1.42-1.469L3.401 0h-.985L1.38 1.77l-.618-.631V0H0z" style="fill:#dadbdc;fill-opacity:1;fill-rule:nonzero;stroke:none" transform="translate(135.383 464.505)"/><path d="M0 0v1.588l-1.382 2.184h.893l.888-1.493.869 1.493h.877L.759 1.582V0H0z" style="fill:#dadbdc;fill-opacity:1;fill-rule:nonzero;stroke:none" transform="translate(140.169 464.505)"/><path d="M0 0v-1.07h.417c.3 0 .5.02.601.059a.494.494 0 0 1 .325.479c0 .137-.041.25-.121.339a.516.516 0 0 1-.307.167C.825-.009.642 0 .368 0H0zm-.761-3.133V.638H.461c.463 0 .764-.018.905-.056a.991.991 0 0 0 .543-.37c.146-.189.219-.434.219-.734 0-.231-.042-.426-.127-.584a1.027 1.027 0 0 0-.32-.372 1.115 1.115 0 0 0-.395-.179 4.35 4.35 0 0 0-.79-.054H0v-1.422h-.761z" style="fill:#dadbdc;fill-opacity:1;fill-rule:nonzero;stroke:none" transform="translate(143.453 467.638)"/><path d="M0 0v3.133h-1.119v.639h2.997v-.639H.761V0H0z" style="fill:#dadbdc;fill-opacity:1;fill-rule:nonzero;stroke:none" transform="translate(147.055 464.505)"/><path d="M0 0v.636h.731c-.448.469-.672.975-.672 1.517 0 .474.161.873.481 1.197.321.323.761.486 1.32.486.554 0 .992-.161 1.315-.484.323-.322.483-.722.483-1.199 0-.542-.224-1.048-.671-1.517h.734V0H1.994v.607c.29.108.509.283.657.525.149.242.223.52.223.836 0 .324-.086.608-.256.852-.171.243-.424.365-.758.365-.333 0-.584-.121-.756-.363a1.443 1.443 0 0 1-.257-.854c0-.317.074-.597.222-.837a1.26 1.26 0 0 1 .658-.524V0H0z" style="fill:#dadbdc;fill-opacity:1;fill-rule:nonzero;stroke:none" transform="translate(149.197 464.505)"/><path d="M0 0v3.772h1.139l.685-2.573.677 2.573h1.141V0h-.707v2.969L2.187 0h-.733L.707 2.969V0H0z" style="fill:#dadbdc;fill-opacity:1;fill-rule:nonzero;stroke:none" transform="translate(153.542 464.505)"/><path d="m0 0-.519 1.399L-1.029 0H0zm1.402-1.492H.575l-.331.856h-1.507l-.311-.856h-.808l1.469 3.771h.806l1.509-3.771z" style="fill:#dadbdc;fill-opacity:1;fill-rule:nonzero;stroke:none" transform="translate(159.94 465.997)"/><path d="M0 0v3.133h-1.119v.639h2.997v-.639H.761V0H0z" style="fill:#dadbdc;fill-opacity:1;fill-rule:nonzero;stroke:none" transform="translate(162.158 464.505)"/><path d="m0 0-.519 1.399L-1.029 0H0zm1.402-1.492H.574l-.33.856h-1.507l-.311-.856h-.808l1.469 3.771h.806l1.509-3.771z" style="fill:#dadbdc;fill-opacity:1;fill-rule:nonzero;stroke:none" transform="translate(166.134 465.997)"/><path d="M0 0c0-.428.099-.751.296-.971a.96.96 0 0 1 .75-.331c.305 0 .553.109.748.328.194.218.292.546.292.984 0 .432-.094.754-.284.968-.19.212-.442.318-.756.318A.969.969 0 0 1 .287.973C.095.758 0 .433 0 0m-.785-.026c0 .384.057.707.172.967.086.192.203.365.351.517.148.153.311.266.488.34.235.099.506.149.813.149.556 0 1-.172 1.334-.517.334-.345.5-.824.5-1.439 0-.608-.165-1.084-.497-1.429-.331-.344-.772-.515-1.327-.515-.56 0-1.006.171-1.337.513-.332.342-.497.814-.497 1.414" style="fill:#dadbdc;fill-opacity:1;fill-rule:nonzero;stroke:none" transform="translate(130.31 460.071)"/><path d="m0 0-.849 2.256L-1.672 0H0zm1.072-.636h-3.784l1.468 3.771h.807L1.072-.636z" style="fill:#dadbdc;fill-opacity:1;fill-rule:nonzero;stroke:none" transform="translate(135.964 458.818)"/><path d="M0 0c0-.428.099-.751.296-.971a.96.96 0 0 1 .75-.331c.305 0 .553.109.748.328.194.218.292.546.292.984 0 .432-.094.754-.284.968-.19.212-.442.318-.756.318A.969.969 0 0 1 .287.973C.095.758 0 .433 0 0m-.785-.026c0 .384.057.707.172.967.086.192.203.365.351.517.148.153.311.266.488.34.235.099.506.149.813.149.556 0 1-.172 1.334-.517.334-.345.5-.824.5-1.439 0-.608-.165-1.084-.497-1.429-.331-.344-.772-.515-1.327-.515-.56 0-1.006.171-1.337.513-.332.342-.497.814-.497 1.414" style="fill:#dadbdc;fill-opacity:1;fill-rule:nonzero;stroke:none" transform="translate(137.911 460.071)"/><path d="M0 0h2.611v-.638H.939l.974-1.163L.838-3.135h1.853v-.636h-2.74v.705L.962-1.801 0-.679V0z" style="fill:#dadbdc;fill-opacity:1;fill-rule:nonzero;stroke:none" transform="translate(141.276 461.954)"/><path d="M0 0v3.133h-1.119v.638h2.997v-.638H.761V0H0z" style="fill:#dadbdc;fill-opacity:1;fill-rule:nonzero;stroke:none" transform="translate(145.39 458.183)"/><path d="M0 0v-1.07h.417c.3 0 .501.019.601.059a.498.498 0 0 1 .325.478.491.491 0 0 1-.121.34.522.522 0 0 1-.307.167C.825-.009.642 0 .368 0H0zm-.761-3.133V.638H.461c.463 0 .764-.018.905-.056a.991.991 0 0 0 .543-.37c.146-.19.219-.434.219-.734 0-.232-.042-.427-.127-.584a1.027 1.027 0 0 0-.32-.372 1.094 1.094 0 0 0-.395-.178 4.244 4.244 0 0 0-.79-.055H0v-1.422h-.761z" style="fill:#dadbdc;fill-opacity:1;fill-rule:nonzero;stroke:none" transform="translate(148.52 461.316)"/><path d="M0 0v.636h.731c-.448.469-.672.975-.672 1.517 0 .473.161.872.481 1.197.321.323.761.485 1.32.485.554 0 .992-.161 1.315-.483.323-.323.483-.722.483-1.199 0-.542-.224-1.048-.671-1.517h.734V0H1.994v.607c.29.108.509.283.657.525.149.242.223.521.223.836 0 .324-.086.608-.256.851-.171.245-.424.366-.758.366-.333 0-.584-.121-.756-.363a1.44 1.44 0 0 1-.257-.854c0-.317.074-.596.222-.837a1.26 1.26 0 0 1 .658-.524V0H0z" style="fill:#dadbdc;fill-opacity:1;fill-rule:nonzero;stroke:none" transform="translate(151.141 458.183)"/><path d="M0 0v3.771h1.139l.685-2.573.677 2.573h1.141V0h-.707v2.969L2.187 0h-.733L.707 2.969V0H0z" style="fill:#dadbdc;fill-opacity:1;fill-rule:nonzero;stroke:none" transform="translate(155.487 458.183)"/><path d="m0 0-.519 1.4-.51-1.4H0zm1.402-1.492H.575l-.331.856h-1.507l-.311-.856h-.808l1.469 3.771h.806l1.509-3.771z" style="fill:#dadbdc;fill-opacity:1;fill-rule:nonzero;stroke:none" transform="translate(161.884 459.675)"/><path d="M0 0v3.133h-1.119v.638h2.997v-.638H.761V0H0z" style="fill:#dadbdc;fill-opacity:1;fill-rule:nonzero;stroke:none" transform="translate(164.103 458.183)"/><path d="M0 0c0-.428.099-.751.296-.971a.96.96 0 0 1 .75-.331c.305 0 .553.109.748.328.194.218.292.546.292.984 0 .432-.094.754-.284.968-.19.212-.442.318-.756.318A.969.969 0 0 1 .287.973C.095.758 0 .433 0 0m-.785-.026c0 .384.057.707.172.967.086.192.204.365.351.517.148.153.311.266.488.34.235.099.506.149.813.149.556 0 1-.172 1.334-.517.334-.345.5-.824.5-1.439 0-.608-.165-1.084-.497-1.429-.331-.344-.772-.515-1.327-.515-.56 0-1.006.171-1.337.513-.332.342-.497.814-.497 1.414" style="fill:#dadbdc;fill-opacity:1;fill-rule:nonzero;stroke:none" transform="translate(167.006 460.071)"/><path d="M0 0h2.611v-.638H.939l.974-1.163L.838-3.135h1.853v-.636h-2.74v.705L.962-1.801 0-.679V0z" style="fill:#dadbdc;fill-opacity:1;fill-rule:nonzero;stroke:none" transform="translate(170.371 461.954)"/><path d="M0 0h.564c.365 0 .594.016.684.047l.214.159c.052.076.077.17.077.283a.45.45 0 0 1-.102.307.458.458 0 0 1-.287.148 6.165 6.165 0 0 1-.555.013H0V0zm-.761-2.176v3.771H.841c.404 0 .696-.033.879-.101a.862.862 0 0 0 .439-.362c.109-.173.165-.371.165-.594 0-.283-.084-.517-.25-.701-.166-.184-.415-.3-.746-.348.164-.097.3-.202.407-.317.108-.115.252-.319.435-.613l.459-.735h-.91l-.551.821a5.443 5.443 0 0 1-.4.554l-.23.157c-.08.029-.208.043-.384.043H0v-1.575h-.761z" style="fill:#dadbdc;fill-opacity:1;fill-rule:nonzero;stroke:none" transform="translate(136.175 454.036)"/><path d="M0 0c0-.27.064-.478.193-.622a.613.613 0 0 1 .476-.216c.188 0 .347.072.475.216.127.144.192.353.192.627 0 .268-.065.474-.192.618a.608.608 0 0 1-.475.216.61.61 0 0 1-.476-.216C.064.479 0 .271 0 0m-.741.039c0 .24.059.472.177.697.119.224.286.396.504.515.217.118.459.177.727.177.412 0 .751-.134 1.016-.402.264-.269.396-.608.396-1.017 0-.414-.133-.757-.4-1.028a1.35 1.35 0 0 0-1.008-.409c-.25 0-.489.057-.716.171-.227.112-.4.278-.519.497a1.667 1.667 0 0 0-.177.799" style="fill:#dadbdc;fill-opacity:1;fill-rule:nonzero;stroke:none" transform="translate(139.785 453.226)"/><path d="M0 0a4.246 4.246 0 0 0-.439-.11C-.64-.153-.772-.195-.833-.237a.3.3 0 0 1-.141-.254c0-.102.037-.189.112-.263a.396.396 0 0 1 .289-.11c.13 0 .255.043.373.129l.172.239C-.01-.435 0-.317 0-.144V0zm-.967.586-.656.119c.074.264.201.459.381.587.18.126.448.189.803.189.322 0 .562-.037.72-.113a.723.723 0 0 0 .333-.292C.679.959.711.744.711.43L.702-.414c0-.24.012-.418.036-.531.022-.114.066-.236.129-.367H.152l-.069.213-.026.085a1.285 1.285 0 0 0-.397-.27 1.13 1.13 0 0 0-.45-.09c-.281 0-.503.077-.665.229a.763.763 0 0 0-.243.579c0 .154.038.292.11.413a.722.722 0 0 0 .311.277c.133.065.324.121.575.17.338.063.572.122.702.177v.071C0 .682-.034.78-.103.84c-.068.059-.198.088-.388.088A.516.516 0 0 1-.792.853.523.523 0 0 1-.967.586" style="fill:#dadbdc;fill-opacity:1;fill-rule:nonzero;stroke:none" transform="translate(143.937 453.173)"/><path d="M0 0c0-.292.041-.503.121-.633A.547.547 0 0 1 .61-.916a.53.53 0 0 1 .424.212c.117.141.175.352.175.634 0 .314-.056.54-.169.678a.54.54 0 0 1-.435.207.542.542 0 0 1-.431-.204C.058.474 0 .27 0 0m1.929-1.426h-.671v.401a1.09 1.09 0 0 0-.394-.348 1.023 1.023 0 0 0-.46-.115c-.314 0-.582.127-.806.38-.224.253-.336.606-.336 1.059 0 .463.109.814.326 1.056.219.241.493.361.827.361.305 0 .569-.127.792-.381v1.358h.722v-3.771z" style="fill:#dadbdc;fill-opacity:1;fill-rule:nonzero;stroke:none" transform="translate(145.936 453.286)"/><path d="M0 0v3.771h.761V2.287h1.492v1.484h.762V0h-.762v1.649H.761V0H0z" style="fill:#dadbdc;fill-opacity:1;fill-rule:nonzero;stroke:none" transform="translate(150.05 451.86)"/><path d="M0 0v.409a1.112 1.112 0 0 0-.905-.471 1.01 1.01 0 0 0-.494.121.704.704 0 0 0-.316.34c-.065.145-.099.347-.099.604v1.729h.724V1.477c0-.385.013-.62.04-.706l.145-.206A.442.442 0 0 1-.638.489a.57.57 0 0 1 .533.354c.036.1.054.346.054.737v1.152h.723V0H0z" style="fill:#dadbdc;fill-opacity:1;fill-rule:nonzero;stroke:none" transform="translate(155.645 451.86)"/><path d="M0 0h.667v-.373c.238.289.522.434.851.434a.911.911 0 0 0 .455-.107.833.833 0 0 0 .317-.327c.12.146.249.254.389.327a.949.949 0 0 0 .445.107c.2 0 .37-.041.509-.122a.756.756 0 0 0 .312-.358c.049-.117.074-.306.074-.566v-1.747h-.723v1.561c0 .272-.025.446-.075.525-.066.102-.169.154-.309.154a.49.49 0 0 1-.285-.092.518.518 0 0 1-.193-.271c-.039-.119-.059-.308-.059-.565v-1.312h-.723v1.497c0 .266-.013.437-.039.515l-.119.172-.221.056a.525.525 0 0 1-.3-.09.49.49 0 0 1-.192-.259C.743-.955.723-1.143.723-1.405v-1.327H0V0z" style="fill:#dadbdc;fill-opacity:1;fill-rule:nonzero;stroke:none" transform="translate(157.011 454.593)"/><path d="M0 0c0-.308.061-.534.182-.681A.56.56 0 0 1 .627-.9c.168 0 .309.066.42.201.112.135.167.356.167.663 0 .286-.057.499-.172.637A.53.53 0 0 1 .614.81.555.555 0 0 1 .175.606C.058.469 0 .267 0 0m-.715 1.32h.673V.918a1.012 1.012 0 0 0 .852.463c.318 0 .587-.125.807-.373.222-.249.333-.595.333-1.039 0-.457-.112-.812-.335-1.064a1.042 1.042 0 0 0-.81-.38.928.928 0 0 0-.411.09c-.122.06-.251.163-.387.309v-1.377h-.722V1.32z" style="fill:#dadbdc;fill-opacity:1;fill-rule:nonzero;stroke:none" transform="translate(162.445 453.273)"/><path d="m0 0 .726.11a.532.532 0 0 1 .187-.319c.094-.073.226-.109.397-.109.186 0 .327.034.421.103l.095.192-.051.137c-.035.034-.117.065-.241.095C.951.338.581.454.424.561a.705.705 0 0 0-.323.615.76.76 0 0 0 .279.597c.188.161.477.241.871.241.373 0 .652-.06.833-.182a.936.936 0 0 0 .376-.54l-.682-.127a.42.42 0 0 1-.166.245.61.61 0 0 1-.348.085c-.191 0-.327-.027-.41-.08l-.082-.147.072-.131c.065-.048.29-.115.675-.203.386-.087.654-.194.807-.322.151-.129.226-.308.226-.537 0-.251-.105-.466-.314-.646-.209-.18-.519-.27-.928-.27-.372 0-.667.076-.884.227C.209-.464.068-.258 0 0" style="fill:#dadbdc;fill-opacity:1;fill-rule:nonzero;stroke:none" transform="translate(164.713 452.64)"/><path d="m0 0-.519 1.4-.51-1.4H0zm1.402-1.492H.574l-.33.856h-1.507l-.311-.856h-.808l1.469 3.771h.806l1.509-3.771z" style="fill:#dadbdc;fill-opacity:1;fill-rule:nonzero;stroke:none" transform="translate(145.605 447.03)"/><path d="M0 0v-1.386c.233.272.511.408.836.408.166 0 .316-.03.45-.092a.733.733 0 0 0 .441-.555c.026-.117.037-.298.037-.544v-1.602h-.722v1.443c0 .287-.014.468-.042.545l-.145.185a.469.469 0 0 1-.261.067.613.613 0 0 1-.322-.086.513.513 0 0 1-.207-.264C.021-1.999 0-2.173 0-2.402v-1.369h-.724V0H0z" style="fill:#dadbdc;fill-opacity:1;fill-rule:nonzero;stroke:none" transform="translate(148.127 449.308)"/><path d="M0 0c-.005.209-.059.368-.162.477A.496.496 0 0 1-.537.64.5.5 0 0 1-.928.468C-1.031.353-1.082.197-1.081 0H0zm-.041-.731L.68-.852a1.188 1.188 0 0 0-.439-.603c-.2-.138-.45-.208-.75-.208-.475 0-.827.156-1.055.467-.18.248-.27.562-.27.941 0 .453.118.807.355 1.064s.536.384.898.384c.406 0 .727-.134.962-.402C.616.522.728.111.718-.443h-1.811c.005-.214.063-.381.174-.5a.55.55 0 0 1 .417-.179c.114 0 .209.031.287.093a.566.566 0 0 1 .174.298" style="fill:#dadbdc;fill-opacity:1;fill-rule:nonzero;stroke:none" transform="translate(152.247 447.138)"/><path d="M0 0a4.213 4.213 0 0 0-.44-.11c-.2-.043-.332-.085-.393-.127a.3.3 0 0 1-.141-.254c0-.102.037-.189.112-.263a.395.395 0 0 1 .288-.11.62.62 0 0 1 .373.129l.173.239C-.01-.435 0-.317 0-.144V0zm-.967.586-.656.119c.074.264.201.459.381.587.18.126.448.189.802.189.323 0 .563-.037.721-.113a.729.729 0 0 0 .333-.292C.678.959.711.744.711.43L.702-.414c0-.24.012-.418.035-.532.023-.113.067-.235.13-.366H.152l-.069.213-.026.085a1.296 1.296 0 0 0-.397-.27 1.13 1.13 0 0 0-.45-.09c-.281 0-.503.077-.665.229a.76.76 0 0 0-.243.579c0 .154.038.292.11.413a.722.722 0 0 0 .311.277c.133.065.324.121.575.17.337.063.572.122.702.177v.071C0 .682-.034.78-.103.84c-.069.059-.198.088-.388.088A.514.514 0 0 1-.792.853.523.523 0 0 1-.967.586" style="fill:#dadbdc;fill-opacity:1;fill-rule:nonzero;stroke:none" transform="translate(155.062 446.85)"/><path d="M0 0c0-.292.041-.503.121-.634a.549.549 0 0 1 .913-.07c.117.141.175.352.175.634 0 .314-.056.539-.169.678a.54.54 0 0 1-.436.207.542.542 0 0 1-.43-.204C.058.474 0 .27 0 0m1.929-1.426h-.671v.401a1.09 1.09 0 0 0-.394-.348 1.023 1.023 0 0 0-.46-.115c-.314 0-.582.127-.806.38-.224.253-.336.606-.336 1.059 0 .463.109.814.326 1.056.219.241.493.361.827.361.305 0 .569-.127.792-.381v1.358h.722v-3.771z" style="fill:#dadbdc;fill-opacity:1;fill-rule:nonzero;stroke:none" transform="translate(157.061 446.963)"/><path d="M0 0c5.46 0 9.956 4.476 9.956 9.938 0 5.481-4.496 9.958-9.956 9.958-5.482 0-9.958-4.477-9.958-9.958C-9.958 4.476-5.482 0 0 0" style="fill:#fff;fill-opacity:1;fill-rule:evenodd;stroke:none" transform="translate(151.276 404.912)"/><path d="M0 0c5.464 0 9.956 4.477 9.956 9.939 0 5.481-4.492 9.956-9.956 9.956-5.481 0-9.957-4.475-9.957-9.956C-9.957 4.477-5.481 0 0 0m0-2.483c6.845 0 12.441 5.595 12.441 12.422 0 6.848-5.596 12.443-12.441 12.443-6.844 0-12.44-5.595-12.44-12.443C-12.44 3.112-6.844-2.483 0-2.483" style="fill:#ed1d24;fill-opacity:1;fill-rule:evenodd;stroke:none" transform="translate(151.274 404.911)"/><path d="M0 0c.048-.273.167-.473.357-.597.189-.125.408-.188.658-.188.257 0 .485.085.682.255.197.168.296.41.296.723 0 .307-.091.557-.273.755-.18.197-.464.295-.851.295H.146v1.39h.748c.386 0 .66.092.821.277a.933.933 0 0 1 .241.628.799.799 0 0 1-.277.622.967.967 0 0 1-.664.248.99.99 0 0 1-.556-.188c-.185-.124-.306-.356-.363-.694l-1.702.302c.073.362.195.682.369.959A2.683 2.683 0 0 0 .181 5.922c.291.101.592.152.906.152.475 0 .887-.067 1.238-.2a2.48 2.48 0 0 0 .863-.53c.225-.222.392-.48.501-.773.109-.295.164-.603.164-.924 0-.137-.027-.29-.08-.459a2.105 2.105 0 0 0-.223-.489 2.341 2.341 0 0 0-.35-.44 1.376 1.376 0 0 0-.471-.314 1.92 1.92 0 0 0 .525-.339c.149-.136.272-.285.369-.446a1.979 1.979 0 0 0 .278-.991c0-.385-.069-.741-.206-1.061a2.39 2.39 0 0 0-.574-.828 2.636 2.636 0 0 0-.892-.538 3.38 3.38 0 0 0-1.166-.192c-.298 0-.594.04-.887.12A2.616 2.616 0 0 0-1.31-1.261a2.743 2.743 0 0 0-.404 1.02L0 0z" style="fill:#000;fill-opacity:1;fill-rule:nonzero;stroke:none" transform="translate(147.007 412.702)"/><path d="M0 0c0 .313-.084.547-.248.7-.165.152-.38.229-.646.229S-1.373.852-1.534.7c-.161-.153-.241-.387-.241-.7v-3.454c0-.314.08-.548.241-.7.161-.153.374-.23.64-.23s.481.077.646.23c.164.152.248.386.248.7V0zm1.787-3.465c0-.404-.075-.762-.224-1.076a2.36 2.36 0 0 0-.597-.79 2.657 2.657 0 0 0-.858-.489 3.003 3.003 0 0 0-1.002-.168c-.338 0-.668.055-.99.168a2.573 2.573 0 0 0-.851.489 2.386 2.386 0 0 0-.815 1.866V0c0 .402.074.76.223 1.074.149.314.346.58.592.798.245.216.529.381.851.494a3.03 3.03 0 0 0 1.992 0c.322-.113.608-.278.858-.494.249-.218.448-.484.597-.798C1.712.76 1.787.402 1.787 0v-3.465z" style="fill:#000;fill-opacity:1;fill-rule:nonzero;stroke:none" transform="translate(155.713 416.24)"/></g></svg>