<?xml version="1.0" encoding="UTF-8" standalone="no"?>
<!-- Created with Inkscape (http://www.inkscape.org/) -->

<svg
   xmlns:dc="http://purl.org/dc/elements/1.1/"
   xmlns:cc="http://creativecommons.org/ns#"
   xmlns:rdf="http://www.w3.org/1999/02/22-rdf-syntax-ns#"
   xmlns:svg="http://www.w3.org/2000/svg"
   xmlns="http://www.w3.org/2000/svg"
   xmlns:sodipodi="http://sodipodi.sourceforge.net/DTD/sodipodi-0.dtd"
   xmlns:inkscape="http://www.inkscape.org/namespaces/inkscape"
   width="89.462502"
   height="118.74"
   id="svg6419"
   version="1.1"
   inkscape:version="0.47 r22583"
   sodipodi:docname="Cyprus road sign school.svg">
  <defs
     id="defs6421">
    <inkscape:perspective
       sodipodi:type="inkscape:persp3d"
       inkscape:vp_x="0 : 526.18109 : 1"
       inkscape:vp_y="0 : 1000 : 0"
       inkscape:vp_z="744.09448 : 526.18109 : 1"
       inkscape:persp3d-origin="372.04724 : 350.78739 : 1"
       id="perspective6427" />
    <inkscape:perspective
       id="perspective6455"
       inkscape:persp3d-origin="300 : 200 : 1"
       inkscape:vp_z="600 : 300 : 1"
       inkscape:vp_y="0 : 1000 : 0"
       inkscape:vp_x="0 : 300 : 1"
       sodipodi:type="inkscape:persp3d" />
    <clipPath
       id="clipPath20">
      <path
         d="m 0.014999,205.28 205.270001,0 0,-205.28 -205.270001,0 0,205.28 z"
         id="path9" />
    </clipPath>
    <inkscape:perspective
       id="perspective6487"
       inkscape:persp3d-origin="0.5 : 0.33333333 : 1"
       inkscape:vp_z="1 : 0.5 : 1"
       inkscape:vp_y="0 : 1000 : 0"
       inkscape:vp_x="0 : 0.5 : 1"
       sodipodi:type="inkscape:persp3d" />
    <clipPath
       clipPathUnits="userSpaceOnUse"
       id="clipPath5883">
      <path
         d="m 233.519,209.338 34.845,0 0,34.016 -34.845,0 0,-34.016 z"
         id="path5885" />
    </clipPath>
    <inkscape:perspective
       id="perspective7191"
       inkscape:persp3d-origin="0.5 : 0.33333333 : 1"
       inkscape:vp_z="1 : 0.5 : 1"
       inkscape:vp_y="0 : 1000 : 0"
       inkscape:vp_x="0 : 0.5 : 1"
       sodipodi:type="inkscape:persp3d" />
    <clipPath
       clipPathUnits="userSpaceOnUse"
       id="clipPath6115">
      <path
         d="m 112.397,129.449 34.845,0 0,34.016 -34.845,0 0,-34.016 z"
         id="path6117" />
    </clipPath>
    <inkscape:perspective
       id="perspective7283"
       inkscape:persp3d-origin="0.5 : 0.33333333 : 1"
       inkscape:vp_z="1 : 0.5 : 1"
       inkscape:vp_y="0 : 1000 : 0"
       inkscape:vp_x="0 : 0.5 : 1"
       sodipodi:type="inkscape:persp3d" />
    <clipPath
       clipPathUnits="userSpaceOnUse"
       id="clipPath5487">
      <path
         d="m 52.071,490.394 34.845,0 0,34.016 -34.845,0 0,-34.016 z"
         id="path5489" />
    </clipPath>
    <inkscape:perspective
       id="perspective7383"
       inkscape:persp3d-origin="0.5 : 0.33333333 : 1"
       inkscape:vp_z="1 : 0.5 : 1"
       inkscape:vp_y="0 : 1000 : 0"
       inkscape:vp_x="0 : 0.5 : 1"
       sodipodi:type="inkscape:persp3d" />
    <clipPath
       clipPathUnits="userSpaceOnUse"
       id="clipPath5335">
      <path
         d="m 51.732,129.449 34.845,0 0,34.016 -34.845,0 0,-34.016 z"
         id="path5337" />
    </clipPath>
    <inkscape:perspective
       id="perspective7487"
       inkscape:persp3d-origin="0.5 : 0.33333333 : 1"
       inkscape:vp_z="1 : 0.5 : 1"
       inkscape:vp_y="0 : 1000 : 0"
       inkscape:vp_x="0 : 0.5 : 1"
       sodipodi:type="inkscape:persp3d" />
    <clipPath
       clipPathUnits="userSpaceOnUse"
       id="clipPath6159">
      <path
         d="m 234.152,129.449 34.845,0 0,34.016 -34.845,0 0,-34.016 z"
         id="path6161" />
    </clipPath>
    <inkscape:perspective
       id="perspective7591"
       inkscape:persp3d-origin="0.5 : 0.33333333 : 1"
       inkscape:vp_z="1 : 0.5 : 1"
       inkscape:vp_y="0 : 1000 : 0"
       inkscape:vp_x="0 : 0.5 : 1"
       sodipodi:type="inkscape:persp3d" />
    <clipPath
       clipPathUnits="userSpaceOnUse"
       id="clipPath6391">
      <path
         d="m 138.483,43.228 34.845,0 0,34.016 -34.845,0 0,-34.016 z"
         id="path6393" />
    </clipPath>
    <inkscape:perspective
       id="perspective7668"
       inkscape:persp3d-origin="0.5 : 0.33333333 : 1"
       inkscape:vp_z="1 : 0.5 : 1"
       inkscape:vp_y="0 : 1000 : 0"
       inkscape:vp_x="0 : 0.5 : 1"
       sodipodi:type="inkscape:persp3d" />
    <inkscape:perspective
       id="perspective7699"
       inkscape:persp3d-origin="0.5 : 0.33333333 : 1"
       inkscape:vp_z="1 : 0.5 : 1"
       inkscape:vp_y="0 : 1000 : 0"
       inkscape:vp_x="0 : 0.5 : 1"
       sodipodi:type="inkscape:persp3d" />
    <clipPath
       clipPathUnits="userSpaceOnUse"
       id="clipPath6143">
      <path
         d="M 0,0 311,0 311,595 0,595 0,0 z"
         id="path6145" />
    </clipPath>
    <inkscape:perspective
       id="perspective7742"
       inkscape:persp3d-origin="0.5 : 0.33333333 : 1"
       inkscape:vp_z="1 : 0.5 : 1"
       inkscape:vp_y="0 : 1000 : 0"
       inkscape:vp_x="0 : 0.5 : 1"
       sodipodi:type="inkscape:persp3d" />
    <clipPath
       clipPathUnits="userSpaceOnUse"
       id="clipPath6335">
      <path
         d="m 234.901,294.331 34.845,0 0,58.11 -34.845,0 0,-58.11 z"
         id="path6337" />
    </clipPath>
    <inkscape:perspective
       id="perspective9466"
       inkscape:persp3d-origin="0.5 : 0.33333333 : 1"
       inkscape:vp_z="1 : 0.5 : 1"
       inkscape:vp_y="0 : 1000 : 0"
       inkscape:vp_x="0 : 0.5 : 1"
       sodipodi:type="inkscape:persp3d" />
    <clipPath
       clipPathUnits="userSpaceOnUse"
       id="clipPath8409">
      <path
         d="m 32.598,401.177 76.28,0 0,121.107 -76.28,0 0,-121.107 z"
         id="path8411" />
    </clipPath>
    <inkscape:perspective
       id="perspective10290"
       inkscape:persp3d-origin="0.5 : 0.33333333 : 1"
       inkscape:vp_z="1 : 0.5 : 1"
       inkscape:vp_y="0 : 1000 : 0"
       inkscape:vp_x="0 : 0.5 : 1"
       sodipodi:type="inkscape:persp3d" />
    <clipPath
       clipPathUnits="userSpaceOnUse"
       id="clipPath8815">
      <path
         d="m 112.819,401.177 76.28,0 0,121.107 -76.28,0 0,-121.107 z"
         id="path8817" />
    </clipPath>
    <clipPath
       clipPathUnits="userSpaceOnUse"
       id="clipPath8787">
      <path
         d="M 0,0 311,0 311,595 0,595 0,0 z"
         id="path8789" />
    </clipPath>
    <inkscape:perspective
       id="perspective10621"
       inkscape:persp3d-origin="0.5 : 0.33333333 : 1"
       inkscape:vp_z="1 : 0.5 : 1"
       inkscape:vp_y="0 : 1000 : 0"
       inkscape:vp_x="0 : 0.5 : 1"
       sodipodi:type="inkscape:persp3d" />
    <clipPath
       clipPathUnits="userSpaceOnUse"
       id="clipPath8605">
      <path
         d="m 32.598,269.008 76.28,0 0,91.275 -76.28,0 0,-91.275 z"
         id="path8607" />
    </clipPath>
    <clipPath
       clipPathUnits="userSpaceOnUse"
       id="clipPath8585">
      <path
         d="M 0,0 311,0 311,595 0,595 0,0 z"
         id="path8587" />
    </clipPath>
    <inkscape:perspective
       id="perspective10943"
       inkscape:persp3d-origin="0.5 : 0.33333333 : 1"
       inkscape:vp_z="1 : 0.5 : 1"
       inkscape:vp_y="0 : 1000 : 0"
       inkscape:vp_x="0 : 0.5 : 1"
       sodipodi:type="inkscape:persp3d" />
    <clipPath
       clipPathUnits="userSpaceOnUse"
       id="clipPath9107">
      <path
         d="m 112.535,269.008 76.279,0 0,91.275 -76.279,0 0,-91.275 z"
         id="path9109" />
    </clipPath>
    <clipPath
       clipPathUnits="userSpaceOnUse"
       id="clipPath9087">
      <path
         d="M 0,0 311,0 311,595 0,595 0,0 z"
         id="path9089" />
    </clipPath>
    <inkscape:perspective
       id="perspective11337"
       inkscape:persp3d-origin="0.5 : 0.33333333 : 1"
       inkscape:vp_z="1 : 0.5 : 1"
       inkscape:vp_y="0 : 1000 : 0"
       inkscape:vp_x="0 : 0.5 : 1"
       sodipodi:type="inkscape:persp3d" />
    <clipPath
       clipPathUnits="userSpaceOnUse"
       id="clipPath9015">
      <path
         d="m 193.012,269.292 76.279,0 0,91.275 -76.279,0 0,-91.275 z"
         id="path9017" />
    </clipPath>
    <clipPath
       clipPathUnits="userSpaceOnUse"
       id="clipPath8995">
      <path
         d="M 0,0 311,0 311,595 0,595 0,0 z"
         id="path8997" />
    </clipPath>
    <inkscape:perspective
       id="perspective11494"
       inkscape:persp3d-origin="0.5 : 0.33333333 : 1"
       inkscape:vp_z="1 : 0.5 : 1"
       inkscape:vp_y="0 : 1000 : 0"
       inkscape:vp_x="0 : 0.5 : 1"
       sodipodi:type="inkscape:persp3d" />
    <clipPath
       clipPathUnits="userSpaceOnUse"
       id="clipPath7837">
      <path
         d="m 32.598,117.638 76.28,0 0,101.338 -76.28,0 0,-101.338 z"
         id="path7839" />
    </clipPath>
  </defs>
  <sodipodi:namedview
     id="base"
     pagecolor="#ffffff"
     bordercolor="#666666"
     borderopacity="1.0"
     inkscape:pageopacity="0.0"
     inkscape:pageshadow="2"
     inkscape:zoom="0.59068275"
     inkscape:cx="-82.543756"
     inkscape:cy="87.64427"
     inkscape:document-units="px"
     inkscape:current-layer="layer1"
     showgrid="false"
     inkscape:window-width="1600"
     inkscape:window-height="838"
     inkscape:window-x="-8"
     inkscape:window-y="-8"
     inkscape:window-maximized="1" />
  <metadata
     id="metadata6424">
    <rdf:RDF>
      <cc:Work
         rdf:about="">
        <dc:format>image/svg+xml</dc:format>
        <dc:type
           rdf:resource="http://purl.org/dc/dcmitype/StillImage" />
        <dc:title></dc:title>
      </cc:Work>
    </rdf:RDF>
  </metadata>
  <g
     inkscape:label="Livello 1"
     inkscape:groupmode="layer"
     id="layer1"
     transform="translate(-48.654602,-507.31408)">
    <g
       id="g7849"
       transform="matrix(1.25,0,0,-1.25,137.31148,622.56721)"
       style="fill:#ffffff;fill-opacity:1">
      <path
         d="m 0,0 c 0,-1.186 -1.042,-2.145 -2.325,-2.145 l -65.631,0 c -1.282,0 -2.325,0.959 -2.325,2.145 l 0,89.412 c 0,1.185 1.043,2.146 2.325,2.146 l 65.631,0 C -1.042,91.558 0,90.597 0,89.412 L 0,0 z"
         style="fill:#ffffff;stroke:#ed1d24;stroke-width:1.28900003000000000;stroke-linecap:butt;stroke-linejoin:miter;stroke-miterlimit:4;stroke-opacity:1;stroke-dasharray:none;fill-opacity:1"
         id="path7851" />
    </g>
    <g
       id="g7841"
       transform="matrix(1.25,0,0,-1.25,73.563857,559.13434)">
      <path
         d="M 0,0 32.622,0 16.317,28.225 0,0 z m 34.221,-3.646 c 0.971,0 1.863,0.521 2.349,1.366 0.497,0.845 0.497,1.886 0,2.731 L 18.68,31.423 c -0.489,0.843 -1.388,1.361 -2.363,1.361 -0.977,0 -1.88,-0.522 -2.367,-1.369 L -3.946,0.451 c -0.486,-0.845 -0.486,-1.886 0,-2.731 0.486,-0.845 1.4,-1.366 2.372,-1.366 l 35.795,0 z"
         style="fill:#ed1d24;fill-opacity:1;fill-rule:evenodd;stroke:none"
         id="path7843" />
    </g>
    <g
       id="g7845"
       transform="matrix(1.25,0,0,-1.25,109.07548,554.98433)">
      <path
         d="m 0,0 0,-1.828 -24.312,0 0,1.828 3.493,0 0.013,0 c 0.617,0 1.21,0.236 1.66,0.656 l 0.015,-0.016 c 1.905,1.739 4.392,2.706 6.97,2.706 2.546,0 5.006,-0.944 6.902,-2.646 l 0.003,0.006 C -4.808,0.261 -4.208,0.008 -3.577,0 L 0,0 z"
         style="fill:#000000;fill-opacity:1;fill-rule:evenodd;stroke:none"
         id="path7847" />
    </g>
    <g
       id="g7853"
       transform="matrix(1.25,0,0,-1.25,70.162979,575.36908)">
      <path
         d="m 0,0 0,4.43 0.895,0 0,-1.967 1.807,1.967 1.202,0 L 2.236,2.704 3.995,0 2.838,0 1.62,2.079 0.895,1.338 0.895,0 0,0 z"
         style="fill:#000000;fill-opacity:1;fill-rule:nonzero;stroke:none"
         id="path7855" />
    </g>
    <g
       id="g7857"
       transform="matrix(1.25,0,0,-1.25,77.189727,575.36908)">
      <path
         d="m 0,0 0,1.865 -1.623,2.565 1.049,0 1.042,-1.753 1.021,1.753 1.03,0 L 0.891,1.858 0.891,0 0,0 z"
         style="fill:#000000;fill-opacity:1;fill-rule:nonzero;stroke:none"
         id="path7859" />
    </g>
    <g
       id="g7861"
       transform="matrix(1.25,0,0,-1.25,82.011734,570.76897)">
      <path
         d="m 0,0 0,-1.256 0.49,0 c 0.352,0 0.588,0.022 0.706,0.069 0.12,0.046 0.213,0.119 0.28,0.218 0.068,0.098 0.101,0.213 0.101,0.344 0,0.161 -0.047,0.294 -0.142,0.398 C 1.341,-0.121 1.221,-0.056 1.075,-0.03 0.969,-0.01 0.754,0 0.432,0 L 0,0 z m -0.894,-3.68 0,4.43 1.435,0 C 1.085,0.75 1.439,0.728 1.604,0.683 1.858,0.617 2.071,0.472 2.242,0.249 2.414,0.027 2.499,-0.261 2.499,-0.613 2.499,-0.885 2.45,-1.113 2.351,-1.299 2.252,-1.484 2.126,-1.63 1.974,-1.736 1.823,-1.841 1.668,-1.911 1.511,-1.946 1.297,-1.988 0.988,-2.009 0.583,-2.009 l -0.583,0 0,-1.671 -0.894,0 z"
         style="fill:#000000;fill-opacity:1;fill-rule:nonzero;stroke:none"
         id="path7863" />
    </g>
    <g
       id="g7865"
       transform="matrix(1.25,0,0,-1.25,87.29961,575.36908)">
      <path
         d="m 0,0 0,3.68 -1.314,0 0,0.75 3.52,0 0,-0.75 -1.312,0 L 0.894,0 0,0 z"
         style="fill:#000000;fill-opacity:1;fill-rule:nonzero;stroke:none"
         id="path7867" />
    </g>
    <g
       id="g7869"
       transform="matrix(1.25,0,0,-1.25,90.445476,575.36908)">
      <path
         d="m 0,0 0,0.747 0.859,0 c -0.527,0.551 -0.79,1.145 -0.79,1.782 0,0.556 0.189,1.025 0.566,1.405 0.376,0.381 0.893,0.571 1.549,0.571 0.651,0 1.166,-0.189 1.545,-0.568 C 4.108,3.559 4.297,3.089 4.297,2.529 4.297,1.892 4.034,1.298 3.509,0.747 l 0.861,0 0,-0.747 -2.028,0 0,0.713 C 2.683,0.84 2.94,1.046 3.113,1.33 c 0.176,0.283 0.262,0.611 0.262,0.982 0,0.38 -0.1,0.713 -0.3,1 C 2.874,3.598 2.577,3.741 2.184,3.741 1.794,3.741 1.498,3.599 1.297,3.315 1.095,3.03 0.995,2.696 0.995,2.312 0.995,1.939 1.081,1.611 1.255,1.328 1.43,1.045 1.687,0.84 2.028,0.713 L 2.028,0 0,0 z"
         style="fill:#000000;fill-opacity:1;fill-rule:nonzero;stroke:none"
         id="path7871" />
    </g>
    <g
       id="g7873"
       transform="matrix(1.25,0,0,-1.25,96.825347,575.36908)">
      <path
         d="m 0,0 0,4.43 1.338,0 0.805,-3.022 0.794,3.022 1.341,0 0,-4.43 -0.831,0 0,3.487 L 2.568,0 1.707,0 0.831,3.487 0.831,0 0,0 z"
         style="fill:#000000;fill-opacity:1;fill-rule:nonzero;stroke:none"
         id="path7875" />
    </g>
    <g
       id="g7877"
       transform="matrix(1.25,0,0,-1.25,106.21748,573.17834)">
      <path
         d="M 0,0 -0.609,1.644 -1.209,0 0,0 z m 1.647,-1.753 -0.972,0 -0.388,1.006 -1.77,0 -0.365,-1.006 -0.949,0 1.724,4.43 0.947,0 1.773,-4.43 z"
         style="fill:#000000;fill-opacity:1;fill-rule:nonzero;stroke:none"
         id="path7879" />
    </g>
    <g
       id="g7881"
       transform="matrix(1.25,0,0,-1.25,109.47523,575.36908)">
      <path
         d="m 0,0 0,3.68 -1.314,0 0,0.75 3.52,0 0,-0.75 -1.312,0 L 0.894,0 0,0 z"
         style="fill:#000000;fill-opacity:1;fill-rule:nonzero;stroke:none"
         id="path7883" />
    </g>
    <g
       id="g7885"
       transform="matrix(1.25,0,0,-1.25,115.31223,573.17834)">
      <path
         d="M 0,0 -0.609,1.644 -1.209,0 0,0 z m 1.647,-1.753 -0.972,0 -0.388,1.006 -1.77,0 -0.365,-1.006 -0.95,0 1.725,4.43 0.947,0 1.773,-4.43 z"
         style="fill:#000000;fill-opacity:1;fill-rule:nonzero;stroke:none"
         id="path7887" />
    </g>
    <g
       id="g7889"
       transform="matrix(1.25,0,0,-1.25,62.714344,581.87797)">
      <path
         d="M 0,0 C 0,-0.502 0.116,-0.883 0.347,-1.141 0.579,-1.4 0.873,-1.53 1.229,-1.53 c 0.357,0 0.649,0.129 0.879,0.386 0.227,0.256 0.342,0.642 0.342,1.155 0,0.508 -0.111,0.887 -0.334,1.137 C 1.893,1.397 1.598,1.522 1.229,1.522 0.861,1.522 0.564,1.396 0.337,1.143 0.112,0.89 0,0.509 0,0 m -0.922,-0.03 c 0,0.45 0.067,0.829 0.202,1.135 0.101,0.226 0.239,0.428 0.413,0.607 0.174,0.18 0.365,0.312 0.573,0.399 C 0.541,2.228 0.86,2.286 1.22,2.286 1.873,2.286 2.395,2.085 2.787,1.679 3.179,1.274 3.374,0.711 3.374,-0.01 3.374,-0.725 3.18,-1.284 2.791,-1.688 2.402,-2.093 1.883,-2.294 1.233,-2.294 c -0.659,0 -1.183,0.201 -1.572,0.603 -0.389,0.402 -0.583,0.956 -0.583,1.661"
         style="fill:#000000;fill-opacity:1;fill-rule:nonzero;stroke:none"
         id="path7891" />
    </g>
    <g
       id="g7893"
       transform="matrix(1.25,0,0,-1.25,71.015984,583.71772)">
      <path
         d="M 0,0 -0.997,2.65 -1.964,0 0,0 z m 1.259,-0.747 -4.444,0 1.725,4.43 0.946,0 1.773,-4.43 z"
         style="fill:#000000;fill-opacity:1;fill-rule:nonzero;stroke:none"
         id="path7895" />
    </g>
    <g
       id="g7897"
       transform="matrix(1.25,0,0,-1.25,73.87548,581.87797)">
      <path
         d="M 0,0 C 0,-0.502 0.116,-0.883 0.347,-1.141 0.579,-1.4 0.872,-1.53 1.229,-1.53 c 0.357,0 0.649,0.129 0.878,0.386 0.228,0.256 0.343,0.642 0.343,1.155 0,0.508 -0.111,0.887 -0.334,1.137 C 1.893,1.397 1.598,1.522 1.229,1.522 0.861,1.522 0.564,1.396 0.337,1.143 0.112,0.89 0,0.509 0,0 m -0.922,-0.03 c 0,0.45 0.067,0.829 0.202,1.135 0.101,0.226 0.239,0.428 0.413,0.607 0.174,0.18 0.365,0.312 0.573,0.399 C 0.541,2.228 0.86,2.286 1.22,2.286 1.873,2.286 2.395,2.085 2.787,1.679 3.179,1.274 3.374,0.711 3.374,-0.01 3.374,-0.725 3.18,-1.284 2.791,-1.688 2.402,-2.093 1.883,-2.294 1.233,-2.294 c -0.659,0 -1.183,0.201 -1.572,0.603 -0.389,0.402 -0.583,0.956 -0.583,1.661"
         style="fill:#000000;fill-opacity:1;fill-rule:nonzero;stroke:none"
         id="path7899" />
    </g>
    <g
       id="g7901"
       transform="matrix(1.25,0,0,-1.25,78.815361,579.11447)">
      <path
         d="m 0,0 3.067,0 0,-0.749 -1.964,0 1.144,-1.366 -1.262,-1.568 2.175,0 0,-0.746 -3.218,0 0,0.828 1.187,1.486 L 0,-0.797 0,0 z"
         style="fill:#000000;fill-opacity:1;fill-rule:nonzero;stroke:none"
         id="path7903" />
    </g>
    <g
       id="g7905"
       transform="matrix(1.25,0,0,-1.25,84.855476,584.65097)">
      <path
         d="m 0,0 0,3.68 -1.314,0 0,0.749 3.52,0 0,-0.749 -1.312,0 L 0.894,0 0,0 z"
         style="fill:#000000;fill-opacity:1;fill-rule:nonzero;stroke:none"
         id="path7907" />
    </g>
    <g
       id="g7909"
       transform="matrix(1.25,0,0,-1.25,89.450737,580.05084)">
      <path
         d="m 0,0 0,-1.257 0.49,0 c 0.352,0 0.588,0.023 0.706,0.07 0.12,0.046 0.213,0.118 0.28,0.218 0.068,0.098 0.102,0.212 0.102,0.343 0,0.161 -0.048,0.295 -0.143,0.399 -0.094,0.105 -0.214,0.17 -0.36,0.197 C 0.969,-0.01 0.754,0 0.432,0 L 0,0 z m -0.894,-3.68 0,4.429 1.435,0 C 1.085,0.749 1.439,0.728 1.604,0.684 1.858,0.617 2.071,0.472 2.242,0.249 2.414,0.026 2.499,-0.261 2.499,-0.613 2.499,-0.885 2.45,-1.114 2.351,-1.299 2.252,-1.484 2.126,-1.63 1.974,-1.736 1.823,-1.842 1.668,-1.911 1.511,-1.945 1.297,-1.988 0.988,-2.009 0.583,-2.009 l -0.583,0 0,-1.671 -0.894,0 z"
         style="fill:#000000;fill-opacity:1;fill-rule:nonzero;stroke:none"
         id="path7911" />
    </g>
    <g
       id="g7913"
       transform="matrix(1.25,0,0,-1.25,93.300224,584.65097)">
      <path
         d="m 0,0 0,0.747 0.859,0 c -0.527,0.551 -0.79,1.145 -0.79,1.782 0,0.555 0.189,1.024 0.566,1.405 0.376,0.38 0.893,0.571 1.549,0.571 0.651,0 1.166,-0.189 1.545,-0.568 C 4.108,3.558 4.297,3.089 4.297,2.529 4.297,1.892 4.034,1.298 3.509,0.747 l 0.861,0 0,-0.747 -2.028,0 0,0.713 c 0.341,0.127 0.598,0.332 0.771,0.616 0.175,0.285 0.262,0.612 0.262,0.982 0,0.381 -0.1,0.714 -0.3,1 C 2.874,3.598 2.577,3.74 2.184,3.74 1.794,3.74 1.498,3.598 1.297,3.315 1.095,3.03 0.995,2.697 0.995,2.311 0.995,1.939 1.082,1.612 1.255,1.328 1.43,1.045 1.687,0.84 2.028,0.713 L 2.028,0 0,0 z"
         style="fill:#000000;fill-opacity:1;fill-rule:nonzero;stroke:none"
         id="path7915" />
    </g>
    <g
       id="g7917"
       transform="matrix(1.25,0,0,-1.25,99.678607,584.65097)">
      <path
         d="m 0,0 0,4.429 1.338,0 0.805,-3.021 0.794,3.021 1.341,0 0,-4.429 -0.831,0 0,3.487 L 2.568,0 1.707,0 0.831,3.487 0.831,0 0,0 z"
         style="fill:#000000;fill-opacity:1;fill-rule:nonzero;stroke:none"
         id="path7919" />
    </g>
    <g
       id="g7921"
       transform="matrix(1.25,0,0,-1.25,109.07222,582.46034)">
      <path
         d="M 0,0 -0.609,1.644 -1.209,0 0,0 z m 1.647,-1.752 -0.972,0 -0.388,1.005 -1.77,0 -0.365,-1.005 -0.949,0 1.724,4.429 0.947,0 1.773,-4.429 z"
         style="fill:#000000;fill-opacity:1;fill-rule:nonzero;stroke:none"
         id="path7923" />
    </g>
    <g
       id="g7925"
       transform="matrix(1.25,0,0,-1.25,112.32835,584.65097)">
      <path
         d="m 0,0 0,3.68 -1.314,0 0,0.749 3.52,0 0,-0.749 -1.312,0 L 0.894,0 0,0 z"
         style="fill:#000000;fill-opacity:1;fill-rule:nonzero;stroke:none"
         id="path7927" />
    </g>
    <g
       id="g7929"
       transform="matrix(1.25,0,0,-1.25,116.59322,581.87797)">
      <path
         d="M 0,0 C 0,-0.502 0.116,-0.883 0.347,-1.141 0.579,-1.4 0.873,-1.53 1.229,-1.53 c 0.357,0 0.649,0.129 0.879,0.386 0.227,0.256 0.342,0.642 0.342,1.155 0,0.508 -0.111,0.887 -0.334,1.137 C 1.893,1.397 1.598,1.522 1.229,1.522 0.861,1.522 0.564,1.396 0.337,1.143 0.112,0.89 0,0.509 0,0 m -0.922,-0.03 c 0,0.45 0.067,0.829 0.202,1.135 0.1,0.226 0.239,0.428 0.413,0.607 0.174,0.18 0.365,0.312 0.573,0.399 C 0.541,2.228 0.86,2.286 1.22,2.286 1.873,2.286 2.395,2.085 2.787,1.679 3.179,1.274 3.374,0.711 3.374,-0.01 3.374,-0.725 3.18,-1.284 2.791,-1.688 2.402,-2.093 1.883,-2.294 1.232,-2.294 c -0.658,0 -1.182,0.201 -1.571,0.603 -0.389,0.402 -0.583,0.956 -0.583,1.661"
         style="fill:#000000;fill-opacity:1;fill-rule:nonzero;stroke:none"
         id="path7931" />
    </g>
    <g
       id="g7933"
       transform="matrix(1.25,0,0,-1.25,121.5331,579.11447)">
      <path
         d="m 0,0 3.067,0 0,-0.749 -1.964,0 1.144,-1.366 -1.262,-1.568 2.175,0 0,-0.746 -3.218,0 0,0.828 1.187,1.486 L 0,-0.797 0,0 z"
         style="fill:#000000;fill-opacity:1;fill-rule:nonzero;stroke:none"
         id="path7935" />
    </g>
    <g
       id="g7937"
       transform="matrix(1.25,0,0,-1.25,68.102851,590.73822)">
      <path
         d="m 0,0 0.662,0 c 0.43,0 0.698,0.019 0.804,0.055 l 0.251,0.187 c 0.061,0.089 0.091,0.2 0.091,0.332 0,0.15 -0.04,0.27 -0.12,0.361 C 1.609,1.027 1.496,1.085 1.351,1.109 1.279,1.119 1.061,1.124 0.699,1.124 L 0,1.124 0,0 z m -0.894,-2.556 0,4.429 1.882,0 C 1.462,1.873 1.805,1.834 2.021,1.755 2.235,1.674 2.407,1.534 2.536,1.33 2.664,1.127 2.73,0.894 2.73,0.632 2.73,0.3 2.631,0.025 2.436,-0.191 2.241,-0.408 1.949,-0.544 1.56,-0.601 c 0.193,-0.113 0.352,-0.236 0.478,-0.371 0.126,-0.136 0.296,-0.375 0.51,-0.72 l 0.54,-0.864 -1.068,0 -0.648,0.965 C 1.143,-1.248 0.986,-1.03 0.902,-0.94 l -0.27,0.183 c -0.094,0.034 -0.244,0.051 -0.451,0.051 l -0.181,0 0,-1.85 -0.894,0 z"
         style="fill:#000000;fill-opacity:1;fill-rule:nonzero;stroke:none"
         id="path7939" />
    </g>
    <g
       id="g7941"
       transform="matrix(1.25,0,0,-1.25,73.403221,591.92797)">
      <path
         d="m 0,0 c 0,-0.317 0.076,-0.561 0.227,-0.73 0.151,-0.17 0.337,-0.254 0.559,-0.254 0.221,0 0.408,0.084 0.557,0.254 0.15,0.169 0.226,0.414 0.226,0.736 0,0.315 -0.076,0.557 -0.226,0.725 C 1.194,0.902 1.007,0.986 0.786,0.986 0.564,0.986 0.378,0.902 0.227,0.731 0.076,0.563 0,0.319 0,0 m -0.87,0.045 c 0,0.282 0.069,0.556 0.208,0.82 0.14,0.263 0.336,0.465 0.592,0.604 0.254,0.139 0.538,0.208 0.853,0.208 0.485,0 0.883,-0.157 1.194,-0.472 0.309,-0.316 0.464,-0.714 0.464,-1.195 0,-0.486 -0.156,-0.889 -0.469,-1.207 -0.314,-0.32 -0.708,-0.48 -1.184,-0.48 -0.293,0 -0.574,0.067 -0.841,0.2 -0.267,0.132 -0.469,0.328 -0.609,0.584 -0.139,0.257 -0.208,0.571 -0.208,0.938"
         style="fill:#000000;fill-opacity:1;fill-rule:nonzero;stroke:none"
         id="path7943" />
    </g>
    <g
       id="g7945"
       transform="matrix(1.25,0,0,-1.25,79.498345,592.00672)">
      <path
         d="m 0,0 c -0.108,-0.036 -0.281,-0.079 -0.516,-0.13 -0.236,-0.05 -0.39,-0.099 -0.462,-0.148 -0.111,-0.078 -0.166,-0.178 -0.166,-0.299 0,-0.119 0.044,-0.221 0.132,-0.308 0.089,-0.087 0.201,-0.13 0.339,-0.13 0.153,0 0.299,0.051 0.438,0.151 l 0.202,0.281 C -0.011,-0.511 0,-0.373 0,-0.169 L 0,0 z m -1.136,0.689 -0.77,0.139 c 0.087,0.31 0.235,0.539 0.447,0.689 0.211,0.149 0.526,0.223 0.943,0.223 0.379,0 0.661,-0.044 0.846,-0.134 C 0.515,1.516 0.646,1.403 0.721,1.264 0.797,1.127 0.835,0.874 0.835,0.505 l -0.01,-0.991 c 0,-0.282 0.014,-0.491 0.041,-0.624 0.027,-0.134 0.078,-0.277 0.153,-0.431 l -0.84,0 -0.082,0.25 -0.03,0.1 c -0.145,-0.141 -0.3,-0.247 -0.466,-0.317 -0.165,-0.071 -0.341,-0.106 -0.529,-0.106 -0.33,0 -0.59,0.091 -0.78,0.269 -0.19,0.179 -0.286,0.406 -0.286,0.68 0,0.182 0.044,0.343 0.129,0.485 0.087,0.142 0.21,0.251 0.366,0.326 0.156,0.076 0.38,0.142 0.674,0.199 C -0.428,0.419 -0.152,0.488 0,0.553 L 0,0.637 C 0,0.801 -0.04,0.916 -0.121,0.987 -0.201,1.056 -0.354,1.09 -0.576,1.09 -0.728,1.09 -0.846,1.061 -0.93,1.002 -1.015,0.942 -1.084,0.839 -1.136,0.689"
         style="fill:#000000;fill-opacity:1;fill-rule:nonzero;stroke:none"
         id="path7947" />
    </g>
    <g
       id="g7949"
       transform="matrix(1.25,0,0,-1.25,82.433487,591.83984)">
      <path
         d="m 0,0 c 0,-0.342 0.048,-0.59 0.142,-0.744 0.138,-0.222 0.329,-0.332 0.574,-0.332 0.196,0 0.362,0.083 0.499,0.249 0.137,0.166 0.205,0.414 0.205,0.745 0,0.369 -0.065,0.634 -0.199,0.796 C 1.088,0.876 0.918,0.957 0.71,0.957 0.509,0.957 0.34,0.878 0.204,0.718 0.068,0.557 0,0.317 0,0 m 2.266,-1.674 -0.788,0 0,0.47 C 1.347,-1.386 1.192,-1.523 1.015,-1.613 0.836,-1.702 0.656,-1.747 0.475,-1.747 c -0.369,0 -0.684,0.148 -0.947,0.445 -0.263,0.297 -0.394,0.713 -0.394,1.244 0,0.544 0.127,0.957 0.383,1.24 0.256,0.283 0.579,0.424 0.97,0.424 0.359,0 0.669,-0.148 0.931,-0.446 l 0,1.595 0.848,0 0,-4.429 z"
         style="fill:#000000;fill-opacity:1;fill-rule:nonzero;stroke:none"
         id="path7951" />
    </g>
    <g
       id="g7953"
       transform="matrix(1.25,0,0,-1.25,94.919601,593.93283)">
      <path
         d="m 0,0 0,4.429 0.894,0 0,-1.742 1.752,0 0,1.742 0.895,0 0,-4.429 -0.895,0 0,1.936 -1.752,0 L 0.894,0 0,0 z"
         style="fill:#000000;fill-opacity:1;fill-rule:nonzero;stroke:none"
         id="path7955" />
    </g>
    <g
       id="g7957"
       transform="matrix(1.25,0,0,-1.25,103.13448,593.93283)">
      <path
         d="M 0,0 0,0.481 C -0.116,0.31 -0.269,0.174 -0.461,0.076 c -0.19,-0.099 -0.39,-0.149 -0.602,-0.149 -0.216,0 -0.409,0.048 -0.58,0.142 -0.171,0.095 -0.296,0.228 -0.371,0.399 -0.077,0.172 -0.116,0.408 -0.116,0.71 l 0,2.031 0.85,0 0,-1.474 c 0,-0.452 0.015,-0.728 0.046,-0.83 l 0.171,-0.242 c 0.082,-0.059 0.187,-0.089 0.314,-0.089 0.145,0 0.276,0.04 0.39,0.12 0.115,0.079 0.193,0.177 0.236,0.296 0.042,0.118 0.063,0.406 0.063,0.866 l 0,1.353 0.849,0 L 0.789,0 0,0 z"
         style="fill:#000000;fill-opacity:1;fill-rule:nonzero;stroke:none"
         id="path7959" />
    </g>
    <g
       id="g7961"
       transform="matrix(1.25,0,0,-1.25,105.13948,589.92133)">
      <path
         d="m 0,0 0.783,0 0,-0.438 c 0.28,0.34 0.613,0.51 1,0.51 0.206,0 0.384,-0.042 0.535,-0.126 0.151,-0.086 0.276,-0.213 0.371,-0.384 0.141,0.171 0.293,0.298 0.457,0.384 0.163,0.084 0.338,0.126 0.523,0.126 0.235,0 0.435,-0.048 0.598,-0.144 C 4.43,-0.167 4.552,-0.307 4.633,-0.492 4.691,-0.63 4.72,-0.851 4.72,-1.157 l 0,-2.052 -0.849,0 0,1.834 c 0,0.319 -0.029,0.524 -0.088,0.616 -0.078,0.121 -0.199,0.181 -0.362,0.181 -0.119,0 -0.231,-0.035 -0.335,-0.108 C 2.981,-0.759 2.906,-0.865 2.859,-1.005 2.813,-1.144 2.79,-1.366 2.79,-1.668 l 0,-1.541 -0.85,0 0,1.759 c 0,0.312 -0.015,0.513 -0.045,0.604 l -0.14,0.203 -0.259,0.065 C 1.365,-0.578 1.248,-0.613 1.143,-0.684 1.037,-0.754 0.963,-0.855 0.918,-0.988 0.872,-1.122 0.85,-1.342 0.85,-1.651 l 0,-1.558 -0.85,0 L 0,0 z"
         style="fill:#000000;fill-opacity:1;fill-rule:nonzero;stroke:none"
         id="path7963" />
    </g>
    <g
       id="g7965"
       transform="matrix(1.25,0,0,-1.25,113.11822,591.85873)">
      <path
         d="m 0,0 c 0,-0.361 0.072,-0.627 0.214,-0.799 0.144,-0.173 0.317,-0.259 0.523,-0.259 0.197,0 0.362,0.078 0.493,0.237 0.131,0.159 0.197,0.418 0.197,0.778 0,0.336 -0.068,0.587 -0.203,0.749 C 1.089,0.87 0.922,0.952 0.721,0.952 0.515,0.952 0.343,0.871 0.205,0.711 0.068,0.551 0,0.314 0,0 m -0.84,1.55 0.791,0 0,-0.472 C 0.054,1.239 0.193,1.37 0.369,1.471 0.544,1.571 0.738,1.622 0.952,1.622 1.325,1.622 1.641,1.476 1.9,1.184 2.16,0.891 2.29,0.485 2.29,-0.036 2.29,-0.573 2.159,-0.99 1.897,-1.287 1.635,-1.584 1.318,-1.732 0.946,-1.732 c -0.178,0 -0.338,0.035 -0.483,0.105 -0.143,0.071 -0.296,0.192 -0.454,0.363 l 0,-1.617 -0.849,0 0,4.431 z"
         style="fill:#000000;fill-opacity:1;fill-rule:nonzero;stroke:none"
         id="path7967" />
    </g>
    <g
       id="g7969"
       transform="matrix(1.25,0,0,-1.25,116.44836,592.78871)">
      <path
         d="m 0,0 0.852,0.13 c 0.037,-0.165 0.11,-0.29 0.221,-0.376 0.11,-0.085 0.265,-0.128 0.466,-0.128 0.219,0 0.384,0.04 0.494,0.121 l 0.112,0.226 -0.06,0.16 C 2.043,0.174 1.948,0.21 1.802,0.245 1.117,0.397 0.682,0.534 0.499,0.658 0.246,0.832 0.118,1.073 0.118,1.381 c 0,0.278 0.11,0.511 0.329,0.701 0.22,0.189 0.56,0.284 1.022,0.284 0.438,0 0.766,-0.071 0.979,-0.214 C 2.662,2.008 2.809,1.797 2.89,1.517 L 2.089,1.369 C 2.053,1.494 1.989,1.59 1.894,1.656 1.798,1.722 1.661,1.756 1.484,1.756 1.26,1.756 1.1,1.725 1.003,1.662 L 0.907,1.489 0.991,1.336 C 1.068,1.279 1.332,1.2 1.784,1.096 2.237,0.995 2.552,0.869 2.732,0.719 2.91,0.568 2.998,0.358 2.998,0.088 2.998,-0.207 2.874,-0.46 2.629,-0.671 2.383,-0.883 2.02,-0.988 1.539,-0.988 1.102,-0.988 0.755,-0.899 0.5,-0.721 0.246,-0.545 0.079,-0.303 0,0"
         style="fill:#000000;fill-opacity:1;fill-rule:nonzero;stroke:none"
         id="path7971" />
    </g>
    <g
       id="g7973"
       transform="matrix(1.25,0,0,-1.25,69.632736,605.86034)">
      <path
         d="M 0,0 -3.306,-3.676 0,-7.181 l 3.535,0 -2.072,2.45 9.948,0 0,2.11 -10.044,0 2.11,2.53 L 0,0 z"
         style="fill:#000000;fill-opacity:1;fill-rule:evenodd;stroke:none"
         id="path7975" />
    </g>
    <g
       id="g7977"
       transform="matrix(1.25,0,0,-1.25,117.35797,614.84011)">
      <path
         d="M 0,0 3.306,3.676 0,7.181 l -3.535,0 2.072,-2.45 -9.949,0 0,-2.11 10.045,0 -2.11,-2.53 L 0,0 z"
         style="fill:#000000;fill-opacity:1;fill-rule:evenodd;stroke:none"
         id="path7979" />
    </g>
  </g>
</svg>
