<?xml version="1.0" encoding="UTF-8" standalone="no"?>
<!-- Created with Inkscape (http://www.inkscape.org/) -->

<svg
   xmlns:dc="http://purl.org/dc/elements/1.1/"
   xmlns:cc="http://creativecommons.org/ns#"
   xmlns:rdf="http://www.w3.org/1999/02/22-rdf-syntax-ns#"
   xmlns:svg="http://www.w3.org/2000/svg"
   xmlns="http://www.w3.org/2000/svg"
   xmlns:sodipodi="http://sodipodi.sourceforge.net/DTD/sodipodi-0.dtd"
   xmlns:inkscape="http://www.inkscape.org/namespaces/inkscape"
   width="342.98804"
   height="326.53467"
   id="svg3949"
   version="1.1"
   inkscape:version="0.47 r22583"
   sodipodi:docname="Cyprus road sign general limits.svg">
  <defs
     id="defs3951">
    <inkscape:perspective
       sodipodi:type="inkscape:persp3d"
       inkscape:vp_x="0 : 526.18109 : 1"
       inkscape:vp_y="0 : 1000 : 0"
       inkscape:vp_z="744.09448 : 526.18109 : 1"
       inkscape:persp3d-origin="372.04724 : 350.78739 : 1"
       id="perspective3957" />
    <inkscape:perspective
       id="perspective3866"
       inkscape:persp3d-origin="0.5 : 0.33333333 : 1"
       inkscape:vp_z="1 : 0.5 : 1"
       inkscape:vp_y="0 : 1000 : 0"
       inkscape:vp_x="0 : 0.5 : 1"
       sodipodi:type="inkscape:persp3d" />
    <clipPath
       clipPathUnits="userSpaceOnUse"
       id="clipPath3544">
      <path
         d="m 224.645,53.859 54.567,0 0,86.456 -54.567,0 0,-86.456 z"
         id="path3546" />
    </clipPath>
    <clipPath
       clipPathUnits="userSpaceOnUse"
       id="clipPath3524">
      <path
         d="M 0,0 311,0 311,595 0,595 0,0 z"
         id="path3526" />
    </clipPath>
    <inkscape:perspective
       id="perspective6206"
       inkscape:persp3d-origin="0.5 : 0.33333333 : 1"
       inkscape:vp_z="1 : 0.5 : 1"
       inkscape:vp_y="0 : 1000 : 0"
       inkscape:vp_x="0 : 0.5 : 1"
       sodipodi:type="inkscape:persp3d" />
    <clipPath
       clipPathUnits="userSpaceOnUse"
       id="clipPath4388">
      <path
         d="m 224.504,464.882 34.299,0 0,58.11 -34.299,0 0,-58.11 z"
         id="path4390" />
    </clipPath>
    <clipPath
       clipPathUnits="userSpaceOnUse"
       id="clipPath4374">
      <path
         d="M 0,0 311,0 311,595 0,595 0,0 z"
         id="path4376" />
    </clipPath>
    <inkscape:perspective
       id="perspective6324"
       inkscape:persp3d-origin="0.5 : 0.33333333 : 1"
       inkscape:vp_z="1 : 0.5 : 1"
       inkscape:vp_y="0 : 1000 : 0"
       inkscape:vp_x="0 : 0.5 : 1"
       sodipodi:type="inkscape:persp3d" />
    <clipPath
       clipPathUnits="userSpaceOnUse"
       id="clipPath4554">
      <path
         d="m 153.071,381.26 55.275,0 0,58.11 -55.275,0 0,-58.11 z"
         id="path4556" />
    </clipPath>
    <clipPath
       clipPathUnits="userSpaceOnUse"
       id="clipPath4528">
      <path
         d="m 92.693,381.26 55.275,0 0,58.11 -55.275,0 0,-58.11 z"
         id="path4530" />
    </clipPath>
    <clipPath
       clipPathUnits="userSpaceOnUse"
       id="clipPath4440">
      <path
         d="m 214.016,381.26 55.276,0 0,58.11 -55.276,0 0,-58.11 z"
         id="path4442" />
    </clipPath>
    <inkscape:perspective
       id="perspective6436"
       inkscape:persp3d-origin="0.5 : 0.33333333 : 1"
       inkscape:vp_z="1 : 0.5 : 1"
       inkscape:vp_y="0 : 1000 : 0"
       inkscape:vp_x="0 : 0.5 : 1"
       sodipodi:type="inkscape:persp3d" />
    <clipPath
       clipPathUnits="userSpaceOnUse"
       id="clipPath4554-4">
      <path
         d="m 153.071,381.26 55.275,0 0,58.11 -55.275,0 0,-58.11 z"
         id="path4556-0" />
    </clipPath>
    <clipPath
       clipPathUnits="userSpaceOnUse"
       id="clipPath4440-9">
      <path
         d="m 214.016,381.26 55.276,0 0,58.11 -55.276,0 0,-58.11 z"
         id="path4442-4" />
    </clipPath>
    <inkscape:perspective
       id="perspective6436-8"
       inkscape:persp3d-origin="0.5 : 0.33333333 : 1"
       inkscape:vp_z="1 : 0.5 : 1"
       inkscape:vp_y="0 : 1000 : 0"
       inkscape:vp_x="0 : 0.5 : 1"
       sodipodi:type="inkscape:persp3d" />
    <clipPath
       clipPathUnits="userSpaceOnUse"
       id="clipPath4554-8">
      <path
         d="m 153.071,381.26 55.275,0 0,58.11 -55.275,0 0,-58.11 z"
         id="path4556-2" />
    </clipPath>
    <clipPath
       clipPathUnits="userSpaceOnUse"
       id="clipPath4440-4">
      <path
         d="m 214.016,381.26 55.276,0 0,58.11 -55.276,0 0,-58.11 z"
         id="path4442-5" />
    </clipPath>
    <inkscape:perspective
       id="perspective6552"
       inkscape:persp3d-origin="0.5 : 0.33333333 : 1"
       inkscape:vp_z="1 : 0.5 : 1"
       inkscape:vp_y="0 : 1000 : 0"
       inkscape:vp_x="0 : 0.5 : 1"
       sodipodi:type="inkscape:persp3d" />
    <clipPath
       clipPathUnits="userSpaceOnUse"
       id="clipPath4492">
      <path
         d="m 32.598,287.716 55.276,0 0,50.315 -55.276,0 0,-50.315 z"
         id="path4494" />
    </clipPath>
    <inkscape:perspective
       id="perspective6625"
       inkscape:persp3d-origin="0.5 : 0.33333333 : 1"
       inkscape:vp_z="1 : 0.5 : 1"
       inkscape:vp_y="0 : 1000 : 0"
       inkscape:vp_x="0 : 0.5 : 1"
       sodipodi:type="inkscape:persp3d" />
    <clipPath
       clipPathUnits="userSpaceOnUse"
       id="clipPath5156">
      <path
         d="m 32.598,20.626 71.434,0 0,121.106 -71.434,0 0,-121.106 z"
         id="path5158" />
    </clipPath>
    <inkscape:perspective
       id="perspective7319"
       inkscape:persp3d-origin="0.5 : 0.33333333 : 1"
       inkscape:vp_z="1 : 0.5 : 1"
       inkscape:vp_y="0 : 1000 : 0"
       inkscape:vp_x="0 : 0.5 : 1"
       sodipodi:type="inkscape:persp3d" />
    <clipPath
       clipPathUnits="userSpaceOnUse"
       id="clipPath4482">
      <path
         d="m 32.598,382.691 55.276,0 0,55.248 -55.276,0 0,-55.248 z"
         id="path4484" />
    </clipPath>
    <clipPath
       clipPathUnits="userSpaceOnUse"
       id="clipPath4470">
      <path
         d="m 32.598,381.26 55.276,0 0,58.11 -55.276,0 0,-58.11 z"
         id="path4472" />
    </clipPath>
    <inkscape:perspective
       id="perspective7373"
       inkscape:persp3d-origin="0.5 : 0.33333333 : 1"
       inkscape:vp_z="1 : 0.5 : 1"
       inkscape:vp_y="0 : 1000 : 0"
       inkscape:vp_x="0 : 0.5 : 1"
       sodipodi:type="inkscape:persp3d" />
    <clipPath
       clipPathUnits="userSpaceOnUse"
       id="clipPath4482-6">
      <path
         d="m 32.598,382.691 55.276,0 0,55.248 -55.276,0 0,-55.248 z"
         id="path4484-1" />
    </clipPath>
    <clipPath
       clipPathUnits="userSpaceOnUse"
       id="clipPath4470-4">
      <path
         d="m 32.598,381.26 55.276,0 0,58.11 -55.276,0 0,-58.11 z"
         id="path4472-2" />
    </clipPath>
    <inkscape:perspective
       id="perspective8566"
       inkscape:persp3d-origin="0.5 : 0.33333333 : 1"
       inkscape:vp_z="1 : 0.5 : 1"
       inkscape:vp_y="0 : 1000 : 0"
       inkscape:vp_x="0 : 0.5 : 1"
       sodipodi:type="inkscape:persp3d" />
    <clipPath
       clipPathUnits="userSpaceOnUse"
       id="clipPath7526">
      <path
         d="m 42.52,409.134 112.913,0 0,113.858 -112.913,0 0,-113.858 z"
         id="path7528" />
    </clipPath>
    <clipPath
       clipPathUnits="userSpaceOnUse"
       id="clipPath7514">
      <path
         d="m 46.174,409.134 105.603,0 0,113.858 -105.603,0 0,-113.858 z"
         id="path7516" />
    </clipPath>
    <clipPath
       clipPathUnits="userSpaceOnUse"
       id="clipPath7474">
      <path
         d="m 42.52,409.134 112.913,0 0,113.858 -112.913,0 0,-113.858 z"
         id="path7476" />
    </clipPath>
    <clipPath
       clipPathUnits="userSpaceOnUse"
       id="clipPath7462">
      <path
         d="m 46.174,409.134 105.603,0 0,113.858 -105.603,0 0,-113.858 z"
         id="path7464" />
    </clipPath>
    <clipPath
       clipPathUnits="userSpaceOnUse"
       id="clipPath7450">
      <path
         d="m 42.52,409.134 112.913,0 0,113.858 -112.913,0 0,-113.858 z"
         id="path7452" />
    </clipPath>
    <inkscape:perspective
       id="perspective9062"
       inkscape:persp3d-origin="0.5 : 0.33333333 : 1"
       inkscape:vp_z="1 : 0.5 : 1"
       inkscape:vp_y="0 : 1000 : 0"
       inkscape:vp_x="0 : 0.5 : 1"
       sodipodi:type="inkscape:persp3d" />
    <clipPath
       clipPathUnits="userSpaceOnUse"
       id="clipPath7526-3">
      <path
         d="m 42.52,409.134 112.913,0 0,113.858 -112.913,0 0,-113.858 z"
         id="path7528-2" />
    </clipPath>
    <clipPath
       clipPathUnits="userSpaceOnUse"
       id="clipPath7514-2">
      <path
         d="m 46.174,409.134 105.603,0 0,113.858 -105.603,0 0,-113.858 z"
         id="path7516-1" />
    </clipPath>
    <clipPath
       clipPathUnits="userSpaceOnUse"
       id="clipPath7474-6">
      <path
         d="m 42.52,409.134 112.913,0 0,113.858 -112.913,0 0,-113.858 z"
         id="path7476-8" />
    </clipPath>
    <clipPath
       clipPathUnits="userSpaceOnUse"
       id="clipPath7462-5">
      <path
         d="m 46.174,409.134 105.603,0 0,113.858 -105.603,0 0,-113.858 z"
         id="path7464-7" />
    </clipPath>
    <clipPath
       clipPathUnits="userSpaceOnUse"
       id="clipPath7450-6">
      <path
         d="m 42.52,409.134 112.913,0 0,113.858 -112.913,0 0,-113.858 z"
         id="path7452-1" />
    </clipPath>
    <inkscape:perspective
       id="perspective10342"
       inkscape:persp3d-origin="0.5 : 0.33333333 : 1"
       inkscape:vp_z="1 : 0.5 : 1"
       inkscape:vp_y="0 : 1000 : 0"
       inkscape:vp_x="0 : 0.5 : 1"
       sodipodi:type="inkscape:persp3d" />
    <clipPath
       clipPathUnits="userSpaceOnUse"
       id="clipPath8110">
      <path
         d="m 48.189,259.37 76.28,0 0,103.465 -76.28,0 0,-103.465 z"
         id="path8112" />
    </clipPath>
    <clipPath
       clipPathUnits="userSpaceOnUse"
       id="clipPath8098">
      <path
         d="M 0,0 311,0 311,595 0,595 0,0 z"
         id="path8100" />
    </clipPath>
    <clipPath
       clipPathUnits="userSpaceOnUse"
       id="clipPath8086">
      <path
         d="m 48.189,262.125 76.28,0 0,100.71 -76.28,0 0,-100.71 z"
         id="path8088" />
    </clipPath>
    <inkscape:perspective
       id="perspective10643"
       inkscape:persp3d-origin="0.5 : 0.33333333 : 1"
       inkscape:vp_z="1 : 0.5 : 1"
       inkscape:vp_y="0 : 1000 : 0"
       inkscape:vp_x="0 : 0.5 : 1"
       sodipodi:type="inkscape:persp3d" />
    <clipPath
       clipPathUnits="userSpaceOnUse"
       id="clipPath8110-8">
      <path
         d="m 48.189,259.37 76.28,0 0,103.465 -76.28,0 0,-103.465 z"
         id="path8112-9" />
    </clipPath>
    <clipPath
       clipPathUnits="userSpaceOnUse"
       id="clipPath8098-2">
      <path
         d="M 0,0 311,0 311,595 0,595 0,0 z"
         id="path8100-7" />
    </clipPath>
    <clipPath
       clipPathUnits="userSpaceOnUse"
       id="clipPath8086-9">
      <path
         d="m 48.189,262.125 76.28,0 0,100.71 -76.28,0 0,-100.71 z"
         id="path8088-5" />
    </clipPath>
    <inkscape:perspective
       id="perspective10896"
       inkscape:persp3d-origin="0.5 : 0.33333333 : 1"
       inkscape:vp_z="1 : 0.5 : 1"
       inkscape:vp_y="0 : 1000 : 0"
       inkscape:vp_x="0 : 0.5 : 1"
       sodipodi:type="inkscape:persp3d" />
    <clipPath
       clipPathUnits="userSpaceOnUse"
       id="clipPath8250">
      <path
         d="m 129.685,131.811 149.528,0 0,235.275 -149.528,0 0,-235.275 z"
         id="path8252" />
    </clipPath>
    <clipPath
       clipPathUnits="userSpaceOnUse"
       id="clipPath8240">
      <path
         d="M 0,0 311,0 311,595 0,595 0,0 z"
         id="path8242" />
    </clipPath>
    <inkscape:perspective
       id="perspective12428"
       inkscape:persp3d-origin="0.5 : 0.33333333 : 1"
       inkscape:vp_z="1 : 0.5 : 1"
       inkscape:vp_y="0 : 1000 : 0"
       inkscape:vp_x="0 : 0.5 : 1"
       sodipodi:type="inkscape:persp3d" />
    <clipPath
       clipPathUnits="userSpaceOnUse"
       id="clipPath11426">
      <path
         d="m 32.598,409.134 112.914,0 0,113.858 -112.914,0 0,-113.858 z"
         id="path11428" />
    </clipPath>
    <inkscape:perspective
       id="perspective14200"
       inkscape:persp3d-origin="0.5 : 0.33333333 : 1"
       inkscape:vp_z="1 : 0.5 : 1"
       inkscape:vp_y="0 : 1000 : 0"
       inkscape:vp_x="0 : 0.5 : 1"
       sodipodi:type="inkscape:persp3d" />
  </defs>
  <sodipodi:namedview
     id="base"
     pagecolor="#ffffff"
     bordercolor="#666666"
     borderopacity="1.0"
     inkscape:pageopacity="0.0"
     inkscape:pageshadow="2"
     inkscape:zoom="1.1813655"
     inkscape:cx="90.038852"
     inkscape:cy="194.38334"
     inkscape:document-units="px"
     inkscape:current-layer="layer1"
     showgrid="false"
     inkscape:window-width="1600"
     inkscape:window-height="838"
     inkscape:window-x="-8"
     inkscape:window-y="-8"
     inkscape:window-maximized="1" />
  <metadata
     id="metadata3954">
    <rdf:RDF>
      <cc:Work
         rdf:about="">
        <dc:format>image/svg+xml</dc:format>
        <dc:type
           rdf:resource="http://purl.org/dc/dcmitype/StillImage" />
        <dc:title></dc:title>
      </cc:Work>
    </rdf:RDF>
  </metadata>
  <g
     inkscape:label="Livello 1"
     inkscape:groupmode="layer"
     id="layer1"
     transform="translate(-41.860008,-274.03386)">
    <path
       d="m 42.186259,600.24232 342.335531,0 0,-325.8822 -342.335531,0 0,325.8822 z"
       style="fill:#007ac2;fill-opacity:1;fill-rule:nonzero;stroke:none"
       id="path11370" />
    <path
       d="m 43.016754,599.4117 340.674536,0 0,-324.22096 -340.674536,0 0,324.22096 z"
       style="fill:#007ac2;fill-opacity:1;fill-rule:nonzero;stroke:none"
       id="path11372" />
    <path
       id="path11376"
       style="fill:#007ac2;fill-opacity:1;fill-rule:nonzero;stroke:none"
       d="m 384.52176,600.24232 -342.335527,0 0,-325.8822 342.335527,0 0,325.8822 z m -341.505033,-0.83062 340.674543,0 0,-324.22096 -340.674543,0 0,324.22096 z" />
    <path
       d="m 42.186258,600.24229 342.335532,0 0,-325.88218 -342.335532,0 0,325.88218 z"
       style="fill:none;stroke:#000000;stroke-width:0.65250003;stroke-linecap:butt;stroke-linejoin:miter;stroke-miterlimit:10;stroke-opacity:1;stroke-dasharray:none"
       id="path11378" />
    <path
       d="m 186.62229,372.07702 147.78665,0 0,-88.08366 -147.78665,0 0,88.08366 z"
       style="fill:#ffffff;fill-opacity:1;fill-rule:evenodd;stroke:#000000;stroke-width:0.65250003;stroke-linecap:butt;stroke-linejoin:miter;stroke-miterlimit:10;stroke-opacity:1;stroke-dasharray:none"
       id="path11380" />
    <path
       id="path11384"
       style="fill:#000000;fill-opacity:1;fill-rule:nonzero;stroke:none"
       d="m 194.60171,302.55214 0,-11.8737 9.49181,0 0,11.8737 -2.39921,0 0,-9.86558 -4.69659,0 0,9.86558 -2.39601,0 z" />
    <path
       id="path11388"
       style="fill:#000000;fill-opacity:1;fill-rule:nonzero;stroke:none"
       d="m 212.8309,297.85516 -1.63552,-4.40768 -1.60372,4.40768 3.23924,0 z m 4.4134,4.69728 -2.60922,0 -1.03414,-2.69552 -4.74749,0 -0.98005,2.69552 -2.54239,0 4.62339,-11.87368 2.53604,0 4.75386,11.87368 z" />
    <path
       id="path11392"
       style="fill:#000000;fill-opacity:1;fill-rule:nonzero;stroke:none"
       d="m 218.53967,302.55214 0,-11.8737 2.33238,0 4.85887,7.93065 0,-7.93065 2.22739,0 0,11.8737 -2.40557,0 -4.78569,-7.74289 0,7.74289 -2.22738,0 z" />
    <path
       id="path11396"
       style="fill:#000000;fill-opacity:1;fill-rule:nonzero;stroke:none"
       d="m 230.49246,302.55214 0,-11.8737 8.80132,0 0,2.00812 -6.40531,0 0,2.63189 5.96302,0 0,2.00176 -5.96302,0 0,3.23017 6.63441,0 0,2.00176 -9.03042,0 z" />
    <path
       id="path11400"
       style="fill:#000000;fill-opacity:1;fill-rule:nonzero;stroke:none"
       d="m 241.59498,302.55214 0,-11.8737 9.49182,0 0,11.8737 -2.39919,0 0,-9.86558 -4.6966,0 0,9.86558 -2.39603,0 z" />
    <path
       d="m 253.45641,302.55021 2.39603,0 0,-11.87053 -2.39603,0 0,11.87053 z"
       style="fill:#000000;fill-opacity:1;fill-rule:nonzero;stroke:none"
       id="path11402" />
    <path
       id="path11406"
       style="fill:#000000;fill-opacity:1;fill-rule:nonzero;stroke:none"
       d="m 257.81571,290.67905 8.21903,0 0,2.00813 -5.26299,0 3.06743,3.65981 -3.38244,4.20399 5.82938,0 0,2.00178 -8.62315,0 0,-2.21817 3.18198,-3.9876 -3.02924,-3.52934 0,-2.1386 z" />
    <path
       id="path11410"
       style="fill:#000000;fill-opacity:1;fill-rule:nonzero;stroke:none"
       d="m 270.76477,302.55214 0,-9.86558 -3.52243,0 0,-2.00812 9.43454,0 0,2.00812 -3.51608,0 0,9.86558 -2.39603,0 z" />
    <path
       id="path11414"
       style="fill:#000000;fill-opacity:1;fill-rule:nonzero;stroke:none"
       d="m 278.23123,302.55214 0,-11.8737 2.39602,0 0,4.67183 4.69659,0 0,-4.67183 2.39921,0 0,11.8737 -2.39921,0 0,-5.19057 -4.69659,0 0,5.19057 -2.39602,0 z" />
    <path
       id="path11418"
       style="fill:#000000;fill-opacity:1;fill-rule:nonzero;stroke:none"
       d="m 290.16741,302.55214 0,-11.8737 3.5861,0 2.15418,8.09932 2.13193,-8.09932 3.59561,0 0,11.8737 -2.22738,0 0,-9.34684 -2.35783,9.34684 -2.30694,0 -2.34829,-9.34684 0,9.34684 -2.22738,0 z" />
    <path
       d="m 303.94475,302.55021 2.39602,0 0,-11.87053 -2.39602,0 0,11.87053 z"
       style="fill:#000000;fill-opacity:1;fill-rule:nonzero;stroke:none"
       id="path11420" />
    <path
       id="path11432"
       style="fill:#000000;fill-opacity:1;fill-rule:nonzero;stroke:none"
       d="m 310.60748,296.60763 c 0,1.34618 0.31184,2.36456 0.93231,3.05833 0.62049,0.69378 1.40961,1.04067 2.36422,1.04067 0.95459,0 1.74053,-0.34371 2.35147,-1.0343 0.61411,-0.68741 0.9196,-1.71852 0.9196,-3.09651 0,-1.3621 -0.29913,-2.37728 -0.89414,-3.0456 -0.59823,-0.6715 -1.39053,-1.00566 -2.37693,-1.00566 -0.9896,0 -1.78509,0.34053 -2.38967,1.0152 -0.60456,0.68105 -0.90686,1.7026 -0.90686,3.06787 m -2.46921,0.0827 c 0,-1.21251 0.18149,-2.22453 0.54093,-3.0456 0.27046,-0.60784 0.63958,-1.14887 1.10733,-1.62941 0.46456,-0.48054 0.97686,-0.83698 1.53372,-1.0693 0.7382,-0.31506 1.59098,-0.471 2.55829,-0.471 1.75009,0 3.15017,0.5442 4.20022,1.62941 1.05004,1.08523 1.57507,2.59369 1.57507,4.52863 0,1.91582 -0.52185,3.41475 -1.56235,4.49678 -1.04369,1.08203 -2.43739,1.62624 -4.1811,1.62624 -1.76283,0 -3.16926,-0.54101 -4.20977,-1.61669 -1.0405,-1.07885 -1.56234,-2.56187 -1.56234,-4.44906" />
    <path
       id="path11436"
       style="fill:#000000;fill-opacity:1;fill-rule:nonzero;stroke:none"
       d="m 194.59345,322.94046 0,-11.87371 2.39603,0 0,5.27331 4.84296,-5.27331 3.22334,0 -4.47068,4.6241 4.71569,7.24961 -3.10242,0 -3.2647,-5.57246 -1.94419,1.98584 0,3.58662 -2.39603,0 z" />
    <path
       id="path11440"
       style="fill:#000000;fill-opacity:1;fill-rule:nonzero;stroke:none"
       d="m 209.65627,322.94046 0,-4.99645 -4.34975,-6.87726 2.80967,0 2.79377,4.69729 2.73968,-4.69729 2.75877,0 -4.36248,6.89317 0,4.98054 -2.38966,0 z" />
    <path
       id="path11444"
       style="fill:#000000;fill-opacity:1;fill-rule:nonzero;stroke:none"
       d="m 217.64111,322.94046 0,-11.87371 9.49182,0 0,11.87371 -2.39922,0 0,-9.86558 -4.69658,0 0,9.86558 -2.39602,0 z" />
    <path
       id="path11448"
       style="fill:#000000;fill-opacity:1;fill-rule:nonzero;stroke:none"
       d="m 231.97459,313.07546 0,3.36701 1.31098,0 c 0.94504,0 1.57826,-0.0604 1.89644,-0.18456 0.31821,-0.12402 0.56639,-0.31824 0.74777,-0.5824 0.18124,-0.26413 0.27365,-0.57283 0.27365,-0.9229 0,-0.43281 -0.12727,-0.78925 -0.38184,-1.06931 -0.25456,-0.28004 -0.57593,-0.45827 -0.96413,-0.52829 -0.28639,-0.0542 -0.86232,-0.0794 -1.72464,-0.0794 l -1.15823,0 z m -2.39602,9.86557 0,-11.87369 3.847,0 c 1.45734,0 2.40556,0.0572 2.84787,0.1782 0.68093,0.17824 1.2505,0.56331 1.70872,1.16162 0.46138,0.5983 0.69048,1.36845 0.69048,2.31045 0,0.72877 -0.13363,1.34298 -0.39774,1.83944 -0.26412,0.49964 -0.60141,0.88791 -1.0087,1.17114 -0.40729,0.28324 -0.82094,0.471 -1.24413,0.5633 -0.56959,0.11129 -1.40008,0.16854 -2.48514,0.16854 l -1.56234,0 0,4.48088 -2.39602,0 z" />
    <path
       id="path11452"
       style="fill:#000000;fill-opacity:1;fill-rule:nonzero;stroke:none"
       d="m 242.62373,316.99565 c 0,1.34616 0.31184,2.36456 0.9323,3.05514 0.6205,0.69696 1.40962,1.04384 2.36422,1.04384 0.95459,0 1.74054,-0.3437 2.35145,-1.03429 0.61412,-0.68741 0.91959,-1.71853 0.91959,-3.09652 0,-1.36208 -0.29911,-2.37729 -0.89414,-3.04559 -0.59818,-0.6715 -1.3905,-1.00567 -2.3769,-1.00567 -0.9896,0 -1.78509,0.34053 -2.38966,1.01521 -0.60457,0.68104 -0.90686,1.70261 -0.90686,3.06788 m -2.46921,0.0794 c 0,-1.20933 0.18149,-2.22134 0.54093,-3.04242 0.27047,-0.60784 0.63958,-1.14886 1.10733,-1.62941 0.46458,-0.48054 0.97686,-0.83698 1.53372,-1.06929 0.7382,-0.31506 1.59415,-0.47101 2.55828,-0.47101 1.7501,0 3.15014,0.5442 4.20019,1.62941 1.05004,1.08521 1.57507,2.59369 1.57507,4.52862 0,1.91583 -0.52184,3.41476 -1.56235,4.49679 -1.04368,1.08203 -2.43736,1.62623 -4.18107,1.62623 -1.76282,0 -3.16925,-0.54102 -4.20976,-1.61668 -1.0405,-1.07885 -1.56234,-2.56186 -1.56234,-4.45224" />
    <path
       id="path11456"
       style="fill:#000000;fill-opacity:1;fill-rule:nonzero;stroke:none"
       d="m 256.19608,322.94046 0,-4.99645 -4.34974,-6.87726 2.80966,0 2.79378,4.69729 2.73968,-4.69729 2.75876,0 -4.36247,6.89317 0,4.98054 -2.38967,0 z" />
    <path
       id="path11460"
       style="fill:#000000;fill-opacity:1;fill-rule:nonzero;stroke:none"
       d="m 194.54506,331.45509 2.39603,0 0,6.42853 c 0,1.02157 0.0318,1.68351 0.0891,1.98584 0.10509,0.48694 0.34684,0.87519 0.73504,1.17115 0.38502,0.29278 0.91322,0.44235 1.58143,0.44235 0.68096,0 1.19324,-0.13999 1.54008,-0.41689 0.34366,-0.28006 0.55366,-0.62058 0.62367,-1.02793 0.07,-0.40417 0.10488,-1.07568 0.10488,-2.01449 l 0,-6.56856 2.39603,0 0,6.23759 c 0,1.42255 -0.0636,2.4314 -0.19423,3.02013 -0.13052,0.58876 -0.3691,1.08522 -0.71593,1.4894 -0.35002,0.40416 -0.8146,0.72877 -1.3969,0.96745 -0.5823,0.24188 -1.34598,0.35962 -2.28465,0.35962 -1.13278,0 -1.99192,-0.13037 -2.58059,-0.39144 -0.58547,-0.26096 -1.04686,-0.60148 -1.38732,-1.01838 -0.34048,-0.42008 -0.56322,-0.85926 -0.6714,-1.31754 -0.15597,-0.68104 -0.23546,-1.68669 -0.23546,-3.01376 l 0,-6.33307 z" />
    <path
       id="path11464"
       style="fill:#000000;fill-opacity:1;fill-rule:nonzero;stroke:none"
       d="m 214.34522,343.32813 -2.2751,0 0,-4.39179 c 0,-0.92608 -0.0477,-1.52757 -0.14636,-1.79807 l -0.47412,-0.63647 c -0.21967,-0.15274 -0.48048,-0.22915 -0.78912,-0.22915 -0.39456,0 -0.74777,0.10818 -1.0596,0.32461 -0.31502,0.21641 -0.5282,0.50281 -0.64594,0.85925 -0.11453,0.35644 -0.17183,1.0152 -0.17183,1.97631 l 0,3.89531 -2.27829,0 0,-8.60215 2.11601,0 0,1.26343 c 0.74776,-0.97065 1.69281,-1.45755 2.83195,-1.45755 0.50276,0 0.96095,0.0891 1.37781,0.27049 0.41683,0.18128 0.72866,0.41373 0.94503,0.69378 0.21307,0.28006 0.35957,0.5983 0.44547,0.95474 0.0827,0.35644 0.124,0.8688 0.124,1.53075 l 0,5.34651 z" />
    <path
       id="path11468"
       style="fill:#000000;fill-opacity:1;fill-rule:nonzero;stroke:none"
       d="m 216.65373,334.7247 2.2751,0 0,8.60216 -2.2751,0 0,-8.60216 z m 0,-3.26835 2.2751,0 0,2.10676 -2.2751,0 0,-2.10676 z" />
    <path
       id="path11472"
       style="fill:#000000;fill-opacity:1;fill-rule:nonzero;stroke:none"
       d="m 223.62513,343.32813 -3.46517,-8.60215 2.38965,0 1.61963,4.3886 0.46776,1.4671 c 0.12399,-0.37235 0.20363,-0.6174 0.23545,-0.73834 l 0.24183,-0.72876 1.63555,-4.3886 2.34192,0 -3.41743,8.60215 -2.04919,0 z" />
    <path
       id="path11476"
       style="fill:#000000;fill-opacity:1;fill-rule:nonzero;stroke:none"
       d="m 235.5944,338.29032 c -0.0147,-0.65878 -0.18786,-1.16159 -0.50912,-1.50212 -0.32456,-0.3437 -0.71912,-0.51555 -1.1837,-0.51555 -0.49639,0 -0.90685,0.18127 -1.2314,0.5442 -0.32458,0.3596 -0.48367,0.85289 -0.47731,1.47347 l 3.40153,0 z m -0.13053,2.3009 2.26875,0.37871 c -0.29274,0.83381 -0.75095,1.46711 -1.38097,1.89993 -0.63004,0.43599 -1.41599,0.65239 -2.36102,0.65239 -1.49552,0 -2.60286,-0.48691 -3.3188,-1.46711 -0.56958,-0.77969 -0.85277,-1.76943 -0.85277,-2.96285 0,-1.42573 0.37229,-2.54277 1.12006,-3.34793 0.74457,-0.80834 1.68644,-1.2125 2.82557,-1.2125 1.27916,0 2.28785,0.42325 3.02926,1.2666 0.73821,0.84653 1.0914,2.14178 1.05959,3.88576 l -5.7021,0 c 0.0147,0.67468 0.20059,1.19979 0.55049,1.57532 0.35319,0.37553 0.78912,0.5601 1.31414,0.5601 0.35639,0 0.65549,-0.0954 0.89732,-0.2896 0.24488,-0.19426 0.4264,-0.506 0.55048,-0.93882" />
    <path
       id="path11480"
       style="fill:#000000;fill-opacity:1;fill-rule:nonzero;stroke:none"
       d="m 241.8868,343.32813 -2.27513,0 0,-8.60215 2.11283,0 0,1.22206 c 0.36275,-0.57602 0.68732,-0.95473 0.97687,-1.14251 0.28956,-0.18152 0.61731,-0.27367 0.98322,-0.27367 0.51866,0 1.01824,0.14342 1.49872,0.42961 l -0.70639,1.98266 c -0.38184,-0.24822 -0.73822,-0.36914 -1.06598,-0.36914 -0.32136,0 -0.59184,0.0858 -0.8114,0.26095 -0.22274,0.1749 -0.39456,0.49327 -0.52183,0.95154 -0.12727,0.45828 -0.19091,1.42256 -0.19091,2.8833 l 0,2.65735 z" />
    <path
       id="path11484"
       style="fill:#000000;fill-opacity:1;fill-rule:nonzero;stroke:none"
       d="m 245.36086,340.8732 2.28465,-0.3469 c 0.0954,0.44236 0.29274,0.77969 0.58864,1.00883 0.2991,0.22914 0.71276,0.34371 1.24733,0.34371 0.58867,0 1.03096,-0.10818 1.33007,-0.3246 l 0.2991,-0.60785 -0.16218,-0.42963 c -0.11453,-0.10818 -0.36592,-0.20699 -0.76048,-0.29916 -1.836,-0.40417 -3.00058,-0.77333 -3.49062,-1.11066 -0.68093,-0.46464 -1.0214,-1.1075 -1.0214,-1.93494 0,-0.74468 0.29593,-1.37164 0.88458,-1.87763 0.58868,-0.5092 1.49871,-0.76061 2.73647,-0.76061 1.17734,0 2.05238,0.19094 2.62195,0.57283 0.57275,0.3819 0.96731,0.95156 1.1837,1.69944 l -2.14464,0.39781 c -0.0922,-0.33417 -0.26729,-0.58876 -0.52503,-0.76698 -0.25456,-0.17822 -0.62049,-0.26733 -1.09461,-0.26733 -0.60138,0 -1.03096,0.0827 -1.28867,0.2513 l -0.26092,0.45827 0.22911,0.41371 c 0.20364,0.15272 0.91319,0.36599 2.12551,0.63966 1.21235,0.27689 2.05874,0.61423 2.53922,1.01204 0.47412,0.40734 0.71276,0.97063 0.71276,1.69623 0,0.78607 -0.33091,1.46392 -0.98959,2.0304 -0.65866,0.56647 -1.63235,0.8529 -2.92423,0.8529 -1.17097,0 -2.09689,-0.23857 -2.78102,-0.71288 -0.68412,-0.47736 -1.12959,-1.12339 -1.33961,-1.9381" />
    <path
       id="path11488"
       style="fill:#000000;fill-opacity:1;fill-rule:nonzero;stroke:none"
       d="m 255.38465,334.7247 2.27512,0 0,8.60216 -2.27512,0 0,-8.60216 z m 0,-3.26835 2.27512,0 0,2.10676 -2.27512,0 0,-2.10676 z" />
    <path
       id="path11492"
       style="fill:#000000;fill-opacity:1;fill-rule:nonzero;stroke:none"
       d="m 263.93782,334.72568 0,1.81398 -1.55598,0 0,3.46569 c 0,0.70332 0.0147,1.11385 0.0445,1.22843 l 0.20365,0.2896 0.38502,0.11144 c 0.21,0 0.51548,-0.0732 0.91322,-0.21641 l 0.19728,1.76308 c -0.53139,0.22913 -1.1296,0.34051 -1.79782,0.34051 -0.41047,0 -0.78276,-0.07 -1.1105,-0.20366 -0.33093,-0.14 -0.57276,-0.31824 -0.72549,-0.53783 -0.15272,-0.21973 -0.26093,-0.51238 -0.31819,-0.88792 -0.0509,-0.26413 -0.0731,-0.7956 -0.0731,-1.60077 l 0,-3.75209 -1.04688,0 0,-1.81401 1.04688,0 0,-1.70896 2.28147,-1.32707 0,3.03603 1.55599,0 z" />
    <path
       id="path11496"
       style="fill:#000000;fill-opacity:1;fill-rule:nonzero;stroke:none"
       d="m 264.43994,334.72568 2.42147,0 2.05555,6.10711 2.01102,-6.10711 2.35466,0 -3.03561,8.27753 -0.54412,1.49893 c -0.20034,0.50282 -0.3882,0.8879 -0.56957,1.15205 l -0.62367,0.64285 c -0.23546,0.16548 -0.52502,0.29279 -0.8655,0.38507 -0.34364,0.0891 -0.73184,0.1369 -1.16459,0.1369 -0.43593,0 -0.8655,-0.0478 -1.28553,-0.1369 l -0.20364,-1.78216 c 0.35639,0.07 0.67776,0.10489 0.96414,0.10489 0.5282,0 0.91959,-0.15583 1.17415,-0.46782 0.25456,-0.3087 0.44866,-0.70331 0.5823,-1.18386 l -3.27106,-8.62761 z" />
    <path
       id="path11500"
       style="fill:#000000;fill-opacity:1;fill-rule:nonzero;stroke:none"
       d="m 196.54525,357.77133 c 0,1.34616 0.31184,2.36456 0.93232,3.05514 0.62049,0.69696 1.40643,1.04384 2.3642,1.04384 0.95458,0 1.74055,-0.3437 2.35148,-1.03429 0.61412,-0.6874 0.91958,-1.71853 0.91958,-3.09652 0,-1.36209 -0.2991,-2.37729 -0.89414,-3.0456 -0.59819,-0.67149 -1.3905,-1.00566 -2.37692,-1.00566 -0.98958,0 -1.78509,0.34053 -2.38966,1.01522 -0.60458,0.67785 -0.90686,1.7026 -0.90686,3.06787 m -2.46921,0.0794 c 0,-1.20933 0.1815,-2.22134 0.54094,-3.04242 0.27046,-0.60784 0.63957,-1.14886 1.10732,-1.62941 0.46457,-0.48054 0.97687,-0.83697 1.53371,-1.06929 0.73822,-0.31507 1.59098,-0.47101 2.55831,-0.47101 1.75008,0 3.15014,0.54421 4.20019,1.62941 1.05005,1.08521 1.57507,2.5937 1.57507,4.52861 0,1.91584 -0.52183,3.41477 -1.56234,4.49681 -1.04368,1.08202 -2.43737,1.62622 -4.18111,1.62622 -1.7628,0 -3.16924,-0.54102 -4.20974,-1.61668 -1.04369,-1.07885 -1.56235,-2.56187 -1.56235,-4.45224" />
    <path
       id="path11504"
       style="fill:#000000;fill-opacity:1;fill-rule:nonzero;stroke:none"
       d="m 206.44914,355.11368 1.26325,0 0,-0.64603 c 0,-0.72561 0.0764,-1.26663 0.23242,-1.61987 0.15271,-0.35644 0.43593,-0.64922 0.84957,-0.87199 0.41366,-0.22277 0.93551,-0.33734 1.56553,-0.33734 0.64912,0 1.28234,0.0986 1.90283,0.29279 l -0.30548,1.58803 c -0.36273,-0.0858 -0.71275,-0.13053 -1.04686,-0.13053 -0.32774,0 -0.56321,0.0794 -0.7064,0.22913 -0.14308,0.15583 -0.21638,0.45191 -0.21638,0.88789 l 0,0.60785 1.70236,0 0,1.79172 -1.70236,0 0,6.81043 -2.2751,0 0,-6.81043 -1.26325,0 0,-1.79172 z" />
    <path
       id="path11508"
       style="fill:#000000;fill-opacity:1;fill-rule:nonzero;stroke:none"
       d="m 225.18841,359.35016 2.32287,0.73831 c -0.35639,1.29525 -0.94822,2.25954 -1.77557,2.88648 -0.8305,0.63013 -1.88054,0.94518 -3.15653,0.94518 -1.57507,0 -2.87012,-0.54101 -3.88516,-1.61668 -1.01506,-1.07885 -1.52417,-2.55231 -1.52417,-4.41724 0,-1.97628 0.5123,-3.51339 1.53052,-4.60499 1.02141,-1.09475 2.36421,-1.64213 4.0252,-1.64213 1.45417,0 2.63149,0.42962 3.54155,1.28889 0.53775,0.50918 0.94187,1.23797 1.21234,2.18633 l -2.3706,0.56649 c -0.14325,-0.61421 -0.43592,-1.10114 -0.8814,-1.45756 -0.44547,-0.35644 -0.98643,-0.53465 -1.62281,-0.53465 -0.87822,0 -1.59417,0.31824 -2.14147,0.94836 -0.54729,0.63012 -0.82094,1.65488 -0.82094,3.07106 0,1.49893 0.26728,2.56823 0.80821,3.20472 0.54094,0.63648 1.24098,0.95793 2.10646,0.95793 0.6364,0 1.1837,-0.20369 1.64191,-0.60786 0.46138,-0.40418 0.78912,-1.04384 0.98959,-1.91264" />
    <path
       id="path11512"
       style="fill:#000000;fill-opacity:1;fill-rule:nonzero;stroke:none"
       d="m 228.47604,355.11368 2.42149,0 2.05556,6.1071 2.011,-6.1071 2.35465,0 -3.0356,8.27753 -0.54411,1.49893 c -0.20034,0.50284 -0.38819,0.88792 -0.56958,1.15205 l -0.62366,0.64287 c -0.23546,0.16218 -0.52502,0.29276 -0.8655,0.38507 -0.34365,0.0891 -0.73186,0.13673 -1.1646,0.13673 -0.43592,0 -0.8655,-0.0479 -1.28551,-0.13673 l -0.20364,-1.78218 c 0.35637,0.07 0.67775,0.10488 0.96412,0.10488 0.52822,0 0.91959,-0.15615 1.17415,-0.46781 0.25456,-0.3087 0.44866,-0.70332 0.58232,-1.18388 l -3.27109,-8.62761 z" />
    <path
       id="path11516"
       style="fill:#000000;fill-opacity:1;fill-rule:nonzero;stroke:none"
       d="m 240.96335,359.26898 c 0,0.96747 0.19091,1.68033 0.57593,2.14178 0.38184,0.46145 0.8496,0.69377 1.40007,0.69377 0.52821,0 0.96734,-0.21334 1.32052,-0.63648 0.35002,-0.42326 0.52503,-1.11704 0.52503,-2.08449 0,-0.90065 -0.18125,-1.57214 -0.54093,-2.00812 -0.36275,-0.43918 -0.81141,-0.65559 -1.34598,-0.65559 -0.55366,0 -1.01823,0.21336 -1.38416,0.64284 -0.36594,0.42646 -0.55048,1.06294 -0.55048,1.90629 m -2.24964,-4.15627 2.11918,0 0,1.26663 c 0.27683,-0.43282 0.64913,-0.7829 1.12006,-1.0534 0.46774,-0.27051 0.98959,-0.40418 1.56235,-0.40418 0.99913,0 1.84554,0.39146 2.54239,1.17433 0.69684,0.7797 1.04368,1.87127 1.04368,3.27155 0,1.43528 -0.35002,2.55232 -1.05323,3.34792 -0.70003,0.79562 -1.54962,1.19343 -2.54877,1.19343 -0.47728,0 -0.90685,-0.0922 -1.29187,-0.28324 -0.3882,-0.18763 -0.79232,-0.51237 -1.21869,-0.97064 l 0,4.33448 -2.2751,0 0,-11.87688 z" />
    <path
       id="path11520"
       style="fill:#000000;fill-opacity:1;fill-rule:nonzero;stroke:none"
       d="m 251.08616,363.71612 -2.2751,0 0,-8.60214 2.11283,0 0,1.22207 c 0.36275,-0.57603 0.6873,-0.95474 0.97686,-1.1425 0.28957,-0.18129 0.6173,-0.2737 0.98323,-0.2737 0.51866,0 1.01824,0.1431 1.49871,0.42963 l -0.7064,1.98267 c -0.38184,-0.24823 -0.73822,-0.36917 -1.06914,-0.36917 -0.31821,0 -0.58867,0.0858 -0.80822,0.26097 -0.22273,0.17516 -0.39456,0.49328 -0.52183,0.95155 -0.12727,0.45827 -0.19094,1.42256 -0.19094,2.88329 l 0,2.65733 z" />
    <path
       id="path11524"
       style="fill:#000000;fill-opacity:1;fill-rule:nonzero;stroke:none"
       d="m 261.0225,363.71612 0,-1.28888 c -0.31184,0.45828 -0.72549,0.82106 -1.23461,1.08522 -0.50912,0.26413 -1.05005,0.3978 -1.61645,0.3978 -0.57593,0 -1.09459,-0.12728 -1.5528,-0.3819 -0.46138,-0.25128 -0.79231,-0.60784 -0.99913,-1.06929 -0.20365,-0.45828 -0.30548,-1.09158 -0.30548,-1.90311 l 0,-5.44198 2.27513,0 0,3.9526 c 0,1.20932 0.0412,1.95084 0.12399,2.22453 l 0.45821,0.64603 c 0.22273,0.15909 0.50274,0.24187 0.84322,0.24187 0.3882,0 0.73504,-0.10818 1.04368,-0.32143 0.30864,-0.21334 0.51866,-0.47736 0.63322,-0.7956 0.11127,-0.31506 0.16851,-1.0884 0.16851,-2.32001 l 0,-3.62799 2.27511,0 0,8.60214 -2.11283,0 z" />
    <path
       id="path11528"
       style="fill:#000000;fill-opacity:1;fill-rule:nonzero;stroke:none"
       d="m 264.69095,361.26122 2.28466,-0.34689 c 0.0954,0.44236 0.29274,0.77971 0.58867,1.00567 0.2991,0.23242 0.71275,0.34368 1.24732,0.34368 0.58867,0 1.03414,-0.10488 1.33008,-0.32141 l 0.2991,-0.60786 -0.16218,-0.42962 c -0.11455,-0.10819 -0.36594,-0.20699 -0.7605,-0.29916 -1.836,-0.40417 -3.0006,-0.77333 -3.49062,-1.11066 -0.68094,-0.46464 -1.02141,-1.11068 -1.02141,-1.93493 0,-0.74469 0.29591,-1.37163 0.88458,-1.87764 0.58866,-0.5092 1.49871,-0.76061 2.7365,-0.76061 1.17732,0 2.05238,0.19095 2.62194,0.57285 0.57275,0.38188 0.96731,0.95154 1.18369,1.69942 l -2.14464,0.39781 c -0.0922,-0.33416 -0.26729,-0.58876 -0.52502,-0.76698 -0.25456,-0.17821 -0.62049,-0.26733 -1.09462,-0.26733 -0.60139,0 -1.03095,0.0827 -1.2887,0.24825 l -0.26091,0.46145 0.2291,0.41371 c 0.20365,0.15273 0.91323,0.36598 2.12556,0.63966 1.21234,0.27688 2.05873,0.61422 2.53922,1.01203 0.47409,0.40735 0.71275,0.97064 0.71275,1.69624 0,0.78606 -0.33092,1.46393 -0.98958,2.03039 -0.65867,0.56649 -1.63237,0.84973 -2.92424,0.84973 -1.17097,0 -2.09692,-0.23552 -2.78105,-0.7097 -0.68411,-0.47736 -1.1296,-1.12339 -1.33961,-1.9381" />
    <path
       id="path11532"
       style="fill:#ffdb00;fill-opacity:1;fill-rule:nonzero;stroke:none"
       d="m 193.22645,377.1031 8.69314,0 0,2.09721 -6.20166,0 0,10.25384 -2.49148,0 0,-12.35105 z" />
    <path
       id="path11536"
       style="fill:#ffdb00;fill-opacity:1;fill-rule:nonzero;stroke:none"
       d="m 204.19122,389.45319 0,-12.35108 9.15452,0 0,2.09088 -6.65986,0 0,2.7369 6.19848,0 0,2.08132 -6.19848,0 0,3.36066 6.89534,0 0,2.08132 -9.39,0 z" />
    <path
       id="path11540"
       style="fill:#ffdb00;fill-opacity:1;fill-rule:nonzero;stroke:none"
       d="m 218.82859,379.19299 0,3.50388 1.36507,0 c 0.98323,0 1.63871,-0.0636 1.96964,-0.19401 0.33091,-0.12727 0.59184,-0.33097 0.7796,-0.60467 0.18762,-0.27688 0.28321,-0.59512 0.28321,-0.9611 0,-0.44871 -0.13363,-0.82106 -0.39774,-1.11385 -0.26415,-0.2896 -0.59823,-0.47418 -1.00233,-0.54738 -0.29593,-0.054 -0.89414,-0.0827 -1.79145,-0.0827 l -1.20597,0 z m -2.49466,10.2602 0,-12.35108 4.00292,0 c 1.51463,0 2.5042,0.0636 2.96561,0.1846 0.70642,0.18788 1.29825,0.59194 1.77555,1.20933 0.4773,0.62375 0.71593,1.42254 0.71593,2.40592 0,0.75742 -0.13672,1.39709 -0.41047,1.91265 -0.27683,0.51873 -0.62684,0.9229 -1.05004,1.21887 -0.4232,0.29597 -0.85594,0.49011 -1.29188,0.58558 -0.59503,0.11454 -1.45734,0.17516 -2.58695,0.17516 l -1.62598,0 0,4.65909 -2.49466,0 z" />
    <path
       d="m 228.40475,389.45319 2.49465,0 0,-12.35108 -2.49465,0 0,12.35108 z"
       style="fill:#ffdb00;fill-opacity:1;fill-rule:nonzero;stroke:none"
       id="path11542" />
    <path
       id="path11546"
       style="fill:#ffffff;fill-opacity:1;fill-rule:nonzero;stroke:none"
       d="m 198.92885,402.85473 0,-2.08132 5.37435,0 0,4.92007 c -0.52185,0.506 -1.27916,0.95155 -2.27192,1.33663 -0.9896,0.38507 -1.99192,0.57602 -3.01015,0.57602 -1.29187,0 -2.4183,-0.27051 -3.37606,-0.81153 -0.96096,-0.54101 -1.68326,-1.31752 -2.16693,-2.32636 -0.48049,-1.00884 -0.72231,-2.1036 -0.72231,-3.29066 0,-1.2857 0.26727,-2.42819 0.80823,-3.42747 0.53775,-0.9993 1.32687,-1.76626 2.36738,-2.30091 0.78912,-0.40737 1.77553,-0.61421 2.95603,-0.61421 1.53054,0 2.73016,0.32142 3.59246,0.96426 0.86232,0.64287 1.41598,1.53395 1.66417,2.6669 l -2.47875,0.46463 c -0.17182,-0.60784 -0.49958,-1.08521 -0.98006,-1.43846 -0.48046,-0.35007 -1.07868,-0.52511 -1.79782,-0.52511 -1.0914,0 -1.9569,0.34372 -2.59966,1.03748 -0.64274,0.68741 -0.96414,1.71215 -0.96414,3.07424 0,1.46393 0.32457,2.56506 0.97688,3.29701 0.6523,0.73197 1.50506,1.09795 2.56148,1.09795 0.52184,0 1.04368,-0.10184 1.5687,-0.30551 0.52822,-0.207 0.97688,-0.45509 1.35235,-0.74788 l 0,-1.56577 -2.85423,0 z" />
    <path
       id="path11550"
       style="fill:#ffffff;fill-opacity:1;fill-rule:nonzero;stroke:none"
       d="m 212.53848,402.15559 c -0.0147,-0.68423 -0.19423,-1.20615 -0.53139,-1.56257 -0.3373,-0.35644 -0.74459,-0.53465 -1.22825,-0.53465 -0.51866,0 -0.94505,0.18788 -1.28234,0.56329 -0.3341,0.37871 -0.50274,0.8879 -0.49637,1.53393 l 3.53835,0 z m -0.13363,2.39319 2.35783,0.39464 c -0.30228,0.86561 -0.78276,1.52437 -1.43507,1.97629 -0.65548,0.45191 -1.47324,0.67785 -2.45648,0.67785 -1.55597,0 -2.70786,-0.50917 -3.45244,-1.52438 -0.59184,-0.81471 -0.88457,-1.84263 -0.88457,-3.08379 0,-1.47983 0.38502,-2.64143 1.16142,-3.48478 0.77322,-0.83698 1.75326,-1.25706 2.94013,-1.25706 1.33006,0 2.38012,0.43918 3.15014,1.31753 0.77005,0.88154 1.13597,2.22452 1.10416,4.03852 l -5.9312,0 c 0.0146,0.70332 0.2067,1.25069 0.57276,1.63896 0.36593,0.39145 0.82094,0.58557 1.36506,0.58557 0.36911,0 0.68094,-0.0986 0.9355,-0.30233 0.25126,-0.20062 0.4423,-0.52829 0.57276,-0.97702" />
    <path
       id="path11554"
       style="fill:#ffffff;fill-opacity:1;fill-rule:nonzero;stroke:none"
       d="m 219.72145,407.39609 -2.36738,0 0,-8.94586 2.19874,0 0,1.27297 c 0.37548,-0.60464 0.71594,-0.99928 1.01506,-1.19022 0.2991,-0.19096 0.64275,-0.28642 1.02459,-0.28642 0.53775,0 1.05641,0.14945 1.55599,0.44554 l -0.73187,2.06541 c -0.39774,-0.25777 -0.77003,-0.38826 -1.11051,-0.38826 -0.33092,0 -0.6141,0.0922 -0.84322,0.27368 -0.22909,0.18459 -0.41046,0.51238 -0.5441,0.98974 -0.13037,0.48056 -0.1973,1.47985 -0.1973,3.00106 l 0,2.76236 z" />
    <path
       id="path11558"
       style="fill:#ffffff;fill-opacity:1;fill-rule:nonzero;stroke:none"
       d="m 224.80591,398.44996 2.36739,0 0,8.94585 -2.36739,0 0,-8.94585 z m 0,-3.40523 2.36739,0 0,2.18953 -2.36739,0 0,-2.18953 z" />
    <path
       id="path11562"
       style="fill:#ffdb00;fill-opacity:1;fill-rule:nonzero;stroke:none"
       d="m 323.59978,492.15542 4.41338,12.35107 -2.70467,0 -3.1247,-9.13362 -3.02287,9.13362 -2.64422,0 4.42294,-12.35107 2.66014,0 z" />
    <path
       id="path11566"
       style="fill:#ffdb00;fill-opacity:1;fill-rule:nonzero;stroke:none"
       d="m 336.45972,499.61856 -1.70235,-4.58272 -1.66736,4.58272 3.36971,0 z m 4.59159,4.88822 -2.71422,0 -1.07551,-2.8069 -4.93842,0 -1.01823,2.8069 -2.64422,0 4.80796,-12.35105 2.63785,0 4.94479,12.35105 z" />
    <path
       id="path11570"
       style="fill:#ffdb00;fill-opacity:1;fill-rule:nonzero;stroke:none"
       d="m 344.35895,504.50549 0,-10.26019 -3.66562,0 0,-2.09088 9.81319,0 0,2.09088 -3.65608,0 0,10.26019 -2.49149,0 z" />
    <path
       id="path11574"
       style="fill:#ffdb00;fill-opacity:1;fill-rule:nonzero;stroke:none"
       d="m 352.41795,492.15542 8.54995,0 0,2.09087 -5.47617,0 3.1915,3.80619 -3.51925,4.37269 6.06484,0 0,2.08132 -8.96997,0 0,-2.31045 3.30924,-4.14356 -3.15014,-3.67254 0,-2.22452 z" />
    <path
       d="m 363.67033,504.50806 2.49467,0 0,-12.35106 -2.49467,0 0,12.35106 z"
       style="fill:#ffdb00;fill-opacity:1;fill-rule:nonzero;stroke:none"
       id="path11576" />
    <path
       id="path11580"
       style="fill:#ffdb00;fill-opacity:1;fill-rule:nonzero;stroke:none"
       d="m 375.72173,499.61856 -1.70553,-4.58272 -1.66736,4.58272 3.37289,0 z m 4.58839,4.88822 -2.71102,0 -1.0787,-2.8069 -4.93523,0 -1.01824,2.8069 -2.64739,0 4.81113,-12.35105 2.63468,0 4.94477,12.35105 z" />
    <path
       id="path11584"
       style="fill:#ffffff;fill-opacity:1;fill-rule:nonzero;stroke:none"
       d="m 317.83852,522.44846 0,-12.24923 2.49466,0 0,10.16791 6.19849,0 0,2.08132 -8.69315,0 z" />
    <path
       id="path11588"
       style="fill:#ffffff;fill-opacity:1;fill-rule:nonzero;stroke:none"
       d="m 333.86577,518.15184 c -0.30228,0.10184 -0.78276,0.22277 -1.44143,0.3628 -0.65549,0.14 -1.08504,0.27686 -1.2887,0.41372 -0.30864,0.21971 -0.46138,0.49646 -0.46138,0.83379 0,0.33097 0.12417,0.61421 0.36912,0.85607 0.24818,0.24186 0.5632,0.36599 0.94504,0.36599 0.42638,0 0.83367,-0.14309 1.21869,-0.42327 0.28955,-0.21334 0.47729,-0.47418 0.5664,-0.78288 0.0605,-0.20366 0.0924,-0.58876 0.0924,-1.15523 l 0,-0.47099 z m -3.16605,-1.9222 -2.14783,-0.38507 c 0.24182,-0.86563 0.65548,-1.5053 1.24415,-1.9222 0.59184,-0.41691 1.46688,-0.62377 2.6283,-0.62377 1.05641,0 1.84236,0.12401 2.35784,0.37553 0.51866,0.24824 0.88141,0.56649 1.09143,0.95156 0.21331,0.38508 0.31819,1.09157 0.31819,2.11951 l -0.0255,2.76236 c 0,0.78606 0.0382,1.36525 0.11128,1.74079 0.0764,0.37234 0.21967,0.77335 0.42638,1.19979 l -2.34193,0 c -0.0604,-0.15583 -0.13672,-0.39144 -0.22604,-0.70014 l -0.0858,-0.27689 c -0.4041,0.39144 -0.83686,0.68741 -1.29505,0.88473 -0.4614,0.19731 -0.95459,0.29597 -1.47644,0.29597 -0.9196,0 -1.64508,-0.25129 -2.17647,-0.75106 -0.53139,-0.49965 -0.79549,-1.13295 -0.79549,-1.89673 0,-0.50282 0.1209,-0.95473 0.36274,-1.34937 0.24183,-0.3978 0.57912,-0.70013 1.01505,-0.91334 0.43276,-0.21005 1.06278,-0.39145 1.88055,-0.55057 1.10732,-0.20699 1.87417,-0.401 2.30056,-0.5792 l 0,-0.23857 c 0,-0.45509 -0.11144,-0.77651 -0.33728,-0.97063 -0.22275,-0.19427 -0.64912,-0.28961 -1.2728,-0.28961 -0.42002,0 -0.74777,0.0827 -0.98323,0.24823 -0.23545,0.16548 -0.42639,0.45509 -0.57276,0.86881" />
    <path
       id="path11592"
       style="fill:#ffffff;fill-opacity:1;fill-rule:nonzero;stroke:none"
       d="m 343.2637,513.50198 0,1.88718 -1.61646,0 0,3.60572 c 0,0.72878 0.0147,1.15522 0.0445,1.27616 l 0.21306,0.29915 0.39776,0.11765 c 0.21967,0 0.53775,-0.0764 0.9514,-0.2261 l 0.20364,1.83628 c -0.55047,0.2355 -1.17415,0.35324 -1.871,0.35324 -0.42637,0 -0.81139,-0.0732 -1.15187,-0.21639 -0.34365,-0.14342 -0.59502,-0.3278 -0.75412,-0.55376 -0.16219,-0.22914 -0.27047,-0.53784 -0.33411,-0.92291 -0.0509,-0.27686 -0.0764,-0.83061 -0.0764,-1.6676 l 0,-3.90168 -1.08505,0 0,-1.88717 1.08505,0 0,-1.77899 2.37692,-1.38119 0,3.16018 1.61645,0 z" />
    <path
       id="path11596"
       style="fill:#ffffff;fill-opacity:1;fill-rule:nonzero;stroke:none"
       d="m 344.71057,519.89614 2.37375,-0.36279 c 0.10184,0.46145 0.30865,0.81152 0.61731,1.05021 0.30864,0.23855 0.74138,0.35644 1.29506,0.35644 0.61411,0 1.07232,-0.11161 1.38097,-0.33736 l 0.31184,-0.63011 -0.16852,-0.44874 c -0.1178,-0.11127 -0.38184,-0.2164 -0.78913,-0.31187 -1.9092,-0.42008 -3.12152,-0.80515 -3.63064,-1.15205 -0.70957,-0.48372 -1.06276,-1.15522 -1.06276,-2.01448 0,-0.77333 0.30545,-1.42573 0.91958,-1.95402 0.61095,-0.52829 1.55917,-0.79242 2.84787,-0.79242 1.22186,0 2.13191,0.20061 2.72695,0.5983 0.59503,0.40098 1.0055,0.98972 1.23142,1.76943 l -2.23375,0.41371 c -0.0954,-0.35005 -0.27683,-0.61421 -0.54411,-0.80196 -0.26411,-0.18459 -0.64594,-0.27689 -1.13916,-0.27689 -0.62365,0 -1.06913,0.0859 -1.3396,0.26096 l -0.27047,0.48056 0.23548,0.42963 c 0.21331,0.15908 0.9514,0.37871 2.21146,0.66513 1.26005,0.28642 2.14146,0.63648 2.64104,1.05339 0.49321,0.42008 0.7414,1.00565 0.7414,1.75989 0,0.82108 -0.34366,1.52439 -1.02777,2.11313 -0.68413,0.59194 -1.69918,0.88791 -3.04197,0.88791 -1.2187,0 -2.18284,-0.24823 -2.89242,-0.74152 -0.70957,-0.49645 -1.17414,-1.16794 -1.39369,-2.01448" />
    <path
       id="path11600"
       style="fill:#ffffff;fill-opacity:1;fill-rule:nonzero;stroke:none"
       d="m 355.77587,513.50168 2.36738,0 0,8.94585 -2.36738,0 0,-8.94585 z m 0,-3.40204 2.36738,0 0,2.18952 -2.36738,0 0,-2.18952 z" />
    <path
       id="path11604"
       style="fill:#ffffff;fill-opacity:1;fill-rule:nonzero;stroke:none"
       d="m 366.1437,518.15184 c -0.3023,0.10184 -0.78276,0.22277 -1.44144,0.3628 -0.65548,0.14 -1.08506,0.27686 -1.2887,0.41372 -0.30865,0.21971 -0.46138,0.49646 -0.46138,0.83379 0,0.33097 0.1209,0.61421 0.3691,0.85607 0.2482,0.24186 0.56321,0.36599 0.94505,0.36599 0.42639,0 0.83368,-0.14309 1.2187,-0.42327 0.28638,-0.21334 0.47729,-0.47418 0.56638,-0.78288 0.0637,-0.20366 0.0922,-0.58876 0.0922,-1.15523 l 0,-0.47099 z m -3.16607,-1.9222 -2.14782,-0.38507 c 0.23851,-0.86563 0.65549,-1.5053 1.24414,-1.9222 0.59186,-0.41691 1.4669,-0.62377 2.62831,-0.62377 1.05642,0 1.84236,0.12401 2.35785,0.37553 0.51866,0.24824 0.88141,0.56649 1.09459,0.95156 0.2067,0.38508 0.31502,1.09157 0.31502,2.11951 l -0.0255,2.76236 c 0,0.78606 0.0349,1.36525 0.11127,1.74079 0.0764,0.37234 0.2197,0.77335 0.4264,1.19979 l -2.33875,0 c -0.0636,-0.15583 -0.13999,-0.39144 -0.22911,-0.70014 l -0.0858,-0.27689 c -0.40411,0.39144 -0.83685,0.68741 -1.29506,0.88473 -0.46138,0.19731 -0.95459,0.29597 -1.47644,0.29597 -0.91958,0 -1.64508,-0.25129 -2.17646,-0.75106 -0.53139,-0.49965 -0.7955,-1.13295 -0.7955,-1.89673 0,-0.50282 0.12091,-0.95473 0.36275,-1.34937 0.23853,-0.3978 0.57912,-0.70013 1.01504,-0.91334 0.43276,-0.21005 1.0628,-0.39145 1.88056,-0.55057 1.10731,-0.20699 1.87417,-0.401 2.30057,-0.5792 l 0,-0.23857 c 0,-0.45509 -0.11455,-0.77651 -0.3373,-0.97063 -0.22604,-0.19427 -0.64912,-0.28961 -1.2728,-0.28961 -0.42001,0 -0.74775,0.0827 -0.98321,0.24823 -0.23548,0.16548 -0.42958,0.45509 -0.57277,0.86881" />
    <path
       id="path11608"
       style="fill:#ffdb00;fill-opacity:1;fill-rule:nonzero;stroke:none"
       d="m 63.278883,546.13793 -1.702354,-4.58272 -1.667352,4.58272 3.369706,0 z m 4.591589,4.88823 -2.714226,0 -1.078689,-2.80691 -4.935237,0 -1.01823,2.80691 -2.644217,0 4.807957,-12.35104 2.637854,0 4.944788,12.35104 z" />
    <path
       id="path11612"
       style="fill:#ffdb00;fill-opacity:1;fill-rule:nonzero;stroke:none"
       d="m 72.819065,543.80485 4.009292,0 0,2.09086 -4.009292,0 0,-2.09086 z m -1.412797,1.03748 c 0,1.43527 0.330936,2.50458 0.992776,3.20789 0.66185,0.70334 1.473257,1.0534 2.434209,1.0534 0.954598,0 1.759629,-0.34688 2.418303,-1.04067 0.655485,-0.69377 0.983223,-1.7758 0.983223,-3.24608 0,-1.38755 -0.302279,-2.43776 -0.906857,-3.15062 -0.607755,-0.71286 -1.438246,-1.0693 -2.494669,-1.0693 -1.065955,0 -1.905998,0.35962 -2.513753,1.08521 -0.610943,0.72241 -0.913232,1.7758 -0.913232,3.16017 m -2.571025,0.0827 c 0,-2.00811 0.528201,-3.58978 1.584624,-4.73866 1.056413,-1.14886 2.51693,-1.72169 4.387937,-1.72169 1.880539,0 3.353796,0.58239 4.413386,1.74398 1.062778,1.16159 1.59099,2.71462 1.59099,4.65593 0,1.94445 -0.528212,3.49431 -1.59099,4.64317 -1.05959,1.15203 -2.462845,1.72806 -4.20338,1.72806 -1.380974,0 -2.501024,-0.24186 -3.363338,-0.72559 -0.862324,-0.48055 -1.546446,-1.20614 -2.055564,-2.17043 -0.509107,-0.96109 -0.763665,-2.1004 -0.763665,-3.41477" />
    <path
       id="path11616"
       style="fill:#ffdb00;fill-opacity:1;fill-rule:nonzero;stroke:none"
       d="m 89.504386,546.13793 -1.702357,-4.58272 -1.667355,4.58272 3.369712,0 z m 4.591578,4.88823 -2.714227,0 -1.078684,-2.80691 -4.935233,0 -1.018235,2.80691 -2.644214,0 4.807958,-12.35104 2.63785,0 4.944785,12.35104 z" />
    <path
       id="path11620"
       style="fill:#ffdb00;fill-opacity:1;fill-rule:nonzero;stroke:none"
       d="m 101.88446,538.67448 4.4134,12.35105 -2.70468,0 -3.12469,-9.13361 -3.022875,9.13361 -2.644215,0 4.419761,-12.35105 2.663299,0 z" />
    <path
       id="path11624"
       style="fill:#ffdb00;fill-opacity:1;fill-rule:nonzero;stroke:none"
       d="m 114.74441,546.13793 -1.70235,-4.58272 -1.66736,4.58272 3.36971,0 z m 4.59158,4.88823 -2.71421,0 -1.0787,-2.80691 -4.93524,0 -1.01822,2.80691 -2.64422,0 4.80796,-12.35104 2.63785,0 4.94478,12.35104 z" />
    <path
       id="path11628"
       style="fill:#ffdb00;fill-opacity:1;fill-rule:nonzero;stroke:none"
       d="m 120.95847,538.67448 8.54995,0 0,2.09086 -5.47617,0 3.19471,3.8062 -3.52245,4.37268 6.06483,0 0,2.08131 -8.96998,0 0,-2.31045 3.30927,-4.14354 -3.15016,-3.67253 0,-2.22453 z" />
    <path
       id="path11632"
       style="fill:#ffdb00;fill-opacity:1;fill-rule:nonzero;stroke:none"
       d="m 131.9487,538.67448 8.54994,0 0,2.09086 -5.47617,0 3.19153,3.8062 -3.51926,4.37268 6.06483,0 0,2.08131 -8.96997,0 0,-2.31045 3.30925,-4.14354 -3.15015,-3.67253 0,-2.22453 z" />
    <path
       id="path11636"
       style="fill:#ffdb00;fill-opacity:1;fill-rule:nonzero;stroke:none"
       d="m 149.82058,546.13793 -1.70235,-4.58272 -1.66736,4.58272 3.36971,0 z m 4.59158,4.88823 -2.71423,0 -1.07868,-2.80691 -4.93523,0 -1.01824,2.80691 -2.64421,0 4.80796,-12.35104 2.63785,0 4.94478,12.35104 z" />
    <path
       id="path11640"
       style="fill:#ffffff;fill-opacity:1;fill-rule:nonzero;stroke:none"
       d="m 63.278883,564.08085 -1.702354,-4.5827 -1.667352,4.5827 3.369706,0 z m 4.591589,4.88823 -2.714226,0 -1.078689,-2.8069 -4.935237,0 -1.01823,2.8069 -2.644217,0 4.807957,-12.35105 2.637854,0 4.944788,12.35105 z" />
    <path
       id="path11644"
       style="fill:#ffffff;fill-opacity:1;fill-rule:nonzero;stroke:none"
       d="m 73.914961,560.02136 0,1.88719 -1.616438,0 0,3.6057 c 0,0.72878 0.01536,1.15523 0.0445,1.27616 l 0.21332,0.29915 0.39775,0.1178 c 0.219684,0 0.537753,-0.0764 0.95141,-0.22582 l 0.20364,1.83627 c -0.550483,0.2355 -1.174145,0.35324 -1.870996,0.35324 -0.426386,0 -0.811407,-0.0732 -1.151874,-0.2164 -0.343655,-0.14311 -0.595026,-0.32779 -0.754124,-0.55375 -0.162148,-0.22913 -0.270465,-0.53783 -0.334113,-0.9229 -0.05092,-0.27689 -0.07638,-0.83062 -0.07638,-1.66761 l 0,-3.90168 -1.085059,0 0,-1.88717 1.085059,0 0,-1.779 2.376927,-1.38118 0,3.16018 1.616438,0 z" />
    <path
       id="path11648"
       style="fill:#ffffff;fill-opacity:1;fill-rule:nonzero;stroke:none"
       d="m 78.554258,556.61772 0,4.54136 c 0.763666,-0.89427 1.676898,-1.33982 2.736499,-1.33982 0.544108,0 1.037318,0.0986 1.476423,0.30234 0.435928,0.20368 0.766864,0.46145 0.989599,0.77651 0.219421,0.31505 0.372281,0.66195 0.451835,1.04385 0.08269,0.38188 0.12416,0.97383 0.12416,1.77579 l 0,5.25104 -2.367374,0 0,-4.72594 c 0,-0.93881 -0.0445,-1.53393 -0.133628,-1.78852 l -0.477284,-0.60148 c -0.225796,-0.14963 -0.512305,-0.22278 -0.855959,-0.22278 -0.391375,0 -0.741395,0.0954 -1.050049,0.28642 -0.308654,0.19095 -0.537753,0.47738 -0.680944,0.86245 -0.140004,0.38508 -0.21332,0.95472 -0.21332,1.70896 l 0,4.48089 -2.367384,0 0,-12.35107 2.367384,0 z" />
    <path
       id="path11652"
       style="fill:#ffffff;fill-opacity:1;fill-rule:nonzero;stroke:none"
       d="m 92.307394,564.67121 c -0.302279,0.10184 -0.78276,0.22277 -1.441434,0.3628 -0.655485,0.14 -1.085059,0.27688 -1.2887,0.41372 -0.308654,0.21947 -0.461387,0.49646 -0.461387,0.83381 0,0.33096 0.12416,0.61421 0.369114,0.85607 0.248194,0.24186 0.563202,0.36598 0.945035,0.36598 0.426397,0 0.833688,-0.14309 1.218709,-0.42327 0.286372,-0.21335 0.477283,-0.47417 0.566379,-0.78287 0.06049,-0.20368 0.09216,-0.58876 0.09216,-1.15523 l 0,-0.47101 z m -3.166051,-1.9222 -2.147838,-0.38507 c 0.238516,-0.86563 0.655486,-1.50529 1.244158,-1.9222 0.591838,-0.41689 1.466882,-0.62375 2.628297,-0.62375 1.056413,0 1.842361,0.124 2.357843,0.37552 0.518659,0.24823 0.881409,0.56648 1.091403,0.95155 0.210027,0.38508 0.318207,1.09159 0.318207,2.11951 l -0.02546,2.76236 c 0,0.78608 0.03819,1.36527 0.111441,1.74081 0.07638,0.37234 0.219431,0.77332 0.426396,1.19978 l -2.341946,0 c -0.06039,-0.15599 -0.136732,-0.39144 -0.225786,-0.70014 l -0.08584,-0.27688 c -0.404115,0.39144 -0.836866,0.68741 -1.295065,0.88471 -0.461398,0.19732 -0.954598,0.29598 -1.476445,0.29598 -0.919586,0 -1.645074,-0.25129 -2.176452,-0.75105 -0.531389,-0.49965 -0.795511,-1.13295 -0.795511,-1.89673 0,-0.50284 0.120899,-0.95475 0.362749,-1.34937 0.241829,-0.39781 0.57913,-0.70014 1.015047,-0.91336 0.432741,-0.21005 1.062778,-0.39144 1.88056,-0.55056 1.10731,-0.20674 1.874174,-0.40099 2.300549,-0.57921 l 0,-0.23856 c 0,-0.45509 -0.111272,-0.7765 -0.337279,-0.97065 -0.226049,-0.19424 -0.649121,-0.28959 -1.272794,-0.28959 -0.420011,0 -0.747759,0.0827 -0.983234,0.24823 -0.235454,0.16548 -0.429563,0.4551 -0.572744,0.8688" />
    <path
       d="m 97.603471,568.96845 2.367385,0 0,-12.35106 -2.367385,0 0,12.35106 z"
       style="fill:#ffffff;fill-opacity:1;fill-rule:nonzero;stroke:none"
       id="path11654" />
    <path
       id="path11658"
       style="fill:#ffffff;fill-opacity:1;fill-rule:nonzero;stroke:none"
       d="m 107.97003,564.67121 c -0.3023,0.10184 -0.7828,0.22277 -1.44145,0.3628 -0.65549,0.14 -1.08506,0.27688 -1.28868,0.41372 -0.30866,0.21947 -0.4614,0.49646 -0.4614,0.83381 0,0.33096 0.124,0.61421 0.36912,0.85607 0.24819,0.24186 0.5632,0.36598 0.94504,0.36598 0.42638,0 0.83368,-0.14309 1.22189,-0.42327 0.28637,-0.21335 0.47409,-0.47417 0.5632,-0.78287 0.0604,-0.20368 0.0922,-0.58876 0.0922,-1.15523 l 0,-0.47101 z m -3.16607,-1.9222 -2.14783,-0.38507 c 0.24183,-0.86563 0.65549,-1.50529 1.24415,-1.9222 0.59185,-0.41689 1.46689,-0.62375 2.6283,-0.62375 1.0564,0 1.84235,0.124 2.36104,0.37552 0.51545,0.24823 0.87821,0.56648 1.08819,0.95155 0.21333,0.38508 0.31821,1.09159 0.31821,2.11951 l -0.0255,2.76236 c 0,0.78608 0.0382,1.36527 0.11127,1.74081 0.0764,0.37234 0.21968,0.77332 0.42641,1.19978 l -2.34197,0 c -0.0605,-0.15599 -0.13672,-0.39144 -0.22604,-0.70014 l -0.0858,-0.27688 c -0.4041,0.39144 -0.83683,0.68741 -1.29507,0.88471 -0.46138,0.19732 -0.95141,0.29598 -1.47644,0.29598 -0.91955,0 -1.64504,-0.25129 -2.17645,-0.75105 -0.53137,-0.49965 -0.79549,-1.13295 -0.79549,-1.89673 0,-0.50284 0.12089,-0.95475 0.36275,-1.34937 0.24185,-0.39781 0.57913,-0.70014 1.01503,-0.91336 0.43278,-0.21005 1.06281,-0.39144 1.88054,-0.55056 1.10737,-0.20674 1.87419,-0.40099 2.3006,-0.57921 l 0,-0.23856 c 0,-0.45509 -0.11144,-0.7765 -0.3373,-0.97065 -0.22274,-0.19424 -0.64912,-0.28959 -1.27279,-0.28959 -0.42003,0 -0.74778,0.0827 -0.98324,0.24823 -0.23548,0.16548 -0.42639,0.4551 -0.57276,0.8688" />
    <path
       id="path11662"
       style="fill:#ffffff;fill-opacity:1;fill-rule:nonzero;stroke:none"
       d="m 112.43273,566.41553 2.37692,-0.3628 c 0.0986,0.46145 0.30547,0.81151 0.61413,1.05021 0.30865,0.23855 0.74139,0.35643 1.29507,0.35643 0.6141,0 1.07232,-0.11146 1.38414,-0.33734 l 0.31184,-0.6333 -0.17184,-0.44555 c -0.11763,-0.11161 -0.38183,-0.21641 -0.78912,-0.31187 -1.90918,-0.4201 -3.12151,-0.80517 -3.63063,-1.15205 -0.70957,-0.48374 -1.06277,-1.15524 -1.06277,-2.0145 0,-0.77651 0.30546,-1.42572 0.91958,-1.95401 0.61094,-0.52828 1.55917,-0.79243 2.84787,-0.79243 1.22188,0 2.13193,0.20037 2.72694,0.5983 0.59504,0.40098 1.00552,0.98974 1.23144,1.76943 l -2.23375,0.41373 c -0.0954,-0.35007 -0.27683,-0.61421 -0.54412,-0.80198 -0.2641,-0.18458 -0.64595,-0.27687 -1.13915,-0.27687 -0.62366,0 -1.06914,0.0858 -1.3396,0.26096 l -0.27047,0.48054 0.23546,0.42964 c 0.21307,0.15599 0.95141,0.37871 2.21148,0.66513 1.26006,0.28641 2.14145,0.63649 2.64103,1.05338 0.49321,0.42009 0.7414,1.00567 0.7414,1.75989 0,0.82108 -0.34365,1.52439 -1.02778,2.11315 -0.68412,0.59194 -1.69917,0.88791 -3.04195,0.88791 -1.21871,0 -2.18284,-0.24824 -2.89243,-0.74152 -0.70957,-0.49646 -1.17415,-1.16795 -1.39369,-2.01448" />
    <path
       id="path11666"
       style="fill:#ffffff;fill-opacity:1;fill-rule:nonzero;stroke:none"
       d="m 122.66467,566.41553 2.37694,-0.3628 c 0.0986,0.46145 0.30546,0.81151 0.61411,1.05021 0.30866,0.23855 0.7414,0.35643 1.29506,0.35643 0.61412,0 1.07233,-0.11146 1.38416,-0.33734 l 0.31183,-0.6333 -0.17182,-0.44555 c -0.11764,-0.11161 -0.38184,-0.21641 -0.78913,-0.31187 -1.90918,-0.4201 -3.12152,-0.80517 -3.63063,-1.15205 -0.70958,-0.48374 -1.06277,-1.15524 -1.06277,-2.0145 0,-0.77651 0.30545,-1.42572 0.91958,-1.95401 0.61095,-0.52828 1.55917,-0.79243 2.84787,-0.79243 1.22186,0 2.13191,0.20037 2.72695,0.5983 0.59502,0.40098 1.0055,0.98974 1.23141,1.76943 l -2.23374,0.41373 c -0.0954,-0.35007 -0.27682,-0.61421 -0.54411,-0.80198 -0.2641,-0.18458 -0.64594,-0.27687 -1.13916,-0.27687 -0.62366,0 -1.07231,0.0858 -1.33959,0.26096 l -0.27047,0.48054 0.23547,0.42964 c 0.21331,0.15599 0.9514,0.37871 2.21147,0.66513 1.26004,0.28641 2.14145,0.63649 2.64103,1.05338 0.49321,0.42009 0.7414,1.00567 0.7414,1.75989 0,0.82108 -0.34366,1.52439 -1.02777,2.11315 -0.68413,0.59194 -1.69917,0.88791 -3.04198,0.88791 -1.21869,0 -2.18282,-0.24824 -2.89241,-0.74152 -0.70957,-0.49646 -1.17414,-1.16795 -1.3937,-2.01448" />
    <path
       id="path11670"
       style="fill:#ffffff;fill-opacity:1;fill-rule:nonzero;stroke:none"
       d="m 138.66677,564.67121 c -0.30228,0.10184 -0.78276,0.22277 -1.44142,0.3628 -0.65549,0.14 -1.08505,0.27688 -1.2887,0.41372 -0.30865,0.21947 -0.4614,0.49646 -0.4614,0.83381 0,0.33096 0.12416,0.61421 0.36912,0.85607 0.24819,0.24186 0.56321,0.36598 0.94505,0.36598 0.42638,0 0.83367,-0.14309 1.21869,-0.42327 0.28637,-0.21335 0.4773,-0.47417 0.56639,-0.78287 0.0605,-0.20368 0.0924,-0.58876 0.0924,-1.15523 l 0,-0.47101 z m -3.16605,-1.9222 -2.14784,-0.38507 c 0.24183,-0.86563 0.65549,-1.50529 1.24416,-1.9222 0.59184,-0.41689 1.46688,-0.62375 2.62831,-0.62375 1.0564,0 1.84235,0.124 2.35783,0.37552 0.51866,0.24823 0.88141,0.56648 1.09142,0.95155 0.21001,0.38508 0.3182,1.09159 0.3182,2.11951 l -0.0255,2.76236 c 0,0.78608 0.0382,1.36527 0.11144,1.74081 0.0764,0.37234 0.2197,0.77332 0.4264,1.19978 l -2.34193,0 c -0.0605,-0.15599 -0.13689,-0.39144 -0.22605,-0.70014 l -0.0858,-0.27688 c -0.4041,0.39144 -0.83685,0.68741 -1.29506,0.88471 -0.46138,0.19732 -0.95459,0.29598 -1.47643,0.29598 -0.91958,0 -1.64508,-0.25129 -2.17647,-0.75105 -0.53139,-0.49965 -0.79549,-1.13295 -0.79549,-1.89673 0,-0.50284 0.1209,-0.95475 0.36275,-1.34937 0.24183,-0.39781 0.57911,-0.70014 1.01505,-0.91336 0.43274,-0.21005 1.06277,-0.39144 1.88053,-0.55056 1.10734,-0.20674 1.8742,-0.40099 2.30057,-0.57921 l 0,-0.23856 c 0,-0.45509 -0.11144,-0.7765 -0.3373,-0.97065 -0.22273,-0.19424 -0.64912,-0.28959 -1.27278,-0.28959 -0.42002,0 -0.74776,0.0827 -0.98322,0.24823 -0.23547,0.16548 -0.42638,0.4551 -0.57277,0.8688" />
    <path
       id="path11674"
       style="fill:#ffdb00;fill-opacity:1;fill-rule:nonzero;stroke:none"
       d="m 59.235896,586.84396 0,3.30337 2.30693,0 c 0.900496,0 1.470069,-0.0254 1.7119,-0.0764 0.369108,-0.0669 0.671395,-0.23245 0.903654,-0.49327 0.232411,-0.26098 0.350042,-0.61103 0.350042,-1.04703 0,-0.37235 -0.0891,-0.68741 -0.270493,-0.94518 -0.17819,-0.25779 -0.439087,-0.44555 -0.776375,-0.5633 -0.340497,-0.12091 -1.078688,-0.17821 -2.211471,-0.17821 l -2.014187,0 z m 0,-4.91051 0,2.85465 1.635533,0 c 0.970501,0 1.575076,-0.0131 1.810542,-0.0412 0.426383,-0.0509 0.760464,-0.1973 1.005502,-0.44235 0.244886,-0.24492 0.365928,-0.56649 0.365928,-0.96428 0,-0.3819 -0.10514,-0.6906 -0.315016,-0.93246 -0.21001,-0.23857 -0.525026,-0.38189 -0.938707,-0.43281 -0.248194,-0.0287 -0.957748,-0.0412 -2.131896,-0.0412 l -1.431886,0 z m -2.494665,-2.05585 4.938418,0 c 0.976841,0 1.705538,0.0412 2.186015,0.12089 0.477295,0.0827 0.906861,0.25157 1.288699,0.51239 0.378654,0.25779 0.693669,0.60148 0.945045,1.03112 0.254557,0.42643 0.381836,0.91018 0.381836,1.44483 0,0.5792 -0.156044,1.10749 -0.46775,1.59121 -0.311833,0.48374 -0.735035,0.84335 -1.269607,1.08522 0.754127,0.21947 1.330065,0.59193 1.737357,1.12339 0.404111,0.52511 0.604574,1.14886 0.604574,1.85856 0,0.56329 -0.130591,1.11066 -0.391382,1.63895 -0.260922,0.53148 -0.617302,0.95793 -1.069142,1.27299 -0.45184,0.31824 -1.008686,0.51236 -1.673717,0.58556 -0.413657,0.0445 -1.415977,0.0732 -3.006963,0.0859 l -4.203383,0 0,-12.35108 z" />
    <path
       id="path11678"
       style="fill:#ffdb00;fill-opacity:1;fill-rule:nonzero;stroke:none"
       d="m 75.364032,592.22731 -2.367385,0 0,-8.92358 c -0.865491,0.81153 -1.883726,1.40663 -3.057871,1.7949 l 0,-2.14816 c 0.617297,-0.20061 1.2887,-0.58556 2.014188,-1.14886 0.725487,-0.56329 1.221875,-1.22206 1.489163,-1.97628 l 1.921905,0 0,12.40198 z" />
    <path
       d="m 49.848443,533.23595 178.298577,0 0,-42.091 -178.298577,0 0,42.091 z"
       style="fill:#ffffff;fill-opacity:1;fill-rule:evenodd;stroke:#000000;stroke-width:0.65250003;stroke-linecap:butt;stroke-linejoin:miter;stroke-miterlimit:10;stroke-opacity:1;stroke-dasharray:none"
       id="path11680" />
    <path
       id="path11684"
       style="fill:#000000;fill-opacity:1;fill-rule:nonzero;stroke:none"
       d="m 56.852601,494.92958 9.208624,0 0,2.22134 -6.567589,0 0,10.86167 -2.641035,0 0,-13.08301 z" />
    <path
       id="path11688"
       style="fill:#000000;fill-opacity:1;fill-rule:nonzero;stroke:none"
       d="m 67.498833,508.01129 0,-13.08302 9.698648,0 0,2.21498 -7.05761,0 0,2.89921 6.567587,0 0,2.20544 -6.567587,0 0,3.56115 7.305804,0 0,2.20224 -9.946842,0 z" />
    <path
       id="path11692"
       style="fill:#000000;fill-opacity:1;fill-rule:nonzero;stroke:none"
       d="m 79.420738,508.01129 0,-13.08302 2.571036,0 5.352077,8.739 0,-8.739 2.453304,0 0,13.08302 -2.65059,0 -5.272523,-8.53212 0,8.53212 -2.453304,0 z" />
    <path
       d="m 92.280031,508.01193 2.507388,0 0,-2.50776 -2.507388,0 0,2.50776 z"
       style="fill:#000000;fill-opacity:1;fill-rule:nonzero;stroke:none"
       id="path11694" />
    <path
       id="path11698"
       style="fill:#000000;fill-opacity:1;fill-rule:nonzero;stroke:none"
       d="m 101.8934,508.01129 0,-13.08302 2.57103,0 5.35207,8.739 0,-8.739 2.4533,0 0,13.08302 -2.65058,0 -5.27252,-8.53212 0,8.53212 -2.4533,0 z" />
    <path
       id="path11702"
       style="fill:#000000;fill-opacity:1;fill-rule:nonzero;stroke:none"
       d="m 116.95621,501.46152 c 0,1.47983 0.34048,2.60324 1.0246,3.36703 0.68413,0.76697 1.5528,1.14886 2.60602,1.14886 1.05324,0 1.91874,-0.37871 2.59331,-1.13932 0.67459,-0.75742 1.01187,-1.89674 1.01187,-3.41158 0,-1.49892 -0.32773,-2.61597 -0.9864,-3.35746 -0.6555,-0.73515 -1.53053,-1.10432 -2.61878,-1.10432 -1.08822,0 -1.96645,0.37235 -2.63148,1.12022 -0.66503,0.7447 -0.99914,1.87127 -0.99914,3.37657 m -2.72059,0.0891 c 0,-1.33025 0.19729,-2.45048 0.59822,-3.3543 0.29591,-0.6683 0.70323,-1.26341 1.2155,-1.79489 0.51548,-0.52828 1.07871,-0.9229 1.69282,-1.17751 0.81459,-0.34369 1.75327,-0.51554 2.81922,-0.51554 1.9251,0 3.46836,0.5951 4.62659,1.79171 1.15507,1.1966 1.73417,2.85782 1.73417,4.99007 0,2.10996 -0.57274,3.76484 -1.72144,4.95507 -1.14869,1.19341 -2.68241,1.79172 -4.60431,1.79172 -1.94419,0 -3.49062,-0.59512 -4.63931,-1.78218 -1.1487,-1.18705 -1.72146,-2.82283 -1.72146,-4.90415" />
    <path
       id="path11706"
       style="fill:#000000;fill-opacity:1;fill-rule:nonzero;stroke:none"
       d="m 128.33398,494.92958 9.05588,0 0,2.2118 -5.79754,0 3.37925,4.03532 -3.72927,4.63046 6.42441,0 0,2.20543 -9.50139,0 0,-2.44729 3.50653,-4.3886 -3.33787,-3.89212 0,-2.355 z" />
    <path
       id="path11710"
       style="fill:#000000;fill-opacity:1;fill-rule:nonzero;stroke:none"
       d="m 141.54967,501.46152 c 0,1.47983 0.34365,2.60324 1.02778,3.36703 0.68412,0.76697 1.54962,1.14886 2.60285,1.14886 1.05323,0 1.91871,-0.37871 2.5933,-1.13932 0.67458,-0.75742 1.01186,-1.89674 1.01186,-3.41158 0,-1.49892 -0.32773,-2.61597 -0.9864,-3.35746 -0.65548,-0.73515 -1.53053,-1.10432 -2.61876,-1.10432 -1.08824,0 -1.96645,0.37235 -2.6315,1.12022 -0.66503,0.7447 -0.99913,1.87127 -0.99913,3.37657 m -2.72058,0.0891 c 0,-1.33025 0.20058,-2.45048 0.59819,-3.3543 0.29594,-0.6683 0.70323,-1.26341 1.21553,-1.79489 0.51548,-0.52828 1.07868,-0.9229 1.69281,-1.17751 0.81458,-0.34369 1.75325,-0.51554 2.81922,-0.51554 1.92827,0 3.46835,0.5951 4.62659,1.79171 1.15505,1.1966 1.73417,2.85782 1.73417,4.99007 0,2.10996 -0.57276,3.76484 -1.72145,4.95507 -1.14869,1.19341 -2.68239,1.79172 -4.6043,1.79172 -1.94419,0 -3.49062,-0.59512 -4.63932,-1.78218 -1.1487,-1.18705 -1.72144,-2.82283 -1.72144,-4.90415" />
    <path
       id="path11714"
       style="fill:#000000;fill-opacity:1;fill-rule:nonzero;stroke:none"
       d="m 153.32072,508.01129 0,-13.08302 2.64103,0 0,5.81114 5.33616,-5.81114 3.5511,0 -4.92569,5.09828 5.19297,7.98474 -3.41743,0 -3.59563,-6.13893 -2.14148,2.18634 0,3.95259 -2.64103,0 z" />
    <path
       id="path11718"
       style="fill:#000000;fill-opacity:1;fill-rule:nonzero;stroke:none"
       d="m 167.53552,501.46152 c 0,1.47983 0.34048,2.60324 1.0246,3.36703 0.68412,0.76697 1.55283,1.14886 2.60603,1.14886 1.05323,0 1.91874,-0.37871 2.59331,-1.13932 0.67458,-0.75742 1.01187,-1.89674 1.01187,-3.41158 0,-1.49892 -0.32775,-2.61597 -0.98642,-3.35746 -0.65548,-0.73515 -1.53051,-1.10432 -2.61876,-1.10432 -1.08823,0 -1.96645,0.37235 -2.63149,1.12022 -0.66502,0.7447 -0.99914,1.87127 -0.99914,3.37657 m -2.72058,0.0891 c 0,-1.33025 0.19729,-2.45048 0.59822,-3.3543 0.29591,-0.6683 0.7032,-1.26341 1.21551,-1.79489 0.51547,-0.52828 1.07869,-0.9229 1.6928,-1.17751 0.81458,-0.34369 1.75328,-0.51554 2.81923,-0.51554 1.92828,0 3.46835,0.5951 4.62659,1.79171 1.15504,1.1966 1.73417,2.85782 1.73417,4.99007 0,2.10996 -0.57277,3.76484 -1.72144,4.95507 -1.1487,1.19341 -2.6824,1.79172 -4.60432,1.79172 -1.94418,0 -3.49062,-0.59512 -4.63932,-1.78218 -1.14867,-1.18705 -1.72144,-2.82283 -1.72144,-4.90415" />
    <path
       id="path11722"
       style="fill:#000000;fill-opacity:1;fill-rule:nonzero;stroke:none"
       d="m 179.2347,508.01129 0,-13.08302 3.952,0 2.37375,8.92357 2.34829,-8.92357 3.95838,0 0,13.08302 -2.4533,0 0,-10.29838 -2.59649,10.29838 -2.5424,0 -2.58694,-10.29838 0,10.29838 -2.45329,0 z" />
    <path
       id="path11726"
       style="fill:#000000;fill-opacity:1;fill-rule:nonzero;stroke:none"
       d="m 194.19951,508.01129 0,-13.08302 9.69864,0 0,2.21498 -7.05761,0 0,2.89921 6.5676,0 0,2.20544 -6.5676,0 0,3.56115 7.3058,0 0,2.20224 -9.94683,0 z" />
    <path
       d="m 206.01322,508.01193 2.64103,0 0,-13.08303 -2.64103,0 0,13.08303 z"
       style="fill:#000000;fill-opacity:1;fill-rule:nonzero;stroke:none"
       id="path11728" />
    <path
       id="path11732"
       style="fill:#000000;fill-opacity:1;fill-rule:nonzero;stroke:none"
       d="m 213.06513,501.46152 c 0,1.47983 0.34046,2.60324 1.02459,3.36703 0.68413,0.76697 1.55281,1.14886 2.60604,1.14886 1.05324,0 1.91872,-0.37871 2.59331,-1.13932 0.67458,-0.75742 1.01186,-1.89674 1.01186,-3.41158 0,-1.49892 -0.32774,-2.61597 -0.98641,-3.35746 -0.65548,-0.73515 -1.53053,-1.10432 -2.61876,-1.10432 -1.08825,0 -1.96646,0.37235 -2.6315,1.12022 -0.66503,0.7447 -0.99913,1.87127 -0.99913,3.37657 m -2.72059,0.0891 c 0,-1.33025 0.19728,-2.45048 0.59821,-3.3543 0.29593,-0.6683 0.70322,-1.26341 1.21552,-1.79489 0.51548,-0.52828 1.07868,-0.9229 1.69281,-1.17751 0.81458,-0.34369 1.75326,-0.51554 2.81921,-0.51554 1.9251,0 3.46835,0.5951 4.62659,1.79171 1.15506,1.1966 1.73417,2.85782 1.73417,4.99007 0,2.10996 -0.57274,3.76484 -1.72144,4.95507 -1.1487,1.19341 -2.68239,1.79172 -4.60431,1.79172 -1.94417,0 -3.49062,-0.59512 -4.63932,-1.78218 -1.14868,-1.18705 -1.72144,-2.82283 -1.72144,-4.90415" />
    <path
       id="path11736"
       style="fill:#000000;fill-opacity:1;fill-rule:nonzero;stroke:none"
       d="m 62.892949,523.13936 0,-2.20543 5.692543,0 0,5.21283 c -0.553661,0.53466 -1.355518,1.00567 -2.405567,1.41302 -1.05005,0.40734 -2.112829,0.61103 -3.188336,0.61103 -1.368247,0 -2.561487,-0.28643 -3.579716,-0.85926 -1.015049,-0.57603 -1.778723,-1.39711 -2.291021,-2.46323 -0.512296,-1.0693 -0.766855,-2.23088 -0.766855,-3.48477 0,-1.36526 0.283196,-2.57459 0.85595,-3.63435 0.569574,-1.05656 1.406432,-1.87127 2.507394,-2.43456 0.836859,-0.43599 1.880545,-0.64922 3.13106,-0.64922 1.622804,0 2.892411,0.33733 3.805637,1.01838 0.913229,0.68104 1.498703,1.62305 1.762814,2.82601 l -2.625128,0.49011 c -0.184556,-0.64287 -0.531389,-1.14888 -1.037323,-1.52122 -0.509115,-0.37235 -1.145509,-0.55693 -1.906,-0.55693 -1.155057,0 -2.071463,0.3628 -2.752405,1.09795 -0.680942,0.72877 -1.021412,1.81717 -1.021412,3.25562 0,1.55305 0.343651,2.71782 1.034139,3.49434 0.690488,0.77651 1.594168,1.16476 2.714222,1.16476 0.550482,0 1.107325,-0.10818 1.660989,-0.32778 0.556845,-0.21641 1.03414,-0.48055 1.435067,-0.78924 l 0,-1.65806 -3.026052,0 z" />
    <path
       id="path11740"
       style="fill:#000000;fill-opacity:1;fill-rule:nonzero;stroke:none"
       d="m 76.340564,522.39785 c -0.01778,-0.7256 -0.20364,-1.27616 -0.563202,-1.65487 -0.356353,-0.37871 -0.789135,-0.56648 -1.301398,-0.56648 -0.547306,0 -0.999172,0.19731 -1.355525,0.5983 -0.356384,0.3978 -0.534566,0.93882 -0.528233,1.62305 l 3.748358,0 z m -0.143054,2.53324 2.497846,0.42006 c -0.321373,0.91655 -0.827313,1.6135 -1.520977,2.09405 -0.693674,0.47738 -1.559197,0.71605 -2.599672,0.71605 -1.648283,0 -2.86696,-0.53783 -3.659272,-1.61348 -0.623683,-0.86246 -0.935493,-1.95085 -0.935493,-3.2652 0,-1.57214 0.410469,-2.80374 1.231417,-3.69164 0.820927,-0.8879 1.858246,-1.33344 3.111977,-1.33344 1.40961,0 2.523295,0.46464 3.337879,1.3971 0.814562,0.93245 1.205968,2.35818 1.16779,4.27719 l -6.281215,0 c 0.02041,0.74469 0.219684,1.32391 0.607734,1.73762 0.385042,0.41372 0.868679,0.62058 1.444642,0.62058 0.394562,0 0.7223,-0.10819 0.989588,-0.32143 0.270445,-0.2164 0.470929,-0.5601 0.607756,-1.03746" />
    <path
       id="path11744"
       style="fill:#000000;fill-opacity:1;fill-rule:nonzero;stroke:none"
       d="m 89.199909,527.94836 -2.507399,0 0,-4.83731 c 0,-1.02156 -0.05418,-1.68351 -0.159077,-1.98584 -0.108179,-0.29916 -0.283194,-0.53148 -0.521847,-0.69696 -0.241829,-0.1688 -0.531388,-0.25129 -0.871866,-0.25129 -0.43274,0 -0.824126,0.11764 -1.16778,0.35644 -0.346822,0.23855 -0.582297,0.55373 -0.709571,0.94517 -0.127263,0.39146 -0.190932,1.12023 -0.190932,2.1768 l 0,4.29312 -2.507388,0 0,-9.47732 2.329206,0 0,1.3939 c 0.824126,-1.07248 1.867809,-1.60712 3.121519,-1.60712 0.55365,0 1.05959,0.0986 1.5178,0.29914 0.458199,0.19732 0.801854,0.45191 1.037319,0.76379 0.235454,0.3087 0.400927,0.65877 0.4932,1.05021 0.08911,0.39463 0.136721,0.95473 0.136721,1.6867 l 0,5.8907 z" />
    <path
       d="m 91.44953,527.94676 2.507409,0 0,-2.50777 -2.507409,0 0,2.50777 z"
       style="fill:#000000;fill-opacity:1;fill-rule:nonzero;stroke:none"
       id="path11746" />
    <path
       id="path11750"
       style="fill:#000000;fill-opacity:1;fill-rule:nonzero;stroke:none"
       d="m 101.04572,527.94836 0,-13.08302 2.64103,0 0,5.1492 5.17389,0 0,-5.1492 2.64103,0 0,13.08302 -2.64103,0 0,-5.72203 -5.17389,0 0,5.72203 -2.64103,0 z" />
    <path
       id="path11754"
       style="fill:#000000;fill-opacity:1;fill-rule:nonzero;stroke:none"
       d="m 115.91223,523.21092 c 0,0.93883 0.22272,1.65807 0.6682,2.1577 0.44866,0.49965 0.99596,0.75105 1.65145,0.75105 0.65549,0 1.20279,-0.25128 1.64508,-0.75105 0.44548,-0.49963 0.66503,-1.22524 0.66503,-2.17678 0,-0.92928 -0.21968,-1.64214 -0.66503,-2.14179 -0.44229,-0.49965 -0.98959,-0.75106 -1.64508,-0.75106 -0.65549,0 -1.20279,0.25129 -1.65145,0.75106 -0.44548,0.49965 -0.6682,1.21887 -0.6682,2.16087 m -2.57104,-0.13363 c 0,-0.83378 0.20695,-1.63896 0.61731,-2.41865 0.41047,-0.77969 0.99277,-1.37481 1.74371,-1.78534 0.75413,-0.41055 1.59416,-0.61741 2.52011,-0.61741 1.43509,0 2.60924,0.46783 3.52565,1.3971 0.9164,0.93245 1.37459,2.10996 1.37459,3.52933 0,1.43528 -0.46455,2.62233 -1.38732,3.56433 -0.92597,0.94519 -2.09057,1.41619 -3.4938,1.41619 -0.86869,0 -1.696,-0.19732 -2.48514,-0.58876 -0.78913,-0.39144 -1.38733,-0.97063 -1.7978,-1.72805 -0.41049,-0.75742 -0.61731,-1.68034 -0.61731,-2.76874" />
    <path
       id="path11758"
       style="fill:#000000;fill-opacity:1;fill-rule:nonzero;stroke:none"
       d="m 123.90878,525.24552 2.51696,-0.38508 c 0.10488,0.49011 0.32456,0.85926 0.64912,1.11069 0.32773,0.25459 0.78594,0.38189 1.37461,0.38189 0.64912,0 1.13596,-0.12091 1.46371,-0.35962 l 0.33092,-0.66832 -0.17819,-0.47099 c -0.12726,-0.12091 -0.40411,-0.23246 -0.84005,-0.33097 -2.02054,-0.44873 -3.30288,-0.85608 -3.84381,-1.22525 -0.75094,-0.50919 -1.12642,-1.22206 -1.12642,-2.13223 0,-0.82108 0.32457,-1.50849 0.97369,-2.06859 0.64912,-0.5601 1.65461,-0.84016 3.0165,-0.84016 1.29507,0 2.2592,0.21003 2.88924,0.63647 0.63002,0.4201 1.06595,1.04385 1.3046,1.87129 l -2.3642,0.43916 c -0.10184,-0.36914 -0.29592,-0.65238 -0.57595,-0.8497 -0.28319,-0.19731 -0.6873,-0.29279 -1.20914,-0.29279 -0.66185,0 -1.13279,0.0922 -1.41916,0.2737 l -0.28638,0.50919 0.25125,0.4551 c 0.22606,0.16879 1.0055,0.40098 2.34193,0.70649 1.33324,0.30233 2.26557,0.67468 2.79696,1.11385 0.52184,0.44872 0.78595,1.0693 0.78595,1.86492 0,0.8688 -0.36275,1.61668 -1.09143,2.24043 -0.72548,0.62695 -1.79781,0.93882 -3.22014,0.93882 -1.2887,0 -2.31011,-0.26095 -3.06425,-0.78605 -0.75094,-0.52512 -1.24415,-1.2348 -1.47642,-2.13225" />
    <path
       id="path11762"
       style="fill:#000000;fill-opacity:1;fill-rule:nonzero;stroke:none"
       d="m 137.07106,523.04867 c 0,1.06611 0.21001,1.85218 0.6332,2.36138 0.42321,0.50919 0.9387,0.76378 1.54326,0.76378 0.58231,0 1.06916,-0.2355 1.45414,-0.70014 0.38821,-0.46781 0.57915,-1.23478 0.57915,-2.29772 0,-0.9961 -0.19729,-1.73444 -0.59504,-2.21497 -0.40093,-0.48374 -0.89414,-0.72243 -1.48282,-0.72243 -0.61091,0 -1.12005,0.23551 -1.52416,0.7097 -0.40409,0.47418 -0.60773,1.17113 -0.60773,2.1004 m -2.48196,-4.57636 2.33876,0 0,1.39074 c 0.3023,-0.47419 0.71277,-0.86245 1.23139,-1.15842 0.51871,-0.29913 1.09145,-0.44871 1.72149,-0.44871 1.10096,0 2.03646,0.4328 2.80332,1.29524 0.76685,0.86245 1.14869,2.06541 1.14869,3.60572 0,1.58166 -0.38501,2.81327 -1.15824,3.68845 -0.77325,0.87834 -1.71191,1.31752 -2.80968,1.31752 -0.52502,0 -0.99915,-0.10509 -1.42553,-0.31187 -0.42319,-0.21005 -0.87186,-0.56647 -1.34278,-1.06931 l 0,4.77048 -2.50742,0 0,-13.07984 z" />
    <path
       id="path11766"
       style="fill:#000000;fill-opacity:1;fill-rule:nonzero;stroke:none"
       d="m 145.5303,518.47263 2.50738,0 0,9.47731 -2.50738,0 0,-9.47731 z m 0,-3.60572 2.50738,0 0,2.32001 -2.50738,0 0,-2.32001 z" />
    <path
       id="path11770"
       style="fill:#000000;fill-opacity:1;fill-rule:nonzero;stroke:none"
       d="m 154.66096,518.47168 0,1.99858 -1.71189,0 0,3.81892 c 0,0.77335 0.0146,1.22524 0.0478,1.35254 l 0.22273,0.31824 0.4232,0.12402 c 0.23243,0 0.56959,-0.0794 1.00867,-0.24186 l 0.21306,1.94445 c -0.58227,0.2513 -1.24095,0.37554 -1.97919,0.37554 -0.45182,0 -0.8591,-0.0764 -1.22185,-0.22607 -0.36276,-0.15273 -0.63003,-0.35008 -0.79867,-0.58876 -0.16851,-0.24186 -0.2864,-0.56648 -0.35322,-0.98019 -0.054,-0.2896 -0.0794,-0.87835 -0.0794,-1.76308 l 0,-4.13399 -1.15185,0 0,-1.99857 1.15185,0 0,-1.88401 2.51693,-1.46392 0,3.34793 1.71192,0 z" />
    <path
       id="path11774"
       style="fill:#000000;fill-opacity:1;fill-rule:nonzero;stroke:none"
       d="m 161.33676,523.39747 c -0.32137,0.10818 -0.83049,0.23551 -1.52415,0.38507 -0.69686,0.14637 -1.15187,0.29279 -1.36508,0.43601 -0.32772,0.23243 -0.49321,0.52826 -0.49321,0.8847 0,0.35009 0.13037,0.65242 0.39458,0.90701 0.26091,0.25777 0.59502,0.38508 0.99914,0.38508 0.45183,0 0.8814,-0.14963 1.29187,-0.44555 0.30547,-0.22609 0.50276,-0.50282 0.59823,-0.83062 0.0669,-0.2131 0.0987,-0.62058 0.0987,-1.22206 l 0,-0.49964 z m -3.3538,-2.03359 -2.2751,-0.41052 c 0.25456,-0.91655 0.69366,-1.59441 1.32051,-2.03678 0.62367,-0.43918 1.55281,-0.65875 2.78424,-0.65875 1.11686,0 1.95055,0.13363 2.49785,0.39781 0.54729,0.26413 0.93231,0.5983 1.15505,1.00564 0.22272,0.40735 0.3341,1.15841 0.3341,2.24362 l -0.0287,2.92785 c 0,0.83379 0.0412,1.44801 0.1209,1.84264 0.0827,0.3978 0.23242,0.82107 0.45185,1.27297 l -2.48194,0 c -0.0636,-0.1688 -0.14325,-0.41372 -0.23851,-0.73832 l -0.0891,-0.29597 c -0.42956,0.4169 -0.88777,0.72878 -1.37462,0.93564 -0.48683,0.21004 -1.00869,0.31187 -1.56235,0.31187 -0.97367,0 -1.74371,-0.26413 -2.30692,-0.7956 -0.56003,-0.52829 -0.84322,-1.1966 -0.84322,-2.00495 0,-0.53465 0.13036,-1.01201 0.38502,-1.43209 0.25456,-0.42009 0.61412,-0.74151 1.07549,-0.96429 0.4614,-0.22277 1.12643,-0.41689 1.99193,-0.58557 1.17415,-0.21971 1.98555,-0.42325 2.43738,-0.61421 l 0,-0.25127 c 0,-0.48055 -0.1178,-0.82427 -0.35637,-1.03113 -0.23852,-0.20366 -0.68732,-0.30551 -1.34917,-0.30551 -0.44547,0 -0.7923,0.0891 -1.04368,0.26414 -0.2482,0.17517 -0.45184,0.48374 -0.60458,0.92292" />
    <path
       d="m 165.97766,527.94994 2.50739,0 0,-13.08303 -2.50739,0 0,13.08303 z"
       style="fill:#000000;fill-opacity:1;fill-rule:nonzero;stroke:none"
       id="path11776" />
    <path
       id="path11780"
       style="fill:#ffffff;fill-opacity:1;fill-rule:evenodd;stroke:none"
       d="m 342.15481,468.57765 -33.18158,0 c -2.72696,-13.25489 -13.28474,-23.63282 -26.62037,-26.12787 l -1.34598,-32.85237 c 0,0 -4.67115,-6.33305 -6.43713,-6.1262 -1.76599,0.20699 -6.54214,6.54311 -6.54214,6.54311 l 0,32.87783 c -12.29831,3.07423 -21.90467,12.92072 -24.59345,25.37043 l -34.97623,1.43209 c 0,0 -6.33212,4.67183 -6.12528,6.43809 0.20999,1.76308 6.54213,6.53993 6.54213,6.53993 l 34.61348,0 c 2.92741,13.14667 13.56474,23.35594 26.92902,25.66959 l 0,35.62107 12.04377,0 0,-35.707 c 3.72608,-0.70969 7.19124,-2.09723 10.36684,-3.93033 l -4.83659,-10.93805 c -3.49062,2.59051 -7.79583,4.14353 -12.4765,4.14353 -11.58238,0 -20.97237,-9.39139 -20.97237,-20.97547 0,-11.58409 9.38999,-20.97548 20.97237,-20.97548 11.58237,0 20.97238,9.39139 20.97238,20.97548 0,3.08378 -0.68414,6.00208 -1.87738,8.63714 l 11.51238,4.91688 c 1.12005,-2.27226 2.06191,-4.64318 2.64739,-7.17005 l 33.80208,-1.38436 c 0,0 6.33212,-4.67183 6.12529,-6.4349 -0.21,-1.76625 -6.54213,-6.54309 -6.54213,-6.54309" />
  </g>
</svg>
