<svg xmlns="http://www.w3.org/2000/svg" width="201.542" height="173.167"><defs><clipPath clipPathUnits="userSpaceOnUse" id="a"><path d="M32.598 287.716h55.276v50.315H32.598v-50.315z"/></clipPath></defs><g clip-path="url(#a)" transform="matrix(3.97741 0 0 -3.97741 -137.473 1330.49)"><path d="M0 0a3.596 3.596 0 0 0-3.595-3.595h-43.382A3.596 3.596 0 0 0-50.572 0v36.248a3.596 3.596 0 0 0 3.595 3.595h43.382A3.596 3.596 0 0 0 0 36.248V0z" style="fill:none;stroke:#007ac2;stroke-width:.0996251;stroke-linecap:butt;stroke-linejoin:miter;stroke-miterlimit:10;stroke-opacity:1;stroke-dasharray:none" transform="translate(85.185 294.619)"/><path d="M0 0a3.595 3.595 0 0 0-3.595-3.595h-39.328A3.596 3.596 0 0 0-46.518 0v33.36a3.595 3.595 0 0 0 3.595 3.595h39.328A3.594 3.594 0 0 0 0 33.36V0z" style="fill:#007ac2;fill-opacity:1;fill-rule:evenodd;stroke:none" transform="translate(83.158 296.063)"/><path d="M0 0a3.596 3.596 0 0 0-3.595-3.595h-30.732A3.595 3.595 0 0 0-37.921 0v23.883a3.594 3.594 0 0 0 3.594 3.594h30.732A3.595 3.595 0 0 0 0 23.883V0z" style="fill:#fbb040;fill-opacity:1;fill-rule:evenodd;stroke:none" transform="translate(78.86 300.801)"/><path d="M0 0c0-.323-.061-.607-.182-.853a1.694 1.694 0 0 0-.512-.618 2.308 2.308 0 0 0-.784-.373 3.685 3.685 0 0 0-.981-.125c-.212 0-.415.017-.608.049a3.523 3.523 0 0 0-.519.121 2.568 2.568 0 0 0-.382.149.946.946 0 0 0-.223.143.45.45 0 0 0-.109.211 1.782 1.782 0 0 0-.038.423c0 .123.004.222.013.296a.736.736 0 0 0 .038.179c.017.044.038.074.064.089a.183.183 0 0 0 .095.022.47.47 0 0 0 .207-.079c.092-.053.205-.112.341-.175.136-.064.294-.123.475-.178.18-.056.385-.084.614-.084.145 0 .273.015.386.045.112.03.21.072.293.128a.54.54 0 0 1 .188.21.648.648 0 0 1 .063.293.486.486 0 0 1-.118.328 1.039 1.039 0 0 1-.312.239 3.656 3.656 0 0 1-.439.19c-.164.06-.332.126-.504.198a4.784 4.784 0 0 0-.503.248c-.163.094-.31.208-.439.345-.13.135-.234.299-.312.49a1.8 1.8 0 0 0-.118.688c0 .272.053.521.159.748.106.227.259.422.459.584.199.161.442.286.729.375.287.089.608.134.965.134.179 0 .352-.013.519-.038.168-.026.32-.058.456-.096s.25-.079.344-.124a1.14 1.14 0 0 0 .2-.115.3.3 0 0 0 .086-.096.412.412 0 0 0 .039-.114c.008-.045.016-.1.022-.166a3.518 3.518 0 0 0 0-.525.704.704 0 0 0-.032-.172c-.015-.043-.035-.071-.06-.086a.177.177 0 0 0-.09-.022.43.43 0 0 0-.178.067 3.567 3.567 0 0 1-.723.286 2.008 2.008 0 0 1-.545.067c-.144 0-.269-.015-.376-.044a.74.74 0 0 1-.261-.128.536.536 0 0 1-.203-.433c0-.132.04-.242.121-.332.08-.089.186-.167.318-.235.132-.068.281-.132.449-.191.168-.06.338-.124.51-.194a4.85 4.85 0 0 0 .509-.246 1.92 1.92 0 0 0 .45-.344c.131-.136.237-.298.318-.487C-.04.483 0 .259 0 0" style="fill:#000;fill-opacity:1;fill-rule:nonzero;stroke:none" transform="translate(49.82 307.709)"/><path d="M0 0c0 .281-.022.538-.067.774a1.84 1.84 0 0 1-.226.615c-.106.174-.248.31-.424.408-.176.097-.398.146-.665.146-.238 0-.446-.044-.625-.13a1.131 1.131 0 0 1-.439-.383 1.813 1.813 0 0 1-.258-.605A3.44 3.44 0 0 1-2.79.019c0-.28.023-.538.07-.774.047-.235.122-.44.226-.614.104-.175.245-.309.424-.405.178-.096.399-.143.662-.143.242 0 .453.043.631.13.178.087.325.213.439.379.115.166.2.366.255.602C-.028-.57 0-.302 0 0m1.65.064a4.36 4.36 0 0 0-.191-1.326 2.805 2.805 0 0 0-.58-1.031 2.573 2.573 0 0 0-.975-.669c-.39-.157-.847-.236-1.369-.236-.506 0-.945.071-1.319.211-.373.14-.683.343-.93.611a2.5 2.5 0 0 0-.547.988A4.55 4.55 0 0 0-4.44-.051c0 .485.065.927.194 1.329.13.401.324.744.583 1.031.259.287.583.509.972.666.388.157.844.235 1.366.235.51 0 .951-.069 1.325-.207.374-.138.683-.34.927-.608.244-.267.425-.597.544-.987.119-.391.179-.839.179-1.344" style="fill:#000;fill-opacity:1;fill-rule:nonzero;stroke:none" transform="translate(55.328 308.938)"/><path d="M0 0c0-.323-.06-.607-.182-.853a1.694 1.694 0 0 0-.512-.618 2.308 2.308 0 0 0-.784-.373 3.68 3.68 0 0 0-.981-.125c-.212 0-.415.017-.608.049a3.554 3.554 0 0 0-.519.121 2.568 2.568 0 0 0-.382.149.946.946 0 0 0-.223.143.45.45 0 0 0-.109.211 1.782 1.782 0 0 0-.038.423c0 .123.004.222.013.296a.736.736 0 0 0 .038.179c.017.044.038.074.064.089a.183.183 0 0 0 .095.022.47.47 0 0 0 .207-.079c.092-.053.205-.112.341-.175.136-.064.294-.123.475-.178.18-.056.385-.084.614-.084.145 0 .273.015.386.045.112.03.21.072.293.128a.54.54 0 0 1 .188.21.648.648 0 0 1 .063.293.49.49 0 0 1-.117.328 1.057 1.057 0 0 1-.313.239 3.656 3.656 0 0 1-.439.19c-.164.06-.331.126-.503.198-.172.072-.34.155-.504.248-.163.094-.31.208-.439.345-.13.135-.234.299-.312.49a1.8 1.8 0 0 0-.118.688c0 .272.053.521.159.748.106.227.259.422.459.584.199.161.443.286.729.375.287.089.608.134.965.134.179 0 .352-.013.519-.038.168-.026.32-.058.456-.096s.25-.079.344-.124a1.14 1.14 0 0 0 .2-.115.3.3 0 0 0 .086-.096.412.412 0 0 0 .039-.114c.008-.045.016-.1.022-.166a3.518 3.518 0 0 0 0-.525.704.704 0 0 0-.032-.172c-.015-.043-.035-.071-.06-.086a.177.177 0 0 0-.09-.022.43.43 0 0 0-.178.067 3.567 3.567 0 0 1-.723.286 2.008 2.008 0 0 1-.545.067 1.43 1.43 0 0 1-.375-.044.737.737 0 0 1-.262-.128.536.536 0 0 1-.203-.433c0-.132.04-.242.121-.332.08-.089.186-.167.318-.235.132-.068.281-.132.449-.191.168-.06.338-.124.51-.194a4.85 4.85 0 0 0 .509-.246 1.92 1.92 0 0 0 .45-.344c.131-.136.237-.298.318-.487C-.04.483 0 .259 0 0" style="fill:#000;fill-opacity:1;fill-rule:nonzero;stroke:none" transform="translate(62.454 307.709)"/><path d="M0 0c-.427 1.427-2.434 3.39-3.21 5.22-2.156 5.058-5.949 8.659-10.777 11.363-2.066 1.159-4.341 1.669-6.333 2.851-2.869 1.706-8.197-1.314-4.862-3.884 1.468-1.132 4.746-4.152 6.147-3.052 1.006.793.097 4.276 2.059 2.376 3.544-3.428 9.578-7.601 11.645-11.97-6.491.612-2.155-4.139-.613-6.544C-3.788-6.995.804-2.692 0 0c-.569 1.903.568-1.9 0 0" style="fill:#000;fill-opacity:1;fill-rule:evenodd;stroke:none" transform="translate(76.412 305.035)"/></g></svg>