<svg xmlns="http://www.w3.org/2000/svg" width="213.556" height="213.418"><path d="M0 0c7.465 0 13.608 6.117 13.608 13.582 0 7.49-6.143 13.61-13.608 13.61-7.491 0-13.61-6.12-13.61-13.61C-13.61 6.117-7.491 0 0 0" style="fill:#fff;fill-opacity:1;fill-rule:evenodd;stroke:none" transform="matrix(6.28013 0 0 -6.28013 106.769 192.088)"/><path d="M0 0c7.467 0 13.608 6.119 13.608 13.584 0 7.491-6.141 13.608-13.608 13.608-7.491 0-13.608-6.117-13.608-13.608C-13.608 6.119-7.491 0 0 0m0-3.394c9.356 0 17.004 7.648 17.004 16.978 0 9.359-7.648 17.005-17.004 17.005-9.354 0-17.001-7.646-17.001-17.005 0-9.33 7.647-16.978 17.001-16.978" style="fill:#ed1d24;fill-opacity:1;fill-rule:evenodd;stroke:none" transform="matrix(6.28013 0 0 -6.28013 106.769 192.103)"/><path d="M0 0h20.036c.68 0 1.236-.766 1.236-1.701 0-.936-.556-1.701-1.236-1.701L0-3.401c-.68 0-1.235.764-1.235 1.7C-1.235-.766-.68 0 0 0" style="fill:#000;fill-opacity:1;fill-rule:evenodd;stroke:none" transform="matrix(6.32394 0 0 -6.32394 42.976 98.296)"/><path d="M0 0h-.002l-.407-1.225h.817L0 0zm1.323-2.113.033-.127-.018-.07-.086-.029-.172-.006-.176.004-.098.013-.047.028-.022.047-.193.578H-.538l-.183-.563-.023-.052-.047-.034-.091-.016-.155-.005-.161.007-.079.032-.017.072.034.125.889 2.556.031.062.056.035.108.016.183.003.21-.003.12-.016L.4.507.432.441l.891-2.554z" style="fill:#000;fill-opacity:1;fill-rule:nonzero;stroke:none" transform="matrix(6.32394 0 0 -6.32394 40.3 71.28)"/><path d="m0 0-.006-.108-.016-.07-.028-.039-.037-.012h-1.55l-.137.051-.047.149v.092l.005.104.019.083.04.078.071.095.664.849-.62.73-.065.083-.039.075-.018.086-.004.117v.091l.045.147.137.051h1.487l.038-.011.027-.039.018-.071.004-.11-.004-.106-.018-.07-.027-.039-.038-.013h-.977l.579-.679.04-.046.023-.044.011-.055.002-.079-.002-.078-.011-.052-.023-.044-.04-.054-.639-.832h1.049L-.05.217l.028-.039.016-.069L0 0z" style="fill:#000;fill-opacity:1;fill-rule:nonzero;stroke:none" transform="matrix(6.32394 0 0 -6.32394 61.792 84.575)"/><path d="m0 0-.006-.11-.016-.074-.028-.041-.037-.013h-.722v-2.323l-.014-.04-.048-.029-.09-.017-.142-.007-.14.007-.091.017-.048.029-.015.04v2.323h-.72l-.038.013-.027.041-.016.074-.006.11.006.114.016.074.027.04.038.012h2.03L-.05.228l.028-.04.016-.074L0 0z" style="fill:#000;fill-opacity:1;fill-rule:nonzero;stroke:none" transform="matrix(6.32394 0 0 -6.32394 76.887 69.323)"/><path d="M0 0v-1.013l-.015-.041-.048-.028-.09-.018-.141-.007-.143.007-.09.018-.048.028-.013.041V0l-.789 1.57-.054.127.013.07.095.028.191.006.164-.005.097-.016.052-.032.033-.052.32-.708.092-.216.093-.238h.004l.087.234.087.216.316.703.028.057.05.035.091.017.155.005.197-.006.094-.028.013-.071-.053-.126L0 0z" style="fill:#000;fill-opacity:1;fill-rule:nonzero;stroke:none" transform="matrix(6.32394 0 0 -6.32394 86.41 79.11)"/><path d="m0 0-.018-.091-.048-.067-.071-.039L-.22-.21h-.25l-.135.016-.104.057-.093.111-.099.182-.717 1.347-.127.259-.116.271h-.005l.013-.32c.004-.106.005-.215.005-.328V-.122l-.012-.041-.042-.03-.082-.018-.131-.008-.129.008-.08.018-.041.03-.01.041v2.589l.061.157.15.052h.314l.143-.015.103-.047.085-.093.083-.146.561-1.052.097-.189.092-.185.087-.181.082-.178h.003a18.315 18.315 0 0 0-.013.648v1.351l.013.04.044.032.083.019.131.005.127-.005.079-.019.039-.032.011-.04V0z" style="fill:#000;fill-opacity:1;fill-rule:nonzero;stroke:none" transform="matrix(6.32394 0 0 -6.32394 109.05 84.727)"/><path d="M0 0c0 .152-.012.289-.035.413a.923.923 0 0 1-.122.319l-.229.204a.767.767 0 0 1-.356.073.732.732 0 0 1-.36-.081l-.234-.217a.882.882 0 0 1-.125-.318 1.894 1.894 0 0 1-.038-.384c0-.157.013-.298.037-.424a.91.91 0 0 1 .119-.322l.227-.203a.808.808 0 0 1 .359-.071.73.73 0 0 1 .361.081l.233.217c.06.093.102.2.127.323C-.012-.268 0-.138 0 0m.615.032c0-.239-.03-.453-.089-.642a1.3 1.3 0 0 0-.266-.48 1.139 1.139 0 0 0-.435-.3 1.608 1.608 0 0 0-.6-.104c-.223 0-.419.03-.587.088a1.017 1.017 0 0 0-.417.269 1.17 1.17 0 0 0-.251.458 2.333 2.333 0 0 0-.083.659c0 .233.029.443.089.629.06.187.148.345.265.476.117.13.262.23.436.3.172.07.373.105.602.105.218 0 .41-.029.578-.087.166-.058.306-.147.418-.267C.387 1.015.472.864.528.68.586.497.615.281.615.032" style="fill:#000;fill-opacity:1;fill-rule:nonzero;stroke:none" transform="matrix(6.32394 0 0 -6.32394 125.525 76.901)"/><path d="m0 0-.012-.04-.044-.029-.086-.018-.136-.007-.133.007-.086.018-.044.029-.013.04v2.344h-.005L-1.393.002l-.03-.048-.055-.03-.088-.014-.129-.004-.128.006-.088.018-.055.03-.026.042-.806 2.342h-.005V0l-.012-.04-.046-.029-.086-.018-.134-.007-.133.007-.087.018-.045.029-.011.04v2.567l.059.174.161.06h.383l.176-.017.126-.055.09-.103.062-.157.623-1.717h.009l.646 1.712.063.159.081.105.108.056.144.017h.395l.103-.015.072-.046.042-.074L0 2.567V0z" style="fill:#000;fill-opacity:1;fill-rule:nonzero;stroke:none" transform="matrix(6.32394 0 0 -6.32394 153.76 85.516)"/><path d="m0 0-.015-.04-.048-.029-.089-.018-.142-.007-.142.007-.09.018-.048.029-.014.04v2.72l.014.041.049.029.09.018.141.006.142-.006.089-.018.048-.029L0 2.72V0z" style="fill:#000;fill-opacity:1;fill-rule:nonzero;stroke:none" transform="matrix(6.32394 0 0 -6.32394 161.452 85.516)"/><path d="M0 0h-.002l-.407-1.225h.817L0 0zm1.323-2.113.033-.127-.018-.07-.086-.029-.171-.006-.178.004-.097.013-.047.028-.022.047-.193.578H-.538l-.183-.563-.023-.052-.047-.034-.091-.016-.155-.005-.161.007-.079.032-.017.072.034.125.889 2.556.031.062.056.035.108.016.183.003.21-.003.12-.016L.4.507.432.441l.891-2.554z" style="fill:#000;fill-opacity:1;fill-rule:nonzero;stroke:none" transform="matrix(6.32394 0 0 -6.32394 171.975 71.28)"/><path d="M0 0c0 .114-.02.207-.06.28l-.147.162-.184.067-.198.013h-.28V-.574h.294l.263.043.174.118.103.182L0 0zm.687.047c0-.181-.028-.342-.086-.481a.918.918 0 0 0-.247-.354 1.074 1.074 0 0 0-.399-.218A1.831 1.831 0 0 0-.6-1.081h-.269v-1.032l-.017-.044-.054-.033-.099-.02-.16-.008-.159.008-.101.02-.053.033-.015.044V.795l.062.175.161.059h.762l.219-.008.248-.038.293-.106.253-.196.161-.277C.668.298.687.179.687.047" style="fill:#000;fill-opacity:1;fill-rule:nonzero;stroke:none" transform="matrix(6.32394 0 0 -6.32394 71.062 137.547)"/><path d="M0 0c0 .17-.013.324-.04.463A1.023 1.023 0 0 1-.176.82l-.256.23a.882.882 0 0 1-.4.081.808.808 0 0 1-.404-.091l-.263-.243a.98.98 0 0 1-.14-.356A2.06 2.06 0 0 1-1.68.01c0-.176.012-.335.039-.476.027-.14.072-.261.135-.361l.254-.228a.92.92 0 0 1 .402-.079c.162 0 .297.03.406.09l.261.245c.067.103.114.224.142.361C-.014-.301 0-.155 0 0m.689.035c0-.268-.033-.508-.1-.719a1.427 1.427 0 0 0-.297-.538 1.275 1.275 0 0 0-.488-.338 1.814 1.814 0 0 0-.673-.116c-.251 0-.47.033-.658.099a1.154 1.154 0 0 0-.469.301 1.306 1.306 0 0 0-.281.514 2.606 2.606 0 0 0-.094.74c0 .261.034.496.101.705.067.209.165.387.297.533.132.147.294.259.488.337.195.079.42.118.675.118.245 0 .462-.033.649-.098.187-.064.344-.164.469-.299A1.3 1.3 0 0 0 .593.763 2.46 2.46 0 0 0 .689.035" style="fill:#000;fill-opacity:1;fill-rule:nonzero;stroke:none" transform="matrix(6.32394 0 0 -6.32394 92.65 141.242)"/><path d="m0 0-.007-.126-.019-.085-.03-.049L-.1-.275h-1.481l-.139.049-.056.159v2.934l.016.045.054.032.101.02.159.008.159-.008.1-.02.054-.032.016-.045v-2.6H-.1l.044-.014.03-.044.019-.083L0 0z" style="fill:#000;fill-opacity:1;fill-rule:nonzero;stroke:none" transform="matrix(6.32394 0 0 -6.32394 111.733 149.739)"/><path d="m0 0-.016-.045-.054-.032-.1-.02-.159-.008-.16.008-.1.02-.054.032L-.66 0v3.052l.017.045.055.032.102.02.157.008.159-.008.1-.02.054-.032L0 3.052V0z" style="fill:#000;fill-opacity:1;fill-rule:nonzero;stroke:none" transform="matrix(6.32394 0 0 -6.32394 118.351 150.91)"/><path d="m0 0-.003-.106-.012-.075-.02-.053-.04-.052-.107-.073-.192-.086-.259-.069a1.651 1.651 0 0 0-.316-.028c-.222 0-.421.035-.599.103a1.19 1.19 0 0 0-.455.305 1.364 1.364 0 0 0-.287.509c-.067.203-.101.44-.101.709 0 .275.038.519.111.732.073.213.175.392.307.537.131.145.289.254.473.329.184.075.387.113.608.113l.26-.022.231-.059.191-.084.119-.081.047-.056.019-.058.011-.082.003-.118-.004-.127-.018-.085-.029-.047-.04-.015-.095.044-.149.097-.218.097a.917.917 0 0 1-.3.044.739.739 0 0 1-.344-.078l-.257-.225a1.058 1.058 0 0 1-.16-.354 1.766 1.766 0 0 1-.055-.467c0-.19.018-.354.058-.493a.955.955 0 0 1 .167-.343l.262-.202A.89.89 0 0 1-.847.015c.117 0 .218.014.302.041l.219.092.15.089.09.041.042-.01.024-.041.015-.083L0 0z" style="fill:#000;fill-opacity:1;fill-rule:nonzero;stroke:none" transform="matrix(6.32394 0 0 -6.32394 136.945 148.383)"/><path d="m0 0-.006-.121L-.025-.2l-.031-.044-.041-.013H-1.72l-.14.048-.056.159v2.817l.056.159.14.049h1.612l.041-.013.03-.044.018-.08.006-.123-.006-.119-.018-.078-.03-.044-.041-.014h-1.153v-.789h.976l.041-.014.032-.042.019-.078.006-.119-.006-.12-.019-.076-.032-.041-.041-.012h-.976V.257h1.164l.041-.013L-.025.2l.019-.079L0 0z" style="fill:#000;fill-opacity:1;fill-rule:nonzero;stroke:none" transform="matrix(6.32394 0 0 -6.32394 152.04 149.85)"/></svg>