<svg xmlns="http://www.w3.org/2000/svg" width="201.958" height="77.699"><defs><clipPath clipPathUnits="userSpaceOnUse" id="c"><path d="M32.598 179.292h133.937v55.984H32.598v-55.984z"/></clipPath><clipPath clipPathUnits="userSpaceOnUse" id="b"><path d="M32.988 179.292h133.159v55.984H32.988v-55.984z"/></clipPath><clipPath clipPathUnits="userSpaceOnUse" id="a"><path d="M32.598 179.292h133.937v55.984H32.598v-55.984z"/></clipPath></defs><g clip-path="url(#a)" transform="matrix(1.52036 0 0 -1.52036 -50.645 352.89)"><path d="M33.311 181.004h132.836v51.106H33.311v-51.106z" style="fill:#fff;fill-opacity:1;fill-rule:nonzero;stroke:none"/></g><g clip-path="url(#b)" transform="matrix(1.52036 0 0 -1.52036 -50.645 352.89)"><path d="M0 0c3.082 5.331 5.043 9.833 6.727 9.833h96.404c2.269 0 4.109-1.79 4.109-4v-34.5c0-2.209-1.84-4-4.109-4H6.727c-2.269 0-5.055 5.971-6.727 8.923 0 0-5.256 9.346-5.175 12.295C-5.093-8.5 0 0 0 0z" style="fill:none;stroke:#000;stroke-width:.8221758;stroke-linecap:butt;stroke-linejoin:miter;stroke-miterlimit:10;stroke-opacity:1;stroke-dasharray:none" transform="matrix(1.1366 0 0 -1.0855 41.564 195.113)"/></g><g clip-path="url(#c)" transform="matrix(1.52036 0 0 -1.52036 -50.645 352.89)"><path d="M0 0h3.949l-8.835-19.629 8.835-19.449H0l-9.293 19.222L0 0z" style="fill:#000;fill-opacity:1;fill-rule:evenodd;stroke:none" transform="translate(49.334 227.135)"/><path d="m0 0-.382 1.442h-.04L-.804.009l-.5-1.694H.5L0 0zm1.117-3.865-.43 1.478h-2.176l-.422-1.478h-.833l1.98 6.514h.734l1.989-6.514h-.842z" style="fill:#000;fill-opacity:1;fill-rule:nonzero;stroke:none" transform="translate(59.323 225.025)"/><path d="M0 0v6.514h3.616v-.731H.814V3.649h2.4v-.701h-2.4V.758h2.802V0H0z" style="fill:#000;fill-opacity:1;fill-rule:nonzero;stroke:none" transform="translate(62.36 221.16)"/><path d="M0 0c0 .374-.092.671-.274.889-.183.218-.488.328-.911.328h-1.109v-2.434h1.118c.229 0 .418.035.568.103.151.069.272.16.363.272a.99.99 0 0 1 .192.388C-.018-.307 0-.156 0 0m.823-.01c0-.249-.035-.49-.108-.725a1.708 1.708 0 0 0-.338-.618 1.643 1.643 0 0 0-.602-.429c-.249-.11-.549-.164-.903-.164h-1.166v-2.622h-.812v6.514h1.94c.633 0 1.123-.16 1.469-.482.347-.321.52-.812.52-1.474" style="fill:#000;fill-opacity:1;fill-rule:nonzero;stroke:none" transform="translate(70.288 225.727)"/><path d="M0 0a1.4 1.4 0 0 1-.241.749 1.16 1.16 0 0 1-.359.322c-.151.09-.345.136-.581.136s-.43-.041-.581-.126a1.115 1.115 0 0 1-.556-.707 1.62 1.62 0 0 1-.054-.393l.01-2.573c0-.187.022-.364.064-.529a1.045 1.045 0 0 1 .591-.721 1.32 1.32 0 0 1 .556-.107c.156 0 .307.026.447.079.141.053.263.129.364.229a1.158 1.158 0 0 1 .34.852V0zm.833-2.714c0-.299-.049-.57-.148-.81a1.76 1.76 0 0 0-1.043-1.01 2.322 2.322 0 0 0-.808-.136 2.3 2.3 0 0 0-.921.168 1.697 1.697 0 0 0-.623.454c-.16.19-.276.41-.347.66-.072.25-.108.511-.108.786V.01c0 .218.036.443.108.673a1.736 1.736 0 0 0 .96 1.085c.255.12.565.178.931.178.347 0 .644-.055.897-.168.251-.112.459-.261.621-.444.164-.185.284-.392.363-.623A2.18 2.18 0 0 0 .833.01v-2.724z" style="fill:#000;fill-opacity:1;fill-rule:nonzero;stroke:none" transform="translate(75.247 225.773)"/><path d="m0 0-.451 1.544-.137.464a628.643 628.643 0 0 1-.5 1.702c-.117.403-.258.891-.421 1.466h-.02c-.092-.337-.17-.61-.235-.819l-.167-.538a92.139 92.139 0 0 0-.656-2.322L-3.038 0h-.823l1.98 6.514h.734L.833 0H0z" style="fill:#000;fill-opacity:1;fill-rule:nonzero;stroke:none" transform="translate(80.833 221.16)"/><path d="M82.763 221.16h.823v6.514h-.823v-6.514z" style="fill:#000;fill-opacity:1;fill-rule:nonzero;stroke:none"/><path d="M0 0v4.548l-.04-.008-.539-1.255-.939-2.013h-.56l-.95 2.051-.519 1.225-.04-.008V0H-4.4v6.514h.823l1.126-2.462.647-1.506h.03l.667 1.525L0 6.514h.814V0H0z" style="fill:#000;fill-opacity:1;fill-rule:nonzero;stroke:none" transform="translate(89.642 221.16)"/><path d="M0 0v6.514h3.617v-.731H.814V3.649h2.4v-.701h-2.4V.758h2.803V0H0z" style="fill:#000;fill-opacity:1;fill-rule:nonzero;stroke:none" transform="translate(92.033 221.16)"/><path d="m0 0-1.95 3.426-.696 1.3h-.03V0h-.822v6.514h.793l1.912-3.379.725-1.339.038.01v4.708h.814V0H0z" style="fill:#000;fill-opacity:1;fill-rule:nonzero;stroke:none" transform="translate(100.334 221.16)"/><path d="m0 0-.382 1.442h-.04L-.804.009l-.5-1.694H.5L0 0zm1.117-3.865L.686-2.387H-1.49l-.421-1.478h-.833l1.979 6.514h.736L1.96-3.865h-.843z" style="fill:#000;fill-opacity:1;fill-rule:nonzero;stroke:none" transform="translate(104.92 225.025)"/><path d="M0 0v.674L1.313 3.35-.01 5.868v.646h3.44v-.702H.882l1.333-2.457L.892.721h2.655V0H0z" style="fill:#000;fill-opacity:1;fill-rule:nonzero;stroke:none" transform="translate(107.565 221.16)"/><path d="m0 0-.451 1.544-.137.464-.201.683a236.979 236.979 0 0 0-.72 2.485h-.02c-.092-.337-.17-.61-.235-.819l-.166-.538a93.265 93.265 0 0 0-.422-1.512c-.052-.184-.097-.34-.137-.468a8.783 8.783 0 0 1-.098-.342L-3.038 0h-.823l1.98 6.514h.734L.833 0H0z" style="fill:#000;fill-opacity:1;fill-rule:nonzero;stroke:none" transform="translate(60.44 211.39)"/><path d="m0 0-.382 1.441h-.04L-.804.009l-.5-1.694H.5L0 0zm1.117-3.865L.686-2.387H-1.49l-.421-1.478h-.833l1.98 6.514h.734l1.989-6.514h-.842z" style="fill:#000;fill-opacity:1;fill-rule:nonzero;stroke:none" transform="translate(64.556 215.256)"/><path d="M0 0c0 .374-.092.671-.274.889-.183.218-.488.328-.911.328h-1.108v-2.434h1.117c.229 0 .418.035.569.103.15.069.271.16.363.272a1 1 0 0 1 .191.388C-.018-.307 0-.156 0 0m.823-.01a2.42 2.42 0 0 0-.108-.725 1.708 1.708 0 0 0-.338-.618 1.643 1.643 0 0 0-.602-.429c-.249-.11-.549-.164-.901-.164h-1.167v-2.622h-.813v6.514h1.94c.634 0 1.124-.16 1.469-.482.347-.321.52-.812.52-1.474" style="fill:#000;fill-opacity:1;fill-rule:nonzero;stroke:none" transform="translate(70.7 215.957)"/><path d="m0 0-1.95 3.426-.696 1.3h-.03V0h-.822v6.514h.793l1.912-3.379.725-1.339.038.01v4.708h.814V0H0z" style="fill:#000;fill-opacity:1;fill-rule:nonzero;stroke:none" transform="translate(76.178 211.39)"/><path d="m0 0-.382 1.441h-.04L-.804.009l-.5-1.694H.5L0 0zm1.117-3.865-.43 1.478H-1.49l-.421-1.478h-.833l1.979 6.514h.735l1.99-6.514h-.843z" style="fill:#000;fill-opacity:1;fill-rule:nonzero;stroke:none" transform="translate(80.764 215.256)"/><path d="m0 0-1.626 3.229a21.662 21.662 0 0 1-.496-.698 17.85 17.85 0 0 0-.494-.687V0h-.823v6.514h.823V3.098l.014.004.015.005c.385.581.774 1.149 1.166 1.708.392.558.784 1.125 1.175 1.699h.893C.352 6.083.06 5.661-.231 5.246c-.29-.415-.583-.838-.876-1.269L.901 0H0z" style="fill:#000;fill-opacity:1;fill-rule:nonzero;stroke:none" transform="translate(87.232 211.39)"/><path d="m0 0-.382 1.441h-.04L-.804.009l-.5-1.694H.5L0 0zm1.117-3.865-.43 1.478H-1.49l-.421-1.478h-.833l1.979 6.514h.735l1.989-6.514h-.842z" style="fill:#000;fill-opacity:1;fill-rule:nonzero;stroke:none" transform="translate(91.416 215.256)"/><path d="M0 0v.674L1.313 3.35-.01 5.868v.646h3.44v-.702H.882l1.332-2.457L.892.721h2.655V0H0z" style="fill:#000;fill-opacity:1;fill-rule:nonzero;stroke:none" transform="translate(94.062 211.39)"/><path d="M0 0v6.514h.814V.758h2.723V0H0z" style="fill:#000;fill-opacity:1;fill-rule:nonzero;stroke:none" transform="translate(57.128 200.535)"/><path d="M0 0h-.95c-.255 0-.464-.059-.628-.175-.163-.116-.245-.306-.245-.57 0-.207.073-.375.216-.503.143-.13.362-.194.657-.194.274 0 .501.06.681.18.179.119.269.326.269.621V0zm-.039-1.731a1.009 1.009 0 0 0-.466-.31 2.099 2.099 0 0 0-.68-.103c-.236 0-.441.037-.618.109a1.155 1.155 0 0 0-.691.729 1.636 1.636 0 0 0-.084.519c0 .413.134.754.403 1.026.268.271.695.407 1.283.407H0v.575c0 .213-.074.38-.22.5-.147.119-.364.179-.652.179-.19 0-.368-.033-.534-.098a.63.63 0 0 1-.358-.342c-.105.055-.207.114-.309.173l-.308.182c.131.254.331.447.601.583.271.136.573.203.905.203.227 0 .442-.023.643-.07a1.52 1.52 0 0 0 .533-.229c.153-.106.273-.248.36-.426.089-.178.132-.401.132-.669v-3.294H0v.337l-.039.019z" style="fill:#000;fill-opacity:1;fill-rule:nonzero;stroke:none" transform="translate(64.115 202.623)"/><path d="M0 0c.15.243.321.407.509.492.19.083.415.126.676.126.19-.012.337-.047.441-.104L1.45-.3a1.18 1.18 0 0 1-.479.103c-.302 0-.544-.079-.725-.238C.063-.594-.03-.849-.03-1.197v-2.874h-.793V.553h.793V0H0z" style="fill:#000;fill-opacity:1;fill-rule:nonzero;stroke:none" transform="translate(67.123 204.606)"/><path d="M0 0v3.023c0 .281-.075.5-.224.66-.15.159-.37.239-.663.239-.267 0-.48-.084-.643-.249-.162-.165-.243-.388-.243-.668V0h-.795v4.633h.804v-.515h.03c.136.182.305.32.508.416.201.097.419.146.653.146.196 0 .376-.033.542-.099.166-.065.309-.159.43-.28a1.405 1.405 0 0 0 .394-1.025V0H0z" style="fill:#000;fill-opacity:1;fill-rule:nonzero;stroke:none" transform="translate(72.15 200.535)"/><path d="M0 0h-.95c-.256 0-.465-.059-.628-.175-.163-.116-.245-.306-.245-.57 0-.207.073-.375.216-.503.143-.13.362-.194.657-.194.274 0 .501.06.681.18.179.119.269.326.269.621V0zm-.04-1.731a1 1 0 0 0-.465-.31 2.099 2.099 0 0 0-.68-.103c-.236 0-.441.037-.618.109a1.155 1.155 0 0 0-.691.729 1.636 1.636 0 0 0-.084.519c0 .413.134.754.403 1.026.268.271.695.407 1.283.407H0v.575a.61.61 0 0 1-.221.5c-.146.119-.363.179-.651.179-.19 0-.368-.033-.534-.098a.63.63 0 0 1-.358-.342c-.105.055-.207.114-.309.173l-.308.182c.131.254.331.447.601.583.271.136.573.203.905.203.227 0 .442-.023.643-.07a1.52 1.52 0 0 0 .533-.229c.153-.106.273-.248.36-.426.089-.178.132-.401.132-.669v-3.294H0v.337l-.04.019z" style="fill:#000;fill-opacity:1;fill-rule:nonzero;stroke:none" transform="translate(76.697 202.623)"/><path d="m0 0-1.284 2.256-.764-1.012V0h-.793v6.794h.793V2.396h.019l1.726 2.237h.911L-.774 2.864.882 0H0z" style="fill:#000;fill-opacity:1;fill-rule:nonzero;stroke:none" transform="translate(81.685 200.535)"/><path d="M0 0h-.95c-.255 0-.464-.059-.628-.175-.163-.116-.245-.306-.245-.57 0-.207.073-.375.216-.503.143-.13.362-.194.657-.194.274 0 .501.06.681.18.179.119.269.326.269.621V0zm-.039-1.731a1.009 1.009 0 0 0-.466-.31 2.099 2.099 0 0 0-.68-.103c-.236 0-.441.037-.618.109a1.155 1.155 0 0 0-.691.729 1.636 1.636 0 0 0-.084.519c0 .413.134.754.403 1.026.268.271.695.407 1.283.407H0v.575c0 .213-.074.38-.22.5-.147.119-.364.179-.652.179-.19 0-.368-.033-.534-.098a.63.63 0 0 1-.358-.342 7.639 7.639 0 0 0-.308.173l-.309.182c.131.254.331.447.602.583.271.136.572.203.904.203.227 0 .442-.023.643-.07a1.52 1.52 0 0 0 .533-.229c.153-.106.273-.248.36-.426.089-.178.132-.401.132-.669v-3.294H0v.337l-.039.019z" style="fill:#000;fill-opacity:1;fill-rule:nonzero;stroke:none" transform="translate(85.909 202.623)"/><path d="m0 0-.382 1.442h-.04L-.804.009l-.5-1.694H.5L0 0zm1.117-3.865-.43 1.478H-1.49l-.421-1.478h-.833l1.98 6.514h.734l1.989-6.514h-.842z" style="fill:#000;fill-opacity:1;fill-rule:nonzero;stroke:none" transform="translate(92.768 204.4)"/><path d="M0 0h.793v-4.633H0V0zm0 1.881h.793v-.759H0v.759z" style="fill:#000;fill-opacity:1;fill-rule:nonzero;stroke:none" transform="translate(95.738 205.168)"/><path d="M0 0c.15.243.321.407.509.492.19.083.415.126.676.126.19-.012.337-.047.441-.104L1.45-.3a1.18 1.18 0 0 1-.479.103c-.302 0-.544-.079-.726-.238C.061-.594-.03-.849-.03-1.197v-2.874h-.793V.553h.793V0H0z" style="fill:#000;fill-opacity:1;fill-rule:nonzero;stroke:none" transform="translate(98.863 204.606)"/><path d="M0 0c.202 0 .363.045.481.131a.87.87 0 0 1 .274.351c.065.146.108.317.127.51a6.319 6.319 0 0 1 0 1.254c-.019.2-.06.374-.123.524a.85.85 0 0 1-.269.361c-.117.09-.278.135-.48.135-.235 0-.415-.057-.54-.172a.96.96 0 0 1-.263-.436 2.072 2.072 0 0 1-.084-.575 30.298 30.298 0 0 1-.005-.585c0-.168.008-.341.025-.516.016-.173.053-.335.112-.481A.87.87 0 0 1-.48.14C-.363.048-.202 0 0 0m-.852 3.491c.143.175.305.301.487.379.183.078.388.117.615.117.319 0 .573-.064.762-.192.188-.128.335-.3.439-.515.105-.214.173-.466.205-.753.033-.287.049-.586.049-.899a7.05 7.05 0 0 0-.053-.865A2.444 2.444 0 0 0 1.432 0a1.395 1.395 0 0 0-.469-.543C.762-.68.498-.748.173-.748c-.404 0-.746.152-1.025.458h-.02v-2.284h-.794v6.505h.794v-.43l.009-.006.011-.004z" style="fill:#000;fill-opacity:1;fill-rule:nonzero;stroke:none" transform="translate(102.97 201.237)"/><path d="M0 0a.996.996 0 0 1-.507-.13.789.789 0 0 1-.332-.393 2.105 2.105 0 0 1-.102-.508A9.562 9.562 0 0 1-.96-2.379c.01-.181.041-.334.092-.458a.87.87 0 0 1 .312-.392.892.892 0 0 1 .517-.14c.202 0 .379.046.531.14a.82.82 0 0 1 .337.448c.032.087.055.234.068.443a12.142 12.142 0 0 1 0 1.315 1.777 1.777 0 0 1-.079.463.835.835 0 0 1-.321.42A.888.888 0 0 1 0 0m.015.683C.4.683.704.61.926.464c.222-.147.398-.331.529-.548.046-.074.085-.173.118-.295.033-.121.059-.256.079-.403a6.916 6.916 0 0 0 .048-1.23 6.639 6.639 0 0 0-.034-.394 11.318 11.318 0 0 0-.054-.392 1.844 1.844 0 0 0-.068-.3 1.252 1.252 0 0 0-.26-.458 1.384 1.384 0 0 0-.392-.3 1.898 1.898 0 0 0-.47-.164 2.653 2.653 0 0 0-.515-.051c-.372 0-.678.075-.916.224a1.44 1.44 0 0 0-.535.581 2.04 2.04 0 0 0-.176.668c-.033.278-.049.57-.049.875 0 .295.015.575.045.844.028.268.079.486.151.654.131.281.33.503.598.665.268.162.598.243.99.243" style="fill:#000;fill-opacity:1;fill-rule:nonzero;stroke:none" transform="translate(107.629 204.54)"/><path d="M0 0c.15.243.321.407.509.492.19.083.415.126.677.126.189-.012.336-.047.441-.104L1.45-.3a1.177 1.177 0 0 1-.479.103C.67-.197.427-.276.244-.435c-.181-.159-.273-.414-.273-.762v-2.874h-.794V.553h.794V0H0z" style="fill:#000;fill-opacity:1;fill-rule:nonzero;stroke:none" transform="translate(111.524 204.606)"/><path d="M0 0c-.373 0-.651.101-.838.304a1.073 1.073 0 0 0-.279.753v2.958h-.539v.618h.539v1.189h.793V4.633h.687v-.618h-.687V1.281c0-.193.04-.338.118-.434C-.127.75 0 .701.176.701h.265V0H0z" style="fill:#000;fill-opacity:1;fill-rule:nonzero;stroke:none" transform="translate(115.346 200.535)"/><path d="m0 0-.399 1.505H-.44L-.839.01l-.522-1.768H.522L0 0zm1.166-4.035-.45 1.544h-2.271l-.44-1.544h-.869l2.066 6.8h.767l2.077-6.8h-.88z" style="fill:#000;fill-opacity:1;fill-rule:nonzero;stroke:none" transform="translate(59.447 192.63)"/><path d="M0 0c.041-.267.123-.484.245-.65C.368-.816.58-.899.88-.899c.341 0 .584.12.732.357.146.239.219.535.219.888 0 .85-.324 1.276-.972 1.276H.44v.684h.378c.341 0 .588.091.741.273.155.181.231.45.231.801 0 .144-.013.285-.041.425-.027.14-.075.263-.143.371a.764.764 0 0 1-.276.259.857.857 0 0 1-.43.098.902.902 0 0 1-.389-.074.698.698 0 0 1-.251-.199.857.857 0 0 1-.143-.294 3.723 3.723 0 0 1-.076-.351l-.818.127c.027.215.081.417.163.605.082.189.192.353.333.493.139.14.305.25.496.328.191.078.416.117.675.117.348 0 .632-.051.854-.152.221-.101.397-.235.527-.404.129-.17.219-.368.272-.597.05-.227.076-.472.076-.732 0-.13-.011-.266-.031-.406s-.06-.275-.118-.405a1.26 1.26 0 0 0-.24-.357 1.015 1.015 0 0 0-.399-.249.961.961 0 0 0 .44-.201.915.915 0 0 0 .25-.346c.058-.137.095-.292.114-.463.016-.174.025-.358.025-.553a3.45 3.45 0 0 0-.092-.816 1.69 1.69 0 0 0-.307-.649 1.46 1.46 0 0 0-.563-.43c-.232-.104-.518-.157-.859-.157-.212 0-.413.031-.604.092-.191.06-.361.153-.511.274-.15.123-.274.276-.374.461a1.657 1.657 0 0 0-.179.649L0 0z" style="fill:#000;fill-opacity:1;fill-rule:nonzero;stroke:none" transform="translate(63.283 190.168)"/><path d="M0 0c0 .738-.68 1.336-1.517 1.336h-9.802c-.838 0-1.517-.598-1.517-1.336v-13.199c0-.738.679-1.336 1.517-1.336h9.802c.837 0 1.517.598 1.517 1.336V0z" style="fill:none;stroke:#000;stroke-width:.4110879;stroke-linecap:butt;stroke-linejoin:miter;stroke-miterlimit:10;stroke-opacity:1;stroke-dasharray:none" transform="matrix(1.1366 0 0 -1.0855 134.57 203.076)"/><path d="M0 0c0 .274-.082.485-.244.635-.163.15-.377.225-.64.225-.265 0-.479-.075-.641-.225C-1.688.485-1.77.274-1.77 0v-3.683c0-.274.082-.484.245-.631.162-.146.376-.219.641-.219.263 0 .477.073.64.219.162.147.244.357.244.631V0zm.829-3.683c0-.261-.048-.492-.144-.694a1.526 1.526 0 0 0-.925-.816 2.085 2.085 0 0 0-1.294 0 1.62 1.62 0 0 0-.547.308 1.44 1.44 0 0 0-.379.508 1.657 1.657 0 0 0-.138.694V0c0 .26.046.492.138.694.092.202.218.371.379.508.159.136.342.241.547.312a1.979 1.979 0 0 0 1.294 0c.207-.071.39-.176.547-.312C.464 1.065.59.896.685.694A1.6 1.6 0 0 0 .829 0v-3.683z" style="fill:#000;fill-opacity:1;fill-rule:nonzero;stroke:none" transform="translate(141.845 211.606)"/><path d="M0 0c0 .274-.081.485-.244.635-.163.15-.376.225-.64.225-.265 0-.479-.075-.641-.225C-1.688.485-1.77.274-1.77 0v-3.683c0-.274.082-.484.245-.631.162-.146.376-.219.641-.219.264 0 .477.073.64.219.163.147.244.357.244.631V0zm.829-3.683c0-.261-.048-.492-.144-.694a1.526 1.526 0 0 0-.925-.816 2.08 2.08 0 0 0-1.294 0 1.63 1.63 0 0 0-.547.308c-.16.137-.286.306-.379.508a1.657 1.657 0 0 0-.138.694V0c0 .26.046.492.138.694.093.202.219.371.379.508.16.136.342.241.547.312a1.974 1.974 0 0 0 1.294 0c.208-.071.39-.176.547-.312C.464 1.065.59.896.685.694A1.6 1.6 0 0 0 .829 0v-3.683z" style="fill:#000;fill-opacity:1;fill-rule:nonzero;stroke:none" transform="translate(146.724 211.606)"/><path d="m0 0-1.34 2.354-.798-1.055V0h-.829v7.093h.829V2.501h.021l1.8 2.335h.951L-.808 2.989.921 0H0z" style="fill:#000;fill-opacity:1;fill-rule:nonzero;stroke:none" transform="translate(151.993 206.37)"/><path d="M0 0h-.829v2.872c0 .176-.013.339-.04.489a1.15 1.15 0 0 1-.139.386.699.699 0 0 1-.271.254.924.924 0 0 1-.439.092c-.328 0-.563-.109-.706-.326-.144-.218-.215-.514-.215-.885V0h-.829v2.872c0 .176-.013.338-.041.483a1.134 1.134 0 0 1-.142.387.721.721 0 0 1-.275.259.916.916 0 0 1-.437.092c-.325 0-.56-.114-.702-.342-.142-.228-.213-.527-.213-.898V0h-.829v4.826h.839v-.518h.01c.287.385.679.577 1.177.577.279 0 .525-.058.736-.172a1.37 1.37 0 0 0 .501-.444h.011c.197.215.406.372.628.469a1.9 1.9 0 0 0 .773.147c.205 0 .393-.036.568-.108a1.342 1.342 0 0 0 .756-.756c.073-.179.108-.38.108-.602V0z" style="fill:#000;fill-opacity:1;fill-rule:nonzero;stroke:none" transform="translate(159.88 206.37)"/><path d="M0 0c.004-.162.076-.248.299-.374.231-.138.412-.199.789-.197.58.008 1.162.016 1.747.02C3.471-1.625 4.104-2.7 4.74-3.774a.335.335 0 0 1 .287-.156c.128.001.261-.001.398.003.18-.001.284.116.281.298l-.04.142.003.005c-.254.789-.505 1.579-.757 2.372-.001.188-.004.383-.008.58.467.005.938.008 1.411.016.114.01.21.03.309.061.095.027.187.07.272.116l.345-.771a.323.323 0 0 1 .31-.221l.15.001c.183.005.284.102.285.283 0 .153-.001.307-.006.466l-.006.667c-.004.218-.008.438-.008.66-.001.155-.002.309-.007.468.001.179-.103.279-.287.275l-.145.002a.327.327 0 0 1-.31-.228 36.728 36.728 0 0 1-.329-.774 1.69 1.69 0 0 1-.269.106 1.714 1.714 0 0 1-.311.053C5.842.646 5.372.644 4.897.635c0 .188-.004.385-.008.581l.704 2.392.041.144c-.003.184-.111.291-.291.293-.128-.003-.261-.001-.398-.005a.337.337 0 0 1-.284-.161L2.82.612C2.242.61 1.66.601 1.075.596.695.589.52.519.292.385.069.25-.001.163 0 0z" style="fill:none;stroke:#000;stroke-width:.32887033;stroke-linecap:butt;stroke-linejoin:miter;stroke-miterlimit:4;stroke-opacity:1;stroke-dasharray:none" transform="matrix(1.1366 0 0 -1.0855 122.738 210.303)"/></g></svg>