<svg xmlns="http://www.w3.org/2000/svg" width="63.607" height="63.606"><defs><clipPath clipPathUnits="userSpaceOnUse" id="c"><path d="M126.577 297.638h58.657v53.858h-58.657v-53.858z"/></clipPath><clipPath clipPathUnits="userSpaceOnUse" id="a"><path d="m155.526 344.397-19.449-19.448a.54.54 0 0 1 0-.764l19.449-19.448a.542.542 0 0 1 .761 0l19.449 19.45a.538.538 0 0 1 0 .762l-19.449 19.447a.535.535 0 0 1-.761.001"/></clipPath><clipPath clipPathUnits="userSpaceOnUse" id="b"><path d="M0 0h311v595H0V0z"/></clipPath></defs><g clip-path="url(#a)" transform="matrix(1.25 0 0 -1.25 -163.08 437.513)"><g clip-path="url(#b)"><path d="M0 0a.535.535 0 0 0 0-.761L-19.449-20.21a.538.538 0 0 0-.761 0L-39.658-.762a.536.536 0 0 0 0 .762l19.448 19.449c.208.21.55.21.761-.001L0 0z" style="fill:#000;fill-opacity:1;fill-rule:evenodd;stroke:none" transform="translate(175.736 324.948)"/><path d="m0 0-17.363-46.209M3.41-1.281l-17.363-46.208M6.817-2.561l-17.36-46.209m20.77 44.928-17.363-46.21m20.77 44.929-17.36-46.209m20.77 44.929L-.319-52.612M20.455-7.684 3.091-53.893m20.77 44.928L6.502-55.173m20.769 44.927L9.908-56.455m20.774 44.928L13.319-57.735m20.769 44.928L16.725-59.016m20.774 44.928-17.364-46.21M-13.623-8.955l7.83-48.739m-4.23 49.316 7.826-48.737M-6.431-7.801l7.83-48.737M-2.835-7.222l7.83-48.739M.757-6.646l7.834-48.738M4.357-6.067l7.826-48.739M7.952-5.489l7.83-48.738M11.545-4.912l7.83-48.738M15.14-4.335l7.83-48.738M18.74-3.756l7.826-48.738M22.332-3.18l7.83-48.738M25.928-2.601l7.83-48.739" style="fill:none;stroke:#ffdb00;stroke-width:.56999999;stroke-linecap:butt;stroke-linejoin:miter;stroke-miterlimit:10;stroke-opacity:1;stroke-dasharray:none" transform="translate(145.997 350.021)"/></g></g><g clip-path="url(#c)" transform="matrix(1.25 0 0 -1.25 -163.08 437.513)"><path d="M0 0a.535.535 0 0 0 0-.761l-24.429-24.43a.54.54 0 0 0-.761 0L-49.618-.762a.536.536 0 0 0 0 .762l24.428 24.429c.208.21.55.211.761 0L0 0zm-4.98 0a.535.535 0 0 0 0-.761L-24.429-20.21a.538.538 0 0 0-.761 0L-44.638-.762a.536.536 0 0 0 0 .762l19.448 19.449c.208.21.55.21.761-.001L-4.98 0z" style="fill:none;stroke:#000;stroke-width:.94999999;stroke-linecap:butt;stroke-linejoin:miter;stroke-miterlimit:10;stroke-opacity:1;stroke-dasharray:none" transform="translate(180.716 324.948)"/></g></svg>