<svg xmlns="http://www.w3.org/2000/svg" width="89.463" height="118.74"><g style="fill:#fff;fill-opacity:1"><path d="M0 0c0-1.186-1.042-2.145-2.325-2.145h-65.631c-1.282 0-2.325.959-2.325 2.145v89.412c0 1.185 1.043 2.146 2.325 2.146h65.631c1.283 0 2.325-.961 2.325-2.146V0z" style="fill:#fff;stroke:#ed1d24;stroke-width:1.28900003;stroke-linecap:butt;stroke-linejoin:miter;stroke-miterlimit:4;stroke-opacity:1;stroke-dasharray:none;fill-opacity:1" transform="matrix(1.25 0 0 -1.25 88.657 115.253)"/></g><path d="M0 0h32.622L16.317 28.225 0 0zm34.221-3.646c.971 0 1.863.521 2.349 1.366a2.688 2.688 0 0 1 0 2.731L18.68 31.423a2.73 2.73 0 0 1-4.73-.008L-3.946.451a2.74 2.74 0 0 1 0-2.731 2.745 2.745 0 0 1 2.372-1.366h35.795z" style="fill:#ed1d24;fill-opacity:1;fill-rule:evenodd;stroke:none" transform="matrix(1.25 0 0 -1.25 24.91 51.82)"/><path d="M0 0v-1.828h-24.312V0h3.506c.617 0 1.21.236 1.66.656l.015-.016a10.343 10.343 0 0 0 6.97 2.706c2.546 0 5.006-.944 6.902-2.646l.003.006A2.423 2.423 0 0 1-3.577 0H0z" style="fill:#000;fill-opacity:1;fill-rule:evenodd;stroke:none" transform="matrix(1.25 0 0 -1.25 60.42 47.67)"/><path d="M0 0v4.43h.895V2.463L2.702 4.43h1.202L2.236 2.704 3.995 0H2.838L1.62 2.079l-.725-.741V0H0z" style="fill:#000;fill-opacity:1;fill-rule:nonzero;stroke:none" transform="matrix(1.25 0 0 -1.25 21.508 68.055)"/><path d="M0 0v1.865L-1.623 4.43h1.049L.468 2.677 1.489 4.43h1.03L.891 1.858V0H0z" style="fill:#000;fill-opacity:1;fill-rule:nonzero;stroke:none" transform="matrix(1.25 0 0 -1.25 28.535 68.055)"/><path d="M0 0v-1.256h.49c.352 0 .588.022.706.069a.578.578 0 0 1 .381.562.568.568 0 0 1-.142.398.608.608 0 0 1-.36.197C.969-.01.754 0 .432 0H0zm-.894-3.68V.75H.541c.544 0 .898-.022 1.063-.067.254-.066.467-.211.638-.434.172-.222.257-.51.257-.862 0-.272-.049-.5-.148-.686a1.226 1.226 0 0 0-.377-.437 1.312 1.312 0 0 0-.463-.21 5.149 5.149 0 0 0-.928-.063H0V-3.68h-.894z" style="fill:#000;fill-opacity:1;fill-rule:nonzero;stroke:none" transform="matrix(1.25 0 0 -1.25 33.357 63.455)"/><path d="M0 0v3.68h-1.314v.75h3.52v-.75H.894V0H0z" style="fill:#000;fill-opacity:1;fill-rule:nonzero;stroke:none" transform="matrix(1.25 0 0 -1.25 38.645 68.055)"/><path d="M0 0v.747h.859c-.527.551-.79 1.145-.79 1.782 0 .556.189 1.025.566 1.405.376.381.893.571 1.549.571.651 0 1.166-.189 1.545-.568.379-.378.568-.848.568-1.408 0-.637-.263-1.231-.788-1.782h.861V0H2.342v.713c.341.127.598.333.771.617.176.283.262.611.262.982 0 .38-.1.713-.3 1-.201.286-.498.429-.891.429-.39 0-.686-.142-.887-.426a1.688 1.688 0 0 1-.302-1.003c0-.373.086-.701.26-.984.175-.283.432-.488.773-.615V0H0z" style="fill:#000;fill-opacity:1;fill-rule:nonzero;stroke:none" transform="matrix(1.25 0 0 -1.25 41.79 68.055)"/><path d="M0 0v4.43h1.338l.805-3.022.794 3.022h1.341V0h-.831v3.487L2.568 0h-.861L.831 3.487V0H0z" style="fill:#000;fill-opacity:1;fill-rule:nonzero;stroke:none" transform="matrix(1.25 0 0 -1.25 48.17 68.055)"/><path d="m0 0-.609 1.644-.6-1.644H0zm1.647-1.753H.675L.287-.747h-1.77l-.365-1.006h-.949l1.724 4.43h.947l1.773-4.43z" style="fill:#000;fill-opacity:1;fill-rule:nonzero;stroke:none" transform="matrix(1.25 0 0 -1.25 57.563 65.864)"/><path d="M0 0v3.68h-1.314v.75h3.52v-.75H.894V0H0z" style="fill:#000;fill-opacity:1;fill-rule:nonzero;stroke:none" transform="matrix(1.25 0 0 -1.25 60.82 68.055)"/><path d="m0 0-.609 1.644-.6-1.644H0zm1.647-1.753H.675L.287-.747h-1.77l-.365-1.006h-.95l1.725 4.43h.947l1.773-4.43z" style="fill:#000;fill-opacity:1;fill-rule:nonzero;stroke:none" transform="matrix(1.25 0 0 -1.25 66.658 65.864)"/><path d="M0 0c0-.502.116-.883.347-1.141.232-.259.526-.389.882-.389.357 0 .649.129.879.386.227.256.342.642.342 1.155 0 .508-.111.887-.334 1.137-.223.249-.518.374-.887.374-.368 0-.665-.126-.892-.379C.112.89 0 .509 0 0m-.922-.03c0 .45.067.829.202 1.135.101.226.239.428.413.607.174.18.365.312.573.399.275.117.594.175.954.175.653 0 1.175-.201 1.567-.607.392-.405.587-.968.587-1.689 0-.715-.194-1.274-.583-1.678-.389-.405-.908-.606-1.558-.606-.659 0-1.183.201-1.572.603-.389.402-.583.956-.583 1.661" style="fill:#000;fill-opacity:1;fill-rule:nonzero;stroke:none" transform="matrix(1.25 0 0 -1.25 14.06 74.564)"/><path d="m0 0-.997 2.65L-1.964 0H0zm1.259-.747h-4.444l1.725 4.43h.946l1.773-4.43z" style="fill:#000;fill-opacity:1;fill-rule:nonzero;stroke:none" transform="matrix(1.25 0 0 -1.25 22.361 76.404)"/><path d="M0 0c0-.502.116-.883.347-1.141.232-.259.525-.389.882-.389s.649.129.878.386c.228.256.343.642.343 1.155 0 .508-.111.887-.334 1.137-.223.249-.518.374-.887.374-.368 0-.665-.126-.892-.379C.112.89 0 .509 0 0m-.922-.03c0 .45.067.829.202 1.135.101.226.239.428.413.607.174.18.365.312.573.399.275.117.594.175.954.175.653 0 1.175-.201 1.567-.607.392-.405.587-.968.587-1.689 0-.715-.194-1.274-.583-1.678-.389-.405-.908-.606-1.558-.606-.659 0-1.183.201-1.572.603-.389.402-.583.956-.583 1.661" style="fill:#000;fill-opacity:1;fill-rule:nonzero;stroke:none" transform="matrix(1.25 0 0 -1.25 25.22 74.564)"/><path d="M0 0h3.067v-.749H1.103l1.144-1.366L.985-3.683H3.16v-.746H-.058v.828l1.187 1.486L0-.797V0z" style="fill:#000;fill-opacity:1;fill-rule:nonzero;stroke:none" transform="matrix(1.25 0 0 -1.25 30.16 71.8)"/><path d="M0 0v3.68h-1.314v.749h3.52V3.68H.894V0H0z" style="fill:#000;fill-opacity:1;fill-rule:nonzero;stroke:none" transform="matrix(1.25 0 0 -1.25 36.2 77.337)"/><path d="M0 0v-1.257h.49c.352 0 .588.023.706.07a.586.586 0 0 1 .382.561.57.57 0 0 1-.143.399.618.618 0 0 1-.36.197C.969-.01.754 0 .432 0H0zm-.894-3.68V.749H.541c.544 0 .898-.021 1.063-.065.254-.067.467-.212.638-.435.172-.223.257-.51.257-.862 0-.272-.049-.501-.148-.686a1.226 1.226 0 0 0-.377-.437 1.274 1.274 0 0 0-.463-.209c-.214-.043-.523-.064-.928-.064H0V-3.68h-.894z" style="fill:#000;fill-opacity:1;fill-rule:nonzero;stroke:none" transform="matrix(1.25 0 0 -1.25 40.796 72.737)"/><path d="M0 0v.747h.859c-.527.551-.79 1.145-.79 1.782 0 .555.189 1.024.566 1.405.376.38.893.571 1.549.571.651 0 1.166-.189 1.545-.568.379-.379.568-.848.568-1.408 0-.637-.263-1.231-.788-1.782h.861V0H2.342v.713c.341.127.598.332.771.616.175.285.262.612.262.982 0 .381-.1.714-.3 1-.201.287-.498.429-.891.429-.39 0-.686-.142-.887-.425a1.687 1.687 0 0 1-.302-1.004c0-.372.087-.699.26-.983.175-.283.432-.488.773-.615V0H0z" style="fill:#000;fill-opacity:1;fill-rule:nonzero;stroke:none" transform="matrix(1.25 0 0 -1.25 44.646 77.337)"/><path d="M0 0v4.429h1.338l.805-3.021.794 3.021h1.341V0h-.831v3.487L2.568 0h-.861L.831 3.487V0H0z" style="fill:#000;fill-opacity:1;fill-rule:nonzero;stroke:none" transform="matrix(1.25 0 0 -1.25 51.024 77.337)"/><path d="m0 0-.609 1.644-.6-1.644H0zm1.647-1.752H.675L.287-.747h-1.77l-.365-1.005h-.949l1.724 4.429h.947l1.773-4.429z" style="fill:#000;fill-opacity:1;fill-rule:nonzero;stroke:none" transform="matrix(1.25 0 0 -1.25 60.418 75.146)"/><path d="M0 0v3.68h-1.314v.749h3.52V3.68H.894V0H0z" style="fill:#000;fill-opacity:1;fill-rule:nonzero;stroke:none" transform="matrix(1.25 0 0 -1.25 63.674 77.337)"/><path d="M0 0c0-.502.116-.883.347-1.141.232-.259.526-.389.882-.389.357 0 .649.129.879.386.227.256.342.642.342 1.155 0 .508-.111.887-.334 1.137-.223.249-.518.374-.887.374-.368 0-.665-.126-.892-.379C.112.89 0 .509 0 0m-.922-.03c0 .45.067.829.202 1.135.1.226.239.428.413.607.174.18.365.312.573.399.275.117.594.175.954.175.653 0 1.175-.201 1.567-.607.392-.405.587-.968.587-1.689 0-.715-.194-1.274-.583-1.678-.389-.405-.908-.606-1.559-.606-.658 0-1.182.201-1.571.603-.389.402-.583.956-.583 1.661" style="fill:#000;fill-opacity:1;fill-rule:nonzero;stroke:none" transform="matrix(1.25 0 0 -1.25 67.939 74.564)"/><path d="M0 0h3.067v-.749H1.103l1.144-1.366L.985-3.683H3.16v-.746H-.058v.828l1.187 1.486L0-.797V0z" style="fill:#000;fill-opacity:1;fill-rule:nonzero;stroke:none" transform="matrix(1.25 0 0 -1.25 72.878 71.8)"/><path d="M0 0h.662c.43 0 .698.019.804.055l.251.187c.061.089.091.2.091.332 0 .15-.04.27-.12.361a.544.544 0 0 1-.337.174c-.072.01-.29.015-.652.015H0V0zm-.894-2.556v4.429H.988c.474 0 .817-.039 1.033-.118.214-.081.386-.221.515-.425.128-.203.194-.436.194-.698 0-.332-.099-.607-.294-.823-.195-.217-.487-.353-.876-.41.193-.113.352-.236.478-.371.126-.136.296-.375.51-.72l.54-.864H2.02l-.648.965c-.229.343-.386.561-.47.651l-.27.183c-.094.034-.244.051-.451.051H0v-1.85h-.894z" style="fill:#000;fill-opacity:1;fill-rule:nonzero;stroke:none" transform="matrix(1.25 0 0 -1.25 19.448 83.424)"/><path d="M0 0c0-.317.076-.561.227-.73a.717.717 0 0 1 .559-.254c.221 0 .408.084.557.254.15.169.226.414.226.736 0 .315-.076.557-.226.725a.71.71 0 0 1-.557.255.715.715 0 0 1-.559-.255C.076.563 0 .319 0 0m-.87.045c0 .282.069.556.208.82.14.263.336.465.592.604.254.139.538.208.853.208.485 0 .883-.157 1.194-.472.309-.316.464-.714.464-1.195 0-.486-.156-.889-.469-1.207-.314-.32-.708-.48-1.184-.48-.293 0-.574.067-.841.2a1.37 1.37 0 0 0-.609.584c-.139.257-.208.571-.208.938" style="fill:#000;fill-opacity:1;fill-rule:nonzero;stroke:none" transform="matrix(1.25 0 0 -1.25 24.749 84.614)"/><path d="M0 0a5.547 5.547 0 0 0-.516-.13c-.236-.05-.39-.099-.462-.148a.352.352 0 0 1-.166-.299c0-.119.044-.221.132-.308a.463.463 0 0 1 .339-.13.74.74 0 0 1 .438.151l.202.281c.022.072.033.21.033.414V0zm-1.136.689-.77.139c.087.31.235.539.447.689.211.149.526.223.943.223.379 0 .661-.044.846-.134.185-.09.316-.203.391-.342.076-.137.114-.39.114-.759l-.01-.991c0-.282.014-.491.041-.624a1.81 1.81 0 0 1 .153-.431h-.84l-.082.25-.03.1a1.513 1.513 0 0 0-.466-.317 1.322 1.322 0 0 0-.529-.106c-.33 0-.59.091-.78.269a.895.895 0 0 0-.286.68c0 .182.044.343.129.485.087.142.21.251.366.326.156.076.38.142.674.199.397.074.673.143.825.208v.084c0 .164-.04.279-.121.35-.08.069-.233.103-.455.103a.61.61 0 0 1-.354-.088c-.085-.06-.154-.163-.206-.313" style="fill:#000;fill-opacity:1;fill-rule:nonzero;stroke:none" transform="matrix(1.25 0 0 -1.25 30.844 84.693)"/><path d="M0 0c0-.342.048-.59.142-.744.138-.222.329-.332.574-.332.196 0 .362.083.499.249.137.166.205.414.205.745 0 .369-.065.634-.199.796A.631.631 0 0 1 .71.957.638.638 0 0 1 .204.718C.068.557 0 .317 0 0m2.266-1.674h-.788v.47a1.297 1.297 0 0 0-.463-.409 1.203 1.203 0 0 0-.54-.134c-.369 0-.684.148-.947.445-.263.297-.394.713-.394 1.244 0 .544.127.957.383 1.24.256.283.579.424.97.424.359 0 .669-.148.931-.446v1.595h.848v-4.429z" style="fill:#000;fill-opacity:1;fill-rule:nonzero;stroke:none" transform="matrix(1.25 0 0 -1.25 33.779 84.526)"/><path d="M0 0v4.429h.894V2.687h1.752v1.742h.895V0h-.895v1.936H.894V0H0z" style="fill:#000;fill-opacity:1;fill-rule:nonzero;stroke:none" transform="matrix(1.25 0 0 -1.25 46.265 86.619)"/><path d="M0 0v.481A1.215 1.215 0 0 0-.461.076 1.283 1.283 0 0 0-1.643.069a.833.833 0 0 0-.371.399c-.077.172-.116.408-.116.71v2.031h.85V1.735c0-.452.015-.728.046-.83l.171-.242A.525.525 0 0 1-.749.574c.145 0 .276.04.39.12A.603.603 0 0 1-.123.99c.042.118.063.406.063.866v1.353h.849V0H0z" style="fill:#000;fill-opacity:1;fill-rule:nonzero;stroke:none" transform="matrix(1.25 0 0 -1.25 54.48 86.619)"/><path d="M0 0h.783v-.438c.28.34.613.51 1 .51.206 0 .384-.042.535-.126a.974.974 0 0 0 .371-.384c.141.171.293.298.457.384.163.084.338.126.523.126.235 0 .435-.048.598-.144a.878.878 0 0 0 .366-.42c.058-.138.087-.359.087-.665v-2.052h-.849v1.834c0 .319-.029.524-.088.616-.078.121-.199.181-.362.181a.571.571 0 0 1-.335-.108.609.609 0 0 1-.227-.319c-.046-.139-.069-.361-.069-.663v-1.541h-.85v1.759c0 .312-.015.513-.045.604l-.14.203-.259.065a.614.614 0 0 1-.353-.106.567.567 0 0 1-.225-.304C.872-1.122.85-1.342.85-1.651v-1.558H0V0z" style="fill:#000;fill-opacity:1;fill-rule:nonzero;stroke:none" transform="matrix(1.25 0 0 -1.25 56.485 82.607)"/><path d="M0 0c0-.361.072-.627.214-.799a.656.656 0 0 1 .523-.259c.197 0 .362.078.493.237.131.159.197.418.197.778 0 .336-.068.587-.203.749a.626.626 0 0 1-.503.246.655.655 0 0 1-.516-.241C.068.551 0 .314 0 0m-.84 1.55h.791v-.472a1.188 1.188 0 0 0 1.001.544c.373 0 .689-.146.948-.438.26-.293.39-.699.39-1.22 0-.537-.131-.954-.393-1.251-.262-.297-.579-.445-.951-.445-.178 0-.338.035-.483.105a1.637 1.637 0 0 0-.454.363v-1.617H-.84V1.55z" style="fill:#000;fill-opacity:1;fill-rule:nonzero;stroke:none" transform="matrix(1.25 0 0 -1.25 64.464 84.545)"/><path d="m0 0 .852.13a.629.629 0 0 1 .221-.376c.11-.085.265-.128.466-.128.219 0 .384.04.494.121l.112.226-.06.16c-.042.041-.137.077-.283.112C1.117.397.682.534.499.658a.831.831 0 0 0-.381.723c0 .278.11.511.329.701.22.189.56.284 1.022.284.438 0 .766-.071.979-.214.214-.144.361-.355.442-.635l-.801-.148a.504.504 0 0 1-.195.287c-.096.066-.233.1-.41.1-.224 0-.384-.031-.481-.094l-.096-.173.084-.153c.077-.057.341-.136.793-.24.453-.101.768-.227.948-.377.178-.151.266-.361.266-.631 0-.295-.124-.548-.369-.759-.246-.212-.609-.317-1.09-.317-.437 0-.784.089-1.039.267A1.228 1.228 0 0 0 0 0" style="fill:#000;fill-opacity:1;fill-rule:nonzero;stroke:none" transform="matrix(1.25 0 0 -1.25 67.794 85.475)"/><path d="m0 0 4.391 4.885L0 9.543h-4.699l2.753-3.255h-13.22V3.484h13.348L-4.623.121 0 0z" style="fill:#000;fill-opacity:1;fill-rule:evenodd;stroke:none" transform="rotate(180 20.23 54.477) scale(1.25)"/></svg>