<?xml version="1.0" encoding="UTF-8" standalone="no"?>
<!-- Generator: Adobe Illustrator 13.0.0, SVG Export Plug-In  -->

<svg
   xmlns:dc="http://purl.org/dc/elements/1.1/"
   xmlns:cc="http://creativecommons.org/ns#"
   xmlns:rdf="http://www.w3.org/1999/02/22-rdf-syntax-ns#"
   xmlns:svg="http://www.w3.org/2000/svg"
   xmlns="http://www.w3.org/2000/svg"
   xmlns:sodipodi="http://sodipodi.sourceforge.net/DTD/sodipodi-0.dtd"
   xmlns:inkscape="http://www.inkscape.org/namespaces/inkscape"
   version="1.1"
   x="0px"
   y="0px"
   width="153.96072"
   height="261.41989"
   viewBox="-0.025 -0.17 153.96072 261.41989"
   enable-background="new -0.025 -0.17 576 662"
   xml:space="preserve"
   id="svg2"
   sodipodi:version="0.32"
   inkscape:version="0.48.4 r9939"
   sodipodi:docname="AJAX1.svg"
   inkscape:output_extension="org.inkscape.output.svg.inkscape"><metadata
   id="metadata23"><rdf:RDF><cc:Work
       rdf:about=""><dc:format>image/svg+xml</dc:format><dc:type
         rdf:resource="http://purl.org/dc/dcmitype/StillImage" /></cc:Work></rdf:RDF></metadata><sodipodi:namedview
   inkscape:window-height="1004"
   inkscape:window-width="1280"
   inkscape:pageshadow="2"
   inkscape:pageopacity="0.0"
   guidetolerance="10.0"
   gridtolerance="10.0"
   objecttolerance="10.0"
   borderopacity="1.0"
   bordercolor="#666666"
   pagecolor="#ffffff"
   id="base"
   inkscape:zoom="1"
   inkscape:cx="100.19745"
   inkscape:cy="301.80989"
   inkscape:window-x="-8"
   inkscape:window-y="-8"
   inkscape:current-layer="svg2"
   showgrid="false"
   fit-margin-top="0"
   fit-margin-left="0"
   fit-margin-right="0"
   fit-margin-bottom="0"
   inkscape:window-maximized="1" />
<defs
   id="defs4">
</defs>











<path
   inkscape:connector-curvature="0"
   d="m 65.562487,261.23458 0,-142.69125 22.78128,0 0,142.69125"
   style="fill:#ffffff;stroke:#000000;stroke-width:4.795856;stroke-linecap:butt;stroke-linejoin:miter;stroke-miterlimit:10;stroke-opacity:1;stroke-dasharray:none"
   id="path3583" /><path
   inkscape:connector-curvature="0"
   d="m 140.45544,228.02027 c 0,7.50699 -6.08916,13.59604 -13.5962,13.59604 l -99.811973,0 c -7.51148,0 -13.59603,-6.08905 -13.59603,-13.59604 l 0,-58.33739 c 0,-7.5115 6.08455,-13.60056 13.59603,-13.60056 l 99.811973,0 c 7.50704,0 13.5962,6.08906 13.5962,13.60056 l 0,58.33739 z"
   style="fill:#ffffff;stroke:#000000;stroke-width:4.79675388;stroke-linecap:butt;stroke-linejoin:miter;stroke-miterlimit:10;stroke-opacity:1;stroke-dasharray:none"
   id="path3627" /><path
   inkscape:connector-curvature="0"
   d="m 47.198507,208.42716 0,4.15958 -15.68695,0 c 0.17051,-1.57499 0.67755,-3.06473 1.53011,-4.4692 0.84796,-1.40448 2.52615,-3.27113 5.02999,-5.59548 2.01921,-1.8801 3.25766,-3.15446 3.71086,-3.82305 0.61923,-0.92434 0.92436,-1.83523 0.92436,-2.74163 0,-0.99166 -0.26924,-1.75897 -0.8032,-2.29742 -0.53846,-0.53846 -1.27884,-0.80321 -2.22114,-0.80321 -0.93782,0 -1.6782,0.28251 -2.23011,0.84359 -0.55192,0.56089 -0.87051,1.49423 -0.95576,2.79998 l -4.46011,-0.44422 c 0.26455,-2.46345 1.09934,-4.2269 2.49922,-5.3083 1.40448,-1.06795 3.15447,-1.6064 5.25894,-1.6064 2.3019,0 4.11023,0.62371 5.42944,1.86664 1.31474,1.24295 1.97435,2.78652 1.97435,4.63075 0,1.05448 -0.18846,2.05062 -0.56538,3.00639 -0.37691,0.94678 -0.97371,1.94293 -1.79486,2.98395 -0.53846,0.69103 -1.51665,1.68267 -2.92561,2.97498 -1.41346,1.29678 -2.31088,2.15831 -2.68781,2.58459 l -0.91538,1.23846 8.88904,0 z"
   style="fill:#000000;fill-opacity:1;fill-rule:nonzero;stroke:none"
   id="path3639" /><path
   inkscape:connector-curvature="0"
   d="m 57.803387,192.85722 c -0.54294,0 -1.02755,0.17051 -1.44934,0.51602 -0.42629,0.34533 -0.75384,0.96474 -0.98718,1.8532 -0.30979,1.15768 -0.46217,3.1051 -0.46217,5.84675 0,2.73716 0.13928,4.61727 0.41281,5.64483 0.27821,1.02306 0.62372,1.7096 1.04552,2.04614 0.4173,0.33635 0.89742,0.51153 1.44036,0.51153 0.54295,0 1.02308,-0.17481 1.44935,-0.52051 0.42628,-0.34533 0.75385,-0.96474 0.98717,-1.85319 0.30513,-1.14422 0.46219,-3.09164 0.46219,-5.8288 0,-2.74165 -0.13928,-4.61728 -0.41731,-5.64932 -0.2739,-1.01859 -0.62371,-1.70512 -1.04102,-2.05063 -0.4173,-0.34532 -0.89743,-0.51602 -1.44038,-0.51602 m 0,-3.71535 c 2.26152,0 4.02947,0.81217 5.30373,2.42305 1.51667,1.91153 2.27499,5.07497 2.27499,9.50827 0,4.41536 -0.76281,7.58776 -2.29293,9.52172 -1.26081,1.59294 -3.02427,2.39165 -5.28579,2.39165 -2.27497,0 -4.10573,-0.87948 -5.49226,-2.62049 -1.39101,-1.74551 -2.08652,-4.85958 -2.08652,-9.33776 0,-4.40189 0.76281,-7.56084 2.29293,-9.49479 1.26089,-1.59295 3.02433,-2.39165 5.28585,-2.39165"
   style="fill:#000000;fill-opacity:1;fill-rule:nonzero;stroke:none"
   id="path3643" /><path
   inkscape:connector-curvature="0"
   d="m 75.942627,192.85722 c -0.54299,0 -1.02759,0.17051 -1.44939,0.51602 -0.42628,0.34533 -0.75383,0.96474 -0.98717,1.8532 -0.30942,1.15768 -0.46217,3.1051 -0.46217,5.84675 0,2.73716 0.13897,4.61727 0.41281,5.64483 0.27821,1.02306 0.62372,1.7096 1.04102,2.04614 0.4218,0.33635 0.90191,0.51153 1.4449,0.51153 0.54295,0 1.02304,-0.17481 1.44483,-0.52051 0.42627,-0.34533 0.75832,-0.96474 0.99165,-1.85319 0.30513,-1.14422 0.46218,-3.09164 0.46218,-5.8288 0,-2.74165 -0.13928,-4.61728 -0.4173,-5.64932 -0.2739,-1.01859 -0.62372,-1.70512 -1.04102,-2.05063 -0.4173,-0.34532 -0.89739,-0.51602 -1.44034,-0.51602 m 0,-3.71535 c 2.26149,0 4.02942,0.81217 5.30377,2.42305 1.51666,1.91153 2.27499,5.07497 2.27499,9.50827 0,4.41536 -0.76282,7.58776 -2.29294,9.52172 -1.26089,1.59294 -3.02433,2.39165 -5.28582,2.39165 -2.27501,0 -4.10577,-0.87948 -5.49231,-2.62049 -1.39549,-1.74551 -2.091,-4.85958 -2.091,-9.33776 0,-4.40189 0.7673,-7.56084 2.29293,-9.49479 1.26538,-1.59295 3.02882,-2.39165 5.29038,-2.39165"
   style="fill:#000000;fill-opacity:1;fill-rule:nonzero;stroke:none"
   id="path3647" /><path
   inkscape:connector-curvature="0"
   d="m 96.198007,195.67293 4.123723,0 0,2.31087 c 1.47627,-1.79485 3.23075,-2.69229 5.2724,-2.69229 1.0814,0 2.01921,0.22005 2.81791,0.66859 0.79423,0.44872 1.44936,1.12179 1.96089,2.0237 0.74038,-0.90191 1.54358,-1.57498 2.40511,-2.0237 0.85706,-0.4487 1.77691,-0.66859 2.7551,-0.66859 1.23851,0 2.29294,0.25596 3.15002,0.75385 0.86153,0.50704 1.5032,1.24742 1.92948,2.22563 0.30979,0.72242 0.46217,1.88908 0.46217,3.50445 l 0,10.80954 -4.47368,0 0,-9.66531 c 0,-1.6782 -0.15723,-2.7596 -0.46667,-3.25318 -0.41285,-0.63718 -1.05002,-0.95576 -1.91155,-0.95576 -0.62372,0 -1.21602,0.19743 -1.76346,0.57883 -0.55191,0.37693 -0.95127,0.94231 -1.19357,1.68269 -0.24698,0.73589 -0.36794,1.89806 -0.36794,3.49099 l 0,8.12174 -4.47819,0 0,-9.26595 c 0,-1.64678 -0.0761,-2.71024 -0.23763,-3.18588 -0.15724,-0.48013 -0.40385,-0.83012 -0.74038,-1.06346 -0.33636,-0.23332 -0.78525,-0.35896 -1.35961,-0.35896 -0.69102,0 -1.31024,0.18845 -1.86664,0.56538 -0.55193,0.36794 -0.94231,0.9064 -1.18461,1.6064 -0.23765,0.69549 -0.35898,1.86216 -0.35898,3.4865 l 0,8.21597 -4.473733,0 0,-16.91205 z"
   style="fill:#000000;fill-opacity:1;fill-rule:nonzero;stroke:none"
   id="path3651" /><path
   inkscape:connector-curvature="0"
   d="m 10.132787,-0.16986 c -3.6256194,0.0495 -6.9864964,1.9877996 -8.7948174,5.1377796 -1.817293,3.15446 -1.817293,7.0358504 0,10.1948004 L 68.169527,130.69327 c 1.82178,3.14099 5.17817,5.07496 8.81275,5.07496 3.63011,0 6.99097,-1.93397 8.81277,-5.07496 L 152.54582,15.16272 c 1.8532,-3.15895 1.8532,-7.0403404 0,-10.1948004 -1.8128,-3.14998 -5.17817,-5.0884196 -8.80378,-5.0884196 L 10.132787,-0.17 z"
   style="fill:#ed1d24;fill-opacity:1;fill-rule:evenodd;stroke:none"
   id="path5579"
   sodipodi:nodetypes="ccccscccccc" /><path
   id="path5581"
   style="fill:#ffffff;fill-opacity:1;fill-rule:evenodd;stroke:none"
   d="m 137.82798,13.47555 -121.736273,0 60.85019,105.33576 z"
   inkscape:connector-curvature="0"
   sodipodi:nodetypes="cccc" /></svg>