<?xml version="1.0" encoding="UTF-8" standalone="no"?>
<!-- Created with Inkscape (http://www.inkscape.org/) -->

<svg
   xmlns:dc="http://purl.org/dc/elements/1.1/"
   xmlns:cc="http://creativecommons.org/ns#"
   xmlns:rdf="http://www.w3.org/1999/02/22-rdf-syntax-ns#"
   xmlns:svg="http://www.w3.org/2000/svg"
   xmlns="http://www.w3.org/2000/svg"
   xmlns:sodipodi="http://sodipodi.sourceforge.net/DTD/sodipodi-0.dtd"
   xmlns:inkscape="http://www.inkscape.org/namespaces/inkscape"
   width="214.45255"
   height="214.3138"
   id="svg4205"
   version="1.1"
   inkscape:version="0.47 r22583"
   sodipodi:docname="Cyprus road sign end no overpass.svg">
  <defs
     id="defs4207">
    <inkscape:perspective
       sodipodi:type="inkscape:persp3d"
       inkscape:vp_x="0 : 526.18109 : 1"
       inkscape:vp_y="0 : 1000 : 0"
       inkscape:vp_z="744.09448 : 526.18109 : 1"
       inkscape:persp3d-origin="372.04724 : 350.78739 : 1"
       id="perspective4213" />
    <inkscape:perspective
       id="perspective4228"
       inkscape:persp3d-origin="106.21 : 70.796666 : 1"
       inkscape:vp_z="212.42 : 106.195 : 1"
       inkscape:vp_y="0 : 1000 : 0"
       inkscape:vp_x="0 : 106.195 : 1"
       sodipodi:type="inkscape:persp3d" />
    <clipPath
       id="clipPath16">
      <path
         inkscape:connector-curvature="0"
         d="M 0.059998,169.98 H 170 V 0.06 H 0.059998 v 169.92 z"
         id="path18" />
    </clipPath>
    <inkscape:perspective
       id="perspective4247"
       inkscape:persp3d-origin="0.5 : 0.33333333 : 1"
       inkscape:vp_z="1 : 0.5 : 1"
       inkscape:vp_y="0 : 1000 : 0"
       inkscape:vp_x="0 : 0.5 : 1"
       sodipodi:type="inkscape:persp3d" />
    <clipPath
       clipPathUnits="userSpaceOnUse"
       id="clipPath3426">
      <path
         d="m 43.076,488.976 34.845,0 0,34.015 -34.845,0 0,-34.015 z"
         id="path3428" />
    </clipPath>
    <inkscape:perspective
       id="perspective4323"
       inkscape:persp3d-origin="0.5 : 0.33333333 : 1"
       inkscape:vp_z="1 : 0.5 : 1"
       inkscape:vp_y="0 : 1000 : 0"
       inkscape:vp_x="0 : 0.5 : 1"
       sodipodi:type="inkscape:persp3d" />
    <clipPath
       clipPathUnits="userSpaceOnUse"
       id="clipPath2896">
      <path
         d="m 102.752,490.181 34.845,0 0,34.016 -34.845,0 0,-34.016 z"
         id="path2898" />
    </clipPath>
    <inkscape:perspective
       id="perspective5249"
       inkscape:persp3d-origin="0.5 : 0.33333333 : 1"
       inkscape:vp_z="1 : 0.5 : 1"
       inkscape:vp_y="0 : 1000 : 0"
       inkscape:vp_x="0 : 0.5 : 1"
       sodipodi:type="inkscape:persp3d" />
    <inkscape:perspective
       id="perspective5326"
       inkscape:persp3d-origin="0.5 : 0.33333333 : 1"
       inkscape:vp_z="1 : 0.5 : 1"
       inkscape:vp_y="0 : 1000 : 0"
       inkscape:vp_x="0 : 0.5 : 1"
       sodipodi:type="inkscape:persp3d" />
    <clipPath
       clipPathUnits="userSpaceOnUse"
       id="clipPath3128">
      <path
         d="m 164.704,490.181 34.845,0 0,34.016 -34.845,0 0,-34.016 z"
         id="path3130" />
    </clipPath>
    <inkscape:perspective
       id="perspective5450"
       inkscape:persp3d-origin="0.5 : 0.33333333 : 1"
       inkscape:vp_z="1 : 0.5 : 1"
       inkscape:vp_y="0 : 1000 : 0"
       inkscape:vp_x="0 : 0.5 : 1"
       sodipodi:type="inkscape:persp3d" />
    <clipPath
       clipPathUnits="userSpaceOnUse"
       id="clipPath3318">
      <path
         d="m 224.23,490.181 34.845,0 0,34.016 -34.845,0 0,-34.016 z"
         id="path3320" />
    </clipPath>
    <inkscape:perspective
       id="perspective5517"
       inkscape:persp3d-origin="0.5 : 0.33333333 : 1"
       inkscape:vp_z="1 : 0.5 : 1"
       inkscape:vp_y="0 : 1000 : 0"
       inkscape:vp_x="0 : 0.5 : 1"
       sodipodi:type="inkscape:persp3d" />
    <clipPath
       clipPathUnits="userSpaceOnUse"
       id="clipPath2936">
      <path
         d="m 43.087,413.859 34.845,0 0,34.016 -34.845,0 0,-34.016 z"
         id="path2938" />
    </clipPath>
    <inkscape:perspective
       id="perspective5617"
       inkscape:persp3d-origin="0.5 : 0.33333333 : 1"
       inkscape:vp_z="1 : 0.5 : 1"
       inkscape:vp_y="0 : 1000 : 0"
       inkscape:vp_x="0 : 0.5 : 1"
       sodipodi:type="inkscape:persp3d" />
    <clipPath
       clipPathUnits="userSpaceOnUse"
       id="clipPath3572">
      <path
         d="m 102.752,413.859 34.845,0 0,34.016 -34.845,0 0,-34.016 z"
         id="path3574" />
    </clipPath>
    <inkscape:perspective
       id="perspective5745"
       inkscape:persp3d-origin="0.5 : 0.33333333 : 1"
       inkscape:vp_z="1 : 0.5 : 1"
       inkscape:vp_y="0 : 1000 : 0"
       inkscape:vp_x="0 : 0.5 : 1"
       sodipodi:type="inkscape:persp3d" />
    <clipPath
       clipPathUnits="userSpaceOnUse"
       id="clipPath3694">
      <path
         d="m 164.704,413.859 34.845,0 0,34.016 -34.845,0 0,-34.016 z"
         id="path3696" />
    </clipPath>
    <inkscape:perspective
       id="perspective5843"
       inkscape:persp3d-origin="0.5 : 0.33333333 : 1"
       inkscape:vp_z="1 : 0.5 : 1"
       inkscape:vp_y="0 : 1000 : 0"
       inkscape:vp_x="0 : 0.5 : 1"
       sodipodi:type="inkscape:persp3d" />
    <clipPath
       clipPathUnits="userSpaceOnUse"
       id="clipPath3500">
      <path
         d="m 224.23,413.859 34.845,0 0,34.016 -34.845,0 0,-34.016 z"
         id="path3502" />
    </clipPath>
    <inkscape:perspective
       id="perspective6067"
       inkscape:persp3d-origin="0.5 : 0.33333333 : 1"
       inkscape:vp_z="1 : 0.5 : 1"
       inkscape:vp_y="0 : 1000 : 0"
       inkscape:vp_x="0 : 0.5 : 1"
       sodipodi:type="inkscape:persp3d" />
    <clipPath
       clipPathUnits="userSpaceOnUse"
       id="clipPath3162">
      <path
         d="m 43.076,323.15 34.845,0 0,34.016 -34.845,0 0,-34.016 z"
         id="path3164" />
    </clipPath>
    <inkscape:perspective
       id="perspective6134"
       inkscape:persp3d-origin="0.5 : 0.33333333 : 1"
       inkscape:vp_z="1 : 0.5 : 1"
       inkscape:vp_y="0 : 1000 : 0"
       inkscape:vp_x="0 : 0.5 : 1"
       sodipodi:type="inkscape:persp3d" />
    <clipPath
       clipPathUnits="userSpaceOnUse"
       id="clipPath3350">
      <path
         d="m 103.255,323.15 34.845,0 0,34.016 -34.845,0 0,-34.016 z"
         id="path3352" />
    </clipPath>
    <inkscape:perspective
       id="perspective6370"
       inkscape:persp3d-origin="0.5 : 0.33333333 : 1"
       inkscape:vp_z="1 : 0.5 : 1"
       inkscape:vp_y="0 : 1000 : 0"
       inkscape:vp_x="0 : 0.5 : 1"
       sodipodi:type="inkscape:persp3d" />
    <clipPath
       clipPathUnits="userSpaceOnUse"
       id="clipPath3262">
      <path
         d="m 164.704,323.15 34.845,0 0,34.016 -34.845,0 0,-34.016 z"
         id="path3264" />
    </clipPath>
    <clipPath
       clipPathUnits="userSpaceOnUse"
       id="clipPath3218">
      <path
         d="m 168.515,340.144 c 0,-7.465 6.12,-13.582 13.61,-13.582 l 0,0 c 7.465,0 13.608,6.117 13.608,13.582 l 0,0 c 0,7.491 -6.143,13.61 -13.608,13.61 l 0,0 c -7.49,0 -13.61,-6.119 -13.61,-13.61"
         id="path3220" />
    </clipPath>
    <clipPath
       clipPathUnits="userSpaceOnUse"
       id="clipPath3226">
      <path
         d="M 0,0 311,0 311,595 0,595 0,0 z"
         id="path3228" />
    </clipPath>
    <clipPath
       clipPathUnits="userSpaceOnUse"
       id="clipPath3194">
      <path
         d="m 164.704,323.15 34.845,0 0,34.016 -34.845,0 0,-34.016 z"
         id="path3196" />
    </clipPath>
    <inkscape:perspective
       id="perspective6674"
       inkscape:persp3d-origin="0.5 : 0.33333333 : 1"
       inkscape:vp_z="1 : 0.5 : 1"
       inkscape:vp_y="0 : 1000 : 0"
       inkscape:vp_x="0 : 0.5 : 1"
       sodipodi:type="inkscape:persp3d" />
    <clipPath
       clipPathUnits="userSpaceOnUse"
       id="clipPath3916">
      <path
         d="m 164.862,222.52 34.845,0 0,34.016 -34.845,0 0,-34.016 z"
         id="path3918" />
    </clipPath>
    <inkscape:perspective
       id="perspective6766"
       inkscape:persp3d-origin="0.5 : 0.33333333 : 1"
       inkscape:vp_z="1 : 0.5 : 1"
       inkscape:vp_y="0 : 1000 : 0"
       inkscape:vp_x="0 : 0.5 : 1"
       sodipodi:type="inkscape:persp3d" />
    <clipPath
       clipPathUnits="userSpaceOnUse"
       id="clipPath3944">
      <path
         d="m 224.739,222.52 34.845,0 0,34.016 -34.845,0 0,-34.016 z"
         id="path3946" />
    </clipPath>
    <inkscape:perspective
       id="perspective6882"
       inkscape:persp3d-origin="0.5 : 0.33333333 : 1"
       inkscape:vp_z="1 : 0.5 : 1"
       inkscape:vp_y="0 : 1000 : 0"
       inkscape:vp_x="0 : 0.5 : 1"
       sodipodi:type="inkscape:persp3d" />
    <clipPath
       clipPathUnits="userSpaceOnUse"
       id="clipPath3464">
      <path
         d="m 102.651,123.307 34.845,0 0,34.016 -34.845,0 0,-34.016 z"
         id="path3466" />
    </clipPath>
    <inkscape:perspective
       id="perspective8234"
       inkscape:persp3d-origin="0.5 : 0.33333333 : 1"
       inkscape:vp_z="1 : 0.5 : 1"
       inkscape:vp_y="0 : 1000 : 0"
       inkscape:vp_x="0 : 0.5 : 1"
       sodipodi:type="inkscape:persp3d" />
    <clipPath
       clipPathUnits="userSpaceOnUse"
       id="clipPath7334">
      <path
         d="m 52.735,415.275 34.845,0 0,34.016 -34.845,0 0,-34.016 z"
         id="path7336" />
    </clipPath>
    <inkscape:perspective
       id="perspective8289"
       inkscape:persp3d-origin="0.5 : 0.33333333 : 1"
       inkscape:vp_z="1 : 0.5 : 1"
       inkscape:vp_y="0 : 1000 : 0"
       inkscape:vp_x="0 : 0.5 : 1"
       sodipodi:type="inkscape:persp3d" />
    <clipPath
       clipPathUnits="userSpaceOnUse"
       id="clipPath7406">
      <path
         d="m 117.545,441.384 c -5.026,-7.03 -3.402,-16.804 3.628,-21.829 l 0,0 c 7.031,-5.027 16.804,-3.4 21.83,3.63 l 0,0 c 5.024,7.028 3.4,16.801 -3.631,21.826 l 0,0 c -2.757,1.972 -5.937,2.92 -9.087,2.92 l 0,0 c -4.88,0 -9.688,-2.276 -12.74,-6.547"
         id="path7408" />
    </clipPath>
    <clipPath
       clipPathUnits="userSpaceOnUse"
       id="clipPath7414">
      <path
         d="M 0,0 311,0 311,595 0,595 0,0 z"
         id="path7416" />
    </clipPath>
    <clipPath
       clipPathUnits="userSpaceOnUse"
       id="clipPath7386">
      <path
         d="m 112.85,415.275 34.845,0 0,34.016 -34.845,0 0,-34.016 z"
         id="path7388" />
    </clipPath>
    <inkscape:perspective
       id="perspective8393"
       inkscape:persp3d-origin="0.5 : 0.33333333 : 1"
       inkscape:vp_z="1 : 0.5 : 1"
       inkscape:vp_y="0 : 1000 : 0"
       inkscape:vp_x="0 : 0.5 : 1"
       sodipodi:type="inkscape:persp3d" />
    <clipPath
       clipPathUnits="userSpaceOnUse"
       id="clipPath8118">
      <path
         d="m 52.735,322.441 34.845,0 0,34.016 -34.845,0 0,-34.016 z"
         id="path8120" />
    </clipPath>
    <clipPath
       clipPathUnits="userSpaceOnUse"
       id="clipPath8098">
      <path
         d="m 53.49,339.448 c 0,-9.205 7.462,-16.667 16.668,-16.667 l 0,0 c 9.204,0 16.667,7.462 16.667,16.667 l 0,0 c 0,9.205 -7.463,16.668 -16.667,16.668 l 0,0 c -9.206,0 -16.668,-7.463 -16.668,-16.668"
         id="path8100" />
    </clipPath>
    <clipPath
       clipPathUnits="userSpaceOnUse"
       id="clipPath8106">
      <path
         d="M 0,0 311,0 311,595 0,595 0,0 z"
         id="path8108" />
    </clipPath>
    <clipPath
       clipPathUnits="userSpaceOnUse"
       id="clipPath8058">
      <path
         d="m 52.735,322.441 34.845,0 0,34.016 -34.845,0 0,-34.016 z"
         id="path8060" />
    </clipPath>
    <inkscape:perspective
       id="perspective8520"
       inkscape:persp3d-origin="0.5 : 0.33333333 : 1"
       inkscape:vp_z="1 : 0.5 : 1"
       inkscape:vp_y="0 : 1000 : 0"
       inkscape:vp_x="0 : 0.5 : 1"
       sodipodi:type="inkscape:persp3d" />
    <clipPath
       clipPathUnits="userSpaceOnUse"
       id="clipPath8118-4">
      <path
         d="m 52.735,322.441 34.845,0 0,34.016 -34.845,0 0,-34.016 z"
         id="path8120-0" />
    </clipPath>
    <clipPath
       clipPathUnits="userSpaceOnUse"
       id="clipPath8098-9">
      <path
         d="m 53.49,339.448 c 0,-9.205 7.462,-16.667 16.668,-16.667 l 0,0 c 9.204,0 16.667,7.462 16.667,16.667 l 0,0 c 0,9.205 -7.463,16.668 -16.667,16.668 l 0,0 c -9.206,0 -16.668,-7.463 -16.668,-16.668"
         id="path8100-4" />
    </clipPath>
    <clipPath
       clipPathUnits="userSpaceOnUse"
       id="clipPath8106-8">
      <path
         d="M 0,0 311,0 311,595 0,595 0,0 z"
         id="path8108-8" />
    </clipPath>
    <clipPath
       clipPathUnits="userSpaceOnUse"
       id="clipPath8058-2">
      <path
         d="m 52.735,322.441 34.845,0 0,34.016 -34.845,0 0,-34.016 z"
         id="path8060-4" />
    </clipPath>
    <inkscape:perspective
       id="perspective8733"
       inkscape:persp3d-origin="0.5 : 0.33333333 : 1"
       inkscape:vp_z="1 : 0.5 : 1"
       inkscape:vp_y="0 : 1000 : 0"
       inkscape:vp_x="0 : 0.5 : 1"
       sodipodi:type="inkscape:persp3d" />
    <clipPath
       clipPathUnits="userSpaceOnUse"
       id="clipPath7236">
      <path
         d="m 112.85,322.441 34.845,0 0,34.016 -34.845,0 0,-34.016 z"
         id="path7238" />
    </clipPath>
  </defs>
  <sodipodi:namedview
     id="base"
     pagecolor="#ffffff"
     bordercolor="#666666"
     borderopacity="1.0"
     inkscape:pageopacity="0.0"
     inkscape:pageshadow="2"
     inkscape:zoom="1.1813655"
     inkscape:cx="276.96608"
     inkscape:cy="84.287391"
     inkscape:document-units="px"
     inkscape:current-layer="layer1"
     showgrid="false"
     inkscape:window-width="1600"
     inkscape:window-height="838"
     inkscape:window-x="-8"
     inkscape:window-y="-8"
     inkscape:window-maximized="1" />
  <metadata
     id="metadata4210">
    <rdf:RDF>
      <cc:Work
         rdf:about="">
        <dc:format>image/svg+xml</dc:format>
        <dc:type
           rdf:resource="http://purl.org/dc/dcmitype/StillImage" />
        <dc:title></dc:title>
      </cc:Work>
    </rdf:RDF>
  </metadata>
  <g
     inkscape:label="Livello 1"
     inkscape:groupmode="layer"
     id="layer1"
     transform="translate(105.81095,-413.76333)">
    <g
       transform="matrix(6.3065003,0,0,-6.3065003,-820.15707,2661.6523)"
       id="g7232">
      <g
         id="g7234"
         clip-path="url(#clipPath7236)">
        <g
           id="g7240"
           transform="translate(130.2724,325.8535)">
          <path
             d="m 0,0 c 7.465,0 13.608,6.117 13.608,13.582 0,7.49 -6.143,13.61 -13.608,13.61 -7.491,0 -13.61,-6.12 -13.61,-13.61 C -13.61,6.117 -7.491,0 0,0"
             style="fill:#ffffff;fill-opacity:1;fill-rule:evenodd;stroke:none"
             id="path7242" />
        </g>
        <g
           id="g7244"
           transform="translate(130.2724,325.851)">
          <path
             d="m 0,0 c 7.467,0 13.608,6.119 13.608,13.584 0,7.491 -6.141,13.608 -13.608,13.608 -7.491,0 -13.608,-6.117 -13.608,-13.608 C -13.608,6.119 -7.491,0 0,0 m 0,-3.394 c 9.356,0 17.004,7.648 17.004,16.978 0,9.359 -7.648,17.005 -17.004,17.005 -9.354,0 -17.001,-7.646 -17.001,-17.005 0,-9.33 7.647,-16.978 17.001,-16.978"
             style="fill:#ed1d24;fill-opacity:1;fill-rule:evenodd;stroke:none"
             id="path7246" />
        </g>
        <g
           id="g7248"
           transform="translate(121.5867,341.1908)">
          <path
             d="m 0,0 6.309,0 1.264,-2.752 -8.793,0 L 0,0 z"
             style="fill:#000000;fill-opacity:1;fill-rule:nonzero;stroke:none"
             id="path7250" />
        </g>
        <g
           id="g7252"
           transform="translate(121.8972,340.6944)">
          <path
             d="m 0,0 -0.87,-1.903 7.469,0 L 5.814,0 0,0 z"
             style="fill:#fdfefc;fill-opacity:1;fill-rule:nonzero;stroke:none"
             id="path7254" />
        </g>
        <g
           id="g7256"
           transform="translate(129.58231,336.1465)">
          <path
             d="m 0,0 c 0,-0.208 -0.168,-0.376 -0.375,-0.376 l -8.89,0 c -0.207,0 -0.376,0.168 -0.376,0.376 l 0,1.917 c 0,0.208 0.169,0.375 0.376,0.375 l 8.89,0 C -0.168,2.292 0,2.125 0,1.917 L 0,0 z"
             style="fill:#000000;fill-opacity:1;fill-rule:nonzero;stroke:none"
             id="path7258" />
        </g>
        <g
           id="g7260"
           transform="translate(129.0022,334.3517)">
          <path
             d="m 0,0 c 0,-0.221 -0.168,-0.402 -0.375,-0.402 l -0.634,0 c -0.207,0 -0.375,0.181 -0.375,0.402 l 0,1.368 c 0,0.222 0.168,0.403 0.375,0.403 l 0.634,0 C -0.168,1.771 0,1.59 0,1.368 L 0,0 z"
             style="fill:#000000;fill-opacity:1;fill-rule:nonzero;stroke:none"
             id="path7262" />
        </g>
        <g
           id="g7264"
           transform="translate(121.8456,334.3517)">
          <path
             d="m 0,0 c 0,-0.221 -0.168,-0.402 -0.376,-0.402 l -0.634,0 c -0.208,0 -0.375,0.181 -0.375,0.402 l 0,1.368 c 0,0.222 0.167,0.403 0.375,0.403 l 0.634,0 C -0.168,1.771 0,1.59 0,1.368 L 0,0 z"
             style="fill:#000000;fill-opacity:1;fill-rule:nonzero;stroke:none"
             id="path7266" />
        </g>
        <g
           id="g7268"
           transform="translate(130.4834,346.4583)">
          <path
             d="m 0,0 c 0.353,0.469 9.523,0.53 9.937,0 0.415,-0.53 0,-10.947 0,-10.947 l -0.487,0 0,-1.608 -0.851,0 0,1.608 -0.326,0 0,-1.608 -0.853,0 0,1.608 -4.903,0 0,-1.608 -0.851,0 0,1.608 -0.325,0 0,-1.608 -0.852,0 0,1.608 -0.489,0 c 0,0 -0.353,10.478 0,10.947"
             style="fill:#ed1d24;fill-opacity:1;fill-rule:evenodd;stroke:none"
             id="path7270" />
        </g>
        <path
           d="m 132.551,334.403 5.55,0 0,0.475 -5.55,0 0,-0.475 z"
           style="fill:#ed1d24;fill-opacity:1;fill-rule:evenodd;stroke:none"
           id="path7272" />
        <g
           id="g7274"
           transform="translate(136.16589,334.64)">
          <path
             d="m 0,0 c 0,-0.27 -0.313,-0.487 -0.7,-0.487 -0.388,0 -0.7,0.217 -0.7,0.487 0,0.269 0.312,0.488 0.7,0.488 C -0.313,0.488 0,0.269 0,0"
             style="fill:#ed1d24;fill-opacity:1;fill-rule:evenodd;stroke:none"
             id="path7276" />
        </g>
      </g>
    </g>
  </g>
</svg>
