<svg xmlns="http://www.w3.org/2000/svg" width="214.453" height="214.314"><defs><clipPath clipPathUnits="userSpaceOnUse" id="a"><path d="M112.85 322.441h34.845v34.016H112.85v-34.016z"/></clipPath></defs><g clip-path="url(#a)" transform="matrix(6.3065 0 0 -6.3065 -714.346 2247.889)"><path d="M0 0c7.465 0 13.608 6.117 13.608 13.582 0 7.49-6.143 13.61-13.608 13.61-7.491 0-13.61-6.12-13.61-13.61C-13.61 6.117-7.491 0 0 0" style="fill:#fff;fill-opacity:1;fill-rule:evenodd;stroke:none" transform="translate(130.272 325.853)"/><path d="M0 0c7.467 0 13.608 6.119 13.608 13.584 0 7.491-6.141 13.608-13.608 13.608-7.491 0-13.608-6.117-13.608-13.608C-13.608 6.119-7.491 0 0 0m0-3.394c9.356 0 17.004 7.648 17.004 16.978 0 9.359-7.648 17.005-17.004 17.005-9.354 0-17.001-7.646-17.001-17.005 0-9.33 7.647-16.978 17.001-16.978" style="fill:#ed1d24;fill-opacity:1;fill-rule:evenodd;stroke:none" transform="translate(130.272 325.851)"/><path d="M0 0h6.309l1.264-2.752H-1.22L0 0z" style="fill:#000;fill-opacity:1;fill-rule:nonzero;stroke:none" transform="translate(121.587 341.19)"/><path d="m0 0-.87-1.903h7.469L5.814 0H0z" style="fill:#fdfefc;fill-opacity:1;fill-rule:nonzero;stroke:none" transform="translate(121.897 340.694)"/><path d="M0 0a.375.375 0 0 0-.375-.376h-8.89A.376.376 0 0 0-9.641 0v1.917c0 .208.169.375.376.375h8.89A.374.374 0 0 0 0 1.917V0z" style="fill:#000;fill-opacity:1;fill-rule:nonzero;stroke:none" transform="translate(129.582 336.147)"/><path d="M0 0c0-.221-.168-.402-.375-.402h-.634c-.207 0-.375.181-.375.402v1.368c0 .222.168.403.375.403h.634c.207 0 .375-.181.375-.403V0z" style="fill:#000;fill-opacity:1;fill-rule:nonzero;stroke:none" transform="translate(129.002 334.352)"/><path d="M0 0c0-.221-.168-.402-.376-.402h-.634c-.208 0-.375.181-.375.402v1.368c0 .222.167.403.375.403h.634c.208 0 .376-.181.376-.403V0z" style="fill:#000;fill-opacity:1;fill-rule:nonzero;stroke:none" transform="translate(121.846 334.352)"/><path d="M0 0c.353.469 9.523.53 9.937 0 .415-.53 0-10.947 0-10.947H9.45v-1.608h-.851v1.608h-.326v-1.608H7.42v1.608H2.517v-1.608h-.851v1.608h-.325v-1.608H.489v1.608H0S-.353-.469 0 0" style="fill:#ed1d24;fill-opacity:1;fill-rule:evenodd;stroke:none" transform="translate(130.483 346.458)"/><path d="M132.551 334.403h5.55v.475h-5.55v-.475z" style="fill:#ed1d24;fill-opacity:1;fill-rule:evenodd;stroke:none"/><path d="M0 0c0-.27-.313-.487-.7-.487-.388 0-.7.217-.7.487 0 .269.312.488.7.488.387 0 .7-.219.7-.488" style="fill:#ed1d24;fill-opacity:1;fill-rule:evenodd;stroke:none" transform="translate(136.166 334.64)"/></g></svg>