<svg xmlns="http://www.w3.org/2000/svg" width="150.322" height="151.628"><defs><clipPath clipPathUnits="userSpaceOnUse" id="c"><path d="M32.598 406.205h114.997v116.22H32.598v-116.22z"/></clipPath><clipPath clipPathUnits="userSpaceOnUse" id="b"><path d="M0 0h311v595H0V0z"/></clipPath><clipPath clipPathUnits="userSpaceOnUse" id="a"><path d="M32.598 406.205h114.997v116.22H32.598v-116.22z"/></clipPath></defs><g clip-path="url(#a)" transform="matrix(1.36987 0 0 -1.36987 -48.26 711.62)"><path d="M35.474 409.038H144.72v110.199H35.474V409.038z" style="fill:#007ac2;fill-opacity:1;fill-rule:nonzero;stroke:none"/><path d="M35.718 409.333h108.758v109.612H35.718V409.333z" style="fill:#007ac2;fill-opacity:1;fill-rule:nonzero;stroke:none"/><path d="M0 0h-109.246v110.199H0V0zm-109.003.294H-.245v109.611h-108.758V.294z" style="fill:#007ac2;fill-opacity:1;fill-rule:nonzero;stroke:none" transform="translate(144.721 409.038)"/></g><g clip-path="url(#b)" transform="matrix(1.36987 0 0 -1.36987 -48.26 711.62)"><path d="M32.998 1279.999h111.947v93.739H32.998v-93.739z" style="fill:none;stroke:#000;stroke-width:.45624918;stroke-linecap:butt;stroke-linejoin:miter;stroke-miterlimit:10;stroke-opacity:1;stroke-dasharray:none" transform="matrix(.97588 0 0 -1.1756 3.272 2024.002)"/></g><g clip-path="url(#c)" transform="matrix(1.36987 0 0 -1.36987 -48.26 711.62)"><path d="M42.831 454.74h5.001v24.981h-5.001V454.74z" style="fill:#fff;fill-opacity:1;fill-rule:evenodd;stroke:none"/><path d="M0 0h9.881l-4.94 9.552L0 0z" style="fill:#fff;fill-opacity:1;fill-rule:evenodd;stroke:none" transform="translate(40.392 478.84)"/><path d="M0 0h3.289v-.748H.697v-5.593H0V0z" style="fill:#ffdb00;fill-opacity:1;fill-rule:nonzero;stroke:none" transform="translate(55.958 465.06)"/><path d="M0 0v6.341h3.806v-.748H.697V3.651h2.912v-.744H.697V.749h3.231V0H0z" style="fill:#ffdb00;fill-opacity:1;fill-rule:nonzero;stroke:none" transform="translate(60.273 458.718)"/><path d="M0 0h1.361c.45 0 .769.101.959.302.189.202.284.487.284.854 0 .264-.056.491-.167.68a.796.796 0 0 1-.44.374c-.117.038-.334.057-.65.057H0V0zm-.697-3.327v6.342h1.986c.349 0 .617-.021.801-.061.258-.051.475-.15.65-.296.174-.146.315-.349.422-.612.106-.263.16-.551.16-.866 0-.538-.143-.994-.428-1.368-.285-.374-.8-.561-1.543-.561H0v-2.578h-.697z" style="fill:#ffdb00;fill-opacity:1;fill-rule:nonzero;stroke:none" transform="translate(66.133 462.044)"/><path d="M70.732 458.718h.697v6.341h-.697v-6.341z" style="fill:#ffdb00;fill-opacity:1;fill-rule:nonzero;stroke:none"/><path d="M0 0v.744l2.23.005v-2.354a3.827 3.827 0 0 0-1.06-.741 2.67 2.67 0 0 0-1.12-.25c-.516 0-.987.134-1.409.401-.423.266-.741.651-.957 1.157A4.275 4.275 0 0 0-2.639.654c0 .617.107 1.192.321 1.727.214.534.522.932.924 1.192.403.259.866.39 1.39.39.381 0 .725-.075 1.033-.223.307-.149.549-.357.724-.621.174-.266.307-.611.398-1.038l-.629-.208c-.079.323-.176.577-.294.762a1.261 1.261 0 0 1-.503.443c-.218.11-.46.167-.725.167-.318 0-.593-.059-.826-.177a1.576 1.576 0 0 1-.562-.459 2.318 2.318 0 0 1-.332-.628A3.92 3.92 0 0 1-1.921.705c0-.565.081-1.038.243-1.419.161-.38.396-.663.705-.847a1.88 1.88 0 0 1 .984-.278c.301 0 .596.071.883.211.288.138.505.288.654.448V0H0z" style="fill:#fff;fill-opacity:1;fill-rule:nonzero;stroke:none" transform="translate(58.4 450.625)"/><path d="M0 0h2.129c-.029.387-.11.676-.244.87-.206.3-.473.449-.801.449A.94.94 0 0 1 .336.96C.134.721.021.401 0 0m2.122-1.259.668-.099c-.105-.47-.301-.836-.585-1.094-.285-.26-.649-.389-1.092-.389-.558 0-1 .206-1.327.62-.327.413-.49.994-.49 1.741 0 .773.165 1.372.495 1.799.331.427.759.641 1.286.641.51 0 .926-.209 1.249-.628.324-.417.485-1.006.485-1.765l-.003-.206H-.036c.024-.506.142-.893.355-1.161.214-.268.479-.402.797-.402.238 0 .44.075.607.225.168.15.301.39.399.718" style="fill:#fff;fill-opacity:1;fill-rule:nonzero;stroke:none" transform="translate(62.335 450.876)"/><path d="M0 0v4.594h.582v-.696c.148.325.286.54.41.643a.635.635 0 0 0 .415.157c.219 0 .44-.084.665-.251l-.223-.723a.812.812 0 0 1-.474.17.557.557 0 0 1-.381-.154.861.861 0 0 1-.24-.427 3.6 3.6 0 0 1-.108-.908V0H0z" style="fill:#fff;fill-opacity:1;fill-rule:nonzero;stroke:none" transform="translate(66.2 448.138)"/><path d="M0 0h.646v-4.594H0V0zm0 1.747h.646V.851H0v.896z" style="fill:#fff;fill-opacity:1;fill-rule:nonzero;stroke:none" transform="translate(68.933 452.732)"/><path d="m0 0 2.04-6.341h-.758L-.086-1.739c-.12.404-.212.751-.277 1.043a13.51 13.51 0 0 0-.28-1.043l-1.422-4.602h-.71L-.718 0H0z" style="fill:#ffdb00;fill-opacity:1;fill-rule:nonzero;stroke:none" transform="translate(58.184 443.899)"/><path d="M0 0v6.341h3.806v-.747H.697V3.651h2.912v-.744H.697V.749h3.231V0H0z" style="fill:#ffdb00;fill-opacity:1;fill-rule:nonzero;stroke:none" transform="translate(61.135 437.557)"/><path d="M0 0v6.341h1.048l1.246-4.489c.115-.419.199-.732.252-.94.06.232.153.57.28 1.017l1.26 4.412h.938V0h-.672v5.308L2.822 0h-.628L.671 5.398V0H0z" style="fill:#ffdb00;fill-opacity:1;fill-rule:nonzero;stroke:none" transform="translate(66.276 437.557)"/><path d="M0 0v6.341h3.806v-.747H.697V3.651h2.912v-.744H.697V.749h3.231V0H0z" style="fill:#ffdb00;fill-opacity:1;fill-rule:nonzero;stroke:none" transform="translate(72.71 437.557)"/><path d="M0 0v-.748h-2.826l1.795-2.301-1.795-2.543H.147v-.749H-3.58v.873l1.72 2.419-1.72 2.206V0H0z" style="fill:#ffdb00;fill-opacity:1;fill-rule:nonzero;stroke:none" transform="translate(81.417 443.899)"/><path d="M0 0c0-.764.171-1.366.511-1.806.342-.439.769-.659 1.285-.659.524 0 .955.221 1.294.665.338.445.508 1.075.508 1.89 0 .517-.072.967-.218 1.352-.144.386-.356.684-.635.896a1.513 1.513 0 0 1-.939.318c-.493 0-.917-.205-1.273-.613C.178 1.635 0 .955 0 0m-.718.013c0 1.052.235 1.876.703 2.472.47.595 1.076.894 1.817.894.486 0 .925-.141 1.315-.42.39-.28.687-.67.892-1.171.205-.5.307-1.067.307-1.701 0-.644-.108-1.219-.323-1.727-.215-.507-.521-.891-.916-1.152a2.273 2.273 0 0 0-1.278-.392c-.495 0-.938.145-1.329.433-.39.288-.686.682-.887 1.18A4.203 4.203 0 0 0-.718.013" style="fill:#ffdb00;fill-opacity:1;fill-rule:nonzero;stroke:none" transform="translate(83.197 440.633)"/><path d="M0 0v-.748h-2.826l1.795-2.301-1.795-2.543H.147v-.749H-3.58v.873l1.72 2.419-1.72 2.206V0H0z" style="fill:#ffdb00;fill-opacity:1;fill-rule:nonzero;stroke:none" transform="translate(92.227 443.899)"/><path d="M0 0v6.341h.697V.749h2.592V0H0z" style="fill:#fff;fill-opacity:1;fill-rule:nonzero;stroke:none" transform="translate(55.908 426.977)"/><path d="M0 0h2.129c-.029.387-.11.676-.244.87-.206.3-.473.449-.801.449A.94.94 0 0 1 .336.96C.134.721.021.401 0 0m2.122-1.259.668-.099c-.105-.47-.301-.836-.586-1.094-.284-.26-.648-.389-1.091-.389-.558 0-1 .206-1.327.62-.327.413-.49.994-.49 1.741 0 .773.165 1.372.495 1.799.331.427.759.641 1.286.641.51 0 .926-.21 1.249-.628.324-.417.485-1.006.485-1.765L2.808-.64H-.036c.024-.505.142-.892.355-1.16.214-.268.479-.402.797-.402.238 0 .44.075.607.225.168.15.301.39.399.718" style="fill:#fff;fill-opacity:1;fill-rule:nonzero;stroke:none" transform="translate(60.704 429.715)"/><path d="M0 0v4.594h.578v-.645c.12.225.279.407.478.543.198.138.424.206.678.206.283 0 .514-.071.695-.212.18-.142.308-.34.382-.592.302.536.694.804 1.178.804.379 0 .67-.126.873-.379.203-.251.305-.641.305-1.166V0h-.643v2.894c0 .312-.02.535-.062.673a.631.631 0 0 1-.616.456.833.833 0 0 1-.669-.322c-.176-.215-.265-.56-.265-1.032V0h-.646v2.985c0 .345-.053.605-.158.778-.105.173-.278.26-.517.26a.828.828 0 0 1-.505-.173.973.973 0 0 1-.336-.507c-.069-.222-.104-.542-.104-.96V0H0z" style="fill:#fff;fill-opacity:1;fill-rule:nonzero;stroke:none" transform="translate(64.578 426.977)"/><path d="M0 0h2.129c-.029.387-.11.676-.244.87-.206.3-.473.449-.801.449A.94.94 0 0 1 .336.96C.134.721.021.401 0 0m2.123-1.259.667-.099c-.105-.47-.301-.836-.585-1.094-.285-.26-.649-.389-1.092-.389-.558 0-1 .206-1.327.62-.327.413-.49.994-.49 1.741 0 .773.165 1.372.496 1.799.33.427.758.641 1.285.641.51 0 .926-.21 1.249-.628.324-.417.485-1.006.485-1.765L2.808-.64H-.036c.024-.505.142-.892.356-1.16.213-.268.478-.402.796-.402.238 0 .44.075.607.225.168.15.301.39.4.718" style="fill:#fff;fill-opacity:1;fill-rule:nonzero;stroke:none" transform="translate(71.464 429.715)"/><path d="m0 0 .639.121c.036-.309.136-.545.3-.709.164-.164.393-.247.688-.247.296 0 .517.073.66.219a.706.706 0 0 1 .216.513.5.5 0 0 1-.19.414c-.089.07-.31.158-.661.264C1.178.719.849.844.666.95c-.183.104-.322.25-.416.436a1.338 1.338 0 0 0-.143.617c0 .205.039.394.117.569.079.174.184.319.319.434.1.089.237.166.41.228.174.061.36.093.559.093.299 0 .562-.053.788-.156.227-.104.393-.245.501-.423.107-.176.181-.414.222-.711l-.631-.103c-.029.236-.112.421-.25.554-.138.132-.333.198-.584.198-.296 0-.508-.06-.635-.177a.552.552 0 0 1-.19-.415l.079-.273a.57.57 0 0 1 .248-.207c.064-.029.254-.095.571-.2.456-.147.776-.267.956-.361a1.03 1.03 0 0 0 .426-.409c.103-.178.154-.401.154-.665a1.5 1.5 0 0 0-.189-.734 1.302 1.302 0 0 0-.543-.532 1.688 1.688 0 0 0-.804-.188c-.496 0-.874.124-1.133.372C.237-.855.072-.487 0 0" style="fill:#fff;fill-opacity:1;fill-rule:nonzero;stroke:none" transform="translate(75.08 428.348)"/><path d="M0 0c0-.588.106-1.029.319-1.321.214-.293.481-.44.805-.44.32 0 .588.148.8.442.213.294.321.743.321 1.345 0 .568-.108.998-.323 1.292-.213.293-.48.438-.798.438-.324 0-.591-.145-.805-.436C.106 1.029 0 .588 0 0m-.665 0c0 .851.197 1.481.59 1.89.328.34.727.511 1.199.511.524 0 .953-.207 1.285-.621.333-.414.499-.985.499-1.715 0-.591-.073-1.056-.22-1.395a1.769 1.769 0 0 0-.644-.79 1.626 1.626 0 0 0-.92-.281c-.534 0-.966.206-1.295.619C-.5-1.37-.665-.776-.665 0" style="fill:#fff;fill-opacity:1;fill-rule:nonzero;stroke:none" transform="translate(79.71 429.274)"/><path d="m0 0 .639.121c.036-.309.136-.545.3-.709.164-.164.393-.247.688-.247.296 0 .517.073.66.219a.706.706 0 0 1 .216.513.5.5 0 0 1-.191.414c-.088.07-.309.158-.66.264C1.178.719.849.844.666.95c-.183.104-.322.25-.416.436a1.338 1.338 0 0 0-.143.617c0 .205.039.394.117.569.079.174.184.319.319.434.1.089.237.166.41.228.174.061.36.093.559.093.299 0 .562-.053.788-.156.226-.104.393-.245.501-.423.107-.176.181-.414.222-.711l-.631-.103c-.029.236-.112.421-.25.554-.138.132-.333.198-.584.198-.296 0-.508-.06-.635-.177a.552.552 0 0 1-.19-.415l.078-.273a.581.581 0 0 1 .248-.207c.065-.029.255-.095.571-.2.457-.147.777-.267.957-.361a1.03 1.03 0 0 0 .426-.409c.103-.178.154-.401.154-.665a1.5 1.5 0 0 0-.189-.734 1.302 1.302 0 0 0-.543-.532 1.69 1.69 0 0 0-.805-.188c-.495 0-.873.124-1.132.372C.237-.855.072-.487 0 0" style="fill:#fff;fill-opacity:1;fill-rule:nonzero;stroke:none" transform="translate(83.39 428.348)"/><path d="M0 0a8.621 8.621 0 0 0-.945 1.987 7.288 7.288 0 0 0-.386 2.357c0 .716.097 1.402.289 2.058.225.762.572 1.52 1.042 2.276h.483c-.301-.625-.502-1.073-.599-1.341a8.521 8.521 0 0 1-.36-1.3 8.992 8.992 0 0 1-.161-1.698c0-1.448.374-2.894 1.12-4.339H0z" style="fill:#ffdb00;fill-opacity:1;fill-rule:nonzero;stroke:none" transform="translate(57.165 414.45)"/><path d="M0 0h1.863l-.574 1.834A20.38 20.38 0 0 0 .9 3.206a9.933 9.933 0 0 0-.297-1.264L0 0zm-1.586-2.718 2.111 6.62h.784l2.248-6.62h-.828L2.087-.712H-.21l-.603-2.006h-.773z" style="fill:#ffdb00;fill-opacity:1;fill-rule:nonzero;stroke:none" transform="translate(59.5 419.115)"/><path d="M0 0h-.674v5.178a3.702 3.702 0 0 0-.64-.559 4.255 4.255 0 0 0-.71-.42v.785c.377.215.708.473.99.778.282.304.482.599.599.885H0V0z" style="fill:#ffdb00;fill-opacity:1;fill-rule:nonzero;stroke:none" transform="translate(65.906 416.397)"/><path d="M0 0h-.483C.263 1.445.637 2.891.637 4.339A8.833 8.833 0 0 1 .12 7.324c-.098.27-.299.722-.603 1.354H0a9.344 9.344 0 0 0 1.042-2.276 7.29 7.29 0 0 0 .288-2.058c0-.814-.129-1.599-.387-2.357A8.787 8.787 0 0 0 0 0" style="fill:#ffdb00;fill-opacity:1;fill-rule:nonzero;stroke:none" transform="translate(68.263 414.45)"/><path d="M0 0h-1.009v4.581a3.404 3.404 0 0 0-1.303-.921v1.102c.263.105.549.301.858.591.308.29.52.627.635 1.014H0V0z" style="fill:#f5f5f5;fill-opacity:1;fill-rule:nonzero;stroke:none" transform="translate(131.21 491.34)"/><path d="m0 0 1.005.125c.029-.274.114-.491.256-.65.14-.16.303-.24.488-.24.21 0 .389.103.534.309.147.206.22.516.22.932 0 .389-.072.681-.218.876a.672.672 0 0 1-.566.291c-.288 0-.548-.153-.778-.463l-.819.144.517 3.3h2.668V3.487H1.404l-.158-1.078c.225.135.455.203.689.203.448 0 .828-.195 1.139-.588.311-.392.466-.901.466-1.527 0-.522-.125-.987-.376-1.396-.343-.56-.818-.84-1.426-.84-.486 0-.882.157-1.189.472C.243-.953.059-.53 0 0" style="fill:#f5f5f5;fill-opacity:1;fill-rule:nonzero;stroke:none" transform="translate(128.643 457.737)"/><path d="M0 0c0-.242.057-.432.171-.567A.561.561 0 0 1 .624-.77c.192 0 .345.068.46.206.115.136.172.326.172.569 0 .228-.057.41-.17.546a.555.555 0 0 1-.451.206.567.567 0 0 1-.462-.208C.058.411 0 .228 0 0m-.094-2.716c0-.335.071-.596.214-.783a.645.645 0 0 1 .534-.282c.208 0 .379.091.516.271.137.181.205.44.205.78 0 .298-.069.536-.208.716a.639.639 0 0 1-.528.271.598.598 0 0 1-.551-.307 1.288 1.288 0 0 1-.182-.666m-.114 1.492a1.256 1.256 0 0 0-.57.547 1.668 1.668 0 0 0-.177.764c0 .473.137.863.411 1.172.274.309.664.462 1.168.462.501 0 .89-.153 1.166-.462.276-.309.414-.699.414-1.172 0-.294-.063-.556-.19-.785a1.28 1.28 0 0 0-.535-.526c.292-.141.514-.348.666-.618a1.89 1.89 0 0 0 .228-.94c0-.585-.155-1.06-.465-1.427-.31-.365-.722-.549-1.237-.549-.479 0-.877.152-1.195.454-.376.357-.564.848-.564 1.471 0 .343.07.658.212.945.141.287.364.508.668.664" style="fill:#f5f5f5;fill-opacity:1;fill-rule:nonzero;stroke:none" transform="translate(129.702 435.623)"/><path d="m0 0 .976.143c.031-.301.115-.53.252-.689a.633.633 0 0 1 .495-.237c.208 0 .384.095.526.286.143.19.214.446.214.77 0 .305-.068.548-.205.726-.136.179-.302.268-.498.268a1.47 1.47 0 0 1-.464-.09l.111.991c.273-.01.481.062.625.214.143.15.215.352.215.603 0 .214-.052.383-.158.51a.517.517 0 0 1-.419.191.558.558 0 0 1-.442-.217c-.122-.144-.197-.355-.223-.631l-.93.19c.064.384.162.69.293.92.13.229.312.409.545.54.234.131.495.197.785.197.496 0 .893-.191 1.193-.57.246-.313.369-.665.369-1.056 0-.557-.252-1.002-.758-1.333.302-.078.543-.253.724-.523.181-.272.271-.599.271-.982 0-.557-.168-1.031-.506-1.424A1.6 1.6 0 0 0 1.73-1.79c-.476 0-.871.164-1.184.494C.232-.965.05-.534 0 0" style="fill:#f5f5f5;fill-opacity:1;fill-rule:nonzero;stroke:none" transform="translate(132.683 432.66)"/><path d="M52.787 1283.729h65.25v38.884h-65.25v-38.884z" style="fill:#fff;fill-opacity:1;fill-rule:evenodd;stroke:#000;stroke-width:.45624918;stroke-linecap:butt;stroke-linejoin:miter;stroke-miterlimit:10;stroke-opacity:1;stroke-dasharray:none" transform="matrix(.97588 0 0 -1.1756 3.272 2024.002)"/><path d="M0 0v6.162h4.089V0H3.056v5.12H1.032V0H0z" style="fill:#000;fill-opacity:1;fill-rule:nonzero;stroke:none" transform="translate(58.224 505.223)"/><path d="m0 0-.705 2.286L-1.395 0H0zm1.902-2.438H.778l-.446 1.4h-2.046l-.421-1.4h-1.096l1.993 6.162h1.092l2.048-6.162z" style="fill:#000;fill-opacity:1;fill-rule:nonzero;stroke:none" transform="translate(66.342 507.661)"/><path d="M0 0v6.162h1.005l2.093-4.115v4.115h.96V0H3.021L.959 4.018V0H0z" style="fill:#000;fill-opacity:1;fill-rule:nonzero;stroke:none" transform="translate(69.067 505.223)"/><path d="M0 0v6.162h3.793V5.12H1.032V3.754h2.569V2.716H1.032V1.038h2.859V0H0z" style="fill:#000;fill-opacity:1;fill-rule:nonzero;stroke:none" transform="translate(74.481 505.223)"/><path d="M0 0v6.162h4.089V0H3.056v5.12H1.032V0H0z" style="fill:#000;fill-opacity:1;fill-rule:nonzero;stroke:none" transform="translate(79.529 505.223)"/><path d="M84.905 505.222h1.032v6.162h-1.032v-6.162z" style="fill:#000;fill-opacity:1;fill-rule:nonzero;stroke:none"/><path d="M0 0h3.541v-1.043H1.273l1.323-1.9-1.458-2.181H3.65v-1.039H-.066v1.153l1.371 2.067L0-1.11V0z" style="fill:#000;fill-opacity:1;fill-rule:nonzero;stroke:none" transform="translate(87.047 511.385)"/><path d="M0 0v5.12h-1.517v1.042h4.064V5.12H1.032V0H0z" style="fill:#000;fill-opacity:1;fill-rule:nonzero;stroke:none" transform="translate(92.89 505.223)"/><path d="M0 0v6.162h1.032V3.737h2.024v2.425h1.033V0H3.056v2.694H1.032V0H0z" style="fill:#000;fill-opacity:1;fill-rule:nonzero;stroke:none" transform="translate(96.372 505.223)"/><path d="M0 0v6.162h1.546l.928-4.203.917 4.203h1.55V0h-.96v4.85L2.966 0h-.995L.959 4.85V0H0z" style="fill:#000;fill-opacity:1;fill-rule:nonzero;stroke:none" transform="translate(101.779 505.223)"/><path d="M107.978 505.222h1.032v6.162h-1.032v-6.162z" style="fill:#000;fill-opacity:1;fill-rule:nonzero;stroke:none"/><path d="M0 0c0-.698.134-1.226.401-1.587.267-.36.607-.54 1.019-.54.412 0 .749.179 1.014.536.263.358.396.893.396 1.608 0 .706-.129 1.233-.385 1.579-.258.348-.6.522-1.025.522-.426 0-.769-.176-1.03-.527C.131 1.239 0 .709 0 0m-1.064-.042c0 .627.077 1.154.233 1.581.117.313.276.595.477.844.201.249.421.435.661.555.318.162.686.244 1.103.244.753 0 1.357-.282 1.808-.845.453-.563.68-1.347.68-2.35 0-.994-.225-1.773-.674-2.335-.449-.562-1.049-.843-1.8-.843-.761 0-1.365.28-1.814.84-.449.558-.674 1.328-.674 2.309" style="fill:#000;fill-opacity:1;fill-rule:nonzero;stroke:none" transform="translate(111.114 508.308)"/><path d="M0 0v6.163h1.032V3.426l2.087 2.737h1.39L2.582 3.762 4.613 0H3.276L1.871 2.892l-.839-1.03V0H0z" style="fill:#000;fill-opacity:1;fill-rule:nonzero;stroke:none" transform="translate(58.22 494.643)"/><path d="M0 0v2.593l-1.874 3.57h1.211L.541 3.724 1.72 6.163h1.19L1.03 2.585V0H0z" style="fill:#000;fill-opacity:1;fill-rule:nonzero;stroke:none" transform="translate(64.975 494.643)"/><path d="M0 0v6.163h4.089V0H3.056v5.12H1.032V0H0z" style="fill:#000;fill-opacity:1;fill-rule:nonzero;stroke:none" transform="translate(68.68 494.643)"/><path d="M0 0v-1.748h.565c.407 0 .679.032.817.096a.719.719 0 0 1 .323.302.969.969 0 0 1 .116.48.905.905 0 0 1-.164.555.7.7 0 0 1-.415.273C1.118-.014.871 0 .499 0H0zm-1.032-5.12v6.163H.625c.628 0 1.037-.032 1.228-.093.293-.093.538-.294.736-.603.197-.311.297-.71.297-1.201 0-.378-.058-.695-.171-.954a1.64 1.64 0 0 0-.435-.607 1.4 1.4 0 0 0-.535-.292c-.247-.059-.604-.089-1.072-.089H0V-5.12h-1.032z" style="fill:#000;fill-opacity:1;fill-rule:nonzero;stroke:none" transform="translate(75.12 499.762)"/><path d="M0 0c0-.698.134-1.226.401-1.587.267-.36.607-.54 1.019-.54.412 0 .749.179 1.014.536.263.358.396.893.396 1.608 0 .706-.129 1.233-.385 1.579a1.212 1.212 0 0 1-1.025.522c-.426 0-.768-.176-1.029-.527C.131 1.239 0 .709 0 0m-1.064-.042c0 .627.077 1.154.234 1.581.116.313.275.595.476.844.201.249.421.435.661.555.319.162.686.244 1.103.244.754 0 1.357-.282 1.808-.845.453-.563.68-1.347.68-2.35 0-.994-.225-1.773-.674-2.335-.449-.562-1.049-.843-1.8-.843-.761 0-1.365.28-1.814.84-.449.558-.674 1.328-.674 2.309" style="fill:#000;fill-opacity:1;fill-rule:nonzero;stroke:none" transform="translate(79.972 497.728)"/><path d="M0 0v2.593l-1.874 3.57h1.211L.541 3.724 1.72 6.163h1.19L1.03 2.585V0H0z" style="fill:#000;fill-opacity:1;fill-rule:nonzero;stroke:none" transform="translate(86.084 494.643)"/><path d="M0 0h1.032v-3.337c0-.53.013-.873.04-1.03.043-.253.149-.454.315-.607.167-.154.394-.229.682-.229.293 0 .514.071.662.216a.89.89 0 0 1 .27.532c.03.21.045.559.045 1.046V0h1.033v-3.236c0-.74-.028-1.263-.084-1.569a1.89 1.89 0 0 0-.309-.773 1.589 1.589 0 0 0-.601-.502c-.252-.125-.58-.187-.985-.187-.488 0-.859.068-1.11.203a1.667 1.667 0 0 0-.6.531 1.82 1.82 0 0 0-.288.683C.033-4.498 0-3.976 0-3.287V0z" style="fill:#000;fill-opacity:1;fill-rule:nonzero;stroke:none" transform="translate(58.2 490.224)"/><path d="M0 0h-.981v2.278c0 .482-.02.794-.062.935a.661.661 0 0 1-.204.33.515.515 0 0 1-.341.118.697.697 0 0 1-.456-.168.855.855 0 0 1-.279-.446c-.049-.184-.074-.527-.074-1.025V0h-.981v4.464h.911v-.656c.323.505.731.757 1.221.757.216 0 .415-.047.593-.141.18-.094.315-.213.407-.359.092-.146.156-.311.191-.496.037-.185.055-.45.055-.795V0z" style="fill:#000;fill-opacity:1;fill-rule:nonzero;stroke:none" transform="translate(66.995 484.062)"/><path d="M0 0h.981v-4.464H0V0zm0 1.697h.981V.604H0v1.093z" style="fill:#000;fill-opacity:1;fill-rule:nonzero;stroke:none" transform="translate(68.254 488.526)"/><path d="m0 0-1.493 4.464h1.029l.698-2.279.202-.76c.054.194.087.321.102.383.032.126.067.252.104.377l.705 2.279h1.008L.883 0H0z" style="fill:#000;fill-opacity:1;fill-rule:nonzero;stroke:none" transform="translate(71.522 484.062)"/><path d="M0 0c-.007.342-.08.602-.22.779-.139.178-.309.267-.509.267A.636.636 0 0 1-1.26.764C-1.399.577-1.468.322-1.466 0H0zm-.056-1.194.977-.198c-.126-.431-.324-.759-.595-.985-.27-.226-.61-.339-1.017-.339-.644 0-1.121.254-1.431.761-.244.407-.366.919-.366 1.539 0 .739.161 1.319.482 1.737.321.419.727.629 1.217.629.552 0 .987-.22 1.305-.658C.835.854.988.182.974-.723h-2.457c.007-.35.087-.623.238-.818a.69.69 0 0 1 .565-.292c.153 0 .282.051.387.152.105.1.184.262.237.487" style="fill:#000;fill-opacity:1;fill-rule:nonzero;stroke:none" transform="translate(76.944 486.677)"/><path d="M0 0h-.981v4.464h.911v-.635c.156.3.296.497.42.592a.68.68 0 0 0 .425.144c.223 0 .438-.074.645-.224l-.304-1.029c-.165.129-.318.194-.46.194a.485.485 0 0 1-.349-.137c-.095-.092-.17-.256-.225-.493C.027 2.637 0 2.138 0 1.379V0z" style="fill:#000;fill-opacity:1;fill-rule:nonzero;stroke:none" transform="translate(79.919 484.062)"/><path d="m0 0 .984.181c.042-.23.127-.404.254-.524.128-.119.308-.178.538-.178.254 0 .444.055.572.168a.403.403 0 0 1 .129.315l-.07.223c-.048.055-.158.108-.327.156C1.288.55.788.742.576.916c-.293.241-.44.576-.44 1.005 0 .387.126.711.38.974.254.264.647.395 1.18.395.507 0 .883-.098 1.13-.298.247-.199.417-.493.51-.882l-.925-.206a.714.714 0 0 1-.225.399c-.11.093-.268.139-.473.139-.258 0-.443-.044-.555-.131l-.111-.238.098-.216c.088-.078.393-.189.915-.331.522-.143.887-.319 1.094-.527.205-.209.307-.502.307-.878 0-.409-.142-.759-.425-1.055-.284-.293-.705-.44-1.26-.44-.504 0-.905.123-1.198.369C.283-.758.091-.423 0 0" style="fill:#000;fill-opacity:1;fill-rule:nonzero;stroke:none" transform="translate(81.68 485.336)"/><path d="M0 0h.981v-4.464H0V0zm0 1.697h.981V.604H0v1.093z" style="fill:#000;fill-opacity:1;fill-rule:nonzero;stroke:none" transform="translate(86.265 488.526)"/><path d="M0 0v-.942h-.67V-2.74c0-.365.006-.576.019-.638l.088-.149.165-.059c.091 0 .222.038.394.115l.084-.916a1.646 1.646 0 0 0-.775-.178c-.176 0-.336.037-.477.107a.725.725 0 0 0-.312.278 1.24 1.24 0 0 0-.139.46c-.02.138-.031.414-.031.833v1.945h-.45V0h.45v.886l.984.69V0H0z" style="fill:#000;fill-opacity:1;fill-rule:nonzero;stroke:none" transform="translate(90.213 488.526)"/><path d="M0 0h1.043l.886-3.169L2.795 0H3.81L2.502-4.296l-.234-.777a3.464 3.464 0 0 0-.246-.597 1.237 1.237 0 0 0-.268-.334 1.122 1.122 0 0 0-.374-.2 1.612 1.612 0 0 0-.501-.071c-.188 0-.373.023-.555.071l-.087.924c.153-.036.292-.054.416-.054.227 0 .396.081.505.241.11.163.194.367.251.616L0 0z" style="fill:#000;fill-opacity:1;fill-rule:nonzero;stroke:none" transform="translate(90.694 488.526)"/><path d="M0 0c0-.698.134-1.226.401-1.587.267-.36.607-.54 1.019-.54.412 0 .749.179 1.014.537.263.357.396.892.396 1.606 0 .707-.129 1.234-.385 1.58-.258.349-.6.522-1.025.522-.426 0-.769-.176-1.03-.527C.13 1.239 0 .709 0 0m-1.065-.042c0 .627.078 1.154.235 1.581.116.313.275.595.476.844.201.249.421.435.661.555a2.4 2.4 0 0 0 1.102.244c.755 0 1.358-.282 1.809-.845.453-.563.68-1.347.68-2.35 0-.994-.225-1.773-.674-2.335-.449-.562-1.049-.843-1.8-.843-.761 0-1.365.28-1.814.84-.45.558-.675 1.328-.675 2.309" style="fill:#000;fill-opacity:1;fill-rule:nonzero;stroke:none" transform="translate(59.061 476.567)"/><path d="M0 0h.545v.336c0 .375.033.656.099.841a.888.888 0 0 0 .366.452c.178.116.403.174.675.174.279 0 .553-.05.82-.151L2.372.829a1.61 1.61 0 0 1-.45.067c-.141 0-.243-.04-.305-.12-.061-.08-.092-.234-.092-.46V0h.732v-.929h-.732v-3.535h-.98v3.535H0V0z" style="fill:#000;fill-opacity:1;fill-rule:nonzero;stroke:none" transform="translate(63.593 477.946)"/><path d="m0 0 1.001-.383C.848-1.054.592-1.554.235-1.881c-.357-.327-.81-.49-1.358-.49-.679 0-1.238.28-1.675.839-.438.559-.657 1.323-.657 2.293 0 1.026.221 1.822.66 2.39.44.566 1.018.851 1.734.851.626 0 1.134-.224 1.526-.669.232-.263.406-.641.523-1.135l-1.023-.293c-.061.318-.187.571-.379.755a.967.967 0 0 1-.699.278c-.379 0-.687-.164-.923-.491-.236-.329-.354-.86-.354-1.593 0-.78.116-1.335.348-1.665.234-.332.536-.496.908-.496.274 0 .51.106.709.315.197.21.339.541.425.992" style="fill:#000;fill-opacity:1;fill-rule:nonzero;stroke:none" transform="translate(72.196 475.748)"/><path d="M0 0h1.043l.886-3.169L2.795 0H3.81L2.502-4.296l-.234-.777a3.464 3.464 0 0 0-.246-.597 1.237 1.237 0 0 0-.268-.334 1.122 1.122 0 0 0-.374-.2 1.612 1.612 0 0 0-.501-.071c-.188 0-.373.023-.555.071l-.087.924c.153-.036.292-.054.416-.054.227 0 .396.081.505.241.11.163.194.367.251.616L0 0z" style="fill:#000;fill-opacity:1;fill-rule:nonzero;stroke:none" transform="translate(73.877 477.946)"/><path d="M0 0c0-.502.083-.872.248-1.112.165-.239.366-.359.603-.359.228 0 .418.11.569.329.151.22.227.582.227 1.083 0 .468-.078.816-.234 1.043-.156.227-.349.341-.58.341-.239 0-.438-.112-.596-.335C.079.766 0 .437 0 0m-.97 2.156h.914V1.5c.118.225.279.407.481.547.203.14.428.21.674.21.43 0 .795-.203 1.096-.61.299-.406.45-.972.45-1.698 0-.745-.152-1.325-.454-1.737-.303-.414-.669-.621-1.099-.621-.205 0-.39.049-.556.148-.167.098-.342.266-.525.503v-2.247H-.97v6.161z" style="fill:#000;fill-opacity:1;fill-rule:nonzero;stroke:none" transform="translate(79.521 475.79)"/><path d="M0 0h-.981v4.464h.912v-.635c.155.3.295.497.419.592a.68.68 0 0 0 .425.144c.223 0 .438-.074.645-.224l-.304-1.029c-.165.129-.319.194-.46.194a.485.485 0 0 1-.349-.137c-.095-.091-.17-.256-.225-.493C.027 2.637 0 2.138 0 1.379V0z" style="fill:#000;fill-opacity:1;fill-rule:nonzero;stroke:none" transform="translate(84.147 473.482)"/><path d="M0 0v.668A1.55 1.55 0 0 0-.532.105a1.297 1.297 0 0 0-.696-.206c-.249 0-.472.066-.67.197a1.113 1.113 0 0 0-.429.555c-.088.239-.133.568-.133.989v2.824h.981V2.412c0-.626.018-1.012.054-1.153a.634.634 0 0 1 .197-.336.526.526 0 0 1 .362-.125c.168 0 .319.057.451.166a.86.86 0 0 1 .273.413c.048.164.073.565.073 1.203v1.884H.91V0H0z" style="fill:#000;fill-opacity:1;fill-rule:nonzero;stroke:none" transform="translate(88.693 473.482)"/><path d="m0 0 .984.181c.042-.23.127-.404.254-.524.128-.119.308-.178.538-.178.254 0 .444.055.572.168.086.078.13.182.13.315l-.071.223c-.048.055-.158.108-.327.156C1.289.55.788.742.576.916c-.293.241-.439.576-.439 1.005 0 .387.126.711.379.974.254.264.647.395 1.18.395.507 0 .883-.098 1.13-.298.247-.199.417-.493.51-.882l-.925-.206a.714.714 0 0 1-.225.399c-.11.093-.268.139-.472.139-.259 0-.444-.044-.556-.131l-.111-.239.098-.215c.088-.078.393-.189.915-.331.522-.143.887-.319 1.094-.527.205-.209.307-.502.307-.878 0-.409-.142-.759-.425-1.055-.284-.293-.704-.44-1.26-.44-.504 0-.905.123-1.198.369C.283-.758.091-.423 0 0" style="fill:#000;fill-opacity:1;fill-rule:nonzero;stroke:none" transform="translate(90.538 474.756)"/><path d="M0 0v23.454c0 .272.182.494.405.494h15.42c.222 0 .406-.222.406-.494V0c0-.272-.184-.494-.406-.494H.405C.182-.494 0-.272 0 0" style="fill:#939598;fill-opacity:1;fill-rule:evenodd;stroke:none" transform="translate(97.587 420.242)"/><path d="M0 0v23.453c0 .273.182.494.405.494h15.42c.222 0 .406-.222.406-.494V0c0-.271-.184-.495-.406-.495H.405C.182-.495 0-.271 0 0" style="fill:#fff;fill-opacity:1;fill-rule:evenodd;stroke:none" transform="translate(97.587 420.514)"/><path d="M0 0v-.028l.002-.03.003-.029.005-.027.005-.027.005-.026.007-.027.01-.026.009-.025.01-.023.01-.025.013-.023.013-.02.013-.021L.12-.38.137-.4l.014-.016.018-.018.015-.017.02-.017.02-.014.019-.014.02-.012.02-.012.021-.009.021-.009.022-.007.024-.008.022-.004.024-.004.023-.002.024-.002v.141l-.019.002-.018.001-.015.002-.019.004-.015.004-.017.005-.017.009-.015.006-.016.009L.3-.373l-.017.01-.015.011-.01.012-.015.013-.014.012-.01.015-.012.014-.011.017-.012.016-.008.017-.009.015-.009.019-.008.019-.007.018-.005.019-.006.02-.005.019-.004.022-.003.02-.003.022-.001.02V0H0zm.464-.424h15.418v-.141H.464v.141zm15.418-.141.025.002.022.002.025.004.021.004.024.008.022.007.02.009.022.009.02.012.021.012.018.014.02.014.018.017.017.017.018.018.015.016.016.023.014.02.014.021.014.021.012.022.011.025.01.023.009.025.01.026.006.027.005.026.006.027.004.027.004.029.002.03.001.028h-.117v-.023l-.002-.02-.003-.022-.003-.02-.004-.022-.004-.019-.007-.02-.005-.019-.006-.018-.008-.019-.01-.019-.008-.016-.011-.016-.009-.016-.011-.017-.012-.014-.011-.015-.013-.012-.014-.013-.012-.012-.015-.011-.015-.01-.015-.009-.016-.009-.015-.006-.016-.009-.017-.005-.015-.004-.018-.004-.019-.002-.016-.001-.019-.002v-.141zm.349.565v23.453h.117V0h-.117zm.117 23.453-.001.03-.002.028-.004.028-.004.027-.006.027-.005.028-.006.025-.01.027-.009.025-.01.024-.011.023-.012.023-.014.021-.014.022-.014.021-.016.02-.015.019-.018.017-.017.017-.018.016-.019.014-.019.013-.021.013-.02.012-.022.01-.021.009-.021.007-.024.007-.021.004-.025.005-.022.003h-.025v-.142h.019l.016-.001.019-.003.018-.003.015-.006.017-.004.015-.007.016-.007.016-.01.015-.008.014-.012.016-.01.012-.012.014-.012.013-.014.011-.014.012-.015.011-.014.009-.017.011-.018.008-.016.01-.019.008-.017.006-.019.005-.019.007-.02.004-.02.004-.02.003-.021.003-.021.002-.021v-.023h.117zm-.466.423H.464v.142h15.418v-.142zm-15.418.142H.44l-.023-.003-.024-.005-.022-.004-.024-.007-.021-.007-.022-.01-.021-.009-.02-.012-.02-.013-.02-.013-.019-.014-.018-.016-.017-.017-.018-.017-.014-.02-.016-.019-.016-.021-.013-.022-.013-.021-.013-.023-.01-.023-.01-.024-.009-.025-.01-.027-.007-.025-.005-.028-.005-.027-.005-.027-.003-.028L0 23.483v-.03h.116v.023l.001.021.003.021.003.021.004.02.005.02.006.02.005.019.007.019.008.017.009.019.009.016.008.018.012.017.011.014.012.016.011.013.013.014.014.012.011.012.017.01.015.012.013.008.016.01.016.007.015.007.018.004.015.006.019.003.015.003.018.001h.019v.142zm-.348-.565V0H0v23.453h.116z" style="fill:#fff;fill-opacity:1;fill-rule:evenodd;stroke:none" transform="translate(97.529 420.514)"/><path d="M0 0v22.815c0 .263.177.479.392.479h14.893c.216 0 .391-.216.391-.479V0c0-.264-.175-.48-.391-.48H.392C.177-.48 0-.264 0 0" style="fill:#00a651;fill-opacity:1;fill-rule:evenodd;stroke:none" transform="translate(97.863 420.833)"/><path d="m0 0 .292-14.453h5.561L2.696 0H0zm.786 8.744h-.963l.123-6.172h2.187L.786 8.744zM-1.705 0l-.291-14.453h-5.563L-4.401 0h2.696zm-.785 8.744h.962l-.125-6.172h-2.186l1.349 6.172z" style="fill:#fff;fill-opacity:1;fill-rule:evenodd;stroke:none" transform="translate(106.424 434.959)"/><path d="M0 0h14.479v-.771h-1.732v-.69H12v.69H2.296v-.69h-.745v.69H0V0z" style="fill:#fff;fill-opacity:1;fill-rule:evenodd;stroke:none" transform="translate(98.462 436.63)"/></g></svg>