<svg width="361" height="319" fill="none" xmlns="http://www.w3.org/2000/svg"><g clip-path="url(#a)"><path fill-rule="evenodd" clip-rule="evenodd" d="M23.978 318.1c-8.586 0-16.457-4.522-20.688-11.906a23.93 23.93 0 0 1 0-23.875L159.446 11.975A23.766 23.766 0 0 1 180.04.1h.187a23.766 23.766 0 0 1 20.594 11.875l156.157 270.344a23.933 23.933 0 0 1 0 23.875c-4.231 7.384-12.102 11.906-20.688 11.906H23.978z" fill="#EC1D24"/><path fill-rule="evenodd" clip-rule="evenodd" d="M37.755 286.283h284.758L180.134 39.806 37.755 286.284z" fill="#fff"/><path d="M296 278v-5H64v5h232zM167.842 136.86c0 6.379-4.32 11.752-10.2 13.366l.937 2.805 6.947 9.24 26.632 19.636 6.947-8.085.282-.094a10.364 10.364 0 0 1-3.755-7.992c0-5.741 4.665-10.395 10.421-10.395 5.755 0 10.421 4.654 10.421 10.395 0 4.691-3.115 8.657-7.394 9.95l.446.446 4.632 9.24L235 201.543v6.93l-20.842-9.24v41.581l5.789 23.101h8.106v6.93h-16.211l-2.316-8.085-5.789-21.946h-1.158l-3.474 15.015-1.158 6.931 4.632 4.62-3.474 4.62-10.421-8.085 3.474-15.016v-47.356l-10.421 18.48h-4.632v-8.085l11.579-23.101-24.316-11.55 1.158 51.977 5.79 24.255 4.631 10.396h8.106v6.93h-19.685l-13.894-42.736L147 262.76l3.474 3.465V272l-17.369-5.775 3.474-13.861 1.158-57.752s-12.737 0-12.737-18.48c0-12.706 12.737-21.946 12.737-21.946l11.579-3.465.973-.486c-5.899-1.601-10.236-6.983-10.236-13.375 0-7.654 6.221-13.86 13.894-13.86 7.674 0 13.895 6.206 13.895 13.86z" fill="#000"/></g><defs><clipPath id="a"><path fill="#fff" d="M0 0h360.268v318.2H0z"/></clipPath></defs></svg>