<?xml version="1.0" encoding="UTF-8" standalone="no"?>
<!-- Created with Inkscape (http://www.inkscape.org/) -->

<svg
   xmlns:dc="http://purl.org/dc/elements/1.1/"
   xmlns:cc="http://creativecommons.org/ns#"
   xmlns:rdf="http://www.w3.org/1999/02/22-rdf-syntax-ns#"
   xmlns:svg="http://www.w3.org/2000/svg"
   xmlns="http://www.w3.org/2000/svg"
   xmlns:sodipodi="http://sodipodi.sourceforge.net/DTD/sodipodi-0.dtd"
   xmlns:inkscape="http://www.inkscape.org/namespaces/inkscape"
   width="207.7706"
   height="324.18378"
   id="svg3949"
   version="1.1"
   inkscape:version="0.47 r22583"
   sodipodi:docname="Cyprus road sign vehicles exit.svg">
  <defs
     id="defs3951">
    <inkscape:perspective
       sodipodi:type="inkscape:persp3d"
       inkscape:vp_x="0 : 526.18109 : 1"
       inkscape:vp_y="0 : 1000 : 0"
       inkscape:vp_z="744.09448 : 526.18109 : 1"
       inkscape:persp3d-origin="372.04724 : 350.78739 : 1"
       id="perspective3957" />
    <inkscape:perspective
       id="perspective3866"
       inkscape:persp3d-origin="0.5 : 0.33333333 : 1"
       inkscape:vp_z="1 : 0.5 : 1"
       inkscape:vp_y="0 : 1000 : 0"
       inkscape:vp_x="0 : 0.5 : 1"
       sodipodi:type="inkscape:persp3d" />
    <clipPath
       clipPathUnits="userSpaceOnUse"
       id="clipPath3544">
      <path
         d="m 224.645,53.859 54.567,0 0,86.456 -54.567,0 0,-86.456 z"
         id="path3546" />
    </clipPath>
    <clipPath
       clipPathUnits="userSpaceOnUse"
       id="clipPath3524">
      <path
         d="M 0,0 311,0 311,595 0,595 0,0 z"
         id="path3526" />
    </clipPath>
    <inkscape:perspective
       id="perspective6206"
       inkscape:persp3d-origin="0.5 : 0.33333333 : 1"
       inkscape:vp_z="1 : 0.5 : 1"
       inkscape:vp_y="0 : 1000 : 0"
       inkscape:vp_x="0 : 0.5 : 1"
       sodipodi:type="inkscape:persp3d" />
    <clipPath
       clipPathUnits="userSpaceOnUse"
       id="clipPath4388">
      <path
         d="m 224.504,464.882 34.299,0 0,58.11 -34.299,0 0,-58.11 z"
         id="path4390" />
    </clipPath>
    <clipPath
       clipPathUnits="userSpaceOnUse"
       id="clipPath4374">
      <path
         d="M 0,0 311,0 311,595 0,595 0,0 z"
         id="path4376" />
    </clipPath>
    <inkscape:perspective
       id="perspective6324"
       inkscape:persp3d-origin="0.5 : 0.33333333 : 1"
       inkscape:vp_z="1 : 0.5 : 1"
       inkscape:vp_y="0 : 1000 : 0"
       inkscape:vp_x="0 : 0.5 : 1"
       sodipodi:type="inkscape:persp3d" />
    <clipPath
       clipPathUnits="userSpaceOnUse"
       id="clipPath4554">
      <path
         d="m 153.071,381.26 55.275,0 0,58.11 -55.275,0 0,-58.11 z"
         id="path4556" />
    </clipPath>
    <clipPath
       clipPathUnits="userSpaceOnUse"
       id="clipPath4528">
      <path
         d="m 92.693,381.26 55.275,0 0,58.11 -55.275,0 0,-58.11 z"
         id="path4530" />
    </clipPath>
    <clipPath
       clipPathUnits="userSpaceOnUse"
       id="clipPath4440">
      <path
         d="m 214.016,381.26 55.276,0 0,58.11 -55.276,0 0,-58.11 z"
         id="path4442" />
    </clipPath>
    <inkscape:perspective
       id="perspective6436"
       inkscape:persp3d-origin="0.5 : 0.33333333 : 1"
       inkscape:vp_z="1 : 0.5 : 1"
       inkscape:vp_y="0 : 1000 : 0"
       inkscape:vp_x="0 : 0.5 : 1"
       sodipodi:type="inkscape:persp3d" />
    <clipPath
       clipPathUnits="userSpaceOnUse"
       id="clipPath4554-4">
      <path
         d="m 153.071,381.26 55.275,0 0,58.11 -55.275,0 0,-58.11 z"
         id="path4556-0" />
    </clipPath>
    <clipPath
       clipPathUnits="userSpaceOnUse"
       id="clipPath4440-9">
      <path
         d="m 214.016,381.26 55.276,0 0,58.11 -55.276,0 0,-58.11 z"
         id="path4442-4" />
    </clipPath>
    <inkscape:perspective
       id="perspective6436-8"
       inkscape:persp3d-origin="0.5 : 0.33333333 : 1"
       inkscape:vp_z="1 : 0.5 : 1"
       inkscape:vp_y="0 : 1000 : 0"
       inkscape:vp_x="0 : 0.5 : 1"
       sodipodi:type="inkscape:persp3d" />
    <clipPath
       clipPathUnits="userSpaceOnUse"
       id="clipPath4554-8">
      <path
         d="m 153.071,381.26 55.275,0 0,58.11 -55.275,0 0,-58.11 z"
         id="path4556-2" />
    </clipPath>
    <clipPath
       clipPathUnits="userSpaceOnUse"
       id="clipPath4440-4">
      <path
         d="m 214.016,381.26 55.276,0 0,58.11 -55.276,0 0,-58.11 z"
         id="path4442-5" />
    </clipPath>
    <inkscape:perspective
       id="perspective6552"
       inkscape:persp3d-origin="0.5 : 0.33333333 : 1"
       inkscape:vp_z="1 : 0.5 : 1"
       inkscape:vp_y="0 : 1000 : 0"
       inkscape:vp_x="0 : 0.5 : 1"
       sodipodi:type="inkscape:persp3d" />
    <clipPath
       clipPathUnits="userSpaceOnUse"
       id="clipPath4492">
      <path
         d="m 32.598,287.716 55.276,0 0,50.315 -55.276,0 0,-50.315 z"
         id="path4494" />
    </clipPath>
    <inkscape:perspective
       id="perspective6625"
       inkscape:persp3d-origin="0.5 : 0.33333333 : 1"
       inkscape:vp_z="1 : 0.5 : 1"
       inkscape:vp_y="0 : 1000 : 0"
       inkscape:vp_x="0 : 0.5 : 1"
       sodipodi:type="inkscape:persp3d" />
    <clipPath
       clipPathUnits="userSpaceOnUse"
       id="clipPath5156">
      <path
         d="m 32.598,20.626 71.434,0 0,121.106 -71.434,0 0,-121.106 z"
         id="path5158" />
    </clipPath>
    <inkscape:perspective
       id="perspective7319"
       inkscape:persp3d-origin="0.5 : 0.33333333 : 1"
       inkscape:vp_z="1 : 0.5 : 1"
       inkscape:vp_y="0 : 1000 : 0"
       inkscape:vp_x="0 : 0.5 : 1"
       sodipodi:type="inkscape:persp3d" />
    <clipPath
       clipPathUnits="userSpaceOnUse"
       id="clipPath4482">
      <path
         d="m 32.598,382.691 55.276,0 0,55.248 -55.276,0 0,-55.248 z"
         id="path4484" />
    </clipPath>
    <clipPath
       clipPathUnits="userSpaceOnUse"
       id="clipPath4470">
      <path
         d="m 32.598,381.26 55.276,0 0,58.11 -55.276,0 0,-58.11 z"
         id="path4472" />
    </clipPath>
    <inkscape:perspective
       id="perspective7373"
       inkscape:persp3d-origin="0.5 : 0.33333333 : 1"
       inkscape:vp_z="1 : 0.5 : 1"
       inkscape:vp_y="0 : 1000 : 0"
       inkscape:vp_x="0 : 0.5 : 1"
       sodipodi:type="inkscape:persp3d" />
    <clipPath
       clipPathUnits="userSpaceOnUse"
       id="clipPath4482-6">
      <path
         d="m 32.598,382.691 55.276,0 0,55.248 -55.276,0 0,-55.248 z"
         id="path4484-1" />
    </clipPath>
    <clipPath
       clipPathUnits="userSpaceOnUse"
       id="clipPath4470-4">
      <path
         d="m 32.598,381.26 55.276,0 0,58.11 -55.276,0 0,-58.11 z"
         id="path4472-2" />
    </clipPath>
    <inkscape:perspective
       id="perspective8566"
       inkscape:persp3d-origin="0.5 : 0.33333333 : 1"
       inkscape:vp_z="1 : 0.5 : 1"
       inkscape:vp_y="0 : 1000 : 0"
       inkscape:vp_x="0 : 0.5 : 1"
       sodipodi:type="inkscape:persp3d" />
    <clipPath
       clipPathUnits="userSpaceOnUse"
       id="clipPath7526">
      <path
         d="m 42.52,409.134 112.913,0 0,113.858 -112.913,0 0,-113.858 z"
         id="path7528" />
    </clipPath>
    <clipPath
       clipPathUnits="userSpaceOnUse"
       id="clipPath7514">
      <path
         d="m 46.174,409.134 105.603,0 0,113.858 -105.603,0 0,-113.858 z"
         id="path7516" />
    </clipPath>
    <clipPath
       clipPathUnits="userSpaceOnUse"
       id="clipPath7474">
      <path
         d="m 42.52,409.134 112.913,0 0,113.858 -112.913,0 0,-113.858 z"
         id="path7476" />
    </clipPath>
    <clipPath
       clipPathUnits="userSpaceOnUse"
       id="clipPath7462">
      <path
         d="m 46.174,409.134 105.603,0 0,113.858 -105.603,0 0,-113.858 z"
         id="path7464" />
    </clipPath>
    <clipPath
       clipPathUnits="userSpaceOnUse"
       id="clipPath7450">
      <path
         d="m 42.52,409.134 112.913,0 0,113.858 -112.913,0 0,-113.858 z"
         id="path7452" />
    </clipPath>
    <inkscape:perspective
       id="perspective9062"
       inkscape:persp3d-origin="0.5 : 0.33333333 : 1"
       inkscape:vp_z="1 : 0.5 : 1"
       inkscape:vp_y="0 : 1000 : 0"
       inkscape:vp_x="0 : 0.5 : 1"
       sodipodi:type="inkscape:persp3d" />
    <clipPath
       clipPathUnits="userSpaceOnUse"
       id="clipPath7526-3">
      <path
         d="m 42.52,409.134 112.913,0 0,113.858 -112.913,0 0,-113.858 z"
         id="path7528-2" />
    </clipPath>
    <clipPath
       clipPathUnits="userSpaceOnUse"
       id="clipPath7514-2">
      <path
         d="m 46.174,409.134 105.603,0 0,113.858 -105.603,0 0,-113.858 z"
         id="path7516-1" />
    </clipPath>
    <clipPath
       clipPathUnits="userSpaceOnUse"
       id="clipPath7474-6">
      <path
         d="m 42.52,409.134 112.913,0 0,113.858 -112.913,0 0,-113.858 z"
         id="path7476-8" />
    </clipPath>
    <clipPath
       clipPathUnits="userSpaceOnUse"
       id="clipPath7462-5">
      <path
         d="m 46.174,409.134 105.603,0 0,113.858 -105.603,0 0,-113.858 z"
         id="path7464-7" />
    </clipPath>
    <clipPath
       clipPathUnits="userSpaceOnUse"
       id="clipPath7450-6">
      <path
         d="m 42.52,409.134 112.913,0 0,113.858 -112.913,0 0,-113.858 z"
         id="path7452-1" />
    </clipPath>
    <inkscape:perspective
       id="perspective10342"
       inkscape:persp3d-origin="0.5 : 0.33333333 : 1"
       inkscape:vp_z="1 : 0.5 : 1"
       inkscape:vp_y="0 : 1000 : 0"
       inkscape:vp_x="0 : 0.5 : 1"
       sodipodi:type="inkscape:persp3d" />
    <clipPath
       clipPathUnits="userSpaceOnUse"
       id="clipPath8110">
      <path
         d="m 48.189,259.37 76.28,0 0,103.465 -76.28,0 0,-103.465 z"
         id="path8112" />
    </clipPath>
    <clipPath
       clipPathUnits="userSpaceOnUse"
       id="clipPath8098">
      <path
         d="M 0,0 311,0 311,595 0,595 0,0 z"
         id="path8100" />
    </clipPath>
    <clipPath
       clipPathUnits="userSpaceOnUse"
       id="clipPath8086">
      <path
         d="m 48.189,262.125 76.28,0 0,100.71 -76.28,0 0,-100.71 z"
         id="path8088" />
    </clipPath>
    <inkscape:perspective
       id="perspective10643"
       inkscape:persp3d-origin="0.5 : 0.33333333 : 1"
       inkscape:vp_z="1 : 0.5 : 1"
       inkscape:vp_y="0 : 1000 : 0"
       inkscape:vp_x="0 : 0.5 : 1"
       sodipodi:type="inkscape:persp3d" />
    <clipPath
       clipPathUnits="userSpaceOnUse"
       id="clipPath8110-8">
      <path
         d="m 48.189,259.37 76.28,0 0,103.465 -76.28,0 0,-103.465 z"
         id="path8112-9" />
    </clipPath>
    <clipPath
       clipPathUnits="userSpaceOnUse"
       id="clipPath8098-2">
      <path
         d="M 0,0 311,0 311,595 0,595 0,0 z"
         id="path8100-7" />
    </clipPath>
    <clipPath
       clipPathUnits="userSpaceOnUse"
       id="clipPath8086-9">
      <path
         d="m 48.189,262.125 76.28,0 0,100.71 -76.28,0 0,-100.71 z"
         id="path8088-5" />
    </clipPath>
    <inkscape:perspective
       id="perspective10896"
       inkscape:persp3d-origin="0.5 : 0.33333333 : 1"
       inkscape:vp_z="1 : 0.5 : 1"
       inkscape:vp_y="0 : 1000 : 0"
       inkscape:vp_x="0 : 0.5 : 1"
       sodipodi:type="inkscape:persp3d" />
    <clipPath
       clipPathUnits="userSpaceOnUse"
       id="clipPath8250">
      <path
         d="m 129.685,131.811 149.528,0 0,235.275 -149.528,0 0,-235.275 z"
         id="path8252" />
    </clipPath>
    <clipPath
       clipPathUnits="userSpaceOnUse"
       id="clipPath8240">
      <path
         d="M 0,0 311,0 311,595 0,595 0,0 z"
         id="path8242" />
    </clipPath>
  </defs>
  <sodipodi:namedview
     id="base"
     pagecolor="#ffffff"
     bordercolor="#666666"
     borderopacity="1.0"
     inkscape:pageopacity="0.0"
     inkscape:pageshadow="2"
     inkscape:zoom="1.1813655"
     inkscape:cx="304.34855"
     inkscape:cy="194.69935"
     inkscape:document-units="px"
     inkscape:current-layer="layer1"
     showgrid="false"
     inkscape:window-width="1600"
     inkscape:window-height="838"
     inkscape:window-x="-8"
     inkscape:window-y="-8"
     inkscape:window-maximized="1" />
  <metadata
     id="metadata3954">
    <rdf:RDF>
      <cc:Work
         rdf:about="">
        <dc:format>image/svg+xml</dc:format>
        <dc:type
           rdf:resource="http://purl.org/dc/dcmitype/StillImage" />
        <dc:title></dc:title>
      </cc:Work>
    </rdf:RDF>
  </metadata>
  <g
     inkscape:label="Livello 1"
     inkscape:groupmode="layer"
     id="layer1"
     transform="translate(172.44969,-273.19864)">
    <g
       transform="matrix(1.4596167,0,0,-1.4596167,-367.3129,804.84213)"
       id="g8236">
      <g
         id="g8238"
         clip-path="url(#clipPath8240)">
        <path
           d="m 133.503,142.133 142.346,0 0,222.102 -142.346,0 0,-222.102 z"
           style="fill:#007ac2;fill-opacity:1;fill-rule:nonzero;stroke:none"
           id="path8244" />
      </g>
    </g>
    <g
       transform="matrix(1.4596167,0,0,-1.4596167,-367.3129,804.84213)"
       id="g8246">
      <g
         id="g8248"
         clip-path="url(#clipPath8250)">
        <g
           id="g8254"
           transform="translate(183.2625,350.53419)">
          <path
             d="m 0,0 c 0,-5.287 -7.525,-9.574 -16.807,-9.574 -9.281,0 -16.806,4.287 -16.806,9.574 0,5.288 7.525,9.575 16.806,9.575 C -7.525,9.575 0,5.288 0,0"
             style="fill:#ffffff;fill-opacity:1;fill-rule:nonzero;stroke:none"
             id="path8256" />
        </g>
        <g
           id="g8258"
           transform="translate(183.2625,350.53419)">
          <path
             d="m 0,0 c 0,-5.287 -7.525,-9.574 -16.807,-9.574 -9.281,0 -16.806,4.287 -16.806,9.574 0,5.288 7.525,9.575 16.806,9.575 C -7.525,9.575 0,5.288 0,0 z"
             style="fill:none;stroke:#000000;stroke-width:1.0465076;stroke-linecap:butt;stroke-linejoin:miter;stroke-miterlimit:10;stroke-opacity:1;stroke-dasharray:none"
             id="path8260" />
        </g>
        <g
           id="g8262"
           transform="translate(164.7502,349.4946)">
          <path
             d="m 0,0 0.926,-0.234 c -0.194,-0.761 -0.543,-1.341 -1.048,-1.74 -0.504,-0.4 -1.121,-0.599 -1.85,-0.599 -0.754,0 -1.368,0.153 -1.841,0.46 -0.472,0.308 -0.832,0.752 -1.079,1.335 -0.246,0.582 -0.37,1.208 -0.37,1.876 0,0.729 0.14,1.365 0.418,1.908 0.279,0.542 0.675,0.955 1.189,1.236 0.514,0.282 1.08,0.423 1.697,0.423 0.701,0 1.29,-0.179 1.767,-0.535 C 0.287,3.774 0.619,3.272 0.807,2.626 L -0.105,2.411 C -0.267,2.92 -0.503,3.292 -0.812,3.524 -1.121,3.756 -1.509,3.872 -1.977,3.872 -2.515,3.872 -2.964,3.743 -3.326,3.485 -3.687,3.228 -3.941,2.881 -4.087,2.447 -4.234,2.013 -4.307,1.564 -4.307,1.103 c 0,-0.595 0.087,-1.115 0.26,-1.559 0.174,-0.444 0.444,-0.776 0.81,-0.995 0.366,-0.22 0.762,-0.33 1.189,-0.33 0.518,0 0.958,0.15 1.317,0.449 C -0.371,-1.033 -0.128,-0.589 0,0"
             style="fill:#000000;fill-opacity:1;fill-rule:nonzero;stroke:none"
             id="path8264" />
        </g>
        <g
           id="g8266"
           transform="translate(168.7896,347.04041)">
          <path
             d="M 0,0 0,2.965 -2.698,7 -1.571,7 -0.191,4.889 C 0.064,4.495 0.301,4.1 0.52,3.705 0.73,4.071 0.985,4.483 1.284,4.942 L 2.64,7 3.719,7 0.926,2.965 0.926,0 0,0 z"
             style="fill:#000000;fill-opacity:1;fill-rule:nonzero;stroke:none"
             id="path8268" />
        </g>
        <g
           id="g8270"
           transform="translate(197.1666,349.7119)">
          <path
             d="M 0,0 1.539,-0.488 C 1.303,-1.346 0.911,-1.984 0.362,-2.4 c -0.549,-0.417 -1.245,-0.625 -2.089,-0.625 -1.044,0 -1.902,0.357 -2.574,1.07 -0.673,0.713 -1.009,1.688 -1.009,2.925 0,1.309 0.338,2.326 1.014,3.05 0.676,0.723 1.564,1.086 2.665,1.086 0.962,0 1.744,-0.284 2.344,-0.853 C 1.071,3.917 1.339,3.434 1.518,2.805 L -0.054,2.43 C -0.147,2.837 -0.341,3.159 -0.636,3.395 -0.931,3.631 -1.289,3.749 -1.711,3.749 -2.294,3.749 -2.767,3.54 -3.13,3.121 -3.493,2.703 -3.674,2.026 -3.674,1.089 c 0,-0.995 0.179,-1.703 0.536,-2.125 0.358,-0.421 0.823,-0.632 1.395,-0.632 0.422,0 0.785,0.134 1.089,0.402 C -0.351,-0.998 -0.132,-0.576 0,0"
             style="fill:#ffffff;fill-opacity:1;fill-rule:nonzero;stroke:none"
             id="path8272" />
        </g>
        <g
           id="g8274"
           transform="translate(202.2867,346.8208)">
          <path
             d="m 0,0 0,3.309 -2.88,4.554 1.861,0 1.85,-3.111 1.813,3.111 1.829,0 L 1.582,3.299 1.582,0 0,0 z"
             style="fill:#ffffff;fill-opacity:1;fill-rule:nonzero;stroke:none"
             id="path8276" />
        </g>
        <g
           id="g8278"
           transform="translate(209.2896,353.35361)">
          <path
             d="m 0,0 0,-2.231 0.869,0 c 0.626,0 1.044,0.041 1.255,0.123 0.211,0.082 0.376,0.211 0.496,0.386 0.12,0.175 0.18,0.379 0.18,0.611 0,0.287 -0.084,0.523 -0.252,0.709 C 2.38,-0.217 2.167,-0.1 1.909,-0.054 1.72,-0.018 1.339,0 0.767,0 L 0,0 z m -1.588,-6.533 0,7.863 2.548,0 C 1.925,1.33 2.555,1.29 2.848,1.212 3.298,1.094 3.676,0.837 3.98,0.442 4.284,0.047 4.436,-0.463 4.436,-1.089 4.436,-1.571 4.348,-1.977 4.173,-2.307 3.997,-2.636 3.775,-2.894 3.505,-3.081 3.235,-3.269 2.961,-3.393 2.682,-3.454 2.303,-3.53 1.754,-3.567 1.035,-3.567 l -1.035,0 0,-2.966 -1.588,0 z"
             style="fill:#ffffff;fill-opacity:1;fill-rule:nonzero;stroke:none"
             id="path8280" />
        </g>
        <g
           id="g8282"
           transform="translate(216.7753,351.35851)">
          <path
             d="m 0,0 1.175,0 c 0.761,0 1.237,0.032 1.426,0.096 0.19,0.065 0.338,0.176 0.445,0.333 0.108,0.157 0.161,0.354 0.161,0.59 0,0.264 -0.07,0.478 -0.212,0.641 C 2.854,1.823 2.655,1.925 2.397,1.968 2.269,1.986 1.882,1.995 1.239,1.995 L 0,1.995 0,0 z m -1.588,-4.538 0,7.863 3.342,0 c 0.84,0 1.451,-0.071 1.831,-0.212 C 3.966,2.972 4.271,2.721 4.5,2.36 4.729,1.999 4.843,1.586 4.843,1.121 4.843,0.531 4.67,0.044 4.323,-0.341 3.976,-0.725 3.458,-0.967 2.767,-1.068 c 0.344,-0.2 0.627,-0.42 0.851,-0.659 0.223,-0.24 0.524,-0.665 0.903,-1.277 l 0.96,-1.534 -1.898,0 -1.148,1.711 c -0.408,0.612 -0.686,0.997 -0.837,1.156 -0.15,0.159 -0.309,0.269 -0.477,0.328 -0.168,0.058 -0.435,0.088 -0.799,0.088 l -0.322,0 0,-3.283 -1.588,0 z"
             style="fill:#ffffff;fill-opacity:1;fill-rule:nonzero;stroke:none"
             id="path8284" />
        </g>
        <g
           id="g8286"
           transform="translate(223.258,354.6833)">
          <path
             d="m 0,0 1.587,0 0,-4.258 c 0,-0.676 0.02,-1.114 0.06,-1.314 0.068,-0.322 0.229,-0.581 0.485,-0.775 0.256,-0.195 0.605,-0.293 1.048,-0.293 0.451,0 0.791,0.092 1.02,0.277 0.228,0.184 0.366,0.41 0.413,0.678 0.046,0.268 0.069,0.714 0.069,1.335 l 0,4.35 1.588,0 0,-4.129 C 6.27,-5.074 6.227,-5.74 6.141,-6.13 6.055,-6.52 5.897,-6.849 5.666,-7.117 5.436,-7.385 5.127,-7.599 4.741,-7.758 4.355,-7.917 3.851,-7.997 3.229,-7.997 c -0.751,0 -1.321,0.087 -1.708,0.26 -0.389,0.174 -0.695,0.399 -0.92,0.676 C 0.375,-6.784 0.227,-6.493 0.156,-6.189 0.052,-5.738 0,-5.074 0,-4.194 L 0,0 z"
             style="fill:#ffffff;fill-opacity:1;fill-rule:nonzero;stroke:none"
             id="path8288" />
        </g>
        <g
           id="g8290"
           transform="translate(230.9527,349.37939)">
          <path
             d="m 0,0 1.545,0.15 c 0.092,-0.519 0.281,-0.9 0.565,-1.142 0.285,-0.243 0.668,-0.365 1.151,-0.365 0.511,0 0.896,0.108 1.156,0.325 0.259,0.216 0.389,0.469 0.389,0.758 0,0.186 -0.055,0.344 -0.164,0.475 -0.109,0.13 -0.3,0.244 -0.571,0.34 C 3.885,0.606 3.461,0.72 2.8,0.884 1.949,1.096 1.351,1.355 1.008,1.662 0.526,2.095 0.284,2.622 0.284,3.244 c 0,0.401 0.114,0.776 0.341,1.124 0.227,0.349 0.554,0.614 0.981,0.797 0.428,0.182 0.943,0.273 1.548,0.273 0.987,0 1.729,-0.216 2.228,-0.649 C 5.881,4.357 6.143,3.779 6.168,3.057 L 4.58,2.987 C 4.512,3.391 4.367,3.682 4.143,3.858 3.92,4.036 3.584,4.124 3.138,4.124 2.676,4.124 2.315,4.029 2.054,3.84 1.886,3.718 1.802,3.556 1.802,3.352 1.802,3.166 1.881,3.007 2.038,2.874 2.238,2.707 2.725,2.531 3.497,2.349 4.269,2.166 4.841,1.978 5.211,1.783 5.581,1.588 5.87,1.322 6.079,0.984 6.289,0.646 6.393,0.229 6.393,-0.269 6.393,-0.719 6.268,-1.141 6.018,-1.534 5.767,-1.928 5.413,-2.22 4.956,-2.411 4.498,-2.602 3.928,-2.698 3.245,-2.698 c -0.994,0 -1.758,0.23 -2.29,0.689 C 0.422,-1.549 0.104,-0.88 0,0"
             style="fill:#ffffff;fill-opacity:1;fill-rule:nonzero;stroke:none"
             id="path8292" />
        </g>
        <g
           id="g8294"
           transform="translate(189.0321,172.81509)">
          <path
             d="M 0,0 1.285,-0.407 C 1.088,-1.123 0.76,-1.655 0.302,-2.003 -0.156,-2.35 -0.737,-2.524 -1.441,-2.524 c -0.872,0 -1.588,0.297 -2.149,0.893 -0.561,0.595 -0.841,1.409 -0.841,2.441 0,1.093 0.282,1.941 0.846,2.545 0.564,0.604 1.305,0.906 2.224,0.906 0.803,0 1.455,-0.236 1.956,-0.711 C 0.894,3.27 1.118,2.866 1.267,2.342 L -0.045,2.028 c -0.077,0.341 -0.239,0.609 -0.485,0.805 -0.247,0.198 -0.546,0.296 -0.898,0.296 -0.486,0 -0.881,-0.175 -1.184,-0.523 -0.303,-0.35 -0.454,-0.916 -0.454,-1.697 0,-0.83 0.149,-1.42 0.447,-1.772 0.299,-0.353 0.687,-0.529 1.164,-0.529 0.352,0 0.655,0.112 0.909,0.336 C -0.292,-0.832 -0.11,-0.48 0,0"
             style="fill:#ffffff;fill-opacity:1;fill-rule:nonzero;stroke:none"
             id="path8296" />
        </g>
        <g
           id="g8298"
           transform="translate(194.19611,172.6855)">
          <path
             d="m 0,0 c -0.161,-0.054 -0.416,-0.119 -0.765,-0.193 -0.35,-0.075 -0.578,-0.147 -0.685,-0.219 -0.164,-0.116 -0.247,-0.264 -0.247,-0.444 0,-0.176 0.066,-0.327 0.197,-0.456 0.132,-0.128 0.299,-0.191 0.502,-0.191 0.227,0 0.443,0.074 0.649,0.223 0.152,0.114 0.252,0.252 0.3,0.417 C -0.016,-0.757 0,-0.552 0,-0.251 L 0,0 z m -1.683,1.021 -1.141,0.206 c 0.128,0.459 0.349,0.8 0.662,1.02 0.313,0.221 0.779,0.331 1.397,0.331 0.561,0 0.978,-0.066 1.253,-0.199 C 0.762,2.247 0.956,2.078 1.068,1.874 1.18,1.668 1.235,1.293 1.235,0.748 L 1.222,-0.72 c 0,-0.419 0.02,-0.726 0.06,-0.925 0.041,-0.198 0.116,-0.411 0.226,-0.638 l -1.244,0 c -0.033,0.084 -0.073,0.208 -0.121,0.371 -0.021,0.075 -0.036,0.125 -0.044,0.148 -0.215,-0.209 -0.445,-0.365 -0.69,-0.47 -0.245,-0.103 -0.506,-0.156 -0.783,-0.156 -0.49,0 -0.875,0.132 -1.157,0.399 -0.282,0.265 -0.423,0.6 -0.423,1.006 0,0.269 0.064,0.508 0.192,0.719 0.128,0.21 0.308,0.371 0.539,0.484 0.232,0.111 0.565,0.209 1.001,0.293 C -0.634,0.621 -0.227,0.724 0,0.82 L 0,0.945 C 0,1.186 -0.06,1.358 -0.179,1.462 -0.298,1.565 -0.524,1.616 -0.855,1.616 -1.079,1.616 -1.253,1.572 -1.379,1.484 -1.504,1.396 -1.605,1.242 -1.683,1.021"
             style="fill:#ffffff;fill-opacity:1;fill-rule:nonzero;stroke:none"
             id="path8300" />
        </g>
        <g
           id="g8302"
           transform="translate(199.9286,170.4023)">
          <path
             d="M 0,0 0,0.711 C -0.173,0.458 -0.401,0.258 -0.683,0.112 c -0.282,-0.145 -0.579,-0.218 -0.893,-0.218 -0.319,0 -0.605,0.069 -0.859,0.209 -0.254,0.14 -0.437,0.337 -0.551,0.591 -0.113,0.253 -0.17,0.604 -0.17,1.053 l 0,3.008 1.258,0 0,-2.186 c 0,-0.667 0.023,-1.077 0.07,-1.228 0.046,-0.15 0.13,-0.27 0.252,-0.358 0.123,-0.088 0.278,-0.132 0.466,-0.132 0.215,0 0.407,0.06 0.577,0.177 0.17,0.117 0.287,0.264 0.35,0.439 0.062,0.175 0.094,0.601 0.094,1.282 l 0,2.006 1.257,0 L 1.168,0 0,0 z"
             style="fill:#ffffff;fill-opacity:1;fill-rule:nonzero;stroke:none"
             id="path8304" />
        </g>
        <g
           id="g8306"
           transform="translate(204.7076,175.157)">
          <path
             d="m 0,0 0,-1.004 -0.859,0 0,-1.915 c 0,-0.387 0.008,-0.615 0.024,-0.678 0.017,-0.065 0.054,-0.118 0.112,-0.159 0.058,-0.042 0.129,-0.062 0.213,-0.062 0.116,0 0.285,0.04 0.506,0.121 l 0.107,-0.977 c -0.292,-0.125 -0.624,-0.187 -0.994,-0.187 -0.227,0 -0.431,0.038 -0.613,0.114 -0.182,0.075 -0.316,0.174 -0.401,0.294 -0.085,0.122 -0.144,0.285 -0.176,0.492 -0.027,0.145 -0.041,0.441 -0.041,0.884 l 0,2.073 -0.577,0 0,1.004 0.577,0 0,0.945 1.263,0.733 L -0.859,0 0,0 z"
             style="fill:#ffffff;fill-opacity:1;fill-rule:nonzero;stroke:none"
             id="path8308" />
        </g>
        <g
           id="g8310"
           transform="translate(205.709,175.157)">
          <path
             d="m 0,0 1.258,0 0,-4.755 L 0,-4.755 0,0 z m 0,1.808 1.258,0 0,-1.164 -1.258,0 0,1.164 z"
             style="fill:#ffffff;fill-opacity:1;fill-rule:nonzero;stroke:none"
             id="path8312" />
        </g>
        <g
           id="g8314"
           transform="translate(209.3824,172.7796)">
          <path
             d="m 0,0 c 0,-0.472 0.112,-0.832 0.336,-1.083 0.224,-0.25 0.5,-0.376 0.828,-0.376 0.328,0 0.603,0.126 0.826,0.376 0.222,0.251 0.333,0.614 0.333,1.093 0,0.464 -0.111,0.822 -0.333,1.073 C 1.767,1.335 1.492,1.459 1.164,1.459 0.836,1.459 0.56,1.335 0.336,1.083 0.112,0.832 0,0.472 0,0 m -1.289,0.067 c 0,0.418 0.103,0.822 0.309,1.214 0.206,0.39 0.497,0.688 0.875,0.895 0.377,0.205 0.799,0.308 1.264,0.308 0.72,0 1.309,-0.233 1.768,-0.701 0.46,-0.467 0.69,-1.057 0.69,-1.77 0,-0.718 -0.232,-1.315 -0.696,-1.788 -0.464,-0.473 -1.048,-0.709 -1.753,-0.709 -0.435,0 -0.851,0.098 -1.246,0.295 -0.396,0.197 -0.696,0.486 -0.902,0.866 -0.206,0.381 -0.309,0.844 -0.309,1.39"
             style="fill:#ffffff;fill-opacity:1;fill-rule:nonzero;stroke:none"
             id="path8316" />
        </g>
        <g
           id="g8318"
           transform="translate(218.43629,170.4023)">
          <path
             d="m 0,0 -1.258,0 0,2.426 c 0,0.514 -0.027,0.846 -0.08,0.996 C -1.392,3.573 -1.479,3.69 -1.6,3.773 -1.721,3.858 -1.867,3.899 -2.037,3.899 -2.255,3.899 -2.45,3.839 -2.623,3.719 -2.796,3.601 -2.915,3.443 -2.979,3.246 -3.043,3.05 -3.075,2.684 -3.075,2.154 l 0,-2.154 -1.258,0 0,4.755 1.168,0 0,-0.699 c 0.415,0.537 0.937,0.805 1.567,0.805 0.277,0 0.531,-0.05 0.761,-0.149 0.23,-0.1 0.403,-0.229 0.521,-0.384 0.118,-0.155 0.2,-0.33 0.247,-0.527 C -0.023,3.605 0,3.322 0,2.954 L 0,0 z"
             style="fill:#ffffff;fill-opacity:1;fill-rule:nonzero;stroke:none"
             id="path8320" />
        </g>
        <g
           id="g8322"
           transform="translate(220.06,171.661)">
          <path
             d="m 0,0 1.258,0 0,-1.259 L 0,-1.259 0,0 z m 0.273,0.434 -0.327,3.33 0,1.54 1.361,0 0,-1.54 -0.323,-3.33 -0.711,0 z"
             style="fill:#ffffff;fill-opacity:1;fill-rule:nonzero;stroke:none"
             id="path8324" />
        </g>
        <g
           id="g8326"
           transform="translate(171.6675,159.4016)">
          <path
             d="m 0,0 0,2.762 -2.404,3.8 1.554,0 1.544,-2.596 1.513,2.596 1.526,0 L 1.32,2.753 1.32,0 0,0 z"
             style="fill:#ffffff;fill-opacity:1;fill-rule:nonzero;stroke:none"
             id="path8328" />
        </g>
        <g
           id="g8330"
           transform="translate(176.4958,161.77901)">
          <path
             d="m 0,0 c 0,-0.472 0.112,-0.832 0.336,-1.083 0.223,-0.25 0.5,-0.376 0.828,-0.376 0.328,0 0.603,0.126 0.826,0.376 0.222,0.251 0.333,0.614 0.333,1.093 0,0.464 -0.111,0.822 -0.333,1.073 C 1.767,1.335 1.492,1.459 1.164,1.459 0.836,1.459 0.559,1.335 0.336,1.083 0.112,0.832 0,0.472 0,0 m -1.289,0.067 c 0,0.418 0.103,0.822 0.309,1.214 0.206,0.39 0.497,0.688 0.875,0.895 0.377,0.205 0.799,0.308 1.264,0.308 0.72,0 1.309,-0.233 1.768,-0.701 0.46,-0.467 0.69,-1.057 0.69,-1.77 0,-0.718 -0.232,-1.315 -0.696,-1.788 -0.464,-0.473 -1.048,-0.709 -1.753,-0.709 -0.435,0 -0.851,0.098 -1.246,0.295 -0.396,0.197 -0.696,0.486 -0.902,0.866 -0.206,0.381 -0.309,0.844 -0.309,1.39"
             style="fill:#ffffff;fill-opacity:1;fill-rule:nonzero;stroke:none"
             id="path8332" />
        </g>
        <g
           id="g8334"
           transform="translate(184.35451,159.4016)">
          <path
             d="M 0,0 0,0.711 C -0.173,0.458 -0.401,0.258 -0.683,0.112 c -0.282,-0.145 -0.579,-0.218 -0.893,-0.218 -0.319,0 -0.605,0.069 -0.859,0.209 -0.254,0.14 -0.437,0.337 -0.551,0.591 -0.113,0.253 -0.17,0.604 -0.17,1.053 l 0,3.008 1.258,0 0,-2.186 c 0,-0.667 0.023,-1.077 0.07,-1.228 0.046,-0.15 0.13,-0.27 0.252,-0.358 0.123,-0.088 0.278,-0.132 0.466,-0.132 0.215,0 0.407,0.06 0.577,0.177 0.17,0.117 0.287,0.264 0.349,0.439 0.063,0.175 0.095,0.601 0.095,1.282 l 0,2.006 1.257,0 L 1.168,0 0,0 z"
             style="fill:#ffffff;fill-opacity:1;fill-rule:nonzero;stroke:none"
             id="path8336" />
        </g>
        <g
           id="g8338"
           transform="translate(192.25211,161.68491)">
          <path
             d="m 0,0 c -0.161,-0.054 -0.416,-0.119 -0.765,-0.193 -0.349,-0.075 -0.578,-0.147 -0.685,-0.219 -0.164,-0.116 -0.246,-0.264 -0.246,-0.444 0,-0.176 0.065,-0.327 0.197,-0.456 0.131,-0.128 0.298,-0.191 0.501,-0.191 0.227,0 0.443,0.074 0.649,0.223 0.152,0.114 0.252,0.252 0.3,0.417 C -0.016,-0.757 0,-0.552 0,-0.251 L 0,0 z m -1.683,1.021 -1.141,0.206 c 0.128,0.459 0.349,0.8 0.662,1.02 0.313,0.221 0.779,0.331 1.397,0.331 0.561,0 0.978,-0.066 1.253,-0.199 C 0.762,2.247 0.956,2.078 1.068,1.874 1.18,1.668 1.236,1.293 1.236,0.748 L 1.222,-0.72 c 0,-0.419 0.02,-0.726 0.06,-0.925 0.041,-0.198 0.116,-0.411 0.227,-0.638 l -1.245,0 c -0.033,0.084 -0.073,0.208 -0.121,0.371 -0.021,0.075 -0.036,0.125 -0.044,0.148 -0.215,-0.209 -0.445,-0.365 -0.69,-0.47 -0.245,-0.103 -0.506,-0.156 -0.783,-0.156 -0.49,0 -0.875,0.132 -1.157,0.399 -0.282,0.265 -0.423,0.6 -0.423,1.006 0,0.269 0.064,0.508 0.192,0.719 0.129,0.21 0.308,0.371 0.54,0.484 0.231,0.111 0.564,0.209 1,0.293 C -0.634,0.621 -0.227,0.724 0,0.82 L 0,0.945 C 0,1.186 -0.06,1.358 -0.179,1.462 -0.298,1.565 -0.524,1.616 -0.855,1.616 -1.079,1.616 -1.253,1.572 -1.379,1.484 -1.504,1.396 -1.605,1.242 -1.683,1.021"
             style="fill:#ffffff;fill-opacity:1;fill-rule:nonzero;stroke:none"
             id="path8340" />
        </g>
        <g
           id="g8342"
           transform="translate(196.05991,159.4016)">
          <path
             d="m 0,0 -1.258,0 0,4.755 1.168,0 0,-0.677 c 0.2,0.32 0.38,0.53 0.54,0.631 0.159,0.102 0.341,0.152 0.544,0.152 0.286,0 0.562,-0.078 0.828,-0.236 L 1.432,3.528 C 1.22,3.664 1.024,3.734 0.841,3.734 0.665,3.734 0.516,3.685 0.394,3.587 0.271,3.491 0.175,3.316 0.105,3.062 0.035,2.809 0,2.277 0,1.469 L 0,0 z"
             style="fill:#ffffff;fill-opacity:1;fill-rule:nonzero;stroke:none"
             id="path8344" />
        </g>
        <g
           id="g8346"
           transform="translate(201.37601,162.186)">
          <path
             d="m 0,0 c -0.009,0.364 -0.103,0.642 -0.282,0.83 -0.179,0.191 -0.397,0.285 -0.653,0.285 -0.275,0 -0.502,-0.1 -0.681,-0.3 C -1.795,0.615 -1.883,0.343 -1.88,0 L 0,0 z m -0.072,-1.271 1.254,-0.21 c -0.161,-0.46 -0.416,-0.81 -0.763,-1.05 -0.348,-0.24 -0.783,-0.36 -1.305,-0.36 -0.827,0 -1.439,0.269 -1.835,0.811 -0.314,0.431 -0.471,0.977 -0.471,1.636 0,0.789 0.206,1.406 0.618,1.852 0.412,0.446 0.933,0.669 1.562,0.669 0.708,0 1.266,-0.233 1.674,-0.701 C 1.071,0.909 1.267,0.194 1.249,-0.77 l -3.151,0 c 0.009,-0.373 0.11,-0.663 0.304,-0.87 0.194,-0.207 0.436,-0.311 0.725,-0.311 0.197,0 0.363,0.054 0.497,0.16 0.134,0.108 0.236,0.281 0.304,0.52"
             style="fill:#ffffff;fill-opacity:1;fill-rule:nonzero;stroke:none"
             id="path8348" />
        </g>
        <g
           id="g8350"
           transform="translate(207.45621,161.8817)">
          <path
             d="m 0,0 c 0,-0.507 0.07,-0.874 0.21,-1.101 0.203,-0.328 0.487,-0.492 0.851,-0.492 0.289,0 0.535,0.123 0.738,0.369 0.203,0.246 0.305,0.614 0.305,1.103 0,0.546 -0.099,0.94 -0.296,1.18 C 1.611,1.299 1.359,1.419 1.052,1.419 0.754,1.419 0.504,1.301 0.302,1.063 0.101,0.826 0,0.472 0,0 m 3.357,-2.48 -1.168,0 0,0.699 C 1.995,-2.052 1.766,-2.255 1.502,-2.387 1.238,-2.52 0.971,-2.586 0.703,-2.586 c -0.546,0 -1.014,0.22 -1.404,0.66 -0.389,0.44 -0.584,1.053 -0.584,1.84 0,0.807 0.19,1.42 0.569,1.839 0.379,0.419 0.858,0.628 1.437,0.628 0.531,0 0.99,-0.22 1.378,-0.662 l 0,2.363 1.258,0 0,-6.562 z"
             style="fill:#ffffff;fill-opacity:1;fill-rule:nonzero;stroke:none"
             id="path8352" />
        </g>
        <g
           id="g8354"
           transform="translate(213.3857,159.4016)">
          <path
             d="m 0,0 -1.258,0 0,4.755 1.168,0 0,-0.677 c 0.2,0.32 0.38,0.53 0.54,0.631 0.159,0.102 0.341,0.152 0.544,0.152 0.286,0 0.562,-0.078 0.828,-0.236 L 1.432,3.528 C 1.22,3.664 1.024,3.734 0.841,3.734 0.665,3.734 0.516,3.685 0.394,3.587 0.271,3.491 0.175,3.316 0.105,3.062 0.035,2.809 0,2.277 0,1.469 L 0,0 z"
             style="fill:#ffffff;fill-opacity:1;fill-rule:nonzero;stroke:none"
             id="path8356" />
        </g>
        <g
           id="g8358"
           transform="translate(215.87801,164.15601)">
          <path
             d="m 0,0 1.258,0 0,-4.755 L 0,-4.755 0,0 z m 0,1.808 1.258,0 0,-1.164 -1.258,0 0,1.164 z"
             style="fill:#ffffff;fill-opacity:1;fill-rule:nonzero;stroke:none"
             id="path8360" />
        </g>
        <g
           id="g8362"
           transform="translate(219.8598,159.4016)">
          <path
             d="m 0,0 -1.916,4.755 1.321,0 L 0.3,2.328 0.56,1.518 C 0.628,1.725 0.671,1.859 0.689,1.925 0.731,2.06 0.776,2.194 0.824,2.328 l 0.904,2.427 1.293,0 L 1.132,0 0,0 z"
             style="fill:#ffffff;fill-opacity:1;fill-rule:nonzero;stroke:none"
             id="path8364" />
        </g>
        <g
           id="g8366"
           transform="translate(223.77901,164.15601)">
          <path
             d="m 0,0 1.258,0 0,-4.755 L 0,-4.755 0,0 z m 0,1.808 1.258,0 0,-1.164 -1.258,0 0,1.164 z"
             style="fill:#ffffff;fill-opacity:1;fill-rule:nonzero;stroke:none"
             id="path8368" />
        </g>
        <g
           id="g8370"
           transform="translate(230.7787,159.4016)">
          <path
             d="m 0,0 -1.258,0 0,2.426 c 0,0.514 -0.027,0.846 -0.08,0.996 C -1.392,3.573 -1.479,3.69 -1.6,3.773 -1.721,3.858 -1.867,3.899 -2.037,3.899 -2.255,3.899 -2.45,3.839 -2.623,3.719 -2.796,3.601 -2.915,3.443 -2.979,3.246 -3.043,3.05 -3.075,2.684 -3.075,2.154 l 0,-2.154 -1.258,0 0,4.755 1.168,0 0,-0.699 c 0.415,0.537 0.937,0.805 1.567,0.805 0.278,0 0.531,-0.05 0.761,-0.149 0.23,-0.1 0.404,-0.229 0.522,-0.384 0.117,-0.155 0.199,-0.33 0.246,-0.527 C -0.023,3.605 0,3.322 0,2.954 L 0,0 z"
             style="fill:#ffffff;fill-opacity:1;fill-rule:nonzero;stroke:none"
             id="path8372" />
        </g>
        <g
           id="g8374"
           transform="translate(233.1899,161.87801)">
          <path
             d="m 0,0 c 0,-0.505 0.098,-0.874 0.293,-1.109 0.196,-0.233 0.437,-0.352 0.723,-0.352 0.307,0 0.567,0.121 0.779,0.361 0.212,0.241 0.318,0.596 0.318,1.068 0,0.493 -0.102,0.858 -0.305,1.097 C 1.605,1.303 1.349,1.423 1.038,1.423 0.737,1.423 0.489,1.305 0.293,1.072 0.098,0.837 0,0.479 0,0 m -1.124,-2.789 1.437,-0.175 c 0.024,-0.166 0.079,-0.281 0.166,-0.345 0.119,-0.089 0.307,-0.134 0.564,-0.134 0.328,0 0.574,0.049 0.738,0.149 0.111,0.065 0.194,0.171 0.251,0.316 0.039,0.106 0.058,0.298 0.058,0.579 l 0,0.693 c -0.376,-0.514 -0.85,-0.77 -1.423,-0.77 -0.639,0 -1.144,0.27 -1.517,0.811 -0.293,0.426 -0.439,0.957 -0.439,1.593 0,0.797 0.192,1.405 0.575,1.826 0.383,0.42 0.86,0.631 1.43,0.631 0.588,0 1.073,-0.258 1.455,-0.774 l 0,0.667 1.177,0 0,-4.265 C 3.348,-2.549 3.302,-2.968 3.209,-3.245 3.117,-3.524 2.987,-3.741 2.82,-3.899 2.653,-4.058 2.43,-4.181 2.151,-4.271 1.872,-4.361 1.519,-4.405 1.092,-4.405 c -0.805,0 -1.377,0.138 -1.714,0.414 -0.337,0.276 -0.506,0.626 -0.506,1.05 0,0.042 0.002,0.092 0.004,0.152"
             style="fill:#ffffff;fill-opacity:1;fill-rule:nonzero;stroke:none"
             id="path8376" />
        </g>
        <g
           id="g8378"
           transform="translate(159.0087,150.77831)">
          <path
             d="m 0,0 c 0,-0.472 0.112,-0.832 0.336,-1.083 0.224,-0.25 0.5,-0.376 0.828,-0.376 0.328,0 0.603,0.126 0.826,0.376 0.222,0.251 0.333,0.614 0.333,1.093 0,0.464 -0.111,0.822 -0.333,1.073 C 1.767,1.335 1.492,1.459 1.164,1.459 0.836,1.459 0.56,1.335 0.336,1.083 0.112,0.832 0,0.472 0,0 m -1.289,0.067 c 0,0.418 0.103,0.822 0.309,1.214 0.206,0.39 0.497,0.688 0.875,0.895 0.377,0.205 0.799,0.308 1.264,0.308 0.72,0 1.309,-0.233 1.768,-0.701 0.46,-0.467 0.69,-1.057 0.69,-1.77 0,-0.718 -0.232,-1.315 -0.696,-1.788 -0.464,-0.473 -1.048,-0.709 -1.753,-0.709 -0.435,0 -0.851,0.098 -1.246,0.295 -0.396,0.197 -0.696,0.486 -0.902,0.866 -0.206,0.381 -0.309,0.844 -0.309,1.39"
             style="fill:#ffffff;fill-opacity:1;fill-rule:nonzero;stroke:none"
             id="path8380" />
        </g>
        <g
           id="g8382"
           transform="translate(168.0625,148.401)">
          <path
             d="m 0,0 -1.258,0 0,2.426 c 0,0.514 -0.027,0.846 -0.08,0.996 C -1.392,3.573 -1.479,3.69 -1.6,3.773 -1.721,3.858 -1.867,3.899 -2.037,3.899 -2.254,3.899 -2.45,3.839 -2.623,3.719 -2.796,3.601 -2.915,3.443 -2.979,3.246 -3.043,3.05 -3.075,2.684 -3.075,2.154 l 0,-2.154 -1.258,0 0,4.755 1.168,0 0,-0.699 c 0.415,0.537 0.937,0.805 1.567,0.805 0.278,0 0.531,-0.05 0.761,-0.149 0.23,-0.1 0.404,-0.229 0.522,-0.384 0.117,-0.155 0.199,-0.33 0.246,-0.527 C -0.023,3.605 0,3.322 0,2.954 L 0,0 z"
             style="fill:#ffffff;fill-opacity:1;fill-rule:nonzero;stroke:none"
             id="path8384" />
        </g>
        <g
           id="g8386"
           transform="translate(174.3217,153.1557)">
          <path
             d="m 0,0 0,-1.004 -0.859,0 0,-1.915 c 0,-0.387 0.008,-0.615 0.024,-0.678 0.017,-0.065 0.054,-0.118 0.112,-0.159 0.058,-0.042 0.129,-0.062 0.213,-0.062 0.116,0 0.285,0.04 0.505,0.121 l 0.108,-0.977 c -0.292,-0.125 -0.624,-0.187 -0.994,-0.187 -0.227,0 -0.431,0.038 -0.613,0.114 -0.182,0.075 -0.315,0.174 -0.401,0.294 -0.085,0.122 -0.144,0.285 -0.176,0.492 -0.027,0.145 -0.041,0.441 -0.041,0.884 l 0,2.073 -0.577,0 0,1.004 0.577,0 0,0.945 1.263,0.733 L -0.859,0 0,0 z"
             style="fill:#ffffff;fill-opacity:1;fill-rule:nonzero;stroke:none"
             id="path8388" />
        </g>
        <g
           id="g8390"
           transform="translate(176.5764,154.9635)">
          <path
             d="m 0,0 0,-2.413 c 0.406,0.476 0.891,0.712 1.455,0.712 0.289,0 0.55,-0.053 0.783,-0.161 0.233,-0.107 0.408,-0.245 0.526,-0.411 0.118,-0.168 0.198,-0.352 0.242,-0.555 0.043,-0.203 0.065,-0.519 0.065,-0.945 l 0,-2.789 -1.258,0 0,2.511 c 0,0.498 -0.024,0.814 -0.072,0.949 -0.048,0.134 -0.132,0.241 -0.253,0.32 -0.121,0.08 -0.272,0.119 -0.454,0.119 -0.209,0 -0.395,-0.052 -0.56,-0.152 C 0.31,-2.918 0.19,-3.07 0.114,-3.275 0.038,-3.479 0,-3.781 0,-4.18 l 0,-2.382 -1.258,0 0,6.562 L 0,0 z"
             style="fill:#ffffff;fill-opacity:1;fill-rule:nonzero;stroke:none"
             id="path8392" />
        </g>
        <g
           id="g8394"
           transform="translate(183.8756,151.18539)">
          <path
             d="m 0,0 c -0.009,0.364 -0.103,0.642 -0.282,0.83 -0.179,0.191 -0.397,0.285 -0.654,0.285 -0.274,0 -0.501,-0.1 -0.68,-0.3 C -1.795,0.615 -1.883,0.343 -1.88,0 L 0,0 z m -0.072,-1.271 1.254,-0.21 c -0.162,-0.46 -0.416,-0.81 -0.763,-1.05 -0.348,-0.24 -0.783,-0.36 -1.305,-0.36 -0.827,0 -1.439,0.269 -1.836,0.811 -0.313,0.431 -0.47,0.977 -0.47,1.636 0,0.789 0.206,1.406 0.618,1.852 0.412,0.446 0.933,0.669 1.562,0.669 0.708,0 1.266,-0.233 1.674,-0.701 C 1.071,0.909 1.267,0.194 1.249,-0.77 l -3.151,0 c 0.009,-0.373 0.11,-0.663 0.304,-0.87 0.194,-0.207 0.436,-0.311 0.725,-0.311 0.197,0 0.363,0.054 0.497,0.16 0.134,0.108 0.236,0.281 0.304,0.52"
             style="fill:#ffffff;fill-opacity:1;fill-rule:nonzero;stroke:none"
             id="path8396" />
        </g>
        <path
           d="m 188.953,148.401 1.258,0 0,6.562 -1.258,0 0,-6.562 z"
           style="fill:#ffffff;fill-opacity:1;fill-rule:nonzero;stroke:none"
           id="path8398" />
        <g
           id="g8400"
           transform="translate(194.4527,151.18539)">
          <path
             d="m 0,0 c -0.009,0.364 -0.103,0.642 -0.282,0.83 -0.179,0.191 -0.397,0.285 -0.653,0.285 -0.275,0 -0.502,-0.1 -0.681,-0.3 C -1.795,0.615 -1.883,0.343 -1.88,0 L 0,0 z m -0.072,-1.271 1.254,-0.21 c -0.161,-0.46 -0.416,-0.81 -0.763,-1.05 -0.348,-0.24 -0.783,-0.36 -1.305,-0.36 -0.827,0 -1.439,0.269 -1.835,0.811 -0.314,0.431 -0.47,0.977 -0.47,1.636 0,0.789 0.205,1.406 0.617,1.852 0.412,0.446 0.933,0.669 1.562,0.669 0.708,0 1.266,-0.233 1.674,-0.701 C 1.071,0.909 1.267,0.194 1.249,-0.77 l -3.151,0 c 0.009,-0.373 0.11,-0.663 0.304,-0.87 0.194,-0.207 0.436,-0.311 0.725,-0.311 0.197,0 0.363,0.054 0.497,0.16 0.134,0.108 0.236,0.281 0.304,0.52"
             style="fill:#ffffff;fill-opacity:1;fill-rule:nonzero;stroke:none"
             id="path8402" />
        </g>
        <g
           id="g8404"
           transform="translate(196.3044,153.1557)">
          <path
             d="m 0,0 0.698,0 0,0.358 c 0,0.4 0.043,0.698 0.128,0.895 0.085,0.197 0.242,0.357 0.47,0.481 0.228,0.124 0.517,0.185 0.866,0.185 0.358,0 0.709,-0.054 1.052,-0.16 L 3.044,0.881 C 2.844,0.929 2.651,0.952 2.466,0.952 2.284,0.952 2.154,0.911 2.075,0.825 1.996,0.741 1.956,0.577 1.956,0.335 l 0,-0.335 0.94,0 0,-0.989 -0.94,0 0,-3.766 -1.258,0 0,3.766 L 0,-0.989 0,0 z"
             style="fill:#ffffff;fill-opacity:1;fill-rule:nonzero;stroke:none"
             id="path8406" />
        </g>
        <g
           id="g8408"
           transform="translate(202.21609,153.1557)">
          <path
             d="m 0,0 0,-1.004 -0.859,0 0,-1.915 c 0,-0.387 0.008,-0.615 0.024,-0.678 0.017,-0.065 0.054,-0.118 0.112,-0.159 0.058,-0.042 0.129,-0.062 0.213,-0.062 0.116,0 0.285,0.04 0.505,0.121 l 0.108,-0.977 c -0.292,-0.125 -0.624,-0.187 -0.994,-0.187 -0.227,0 -0.431,0.038 -0.613,0.114 -0.182,0.075 -0.316,0.174 -0.401,0.294 -0.085,0.122 -0.144,0.285 -0.176,0.492 -0.027,0.145 -0.041,0.441 -0.041,0.884 l 0,2.073 -0.577,0 0,1.004 0.577,0 0,0.945 1.263,0.733 L -0.859,0 0,0 z"
             style="fill:#ffffff;fill-opacity:1;fill-rule:nonzero;stroke:none"
             id="path8410" />
        </g>
        <g
           id="g8412"
           transform="translate(207.1459,154.9635)">
          <path
             d="m 0,0 0,-2.413 c 0.406,0.476 0.891,0.712 1.455,0.712 0.289,0 0.55,-0.053 0.783,-0.161 0.233,-0.107 0.408,-0.245 0.526,-0.411 0.118,-0.168 0.198,-0.352 0.242,-0.555 0.043,-0.203 0.065,-0.519 0.065,-0.945 l 0,-2.789 -1.258,0 0,2.511 c 0,0.498 -0.024,0.814 -0.072,0.949 -0.048,0.134 -0.132,0.241 -0.253,0.32 -0.121,0.08 -0.272,0.119 -0.454,0.119 -0.209,0 -0.395,-0.052 -0.56,-0.152 C 0.31,-2.918 0.19,-3.07 0.114,-3.275 0.038,-3.479 0,-3.781 0,-4.18 l 0,-2.382 -1.258,0 0,6.562 L 0,0 z"
             style="fill:#ffffff;fill-opacity:1;fill-rule:nonzero;stroke:none"
             id="path8414" />
        </g>
        <g
           id="g8416"
           transform="translate(214.24361,150.6842)">
          <path
             d="m 0,0 c -0.161,-0.054 -0.416,-0.119 -0.765,-0.193 -0.35,-0.075 -0.578,-0.147 -0.685,-0.219 -0.164,-0.116 -0.247,-0.264 -0.247,-0.444 0,-0.176 0.066,-0.327 0.197,-0.456 0.132,-0.128 0.299,-0.191 0.502,-0.191 0.227,0 0.443,0.074 0.649,0.223 0.152,0.114 0.252,0.252 0.3,0.417 C -0.016,-0.757 0,-0.552 0,-0.251 L 0,0 z m -1.683,1.021 -1.141,0.206 c 0.128,0.459 0.349,0.8 0.662,1.02 0.313,0.221 0.779,0.331 1.397,0.331 0.56,0 0.978,-0.066 1.253,-0.199 C 0.762,2.247 0.956,2.078 1.068,1.874 1.179,1.668 1.235,1.293 1.235,0.748 L 1.222,-0.72 c 0,-0.419 0.02,-0.726 0.06,-0.925 0.041,-0.198 0.116,-0.411 0.226,-0.638 l -1.244,0 c -0.033,0.084 -0.073,0.208 -0.121,0.371 -0.021,0.075 -0.036,0.125 -0.045,0.148 -0.214,-0.209 -0.444,-0.365 -0.689,-0.47 -0.245,-0.103 -0.506,-0.156 -0.783,-0.156 -0.49,0 -0.875,0.132 -1.157,0.399 -0.282,0.265 -0.423,0.6 -0.423,1.006 0,0.269 0.064,0.508 0.192,0.719 0.128,0.21 0.308,0.371 0.539,0.484 0.232,0.111 0.565,0.209 1.001,0.293 0.588,0.11 0.995,0.213 1.222,0.309 l 0,0.125 c 0,0.241 -0.06,0.413 -0.179,0.517 -0.12,0.103 -0.345,0.154 -0.676,0.154 -0.224,0 -0.398,-0.044 -0.524,-0.132 C -1.504,1.396 -1.605,1.242 -1.683,1.021"
             style="fill:#ffffff;fill-opacity:1;fill-rule:nonzero;stroke:none"
             id="path8418" />
        </g>
        <g
           id="g8420"
           transform="translate(221.1712,148.401)">
          <path
             d="m 0,0 -1.258,0 0,2.426 c 0,0.514 -0.027,0.846 -0.08,0.996 C -1.392,3.573 -1.479,3.69 -1.6,3.773 -1.721,3.858 -1.867,3.899 -2.037,3.899 -2.255,3.899 -2.45,3.839 -2.623,3.719 -2.796,3.601 -2.915,3.443 -2.979,3.246 -3.043,3.05 -3.075,2.684 -3.075,2.154 l 0,-2.154 -1.258,0 0,4.755 1.168,0 0,-0.699 c 0.415,0.537 0.937,0.805 1.567,0.805 0.278,0 0.531,-0.05 0.761,-0.149 0.23,-0.1 0.404,-0.229 0.521,-0.384 0.118,-0.155 0.2,-0.33 0.247,-0.527 C -0.023,3.605 0,3.322 0,2.954 L 0,0 z"
             style="fill:#ffffff;fill-opacity:1;fill-rule:nonzero;stroke:none"
             id="path8422" />
        </g>
        <g
           id="g8424"
           transform="translate(223.5779,150.881)">
          <path
             d="m 0,0 c 0,-0.507 0.07,-0.874 0.21,-1.101 0.203,-0.328 0.487,-0.492 0.851,-0.492 0.289,0 0.535,0.123 0.738,0.369 0.203,0.246 0.305,0.614 0.305,1.103 0,0.546 -0.099,0.94 -0.296,1.18 C 1.611,1.299 1.359,1.419 1.052,1.419 0.753,1.419 0.504,1.301 0.302,1.063 0.101,0.826 0,0.472 0,0 m 3.357,-2.48 -1.168,0 0,0.699 C 1.995,-2.052 1.766,-2.255 1.502,-2.387 1.238,-2.52 0.971,-2.586 0.703,-2.586 c -0.546,0 -1.014,0.22 -1.404,0.66 -0.389,0.44 -0.584,1.053 -0.584,1.84 0,0.807 0.19,1.42 0.569,1.839 0.379,0.419 0.858,0.628 1.437,0.628 0.531,0 0.99,-0.22 1.378,-0.662 l 0,2.363 1.258,0 0,-6.562 z"
             style="fill:#ffffff;fill-opacity:1;fill-rule:nonzero;stroke:none"
             id="path8426" />
        </g>
        <g
           id="g8428"
           transform="translate(230.5356,149.75771)">
          <path
             d="m 0,0 1.262,0.193 c 0.054,-0.246 0.163,-0.431 0.327,-0.558 0.164,-0.126 0.394,-0.19 0.689,-0.19 0.326,0 0.57,0.06 0.734,0.179 0.111,0.084 0.166,0.195 0.166,0.336 0,0.095 -0.03,0.174 -0.089,0.237 C 3.026,0.257 2.886,0.312 2.668,0.363 1.653,0.587 1.01,0.791 0.739,0.977 0.363,1.232 0.175,1.589 0.175,2.046 c 0,0.412 0.162,0.758 0.487,1.038 0.326,0.281 0.83,0.42 1.513,0.42 0.651,0 1.134,-0.105 1.451,-0.317 C 3.942,2.975 4.16,2.662 4.279,2.248 L 3.093,2.028 C 3.042,2.212 2.946,2.355 2.804,2.453 2.663,2.552 2.46,2.601 2.198,2.601 1.867,2.601 1.629,2.555 1.486,2.462 1.391,2.396 1.343,2.311 1.343,2.206 1.343,2.117 1.385,2.041 1.468,1.979 1.582,1.895 1.973,1.777 2.643,1.624 3.313,1.473 3.781,1.286 4.046,1.066 4.309,0.841 4.44,0.529 4.44,0.13 4.44,-0.306 4.258,-0.681 3.894,-0.994 3.53,-1.308 2.992,-1.463 2.278,-1.463 1.631,-1.463 1.118,-1.332 0.741,-1.07 0.363,-0.807 0.116,-0.451 0,0"
             style="fill:#ffffff;fill-opacity:1;fill-rule:nonzero;stroke:none"
             id="path8430" />
        </g>
        <g
           id="g8432"
           transform="translate(236.205,153.15601)">
          <path
             d="m 0,0 1.258,0 0,-4.755 L 0,-4.755 0,0 z m 0,1.807 1.258,0 0,-1.164 -1.258,0 0,1.164 z"
             style="fill:#ffffff;fill-opacity:1;fill-rule:nonzero;stroke:none"
             id="path8434" />
        </g>
        <g
           id="g8436"
           transform="translate(239.8833,150.881)">
          <path
             d="m 0,0 c 0,-0.507 0.07,-0.874 0.21,-1.101 0.203,-0.328 0.487,-0.492 0.851,-0.492 0.289,0 0.535,0.123 0.738,0.369 0.203,0.246 0.305,0.614 0.305,1.103 0,0.546 -0.099,0.94 -0.296,1.18 C 1.611,1.299 1.359,1.419 1.052,1.419 0.753,1.419 0.503,1.301 0.302,1.063 0.101,0.826 0,0.472 0,0 m 3.357,-2.48 -1.168,0 0,0.699 C 1.995,-2.052 1.766,-2.255 1.502,-2.387 1.238,-2.52 0.971,-2.586 0.703,-2.586 c -0.546,0 -1.014,0.22 -1.404,0.66 -0.389,0.44 -0.584,1.053 -0.584,1.84 0,0.807 0.19,1.42 0.569,1.839 0.379,0.419 0.858,0.628 1.437,0.628 0.531,0 0.99,-0.22 1.378,-0.662 l 0,2.363 1.258,0 0,-6.562 z"
             style="fill:#ffffff;fill-opacity:1;fill-rule:nonzero;stroke:none"
             id="path8438" />
        </g>
        <g
           id="g8440"
           transform="translate(247.433,151.18539)">
          <path
             d="m 0,0 c -0.009,0.364 -0.103,0.642 -0.282,0.83 -0.179,0.191 -0.397,0.285 -0.654,0.285 -0.274,0 -0.501,-0.1 -0.68,-0.3 C -1.795,0.615 -1.883,0.343 -1.88,0 L 0,0 z m -0.072,-1.271 1.254,-0.21 c -0.161,-0.46 -0.416,-0.81 -0.763,-1.05 -0.348,-0.24 -0.783,-0.36 -1.305,-0.36 -0.827,0 -1.439,0.269 -1.835,0.811 -0.314,0.431 -0.471,0.977 -0.471,1.636 0,0.789 0.206,1.406 0.618,1.852 0.412,0.446 0.933,0.669 1.562,0.669 0.708,0 1.266,-0.233 1.674,-0.701 C 1.071,0.909 1.267,0.194 1.249,-0.77 l -3.151,0 c 0.009,-0.373 0.11,-0.663 0.304,-0.87 0.194,-0.207 0.436,-0.311 0.725,-0.311 0.197,0 0.363,0.054 0.497,0.16 0.134,0.108 0.236,0.281 0.304,0.52"
             style="fill:#ffffff;fill-opacity:1;fill-rule:nonzero;stroke:none"
             id="path8442" />
        </g>
        <path
           d="m 146.389,288.197 112.452,0 0,45.836 -112.452,0 0,-45.836 z"
           style="fill:#ffffff;fill-opacity:1;fill-rule:nonzero;stroke:#000000;stroke-width:1.0465076;stroke-linecap:butt;stroke-linejoin:miter;stroke-miterlimit:10;stroke-opacity:1;stroke-dasharray:none"
           id="path8444" />
        <path
           d="m 146.389,235.333 112.452,0 0,45.836 -112.452,0 0,-45.836 z"
           style="fill:#ffffff;fill-opacity:1;fill-rule:nonzero;stroke:#000000;stroke-width:1.0465076;stroke-linecap:butt;stroke-linejoin:miter;stroke-miterlimit:10;stroke-opacity:1;stroke-dasharray:none"
           id="path8446" />
        <path
           d="m 146.389,182.163 112.452,0 0,45.836 -112.452,0 0,-45.836 z"
           style="fill:#ffffff;fill-opacity:1;fill-rule:nonzero;stroke:#000000;stroke-width:1.0465076;stroke-linecap:butt;stroke-linejoin:miter;stroke-miterlimit:10;stroke-opacity:1;stroke-dasharray:none"
           id="path8448" />
        <g
           id="g8450"
           transform="translate(213.4122,309.3833)">
          <path
             d="m 0,0 0,-11.001 38.502,0 0,15.687 -2.852,2.648 -2.445,-2.445 0,-7.741 -1.018,0 0,2.037 -3.667,3.056 -3.157,-3.158 0,-1.731 -1.936,0 0,2.037 -3.259,1.833 -2.343,-2.342 0,-1.936 -2.343,0 -0.814,8.964 -2.445,6.519 L 9.371,5.908 9.371,0 4.889,3.667 0,0 z"
             style="fill:#000000;fill-opacity:1;fill-rule:nonzero;stroke:none"
             id="path8452" />
        </g>
        <g
           id="g8454"
           transform="translate(213.4122,256.62109)">
          <path
             d="m 0,0 0,-11.001 38.502,0 0,15.687 -2.852,2.648 -2.445,-2.445 0,-7.741 -1.018,0 0,2.037 -3.667,3.056 -3.157,-3.158 0,-1.731 -1.936,0 0,2.037 -3.259,1.833 -2.343,-2.342 0,-1.936 -2.343,0 -0.814,8.964 -2.445,6.519 L 9.371,5.908 9.371,0 4.889,3.667 0,0 z"
             style="fill:#000000;fill-opacity:1;fill-rule:nonzero;stroke:none"
             id="path8456" />
        </g>
        <g
           id="g8458"
           transform="translate(234.80231,271.0851)">
          <path
             d="m 0,0 9.371,0 -16.705,-26.483 -10.186,0 L 0,0 z"
             style="fill:#ed1d24;fill-opacity:1;fill-rule:nonzero;stroke:none"
             id="path8460" />
        </g>
        <g
           id="g8462"
           transform="translate(218.56281,188.82719)">
          <path
             d="m 0,0 0,32.348 c 0,0.373 0.267,0.68 0.594,0.68 l 22.551,0 c 0.325,0 0.593,-0.307 0.593,-0.68 L 23.738,0 c 0,-0.375 -0.268,-0.681 -0.593,-0.681 l -22.551,0 C 0.267,-0.681 0,-0.375 0,0"
             style="fill:#00a651;fill-opacity:1;fill-rule:evenodd;stroke:none"
             id="path8464" />
        </g>
        <g
           id="g8466"
           transform="translate(231.5251,208.8557)">
          <path
             d="m 0,0 0.442,-20.492 8.421,0 L 4.082,0 0,0 z m 1.189,12.398 -1.456,0 0.186,-8.752 3.311,0 -2.041,8.752 z M -2.582,0 l -0.44,-20.492 -8.424,0 L -6.663,0 -2.582,0 z m -1.189,12.398 1.457,0 -0.19,-8.752 -3.31,0 2.043,8.752 z"
             style="fill:#ffffff;fill-opacity:1;fill-rule:evenodd;stroke:none"
             id="path8468" />
        </g>
        <g
           id="g8470"
           transform="translate(219.4705,211.2245)">
          <path
             d="m 0,0 21.924,0 0,-1.094 -2.624,0 0,-0.978 -1.13,0 0,0.978 -14.694,0 0,-0.978 -1.129,0 0,0.978 L 0,-1.094 0,0 z"
             style="fill:#ffffff;fill-opacity:1;fill-rule:evenodd;stroke:none"
             id="path8472" />
        </g>
        <g
           id="g8474"
           transform="translate(173.5015,295.27431)">
          <path
             d="m 0,0 c 6.708,0 12.228,5.497 12.228,12.205 0,6.731 -5.52,12.231 -12.228,12.231 -6.732,0 -12.231,-5.5 -12.231,-12.231 C -12.231,5.497 -6.732,0 0,0"
             style="fill:#ffffff;fill-opacity:1;fill-rule:evenodd;stroke:none"
             id="path8476" />
        </g>
        <g
           id="g8478"
           transform="translate(173.5015,295.272)">
          <path
             d="m 0,0 c 6.711,0 12.228,5.499 12.228,12.207 0,6.731 -5.517,12.229 -12.228,12.229 -6.732,0 -12.228,-5.498 -12.228,-12.229 C -12.228,5.499 -6.732,0 0,0 m 0,-3.05 c 8.408,0 15.28,6.873 15.28,15.257 0,8.41 -6.872,15.282 -15.28,15.282 -8.406,0 -15.278,-6.872 -15.278,-15.282 C -15.278,3.823 -8.406,-3.05 0,-3.05"
             style="fill:#ed1d24;fill-opacity:1;fill-rule:evenodd;stroke:none"
             id="path8480" />
        </g>
        <g
           id="g8482"
           transform="translate(173.5015,244.14211)">
          <path
             d="m 0,0 c 6.708,0 12.228,5.496 12.228,12.204 0,6.731 -5.52,12.231 -12.228,12.231 -6.732,0 -12.231,-5.5 -12.231,-12.231 C -12.231,5.496 -6.732,0 0,0"
             style="fill:#ffffff;fill-opacity:1;fill-rule:evenodd;stroke:none"
             id="path8484" />
        </g>
        <g
           id="g8486"
           transform="translate(173.5015,244.1396)">
          <path
             d="m 0,0 c 6.711,0 12.228,5.499 12.228,12.207 0,6.731 -5.517,12.229 -12.228,12.229 -6.732,0 -12.228,-5.498 -12.228,-12.229 C -12.228,5.499 -6.732,0 0,0 m 0,-3.051 c 8.408,0 15.28,6.873 15.28,15.258 0,8.41 -6.872,15.282 -15.28,15.282 -8.406,0 -15.278,-6.872 -15.278,-15.282 0,-8.385 6.872,-15.258 15.278,-15.258"
             style="fill:#ed1d24;fill-opacity:1;fill-rule:evenodd;stroke:none"
             id="path8488" />
        </g>
        <g
           id="g8490"
           transform="translate(166.1274,304.4386)">
          <path
             d="m 0,0 2.02,0.21 c 0.058,-0.458 0.229,-0.82 0.513,-1.087 0.284,-0.266 0.611,-0.4 0.981,-0.4 0.423,0 0.782,0.172 1.075,0.516 C 4.883,-0.417 5.03,0.101 5.03,0.794 5.03,1.443 4.884,1.93 4.593,2.255 4.302,2.58 3.923,2.742 3.457,2.742 2.874,2.742 2.352,2.485 1.891,1.97 l -1.646,0.238 1.039,5.506 5.362,0 0,-1.898 -3.825,0 L 2.504,4.02 c 0.452,0.225 0.914,0.339 1.385,0.339 0.9,0 1.663,-0.328 2.288,-0.982 0.625,-0.654 0.938,-1.503 0.938,-2.547 0,-0.871 -0.253,-1.648 -0.758,-2.331 -0.688,-0.933 -1.643,-1.4 -2.865,-1.4 -0.976,0 -1.772,0.262 -2.388,0.787 C 0.488,-1.59 0.12,-0.885 0,0"
             style="fill:#000000;fill-opacity:1;fill-rule:nonzero;stroke:none"
             id="path8492" />
        </g>
        <g
           id="g8494"
           transform="translate(177.9521,310.6588)">
          <path
             d="m 0,0 c -0.245,0 -0.464,-0.078 -0.657,-0.235 -0.192,-0.156 -0.341,-0.436 -0.447,-0.84 -0.14,-0.524 -0.209,-1.407 -0.209,-2.649 0,-1.24 0.062,-2.093 0.187,-2.558 0.125,-0.464 0.283,-0.773 0.473,-0.926 0.19,-0.154 0.408,-0.232 0.653,-0.232 0.245,0 0.464,0.079 0.657,0.235 0.192,0.156 0.341,0.436 0.447,0.84 0.139,0.52 0.209,1.401 0.209,2.641 0,1.242 -0.062,2.095 -0.187,2.559 C 1,-0.701 0.843,-0.391 0.653,-0.235 0.463,-0.078 0.245,0 0,0 m 0,1.681 c 1.025,0 1.826,-0.365 2.403,-1.096 0.688,-0.866 1.032,-2.302 1.032,-4.309 0,-2.001 -0.347,-3.439 -1.039,-4.315 C 1.823,-8.76 1.025,-9.121 0,-9.121 c -1.03,0 -1.859,0.396 -2.49,1.187 -0.63,0.791 -0.945,2.202 -0.945,4.233 0,1.991 0.347,3.425 1.039,4.3 0.573,0.722 1.371,1.082 2.396,1.082"
             style="fill:#000000;fill-opacity:1;fill-rule:nonzero;stroke:none"
             id="path8496" />
        </g>
        <g
           id="g8498"
           transform="translate(168.2561,258.5392)">
          <path
             d="m 0,0 c 0,-0.404 0.114,-0.719 0.343,-0.945 0.228,-0.226 0.533,-0.339 0.912,-0.339 0.385,0 0.693,0.114 0.924,0.342 0.231,0.229 0.347,0.545 0.347,0.949 0,0.38 -0.115,0.685 -0.343,0.913 C 1.954,1.149 1.652,1.263 1.277,1.263 0.887,1.263 0.577,1.148 0.346,0.917 0.115,0.686 0,0.38 0,0 m -0.188,-4.532 c 0,-0.558 0.143,-0.993 0.43,-1.305 0.286,-0.313 0.643,-0.47 1.071,-0.47 0.419,0 0.765,0.151 1.039,0.452 0.275,0.3 0.412,0.734 0.412,1.302 0,0.495 -0.14,0.893 -0.419,1.194 -0.279,0.301 -0.632,0.451 -1.061,0.451 -0.495,0 -0.865,-0.17 -1.107,-0.512 -0.243,-0.342 -0.365,-0.712 -0.365,-1.112 m -0.231,2.49 c -0.524,0.221 -0.905,0.526 -1.143,0.913 -0.238,0.387 -0.358,0.812 -0.358,1.273 0,0.789 0.276,1.441 0.827,1.956 0.55,0.515 1.334,0.772 2.348,0.772 C 2.261,2.872 3.042,2.615 3.597,2.1 4.153,1.585 4.43,0.933 4.43,0.144 4.43,-0.346 4.303,-0.783 4.048,-1.165 3.793,-1.548 3.435,-1.84 2.973,-2.042 3.56,-2.277 4.006,-2.622 4.311,-3.074 4.617,-3.526 4.77,-4.048 4.77,-4.64 4.77,-5.616 4.458,-6.41 3.835,-7.021 3.212,-7.632 2.383,-7.937 1.349,-7.937 c -0.962,0 -1.763,0.252 -2.403,0.757 -0.755,0.597 -1.132,1.415 -1.132,2.454 0,0.572 0.141,1.098 0.425,1.577 0.284,0.478 0.731,0.847 1.342,1.107"
             style="fill:#000000;fill-opacity:1;fill-rule:nonzero;stroke:none"
             id="path8500" />
        </g>
        <g
           id="g8502"
           transform="translate(177.9521,259.73)">
          <path
             d="m 0,0 c -0.245,0 -0.464,-0.078 -0.657,-0.235 -0.192,-0.156 -0.341,-0.436 -0.447,-0.84 -0.14,-0.525 -0.209,-1.407 -0.209,-2.649 0,-1.24 0.062,-2.093 0.187,-2.558 0.125,-0.464 0.283,-0.772 0.473,-0.926 0.19,-0.154 0.408,-0.232 0.653,-0.232 0.245,0 0.464,0.079 0.657,0.235 0.192,0.157 0.341,0.436 0.447,0.84 0.139,0.52 0.209,1.401 0.209,2.641 0,1.242 -0.062,2.095 -0.187,2.559 C 1,-0.701 0.843,-0.391 0.653,-0.235 0.463,-0.078 0.245,0 0,0 m 0,1.681 c 1.025,0 1.826,-0.365 2.403,-1.096 0.688,-0.866 1.032,-2.302 1.032,-4.309 0,-2.001 -0.347,-3.439 -1.039,-4.315 C 1.823,-8.76 1.025,-9.121 0,-9.121 c -1.03,0 -1.859,0.396 -2.49,1.187 -0.63,0.791 -0.945,2.202 -0.945,4.232 0,1.992 0.347,3.426 1.039,4.301 0.573,0.722 1.371,1.082 2.396,1.082"
             style="fill:#000000;fill-opacity:1;fill-rule:nonzero;stroke:none"
             id="path8504" />
        </g>
        <g
           id="g8506"
           transform="translate(173.5015,193.2128)">
          <path
             d="m 0,0 c 6.708,0 12.228,5.497 12.228,12.205 0,6.731 -5.52,12.231 -12.228,12.231 -6.732,0 -12.231,-5.5 -12.231,-12.231 C -12.231,5.497 -6.732,0 0,0"
             style="fill:#ffffff;fill-opacity:1;fill-rule:evenodd;stroke:none"
             id="path8508" />
        </g>
        <g
           id="g8510"
           transform="translate(173.5015,193.2103)">
          <path
             d="m 0,0 c 6.711,0 12.228,5.499 12.228,12.207 0,6.731 -5.517,12.229 -12.228,12.229 -6.732,0 -12.228,-5.498 -12.228,-12.229 C -12.228,5.499 -6.732,0 0,0 m 0,-3.05 c 8.408,0 15.28,6.873 15.28,15.257 0,8.411 -6.872,15.282 -15.28,15.282 -8.406,0 -15.278,-6.871 -15.278,-15.282 C -15.278,3.823 -8.406,-3.05 0,-3.05"
             style="fill:#ed1d24;fill-opacity:1;fill-rule:evenodd;stroke:none"
             id="path8512" />
        </g>
        <g
           id="g8514"
           transform="translate(166.7973,199.86079)">
          <path
             d="m 0,0 -2.028,0 0,7.642 C -2.768,6.949 -3.642,6.437 -4.647,6.105 l 0,1.84 c 0.529,0.173 1.104,0.501 1.724,0.985 0.621,0.483 1.047,1.048 1.278,1.692 L 0,10.622 0,0 z"
             style="fill:#000000;fill-opacity:1;fill-rule:nonzero;stroke:none"
             id="path8516" />
        </g>
        <g
           id="g8518"
           transform="translate(172.5168,208.8007)">
          <path
             d="m 0,0 c -0.245,0 -0.464,-0.078 -0.657,-0.233 -0.192,-0.157 -0.341,-0.437 -0.447,-0.841 -0.14,-0.525 -0.209,-1.407 -0.209,-2.649 0,-1.241 0.062,-2.094 0.187,-2.558 0.125,-0.465 0.283,-0.773 0.473,-0.927 0.19,-0.154 0.408,-0.231 0.653,-0.231 0.245,0 0.464,0.078 0.657,0.235 0.192,0.156 0.341,0.436 0.447,0.839 0.139,0.521 0.209,1.401 0.209,2.642 0,1.242 -0.062,2.094 -0.187,2.558 C 1,-0.7 0.843,-0.39 0.653,-0.233 0.463,-0.078 0.245,0 0,0 m 0,1.682 c 1.025,0 1.826,-0.366 2.403,-1.097 0.688,-0.866 1.032,-2.301 1.032,-4.308 0,-2.001 -0.347,-3.44 -1.039,-4.315 C 1.823,-8.76 1.025,-9.12 0,-9.12 c -1.03,0 -1.859,0.395 -2.489,1.187 -0.631,0.791 -0.946,2.202 -0.946,4.232 0,1.992 0.347,3.425 1.039,4.301 0.573,0.721 1.371,1.082 2.396,1.082"
             style="fill:#000000;fill-opacity:1;fill-rule:nonzero;stroke:none"
             id="path8520" />
        </g>
        <g
           id="g8522"
           transform="translate(179.9967,208.8007)">
          <path
             d="m 0,0 c -0.245,0 -0.464,-0.078 -0.657,-0.233 -0.192,-0.157 -0.341,-0.437 -0.447,-0.841 -0.14,-0.525 -0.209,-1.407 -0.209,-2.649 0,-1.241 0.062,-2.094 0.187,-2.558 0.125,-0.465 0.283,-0.773 0.473,-0.927 0.19,-0.154 0.408,-0.231 0.653,-0.231 0.245,0 0.464,0.078 0.657,0.235 0.192,0.156 0.341,0.436 0.447,0.839 0.14,0.521 0.209,1.401 0.209,2.642 0,1.242 -0.062,2.094 -0.187,2.558 C 1,-0.7 0.843,-0.39 0.653,-0.233 0.463,-0.078 0.245,0 0,0 m 0,1.682 c 1.025,0 1.826,-0.366 2.403,-1.097 0.688,-0.866 1.032,-2.301 1.032,-4.308 0,-2.001 -0.347,-3.44 -1.039,-4.315 C 1.823,-8.76 1.025,-9.12 0,-9.12 c -1.029,0 -1.859,0.395 -2.489,1.187 -0.631,0.791 -0.946,2.202 -0.946,4.232 0,1.992 0.347,3.425 1.039,4.301 0.573,0.721 1.371,1.082 2.396,1.082"
             style="fill:#000000;fill-opacity:1;fill-rule:nonzero;stroke:none"
             id="path8524" />
        </g>
      </g>
    </g>
  </g>
</svg>
