<svg xmlns="http://www.w3.org/2000/svg" width="212.045" height="211.907"><path style="fill:#007ac2;fill-opacity:1;fill-rule:evenodd;stroke:none" d="M283.71 620.678c46.55 0 84.855-38.143 84.855-84.693 0-46.705-38.306-84.868-84.855-84.868-46.712 0-84.868 38.163-84.868 84.868 0 46.55 38.156 84.693 84.868 84.693" transform="translate(-177.697 -429.95)"/><path style="fill:#ed1d24;fill-opacity:1;fill-rule:evenodd;stroke:none" d="M283.71 620.694c46.562 0 84.855-38.156 84.855-84.706 0-46.711-38.293-84.855-84.855-84.855-46.712 0-84.855 38.144-84.855 84.855 0 46.55 38.143 84.706 84.855 84.706m0 21.164c58.341 0 106.031-47.69 106.031-105.87 0-58.36-47.69-106.038-106.031-106.038-58.329 0-106.013 47.678-106.013 106.038 0 58.18 47.684 105.87 106.013 105.87" transform="translate(-177.697 -429.95)"/><path d="M252.18 600.129h23.078v-128.45H252.18v128.45zM294.18 600.129h23.078v-128.45H294.18v128.45z" style="fill:#fff;fill-opacity:1;fill-rule:evenodd;stroke:none" transform="translate(-177.697 -429.95)"/><path style="fill:#ed1d24;fill-opacity:1;fill-rule:nonzero;stroke:none" d="m348.278 610.792-140.902-137.74 11.767-12.042 140.914 137.74-11.78 12.042z" transform="translate(-177.697 -429.95)"/></svg>