<?xml version="1.0" encoding="UTF-8" standalone="no"?>
<!-- Created with Inkscape (http://www.inkscape.org/) -->

<svg
   xmlns:dc="http://purl.org/dc/elements/1.1/"
   xmlns:cc="http://creativecommons.org/ns#"
   xmlns:rdf="http://www.w3.org/1999/02/22-rdf-syntax-ns#"
   xmlns:svg="http://www.w3.org/2000/svg"
   xmlns="http://www.w3.org/2000/svg"
   xmlns:sodipodi="http://sodipodi.sourceforge.net/DTD/sodipodi-0.dtd"
   xmlns:inkscape="http://www.inkscape.org/namespaces/inkscape"
   width="114.07766"
   height="153.71819"
   id="svg3949"
   version="1.1"
   inkscape:version="0.47 r22583"
   sodipodi:docname="Cyprus road sign drive on the left.svg">
  <defs
     id="defs3951">
    <inkscape:perspective
       sodipodi:type="inkscape:persp3d"
       inkscape:vp_x="0 : 526.18109 : 1"
       inkscape:vp_y="0 : 1000 : 0"
       inkscape:vp_z="744.09448 : 526.18109 : 1"
       inkscape:persp3d-origin="372.04724 : 350.78739 : 1"
       id="perspective3957" />
    <inkscape:perspective
       id="perspective3866"
       inkscape:persp3d-origin="0.5 : 0.33333333 : 1"
       inkscape:vp_z="1 : 0.5 : 1"
       inkscape:vp_y="0 : 1000 : 0"
       inkscape:vp_x="0 : 0.5 : 1"
       sodipodi:type="inkscape:persp3d" />
    <clipPath
       clipPathUnits="userSpaceOnUse"
       id="clipPath3544">
      <path
         d="m 224.645,53.859 54.567,0 0,86.456 -54.567,0 0,-86.456 z"
         id="path3546" />
    </clipPath>
    <clipPath
       clipPathUnits="userSpaceOnUse"
       id="clipPath3524">
      <path
         d="M 0,0 311,0 311,595 0,595 0,0 z"
         id="path3526" />
    </clipPath>
    <inkscape:perspective
       id="perspective6206"
       inkscape:persp3d-origin="0.5 : 0.33333333 : 1"
       inkscape:vp_z="1 : 0.5 : 1"
       inkscape:vp_y="0 : 1000 : 0"
       inkscape:vp_x="0 : 0.5 : 1"
       sodipodi:type="inkscape:persp3d" />
    <clipPath
       clipPathUnits="userSpaceOnUse"
       id="clipPath4388">
      <path
         d="m 224.504,464.882 34.299,0 0,58.11 -34.299,0 0,-58.11 z"
         id="path4390" />
    </clipPath>
    <clipPath
       clipPathUnits="userSpaceOnUse"
       id="clipPath4374">
      <path
         d="M 0,0 311,0 311,595 0,595 0,0 z"
         id="path4376" />
    </clipPath>
    <inkscape:perspective
       id="perspective6324"
       inkscape:persp3d-origin="0.5 : 0.33333333 : 1"
       inkscape:vp_z="1 : 0.5 : 1"
       inkscape:vp_y="0 : 1000 : 0"
       inkscape:vp_x="0 : 0.5 : 1"
       sodipodi:type="inkscape:persp3d" />
    <clipPath
       clipPathUnits="userSpaceOnUse"
       id="clipPath4554">
      <path
         d="m 153.071,381.26 55.275,0 0,58.11 -55.275,0 0,-58.11 z"
         id="path4556" />
    </clipPath>
    <clipPath
       clipPathUnits="userSpaceOnUse"
       id="clipPath4528">
      <path
         d="m 92.693,381.26 55.275,0 0,58.11 -55.275,0 0,-58.11 z"
         id="path4530" />
    </clipPath>
    <clipPath
       clipPathUnits="userSpaceOnUse"
       id="clipPath4440">
      <path
         d="m 214.016,381.26 55.276,0 0,58.11 -55.276,0 0,-58.11 z"
         id="path4442" />
    </clipPath>
    <inkscape:perspective
       id="perspective6436"
       inkscape:persp3d-origin="0.5 : 0.33333333 : 1"
       inkscape:vp_z="1 : 0.5 : 1"
       inkscape:vp_y="0 : 1000 : 0"
       inkscape:vp_x="0 : 0.5 : 1"
       sodipodi:type="inkscape:persp3d" />
    <clipPath
       clipPathUnits="userSpaceOnUse"
       id="clipPath4554-4">
      <path
         d="m 153.071,381.26 55.275,0 0,58.11 -55.275,0 0,-58.11 z"
         id="path4556-0" />
    </clipPath>
    <clipPath
       clipPathUnits="userSpaceOnUse"
       id="clipPath4440-9">
      <path
         d="m 214.016,381.26 55.276,0 0,58.11 -55.276,0 0,-58.11 z"
         id="path4442-4" />
    </clipPath>
    <inkscape:perspective
       id="perspective6436-8"
       inkscape:persp3d-origin="0.5 : 0.33333333 : 1"
       inkscape:vp_z="1 : 0.5 : 1"
       inkscape:vp_y="0 : 1000 : 0"
       inkscape:vp_x="0 : 0.5 : 1"
       sodipodi:type="inkscape:persp3d" />
    <clipPath
       clipPathUnits="userSpaceOnUse"
       id="clipPath4554-8">
      <path
         d="m 153.071,381.26 55.275,0 0,58.11 -55.275,0 0,-58.11 z"
         id="path4556-2" />
    </clipPath>
    <clipPath
       clipPathUnits="userSpaceOnUse"
       id="clipPath4440-4">
      <path
         d="m 214.016,381.26 55.276,0 0,58.11 -55.276,0 0,-58.11 z"
         id="path4442-5" />
    </clipPath>
    <inkscape:perspective
       id="perspective6552"
       inkscape:persp3d-origin="0.5 : 0.33333333 : 1"
       inkscape:vp_z="1 : 0.5 : 1"
       inkscape:vp_y="0 : 1000 : 0"
       inkscape:vp_x="0 : 0.5 : 1"
       sodipodi:type="inkscape:persp3d" />
    <clipPath
       clipPathUnits="userSpaceOnUse"
       id="clipPath4492">
      <path
         d="m 32.598,287.716 55.276,0 0,50.315 -55.276,0 0,-50.315 z"
         id="path4494" />
    </clipPath>
    <inkscape:perspective
       id="perspective6625"
       inkscape:persp3d-origin="0.5 : 0.33333333 : 1"
       inkscape:vp_z="1 : 0.5 : 1"
       inkscape:vp_y="0 : 1000 : 0"
       inkscape:vp_x="0 : 0.5 : 1"
       sodipodi:type="inkscape:persp3d" />
    <clipPath
       clipPathUnits="userSpaceOnUse"
       id="clipPath5156">
      <path
         d="m 32.598,20.626 71.434,0 0,121.106 -71.434,0 0,-121.106 z"
         id="path5158" />
    </clipPath>
    <inkscape:perspective
       id="perspective7319"
       inkscape:persp3d-origin="0.5 : 0.33333333 : 1"
       inkscape:vp_z="1 : 0.5 : 1"
       inkscape:vp_y="0 : 1000 : 0"
       inkscape:vp_x="0 : 0.5 : 1"
       sodipodi:type="inkscape:persp3d" />
    <clipPath
       clipPathUnits="userSpaceOnUse"
       id="clipPath4482">
      <path
         d="m 32.598,382.691 55.276,0 0,55.248 -55.276,0 0,-55.248 z"
         id="path4484" />
    </clipPath>
    <clipPath
       clipPathUnits="userSpaceOnUse"
       id="clipPath4470">
      <path
         d="m 32.598,381.26 55.276,0 0,58.11 -55.276,0 0,-58.11 z"
         id="path4472" />
    </clipPath>
    <inkscape:perspective
       id="perspective7373"
       inkscape:persp3d-origin="0.5 : 0.33333333 : 1"
       inkscape:vp_z="1 : 0.5 : 1"
       inkscape:vp_y="0 : 1000 : 0"
       inkscape:vp_x="0 : 0.5 : 1"
       sodipodi:type="inkscape:persp3d" />
    <clipPath
       clipPathUnits="userSpaceOnUse"
       id="clipPath4482-6">
      <path
         d="m 32.598,382.691 55.276,0 0,55.248 -55.276,0 0,-55.248 z"
         id="path4484-1" />
    </clipPath>
    <clipPath
       clipPathUnits="userSpaceOnUse"
       id="clipPath4470-4">
      <path
         d="m 32.598,381.26 55.276,0 0,58.11 -55.276,0 0,-58.11 z"
         id="path4472-2" />
    </clipPath>
    <inkscape:perspective
       id="perspective8566"
       inkscape:persp3d-origin="0.5 : 0.33333333 : 1"
       inkscape:vp_z="1 : 0.5 : 1"
       inkscape:vp_y="0 : 1000 : 0"
       inkscape:vp_x="0 : 0.5 : 1"
       sodipodi:type="inkscape:persp3d" />
    <clipPath
       clipPathUnits="userSpaceOnUse"
       id="clipPath7526">
      <path
         d="m 42.52,409.134 112.913,0 0,113.858 -112.913,0 0,-113.858 z"
         id="path7528" />
    </clipPath>
    <clipPath
       clipPathUnits="userSpaceOnUse"
       id="clipPath7514">
      <path
         d="m 46.174,409.134 105.603,0 0,113.858 -105.603,0 0,-113.858 z"
         id="path7516" />
    </clipPath>
    <clipPath
       clipPathUnits="userSpaceOnUse"
       id="clipPath7474">
      <path
         d="m 42.52,409.134 112.913,0 0,113.858 -112.913,0 0,-113.858 z"
         id="path7476" />
    </clipPath>
    <clipPath
       clipPathUnits="userSpaceOnUse"
       id="clipPath7462">
      <path
         d="m 46.174,409.134 105.603,0 0,113.858 -105.603,0 0,-113.858 z"
         id="path7464" />
    </clipPath>
    <clipPath
       clipPathUnits="userSpaceOnUse"
       id="clipPath7450">
      <path
         d="m 42.52,409.134 112.913,0 0,113.858 -112.913,0 0,-113.858 z"
         id="path7452" />
    </clipPath>
    <inkscape:perspective
       id="perspective9062"
       inkscape:persp3d-origin="0.5 : 0.33333333 : 1"
       inkscape:vp_z="1 : 0.5 : 1"
       inkscape:vp_y="0 : 1000 : 0"
       inkscape:vp_x="0 : 0.5 : 1"
       sodipodi:type="inkscape:persp3d" />
    <clipPath
       clipPathUnits="userSpaceOnUse"
       id="clipPath7526-3">
      <path
         d="m 42.52,409.134 112.913,0 0,113.858 -112.913,0 0,-113.858 z"
         id="path7528-2" />
    </clipPath>
    <clipPath
       clipPathUnits="userSpaceOnUse"
       id="clipPath7514-2">
      <path
         d="m 46.174,409.134 105.603,0 0,113.858 -105.603,0 0,-113.858 z"
         id="path7516-1" />
    </clipPath>
    <clipPath
       clipPathUnits="userSpaceOnUse"
       id="clipPath7474-6">
      <path
         d="m 42.52,409.134 112.913,0 0,113.858 -112.913,0 0,-113.858 z"
         id="path7476-8" />
    </clipPath>
    <clipPath
       clipPathUnits="userSpaceOnUse"
       id="clipPath7462-5">
      <path
         d="m 46.174,409.134 105.603,0 0,113.858 -105.603,0 0,-113.858 z"
         id="path7464-7" />
    </clipPath>
    <clipPath
       clipPathUnits="userSpaceOnUse"
       id="clipPath7450-6">
      <path
         d="m 42.52,409.134 112.913,0 0,113.858 -112.913,0 0,-113.858 z"
         id="path7452-1" />
    </clipPath>
    <inkscape:perspective
       id="perspective10342"
       inkscape:persp3d-origin="0.5 : 0.33333333 : 1"
       inkscape:vp_z="1 : 0.5 : 1"
       inkscape:vp_y="0 : 1000 : 0"
       inkscape:vp_x="0 : 0.5 : 1"
       sodipodi:type="inkscape:persp3d" />
    <clipPath
       clipPathUnits="userSpaceOnUse"
       id="clipPath8110">
      <path
         d="m 48.189,259.37 76.28,0 0,103.465 -76.28,0 0,-103.465 z"
         id="path8112" />
    </clipPath>
    <clipPath
       clipPathUnits="userSpaceOnUse"
       id="clipPath8098">
      <path
         d="M 0,0 311,0 311,595 0,595 0,0 z"
         id="path8100" />
    </clipPath>
    <clipPath
       clipPathUnits="userSpaceOnUse"
       id="clipPath8086">
      <path
         d="m 48.189,262.125 76.28,0 0,100.71 -76.28,0 0,-100.71 z"
         id="path8088" />
    </clipPath>
    <inkscape:perspective
       id="perspective10643"
       inkscape:persp3d-origin="0.5 : 0.33333333 : 1"
       inkscape:vp_z="1 : 0.5 : 1"
       inkscape:vp_y="0 : 1000 : 0"
       inkscape:vp_x="0 : 0.5 : 1"
       sodipodi:type="inkscape:persp3d" />
    <clipPath
       clipPathUnits="userSpaceOnUse"
       id="clipPath8110-8">
      <path
         d="m 48.189,259.37 76.28,0 0,103.465 -76.28,0 0,-103.465 z"
         id="path8112-9" />
    </clipPath>
    <clipPath
       clipPathUnits="userSpaceOnUse"
       id="clipPath8098-2">
      <path
         d="M 0,0 311,0 311,595 0,595 0,0 z"
         id="path8100-7" />
    </clipPath>
    <clipPath
       clipPathUnits="userSpaceOnUse"
       id="clipPath8086-9">
      <path
         d="m 48.189,262.125 76.28,0 0,100.71 -76.28,0 0,-100.71 z"
         id="path8088-5" />
    </clipPath>
  </defs>
  <sodipodi:namedview
     id="base"
     pagecolor="#ffffff"
     bordercolor="#666666"
     borderopacity="1.0"
     inkscape:pageopacity="0.0"
     inkscape:pageshadow="2"
     inkscape:zoom="1.1813655"
     inkscape:cx="62.16977"
     inkscape:cy="152.3841"
     inkscape:document-units="px"
     inkscape:current-layer="layer1"
     showgrid="false"
     inkscape:window-width="1600"
     inkscape:window-height="838"
     inkscape:window-x="-8"
     inkscape:window-y="-8"
     inkscape:window-maximized="1" />
  <metadata
     id="metadata3954">
    <rdf:RDF>
      <cc:Work
         rdf:about="">
        <dc:format>image/svg+xml</dc:format>
        <dc:type
           rdf:resource="http://purl.org/dc/dcmitype/StillImage" />
        <dc:title></dc:title>
      </cc:Work>
    </rdf:RDF>
  </metadata>
  <g
     inkscape:label="Livello 1"
     inkscape:groupmode="layer"
     id="layer1"
     transform="translate(-69.729088,-401.34899)">
    <path
       id="path8080"
       style="fill:#ffdb00;fill-opacity:1;fill-rule:nonzero;stroke:none"
       d="m 182.9905,554.25094 -112.445157,-0.76138 0,-151.30219 112.445157,-0.0221 0,152.08569 z" />
    <g
       transform="matrix(1.5796187,0,0,-1.5796187,-9.374048,972.47)"
       id="g8082">
      <g
         id="g8084"
         clip-path="url(#clipPath8086-9)">
        <g
           id="g8090"
           transform="translate(121.7791,264.75951)">
          <path
             d="m 0,0 -71.185,0.482 0,95.784 L 0,96.28 0,0 z"
             style="fill:none;stroke:#000000;stroke-width:1.03347731;stroke-linecap:butt;stroke-linejoin:miter;stroke-miterlimit:4;stroke-opacity:1;stroke-dasharray:none"
             id="path8092" />
        </g>
      </g>
    </g>
    <g
       transform="matrix(1.5796187,0,0,-1.5796187,-9.374048,972.47)"
       id="g8094">
      <g
         id="g8096"
         clip-path="url(#clipPath8098-2)">
        <g
           id="g8102"
           transform="translate(78.094696,317.9173)">
          <path
             d="M 0,0 -9.986,0 8.488,32.34 27.264,0 0,0 z"
             style="fill:#ffffff;fill-opacity:1;fill-rule:evenodd;stroke:none"
             id="path8104" />
        </g>
      </g>
    </g>
    <g
       transform="matrix(1.5796187,0,0,-1.5796187,-9.374048,972.47)"
       id="g8106">
      <g
         id="g8108"
         clip-path="url(#clipPath8110-8)">
        <g
           id="g8114"
           transform="translate(70.124802,319.27789)">
          <path
             d="M 0,0 33.042,0 16.527,28.588 0,0 z m 34.661,-3.693 c 0.983,0 1.887,0.528 2.379,1.384 0.504,0.855 0.504,1.91 0,2.766 l -18.12,31.37 c -0.495,0.854 -1.405,1.379 -2.393,1.379 -0.99,0 -1.904,-0.529 -2.398,-1.387 L -3.996,0.457 c -0.493,-0.856 -0.493,-1.911 0,-2.766 0.492,-0.856 1.418,-1.384 2.402,-1.384 l 36.255,0 z"
             style="fill:#ed1d24;fill-opacity:1;fill-rule:evenodd;stroke:none"
             id="path8116" />
        </g>
        <g
           id="g8118"
           transform="translate(118.30679,269.4254)">
          <path
             d="m 0,0 -63.956,0.278 0,27.28 L 0,27.633 0,0 z"
             style="fill:#ed1d24;fill-opacity:1;fill-rule:nonzero;stroke:none"
             id="path8120" />
        </g>
        <g
           id="g8122"
           transform="translate(118.30679,269.4254)">
          <path
             d="m 0,0 -63.956,0.278 0,27.28 L 0,27.633 0,0 z"
             style="fill:none;stroke:#000000;stroke-width:0.51673865;stroke-linecap:butt;stroke-linejoin:miter;stroke-miterlimit:4;stroke-opacity:1;stroke-dasharray:none"
             id="path8124" />
        </g>
        <g
           id="g8126"
           transform="translate(88.747696,323.70911)">
          <path
             d="m 0,0 c 0,-1.298 -1.051,-2.35 -2.35,-2.35 -1.298,0 -2.35,1.052 -2.35,2.35 0,1.299 1.052,2.352 2.35,2.352 C -1.051,2.352 0,1.299 0,0"
             style="fill:#000000;fill-opacity:1;fill-rule:nonzero;stroke:none"
             id="path8128" />
        </g>
        <g
           id="g8130"
           transform="translate(89.334396,338.31461)">
          <path
             d="M 0,0 C -0.32,2.107 -2.689,3.42 -4.57,2.25 -5.891,1.429 -6.426,-0.432 -5.781,-1.858 l 2.29,-9.023 0.958,-0.014 2.138,8.717 c 0.203,0.573 0.438,1.116 0.438,1.734"
             style="fill:#000000;fill-opacity:1;fill-rule:nonzero;stroke:none"
             id="path8132" />
        </g>
        <g
           id="g8134"
           transform="translate(70.714005,287.62489)">
          <path
             d="m 0,0 0,5.608 4.158,0 0,-0.948 -3.026,0 0,-1.244 2.816,0 0,-0.945 -2.816,0 0,-1.526 3.134,0 L 4.266,0 0,0 z"
             style="fill:#ffffff;fill-opacity:1;fill-rule:nonzero;stroke:none"
             id="path8136" />
        </g>
        <g
           id="g8138"
           transform="translate(76.076996,291.05299)">
          <path
             d="m 0,0 3.631,0 0,-0.949 L 0,-0.949 0,0 z m -0.21,2.18 4.051,0 0,-0.949 -4.051,0 0,0.949 z m -0.107,-4.663 4.266,0 0,-0.945 -4.266,0 0,0.945 z"
             style="fill:#ffffff;fill-opacity:1;fill-rule:nonzero;stroke:none"
             id="path8140" />
        </g>
        <g
           id="g8142"
           transform="translate(81.919205,290.43291)">
          <path
             d="m 0,0 c 0,-0.635 0.147,-1.116 0.44,-1.444 0.293,-0.328 0.665,-0.492 1.117,-0.492 0.451,0 0.821,0.163 1.111,0.488 0.289,0.325 0.434,0.813 0.434,1.463 0,0.643 -0.141,1.123 -0.422,1.439 C 2.397,1.77 2.024,1.928 1.557,1.928 1.09,1.928 0.714,1.768 0.428,1.448 0.143,1.128 0,0.645 0,0 m -1.167,-0.038 c 0,0.571 0.085,1.051 0.256,1.438 0.128,0.286 0.301,0.542 0.523,0.769 0.22,0.227 0.462,0.395 0.725,0.505 0.349,0.148 0.752,0.222 1.208,0.222 0.827,0 1.487,-0.256 1.985,-0.769 0.494,-0.513 0.743,-1.225 0.743,-2.138 0,-0.906 -0.246,-1.614 -0.738,-2.126 -0.493,-0.511 -1.151,-0.767 -1.974,-0.767 -0.834,0 -1.497,0.255 -1.99,0.764 -0.492,0.508 -0.738,1.209 -0.738,2.102"
             style="fill:#ffffff;fill-opacity:1;fill-rule:nonzero;stroke:none"
             id="path8144" />
        </g>
        <g
           id="g8146"
           transform="translate(90.327698,288.5699)">
          <path
             d="M 0,0 -1.262,3.355 -2.487,0 0,0 z m 1.595,-0.945 -5.627,0 2.184,5.608 1.198,0 2.245,-5.608 z"
             style="fill:#ffffff;fill-opacity:1;fill-rule:nonzero;stroke:none"
             id="path8148" />
        </g>
        <g
           id="g8150"
           transform="translate(93.223801,290.43291)">
          <path
             d="m 0,0 c 0,-0.635 0.147,-1.116 0.44,-1.444 0.293,-0.328 0.666,-0.492 1.117,-0.492 0.451,0 0.821,0.163 1.111,0.488 0.289,0.325 0.435,0.813 0.435,1.463 0,0.643 -0.142,1.123 -0.423,1.439 C 2.397,1.77 2.024,1.928 1.557,1.928 1.09,1.928 0.714,1.768 0.428,1.448 0.143,1.128 0,0.645 0,0 m -1.167,-0.038 c 0,0.571 0.086,1.051 0.256,1.438 0.128,0.286 0.301,0.542 0.523,0.769 0.22,0.227 0.462,0.395 0.725,0.505 0.349,0.148 0.752,0.222 1.209,0.222 0.826,0 1.486,-0.256 1.984,-0.769 0.494,-0.513 0.743,-1.225 0.743,-2.138 0,-0.906 -0.246,-1.614 -0.738,-2.126 -0.492,-0.511 -1.15,-0.767 -1.974,-0.767 -0.834,0 -1.497,0.255 -1.989,0.764 -0.493,0.508 -0.739,1.209 -0.739,2.102"
             style="fill:#ffffff;fill-opacity:1;fill-rule:nonzero;stroke:none"
             id="path8152" />
        </g>
        <g
           id="g8154"
           transform="translate(98.2276,293.2332)">
          <path
             d="m 0,0 3.883,0 0,-0.949 -2.487,0 1.45,-1.729 -1.599,-1.985 2.755,0 0,-0.945 -4.075,0 0,1.048 1.504,1.882 L 0,-1.01 0,0 z"
             style="fill:#ffffff;fill-opacity:1;fill-rule:nonzero;stroke:none"
             id="path8156" />
        </g>
        <g
           id="g8158"
           transform="translate(65.286804,282.5981)">
          <path
             d="m 0,0 c 0,-0.635 0.147,-1.117 0.44,-1.444 0.293,-0.328 0.665,-0.492 1.117,-0.492 0.451,0 0.821,0.164 1.111,0.487 0.289,0.327 0.434,0.814 0.434,1.464 0,0.643 -0.141,1.123 -0.422,1.439 C 2.397,1.77 2.024,1.928 1.557,1.928 1.09,1.928 0.714,1.767 0.428,1.449 0.143,1.127 0,0.645 0,0 m -1.167,-0.038 c 0,0.571 0.086,1.051 0.256,1.438 0.128,0.286 0.301,0.542 0.523,0.769 0.22,0.227 0.462,0.395 0.725,0.505 0.349,0.148 0.752,0.222 1.208,0.222 0.827,0 1.487,-0.256 1.985,-0.769 0.494,-0.513 0.743,-1.225 0.743,-2.138 0,-0.906 -0.246,-1.615 -0.738,-2.126 -0.492,-0.512 -1.15,-0.767 -1.974,-0.767 -0.834,0 -1.497,0.254 -1.99,0.764 -0.492,0.508 -0.738,1.209 -0.738,2.102"
             style="fill:#ffffff;fill-opacity:1;fill-rule:nonzero;stroke:none"
             id="path8160" />
        </g>
        <g
           id="g8162"
           transform="translate(69.873596,279.79021)">
          <path
             d="m 0,0 1.917,2.927 -1.737,2.681 1.323,0 1.125,-1.801 1.102,1.801 1.312,0 L 3.298,2.884 5.214,0 3.849,0 2.605,1.94 1.358,0 0,0 z"
             style="fill:#ffffff;fill-opacity:1;fill-rule:nonzero;stroke:none"
             id="path8164" />
        </g>
        <g
           id="g8166"
           transform="translate(75.673294,279.79021)">
          <path
             d="m 0,0 0,5.608 1.132,0 0,-2.207 2.219,0 0,2.207 1.132,0 0,-5.608 -1.132,0 0,2.452 -2.219,0 L 1.132,0 0,0 z"
             style="fill:#ffffff;fill-opacity:1;fill-rule:nonzero;stroke:none"
             id="path8168" />
        </g>
        <g
           id="g8170"
           transform="translate(81.312103,279.79021)">
          <path
             d="m 0,0 0,5.608 1.695,0 1.017,-3.825 1.007,3.825 1.698,0 0,-5.608 -1.052,0 0,4.415 L 3.252,0 2.161,0 1.052,4.415 1.052,0 0,0 z"
             style="fill:#ffffff;fill-opacity:1;fill-rule:nonzero;stroke:none"
             id="path8172" />
        </g>
        <g
           id="g8174"
           transform="translate(90.826294,282.009)">
          <path
             d="M 0,0 -0.773,2.081 -1.53,0 0,0 z m 2.085,-2.219 -1.232,0 -0.489,1.274 -2.242,0 -0.463,-1.274 -1.201,0 2.184,5.608 1.197,0 2.246,-5.608 z"
             style="fill:#ffffff;fill-opacity:1;fill-rule:nonzero;stroke:none"
             id="path8176" />
        </g>
        <g
           id="g8178"
           transform="translate(94.123901,279.79021)">
          <path
             d="m 0,0 0,4.66 -1.664,0 0,0.948 4.457,0 0,-0.948 -1.661,0 L 1.132,0 0,0 z"
             style="fill:#ffffff;fill-opacity:1;fill-rule:nonzero;stroke:none"
             id="path8180" />
        </g>
        <g
           id="g8182"
           transform="translate(97.3107,279.79021)">
          <path
             d="m 0,0 0,0.945 1.086,0 C 0.421,1.644 0.088,2.396 0.088,3.202 c 0,0.704 0.238,1.297 0.715,1.779 0.477,0.482 1.131,0.723 1.963,0.723 0.824,0 1.475,-0.24 1.955,-0.719 C 5.2,4.505 5.44,3.911 5.44,3.202 5.44,2.396 5.107,1.644 4.441,0.945 l 1.091,0 0,-0.945 -2.567,0 0,0.903 c 0.431,0.161 0.756,0.421 0.978,0.78 0.219,0.36 0.33,0.774 0.33,1.244 0,0.482 -0.127,0.904 -0.381,1.266 C 3.638,4.555 3.263,4.736 2.766,4.736 2.271,4.736 1.896,4.556 1.641,4.197 1.386,3.837 1.259,3.414 1.259,2.927 1.259,2.455 1.368,2.039 1.589,1.681 1.809,1.322 2.136,1.064 2.567,0.903 L 2.567,0 0,0 z"
             style="fill:#ffffff;fill-opacity:1;fill-rule:nonzero;stroke:none"
             id="path8184" />
        </g>
        <g
           id="g8186"
           transform="translate(103.7989,279.79021)">
          <path
             d="m 0,0 0,5.608 1.102,0 2.295,-3.745 0,3.745 1.052,0 L 4.449,0 3.313,0 1.052,3.657 1.052,0 0,0 z"
             style="fill:#ffffff;fill-opacity:1;fill-rule:nonzero;stroke:none"
             id="path8188" />
        </g>
        <g
           id="g8190"
           transform="translate(64.373703,271.9554)">
          <path
             d="m 0,0 -2.005,5.608 1.228,0 1.42,-4.15 1.373,4.15 1.201,0 L 1.209,0 0,0 z"
             style="fill:#ffffff;fill-opacity:1;fill-rule:nonzero;stroke:none"
             id="path8192" />
        </g>
        <g
           id="g8194"
           transform="translate(70.1427,274.3349)">
          <path
             d="M 0,0 C -0.008,0.311 -0.088,0.547 -0.241,0.709 -0.394,0.871 -0.58,0.953 -0.8,0.953 -1.034,0.953 -1.228,0.867 -1.381,0.696 -1.534,0.525 -1.609,0.293 -1.607,0 L 0,0 z M -0.061,-1.086 1.01,-1.266 C 0.872,-1.659 0.654,-1.959 0.357,-2.163 0.06,-2.369 -0.311,-2.471 -0.758,-2.471 c -0.706,0 -1.229,0.23 -1.568,0.692 -0.268,0.37 -0.402,0.837 -0.402,1.4 0,0.674 0.176,1.2 0.528,1.583 0.352,0.38 0.797,0.571 1.335,0.571 0.605,0 1.082,-0.2 1.431,-0.599 0.35,-0.399 0.517,-1.01 0.501,-1.834 l -2.693,0 c 0.008,-0.319 0.094,-0.567 0.26,-0.745 0.166,-0.177 0.373,-0.265 0.62,-0.265 0.168,0 0.31,0.046 0.425,0.138 0.114,0.092 0.201,0.239 0.26,0.444"
             style="fill:#ffffff;fill-opacity:1;fill-rule:nonzero;stroke:none"
             id="path8196" />
        </g>
        <g
           id="g8198"
           transform="translate(73.157303,277.5636)">
          <path
             d="m 0,0 0,-2.062 c 0.347,0.406 0.761,0.608 1.243,0.608 0.248,0 0.471,-0.046 0.67,-0.137 0.199,-0.092 0.348,-0.21 0.45,-0.352 0.099,-0.143 0.168,-0.301 0.207,-0.475 0.035,-0.173 0.054,-0.442 0.054,-0.807 l 0,-2.383 -1.075,0 0,2.146 c 0,0.426 -0.02,0.696 -0.061,0.811 -0.041,0.115 -0.112,0.205 -0.217,0.274 -0.102,0.066 -0.232,0.101 -0.387,0.101 -0.179,0 -0.338,-0.043 -0.479,-0.13 C 0.265,-2.493 0.162,-2.624 0.098,-2.798 0.032,-2.974 0,-3.231 0,-3.573 l 0,-2.035 -1.075,0 0,5.608 L 0,0 z"
             style="fill:#ffffff;fill-opacity:1;fill-rule:nonzero;stroke:none"
             id="path8200" />
        </g>
        <g
           id="g8202"
           transform="translate(76.871994,276.01801)">
          <path
             d="m 0,0 1.075,0 0,-4.063 L 0,-4.063 0,0 z m 0,1.546 1.075,0 0,-0.995 -1.075,0 0,0.995 z"
             style="fill:#ffffff;fill-opacity:1;fill-rule:nonzero;stroke:none"
             id="path8204" />
        </g>
        <g
           id="g8206"
           transform="translate(82.591095,274.81689)">
          <path
             d="m 0,0 -1.06,-0.191 c -0.035,0.211 -0.117,0.371 -0.242,0.478 -0.127,0.107 -0.291,0.161 -0.492,0.161 -0.268,0 -0.482,-0.093 -0.64,-0.277 -0.161,-0.186 -0.24,-0.495 -0.24,-0.928 0,-0.482 0.08,-0.823 0.242,-1.022 0.162,-0.199 0.38,-0.298 0.653,-0.298 0.204,0 0.371,0.057 0.501,0.174 0.13,0.115 0.222,0.315 0.276,0.598 l 1.056,-0.179 c -0.11,-0.485 -0.32,-0.851 -0.632,-1.098 -0.311,-0.248 -0.728,-0.371 -1.251,-0.371 -0.594,0 -1.068,0.187 -1.422,0.562 -0.353,0.375 -0.529,0.894 -0.529,1.557 0,0.671 0.178,1.192 0.532,1.566 0.355,0.374 0.834,0.561 1.439,0.561 0.494,0 0.887,-0.107 1.18,-0.319 C -0.338,0.76 -0.128,0.436 0,0"
             style="fill:#ffffff;fill-opacity:1;fill-rule:nonzero;stroke:none"
             id="path8208" />
        </g>
        <path
           d="m 83.406,271.956 1.075,0 0,5.608 -1.075,0 0,-5.608 z"
           style="fill:#ffffff;fill-opacity:1;fill-rule:nonzero;stroke:none"
           id="path8210" />
        <g
           id="g8212"
           transform="translate(87.996704,274.3349)">
          <path
             d="M 0,0 C -0.008,0.311 -0.088,0.547 -0.241,0.709 -0.394,0.871 -0.58,0.953 -0.8,0.953 -1.034,0.953 -1.228,0.867 -1.381,0.696 -1.534,0.525 -1.609,0.293 -1.607,0 L 0,0 z M -0.061,-1.086 1.01,-1.266 C 0.872,-1.659 0.654,-1.959 0.357,-2.163 0.06,-2.369 -0.311,-2.471 -0.757,-2.471 c -0.707,0 -1.23,0.23 -1.569,0.692 -0.268,0.37 -0.402,0.837 -0.402,1.4 0,0.674 0.176,1.2 0.528,1.583 0.352,0.38 0.797,0.571 1.335,0.571 0.605,0 1.082,-0.2 1.431,-0.599 0.35,-0.399 0.517,-1.01 0.501,-1.834 l -2.693,0 c 0.008,-0.319 0.094,-0.567 0.26,-0.745 0.166,-0.177 0.373,-0.265 0.62,-0.265 0.168,0 0.31,0.046 0.425,0.138 0.114,0.092 0.201,0.239 0.26,0.444"
             style="fill:#ffffff;fill-opacity:1;fill-rule:nonzero;stroke:none"
             id="path8214" />
        </g>
        <g
           id="g8216"
           transform="translate(89.561401,273.1145)">
          <path
             d="m 0,0 1.079,0.165 c 0.046,-0.21 0.139,-0.369 0.279,-0.477 0.14,-0.109 0.337,-0.162 0.589,-0.162 0.278,0 0.487,0.051 0.628,0.153 0.094,0.071 0.141,0.167 0.141,0.287 0,0.081 -0.025,0.149 -0.076,0.202 C 2.586,0.219 2.466,0.266 2.28,0.31 1.413,0.501 0.863,0.676 0.631,0.834 0.31,1.053 0.149,1.358 0.149,1.748 c 0,0.352 0.139,0.648 0.417,0.888 0.278,0.24 0.709,0.36 1.293,0.36 0.556,0 0.969,-0.091 1.24,-0.272 C 3.369,2.543 3.555,2.275 3.657,1.92 L 2.643,1.733 C 2.6,1.891 2.517,2.012 2.397,2.096 2.275,2.181 2.103,2.223 1.878,2.223 1.595,2.223 1.393,2.183 1.27,2.104 1.189,2.048 1.148,1.975 1.148,1.886 1.148,1.81 1.183,1.745 1.255,1.691 1.352,1.619 1.686,1.519 2.26,1.389 2.831,1.259 3.231,1.099 3.458,0.911 3.683,0.719 3.795,0.453 3.795,0.111 3.795,-0.261 3.639,-0.581 3.328,-0.849 3.017,-1.117 2.557,-1.251 1.947,-1.251 1.394,-1.251 0.955,-1.139 0.633,-0.914 0.31,-0.69 0.1,-0.385 0,0"
             style="fill:#ffffff;fill-opacity:1;fill-rule:nonzero;stroke:none"
             id="path8218" />
        </g>
        <g
           id="g8220"
           transform="translate(96.481796,271.9554)">
          <path
             d="m 0,0 0,5.608 4.158,0 0,-0.948 -3.026,0 0,-1.244 2.816,0 0,-0.945 -2.816,0 0,-1.526 3.134,0 L 4.266,0 0,0 z"
             style="fill:#ffffff;fill-opacity:1;fill-rule:nonzero;stroke:none"
             id="path8222" />
        </g>
        <g
           id="g8224"
           transform="translate(101.1835,271.9554)">
          <path
             d="m 0,0 1.465,2.093 -1.404,1.97 1.312,0 0.72,-1.117 0.757,1.117 1.263,0 L 2.735,2.138 4.239,0 2.919,0 2.093,1.259 1.259,0 0,0 z"
             style="fill:#ffffff;fill-opacity:1;fill-rule:nonzero;stroke:none"
             id="path8226" />
        </g>
        <g
           id="g8228"
           transform="translate(106.05701,276.01801)">
          <path
             d="m 0,0 1.075,0 0,-4.063 L 0,-4.063 0,0 z m 0,1.546 1.075,0 0,-0.995 -1.075,0 0,0.995 z"
             style="fill:#ffffff;fill-opacity:1;fill-rule:nonzero;stroke:none"
             id="path8230" />
        </g>
        <g
           id="g8232"
           transform="translate(110.09711,276.0181)">
          <path
             d="m 0,0 0,-0.857 -0.735,0 0,-1.637 c 0,-0.332 0.007,-0.526 0.021,-0.579 0.014,-0.056 0.046,-0.101 0.097,-0.137 0.048,-0.035 0.109,-0.053 0.181,-0.053 0.099,0 0.243,0.034 0.432,0.103 l 0.092,-0.834 c -0.25,-0.107 -0.533,-0.161 -0.849,-0.161 -0.194,0 -0.369,0.034 -0.524,0.097 -0.156,0.067 -0.271,0.151 -0.342,0.253 -0.074,0.104 -0.124,0.243 -0.152,0.419 -0.023,0.125 -0.034,0.378 -0.034,0.758 l 0,1.771 -0.494,0 0,0.857 0.494,0 0,0.807 1.078,0.628 L -0.735,0 0,0 z"
             style="fill:#ffffff;fill-opacity:1;fill-rule:nonzero;stroke:none"
             id="path8234" />
        </g>
      </g>
    </g>
  </g>
</svg>
