<svg xmlns="http://www.w3.org/2000/svg" width="214.341" height="214.203"><defs><clipPath clipPathUnits="userSpaceOnUse" id="a"><path d="M52.735 415.275H87.58v34.016H52.735v-34.016z"/></clipPath></defs><g clip-path="url(#a)" transform="matrix(6.30323 0 0 -6.30323 -335.053 2831.88)"><path d="M0 0c7.465 0 13.608 6.117 13.608 13.582 0 7.49-6.143 13.61-13.608 13.61-7.491 0-13.61-6.12-13.61-13.61C-13.61 6.117-7.491 0 0 0" style="fill:#fff;fill-opacity:1;fill-rule:evenodd;stroke:none" transform="translate(70.157 418.688)"/><path d="M0 0c7.467 0 13.608 6.119 13.608 13.584 0 7.491-6.141 13.608-13.608 13.608-7.491 0-13.608-6.117-13.608-13.608C-13.608 6.119-7.491 0 0 0m0-3.394c9.356 0 17.004 7.648 17.004 16.978 0 9.359-7.648 17.005-17.004 17.005-9.354 0-17.001-7.646-17.001-17.005 0-9.33 7.647-16.978 17.001-16.978" style="fill:#ed1d24;fill-opacity:1;fill-rule:evenodd;stroke:none" transform="translate(70.157 418.686)"/><path d="M0 0c-.6-1.18-2.08-1.987-3.619-1.987-1.82 0-3.899.859-4.22 3.302h2.361c.239-.894.84-1.331 1.778-1.331.9 0 1.301.336 1.522.808C-2 1.247-2 1.77-2 2.241c0 1.197-.319 2.005-1.759 2.005-.66 0-1.139-.219-1.62-.944h-2.18V9.79h7.047V7.802h-4.787V5.661c.621.422 1.22.556 1.96.556C-1.9 6.217-.6 5.544 0 4.448c.28-.522.38-1.179.38-2.325C.38 1.112.259.522 0 0" style="fill:#000;fill-opacity:1;fill-rule:nonzero;stroke:none" transform="translate(69.119 428.34)"/><path d="M0 0c0 1.011-.68 1.55-1.699 1.55-1.02 0-1.698-.539-1.698-1.55v-4.802c0-1.011.678-1.567 1.698-1.567C-.68-6.369 0-5.813 0-4.802V0zm-1.699-8.34c-2.099 0-4.06 1.23-4.06 3.436V.084c0 2.207 1.961 3.437 4.06 3.437 2.1 0 4.079-1.23 4.079-3.437v-4.988C2.38-7.11.401-8.34-1.699-8.34" style="fill:#000;fill-opacity:1;fill-rule:nonzero;stroke:none" transform="translate(76.655 434.693)"/></g></svg>