<svg xmlns="http://www.w3.org/2000/svg" width="206.939" height="322.991"><defs><clipPath clipPathUnits="userSpaceOnUse" id="b"><path d="M224.504 464.882h34.299v58.11h-34.299v-58.11z"/></clipPath><clipPath clipPathUnits="userSpaceOnUse" id="a"><path d="M0 0h311v595H0V0z"/></clipPath></defs><g clip-path="url(#a)" transform="matrix(6.03338 0 0 -6.03338 -1354.519 3141.154)"><path d="M224.504 467.095h34.299v53.534h-34.299v-53.534z" style="fill:#007ac2;fill-opacity:1;fill-rule:nonzero;stroke:none"/><path d="M0 0h8.409L-7.147 27.232-22.958 0H0z" style="fill:#fff;fill-opacity:1;fill-rule:evenodd;stroke:none" transform="translate(248.929 480.321)"/></g><g clip-path="url(#b)" transform="matrix(6.03338 0 0 -6.03338 -1354.519 3141.154)"><path d="M0 0c-.233-.569-.842-1.176-1.41-1.652a5.322 5.322 0 0 0-1.478-.814c-.187-.056-.859-.203-.943-.203-.075 0-.188-.114-.264-.114-.081 0-.24.114-.289.317-.053.205-.204.843.106.897.315.048.336-.083.336-.083s.399.102.474.185c.084.077.71.395.899.6.186.204.616.653.812.999.233.421.449 1.084.58 1.345.13.262.439.812.654 1 .214.177.709.627.737.646.019.025.019.27-.028.298-.055.029-.55.291-.654.524-.102.233-.244.344-.244.785 0 .446.422 1.391 1.421 1.391.999 0 1.336-.758 1.336-1.31 0-.772-.494-.952-.365-1.129.087-.112.344-.103.656-.129.317-.029 1.026-.318 1.39-.665.366-.345 1.047-1.129 1.262-1.543.217-.418.606-1.203.757-1.765.159-.549.216-.889.216-1.101 0-.207.055-.448.055-.448s.289-.177.289-.364c0-.189-.318-.469-.476-.553-.169-.082-.523-.213-.624-.213-.106 0-.479.16-.479.401 0 .242.16.598.16.802 0 .215-.244 1.084-.347 1.273-.103.178-.523.841-.626.942-.102.103-.262.234-.262.234-.016-.738.084-2.503.234-3.009.16-.504.868-1.916 1.169-2.391.344-.578 1.13-1.766 1.541-2.244.411-.474 1.008-1.007 1.103-1.062.094-.065.065-.197 0-.319-.066-.121-.813-1.607-.851-1.607-.027 0-1.167-.225-1.233-.225-.064 0-.121.199 0 .262a.938.938 0 0 0 .262.084c.111.449.224.905.347 1.365 0 0-.956.877-1.141 1.104-.188.214-1.197 1.221-1.382 1.501-.186.282-.821 1.171-.915 1.393-.087.215-.507.906-.507.906s-.437-.373-.598-.598C1.532-4.503.831-5.761.672-6.044c-.158-.281-.757-1.672-.851-1.989-.084-.309-1.072-2.961-1.072-2.961s-2.326 1.008-2.422 1.075c-.091.065-.223.308 0 .308.226 0 1.636.194 1.636.194s.093.786.131 1.011c.028.222.372 1.793.496 2.076.129.279.728 1.668.858 1.827.131.154.569 1.356.654 1.636.095.28.262 1.038.262 1.355C.364-1.203.206-.372 0 0" style="fill:#000;fill-opacity:1;fill-rule:evenodd;stroke:none" transform="translate(240.85 495.485)"/><path d="M249.706 482.995h1.223v.495h-1.223v-.495zM247.865 482.995h1.223v.495h-1.223v-.495zM246.024 482.995h1.224v.495h-1.224v-.495zM244.183 482.995h1.225v.495h-1.225v-.495zM242.343 482.995h1.224v.495h-1.224v-.495zM240.502 482.995h1.234v.495h-1.234v-.495zM238.66 482.995h1.234v.495h-1.234v-.495zM236.823 482.995h1.233v.495h-1.233v-.495zM234.98 482.995h1.234v.495h-1.234v-.495zM251.545 482.995h1.225v.495h-1.225v-.495zM233.142 482.995h1.233v.495h-1.233v-.495zM231.312 482.995h1.223v.495h-1.223v-.495zM249.706 486.921h1.223v.483h-1.223v-.483zM246.024 486.921h1.224v.483h-1.224v-.483zM244.183 486.921h1.225v.483h-1.225v-.483zM242.343 486.921h1.224v.483h-1.224v-.483zM240.502 486.921h1.234v.483h-1.234v-.483zM236.823 486.921h1.233v.483h-1.233v-.483zM234.98 486.921h1.234v.483h-1.234v-.483zM233.142 486.921h1.233v.483h-1.233v-.483z" style="fill:#000;fill-opacity:1;fill-rule:evenodd;stroke:none"/></g></svg>