<svg xmlns="http://www.w3.org/2000/svg" width="430.491" height="382.153"><defs><clipPath clipPathUnits="userSpaceOnUse" id="g"><path d="M77.244 228.189h34.845v87.874H77.244v-87.874z"/></clipPath><clipPath clipPathUnits="userSpaceOnUse" id="h"><path d="M87.547 312.241c-1.379 0-2.496-1.225-2.496-2.737v-74.071c0-1.511 1.117-2.737 2.496-2.737h15.259c1.379 0 2.496 1.226 2.496 2.737v74.071c0 1.512-1.117 2.737-2.496 2.737H87.547z"/></clipPath><clipPath clipPathUnits="userSpaceOnUse" id="i"><path d="M0 0h311v595H0V0z"/></clipPath><clipPath clipPathUnits="userSpaceOnUse" id="b"><path d="M42.52 228.189h34.845v87.874H42.52v-87.874z"/></clipPath><clipPath clipPathUnits="userSpaceOnUse" id="e"><path d="M52.822 312.241c-1.378 0-2.496-1.225-2.496-2.737v-74.071c0-1.511 1.118-2.737 2.496-2.737h15.26c1.378 0 2.496 1.226 2.496 2.737v74.071c0 1.512-1.118 2.737-2.496 2.737h-15.26z"/></clipPath><clipPath clipPathUnits="userSpaceOnUse" id="f"><path d="M0 0h311v595H0V0z"/></clipPath><clipPath clipPathUnits="userSpaceOnUse" id="a"><path d="M111.968 228.189h34.846v87.874h-34.846v-87.874z"/></clipPath><clipPath clipPathUnits="userSpaceOnUse" id="c"><path d="M122.271 312.241c-1.378 0-2.495-1.225-2.495-2.737v-74.071c0-1.511 1.117-2.737 2.495-2.737h15.26c1.379 0 2.495 1.226 2.495 2.737v74.071c0 1.512-1.116 2.737-2.495 2.737h-15.26z"/></clipPath><clipPath clipPathUnits="userSpaceOnUse" id="d"><path d="M0 0h311v595H0V0z"/></clipPath></defs><g clip-path="url(#a)" style="stroke-width:.73526365000000005;stroke-miterlimit:6;stroke-dasharray:none;fill:#fff;fill-opacity:1" transform="matrix(4.7602 0 0 -4.7602 -237.812 1488.048)"><g style="stroke-width:.79738796000000001;stroke-miterlimit:6;stroke-dasharray:none;fill:#fff;fill-opacity:1"><path d="M0 0a2.835 2.835 0 0 1-2.835 2.835h-17.331A2.835 2.835 0 0 1-23 0v-76.706a2.834 2.834 0 0 1 2.834-2.834h17.331A2.834 2.834 0 0 1 0-76.706V0z" style="fill:#fff;stroke:#000;stroke-width:.79738796000000001;stroke-linecap:butt;stroke-linejoin:miter;stroke-miterlimit:6;stroke-opacity:1;stroke-dasharray:none;fill-opacity:1" transform="matrix(.8805 0 0 -.96565 140.026 235.427)"/></g></g><g clip-path="url(#b)" style="stroke-width:.73526365000000005;stroke-miterlimit:6;stroke-dasharray:none;fill:#fff;fill-opacity:1" transform="matrix(4.7602 0 0 -4.7602 -237.812 1488.048)"><g style="stroke-width:.79738796000000001;stroke-miterlimit:6;stroke-dasharray:none;fill:#fff;fill-opacity:1"><path d="M0 0a2.835 2.835 0 0 1-2.835 2.835h-17.331A2.835 2.835 0 0 1-23 0v-76.706a2.834 2.834 0 0 1 2.834-2.834h17.331A2.834 2.834 0 0 1 0-76.706V0z" style="fill:#fff;stroke:#000;stroke-width:.79738796000000001;stroke-linecap:butt;stroke-linejoin:miter;stroke-miterlimit:6;stroke-opacity:1;stroke-dasharray:none;fill-opacity:1" transform="matrix(.8805 0 0 -.96565 70.577 235.427)"/></g></g><g clip-path="url(#c)" transform="matrix(4.6766 0 0 -4.6766 -227.799 1468.355)"><g clip-path="url(#d)"><path d="m0 0-23.918-15.531-3.623 6.714 23.917 15.53L0 0z" style="fill:#ed1d24;fill-opacity:1;fill-rule:nonzero;stroke:none" transform="translate(143.965 251.083)"/></g></g><g clip-path="url(#e)" transform="matrix(4.593 0 0 -4.593 -227.398 1448.667)"><g clip-path="url(#f)"><path d="m0 0-23.918-15.531-3.623 6.714 23.917 15.53L0 0z" style="fill:#ed1d24;fill-opacity:1;fill-rule:nonzero;stroke:none" transform="translate(74.516 287.13)"/><path d="m0 0-23.918-15.531-3.623 6.714 23.917 15.53L0 0z" style="fill:#ed1d24;fill-opacity:1;fill-rule:nonzero;stroke:none" transform="translate(74.516 269.266)"/><path d="m0 0-23.918-15.531-3.623 6.714 23.917 15.53L0 0z" style="fill:#ed1d24;fill-opacity:1;fill-rule:nonzero;stroke:none" transform="translate(74.516 251.083)"/></g></g><g clip-path="url(#g)" style="stroke-width:.73526365000000005;stroke-miterlimit:6;stroke-dasharray:none;fill:#fff;fill-opacity:1" transform="matrix(4.7602 0 0 -4.7602 -237.812 1488.048)"><g style="stroke-width:.79738796000000001;stroke-miterlimit:6;stroke-dasharray:none;fill:#fff;fill-opacity:1"><path d="M0 0a2.835 2.835 0 0 1-2.835 2.835h-17.331A2.835 2.835 0 0 1-23 0v-76.706a2.834 2.834 0 0 1 2.834-2.834h17.331A2.834 2.834 0 0 1 0-76.706V0z" style="fill:#fff;stroke:#000;stroke-width:.79738796000000001;stroke-linecap:butt;stroke-linejoin:miter;stroke-miterlimit:6;stroke-opacity:1;stroke-dasharray:none;fill-opacity:1" transform="matrix(.8805 0 0 -.96565 105.302 235.427)"/></g></g><g clip-path="url(#h)" transform="matrix(4.6766 0 0 -4.6766 -230.702 1468.356)"><g clip-path="url(#i)"><path d="m0 0-23.918-15.531-3.623 6.714 23.917 15.53L0 0z" style="fill:#ed1d24;fill-opacity:1;fill-rule:nonzero;stroke:none" transform="translate(109.24 269.266)"/><path d="m0 0-23.918-15.531-3.623 6.714 23.917 15.53L0 0z" style="fill:#ed1d24;fill-opacity:1;fill-rule:nonzero;stroke:none" transform="translate(109.24 251.083)"/></g></g></svg>