<svg xmlns="http://www.w3.org/2000/svg" width="599.999" height="599.999"><defs><clipPath id="a"><path d="M.015 205.28h205.27V0H.015v205.28z"/></clipPath></defs><path d="M0 0c56.41 0 102.14-45.731 102.14-102.14 0-56.41-45.731-102.14-102.14-102.14-56.411 0-102.14 45.731-102.14 102.14S-56.411 0 0 0" style="fill:#fff;fill-rule:nonzero" transform="matrix(2.92279 0 0 -2.92279 300 1.46)"/><g clip-path="url(#a)" transform="matrix(2.92279 0 0 -2.92279 0 599.999)"><path d="M0 0c56.41 0 102.14-45.731 102.14-102.14 0-56.41-45.731-102.14-102.14-102.14-56.411 0-102.14 45.731-102.14 102.14S-56.411 0 0 0z" style="fill:none;stroke:#1477c6;stroke-width:1;stroke-linecap:butt;stroke-linejoin:miter;stroke-miterlimit:4;stroke-dasharray:none" transform="translate(102.642 204.783)"/></g><path d="M0 0c56.41 0 102.14-45.731 102.14-102.14 0-56.41-45.731-102.14-102.14-102.14-56.411 0-102.14 45.731-102.14 102.14S-56.411 0 0 0" style="fill:#fff;fill-rule:nonzero" transform="matrix(2.92279 0 0 -2.92279 300 1.46)"/><path d="M113.725 103.798c164.875 0 298.538 133.663 298.538 298.538S278.6 700.874 113.725 700.874s-298.538-133.663-298.538-298.538S-51.15 103.798 113.725 103.798z" style="fill:none;stroke:#0079c1;stroke-width:2.92279005;stroke-linecap:butt;stroke-linejoin:miter;stroke-miterlimit:4;stroke-opacity:1;stroke-dasharray:none" transform="translate(186.275 -102.337)"/><path d="M113.725 116.099c158.087 0 286.237 128.15 286.237 286.237 0 158.087-128.15 286.237-286.237 286.237-158.087 0-286.238-128.15-286.238-286.237 0-158.087 128.15-286.237 286.238-286.237" style="fill:#0079c1;fill-opacity:1;fill-rule:nonzero" transform="translate(186.275 -102.337)"/><path style="fill:#000;fill-opacity:1;fill-rule:evenodd;stroke:none" d="M0 0c-.42-.595-1.721-.216-2.309-.054a.93.93 0 0 0-.492.263c-.378.088-.805.25-1.143.419a.868.868 0 0 0-.741.426c-1.351.918-2.365 2.443-2.999 3.909-.655.068-1.019.945-.533 1.431-.614 1.932-.912 4.065-.967 6.098a.848.848 0 0 0 0 1.378c.055 2.032.353 4.165.967 6.097-.486.486-.128 1.364.533 1.431.648 1.5 1.634 2.978 2.999 3.91a.86.86 0 0 0 .741.433c.331.161.783.33 1.143.412a.96.96 0 0 0 .492.27c.588.161 1.885.526 2.309-.054.352.614 1.696.426 2.283.324v.006a.868.868 0 0 0 .655-.377c.331.371.958.404 1.297-.015l.384.007c3.91 0 7.11-5.874 7.09-13.133C11.695 5.929 8.529.055 4.619.055h-.384c-.319-.392-.985-.4-1.297-.008C2.593-.479 1.345-.432.784-.419A.838.838 0 0 0 0 0" transform="matrix(16.78755 0 0 -16.78755 276.21 524.185)"/><path style="fill:#fff;fill-opacity:1;fill-rule:evenodd;stroke:none" d="M0 0a4.83 4.83 0 0 1-1.194.601c-.353.19-.069.723.275.54C-.635 1.067.628.574.412.135A.314.314 0 0 0 0 0" transform="matrix(16.78755 0 0 -16.78755 190.635 202.024)"/><path style="fill:#fff;fill-opacity:1;fill-rule:evenodd;stroke:none" d="M0 0c-.464.033-.871 0-1.336-.075-.404-.013-.418.594-.027.608C-1.072.608.278.811.292.317A.304.304 0 0 0 0 0" transform="matrix(16.78755 0 0 -16.78755 242.198 161.32)"/><path style="fill:#fff;fill-opacity:1;fill-rule:evenodd;stroke:none" d="M0 0c-.499-.081-.816-.183-1.295-.339-.392-.094-.521.494-.142.589C-1.181.384.109.843.225.364A.303.303 0 0 0 0 0" transform="matrix(16.78755 0 0 -16.78755 194.137 165.738)"/><path style="fill:#fff;fill-opacity:1;fill-rule:evenodd;stroke:none" d="M0 0c-.493.083-.83.083-1.329.083-.393.012-.371.627.04.599C-1.004.722.359.777.325.284A.309.309 0 0 0 0 0" transform="matrix(16.78755 0 0 -16.78755 287.994 255.189)"/><path style="fill:#fff;fill-opacity:1;fill-rule:evenodd;stroke:none" d="M0 0c-.344.304-.68.553-1.088.769-.322.224.041.723.353.493C-.466 1.134.71.472.425.067A.3.3 0 0 0 0 0" transform="matrix(16.78755 0 0 -16.78755 307.157 180.925)"/><path style="fill:#fff;fill-opacity:1;fill-rule:evenodd;stroke:none" d="M0 0c0-.432-.667-.452-.667 0 0 .453.667.425.667 0" transform="matrix(16.78755 0 0 -16.78755 341.956 91.61)"/><path style="fill:#fff;fill-opacity:1;fill-rule:evenodd;stroke:none" d="M0 0a5.465 5.465 0 0 1-1.33.061c-.385.013-.365.621.034.607C-1.011.709.353.783.318.284A.302.302 0 0 0 0 0" transform="matrix(16.78755 0 0 -16.78755 312.036 95.005)"/><path style="fill:#fff;fill-opacity:1;fill-rule:evenodd;stroke:none" d="M0 0c.716 1.149 1.689 2.182 2.891 2.81a.843.843 0 0 1 .783-.169c.033-.317.356-.681.493-.945.074-.135.155-.297.222-.445C3.634.858 2.938.102 2.351-.924 1.85-.498.763.46.129-.202L0 0z" transform="matrix(16.78755 0 0 -16.78755 278.592 149.556)"/><path style="fill:#fff;fill-opacity:1;fill-rule:evenodd;stroke:none" d="M0 0a.799.799 0 0 1 .647.237c.144-.378.622-.566.927-.784.241-.175.479-.446.77-.573a15.702 15.702 0 0 1-.736-2.721c-.582.127-2.053.35-2.438-.224l-.304.217C-.884-2.43-.505-1.127 0 0" transform="matrix(16.78755 0 0 -16.78755 266.69 172.22)"/><path style="fill:#fff;fill-opacity:1;fill-rule:evenodd;stroke:none" d="M0 0c.525.932 1.154 1.695 1.863 2.276.283-.399.791-.385 1.221-.48.143-.034.306-.081.467-.06l.201-.298c.298-.25.63-.533.88-.824-.493.081-1.142.007-1.636-.06a.813.813 0 0 1-.728-.486C1.802.614.58.189 0 0" transform="matrix(16.78755 0 0 -16.78755 167.065 152.596)"/><path style="fill:#fff;fill-opacity:1;fill-rule:evenodd;stroke:none" d="M0 0c.547.169 1.411.04 1.726.587.333-.459.899-.323 1.379-.344.183-.007.44-.041.621-.06-.911-.615-1.667-1.507-2.248-2.438l-.19.054C1.789-1.431.634-.494.094-.074L0 0z" transform="matrix(16.78755 0 0 -16.78755 248.236 107.025)"/><path style="fill:#fff;fill-opacity:1;fill-rule:evenodd;stroke:none" d="M0 0a.333.333 0 0 0-.336-.331.34.34 0 0 0-.34.331.34.34 0 0 0 .34.338A.335.335 0 0 0 0 0" transform="matrix(16.78755 0 0 -16.78755 273.162 158.155)"/><path style="fill:#fff;fill-opacity:1;fill-rule:evenodd;stroke:none" d="M0 0c-.136.155-.305.351-.454.499-.148.136-.85.52-.521.851C-.622 1.702.254.668.416.432.707.161.275-.277 0 0" transform="matrix(16.78755 0 0 -16.78755 253.686 138.648)"/><path style="fill:#fff;fill-opacity:1;fill-rule:evenodd;stroke:none" d="M0 0c-.197.047-1.075.027-.96.492.088.379.81.163 1.027.121C.538.492.398-.095 0 0" transform="matrix(16.78755 0 0 -16.78755 222.504 113.82)"/><path style="fill:#fff;fill-opacity:1;fill-rule:evenodd;stroke:none" d="M0 0c-.507-.035-.825-.129-1.317-.25-.407-.06-.488.526-.108.6.297.116 1.573.487 1.668 0A.313.313 0 0 0 0 0" transform="matrix(16.78755 0 0 -16.78755 264.445 95.23)"/><path style="fill:#fff;fill-opacity:1;fill-rule:evenodd;stroke:none" d="M0 0c-.149.452-.42.783-.648 1.168-.196.358.35.643.526.29.298-.317.479-.77.654-1.161C.722-.047.187-.351 0 0" transform="matrix(16.78755 0 0 -16.78755 361.473 126.864)"/><path style="fill:#fff;fill-opacity:1;fill-rule:evenodd;stroke:none" d="M0 0c0-.461-.675-.426-.675-.001S0 .452 0 0" transform="matrix(16.78755 0 0 -16.78755 154.24 179.106)"/><path style="fill:#fff;fill-opacity:1;fill-rule:evenodd;stroke:none" d="M0 0a5.032 5.032 0 0 1-1.282-.398c-.393-.114-.54.473-.176.581.257.149 1.52.661 1.655.196A.303.303 0 0 0-.007 0H0z" transform="matrix(16.78755 0 0 -16.78755 217.152 258.712)"/><path style="fill:#fff;fill-opacity:1;fill-rule:evenodd;stroke:none" d="M0 0c-.441-.237-.744-.413-1.128-.724-.338-.208-.655.311-.317.521C-1.229 0-.156.837.101.418A.299.299 0 0 0 0 0" transform="matrix(16.78755 0 0 -16.78755 171.373 276.603)"/><path style="fill:#fff;fill-opacity:1;fill-rule:evenodd;stroke:none" d="M0 0c0-.438-.667-.425-.667 0S0 .453 0 0" transform="matrix(16.78755 0 0 -16.78755 247.429 249.75)"/><path style="fill:#fff;fill-opacity:1;fill-rule:evenodd;stroke:none" d="M0 0c.015.656-.857 1.068-1.384 1.31.5.123 1.061.068 1.317.616.386-.468.918-.25 1.432-.231.512.021 1.054-.135 1.404.345a.797.797 0 0 1 .29-.324c-.432-1-.762-2.073-.985-3.139C1.648-.911.778.345 0 0" transform="matrix(16.78755 0 0 -16.78755 208.418 198.856)"/><path style="fill:#fff;fill-opacity:1;fill-rule:evenodd;stroke:none" d="M0 0c-.276.391-.587.647-.932.959-.27.283.163.709.44.417C-.244 1.208.79.331.432-.008A.308.308 0 0 0 0 0" transform="matrix(16.78755 0 0 -16.78755 226.674 232.734)"/><path style="fill:#fff;fill-opacity:1;fill-rule:evenodd;stroke:none" d="M0 0c.087 1.701.352 3.504.858 5.132.215.021.323.1.485.196.123-.541.703-.648 1.123-.858.424-.216.829-.628 1.357-.419-.016-.54.472-.81.789-1.134.182-.195.352-.385.493-.56-.493.128-1.472-.27-1.932-.44-.337-.101-.602-.432-.602-.783C1.95 1.614.837.77.338.378A.785.785 0 0 1 0 0" transform="matrix(16.78755 0 0 -16.78755 135.313 279.446)"/><path style="fill:#fff;fill-opacity:1;fill-rule:evenodd;stroke:none" d="M0 0c.37.183.635-.364.277-.54-.237-.168-1.377-.911-1.6-.465-.209.424.56.573.749.66L0 0z" transform="matrix(16.78755 0 0 -16.78755 190.635 403.807)"/><path style="fill:#fff;fill-opacity:1;fill-rule:evenodd;stroke:none" d="M0 0c.407-.013.364-.621-.026-.608-.285 0-1.642-.129-1.628.392.013.48.75.216.987.21L0 0z" transform="matrix(16.78755 0 0 -16.78755 242.198 444.5)"/><path style="fill:#fff;fill-opacity:1;fill-rule:evenodd;stroke:none" d="M0 0c.393-.094.245-.682-.15-.588-.274.021-1.625.216-1.509.695.105.467.774.068.997.014L0 0z" transform="matrix(16.78755 0 0 -16.78755 194.137 439.956)"/><path style="fill:#fff;fill-opacity:1;fill-rule:evenodd;stroke:none" d="M0 0c.412.026.425-.581.042-.608-.305-.047-1.622-.297-1.656.21-.033.479.75.303.952.311L0 0z" transform="matrix(16.78755 0 0 -16.78755 287.994 350.63)"/><path style="fill:#fff;fill-opacity:1;fill-rule:evenodd;stroke:none" d="M0 0c.337.236.676-.277.351-.493-.202-.203-1.215-1.1-1.505-.702-.283.378.474.655.635.77L0 0z" transform="matrix(16.78755 0 0 -16.78755 307.157 424.77)"/><path style="fill:#fff;fill-opacity:1;fill-rule:evenodd;stroke:none" d="M0 0c0-.426-.667-.453-.667 0 0 .452.667.432.667 0" transform="matrix(16.78755 0 0 -16.78755 341.956 514.202)"/><path style="fill:#fff;fill-opacity:1;fill-rule:evenodd;stroke:none" d="M0 0c.4.027.42-.581.034-.608v.007c-.289-.048-1.635-.284-1.649.223-.012.472.738.289.946.304L0 0z" transform="matrix(16.78755 0 0 -16.78755 312.036 510.808)"/><path style="fill:#fff;fill-opacity:1;fill-rule:evenodd;stroke:none" d="m0 0 .129.196c.634-.662 1.728.297 2.222.722C2.816.095 3.525-.804 4.389-1.25a7.915 7.915 0 0 0-.614-1.093l-.101-.297a.88.88 0 0 1-.783-.17C1.75-2.222.783-1.263 0 0" transform="matrix(16.78755 0 0 -16.78755 278.592 456.165)"/><path style="fill:#fff;fill-opacity:1;fill-rule:evenodd;stroke:none" d="M0 0c-.532 1.188-.911 2.552-1.134 3.842a.879.879 0 0 1 .304.216c.426-.621 1.81-.29 2.438-.223.162-.918.41-1.843.736-2.722C2.053.986 1.83.722 1.574.54 1.283.33.784.134.647-.243A.846.846 0 0 1 0 0" transform="matrix(16.78755 0 0 -16.78755 266.69 433.493)"/><path style="fill:#fff;fill-opacity:1;fill-rule:evenodd;stroke:none" d="M0 0c0-.776.04-1.539.115-2.276-.244 0-.553-.081-.797-.095-.466-.032-.998.102-1.342-.31a.774.774 0 0 1-.581.358 26.86 26.86 0 0 0 0 4.66.78.78 0 0 1 .581.358c.329-.399.89-.284 1.342-.304.251-.014.553-.095.797-.095A23.33 23.33 0 0 1 0 0" transform="matrix(16.78755 0 0 -16.78755 287.66 303.024)"/><path style="fill:#fff;fill-opacity:1;fill-rule:evenodd;stroke:none" d="M0 0c-.012-6.414-2.51-11.695-5.853-12.391.317.399.601.966.797 1.431.046.102.087.216.1.326 2.553.526 4.552 5.09 4.552 10.627v.015c0 5.543-1.999 10.101-4.552 10.628-.034.29-.302.79-.425 1.012a5.111 5.111 0 0 1-.472.743C-2.51 11.696-.012 6.422 0 0" transform="matrix(16.78755 0 0 -16.78755 463.809 302.915)"/><path style="fill:#fff;fill-opacity:1;fill-rule:evenodd;stroke:none" d="M0 0c.58-.209 1.802-.614 2.268-.067.269-.655 1.648-.588 2.241-.554h.123a8.226 8.226 0 0 0-.88-.818.764.764 0 0 1-.201-.302c-.148.019-.332-.035-.467-.055-.43-.108-.931-.087-1.221-.479C1.154-1.701.525-.932 0 0" transform="matrix(16.78755 0 0 -16.78755 167.065 453.117)"/><path style="fill:#fff;fill-opacity:1;fill-rule:evenodd;stroke:none" d="M0 0c.553.439 1.808 1.397 1.288 2.2l.19.055C2.059 1.324 2.815.432 3.726-.182a7.744 7.744 0 0 0-1.371-.062.8.8 0 0 1-.629-.344c-.288.507-.844.426-1.335.507C.255-.054.128-.028 0 0" transform="matrix(16.78755 0 0 -16.78755 248.236 498.788)"/><path style="fill:#fff;fill-opacity:1;fill-rule:evenodd;stroke:none" d="M0 0c0-.452-.676-.425-.676 0 0 .426.676.46.676 0" transform="matrix(16.78755 0 0 -16.78755 273.162 447.678)"/><path style="fill:#fff;fill-opacity:1;fill-rule:evenodd;stroke:none" d="M0 0c.296.278.695-.162.416-.438C.243-.669-.615-1.714-.975-1.356c-.324.343.364.708.521.857L0 0z" transform="matrix(16.78755 0 0 -16.78755 253.686 467.054)"/><path style="fill:#fff;fill-opacity:1;fill-rule:evenodd;stroke:none" d="M0 0c.391.094.553-.487.067-.608-.196-.055-.939-.264-1.027.115-.115.465.763.446.96.493" transform="matrix(16.78755 0 0 -16.78755 222.504 491.98)"/><path style="fill:#fff;fill-opacity:1;fill-rule:evenodd;stroke:none" d="M0 0c.39-.061.277-.669-.117-.595-.291.021-1.647.102-1.552.602.073.472.783.107 1 .073L0 0z" transform="matrix(16.78755 0 0 -16.78755 264.445 510.57)"/><path style="fill:#fff;fill-opacity:1;fill-rule:evenodd;stroke:none" d="M0 0c.196.358.715.048.532-.29-.12-.291-.613-1.513-1.066-1.29-.405.23.143.783.248.972L0 0z" transform="matrix(16.78755 0 0 -16.78755 361.473 478.958)"/><path style="fill:#fff;fill-opacity:1;fill-rule:evenodd;stroke:none" d="M0 0c0-.446-.675-.413-.675 0 0 .433.675.459.675 0" transform="matrix(16.78755 0 0 -16.78755 154.24 426.697)"/><path style="fill:#fff;fill-opacity:1;fill-rule:evenodd;stroke:none" d="M0 0c0-5.327-1.837-9.656-4.099-9.656-2.256 0-4.092 4.329-4.092 9.656 0 5.335 1.836 9.656 4.092 9.656C-1.837 9.656 0 5.335 0 0" transform="matrix(16.78755 0 0 -16.78755 441.048 302.915)"/><path style="fill:#000;fill-opacity:1;fill-rule:evenodd;stroke:none" d="M0 0c0-4.855-1.675-8.791-3.748-8.791-2.064 0-3.923 3.936-3.923 8.791 0 4.854 1.859 8.792 3.923 8.792C-1.675 8.792 0 4.854 0 0" transform="matrix(16.78755 0 0 -16.78755 437.526 302.915)"/><path style="fill:#fff;fill-opacity:1;fill-rule:evenodd;stroke:none" d="M0 0c0-4.477-1.607-8.406-3.518-8.406-1.594 0-2.578 2.579-2.911 3.7.277-.453.595-.702.933-.702 1.621 0 1.897 4.726 1.897 5.408 0 .683-.276 5.415-1.897 5.415-.42.001-.743-.39-.933-.708.333 1.127 1.317 3.707 2.911 3.707C-1.607 8.414 0 4.478 0 0" transform="matrix(16.78755 0 0 -16.78755 432.65 302.915)"/><path style="fill:#fff;fill-opacity:1;fill-rule:evenodd;stroke:none" d="M0 0c0-.769-.237-4.592-1.587-4.848C-.654-3.774-.434-1.317-.425 0c-.009 1.405-.229 3.802-1.162 4.849C-.702 4.68-.012 2.58 0 0" transform="matrix(16.78755 0 0 -16.78755 363.951 302.915)"/><path style="fill:#fff;fill-opacity:1;fill-rule:evenodd;stroke:none" d="M0 0h-.007c.384-.109.204-.689-.175-.581-.29.068-1.613.27-1.48.777.129.458.79.027 1.001-.041L0 0z" transform="matrix(16.78755 0 0 -16.78755 217.152 347.12)"/><path style="fill:#fff;fill-opacity:1;fill-rule:evenodd;stroke:none" d="M0 0a.333.333 0 0 0-.339-.33.331.331 0 0 0 0 .661C-.149.331 0 .183 0 0" transform="matrix(16.78755 0 0 -16.78755 135.886 302.915)"/><path style="fill:#fff;fill-opacity:1;fill-rule:evenodd;stroke:none" d="M0 0c.35-.223.006-.717-.317-.52C-.581-.378-1.81.182-1.548.621c.264.391.764-.183.96-.304L0 0z" transform="matrix(16.78755 0 0 -16.78755 171.373 329.09)"/><path style="fill:#fff;fill-opacity:1;fill-rule:evenodd;stroke:none" d="M0 0c0-.439-.667-.432-.667 0S0 .452 0 0" transform="matrix(16.78755 0 0 -16.78755 247.429 356.072)"/><path style="fill:#fff;fill-opacity:1;fill-rule:evenodd;stroke:none" d="M0 0c.71-.318 1.602.816 1.972 1.296l.102.135c.223-1.053.553-2.147.985-3.14a.858.858 0 0 1-.29-.324c-.358.473-.898.331-1.404.338-.5.02-1.04.236-1.432-.223-.256.527-.836.499-1.317.614C-.857-1.061.015-.662 0 0" transform="matrix(16.78755 0 0 -16.78755 208.418 406.965)"/><path style="fill:#fff;fill-opacity:1;fill-rule:evenodd;stroke:none" d="M0 0c.278.277.717-.122.441-.419C.264-.642-.56-1.749-.925-1.384a.309.309 0 0 0-.007.432v-.007c.339.304.668.581.932.959" transform="matrix(16.78755 0 0 -16.78755 226.674 373.079)"/><path style="fill:#fff;fill-opacity:1;fill-rule:evenodd;stroke:none" d="M0 0c.122-.291.716-.669.952-.824.44-.277 1.121-.689 1.619-.317.016-.824 1.419-1.081 2.056-1.216.134-.034.342-.04.478 0-.297-.371-.667-.777-1.047-1.081a1.046 1.046 0 0 1-.235-.62c-.536.216-.926-.189-1.357-.413-.414-.215-.994-.317-1.123-.865-.143.11-.282.19-.485.197C.393-3.647.101-1.917 0 0" transform="matrix(16.78755 0 0 -16.78755 135.313 326.259)"/><path style="fill:#fff;fill-opacity:1;fill-rule:evenodd;stroke:none" d="M0 0c0-.782.039-1.593.114-2.37a.829.829 0 0 1-.396-.284c-.204.575-.806.568-1.292.703-.479.142-.978.5-1.465.121-.014.635-.628.791-1.06 1.061-.42.255-.803.708-1.351.507l.049.262v-.007l-.049.27c.561-.188.931.244 1.351.514.432.271 1.046.405 1.06 1.053.487-.358.992-.02 1.465.122.499.147 1.088.12 1.292.709a.789.789 0 0 1 .396-.291A24.42 24.42 0 0 1 0 0" transform="matrix(16.78755 0 0 -16.78755 235.192 302.915)"/></svg>