<?xml version="1.0" encoding="UTF-8" standalone="no"?>
<!-- Created with Inkscape (http://www.inkscape.org/) -->

<svg
   xmlns:dc="http://purl.org/dc/elements/1.1/"
   xmlns:cc="http://creativecommons.org/ns#"
   xmlns:rdf="http://www.w3.org/1999/02/22-rdf-syntax-ns#"
   xmlns:svg="http://www.w3.org/2000/svg"
   xmlns="http://www.w3.org/2000/svg"
   xmlns:sodipodi="http://sodipodi.sourceforge.net/DTD/sodipodi-0.dtd"
   xmlns:inkscape="http://www.inkscape.org/namespaces/inkscape"
   width="213.55592"
   height="213.41776"
   id="svg4205"
   version="1.1"
   inkscape:version="0.47 r22583"
   sodipodi:docname="Cyprus road sign no animal vehicles.svg">
  <defs
     id="defs4207">
    <inkscape:perspective
       sodipodi:type="inkscape:persp3d"
       inkscape:vp_x="0 : 526.18109 : 1"
       inkscape:vp_y="0 : 1000 : 0"
       inkscape:vp_z="744.09448 : 526.18109 : 1"
       inkscape:persp3d-origin="372.04724 : 350.78739 : 1"
       id="perspective4213" />
    <inkscape:perspective
       id="perspective4228"
       inkscape:persp3d-origin="106.21 : 70.796666 : 1"
       inkscape:vp_z="212.42 : 106.195 : 1"
       inkscape:vp_y="0 : 1000 : 0"
       inkscape:vp_x="0 : 106.195 : 1"
       sodipodi:type="inkscape:persp3d" />
    <clipPath
       id="clipPath16">
      <path
         inkscape:connector-curvature="0"
         d="M 0.059998,169.98 H 170 V 0.06 H 0.059998 v 169.92 z"
         id="path18" />
    </clipPath>
    <inkscape:perspective
       id="perspective4247"
       inkscape:persp3d-origin="0.5 : 0.33333333 : 1"
       inkscape:vp_z="1 : 0.5 : 1"
       inkscape:vp_y="0 : 1000 : 0"
       inkscape:vp_x="0 : 0.5 : 1"
       sodipodi:type="inkscape:persp3d" />
    <clipPath
       clipPathUnits="userSpaceOnUse"
       id="clipPath3426">
      <path
         d="m 43.076,488.976 34.845,0 0,34.015 -34.845,0 0,-34.015 z"
         id="path3428" />
    </clipPath>
    <inkscape:perspective
       id="perspective4323"
       inkscape:persp3d-origin="0.5 : 0.33333333 : 1"
       inkscape:vp_z="1 : 0.5 : 1"
       inkscape:vp_y="0 : 1000 : 0"
       inkscape:vp_x="0 : 0.5 : 1"
       sodipodi:type="inkscape:persp3d" />
    <clipPath
       clipPathUnits="userSpaceOnUse"
       id="clipPath2896">
      <path
         d="m 102.752,490.181 34.845,0 0,34.016 -34.845,0 0,-34.016 z"
         id="path2898" />
    </clipPath>
    <inkscape:perspective
       id="perspective5249"
       inkscape:persp3d-origin="0.5 : 0.33333333 : 1"
       inkscape:vp_z="1 : 0.5 : 1"
       inkscape:vp_y="0 : 1000 : 0"
       inkscape:vp_x="0 : 0.5 : 1"
       sodipodi:type="inkscape:persp3d" />
    <inkscape:perspective
       id="perspective5326"
       inkscape:persp3d-origin="0.5 : 0.33333333 : 1"
       inkscape:vp_z="1 : 0.5 : 1"
       inkscape:vp_y="0 : 1000 : 0"
       inkscape:vp_x="0 : 0.5 : 1"
       sodipodi:type="inkscape:persp3d" />
    <clipPath
       clipPathUnits="userSpaceOnUse"
       id="clipPath3128">
      <path
         d="m 164.704,490.181 34.845,0 0,34.016 -34.845,0 0,-34.016 z"
         id="path3130" />
    </clipPath>
    <inkscape:perspective
       id="perspective5450"
       inkscape:persp3d-origin="0.5 : 0.33333333 : 1"
       inkscape:vp_z="1 : 0.5 : 1"
       inkscape:vp_y="0 : 1000 : 0"
       inkscape:vp_x="0 : 0.5 : 1"
       sodipodi:type="inkscape:persp3d" />
    <clipPath
       clipPathUnits="userSpaceOnUse"
       id="clipPath3318">
      <path
         d="m 224.23,490.181 34.845,0 0,34.016 -34.845,0 0,-34.016 z"
         id="path3320" />
    </clipPath>
    <inkscape:perspective
       id="perspective5517"
       inkscape:persp3d-origin="0.5 : 0.33333333 : 1"
       inkscape:vp_z="1 : 0.5 : 1"
       inkscape:vp_y="0 : 1000 : 0"
       inkscape:vp_x="0 : 0.5 : 1"
       sodipodi:type="inkscape:persp3d" />
    <clipPath
       clipPathUnits="userSpaceOnUse"
       id="clipPath2936">
      <path
         d="m 43.087,413.859 34.845,0 0,34.016 -34.845,0 0,-34.016 z"
         id="path2938" />
    </clipPath>
    <inkscape:perspective
       id="perspective5617"
       inkscape:persp3d-origin="0.5 : 0.33333333 : 1"
       inkscape:vp_z="1 : 0.5 : 1"
       inkscape:vp_y="0 : 1000 : 0"
       inkscape:vp_x="0 : 0.5 : 1"
       sodipodi:type="inkscape:persp3d" />
    <clipPath
       clipPathUnits="userSpaceOnUse"
       id="clipPath3572">
      <path
         d="m 102.752,413.859 34.845,0 0,34.016 -34.845,0 0,-34.016 z"
         id="path3574" />
    </clipPath>
    <inkscape:perspective
       id="perspective5745"
       inkscape:persp3d-origin="0.5 : 0.33333333 : 1"
       inkscape:vp_z="1 : 0.5 : 1"
       inkscape:vp_y="0 : 1000 : 0"
       inkscape:vp_x="0 : 0.5 : 1"
       sodipodi:type="inkscape:persp3d" />
    <clipPath
       clipPathUnits="userSpaceOnUse"
       id="clipPath3694">
      <path
         d="m 164.704,413.859 34.845,0 0,34.016 -34.845,0 0,-34.016 z"
         id="path3696" />
    </clipPath>
    <inkscape:perspective
       id="perspective5843"
       inkscape:persp3d-origin="0.5 : 0.33333333 : 1"
       inkscape:vp_z="1 : 0.5 : 1"
       inkscape:vp_y="0 : 1000 : 0"
       inkscape:vp_x="0 : 0.5 : 1"
       sodipodi:type="inkscape:persp3d" />
    <clipPath
       clipPathUnits="userSpaceOnUse"
       id="clipPath3500">
      <path
         d="m 224.23,413.859 34.845,0 0,34.016 -34.845,0 0,-34.016 z"
         id="path3502" />
    </clipPath>
  </defs>
  <sodipodi:namedview
     id="base"
     pagecolor="#ffffff"
     bordercolor="#666666"
     borderopacity="1.0"
     inkscape:pageopacity="0.0"
     inkscape:pageshadow="2"
     inkscape:zoom="2.362731"
     inkscape:cx="5.7973335"
     inkscape:cy="117.77259"
     inkscape:document-units="px"
     inkscape:current-layer="layer1"
     showgrid="false"
     inkscape:window-width="1600"
     inkscape:window-height="838"
     inkscape:window-x="-8"
     inkscape:window-y="-8"
     inkscape:window-maximized="1" />
  <metadata
     id="metadata4210">
    <rdf:RDF>
      <cc:Work
         rdf:about="">
        <dc:format>image/svg+xml</dc:format>
        <dc:type
           rdf:resource="http://purl.org/dc/dcmitype/StillImage" />
        <dc:title></dc:title>
      </cc:Work>
    </rdf:RDF>
  </metadata>
  <g
     inkscape:label="Livello 1"
     inkscape:groupmode="layer"
     id="layer1"
     transform="translate(-175.27493,-427.37091)">
    <g
       id="g2940"
       transform="matrix(6.2801329,0,0,-6.2801329,282.04347,619.45882)">
      <path
         d="m 0,0 c 7.465,0 13.608,6.117 13.608,13.582 0,7.49 -6.143,13.61 -13.608,13.61 -7.491,0 -13.61,-6.12 -13.61,-13.61 C -13.61,6.117 -7.491,0 0,0"
         style="fill:#ffffff;fill-opacity:1;fill-rule:evenodd;stroke:none"
         id="path2942" />
    </g>
    <g
       id="g2944"
       transform="matrix(6.2801329,0,0,-6.2801329,282.04347,619.47389)">
      <path
         d="m 0,0 c 7.467,0 13.608,6.119 13.608,13.584 0,7.491 -6.141,13.608 -13.608,13.608 -7.491,0 -13.608,-6.117 -13.608,-13.608 C -13.608,6.119 -7.491,0 0,0 m 0,-3.394 c 9.356,0 17.004,7.648 17.004,16.978 0,9.359 -7.648,17.005 -17.004,17.005 -9.354,0 -17.001,-7.646 -17.001,-17.005 0,-9.33 7.647,-16.978 17.001,-16.978"
         style="fill:#ed1d24;fill-opacity:1;fill-rule:evenodd;stroke:none"
         id="path2946" />
    </g>
    <g
       id="g6027"
       transform="translate(238.28358,2.9626733)">
      <g
         transform="matrix(6.2815914,0,0,-6.2815914,-17.536185,518.79059)"
         id="g3508">
        <path
           id="path3510"
           style="fill:#000000;fill-opacity:1;fill-rule:evenodd;stroke:none"
           d="m 0,0 20.036,0 c 0.68,0 1.236,-0.766 1.236,-1.701 0,-0.936 -0.556,-1.701 -1.236,-1.701 L 0,-3.401 c -0.68,0 -1.235,0.764 -1.235,1.7 C -1.235,-0.766 -0.68,0 0,0" />
      </g>
      <g
         transform="matrix(6.2815914,0,0,-6.2815914,9.3176806,490.25137)"
         id="g3512">
        <path
           id="path3514"
           style="fill:#000000;fill-opacity:1;fill-rule:nonzero;stroke:none"
           d="m 0,0 -0.005,0 -0.675,-2.088 1.351,0 L 0,0 z m 1.401,-2.375 -0.056,-0.169 -0.153,-0.058 -2.323,0 -0.152,0.058 -0.055,0.169 0,0.09 0.004,0.077 0.017,0.094 0.029,0.115 0.047,0.146 0.821,2.367 0.034,0.07 0.062,0.039 0.122,0.018 L 0.007,0.645 0.242,0.641 0.378,0.623 0.446,0.582 0.484,0.507 1.301,-1.85 1.35,-1.999 l 0.032,-0.116 0.015,-0.094 0.004,-0.076 0,-0.09 z" />
      </g>
      <g
         transform="matrix(6.2815914,0,0,-6.2815914,27.984686,504.75996)"
         id="g3516">
        <path
           id="path3518"
           style="fill:#000000;fill-opacity:1;fill-rule:nonzero;stroke:none"
           d="m 0,0 -0.015,-0.174 -0.036,-0.08 -0.064,-0.037 -0.097,-0.029 -0.121,-0.019 -0.129,-0.006 c -0.122,0 -0.227,0.016 -0.316,0.049 l -0.218,0.148 -0.125,0.256 c -0.027,0.105 -0.04,0.228 -0.04,0.371 l 0,1.539 0.014,0.044 0.048,0.033 0.095,0.019 0.15,0.006 0.153,-0.006 0.098,-0.019 0.052,-0.033 0.017,-0.044 0,-1.454 0.01,-0.166 0.039,-0.117 0.074,-0.07 0.113,-0.024 0.091,0.005 0.063,0.014 0.043,0.015 0.033,0.006 L -0.04,0.219 -0.019,0.183 -0.005,0.114 0,0 z" />
      </g>
      <g
         transform="matrix(6.2815914,0,0,-6.2815914,38.231846,489.07357)"
         id="g3520">
        <path
           id="path3522"
           style="fill:#000000;fill-opacity:1;fill-rule:nonzero;stroke:none"
           d="m 0,0 -0.036,-0.044 -0.06,-0.026 -0.087,-0.013 -0.115,-0.002 -0.177,0.025 -0.032,0.09 0.194,0.682 0.095,0.086 c 0.052,0.019 0.134,0.029 0.245,0.029 L 0.183,0.818 0.272,0.795 0.307,0.754 0.299,0.694 0,0 z m 0.289,-1.593 c 0,0.109 -0.009,0.211 -0.025,0.303 l -0.089,0.241 -0.167,0.16 -0.261,0.058 -0.244,-0.052 -0.172,-0.149 -0.102,-0.238 c -0.022,-0.092 -0.034,-0.198 -0.034,-0.316 0,-0.11 0.009,-0.211 0.028,-0.303 l 0.089,-0.241 0.165,-0.159 0.261,-0.056 0.247,0.051 0.172,0.149 0.1,0.235 c 0.022,0.093 0.032,0.199 0.032,0.317 m 0.647,0.024 c 0,-0.189 -0.024,-0.362 -0.075,-0.519 -0.05,-0.156 -0.125,-0.291 -0.227,-0.405 -0.102,-0.113 -0.228,-0.2 -0.382,-0.261 -0.154,-0.062 -0.333,-0.093 -0.537,-0.093 -0.198,0 -0.37,0.027 -0.517,0.083 -0.146,0.054 -0.268,0.134 -0.365,0.239 -0.096,0.105 -0.168,0.234 -0.215,0.387 -0.046,0.153 -0.07,0.328 -0.07,0.525 0,0.19 0.026,0.363 0.076,0.52 0.052,0.158 0.128,0.293 0.229,0.405 0.102,0.113 0.228,0.199 0.381,0.261 0.152,0.061 0.331,0.092 0.536,0.092 0.2,0 0.373,-0.027 0.519,-0.081 0.147,-0.054 0.268,-0.134 0.364,-0.238 0.096,-0.105 0.166,-0.234 0.213,-0.387 0.047,-0.154 0.07,-0.329 0.07,-0.528" />
      </g>
      <g
         transform="matrix(6.2815914,0,0,-6.2815914,57.097977,499.88356)"
         id="g3524">
        <path
           id="path3526"
           style="fill:#000000;fill-opacity:1;fill-rule:nonzero;stroke:none"
           d="M 0,0 -0.025,0.232 -0.112,0.436 -0.284,0.631 C -0.356,0.695 -0.448,0.764 -0.559,0.837 L -0.751,0.704 -0.912,0.527 -1.016,0.304 -1.053,0.03 l 0.028,-0.254 0.09,-0.21 0.164,-0.141 0.25,-0.052 0.209,0.044 0.164,0.124 0.109,0.196 L 0,0 z M 0.647,0.08 C 0.647,-0.091 0.621,-0.251 0.568,-0.398 0.516,-0.545 0.438,-0.673 0.338,-0.78 0.236,-0.888 0.111,-0.972 -0.037,-1.034 -0.185,-1.095 -0.356,-1.126 -0.55,-1.126 c -0.199,0 -0.371,0.027 -0.516,0.081 -0.146,0.054 -0.265,0.13 -0.359,0.229 -0.094,0.098 -0.163,0.216 -0.208,0.353 -0.045,0.137 -0.067,0.29 -0.067,0.458 0,0.26 0.064,0.496 0.193,0.708 0.129,0.212 0.312,0.381 0.548,0.506 L -1.11,1.334 -1.207,1.467 -1.26,1.61 l -0.016,0.154 0.057,0.269 0.17,0.21 c 0.075,0.058 0.169,0.104 0.281,0.136 0.113,0.033 0.242,0.049 0.388,0.049 L -0.109,2.408 0.128,2.36 0.297,2.305 0.382,2.262 0.416,2.227 0.434,2.18 0.442,2.111 0.444,2.006 0.44,1.904 0.424,1.841 0.401,1.808 0.373,1.798 0.286,1.826 0.13,1.886 -0.077,1.946 -0.32,1.973 -0.456,1.958 -0.552,1.917 -0.608,1.855 -0.627,1.776 -0.616,1.705 -0.585,1.637 -0.524,1.566 -0.428,1.482 -0.286,1.38 -0.054,1.226 0.226,1.009 0.452,0.746 C 0.516,0.65 0.564,0.547 0.597,0.436 0.63,0.325 0.647,0.207 0.647,0.08" />
      </g>
      <g
         transform="matrix(6.2815914,0,0,-6.2815914,71.563226,504.75996)"
         id="g3528">
        <path
           id="path3530"
           style="fill:#000000;fill-opacity:1;fill-rule:nonzero;stroke:none"
           d="m 0,0 -0.015,-0.174 -0.037,-0.08 -0.063,-0.037 -0.097,-0.029 -0.121,-0.019 -0.129,-0.006 c -0.122,0 -0.227,0.016 -0.316,0.049 l -0.218,0.148 -0.126,0.256 c -0.026,0.105 -0.039,0.228 -0.039,0.371 l 0,1.539 0.014,0.044 0.048,0.033 0.095,0.019 0.15,0.006 0.153,-0.006 0.098,-0.019 0.052,-0.033 0.017,-0.044 0,-1.454 0.01,-0.166 0.039,-0.117 0.074,-0.07 0.113,-0.024 0.091,0.005 0.063,0.014 0.043,0.015 0.033,0.006 L -0.04,0.219 -0.019,0.183 -0.005,0.114 0,0 z" />
      </g>
      <g
         transform="matrix(6.2815914,0,0,-6.2815914,82.840567,499.01796)"
         id="g3532">
        <path
           id="path3534"
           style="fill:#000000;fill-opacity:1;fill-rule:nonzero;stroke:none"
           d="M 0,0 C 0,0.128 -0.012,0.24 -0.038,0.335 L -0.141,0.57 -0.293,0.705 -0.477,0.749 -0.697,0.688 -0.847,0.523 -0.934,0.285 -0.961,0.002 l 0.021,-0.291 0.075,-0.244 0.141,-0.169 0.225,-0.063 0.213,0.058 0.157,0.159 0.096,0.239 C -0.011,-0.216 0,-0.116 0,-0.008 L 0,0 z M 1.15,-0.942 1.138,-1.113 1.109,-1.185 1.055,-1.216 0.968,-1.239 0.861,-1.255 0.744,-1.262 l -0.201,0.02 -0.166,0.068 -0.121,0.126 -0.078,0.199 -0.129,-0.169 -0.174,-0.131 -0.217,-0.085 -0.25,-0.03 c -0.173,0 -0.322,0.029 -0.449,0.089 -0.126,0.059 -0.232,0.143 -0.316,0.251 -0.084,0.108 -0.147,0.238 -0.187,0.391 -0.042,0.152 -0.061,0.32 -0.061,0.505 0,0.193 0.024,0.369 0.072,0.526 0.048,0.158 0.119,0.292 0.211,0.403 0.093,0.112 0.206,0.198 0.341,0.257 0.135,0.061 0.29,0.091 0.464,0.091 L -0.231,1.206 0.008,1.082 0.186,0.882 0.293,0.609 0.342,0.846 0.369,1.01 0.383,1.113 0.402,1.161 0.426,1.179 0.472,1.192 0.548,1.202 0.662,1.206 0.811,1.2 0.902,1.182 0.948,1.153 0.962,1.111 0.949,0.97 0.915,0.763 0.864,0.514 0.796,0.247 0.718,-0.015 0.635,-0.25 l 0.021,-0.253 0.051,-0.151 0.072,-0.074 0.08,-0.019 0.081,0.008 0.062,0.015 0.048,0.014 0.04,0.008 0.026,-0.01 0.018,-0.037 0.011,-0.074 0.005,-0.119 z" />
      </g>
      <g
         transform="matrix(6.2815914,0,0,-6.2815914,5.6586536,553.0051)"
         id="g3536">
        <path
           id="path3538"
           style="fill:#000000;fill-opacity:1;fill-rule:nonzero;stroke:none"
           d="m 0,0 -0.006,-0.124 -0.019,-0.082 -0.03,-0.046 -0.042,-0.015 -0.809,0 0,-2.605 -0.016,-0.045 -0.054,-0.033 -0.101,-0.019 -0.158,-0.008 -0.159,0.008 -0.101,0.019 -0.054,0.033 -0.017,0.045 0,2.605 -0.808,0 -0.044,0.015 -0.029,0.046 -0.019,0.082 -0.005,0.124 0.005,0.128 0.019,0.083 0.029,0.045 0.044,0.014 2.277,0 0.042,-0.014 0.03,-0.045 L -0.006,0.128 0,0 z" />
      </g>
      <g
         transform="matrix(6.2815914,0,0,-6.2815914,15.140088,564.09462)"
         id="g3540">
        <path
           id="path3542"
           style="fill:#000000;fill-opacity:1;fill-rule:nonzero;stroke:none"
           d="M 0,0 C 0,0.11 -0.009,0.211 -0.026,0.303 L -0.115,0.544 -0.281,0.704 -0.543,0.762 -0.786,0.71 -0.959,0.561 -1.061,0.323 C -1.083,0.231 -1.095,0.125 -1.095,0.007 c 0,-0.11 0.01,-0.211 0.029,-0.303 l 0.089,-0.241 0.165,-0.159 0.26,-0.056 0.247,0.051 0.173,0.149 0.099,0.236 C -0.011,-0.224 0,-0.118 0,0 m 0.647,0.025 c 0,-0.19 -0.025,-0.363 -0.075,-0.52 C 0.522,-0.651 0.447,-0.786 0.344,-0.899 0.243,-1.013 0.116,-1.1 -0.037,-1.161 -0.191,-1.223 -0.37,-1.254 -0.574,-1.254 c -0.198,0 -0.371,0.028 -0.517,0.083 -0.146,0.054 -0.268,0.134 -0.366,0.239 -0.096,0.105 -0.167,0.234 -0.214,0.387 -0.047,0.154 -0.07,0.328 -0.07,0.525 0,0.19 0.025,0.363 0.076,0.52 0.051,0.158 0.128,0.293 0.228,0.405 0.102,0.113 0.229,0.199 0.381,0.261 0.153,0.061 0.332,0.093 0.537,0.093 C -0.32,1.259 -0.146,1.232 0,1.177 0.146,1.123 0.267,1.043 0.363,0.939 0.459,0.834 0.53,0.705 0.577,0.552 0.624,0.398 0.647,0.223 0.647,0.025" />
      </g>
      <g
         transform="matrix(6.2815914,0,0,-6.2815914,26.277977,571.07724)"
         id="g3544">
        <path
           id="path3546"
           style="fill:#000000;fill-opacity:1;fill-rule:nonzero;stroke:none"
           d="M 0,0 -0.015,-0.044 -0.067,-0.075 -0.163,-0.094 -0.315,-0.1 -0.468,-0.094 -0.564,-0.075 -0.615,-0.044 -0.629,0 l 0,3.284 0.014,0.045 0.051,0.034 0.096,0.021 0.153,0.007 L -0.163,3.384 -0.067,3.363 -0.015,3.329 0,3.284 0,0 z" />
      </g>
      <g
         transform="matrix(6.2815914,0,0,-6.2815914,34.168284,571.07724)"
         id="g3548">
        <path
           id="path3550"
           style="fill:#000000;fill-opacity:1;fill-rule:nonzero;stroke:none"
           d="M 0,0 -0.015,-0.044 -0.067,-0.075 -0.163,-0.094 -0.315,-0.1 -0.468,-0.094 -0.564,-0.075 -0.615,-0.044 -0.629,0 l 0,3.284 0.014,0.045 0.051,0.034 0.096,0.021 0.153,0.007 L -0.163,3.384 -0.067,3.363 -0.015,3.329 0,3.284 0,0 z" />
      </g>
      <g
         transform="matrix(6.2815914,0,0,-6.2815914,55.192143,557.77477)"
         id="g3552">
        <path
           id="path3554"
           style="fill:#000000;fill-opacity:1;fill-rule:nonzero;stroke:none"
           d="m 0,0 c 0,0.114 -0.02,0.207 -0.06,0.28 l -0.147,0.162 -0.184,0.067 -0.198,0.013 -0.28,0 0,-1.096 0.294,0 0.263,0.043 0.174,0.118 0.103,0.182 L 0,0 z M 0.687,0.047 C 0.687,-0.134 0.659,-0.295 0.601,-0.434 0.545,-0.574 0.463,-0.692 0.354,-0.788 0.246,-0.884 0.114,-0.956 -0.044,-1.006 -0.202,-1.056 -0.387,-1.081 -0.6,-1.081 l -0.269,0 0,-1.032 -0.017,-0.044 -0.054,-0.033 -0.099,-0.02 -0.16,-0.008 -0.159,0.008 -0.101,0.02 -0.053,0.033 -0.015,0.044 0,2.908 0.062,0.175 0.161,0.06 0.762,0 L -0.323,1.021 -0.075,0.983 0.218,0.877 0.471,0.681 0.632,0.404 C 0.668,0.298 0.687,0.179 0.687,0.047" />
      </g>
      <g
         transform="matrix(6.2815914,0,0,-6.2815914,72.034345,564.09462)"
         id="g3556">
        <path
           id="path3558"
           style="fill:#000000;fill-opacity:1;fill-rule:nonzero;stroke:none"
           d="M 0,0 C 0,0.11 -0.009,0.211 -0.026,0.303 L -0.115,0.544 -0.281,0.704 -0.543,0.762 -0.786,0.71 -0.959,0.561 -1.061,0.323 C -1.083,0.231 -1.094,0.125 -1.094,0.007 c 0,-0.11 0.009,-0.211 0.028,-0.303 l 0.089,-0.241 0.165,-0.159 0.26,-0.056 0.247,0.051 0.172,0.149 0.1,0.236 C -0.011,-0.224 0,-0.118 0,0 m 0.647,0.025 c 0,-0.19 -0.025,-0.363 -0.075,-0.52 C 0.522,-0.651 0.447,-0.786 0.345,-0.899 0.243,-1.013 0.116,-1.1 -0.038,-1.161 -0.191,-1.223 -0.37,-1.254 -0.574,-1.254 c -0.198,0 -0.371,0.028 -0.517,0.083 -0.147,0.054 -0.268,0.134 -0.366,0.239 -0.096,0.105 -0.167,0.234 -0.214,0.387 -0.047,0.154 -0.07,0.328 -0.07,0.525 0,0.19 0.025,0.363 0.076,0.52 0.051,0.158 0.127,0.293 0.228,0.405 0.102,0.113 0.229,0.199 0.381,0.261 0.153,0.061 0.332,0.093 0.537,0.093 C -0.32,1.259 -0.147,1.232 0,1.177 0.147,1.123 0.267,1.043 0.363,0.939 0.459,0.834 0.53,0.705 0.577,0.552 0.623,0.398 0.647,0.223 0.647,0.025" />
      </g>
      <g
         transform="matrix(6.2815914,0,0,-6.2815914,89.068765,567.12423)"
         id="g3560">
        <path
           id="path3562"
           style="fill:#000000;fill-opacity:1;fill-rule:nonzero;stroke:none"
           d="m 0,0 c 0,-0.126 -0.024,-0.238 -0.071,-0.335 l -0.201,-0.242 c -0.087,-0.065 -0.19,-0.114 -0.308,-0.146 -0.117,-0.032 -0.246,-0.049 -0.385,-0.049 l -0.237,0.019 -0.204,0.048 -0.15,0.058 -0.087,0.056 -0.043,0.083 -0.014,0.166 0.004,0.116 0.016,0.07 0.024,0.035 0.038,0.009 0.08,-0.031 0.134,-0.069 0.186,-0.07 0.242,-0.033 0.151,0.018 0.115,0.05 0.072,0.082 0.026,0.115 -0.047,0.129 -0.121,0.093 -0.173,0.075 -0.197,0.078 -0.198,0.097 -0.172,0.135 -0.122,0.192 -0.047,0.27 0.064,0.294 0.179,0.228 c 0.078,0.063 0.173,0.113 0.286,0.147 0.112,0.035 0.239,0.053 0.378,0.053 L -0.578,1.726 -0.4,1.688 -0.265,1.639 -0.186,1.595 -0.152,1.557 -0.137,1.512 -0.129,1.447 -0.125,1.351 -0.129,1.241 -0.141,1.174 -0.165,1.14 -0.2,1.132 -0.27,1.158 -0.388,1.214 -0.553,1.27 -0.766,1.296 -0.914,1.279 -1.016,1.229 -1.077,1.153 -1.097,1.059 -1.049,0.929 -0.925,0.837 -0.748,0.762 -0.549,0.686 -0.348,0.589 -0.172,0.455 -0.048,0.264 0,0 z" />
      </g>
      <g
         transform="matrix(6.2815914,0,0,-6.2815914,99.955391,569.69654)"
         id="g3564">
        <path
           id="path3566"
           style="fill:#000000;fill-opacity:1;fill-rule:nonzero;stroke:none"
           d="M 0,0 -0.014,-0.169 -0.05,-0.251 -0.116,-0.294 -0.219,-0.326 -0.346,-0.347 -0.485,-0.354 c -0.124,0 -0.233,0.015 -0.325,0.047 l -0.227,0.146 -0.133,0.248 c -0.028,0.101 -0.042,0.218 -0.042,0.355 l 0,1.141 -0.267,0 -0.073,0.059 -0.024,0.196 0.006,0.123 0.018,0.078 0.032,0.042 0.043,0.012 0.265,0 0,0.497 0.014,0.045 0.051,0.033 0.097,0.02 0.151,0.007 0.154,-0.007 0.096,-0.02 0.049,-0.033 0.015,-0.045 0,-0.497 0.485,0 0.044,-0.012 0.03,-0.042 L -0.007,1.961 0,1.838 -0.026,1.642 -0.097,1.583 l -0.488,0 0,-1.046 c 0,-0.122 0.019,-0.213 0.058,-0.273 l 0.205,-0.092 0.09,0.009 0.07,0.02 0.053,0.02 L -0.07,0.23 -0.041,0.221 -0.02,0.186 -0.007,0.115 0,0 z" />
      </g>
    </g>
  </g>
</svg>
