<?xml version="1.0" encoding="UTF-8" standalone="no"?>
<!-- Created with Inkscape (http://www.inkscape.org/) -->

<svg
   xmlns:dc="http://purl.org/dc/elements/1.1/"
   xmlns:cc="http://creativecommons.org/ns#"
   xmlns:rdf="http://www.w3.org/1999/02/22-rdf-syntax-ns#"
   xmlns:svg="http://www.w3.org/2000/svg"
   xmlns="http://www.w3.org/2000/svg"
   xmlns:sodipodi="http://sodipodi.sourceforge.net/DTD/sodipodi-0.dtd"
   xmlns:inkscape="http://www.inkscape.org/namespaces/inkscape"
   width="129.65508"
   height="76.771385"
   id="svg4366"
   version="1.1"
   inkscape:version="0.47 r22583"
   sodipodi:docname="Cyprus road sign destinations white.svg">
  <defs
     id="defs4368">
    <inkscape:perspective
       sodipodi:type="inkscape:persp3d"
       inkscape:vp_x="0 : 526.18109 : 1"
       inkscape:vp_y="0 : 1000 : 0"
       inkscape:vp_z="744.09448 : 526.18109 : 1"
       inkscape:persp3d-origin="372.04724 : 350.78739 : 1"
       id="perspective4374" />
    <inkscape:perspective
       id="perspective4198"
       inkscape:persp3d-origin="0.5 : 0.33333333 : 1"
       inkscape:vp_z="1 : 0.5 : 1"
       inkscape:vp_y="0 : 1000 : 0"
       inkscape:vp_x="0 : 0.5 : 1"
       sodipodi:type="inkscape:persp3d" />
    <clipPath
       clipPathUnits="userSpaceOnUse"
       id="clipPath2876">
      <path
         d="m 32.598,406.205 114.997,0 0,116.22 -114.997,0 0,-116.22 z"
         id="path2878" />
    </clipPath>
    <clipPath
       clipPathUnits="userSpaceOnUse"
       id="clipPath2864">
      <path
         d="M 0,0 311,0 311,595 0,595 0,0 z"
         id="path2866" />
    </clipPath>
    <clipPath
       clipPathUnits="userSpaceOnUse"
       id="clipPath2848">
      <path
         d="m 32.598,406.205 114.997,0 0,116.22 -114.997,0 0,-116.22 z"
         id="path2850" />
    </clipPath>
    <inkscape:perspective
       id="perspective4719"
       inkscape:persp3d-origin="0.5 : 0.33333333 : 1"
       inkscape:vp_z="1 : 0.5 : 1"
       inkscape:vp_y="0 : 1000 : 0"
       inkscape:vp_x="0 : 0.5 : 1"
       sodipodi:type="inkscape:persp3d" />
    <clipPath
       clipPathUnits="userSpaceOnUse"
       id="clipPath3216">
      <path
         d="m 32.598,263.055 114.997,0 0,116.221 -114.997,0 0,-116.221 z"
         id="path3218" />
    </clipPath>
    <clipPath
       clipPathUnits="userSpaceOnUse"
       id="clipPath3196">
      <path
         d="M 0,0 311,0 311,595 0,595 0,0 z"
         id="path3198" />
    </clipPath>
    <clipPath
       clipPathUnits="userSpaceOnUse"
       id="clipPath3186">
      <path
         d="m 32.598,263.055 114.997,0 0,116.221 -114.997,0 0,-116.221 z"
         id="path3188" />
    </clipPath>
    <clipPath
       clipPathUnits="userSpaceOnUse"
       id="clipPath3176">
      <path
         d="M 0,0 311,0 311,595 0,595 0,0 z"
         id="path3178" />
    </clipPath>
    <inkscape:perspective
       id="perspective5059"
       inkscape:persp3d-origin="0.5 : 0.33333333 : 1"
       inkscape:vp_z="1 : 0.5 : 1"
       inkscape:vp_y="0 : 1000 : 0"
       inkscape:vp_x="0 : 0.5 : 1"
       sodipodi:type="inkscape:persp3d" />
    <clipPath
       clipPathUnits="userSpaceOnUse"
       id="clipPath3804">
      <path
         d="m 32.598,179.292 133.937,0 0,55.984 -133.937,0 0,-55.984 z"
         id="path3806" />
    </clipPath>
    <clipPath
       clipPathUnits="userSpaceOnUse"
       id="clipPath3792">
      <path
         d="m 32.988,179.292 133.159,0 0,55.984 -133.159,0 0,-55.984 z"
         id="path3794" />
    </clipPath>
    <clipPath
       clipPathUnits="userSpaceOnUse"
       id="clipPath3782">
      <path
         d="m 32.598,179.292 133.937,0 0,55.984 -133.937,0 0,-55.984 z"
         id="path3784" />
    </clipPath>
    <inkscape:perspective
       id="perspective5372"
       inkscape:persp3d-origin="0.5 : 0.33333333 : 1"
       inkscape:vp_z="1 : 0.5 : 1"
       inkscape:vp_y="0 : 1000 : 0"
       inkscape:vp_x="0 : 0.5 : 1"
       sodipodi:type="inkscape:persp3d" />
    <clipPath
       clipPathUnits="userSpaceOnUse"
       id="clipPath4002">
      <path
         d="m 172.913,179.292 96.378,0 0,55.984 -96.378,0 0,-55.984 z"
         id="path4004" />
    </clipPath>
    <clipPath
       clipPathUnits="userSpaceOnUse"
       id="clipPath3990">
      <path
         d="M 0,0 311,0 311,595 0,595 0,0 z"
         id="path3992" />
    </clipPath>
    <clipPath
       clipPathUnits="userSpaceOnUse"
       id="clipPath3978">
      <path
         d="m 172.913,179.292 96.378,0 0,55.984 -96.378,0 0,-55.984 z"
         id="path3980" />
    </clipPath>
  </defs>
  <sodipodi:namedview
     id="base"
     pagecolor="#ffffff"
     bordercolor="#666666"
     borderopacity="1.0"
     inkscape:pageopacity="0.0"
     inkscape:pageshadow="2"
     inkscape:zoom="0.83535156"
     inkscape:cx="588.61225"
     inkscape:cy="95.288273"
     inkscape:document-units="px"
     inkscape:current-layer="layer1"
     showgrid="false"
     inkscape:window-width="1600"
     inkscape:window-height="838"
     inkscape:window-x="-8"
     inkscape:window-y="-8"
     inkscape:window-maximized="1" />
  <metadata
     id="metadata4371">
    <rdf:RDF>
      <cc:Work
         rdf:about="">
        <dc:format>image/svg+xml</dc:format>
        <dc:type
           rdf:resource="http://purl.org/dc/dcmitype/StillImage" />
        <dc:title></dc:title>
      </cc:Work>
    </rdf:RDF>
  </metadata>
  <g
     inkscape:label="Livello 1"
     inkscape:groupmode="layer"
     id="layer1"
     transform="translate(213.61224,-550.87908)">
    <g
       transform="matrix(1.5203561,0,0,-1.5203561,-26.375681,948.25236)"
       id="g3778">
      <g
         id="g3780"
         clip-path="url(#clipPath3782)">
        <path
           d="m 33.311,181.004 132.836,0 0,51.106 -132.836,0 0,-51.106 z"
           style="fill:#ffffff;fill-opacity:1;fill-rule:nonzero;stroke:none"
           id="path3786" />
      </g>
    </g>
    <g
       transform="matrix(1.5203561,0,0,-1.5203561,-26.375681,948.25236)"
       id="g3788">
      <g
         id="g3790"
         clip-path="url(#clipPath3792)">
        <g
           id="g3796"
           transform="matrix(1.1365967,0,0,-1.085495,41.564133,195.1129)">
          <path
             d="m 0,0 c 3.082,5.331 5.043,9.833 6.727,9.833 l 96.404,0 c 2.269,0 4.109,-1.79 4.109,-4 l 0,-34.5 c 0,-2.209 -1.84,-4 -4.109,-4 l -96.404,0 c -2.269,0 -5.055,5.971 -6.727,8.923 0,0 -5.256,9.346 -5.175,12.295 C -5.093,-8.5 0,0 0,0 z"
             style="fill:none;stroke:#000000;stroke-width:0.8221758;stroke-linecap:butt;stroke-linejoin:miter;stroke-miterlimit:10;stroke-opacity:1;stroke-dasharray:none"
             id="path3798" />
        </g>
      </g>
    </g>
    <g
       transform="matrix(1.5203561,0,0,-1.5203561,-26.375681,948.25236)"
       id="g3800">
      <g
         id="g3802"
         clip-path="url(#clipPath3804)">
        <g
           id="g3808"
           transform="translate(49.333801,227.13499)">
          <path
             d="M 0,0 3.949,0 -4.886,-19.629 3.949,-39.078 0,-39.078 -9.293,-19.856 0,0 z"
             style="fill:#000000;fill-opacity:1;fill-rule:evenodd;stroke:none"
             id="path3810" />
        </g>
        <g
           id="g3812"
           transform="translate(59.322998,225.02499)">
          <path
             d="m 0,0 -0.382,1.442 -0.04,0 -0.382,-1.433 -0.5,-1.694 1.804,0 L 0,0 z m 1.117,-3.865 -0.43,1.478 -2.176,0 -0.422,-1.478 -0.833,0 1.98,6.514 0.734,0 1.989,-6.514 -0.842,0 z"
             style="fill:#000000;fill-opacity:1;fill-rule:nonzero;stroke:none"
             id="path3814" />
        </g>
        <g
           id="g3816"
           transform="translate(62.360794,221.1595)">
          <path
             d="m 0,0 0,6.514 3.616,0 0,-0.731 -2.802,0 0,-2.134 2.4,0 0,-0.701 -2.4,0 0,-2.19 2.802,0 L 3.616,0 0,0 z"
             style="fill:#000000;fill-opacity:1;fill-rule:nonzero;stroke:none"
             id="path3818" />
        </g>
        <g
           id="g3820"
           transform="translate(70.288498,225.72681)">
          <path
             d="m 0,0 c 0,0.374 -0.092,0.671 -0.274,0.889 -0.183,0.218 -0.488,0.328 -0.911,0.328 l -1.109,0 0,-2.434 1.118,0 c 0.229,0 0.418,0.035 0.568,0.103 0.151,0.069 0.272,0.16 0.363,0.272 0.092,0.113 0.155,0.242 0.192,0.388 C -0.018,-0.307 0,-0.156 0,0 M 0.823,-0.01 C 0.823,-0.259 0.788,-0.5 0.715,-0.735 0.643,-0.968 0.531,-1.174 0.377,-1.353 0.224,-1.531 0.023,-1.674 -0.225,-1.782 -0.474,-1.892 -0.774,-1.946 -1.128,-1.946 l -1.166,0 0,-2.622 -0.812,0 0,6.514 1.94,0 c 0.633,0 1.123,-0.16 1.469,-0.482 0.347,-0.321 0.52,-0.812 0.52,-1.474"
             style="fill:#000000;fill-opacity:1;fill-rule:nonzero;stroke:none"
             id="path3822" />
        </g>
        <g
           id="g3824"
           transform="translate(75.247101,225.77341)">
          <path
             d="M 0,0 C 0,0.1 -0.018,0.218 -0.055,0.356 -0.09,0.493 -0.152,0.624 -0.241,0.749 -0.33,0.874 -0.449,0.981 -0.6,1.071 -0.751,1.161 -0.945,1.207 -1.181,1.207 -1.417,1.207 -1.611,1.166 -1.762,1.081 -1.913,0.996 -2.033,0.893 -2.125,0.772 -2.217,0.65 -2.281,0.518 -2.318,0.374 -2.354,0.231 -2.372,0.1 -2.372,-0.019 l 0.01,-2.573 c 0,-0.187 0.022,-0.364 0.064,-0.529 0.043,-0.166 0.113,-0.309 0.212,-0.431 0.098,-0.121 0.224,-0.218 0.379,-0.29 0.153,-0.071 0.34,-0.107 0.556,-0.107 0.156,0 0.307,0.026 0.447,0.079 0.141,0.053 0.263,0.129 0.364,0.229 0.102,0.1 0.184,0.222 0.247,0.365 C -0.031,-3.132 0,-2.97 0,-2.789 L 0,0 z m 0.833,-2.714 c 0,-0.299 -0.049,-0.57 -0.148,-0.81 C 0.588,-3.763 0.451,-3.97 0.274,-4.141 0.098,-4.313 -0.113,-4.444 -0.358,-4.534 -0.602,-4.624 -0.872,-4.67 -1.166,-4.67 c -0.359,0 -0.666,0.057 -0.921,0.168 -0.256,0.113 -0.462,0.264 -0.623,0.454 -0.16,0.19 -0.276,0.41 -0.347,0.66 -0.072,0.25 -0.108,0.511 -0.108,0.786 l 0,2.612 c 0,0.218 0.036,0.443 0.108,0.673 0.071,0.231 0.186,0.44 0.343,0.627 0.157,0.187 0.362,0.341 0.617,0.458 0.255,0.12 0.565,0.178 0.931,0.178 0.347,0 0.644,-0.055 0.897,-0.168 C -0.018,1.666 0.19,1.517 0.352,1.334 0.516,1.149 0.636,0.942 0.715,0.711 0.793,0.48 0.833,0.246 0.833,0.01 l 0,-2.724 z"
             style="fill:#000000;fill-opacity:1;fill-rule:nonzero;stroke:none"
             id="path3826" />
        </g>
        <g
           id="g3828"
           transform="translate(80.832596,221.1595)">
          <path
             d="M 0,0 -0.451,1.544 C -0.49,1.676 -0.535,1.83 -0.588,2.008 -0.64,2.185 -0.707,2.413 -0.789,2.691 -0.871,2.968 -0.971,3.309 -1.088,3.71 -1.205,4.113 -1.346,4.601 -1.509,5.176 l -0.02,0 C -1.621,4.839 -1.699,4.566 -1.764,4.357 -1.829,4.148 -1.884,3.969 -1.931,3.819 -2.022,3.482 -2.102,3.191 -2.171,2.948 -2.239,2.705 -2.299,2.491 -2.352,2.307 -2.404,2.123 -2.449,1.967 -2.489,1.839 -2.528,1.711 -2.561,1.597 -2.587,1.497 L -3.038,0 l -0.823,0 1.98,6.514 0.734,0 L 0.833,0 0,0 z"
             style="fill:#000000;fill-opacity:1;fill-rule:nonzero;stroke:none"
             id="path3830" />
        </g>
        <path
           d="m 82.763,221.16 0.823,0 0,6.514 -0.823,0 0,-6.514 z"
           style="fill:#000000;fill-opacity:1;fill-rule:nonzero;stroke:none"
           id="path3832" />
        <g
           id="g3834"
           transform="translate(89.642395,221.1595)">
          <path
             d="M 0,0 0,4.548 -0.04,4.54 -0.579,3.285 -1.518,1.272 l -0.56,0 -0.95,2.051 -0.519,1.225 -0.04,-0.008 0,-4.54 -0.813,0 0,6.514 0.823,0 1.126,-2.462 0.647,-1.506 0.03,0 0.667,1.525 L 0,6.514 0.814,6.514 0.814,0 0,0 z"
             style="fill:#000000;fill-opacity:1;fill-rule:nonzero;stroke:none"
             id="path3836" />
        </g>
        <g
           id="g3838"
           transform="translate(92.033295,221.1595)">
          <path
             d="m 0,0 0,6.514 3.617,0 0,-0.731 -2.803,0 0,-2.134 2.4,0 0,-0.701 -2.4,0 0,-2.19 2.803,0 L 3.617,0 0,0 z"
             style="fill:#000000;fill-opacity:1;fill-rule:nonzero;stroke:none"
             id="path3840" />
        </g>
        <g
           id="g3842"
           transform="translate(100.3335,221.1595)">
          <path
             d="m 0,0 -1.95,3.426 -0.696,1.3 -0.03,0 0,-4.726 -0.822,0 0,6.514 0.793,0 1.912,-3.379 0.725,-1.339 0.038,0.01 0,4.708 0.814,0 L 0.784,0 0,0 z"
             style="fill:#000000;fill-opacity:1;fill-rule:nonzero;stroke:none"
             id="path3844" />
        </g>
        <g
           id="g3846"
           transform="translate(104.9196,225.02499)">
          <path
             d="m 0,0 -0.382,1.442 -0.04,0 -0.382,-1.433 -0.5,-1.694 1.804,0 L 0,0 z m 1.117,-3.865 -0.431,1.478 -2.176,0 -0.421,-1.478 -0.833,0 1.979,6.514 0.736,0 1.989,-6.514 -0.843,0 z"
             style="fill:#000000;fill-opacity:1;fill-rule:nonzero;stroke:none"
             id="path3848" />
        </g>
        <g
           id="g3850"
           transform="translate(107.5654,221.1595)">
          <path
             d="m 0,0 0,0.674 1.313,2.676 -1.323,2.518 0,0.646 3.44,0 0,-0.702 -2.548,0 1.333,-2.457 -1.323,-2.634 2.655,0 L 3.547,0 0,0 z"
             style="fill:#000000;fill-opacity:1;fill-rule:nonzero;stroke:none"
             id="path3852" />
        </g>
        <g
           id="g3854"
           transform="translate(60.440201,211.39)">
          <path
             d="M 0,0 -0.451,1.544 C -0.49,1.676 -0.535,1.83 -0.588,2.008 -0.64,2.185 -0.707,2.413 -0.789,2.691 c -0.082,0.277 -0.182,0.618 -0.299,1.02 -0.117,0.402 -0.258,0.89 -0.421,1.465 l -0.02,0 C -1.621,4.839 -1.699,4.566 -1.764,4.357 -1.829,4.148 -1.884,3.969 -1.93,3.819 -2.022,3.482 -2.102,3.191 -2.171,2.948 -2.239,2.705 -2.299,2.491 -2.352,2.307 -2.404,2.123 -2.449,1.967 -2.489,1.839 -2.528,1.711 -2.561,1.597 -2.587,1.497 L -3.038,0 l -0.823,0 1.98,6.514 0.734,0 L 0.833,0 0,0 z"
             style="fill:#000000;fill-opacity:1;fill-rule:nonzero;stroke:none"
             id="path3856" />
        </g>
        <g
           id="g3858"
           transform="translate(64.555893,215.2556)">
          <path
             d="m 0,0 -0.382,1.441 -0.04,0 -0.382,-1.432 -0.5,-1.694 1.804,0 L 0,0 z m 1.117,-3.865 -0.431,1.478 -2.176,0 -0.421,-1.478 -0.833,0 1.98,6.514 0.734,0 1.989,-6.514 -0.842,0 z"
             style="fill:#000000;fill-opacity:1;fill-rule:nonzero;stroke:none"
             id="path3860" />
        </g>
        <g
           id="g3862"
           transform="translate(70.700104,215.9574)">
          <path
             d="m 0,0 c 0,0.374 -0.092,0.671 -0.274,0.889 -0.183,0.218 -0.488,0.328 -0.911,0.328 l -1.108,0 0,-2.434 1.117,0 c 0.229,0 0.418,0.035 0.569,0.103 0.15,0.069 0.271,0.16 0.363,0.272 0.091,0.113 0.154,0.242 0.191,0.388 C -0.018,-0.307 0,-0.156 0,0 M 0.823,-0.01 C 0.823,-0.259 0.788,-0.501 0.715,-0.735 0.643,-0.968 0.531,-1.174 0.377,-1.353 0.224,-1.531 0.023,-1.674 -0.225,-1.782 -0.474,-1.892 -0.774,-1.946 -1.126,-1.946 l -1.167,0 0,-2.622 -0.813,0 0,6.514 1.94,0 c 0.634,0 1.124,-0.16 1.469,-0.482 0.347,-0.321 0.52,-0.812 0.52,-1.474"
             style="fill:#000000;fill-opacity:1;fill-rule:nonzero;stroke:none"
             id="path3864" />
        </g>
        <g
           id="g3866"
           transform="translate(76.178101,211.39)">
          <path
             d="m 0,0 -1.95,3.426 -0.696,1.3 -0.03,0 0,-4.726 -0.822,0 0,6.514 0.793,0 1.912,-3.379 0.725,-1.339 0.038,0.01 0,4.708 0.814,0 L 0.784,0 0,0 z"
             style="fill:#000000;fill-opacity:1;fill-rule:nonzero;stroke:none"
             id="path3868" />
        </g>
        <g
           id="g3870"
           transform="translate(80.764206,215.2556)">
          <path
             d="m 0,0 -0.382,1.441 -0.04,0 -0.382,-1.432 -0.5,-1.694 1.804,0 L 0,0 z m 1.117,-3.865 -0.43,1.478 -2.177,0 -0.421,-1.478 -0.833,0 1.979,6.514 0.735,0 1.99,-6.514 -0.843,0 z"
             style="fill:#000000;fill-opacity:1;fill-rule:nonzero;stroke:none"
             id="path3872" />
        </g>
        <g
           id="g3874"
           transform="translate(87.231796,211.39)">
          <path
             d="M 0,0 -1.626,3.229 C -1.797,2.998 -1.962,2.766 -2.122,2.531 -2.281,2.298 -2.447,2.068 -2.616,1.844 l 0,-1.844 -0.823,0 0,6.514 0.823,0 0,-3.416 0.014,0.004 0.015,0.005 c 0.385,0.581 0.774,1.149 1.166,1.708 0.392,0.558 0.784,1.125 1.175,1.699 l 0.893,0 C 0.352,6.083 0.06,5.661 -0.231,5.246 -0.521,4.831 -0.814,4.408 -1.107,3.977 L 0.901,0 0,0 z"
             style="fill:#000000;fill-opacity:1;fill-rule:nonzero;stroke:none"
             id="path3876" />
        </g>
        <g
           id="g3878"
           transform="translate(91.416199,215.2556)">
          <path
             d="m 0,0 -0.382,1.441 -0.04,0 -0.382,-1.432 -0.5,-1.694 1.804,0 L 0,0 z m 1.117,-3.865 -0.43,1.478 -2.177,0 -0.421,-1.478 -0.833,0 1.979,6.514 0.735,0 1.989,-6.514 -0.842,0 z"
             style="fill:#000000;fill-opacity:1;fill-rule:nonzero;stroke:none"
             id="path3880" />
        </g>
        <g
           id="g3882"
           transform="translate(94.061905,211.39)">
          <path
             d="m 0,0 0,0.674 1.313,2.676 -1.323,2.518 0,0.646 3.44,0 0,-0.702 -2.548,0 1.332,-2.457 -1.322,-2.634 2.655,0 L 3.547,0 0,0 z"
             style="fill:#000000;fill-opacity:1;fill-rule:nonzero;stroke:none"
             id="path3884" />
        </g>
        <g
           id="g3886"
           transform="translate(57.127899,200.5351)">
          <path
             d="m 0,0 0,6.514 0.814,0 0,-5.756 2.723,0 L 3.537,0 0,0 z"
             style="fill:#000000;fill-opacity:1;fill-rule:nonzero;stroke:none"
             id="path3888" />
        </g>
        <g
           id="g3890"
           transform="translate(64.114899,202.6225)">
          <path
             d="m 0,0 -0.95,0 c -0.255,0 -0.464,-0.059 -0.628,-0.175 -0.163,-0.116 -0.245,-0.306 -0.245,-0.57 0,-0.207 0.073,-0.375 0.216,-0.503 0.143,-0.13 0.362,-0.194 0.657,-0.194 0.274,0 0.501,0.06 0.681,0.18 C -0.09,-1.143 0,-0.936 0,-0.641 L 0,0 z m -0.039,-1.731 c -0.111,-0.138 -0.267,-0.24 -0.466,-0.31 -0.199,-0.068 -0.426,-0.103 -0.68,-0.103 -0.236,0 -0.441,0.037 -0.618,0.109 -0.177,0.07 -0.322,0.169 -0.436,0.294 -0.115,0.125 -0.2,0.269 -0.255,0.435 -0.055,0.165 -0.084,0.339 -0.084,0.519 0,0.413 0.134,0.754 0.403,1.026 0.268,0.271 0.695,0.407 1.283,0.407 l 0.892,0 0,0.575 c 0,0.213 -0.074,0.38 -0.22,0.5 C -0.367,1.84 -0.584,1.9 -0.872,1.9 -1.062,1.9 -1.24,1.867 -1.406,1.802 -1.573,1.736 -1.692,1.622 -1.764,1.46 c -0.105,0.055 -0.207,0.114 -0.309,0.173 -0.101,0.059 -0.204,0.12 -0.308,0.182 0.131,0.254 0.331,0.447 0.601,0.583 0.271,0.136 0.573,0.203 0.905,0.203 0.227,0 0.442,-0.023 0.643,-0.07 C -0.03,2.485 0.148,2.408 0.301,2.302 0.454,2.196 0.574,2.054 0.661,1.876 0.75,1.698 0.793,1.475 0.793,1.207 l 0,-3.294 -0.793,0 0,0.337 -0.039,0.019 z"
             style="fill:#000000;fill-opacity:1;fill-rule:nonzero;stroke:none"
             id="path3892" />
        </g>
        <g
           id="g3894"
           transform="translate(67.123199,204.6062)">
          <path
             d="M 0,0 C 0.15,0.243 0.321,0.407 0.509,0.492 0.699,0.575 0.924,0.618 1.185,0.618 1.375,0.606 1.522,0.571 1.626,0.514 L 1.45,-0.3 C 1.293,-0.231 1.133,-0.197 0.971,-0.197 0.669,-0.197 0.427,-0.276 0.246,-0.435 0.063,-0.594 -0.03,-0.849 -0.03,-1.197 l 0,-2.874 -0.793,0 0,4.624 0.793,0 L -0.03,0 0,0 z"
             style="fill:#000000;fill-opacity:1;fill-rule:nonzero;stroke:none"
             id="path3896" />
        </g>
        <g
           id="g3898"
           transform="translate(72.150299,200.5351)">
          <path
             d="m 0,0 0,3.023 c 0,0.281 -0.075,0.5 -0.224,0.66 -0.15,0.159 -0.37,0.239 -0.663,0.239 -0.267,0 -0.48,-0.084 -0.643,-0.249 C -1.692,3.508 -1.773,3.285 -1.773,3.005 l 0,-3.005 -0.795,0 0,4.633 0.804,0 0,-0.515 0.03,0 c 0.136,0.182 0.305,0.32 0.508,0.416 0.201,0.097 0.419,0.146 0.653,0.146 0.196,0 0.376,-0.033 0.542,-0.099 C 0.135,4.516 0.278,4.422 0.399,4.301 0.518,4.179 0.615,4.032 0.687,3.861 0.758,3.689 0.793,3.494 0.793,3.276 L 0.793,0 0,0 z"
             style="fill:#000000;fill-opacity:1;fill-rule:nonzero;stroke:none"
             id="path3900" />
        </g>
        <g
           id="g3902"
           transform="translate(76.697098,202.6225)">
          <path
             d="m 0,0 -0.95,0 c -0.256,0 -0.465,-0.059 -0.628,-0.175 -0.163,-0.116 -0.245,-0.306 -0.245,-0.57 0,-0.207 0.073,-0.375 0.216,-0.503 0.143,-0.13 0.362,-0.194 0.657,-0.194 0.274,0 0.501,0.06 0.681,0.18 C -0.09,-1.143 0,-0.936 0,-0.641 L 0,0 z m -0.04,-1.731 c -0.11,-0.138 -0.266,-0.24 -0.465,-0.31 -0.199,-0.068 -0.426,-0.103 -0.68,-0.103 -0.236,0 -0.441,0.037 -0.618,0.109 -0.177,0.07 -0.322,0.169 -0.436,0.294 -0.115,0.125 -0.2,0.269 -0.255,0.435 -0.055,0.165 -0.084,0.339 -0.084,0.519 0,0.413 0.134,0.754 0.403,1.026 0.268,0.271 0.695,0.407 1.283,0.407 l 0.892,0 0,0.575 c 0,0.213 -0.074,0.38 -0.221,0.5 C -0.367,1.84 -0.584,1.9 -0.872,1.9 -1.062,1.9 -1.24,1.867 -1.406,1.802 -1.573,1.736 -1.692,1.622 -1.764,1.46 c -0.105,0.055 -0.207,0.114 -0.309,0.173 -0.101,0.059 -0.204,0.12 -0.308,0.182 0.131,0.254 0.331,0.447 0.601,0.583 0.271,0.136 0.573,0.203 0.905,0.203 0.227,0 0.442,-0.023 0.643,-0.07 C -0.03,2.485 0.148,2.408 0.301,2.302 0.454,2.196 0.574,2.054 0.661,1.876 0.75,1.698 0.793,1.475 0.793,1.207 l 0,-3.294 -0.793,0 0,0.337 -0.04,0.019 z"
             style="fill:#000000;fill-opacity:1;fill-rule:nonzero;stroke:none"
             id="path3904" />
        </g>
        <g
           id="g3906"
           transform="translate(81.685104,200.5351)">
          <path
             d="m 0,0 -1.284,2.256 -0.764,-1.012 0,-1.244 -0.793,0 0,6.794 0.793,0 0,-4.398 0.019,0 1.726,2.237 0.911,0 L -0.774,2.864 0.882,0 0,0 z"
             style="fill:#000000;fill-opacity:1;fill-rule:nonzero;stroke:none"
             id="path3908" />
        </g>
        <g
           id="g3910"
           transform="translate(85.9086,202.6225)">
          <path
             d="m 0,0 -0.95,0 c -0.255,0 -0.464,-0.059 -0.628,-0.175 -0.163,-0.116 -0.245,-0.306 -0.245,-0.57 0,-0.207 0.073,-0.375 0.216,-0.503 0.143,-0.13 0.362,-0.194 0.657,-0.194 0.274,0 0.501,0.06 0.681,0.18 C -0.09,-1.143 0,-0.936 0,-0.641 L 0,0 z m -0.039,-1.731 c -0.111,-0.138 -0.267,-0.24 -0.466,-0.31 -0.199,-0.068 -0.426,-0.103 -0.68,-0.103 -0.236,0 -0.441,0.037 -0.618,0.109 -0.177,0.07 -0.322,0.169 -0.436,0.294 -0.115,0.125 -0.199,0.269 -0.255,0.435 -0.055,0.165 -0.084,0.339 -0.084,0.519 0,0.413 0.134,0.754 0.403,1.026 0.268,0.271 0.695,0.407 1.283,0.407 l 0.892,0 0,0.575 c 0,0.213 -0.074,0.38 -0.22,0.5 C -0.367,1.84 -0.584,1.9 -0.872,1.9 -1.062,1.9 -1.24,1.867 -1.406,1.802 -1.573,1.736 -1.692,1.622 -1.764,1.46 c -0.105,0.055 -0.207,0.114 -0.308,0.173 -0.102,0.059 -0.205,0.12 -0.309,0.182 0.131,0.254 0.331,0.447 0.602,0.583 0.271,0.136 0.572,0.203 0.904,0.203 0.227,0 0.442,-0.023 0.643,-0.07 C -0.03,2.485 0.148,2.408 0.301,2.302 0.454,2.196 0.574,2.054 0.661,1.876 0.75,1.698 0.793,1.475 0.793,1.207 l 0,-3.294 -0.793,0 0,0.337 -0.039,0.019 z"
             style="fill:#000000;fill-opacity:1;fill-rule:nonzero;stroke:none"
             id="path3912" />
        </g>
        <g
           id="g3914"
           transform="translate(92.768005,204.4006)">
          <path
             d="m 0,0 -0.382,1.442 -0.04,0 -0.382,-1.433 -0.5,-1.694 1.804,0 L 0,0 z m 1.117,-3.865 -0.43,1.478 -2.177,0 -0.421,-1.478 -0.833,0 1.98,6.514 0.734,0 1.989,-6.514 -0.842,0 z"
             style="fill:#000000;fill-opacity:1;fill-rule:nonzero;stroke:none"
             id="path3916" />
        </g>
        <g
           id="g3918"
           transform="translate(95.737701,205.16811)">
          <path
             d="m 0,0 0.793,0 0,-4.633 L 0,-4.633 0,0 z m 0,1.881 0.793,0 0,-0.759 -0.793,0 0,0.759 z"
             style="fill:#000000;fill-opacity:1;fill-rule:nonzero;stroke:none"
             id="path3920" />
        </g>
        <g
           id="g3922"
           transform="translate(98.863297,204.6062)">
          <path
             d="M 0,0 C 0.15,0.243 0.321,0.407 0.509,0.492 0.699,0.575 0.924,0.618 1.185,0.618 1.375,0.606 1.522,0.571 1.626,0.514 L 1.45,-0.3 C 1.293,-0.231 1.133,-0.197 0.971,-0.197 0.669,-0.197 0.427,-0.276 0.245,-0.435 0.061,-0.594 -0.03,-0.849 -0.03,-1.197 l 0,-2.874 -0.793,0 0,4.624 0.793,0 L -0.03,0 0,0 z"
             style="fill:#000000;fill-opacity:1;fill-rule:nonzero;stroke:none"
             id="path3924" />
        </g>
        <g
           id="g3926"
           transform="translate(102.9691,201.2368)">
          <path
             d="m 0,0 c 0.202,0 0.363,0.045 0.481,0.131 0.117,0.087 0.208,0.204 0.274,0.351 0.065,0.146 0.108,0.317 0.127,0.51 0.019,0.193 0.03,0.4 0.03,0.618 0,0.225 -0.011,0.436 -0.03,0.636 C 0.863,2.446 0.822,2.62 0.759,2.77 0.698,2.92 0.608,3.04 0.49,3.131 0.373,3.221 0.212,3.266 0.01,3.266 -0.225,3.266 -0.405,3.209 -0.53,3.094 -0.654,2.978 -0.741,2.832 -0.793,2.658 -0.846,2.484 -0.874,2.292 -0.877,2.083 -0.881,1.874 -0.882,1.679 -0.882,1.498 -0.882,1.33 -0.874,1.157 -0.857,0.982 -0.841,0.809 -0.804,0.647 -0.745,0.501 -0.685,0.354 -0.598,0.234 -0.48,0.14 -0.363,0.048 -0.202,0 0,0 m -0.852,3.491 c 0.143,0.175 0.305,0.301 0.487,0.379 0.183,0.078 0.388,0.117 0.615,0.117 0.319,0 0.573,-0.064 0.762,-0.192 C 1.2,3.667 1.347,3.495 1.451,3.28 1.556,3.066 1.624,2.814 1.656,2.527 1.689,2.24 1.705,1.941 1.705,1.628 1.705,1.335 1.687,1.046 1.652,0.763 1.615,0.479 1.542,0.225 1.432,0 1.321,-0.224 1.165,-0.405 0.963,-0.543 0.762,-0.68 0.498,-0.748 0.173,-0.748 c -0.404,0 -0.746,0.152 -1.025,0.458 l -0.02,0 0,-2.284 -0.794,0 0,6.505 0.794,0 0,-0.43 0.009,-0.006 0.011,-0.004 z"
             style="fill:#000000;fill-opacity:1;fill-rule:nonzero;stroke:none"
             id="path3928" />
        </g>
        <g
           id="g3930"
           transform="translate(107.6286,204.5407)">
          <path
             d="m 0,0 c -0.189,0 -0.358,-0.044 -0.507,-0.13 -0.149,-0.088 -0.26,-0.218 -0.332,-0.393 -0.045,-0.117 -0.079,-0.288 -0.102,-0.508 -0.023,-0.221 -0.034,-0.478 -0.034,-0.77 0,-0.205 0.004,-0.398 0.015,-0.578 0.01,-0.181 0.041,-0.334 0.092,-0.458 0.071,-0.169 0.176,-0.299 0.312,-0.392 0.137,-0.094 0.309,-0.14 0.517,-0.14 0.202,0 0.379,0.046 0.531,0.14 0.152,0.093 0.265,0.243 0.337,0.448 0.032,0.087 0.055,0.234 0.068,0.443 0.012,0.208 0.019,0.441 0.019,0.696 0,0.217 -0.007,0.424 -0.019,0.619 C 0.884,-0.826 0.858,-0.672 0.818,-0.56 0.747,-0.373 0.64,-0.233 0.497,-0.14 0.355,-0.047 0.189,0 0,0 M 0.015,0.683 C 0.4,0.683 0.704,0.61 0.926,0.464 1.148,0.317 1.324,0.133 1.455,-0.084 1.501,-0.158 1.54,-0.257 1.573,-0.379 1.606,-0.5 1.632,-0.635 1.652,-0.782 1.671,-0.928 1.686,-1.081 1.696,-1.24 1.705,-1.399 1.711,-1.55 1.711,-1.694 1.711,-1.781 1.707,-1.888 1.7,-2.012 1.693,-2.137 1.682,-2.268 1.666,-2.406 1.649,-2.542 1.632,-2.674 1.612,-2.798 1.592,-2.923 1.57,-3.023 1.544,-3.098 1.484,-3.279 1.398,-3.431 1.284,-3.556 1.169,-3.681 1.039,-3.781 0.892,-3.856 0.744,-3.931 0.588,-3.985 0.422,-4.02 0.255,-4.053 0.083,-4.071 -0.093,-4.071 c -0.372,0 -0.678,0.075 -0.916,0.224 -0.239,0.151 -0.416,0.343 -0.535,0.581 -0.085,0.168 -0.143,0.392 -0.176,0.668 -0.033,0.278 -0.049,0.57 -0.049,0.875 0,0.295 0.015,0.575 0.045,0.844 0.028,0.268 0.079,0.486 0.151,0.654 0.131,0.281 0.33,0.503 0.598,0.665 0.268,0.162 0.598,0.243 0.99,0.243"
             style="fill:#000000;fill-opacity:1;fill-rule:nonzero;stroke:none"
             id="path3932" />
        </g>
        <g
           id="g3934"
           transform="translate(111.5239,204.6062)">
          <path
             d="M 0,0 C 0.15,0.243 0.321,0.407 0.509,0.492 0.699,0.575 0.924,0.618 1.186,0.618 1.375,0.606 1.522,0.571 1.627,0.514 L 1.45,-0.3 c -0.156,0.069 -0.317,0.103 -0.479,0.103 -0.301,0 -0.544,-0.079 -0.727,-0.238 -0.181,-0.159 -0.273,-0.414 -0.273,-0.762 l 0,-2.874 -0.794,0 0,4.624 0.794,0 L -0.029,0 0,0 z"
             style="fill:#000000;fill-opacity:1;fill-rule:nonzero;stroke:none"
             id="path3936" />
        </g>
        <g
           id="g3938"
           transform="translate(115.3456,200.5351)">
          <path
             d="m 0,0 c -0.373,0 -0.651,0.101 -0.838,0.304 -0.186,0.203 -0.279,0.454 -0.279,0.753 l 0,2.958 -0.539,0 0,0.618 0.539,0 0,1.189 0.793,0 0,-1.189 0.687,0 0,-0.618 -0.687,0 0,-2.734 c 0,-0.193 0.04,-0.338 0.118,-0.434 C -0.127,0.75 0,0.701 0.176,0.701 l 0.265,0 L 0.441,0 0,0 z"
             style="fill:#000000;fill-opacity:1;fill-rule:nonzero;stroke:none"
             id="path3940" />
        </g>
        <g
           id="g3942"
           transform="translate(59.447205,192.6292)">
          <path
             d="m 0,0 -0.399,1.505 -0.041,0 -0.399,-1.495 -0.522,-1.768 1.883,0 L 0,0 z m 1.166,-4.035 -0.45,1.544 -2.271,0 -0.44,-1.544 -0.869,0 2.066,6.8 0.767,0 2.077,-6.8 -0.88,0 z"
             style="fill:#000000;fill-opacity:1;fill-rule:nonzero;stroke:none"
             id="path3944" />
        </g>
        <g
           id="g3946"
           transform="translate(63.283096,190.1678)">
          <path
             d="m 0,0 c 0.041,-0.267 0.123,-0.484 0.245,-0.65 0.123,-0.166 0.335,-0.249 0.635,-0.249 0.341,0 0.584,0.12 0.732,0.357 0.146,0.239 0.219,0.535 0.219,0.888 0,0.85 -0.324,1.276 -0.972,1.276 l -0.419,0 0,0.684 0.378,0 c 0.341,0 0.588,0.091 0.741,0.273 C 1.714,2.76 1.79,3.029 1.79,3.38 1.79,3.524 1.777,3.665 1.749,3.805 1.722,3.945 1.674,4.068 1.606,4.176 1.538,4.283 1.446,4.37 1.33,4.435 1.214,4.501 1.071,4.533 0.9,4.533 0.743,4.533 0.614,4.508 0.511,4.459 0.409,4.41 0.325,4.343 0.26,4.26 0.195,4.175 0.148,4.077 0.117,3.966 0.088,3.856 0.061,3.738 0.041,3.615 l -0.818,0.127 c 0.027,0.215 0.081,0.417 0.163,0.605 0.082,0.189 0.192,0.353 0.333,0.493 0.139,0.14 0.305,0.25 0.496,0.328 0.191,0.078 0.416,0.117 0.675,0.117 0.348,0 0.632,-0.051 0.854,-0.152 C 1.965,5.032 2.141,4.898 2.271,4.729 2.4,4.559 2.49,4.361 2.543,4.132 2.593,3.905 2.619,3.66 2.619,3.4 2.619,3.27 2.608,3.134 2.588,2.994 2.568,2.854 2.528,2.719 2.47,2.589 2.412,2.459 2.332,2.339 2.23,2.232 2.128,2.125 1.995,2.042 1.831,1.983 2.015,1.944 2.162,1.877 2.271,1.782 2.38,1.688 2.464,1.573 2.521,1.436 2.579,1.299 2.616,1.144 2.635,0.973 2.651,0.799 2.66,0.615 2.66,0.42 2.66,0.127 2.629,-0.145 2.568,-0.396 2.506,-0.647 2.404,-0.863 2.261,-1.045 2.117,-1.228 1.93,-1.371 1.698,-1.475 1.466,-1.579 1.18,-1.632 0.839,-1.632 c -0.212,0 -0.413,0.031 -0.604,0.092 -0.191,0.06 -0.361,0.153 -0.511,0.274 -0.15,0.123 -0.274,0.276 -0.374,0.461 -0.099,0.185 -0.158,0.401 -0.179,0.649 L 0,0 z"
             style="fill:#000000;fill-opacity:1;fill-rule:nonzero;stroke:none"
             id="path3948" />
        </g>
        <g
           id="g3950"
           transform="matrix(1.1365967,0,0,-1.085495,134.5708,203.0761)">
          <path
             d="m 0,0 c 0,0.738 -0.68,1.336 -1.517,1.336 l -9.802,0 c -0.838,0 -1.517,-0.598 -1.517,-1.336 l 0,-13.199 c 0,-0.738 0.679,-1.336 1.517,-1.336 l 9.802,0 c 0.837,0 1.517,0.598 1.517,1.336 L 0,0 z"
             style="fill:none;stroke:#000000;stroke-width:0.4110879;stroke-linecap:butt;stroke-linejoin:miter;stroke-miterlimit:10;stroke-opacity:1;stroke-dasharray:none"
             id="path3952" />
        </g>
        <g
           id="g3954"
           transform="translate(141.8454,211.6058)">
          <path
             d="M 0,0 C 0,0.274 -0.082,0.485 -0.244,0.635 -0.407,0.785 -0.621,0.86 -0.884,0.86 -1.149,0.86 -1.363,0.785 -1.525,0.635 -1.688,0.485 -1.77,0.274 -1.77,0 l 0,-3.683 c 0,-0.274 0.082,-0.484 0.245,-0.631 0.162,-0.146 0.376,-0.219 0.641,-0.219 0.263,0 0.477,0.073 0.64,0.219 C -0.082,-4.167 0,-3.957 0,-3.683 L 0,0 z M 0.829,-3.683 C 0.829,-3.944 0.781,-4.175 0.685,-4.377 0.59,-4.579 0.464,-4.748 0.307,-4.885 0.15,-5.021 -0.033,-5.125 -0.24,-5.193 c -0.209,-0.068 -0.425,-0.102 -0.65,-0.102 -0.225,0 -0.44,0.034 -0.644,0.102 -0.205,0.068 -0.388,0.172 -0.547,0.308 -0.161,0.137 -0.287,0.306 -0.379,0.508 -0.092,0.202 -0.138,0.433 -0.138,0.694 l 0,3.683 c 0,0.26 0.046,0.492 0.138,0.694 0.092,0.202 0.218,0.371 0.379,0.508 0.159,0.136 0.342,0.241 0.547,0.312 0.204,0.072 0.419,0.108 0.644,0.108 0.225,0 0.441,-0.036 0.65,-0.108 C -0.033,1.443 0.15,1.338 0.307,1.202 0.464,1.065 0.59,0.896 0.685,0.694 0.781,0.492 0.829,0.26 0.829,0 l 0,-3.683 z"
             style="fill:#000000;fill-opacity:1;fill-rule:nonzero;stroke:none"
             id="path3956" />
        </g>
        <g
           id="g3958"
           transform="translate(146.7244,211.6058)">
          <path
             d="M 0,0 C 0,0.274 -0.081,0.485 -0.244,0.635 -0.407,0.785 -0.62,0.86 -0.884,0.86 -1.149,0.86 -1.363,0.785 -1.525,0.635 -1.688,0.485 -1.77,0.274 -1.77,0 l 0,-3.683 c 0,-0.274 0.082,-0.484 0.245,-0.631 0.162,-0.146 0.376,-0.219 0.641,-0.219 0.264,0 0.477,0.073 0.64,0.219 C -0.081,-4.167 0,-3.957 0,-3.683 L 0,0 z M 0.829,-3.683 C 0.829,-3.944 0.781,-4.175 0.685,-4.377 0.59,-4.579 0.464,-4.748 0.307,-4.885 0.15,-5.021 -0.032,-5.125 -0.24,-5.193 c -0.208,-0.068 -0.425,-0.102 -0.65,-0.102 -0.225,0 -0.44,0.034 -0.644,0.102 -0.205,0.068 -0.387,0.172 -0.547,0.308 -0.16,0.137 -0.286,0.306 -0.379,0.508 -0.092,0.202 -0.138,0.433 -0.138,0.694 l 0,3.683 c 0,0.26 0.046,0.492 0.138,0.694 0.093,0.202 0.219,0.371 0.379,0.508 0.16,0.136 0.342,0.241 0.547,0.312 0.204,0.072 0.419,0.108 0.644,0.108 0.225,0 0.442,-0.036 0.65,-0.108 C -0.032,1.443 0.15,1.338 0.307,1.202 0.464,1.065 0.59,0.896 0.685,0.694 0.781,0.492 0.829,0.26 0.829,0 l 0,-3.683 z"
             style="fill:#000000;fill-opacity:1;fill-rule:nonzero;stroke:none"
             id="path3960" />
        </g>
        <g
           id="g3962"
           transform="translate(151.9926,206.36909)">
          <path
             d="m 0,0 -1.34,2.354 -0.798,-1.055 0,-1.299 -0.829,0 0,7.093 0.829,0 0,-4.592 0.021,0 1.8,2.335 0.951,0 L -0.808,2.989 0.921,0 0,0 z"
             style="fill:#000000;fill-opacity:1;fill-rule:nonzero;stroke:none"
             id="path3964" />
        </g>
        <g
           id="g3966"
           transform="translate(159.87939,206.36909)">
          <path
             d="m 0,0 -0.829,0 0,2.872 c 0,0.176 -0.013,0.339 -0.04,0.489 C -0.897,3.51 -0.943,3.64 -1.008,3.747 -1.073,3.854 -1.163,3.938 -1.279,4.001 -1.395,4.063 -1.541,4.093 -1.718,4.093 -2.046,4.093 -2.281,3.984 -2.424,3.767 -2.568,3.549 -2.639,3.253 -2.639,2.882 l 0,-2.882 -0.829,0 0,2.872 c 0,0.176 -0.013,0.338 -0.041,0.483 -0.027,0.148 -0.075,0.276 -0.142,0.387 -0.068,0.11 -0.159,0.196 -0.275,0.259 -0.115,0.062 -0.261,0.092 -0.437,0.092 -0.325,0 -0.56,-0.114 -0.702,-0.342 C -5.207,3.523 -5.278,3.224 -5.278,2.853 l 0,-2.853 -0.829,0 0,4.826 0.839,0 0,-0.518 0.01,0 c 0.287,0.385 0.679,0.577 1.177,0.577 0.279,0 0.525,-0.058 0.736,-0.172 0.211,-0.114 0.379,-0.261 0.501,-0.444 l 0.011,0 c 0.197,0.215 0.406,0.372 0.628,0.469 0.222,0.098 0.48,0.147 0.773,0.147 0.205,0 0.393,-0.036 0.568,-0.108 C -0.691,4.706 -0.539,4.607 -0.409,4.48 -0.28,4.352 -0.18,4.2 -0.108,4.021 -0.035,3.842 0,3.641 0,3.419 L 0,0 z"
             style="fill:#000000;fill-opacity:1;fill-rule:nonzero;stroke:none"
             id="path3968" />
        </g>
        <g
           id="g3970"
           transform="matrix(1.1365967,0,0,-1.085495,122.73759,210.3026)">
          <path
             d="m 0,0 c 0.004,-0.162 0.076,-0.248 0.299,-0.374 0.231,-0.138 0.412,-0.199 0.789,-0.197 0.58,0.008 1.162,0.016 1.747,0.02 C 3.471,-1.625 4.104,-2.7 4.74,-3.774 4.8,-3.87 4.912,-3.933 5.027,-3.93 c 0.128,0.001 0.261,-10e-4 0.398,0.003 0.18,-10e-4 0.284,0.116 0.281,0.298 l -0.04,0.142 0.003,0.005 c -0.254,0.789 -0.505,1.579 -0.757,2.372 -0.001,0.188 -0.004,0.383 -0.008,0.58 0.467,0.005 0.938,0.008 1.411,0.016 0.114,0.01 0.21,0.03 0.309,0.061 0.095,0.027 0.187,0.07 0.272,0.116 0.114,-0.254 0.23,-0.512 0.345,-0.771 0.045,-0.134 0.175,-0.226 0.31,-0.221 l 0.15,10e-4 c 0.183,0.005 0.284,0.102 0.285,0.283 0,0.153 -10e-4,0.307 -0.006,0.466 C 7.978,-0.359 7.976,-0.135 7.974,0.088 7.97,0.306 7.966,0.526 7.966,0.748 7.965,0.903 7.964,1.057 7.959,1.216 7.96,1.395 7.856,1.495 7.672,1.491 L 7.527,1.493 C 7.385,1.491 7.261,1.402 7.217,1.265 7.106,1.011 6.995,0.752 6.888,0.491 6.804,0.532 6.71,0.571 6.619,0.597 6.514,0.622 6.417,0.644 6.308,0.65 5.842,0.646 5.372,0.644 4.897,0.635 4.897,0.823 4.893,1.02 4.889,1.216 5.122,2.01 5.358,2.81 5.593,3.608 L 5.634,3.752 C 5.631,3.936 5.523,4.043 5.343,4.045 5.215,4.042 5.082,4.044 4.945,4.04 4.825,4.04 4.719,3.973 4.661,3.879 4.047,2.79 3.433,1.7 2.82,0.612 2.242,0.61 1.66,0.601 1.075,0.596 0.695,0.589 0.52,0.519 0.292,0.385 0.069,0.25 -0.001,0.163 0,0 z"
             style="fill:none;stroke:#000000;stroke-width:0.32887033;stroke-linecap:butt;stroke-linejoin:miter;stroke-miterlimit:4;stroke-opacity:1;stroke-dasharray:none"
             id="path3972" />
        </g>
      </g>
    </g>
    <g
       transform="matrix(1.4805359,0,0,-1.4805359,-474.17826,896.86768)"
       id="g3974">
      <g
         id="g3976"
         clip-path="url(#clipPath3978)">
        <g
           id="g3982"
           transform="translate(196.5177,233.4933)">
          <path
             d="m 0,0 66.852,0 0,-51.458 -66.852,0 -20.325,25.729 L 0,0 z"
             style="fill:#007ac2;fill-opacity:1;fill-rule:evenodd;stroke:none"
             id="path3984" />
        </g>
      </g>
    </g>
    <g
       transform="matrix(1.4805359,0,0,-1.4805359,-474.17826,896.86768)"
       id="g3986">
      <g
         id="g3988"
         clip-path="url(#clipPath3990)">
        <g
           id="g3994"
           transform="matrix(0.8226471,0,0,-1.0714722,196.5177,233.4933)">
          <path
             d="m 0,0 81.264,0 0,48.025 L 0,48.025 -24.707,24.013 0,0 z"
             style="fill:none;stroke:#000000;stroke-width:0.42214444;stroke-linecap:butt;stroke-linejoin:miter;stroke-miterlimit:10;stroke-opacity:1;stroke-dasharray:none"
             id="path3996" />
        </g>
      </g>
    </g>
    <g
       transform="matrix(1.4805359,0,0,-1.4805359,-474.17826,896.86768)"
       id="g3998">
      <g
         id="g4000"
         clip-path="url(#clipPath4002)">
        <g
           id="g4006"
           transform="translate(195.9886,229.11)">
          <path
             d="M 0,0 1.286,-1.675 -13.882,-20.743 1.286,-40.984 -0.025,-42.692 -16.556,-21.346 0,0 z"
             style="fill:#ffffff;fill-opacity:1;fill-rule:evenodd;stroke:none"
             id="path4008" />
        </g>
        <g
           id="g4010"
           transform="translate(199.5477,224.5656)">
          <path
             d="m 0,0 0,5.78 3.481,0 0,-5.78 -0.587,0 0,5.098 -2.307,0 L 0.587,0 0,0 z"
             style="fill:#ffdb00;fill-opacity:1;fill-rule:nonzero;stroke:none"
             id="path4012" />
        </g>
        <path
           d="m 204.335,224.566 0.587,0 0,5.78 -0.587,0 0,-5.78 z"
           style="fill:#ffdb00;fill-opacity:1;fill-rule:nonzero;stroke:none"
           id="path4014" />
        <g
           id="g4016"
           transform="translate(209.1749,230.34531)">
          <path
             d="m 0,0 0,-0.682 -2.382,0 1.513,-2.097 -1.513,-2.318 2.506,0 0,-0.683 -3.141,0 0,0.796 1.449,2.205 -1.449,2.011 0,0.768 L 0,0 z"
             style="fill:#ffdb00;fill-opacity:1;fill-rule:nonzero;stroke:none"
             id="path4018" />
        </g>
        <g
           id="g4020"
           transform="translate(213.2364,230.34531)">
          <path
             d="m 0,0 0,-0.682 -2.382,0 1.513,-2.097 -1.513,-2.318 2.506,0 0,-0.683 -3.142,0 0,0.796 1.45,2.205 -1.45,2.011 0,0.768 L 0,0 z"
             style="fill:#ffdb00;fill-opacity:1;fill-rule:nonzero;stroke:none"
             id="path4022" />
        </g>
        <g
           id="g4024"
           transform="translate(214.737,227.3688)">
          <path
             d="m 0,0 c 0,-0.696 0.144,-1.245 0.431,-1.646 0.288,-0.401 0.648,-0.601 1.083,-0.601 0.442,0 0.805,0.202 1.091,0.607 0.285,0.405 0.428,0.979 0.428,1.722 0,0.471 -0.061,0.881 -0.183,1.233 C 2.728,1.666 2.549,1.938 2.314,2.131 2.079,2.324 1.815,2.421 1.523,2.421 1.107,2.421 0.749,2.234 0.449,1.862 0.15,1.49 0,0.87 0,0 m -0.605,0.012 c 0,0.959 0.198,1.71 0.593,2.253 0.395,0.542 0.906,0.814 1.532,0.814 0.409,0 0.779,-0.128 1.108,-0.382 C 2.957,2.442 3.207,2.086 3.38,1.63 3.552,1.174 3.639,0.657 3.639,0.079 3.639,-0.508 3.547,-1.032 3.366,-1.495 3.184,-1.957 2.927,-2.307 2.594,-2.545 2.262,-2.783 1.902,-2.902 1.516,-2.902 c -0.417,0 -0.79,0.132 -1.12,0.395 -0.328,0.262 -0.578,0.621 -0.747,1.075 -0.17,0.455 -0.254,0.937 -0.254,1.444"
             style="fill:#ffdb00;fill-opacity:1;fill-rule:nonzero;stroke:none"
             id="path4026" />
        </g>
        <g
           id="g4028"
           transform="translate(220.4118,224.5656)">
          <path
             d="m 0,0 0,2.448 -1.71,3.332 0.714,0 0.875,-1.743 C 0.04,3.711 0.191,3.385 0.33,3.059 0.463,3.361 0.624,3.702 0.814,4.08 l 0.86,1.7 0.684,0 L 0.587,2.448 0.587,0 0,0 z"
             style="fill:#ffdb00;fill-opacity:1;fill-rule:nonzero;stroke:none"
             id="path4030" />
        </g>
        <g
           id="g4032"
           transform="translate(224.11301,227.5975)">
          <path
             d="m 0,0 1.148,0 c 0.379,0 0.648,0.092 0.807,0.275 0.16,0.185 0.24,0.444 0.24,0.777 0,0.242 -0.047,0.449 -0.141,0.622 C 1.959,1.846 1.836,1.96 1.683,2.014 1.584,2.049 1.402,2.066 1.135,2.066 L 0,2.066 0,0 z m -0.587,-3.032 0,5.779 1.674,0 c 0.294,0 0.52,-0.018 0.674,-0.054 C 1.979,2.645 2.162,2.555 2.309,2.423 2.456,2.29 2.576,2.103 2.665,1.864 2.755,1.625 2.8,1.363 2.8,1.076 2.8,0.585 2.68,0.169 2.44,-0.172 2.2,-0.512 1.765,-0.683 1.138,-0.683 l -1.138,0 0,-2.349 -0.587,0 z"
             style="fill:#ffdb00;fill-opacity:1;fill-rule:nonzero;stroke:none"
             id="path4034" />
        </g>
        <path
           d="m 227.99,224.566 0.587,0 0,5.78 -0.587,0 0,-5.78 z"
           style="fill:#ffdb00;fill-opacity:1;fill-rule:nonzero;stroke:none"
           id="path4036" />
        <g
           id="g4038"
           transform="translate(200.1167,217.9543)">
          <path
             d="m 0,0 1.148,0 c 0.379,0 0.648,0.092 0.807,0.275 0.16,0.185 0.24,0.444 0.24,0.777 0,0.242 -0.047,0.449 -0.141,0.622 C 1.96,1.846 1.836,1.959 1.683,2.014 1.584,2.049 1.402,2.066 1.135,2.066 L 0,2.066 0,0 z m -0.587,-3.032 0,5.779 1.674,0 c 0.294,0 0.52,-0.018 0.675,-0.054 C 1.979,2.645 2.162,2.555 2.31,2.423 2.457,2.29 2.576,2.103 2.665,1.864 2.755,1.626 2.8,1.363 2.8,1.076 2.8,0.585 2.68,0.169 2.44,-0.171 2.2,-0.512 1.765,-0.682 1.139,-0.682 l -1.139,0 0,-2.35 -0.587,0 z"
             style="fill:#f5f5f5;fill-opacity:1;fill-rule:nonzero;stroke:none"
             id="path4040" />
        </g>
        <g
           id="g4042"
           transform="translate(203.8268,219.1089)">
          <path
             d="m 0,0 0.545,0 0,-4.187 L 0,-4.187 0,0 z m 0,1.593 0.545,0 0,-0.816 -0.545,0 0,0.816 z"
             style="fill:#f5f5f5;fill-opacity:1;fill-rule:nonzero;stroke:none"
             id="path4044" />
        </g>
        <g
           id="g4046"
           transform="translate(205.21271,216.1723)">
          <path
             d="m 0,0 0.539,0.11 c 0.03,-0.282 0.114,-0.497 0.252,-0.646 0.139,-0.15 0.332,-0.225 0.58,-0.225 0.25,0 0.436,0.067 0.557,0.199 0.121,0.133 0.182,0.289 0.182,0.468 0,0.159 -0.053,0.286 -0.16,0.378 C 1.875,0.347 1.689,0.426 1.393,0.524 0.993,0.656 0.716,0.769 0.561,0.866 0.407,0.961 0.29,1.094 0.211,1.263 0.131,1.432 0.09,1.62 0.09,1.826 c 0,0.185 0.033,0.359 0.099,0.518 0.066,0.159 0.155,0.291 0.268,0.396 0.085,0.081 0.2,0.151 0.347,0.207 0.146,0.056 0.302,0.085 0.47,0.085 0.253,0 0.474,-0.048 0.665,-0.142 C 2.13,2.795 2.27,2.667 2.361,2.506 2.451,2.344 2.514,2.127 2.548,1.857 L 2.016,1.762 C 1.992,1.978 1.922,2.146 1.806,2.267 1.69,2.388 1.525,2.448 1.314,2.448 1.064,2.448 0.885,2.394 0.778,2.286 0.671,2.178 0.618,2.053 0.618,1.908 L 0.684,1.66 C 0.728,1.584 0.798,1.52 0.892,1.471 0.948,1.444 1.108,1.384 1.375,1.289 1.76,1.155 2.029,1.046 2.181,0.96 2.333,0.874 2.453,0.75 2.539,0.587 2.627,0.424 2.669,0.222 2.669,-0.02 2.669,-0.256 2.617,-0.479 2.511,-0.688 2.405,-0.897 2.251,-1.059 2.052,-1.173 1.853,-1.288 1.626,-1.345 1.375,-1.345 c -0.418,0 -0.737,0.114 -0.956,0.34 C 0.2,-0.779 0.061,-0.445 0,0"
             style="fill:#f5f5f5;fill-opacity:1;fill-rule:nonzero;stroke:none"
             id="path4048" />
        </g>
        <g
           id="g4050"
           transform="translate(208.5416,216.1723)">
          <path
             d="m 0,0 0.539,0.11 c 0.03,-0.282 0.114,-0.497 0.252,-0.646 0.139,-0.15 0.332,-0.225 0.58,-0.225 0.25,0 0.436,0.067 0.557,0.199 0.121,0.133 0.182,0.289 0.182,0.468 0,0.159 -0.053,0.286 -0.16,0.378 C 1.875,0.347 1.689,0.426 1.393,0.524 0.993,0.656 0.716,0.769 0.562,0.866 0.407,0.961 0.29,1.094 0.211,1.263 0.131,1.432 0.09,1.62 0.09,1.826 c 0,0.185 0.033,0.359 0.099,0.518 0.066,0.159 0.155,0.291 0.268,0.396 0.085,0.081 0.2,0.151 0.347,0.207 0.146,0.056 0.302,0.085 0.47,0.085 0.253,0 0.474,-0.048 0.665,-0.142 C 2.13,2.795 2.271,2.667 2.361,2.506 2.452,2.344 2.514,2.127 2.549,1.857 L 2.016,1.762 C 1.992,1.978 1.922,2.146 1.806,2.267 1.69,2.388 1.526,2.448 1.314,2.448 1.064,2.448 0.885,2.394 0.778,2.286 0.671,2.178 0.618,2.053 0.618,1.908 L 0.684,1.66 C 0.729,1.584 0.798,1.52 0.893,1.471 0.948,1.444 1.108,1.384 1.375,1.289 1.76,1.155 2.029,1.046 2.181,0.96 2.333,0.874 2.453,0.75 2.54,0.587 2.627,0.424 2.67,0.222 2.67,-0.02 2.67,-0.256 2.617,-0.479 2.511,-0.688 2.405,-0.897 2.252,-1.059 2.053,-1.173 1.853,-1.288 1.626,-1.345 1.375,-1.345 0.957,-1.345 0.638,-1.231 0.42,-1.005 0.2,-0.779 0.061,-0.445 0,0"
             style="fill:#f5f5f5;fill-opacity:1;fill-rule:nonzero;stroke:none"
             id="path4052" />
        </g>
        <g
           id="g4054"
           transform="translate(212.4456,217.01559)">
          <path
             d="m 0,0 c 0,-0.536 0.09,-0.938 0.27,-1.204 0.179,-0.267 0.405,-0.401 0.678,-0.401 0.269,0 0.495,0.135 0.674,0.403 0.18,0.268 0.27,0.677 0.27,1.227 0,0.516 -0.09,0.909 -0.271,1.176 C 1.44,1.468 1.216,1.601 0.948,1.601 0.675,1.601 0.449,1.468 0.27,1.203 0.09,0.938 0,0.536 0,0 m -0.56,0 c 0,0.776 0.166,1.35 0.497,1.723 0.276,0.311 0.612,0.465 1.011,0.465 0.441,0 0.803,-0.189 1.083,-0.566 C 2.312,1.245 2.451,0.724 2.451,0.059 2.451,-0.479 2.39,-0.903 2.266,-1.212 2.141,-1.52 1.961,-1.761 1.723,-1.932 1.486,-2.102 1.228,-2.188 0.948,-2.188 0.498,-2.188 0.134,-2 -0.144,-1.624 -0.421,-1.248 -0.56,-0.707 -0.56,0"
             style="fill:#f5f5f5;fill-opacity:1;fill-rule:nonzero;stroke:none"
             id="path4056" />
        </g>
        <g
           id="g4058"
           transform="translate(217.87219,214.92239)">
          <path
             d="m 0,0 0,0.615 c -0.25,-0.474 -0.591,-0.709 -1.02,-0.709 -0.19,0 -0.367,0.047 -0.531,0.141 -0.165,0.094 -0.287,0.214 -0.367,0.357 -0.079,0.144 -0.135,0.318 -0.167,0.526 -0.023,0.14 -0.034,0.361 -0.034,0.662 l 0,2.595 0.545,0 0,-2.323 c 0,-0.369 0.011,-0.619 0.033,-0.747 0.035,-0.188 0.107,-0.334 0.218,-0.441 0.111,-0.106 0.249,-0.16 0.412,-0.16 0.163,0 0.317,0.055 0.46,0.164 0.143,0.109 0.245,0.258 0.305,0.445 0.059,0.189 0.088,0.462 0.088,0.819 l 0,2.243 0.545,0 L 0.487,0 0,0 z"
             style="fill:#f5f5f5;fill-opacity:1;fill-rule:nonzero;stroke:none"
             id="path4060" />
        </g>
        <g
           id="g4062"
           transform="translate(219.43649,214.92239)">
          <path
             d="m 0,0 0,4.187 0.49,0 0,-0.635 c 0.125,0.297 0.241,0.493 0.347,0.587 0.106,0.095 0.223,0.143 0.349,0.143 0.184,0 0.37,-0.076 0.561,-0.229 L 1.559,3.394 C 1.426,3.497 1.292,3.549 1.159,3.549 1.04,3.549 0.933,3.502 0.838,3.408 0.744,3.315 0.676,3.186 0.636,3.019 0.575,2.768 0.545,2.491 0.545,2.192 L 0.545,0 0,0 z"
             style="fill:#f5f5f5;fill-opacity:1;fill-rule:nonzero;stroke:none"
             id="path4064" />
        </g>
        <g
           id="g4066"
           transform="translate(221.7392,219.1089)">
          <path
             d="m 0,0 0.545,0 0,-4.187 L 0,-4.187 0,0 z m 0,1.593 0.545,0 0,-0.816 -0.545,0 0,0.816 z"
             style="fill:#f5f5f5;fill-opacity:1;fill-rule:nonzero;stroke:none"
             id="path4068" />
        </g>
        <g
           id="g4070"
           transform="translate(201.4243,211.05881)">
          <path
             d="m 0,0 1.719,-5.78 -0.638,0 -1.153,4.195 c -0.102,0.368 -0.179,0.685 -0.234,0.951 -0.066,-0.319 -0.145,-0.635 -0.236,-0.951 L -1.741,-5.78 -2.34,-5.78 -0.605,0 0,0 z"
             style="fill:#ffdb00;fill-opacity:1;fill-rule:nonzero;stroke:none"
             id="path4072" />
        </g>
        <g
           id="g4074"
           transform="translate(203.9118,205.2791)">
          <path
             d="m 0,0 0,5.78 3.208,0 0,-0.682 -2.621,0 0,-1.77 2.455,0 0,-0.678 -2.455,0 0,-1.967 2.724,0 L 3.311,0 0,0 z"
             style="fill:#ffdb00;fill-opacity:1;fill-rule:nonzero;stroke:none"
             id="path4076" />
        </g>
        <g
           id="g4078"
           transform="translate(208.2457,205.2791)">
          <path
             d="m 0,0 0,5.78 0.883,0 1.051,-4.092 C 2.031,1.306 2.102,1.021 2.146,0.831 2.197,1.043 2.275,1.351 2.382,1.758 l 1.062,4.022 0.791,0 0,-5.78 -0.567,0 0,4.838 L 2.379,0 1.849,0 0.566,4.92 0.566,0 0,0 z"
             style="fill:#ffdb00;fill-opacity:1;fill-rule:nonzero;stroke:none"
             id="path4080" />
        </g>
        <g
           id="g4082"
           transform="translate(213.6692,205.2791)">
          <path
             d="m 0,0 0,5.78 3.208,0 0,-0.682 -2.621,0 0,-1.77 2.455,0 0,-0.678 -2.455,0 0,-1.967 2.724,0 L 3.311,0 0,0 z"
             style="fill:#ffdb00;fill-opacity:1;fill-rule:nonzero;stroke:none"
             id="path4084" />
        </g>
        <g
           id="g4086"
           transform="translate(221.0088,211.05881)">
          <path
             d="m 0,0 0,-0.682 -2.382,0 1.513,-2.097 -1.513,-2.318 2.506,0 0,-0.683 -3.142,0 0,0.796 1.45,2.205 -1.45,2.011 0,0.768 L 0,0 z"
             style="fill:#ffdb00;fill-opacity:1;fill-rule:nonzero;stroke:none"
             id="path4088" />
        </g>
        <g
           id="g4090"
           transform="translate(222.5094,208.08231)">
          <path
             d="m 0,0 c 0,-0.696 0.144,-1.245 0.431,-1.646 0.288,-0.401 0.648,-0.601 1.083,-0.601 0.441,0 0.805,0.202 1.091,0.607 0.285,0.405 0.428,0.979 0.428,1.722 0,0.471 -0.061,0.881 -0.183,1.233 C 2.728,1.666 2.549,1.938 2.314,2.131 2.079,2.324 1.815,2.421 1.523,2.421 1.107,2.421 0.749,2.234 0.449,1.862 0.15,1.49 0,0.87 0,0 m -0.605,0.012 c 0,0.959 0.198,1.71 0.593,2.253 0.395,0.542 0.906,0.814 1.531,0.814 0.41,0 0.78,-0.128 1.109,-0.382 C 2.957,2.442 3.207,2.086 3.379,1.631 3.552,1.174 3.639,0.657 3.639,0.079 3.639,-0.508 3.547,-1.032 3.366,-1.494 3.184,-1.957 2.927,-2.307 2.594,-2.545 2.261,-2.783 1.902,-2.902 1.516,-2.902 c -0.417,0 -0.79,0.132 -1.12,0.395 -0.329,0.262 -0.578,0.621 -0.747,1.075 -0.17,0.456 -0.254,0.937 -0.254,1.444"
             style="fill:#ffdb00;fill-opacity:1;fill-rule:nonzero;stroke:none"
             id="path4092" />
        </g>
        <g
           id="g4094"
           transform="translate(230.1214,211.05881)">
          <path
             d="m 0,0 0,-0.682 -2.382,0 1.513,-2.097 -1.513,-2.318 2.506,0 0,-0.683 -3.141,0 0,0.796 1.449,2.205 -1.449,2.011 0,0.768 L 0,0 z"
             style="fill:#ffdb00;fill-opacity:1;fill-rule:nonzero;stroke:none"
             id="path4096" />
        </g>
        <g
           id="g4098"
           transform="translate(199.50529,196.85069)">
          <path
             d="m 0,0 0,5.78 0.587,0 0,-5.097 2.185,0 L 2.772,0 0,0 z"
             style="fill:#f5f5f5;fill-opacity:1;fill-rule:nonzero;stroke:none"
             id="path4100" />
        </g>
        <g
           id="g4102"
           transform="translate(203.54849,199.3463)">
          <path
             d="M 0,0 1.795,0 C 1.77,0.353 1.702,0.616 1.589,0.793 1.416,1.066 1.19,1.202 0.914,1.202 0.664,1.202 0.453,1.094 0.283,0.875 0.113,0.657 0.018,0.365 0,0 m 1.789,-1.148 0.563,-0.09 C 2.263,-1.666 2.099,-1.999 1.858,-2.235 1.618,-2.472 1.311,-2.59 0.939,-2.59 c -0.471,0 -0.843,0.189 -1.119,0.566 -0.276,0.376 -0.413,0.905 -0.413,1.587 0,0.704 0.139,1.25 0.418,1.639 0.278,0.389 0.639,0.584 1.083,0.584 0.43,0 0.781,-0.191 1.053,-0.572 C 2.234,0.834 2.37,0.297 2.37,-0.394 l -0.003,-0.189 -2.397,0 c 0.02,-0.461 0.12,-0.813 0.3,-1.057 0.179,-0.245 0.403,-0.367 0.671,-0.367 0.2,0 0.37,0.069 0.512,0.205 0.141,0.137 0.253,0.354 0.336,0.654"
             style="fill:#f5f5f5;fill-opacity:1;fill-rule:nonzero;stroke:none"
             id="path4104" />
        </g>
        <g
           id="g4106"
           transform="translate(206.8139,196.85069)">
          <path
             d="m 0,0 0,4.187 0.487,0 0,-0.588 C 0.588,3.805 0.722,3.97 0.89,4.094 1.057,4.22 1.248,4.282 1.462,4.282 1.701,4.282 1.895,4.217 2.048,4.088 2.2,3.959 2.308,3.779 2.37,3.549 2.624,4.037 2.955,4.282 3.363,4.282 3.681,4.282 3.926,4.167 4.098,3.937 4.27,3.707 4.356,3.353 4.356,2.874 l 0,-2.874 -0.542,0 0,2.637 C 3.814,2.922 3.797,3.126 3.761,3.251 3.726,3.376 3.662,3.476 3.569,3.552 3.476,3.628 3.367,3.667 3.242,3.667 3.016,3.667 2.828,3.569 2.679,3.373 2.53,3.177 2.455,2.863 2.455,2.432 L 2.455,0 1.91,0 l 0,2.721 C 1.91,3.036 1.866,3.272 1.777,3.43 1.688,3.587 1.542,3.667 1.341,3.667 1.188,3.667 1.046,3.614 0.916,3.509 0.786,3.404 0.691,3.25 0.633,3.047 0.574,2.845 0.545,2.553 0.545,2.172 L 0.545,0 0,0 z"
             style="fill:#f5f5f5;fill-opacity:1;fill-rule:nonzero;stroke:none"
             id="path4108" />
        </g>
        <g
           id="g4110"
           transform="translate(212.6189,199.3463)">
          <path
             d="M 0,0 1.795,0 C 1.771,0.353 1.702,0.616 1.589,0.793 1.416,1.066 1.19,1.202 0.914,1.202 0.664,1.202 0.453,1.094 0.283,0.875 0.113,0.657 0.018,0.365 0,0 m 1.788,-1.148 0.564,-0.09 C 2.263,-1.666 2.099,-1.999 1.858,-2.235 1.618,-2.472 1.311,-2.59 0.939,-2.59 c -0.471,0 -0.844,0.189 -1.119,0.566 -0.276,0.376 -0.413,0.905 -0.413,1.587 0,0.704 0.139,1.25 0.417,1.639 0.279,0.389 0.64,0.584 1.084,0.584 0.43,0 0.781,-0.191 1.053,-0.572 C 2.234,0.834 2.37,0.297 2.37,-0.394 l -0.003,-0.189 -2.398,0 c 0.021,-0.461 0.121,-0.813 0.3,-1.057 0.18,-0.245 0.404,-0.367 0.672,-0.367 0.2,0 0.37,0.069 0.512,0.205 0.141,0.137 0.253,0.354 0.335,0.654"
             style="fill:#f5f5f5;fill-opacity:1;fill-rule:nonzero;stroke:none"
             id="path4112" />
        </g>
        <g
           id="g4114"
           transform="translate(215.66631,198.1006)">
          <path
             d="m 0,0 0.539,0.11 c 0.03,-0.281 0.114,-0.497 0.252,-0.646 0.139,-0.15 0.332,-0.225 0.58,-0.225 0.25,0 0.436,0.067 0.557,0.2 0.121,0.132 0.182,0.288 0.182,0.467 0,0.159 -0.054,0.286 -0.16,0.378 C 1.875,0.347 1.689,0.426 1.393,0.524 0.993,0.656 0.716,0.769 0.562,0.866 0.407,0.961 0.29,1.094 0.211,1.263 0.131,1.433 0.09,1.62 0.09,1.826 c 0,0.185 0.033,0.359 0.099,0.518 0.066,0.159 0.155,0.291 0.268,0.396 0.085,0.081 0.2,0.151 0.347,0.208 0.146,0.055 0.302,0.084 0.47,0.084 0.253,0 0.474,-0.048 0.665,-0.142 C 2.13,2.796 2.27,2.667 2.361,2.506 2.451,2.344 2.514,2.127 2.548,1.857 L 2.016,1.763 C 1.992,1.978 1.922,2.146 1.806,2.267 1.69,2.388 1.525,2.448 1.314,2.448 1.064,2.448 0.885,2.394 0.778,2.286 0.671,2.178 0.618,2.053 0.618,1.908 L 0.684,1.66 C 0.728,1.584 0.798,1.52 0.893,1.471 0.948,1.444 1.108,1.384 1.374,1.289 1.76,1.155 2.029,1.046 2.181,0.96 2.333,0.874 2.453,0.75 2.539,0.587 2.627,0.424 2.669,0.222 2.669,-0.02 2.669,-0.256 2.617,-0.479 2.511,-0.688 2.405,-0.897 2.252,-1.059 2.052,-1.173 1.853,-1.288 1.626,-1.345 1.374,-1.345 c -0.417,0 -0.736,0.114 -0.955,0.34 C 0.2,-0.78 0.061,-0.445 0,0"
             style="fill:#f5f5f5;fill-opacity:1;fill-rule:nonzero;stroke:none"
             id="path4116" />
        </g>
        <g
           id="g4118"
           transform="translate(219.5703,198.944)">
          <path
             d="m 0,0 c 0,-0.536 0.09,-0.938 0.269,-1.204 0.18,-0.267 0.406,-0.401 0.679,-0.401 0.269,0 0.495,0.135 0.674,0.403 0.18,0.268 0.27,0.677 0.27,1.227 0,0.516 -0.09,0.909 -0.271,1.176 -0.18,0.267 -0.405,0.4 -0.673,0.4 C 0.675,1.601 0.449,1.468 0.269,1.203 0.09,0.938 0,0.536 0,0 m -0.56,0 c 0,0.776 0.165,1.35 0.497,1.723 0.276,0.311 0.613,0.466 1.011,0.466 0.441,0 0.803,-0.19 1.083,-0.567 C 2.312,1.245 2.452,0.724 2.452,0.059 2.452,-0.479 2.39,-0.903 2.266,-1.212 2.141,-1.521 1.961,-1.762 1.723,-1.932 1.486,-2.102 1.228,-2.188 0.948,-2.188 c -0.45,0 -0.815,0.187 -1.092,0.564 C -0.421,-1.248 -0.56,-0.707 -0.56,0"
             style="fill:#f5f5f5;fill-opacity:1;fill-rule:nonzero;stroke:none"
             id="path4120" />
        </g>
        <g
           id="g4122"
           transform="translate(222.6722,198.1006)">
          <path
             d="m 0,0 0.539,0.11 c 0.03,-0.281 0.114,-0.497 0.252,-0.646 0.139,-0.15 0.332,-0.225 0.58,-0.225 0.25,0 0.436,0.067 0.557,0.2 0.121,0.132 0.182,0.288 0.182,0.467 0,0.159 -0.053,0.286 -0.16,0.378 C 1.875,0.347 1.689,0.426 1.393,0.524 0.993,0.656 0.716,0.769 0.561,0.866 0.407,0.961 0.29,1.094 0.211,1.263 0.131,1.433 0.09,1.62 0.09,1.826 c 0,0.185 0.033,0.359 0.099,0.518 0.066,0.159 0.155,0.291 0.268,0.396 0.085,0.081 0.2,0.151 0.347,0.208 0.146,0.055 0.303,0.084 0.47,0.084 0.253,0 0.474,-0.048 0.665,-0.142 C 2.13,2.796 2.271,2.667 2.361,2.506 2.452,2.344 2.514,2.127 2.549,1.857 L 2.016,1.763 C 1.992,1.978 1.922,2.146 1.806,2.267 1.69,2.388 1.525,2.448 1.314,2.448 1.064,2.448 0.885,2.394 0.778,2.286 0.671,2.178 0.618,2.053 0.618,1.908 L 0.684,1.66 C 0.728,1.584 0.798,1.52 0.893,1.471 0.948,1.444 1.108,1.384 1.375,1.289 1.76,1.155 2.029,1.046 2.181,0.96 2.333,0.874 2.453,0.75 2.54,0.587 2.627,0.424 2.67,0.222 2.67,-0.02 2.67,-0.256 2.617,-0.479 2.511,-0.688 2.405,-0.897 2.252,-1.059 2.053,-1.173 1.853,-1.288 1.626,-1.345 1.375,-1.345 0.957,-1.345 0.638,-1.231 0.42,-1.005 0.2,-0.78 0.061,-0.445 0,0"
             style="fill:#f5f5f5;fill-opacity:1;fill-rule:nonzero;stroke:none"
             id="path4124" />
        </g>
        <g
           id="g4126"
           transform="translate(200.1382,188.991)">
          <path
             d="M 0,0 1.153,0 C 1.352,0 1.491,0.01 1.57,0.029 1.711,0.062 1.829,0.117 1.924,0.194 2.019,0.27 2.097,0.383 2.158,0.529 2.219,0.675 2.25,0.845 2.25,1.037 2.25,1.262 2.206,1.457 2.117,1.623 2.029,1.789 1.906,1.906 1.749,1.974 1.592,2.04 1.366,2.074 1.071,2.074 L 0,2.074 0,0 z m 0,2.786 1.002,0 c 0.271,0 0.466,0.023 0.584,0.071 0.156,0.06 0.273,0.16 0.352,0.3 0.079,0.14 0.119,0.315 0.119,0.527 0,0.2 -0.037,0.376 -0.111,0.528 C 1.872,4.364 1.767,4.468 1.63,4.525 1.493,4.581 1.259,4.609 0.925,4.609 L 0,4.609 0,2.786 z m -0.613,-3.497 0,6.032 1.737,0 C 1.479,5.321 1.763,5.26 1.976,5.138 2.19,5.016 2.358,4.828 2.479,4.574 2.6,4.32 2.66,4.056 2.66,3.778 2.66,3.52 2.607,3.278 2.499,3.049 2.392,2.821 2.229,2.638 2.013,2.499 2.293,2.392 2.508,2.208 2.659,1.95 2.809,1.693 2.885,1.388 2.885,1.037 2.885,0.754 2.839,0.492 2.748,0.25 2.656,0.007 2.543,-0.181 2.408,-0.313 2.273,-0.445 2.104,-0.544 1.9,-0.611 1.697,-0.678 1.448,-0.711 1.153,-0.711 l -1.766,0 z"
             style="fill:#ffdb00;fill-opacity:1;fill-rule:nonzero;stroke:none"
             id="path4128" />
        </g>
        <g
           id="g4130"
           transform="translate(204.5041,190.23351)">
          <path
             d="m 0,0 c 0,-0.255 0.041,-0.499 0.125,-0.733 0.083,-0.232 0.199,-0.41 0.349,-0.532 0.15,-0.123 0.307,-0.184 0.47,-0.184 0.241,0 0.447,0.127 0.62,0.38 0.173,0.251 0.259,0.594 0.259,1.028 0,0.417 -0.086,0.746 -0.256,0.986 -0.17,0.24 -0.386,0.36 -0.645,0.36 -0.257,0 -0.475,-0.12 -0.653,-0.36 C 0.09,0.705 0,0.39 0,0 M 2.322,2.602 1.756,2.544 C 1.706,2.834 1.635,3.045 1.542,3.177 1.388,3.389 1.199,3.494 0.973,3.494 0.792,3.494 0.633,3.429 0.496,3.297 0.317,3.127 0.176,2.878 0.072,2.551 -0.03,2.225 -0.084,1.76 -0.089,1.157 0.049,1.428 0.216,1.63 0.414,1.761 0.612,1.893 0.819,1.96 1.036,1.96 c 0.38,0 0.702,-0.182 0.969,-0.547 0.266,-0.363 0.4,-0.832 0.4,-1.409 0,-0.378 -0.063,-0.73 -0.189,-1.055 C 2.091,-1.377 1.919,-1.625 1.7,-1.798 1.481,-1.97 1.232,-2.057 0.954,-2.057 c -0.474,0 -0.86,0.227 -1.16,0.68 -0.298,0.454 -0.448,1.202 -0.448,2.246 0,1.166 0.165,2.013 0.496,2.543 0.289,0.46 0.677,0.692 1.166,0.692 0.364,0 0.663,-0.134 0.896,-0.4 C 2.136,3.437 2.276,3.071 2.322,2.602"
             style="fill:#ffdb00;fill-opacity:1;fill-rule:nonzero;stroke:none"
             id="path4132" />
        </g>
        <g
           id="g4134"
           transform="translate(242.4931,224.5656)">
          <path
             d="m 0,0 -0.545,0 0,4.522 C -0.676,4.359 -0.848,4.196 -1.061,4.033 -1.274,3.87 -1.465,3.748 -1.635,3.667 l 0,0.685 c 0.305,0.187 0.571,0.413 0.799,0.679 0.229,0.265 0.39,0.522 0.485,0.772 L 0,5.803 0,0 z"
             style="fill:#f5f5f5;fill-opacity:1;fill-rule:nonzero;stroke:none"
             id="path4136" />
        </g>
        <g
           id="g4138"
           transform="translate(244.49091,226.4381)">
          <path
             d="m 0,0 c 0,-0.244 0.039,-0.478 0.119,-0.702 0.08,-0.223 0.192,-0.393 0.335,-0.51 0.143,-0.117 0.294,-0.175 0.451,-0.175 0.23,0 0.428,0.121 0.593,0.362 0.165,0.242 0.248,0.571 0.248,0.985 0,0.4 -0.081,0.715 -0.245,0.945 C 1.338,1.135 1.132,1.251 0.883,1.251 0.637,1.251 0.428,1.135 0.257,0.905 0.085,0.675 0,0.374 0,0 M 2.224,2.492 1.683,2.437 C 1.635,2.715 1.566,2.918 1.477,3.044 1.33,3.247 1.148,3.347 0.932,3.347 0.758,3.347 0.606,3.284 0.475,3.158 0.303,2.995 0.169,2.757 0.07,2.444 -0.03,2.132 -0.081,1.687 -0.085,1.108 c 0.131,0.26 0.291,0.453 0.481,0.58 0.19,0.126 0.389,0.188 0.597,0.188 0.363,0 0.672,-0.173 0.928,-0.522 0.255,-0.348 0.382,-0.798 0.382,-1.35 0,-0.362 -0.06,-0.699 -0.18,-1.011 C 2.003,-1.318 1.839,-1.557 1.629,-1.723 1.418,-1.888 1.18,-1.97 0.914,-1.97 c -0.454,0 -0.824,0.216 -1.111,0.652 -0.286,0.434 -0.43,1.151 -0.43,2.15 0,1.117 0.159,1.929 0.476,2.436 C 0.125,3.71 0.498,3.93 0.966,3.93 1.315,3.93 1.601,3.804 1.824,3.549 2.047,3.294 2.18,2.941 2.224,2.492"
             style="fill:#f5f5f5;fill-opacity:1;fill-rule:nonzero;stroke:none"
             id="path4140" />
        </g>
        <g
           id="g4142"
           transform="translate(249.2128,224.5656)">
          <path
             d="m 0,0 0,5.78 0.545,0 0,-3.296 1.29,1.703 0.705,0 L 1.311,2.634 2.664,0 1.992,0 0.93,2.141 0.545,1.66 0.545,0 0,0 z"
             style="fill:#f5f5f5;fill-opacity:1;fill-rule:nonzero;stroke:none"
             id="path4144" />
        </g>
        <g
           id="g4146"
           transform="translate(252.3094,224.5656)">
          <path
             d="m 0,0 0,4.187 0.487,0 0,-0.588 C 0.588,3.805 0.722,3.97 0.89,4.094 1.057,4.219 1.248,4.282 1.462,4.282 1.7,4.282 1.895,4.217 2.048,4.088 2.2,3.959 2.307,3.779 2.37,3.549 2.624,4.037 2.955,4.282 3.363,4.282 3.681,4.282 3.926,4.167 4.098,3.937 4.27,3.706 4.355,3.353 4.355,2.874 l 0,-2.874 -0.541,0 0,2.637 C 3.814,2.922 3.796,3.126 3.76,3.251 3.725,3.375 3.662,3.476 3.569,3.552 3.476,3.628 3.366,3.667 3.241,3.667 3.016,3.667 2.828,3.569 2.678,3.373 2.53,3.177 2.455,2.863 2.455,2.432 L 2.455,0 1.91,0 l 0,2.721 C 1.91,3.036 1.866,3.272 1.777,3.43 1.688,3.587 1.542,3.667 1.341,3.667 1.188,3.667 1.046,3.614 0.916,3.509 0.786,3.404 0.691,3.25 0.633,3.047 0.574,2.845 0.545,2.553 0.545,2.172 L 0.545,0 0,0 z"
             style="fill:#f5f5f5;fill-opacity:1;fill-rule:nonzero;stroke:none"
             id="path4148" />
        </g>
        <g
           id="g4150"
           transform="translate(240.4409,207.3291)">
          <path
             d="M 0,0 0.572,0.063 C 0.615,-0.3 0.713,-0.572 0.867,-0.755 1.022,-0.939 1.208,-1.03 1.426,-1.03 c 0.262,0 0.484,0.13 0.665,0.387 0.182,0.258 0.273,0.599 0.273,1.025 0,0.404 -0.087,0.725 -0.262,0.958 C 1.927,1.574 1.699,1.691 1.417,1.691 1.241,1.691 1.083,1.639 0.941,1.535 0.8,1.432 0.689,1.296 0.609,1.132 l -0.512,0.086 0.43,2.968 2.207,0 0,-0.678 -1.772,0 L 0.723,1.955 C 0.99,2.197 1.269,2.318 1.562,2.318 1.95,2.318 2.276,2.143 2.543,1.794 2.809,1.444 2.942,0.994 2.942,0.445 2.942,-0.078 2.825,-0.53 2.591,-0.911 2.307,-1.379 1.918,-1.613 1.426,-1.613 1.022,-1.613 0.693,-1.466 0.438,-1.171 0.182,-0.876 0.036,-0.486 0,0"
             style="fill:#f5f5f5;fill-opacity:1;fill-rule:nonzero;stroke:none"
             id="path4152" />
        </g>
        <g
           id="g4154"
           transform="translate(244.4485,208.66521)">
          <path
             d="m 0,0 c 0,-0.948 0.085,-1.58 0.256,-1.894 0.17,-0.314 0.381,-0.472 0.631,-0.472 0.25,0 0.461,0.158 0.631,0.474 0.171,0.315 0.256,0.946 0.256,1.892 0,0.951 -0.085,1.584 -0.256,1.896 -0.17,0.313 -0.383,0.47 -0.637,0.47 -0.25,0 -0.45,-0.138 -0.6,-0.415 C 0.094,1.6 0,0.949 0,0 m -0.56,0 c 0,0.684 0.054,1.233 0.162,1.65 0.108,0.417 0.268,0.738 0.481,0.963 0.213,0.226 0.481,0.34 0.804,0.34 0.238,0 0.446,-0.062 0.627,-0.188 C 1.693,2.641 1.841,2.461 1.959,2.225 2.076,1.991 2.168,1.704 2.234,1.366 2.3,1.029 2.334,0.573 2.334,0 2.334,-0.678 2.28,-1.226 2.173,-1.642 2.066,-2.058 1.907,-2.381 1.694,-2.608 1.481,-2.835 1.212,-2.949 0.887,-2.949 c -0.428,0 -0.764,0.2 -1.008,0.599 C -0.414,-1.869 -0.56,-1.085 -0.56,0"
             style="fill:#f5f5f5;fill-opacity:1;fill-rule:nonzero;stroke:none"
             id="path4156" />
        </g>
        <g
           id="g4158"
           transform="translate(249.2128,205.8149)">
          <path
             d="m 0,0 0,5.78 0.545,0 0,-3.296 1.29,1.703 0.705,0 L 1.311,2.634 2.664,0 1.992,0 0.93,2.141 0.545,1.66 0.545,0 0,0 z"
             style="fill:#f5f5f5;fill-opacity:1;fill-rule:nonzero;stroke:none"
             id="path4160" />
        </g>
        <g
           id="g4162"
           transform="translate(252.3094,205.8149)">
          <path
             d="m 0,0 0,4.187 0.487,0 0,-0.588 C 0.588,3.805 0.722,3.97 0.89,4.094 1.057,4.219 1.248,4.282 1.462,4.282 1.7,4.282 1.895,4.217 2.048,4.088 2.2,3.959 2.307,3.779 2.37,3.549 2.624,4.037 2.955,4.282 3.363,4.282 3.681,4.282 3.926,4.167 4.098,3.937 4.27,3.707 4.355,3.353 4.355,2.874 l 0,-2.874 -0.541,0 0,2.637 C 3.814,2.922 3.796,3.126 3.76,3.251 3.725,3.375 3.662,3.476 3.569,3.552 3.476,3.628 3.366,3.667 3.241,3.667 3.016,3.667 2.828,3.569 2.678,3.373 2.53,3.177 2.455,2.863 2.455,2.432 L 2.455,0 1.91,0 l 0,2.72 C 1.91,3.036 1.866,3.272 1.777,3.43 1.688,3.587 1.542,3.667 1.341,3.667 1.188,3.667 1.046,3.614 0.916,3.509 0.786,3.404 0.691,3.25 0.633,3.047 0.574,2.845 0.545,2.553 0.545,2.172 L 0.545,0 0,0 z"
             style="fill:#f5f5f5;fill-opacity:1;fill-rule:nonzero;stroke:none"
             id="path4164" />
        </g>
      </g>
    </g>
  </g>
</svg>
