<svg xmlns="http://www.w3.org/2000/svg" width="213.556" height="213.418"><path d="M0 0c7.465 0 13.608 6.117 13.608 13.582 0 7.49-6.143 13.61-13.608 13.61-7.491 0-13.61-6.12-13.61-13.61C-13.61 6.117-7.491 0 0 0" style="fill:#fff;fill-opacity:1;fill-rule:evenodd;stroke:none" transform="matrix(6.28013 0 0 -6.28013 106.769 192.088)"/><path d="M0 0c7.467 0 13.608 6.119 13.608 13.584 0 7.491-6.141 13.608-13.608 13.608-7.491 0-13.608-6.117-13.608-13.608C-13.608 6.119-7.491 0 0 0m0-3.394c9.356 0 17.004 7.648 17.004 16.978 0 9.359-7.648 17.005-17.004 17.005-9.354 0-17.001-7.646-17.001-17.005 0-9.33 7.647-16.978 17.001-16.978" style="fill:#ed1d24;fill-opacity:1;fill-rule:evenodd;stroke:none" transform="matrix(6.28013 0 0 -6.28013 106.769 192.103)"/><path style="fill:#000;fill-opacity:1;fill-rule:nonzero;stroke:none" d="M0 0a4.293 4.293 0 1 0-8.586.002A4.293 4.293 0 0 0 0 0" transform="matrix(6.2816 0 0 -6.2816 112.681 122.721)"/><path style="fill:#000;fill-opacity:1;fill-rule:nonzero;stroke:none" d="M0 0a2.26 2.26 0 1 0-4.521 0A2.26 2.26 0 1 0 0 0" transform="matrix(6.2816 0 0 -6.2816 99.917 122.721)"/><g style="stroke:#fff;stroke-width:.3951228;stroke-miterlimit:4;stroke-opacity:1;stroke-dasharray:none"><path style="fill:none;stroke:#fff;stroke-width:.3951228;stroke-linecap:butt;stroke-linejoin:miter;stroke-miterlimit:4;stroke-opacity:1;stroke-dasharray:none" d="M0 0a2.26 2.26 0 1 0-4.521 0A2.26 2.26 0 1 0 0 0z" transform="matrix(6.2816 0 0 -6.2816 99.917 122.721)"/></g><path style="fill:#000;fill-opacity:1;fill-rule:nonzero;stroke:none" d="M0 0h-5.796v-2.592c-.823 2.21-2.877 3.78-5.286 3.78-3.13 0-5.67-2.646-5.67-5.909h.822c0 2.79 2.172 5.053 4.849 5.053s4.849-2.263 4.849-5.053c0-.448-.056-.882-.162-1.295l.598.027v-.027h.871c.145-.054.296-.089.456-.089H0c.825 0 1.492.756 1.492 1.689v2.726C1.492-.756.825 0 0 0" transform="matrix(6.2816 0 0 -6.2816 155.53 94.138)"/><path style="fill:#fff;fill-opacity:1;fill-rule:nonzero;stroke:none" d="M0 0a2.662 2.662 0 1 0-5.325 0A2.663 2.663 0 1 0 0 0" transform="matrix(6.2816 0 0 -6.2816 164.24 131.996)"/><path style="fill:#000;fill-opacity:1;fill-rule:nonzero;stroke:none" d="M0 0a2.11 2.11 0 1 0-4.219 0A2.11 2.11 0 0 0 0 0" transform="matrix(6.2816 0 0 -6.2816 160.256 132.633)"/><path style="fill:#000;fill-opacity:1;fill-rule:nonzero;stroke:none" d="M0 0v1.925l.006.59c.21.252.425.501.647.743.198.214.484.385.666.583.135.147-.108.782-.123.967-.025.349.473.64.767.766.412.181 1.077-.212 1.396-.46.305-.239-.167-.429-.187-.682-.036-.43.017-.476-.364-.654-.396-.185-.454-.122-.294-.53.103-.269.177-.489.224-.772l.173-1.037c.022-.127.305-.246.403-.313L4.966 0l.244.68.601.119c.054-.389-.038-.767.018-1.158.017-.12.525-.269.627-.314.272-.123 1.203-.332 1.096-.67-.366-1.149-.731-2.298-1.094-3.447l-.806.643c-.189.151-.553.335-.654.565l-.507 1.167c-.059.134-.223.751-.366.805C2.752-1.073 1.376-.537 0 0" transform="matrix(6.2816 0 0 -6.2816 81.58 86.673)"/></svg>