<?xml version="1.0" encoding="UTF-8" standalone="no"?>
<!-- Created with Inkscape (http://www.inkscape.org/) -->

<svg
   xmlns:dc="http://purl.org/dc/elements/1.1/"
   xmlns:cc="http://creativecommons.org/ns#"
   xmlns:rdf="http://www.w3.org/1999/02/22-rdf-syntax-ns#"
   xmlns:svg="http://www.w3.org/2000/svg"
   xmlns="http://www.w3.org/2000/svg"
   xmlns:sodipodi="http://sodipodi.sourceforge.net/DTD/sodipodi-0.dtd"
   xmlns:inkscape="http://www.inkscape.org/namespaces/inkscape"
   width="213.55592"
   height="213.41776"
   id="svg4205"
   version="1.1"
   inkscape:version="0.47 r22583"
   sodipodi:docname="Cyprus road sign customs.svg">
  <defs
     id="defs4207">
    <inkscape:perspective
       sodipodi:type="inkscape:persp3d"
       inkscape:vp_x="0 : 526.18109 : 1"
       inkscape:vp_y="0 : 1000 : 0"
       inkscape:vp_z="744.09448 : 526.18109 : 1"
       inkscape:persp3d-origin="372.04724 : 350.78739 : 1"
       id="perspective4213" />
    <inkscape:perspective
       id="perspective4228"
       inkscape:persp3d-origin="106.21 : 70.796666 : 1"
       inkscape:vp_z="212.42 : 106.195 : 1"
       inkscape:vp_y="0 : 1000 : 0"
       inkscape:vp_x="0 : 106.195 : 1"
       sodipodi:type="inkscape:persp3d" />
    <clipPath
       id="clipPath16">
      <path
         inkscape:connector-curvature="0"
         d="M 0.059998,169.98 H 170 V 0.06 H 0.059998 v 169.92 z"
         id="path18" />
    </clipPath>
    <inkscape:perspective
       id="perspective4247"
       inkscape:persp3d-origin="0.5 : 0.33333333 : 1"
       inkscape:vp_z="1 : 0.5 : 1"
       inkscape:vp_y="0 : 1000 : 0"
       inkscape:vp_x="0 : 0.5 : 1"
       sodipodi:type="inkscape:persp3d" />
    <clipPath
       clipPathUnits="userSpaceOnUse"
       id="clipPath3426">
      <path
         d="m 43.076,488.976 34.845,0 0,34.015 -34.845,0 0,-34.015 z"
         id="path3428" />
    </clipPath>
    <inkscape:perspective
       id="perspective4323"
       inkscape:persp3d-origin="0.5 : 0.33333333 : 1"
       inkscape:vp_z="1 : 0.5 : 1"
       inkscape:vp_y="0 : 1000 : 0"
       inkscape:vp_x="0 : 0.5 : 1"
       sodipodi:type="inkscape:persp3d" />
    <clipPath
       clipPathUnits="userSpaceOnUse"
       id="clipPath2896">
      <path
         d="m 102.752,490.181 34.845,0 0,34.016 -34.845,0 0,-34.016 z"
         id="path2898" />
    </clipPath>
    <inkscape:perspective
       id="perspective5249"
       inkscape:persp3d-origin="0.5 : 0.33333333 : 1"
       inkscape:vp_z="1 : 0.5 : 1"
       inkscape:vp_y="0 : 1000 : 0"
       inkscape:vp_x="0 : 0.5 : 1"
       sodipodi:type="inkscape:persp3d" />
    <inkscape:perspective
       id="perspective5326"
       inkscape:persp3d-origin="0.5 : 0.33333333 : 1"
       inkscape:vp_z="1 : 0.5 : 1"
       inkscape:vp_y="0 : 1000 : 0"
       inkscape:vp_x="0 : 0.5 : 1"
       sodipodi:type="inkscape:persp3d" />
    <clipPath
       clipPathUnits="userSpaceOnUse"
       id="clipPath3128">
      <path
         d="m 164.704,490.181 34.845,0 0,34.016 -34.845,0 0,-34.016 z"
         id="path3130" />
    </clipPath>
    <inkscape:perspective
       id="perspective5450"
       inkscape:persp3d-origin="0.5 : 0.33333333 : 1"
       inkscape:vp_z="1 : 0.5 : 1"
       inkscape:vp_y="0 : 1000 : 0"
       inkscape:vp_x="0 : 0.5 : 1"
       sodipodi:type="inkscape:persp3d" />
    <clipPath
       clipPathUnits="userSpaceOnUse"
       id="clipPath3318">
      <path
         d="m 224.23,490.181 34.845,0 0,34.016 -34.845,0 0,-34.016 z"
         id="path3320" />
    </clipPath>
    <inkscape:perspective
       id="perspective5517"
       inkscape:persp3d-origin="0.5 : 0.33333333 : 1"
       inkscape:vp_z="1 : 0.5 : 1"
       inkscape:vp_y="0 : 1000 : 0"
       inkscape:vp_x="0 : 0.5 : 1"
       sodipodi:type="inkscape:persp3d" />
    <clipPath
       clipPathUnits="userSpaceOnUse"
       id="clipPath2936">
      <path
         d="m 43.087,413.859 34.845,0 0,34.016 -34.845,0 0,-34.016 z"
         id="path2938" />
    </clipPath>
    <inkscape:perspective
       id="perspective5617"
       inkscape:persp3d-origin="0.5 : 0.33333333 : 1"
       inkscape:vp_z="1 : 0.5 : 1"
       inkscape:vp_y="0 : 1000 : 0"
       inkscape:vp_x="0 : 0.5 : 1"
       sodipodi:type="inkscape:persp3d" />
    <clipPath
       clipPathUnits="userSpaceOnUse"
       id="clipPath3572">
      <path
         d="m 102.752,413.859 34.845,0 0,34.016 -34.845,0 0,-34.016 z"
         id="path3574" />
    </clipPath>
    <inkscape:perspective
       id="perspective5745"
       inkscape:persp3d-origin="0.5 : 0.33333333 : 1"
       inkscape:vp_z="1 : 0.5 : 1"
       inkscape:vp_y="0 : 1000 : 0"
       inkscape:vp_x="0 : 0.5 : 1"
       sodipodi:type="inkscape:persp3d" />
    <clipPath
       clipPathUnits="userSpaceOnUse"
       id="clipPath3694">
      <path
         d="m 164.704,413.859 34.845,0 0,34.016 -34.845,0 0,-34.016 z"
         id="path3696" />
    </clipPath>
    <inkscape:perspective
       id="perspective5843"
       inkscape:persp3d-origin="0.5 : 0.33333333 : 1"
       inkscape:vp_z="1 : 0.5 : 1"
       inkscape:vp_y="0 : 1000 : 0"
       inkscape:vp_x="0 : 0.5 : 1"
       sodipodi:type="inkscape:persp3d" />
    <clipPath
       clipPathUnits="userSpaceOnUse"
       id="clipPath3500">
      <path
         d="m 224.23,413.859 34.845,0 0,34.016 -34.845,0 0,-34.016 z"
         id="path3502" />
    </clipPath>
    <inkscape:perspective
       id="perspective6067"
       inkscape:persp3d-origin="0.5 : 0.33333333 : 1"
       inkscape:vp_z="1 : 0.5 : 1"
       inkscape:vp_y="0 : 1000 : 0"
       inkscape:vp_x="0 : 0.5 : 1"
       sodipodi:type="inkscape:persp3d" />
    <clipPath
       clipPathUnits="userSpaceOnUse"
       id="clipPath3162">
      <path
         d="m 43.076,323.15 34.845,0 0,34.016 -34.845,0 0,-34.016 z"
         id="path3164" />
    </clipPath>
    <inkscape:perspective
       id="perspective6134"
       inkscape:persp3d-origin="0.5 : 0.33333333 : 1"
       inkscape:vp_z="1 : 0.5 : 1"
       inkscape:vp_y="0 : 1000 : 0"
       inkscape:vp_x="0 : 0.5 : 1"
       sodipodi:type="inkscape:persp3d" />
    <clipPath
       clipPathUnits="userSpaceOnUse"
       id="clipPath3350">
      <path
         d="m 103.255,323.15 34.845,0 0,34.016 -34.845,0 0,-34.016 z"
         id="path3352" />
    </clipPath>
    <inkscape:perspective
       id="perspective3838"
       inkscape:persp3d-origin="0.5 : 0.33333333 : 1"
       inkscape:vp_z="1 : 0.5 : 1"
       inkscape:vp_y="0 : 1000 : 0"
       inkscape:vp_x="0 : 0.5 : 1"
       sodipodi:type="inkscape:persp3d" />
    <clipPath
       clipPathUnits="userSpaceOnUse"
       id="clipPath3072">
      <path
         d="m 42.814,491.598 34.845,0 0,34.016 -34.845,0 0,-34.016 z"
         id="path3074" />
    </clipPath>
  </defs>
  <sodipodi:namedview
     id="base"
     pagecolor="#ffffff"
     bordercolor="#666666"
     borderopacity="1.0"
     inkscape:pageopacity="0.0"
     inkscape:pageshadow="2"
     inkscape:zoom="1.9937492"
     inkscape:cx="33.016994"
     inkscape:cy="80.105621"
     inkscape:document-units="px"
     inkscape:current-layer="layer1"
     showgrid="false"
     inkscape:window-width="1600"
     inkscape:window-height="838"
     inkscape:window-x="-8"
     inkscape:window-y="-8"
     inkscape:window-maximized="1" />
  <metadata
     id="metadata4210">
    <rdf:RDF>
      <cc:Work
         rdf:about="">
        <dc:format>image/svg+xml</dc:format>
        <dc:type
           rdf:resource="http://purl.org/dc/dcmitype/StillImage" />
        <dc:title></dc:title>
      </cc:Work>
    </rdf:RDF>
  </metadata>
  <g
     inkscape:label="Livello 1"
     inkscape:groupmode="layer"
     id="layer1"
     transform="translate(-175.27493,-427.37091)">
    <g
       id="g2940"
       transform="matrix(6.2801329,0,0,-6.2801329,282.04347,619.45882)">
      <path
         d="m 0,0 c 7.465,0 13.608,6.117 13.608,13.582 0,7.49 -6.143,13.61 -13.608,13.61 -7.491,0 -13.61,-6.12 -13.61,-13.61 C -13.61,6.117 -7.491,0 0,0"
         style="fill:#ffffff;fill-opacity:1;fill-rule:evenodd;stroke:none"
         id="path2942" />
    </g>
    <g
       id="g2944"
       transform="matrix(6.2801329,0,0,-6.2801329,282.04347,619.47389)">
      <path
         d="m 0,0 c 7.467,0 13.608,6.119 13.608,13.584 0,7.491 -6.141,13.608 -13.608,13.608 -7.491,0 -13.608,-6.117 -13.608,-13.608 C -13.608,6.119 -7.491,0 0,0 m 0,-3.394 c 9.356,0 17.004,7.648 17.004,16.978 0,9.359 -7.648,17.005 -17.004,17.005 -9.354,0 -17.001,-7.646 -17.001,-17.005 0,-9.33 7.647,-16.978 17.001,-16.978"
         style="fill:#ed1d24;fill-opacity:1;fill-rule:evenodd;stroke:none"
         id="path2946" />
    </g>
    <g
       id="g3080"
       transform="matrix(6.3239377,0,0,-6.3239377,218.25089,525.66728)">
      <path
         d="m 0,0 20.036,0 c 0.68,0 1.236,-0.766 1.236,-1.701 0,-0.936 -0.556,-1.701 -1.236,-1.701 L 0,-3.401 c -0.68,0 -1.235,0.764 -1.235,1.7 C -1.235,-0.766 -0.68,0 0,0"
         style="fill:#000000;fill-opacity:1;fill-rule:evenodd;stroke:none"
         id="path3082" />
    </g>
    <g
       id="g3084"
       transform="matrix(6.3239377,0,0,-6.3239377,215.57526,498.65085)">
      <path
         d="m 0,0 -0.002,0 -0.407,-1.225 0.817,0 L 0,0 z M 1.323,-2.113 1.356,-2.24 1.338,-2.31 1.252,-2.339 1.08,-2.345 0.904,-2.341 0.806,-2.328 0.759,-2.3 l -0.022,0.047 -0.193,0.578 -1.082,0 -0.183,-0.563 -0.023,-0.052 -0.047,-0.034 -0.091,-0.016 -0.155,-0.005 -0.161,0.007 -0.079,0.032 -0.017,0.072 0.034,0.125 0.889,2.556 0.031,0.062 0.056,0.035 L -0.176,0.56 0.007,0.563 0.217,0.56 0.337,0.544 0.4,0.507 0.432,0.441 1.323,-2.113 z"
         style="fill:#000000;fill-opacity:1;fill-rule:nonzero;stroke:none"
         id="path3086" />
    </g>
    <g
       id="g3088"
       transform="matrix(6.3239377,0,0,-6.3239377,237.06715,511.94629)">
      <path
         d="m 0,0 -0.006,-0.108 -0.016,-0.07 -0.028,-0.039 -0.037,-0.012 -1.55,0 -0.137,0.051 -0.047,0.149 0,0.092 0.005,0.104 0.019,0.083 0.04,0.078 0.071,0.095 0.664,0.849 -0.62,0.73 -0.065,0.083 -0.039,0.075 -0.018,0.086 -0.004,0.117 0,0.091 0.045,0.147 0.137,0.051 1.487,0 0.038,-0.011 0.027,-0.039 0.018,-0.071 0.004,-0.11 -0.004,-0.106 -0.018,-0.07 -0.027,-0.039 -0.038,-0.013 -0.977,0 0.579,-0.679 0.04,-0.046 L -0.434,1.424 -0.423,1.369 -0.421,1.29 -0.423,1.212 -0.434,1.16 -0.457,1.116 -0.497,1.062 -1.136,0.23 -0.087,0.23 -0.05,0.217 -0.022,0.178 -0.006,0.109 0,0 z"
         style="fill:#000000;fill-opacity:1;fill-rule:nonzero;stroke:none"
         id="path3090" />
    </g>
    <g
       id="g3092"
       transform="matrix(6.3239377,0,0,-6.3239377,252.16236,496.69422)">
      <path
         d="m 0,0 -0.006,-0.11 -0.016,-0.074 -0.028,-0.041 -0.037,-0.013 -0.722,0 0,-2.323 -0.014,-0.04 -0.048,-0.029 -0.09,-0.017 -0.142,-0.007 -0.14,0.007 -0.091,0.017 -0.048,0.029 -0.015,0.04 0,2.323 -0.72,0 -0.038,0.013 -0.027,0.041 -0.016,0.074 -0.006,0.11 0.006,0.114 0.016,0.074 0.027,0.04 0.038,0.012 2.03,0 L -0.05,0.228 -0.022,0.188 -0.006,0.114 0,0 z"
         style="fill:#000000;fill-opacity:1;fill-rule:nonzero;stroke:none"
         id="path3094" />
    </g>
    <g
       id="g3096"
       transform="matrix(6.3239377,0,0,-6.3239377,261.68502,506.48051)">
      <path
         d="m 0,0 0,-1.013 -0.015,-0.041 -0.048,-0.028 -0.09,-0.018 -0.141,-0.007 -0.143,0.007 -0.09,0.018 -0.048,0.028 -0.013,0.041 0,1.013 -0.789,1.57 -0.054,0.127 0.013,0.07 0.095,0.028 0.191,0.006 0.164,-0.005 0.097,-0.016 0.052,-0.032 0.033,-0.052 0.32,-0.708 0.092,-0.216 0.093,-0.238 0.004,0 0.087,0.234 0.087,0.216 0.316,0.703 0.028,0.057 0.05,0.035 L 0.382,1.796 0.537,1.801 0.734,1.795 0.828,1.767 0.841,1.696 0.788,1.57 0,0 z"
         style="fill:#000000;fill-opacity:1;fill-rule:nonzero;stroke:none"
         id="path3098" />
    </g>
    <g
       id="g3100"
       transform="matrix(6.3239377,0,0,-6.3239377,284.32531,512.09807)">
      <path
         d="m 0,0 -0.018,-0.091 -0.048,-0.067 -0.071,-0.039 -0.083,-0.013 -0.25,0 -0.135,0.016 -0.104,0.057 -0.093,0.111 -0.099,0.182 -0.717,1.347 -0.127,0.259 -0.116,0.271 -0.005,0 0.013,-0.32 c 0.004,-0.106 0.005,-0.215 0.005,-0.328 l 0,-1.507 -0.012,-0.041 -0.042,-0.03 -0.082,-0.018 -0.131,-0.008 -0.129,0.008 -0.08,0.018 -0.041,0.03 -0.01,0.041 0,2.589 0.061,0.157 0.15,0.052 0.314,0 0.143,-0.015 0.103,-0.047 0.085,-0.093 0.083,-0.146 0.561,-1.052 0.097,-0.189 0.092,-0.185 0.087,-0.181 0.082,-0.178 0.003,0 c -0.005,0.104 -0.008,0.212 -0.01,0.325 -0.002,0.113 -0.003,0.221 -0.003,0.323 l 0,1.351 0.013,0.04 0.044,0.032 0.083,0.019 0.131,0.005 L -0.129,2.68 -0.05,2.661 -0.011,2.629 0,2.589 0,0 z"
         style="fill:#000000;fill-opacity:1;fill-rule:nonzero;stroke:none"
         id="path3102" />
    </g>
    <g
       id="g3104"
       transform="matrix(6.3239377,0,0,-6.3239377,300.79982,504.27219)">
      <path
         d="M 0,0 C 0,0.152 -0.012,0.289 -0.035,0.413 -0.06,0.537 -0.1,0.643 -0.157,0.732 l -0.229,0.204 c -0.094,0.049 -0.213,0.073 -0.356,0.073 -0.143,0 -0.263,-0.027 -0.36,-0.081 L -1.336,0.711 C -1.396,0.62 -1.437,0.514 -1.461,0.393 -1.486,0.272 -1.499,0.144 -1.499,0.009 c 0,-0.157 0.013,-0.298 0.037,-0.424 0.023,-0.125 0.063,-0.233 0.119,-0.322 l 0.227,-0.203 c 0.095,-0.047 0.215,-0.071 0.359,-0.071 0.144,0 0.265,0.027 0.361,0.081 l 0.233,0.217 c 0.06,0.093 0.102,0.2 0.127,0.323 C -0.012,-0.268 0,-0.138 0,0 m 0.615,0.032 c 0,-0.239 -0.03,-0.453 -0.089,-0.642 -0.06,-0.189 -0.149,-0.349 -0.266,-0.48 -0.117,-0.131 -0.262,-0.231 -0.435,-0.3 -0.173,-0.069 -0.372,-0.104 -0.6,-0.104 -0.223,0 -0.419,0.03 -0.587,0.088 -0.166,0.059 -0.306,0.148 -0.417,0.269 -0.111,0.12 -0.194,0.273 -0.251,0.458 -0.055,0.186 -0.083,0.405 -0.083,0.659 0,0.233 0.029,0.443 0.089,0.629 0.06,0.187 0.148,0.345 0.265,0.476 0.117,0.13 0.262,0.23 0.436,0.3 0.172,0.07 0.373,0.105 0.602,0.105 0.218,0 0.41,-0.029 0.578,-0.087 C 0.023,1.345 0.163,1.256 0.275,1.136 0.387,1.015 0.472,0.864 0.528,0.68 0.586,0.497 0.615,0.281 0.615,0.032"
         style="fill:#000000;fill-opacity:1;fill-rule:nonzero;stroke:none"
         id="path3106" />
    </g>
    <g
       id="g3108"
       transform="matrix(6.3239377,0,0,-6.3239377,329.03492,512.88736)">
      <path
         d="m 0,0 -0.012,-0.04 -0.044,-0.029 -0.086,-0.018 -0.136,-0.007 -0.133,0.007 -0.086,0.018 -0.044,0.029 -0.013,0.04 0,2.344 -0.005,0 -0.834,-2.342 -0.03,-0.048 -0.055,-0.03 -0.088,-0.014 -0.129,-0.004 -0.128,0.006 -0.088,0.018 -0.055,0.03 -0.026,0.042 -0.806,2.342 -0.005,0 0,-2.344 -0.012,-0.04 -0.046,-0.029 -0.086,-0.018 -0.134,-0.007 -0.133,0.007 -0.087,0.018 -0.045,0.029 -0.011,0.04 0,2.567 0.059,0.174 0.161,0.06 0.383,0 0.176,-0.017 0.126,-0.055 0.09,-0.103 0.062,-0.157 0.623,-1.717 0.009,0 0.646,1.712 0.063,0.159 0.081,0.105 0.108,0.056 0.144,0.017 0.395,0 L -0.128,2.786 -0.056,2.74 -0.014,2.666 0,2.567 0,0 z"
         style="fill:#000000;fill-opacity:1;fill-rule:nonzero;stroke:none"
         id="path3110" />
    </g>
    <g
       id="g3112"
       transform="matrix(6.3239377,0,0,-6.3239377,336.72736,512.88736)">
      <path
         d="m 0,0 -0.015,-0.04 -0.048,-0.029 -0.089,-0.018 -0.142,-0.007 -0.142,0.007 -0.09,0.018 -0.048,0.029 -0.014,0.04 0,2.72 0.014,0.041 0.049,0.029 0.09,0.018 0.141,0.006 L -0.152,2.808 -0.063,2.79 -0.015,2.761 0,2.72 0,0 z"
         style="fill:#000000;fill-opacity:1;fill-rule:nonzero;stroke:none"
         id="path3114" />
    </g>
    <g
       id="g3116"
       transform="matrix(6.3239377,0,0,-6.3239377,347.2504,498.65085)">
      <path
         d="m 0,0 -0.002,0 -0.407,-1.225 0.817,0 L 0,0 z M 1.323,-2.113 1.356,-2.24 1.338,-2.31 1.252,-2.339 1.081,-2.345 0.903,-2.341 0.806,-2.328 0.759,-2.3 l -0.022,0.047 -0.193,0.578 -1.082,0 -0.183,-0.563 -0.023,-0.052 -0.047,-0.034 -0.091,-0.016 -0.155,-0.005 -0.161,0.007 -0.079,0.032 -0.017,0.072 0.034,0.125 0.889,2.556 0.031,0.062 0.056,0.035 L -0.176,0.56 0.007,0.563 0.217,0.56 0.337,0.544 0.4,0.507 0.432,0.441 1.323,-2.113 z"
         style="fill:#000000;fill-opacity:1;fill-rule:nonzero;stroke:none"
         id="path3118" />
    </g>
    <g
       id="g3120"
       transform="matrix(6.3239377,0,0,-6.3239377,246.3374,564.91819)">
      <path
         d="m 0,0 c 0,0.114 -0.02,0.207 -0.06,0.28 l -0.147,0.162 -0.184,0.067 -0.198,0.013 -0.28,0 0,-1.096 0.294,0 0.263,0.043 0.174,0.118 0.103,0.182 L 0,0 z M 0.687,0.047 C 0.687,-0.134 0.659,-0.295 0.601,-0.434 0.545,-0.574 0.463,-0.692 0.354,-0.788 0.246,-0.884 0.114,-0.956 -0.045,-1.006 -0.201,-1.056 -0.387,-1.081 -0.6,-1.081 l -0.269,0 0,-1.032 -0.017,-0.044 -0.054,-0.033 -0.099,-0.02 -0.16,-0.008 -0.159,0.008 -0.101,0.02 -0.053,0.033 -0.015,0.044 0,2.908 0.062,0.175 0.161,0.059 0.762,0 L -0.323,1.021 -0.075,0.983 0.218,0.877 0.471,0.681 0.632,0.404 C 0.668,0.298 0.687,0.179 0.687,0.047"
         style="fill:#000000;fill-opacity:1;fill-rule:nonzero;stroke:none"
         id="path3122" />
    </g>
    <g
       id="g3124"
       transform="matrix(6.3239377,0,0,-6.3239377,267.9254,568.61257)">
      <path
         d="M 0,0 C 0,0.17 -0.013,0.324 -0.04,0.463 -0.067,0.602 -0.113,0.721 -0.176,0.82 l -0.256,0.23 c -0.107,0.054 -0.24,0.081 -0.4,0.081 -0.162,0 -0.297,-0.03 -0.404,-0.091 L -1.499,0.797 C -1.566,0.695 -1.613,0.576 -1.639,0.441 -1.668,0.305 -1.68,0.162 -1.68,0.01 c 0,-0.176 0.012,-0.335 0.039,-0.476 0.027,-0.14 0.072,-0.261 0.135,-0.361 l 0.254,-0.228 c 0.107,-0.052 0.242,-0.079 0.402,-0.079 0.162,0 0.297,0.03 0.406,0.09 l 0.261,0.245 c 0.067,0.103 0.114,0.224 0.142,0.361 C -0.014,-0.301 0,-0.155 0,0 m 0.689,0.035 c 0,-0.268 -0.033,-0.508 -0.1,-0.719 C 0.523,-0.896 0.424,-1.075 0.292,-1.222 0.161,-1.37 -0.002,-1.482 -0.196,-1.56 -0.39,-1.637 -0.614,-1.676 -0.869,-1.676 c -0.251,0 -0.47,0.033 -0.658,0.099 -0.187,0.066 -0.343,0.166 -0.469,0.301 -0.124,0.135 -0.218,0.306 -0.281,0.514 -0.062,0.208 -0.094,0.455 -0.094,0.74 0,0.261 0.034,0.496 0.101,0.705 0.067,0.209 0.165,0.387 0.297,0.533 0.132,0.147 0.294,0.259 0.488,0.337 0.195,0.079 0.42,0.118 0.675,0.118 0.245,0 0.462,-0.033 0.649,-0.098 C 0.026,1.509 0.183,1.409 0.308,1.274 0.434,1.139 0.529,0.969 0.593,0.763 0.657,0.557 0.689,0.315 0.689,0.035"
         style="fill:#000000;fill-opacity:1;fill-rule:nonzero;stroke:none"
         id="path3126" />
    </g>
    <g
       id="g3128"
       transform="matrix(6.3239377,0,0,-6.3239377,287.00789,577.10941)">
      <path
         d="m 0,0 -0.007,-0.126 -0.019,-0.085 -0.03,-0.049 -0.044,-0.015 -1.481,0 -0.139,0.049 -0.056,0.159 0,2.934 0.016,0.045 0.054,0.032 0.101,0.02 0.159,0.008 0.159,-0.008 0.1,-0.02 0.054,-0.032 0.016,-0.045 0,-2.6 1.017,0 0.044,-0.014 0.03,-0.044 L -0.007,0.126 0,0 z"
         style="fill:#000000;fill-opacity:1;fill-rule:nonzero;stroke:none"
         id="path3130-4" />
    </g>
    <g
       id="g3132"
       transform="matrix(6.3239377,0,0,-6.3239377,293.62595,578.2806)">
      <path
         d="m 0,0 -0.016,-0.045 -0.054,-0.032 -0.1,-0.02 -0.159,-0.008 -0.16,0.008 -0.1,0.02 -0.054,0.032 L -0.66,0 l 0,3.052 0.017,0.045 0.055,0.032 0.102,0.02 0.157,0.008 0.159,-0.008 0.1,-0.02 L -0.016,3.097 0,3.052 0,0 z"
         style="fill:#000000;fill-opacity:1;fill-rule:nonzero;stroke:none"
         id="path3134" />
    </g>
    <g
       id="g3136"
       transform="matrix(6.3239377,0,0,-6.3239377,312.21959,575.75356)">
      <path
         d="m 0,0 -0.003,-0.106 -0.012,-0.075 -0.02,-0.053 -0.04,-0.052 -0.107,-0.073 -0.192,-0.086 -0.259,-0.069 c -0.097,-0.019 -0.203,-0.028 -0.316,-0.028 -0.222,0 -0.421,0.035 -0.599,0.103 -0.178,0.068 -0.33,0.17 -0.455,0.305 -0.125,0.136 -0.221,0.306 -0.287,0.509 -0.067,0.203 -0.101,0.44 -0.101,0.709 0,0.275 0.038,0.519 0.111,0.732 0.073,0.213 0.175,0.392 0.307,0.537 0.131,0.145 0.289,0.254 0.473,0.329 0.184,0.075 0.387,0.113 0.608,0.113 L -0.632,2.773 -0.401,2.714 -0.21,2.63 -0.091,2.549 -0.044,2.493 -0.025,2.435 -0.014,2.353 -0.011,2.235 -0.015,2.108 -0.033,2.023 -0.062,1.976 -0.102,1.961 -0.197,2.005 -0.346,2.102 -0.564,2.199 c -0.083,0.029 -0.184,0.044 -0.3,0.044 -0.129,0 -0.243,-0.026 -0.344,-0.078 L -1.465,1.94 C -1.535,1.842 -1.589,1.725 -1.625,1.586 -1.663,1.448 -1.68,1.292 -1.68,1.119 c 0,-0.19 0.018,-0.354 0.058,-0.493 0.039,-0.139 0.095,-0.253 0.167,-0.343 l 0.262,-0.202 c 0.103,-0.043 0.218,-0.066 0.346,-0.066 0.117,0 0.218,0.014 0.302,0.041 l 0.219,0.092 0.15,0.089 0.09,0.041 0.042,-0.01 L -0.02,0.227 -0.005,0.144 0,0 z"
         style="fill:#000000;fill-opacity:1;fill-rule:nonzero;stroke:none"
         id="path3138" />
    </g>
    <g
       id="g3140"
       transform="matrix(6.3239377,0,0,-6.3239377,327.31479,577.22008)">
      <path
         d="m 0,0 -0.006,-0.121 -0.019,-0.079 -0.031,-0.044 -0.041,-0.013 -1.623,0 -0.14,0.048 -0.056,0.159 0,2.817 0.056,0.159 0.14,0.049 1.612,0 0.041,-0.013 0.03,-0.044 0.018,-0.08 0.006,-0.123 -0.006,-0.119 -0.018,-0.078 -0.03,-0.044 -0.041,-0.014 -1.153,0 0,-0.789 0.976,0 0.041,-0.014 0.032,-0.042 0.019,-0.078 0.006,-0.119 -0.006,-0.12 -0.019,-0.076 -0.032,-0.041 -0.041,-0.012 -0.976,0 0,-0.912 1.164,0 L -0.056,0.244 -0.025,0.2 -0.006,0.121 0,0 z"
         style="fill:#000000;fill-opacity:1;fill-rule:nonzero;stroke:none"
         id="path3142" />
    </g>
  </g>
</svg>
