<?xml version="1.0" encoding="UTF-8" standalone="no"?>
<!-- Created with Inkscape (http://www.inkscape.org/) -->

<svg
   xmlns:dc="http://purl.org/dc/elements/1.1/"
   xmlns:cc="http://creativecommons.org/ns#"
   xmlns:rdf="http://www.w3.org/1999/02/22-rdf-syntax-ns#"
   xmlns:svg="http://www.w3.org/2000/svg"
   xmlns="http://www.w3.org/2000/svg"
   xmlns:sodipodi="http://sodipodi.sourceforge.net/DTD/sodipodi-0.dtd"
   xmlns:inkscape="http://www.inkscape.org/namespaces/inkscape"
   width="213.79784"
   height="213.65952"
   id="svg4205"
   version="1.1"
   inkscape:version="0.47 r22583"
   sodipodi:docname="Cyprus road sign no hand vehicles.svg">
  <defs
     id="defs4207">
    <inkscape:perspective
       sodipodi:type="inkscape:persp3d"
       inkscape:vp_x="0 : 526.18109 : 1"
       inkscape:vp_y="0 : 1000 : 0"
       inkscape:vp_z="744.09448 : 526.18109 : 1"
       inkscape:persp3d-origin="372.04724 : 350.78739 : 1"
       id="perspective4213" />
    <inkscape:perspective
       id="perspective4228"
       inkscape:persp3d-origin="106.21 : 70.796666 : 1"
       inkscape:vp_z="212.42 : 106.195 : 1"
       inkscape:vp_y="0 : 1000 : 0"
       inkscape:vp_x="0 : 106.195 : 1"
       sodipodi:type="inkscape:persp3d" />
    <clipPath
       id="clipPath16">
      <path
         inkscape:connector-curvature="0"
         d="M 0.059998,169.98 H 170 V 0.06 H 0.059998 v 169.92 z"
         id="path18" />
    </clipPath>
    <inkscape:perspective
       id="perspective4247"
       inkscape:persp3d-origin="0.5 : 0.33333333 : 1"
       inkscape:vp_z="1 : 0.5 : 1"
       inkscape:vp_y="0 : 1000 : 0"
       inkscape:vp_x="0 : 0.5 : 1"
       sodipodi:type="inkscape:persp3d" />
    <clipPath
       clipPathUnits="userSpaceOnUse"
       id="clipPath3426">
      <path
         d="m 43.076,488.976 34.845,0 0,34.015 -34.845,0 0,-34.015 z"
         id="path3428" />
    </clipPath>
    <inkscape:perspective
       id="perspective4323"
       inkscape:persp3d-origin="0.5 : 0.33333333 : 1"
       inkscape:vp_z="1 : 0.5 : 1"
       inkscape:vp_y="0 : 1000 : 0"
       inkscape:vp_x="0 : 0.5 : 1"
       sodipodi:type="inkscape:persp3d" />
    <clipPath
       clipPathUnits="userSpaceOnUse"
       id="clipPath2896">
      <path
         d="m 102.752,490.181 34.845,0 0,34.016 -34.845,0 0,-34.016 z"
         id="path2898" />
    </clipPath>
    <inkscape:perspective
       id="perspective5249"
       inkscape:persp3d-origin="0.5 : 0.33333333 : 1"
       inkscape:vp_z="1 : 0.5 : 1"
       inkscape:vp_y="0 : 1000 : 0"
       inkscape:vp_x="0 : 0.5 : 1"
       sodipodi:type="inkscape:persp3d" />
  </defs>
  <sodipodi:namedview
     id="base"
     pagecolor="#ffffff"
     bordercolor="#666666"
     borderopacity="1.0"
     inkscape:pageopacity="0.0"
     inkscape:pageshadow="2"
     inkscape:zoom="2.362731"
     inkscape:cx="-45.575554"
     inkscape:cy="114.13123"
     inkscape:document-units="px"
     inkscape:current-layer="layer1"
     showgrid="false"
     inkscape:window-width="1600"
     inkscape:window-height="838"
     inkscape:window-x="-8"
     inkscape:window-y="-8"
     inkscape:window-maximized="1" />
  <metadata
     id="metadata4210">
    <rdf:RDF>
      <cc:Work
         rdf:about="">
        <dc:format>image/svg+xml</dc:format>
        <dc:type
           rdf:resource="http://purl.org/dc/dcmitype/StillImage" />
        <dc:title></dc:title>
      </cc:Work>
    </rdf:RDF>
  </metadata>
  <g
     inkscape:label="Livello 1"
     inkscape:groupmode="layer"
     id="layer1"
     transform="translate(-196.61923,-425.39439)">
    <path
       sodipodi:type="arc"
       style="fill:#ffffff;fill-opacity:1;fill-rule:evenodd;stroke:none"
       id="path5239"
       sodipodi:cx="98.614693"
       sodipodi:cy="117.79588"
       sodipodi:rx="91.419632"
       sodipodi:ry="86.552383"
       d="m 190.03432,117.79588 a 91.419632,86.552383 0 1 1 -182.8392593,0 91.419632,86.552383 0 1 1 182.8392593,0 z"
       transform="translate(204.66077,413.5437)" />
    <path
       id="path3432"
       style="fill:#ed1d24;fill-opacity:1;fill-rule:evenodd;stroke:none"
       d="m 303.50871,617.71498 c 46.94687,0 85.55686,-38.47166 85.55686,-85.40596 0,-47.09777 -38.60999,-85.55686 -85.55686,-85.55686 -47.09777,0 -85.55686,38.45909 -85.55686,85.55686 0,46.9343 38.45909,85.40596 85.55686,85.40596 m 0,21.33892 c 58.82348,0 106.90835,-48.08487 106.90835,-106.74488 0,-58.84235 -48.08487,-106.91464 -106.90835,-106.91464 -58.81091,0 -106.88949,48.07229 -106.88949,106.91464 0,58.66001 48.07858,106.74488 106.88949,106.74488" />
    <g
       id="g5305"
       transform="translate(244.63216,-6.3485856)">
      <g
         transform="matrix(6.3226102,0,0,-6.3226102,41.351097,562.94869)"
         id="g2908">
        <path
           id="path2910"
           style="fill:#fffffc;fill-opacity:1;fill-rule:nonzero;stroke:none"
           d="m 0,0 c 0,-1.553 -1.259,-2.812 -2.812,-2.812 -1.554,0 -2.813,1.259 -2.813,2.812 0,1.553 1.259,2.813 2.813,2.813 C -1.259,2.813 0,1.553 0,0" />
      </g>
      <path
         d="m 41.351097,562.94869 c 0,9.81901 -7.96017,17.77918 -17.77918,17.77918 -9.82534,0 -17.7855,-7.96017 -17.7855,-17.77918 0,-9.81901 7.96016,-17.7855 17.7855,-17.7855 9.81901,0 17.77918,7.96649 17.77918,17.7855 z"
         style="fill:none;stroke:#000000;stroke-width:6.0999999;stroke-linecap:butt;stroke-linejoin:miter;stroke-miterlimit:10;stroke-opacity:1;stroke-dasharray:none"
         id="path2914" />
      <g
         transform="matrix(6.3226102,0,0,-6.3226102,114.03583,562.94869)"
         id="g2916">
        <path
           id="path2918"
           style="fill:#fffffc;fill-opacity:1;fill-rule:nonzero;stroke:none"
           d="m 0,0 c 0,-1.553 -1.259,-2.812 -2.813,-2.812 -1.553,0 -2.812,1.259 -2.812,2.812 0,1.553 1.259,2.813 2.812,2.813 C -1.259,2.813 0,1.553 0,0" />
      </g>
      <g
         style="stroke-width:0.94897515;stroke-miterlimit:10;stroke-dasharray:none"
         transform="matrix(6.3226102,0,0,-6.3226102,114.03583,562.94869)"
         id="g2920">
        <path
           id="path2922"
           style="fill:none;stroke:#000000;stroke-width:0.94897515;stroke-linecap:butt;stroke-linejoin:miter;stroke-miterlimit:10;stroke-opacity:1;stroke-dasharray:none"
           d="m 0,0 c 0,-1.553 -1.259,-2.812 -2.813,-2.812 -1.553,0 -2.812,1.259 -2.812,2.812 0,1.553 1.259,2.813 2.812,2.813 C -1.259,2.813 0,1.553 0,0 z" />
      </g>
      <g
         transform="matrix(6.3226102,0,0,-6.3226102,71.447357,493.10977)"
         id="g2924">
        <path
           id="path2926"
           style="fill:#000000;fill-opacity:1;fill-rule:nonzero;stroke:none"
           d="m 0,0 0,-0.563 -0.487,0 c 0,0 -0.563,0.638 -0.788,0.282 -0.225,-0.356 -0.45,-0.881 0,-0.863 C -0.825,-1.125 0,-1.671 0,-1.671 l 0,-0.617 -0.766,0 c 0,0 -0.654,0.483 -0.769,0.617 -0.115,0.134 -1.84,0 -1.84,0 0,0 -0.45,1.896 0.675,2.309 1.125,0.412 1.65,-0.075 1.763,0 C -0.825,0.713 0,0 0,0" />
      </g>
      <g
         transform="matrix(6.3226102,0,0,-6.3226102,86.621617,520.28688)"
         id="g2928">
        <path
           id="path2930"
           style="fill:#000000;fill-opacity:1;fill-rule:nonzero;stroke:none"
           d="m 0,0 c -0.375,-0.014 0.038,-0.426 0.038,-0.426 l -0.638,0 c 0,0 -3.148,3.012 -3.825,3.053 -0.677,0.041 -3.15,-2.378 -3.187,-3.053 -0.038,-0.675 1.762,-1.529 1.762,-1.529 0,0 1.725,2.429 2.1,2.391 0.375,-0.037 3.15,-1.725 2.963,-1.95 -0.188,-0.225 -0.488,-1.113 -0.488,-1.113 l -0.848,0 c 0,0 -0.225,0.551 -0.502,0.701 -0.274,0.15 -3.562,-0.48 -3.562,-0.48 l -0.038,0.451 -0.45,0.179 -0.3,0.675 c 0,0 -0.45,0.375 -0.825,0.262 -0.375,-0.112 -1.012,-1.162 -1.012,-1.312 0,-0.15 -3.225,-0.15 -3.225,-0.15 l 0,-0.825 2.587,0 0.108,-0.057 c 1.676,-0.245 2.967,-1.674 2.967,-3.419 0,-0.29 -0.044,-0.567 -0.112,-0.837 l 4.275,0 0.032,0.069 c -0.009,0.106 -0.032,0.209 -0.032,0.318 0,2.175 1.762,3.938 3.937,3.938 0.169,0 0.33,-0.029 0.495,-0.05 l 0.443,0 0,1.613 C 2.663,-1.551 0.375,0.014 0,0" />
      </g>
    </g>
  </g>
</svg>
