<?xml version="1.0" encoding="UTF-8" standalone="no"?>
<!-- Created with Inkscape (http://www.inkscape.org/) -->

<svg
   xmlns:dc="http://purl.org/dc/elements/1.1/"
   xmlns:cc="http://creativecommons.org/ns#"
   xmlns:rdf="http://www.w3.org/1999/02/22-rdf-syntax-ns#"
   xmlns:svg="http://www.w3.org/2000/svg"
   xmlns="http://www.w3.org/2000/svg"
   xmlns:sodipodi="http://sodipodi.sourceforge.net/DTD/sodipodi-0.dtd"
   xmlns:inkscape="http://www.inkscape.org/namespaces/inkscape"
   width="76.169998"
   height="102.5375"
   id="svg6419"
   version="1.1"
   inkscape:version="0.47 r22583"
   sodipodi:docname="Cyprus road sign humped crossing.svg">
  <defs
     id="defs6421">
    <inkscape:perspective
       sodipodi:type="inkscape:persp3d"
       inkscape:vp_x="0 : 526.18109 : 1"
       inkscape:vp_y="0 : 1000 : 0"
       inkscape:vp_z="744.09448 : 526.18109 : 1"
       inkscape:persp3d-origin="372.04724 : 350.78739 : 1"
       id="perspective6427" />
    <inkscape:perspective
       id="perspective6455"
       inkscape:persp3d-origin="300 : 200 : 1"
       inkscape:vp_z="600 : 300 : 1"
       inkscape:vp_y="0 : 1000 : 0"
       inkscape:vp_x="0 : 300 : 1"
       sodipodi:type="inkscape:persp3d" />
    <clipPath
       id="clipPath20">
      <path
         d="m 0.014999,205.28 205.270001,0 0,-205.28 -205.270001,0 0,205.28 z"
         id="path9" />
    </clipPath>
    <inkscape:perspective
       id="perspective6487"
       inkscape:persp3d-origin="0.5 : 0.33333333 : 1"
       inkscape:vp_z="1 : 0.5 : 1"
       inkscape:vp_y="0 : 1000 : 0"
       inkscape:vp_x="0 : 0.5 : 1"
       sodipodi:type="inkscape:persp3d" />
    <clipPath
       clipPathUnits="userSpaceOnUse"
       id="clipPath5883">
      <path
         d="m 233.519,209.338 34.845,0 0,34.016 -34.845,0 0,-34.016 z"
         id="path5885" />
    </clipPath>
    <inkscape:perspective
       id="perspective7191"
       inkscape:persp3d-origin="0.5 : 0.33333333 : 1"
       inkscape:vp_z="1 : 0.5 : 1"
       inkscape:vp_y="0 : 1000 : 0"
       inkscape:vp_x="0 : 0.5 : 1"
       sodipodi:type="inkscape:persp3d" />
    <clipPath
       clipPathUnits="userSpaceOnUse"
       id="clipPath6115">
      <path
         d="m 112.397,129.449 34.845,0 0,34.016 -34.845,0 0,-34.016 z"
         id="path6117" />
    </clipPath>
    <inkscape:perspective
       id="perspective7283"
       inkscape:persp3d-origin="0.5 : 0.33333333 : 1"
       inkscape:vp_z="1 : 0.5 : 1"
       inkscape:vp_y="0 : 1000 : 0"
       inkscape:vp_x="0 : 0.5 : 1"
       sodipodi:type="inkscape:persp3d" />
    <clipPath
       clipPathUnits="userSpaceOnUse"
       id="clipPath5487">
      <path
         d="m 52.071,490.394 34.845,0 0,34.016 -34.845,0 0,-34.016 z"
         id="path5489" />
    </clipPath>
    <inkscape:perspective
       id="perspective7383"
       inkscape:persp3d-origin="0.5 : 0.33333333 : 1"
       inkscape:vp_z="1 : 0.5 : 1"
       inkscape:vp_y="0 : 1000 : 0"
       inkscape:vp_x="0 : 0.5 : 1"
       sodipodi:type="inkscape:persp3d" />
    <clipPath
       clipPathUnits="userSpaceOnUse"
       id="clipPath5335">
      <path
         d="m 51.732,129.449 34.845,0 0,34.016 -34.845,0 0,-34.016 z"
         id="path5337" />
    </clipPath>
    <inkscape:perspective
       id="perspective7487"
       inkscape:persp3d-origin="0.5 : 0.33333333 : 1"
       inkscape:vp_z="1 : 0.5 : 1"
       inkscape:vp_y="0 : 1000 : 0"
       inkscape:vp_x="0 : 0.5 : 1"
       sodipodi:type="inkscape:persp3d" />
    <clipPath
       clipPathUnits="userSpaceOnUse"
       id="clipPath6159">
      <path
         d="m 234.152,129.449 34.845,0 0,34.016 -34.845,0 0,-34.016 z"
         id="path6161" />
    </clipPath>
    <inkscape:perspective
       id="perspective7591"
       inkscape:persp3d-origin="0.5 : 0.33333333 : 1"
       inkscape:vp_z="1 : 0.5 : 1"
       inkscape:vp_y="0 : 1000 : 0"
       inkscape:vp_x="0 : 0.5 : 1"
       sodipodi:type="inkscape:persp3d" />
    <clipPath
       clipPathUnits="userSpaceOnUse"
       id="clipPath6391">
      <path
         d="m 138.483,43.228 34.845,0 0,34.016 -34.845,0 0,-34.016 z"
         id="path6393" />
    </clipPath>
    <inkscape:perspective
       id="perspective7668"
       inkscape:persp3d-origin="0.5 : 0.33333333 : 1"
       inkscape:vp_z="1 : 0.5 : 1"
       inkscape:vp_y="0 : 1000 : 0"
       inkscape:vp_x="0 : 0.5 : 1"
       sodipodi:type="inkscape:persp3d" />
    <inkscape:perspective
       id="perspective7699"
       inkscape:persp3d-origin="0.5 : 0.33333333 : 1"
       inkscape:vp_z="1 : 0.5 : 1"
       inkscape:vp_y="0 : 1000 : 0"
       inkscape:vp_x="0 : 0.5 : 1"
       sodipodi:type="inkscape:persp3d" />
    <clipPath
       clipPathUnits="userSpaceOnUse"
       id="clipPath6143">
      <path
         d="M 0,0 311,0 311,595 0,595 0,0 z"
         id="path6145" />
    </clipPath>
    <inkscape:perspective
       id="perspective7742"
       inkscape:persp3d-origin="0.5 : 0.33333333 : 1"
       inkscape:vp_z="1 : 0.5 : 1"
       inkscape:vp_y="0 : 1000 : 0"
       inkscape:vp_x="0 : 0.5 : 1"
       sodipodi:type="inkscape:persp3d" />
    <clipPath
       clipPathUnits="userSpaceOnUse"
       id="clipPath6335">
      <path
         d="m 234.901,294.331 34.845,0 0,58.11 -34.845,0 0,-58.11 z"
         id="path6337" />
    </clipPath>
    <inkscape:perspective
       id="perspective9466"
       inkscape:persp3d-origin="0.5 : 0.33333333 : 1"
       inkscape:vp_z="1 : 0.5 : 1"
       inkscape:vp_y="0 : 1000 : 0"
       inkscape:vp_x="0 : 0.5 : 1"
       sodipodi:type="inkscape:persp3d" />
    <clipPath
       clipPathUnits="userSpaceOnUse"
       id="clipPath8409">
      <path
         d="m 32.598,401.177 76.28,0 0,121.107 -76.28,0 0,-121.107 z"
         id="path8411" />
    </clipPath>
    <inkscape:perspective
       id="perspective10290"
       inkscape:persp3d-origin="0.5 : 0.33333333 : 1"
       inkscape:vp_z="1 : 0.5 : 1"
       inkscape:vp_y="0 : 1000 : 0"
       inkscape:vp_x="0 : 0.5 : 1"
       sodipodi:type="inkscape:persp3d" />
    <clipPath
       clipPathUnits="userSpaceOnUse"
       id="clipPath8815">
      <path
         d="m 112.819,401.177 76.28,0 0,121.107 -76.28,0 0,-121.107 z"
         id="path8817" />
    </clipPath>
    <clipPath
       clipPathUnits="userSpaceOnUse"
       id="clipPath8787">
      <path
         d="M 0,0 311,0 311,595 0,595 0,0 z"
         id="path8789" />
    </clipPath>
    <inkscape:perspective
       id="perspective10621"
       inkscape:persp3d-origin="0.5 : 0.33333333 : 1"
       inkscape:vp_z="1 : 0.5 : 1"
       inkscape:vp_y="0 : 1000 : 0"
       inkscape:vp_x="0 : 0.5 : 1"
       sodipodi:type="inkscape:persp3d" />
    <clipPath
       clipPathUnits="userSpaceOnUse"
       id="clipPath8605">
      <path
         d="m 32.598,269.008 76.28,0 0,91.275 -76.28,0 0,-91.275 z"
         id="path8607" />
    </clipPath>
    <clipPath
       clipPathUnits="userSpaceOnUse"
       id="clipPath8585">
      <path
         d="M 0,0 311,0 311,595 0,595 0,0 z"
         id="path8587" />
    </clipPath>
    <inkscape:perspective
       id="perspective10943"
       inkscape:persp3d-origin="0.5 : 0.33333333 : 1"
       inkscape:vp_z="1 : 0.5 : 1"
       inkscape:vp_y="0 : 1000 : 0"
       inkscape:vp_x="0 : 0.5 : 1"
       sodipodi:type="inkscape:persp3d" />
    <clipPath
       clipPathUnits="userSpaceOnUse"
       id="clipPath9107">
      <path
         d="m 112.535,269.008 76.279,0 0,91.275 -76.279,0 0,-91.275 z"
         id="path9109" />
    </clipPath>
    <clipPath
       clipPathUnits="userSpaceOnUse"
       id="clipPath9087">
      <path
         d="M 0,0 311,0 311,595 0,595 0,0 z"
         id="path9089" />
    </clipPath>
  </defs>
  <sodipodi:namedview
     id="base"
     pagecolor="#ffffff"
     bordercolor="#666666"
     borderopacity="1.0"
     inkscape:pageopacity="0.0"
     inkscape:pageshadow="2"
     inkscape:zoom="0.59068275"
     inkscape:cx="78.425677"
     inkscape:cy="109.0561"
     inkscape:document-units="px"
     inkscape:current-layer="layer1"
     showgrid="false"
     inkscape:window-width="1600"
     inkscape:window-height="838"
     inkscape:window-x="-8"
     inkscape:window-y="-8"
     inkscape:window-maximized="1" />
  <metadata
     id="metadata6424">
    <rdf:RDF>
      <cc:Work
         rdf:about="">
        <dc:format>image/svg+xml</dc:format>
        <dc:type
           rdf:resource="http://purl.org/dc/dcmitype/StillImage" />
        <dc:title></dc:title>
      </cc:Work>
    </rdf:RDF>
  </metadata>
  <g
     inkscape:label="Livello 1"
     inkscape:groupmode="layer"
     id="layer1"
     transform="translate(112.31483,-544.92841)">
    <g
       transform="matrix(1.25,0,0,-1.25,-262.4807,992.42491)"
       id="g9083">
      <g
         id="g9085"
         clip-path="url(#clipPath9087)">
        <g
           id="g9091"
           transform="translate(180.5197,276.5162)">
          <path
             d="m 0,0 -59.838,0.405 0,80.515 L 0,80.932 0,0 z"
             style="fill:#ffdb00;fill-opacity:1;fill-rule:nonzero;stroke:none"
             id="path9093" />
        </g>
        <g
           id="g9095"
           transform="translate(180.5197,276.5162)">
          <path
             d="m 0,0 -59.838,0.405 0,80.515 L 0,80.932 0,0 z"
             style="fill:none;stroke:#ed1d24;stroke-width:1.09800005;stroke-linecap:butt;stroke-linejoin:miter;stroke-miterlimit:4;stroke-opacity:1;stroke-dasharray:none"
             id="path9097" />
        </g>
        <g
           id="g9099"
           transform="translate(143.799,321.2003)">
          <path
             d="M 0,0 -8.394,0 7.135,27.184 22.918,0 0,0 z"
             style="fill:#ffffff;fill-opacity:1;fill-rule:evenodd;stroke:none"
             id="path9101" />
        </g>
      </g>
    </g>
    <g
       transform="matrix(1.25,0,0,-1.25,-262.4807,992.42491)"
       id="g9103">
      <g
         id="g9105"
         clip-path="url(#clipPath9107)">
        <g
           id="g9111"
           transform="translate(137.0995,322.3439)">
          <path
             d="M 0,0 27.774,0 13.892,24.031 0,0 z m 29.136,-3.104 c 0.826,0 1.586,0.444 2,1.163 0.423,0.719 0.423,1.606 0,2.325 l -15.232,26.37 c -0.416,0.717 -1.181,1.159 -2.012,1.159 -0.832,0 -1.6,-0.445 -2.015,-1.166 L -3.359,0.384 c -0.414,-0.719 -0.414,-1.606 0,-2.325 0.413,-0.719 1.192,-1.163 2.019,-1.163 l 30.476,0 z"
             style="fill:#ed1d24;fill-opacity:1;fill-rule:evenodd;stroke:none"
             id="path9113" />
        </g>
        <g
           id="g9115"
           transform="translate(150.879,323.77699)">
          <path
             d="M 0,0 C 1.331,0 2.418,1.086 2.418,2.419 2.418,3.751 1.331,4.837 0,4.837 -1.333,4.837 -2.42,3.751 -2.42,2.419 -2.42,1.086 -1.333,0 0,0"
             style="fill:#74b845;fill-opacity:1;fill-rule:evenodd;stroke:none"
             id="path9117" />
        </g>
        <g
           id="g9119"
           transform="translate(150.879,330.5291)">
          <path
             d="M 0,0 C 1.331,0 2.418,1.087 2.418,2.419 2.418,3.751 1.331,4.838 0,4.838 -1.333,4.838 -2.42,3.751 -2.42,2.419 -2.42,1.087 -1.333,0 0,0"
             style="fill:#fff200;fill-opacity:1;fill-rule:evenodd;stroke:none"
             id="path9121" />
        </g>
        <g
           id="g9123"
           transform="translate(150.879,337.2811)">
          <path
             d="M 0,0 C 1.331,0 2.418,1.087 2.418,2.419 2.418,3.751 1.331,4.838 0,4.838 -1.333,4.838 -2.42,3.751 -2.42,2.419 -2.42,1.087 -1.333,0 0,0"
             style="fill:#ed1d24;fill-opacity:1;fill-rule:evenodd;stroke:none"
             id="path9125" />
        </g>
        <g
           id="g9127"
           transform="translate(174.9404,280.61079)">
          <path
             d="m 0,0 -47.899,0.282 0,29.082 L 0,29.459 0,0 z"
             style="fill:#ed1d24;fill-opacity:1;fill-rule:nonzero;stroke:none"
             id="path9129" />
        </g>
        <g
           id="g9131"
           transform="translate(174.9404,280.61079)">
          <path
             d="m 0,0 -47.899,0.282 0,29.082 L 0,29.459 0,0 z"
             style="fill:none;stroke:#bcbec0;stroke-width:1.64600003;stroke-linecap:butt;stroke-linejoin:miter;stroke-miterlimit:4;stroke-opacity:1;stroke-dasharray:none"
             id="path9133" />
        </g>
        <g
           id="g9135"
           transform="translate(131.2415,303.37579)">
          <path
             d="m 0,0 c 0.211,0.023 0.379,0.109 0.505,0.256 0.126,0.148 0.19,0.348 0.19,0.601 0,0.234 -0.061,0.43 -0.182,0.59 C 0.392,1.605 0.222,1.694 0,1.712 L 0,0 z M -0.682,1.712 C -0.894,1.691 -1.063,1.606 -1.189,1.457 -1.315,1.308 -1.377,1.108 -1.377,0.857 c 0,-0.235 0.06,-0.431 0.182,-0.59 C -1.074,0.109 -0.903,0.02 -0.682,0 l 0,1.712 z m 0,0.881 0.682,0 0,-0.302 C 0.417,2.28 0.754,2.143 1.011,1.881 1.268,1.618 1.397,1.277 1.397,0.857 1.397,0.469 1.275,0.134 1.028,-0.145 0.783,-0.424 0.439,-0.577 0,-0.601 l 0,-0.406 -0.682,0 0,0.406 c -0.44,0.024 -0.784,0.177 -1.03,0.457 -0.245,0.281 -0.369,0.615 -0.369,1.001 0,0.268 0.054,0.505 0.16,0.713 0.107,0.207 0.266,0.377 0.477,0.51 0.211,0.133 0.465,0.203 0.762,0.211 l 0,0.302 z"
             style="fill:#dadbdc;fill-opacity:1;fill-rule:nonzero;stroke:none"
             id="path9137" />
        </g>
        <g
           id="g9139"
           transform="translate(132.8268,302.50481)">
          <path
             d="m 0,0 0,0.569 0.654,0 c -0.401,0.422 -0.601,0.874 -0.601,1.36 0,0.424 0.143,0.781 0.431,1.072 0.287,0.29 0.681,0.435 1.182,0.435 0.496,0 0.888,-0.144 1.178,-0.433 C 3.132,2.714 3.277,2.356 3.277,1.929 3.277,1.443 3.076,0.991 2.676,0.569 l 0.657,0 0,-0.569 -1.547,0 0,0.544 c 0.259,0.097 0.455,0.254 0.588,0.47 0.133,0.217 0.2,0.466 0.2,0.749 0,0.29 -0.076,0.545 -0.23,0.763 C 2.192,2.744 1.966,2.853 1.666,2.853 1.368,2.853 1.142,2.745 0.988,2.528 0.835,2.312 0.758,2.057 0.758,1.763 0.758,1.479 0.824,1.229 0.957,1.013 1.09,0.797 1.286,0.641 1.546,0.544 L 1.546,0 0,0 z"
             style="fill:#dadbdc;fill-opacity:1;fill-rule:nonzero;stroke:none"
             id="path9141" />
        </g>
        <g
           id="g9143"
           transform="translate(137.2529,302.50481)">
          <path
             d="m 0,0 0,2.807 -1.002,0 0,0.572 2.684,0 0,-0.572 -1,0 L 0.682,0 0,0 z"
             style="fill:#dadbdc;fill-opacity:1;fill-rule:nonzero;stroke:none"
             id="path9145" />
        </g>
        <g
           id="g9147"
           transform="translate(139.6185,304.1963)">
          <path
             d="m 0,0 c 0,-0.383 0.089,-0.672 0.265,-0.87 0.177,-0.197 0.401,-0.296 0.673,-0.296 0.272,0 0.495,0.098 0.67,0.294 0.174,0.196 0.262,0.489 0.262,0.881 0,0.388 -0.085,0.677 -0.256,0.867 C 1.445,1.067 1.219,1.161 0.938,1.161 0.657,1.161 0.43,1.065 0.258,0.873 0.086,0.68 0,0.389 0,0 m -0.703,-0.023 c 0,0.344 0.051,0.633 0.154,0.867 0.077,0.172 0.182,0.326 0.315,0.463 0.133,0.136 0.279,0.238 0.437,0.304 0.211,0.089 0.453,0.134 0.729,0.134 0.497,0 0.896,-0.155 1.194,-0.463 0.299,-0.309 0.449,-0.738 0.449,-1.289 0,-0.545 -0.149,-0.972 -0.445,-1.28 -0.297,-0.308 -0.694,-0.462 -1.19,-0.462 -0.501,0 -0.901,0.153 -1.198,0.459 -0.296,0.307 -0.445,0.729 -0.445,1.267"
             style="fill:#dadbdc;fill-opacity:1;fill-rule:nonzero;stroke:none"
             id="path9149" />
        </g>
        <g
           id="g9151"
           transform="translate(142.4881,302.50481)">
          <path
             d="m 0,0 0,3.379 2.505,0 0,-0.572 -1.822,0 0,-0.749 1.696,0 0,-0.569 -1.696,0 0,-0.92 1.887,0 L 2.57,0 0,0 z"
             style="fill:#dadbdc;fill-opacity:1;fill-rule:nonzero;stroke:none"
             id="path9153" />
        </g>
        <g
           id="g9155"
           transform="translate(146.99541,305.8835)">
          <path
             d="m 0,0 1.208,-3.379 -0.74,0 -0.855,2.498 -0.827,-2.498 -0.724,0 L -0.728,0 0,0 z"
             style="fill:#dadbdc;fill-opacity:1;fill-rule:nonzero;stroke:none"
             id="path9157" />
        </g>
        <g
           id="g9159"
           transform="translate(148.31281,302.50481)">
          <path
             d="m 0,0 0,3.379 2.505,0 0,-0.572 -1.822,0 0,-0.749 1.696,0 0,-0.569 -1.696,0 0,-0.92 1.887,0 L 2.57,0 0,0 z"
             style="fill:#dadbdc;fill-opacity:1;fill-rule:nonzero;stroke:none"
             id="path9161" />
        </g>
        <g
           id="g9163"
           transform="translate(151.23711,305.8835)">
          <path
             d="m 0,0 2.379,0 0,-0.574 -1.696,0 0,-2.805 L 0,-3.379 0,0 z"
             style="fill:#dadbdc;fill-opacity:1;fill-rule:nonzero;stroke:none"
             id="path9165" />
        </g>
        <g
           id="g9167"
           transform="translate(153.4838,302.50481)">
          <path
             d="m 0,0 1.154,1.763 -1.046,1.616 0.798,0 0.677,-1.086 0.664,1.086 0.791,0 L 1.986,1.738 3.141,0 2.319,0 1.569,1.168 0.818,0 0,0 z"
             style="fill:#dadbdc;fill-opacity:1;fill-rule:nonzero;stroke:none"
             id="path9169" />
        </g>
        <g
           id="g9171"
           transform="translate(157.30409,304.1963)">
          <path
             d="m 0,0 c 0,-0.383 0.089,-0.672 0.265,-0.87 0.177,-0.197 0.401,-0.296 0.673,-0.296 0.272,0 0.495,0.098 0.67,0.294 0.174,0.196 0.262,0.489 0.262,0.881 0,0.388 -0.085,0.677 -0.256,0.867 C 1.445,1.067 1.219,1.161 0.938,1.161 0.657,1.161 0.43,1.065 0.258,0.873 0.086,0.68 0,0.389 0,0 m -0.703,-0.023 c 0,0.344 0.051,0.633 0.154,0.867 0.077,0.172 0.183,0.326 0.315,0.463 0.133,0.136 0.279,0.238 0.437,0.304 0.211,0.089 0.453,0.134 0.729,0.134 0.497,0 0.896,-0.155 1.194,-0.463 0.299,-0.309 0.449,-0.738 0.449,-1.289 0,-0.545 -0.149,-0.972 -0.445,-1.28 -0.297,-0.308 -0.694,-0.462 -1.19,-0.462 -0.501,0 -0.901,0.153 -1.198,0.459 -0.296,0.307 -0.445,0.729 -0.445,1.267"
             style="fill:#dadbdc;fill-opacity:1;fill-rule:nonzero;stroke:none"
             id="path9173" />
        </g>
        <g
           id="g9175"
           transform="translate(160.1651,302.50481)">
          <path
             d="m 0,0 0,3.379 1.02,0 0.614,-2.305 0.606,2.305 1.023,0 0,-3.379 -0.634,0 0,2.659 L 1.958,0 1.302,0 0.633,2.659 0.633,0 0,0 z"
             style="fill:#dadbdc;fill-opacity:1;fill-rule:nonzero;stroke:none"
             id="path9177" />
        </g>
        <g
           id="g9179"
           transform="translate(163.86971,302.50481)">
          <path
             d="m 0,0 0,3.379 2.505,0 0,-0.572 -1.822,0 0,-0.749 1.696,0 0,-0.569 -1.696,0 0,-0.92 1.887,0 L 2.57,0 0,0 z"
             style="fill:#dadbdc;fill-opacity:1;fill-rule:nonzero;stroke:none"
             id="path9181" />
        </g>
        <g
           id="g9183"
           transform="translate(166.7895,302.50481)">
          <path
             d="m 0,0 0,3.379 0.664,0 1.382,-2.257 0,2.257 0.634,0 L 2.68,0 1.996,0 0.634,2.203 0.634,0 0,0 z"
             style="fill:#dadbdc;fill-opacity:1;fill-rule:nonzero;stroke:none"
             id="path9185" />
        </g>
        <g
           id="g9187"
           transform="translate(169.95711,302.50481)">
          <path
             d="m 0,0 0,3.379 0.683,0 0,-1.33 1.336,0 0,1.33 0.682,0 0,-3.379 -0.682,0 0,1.477 -1.336,0 L 0.683,0 0,0 z"
             style="fill:#dadbdc;fill-opacity:1;fill-rule:nonzero;stroke:none"
             id="path9189" />
        </g>
        <g
           id="g9191"
           transform="translate(142.4559,298.16141)">
          <path
             d="M 0,0 -0.796,2.115 -1.568,0 0,0 z m 1.005,-0.596 -3.548,0 1.378,3.536 0.754,0 1.416,-3.536 z"
             style="fill:#dadbdc;fill-opacity:1;fill-rule:nonzero;stroke:none"
             id="path9193" />
        </g>
        <path
           d="m 143.801,297.566 0.714,0 0,3.536 -0.714,0 0,-3.536 z"
           style="fill:#dadbdc;fill-opacity:1;fill-rule:nonzero;stroke:none"
           id="path9195" />
        <g
           id="g9197"
           transform="translate(147.0694,298.9642)">
          <path
             d="M 0,0 -0.488,1.312 -0.965,0 0,0 z m 1.314,-1.399 -0.777,0 -0.309,0.803 -1.413,0 -0.292,-0.803 -0.757,0 1.378,3.536 0.754,0 1.416,-3.536 z"
             style="fill:#dadbdc;fill-opacity:1;fill-rule:nonzero;stroke:none"
             id="path9199" />
        </g>
        <g
           id="g9201"
           transform="translate(149.4791,299.1068)">
          <path
             d="m 0,0 0,-0.945 0.66,0 c 0.258,0 0.42,0.006 0.49,0.021 0.106,0.019 0.192,0.067 0.26,0.141 0.066,0.074 0.099,0.175 0.099,0.301 0,0.106 -0.025,0.196 -0.077,0.27 L 1.209,-0.051 C 1.112,-0.017 0.901,0 0.576,0 L 0,0 z m 0,1.406 0,-0.817 0.467,0 c 0.278,0 0.452,0.003 0.519,0.011 0.122,0.015 0.218,0.057 0.289,0.127 0.069,0.069 0.104,0.162 0.104,0.276 0,0.11 -0.03,0.199 -0.09,0.266 C 1.228,1.338 1.138,1.38 1.019,1.394 0.949,1.402 0.745,1.406 0.41,1.406 l -0.41,0 z m -0.714,0.589 1.413,0 C 0.979,1.995 1.188,1.982 1.325,1.96 1.462,1.936 1.585,1.888 1.694,1.814 1.802,1.74 1.893,1.641 1.965,1.518 2.038,1.395 2.073,1.257 2.073,1.104 2.073,0.939 2.029,0.787 1.94,0.648 1.85,0.51 1.729,0.406 1.577,0.338 1.792,0.274 1.957,0.167 2.073,0.017 2.189,-0.135 2.247,-0.312 2.247,-0.517 2.247,-0.677 2.21,-0.834 2.135,-0.985 2.06,-1.137 1.958,-1.258 1.829,-1.35 1.699,-1.441 1.539,-1.496 1.351,-1.518 1.231,-1.531 0.944,-1.538 0.489,-1.541 l -1.203,0 0,3.536 z"
             style="fill:#dadbdc;fill-opacity:1;fill-rule:nonzero;stroke:none"
             id="path9203" />
        </g>
        <g
           id="g9205"
           transform="translate(154.2041,298.9642)">
          <path
             d="M 0,0 -0.488,1.312 -0.965,0 0,0 z m 1.314,-1.399 -0.777,0 -0.309,0.803 -1.412,0 -0.293,-0.803 -0.757,0 1.378,3.536 0.754,0 1.416,-3.536 z"
             style="fill:#dadbdc;fill-opacity:1;fill-rule:nonzero;stroke:none"
             id="path9207" />
        </g>
        <g
           id="g9209"
           transform="translate(155.8002,301.1017)">
          <path
             d="m 0,0 2.448,0 0,-0.599 -1.568,0 0.914,-1.089 -1.007,-1.252 1.736,0 0,-0.596 -2.569,0 0,0.66 0.949,1.188 L 0,-0.638 0,0 z"
             style="fill:#dadbdc;fill-opacity:1;fill-rule:nonzero;stroke:none"
             id="path9211" />
        </g>
        <g
           id="g9213"
           transform="translate(158.86369,297.5654)">
          <path
             d="m 0,0 0,3.536 0.714,0 0,-1.392 1.398,0 0,1.392 0.714,0 0,-3.536 -0.714,0 0,1.546 -1.398,0 L 0.714,0 0,0 z"
             style="fill:#dadbdc;fill-opacity:1;fill-rule:nonzero;stroke:none"
             id="path9215" />
        </g>
        <g
           id="g9217"
           transform="translate(135.07471,296.16119)">
          <path
             d="m 0,0 2.448,0 0,-0.598 -1.568,0 0.914,-1.089 -1.007,-1.252 1.736,0 0,-0.596 -2.569,0 0,0.66 0.949,1.188 L 0,-0.637 0,0 z"
             style="fill:#dadbdc;fill-opacity:1;fill-rule:nonzero;stroke:none"
             id="path9219" />
        </g>
        <g
           id="g9221"
           transform="translate(138.13499,292.62601)">
          <path
             d="m 0,0 0,3.535 2.622,0 0,-0.598 -1.908,0 0,-0.783 1.775,0 0,-0.595 -1.775,0 0,-0.963 1.975,0 L 2.689,0 0,0 z"
             style="fill:#dadbdc;fill-opacity:1;fill-rule:nonzero;stroke:none"
             id="path9223" />
        </g>
        <g
           id="g9225"
           transform="translate(142.8118,292.62601)">
          <path
             d="m 0,0 0,3.535 0.714,0 0,-1.569 1.443,1.569 0.959,0 L 1.785,2.159 3.189,0 2.265,0 1.293,1.659 0.714,1.069 0.714,0 0,0 z"
             style="fill:#dadbdc;fill-opacity:1;fill-rule:nonzero;stroke:none"
             id="path9227" />
        </g>
        <g
           id="g9229"
           transform="translate(147.2989,292.62601)">
          <path
             d="m 0,0 0,1.488 -1.296,2.047 0.837,0 0.832,-1.398 0.816,1.398 0.822,0 L 0.711,1.484 0.711,0 0,0 z"
             style="fill:#dadbdc;fill-opacity:1;fill-rule:nonzero;stroke:none"
             id="path9231" />
        </g>
        <g
           id="g9233"
           transform="translate(150.37849,295.5631)">
          <path
             d="m 0,0 0,-1.003 0.391,0 c 0.281,0 0.47,0.019 0.564,0.055 l 0.223,0.174 c 0.055,0.079 0.081,0.171 0.081,0.276 0,0.128 -0.038,0.234 -0.113,0.318 C 1.07,-0.096 0.974,-0.045 0.859,-0.024 0.774,-0.007 0.602,0 0.345,0 L 0,0 z m -0.714,-2.937 0,3.535 1.146,0 C 0.866,0.598 1.149,0.581 1.281,0.546 1.484,0.493 1.653,0.377 1.79,0.199 1.926,0.021 1.995,-0.208 1.995,-0.489 c 0,-0.217 -0.04,-0.4 -0.118,-0.547 C 1.798,-1.185 1.698,-1.3 1.577,-1.385 1.455,-1.47 1.331,-1.525 1.206,-1.552 1.035,-1.586 0.789,-1.604 0.466,-1.604 l -0.466,0 0,-1.333 -0.714,0 z"
             style="fill:#dadbdc;fill-opacity:1;fill-rule:nonzero;stroke:none"
             id="path9235" />
        </g>
        <g
           id="g9237"
           transform="translate(153.7561,292.62601)">
          <path
             d="m 0,0 0,2.937 -1.049,0 0,0.598 2.809,0 0,-0.598 -1.046,0 L 0.714,0 0,0 z"
             style="fill:#dadbdc;fill-opacity:1;fill-rule:nonzero;stroke:none"
             id="path9239" />
        </g>
        <g
           id="g9241"
           transform="translate(155.7648,292.62601)">
          <path
             d="m 0,0 0,0.596 0.686,0 c -0.42,0.441 -0.63,0.914 -0.63,1.422 0,0.444 0.15,0.818 0.451,1.123 0.3,0.303 0.713,0.455 1.237,0.455 0.52,0 0.93,-0.151 1.233,-0.453 C 3.279,2.841 3.43,2.465 3.43,2.018 3.43,1.51 3.22,1.037 2.801,0.596 l 0.687,0 0,-0.596 -1.619,0 0,0.569 c 0.273,0.102 0.477,0.265 0.617,0.492 0.139,0.228 0.209,0.488 0.209,0.784 0,0.304 -0.081,0.57 -0.24,0.798 C 2.295,2.872 2.058,2.986 1.744,2.986 1.432,2.986 1.196,2.873 1.036,2.646 0.875,2.419 0.794,2.152 0.794,1.845 0.794,1.548 0.864,1.286 1.002,1.06 1.142,0.834 1.347,0.671 1.619,0.569 L 1.619,0 0,0 z"
             style="fill:#dadbdc;fill-opacity:1;fill-rule:nonzero;stroke:none"
             id="path9243" />
        </g>
        <g
           id="g9245"
           transform="translate(159.8392,292.62601)">
          <path
             d="m 0,0 0,3.535 1.069,0 0.642,-2.412 0.633,2.412 1.071,0 0,-3.535 -0.662,0 0,2.783 L 2.051,0 1.363,0 0.664,2.783 0.664,0 0,0 z"
             style="fill:#dadbdc;fill-opacity:1;fill-rule:nonzero;stroke:none"
             id="path9247" />
        </g>
        <g
           id="g9249"
           transform="translate(165.83771,294.0248)">
          <path
             d="M 0,0 -0.488,1.312 -0.965,0 0,0 z m 1.314,-1.399 -0.777,0 -0.309,0.803 -1.412,0 -0.293,-0.803 -0.757,0 1.378,3.535 0.754,0 1.416,-3.535 z"
             style="fill:#dadbdc;fill-opacity:1;fill-rule:nonzero;stroke:none"
             id="path9251" />
        </g>
        <g
           id="g9253"
           transform="translate(132.1387,287.6866)">
          <path
             d="m 0,0 0,3.535 0.714,0 0,-1.391 1.398,0 0,1.391 0.714,0 0,-3.535 -0.714,0 0,1.546 -1.398,0 L 0.714,0 0,0 z"
             style="fill:#dadbdc;fill-opacity:1;fill-rule:nonzero;stroke:none"
             id="path9255" />
        </g>
        <g
           id="g9257"
           transform="translate(137.3847,287.6866)">
          <path
             d="M 0,0 0,0.384 C -0.094,0.247 -0.217,0.139 -0.369,0.06 c -0.151,-0.078 -0.312,-0.118 -0.48,-0.118 -0.173,0 -0.327,0.038 -0.463,0.114 -0.137,0.075 -0.236,0.181 -0.297,0.318 -0.061,0.136 -0.092,0.325 -0.092,0.567 l 0,1.621 0.678,0 0,-1.177 c 0,-0.361 0.012,-0.581 0.037,-0.663 L -0.849,0.53 c 0.065,-0.048 0.149,-0.071 0.251,-0.071 0.116,0 0.219,0.031 0.311,0.094 L -0.1,0.79 c 0.035,0.094 0.051,0.325 0.051,0.691 l 0,1.081 0.678,0 L 0.629,0 0,0 z"
             style="fill:#dadbdc;fill-opacity:1;fill-rule:nonzero;stroke:none"
             id="path9259" />
        </g>
        <g
           id="g9261"
           transform="translate(138.6656,290.2485)">
          <path
             d="m 0,0 0.624,0 0,-0.35 c 0.224,0.272 0.49,0.408 0.798,0.408 0.164,0 0.307,-0.034 0.427,-0.102 0.121,-0.068 0.22,-0.169 0.297,-0.306 0.113,0.137 0.234,0.238 0.364,0.306 0.13,0.068 0.269,0.102 0.417,0.102 0.188,0 0.348,-0.039 0.477,-0.115 0.131,-0.077 0.229,-0.188 0.293,-0.336 0.046,-0.11 0.07,-0.287 0.07,-0.531 l 0,-1.638 -0.678,0 0,1.464 c 0,0.254 -0.023,0.418 -0.07,0.492 -0.063,0.097 -0.159,0.145 -0.29,0.145 L 2.462,-0.548 C 2.379,-0.606 2.317,-0.69 2.281,-0.803 2.243,-0.914 2.225,-1.091 2.225,-1.331 l 0,-1.231 -0.677,0 0,1.404 c 0,0.249 -0.012,0.41 -0.037,0.483 L 1.4,-0.514 1.193,-0.461 C 1.089,-0.461 0.995,-0.49 0.911,-0.546 0.828,-0.602 0.767,-0.683 0.731,-0.789 0.696,-0.895 0.677,-1.072 0.677,-1.317 l 0,-1.245 L 0,-2.562 0,0 z"
             style="fill:#dadbdc;fill-opacity:1;fill-rule:nonzero;stroke:none"
             id="path9263" />
        </g>
        <g
           id="g9265"
           transform="translate(143.7583,289.0105)">
          <path
             d="m 0,0 c 0,-0.287 0.057,-0.501 0.172,-0.638 0.113,-0.137 0.252,-0.206 0.417,-0.206 0.157,0 0.288,0.064 0.393,0.189 0.104,0.126 0.156,0.333 0.156,0.622 0,0.268 -0.053,0.467 -0.16,0.598 C 0.869,0.695 0.735,0.76 0.577,0.76 0.411,0.76 0.273,0.696 0.164,0.568 0.055,0.44 0,0.251 0,0 m -0.67,1.238 0.631,0 0,-0.377 c 0.083,0.128 0.193,0.233 0.334,0.314 0.139,0.08 0.295,0.121 0.465,0.121 0.297,0 0.55,-0.117 0.758,-0.351 0.207,-0.232 0.311,-0.557 0.311,-0.974 0,-0.428 -0.105,-0.76 -0.314,-0.997 -0.209,-0.237 -0.462,-0.356 -0.76,-0.356 -0.142,0 -0.269,0.028 -0.384,0.085 -0.116,0.056 -0.237,0.152 -0.363,0.289 l 0,-1.29 -0.678,0 0,3.536 z"
             style="fill:#dadbdc;fill-opacity:1;fill-rule:nonzero;stroke:none"
             id="path9267" />
        </g>
        <g
           id="g9269"
           transform="translate(147.6461,289.1873)">
          <path
             d="M 0,0 C -0.004,0.195 -0.055,0.345 -0.151,0.447 -0.248,0.549 -0.366,0.6 -0.504,0.6 -0.652,0.6 -0.774,0.546 -0.87,0.438 -0.967,0.33 -1.014,0.184 -1.012,0 L 0,0 z M -0.039,-0.686 0.637,-0.799 C 0.551,-1.046 0.414,-1.235 0.226,-1.365 0.039,-1.494 -0.196,-1.559 -0.477,-1.559 c -0.446,0 -0.775,0.146 -0.989,0.437 -0.169,0.233 -0.253,0.527 -0.253,0.883 0,0.424 0.111,0.757 0.333,0.997 0.222,0.24 0.502,0.361 0.841,0.361 0.382,0 0.682,-0.126 0.903,-0.378 0.22,-0.251 0.325,-0.637 0.315,-1.157 l -1.698,0 c 0.006,-0.2 0.06,-0.357 0.164,-0.468 0.105,-0.112 0.235,-0.169 0.392,-0.169 0.106,0 0.195,0.03 0.267,0.088 0.072,0.058 0.127,0.15 0.163,0.279"
             style="fill:#dadbdc;fill-opacity:1;fill-rule:nonzero;stroke:none"
             id="path9271" />
        </g>
        <g
           id="g9273"
           transform="translate(149.4127,289.0222)">
          <path
             d="m 0,0 c 0,-0.273 0.038,-0.471 0.112,-0.593 0.11,-0.177 0.263,-0.264 0.459,-0.264 0.156,0 0.289,0.065 0.398,0.198 0.109,0.133 0.164,0.331 0.164,0.595 0,0.293 -0.053,0.506 -0.159,0.635 C 0.868,0.7 0.732,0.765 0.567,0.765 0.405,0.765 0.271,0.701 0.163,0.574 0.054,0.446 0,0.254 0,0 m 1.808,-1.336 -0.629,0 0,0.377 C 1.074,-1.106 0.951,-1.214 0.809,-1.286 0.667,-1.358 0.523,-1.393 0.378,-1.393 c -0.293,0 -0.546,0.119 -0.755,0.355 -0.21,0.237 -0.316,0.569 -0.316,0.993 0,0.434 0.102,0.764 0.307,0.989 0.204,0.227 0.462,0.34 0.774,0.34 0.286,0 0.534,-0.12 0.743,-0.358 l 0,1.274 0.677,0 0,-3.536 z"
             style="fill:#dadbdc;fill-opacity:1;fill-rule:nonzero;stroke:none"
             id="path9275" />
        </g>
        <g
           id="g9277"
           transform="translate(153.9801,290.6237)">
          <path
             d="m 0,0 0,-1.003 0.391,0 c 0.281,0 0.47,0.019 0.564,0.055 l 0.223,0.174 c 0.055,0.079 0.082,0.17 0.082,0.276 0,0.128 -0.039,0.234 -0.114,0.318 C 1.07,-0.096 0.974,-0.045 0.859,-0.024 0.774,-0.007 0.603,0 0.345,0 L 0,0 z m -0.714,-2.937 0,3.535 1.146,0 C 0.866,0.598 1.149,0.581 1.281,0.546 1.484,0.493 1.653,0.377 1.79,0.199 1.926,0.021 1.995,-0.208 1.995,-0.489 c 0,-0.217 -0.04,-0.4 -0.118,-0.548 C 1.798,-1.185 1.698,-1.3 1.577,-1.385 1.455,-1.47 1.331,-1.525 1.206,-1.552 1.036,-1.586 0.789,-1.604 0.466,-1.604 l -0.466,0 0,-1.333 -0.714,0 z"
             style="fill:#dadbdc;fill-opacity:1;fill-rule:nonzero;stroke:none"
             id="path9279" />
        </g>
        <g
           id="g9281"
           transform="translate(158.078,289.1873)">
          <path
             d="M 0,0 C -0.004,0.195 -0.055,0.345 -0.151,0.447 -0.248,0.549 -0.366,0.6 -0.504,0.6 -0.652,0.6 -0.774,0.546 -0.87,0.438 -0.967,0.33 -1.014,0.184 -1.012,0 L 0,0 z M -0.039,-0.686 0.637,-0.799 C 0.551,-1.046 0.414,-1.235 0.226,-1.365 0.039,-1.494 -0.196,-1.559 -0.477,-1.559 c -0.446,0 -0.775,0.146 -0.989,0.437 -0.169,0.233 -0.253,0.527 -0.253,0.883 0,0.424 0.111,0.757 0.333,0.997 0.222,0.24 0.502,0.361 0.841,0.361 0.382,0 0.682,-0.126 0.903,-0.378 0.22,-0.251 0.325,-0.637 0.315,-1.157 l -1.698,0 c 0.006,-0.2 0.06,-0.357 0.164,-0.468 0.105,-0.112 0.235,-0.169 0.392,-0.169 0.106,0 0.195,0.03 0.267,0.088 0.072,0.058 0.127,0.15 0.163,0.279"
             style="fill:#dadbdc;fill-opacity:1;fill-rule:nonzero;stroke:none"
             id="path9283" />
        </g>
        <path
           d="m 159.304,287.687 0.677,0 0,3.535 -0.677,0 0,-3.535 z"
           style="fill:#dadbdc;fill-opacity:1;fill-rule:nonzero;stroke:none"
           id="path9285" />
        <path
           d="m 160.676,287.687 0.677,0 0,3.535 -0.677,0 0,-3.535 z"
           style="fill:#dadbdc;fill-opacity:1;fill-rule:nonzero;stroke:none"
           id="path9287" />
        <g
           id="g9289"
           transform="translate(164.2813,289.49071)">
          <path
             d="m 0,0 -0.668,-0.121 c -0.022,0.134 -0.074,0.235 -0.153,0.302 -0.079,0.068 -0.183,0.101 -0.31,0.101 -0.168,0 -0.303,-0.058 -0.404,-0.175 -0.101,-0.117 -0.15,-0.312 -0.15,-0.584 0,-0.304 0.05,-0.519 0.152,-0.644 0.103,-0.126 0.239,-0.189 0.412,-0.189 0.128,0 0.233,0.037 0.316,0.11 0.081,0.073 0.139,0.199 0.174,0.378 l 0.665,-0.114 c -0.069,-0.305 -0.202,-0.536 -0.398,-0.692 -0.197,-0.156 -0.459,-0.234 -0.788,-0.234 -0.375,0 -0.674,0.118 -0.896,0.355 -0.223,0.236 -0.335,0.563 -0.335,0.981 0,0.423 0.112,0.752 0.336,0.988 0.223,0.236 0.525,0.354 0.906,0.354 0.312,0 0.56,-0.068 0.744,-0.202 C -0.212,0.479 -0.08,0.276 0,0"
             style="fill:#dadbdc;fill-opacity:1;fill-rule:nonzero;stroke:none"
             id="path9291" />
        </g>
        <g
           id="g9293"
           transform="translate(166.2086,288.91721)">
          <path
             d="M 0,0 C -0.087,-0.03 -0.224,-0.064 -0.413,-0.104 -0.6,-0.145 -0.724,-0.184 -0.782,-0.223 l -0.132,-0.238 0.107,-0.246 c 0.07,-0.069 0.16,-0.103 0.27,-0.103 0.121,0 0.238,0.039 0.349,0.12 l 0.161,0.224 C -0.009,-0.408 0,-0.298 0,-0.135 L 0,0 z M -0.907,0.549 -1.521,0.66 c 0.068,0.248 0.187,0.431 0.356,0.55 0.169,0.119 0.42,0.179 0.752,0.179 0.303,0 0.528,-0.036 0.676,-0.108 C 0.411,1.21 0.516,1.119 0.576,1.009 0.636,0.898 0.666,0.697 0.666,0.402 L 0.659,-0.389 c 0,-0.225 0.011,-0.391 0.032,-0.498 0.022,-0.107 0.063,-0.221 0.123,-0.344 l -0.671,0 -0.066,0.201 -0.023,0.079 c -0.116,-0.112 -0.241,-0.197 -0.372,-0.253 -0.132,-0.057 -0.273,-0.084 -0.423,-0.084 -0.263,0 -0.47,0.071 -0.623,0.214 -0.152,0.144 -0.228,0.324 -0.228,0.542 0,0.146 0.034,0.275 0.104,0.388 0.069,0.113 0.166,0.2 0.291,0.261 0.124,0.06 0.304,0.112 0.539,0.157 C -0.342,0.333 -0.122,0.389 0,0.441 L 0,0.508 C 0,0.639 -0.032,0.731 -0.096,0.787 -0.161,0.843 -0.282,0.87 -0.46,0.87 -0.581,0.87 -0.675,0.847 -0.743,0.799 -0.81,0.751 -0.865,0.668 -0.907,0.549"
             style="fill:#dadbdc;fill-opacity:1;fill-rule:nonzero;stroke:none"
             id="path9295" />
        </g>
        <g
           id="g9297"
           transform="translate(169.8723,287.6866)">
          <path
             d="m 0,0 -0.677,0 0,1.308 c 0,0.275 -0.015,0.454 -0.043,0.536 l -0.142,0.19 -0.236,0.067 C -1.214,2.101 -1.319,2.069 -1.413,2.005 -1.506,1.94 -1.57,1.854 -1.605,1.748 -1.639,1.642 -1.657,1.446 -1.657,1.16 l 0,-1.16 -0.678,0 0,2.562 0.631,0 0,-0.377 C -1.481,2.474 -1.2,2.62 -0.861,2.62 -0.712,2.62 -0.574,2.592 -0.45,2.538 -0.327,2.485 -0.234,2.416 -0.169,2.332 -0.106,2.249 -0.062,2.153 -0.037,2.047 -0.012,1.941 0,1.79 0,1.592 L 0,0 z"
             style="fill:#dadbdc;fill-opacity:1;fill-rule:nonzero;stroke:none"
             id="path9299" />
        </g>
        <g
           id="g9301"
           transform="translate(142.9093,284.0475)">
          <path
             d="M 0,0 0.692,-0.22 C 0.585,-0.606 0.409,-0.892 0.163,-1.079 -0.085,-1.267 -0.398,-1.36 -0.777,-1.36 c -0.47,0 -0.856,0.159 -1.158,0.481 -0.302,0.321 -0.453,0.759 -0.453,1.315 0,0.589 0.152,1.045 0.456,1.371 0.304,0.326 0.704,0.489 1.199,0.489 0.432,0 0.783,-0.128 1.053,-0.384 C 0.481,1.761 0.601,1.543 0.682,1.262 L -0.025,1.092 C -0.067,1.276 -0.153,1.42 -0.286,1.526 -0.419,1.633 -0.58,1.686 -0.77,1.686 -1.032,1.686 -1.245,1.592 -1.407,1.403 -1.57,1.216 -1.653,0.91 -1.653,0.49 c 0,-0.448 0.081,-0.767 0.242,-0.956 0.16,-0.19 0.369,-0.284 0.626,-0.284 0.19,0 0.354,0.06 0.49,0.181 C -0.158,-0.449 -0.06,-0.259 0,0"
             style="fill:#dadbdc;fill-opacity:1;fill-rule:nonzero;stroke:none"
             id="path9303" />
        </g>
        <g
           id="g9305"
           transform="translate(144.85809,282.74719)">
          <path
             d="m 0,0 -0.677,0 0,2.562 0.629,0 0,-0.365 C 0.059,2.369 0.157,2.483 0.242,2.537 0.328,2.592 0.426,2.62 0.536,2.62 0.69,2.62 0.838,2.577 0.982,2.491 L 0.772,1.901 C 0.657,1.975 0.551,2.011 0.453,2.011 L 0.212,1.933 C 0.146,1.881 0.094,1.786 0.057,1.65 0.019,1.513 0,1.226 0,0.791 L 0,0 z"
             style="fill:#dadbdc;fill-opacity:1;fill-rule:nonzero;stroke:none"
             id="path9307" />
        </g>
        <g
           id="g9309"
           transform="translate(146.66859,284.02811)">
          <path
             d="m 0,0 c 0,-0.254 0.061,-0.449 0.181,-0.584 0.121,-0.135 0.269,-0.203 0.447,-0.203 0.176,0 0.325,0.068 0.445,0.203 0.119,0.135 0.179,0.331 0.179,0.588 0,0.251 -0.06,0.444 -0.179,0.579 C 0.953,0.718 0.804,0.786 0.628,0.786 0.45,0.786 0.302,0.718 0.181,0.583 0.061,0.448 0,0.254 0,0 m -0.695,0.035 c 0,0.225 0.056,0.444 0.168,0.654 0.11,0.211 0.268,0.372 0.471,0.483 0.203,0.111 0.43,0.167 0.681,0.167 C 1.013,1.339 1.33,1.212 1.578,0.96 1.825,0.71 1.949,0.391 1.949,0.008 1.949,-0.381 1.824,-0.702 1.575,-0.956 1.324,-1.211 1.01,-1.339 0.63,-1.339 c -0.235,0 -0.459,0.054 -0.672,0.159 -0.213,0.107 -0.375,0.262 -0.485,0.467 -0.112,0.205 -0.168,0.455 -0.168,0.748"
             style="fill:#dadbdc;fill-opacity:1;fill-rule:nonzero;stroke:none"
             id="path9311" />
        </g>
        <g
           id="g9313"
           transform="translate(148.9099,283.4782)">
          <path
             d="m 0,0 0.68,0.103 c 0.03,-0.132 0.087,-0.231 0.177,-0.3 0.087,-0.068 0.212,-0.102 0.37,-0.102 0.176,0 0.308,0.032 0.396,0.097 l 0.09,0.181 -0.049,0.127 C 1.63,0.138 1.554,0.167 1.437,0.195 0.891,0.315 0.545,0.426 0.398,0.525 0.195,0.664 0.094,0.855 0.094,1.102 c 0,0.222 0.087,0.408 0.263,0.56 0.175,0.151 0.447,0.227 0.816,0.227 0.349,0 0.61,-0.058 0.78,-0.172 C 2.124,1.603 2.241,1.434 2.306,1.21 L 1.667,1.092 C 1.639,1.192 1.588,1.268 1.511,1.322 1.434,1.374 1.326,1.401 1.184,1.401 1.005,1.401 0.878,1.376 0.801,1.326 L 0.724,1.189 0.791,1.066 C 0.852,1.021 1.063,0.957 1.425,0.875 1.785,0.793 2.037,0.693 2.18,0.574 2.322,0.453 2.393,0.285 2.393,0.07 2.393,-0.165 2.294,-0.366 2.099,-0.536 1.902,-0.704 1.612,-0.789 1.227,-0.789 0.879,-0.789 0.602,-0.718 0.399,-0.577 0.196,-0.435 0.062,-0.243 0,0"
             style="fill:#dadbdc;fill-opacity:1;fill-rule:nonzero;stroke:none"
             id="path9315" />
        </g>
        <g
           id="g9317"
           transform="translate(151.6572,283.4782)">
          <path
             d="m 0,0 0.68,0.103 c 0.03,-0.132 0.088,-0.231 0.177,-0.3 0.087,-0.068 0.212,-0.102 0.37,-0.102 0.176,0 0.308,0.032 0.396,0.097 l 0.09,0.181 -0.049,0.127 C 1.63,0.138 1.554,0.167 1.437,0.195 0.891,0.315 0.545,0.426 0.398,0.525 0.195,0.664 0.094,0.855 0.094,1.102 c 0,0.222 0.087,0.408 0.263,0.56 0.175,0.151 0.447,0.227 0.816,0.227 0.349,0 0.61,-0.058 0.78,-0.172 C 2.124,1.603 2.241,1.434 2.306,1.21 L 1.667,1.092 C 1.639,1.192 1.588,1.268 1.511,1.322 1.434,1.374 1.326,1.401 1.184,1.401 1.005,1.401 0.878,1.376 0.801,1.326 L 0.724,1.189 0.791,1.066 C 0.852,1.021 1.063,0.957 1.425,0.875 1.785,0.793 2.037,0.693 2.18,0.574 2.322,0.453 2.393,0.285 2.393,0.07 2.393,-0.165 2.294,-0.366 2.099,-0.536 1.902,-0.704 1.612,-0.789 1.227,-0.789 0.879,-0.789 0.602,-0.718 0.399,-0.577 0.196,-0.435 0.062,-0.243 0,0"
             style="fill:#dadbdc;fill-opacity:1;fill-rule:nonzero;stroke:none"
             id="path9319" />
        </g>
        <g
           id="g9321"
           transform="translate(154.644,285.30901)">
          <path
             d="m 0,0 0.677,0 0,-2.562 L 0,-2.562 0,0 z m 0,0.973 0.677,0 0,-0.626 -0.677,0 0,0.626 z"
             style="fill:#dadbdc;fill-opacity:1;fill-rule:nonzero;stroke:none"
             id="path9323" />
        </g>
        <g
           id="g9325"
           transform="translate(158.345,282.74719)">
          <path
             d="m 0,0 -0.677,0 0,1.308 c 0,0.275 -0.015,0.454 -0.043,0.536 l -0.142,0.19 -0.236,0.067 C -1.215,2.101 -1.32,2.069 -1.413,2.005 -1.506,1.94 -1.57,1.854 -1.605,1.748 -1.639,1.642 -1.657,1.446 -1.657,1.16 l 0,-1.16 -0.678,0 0,2.562 0.631,0 0,-0.377 c 0.223,0.289 0.503,0.435 0.843,0.435 0.149,0 0.286,-0.028 0.411,-0.082 C -0.327,2.485 -0.234,2.416 -0.169,2.333 -0.106,2.249 -0.062,2.154 -0.038,2.047 -0.012,1.941 0,1.79 0,1.592 L 0,0 z"
             style="fill:#dadbdc;fill-opacity:1;fill-rule:nonzero;stroke:none"
             id="path9327" />
        </g>
        <g
           id="g9329"
           transform="translate(159.5755,284.0807)">
          <path
             d="m 0,0 c 0,-0.271 0.052,-0.471 0.158,-0.597 0.106,-0.125 0.235,-0.189 0.39,-0.189 0.165,0 0.305,0.065 0.419,0.194 0.115,0.13 0.171,0.321 0.171,0.575 0,0.266 -0.054,0.463 -0.164,0.592 C 0.865,0.703 0.727,0.767 0.559,0.767 0.397,0.767 0.264,0.704 0.158,0.578 0.052,0.451 0,0.259 0,0 m -0.606,-1.503 0.774,-0.093 0.09,-0.186 c 0.065,-0.049 0.165,-0.072 0.304,-0.072 0.176,0 0.309,0.026 0.397,0.079 l 0.135,0.171 c 0.022,0.057 0.033,0.16 0.033,0.311 l 0,0.374 C 0.924,-1.195 0.668,-1.334 0.359,-1.334 c -0.344,0 -0.616,0.146 -0.817,0.437 -0.158,0.23 -0.237,0.516 -0.237,0.858 0,0.43 0.103,0.758 0.31,0.984 0.207,0.228 0.463,0.341 0.771,0.341 0.316,0 0.578,-0.139 0.783,-0.418 l 0,0.36 0.635,0 0,-2.299 C 1.804,-1.373 1.779,-1.599 1.729,-1.748 1.68,-1.897 1.609,-2.015 1.519,-2.101 1.429,-2.186 1.309,-2.252 1.159,-2.3 1.009,-2.349 0.818,-2.373 0.588,-2.373 c -0.434,0 -0.741,0.075 -0.924,0.223 -0.181,0.149 -0.272,0.337 -0.272,0.566 l 0.002,0.081 z"
             style="fill:#dadbdc;fill-opacity:1;fill-rule:nonzero;stroke:none"
             id="path9331" />
        </g>
      </g>
    </g>
  </g>
</svg>
