<?xml version="1.0" encoding="UTF-8" standalone="no"?>
<!-- Created with Inkscape (http://www.inkscape.org/) -->

<svg
   xmlns:dc="http://purl.org/dc/elements/1.1/"
   xmlns:cc="http://creativecommons.org/ns#"
   xmlns:rdf="http://www.w3.org/1999/02/22-rdf-syntax-ns#"
   xmlns:svg="http://www.w3.org/2000/svg"
   xmlns="http://www.w3.org/2000/svg"
   xmlns:sodipodi="http://sodipodi.sourceforge.net/DTD/sodipodi-0.dtd"
   xmlns:inkscape="http://www.inkscape.org/namespaces/inkscape"
   width="599.99878"
   height="599.99878"
   id="svg6419"
   version="1.1"
   inkscape:version="0.47 r22583"
   sodipodi:docname="Nuovo documento 11">
  <defs
     id="defs6421">
    <inkscape:perspective
       sodipodi:type="inkscape:persp3d"
       inkscape:vp_x="0 : 526.18109 : 1"
       inkscape:vp_y="0 : 1000 : 0"
       inkscape:vp_z="744.09448 : 526.18109 : 1"
       inkscape:persp3d-origin="372.04724 : 350.78739 : 1"
       id="perspective6427" />
    <inkscape:perspective
       id="perspective6455"
       inkscape:persp3d-origin="300 : 200 : 1"
       inkscape:vp_z="600 : 300 : 1"
       inkscape:vp_y="0 : 1000 : 0"
       inkscape:vp_x="0 : 300 : 1"
       sodipodi:type="inkscape:persp3d" />
    <clipPath
       id="clipPath20">
      <path
         d="m 0.014999,205.28 205.270001,0 0,-205.28 -205.270001,0 0,205.28 z"
         id="path9" />
    </clipPath>
    <inkscape:perspective
       id="perspective6487"
       inkscape:persp3d-origin="0.5 : 0.33333333 : 1"
       inkscape:vp_z="1 : 0.5 : 1"
       inkscape:vp_y="0 : 1000 : 0"
       inkscape:vp_x="0 : 0.5 : 1"
       sodipodi:type="inkscape:persp3d" />
    <clipPath
       clipPathUnits="userSpaceOnUse"
       id="clipPath5883">
      <path
         d="m 233.519,209.338 34.845,0 0,34.016 -34.845,0 0,-34.016 z"
         id="path5885" />
    </clipPath>
  </defs>
  <sodipodi:namedview
     id="base"
     pagecolor="#ffffff"
     bordercolor="#666666"
     borderopacity="1.0"
     inkscape:pageopacity="0.0"
     inkscape:pageshadow="2"
     inkscape:zoom="0.41767578"
     inkscape:cx="561.27483"
     inkscape:cy="169.97367"
     inkscape:document-units="px"
     inkscape:current-layer="layer1"
     showgrid="false"
     inkscape:window-width="1600"
     inkscape:window-height="838"
     inkscape:window-x="-8"
     inkscape:window-y="-8"
     inkscape:window-maximized="1" />
  <metadata
     id="metadata6424">
    <rdf:RDF>
      <cc:Work
         rdf:about="">
        <dc:format>image/svg+xml</dc:format>
        <dc:type
           rdf:resource="http://purl.org/dc/dcmitype/StillImage" />
        <dc:title></dc:title>
      </cc:Work>
    </rdf:RDF>
  </metadata>
  <g
     inkscape:label="Livello 1"
     inkscape:groupmode="layer"
     id="layer1"
     transform="translate(186.27483,-102.33706)">
    <g
       transform="matrix(2.92279,0,0,-2.92279,113.72557,103.79732)"
       id="g13">
      <path
         d="m 0,0 c 56.41,0 102.14,-45.731 102.14,-102.14 0,-56.41 -45.731,-102.14 -102.14,-102.14 -56.411,0 -102.14,45.731 -102.14,102.14 C -102.14,-45.731 -56.411,0 0,0"
         style="fill:#ffffff;fill-rule:nonzero"
         id="path15" />
    </g>
    <g
       transform="matrix(2.92279,0,0,-2.92279,-186.27542,702.33591)"
       id="g17">
      <g
         clip-path="url(#clipPath20)"
         id="g19">
        <g
           transform="translate(102.642,204.783)"
           id="g21">
          <path
             d="m 0,0 c 56.41,0 102.14,-45.731 102.14,-102.14 0,-56.41 -45.731,-102.14 -102.14,-102.14 -56.411,0 -102.14,45.731 -102.14,102.14 C -102.14,-45.731 -56.411,0 0,0 z"
             style="fill:none;stroke:#1477c6;stroke-width:1;stroke-linecap:butt;stroke-linejoin:miter;stroke-miterlimit:4;stroke-dasharray:none"
             id="path23" />
        </g>
      </g>
    </g>
    <g
       transform="matrix(2.92279,0,0,-2.92279,113.72557,103.79732)"
       id="g37">
      <path
         d="m 0,0 c 56.41,0 102.14,-45.731 102.14,-102.14 0,-56.41 -45.731,-102.14 -102.14,-102.14 -56.411,0 -102.14,45.731 -102.14,102.14 C -102.14,-45.731 -56.411,0 0,0"
         style="fill:#ffffff;fill-rule:nonzero"
         id="path39" />
    </g>
    <path
       d="m 113.72457,103.79846 c 164.875,0 298.538,133.663 298.538,298.538 0,164.875 -133.663,298.538 -298.538,298.538 -164.874997,0 -298.538,-133.663 -298.538,-298.538 0,-164.875 133.663003,-298.538 298.538,-298.538 z"
       style="fill:none;stroke:#0079c1;stroke-width:2.92279005;stroke-linecap:butt;stroke-linejoin:miter;stroke-miterlimit:4;stroke-opacity:1;stroke-dasharray:none"
       id="path41" />
    <path
       d="m 113.72457,116.09851 c 158.087,0 286.237,128.15 286.237,286.237 0,158.087 -128.15,286.237 -286.237,286.237 -158.086997,0 -286.238,-128.15 -286.238,-286.237 0,-158.087 128.150003,-286.237 286.238,-286.237"
       style="fill:#0079c1;fill-opacity:1;fill-rule:nonzero"
       id="path43" />
    <g
       id="g7071"
       transform="translate(-821.99953,45.884031)">
      <g
         transform="matrix(16.787549,0,0,-16.787549,911.93406,580.63847)"
         id="g5891">
        <path
           id="path5893"
           style="fill:#000000;fill-opacity:1;fill-rule:evenodd;stroke:none"
           d="m 0,0 c -0.42,-0.595 -1.721,-0.216 -2.309,-0.054 -0.175,0.028 -0.372,0.135 -0.492,0.263 -0.378,0.088 -0.805,0.25 -1.143,0.419 -0.302,-0.007 -0.606,0.183 -0.741,0.426 -1.351,0.918 -2.365,2.443 -2.999,3.909 -0.655,0.068 -1.019,0.945 -0.533,1.431 -0.614,1.932 -0.912,4.065 -0.967,6.098 -0.472,0.338 -0.472,1.04 0,1.378 0.055,2.032 0.353,4.165 0.967,6.097 -0.486,0.486 -0.128,1.364 0.533,1.431 0.648,1.5 1.634,2.978 2.999,3.91 0.135,0.257 0.439,0.433 0.741,0.433 0.331,0.161 0.783,0.33 1.143,0.412 0.114,0.128 0.317,0.236 0.492,0.27 0.588,0.161 1.885,0.526 2.309,-0.054 0.352,0.614 1.696,0.426 2.283,0.324 l 0,0.006 c 0.276,-0.02 0.513,-0.168 0.655,-0.377 0.331,0.371 0.958,0.404 1.297,-0.015 l 0.384,0.007 c 3.91,0 7.11,-5.874 7.09,-13.133 C 11.695,5.929 8.529,0.055 4.619,0.055 l -0.384,0 C 3.916,-0.337 3.25,-0.345 2.938,0.047 2.593,-0.479 1.345,-0.432 0.784,-0.419 0.447,-0.432 0.156,-0.276 0,0" />
      </g>
      <g
         transform="matrix(16.787549,0,0,-16.787549,826.3597,258.47718)"
         id="g5895">
        <path
           id="path5897"
           style="fill:#ffffff;fill-opacity:1;fill-rule:evenodd;stroke:none"
           d="m 0,0 c -0.35,0.244 -0.785,0.466 -1.194,0.601 -0.353,0.19 -0.069,0.723 0.275,0.54 C -0.635,1.067 0.628,0.574 0.412,0.135 0.33,-0.013 0.148,-0.074 0,0" />
      </g>
      <g
         transform="matrix(16.787549,0,0,-16.787549,877.92232,217.77392)"
         id="g5899">
        <path
           id="path5901"
           style="fill:#ffffff;fill-opacity:1;fill-rule:evenodd;stroke:none"
           d="M 0,0 C -0.464,0.033 -0.871,0 -1.336,-0.075 -1.74,-0.088 -1.754,0.519 -1.363,0.533 -1.072,0.608 0.278,0.811 0.292,0.317 0.298,0.149 0.17,0.006 0,0" />
      </g>
      <g
         transform="matrix(16.787549,0,0,-16.787549,829.86142,222.19089)"
         id="g5903">
        <path
           id="path5905"
           style="fill:#ffffff;fill-opacity:1;fill-rule:evenodd;stroke:none"
           d="M 0,0 C -0.499,-0.081 -0.816,-0.183 -1.295,-0.339 -1.687,-0.433 -1.816,0.155 -1.437,0.25 -1.181,0.384 0.109,0.843 0.225,0.364 0.265,0.202 0.162,0.04 0,0" />
      </g>
      <g
         transform="matrix(16.787549,0,0,-16.787549,923.71909,311.64167)"
         id="g5907">
        <path
           id="path5909"
           style="fill:#ffffff;fill-opacity:1;fill-rule:evenodd;stroke:none"
           d="M 0,0 C -0.493,0.083 -0.83,0.083 -1.329,0.083 -1.722,0.095 -1.7,0.71 -1.289,0.682 -1.004,0.722 0.359,0.777 0.325,0.284 0.311,0.115 0.17,-0.006 0,0" />
      </g>
      <g
         transform="matrix(16.787549,0,0,-16.787549,942.88191,237.37842)"
         id="g5911">
        <path
           id="path5913"
           style="fill:#ffffff;fill-opacity:1;fill-rule:evenodd;stroke:none"
           d="M 0,0 C -0.344,0.304 -0.68,0.553 -1.088,0.769 -1.41,0.993 -1.047,1.492 -0.735,1.262 -0.466,1.134 0.71,0.472 0.425,0.067 0.325,-0.069 0.135,-0.103 0,0" />
      </g>
      <g
         transform="matrix(16.787549,0,0,-16.787549,977.68065,148.06363)"
         id="g5915">
        <path
           id="path5917"
           style="fill:#ffffff;fill-opacity:1;fill-rule:evenodd;stroke:none"
           d="M 0,0 C 0,-0.432 -0.667,-0.452 -0.667,0 -0.667,0.453 0,0.425 0,0" />
      </g>
      <g
         transform="matrix(16.787549,0,0,-16.787549,947.76054,151.45807)"
         id="g5919">
        <path
           id="path5921"
           style="fill:#ffffff;fill-opacity:1;fill-rule:evenodd;stroke:none"
           d="M 0,0 C -0.452,0.074 -0.864,0.095 -1.33,0.061 -1.715,0.074 -1.695,0.682 -1.296,0.668 -1.011,0.709 0.353,0.783 0.318,0.284 0.312,0.122 0.169,-0.007 0,0" />
      </g>
      <g
         transform="matrix(16.787549,0,0,-16.787549,914.31622,206.00904)"
         id="g5923">
        <path
           id="path5925"
           style="fill:#ffffff;fill-opacity:1;fill-rule:evenodd;stroke:none"
           d="M 0,0 C 0.716,1.149 1.689,2.182 2.891,2.81 3.108,2.628 3.396,2.56 3.674,2.641 3.707,2.324 4.03,1.96 4.167,1.696 4.241,1.561 4.322,1.399 4.389,1.251 3.634,0.858 2.938,0.102 2.351,-0.924 1.85,-0.498 0.763,0.46 0.129,-0.202 L 0,0 z" />
      </g>
      <g
         transform="matrix(16.787549,0,0,-16.787549,902.41385,228.6724)"
         id="g5927">
        <path
           id="path5929"
           style="fill:#ffffff;fill-opacity:1;fill-rule:evenodd;stroke:none"
           d="M 0,0 C 0.257,-0.019 0.466,0.062 0.647,0.237 0.791,-0.141 1.269,-0.329 1.574,-0.547 1.815,-0.722 2.053,-0.993 2.344,-1.12 2.018,-1.997 1.77,-2.923 1.608,-3.841 1.026,-3.714 -0.445,-3.491 -0.83,-4.065 l -0.304,0.217 C -0.884,-2.43 -0.505,-1.127 0,0" />
      </g>
      <g
         transform="matrix(16.787549,0,0,-16.787549,802.78981,209.04943)"
         id="g5931">
        <path
           id="path5933"
           style="fill:#ffffff;fill-opacity:1;fill-rule:evenodd;stroke:none"
           d="M 0,0 C 0.525,0.932 1.154,1.695 1.863,2.276 2.146,1.877 2.654,1.891 3.084,1.796 3.227,1.762 3.39,1.715 3.551,1.736 L 3.752,1.438 C 4.05,1.188 4.382,0.905 4.632,0.614 4.139,0.695 3.49,0.621 2.996,0.554 2.666,0.54 2.389,0.352 2.268,0.068 1.802,0.614 0.58,0.189 0,0" />
      </g>
      <g
         transform="matrix(16.787549,0,0,-16.787549,883.96114,163.47795)"
         id="g5935">
        <path
           id="path5937"
           style="fill:#ffffff;fill-opacity:1;fill-rule:evenodd;stroke:none"
           d="M 0,0 C 0.547,0.169 1.411,0.04 1.726,0.587 2.059,0.128 2.625,0.264 3.105,0.243 3.288,0.236 3.545,0.202 3.726,0.183 2.815,-0.432 2.059,-1.324 1.478,-2.255 l -0.19,0.054 c 0.501,0.77 -0.654,1.707 -1.194,2.127 L 0,0 z" />
      </g>
      <g
         transform="matrix(16.787549,0,0,-16.787549,908.88696,214.60779)"
         id="g5939">
        <path
           id="path5941"
           style="fill:#ffffff;fill-opacity:1;fill-rule:evenodd;stroke:none"
           d="m 0,0 c 0,-0.182 -0.149,-0.331 -0.336,-0.331 -0.183,0 -0.34,0.149 -0.34,0.331 0,0.189 0.157,0.338 0.34,0.338 C -0.149,0.338 0,0.189 0,0" />
      </g>
      <g
         transform="matrix(16.787549,0,0,-16.787549,889.41038,195.10066)"
         id="g5943">
        <path
           id="path5945"
           style="fill:#ffffff;fill-opacity:1;fill-rule:evenodd;stroke:none"
           d="M 0,0 C -0.136,0.155 -0.305,0.351 -0.454,0.499 -0.602,0.635 -1.304,1.019 -0.975,1.35 -0.622,1.702 0.254,0.668 0.416,0.432 0.707,0.161 0.275,-0.277 0,0" />
      </g>
      <g
         transform="matrix(16.787549,0,0,-16.787549,858.22902,170.27355)"
         id="g5947">
        <path
           id="path5949"
           style="fill:#ffffff;fill-opacity:1;fill-rule:evenodd;stroke:none"
           d="M 0,0 C -0.197,0.047 -1.075,0.027 -0.96,0.492 -0.872,0.871 -0.15,0.655 0.067,0.613 0.538,0.492 0.398,-0.095 0,0" />
      </g>
      <g
         transform="matrix(16.787549,0,0,-16.787549,900.16952,151.68285)"
         id="g5951">
        <path
           id="path5953"
           style="fill:#ffffff;fill-opacity:1;fill-rule:evenodd;stroke:none"
           d="m 0,0 c -0.507,-0.035 -0.825,-0.129 -1.317,-0.25 -0.407,-0.06 -0.488,0.526 -0.108,0.6 0.297,0.116 1.573,0.487 1.668,0 C 0.268,0.189 0.159,0.034 0,0" />
      </g>
      <g
         transform="matrix(16.787549,0,0,-16.787549,997.19819,183.31731)"
         id="g5955">
        <path
           id="path5957"
           style="fill:#ffffff;fill-opacity:1;fill-rule:evenodd;stroke:none"
           d="m 0,0 c -0.149,0.452 -0.42,0.783 -0.648,1.168 -0.196,0.358 0.35,0.643 0.526,0.29 C 0.176,1.141 0.357,0.688 0.532,0.297 0.722,-0.047 0.187,-0.351 0,0" />
      </g>
      <g
         transform="matrix(16.787549,0,0,-16.787549,789.96396,235.55865)"
         id="g5959">
        <path
           id="path5961"
           style="fill:#ffffff;fill-opacity:1;fill-rule:evenodd;stroke:none"
           d="M 0,0 C 0,-0.461 -0.675,-0.426 -0.675,-0.001 -0.675,0.424 0,0.452 0,0" />
      </g>
      <g
         transform="matrix(16.787549,0,0,-16.787549,852.87715,315.16538)"
         id="g5963">
        <path
           id="path5965"
           style="fill:#ffffff;fill-opacity:1;fill-rule:evenodd;stroke:none"
           d="m 0,0 c -0.459,-0.074 -0.857,-0.209 -1.282,-0.398 -0.393,-0.114 -0.54,0.473 -0.176,0.581 0.257,0.149 1.52,0.661 1.655,0.196 C 0.244,0.216 0.156,0.048 -0.007,0 L 0,0 z" />
      </g>
      <g
         transform="matrix(16.787549,0,0,-16.787549,807.09733,333.0557)"
         id="g5967">
        <path
           id="path5969"
           style="fill:#ffffff;fill-opacity:1;fill-rule:evenodd;stroke:none"
           d="M 0,0 C -0.441,-0.237 -0.744,-0.413 -1.128,-0.724 -1.466,-0.932 -1.783,-0.413 -1.445,-0.203 -1.229,0 -0.156,0.837 0.101,0.418 0.189,0.27 0.148,0.087 0,0" />
      </g>
      <g
         transform="matrix(16.787549,0,0,-16.787549,883.15332,306.20234)"
         id="g5971">
        <path
           id="path5973"
           style="fill:#ffffff;fill-opacity:1;fill-rule:evenodd;stroke:none"
           d="M 0,0 C 0,-0.438 -0.667,-0.425 -0.667,0 -0.667,0.425 0,0.453 0,0" />
      </g>
      <g
         transform="matrix(16.787549,0,0,-16.787549,844.14258,255.3092)"
         id="g5975">
        <path
           id="path5977"
           style="fill:#ffffff;fill-opacity:1;fill-rule:evenodd;stroke:none"
           d="m 0,0 c 0.015,0.656 -0.857,1.068 -1.384,1.31 0.5,0.123 1.061,0.068 1.317,0.616 C 0.319,1.458 0.851,1.676 1.365,1.695 1.877,1.716 2.419,1.56 2.769,2.04 2.83,1.905 2.939,1.796 3.059,1.716 2.627,0.716 2.297,-0.357 2.074,-1.423 1.648,-0.911 0.778,0.345 0,0" />
      </g>
      <g
         transform="matrix(16.787549,0,0,-16.787549,862.39904,289.18664)"
         id="g5979">
        <path
           id="path5981"
           style="fill:#ffffff;fill-opacity:1;fill-rule:evenodd;stroke:none"
           d="m 0,0 c -0.276,0.391 -0.587,0.647 -0.932,0.959 -0.27,0.283 0.163,0.709 0.44,0.417 C -0.244,1.208 0.79,0.331 0.432,-0.008 0.311,-0.122 0.122,-0.122 0,0" />
      </g>
      <g
         transform="matrix(16.787549,0,0,-16.787549,771.03784,335.89951)"
         id="g5983">
        <path
           id="path5985"
           style="fill:#ffffff;fill-opacity:1;fill-rule:evenodd;stroke:none"
           d="M 0,0 C 0.087,1.701 0.352,3.504 0.858,5.132 1.073,5.153 1.181,5.232 1.343,5.328 1.466,4.787 2.046,4.68 2.466,4.47 2.89,4.254 3.295,3.842 3.823,4.051 3.807,3.511 4.295,3.241 4.612,2.917 4.794,2.722 4.964,2.532 5.105,2.357 4.612,2.485 3.633,2.087 3.173,1.917 2.836,1.816 2.571,1.485 2.571,1.134 1.95,1.614 0.837,0.77 0.338,0.378 0.176,0.284 0.067,0.156 0,0" />
      </g>
      <g
         transform="matrix(16.787549,0,0,-16.787549,826.3597,460.26)"
         id="g5987">
        <path
           id="path5989"
           style="fill:#ffffff;fill-opacity:1;fill-rule:evenodd;stroke:none"
           d="m 0,0 c 0.37,0.183 0.635,-0.364 0.277,-0.54 -0.237,-0.168 -1.377,-0.911 -1.6,-0.465 -0.209,0.424 0.56,0.573 0.749,0.66 L 0,0 z" />
      </g>
      <g
         transform="matrix(16.787549,0,0,-16.787549,877.92232,500.95285)"
         id="g5991">
        <path
           id="path5993"
           style="fill:#ffffff;fill-opacity:1;fill-rule:evenodd;stroke:none"
           d="m 0,0 c 0.407,-0.013 0.364,-0.621 -0.026,-0.608 -0.285,0 -1.642,-0.129 -1.628,0.392 0.013,0.48 0.75,0.216 0.987,0.21 L 0,0 z" />
      </g>
      <g
         transform="matrix(16.787549,0,0,-16.787549,829.86142,496.40862)"
         id="g5995">
        <path
           id="path5997"
           style="fill:#ffffff;fill-opacity:1;fill-rule:evenodd;stroke:none"
           d="m 0,0 c 0.393,-0.094 0.245,-0.682 -0.15,-0.588 -0.274,0.021 -1.625,0.216 -1.509,0.695 0.105,0.467 0.774,0.068 0.997,0.014 L 0,0 z" />
      </g>
      <g
         transform="matrix(16.787549,0,0,-16.787549,923.71909,407.08359)"
         id="g5999">
        <path
           id="path6001"
           style="fill:#ffffff;fill-opacity:1;fill-rule:evenodd;stroke:none"
           d="m 0,0 c 0.412,0.026 0.425,-0.581 0.042,-0.608 -0.305,-0.047 -1.622,-0.297 -1.656,0.21 -0.033,0.479 0.75,0.303 0.952,0.311 L 0,0 z" />
      </g>
      <g
         transform="matrix(16.787549,0,0,-16.787549,942.88191,481.22261)"
         id="g6003">
        <path
           id="path6005"
           style="fill:#ffffff;fill-opacity:1;fill-rule:evenodd;stroke:none"
           d="m 0,0 c 0.337,0.236 0.676,-0.277 0.351,-0.493 -0.202,-0.203 -1.215,-1.1 -1.505,-0.702 -0.283,0.378 0.474,0.655 0.635,0.77 L 0,0 z" />
      </g>
      <g
         transform="matrix(16.787549,0,0,-16.787549,977.68065,570.65492)"
         id="g6007">
        <path
           id="path6009"
           style="fill:#ffffff;fill-opacity:1;fill-rule:evenodd;stroke:none"
           d="M 0,0 C 0,-0.426 -0.667,-0.453 -0.667,0 -0.667,0.452 0,0.432 0,0" />
      </g>
      <g
         transform="matrix(16.787549,0,0,-16.787549,947.76054,567.26064)"
         id="g6011">
        <path
           id="path6013"
           style="fill:#ffffff;fill-opacity:1;fill-rule:evenodd;stroke:none"
           d="m 0,0 c 0.4,0.027 0.42,-0.581 0.034,-0.608 l 0,0.007 c -0.289,-0.048 -1.635,-0.284 -1.649,0.223 -0.012,0.472 0.738,0.289 0.946,0.304 L 0,0 z" />
      </g>
      <g
         transform="matrix(16.787549,0,0,-16.787549,914.31622,512.61851)"
         id="g6015">
        <path
           id="path6017"
           style="fill:#ffffff;fill-opacity:1;fill-rule:evenodd;stroke:none"
           d="M 0,0 0.129,0.196 C 0.763,-0.466 1.857,0.493 2.351,0.918 2.816,0.095 3.525,-0.804 4.389,-1.25 4.213,-1.621 4.004,-2.013 3.775,-2.343 L 3.674,-2.64 C 3.396,-2.566 3.108,-2.634 2.891,-2.81 1.75,-2.222 0.783,-1.263 0,0" />
      </g>
      <g
         transform="matrix(16.787549,0,0,-16.787549,902.41385,489.94559)"
         id="g6019">
        <path
           id="path6021"
           style="fill:#ffffff;fill-opacity:1;fill-rule:evenodd;stroke:none"
           d="M 0,0 C -0.532,1.188 -0.911,2.552 -1.134,3.842 -1.02,3.895 -0.911,3.963 -0.83,4.058 -0.404,3.437 0.98,3.768 1.608,3.835 1.77,2.917 2.018,1.992 2.344,1.113 2.053,0.986 1.83,0.722 1.574,0.54 1.283,0.33 0.784,0.134 0.647,-0.243 0.466,-0.067 0.237,0.013 0,0" />
      </g>
      <g
         transform="matrix(16.787549,0,0,-16.787549,923.38468,359.47746)"
         id="g6023">
        <path
           id="path6025"
           style="fill:#ffffff;fill-opacity:1;fill-rule:evenodd;stroke:none"
           d="m 0,0 c 0,-0.776 0.04,-1.539 0.115,-2.276 -0.244,0 -0.553,-0.081 -0.797,-0.095 -0.466,-0.032 -0.998,0.102 -1.342,-0.31 -0.142,0.217 -0.333,0.324 -0.581,0.358 -0.135,1.553 -0.135,3.107 0,4.66 0.257,0.034 0.439,0.149 0.581,0.358 0.329,-0.399 0.89,-0.284 1.342,-0.304 C -0.431,2.377 -0.129,2.296 0.115,2.296 0.04,1.546 0,0.763 0,0" />
      </g>
      <g
         transform="matrix(16.787549,0,0,-16.787549,1099.5334,359.36834)"
         id="g6027">
        <path
           id="path6029"
           style="fill:#ffffff;fill-opacity:1;fill-rule:evenodd;stroke:none"
           d="m 0,0 c -0.012,-6.414 -2.51,-11.695 -5.853,-12.391 0.317,0.399 0.601,0.966 0.797,1.431 0.046,0.102 0.087,0.216 0.1,0.326 2.553,0.526 4.552,5.09 4.552,10.627 l 0,0.015 c 0,5.543 -1.999,10.101 -4.552,10.628 -0.034,0.29 -0.302,0.79 -0.425,1.012 -0.128,0.244 -0.298,0.521 -0.472,0.743 C -2.51,11.696 -0.012,6.422 0,0" />
      </g>
      <g
         transform="matrix(16.787549,0,0,-16.787549,802.78981,509.57006)"
         id="g6031">
        <path
           id="path6033"
           style="fill:#ffffff;fill-opacity:1;fill-rule:evenodd;stroke:none"
           d="m 0,0 c 0.58,-0.209 1.802,-0.614 2.268,-0.067 0.269,-0.655 1.648,-0.588 2.241,-0.554 l 0.123,0 C 4.369,-0.905 4.058,-1.195 3.752,-1.439 3.659,-1.526 3.592,-1.627 3.551,-1.741 3.403,-1.722 3.219,-1.776 3.084,-1.796 2.654,-1.904 2.153,-1.883 1.863,-2.275 1.154,-1.701 0.525,-0.932 0,0" />
      </g>
      <g
         transform="matrix(16.787549,0,0,-16.787549,883.96114,555.24059)"
         id="g6035">
        <path
           id="path6037"
           style="fill:#ffffff;fill-opacity:1;fill-rule:evenodd;stroke:none"
           d="m 0,0 c 0.553,0.439 1.808,1.397 1.288,2.2 l 0.19,0.055 C 2.059,1.324 2.815,0.432 3.726,-0.182 3.294,-0.243 2.794,-0.264 2.355,-0.244 2.106,-0.257 1.875,-0.372 1.726,-0.588 1.438,-0.081 0.882,-0.162 0.391,-0.081 0.255,-0.054 0.128,-0.028 0,0" />
      </g>
      <g
         transform="matrix(16.787549,0,0,-16.787549,908.88696,504.13073)"
         id="g6039">
        <path
           id="path6041"
           style="fill:#ffffff;fill-opacity:1;fill-rule:evenodd;stroke:none"
           d="M 0,0 C 0,-0.452 -0.676,-0.425 -0.676,0 -0.676,0.426 0,0.46 0,0" />
      </g>
      <g
         transform="matrix(16.787549,0,0,-16.787549,889.41038,523.50709)"
         id="g6043">
        <path
           id="path6045"
           style="fill:#ffffff;fill-opacity:1;fill-rule:evenodd;stroke:none"
           d="m 0,0 c 0.296,0.278 0.695,-0.162 0.416,-0.438 -0.173,-0.231 -1.031,-1.276 -1.391,-0.918 -0.324,0.343 0.364,0.708 0.521,0.857 L 0,0 z" />
      </g>
      <g
         transform="matrix(16.787549,0,0,-16.787549,858.22902,548.43324)"
         id="g6047">
        <path
           id="path6049"
           style="fill:#ffffff;fill-opacity:1;fill-rule:evenodd;stroke:none"
           d="M 0,0 C 0.391,0.094 0.553,-0.487 0.067,-0.608 -0.129,-0.663 -0.872,-0.872 -0.96,-0.493 -1.075,-0.028 -0.197,-0.047 0,0" />
      </g>
      <g
         transform="matrix(16.787549,0,0,-16.787549,900.16952,567.02394)"
         id="g6051">
        <path
           id="path6053"
           style="fill:#ffffff;fill-opacity:1;fill-rule:evenodd;stroke:none"
           d="m 0,0 c 0.39,-0.061 0.277,-0.669 -0.117,-0.595 -0.291,0.021 -1.647,0.102 -1.552,0.602 0.073,0.472 0.783,0.107 1,0.073 L 0,0 z" />
      </g>
      <g
         transform="matrix(16.787549,0,0,-16.787549,997.19819,535.4113)"
         id="g6055">
        <path
           id="path6057"
           style="fill:#ffffff;fill-opacity:1;fill-rule:evenodd;stroke:none"
           d="m 0,0 c 0.196,0.358 0.715,0.048 0.532,-0.29 -0.12,-0.291 -0.613,-1.513 -1.066,-1.29 -0.405,0.23 0.143,0.783 0.248,0.972 L 0,0 z" />
      </g>
      <g
         transform="matrix(16.787549,0,0,-16.787549,789.96396,483.14999)"
         id="g6059">
        <path
           id="path6061"
           style="fill:#ffffff;fill-opacity:1;fill-rule:evenodd;stroke:none"
           d="M 0,0 C 0,-0.446 -0.675,-0.413 -0.675,0 -0.675,0.433 0,0.459 0,0" />
      </g>
      <g
         transform="matrix(16.787549,0,0,-16.787549,1076.7727,359.36834)"
         id="g6063">
        <path
           id="path6065"
           style="fill:#ffffff;fill-opacity:1;fill-rule:evenodd;stroke:none"
           d="m 0,0 c 0,-5.327 -1.837,-9.656 -4.099,-9.656 -2.256,0 -4.092,4.329 -4.092,9.656 0,5.335 1.836,9.656 4.092,9.656 C -1.837,9.656 0,5.335 0,0" />
      </g>
      <g
         transform="matrix(16.787549,0,0,-16.787549,1073.2505,359.36834)"
         id="g6067">
        <path
           id="path6069"
           style="fill:#000000;fill-opacity:1;fill-rule:evenodd;stroke:none"
           d="m 0,0 c 0,-4.855 -1.675,-8.791 -3.748,-8.791 -2.064,0 -3.923,3.936 -3.923,8.791 0,4.854 1.859,8.792 3.923,8.792 C -1.675,8.792 0,4.854 0,0" />
      </g>
      <g
         transform="matrix(16.787549,0,0,-16.787549,1068.3739,359.36834)"
         id="g6071">
        <path
           id="path6073"
           style="fill:#ffffff;fill-opacity:1;fill-rule:evenodd;stroke:none"
           d="m 0,0 c 0,-4.477 -1.607,-8.406 -3.518,-8.406 -1.594,0 -2.578,2.579 -2.911,3.7 0.277,-0.453 0.595,-0.702 0.933,-0.702 1.621,0 1.897,4.726 1.897,5.408 0,0.683 -0.276,5.415 -1.897,5.415 -0.42,0.001 -0.743,-0.39 -0.933,-0.708 0.333,1.127 1.317,3.707 2.911,3.707 C -1.607,8.414 0,4.478 0,0" />
      </g>
      <g
         transform="matrix(16.787549,0,0,-16.787549,999.67587,359.36834)"
         id="g6075">
        <path
           id="path6077"
           style="fill:#ffffff;fill-opacity:1;fill-rule:evenodd;stroke:none"
           d="M 0,0 C 0,-0.769 -0.237,-4.592 -1.587,-4.848 -0.654,-3.774 -0.434,-1.317 -0.425,0 -0.434,1.405 -0.654,3.802 -1.587,4.849 -0.702,4.68 -0.012,2.58 0,0" />
      </g>
      <g
         transform="matrix(16.787549,0,0,-16.787549,852.87715,403.57348)"
         id="g6079">
        <path
           id="path6081"
           style="fill:#ffffff;fill-opacity:1;fill-rule:evenodd;stroke:none"
           d="m 0,0 -0.007,0 c 0.384,-0.109 0.204,-0.689 -0.175,-0.581 -0.29,0.068 -1.613,0.27 -1.48,0.777 0.129,0.458 0.79,0.027 1.001,-0.041 L 0,0 z" />
      </g>
      <g
         transform="matrix(16.787549,0,0,-16.787549,771.6103,359.36834)"
         id="g6083">
        <path
           id="path6085"
           style="fill:#ffffff;fill-opacity:1;fill-rule:evenodd;stroke:none"
           d="m 0,0 c 0,-0.182 -0.149,-0.33 -0.339,-0.33 -0.181,0 -0.33,0.148 -0.33,0.33 0,0.183 0.149,0.331 0.33,0.331 C -0.149,0.331 0,0.183 0,0" />
      </g>
      <g
         transform="matrix(16.787549,0,0,-16.787549,807.09733,385.54365)"
         id="g6087">
        <path
           id="path6089"
           style="fill:#ffffff;fill-opacity:1;fill-rule:evenodd;stroke:none"
           d="m 0,0 c 0.35,-0.223 0.006,-0.717 -0.317,-0.52 -0.264,0.142 -1.493,0.702 -1.231,1.141 0.264,0.391 0.764,-0.183 0.96,-0.304 L 0,0 z" />
      </g>
      <g
         transform="matrix(16.787549,0,0,-16.787549,883.15332,412.52477)"
         id="g6091">
        <path
           id="path6093"
           style="fill:#ffffff;fill-opacity:1;fill-rule:evenodd;stroke:none"
           d="M 0,0 C 0,-0.439 -0.667,-0.432 -0.667,0 -0.667,0.432 0,0.452 0,0" />
      </g>
      <g
         transform="matrix(16.787549,0,0,-16.787549,844.14258,463.4179)"
         id="g6095">
        <path
           id="path6097"
           style="fill:#ffffff;fill-opacity:1;fill-rule:evenodd;stroke:none"
           d="M 0,0 C 0.71,-0.318 1.602,0.816 1.972,1.296 L 2.074,1.431 C 2.297,0.378 2.627,-0.716 3.059,-1.709 2.939,-1.791 2.83,-1.905 2.769,-2.033 2.411,-1.56 1.871,-1.702 1.365,-1.695 c -0.5,0.02 -1.04,0.236 -1.432,-0.223 -0.256,0.527 -0.836,0.499 -1.317,0.614 C -0.857,-1.061 0.015,-0.662 0,0" />
      </g>
      <g
         transform="matrix(16.787549,0,0,-16.787549,862.39904,429.53207)"
         id="g6099">
        <path
           id="path6101"
           style="fill:#ffffff;fill-opacity:1;fill-rule:evenodd;stroke:none"
           d="m 0,0 c 0.278,0.277 0.717,-0.122 0.441,-0.419 -0.177,-0.223 -1.001,-1.33 -1.366,-0.965 -0.121,0.115 -0.121,0.311 -0.007,0.432 l 0,-0.007 C -0.593,-0.655 -0.264,-0.378 0,0" />
      </g>
      <g
         transform="matrix(16.787549,0,0,-16.787549,771.03784,382.71159)"
         id="g6103">
        <path
           id="path6105"
           style="fill:#ffffff;fill-opacity:1;fill-rule:evenodd;stroke:none"
           d="m 0,0 c 0.122,-0.291 0.716,-0.669 0.952,-0.824 0.44,-0.277 1.121,-0.689 1.619,-0.317 0.016,-0.824 1.419,-1.081 2.056,-1.216 0.134,-0.034 0.342,-0.04 0.478,0 C 4.808,-2.728 4.438,-3.134 4.058,-3.438 3.93,-3.579 3.823,-3.849 3.823,-4.058 3.287,-3.842 2.897,-4.247 2.466,-4.471 2.052,-4.686 1.472,-4.788 1.343,-5.336 1.2,-5.226 1.061,-5.146 0.858,-5.139 0.393,-3.647 0.101,-1.917 0,0" />
      </g>
      <g
         transform="matrix(16.787549,0,0,-16.787549,870.91705,359.36834)"
         id="g6107">
        <path
           id="path6109"
           style="fill:#ffffff;fill-opacity:1;fill-rule:evenodd;stroke:none"
           d="m 0,0 c 0,-0.782 0.039,-1.593 0.114,-2.37 -0.161,-0.054 -0.298,-0.155 -0.396,-0.284 -0.204,0.575 -0.806,0.568 -1.292,0.703 -0.479,0.142 -0.978,0.5 -1.465,0.121 -0.014,0.635 -0.628,0.791 -1.06,1.061 -0.42,0.255 -0.803,0.708 -1.351,0.507 L -5.401,0 l 0,-0.007 -0.049,0.27 c 0.561,-0.188 0.931,0.244 1.351,0.514 0.432,0.271 1.046,0.405 1.06,1.053 0.487,-0.358 0.992,-0.02 1.465,0.122 0.499,0.147 1.088,0.12 1.292,0.709 C -0.184,2.525 -0.041,2.418 0.114,2.37 0.039,1.601 0,0.81 0,0" />
      </g>
    </g>
  </g>
</svg>
