<?xml version="1.0" encoding="UTF-8" standalone="no"?>
<!-- Created with Inkscape (http://www.inkscape.org/) -->

<svg
   xmlns:dc="http://purl.org/dc/elements/1.1/"
   xmlns:cc="http://creativecommons.org/ns#"
   xmlns:rdf="http://www.w3.org/1999/02/22-rdf-syntax-ns#"
   xmlns:svg="http://www.w3.org/2000/svg"
   xmlns="http://www.w3.org/2000/svg"
   xmlns:sodipodi="http://sodipodi.sourceforge.net/DTD/sodipodi-0.dtd"
   xmlns:inkscape="http://www.inkscape.org/namespaces/inkscape"
   width="332.51276"
   height="273.09549"
   id="svg3949"
   version="1.1"
   inkscape:version="0.47 r22583"
   sodipodi:docname="Cyprus road sign roundabound destinations.svg">
  <defs
     id="defs3951">
    <inkscape:perspective
       sodipodi:type="inkscape:persp3d"
       inkscape:vp_x="0 : 526.18109 : 1"
       inkscape:vp_y="0 : 1000 : 0"
       inkscape:vp_z="744.09448 : 526.18109 : 1"
       inkscape:persp3d-origin="372.04724 : 350.78739 : 1"
       id="perspective3957" />
    <inkscape:perspective
       id="perspective3866"
       inkscape:persp3d-origin="0.5 : 0.33333333 : 1"
       inkscape:vp_z="1 : 0.5 : 1"
       inkscape:vp_y="0 : 1000 : 0"
       inkscape:vp_x="0 : 0.5 : 1"
       sodipodi:type="inkscape:persp3d" />
    <clipPath
       clipPathUnits="userSpaceOnUse"
       id="clipPath3544">
      <path
         d="m 224.645,53.859 54.567,0 0,86.456 -54.567,0 0,-86.456 z"
         id="path3546" />
    </clipPath>
    <clipPath
       clipPathUnits="userSpaceOnUse"
       id="clipPath3524">
      <path
         d="M 0,0 311,0 311,595 0,595 0,0 z"
         id="path3526" />
    </clipPath>
    <inkscape:perspective
       id="perspective6206"
       inkscape:persp3d-origin="0.5 : 0.33333333 : 1"
       inkscape:vp_z="1 : 0.5 : 1"
       inkscape:vp_y="0 : 1000 : 0"
       inkscape:vp_x="0 : 0.5 : 1"
       sodipodi:type="inkscape:persp3d" />
    <clipPath
       clipPathUnits="userSpaceOnUse"
       id="clipPath4388">
      <path
         d="m 224.504,464.882 34.299,0 0,58.11 -34.299,0 0,-58.11 z"
         id="path4390" />
    </clipPath>
    <clipPath
       clipPathUnits="userSpaceOnUse"
       id="clipPath4374">
      <path
         d="M 0,0 311,0 311,595 0,595 0,0 z"
         id="path4376" />
    </clipPath>
    <inkscape:perspective
       id="perspective6324"
       inkscape:persp3d-origin="0.5 : 0.33333333 : 1"
       inkscape:vp_z="1 : 0.5 : 1"
       inkscape:vp_y="0 : 1000 : 0"
       inkscape:vp_x="0 : 0.5 : 1"
       sodipodi:type="inkscape:persp3d" />
    <clipPath
       clipPathUnits="userSpaceOnUse"
       id="clipPath4554">
      <path
         d="m 153.071,381.26 55.275,0 0,58.11 -55.275,0 0,-58.11 z"
         id="path4556" />
    </clipPath>
    <clipPath
       clipPathUnits="userSpaceOnUse"
       id="clipPath4528">
      <path
         d="m 92.693,381.26 55.275,0 0,58.11 -55.275,0 0,-58.11 z"
         id="path4530" />
    </clipPath>
    <clipPath
       clipPathUnits="userSpaceOnUse"
       id="clipPath4440">
      <path
         d="m 214.016,381.26 55.276,0 0,58.11 -55.276,0 0,-58.11 z"
         id="path4442" />
    </clipPath>
    <inkscape:perspective
       id="perspective6436"
       inkscape:persp3d-origin="0.5 : 0.33333333 : 1"
       inkscape:vp_z="1 : 0.5 : 1"
       inkscape:vp_y="0 : 1000 : 0"
       inkscape:vp_x="0 : 0.5 : 1"
       sodipodi:type="inkscape:persp3d" />
    <clipPath
       clipPathUnits="userSpaceOnUse"
       id="clipPath4554-4">
      <path
         d="m 153.071,381.26 55.275,0 0,58.11 -55.275,0 0,-58.11 z"
         id="path4556-0" />
    </clipPath>
    <clipPath
       clipPathUnits="userSpaceOnUse"
       id="clipPath4440-9">
      <path
         d="m 214.016,381.26 55.276,0 0,58.11 -55.276,0 0,-58.11 z"
         id="path4442-4" />
    </clipPath>
    <inkscape:perspective
       id="perspective6436-8"
       inkscape:persp3d-origin="0.5 : 0.33333333 : 1"
       inkscape:vp_z="1 : 0.5 : 1"
       inkscape:vp_y="0 : 1000 : 0"
       inkscape:vp_x="0 : 0.5 : 1"
       sodipodi:type="inkscape:persp3d" />
    <clipPath
       clipPathUnits="userSpaceOnUse"
       id="clipPath4554-8">
      <path
         d="m 153.071,381.26 55.275,0 0,58.11 -55.275,0 0,-58.11 z"
         id="path4556-2" />
    </clipPath>
    <clipPath
       clipPathUnits="userSpaceOnUse"
       id="clipPath4440-4">
      <path
         d="m 214.016,381.26 55.276,0 0,58.11 -55.276,0 0,-58.11 z"
         id="path4442-5" />
    </clipPath>
    <inkscape:perspective
       id="perspective6552"
       inkscape:persp3d-origin="0.5 : 0.33333333 : 1"
       inkscape:vp_z="1 : 0.5 : 1"
       inkscape:vp_y="0 : 1000 : 0"
       inkscape:vp_x="0 : 0.5 : 1"
       sodipodi:type="inkscape:persp3d" />
    <clipPath
       clipPathUnits="userSpaceOnUse"
       id="clipPath4492">
      <path
         d="m 32.598,287.716 55.276,0 0,50.315 -55.276,0 0,-50.315 z"
         id="path4494" />
    </clipPath>
    <inkscape:perspective
       id="perspective6625"
       inkscape:persp3d-origin="0.5 : 0.33333333 : 1"
       inkscape:vp_z="1 : 0.5 : 1"
       inkscape:vp_y="0 : 1000 : 0"
       inkscape:vp_x="0 : 0.5 : 1"
       sodipodi:type="inkscape:persp3d" />
    <clipPath
       clipPathUnits="userSpaceOnUse"
       id="clipPath5156">
      <path
         d="m 32.598,20.626 71.434,0 0,121.106 -71.434,0 0,-121.106 z"
         id="path5158" />
    </clipPath>
    <inkscape:perspective
       id="perspective7319"
       inkscape:persp3d-origin="0.5 : 0.33333333 : 1"
       inkscape:vp_z="1 : 0.5 : 1"
       inkscape:vp_y="0 : 1000 : 0"
       inkscape:vp_x="0 : 0.5 : 1"
       sodipodi:type="inkscape:persp3d" />
    <clipPath
       clipPathUnits="userSpaceOnUse"
       id="clipPath4482">
      <path
         d="m 32.598,382.691 55.276,0 0,55.248 -55.276,0 0,-55.248 z"
         id="path4484" />
    </clipPath>
    <clipPath
       clipPathUnits="userSpaceOnUse"
       id="clipPath4470">
      <path
         d="m 32.598,381.26 55.276,0 0,58.11 -55.276,0 0,-58.11 z"
         id="path4472" />
    </clipPath>
    <inkscape:perspective
       id="perspective7373"
       inkscape:persp3d-origin="0.5 : 0.33333333 : 1"
       inkscape:vp_z="1 : 0.5 : 1"
       inkscape:vp_y="0 : 1000 : 0"
       inkscape:vp_x="0 : 0.5 : 1"
       sodipodi:type="inkscape:persp3d" />
    <clipPath
       clipPathUnits="userSpaceOnUse"
       id="clipPath4482-6">
      <path
         d="m 32.598,382.691 55.276,0 0,55.248 -55.276,0 0,-55.248 z"
         id="path4484-1" />
    </clipPath>
    <clipPath
       clipPathUnits="userSpaceOnUse"
       id="clipPath4470-4">
      <path
         d="m 32.598,381.26 55.276,0 0,58.11 -55.276,0 0,-58.11 z"
         id="path4472-2" />
    </clipPath>
    <inkscape:perspective
       id="perspective8566"
       inkscape:persp3d-origin="0.5 : 0.33333333 : 1"
       inkscape:vp_z="1 : 0.5 : 1"
       inkscape:vp_y="0 : 1000 : 0"
       inkscape:vp_x="0 : 0.5 : 1"
       sodipodi:type="inkscape:persp3d" />
    <clipPath
       clipPathUnits="userSpaceOnUse"
       id="clipPath7526">
      <path
         d="m 42.52,409.134 112.913,0 0,113.858 -112.913,0 0,-113.858 z"
         id="path7528" />
    </clipPath>
    <clipPath
       clipPathUnits="userSpaceOnUse"
       id="clipPath7514">
      <path
         d="m 46.174,409.134 105.603,0 0,113.858 -105.603,0 0,-113.858 z"
         id="path7516" />
    </clipPath>
    <clipPath
       clipPathUnits="userSpaceOnUse"
       id="clipPath7474">
      <path
         d="m 42.52,409.134 112.913,0 0,113.858 -112.913,0 0,-113.858 z"
         id="path7476" />
    </clipPath>
    <clipPath
       clipPathUnits="userSpaceOnUse"
       id="clipPath7462">
      <path
         d="m 46.174,409.134 105.603,0 0,113.858 -105.603,0 0,-113.858 z"
         id="path7464" />
    </clipPath>
    <clipPath
       clipPathUnits="userSpaceOnUse"
       id="clipPath7450">
      <path
         d="m 42.52,409.134 112.913,0 0,113.858 -112.913,0 0,-113.858 z"
         id="path7452" />
    </clipPath>
    <inkscape:perspective
       id="perspective9062"
       inkscape:persp3d-origin="0.5 : 0.33333333 : 1"
       inkscape:vp_z="1 : 0.5 : 1"
       inkscape:vp_y="0 : 1000 : 0"
       inkscape:vp_x="0 : 0.5 : 1"
       sodipodi:type="inkscape:persp3d" />
    <clipPath
       clipPathUnits="userSpaceOnUse"
       id="clipPath7526-3">
      <path
         d="m 42.52,409.134 112.913,0 0,113.858 -112.913,0 0,-113.858 z"
         id="path7528-2" />
    </clipPath>
    <clipPath
       clipPathUnits="userSpaceOnUse"
       id="clipPath7514-2">
      <path
         d="m 46.174,409.134 105.603,0 0,113.858 -105.603,0 0,-113.858 z"
         id="path7516-1" />
    </clipPath>
    <clipPath
       clipPathUnits="userSpaceOnUse"
       id="clipPath7474-6">
      <path
         d="m 42.52,409.134 112.913,0 0,113.858 -112.913,0 0,-113.858 z"
         id="path7476-8" />
    </clipPath>
    <clipPath
       clipPathUnits="userSpaceOnUse"
       id="clipPath7462-5">
      <path
         d="m 46.174,409.134 105.603,0 0,113.858 -105.603,0 0,-113.858 z"
         id="path7464-7" />
    </clipPath>
    <clipPath
       clipPathUnits="userSpaceOnUse"
       id="clipPath7450-6">
      <path
         d="m 42.52,409.134 112.913,0 0,113.858 -112.913,0 0,-113.858 z"
         id="path7452-1" />
    </clipPath>
    <inkscape:perspective
       id="perspective10342"
       inkscape:persp3d-origin="0.5 : 0.33333333 : 1"
       inkscape:vp_z="1 : 0.5 : 1"
       inkscape:vp_y="0 : 1000 : 0"
       inkscape:vp_x="0 : 0.5 : 1"
       sodipodi:type="inkscape:persp3d" />
    <clipPath
       clipPathUnits="userSpaceOnUse"
       id="clipPath8110">
      <path
         d="m 48.189,259.37 76.28,0 0,103.465 -76.28,0 0,-103.465 z"
         id="path8112" />
    </clipPath>
    <clipPath
       clipPathUnits="userSpaceOnUse"
       id="clipPath8098">
      <path
         d="M 0,0 311,0 311,595 0,595 0,0 z"
         id="path8100" />
    </clipPath>
    <clipPath
       clipPathUnits="userSpaceOnUse"
       id="clipPath8086">
      <path
         d="m 48.189,262.125 76.28,0 0,100.71 -76.28,0 0,-100.71 z"
         id="path8088" />
    </clipPath>
    <inkscape:perspective
       id="perspective10643"
       inkscape:persp3d-origin="0.5 : 0.33333333 : 1"
       inkscape:vp_z="1 : 0.5 : 1"
       inkscape:vp_y="0 : 1000 : 0"
       inkscape:vp_x="0 : 0.5 : 1"
       sodipodi:type="inkscape:persp3d" />
    <clipPath
       clipPathUnits="userSpaceOnUse"
       id="clipPath8110-8">
      <path
         d="m 48.189,259.37 76.28,0 0,103.465 -76.28,0 0,-103.465 z"
         id="path8112-9" />
    </clipPath>
    <clipPath
       clipPathUnits="userSpaceOnUse"
       id="clipPath8098-2">
      <path
         d="M 0,0 311,0 311,595 0,595 0,0 z"
         id="path8100-7" />
    </clipPath>
    <clipPath
       clipPathUnits="userSpaceOnUse"
       id="clipPath8086-9">
      <path
         d="m 48.189,262.125 76.28,0 0,100.71 -76.28,0 0,-100.71 z"
         id="path8088-5" />
    </clipPath>
    <inkscape:perspective
       id="perspective10896"
       inkscape:persp3d-origin="0.5 : 0.33333333 : 1"
       inkscape:vp_z="1 : 0.5 : 1"
       inkscape:vp_y="0 : 1000 : 0"
       inkscape:vp_x="0 : 0.5 : 1"
       sodipodi:type="inkscape:persp3d" />
    <clipPath
       clipPathUnits="userSpaceOnUse"
       id="clipPath8250">
      <path
         d="m 129.685,131.811 149.528,0 0,235.275 -149.528,0 0,-235.275 z"
         id="path8252" />
    </clipPath>
    <clipPath
       clipPathUnits="userSpaceOnUse"
       id="clipPath8240">
      <path
         d="M 0,0 311,0 311,595 0,595 0,0 z"
         id="path8242" />
    </clipPath>
    <inkscape:perspective
       id="perspective12428"
       inkscape:persp3d-origin="0.5 : 0.33333333 : 1"
       inkscape:vp_z="1 : 0.5 : 1"
       inkscape:vp_y="0 : 1000 : 0"
       inkscape:vp_x="0 : 0.5 : 1"
       sodipodi:type="inkscape:persp3d" />
    <clipPath
       clipPathUnits="userSpaceOnUse"
       id="clipPath11426">
      <path
         d="m 32.598,409.134 112.914,0 0,113.858 -112.914,0 0,-113.858 z"
         id="path11428" />
    </clipPath>
    <inkscape:perspective
       id="perspective14200"
       inkscape:persp3d-origin="0.5 : 0.33333333 : 1"
       inkscape:vp_z="1 : 0.5 : 1"
       inkscape:vp_y="0 : 1000 : 0"
       inkscape:vp_x="0 : 0.5 : 1"
       sodipodi:type="inkscape:persp3d" />
    <inkscape:perspective
       id="perspective14543"
       inkscape:persp3d-origin="0.5 : 0.33333333 : 1"
       inkscape:vp_z="1 : 0.5 : 1"
       inkscape:vp_y="0 : 1000 : 0"
       inkscape:vp_x="0 : 0.5 : 1"
       sodipodi:type="inkscape:persp3d" />
  </defs>
  <sodipodi:namedview
     id="base"
     pagecolor="#ffffff"
     bordercolor="#666666"
     borderopacity="1.0"
     inkscape:pageopacity="0.0"
     inkscape:pageshadow="2"
     inkscape:zoom="1.1813655"
     inkscape:cx="444.21335"
     inkscape:cy="139.87701"
     inkscape:document-units="px"
     inkscape:current-layer="layer1"
     showgrid="false"
     inkscape:window-width="1600"
     inkscape:window-height="838"
     inkscape:window-x="-8"
     inkscape:window-y="-8"
     inkscape:window-maximized="1" />
  <metadata
     id="metadata3954">
    <rdf:RDF>
      <cc:Work
         rdf:about="">
        <dc:format>image/svg+xml</dc:format>
        <dc:type
           rdf:resource="http://purl.org/dc/dcmitype/StillImage" />
        <dc:title></dc:title>
      </cc:Work>
    </rdf:RDF>
  </metadata>
  <g
     inkscape:label="Livello 1"
     inkscape:groupmode="layer"
     id="layer1"
     transform="translate(312.31449,-272.96672)">
    <path
       d="m -311.86822,545.61601 331.619113,0 0,-272.20124 -331.619113,0 0,272.20124 z"
       style="fill:#007ac2;fill-opacity:1;fill-rule:nonzero;stroke:none"
       id="path11790" />
    <path
       id="path11802"
       style="fill:none;stroke:#000000;stroke-width:0.89394039;stroke-linecap:butt;stroke-linejoin:miter;stroke-miterlimit:10;stroke-opacity:1;stroke-dasharray:none"
       d="m -311.86752,273.41369 331.618807,0 0,272.20154 -331.618807,0 0,-272.20154 z" />
    <path
       id="path11814"
       style="fill:#ffdb00;fill-opacity:1;fill-rule:nonzero;stroke:none"
       d="m -230.13719,349.69233 -2.23761,-7.26305 -2.19325,7.26305 4.43086,0 z m 6.0367,7.74709 -3.56666,0 -1.41779,-4.44745 -6.49098,0 -1.3375,4.44745 -3.48003,0 6.32617,-19.58018 3.46524,0 6.50155,19.58018 z" />
    <path
       id="path11818"
       style="fill:#ffdb00;fill-opacity:1;fill-rule:nonzero;stroke:none"
       d="m -222.80419,337.85711 11.2409,0 0,3.31234 -7.19671,0 4.19421,6.03916 -4.62736,6.93116 7.97427,0 0,3.29966 -11.7966,0 0,-3.65899 4.35479,-6.57183 -4.1435,-5.82565 0,-3.52585 z" />
    <path
       id="path11822"
       style="fill:#ffdb00;fill-opacity:1;fill-rule:nonzero;stroke:none"
       d="m -205.09387,357.44006 0,-16.26997 -4.81964,0 0,-3.31234 12.90378,0 0,3.31234 -4.80485,0 0,16.26997 -3.27929,0 z" />
    <path
       id="path11826"
       style="fill:#ffdb00;fill-opacity:1;fill-rule:nonzero;stroke:none"
       d="m -191.61366,341.17007 0,5.5572 1.7939,0 c 1.29101,0 2.15521,-0.0993 2.59048,-0.3065 0.43738,-0.20081 0.77756,-0.52634 1.02689,-0.96178 0.24721,-0.43545 0.37188,-0.94699 0.37188,-1.52406 0,-0.71024 -0.17538,-1.29999 -0.52401,-1.76291 -0.34653,-0.46081 -0.78391,-0.75252 -1.31426,-0.86666 -0.39512,-0.0888 -1.18114,-0.13529 -2.36228,-0.13529 l -1.5826,0 z m -3.2793,16.26997 0,-19.5823 5.26125,0 c 1.99251,0 3.29409,0.0994 3.90051,0.29593 0.9297,0.29382 1.70937,0.93219 2.33692,1.91511 0.62755,0.98503 0.94026,2.25754 0.94026,3.80908 0,1.2091 -0.18171,2.21527 -0.54514,3.03754 -0.3592,0.82016 -0.81982,1.46064 -1.37764,1.93202 -0.55571,0.46504 -1.12409,0.77365 -1.69881,0.92796 -0.78179,0.1839 -1.91645,0.28114 -3.40185,0.28114 l -2.1362,0 0,7.38352 -3.2793,0 z" />
    <path
       id="path11830"
       style="fill:#ffdb00;fill-opacity:1;fill-rule:nonzero;stroke:none"
       d="m -177.04846,347.6358 c 0,2.21738 0.4247,3.89786 1.27199,5.04143 0.84941,1.14568 1.92701,1.71641 3.23704,1.71641 1.30369,0 2.37707,-0.5665 3.21803,-1.70161 0.83672,-1.13512 1.25509,-2.83885 1.25509,-5.10907 0,-2.24487 -0.4078,-3.91689 -1.2234,-5.02241 -0.81771,-1.10552 -1.89954,-1.65722 -3.24972,-1.65722 -1.35229,0 -2.44257,0.55804 -3.26662,1.67625 -0.83039,1.1182 -1.24241,2.80502 -1.24241,5.05622 m -3.38072,0.13326 c 0,-1.99121 0.24932,-3.66957 0.74375,-5.02241 0.36977,-0.99983 0.87265,-1.89186 1.51076,-2.68665 0.63811,-0.79267 1.34173,-1.37609 2.10028,-1.7608 1.01421,-0.51577 2.18056,-0.77365 3.50116,-0.77365 2.39186,0 4.30619,0.89625 5.74299,2.68453 1.43681,1.78617 2.15521,4.27835 2.15521,7.46597 0,3.16014 -0.71417,5.63541 -2.14041,7.41946 -1.42413,1.78617 -3.33001,2.67819 -5.71554,2.67819 -2.41087,0 -4.33366,-0.88568 -5.7599,-2.66128 -1.42413,-1.77982 -2.1383,-4.22761 -2.1383,-7.34336" />
    <path
       id="path11834"
       style="fill:#ffdb00;fill-opacity:1;fill-rule:nonzero;stroke:none"
       d="m -162.1621,357.44006 0,-19.58231 4.90838,0 2.94545,13.35715 2.91165,-13.35715 4.91895,0 0,19.58231 -3.04688,0 0,-15.41599 -3.22225,15.41599 -3.15886,0 -3.21168,-15.41599 0,15.41599 -3.04476,0 z" />
    <path
       id="path11838"
       style="fill:#ffdb00;fill-opacity:1;fill-rule:nonzero;stroke:none"
       d="m -143.22224,357.44006 0,-19.58231 12.03959,0 0,3.31234 -8.76029,0 0,4.34387 8.15176,0 0,3.29543 -8.15176,0 0,5.33102 9.07089,0 0,3.29965 -12.35019,0 z" />
    <path
       id="path11842"
       style="fill:#ffdb00;fill-opacity:1;fill-rule:nonzero;stroke:none"
       d="m -124.81319,341.17007 0,5.5572 1.7939,0 c 1.29101,0 2.15521,-0.0993 2.59048,-0.3065 0.43738,-0.20081 0.77968,-0.52634 1.02689,-0.96178 0.24722,-0.43545 0.37188,-0.94699 0.37188,-1.52406 0,-0.71024 -0.17326,-1.29999 -0.5219,-1.76291 -0.34864,-0.46081 -0.78813,-0.75252 -1.31637,-0.86666 -0.39301,-0.0888 -1.18114,-0.13529 -2.36228,-0.13529 l -1.5826,0 z m -3.27718,16.26997 0,-19.5823 5.25913,0 c 1.99251,0 3.29198,0.0994 3.90051,0.29593 0.9297,0.29382 1.70938,0.93219 2.33692,1.91511 0.62755,0.98503 0.94026,2.25754 0.94026,3.80908 0,1.2091 -0.18171,2.21527 -0.54091,3.03754 -0.36343,0.82016 -0.82405,1.46064 -1.37976,1.93202 -0.55782,0.46504 -1.1262,0.77365 -1.70092,0.92796 -0.78391,0.1839 -1.91645,0.28114 -3.40185,0.28114 l -2.1362,0 0,7.38352 -3.27718,0 z" />
    <path
       d="m -113.06283,357.43646 3.2793,0 0,-19.58229 -3.2793,0 0,19.58229 z"
       style="fill:#ffdb00;fill-opacity:1;fill-rule:nonzero;stroke:none"
       id="path11844" />
    <path
       id="path11848"
       style="fill:#ffdb00;fill-opacity:1;fill-rule:nonzero;stroke:none"
       d="m -103.00392,357.44006 0,-16.26997 -4.81753,0 0,-3.31234 12.90379,0 0,3.31234 -4.80696,0 0,16.26997 -3.2793,0 z" />
    <path
       id="path11852"
       style="fill:#ffdb00;fill-opacity:1;fill-rule:nonzero;stroke:none"
       d="m -92.79181,357.44006 0,-19.58231 3.27719,0 0,7.70906 6.42548,0 0,-7.70906 3.2793,0 0,19.58231 -3.2793,0 0,-8.56514 -6.42548,0 0,8.56514 -3.27719,0 z" />
    <path
       id="path11856"
       style="fill:#ffdb00;fill-opacity:1;fill-rule:nonzero;stroke:none"
       d="m -76.86397,337.85711 11.2409,0 0,3.31234 -7.19671,0 4.19632,6.03916 -4.63159,6.93116 7.97639,0 0,3.29966 -11.7966,0 0,-3.65899 4.35479,-6.57183 -4.1435,-5.82565 0,-3.52585 z" />
    <path
       id="path11860"
       style="fill:#ffffff;fill-opacity:1;fill-rule:nonzero;stroke:none"
       d="m -230.13719,378.14333 -2.23761,-7.26729 -2.19325,7.26729 4.43086,0 z m 6.0367,7.7471 -3.56666,0 -1.41779,-4.44324 -6.49098,0 -1.3375,4.44324 -3.48003,0 6.32617,-19.58019 3.46524,0 6.50155,19.58019 z" />
    <path
       id="path11864"
       style="fill:#ffffff;fill-opacity:1;fill-rule:nonzero;stroke:none"
       d="m -223.48011,381.84438 3.12505,-0.57495 c 0.13101,0.73137 0.40146,1.28519 0.80926,1.66356 0.40358,0.37626 0.97407,0.56862 1.70304,0.56862 0.80715,0 1.41145,-0.17968 1.81714,-0.5348 0.27257,-0.24943 0.40991,-0.58552 0.40991,-1.00194 l -0.22397,-0.70813 c -0.15433,-0.17967 -0.50077,-0.34243 -1.03957,-0.49463 -2.51019,-0.66796 -4.10124,-1.27885 -4.77316,-1.82844 -0.9297,-0.76731 -1.39454,-1.83267 -1.39454,-3.19396 0,-1.22812 0.40146,-2.26389 1.20649,-3.10096 0.80503,-0.83706 2.05167,-1.25348 3.74415,-1.25348 1.60795,0 2.806,0.31495 3.58779,0.9491 0.7839,0.62991 1.3227,1.5621 1.61852,2.80079 l -2.93489,0.65739 c -0.12678,-0.5517 -0.36554,-0.97235 -0.71629,-1.26828 -0.35286,-0.29593 -0.84941,-0.44179 -1.5002,-0.44179 -0.81982,0 -1.40722,0.13952 -1.7622,0.41642 -0.23665,0.19447 -0.35497,0.44813 -0.35497,0.76309 l 0.31272,0.67642 c 0.2789,0.24943 1.24875,0.60243 2.9053,1.0569 1.65656,0.45658 2.81656,1.01251 3.47369,1.66779 0.65079,0.67219 0.97407,1.59804 0.97407,2.79657 0,1.29365 -0.45006,2.41608 -1.35017,3.34827 -0.90435,0.93642 -2.2355,1.40568 -3.99982,1.40568 -1.60161,0 -2.8715,-0.39317 -3.80331,-1.17528 -0.93392,-0.78633 -1.54879,-1.84958 -1.83404,-3.19396" />
    <path
       id="path11868"
       style="fill:#ffffff;fill-opacity:1;fill-rule:nonzero;stroke:none"
       d="m -204.37358,371.70741 0,2.99104 -2.12563,0 0,5.71573 c 0,1.15837 0.0189,1.83267 0.0612,2.02503 l 0.27468,0.4756 0.52612,0.18602 c 0.28948,0 0.70573,-0.1248 1.25298,-0.36358 l 0.26412,2.91283 c -0.72051,0.37414 -1.54245,0.56439 -2.45736,0.56439 -0.56204,0 -1.06704,-0.11415 -1.5171,-0.34244 -0.45217,-0.22618 -0.78179,-0.52211 -0.99097,-0.88357 -0.21341,-0.36146 -0.3592,-0.84975 -0.43738,-1.46276 -0.0676,-0.43333 -0.10362,-1.31478 -0.10362,-2.64225 l 0,-6.185 -1.42836,0 0,-2.99104 1.42836,0 0,-2.82193 3.12716,-2.18991 0,5.01184 2.12563,0 z" />
    <path
       id="path11872"
       style="fill:#ffffff;fill-opacity:1;fill-rule:nonzero;stroke:none"
       d="m -199.23402,385.89105 -3.11238,0 0,-14.18364 2.88841,0 0,2.01446 c 0.49654,-0.95333 0.94237,-1.58113 1.33538,-1.88129 0.39724,-0.30227 0.84518,-0.45658 1.34595,-0.45658 0.70995,0 1.39244,0.23674 2.05168,0.70812 l -0.96351,3.27218 c -0.52612,-0.40797 -1.01422,-0.61301 -1.46427,-0.61301 -0.43527,0 -0.80504,0.14171 -1.10719,0.43545 -0.30215,0.28747 -0.54092,0.8117 -0.71206,1.56844 -0.17749,0.75674 -0.26201,2.33999 -0.26201,4.75395 l 0,4.38192 z" />
    <path
       id="path11876"
       style="fill:#ffffff;fill-opacity:1;fill-rule:nonzero;stroke:none"
       d="m -190.91596,378.80028 c 0,1.40359 0.27468,2.48372 0.83039,3.23413 0.55359,0.74617 1.23608,1.1182 2.04956,1.1182 0.81137,0 1.49386,-0.37203 2.04534,-1.1182 0.54725,-0.75041 0.82194,-1.8369 0.82194,-3.26372 0,-1.39089 -0.27469,-2.45625 -0.82194,-3.20452 -0.55148,-0.74619 -1.23397,-1.12456 -2.04534,-1.12456 -0.81348,0 -1.49597,0.37837 -2.04956,1.12456 -0.55571,0.74827 -0.83039,1.82632 -0.83039,3.23411 m -3.19056,-0.20504 c 0,-1.24501 0.25567,-2.4499 0.76278,-3.61672 0.51133,-1.16682 1.23396,-2.05674 2.16577,-2.67185 0.93393,-0.61724 1.97984,-0.92162 3.12928,-0.92162 1.77911,0 3.23704,0.69967 4.37381,2.09478 1.13677,1.38667 1.70726,3.14957 1.70726,5.27817 0,2.14763 -0.57472,3.92536 -1.72205,5.3395 -1.14522,1.412 -2.5947,2.1159 -4.33577,2.1159 -1.07972,0 -2.10873,-0.29593 -3.08491,-0.88146 -0.9783,-0.58975 -1.72206,-1.45007 -2.23339,-2.58728 -0.50711,-1.13302 -0.76278,-2.51756 -0.76278,-4.14942" />
    <path
       id="path11880"
       style="fill:#ffffff;fill-opacity:1;fill-rule:nonzero;stroke:none"
       d="m -179.76191,371.70741 2.86727,0 0,1.93413 c 1.02689,-1.50503 2.25029,-2.25543 3.66808,-2.25543 0.7501,0 1.40511,0.18813 1.95871,0.56016 0.5557,0.37203 1.00787,0.93853 1.36285,1.69527 0.51767,-0.75674 1.07549,-1.32324 1.67346,-1.69527 0.59796,-0.37203 1.23607,-0.56016 1.91644,-0.56016 0.8642,0 1.59317,0.21138 2.19324,0.63414 0.59797,0.42488 1.0438,1.04211 1.33962,1.86227 0.21552,0.60666 0.32116,1.58535 0.32116,2.93608 l 0,9.07245 -3.11449,0 0,-8.10856 c 0,-1.40357 -0.10361,-2.31462 -0.31905,-2.7247 -0.28948,-0.53267 -0.72897,-0.80113 -1.32905,-0.80113 -0.43738,0 -0.84518,0.15845 -1.22973,0.48195 -0.38456,0.31918 -0.66136,0.78845 -0.83039,1.40779 -0.16904,0.61935 -0.25567,1.59593 -0.25567,2.93397 l 0,6.81068 -3.11238,0 0,-7.77035 c 0,-1.38032 -0.0549,-2.27446 -0.16481,-2.67608 -0.1141,-0.40162 -0.28313,-0.69756 -0.51556,-0.89625 -0.23453,-0.19447 -0.54725,-0.29171 -0.9466,-0.29171 -0.48175,0 -0.91491,0.15642 -1.29735,0.46504 -0.38456,0.31496 -0.65924,0.76308 -0.82405,1.35072 -0.16684,0.58764 -0.25144,1.56422 -0.25144,2.92762 l 0,6.89101 -3.11026,0 0,-14.18364 z" />
    <path
       id="path11884"
       style="fill:#ffffff;fill-opacity:1;fill-rule:nonzero;stroke:none"
       d="m -152.37089,377.58296 c -0.0211,-1.08649 -0.25567,-1.91299 -0.69516,-2.47949 -0.44795,-0.56439 -0.98464,-0.84764 -1.62064,-0.84764 -0.67825,0 -1.23819,0.30016 -1.68402,0.89626 -0.4416,0.59609 -0.65924,1.40568 -0.65079,2.43087 l 4.65061,0 z m -0.1796,3.79006 3.10603,0.63203 c -0.40146,1.37397 -1.03323,2.41608 -1.89109,3.13055 -0.86208,0.71869 -1.93546,1.07804 -3.22859,1.07804 -2.04533,0 -3.56032,-0.80748 -4.54284,-2.41608 -0.77545,-1.29577 -1.16001,-2.92551 -1.16001,-4.89347 0,-2.35055 0.50922,-4.18956 1.52766,-5.52126 1.02056,-1.33381 2.30523,-1.99755 3.8667,-1.99755 1.74741,0 3.12928,0.69756 4.14139,2.09056 1.0121,1.39088 1.49597,3.53006 1.44948,6.40483 l -7.79679,0 c 0.0233,1.11187 0.27257,1.97853 0.75221,2.59576 0.48176,0.62357 1.07972,0.93007 1.7939,0.93007 0.4902,0 0.898,-0.16065 1.23185,-0.48195 0.33173,-0.31918 0.58317,-0.83284 0.7501,-1.55153" />
    <path
       id="path11888"
       style="fill:#ffffff;fill-opacity:1;fill-rule:nonzero;stroke:none"
       d="m -143.76527,385.89105 -3.11026,0 0,-14.18364 2.89051,0 0,2.01446 c 0.49232,-0.95333 0.93815,-1.58113 1.33116,-1.88129 0.39724,-0.30227 0.84518,-0.45658 1.35018,-0.45658 0.70572,0 1.39032,0.23674 2.04745,0.70812 l -0.96351,3.27218 c -0.52612,-0.40797 -1.0121,-0.61301 -1.46216,-0.61301 -0.43738,0 -0.80503,0.14171 -1.1093,0.43545 -0.30215,0.28747 -0.54303,0.8117 -0.71629,1.56844 -0.17326,0.75674 -0.25778,2.33999 -0.25778,4.75395 l 0,4.38192 z" />
    <path
       id="path11892"
       style="fill:#ffffff;fill-opacity:1;fill-rule:nonzero;stroke:none"
       d="m -137.91745,371.70802 3.11026,0 0,14.18364 -3.11026,0 0,-14.18364 z m 0,-5.39655 3.11026,0 0,3.47087 -3.11026,0 0,-3.47087 z" />
    <path
       id="path11896"
       style="fill:#ffffff;fill-opacity:1;fill-rule:nonzero;stroke:none"
       d="m -126.22017,371.70741 0,2.99104 -2.12774,0 0,5.71573 c 0,1.15837 0.0211,1.83267 0.0612,2.02503 l 0.27679,0.4756 0.52824,0.18602 c 0.28736,0 0.70361,-0.1248 1.25087,-0.36358 l 0.26412,2.91283 c -0.72052,0.37414 -1.54246,0.56439 -2.45948,0.56439 -0.55782,0 -1.06704,-0.11415 -1.51498,-0.34244 -0.45218,-0.22618 -0.7818,-0.52211 -0.99098,-0.88357 -0.21341,-0.36146 -0.3592,-0.84975 -0.43738,-1.46276 -0.0676,-0.43333 -0.10362,-1.31478 -0.10362,-2.64225 l 0,-6.185 -1.42835,0 0,-2.99104 1.42835,0 0,-2.82193 3.12506,-2.18991 0,5.01184 2.12774,0 z" />
    <path
       id="path11900"
       style="fill:#ffffff;fill-opacity:1;fill-rule:nonzero;stroke:none"
       d="m -124.06114,371.70802 3.11237,0 0,14.18364 -3.11237,0 0,-14.18364 z m 0,-5.39655 3.11237,0 0,3.47087 -3.11237,0 0,-3.47087 z" />
    <path
       id="path11904"
       style="fill:#ffffff;fill-opacity:1;fill-rule:nonzero;stroke:none"
       d="m -118.85379,381.84438 3.12506,-0.57495 c 0.131,0.73137 0.40146,1.28519 0.80503,1.66356 0.4078,0.37626 0.97407,0.56862 1.70727,0.56862 0.80292,0 1.41145,-0.17968 1.81713,-0.5348 0.27257,-0.24943 0.40992,-0.58552 0.40992,-1.00194 l -0.22398,-0.70813 c -0.15433,-0.17967 -0.50077,-0.34243 -1.03957,-0.49463 -2.51018,-0.66796 -4.10124,-1.27885 -4.77315,-1.82844 -0.9297,-0.76731 -1.39666,-1.83267 -1.39666,-3.19396 0,-1.22812 0.40357,-2.26389 1.20649,-3.10096 0.80715,-0.83706 2.05379,-1.25348 3.74626,-1.25348 1.60796,0 2.806,0.31495 3.58568,0.9491 0.78179,0.62991 1.32271,1.5621 1.62063,2.80079 l -2.937,0.65739 c -0.12475,-0.5517 -0.36343,-0.97235 -0.71418,-1.26828 -0.34863,-0.29593 -0.85363,-0.44179 -1.50019,-0.44179 -0.81983,0 -1.40934,0.13952 -1.7622,0.41642 -0.23665,0.19447 -0.35498,0.44813 -0.35498,0.76309 l 0.31061,0.67642 c 0.27891,0.24943 1.24875,0.60243 2.90742,1.0569 1.65655,0.45658 2.81445,1.01251 3.47369,1.66779 0.65078,0.67219 0.97407,1.59804 0.97407,2.79657 0,1.29365 -0.45006,2.41608 -1.35441,3.34827 -0.90011,0.93642 -2.23127,1.40568 -3.99558,1.40568 -1.60162,0 -2.8715,-0.39317 -3.80332,-1.17528 -0.93603,-0.78633 -1.54879,-1.84958 -1.83404,-3.19396" />
    <path
       id="path11908"
       style="fill:#ffdb00;fill-opacity:1;fill-rule:nonzero;stroke:none"
       d="m -238.69993,419.08648 0,-19.58231 3.2793,0 0,8.69409 6.6241,-8.69409 4.40762,0 -6.11488,7.6245 6.44661,11.95781 -4.24069,0 -4.46467,-9.18872 -2.65809,3.27006 0,5.91866 -3.2793,0 z" />
    <path
       id="path11912"
       style="fill:#ffdb00;fill-opacity:1;fill-rule:nonzero;stroke:none"
       d="m -213.75635,411.33857 -2.23761,-7.26727 -2.19113,7.26727 4.42874,0 z m 6.0367,7.7471 -3.56454,0 -1.41779,-4.44322 -6.4931,0 -1.3375,4.44322 -3.48003,0 6.32618,-19.5802 3.46524,0 6.50154,19.5802 z" />
    <path
       id="path11916"
       style="fill:#ffdb00;fill-opacity:1;fill-rule:nonzero;stroke:none"
       d="m -205.93547,419.08648 0,-19.58231 3.2793,0 0,8.69409 6.6241,-8.69409 4.40761,0 -6.11488,7.6245 6.44662,11.95781 -4.24281,0 -4.46255,-9.18872 -2.65809,3.27006 0,5.91866 -3.2793,0 z" />
    <path
       id="path11920"
       style="fill:#ffdb00;fill-opacity:1;fill-rule:nonzero;stroke:none"
       d="m -186.88383,409.28222 c 0,2.2174 0.42048,3.89786 1.272,5.04143 0.84941,1.14568 1.92912,1.71641 3.23704,1.71641 1.30369,0 2.37707,-0.5665 3.21802,-1.70582 0.83673,-1.13091 1.2551,-2.83462 1.2551,-5.10486 0,-2.24062 -0.4078,-3.91689 -1.22551,-5.02239 -0.8156,-1.10343 -1.89955,-1.65723 -3.24761,-1.65723 -1.3544,0 -2.44257,0.56226 -3.26662,1.67623 -0.83039,1.11821 -1.24242,2.80291 -1.24242,5.05623 m -3.38072,0.13309 c 0,-1.99544 0.24933,-3.66957 0.74376,-5.02241 0.36977,-0.9956 0.87265,-1.89186 1.51076,-2.68242 0.63811,-0.79691 1.34173,-1.3803 2.10027,-1.76714 1.01,-0.51577 2.17846,-0.77154 3.49905,-0.77154 2.39397,0 4.30831,0.89625 5.74511,2.68453 1.43681,1.78828 2.15521,4.27836 2.15521,7.46808 0,3.15803 -0.71629,5.6333 -2.14042,7.41735 -1.42412,1.78618 -3.33001,2.68242 -5.71341,2.68242 -2.41722,0 -4.33578,-0.88991 -5.76202,-2.66761 -1.42413,-1.77771 -2.13831,-4.22551 -2.13831,-7.34125" />
    <path
       id="path11924"
       style="fill:#ffdb00;fill-opacity:1;fill-rule:nonzero;stroke:none"
       d="m -171.89816,419.08648 0,-19.58231 12.98197,0 0,19.58231 -3.2793,0 0,-16.26997 -6.42548,0 0,16.26997 -3.27719,0 z" />
    <path
       id="path11928"
       style="fill:#ffdb00;fill-opacity:1;fill-rule:nonzero;stroke:none"
       d="m -155.5722,419.08648 0,-19.58231 12.03959,0 0,3.31234 -8.7624,0 0,4.34176 8.15387,0 0,3.29755 -8.15387,0 0,5.33101 9.07301,0 0,3.29965 -12.3502,0 z" />
    <path
       id="path11932"
       style="fill:#ffdb00;fill-opacity:1;fill-rule:nonzero;stroke:none"
       d="m -136.78706,419.08648 0,-16.26997 -4.81752,0 0,-3.31234 12.90379,0 0,3.31234 -4.80908,0 0,16.26997 -3.27719,0 z" />
    <path
       id="path11936"
       style="fill:#ffdb00;fill-opacity:1;fill-rule:nonzero;stroke:none"
       d="m -123.30641,402.81779 0,5.5572 1.79389,0 c 1.29101,0 2.15521,-0.0994 2.59048,-0.30863 0.43526,-0.20293 0.77756,-0.52423 1.02478,-0.95965 0.24721,-0.43758 0.37188,-0.94701 0.37188,-1.52407 0,-0.71234 -0.17326,-1.3 -0.51979,-1.76503 -0.34864,-0.46291 -0.78813,-0.7504 -1.32059,-0.86666 -0.3909,-0.0908 -1.17692,-0.13309 -2.35806,-0.13309 l -1.58259,0 z m -3.27719,16.26996 0,-19.58231 5.25913,0 c 1.99251,0 3.29409,0.095 3.90051,0.29382 0.9297,0.29382 1.70938,0.93008 2.33692,1.91724 0.62544,0.98079 0.94027,2.2533 0.94027,3.80906 0,1.207 -0.18172,2.21529 -0.54515,3.03545 -0.3592,0.82225 -0.81982,1.46062 -1.37764,1.932 -0.55571,0.46505 -1.12409,0.77365 -1.69881,0.92586 -0.78179,0.18811 -1.91645,0.28114 -3.40185,0.28114 l -2.13619,0 0,7.38775 -3.27719,0 z" />
    <path
       d="m -111.5563,419.08775 3.2793,0 0,-19.58231 -3.2793,0 0,19.58231 z"
       style="fill:#ffdb00;fill-opacity:1;fill-rule:nonzero;stroke:none"
       id="path11938" />
    <path
       id="path11942"
       style="fill:#ffdb00;fill-opacity:1;fill-rule:nonzero;stroke:none"
       d="m -96.54717,411.33857 -2.23761,-7.26727 -2.19113,7.26727 4.42874,0 z m 6.0367,7.7471 -3.56666,0 -1.41779,-4.44322 -6.49098,0 -1.3375,4.44322 -3.48003,0 6.32618,-19.5802 3.46524,0 6.50154,19.5802 z" />
    <path
       id="path11946"
       style="fill:#ffffff;fill-opacity:1;fill-rule:nonzero;stroke:none"
       d="m -238.69993,447.53751 0,-19.58231 3.2793,0 0,8.69832 6.6241,-8.69832 4.40762,0 -6.11488,7.6245 6.44661,11.95781 -4.24069,0 -4.46467,-9.19084 -2.65809,3.27429 0,5.91655 -3.2793,0 z" />
    <path
       id="path11950"
       style="fill:#ffffff;fill-opacity:1;fill-rule:nonzero;stroke:none"
       d="m -215.89337,440.72682 c -0.39934,0.15845 -1.029,0.34878 -1.8932,0.57496 -0.8642,0.22195 -1.42835,0.44178 -1.6967,0.64894 -0.4078,0.34877 -0.60853,0.79056 -0.60853,1.32535 0,0.52423 0.16261,0.97869 0.48598,1.36341 0.32751,0.3826 0.73953,0.57495 1.24241,0.57495 0.56205,0 1.09663,-0.22617 1.60585,-0.67007 0.3761,-0.3361 0.62543,-0.75041 0.74376,-1.24081 0.0781,-0.31918 0.12035,-0.93007 0.12035,-1.82633 l 0,-0.7504 z m -4.16673,-3.04811 -2.82291,-0.613 c 0.31695,-1.37398 0.8642,-2.38649 1.64177,-3.04811 0.77334,-0.6574 1.92278,-0.98504 3.45467,-0.98504 1.3861,0 2.41933,0.19447 3.10181,0.59398 0.68037,0.39529 1.15578,0.89837 1.43469,1.50715 0.2768,0.61089 0.41203,1.72909 0.41203,3.36306 l -0.0296,4.3777 c 0,1.24714 0.0487,2.16665 0.14588,2.76274 0.10142,0.58976 0.28524,1.2239 0.55993,1.90032 l -3.07857,0 c -0.0803,-0.24732 -0.18171,-0.61935 -0.29793,-1.10764 l -0.11207,-0.44178 c -0.52823,0.62357 -1.09873,1.09283 -1.70515,1.40145 -0.6043,0.31496 -1.25086,0.46715 -1.93757,0.46715 -1.21072,0 -2.16578,-0.39528 -2.86305,-1.18796 -0.69939,-0.79268 -1.04803,-1.79251 -1.04803,-3.00372 0,-0.80113 0.15636,-1.51348 0.47542,-2.14551 0.31694,-0.6278 0.767,-1.10764 1.33538,-1.44373 0.57261,-0.33398 1.39878,-0.62357 2.47427,-0.873 1.45582,-0.32764 2.4637,-0.63415 3.02574,-0.91951 l 0,-0.37837 c 0,-0.71658 -0.1479,-1.23446 -0.44372,-1.54097 -0.2937,-0.30861 -0.85363,-0.46081 -1.66923,-0.46081 -0.55782,0 -0.98674,0.12903 -1.29735,0.39529 -0.3106,0.25999 -0.56204,0.72292 -0.75643,1.38031" />
    <path
       id="path11954"
       style="fill:#ffffff;fill-opacity:1;fill-rule:nonzero;stroke:none"
       d="m -209.87864,447.53751 0,-19.58231 3.11237,0 0,10.39147 3.64484,-4.99281 3.8329,0 -4.02306,5.18094 4.31042,9.00271 -3.35748,0 -2.95602,-6.37102 -1.4516,1.83056 0,4.54046 -3.11237,0 z" />
    <path
       id="path11958"
       style="fill:#ffffff;fill-opacity:1;fill-rule:nonzero;stroke:none"
       d="m -194.68188,440.44504 c 0,1.4078 0.27891,2.48584 0.83039,3.23201 0.55359,0.74829 1.23608,1.12243 2.04956,1.12243 0.81137,0 1.49386,-0.37414 2.04534,-1.12243 0.54725,-0.74617 0.82194,-1.83478 0.82194,-3.25949 0,-1.39088 -0.27469,-2.45835 -0.82194,-3.20664 -0.55148,-0.74618 -1.23397,-1.12032 -2.04534,-1.12032 -0.81348,0 -1.49597,0.37414 -2.04956,1.12032 -0.55148,0.74829 -0.83039,1.82633 -0.83039,3.23412 m -3.19267,-0.20292 c 0,-1.24504 0.25778,-2.44991 0.767,-3.61884 0.50922,-1.16682 1.23185,-2.05462 2.16366,-2.66762 0.93604,-0.61724 1.97984,-0.92374 3.12928,-0.92374 1.78122,0 3.23704,0.69756 4.37381,2.09267 1.13677,1.39089 1.70727,3.15169 1.70727,5.28029 0,2.14551 -0.57261,3.92323 -1.72206,5.33736 -1.14944,1.41202 -2.5947,2.11592 -4.33577,2.11592 -1.07761,0 -2.10662,-0.29593 -3.0828,-0.88145 -0.98041,-0.58553 -1.72417,-1.45008 -2.23339,-2.58519 -0.50922,-1.13511 -0.767,-2.51543 -0.767,-4.1494" />
    <path
       id="path11962"
       style="fill:#ffffff;fill-opacity:1;fill-rule:nonzero;stroke:none"
       d="m -180.30494,440.20468 c 0,1.59594 0.262,2.77121 0.7839,3.5343 0.52613,0.76097 1.16424,1.13934 1.91856,1.13934 0.72263,0 1.32482,-0.34878 1.80446,-1.04845 0.47964,-0.69755 0.72052,-1.84324 0.72052,-3.43916 0,-1.48812 -0.24511,-2.59364 -0.74165,-3.31235 -0.49654,-0.72079 -1.1093,-1.08226 -1.84038,-1.08226 -0.75644,0 -1.39032,0.35511 -1.8932,1.06114 -0.50077,0.71023 -0.75221,1.76078 -0.75221,3.14744 m -3.08068,-6.85083 2.9053,0 0,2.07998 c 0.37399,-0.71024 0.88322,-1.28731 1.52767,-1.73543 0.64022,-0.44392 1.3544,-0.66798 2.1383,-0.66798 1.36285,0 2.52286,0.64895 3.4758,1.93836 0.95295,1.29155 1.42836,3.09251 1.42836,5.39866 0,2.36748 -0.48175,4.20649 -1.43892,5.52128 -0.96139,1.31056 -2.1214,1.97007 -3.49059,1.97007 -0.64868,0 -1.23608,-0.15423 -1.76643,-0.46715 -0.52613,-0.31285 -1.08606,-0.84764 -1.66501,-1.60438 l 0,7.14889 -3.11448,0 0,-19.5823 z" />
    <path
       id="path11966"
       style="fill:#ffffff;fill-opacity:1;fill-rule:nonzero;stroke:none"
       d="m -162.44946,439.22937 c -0.0211,-1.08648 -0.25567,-1.91298 -0.69939,-2.4795 -0.44372,-0.56439 -0.98041,-0.84764 -1.61641,-0.84764 -0.67825,0 -1.2403,0.30017 -1.68402,0.89626 -0.44372,0.59611 -0.66135,1.4057 -0.6529,2.43088 l 4.65272,0 z m -0.17538,3.7943 3.09759,0.6278 c -0.39724,1.36974 -1.02901,2.41608 -1.88687,3.13055 -0.86208,0.71869 -1.93757,1.07804 -3.22859,1.07804 -2.04533,0 -3.56032,-0.80748 -4.54284,-2.42031 -0.77545,-1.29154 -1.16424,-2.92128 -1.16424,-4.88925 0,-2.35056 0.51134,-4.18957 1.53189,-5.52338 1.01633,-1.32747 2.30523,-1.99543 3.86248,-1.99543 1.75163,0 3.1335,0.69755 4.14349,2.09055 1.00999,1.39511 1.49808,3.53006 1.45371,6.40483 l -7.7989,0 c 0.0191,1.11188 0.27257,1.98066 0.75221,2.59789 0.48176,0.61723 1.07972,0.93008 1.7939,0.93008 0.48809,0 0.898,-0.16285 1.23185,-0.48407 0.33173,-0.31495 0.58106,-0.83706 0.75432,-1.5473" />
    <path
       id="path11970"
       style="fill:#ffffff;fill-opacity:1;fill-rule:nonzero;stroke:none"
       d="m -151.43002,433.35217 0,2.99104 -2.12563,0 0,5.71996 c 0,1.15414 0.0189,1.83267 0.0612,2.0208 l 0.27468,0.47561 0.52824,0.18812 c 0.28736,0 0.70573,-0.1226 1.25087,-0.36146 l 0.26623,2.91072 c -0.72263,0.37203 -1.54457,0.56227 -2.45947,0.56227 -0.55994,0 -1.06916,-0.11415 -1.5171,-0.34244 -0.45217,-0.22618 -0.78179,-0.52211 -0.99098,-0.87934 -0.21129,-0.36146 -0.35497,-0.84975 -0.43738,-1.46487 -0.0676,-0.43544 -0.0994,-1.3169 -0.0994,-2.64226 l 0,-6.18711 -1.42835,0 0,-2.99104 1.42835,0 0,-2.8177 3.12294,-2.19202 0,5.00972 2.12563,0 z" />
    <path
       id="path11974"
       style="fill:#ffffff;fill-opacity:1;fill-rule:nonzero;stroke:none"
       d="m -146.29046,447.53751 -3.11238,0 0,-14.18365 2.89263,0 0,2.01446 c 0.49443,-0.9491 0.93815,-1.58324 1.33116,-1.8834 0.39723,-0.30016 0.84518,-0.45447 1.35017,-0.45447 0.70575,0 1.38823,0.23675 2.04747,0.70813 l -0.96351,3.27217 c -0.52612,-0.40797 -1.01212,-0.61301 -1.46218,-0.61301 -0.43738,0 -0.80503,0.14594 -1.10507,0.43122 -0.30638,0.29171 -0.54303,0.81593 -0.71629,1.57267 -0.17326,0.75675 -0.262,2.33999 -0.262,4.75818 l 0,4.3777 z" />
    <path
       id="path11978"
       style="fill:#ffffff;fill-opacity:1;fill-rule:nonzero;stroke:none"
       d="m -140.4416,433.3517 3.11027,0 0,14.18364 -3.11027,0 0,-14.18364 z m 0,-5.39655 3.11027,0 0,3.4751 -3.11027,0 0,-3.4751 z" />
    <path
       id="path11982"
       style="fill:#ffffff;fill-opacity:1;fill-rule:nonzero;stroke:none"
       d="m -127.64915,440.72682 c -0.39724,0.15845 -1.02901,0.34878 -1.89321,0.57496 -0.86419,0.22195 -1.42835,0.44178 -1.6967,0.64894 -0.40568,0.34877 -0.60853,0.79056 -0.60853,1.32535 0,0.52423 0.16262,0.97869 0.4881,1.36341 0.32539,0.3826 0.73742,0.57495 1.2403,0.57495 0.56204,0 1.09662,-0.22617 1.60584,-0.67007 0.37822,-0.3361 0.62543,-0.75041 0.74376,-1.24081 0.0783,-0.31918 0.12052,-0.93007 0.12052,-1.82633 l 0,-0.7504 z m -4.16463,-3.04811 -2.8229,-0.613 c 0.31483,-1.37398 0.8642,-2.38649 1.63965,-3.04811 0.77334,-0.6574 1.92701,-0.98504 3.45467,-0.98504 1.3861,0 2.42144,0.19447 3.10181,0.59398 0.68037,0.39529 1.15579,0.89837 1.4347,1.50715 0.27679,0.61089 0.41414,1.72909 0.41414,3.36306 l -0.0318,4.3777 c 0,1.24714 0.0487,2.16665 0.1479,2.76274 0.0994,0.58976 0.28525,1.2239 0.55782,1.90032 l -3.07857,0 c -0.0803,-0.24732 -0.1796,-0.61935 -0.29792,-1.10764 l -0.1119,-0.44178 c -0.53247,0.62357 -1.09874,1.09283 -1.70727,1.40145 -0.60219,0.31496 -1.24875,0.46715 -1.93546,0.46715 -1.21072,0 -2.16577,-0.39528 -2.86305,-1.18796 -0.69727,-0.79268 -1.04802,-1.79251 -1.04802,-3.00372 0,-0.80113 0.16058,-1.51348 0.47541,-2.14551 0.31694,-0.6278 0.767,-1.10764 1.33539,-1.44373 0.57261,-0.33398 1.39666,-0.62357 2.47426,-0.873 1.45582,-0.32764 2.4637,-0.63415 3.02575,-0.91951 l 0,-0.37837 c 0,-0.71658 -0.14791,-1.23446 -0.44372,-1.54097 -0.2937,-0.30861 -0.85152,-0.46081 -1.66923,-0.46081 -0.55782,0 -0.98675,0.12903 -1.29736,0.39529 -0.3106,0.25999 -0.56204,0.72292 -0.75432,1.38031" />
    <path
       id="path11986"
       style="fill:#ffdb00;fill-opacity:1;fill-rule:nonzero;stroke:none"
       d="m -235.08847,480.73271 0,-16.26997 -4.81964,0 0,-3.31233 12.90379,0 0,3.31233 -4.80485,0 0,16.26997 -3.2793,0 z" />
    <path
       id="path11990"
       style="fill:#ffdb00;fill-opacity:1;fill-rule:nonzero;stroke:none"
       d="m -221.60932,464.46274 0,5.55931 1.79389,0 c 1.29524,0 2.15521,-0.10146 2.59471,-0.30861 0.43315,-0.20081 0.77545,-0.52634 1.02267,-0.96179 0.24721,-0.43544 0.37188,-0.94698 0.37188,-1.52405 0,-0.71024 -0.17327,-1.29999 -0.51979,-1.76291 -0.34652,-0.46081 -0.78813,-0.75252 -1.31848,-0.86667 -0.39512,-0.0888 -1.17903,-0.13528 -2.36017,-0.13528 l -1.58471,0 z m -3.2793,16.26997 0,-19.5823 5.26336,0 c 1.99251,0 3.29198,0.0993 3.89839,0.29593 0.9297,0.29382 1.70938,0.93219 2.33693,1.91511 0.62754,0.98503 0.94026,2.25754 0.94026,3.8133 0,1.20487 -0.18171,2.21105 -0.54092,3.0312 -0.36342,0.82227 -0.82405,1.46276 -1.37975,1.93414 -0.55782,0.46503 -1.12198,0.77365 -1.70093,0.92796 -0.78179,0.18813 -1.91644,0.27691 -3.39973,0.27691 l -2.13831,0 0,7.38775 -3.2793,0 z" />
    <path
       id="path11994"
       style="fill:#ffdb00;fill-opacity:1;fill-rule:nonzero;stroke:none"
       d="m -207.04284,470.92823 c 0,2.21739 0.4247,3.89786 1.27411,5.04143 0.84729,1.14569 1.92701,1.71641 3.23492,1.71641 1.30369,0 2.37707,-0.5665 3.21803,-1.70161 0.83673,-1.13512 1.25509,-2.83884 1.25509,-5.10907 0,-2.24486 -0.4078,-3.91689 -1.2234,-5.02241 -0.81771,-1.10552 -1.90165,-1.65722 -3.24972,-1.65722 -1.3544,0 -2.44257,0.55804 -3.26662,1.67625 -0.83039,1.11609 -1.24241,2.80502 -1.24241,5.05622 m -3.38072,0.13309 c 0,-1.99121 0.24932,-3.66957 0.74376,-5.02241 0.36976,-0.9956 0.87264,-1.88974 1.51075,-2.68665 0.63812,-0.78844 1.34173,-1.37608 2.10028,-1.76291 1.01421,-0.51365 2.17845,-0.77154 3.49904,-0.77154 2.39398,0 4.30831,0.89625 5.74512,2.68454 1.4368,1.78616 2.1552,4.27834 2.1552,7.46596 0,3.16014 -0.71417,5.63541 -2.14041,7.42158 -1.42413,1.78405 -3.33001,2.67608 -5.71342,2.67608 -2.41299,0 -4.33578,-0.88569 -5.76202,-2.6634 -1.42413,-1.77771 -2.1383,-4.2255 -2.1383,-7.34125" />
    <path
       id="path11998"
       style="fill:#ffdb00;fill-opacity:1;fill-rule:nonzero;stroke:none"
       d="m -189.39866,470.92823 c 0,2.21739 0.4247,3.89786 1.27411,5.04143 0.84729,1.14569 1.92701,1.71641 3.23493,1.71641 1.30369,0 2.37707,-0.5665 3.21802,-1.70161 0.83673,-1.13512 1.25721,-2.83884 1.25721,-5.10907 0,-2.24486 -0.40992,-3.91689 -1.22551,-5.02241 -0.81349,-1.10552 -1.89955,-1.65722 -3.24972,-1.65722 -1.35229,0 -2.44257,0.55804 -3.26662,1.67625 -0.83039,1.11609 -1.24242,2.80502 -1.24242,5.05622 m -3.37649,0.13309 c 0,-1.99121 0.2451,-3.66957 0.73953,-5.02241 0.36977,-0.9956 0.87265,-1.88974 1.51076,-2.68665 0.63811,-0.78844 1.34172,-1.37608 2.10027,-1.76291 1.01422,-0.51365 2.18057,-0.77154 3.50116,-0.77154 2.39186,0 4.30831,0.89625 5.743,2.68454 1.43681,1.78616 2.15521,4.27834 2.15521,7.46596 0,3.16014 -0.71418,5.63541 -2.14042,7.42158 -1.42413,1.78405 -3.33001,2.67608 -5.71342,2.67608 -2.41299,0 -4.33577,-0.88569 -5.76201,-2.6634 -1.42413,-1.77771 -2.13408,-4.2255 -2.13408,-7.34125" />
    <path
       id="path12002"
       style="fill:#ffdb00;fill-opacity:1;fill-rule:nonzero;stroke:none"
       d="m -165.05282,477.43286 -3.65541,-11.71049 -3.54553,11.71049 7.20094,0 z m 4.61891,3.29965 -16.29296,0 6.32195,-19.58231 3.46946,0 6.50155,19.58231 z" />
    <path
       id="path12006"
       style="fill:#ffdb00;fill-opacity:1;fill-rule:nonzero;stroke:none"
       d="m -156.66887,470.92823 c 0,2.21739 0.4247,3.89786 1.27411,5.04143 0.84729,1.14569 1.92701,1.71641 3.23493,1.71641 1.30369,0 2.37706,-0.5665 3.21802,-1.70161 0.83673,-1.13512 1.2572,-2.83884 1.2572,-5.10907 0,-2.24486 -0.40991,-3.91689 -1.22551,-5.02241 -0.81771,-1.10552 -1.89954,-1.65722 -3.24971,-1.65722 -1.35229,0 -2.44258,0.55804 -3.26663,1.67625 -0.83039,1.11609 -1.24241,2.80502 -1.24241,5.05622 m -3.3765,0.13309 c 0,-1.99121 0.24511,-3.66957 0.73954,-5.02241 0.36765,-0.9956 0.87476,-1.88974 1.51076,-2.68665 0.64233,-0.78844 1.34172,-1.37608 2.10027,-1.76291 1.01422,-0.51365 2.17845,-0.77154 3.50116,-0.77154 2.39186,0 4.30619,0.89625 5.743,2.68454 1.4368,1.78616 2.15521,4.27834 2.15521,7.46596 0,3.16014 -0.71418,5.63541 -2.14042,7.42158 -1.42202,1.78405 -3.33001,2.67608 -5.71342,2.67608 -2.41299,0 -4.33577,-0.88569 -5.76202,-2.6634 -1.42412,-1.77771 -2.13408,-4.2255 -2.13408,-7.34125" />
    <path
       id="path12010"
       style="fill:#ffdb00;fill-opacity:1;fill-rule:nonzero;stroke:none"
       d="m -142.18056,461.14956 11.2409,0 0,3.31234 -7.19671,0 4.19632,6.03914 -4.62947,6.93117 7.97427,0 0,3.29966 -11.7966,0 0,-3.659 4.35479,-6.57183 -4.1435,-5.82354 0,-3.52794 z" />
    <path
       id="path12014"
       style="fill:#ffffff;fill-opacity:1;fill-rule:nonzero;stroke:none"
       d="m -235.08847,509.18391 0,-16.26997 -4.81964,0 0,-3.31234 12.90379,0 0,3.31234 -4.80485,0 0,16.26997 -3.2793,0 z" />
    <path
       id="path12018"
       style="fill:#ffffff;fill-opacity:1;fill-rule:nonzero;stroke:none"
       d="m -223.18179,509.18391 -3.11027,0 0,-14.18365 2.89052,0 0,2.01446 c 0.49443,-0.95332 0.93815,-1.58112 1.33116,-1.8834 0.39723,-0.30016 0.84518,-0.45447 1.34595,-0.45447 0.70995,0 1.39243,0.23675 2.05167,0.70813 l -0.9635,3.27217 c -0.52613,-0.40796 -1.01422,-0.613 -1.46428,-0.613 -0.43315,0 -0.80503,0.14171 -1.10507,0.43333 -0.30427,0.28959 -0.54092,0.81381 -0.71418,1.57056 -0.17326,0.75674 -0.262,2.33998 -0.262,4.75395 l 0,4.38192 z" />
    <path
       id="path12022"
       style="fill:#ffffff;fill-opacity:1;fill-rule:nonzero;stroke:none"
       d="m -214.86247,502.09293 c 0,1.40357 0.27891,2.48373 0.83039,3.23413 0.5536,0.74617 1.23608,1.12031 2.04956,1.12031 0.81138,0 1.49175,-0.37414 2.04534,-1.12031 0.54725,-0.7504 0.82194,-1.8369 0.82194,-3.26372 0,-1.39089 -0.27469,-2.45624 -0.82194,-3.20453 -0.55359,-0.7504 -1.23396,-1.12455 -2.04534,-1.12455 -0.81348,0 -1.49596,0.37415 -2.04956,1.12455 -0.55148,0.74829 -0.83039,1.82633 -0.83039,3.23412 m -3.19055,-0.20292 c 0,-1.24715 0.25567,-2.45202 0.76489,-3.61884 0.50922,-1.16682 1.23185,-2.05673 2.16366,-2.67185 0.93603,-0.61301 1.97983,-0.92162 3.12928,-0.92162 1.78121,0 3.23704,0.69967 4.3738,2.09478 1.13677,1.39089 1.70727,3.14957 1.70727,5.27818 0,2.14762 -0.57261,3.92534 -1.72206,5.33947 -1.14944,1.41202 -2.5947,2.11592 -4.33577,2.11592 -1.07972,0 -2.10661,-0.29593 -3.08491,-0.88357 -0.97829,-0.58764 -1.72205,-1.44796 -2.23127,-2.58518 -0.50922,-1.133 -0.76489,-2.51755 -0.76489,-4.14729" />
    <path
       id="path12026"
       style="fill:#ffffff;fill-opacity:1;fill-rule:nonzero;stroke:none"
       d="m -201.00699,502.09293 c 0,1.40357 0.27891,2.48373 0.83039,3.23413 0.55359,0.74617 1.23608,1.12031 2.04956,1.12031 0.81138,0 1.49386,-0.37414 2.04534,-1.12031 0.54937,-0.7504 0.82194,-1.8369 0.82194,-3.26372 0,-1.39089 -0.27257,-2.45624 -0.82194,-3.20453 -0.55148,-0.7504 -1.23396,-1.12455 -2.04534,-1.12455 -0.81348,0 -1.49597,0.37415 -2.04956,1.12455 -0.55148,0.74829 -0.83039,1.82633 -0.83039,3.23412 m -3.19055,-0.20292 c 0,-1.24715 0.25566,-2.45202 0.76277,-3.61884 0.51134,-1.16682 1.23396,-2.05673 2.17,-2.67185 0.9297,-0.61301 1.97561,-0.92162 3.12928,-0.92162 1.77699,0 3.23704,0.69967 4.37381,2.09478 1.13677,1.39089 1.70304,3.14957 1.70304,5.27818 0,2.14762 -0.57261,3.92534 -1.71995,5.33947 -1.15155,1.41202 -2.59259,2.11592 -4.33788,2.11592 -1.07972,0 -2.10661,-0.29593 -3.08491,-0.88357 -0.9783,-0.58764 -1.72205,-1.44796 -2.23339,-2.58518 -0.50711,-1.133 -0.76277,-2.51755 -0.76277,-4.14729" />
    <path
       id="path12030"
       style="fill:#ffffff;fill-opacity:1;fill-rule:nonzero;stroke:none"
       d="m -187.13927,501.78454 c 0,1.51348 0.17326,2.60843 0.51978,3.28697 0.50077,0.97869 1.20227,1.46698 2.10661,1.46698 0.71418,0 1.32271,-0.36569 1.82771,-1.10341 0.50077,-0.73349 0.75009,-1.82844 0.75009,-3.2912 0,-1.62763 -0.24087,-2.8029 -0.73108,-3.51949 -0.48386,-0.71658 -1.1093,-1.07592 -1.86996,-1.07592 -0.73953,0 -1.35651,0.35512 -1.85728,1.06324 -0.49866,0.70601 -0.74587,1.76503 -0.74587,3.17283 m 8.30812,7.40043 -2.89052,0 0,-2.08632 c -0.48175,0.81381 -1.05013,1.41413 -1.70092,1.80942 -0.6529,0.3995 -1.31426,0.5982 -1.97772,0.5982 -1.35018,0 -2.51019,-0.65739 -3.47369,-1.97641 -0.96351,-1.30633 -1.44526,-3.14323 -1.44526,-5.49378 0,-2.39917 0.47119,-4.23184 1.40722,-5.47899 0.93815,-1.2556 2.12563,-1.87917 3.5561,-1.87917 1.31425,0 2.45102,0.65951 3.4103,1.97852 l 0,-7.05377 3.11449,0 0,19.5823 z" />
    <path
       id="path12034"
       style="fill:#ffffff;fill-opacity:1;fill-rule:nonzero;stroke:none"
       d="m -173.29461,502.09293 c 0,1.40357 0.27891,2.48373 0.82827,3.23413 0.55571,0.74617 1.23819,1.12031 2.05168,1.12031 0.81137,0 1.49385,-0.37414 2.04533,-1.12031 0.54726,-0.7504 0.82406,-1.8369 0.82406,-3.26372 0,-1.39089 -0.2768,-2.45624 -0.82406,-3.20453 -0.55148,-0.7504 -1.23396,-1.12455 -2.04533,-1.12455 -0.81349,0 -1.49597,0.37415 -2.05168,1.12455 -0.54936,0.74829 -0.82827,1.82633 -0.82827,3.23412 m -3.19056,-0.20292 c 0,-1.24715 0.25567,-2.45202 0.76489,-3.61884 0.50922,-1.16682 1.23185,-2.05673 2.16366,-2.67185 0.93604,-0.61301 1.97984,-0.92162 3.12928,-0.92162 1.78122,0 3.23704,0.69967 4.37381,2.09478 1.14099,1.39089 1.70726,3.14957 1.70726,5.27818 0,2.14762 -0.57261,3.92534 -1.71994,5.33947 -1.15156,1.41202 -2.59259,2.11592 -4.33789,2.11592 -1.07549,0 -2.10661,-0.29593 -3.08279,-0.88357 -0.98041,-0.58764 -1.72417,-1.44796 -2.23339,-2.58518 -0.50922,-1.133 -0.76489,-2.51755 -0.76489,-4.14729" />
    <path
       id="path12038"
       style="fill:#ffffff;fill-opacity:1;fill-rule:nonzero;stroke:none"
       d="m -163.00475,505.13661 3.12506,-0.57495 c 0.13303,0.73137 0.40146,1.28519 0.80926,1.66356 0.40357,0.37837 0.97407,0.56862 1.70303,0.56862 0.80715,0 1.41146,-0.17968 1.81714,-0.5348 0.27469,-0.24943 0.40991,-0.58552 0.40991,-1.00194 l -0.21974,-0.70813 c -0.15433,-0.17544 -0.505,-0.34243 -1.0438,-0.49463 -2.51019,-0.66796 -4.10124,-1.27885 -4.77316,-1.82844 -0.92969,-0.76309 -1.39666,-1.83267 -1.39666,-3.19396 0,-1.22812 0.40358,-2.25966 1.20861,-3.10096 0.80504,-0.83284 2.05379,-1.25349 3.74415,-1.25349 1.60796,0 2.80811,0.31496 3.5899,0.9491 0.78179,0.62992 1.3206,1.56634 1.61641,2.80503 l -2.93489,0.65316 c -0.12677,-0.5517 -0.36554,-0.97446 -0.71629,-1.26828 -0.34863,-0.29382 -0.8494,-0.44179 -1.50019,-0.44179 -0.81983,0 -1.40511,0.13951 -1.7622,0.41642 -0.23665,0.19447 -0.35498,0.44813 -0.35498,0.76309 l 0.31272,0.67641 c 0.27891,0.24943 1.24875,0.60033 2.9053,1.05691 1.65867,0.45658 2.81657,1.01251 3.47369,1.66991 0.65079,0.67007 0.97408,1.60015 0.97408,2.79022 0,1.30211 -0.44795,2.42031 -1.35018,3.3525 -0.90012,0.93641 -2.2355,1.40568 -3.99982,1.40568 -1.60161,0 -2.86727,-0.39317 -3.80331,-1.17528 -0.93392,-0.78422 -1.54456,-1.84958 -1.83404,-3.19396" />
    <path
       id="path12042"
       style="fill:#f5f5f5;fill-opacity:1;fill-rule:nonzero;stroke:none"
       d="m -11.269146,365.24341 0,-6.49573 -3.619484,6.49573 3.619484,0 z m 0,7.02629 0,-3.82388 -6.448725,0 0,-3.19184 6.839621,-12.06984 2.5355402,0 0,12.05927 1.956592,0 0,3.20241 -1.956592,0 0,3.82388 -2.9264362,0 z" />
    <path
       id="path12046"
       style="fill:#f5f5f5;fill-opacity:1;fill-rule:nonzero;stroke:none"
       d="m -15.243792,434.91766 0,3.38632 -10.59222,0 c 0.114099,-1.28097 0.456397,-2.4943 1.033233,-3.64209 0.572609,-1.14569 1.70515,-2.66129 3.395511,-4.55526 1.362853,-1.53251 2.197468,-2.56827 2.508072,-3.11363 0.412025,-0.75041 0.621207,-1.49658 0.621207,-2.23007 0,-0.81382 -0.181713,-1.43739 -0.540915,-1.87495 -0.367653,-0.43544 -0.864197,-0.65105 -1.500195,-0.65105 -0.633885,0 -1.134654,0.22618 -1.506533,0.68699 -0.373993,0.45869 -0.589514,1.21755 -0.64445,2.2808 l -3.010955,-0.36147 c 0.179601,-2.00811 0.741646,-3.4455 1.688248,-4.3185 0.946602,-0.87723 2.129854,-1.31268 3.547644,-1.31268 1.555131,0 2.776416,0.5052 3.665969,1.51772 0.889552,1.01251 1.335384,2.26811 1.335384,3.77526 0,0.85609 -0.128805,1.66779 -0.384557,2.44567 -0.253554,0.76943 -0.655014,1.57901 -1.206494,2.42876 -0.365541,0.56228 -1.029007,1.36764 -1.979835,2.42454 -0.955054,1.05479 -1.557244,1.75657 -1.810799,2.10112 -0.255667,0.34455 -0.462736,0.68065 -0.621207,1.01252 l 6.002892,0 z" />
    <path
       id="path12050"
       style="fill:#f5f5f5;fill-opacity:1;fill-rule:nonzero;stroke:none"
       d="m -2.9977568,434.91766 0,3.38632 -10.5922202,0 c 0.116128,-1.28097 0.460623,-2.4943 1.033233,-3.64209 0.572609,-1.14569 1.705151,-2.66129 3.3997372,-4.55526 1.358627,-1.53251 2.193242,-2.56827 2.503846,-3.11363 0.416251,-0.75041 0.621208,-1.49658 0.621208,-2.23007 0,-0.81382 -0.179601,-1.43739 -0.540916,-1.87495 -0.363427,-0.43544 -0.862084,-0.65105 -1.500195,-0.65105 -0.631772,0 -1.134654,0.22618 -1.506533,0.68699 -0.373992,0.45869 -0.5895132,1.21755 -0.6444502,2.2808 l -3.010954,-0.36147 c 0.1796,-2.00811 0.743758,-3.4455 1.688247,-4.3185 0.946602,-0.87723 2.1298542,-1.31268 3.5476442,-1.31268 1.555131,0 2.776417,0.5052 3.665969,1.51772 0.889552,1.01251 1.335384,2.26811 1.335384,3.77526 0,0.85609 -0.128805,1.66779 -0.382444,2.44567 -0.255667,0.76943 -0.657127,1.57901 -1.208607,2.42876 -0.365541,0.56228 -1.026894,1.36764 -1.979835,2.42454 -0.955053,1.05479 -1.557244,1.75657 -1.810798,2.10112 -0.255667,0.34455 -0.462736,0.68065 -0.619095,1.01252 l 6.000779,0 z" />
    <path
       id="path12054"
       style="fill:#f5f5f5;fill-opacity:1;fill-rule:nonzero;stroke:none"
       d="m -19.526742,487.41403 0,-6.49573 -3.619484,6.49573 3.619484,0 z m 0,7.02841 0,-3.82599 -6.448725,0 0,-3.19185 6.839621,-12.06984 2.53554,0 0,12.05927 1.956592,0 0,3.20242 -1.956592,0 0,3.82599 -2.926436,0 z" />
    <path
       id="path12058"
       style="fill:#f5f5f5;fill-opacity:1;fill-rule:nonzero;stroke:none"
       d="m -2.9977568,491.05485 0,3.38844 -10.5922202,0 c 0.116128,-1.28097 0.460623,-2.4943 1.033233,-3.63998 0.572609,-1.14568 1.705151,-2.6634 3.3997372,-4.55525 1.358627,-1.5304 2.193242,-2.56828 2.503846,-3.11364 0.416251,-0.7504 0.621208,-1.49658 0.621208,-2.23007 0,-0.81381 -0.179601,-1.43739 -0.540916,-1.87706 -0.363427,-0.43333 -0.862084,-0.65316 -1.500195,-0.65316 -0.631772,0 -1.134654,0.22829 -1.506533,0.69121 -0.373992,0.45447 -0.5895132,1.21755 -0.6444502,2.2808 l -3.010954,-0.36569 c 0.1796,-2.006 0.743758,-3.44339 1.688247,-4.31851 0.946602,-0.873 2.1298542,-1.30422 3.5476442,-1.30422 1.555131,0 2.776417,0.50309 3.665969,1.51349 0.889552,1.01251 1.335384,2.27023 1.335384,3.77314 0,0.8561 -0.128805,1.66991 -0.382444,2.44357 -0.255667,0.77365 -0.657127,1.58324 -1.208607,2.43087 -0.365541,0.56439 -1.026894,1.36975 -1.979835,2.42665 -0.955053,1.05479 -1.557244,1.75446 -1.810798,2.10113 -0.255667,0.34455 -0.462736,0.67853 -0.619095,1.00828 l 6.000779,0 z" />
    <path
       d="m -282.89967,476.7355 14.21381,0 0,-77.83884 -14.21381,0 0,77.83884 z"
       style="fill:#ffffff;fill-opacity:1;fill-rule:evenodd;stroke:none"
       id="path12060" />
    <path
       id="path12064"
       style="fill:#ffffff;fill-opacity:1;fill-rule:evenodd;stroke:none"
       d="m -289.83689,401.4047 28.08745,0 -14.04056,-27.18355 -14.04689,27.18355 z" />
    <path
       id="path12068"
       style="fill:#ffdb00;fill-opacity:1;fill-rule:nonzero;stroke:none"
       d="m -152.82771,299.20426 3.95333,0 c 0.67614,0 1.15367,-0.0296 1.42835,-0.093 0.48175,-0.10349 0.88533,-0.27902 1.21072,-0.51999 0.3254,-0.24309 0.59163,-0.59821 0.80081,-1.06748 0.20918,-0.46292 0.31483,-1.00194 0.31483,-1.6086 0,-0.71658 -0.15213,-1.33593 -0.45428,-1.86227 -0.30427,-0.52422 -0.72475,-0.89625 -1.26144,-1.10975 -0.53669,-0.21138 -1.31214,-0.31918 -2.32213,-0.31918 l -3.67019,0 0,6.58028 z m 0,-8.83994 3.43354,0 c 0.9297,0 1.59528,-0.0739 2.00097,-0.22195 0.53246,-0.19236 0.93815,-0.50731 1.20649,-0.95333 0.27046,-0.44178 0.40569,-0.99983 0.40569,-1.6699 0,-0.63626 -0.12678,-1.1943 -0.37822,-1.67837 -0.25144,-0.48194 -0.61276,-0.81381 -1.08395,-0.99349 -0.46696,-0.17544 -1.27199,-0.26633 -2.41298,-0.26633 l -3.17154,0 0,5.78337 z m -2.10028,11.09749 0,-19.13841 5.9543,0 c 1.21283,0 2.18479,0.19447 2.91798,0.57918 0.73108,0.38683 1.30581,0.98504 1.71994,1.78828 0.41414,0.80748 0.62333,1.65089 0.62333,2.526 0,0.82016 -0.18383,1.58958 -0.55148,2.31039 -0.36977,0.72504 -0.92548,1.30845 -1.66924,1.75023 0.9614,0.34244 1.69882,0.91951 2.21649,1.73544 0.51556,0.82016 0.77334,1.78617 0.77334,2.90226 0,0.89625 -0.15636,1.72909 -0.47119,2.49852 -0.31272,0.77154 -0.7015,1.36552 -1.16423,1.78194 -0.46274,0.41642 -1.03958,0.7356 -1.73685,0.94698 -0.69516,0.2135 -1.54879,0.31919 -2.55878,0.31919 l -6.05361,0 z" />
    <path
       id="path12072"
       style="fill:#ffdb00;fill-opacity:1;fill-rule:nonzero;stroke:none"
       d="m -132.57233,288.58894 c 0,-1.34649 -0.29792,-2.42031 -0.89166,-3.21298 -0.59797,-0.79057 -1.31215,-1.18796 -2.14887,-1.18796 -0.86843,0 -1.62275,0.42699 -2.26297,1.28096 -0.64445,0.85187 -0.96351,1.95739 -0.96351,3.31657 0,1.21753 0.30215,2.20679 0.9128,2.96988 0.61064,0.76097 1.36285,1.14145 2.25874,1.14145 0.90223,0 1.64176,-0.38048 2.22282,-1.14145 0.58106,-0.76307 0.87265,-1.81788 0.87265,-3.16647 m -7.98061,8.44466 1.8763,-0.20506 c 0.15636,1.06114 0.46062,1.83268 0.90645,2.31041 0.45006,0.47771 1.02267,0.71658 1.72417,0.71658 0.59797,0 1.12198,-0.1669 1.57415,-0.49464 0.45217,-0.33186 0.81982,-0.77364 1.1093,-1.32536 0.28947,-0.55382 0.53246,-1.29999 0.72474,-2.24064 0.19439,-0.93853 0.2937,-1.89397 0.2937,-2.87053 l -0.0101,-0.47138 c -0.3909,0.75039 -0.92125,1.35707 -1.59739,1.82209 -0.67615,0.46505 -1.40511,0.69757 -2.19324,0.69757 -1.31215,0 -2.42567,-0.57497 -3.33213,-1.72275 -0.91279,-1.14993 -1.36708,-2.6634 -1.36708,-4.54469 0,-1.93836 0.47753,-3.50258 1.42413,-4.68419 0.94872,-1.18374 2.13831,-1.77983 3.56666,-1.77983 1.03324,0 1.97772,0.3361 2.83347,1.00617 0.85152,0.67008 1.50231,1.62763 1.94814,2.86421 0.44372,1.24292 0.66558,3.03754 0.66558,5.38808 0,2.4478 -0.21975,4.3946 -0.65924,5.84258 -0.44161,1.45005 -1.09662,2.55348 -1.96505,3.3102 -0.87053,0.75674 -1.8932,1.13512 -3.05955,1.13512 -1.2403,0 -2.25663,-0.41431 -3.04053,-1.24502 -0.78813,-0.83286 -1.26143,-2.00179 -1.42202,-3.50892" />
  </g>
</svg>
