<svg xmlns="http://www.w3.org/2000/svg" width="213.798" height="213.66"><path style="fill:#fff;fill-opacity:1;fill-rule:evenodd;stroke:none" d="M190.034 117.796a91.42 86.552 0 1 1-182.839 0 91.42 86.552 0 1 1 182.84 0z" transform="translate(8.042 -11.85)"/><path style="fill:#ed1d24;fill-opacity:1;fill-rule:evenodd;stroke:none" d="M303.509 617.715c46.947 0 85.557-38.472 85.557-85.406 0-47.098-38.61-85.557-85.557-85.557-47.098 0-85.557 38.46-85.557 85.557 0 46.934 38.459 85.406 85.557 85.406m0 21.339c58.823 0 106.908-48.085 106.908-106.745 0-58.842-48.085-106.915-106.908-106.915-58.811 0-106.89 48.073-106.89 106.915 0 58.66 48.079 106.745 106.89 106.745" transform="translate(-196.62 -425.394)"/><path style="fill:#fffffc;fill-opacity:1;fill-rule:nonzero;stroke:none" d="M0 0a2.812 2.812 0 1 0-5.624 0A2.812 2.812 0 0 0 0 0" transform="matrix(6.32261 0 0 -6.32261 89.364 131.206)"/><path d="M41.351 562.949c0 9.819-7.96 17.779-17.78 17.779-9.824 0-17.785-7.96-17.785-17.78 0-9.818 7.96-17.785 17.786-17.785 9.819 0 17.78 7.967 17.78 17.786z" style="fill:none;stroke:#000;stroke-width:6.0999999;stroke-linecap:butt;stroke-linejoin:miter;stroke-miterlimit:10;stroke-opacity:1;stroke-dasharray:none" transform="translate(48.013 -431.743)"/><path style="fill:#fffffc;fill-opacity:1;fill-rule:nonzero;stroke:none" d="M0 0a2.812 2.812 0 1 0-5.624 0A2.812 2.812 0 0 0 0 0" transform="matrix(6.32261 0 0 -6.32261 162.049 131.206)"/><g style="stroke-width:.94897515;stroke-miterlimit:10;stroke-dasharray:none"><path style="fill:none;stroke:#000;stroke-width:.94897515;stroke-linecap:butt;stroke-linejoin:miter;stroke-miterlimit:10;stroke-opacity:1;stroke-dasharray:none" d="M0 0a2.812 2.812 0 1 0-5.624 0A2.812 2.812 0 0 0 0 0z" transform="matrix(6.32261 0 0 -6.32261 162.049 131.206)"/></g><path style="fill:#000;fill-opacity:1;fill-rule:nonzero;stroke:none" d="M0 0v-.563h-.487s-.563.638-.788.282c-.225-.356-.45-.881 0-.863C-.825-1.125 0-1.671 0-1.671v-.617h-.766s-.654.483-.769.617c-.115.134-1.84 0-1.84 0S-3.825.225-2.7.638c1.125.412 1.65-.075 1.763 0C-.825.713 0 0 0 0" transform="matrix(6.32261 0 0 -6.32261 119.46 61.367)"/><path style="fill:#000;fill-opacity:1;fill-rule:nonzero;stroke:none" d="M0 0c-.375-.014.038-.426.038-.426H-.6s-3.148 3.012-3.825 3.053c-.677.041-3.15-2.378-3.187-3.053-.038-.675 1.762-1.529 1.762-1.529S-4.125.474-3.75.436C-3.375.399-.6-1.289-.787-1.514c-.188-.225-.488-1.113-.488-1.113h-.848s-.225.551-.502.701c-.274.15-3.562-.48-3.562-.48l-.038.451-.45.179-.3.675s-.45.375-.825.262c-.375-.112-1.012-1.162-1.012-1.312 0-.15-3.225-.15-3.225-.15v-.825h2.587l.108-.057a3.459 3.459 0 0 0 2.967-3.419c0-.29-.044-.567-.112-.837h4.275l.032.069c-.009.106-.032.209-.032.318a3.937 3.937 0 0 0 3.937 3.938c.169 0 .33-.029.495-.05h.443v1.613S.375.014 0 0" transform="matrix(6.32261 0 0 -6.32261 134.635 88.544)"/></svg>