<svg xmlns="http://www.w3.org/2000/svg" width="106.096" height="412.79"><defs><clipPath clipPathUnits="userSpaceOnUse" id="b"><path d="M203.74 34.449h34.845v112.243H203.74V34.449z"/></clipPath><clipPath clipPathUnits="userSpaceOnUse" id="a"><path d="M0 0h311v595H0V0z"/></clipPath></defs><g clip-path="url(#a)" transform="matrix(3.8421 0 0 -3.8421 -797.293 552.643)"><path d="m0 0-13.807-13.437V-1.44L.212 11.996 13.807-1.44v-11.997L0 0z" style="fill:#ed1d24;fill-opacity:1;fill-rule:nonzero;stroke:none" transform="translate(221.322 100.958)"/><path d="m0 0-13.807-13.437v11.998L.212 11.995 13.807-1.439v-11.998L0 0z" style="fill:#ed1d24;fill-opacity:1;fill-rule:nonzero;stroke:none" transform="translate(221.322 74.837)"/><path d="m0 0-13.807-13.434v11.995L.212 11.997 13.807-1.439v-11.995L0 0z" style="fill:#ed1d24;fill-opacity:1;fill-rule:nonzero;stroke:none" transform="translate(221.322 49.834)"/></g><g clip-path="url(#b)" transform="matrix(3.8421 0 0 -3.8421 -797.293 552.643)"><path d="M0 0c0-7.088-5.239-12.834-11.702-12.834-6.462 0-11.702 5.746-11.702 12.834 0 7.088 5.24 12.834 11.702 12.834C-5.239 12.834 0 7.088 0 0" style="fill:#007ac2;fill-opacity:1;fill-rule:evenodd;stroke:none" transform="translate(233.22 131.005)"/><path d="m0 0-3.911-2.88-1.327 4.957 1.61-.638 3.496 12.235 2.796-1.311L-1.609.639 0 0z" style="fill:#fff;fill-opacity:1;fill-rule:evenodd;stroke:none" transform="translate(218.515 125.757)"/><path d="m0 0 3.911-2.88 1.328 4.957-1.61-.638L.133 13.674l-2.797-1.311L1.609.639 0 0z" style="fill:#fff;fill-opacity:1;fill-rule:evenodd;stroke:none" transform="translate(224.521 125.757)"/></g></svg>