<?xml version="1.0" encoding="UTF-8" standalone="no"?>
<!-- Created with Inkscape (http://www.inkscape.org/) -->

<svg
   xmlns:dc="http://purl.org/dc/elements/1.1/"
   xmlns:cc="http://creativecommons.org/ns#"
   xmlns:rdf="http://www.w3.org/1999/02/22-rdf-syntax-ns#"
   xmlns:svg="http://www.w3.org/2000/svg"
   xmlns="http://www.w3.org/2000/svg"
   xmlns:sodipodi="http://sodipodi.sourceforge.net/DTD/sodipodi-0.dtd"
   xmlns:inkscape="http://www.inkscape.org/namespaces/inkscape"
   width="213.55592"
   height="213.41776"
   id="svg4205"
   version="1.1"
   inkscape:version="0.47 r22583"
   sodipodi:docname="Cyprus road sign no horn.svg">
  <defs
     id="defs4207">
    <inkscape:perspective
       sodipodi:type="inkscape:persp3d"
       inkscape:vp_x="0 : 526.18109 : 1"
       inkscape:vp_y="0 : 1000 : 0"
       inkscape:vp_z="744.09448 : 526.18109 : 1"
       inkscape:persp3d-origin="372.04724 : 350.78739 : 1"
       id="perspective4213" />
    <inkscape:perspective
       id="perspective4228"
       inkscape:persp3d-origin="106.21 : 70.796666 : 1"
       inkscape:vp_z="212.42 : 106.195 : 1"
       inkscape:vp_y="0 : 1000 : 0"
       inkscape:vp_x="0 : 106.195 : 1"
       sodipodi:type="inkscape:persp3d" />
    <clipPath
       id="clipPath16">
      <path
         inkscape:connector-curvature="0"
         d="M 0.059998,169.98 H 170 V 0.06 H 0.059998 v 169.92 z"
         id="path18" />
    </clipPath>
    <inkscape:perspective
       id="perspective4247"
       inkscape:persp3d-origin="0.5 : 0.33333333 : 1"
       inkscape:vp_z="1 : 0.5 : 1"
       inkscape:vp_y="0 : 1000 : 0"
       inkscape:vp_x="0 : 0.5 : 1"
       sodipodi:type="inkscape:persp3d" />
    <clipPath
       clipPathUnits="userSpaceOnUse"
       id="clipPath3426">
      <path
         d="m 43.076,488.976 34.845,0 0,34.015 -34.845,0 0,-34.015 z"
         id="path3428" />
    </clipPath>
    <inkscape:perspective
       id="perspective4323"
       inkscape:persp3d-origin="0.5 : 0.33333333 : 1"
       inkscape:vp_z="1 : 0.5 : 1"
       inkscape:vp_y="0 : 1000 : 0"
       inkscape:vp_x="0 : 0.5 : 1"
       sodipodi:type="inkscape:persp3d" />
    <clipPath
       clipPathUnits="userSpaceOnUse"
       id="clipPath2896">
      <path
         d="m 102.752,490.181 34.845,0 0,34.016 -34.845,0 0,-34.016 z"
         id="path2898" />
    </clipPath>
    <inkscape:perspective
       id="perspective5249"
       inkscape:persp3d-origin="0.5 : 0.33333333 : 1"
       inkscape:vp_z="1 : 0.5 : 1"
       inkscape:vp_y="0 : 1000 : 0"
       inkscape:vp_x="0 : 0.5 : 1"
       sodipodi:type="inkscape:persp3d" />
    <inkscape:perspective
       id="perspective5326"
       inkscape:persp3d-origin="0.5 : 0.33333333 : 1"
       inkscape:vp_z="1 : 0.5 : 1"
       inkscape:vp_y="0 : 1000 : 0"
       inkscape:vp_x="0 : 0.5 : 1"
       sodipodi:type="inkscape:persp3d" />
    <clipPath
       clipPathUnits="userSpaceOnUse"
       id="clipPath3128">
      <path
         d="m 164.704,490.181 34.845,0 0,34.016 -34.845,0 0,-34.016 z"
         id="path3130" />
    </clipPath>
    <inkscape:perspective
       id="perspective5450"
       inkscape:persp3d-origin="0.5 : 0.33333333 : 1"
       inkscape:vp_z="1 : 0.5 : 1"
       inkscape:vp_y="0 : 1000 : 0"
       inkscape:vp_x="0 : 0.5 : 1"
       sodipodi:type="inkscape:persp3d" />
    <clipPath
       clipPathUnits="userSpaceOnUse"
       id="clipPath3318">
      <path
         d="m 224.23,490.181 34.845,0 0,34.016 -34.845,0 0,-34.016 z"
         id="path3320" />
    </clipPath>
    <inkscape:perspective
       id="perspective5517"
       inkscape:persp3d-origin="0.5 : 0.33333333 : 1"
       inkscape:vp_z="1 : 0.5 : 1"
       inkscape:vp_y="0 : 1000 : 0"
       inkscape:vp_x="0 : 0.5 : 1"
       sodipodi:type="inkscape:persp3d" />
    <clipPath
       clipPathUnits="userSpaceOnUse"
       id="clipPath2936">
      <path
         d="m 43.087,413.859 34.845,0 0,34.016 -34.845,0 0,-34.016 z"
         id="path2938" />
    </clipPath>
    <inkscape:perspective
       id="perspective5617"
       inkscape:persp3d-origin="0.5 : 0.33333333 : 1"
       inkscape:vp_z="1 : 0.5 : 1"
       inkscape:vp_y="0 : 1000 : 0"
       inkscape:vp_x="0 : 0.5 : 1"
       sodipodi:type="inkscape:persp3d" />
    <clipPath
       clipPathUnits="userSpaceOnUse"
       id="clipPath3572">
      <path
         d="m 102.752,413.859 34.845,0 0,34.016 -34.845,0 0,-34.016 z"
         id="path3574" />
    </clipPath>
    <inkscape:perspective
       id="perspective5745"
       inkscape:persp3d-origin="0.5 : 0.33333333 : 1"
       inkscape:vp_z="1 : 0.5 : 1"
       inkscape:vp_y="0 : 1000 : 0"
       inkscape:vp_x="0 : 0.5 : 1"
       sodipodi:type="inkscape:persp3d" />
    <clipPath
       clipPathUnits="userSpaceOnUse"
       id="clipPath3694">
      <path
         d="m 164.704,413.859 34.845,0 0,34.016 -34.845,0 0,-34.016 z"
         id="path3696" />
    </clipPath>
    <inkscape:perspective
       id="perspective5843"
       inkscape:persp3d-origin="0.5 : 0.33333333 : 1"
       inkscape:vp_z="1 : 0.5 : 1"
       inkscape:vp_y="0 : 1000 : 0"
       inkscape:vp_x="0 : 0.5 : 1"
       sodipodi:type="inkscape:persp3d" />
    <clipPath
       clipPathUnits="userSpaceOnUse"
       id="clipPath3500">
      <path
         d="m 224.23,413.859 34.845,0 0,34.016 -34.845,0 0,-34.016 z"
         id="path3502" />
    </clipPath>
    <inkscape:perspective
       id="perspective6067"
       inkscape:persp3d-origin="0.5 : 0.33333333 : 1"
       inkscape:vp_z="1 : 0.5 : 1"
       inkscape:vp_y="0 : 1000 : 0"
       inkscape:vp_x="0 : 0.5 : 1"
       sodipodi:type="inkscape:persp3d" />
    <clipPath
       clipPathUnits="userSpaceOnUse"
       id="clipPath3162">
      <path
         d="m 43.076,323.15 34.845,0 0,34.016 -34.845,0 0,-34.016 z"
         id="path3164" />
    </clipPath>
    <inkscape:perspective
       id="perspective6134"
       inkscape:persp3d-origin="0.5 : 0.33333333 : 1"
       inkscape:vp_z="1 : 0.5 : 1"
       inkscape:vp_y="0 : 1000 : 0"
       inkscape:vp_x="0 : 0.5 : 1"
       sodipodi:type="inkscape:persp3d" />
    <clipPath
       clipPathUnits="userSpaceOnUse"
       id="clipPath3350">
      <path
         d="m 103.255,323.15 34.845,0 0,34.016 -34.845,0 0,-34.016 z"
         id="path3352" />
    </clipPath>
  </defs>
  <sodipodi:namedview
     id="base"
     pagecolor="#ffffff"
     bordercolor="#666666"
     borderopacity="1.0"
     inkscape:pageopacity="0.0"
     inkscape:pageshadow="2"
     inkscape:zoom="2.362731"
     inkscape:cx="237.00191"
     inkscape:cy="119.56363"
     inkscape:document-units="px"
     inkscape:current-layer="layer1"
     showgrid="false"
     inkscape:window-width="1600"
     inkscape:window-height="838"
     inkscape:window-x="-8"
     inkscape:window-y="-8"
     inkscape:window-maximized="1" />
  <metadata
     id="metadata4210">
    <rdf:RDF>
      <cc:Work
         rdf:about="">
        <dc:format>image/svg+xml</dc:format>
        <dc:type
           rdf:resource="http://purl.org/dc/dcmitype/StillImage" />
        <dc:title></dc:title>
      </cc:Work>
    </rdf:RDF>
  </metadata>
  <g
     inkscape:label="Livello 1"
     inkscape:groupmode="layer"
     id="layer1"
     transform="translate(-175.27493,-427.37091)">
    <g
       id="g2940"
       transform="matrix(6.2801329,0,0,-6.2801329,282.04347,619.45882)">
      <path
         d="m 0,0 c 7.465,0 13.608,6.117 13.608,13.582 0,7.49 -6.143,13.61 -13.608,13.61 -7.491,0 -13.61,-6.12 -13.61,-13.61 C -13.61,6.117 -7.491,0 0,0"
         style="fill:#ffffff;fill-opacity:1;fill-rule:evenodd;stroke:none"
         id="path2942" />
    </g>
    <g
       id="g2944"
       transform="matrix(6.2801329,0,0,-6.2801329,282.04347,619.47389)">
      <path
         d="m 0,0 c 7.467,0 13.608,6.119 13.608,13.584 0,7.491 -6.141,13.608 -13.608,13.608 -7.491,0 -13.608,-6.117 -13.608,-13.608 C -13.608,6.119 -7.491,0 0,0 m 0,-3.394 c 9.356,0 17.004,7.648 17.004,16.978 0,9.359 -7.648,17.005 -17.004,17.005 -9.354,0 -17.001,-7.646 -17.001,-17.005 0,-9.33 7.647,-16.978 17.001,-16.978"
         style="fill:#ed1d24;fill-opacity:1;fill-rule:evenodd;stroke:none"
         id="path2946" />
    </g>
    <g
       transform="matrix(6.2891524,0,0,-6.2891524,-328.88895,2674.9193)"
       id="g3158">
      <g
         id="g3160"
         clip-path="url(#clipPath3162)">
        <g
           id="g3166"
           transform="translate(60.497604,323.14951)">
          <path
             d="m 0,0 c 9.417,0 17.098,7.68 17.098,17.095 0,9.417 -7.681,17.097 -17.098,17.097 -9.416,0 -17.096,-7.68 -17.096,-17.097 C -17.096,7.68 -9.416,0 0,0"
             style="fill:#ed1d24;fill-opacity:1;fill-rule:evenodd;stroke:none"
             id="path3168" />
        </g>
        <g
           id="g3170"
           transform="translate(68.536606,329.34171)">
          <path
             d="m 0,0 c -2.249,-1.662 -5.028,-2.644 -8.039,-2.644 -7.481,0 -13.549,6.067 -13.549,13.547 0,3.011 0.986,5.791 2.646,8.04 L -9.473,9.473 0,0 z"
             style="fill:#ffffff;fill-opacity:1;fill-rule:evenodd;stroke:none"
             id="path3172" />
        </g>
        <g
           id="g3174"
           transform="translate(60.497604,353.79269)">
          <path
             d="m 0,0 c 7.481,0 13.547,-6.067 13.547,-13.548 0,-3.009 -0.981,-5.79 -2.644,-8.039 l -9.469,9.47 -9.474,9.473 C -5.792,-0.981 -3.01,0 0,0"
             style="fill:#ffffff;fill-opacity:1;fill-rule:evenodd;stroke:none"
             id="path3176" />
        </g>
        <g
           id="g3178"
           transform="translate(58.467895,339.40849)">
          <path
             d="m 0,0 -6.644,0 c -1.164,0 -2.117,-0.951 -2.117,-2.116 l 0,10e-4 0,-0.021 c -0.41,0.721 -0.678,1.913 -0.678,3.263 0,1.347 0.268,2.541 0.678,3.263 l 0,-0.021 0,0 c 0,-1.166 0.953,-2.118 2.117,-2.118 l 4.394,0 L 0,0 z"
             style="fill:#000000;fill-opacity:1;fill-rule:evenodd;stroke:none"
             id="path3180" />
        </g>
        <g
           id="g3182"
           transform="translate(64.642502,338.9639)">
          <path
             d="m 0,0 c 0.142,0.13 0.232,0.316 0.232,0.523 0,0.39 -0.318,0.709 -0.709,0.709 l -0.755,0 -1.321,1.323 2.267,0 c 1.116,0 2.029,-0.912 2.031,-2.029 l 1.256,0 c 0.242,0.834 1.01,1.443 1.922,1.443 1.104,0 1.998,-0.894 1.998,-1.999 0,-1.103 -0.894,-1.997 -1.998,-1.997 -0.912,0 -1.68,0.608 -1.922,1.441 l -1.588,0 C 1.305,-0.749 1.173,-0.898 1.024,-1.025 L 0,0 z"
             style="fill:#000000;fill-opacity:1;fill-rule:evenodd;stroke:none"
             id="path3184" />
        </g>
        <g
           id="g3186"
           transform="translate(55.669601,338.7998)">
          <path
             d="m 0,0 3.409,0 0.744,-0.744 -4.033,0 c -0.285,0 -0.516,-0.232 -0.516,-0.516 0,-0.283 0.233,-0.515 0.516,-0.515 l 5.062,0 0.744,-0.744 -5.926,0 c -0.697,0 -1.26,0.567 -1.26,1.259 l 0,0 C -1.26,-0.567 -0.697,0 0,0"
             style="fill:#000000;fill-opacity:1;fill-rule:evenodd;stroke:none"
             id="path3188" />
        </g>
      </g>
    </g>
    <g
       id="g6328"
       transform="translate(-238.41386,0.42323904)">
      <g
         transform="matrix(6.2940458,0,0,-6.2940458,457.42494,522.36677)"
         id="g3358">
        <path
           id="path3360"
           style="fill:#000000;fill-opacity:1;fill-rule:evenodd;stroke:none"
           d="m 0,0 20.036,0 c 0.68,0 1.236,-0.766 1.236,-1.701 0,-0.936 -0.556,-1.701 -1.236,-1.701 L 0,-3.401 c -0.68,0 -1.235,0.764 -1.235,1.7 C -1.235,-0.766 -0.68,0 0,0" />
      </g>
      <g
         transform="matrix(6.2940458,0,0,-6.2940458,473.60057,491.50637)"
         id="g3362">
        <path
           id="path3364"
           style="fill:#000000;fill-opacity:1;fill-rule:nonzero;stroke:none"
           d="m 0,0 -0.006,-0.124 -0.019,-0.082 -0.03,-0.046 -0.042,-0.015 -0.809,0 0,-2.605 -0.016,-0.045 -0.054,-0.033 -0.101,-0.019 -0.158,-0.008 -0.16,0.008 -0.1,0.019 -0.054,0.033 -0.017,0.045 0,2.605 -0.808,0 -0.044,0.015 -0.029,0.046 -0.019,0.082 -0.005,0.124 0.005,0.128 0.019,0.083 0.029,0.045 0.044,0.014 2.277,0 0.042,-0.014 0.03,-0.045 L -0.006,0.128 0,0 z" />
      </g>
      <g
         transform="matrix(6.2940458,0,0,-6.2940458,487.29774,507.83628)"
         id="g3366">
        <path
           id="path3368"
           style="fill:#000000;fill-opacity:1;fill-rule:nonzero;stroke:none"
           d="m 0,0 -0.002,-0.097 -0.01,-0.065 -0.016,-0.044 -0.037,-0.038 -0.11,-0.056 -0.202,-0.064 -0.251,-0.044 -0.274,-0.017 c -0.183,0 -0.341,0.017 -0.475,0.05 -0.133,0.033 -0.244,0.08 -0.332,0.141 l -0.195,0.22 -0.065,0.281 0.031,0.199 0.086,0.17 0.144,0.139 0.196,0.101 -0.177,0.094 -0.117,0.113 -0.067,0.138 -0.021,0.165 0.068,0.284 0.199,0.224 c 0.089,0.062 0.197,0.11 0.326,0.144 0.129,0.033 0.279,0.05 0.449,0.05 L -0.608,2.07 -0.376,2.025 -0.191,1.966 -0.089,1.914 -0.054,1.874 -0.039,1.828 -0.031,1.759 -0.028,1.656 -0.033,1.537 -0.047,1.466 -0.069,1.431 -0.106,1.421 -0.198,1.452 -0.348,1.519 -0.561,1.586 -0.837,1.615 -1.04,1.594 -1.177,1.536 -1.253,1.45 -1.276,1.346 l 0.028,-0.109 0.084,-0.082 0.137,-0.053 0.188,-0.019 0.374,0 0.044,-0.01 L -0.39,1.039 -0.372,0.971 -0.365,0.866 -0.372,0.766 -0.39,0.701 -0.424,0.665 -0.475,0.654 -0.879,0.654 -1.078,0.633 -1.215,0.573 -1.295,0.48 -1.322,0.362 -1.293,0.241 -1.2,0.145 -1.04,0.082 -0.802,0.06 -0.519,0.087 -0.302,0.149 -0.155,0.213 -0.07,0.242 -0.036,0.233 -0.015,0.198 -0.005,0.125 0,0 z" />
      </g>
      <g
         transform="matrix(6.2940458,0,0,-6.2940458,504.16515,508.53001)"
         id="g3370">
        <path
           id="path3372"
           style="fill:#000000;fill-opacity:1;fill-rule:nonzero;stroke:none"
           d="M 0,0 -0.005,-0.096 -0.014,-0.165 -0.029,-0.211 -0.053,-0.244 -0.1,-0.27 l -0.069,-0.021 -0.082,-0.013 -0.082,-0.003 -0.238,0.026 -0.18,0.098 -0.138,0.196 c -0.04,0.085 -0.078,0.193 -0.113,0.327 l -0.305,1.066 -0.477,-1.526 -0.032,-0.084 -0.06,-0.046 -0.107,-0.018 -0.173,-0.004 -0.188,0.008 -0.099,0.037 -0.025,0.076 0.035,0.126 0.842,2.225 -0.055,0.143 C -1.706,2.507 -1.758,2.611 -1.8,2.655 L -1.98,2.72 -2.129,2.7 -2.231,2.68 -2.258,2.688 -2.276,2.722 -2.287,2.79 -2.291,2.9 l 0.013,0.171 0.036,0.085 0.069,0.037 0.103,0.024 0.105,0.015 0.104,0.005 c 0.116,0 0.219,-0.014 0.31,-0.04 L -1.309,3.059 C -1.237,2.995 -1.174,2.908 -1.118,2.8 -1.063,2.691 -1.009,2.556 -0.96,2.392 l 0.587,-1.933 0.044,-0.123 0.044,-0.071 0.05,-0.034 0.068,-0.009 0.052,0.003 0.04,0.002 0.032,-0.006 0.024,-0.03 L -0.006,0.122 0,0 z" />
      </g>
      <g
         transform="matrix(6.2940458,0,0,-6.2940458,525.65113,502.52605)"
         id="g3374">
        <path
           id="path3376"
           style="fill:#000000;fill-opacity:1;fill-rule:nonzero;stroke:none"
           d="m 0,0 c 0,-0.212 -0.023,-0.397 -0.07,-0.555 -0.048,-0.16 -0.113,-0.292 -0.196,-0.398 -0.082,-0.105 -0.178,-0.184 -0.289,-0.237 -0.111,-0.052 -0.23,-0.078 -0.359,-0.078 l -0.234,0.023 -0.202,0.075 -0.165,0.132 -0.13,0.194 c -0.071,-0.145 -0.164,-0.252 -0.283,-0.321 -0.118,-0.069 -0.265,-0.103 -0.439,-0.103 -0.123,0 -0.24,0.025 -0.349,0.074 -0.111,0.05 -0.207,0.127 -0.29,0.23 -0.082,0.103 -0.148,0.234 -0.196,0.392 -0.048,0.158 -0.072,0.346 -0.072,0.562 l 0.024,0.274 0.059,0.26 0.078,0.233 0.085,0.189 0.071,0.132 0.055,0.073 0.088,0.037 0.202,0.013 L -2.463,1.195 -2.366,1.179 -2.314,1.154 -2.299,1.121 -2.353,1.009 -2.47,0.775 C -2.514,0.678 -2.552,0.564 -2.589,0.432 -2.624,0.301 -2.641,0.156 -2.641,-0.002 c 0,-0.129 0.008,-0.24 0.027,-0.335 l 0.076,-0.235 0.119,-0.138 0.156,-0.046 0.127,0.029 0.099,0.097 0.065,0.184 c 0.015,0.079 0.022,0.181 0.022,0.304 l 0,0.654 0.015,0.045 0.049,0.034 0.094,0.021 0.151,0.007 0.153,-0.007 0.098,-0.021 0.052,-0.034 0.015,-0.045 0,-0.654 0.018,-0.273 0.056,-0.188 0.099,-0.112 0.151,-0.041 0.155,0.049 0.115,0.145 0.073,0.234 c 0.016,0.092 0.024,0.197 0.024,0.316 0,0.166 -0.017,0.315 -0.052,0.447 -0.034,0.131 -0.074,0.245 -0.118,0.341 l -0.117,0.229 -0.052,0.114 0.012,0.032 0.05,0.027 0.096,0.017 0.154,0.006 L -0.538,1.198 -0.456,1.187 -0.4,1.167 -0.361,1.138 -0.312,1.069 -0.239,0.934 -0.157,0.746 -0.08,0.519 -0.022,0.265 0,0 z" />
      </g>
      <g
         transform="matrix(6.2940458,0,0,-6.2940458,541.33898,495.6077)"
         id="g3378">
        <path
           id="path3380"
           style="fill:#000000;fill-opacity:1;fill-rule:nonzero;stroke:none"
           d="m 0,0 -0.022,-0.299 c -0.014,-0.107 -0.037,-0.22 -0.066,-0.339 -0.029,-0.12 -0.065,-0.243 -0.108,-0.372 -0.042,-0.13 -0.09,-0.26 -0.144,-0.393 -0.055,-0.132 -0.113,-0.263 -0.178,-0.394 -0.063,-0.131 -0.118,-0.235 -0.162,-0.314 l -0.093,-0.147 -0.072,-0.045 -0.109,-0.019 -0.174,-0.004 -0.216,0.007 -0.128,0.021 -0.065,0.042 -0.033,0.066 -0.652,2.015 -0.027,0.105 -0.008,0.07 0.015,0.049 0.052,0.031 0.101,0.017 0.154,0.005 0.162,-0.006 0.096,-0.017 0.049,-0.033 0.023,-0.051 0.496,-1.651 0.011,-0.065 0.022,0.065 c 0.067,0.138 0.127,0.28 0.181,0.426 0.055,0.145 0.101,0.29 0.139,0.434 0.038,0.144 0.068,0.284 0.088,0.419 0.021,0.134 0.032,0.26 0.032,0.377 l 0.014,0.047 0.048,0.032 0.095,0.017 0.154,0.006 L -0.172,0.097 -0.07,0.08 -0.015,0.049 0,0 z" />
      </g>
      <g
         transform="matrix(6.2940458,0,0,-6.2940458,555.36721,507.83628)"
         id="g3382">
        <path
           id="path3384"
           style="fill:#000000;fill-opacity:1;fill-rule:nonzero;stroke:none"
           d="M 0,0 -0.002,-0.097 -0.012,-0.162 -0.028,-0.206 -0.064,-0.244 -0.175,-0.3 -0.377,-0.364 -0.628,-0.408 -0.902,-0.425 c -0.183,0 -0.341,0.017 -0.475,0.05 -0.132,0.033 -0.244,0.08 -0.332,0.141 l -0.195,0.22 -0.065,0.281 0.031,0.199 0.087,0.17 0.144,0.139 0.195,0.101 -0.177,0.094 -0.117,0.113 -0.067,0.138 -0.021,0.165 0.068,0.284 0.2,0.224 c 0.089,0.062 0.196,0.11 0.325,0.144 0.129,0.033 0.279,0.05 0.449,0.05 L -0.608,2.07 -0.376,2.025 -0.191,1.966 -0.089,1.914 -0.054,1.874 -0.039,1.828 -0.03,1.759 -0.028,1.656 -0.033,1.537 -0.047,1.466 -0.069,1.431 -0.105,1.421 -0.198,1.452 -0.348,1.519 -0.561,1.586 -0.837,1.615 -1.039,1.594 -1.176,1.536 -1.253,1.45 -1.276,1.346 l 0.028,-0.109 0.084,-0.082 0.138,-0.053 0.187,-0.019 0.374,0 0.044,-0.01 L -0.39,1.039 -0.371,0.971 -0.364,0.866 -0.371,0.766 -0.39,0.701 -0.424,0.665 -0.475,0.654 -0.879,0.654 -1.078,0.633 -1.215,0.573 -1.295,0.48 -1.322,0.362 -1.292,0.241 -1.2,0.145 -1.039,0.082 -0.801,0.06 -0.519,0.087 -0.302,0.149 -0.155,0.213 -0.07,0.242 -0.036,0.233 -0.015,0.198 -0.005,0.125 0,0 z" />
      </g>
      <g
         transform="matrix(6.2940458,0,0,-6.2940458,562.12387,492.5909)"
         id="g3386">
        <path
           id="path3388"
           style="fill:#000000;fill-opacity:1;fill-rule:nonzero;stroke:none"
           d="m 0,0 -0.036,-0.044 -0.06,-0.026 -0.086,-0.013 -0.115,-0.002 -0.178,0.025 -0.031,0.09 0.194,0.682 0.095,0.086 c 0.052,0.019 0.133,0.029 0.245,0.029 L 0.184,0.818 0.272,0.795 0.307,0.754 0.3,0.694 0,0 z M 0.585,-2.497 0.57,-2.671 0.533,-2.751 0.47,-2.788 0.373,-2.817 0.252,-2.836 0.123,-2.842 c -0.122,0 -0.227,0.016 -0.316,0.049 l -0.218,0.148 -0.126,0.256 c -0.027,0.104 -0.04,0.228 -0.04,0.371 l 0,1.539 0.014,0.044 0.049,0.033 0.094,0.019 0.151,0.006 0.153,-0.006 0.097,-0.019 0.053,-0.033 0.016,-0.044 0,-1.454 0.011,-0.166 0.039,-0.118 0.073,-0.069 0.114,-0.024 0.09,0.005 0.064,0.013 0.043,0.016 0.033,0.006 0.028,-0.009 0.021,-0.035 0.014,-0.07 0.005,-0.113 z" />
      </g>
      <g
         transform="matrix(6.2940458,0,0,-6.2940458,577.89354,502.61801)"
         id="g3390">
        <path
           id="path3392"
           style="fill:#000000;fill-opacity:1;fill-rule:nonzero;stroke:none"
           d="M 0,0 C 0,0.11 -0.009,0.211 -0.026,0.304 L -0.115,0.544 -0.281,0.704 -0.543,0.762 -0.786,0.71 -0.959,0.561 -1.061,0.323 C -1.083,0.231 -1.094,0.125 -1.094,0.007 c 0,-0.11 0.009,-0.211 0.028,-0.303 l 0.089,-0.241 0.165,-0.158 0.26,-0.057 0.247,0.051 0.173,0.149 0.099,0.236 C -0.011,-0.224 0,-0.118 0,0 m 0.647,0.025 c 0,-0.19 -0.025,-0.363 -0.075,-0.52 C 0.521,-0.651 0.446,-0.786 0.345,-0.899 0.243,-1.013 0.116,-1.1 -0.038,-1.161 -0.191,-1.223 -0.37,-1.254 -0.574,-1.254 c -0.198,0 -0.37,0.028 -0.517,0.083 -0.147,0.054 -0.268,0.134 -0.366,0.239 -0.096,0.105 -0.167,0.234 -0.214,0.387 -0.047,0.154 -0.07,0.328 -0.07,0.525 0,0.19 0.025,0.363 0.076,0.52 0.051,0.158 0.127,0.293 0.228,0.405 0.102,0.113 0.229,0.199 0.381,0.261 0.152,0.062 0.332,0.093 0.537,0.093 C -0.32,1.259 -0.146,1.232 0,1.177 0.146,1.123 0.267,1.044 0.363,0.939 0.459,0.834 0.53,0.705 0.576,0.552 0.623,0.398 0.647,0.223 0.647,0.025" />
      </g>
      <g
         transform="matrix(6.2940458,0,0,-6.2940458,479.77383,572.21247)"
         id="g3394">
        <path
           id="path3396"
           style="fill:#000000;fill-opacity:1;fill-rule:nonzero;stroke:none"
           d="m 0,0 -0.004,-0.106 -0.011,-0.075 -0.02,-0.053 -0.04,-0.052 -0.107,-0.073 -0.192,-0.086 -0.259,-0.069 c -0.097,-0.019 -0.203,-0.028 -0.316,-0.028 -0.222,0 -0.421,0.035 -0.599,0.103 -0.178,0.068 -0.331,0.17 -0.455,0.305 -0.125,0.136 -0.221,0.306 -0.287,0.509 -0.067,0.203 -0.101,0.439 -0.101,0.709 0,0.275 0.038,0.519 0.11,0.732 0.074,0.213 0.176,0.392 0.308,0.537 0.131,0.145 0.289,0.254 0.473,0.329 0.184,0.075 0.387,0.113 0.608,0.113 L -0.632,2.773 -0.401,2.714 -0.21,2.63 -0.091,2.549 -0.045,2.493 -0.025,2.435 -0.014,2.353 -0.011,2.235 -0.015,2.108 -0.033,2.023 -0.062,1.976 -0.102,1.961 -0.197,2.004 -0.346,2.102 -0.564,2.199 c -0.083,0.029 -0.184,0.044 -0.3,0.044 -0.129,0 -0.243,-0.026 -0.344,-0.079 L -1.465,1.939 C -1.535,1.842 -1.589,1.724 -1.625,1.586 -1.663,1.448 -1.68,1.292 -1.68,1.119 c 0,-0.19 0.018,-0.354 0.058,-0.493 0.039,-0.139 0.095,-0.253 0.167,-0.344 l 0.262,-0.201 c 0.103,-0.043 0.218,-0.066 0.346,-0.066 0.117,0 0.218,0.014 0.302,0.041 l 0.219,0.092 0.15,0.089 0.09,0.041 0.041,-0.01 L -0.02,0.227 -0.005,0.144 0,0 z" />
      </g>
      <g
         transform="matrix(6.2940458,0,0,-6.2940458,495.80861,574.75709)"
         id="g3398">
        <path
           id="path3400"
           style="fill:#000000;fill-opacity:1;fill-rule:nonzero;stroke:none"
           d="M 0,0 -0.013,-0.044 -0.056,-0.075 -0.139,-0.094 -0.268,-0.1 -0.402,-0.094 -0.483,-0.075 -0.525,-0.044 -0.538,0 l 0,0.257 c -0.123,-0.133 -0.248,-0.233 -0.375,-0.3 -0.128,-0.066 -0.26,-0.099 -0.396,-0.099 -0.153,0 -0.282,0.025 -0.386,0.075 l -0.253,0.204 c -0.063,0.087 -0.11,0.187 -0.137,0.301 -0.027,0.115 -0.041,0.256 -0.041,0.426 l 0,1.364 0.014,0.044 0.05,0.031 0.097,0.019 0.151,0.005 0.152,-0.005 0.096,-0.019 0.052,-0.031 0.015,-0.044 0,-1.259 c 0,-0.116 0.007,-0.206 0.022,-0.267 l 0.07,-0.159 0.117,-0.102 0.165,-0.037 0.241,0.088 c 0.081,0.058 0.168,0.143 0.259,0.255 l 0,1.481 0.013,0.044 0.051,0.031 0.096,0.019 0.152,0.005 L -0.161,2.322 -0.066,2.303 -0.015,2.272 0,2.228 0,0 z" />
      </g>
      <g
         transform="matrix(6.2940458,0,0,-6.2940458,509.65299,570.79637)"
         id="g3402">
        <path
           id="path3404"
           style="fill:#000000;fill-opacity:1;fill-rule:nonzero;stroke:none"
           d="m 0,0 c 0,-0.126 -0.023,-0.238 -0.071,-0.335 l -0.201,-0.242 c -0.087,-0.065 -0.19,-0.114 -0.308,-0.146 -0.117,-0.032 -0.246,-0.049 -0.384,-0.049 l -0.238,0.019 -0.204,0.048 -0.15,0.058 -0.087,0.056 -0.043,0.083 -0.014,0.166 0.004,0.116 0.016,0.07 0.024,0.035 0.038,0.009 0.081,-0.031 0.133,-0.069 0.187,-0.07 0.241,-0.033 0.151,0.018 0.115,0.05 0.073,0.082 0.025,0.115 -0.047,0.129 -0.121,0.093 -0.173,0.075 -0.197,0.078 -0.198,0.097 -0.172,0.135 -0.122,0.192 -0.047,0.27 0.064,0.294 0.179,0.228 c 0.079,0.063 0.173,0.113 0.286,0.147 0.112,0.035 0.239,0.053 0.378,0.053 L -0.578,1.726 -0.4,1.688 -0.265,1.639 -0.186,1.595 -0.152,1.557 -0.137,1.512 -0.129,1.447 -0.125,1.351 -0.129,1.241 -0.141,1.174 -0.165,1.14 -0.2,1.132 -0.269,1.158 -0.388,1.214 -0.553,1.27 -0.766,1.296 -0.914,1.279 -1.016,1.229 -1.077,1.153 l -0.02,-0.094 0.048,-0.13 0.124,-0.092 0.177,-0.075 0.2,-0.076 0.2,-0.097 L -0.172,0.455 -0.048,0.264 0,0 z" />
      </g>
      <g
         transform="matrix(6.2940458,0,0,-6.2940458,520.56114,573.37435)"
         id="g3406">
        <path
           id="path3408"
           style="fill:#000000;fill-opacity:1;fill-rule:nonzero;stroke:none"
           d="M 0,0 -0.014,-0.169 -0.05,-0.251 -0.116,-0.294 -0.219,-0.326 -0.346,-0.347 -0.485,-0.354 c -0.124,0 -0.233,0.015 -0.325,0.047 l -0.227,0.146 -0.133,0.248 c -0.028,0.101 -0.042,0.218 -0.042,0.355 l 0,1.141 -0.267,0 -0.072,0.059 -0.025,0.196 0.006,0.123 0.019,0.078 0.031,0.042 0.044,0.012 0.264,0 0,0.497 0.014,0.045 0.051,0.033 0.097,0.02 0.151,0.007 0.154,-0.007 0.096,-0.02 0.049,-0.033 0.015,-0.045 0,-0.497 0.485,0 0.044,-0.012 0.03,-0.042 L -0.007,1.961 0,1.838 -0.026,1.642 -0.097,1.583 l -0.488,0 0,-1.046 c 0,-0.122 0.019,-0.213 0.058,-0.273 l 0.205,-0.092 0.09,0.009 0.07,0.02 0.053,0.02 L -0.07,0.23 -0.041,0.221 -0.02,0.186 -0.007,0.115 0,0 z" />
      </g>
      <g
         transform="matrix(6.2940458,0,0,-6.2940458,533.21154,567.76075)"
         id="g3410">
        <path
           id="path3412"
           style="fill:#000000;fill-opacity:1;fill-rule:nonzero;stroke:none"
           d="M 0,0 C 0,0.11 -0.01,0.211 -0.026,0.303 L -0.115,0.544 -0.281,0.704 -0.543,0.762 -0.786,0.71 -0.959,0.561 -1.061,0.323 C -1.083,0.231 -1.095,0.125 -1.095,0.007 c 0,-0.11 0.01,-0.211 0.029,-0.303 l 0.089,-0.241 0.165,-0.159 0.26,-0.056 0.247,0.051 0.172,0.149 0.1,0.236 C -0.011,-0.224 0,-0.118 0,0 m 0.647,0.025 c 0,-0.19 -0.025,-0.363 -0.075,-0.52 C 0.521,-0.651 0.446,-0.786 0.344,-0.899 0.243,-1.013 0.116,-1.1 -0.038,-1.161 -0.191,-1.223 -0.37,-1.254 -0.574,-1.254 c -0.198,0 -0.371,0.028 -0.517,0.083 -0.147,0.054 -0.268,0.134 -0.366,0.239 -0.096,0.105 -0.167,0.234 -0.214,0.387 -0.047,0.154 -0.07,0.328 -0.07,0.525 0,0.19 0.025,0.363 0.076,0.52 0.051,0.158 0.127,0.293 0.228,0.405 0.102,0.113 0.229,0.199 0.381,0.261 0.152,0.061 0.332,0.093 0.537,0.093 C -0.32,1.259 -0.147,1.232 0,1.177 0.146,1.123 0.267,1.043 0.363,0.939 0.459,0.834 0.53,0.705 0.576,0.552 0.623,0.398 0.647,0.223 0.647,0.025" />
      </g>
      <g
         transform="matrix(6.2940458,0,0,-6.2940458,562.71425,574.75709)"
         id="g3414">
        <path
           id="path3416"
           style="fill:#000000;fill-opacity:1;fill-rule:nonzero;stroke:none"
           d="m 0,0 -0.015,-0.044 -0.051,-0.031 -0.095,-0.019 -0.152,-0.006 -0.155,0.006 -0.096,0.019 -0.05,0.031 -0.013,0.044 0,1.321 -0.021,0.205 -0.066,0.159 -0.11,0.102 -0.158,0.036 -0.227,-0.087 C -1.286,1.678 -1.369,1.593 -1.459,1.481 l 0,-1.481 -0.015,-0.044 -0.051,-0.031 -0.096,-0.019 -0.15,-0.006 -0.152,0.006 -0.096,0.019 -0.052,0.031 -0.015,0.044 0,1.321 -0.021,0.205 -0.063,0.159 -0.11,0.102 -0.157,0.036 -0.23,-0.087 C -2.744,1.678 -2.827,1.593 -2.914,1.481 L -2.914,0 -2.93,-0.044 -2.981,-0.075 -3.077,-0.094 -3.23,-0.1 -3.382,-0.094 -3.478,-0.075 -3.53,-0.044 -3.544,0 l 0,2.228 0.012,0.044 0.046,0.031 0.083,0.019 0.129,0.005 0.132,-0.005 0.081,-0.019 0.041,-0.031 0.013,-0.044 0,-0.258 c 0.123,0.133 0.246,0.234 0.368,0.3 0.123,0.067 0.251,0.1 0.383,0.1 l 0.247,-0.029 0.197,-0.082 0.148,-0.129 0.105,-0.167 0.196,0.185 0.19,0.126 0.187,0.072 0.192,0.024 c 0.147,0 0.273,-0.025 0.375,-0.075 L -0.173,2.092 C -0.111,2.006 -0.067,1.905 -0.04,1.791 -0.014,1.676 0,1.554 0,1.426 L 0,0 z" />
      </g>
      <g
         transform="matrix(6.2940458,0,0,-6.2940458,576.46989,570.79637)"
         id="g3418">
        <path
           id="path3420"
           style="fill:#000000;fill-opacity:1;fill-rule:nonzero;stroke:none"
           d="m 0,0 c 0,-0.126 -0.023,-0.238 -0.072,-0.335 l -0.2,-0.242 c -0.087,-0.065 -0.19,-0.114 -0.308,-0.146 -0.117,-0.032 -0.246,-0.049 -0.384,-0.049 l -0.238,0.019 -0.204,0.048 -0.15,0.058 -0.087,0.056 -0.043,0.083 -0.014,0.166 0.004,0.116 0.016,0.07 0.024,0.035 0.038,0.009 0.08,-0.031 0.134,-0.069 0.186,-0.07 0.242,-0.033 0.151,0.018 0.115,0.05 0.072,0.082 0.026,0.115 -0.047,0.129 -0.121,0.093 -0.173,0.075 -0.197,0.078 -0.198,0.097 -0.172,0.135 -0.122,0.192 -0.047,0.27 0.064,0.294 0.179,0.228 c 0.078,0.063 0.173,0.113 0.286,0.147 0.112,0.035 0.239,0.053 0.378,0.053 L -0.578,1.726 -0.4,1.688 -0.265,1.639 -0.186,1.595 -0.152,1.557 -0.137,1.512 -0.129,1.447 -0.125,1.351 -0.129,1.241 -0.141,1.174 -0.165,1.14 -0.2,1.132 -0.27,1.158 -0.388,1.214 -0.553,1.27 -0.766,1.296 -0.914,1.279 -1.016,1.229 -1.077,1.153 l -0.02,-0.094 0.048,-0.13 0.124,-0.092 0.177,-0.075 0.2,-0.076 0.2,-0.097 L -0.172,0.455 -0.048,0.264 0,0 z" />
      </g>
    </g>
  </g>
</svg>
