<svg xmlns="http://www.w3.org/2000/svg" width="599.999" height="599.999"><defs><clipPath id="a"><path d="M.015 205.28h205.27V0H.015v205.28z"/></clipPath></defs><path d="M0 0c56.41 0 102.14-45.731 102.14-102.14 0-56.41-45.731-102.14-102.14-102.14-56.411 0-102.14 45.731-102.14 102.14S-56.411 0 0 0" style="fill:#fff;fill-rule:nonzero" transform="rotate(180 150 .73) scale(2.92279)"/><g clip-path="url(#a)" transform="rotate(180 300 300) scale(2.92279)"><path d="M0 0c56.41 0 102.14-45.731 102.14-102.14 0-56.41-45.731-102.14-102.14-102.14-56.411 0-102.14 45.731-102.14 102.14S-56.411 0 0 0z" style="fill:none;stroke:#1477c6;stroke-width:1;stroke-linecap:butt;stroke-linejoin:miter;stroke-miterlimit:4;stroke-dasharray:none" transform="translate(102.642 204.783)"/></g><path d="M0 0c56.41 0 102.14-45.731 102.14-102.14 0-56.41-45.731-102.14-102.14-102.14-56.411 0-102.14 45.731-102.14 102.14S-56.411 0 0 0" style="fill:#fff;fill-rule:nonzero" transform="rotate(180 150 .73) scale(2.92279)"/><path d="M113.725 103.798c-164.875 0-298.538 133.663-298.538 298.538S-51.15 700.874 113.725 700.874s298.538-133.663 298.538-298.538S278.6 103.798 113.725 103.798z" style="fill:none;stroke:#0079c1;stroke-width:2.92279005;stroke-linecap:butt;stroke-linejoin:miter;stroke-miterlimit:4;stroke-opacity:1;stroke-dasharray:none" transform="translate(186.275 -102.337)"/><path d="M113.725 116.099c-158.087 0-286.237 128.15-286.237 286.237 0 158.087 128.15 286.237 286.237 286.237 158.087 0 286.238-128.15 286.238-286.237 0-158.087-128.15-286.237-286.238-286.237" style="fill:#0079c1;fill-opacity:1;fill-rule:nonzero" transform="translate(186.275 -102.337)"/><path style="fill:#fff;fill-opacity:1;fill-rule:evenodd;stroke:none" d="M0 0v-7.916l-6.08 3.959L0 0z" transform="rotate(179.98 190.055 117.444) scale(16.57607)"/><path style="fill:#fff;fill-opacity:1;fill-rule:evenodd;stroke:none" d="M0 0h-7.915l3.959 6.08L0 0z" transform="rotate(179.98 96.058 88.725) scale(16.57607)"/><path style="fill:#fff;fill-opacity:1;fill-rule:evenodd;stroke:none" d="m0 0-1.223-19.74h5.409L2.763.277 0 0z" transform="rotate(179.98 140.638 84.393) scale(16.57607)"/><path style="fill:#fff;fill-opacity:1;fill-rule:evenodd;stroke:none" d="M0 0v-3.32l6.75-.056.197 3.525L0 0z" transform="rotate(179.98 195.28 137.074) scale(16.57607)"/></svg>