<svg xmlns="http://www.w3.org/2000/svg" width="213.798" height="213.66"><path style="fill:#fff;fill-opacity:1;fill-rule:evenodd;stroke:none" d="M190.034 117.796a91.42 86.552 0 1 1-182.839 0 91.42 86.552 0 1 1 182.84 0z" transform="translate(8.042 -11.85)"/><path style="fill:#ed1d24;fill-opacity:1;fill-rule:evenodd;stroke:none" d="M303.509 617.715c46.947 0 85.557-38.472 85.557-85.406 0-47.098-38.61-85.557-85.557-85.557-47.098 0-85.557 38.46-85.557 85.557 0 46.934 38.459 85.406 85.557 85.406m0 21.339c58.823 0 106.908-48.085 106.908-106.745 0-58.842-48.085-106.915-106.908-106.915-58.811 0-106.89 48.073-106.89 106.915 0 58.66 48.079 106.745 106.89 106.745" transform="translate(-196.62 -425.394)"/><path d="M243.462 578.372H362.07v-5.57H243.46v5.57z" style="fill:#000;fill-opacity:1;fill-rule:evenodd;stroke:none" transform="translate(-196.62 -425.394)"/><path style="fill:#000;fill-opacity:1;fill-rule:evenodd;stroke:none" d="M246.777 573.556v-9.029s8.117-12.19 8.117-13.096v-17.61h-2.855v-2.409h2.855s1.213-12.643 1.358-13.542c.144-.906.603-7.834 1.503-10.085.911-2.257 7.676-7.677 7.676-7.677l-.899-4.363s-1.238-2.697-.603-5.124c.899-3.458 6.03-4.81 8.135-4.514 2.094.301 5.552 3.011 6.162 3.464v4.068l-.447 1.05.71 3.005-2.671 1.358-.748 1.66-3.465.446.151 3.91s4.213 11.745 4.062 13.55c-.145 1.81 14.001 14.448 14.756 14.448.748 0 72.995 15.957 72.995 15.957v7.979l-60.81-13.248-.604-3.917-10.833-3.156-.459 1.51-3.3-.158-13.097-9.783c-.604-.302-2.106-2.106-2.86-2.106-.749 0-.9 6.224-.9 6.224s7.972 11.537 8.123 12.738c.145 1.214-1.798 14.002-2.112 15.51-.29 1.503-.9 9.482-.9 9.482s3.157.295 4.069 1.503c.899 1.2 2.552 2.86 2.552 2.86h-15.353s1.515-18.817 1.515-19.717c0-.905.9-3.766.754-4.671-.163-.9-3.923-5.866-4.526-5.866-.604 0-1.195 5.872-2.107 8.274-.899 2.414-8.575 13.398-8.575 13.398l.144 3.917 5.13 4.665-12.643-.905z" transform="translate(-196.62 -425.394)"/><path style="fill:none;stroke:#000;stroke-width:1.50000012;stroke-linecap:butt;stroke-linejoin:miter;stroke-miterlimit:10;stroke-opacity:1;stroke-dasharray:none" d="M348.512 558.695c0 8.89-7.206 16.108-16.09 16.108-8.902 0-16.107-7.218-16.107-16.108s7.205-16.108 16.107-16.108c8.884 0 16.09 7.218 16.09 16.108z" transform="translate(-196.62 -425.394)"/><path d="M330.905 572.801h1.515v-29.983h-1.515V572.8z" style="fill:#000;fill-opacity:1;fill-rule:evenodd;stroke:none" transform="translate(-196.62 -425.394)"/><path d="M316.67 558.56h29.984v-1.502H316.67v1.503z" style="fill:#000;fill-opacity:1;fill-rule:evenodd;stroke:none" transform="translate(-196.62 -425.394)"/><path style="fill:#000;fill-opacity:1;fill-rule:evenodd;stroke:none" d="m321.59 568.95-1.063-1.068 21.207-21.201 1.062 1.056-21.206 21.213z" transform="translate(-196.62 -425.394)"/><path style="fill:#000;fill-opacity:1;fill-rule:evenodd;stroke:none" d="m320.529 547.74 1.062-1.063 21.201 21.207-1.056 1.068-21.207-21.213z" transform="translate(-196.62 -425.394)"/><path style="fill:#000;fill-opacity:1;fill-rule:evenodd;stroke:none" d="M336.59 557.818a4.175 4.175 0 0 1-4.168 4.175 4.18 4.18 0 0 1-4.187-4.175 4.186 4.186 0 0 1 4.187-4.187c2.295 0 4.168 1.874 4.168 4.187" transform="translate(-196.62 -425.394)"/></svg>