<svg xmlns="http://www.w3.org/2000/svg" width="268.228" height="280.224"><defs><clipPath clipPathUnits="userSpaceOnUse" id="a"><path d="M64.842 81.638h48.19v52.087h-48.19V81.638z"/></clipPath></defs><path d="M-181.913 703.732H82.816V427.008h-264.729v276.724z" style="fill:#fff;fill-opacity:1;stroke:#000;stroke-width:3.5;stroke-linecap:butt;stroke-linejoin:miter;stroke-miterlimit:10;stroke-opacity:1;stroke-dasharray:none" transform="translate(183.663 -425.258)"/><g clip-path="url(#a)" transform="matrix(6.25407 0 0 -6.25407 -422.107 805.798)"><path d="M0 0c7.394 0 13.48 6.059 13.48 13.452 0 7.419-6.086 13.481-13.48 13.481-7.417 0-13.48-6.062-13.48-13.481C-13.48 6.059-7.417 0 0 0" style="fill:#007ac2;fill-opacity:1;fill-rule:evenodd;stroke:none" transform="translate(88.935 91.219)"/><path d="M0 0c7.397 0 13.48 6.062 13.48 13.455 0 7.419-6.083 13.478-13.48 13.478-7.417 0-13.477-6.059-13.477-13.478C-13.477 6.062-7.417 0 0 0m0-3.361c9.268 0 16.842 7.574 16.842 16.816 0 9.269-7.574 16.842-16.842 16.842-9.262 0-16.839-7.573-16.839-16.842C-16.839 4.213-9.262-3.361 0-3.361" style="fill:#ed1d24;fill-opacity:1;fill-rule:evenodd;stroke:none" transform="translate(88.935 91.216)"/><path d="m0 0-22.38 21.878 1.868 1.913L1.871 1.913 0 0z" style="fill:#ed1d24;fill-opacity:1;fill-rule:nonzero;stroke:none" transform="translate(99.192 92.789)"/><path d="M0 0v2.896h-1.185V0h-.801v3.618H.791V0H0z" style="fill:#000;fill-opacity:1;fill-rule:nonzero;stroke:none" transform="translate(80.659 123.75)"/><path d="M0 0v3.618h2.557v-.717H.801v-.733h1.496v-.691H.801v-.76h1.756V0H0z" style="fill:#000;fill-opacity:1;fill-rule:nonzero;stroke:none" transform="translate(82.177 123.75)"/><path d="M0 0c0 .146-.044.254-.131.325-.085.071-.208.107-.368.107h-.65v-.863h.67l.338.116L0 0zm.811-.016c0-.162-.034-.313-.099-.452a1.134 1.134 0 0 0-.268-.359 1.225 1.225 0 0 0-.398-.236 1.376 1.376 0 0 0-.488-.086h-.707v-1.32h-.8v3.618h1.491c.191 0 .364-.027.52-.081A1.047 1.047 0 0 0 .719.471a1.24 1.24 0 0 0 .092-.487" style="fill:#000;fill-opacity:1;fill-rule:nonzero;stroke:none" transform="translate(87.168 126.219)"/><path d="M88.401 123.749h.801v3.618h-.801v-3.618z" style="fill:#000;fill-opacity:1;fill-rule:nonzero;stroke:none"/><path d="m0 0-.261-.05-.183-.132-.11-.19-.036-.215v-.983l.036-.229.11-.192.183-.135L0-2.178c.194 0 .345.058.451.174a.62.62 0 0 1 .16.434v.983a.592.592 0 0 1-.16.412C.345-.059.194 0 0 0m.007.748C.226.748.422.713.598.642.772.571.921.473 1.044.348a1.25 1.25 0 0 0 .283-.447c.067-.174.099-.361.099-.562v-.852c0-.215-.034-.41-.1-.585a1.22 1.22 0 0 0-.734-.73 1.643 1.643 0 0 0-.585-.099c-.235 0-.441.039-.616.115a1.245 1.245 0 0 0-.437.309c-.116.129-.201.28-.259.452a1.693 1.693 0 0 0-.086.538v.852c0 .187.029.366.086.536.058.17.143.319.259.45.116.13.263.233.437.309.175.076.381.114.616.114" style="fill:#000;fill-opacity:1;fill-rule:nonzero;stroke:none" transform="translate(91.154 126.645)"/><path d="m0 0-.722 1.175L-1.439 0h-.905l1.227 1.851-1.159 1.767h.91l.644-1.086.65 1.086h.909L-.322 1.851.911 0H0z" style="fill:#000;fill-opacity:1;fill-rule:nonzero;stroke:none" transform="translate(95.137 123.75)"/><path d="M0 0v1.477h-1.185V0h-.801v3.618h.801v-1.45H0v1.45h.79V0H0z" style="fill:#000;fill-opacity:1;fill-rule:nonzero;stroke:none" transform="translate(98.412 123.75)"/></g></svg>