<svg xmlns="http://www.w3.org/2000/svg" width="599.999" height="599.999"><defs><clipPath id="a"><path d="M.015 205.28h205.27V0H.015v205.28z"/></clipPath></defs><path d="M0 0c56.41 0 102.14-45.731 102.14-102.14 0-56.41-45.731-102.14-102.14-102.14-56.411 0-102.14 45.731-102.14 102.14S-56.411 0 0 0" style="fill:#fff;fill-rule:nonzero" transform="rotate(180 150 .73) scale(2.92279)"/><g clip-path="url(#a)" transform="rotate(180 300 300) scale(2.92279)"><path d="M0 0c56.41 0 102.14-45.731 102.14-102.14 0-56.41-45.731-102.14-102.14-102.14-56.411 0-102.14 45.731-102.14 102.14S-56.411 0 0 0z" style="fill:none;stroke:#1477c6;stroke-width:1;stroke-linecap:butt;stroke-linejoin:miter;stroke-miterlimit:4;stroke-dasharray:none" transform="translate(102.642 204.783)"/></g><path d="M0 0c56.41 0 102.14-45.731 102.14-102.14 0-56.41-45.731-102.14-102.14-102.14-56.411 0-102.14 45.731-102.14 102.14S-56.411 0 0 0" style="fill:#fff;fill-rule:nonzero" transform="rotate(180 150 .73) scale(2.92279)"/><path d="M113.725 103.798c-164.875 0-298.538 133.663-298.538 298.538S-51.15 700.874 113.725 700.874s298.538-133.663 298.538-298.538S278.6 103.798 113.725 103.798z" style="fill:none;stroke:#0079c1;stroke-width:2.92279005;stroke-linecap:butt;stroke-linejoin:miter;stroke-miterlimit:4;stroke-opacity:1;stroke-dasharray:none" transform="translate(186.275 -102.337)"/><path d="M113.725 116.099c-158.087 0-286.237 128.15-286.237 286.237 0 158.087 128.15 286.237 286.237 286.237 158.087 0 286.238-128.15 286.238-286.237 0-158.087-128.15-286.237-286.238-286.237" style="fill:#0079c1;fill-opacity:1;fill-rule:nonzero" transform="translate(186.275 -102.337)"/><path d="M0 0c-.135-.068-.577.238-.577.238v1.496s.512-.108.883-.873C.434.598.137.067 0 0m-12.847-7.172 1.496-.033v.509l.17.307-.203 1.937-.273 2.107s.137 2.514.137 2.752c0 .239.339 1.734.339 1.734l.408.067s.578-1.155.578-1.528c0-.374.407-3.127.407-3.501v-2.107c0-.272.035-1.156 0-1.326-.034-.169-.272-.918-.272-.918h1.122s.17-.203.272-.203h.816v.408l-.544.306-.407.135.068 2.04s.441 1.597.475 2.277c.034.679-.408 3.398-.442 3.704-.033.306-.34 1.495-.374 1.802-.034.305-.135.849-.135.849h.476l-.476 2.888s-.306 1.292-.306 1.666c0 .374.102.646.306.646.203 0 .339-1.835.883-2.549.543-.715 1.564-1.871 1.564-1.871l.271-1.188s1.529-2.446 1.802-2.515c.271-.068.611.102.611.102l.742.301S-3.16.611-3.568.271c-.408-.339-.647-.849-.647-.849s-.577-.102-.577-.306c0-.204.918-1.121.918-1.121l.136-2.107s.543-.986.646-1.394c.102-.408.169-1.19.169-1.19l-.748-.067.171-.136s1.014-.289 1.326-.034c.312.254-.272.339-.272.339s-.137 2.482-.17 2.719c-.034.238-.137.476-.137.612s.035.748.035.748l.544.033s.237-1.155.339-1.358c.102-.205.714-1.088.884-1.395.17-.305.544-.984.544-.984v-.442l-.68-.068s-.102-.204 0-.238.952 0 .952 0 .34.135.34.441c0 .307-.239.953-.239.953s-.951 2.208-.951 2.31c0 .102.136.578.136.578S.306-1.699.442-1.326c.136.374 0 1.02 0 1.02s.952.645.986.952C1.462.951.986 2.175.816 2.413c-.17.238-1.36 1.529-1.564 1.529h-.203l-.136.781s.68.135.815.203c.137.068-.17.646-.17 1.089 0 .475-.645 1.224-.917 1.257-.271.035-1.326-.238-1.598-.373-.271-.136-.271-.476-.238-.782.035-.306.477-.612.477-.612l.102-.579.748-.305.033-.611s-.61-.095-.866-.299c-.624-.499-1.28-1.411-1.377-1.435-.137-.033-1.428 1.36-1.428 1.53 0 .17-.679 1.12-.679 1.12l-.17.24s-.102 1.223-.204 1.359c-.101.136-1.121 1.801-1.155 2.447-.034.646-.374 2.276-.374 2.276s.067 1.36-.136 1.666c-.204.306-1.836.782-1.836.782h-.169l-.034 1.019s.475.408.544.578c.068.171.204.952.204 1.326 0 .373-.442 1.325-1.021 1.359-.577.033-1.461-.748-1.494-1.121-.034-.374.135-1.428.34-1.564.203-.136.237-1.224.237-1.224s-1.393-.17-1.869-.509c-.475-.34-1.937-4.351-1.937-4.69 0-.34-.238-4.724-.238-4.724s-.027-.216.06-.161c.308.194.11-.213.212-.314.204-.205.492-.464.815-.409.323.054.171.612.171.612l-.34.442.408.17s-.035 3.568.203 4.01c.238.442.374.952.612.952h.238l-.442-5.302h.374s-.272-6.831 0-7.205c.272-.373.51-1.937.51-2.074v-1.426h-.748s-.272-.306-.136-.306" style="fill:#fff;fill-opacity:1;fill-rule:nonzero;stroke:none" transform="matrix(18.121 0 0 -18.121 432.744 390.585)"/></svg>