<?xml version="1.0" encoding="UTF-8" standalone="no"?>
<!-- Created with Inkscape (http://www.inkscape.org/) -->

<svg
   xmlns:dc="http://purl.org/dc/elements/1.1/"
   xmlns:cc="http://creativecommons.org/ns#"
   xmlns:rdf="http://www.w3.org/1999/02/22-rdf-syntax-ns#"
   xmlns:svg="http://www.w3.org/2000/svg"
   xmlns="http://www.w3.org/2000/svg"
   xmlns:sodipodi="http://sodipodi.sourceforge.net/DTD/sodipodi-0.dtd"
   xmlns:inkscape="http://www.inkscape.org/namespaces/inkscape"
   width="599.99878"
   height="599.99878"
   id="svg6419"
   version="1.1"
   inkscape:version="0.47 r22583"
   sodipodi:docname="Cyprus road sign mandatory go streight.svg">
  <defs
     id="defs6421">
    <inkscape:perspective
       sodipodi:type="inkscape:persp3d"
       inkscape:vp_x="0 : 526.18109 : 1"
       inkscape:vp_y="0 : 1000 : 0"
       inkscape:vp_z="744.09448 : 526.18109 : 1"
       inkscape:persp3d-origin="372.04724 : 350.78739 : 1"
       id="perspective6427" />
    <inkscape:perspective
       id="perspective6455"
       inkscape:persp3d-origin="300 : 200 : 1"
       inkscape:vp_z="600 : 300 : 1"
       inkscape:vp_y="0 : 1000 : 0"
       inkscape:vp_x="0 : 300 : 1"
       sodipodi:type="inkscape:persp3d" />
    <clipPath
       id="clipPath20">
      <path
         d="m 0.014999,205.28 205.270001,0 0,-205.28 -205.270001,0 0,205.28 z"
         id="path9" />
    </clipPath>
    <inkscape:perspective
       id="perspective6487"
       inkscape:persp3d-origin="0.5 : 0.33333333 : 1"
       inkscape:vp_z="1 : 0.5 : 1"
       inkscape:vp_y="0 : 1000 : 0"
       inkscape:vp_x="0 : 0.5 : 1"
       sodipodi:type="inkscape:persp3d" />
    <clipPath
       clipPathUnits="userSpaceOnUse"
       id="clipPath5883">
      <path
         d="m 233.519,209.338 34.845,0 0,34.016 -34.845,0 0,-34.016 z"
         id="path5885" />
    </clipPath>
    <inkscape:perspective
       id="perspective7191"
       inkscape:persp3d-origin="0.5 : 0.33333333 : 1"
       inkscape:vp_z="1 : 0.5 : 1"
       inkscape:vp_y="0 : 1000 : 0"
       inkscape:vp_x="0 : 0.5 : 1"
       sodipodi:type="inkscape:persp3d" />
    <clipPath
       clipPathUnits="userSpaceOnUse"
       id="clipPath6115">
      <path
         d="m 112.397,129.449 34.845,0 0,34.016 -34.845,0 0,-34.016 z"
         id="path6117" />
    </clipPath>
    <inkscape:perspective
       id="perspective7283"
       inkscape:persp3d-origin="0.5 : 0.33333333 : 1"
       inkscape:vp_z="1 : 0.5 : 1"
       inkscape:vp_y="0 : 1000 : 0"
       inkscape:vp_x="0 : 0.5 : 1"
       sodipodi:type="inkscape:persp3d" />
    <clipPath
       clipPathUnits="userSpaceOnUse"
       id="clipPath5487">
      <path
         d="m 52.071,490.394 34.845,0 0,34.016 -34.845,0 0,-34.016 z"
         id="path5489" />
    </clipPath>
    <inkscape:perspective
       id="perspective7383"
       inkscape:persp3d-origin="0.5 : 0.33333333 : 1"
       inkscape:vp_z="1 : 0.5 : 1"
       inkscape:vp_y="0 : 1000 : 0"
       inkscape:vp_x="0 : 0.5 : 1"
       sodipodi:type="inkscape:persp3d" />
    <clipPath
       clipPathUnits="userSpaceOnUse"
       id="clipPath5335">
      <path
         d="m 51.732,129.449 34.845,0 0,34.016 -34.845,0 0,-34.016 z"
         id="path5337" />
    </clipPath>
  </defs>
  <sodipodi:namedview
     id="base"
     pagecolor="#ffffff"
     bordercolor="#666666"
     borderopacity="1.0"
     inkscape:pageopacity="0.0"
     inkscape:pageshadow="2"
     inkscape:zoom="0.41767578"
     inkscape:cx="561.27483"
     inkscape:cy="169.97367"
     inkscape:document-units="px"
     inkscape:current-layer="layer1"
     showgrid="false"
     inkscape:window-width="1600"
     inkscape:window-height="838"
     inkscape:window-x="-8"
     inkscape:window-y="-8"
     inkscape:window-maximized="1" />
  <metadata
     id="metadata6424">
    <rdf:RDF>
      <cc:Work
         rdf:about="">
        <dc:format>image/svg+xml</dc:format>
        <dc:type
           rdf:resource="http://purl.org/dc/dcmitype/StillImage" />
        <dc:title></dc:title>
      </cc:Work>
    </rdf:RDF>
  </metadata>
  <g
     inkscape:label="Livello 1"
     inkscape:groupmode="layer"
     id="layer1"
     transform="translate(186.27483,-102.33706)">
    <g
       transform="matrix(-2.92279,0,0,-2.92279,113.72357,103.79732)"
       id="g13">
      <path
         d="m 0,0 c 56.41,0 102.14,-45.731 102.14,-102.14 0,-56.41 -45.731,-102.14 -102.14,-102.14 -56.411,0 -102.14,45.731 -102.14,102.14 C -102.14,-45.731 -56.411,0 0,0"
         style="fill:#ffffff;fill-rule:nonzero"
         id="path15" />
    </g>
    <g
       transform="matrix(-2.92279,0,0,-2.92279,413.72456,702.33591)"
       id="g17">
      <g
         clip-path="url(#clipPath20)"
         id="g19">
        <g
           transform="translate(102.642,204.783)"
           id="g21">
          <path
             d="m 0,0 c 56.41,0 102.14,-45.731 102.14,-102.14 0,-56.41 -45.731,-102.14 -102.14,-102.14 -56.411,0 -102.14,45.731 -102.14,102.14 C -102.14,-45.731 -56.411,0 0,0 z"
             style="fill:none;stroke:#1477c6;stroke-width:1;stroke-linecap:butt;stroke-linejoin:miter;stroke-miterlimit:4;stroke-dasharray:none"
             id="path23" />
        </g>
      </g>
    </g>
    <g
       transform="matrix(-2.92279,0,0,-2.92279,113.72357,103.79732)"
       id="g37">
      <path
         d="m 0,0 c 56.41,0 102.14,-45.731 102.14,-102.14 0,-56.41 -45.731,-102.14 -102.14,-102.14 -56.411,0 -102.14,45.731 -102.14,102.14 C -102.14,-45.731 -56.411,0 0,0"
         style="fill:#ffffff;fill-rule:nonzero"
         id="path39" />
    </g>
    <path
       d="m 113.72457,103.79846 c -164.875,0 -298.538,133.663 -298.538,298.538 0,164.875 133.663,298.538 298.538,298.538 164.875,0 298.538,-133.663 298.538,-298.538 0,-164.875 -133.663,-298.538 -298.538,-298.538 z"
       style="fill:none;stroke:#0079c1;stroke-width:2.92279005;stroke-linecap:butt;stroke-linejoin:miter;stroke-miterlimit:4;stroke-opacity:1;stroke-dasharray:none"
       id="path41" />
    <path
       d="m 113.72457,116.09851 c -158.087,0 -286.237,128.15 -286.237,286.237 0,158.087 128.15,286.237 286.237,286.237 158.087,0 286.238,-128.15 286.238,-286.237 0,-158.087 -128.15,-286.237 -286.238,-286.237"
       style="fill:#0079c1;fill-opacity:1;fill-rule:nonzero"
       id="path43" />
    <g
       id="g7467"
       transform="translate(952.89221,-107.73907)">
      <g
         transform="matrix(17.922712,0,0,-17.922712,-706.60966,514.22364)"
         id="g5343">
        <path
           id="path5345"
           style="fill:#ffffff;fill-opacity:1;fill-rule:evenodd;stroke:none"
           d="M 0,0 C -0.476,-0.974 -1.451,-2.66 0.052,-3.215 -0.014,-2.079 -0.171,-0.981 0,0 m -15.04,3.319 c 0.233,-0.11 0.605,0.086 0.934,0.052 -0.043,0.851 -0.697,0.206 -0.934,-0.052 m 6.068,0.363 c 0.169,0.009 0.25,-0.122 0.259,0.104 -0.074,0.079 -0.27,0.05 -0.259,-0.104 M -7.83,5.705 C -8.473,5.084 -9.253,4.604 -9.905,3.993 c -0.123,-10e-4 -0.153,0.09 -0.311,0.052 0.302,-0.826 0.862,-0.002 1.193,0.311 0.328,0.312 0.91,0.475 1.193,0.83 0.07,0.086 -0.043,0.302 0,0.519 m 1.606,4.356 C -6.002,9.739 -6.105,9.393 -5.964,8.972 -6.047,8.846 -6.357,8.669 -6.38,8.453 c -0.033,-0.328 0.319,-0.472 0.468,-0.83 0.36,-0.868 -0.068,-1.839 0,-2.748 0.055,-0.739 0.5,-1.133 0.674,-1.556 C -5.167,3.074 -5.4,2.978 -5.29,2.852 -5.028,2.889 -4.933,2.759 -4.772,2.697 -3.382,3.459 -0.769,3.037 0,2.023 1.406,0.165 1.164,-3.518 2.074,-5.912 1.785,-6.022 1.533,-5.949 1.193,-6.067 c 0.068,-0.719 0.6,-1.102 0.518,-1.816 0.882,0.09 0.94,-1.363 0.207,-1.504 -0.214,0.269 -0.338,0.576 -0.519,0.934 -0.151,0.304 -0.583,0.826 -0.621,1.089 -0.259,1.774 -0.742,2.956 -2.23,3.578 -0.039,-0.505 0.062,-0.87 0.052,-1.348 -0.681,-0.978 -1.044,-2.275 -1.66,-3.319 -0.083,-0.078 -0.26,0.045 -0.467,0 -0.114,-0.076 0.03,-0.411 -0.155,-0.415 -0.245,-0.062 -0.741,-0.011 -1.193,0 0.191,0.679 0.82,0.555 1.296,0.934 0.191,0.151 0.41,0.598 0.571,0.933 0.546,1.136 0.58,2.855 0.259,4.356 -0.544,0.355 -1.067,0.731 -1.763,0.934 -1.228,-0.932 -3.464,-0.63 -5.393,-0.519 0.448,-1.027 0.762,-2.501 1.192,-3.63 0.161,-0.422 0.444,-0.813 0.468,-1.141 0.023,-0.343 -0.259,-0.555 -0.363,-0.829 -0.024,-0.224 0.217,-0.368 0.103,-0.52 -0.261,-0.171 -0.782,-0.082 -1.193,-0.103 0.204,0.541 0.719,0.645 0.778,1.245 0.074,0.741 -0.421,1.311 -0.726,1.918 -0.482,0.96 -0.911,2.033 -1.504,2.49 -0.51,-0.583 -0.775,-1.34 -1.245,-1.971 -0.143,-0.193 -0.351,-0.284 -0.466,-0.467 -0.401,-0.639 -0.397,-1.501 -1.037,-1.763 -0.005,-0.327 0.061,-0.403 -0.052,-0.622 -0.312,-0.176 -0.903,-0.097 -1.193,0.052 0.572,0.778 1.494,1.457 1.815,2.437 0.06,0.184 0.027,0.413 0.104,0.622 0.316,0.859 1.062,1.595 1.192,2.542 0.088,0.635 -0.461,0.97 -0.57,1.504 -0.078,0.382 -0.003,0.799 -0.103,1.14 -0.238,0.805 -1.118,1.646 -1.296,2.49 -0.359,-0.075 -0.951,0.084 -1.039,-0.26 -0.184,-0.08 -0.03,0.176 -0.154,0.156 -0.333,-0.188 -0.72,-0.291 -0.675,-0.726 -0.265,-0.123 -0.664,-0.121 -0.985,-0.052 -0.014,0.314 -0.317,0.34 -0.311,0.674 0.554,1.365 1.095,3.19 2.022,4.356 0.181,-0.096 0.111,-0.441 0.208,-0.622 0.216,0.089 0.406,0.439 0.57,0.414 0.031,-0.22 -0.037,-0.342 -0.053,-0.518 1.645,-0.447 2.671,-1.513 3.838,-2.437 0.279,0.549 0.784,0.885 1.193,1.296 l 0.156,0.311 0.311,0.156 0.104,0.311 c 0.137,0.183 0.4,0.296 0.518,0.467 0.179,0.257 0.192,0.617 0.363,0.881 0.14,0.215 0.501,0.317 0.519,0.623 -0.138,0 -0.296,-0.02 -0.363,0.052 -0.029,0.465 -0.296,0.465 -0.104,0.933 -0.313,0.041 -0.471,-0.146 -0.571,0.052 0.15,-0.011 0.264,0.013 0.312,0.104 -0.129,1.289 1.366,1.526 1.918,0.726" />
      </g>
      <g
         transform="matrix(17.922712,0,0,-17.922712,-846.95165,411.98013)"
         id="g5347">
        <path
           id="path5349"
           style="fill:#007ac2;fill-opacity:1;fill-rule:evenodd;stroke:none"
           d="m 0,0 c -0.642,-0.621 -1.423,-1.101 -2.074,-1.711 -0.123,-0.002 -0.154,0.089 -0.312,0.052 0.302,-0.827 0.863,-0.003 1.193,0.311 0.328,0.311 0.91,0.474 1.193,0.829 0.07,0.086 -0.042,0.303 0,0.519" />
      </g>
      <g
         transform="matrix(17.922712,0,0,-17.922712,-867.40868,448.2324)"
         id="g5351">
        <path
           id="path5353"
           style="fill:#007ac2;fill-opacity:1;fill-rule:evenodd;stroke:none"
           d="M 0,0 C 0.169,0.009 0.25,-0.122 0.259,0.104 0.185,0.183 -0.012,0.154 0,0" />
      </g>
      <g
         transform="matrix(17.922712,0,0,-17.922712,-976.16192,454.74211)"
         id="g5355">
        <path
           id="path5357"
           style="fill:#007ac2;fill-opacity:1;fill-rule:evenodd;stroke:none"
           d="M 0,0 C 0.233,-0.11 0.605,0.087 0.934,0.052 0.891,0.903 0.237,0.258 0,0" />
      </g>
      <g
         transform="matrix(17.922712,0,0,-17.922712,-706.60966,514.22364)"
         id="g5359">
        <path
           id="path5361"
           style="fill:#007ac2;fill-opacity:1;fill-rule:evenodd;stroke:none"
           d="M 0,0 C -0.476,-0.974 -1.451,-2.66 0.052,-3.215 -0.014,-2.079 -0.171,-0.981 0,0" />
      </g>
    </g>
  </g>
</svg>
