<?xml version="1.0" encoding="UTF-8" standalone="no"?>
<!-- Created with Inkscape (http://www.inkscape.org/) -->

<svg
   xmlns:dc="http://purl.org/dc/elements/1.1/"
   xmlns:cc="http://creativecommons.org/ns#"
   xmlns:rdf="http://www.w3.org/1999/02/22-rdf-syntax-ns#"
   xmlns:svg="http://www.w3.org/2000/svg"
   xmlns="http://www.w3.org/2000/svg"
   xmlns:sodipodi="http://sodipodi.sourceforge.net/DTD/sodipodi-0.dtd"
   xmlns:inkscape="http://www.inkscape.org/namespaces/inkscape"
   width="215.05128"
   height="213.93181"
   id="svg4205"
   version="1.1"
   inkscape:version="0.47 r22583"
   sodipodi:docname="Cyprus road sign toll post.svg">
  <defs
     id="defs4207">
    <inkscape:perspective
       sodipodi:type="inkscape:persp3d"
       inkscape:vp_x="0 : 526.18109 : 1"
       inkscape:vp_y="0 : 1000 : 0"
       inkscape:vp_z="744.09448 : 526.18109 : 1"
       inkscape:persp3d-origin="372.04724 : 350.78739 : 1"
       id="perspective4213" />
    <inkscape:perspective
       id="perspective4228"
       inkscape:persp3d-origin="106.21 : 70.796666 : 1"
       inkscape:vp_z="212.42 : 106.195 : 1"
       inkscape:vp_y="0 : 1000 : 0"
       inkscape:vp_x="0 : 106.195 : 1"
       sodipodi:type="inkscape:persp3d" />
    <clipPath
       id="clipPath16">
      <path
         inkscape:connector-curvature="0"
         d="M 0.059998,169.98 H 170 V 0.06 H 0.059998 v 169.92 z"
         id="path18" />
    </clipPath>
    <inkscape:perspective
       id="perspective4247"
       inkscape:persp3d-origin="0.5 : 0.33333333 : 1"
       inkscape:vp_z="1 : 0.5 : 1"
       inkscape:vp_y="0 : 1000 : 0"
       inkscape:vp_x="0 : 0.5 : 1"
       sodipodi:type="inkscape:persp3d" />
    <clipPath
       clipPathUnits="userSpaceOnUse"
       id="clipPath3426">
      <path
         d="m 43.076,488.976 34.845,0 0,34.015 -34.845,0 0,-34.015 z"
         id="path3428" />
    </clipPath>
    <inkscape:perspective
       id="perspective4323"
       inkscape:persp3d-origin="0.5 : 0.33333333 : 1"
       inkscape:vp_z="1 : 0.5 : 1"
       inkscape:vp_y="0 : 1000 : 0"
       inkscape:vp_x="0 : 0.5 : 1"
       sodipodi:type="inkscape:persp3d" />
    <clipPath
       clipPathUnits="userSpaceOnUse"
       id="clipPath2896">
      <path
         d="m 102.752,490.181 34.845,0 0,34.016 -34.845,0 0,-34.016 z"
         id="path2898" />
    </clipPath>
    <inkscape:perspective
       id="perspective5249"
       inkscape:persp3d-origin="0.5 : 0.33333333 : 1"
       inkscape:vp_z="1 : 0.5 : 1"
       inkscape:vp_y="0 : 1000 : 0"
       inkscape:vp_x="0 : 0.5 : 1"
       sodipodi:type="inkscape:persp3d" />
    <inkscape:perspective
       id="perspective5326"
       inkscape:persp3d-origin="0.5 : 0.33333333 : 1"
       inkscape:vp_z="1 : 0.5 : 1"
       inkscape:vp_y="0 : 1000 : 0"
       inkscape:vp_x="0 : 0.5 : 1"
       sodipodi:type="inkscape:persp3d" />
    <clipPath
       clipPathUnits="userSpaceOnUse"
       id="clipPath3128">
      <path
         d="m 164.704,490.181 34.845,0 0,34.016 -34.845,0 0,-34.016 z"
         id="path3130" />
    </clipPath>
    <inkscape:perspective
       id="perspective5450"
       inkscape:persp3d-origin="0.5 : 0.33333333 : 1"
       inkscape:vp_z="1 : 0.5 : 1"
       inkscape:vp_y="0 : 1000 : 0"
       inkscape:vp_x="0 : 0.5 : 1"
       sodipodi:type="inkscape:persp3d" />
    <clipPath
       clipPathUnits="userSpaceOnUse"
       id="clipPath3318">
      <path
         d="m 224.23,490.181 34.845,0 0,34.016 -34.845,0 0,-34.016 z"
         id="path3320" />
    </clipPath>
    <inkscape:perspective
       id="perspective5517"
       inkscape:persp3d-origin="0.5 : 0.33333333 : 1"
       inkscape:vp_z="1 : 0.5 : 1"
       inkscape:vp_y="0 : 1000 : 0"
       inkscape:vp_x="0 : 0.5 : 1"
       sodipodi:type="inkscape:persp3d" />
    <clipPath
       clipPathUnits="userSpaceOnUse"
       id="clipPath2936">
      <path
         d="m 43.087,413.859 34.845,0 0,34.016 -34.845,0 0,-34.016 z"
         id="path2938" />
    </clipPath>
    <inkscape:perspective
       id="perspective5617"
       inkscape:persp3d-origin="0.5 : 0.33333333 : 1"
       inkscape:vp_z="1 : 0.5 : 1"
       inkscape:vp_y="0 : 1000 : 0"
       inkscape:vp_x="0 : 0.5 : 1"
       sodipodi:type="inkscape:persp3d" />
    <clipPath
       clipPathUnits="userSpaceOnUse"
       id="clipPath3572">
      <path
         d="m 102.752,413.859 34.845,0 0,34.016 -34.845,0 0,-34.016 z"
         id="path3574" />
    </clipPath>
    <inkscape:perspective
       id="perspective5745"
       inkscape:persp3d-origin="0.5 : 0.33333333 : 1"
       inkscape:vp_z="1 : 0.5 : 1"
       inkscape:vp_y="0 : 1000 : 0"
       inkscape:vp_x="0 : 0.5 : 1"
       sodipodi:type="inkscape:persp3d" />
    <clipPath
       clipPathUnits="userSpaceOnUse"
       id="clipPath3694">
      <path
         d="m 164.704,413.859 34.845,0 0,34.016 -34.845,0 0,-34.016 z"
         id="path3696" />
    </clipPath>
    <inkscape:perspective
       id="perspective5843"
       inkscape:persp3d-origin="0.5 : 0.33333333 : 1"
       inkscape:vp_z="1 : 0.5 : 1"
       inkscape:vp_y="0 : 1000 : 0"
       inkscape:vp_x="0 : 0.5 : 1"
       sodipodi:type="inkscape:persp3d" />
    <clipPath
       clipPathUnits="userSpaceOnUse"
       id="clipPath3500">
      <path
         d="m 224.23,413.859 34.845,0 0,34.016 -34.845,0 0,-34.016 z"
         id="path3502" />
    </clipPath>
    <inkscape:perspective
       id="perspective6067"
       inkscape:persp3d-origin="0.5 : 0.33333333 : 1"
       inkscape:vp_z="1 : 0.5 : 1"
       inkscape:vp_y="0 : 1000 : 0"
       inkscape:vp_x="0 : 0.5 : 1"
       sodipodi:type="inkscape:persp3d" />
    <clipPath
       clipPathUnits="userSpaceOnUse"
       id="clipPath3162">
      <path
         d="m 43.076,323.15 34.845,0 0,34.016 -34.845,0 0,-34.016 z"
         id="path3164" />
    </clipPath>
  </defs>
  <sodipodi:namedview
     id="base"
     pagecolor="#ffffff"
     bordercolor="#666666"
     borderopacity="1.0"
     inkscape:pageopacity="0.0"
     inkscape:pageshadow="2"
     inkscape:zoom="2.362731"
     inkscape:cx="237.00191"
     inkscape:cy="119.56363"
     inkscape:document-units="px"
     inkscape:current-layer="layer1"
     showgrid="false"
     inkscape:window-width="1600"
     inkscape:window-height="838"
     inkscape:window-x="-8"
     inkscape:window-y="-8"
     inkscape:window-maximized="1" />
  <metadata
     id="metadata4210">
    <rdf:RDF>
      <cc:Work
         rdf:about="">
        <dc:format>image/svg+xml</dc:format>
        <dc:type
           rdf:resource="http://purl.org/dc/dcmitype/StillImage" />
        <dc:title></dc:title>
      </cc:Work>
    </rdf:RDF>
  </metadata>
  <g
     inkscape:label="Livello 1"
     inkscape:groupmode="layer"
     id="layer1"
     transform="translate(55.929648,-428.64789)">
    <g
       transform="matrix(6.2891524,0,0,-6.2891524,-328.88895,2674.9193)"
       id="g3158">
      <g
         id="g3160"
         clip-path="url(#clipPath3162)">
        <g
           id="g3166"
           transform="translate(60.497604,323.14951)">
          <path
             d="m 0,0 c 9.417,0 17.098,7.68 17.098,17.095 0,9.417 -7.681,17.097 -17.098,17.097 -9.416,0 -17.096,-7.68 -17.096,-17.097 C -17.096,7.68 -9.416,0 0,0"
             style="fill:#ed1d24;fill-opacity:1;fill-rule:evenodd;stroke:none"
             id="path3168" />
        </g>
        <g
           id="g3170"
           transform="translate(68.536606,329.34171)">
          <path
             d="m 0,0 c -2.249,-1.662 -5.028,-2.644 -8.039,-2.644 -7.481,0 -13.549,6.067 -13.549,13.547 0,3.011 0.986,5.791 2.646,8.04 L -9.473,9.473 0,0 z"
             style="fill:#ffffff;fill-opacity:1;fill-rule:evenodd;stroke:none"
             id="path3172" />
        </g>
        <g
           id="g3174"
           transform="translate(60.497604,353.79269)">
          <path
             d="m 0,0 c 7.481,0 13.547,-6.067 13.547,-13.548 0,-3.009 -0.981,-5.79 -2.644,-8.039 l -9.469,9.47 -9.474,9.473 C -5.792,-0.981 -3.01,0 0,0"
             style="fill:#ffffff;fill-opacity:1;fill-rule:evenodd;stroke:none"
             id="path3176" />
        </g>
        <g
           id="g3178"
           transform="translate(58.467895,339.40849)">
          <path
             d="m 0,0 -6.644,0 c -1.164,0 -2.117,-0.951 -2.117,-2.116 l 0,10e-4 0,-0.021 c -0.41,0.721 -0.678,1.913 -0.678,3.263 0,1.347 0.268,2.541 0.678,3.263 l 0,-0.021 0,0 c 0,-1.166 0.953,-2.118 2.117,-2.118 l 4.394,0 L 0,0 z"
             style="fill:#000000;fill-opacity:1;fill-rule:evenodd;stroke:none"
             id="path3180" />
        </g>
        <g
           id="g3182"
           transform="translate(64.642502,338.9639)">
          <path
             d="m 0,0 c 0.142,0.13 0.232,0.316 0.232,0.523 0,0.39 -0.318,0.709 -0.709,0.709 l -0.755,0 -1.321,1.323 2.267,0 c 1.116,0 2.029,-0.912 2.031,-2.029 l 1.256,0 c 0.242,0.834 1.01,1.443 1.922,1.443 1.104,0 1.998,-0.894 1.998,-1.999 0,-1.103 -0.894,-1.997 -1.998,-1.997 -0.912,0 -1.68,0.608 -1.922,1.441 l -1.588,0 C 1.305,-0.749 1.173,-0.898 1.024,-1.025 L 0,0 z"
             style="fill:#000000;fill-opacity:1;fill-rule:evenodd;stroke:none"
             id="path3184" />
        </g>
        <g
           id="g3186"
           transform="translate(55.669601,338.7998)">
          <path
             d="m 0,0 3.409,0 0.744,-0.744 -4.033,0 c -0.285,0 -0.516,-0.232 -0.516,-0.516 0,-0.283 0.233,-0.515 0.516,-0.515 l 5.062,0 0.744,-0.744 -5.926,0 c -0.697,0 -1.26,0.567 -1.26,1.259 l 0,0 C -1.26,-0.567 -0.697,0 0,0"
             style="fill:#000000;fill-opacity:1;fill-rule:evenodd;stroke:none"
             id="path3188" />
        </g>
      </g>
    </g>
  </g>
</svg>
