<svg xmlns="http://www.w3.org/2000/svg" width="213.556" height="213.418"><path d="M0 0c7.465 0 13.608 6.117 13.608 13.582 0 7.49-6.143 13.61-13.608 13.61-7.491 0-13.61-6.12-13.61-13.61C-13.61 6.117-7.491 0 0 0" style="fill:#fff;fill-opacity:1;fill-rule:evenodd;stroke:none" transform="matrix(6.28013 0 0 -6.28013 106.769 192.088)"/><path d="M0 0c7.467 0 13.608 6.119 13.608 13.584 0 7.491-6.141 13.608-13.608 13.608-7.491 0-13.608-6.117-13.608-13.608C-13.608 6.119-7.491 0 0 0m0-3.394c9.356 0 17.004 7.648 17.004 16.978 0 9.359-7.648 17.005-17.004 17.005-9.354 0-17.001-7.646-17.001-17.005 0-9.33 7.647-16.978 17.001-16.978" style="fill:#ed1d24;fill-opacity:1;fill-rule:evenodd;stroke:none" transform="matrix(6.28013 0 0 -6.28013 106.769 192.103)"/><path style="fill:#000;fill-opacity:1;fill-rule:evenodd;stroke:none" d="M0 0a1.586 1.586 0 0 1-1.584-1.584 1.588 1.588 0 1 1 3.175 0C1.591-.711.886 0 0 0" transform="matrix(6.29405 0 0 -6.29405 153.435 120.32)"/><path style="fill:#000;fill-opacity:1;fill-rule:evenodd;stroke:none" d="M0 0a1.585 1.585 0 0 1-1.582-1.584 1.587 1.587 0 1 1 3.176 0C1.594-.711.888 0 0 0" transform="matrix(6.29405 0 0 -6.29405 73.172 120.32)"/><path style="fill:#000;fill-opacity:1;fill-rule:evenodd;stroke:none" d="M0 0h-.757a2.14 2.14 0 0 1-4.226 0h-8.524a2.142 2.142 0 0 1-2.121 1.801A2.135 2.135 0 0 1-17.733 0l-1.024 1.295v.299h-1.537v6.49h14.531v-6.49h-6.218v-.299h7.233l-.071 4.199h2.967L0 1.295V0z" transform="matrix(6.29405 0 0 -6.29405 171.535 128.175)"/><path style="fill:#fff;fill-opacity:1;fill-rule:evenodd;stroke:none" d="M0 0a.585.585 0 1 0-1.17-.008A.585.585 0 0 0 0 0m12.164.582a.585.585 0 1 0 0-1.171.583.583 0 0 0-.581.589.58.58 0 0 0 .581.582m.764 4.766.609-1.739h-2.76v1.739h2.151z" transform="matrix(6.29405 0 0 -6.29405 76.889 130.314)"/><path style="fill:#000;fill-opacity:1;fill-rule:evenodd;stroke:none" d="M0 0v-1.248h1.577L.787 0H0z" transform="matrix(6.29405 0 0 -6.29405 49.997 120.32)"/></svg>