<?xml version="1.0" encoding="UTF-8" standalone="no"?>
<!-- Created with Inkscape (http://www.inkscape.org/) -->

<svg
   xmlns:dc="http://purl.org/dc/elements/1.1/"
   xmlns:cc="http://creativecommons.org/ns#"
   xmlns:rdf="http://www.w3.org/1999/02/22-rdf-syntax-ns#"
   xmlns:svg="http://www.w3.org/2000/svg"
   xmlns="http://www.w3.org/2000/svg"
   xmlns:sodipodi="http://sodipodi.sourceforge.net/DTD/sodipodi-0.dtd"
   xmlns:inkscape="http://www.inkscape.org/namespaces/inkscape"
   width="76.169998"
   height="102.5375"
   id="svg6419"
   version="1.1"
   inkscape:version="0.47 r22583"
   sodipodi:docname="Cyprus road sign road bump 30.svg">
  <defs
     id="defs6421">
    <inkscape:perspective
       sodipodi:type="inkscape:persp3d"
       inkscape:vp_x="0 : 526.18109 : 1"
       inkscape:vp_y="0 : 1000 : 0"
       inkscape:vp_z="744.09448 : 526.18109 : 1"
       inkscape:persp3d-origin="372.04724 : 350.78739 : 1"
       id="perspective6427" />
    <inkscape:perspective
       id="perspective6455"
       inkscape:persp3d-origin="300 : 200 : 1"
       inkscape:vp_z="600 : 300 : 1"
       inkscape:vp_y="0 : 1000 : 0"
       inkscape:vp_x="0 : 300 : 1"
       sodipodi:type="inkscape:persp3d" />
    <clipPath
       id="clipPath20">
      <path
         d="m 0.014999,205.28 205.270001,0 0,-205.28 -205.270001,0 0,205.28 z"
         id="path9" />
    </clipPath>
    <inkscape:perspective
       id="perspective6487"
       inkscape:persp3d-origin="0.5 : 0.33333333 : 1"
       inkscape:vp_z="1 : 0.5 : 1"
       inkscape:vp_y="0 : 1000 : 0"
       inkscape:vp_x="0 : 0.5 : 1"
       sodipodi:type="inkscape:persp3d" />
    <clipPath
       clipPathUnits="userSpaceOnUse"
       id="clipPath5883">
      <path
         d="m 233.519,209.338 34.845,0 0,34.016 -34.845,0 0,-34.016 z"
         id="path5885" />
    </clipPath>
    <inkscape:perspective
       id="perspective7191"
       inkscape:persp3d-origin="0.5 : 0.33333333 : 1"
       inkscape:vp_z="1 : 0.5 : 1"
       inkscape:vp_y="0 : 1000 : 0"
       inkscape:vp_x="0 : 0.5 : 1"
       sodipodi:type="inkscape:persp3d" />
    <clipPath
       clipPathUnits="userSpaceOnUse"
       id="clipPath6115">
      <path
         d="m 112.397,129.449 34.845,0 0,34.016 -34.845,0 0,-34.016 z"
         id="path6117" />
    </clipPath>
    <inkscape:perspective
       id="perspective7283"
       inkscape:persp3d-origin="0.5 : 0.33333333 : 1"
       inkscape:vp_z="1 : 0.5 : 1"
       inkscape:vp_y="0 : 1000 : 0"
       inkscape:vp_x="0 : 0.5 : 1"
       sodipodi:type="inkscape:persp3d" />
    <clipPath
       clipPathUnits="userSpaceOnUse"
       id="clipPath5487">
      <path
         d="m 52.071,490.394 34.845,0 0,34.016 -34.845,0 0,-34.016 z"
         id="path5489" />
    </clipPath>
    <inkscape:perspective
       id="perspective7383"
       inkscape:persp3d-origin="0.5 : 0.33333333 : 1"
       inkscape:vp_z="1 : 0.5 : 1"
       inkscape:vp_y="0 : 1000 : 0"
       inkscape:vp_x="0 : 0.5 : 1"
       sodipodi:type="inkscape:persp3d" />
    <clipPath
       clipPathUnits="userSpaceOnUse"
       id="clipPath5335">
      <path
         d="m 51.732,129.449 34.845,0 0,34.016 -34.845,0 0,-34.016 z"
         id="path5337" />
    </clipPath>
    <inkscape:perspective
       id="perspective7487"
       inkscape:persp3d-origin="0.5 : 0.33333333 : 1"
       inkscape:vp_z="1 : 0.5 : 1"
       inkscape:vp_y="0 : 1000 : 0"
       inkscape:vp_x="0 : 0.5 : 1"
       sodipodi:type="inkscape:persp3d" />
    <clipPath
       clipPathUnits="userSpaceOnUse"
       id="clipPath6159">
      <path
         d="m 234.152,129.449 34.845,0 0,34.016 -34.845,0 0,-34.016 z"
         id="path6161" />
    </clipPath>
    <inkscape:perspective
       id="perspective7591"
       inkscape:persp3d-origin="0.5 : 0.33333333 : 1"
       inkscape:vp_z="1 : 0.5 : 1"
       inkscape:vp_y="0 : 1000 : 0"
       inkscape:vp_x="0 : 0.5 : 1"
       sodipodi:type="inkscape:persp3d" />
    <clipPath
       clipPathUnits="userSpaceOnUse"
       id="clipPath6391">
      <path
         d="m 138.483,43.228 34.845,0 0,34.016 -34.845,0 0,-34.016 z"
         id="path6393" />
    </clipPath>
    <inkscape:perspective
       id="perspective7668"
       inkscape:persp3d-origin="0.5 : 0.33333333 : 1"
       inkscape:vp_z="1 : 0.5 : 1"
       inkscape:vp_y="0 : 1000 : 0"
       inkscape:vp_x="0 : 0.5 : 1"
       sodipodi:type="inkscape:persp3d" />
    <inkscape:perspective
       id="perspective7699"
       inkscape:persp3d-origin="0.5 : 0.33333333 : 1"
       inkscape:vp_z="1 : 0.5 : 1"
       inkscape:vp_y="0 : 1000 : 0"
       inkscape:vp_x="0 : 0.5 : 1"
       sodipodi:type="inkscape:persp3d" />
    <clipPath
       clipPathUnits="userSpaceOnUse"
       id="clipPath6143">
      <path
         d="M 0,0 311,0 311,595 0,595 0,0 z"
         id="path6145" />
    </clipPath>
    <inkscape:perspective
       id="perspective7742"
       inkscape:persp3d-origin="0.5 : 0.33333333 : 1"
       inkscape:vp_z="1 : 0.5 : 1"
       inkscape:vp_y="0 : 1000 : 0"
       inkscape:vp_x="0 : 0.5 : 1"
       sodipodi:type="inkscape:persp3d" />
    <clipPath
       clipPathUnits="userSpaceOnUse"
       id="clipPath6335">
      <path
         d="m 234.901,294.331 34.845,0 0,58.11 -34.845,0 0,-58.11 z"
         id="path6337" />
    </clipPath>
    <inkscape:perspective
       id="perspective9466"
       inkscape:persp3d-origin="0.5 : 0.33333333 : 1"
       inkscape:vp_z="1 : 0.5 : 1"
       inkscape:vp_y="0 : 1000 : 0"
       inkscape:vp_x="0 : 0.5 : 1"
       sodipodi:type="inkscape:persp3d" />
    <clipPath
       clipPathUnits="userSpaceOnUse"
       id="clipPath8409">
      <path
         d="m 32.598,401.177 76.28,0 0,121.107 -76.28,0 0,-121.107 z"
         id="path8411" />
    </clipPath>
    <inkscape:perspective
       id="perspective10290"
       inkscape:persp3d-origin="0.5 : 0.33333333 : 1"
       inkscape:vp_z="1 : 0.5 : 1"
       inkscape:vp_y="0 : 1000 : 0"
       inkscape:vp_x="0 : 0.5 : 1"
       sodipodi:type="inkscape:persp3d" />
    <clipPath
       clipPathUnits="userSpaceOnUse"
       id="clipPath8815">
      <path
         d="m 112.819,401.177 76.28,0 0,121.107 -76.28,0 0,-121.107 z"
         id="path8817" />
    </clipPath>
    <clipPath
       clipPathUnits="userSpaceOnUse"
       id="clipPath8787">
      <path
         d="M 0,0 311,0 311,595 0,595 0,0 z"
         id="path8789" />
    </clipPath>
    <inkscape:perspective
       id="perspective10621"
       inkscape:persp3d-origin="0.5 : 0.33333333 : 1"
       inkscape:vp_z="1 : 0.5 : 1"
       inkscape:vp_y="0 : 1000 : 0"
       inkscape:vp_x="0 : 0.5 : 1"
       sodipodi:type="inkscape:persp3d" />
    <clipPath
       clipPathUnits="userSpaceOnUse"
       id="clipPath8605">
      <path
         d="m 32.598,269.008 76.28,0 0,91.275 -76.28,0 0,-91.275 z"
         id="path8607" />
    </clipPath>
    <clipPath
       clipPathUnits="userSpaceOnUse"
       id="clipPath8585">
      <path
         d="M 0,0 311,0 311,595 0,595 0,0 z"
         id="path8587" />
    </clipPath>
  </defs>
  <sodipodi:namedview
     id="base"
     pagecolor="#ffffff"
     bordercolor="#666666"
     borderopacity="1.0"
     inkscape:pageopacity="0.0"
     inkscape:pageshadow="2"
     inkscape:zoom="0.59068275"
     inkscape:cx="306.13479"
     inkscape:cy="20.542315"
     inkscape:document-units="px"
     inkscape:current-layer="layer1"
     showgrid="false"
     inkscape:window-width="1600"
     inkscape:window-height="838"
     inkscape:window-x="-8"
     inkscape:window-y="-8"
     inkscape:window-maximized="1" />
  <metadata
     id="metadata6424">
    <rdf:RDF>
      <cc:Work
         rdf:about="">
        <dc:format>image/svg+xml</dc:format>
        <dc:type
           rdf:resource="http://purl.org/dc/dcmitype/StillImage" />
        <dc:title></dc:title>
      </cc:Work>
    </rdf:RDF>
  </metadata>
  <g
     inkscape:label="Livello 1"
     inkscape:groupmode="layer"
     id="layer1"
     transform="translate(340.02394,-456.41463)">
    <g
       transform="matrix(1.25,0,0,-1.25,-390.26856,903.91113)"
       id="g8581">
      <g
         id="g8583"
         clip-path="url(#clipPath8585)">
        <g
           id="g8589"
           transform="translate(100.5827,276.5162)">
          <path
             d="m 0,0 -59.838,0.405 0,80.515 L 0,80.932 0,0 z"
             style="fill:#ffdb00;fill-opacity:1;fill-rule:nonzero;stroke:none"
             id="path8591" />
        </g>
        <g
           id="g8593"
           transform="translate(100.5827,276.5162)">
          <path
             d="m 0,0 -59.838,0.405 0,80.515 L 0,80.932 0,0 z"
             style="fill:none;stroke:#ed1d24;stroke-width:1.09800005;stroke-linecap:butt;stroke-linejoin:miter;stroke-miterlimit:4;stroke-opacity:1;stroke-dasharray:none"
             id="path8595" />
        </g>
        <g
           id="g8597"
           transform="translate(63.861999,321.2003)">
          <path
             d="M 0,0 -8.394,0 7.135,27.184 22.918,0 0,0 z"
             style="fill:#ffffff;fill-opacity:1;fill-rule:evenodd;stroke:none"
             id="path8599" />
        </g>
      </g>
    </g>
    <g
       transform="matrix(1.25,0,0,-1.25,-390.26856,903.91113)"
       id="g8601">
      <g
         id="g8603"
         clip-path="url(#clipPath8605)">
        <g
           id="g8609"
           transform="translate(57.162506,322.3439)">
          <path
             d="M 0,0 27.774,0 13.892,24.031 0,0 z m 29.136,-3.104 c 0.826,0 1.586,0.444 2,1.163 0.423,0.719 0.423,1.606 0,2.325 l -15.232,26.37 c -0.416,0.717 -1.181,1.159 -2.012,1.159 -0.832,0 -1.6,-0.445 -2.015,-1.166 L -3.359,0.384 c -0.414,-0.719 -0.414,-1.606 0,-2.325 0.413,-0.719 1.192,-1.163 2.019,-1.163 l 30.476,0 z"
             style="fill:#ed1d24;fill-opacity:1;fill-rule:evenodd;stroke:none"
             id="path8611" />
        </g>
        <g
           id="g8613"
           transform="translate(95.016296,280.99249)">
          <path
             d="m 0,0 -47.907,0.268 0,26.395 L 0,26.736 0,0 z"
             style="fill:#ed1d24;fill-opacity:1;fill-rule:nonzero;stroke:none"
             id="path8615" />
        </g>
        <g
           id="g8617"
           transform="translate(95.016296,280.99249)">
          <path
             d="m 0,0 -47.907,0.268 0,26.395 L 0,26.736 0,0 z"
             style="fill:none;stroke:#bcbec0;stroke-width:1.64600003;stroke-linecap:butt;stroke-linejoin:miter;stroke-miterlimit:4;stroke-opacity:1;stroke-dasharray:none"
             id="path8619" />
        </g>
        <g
           id="g8621"
           transform="translate(61.217697,300.7661)">
          <path
             d="M 0,0 -0.849,2.256 -1.672,0 0,0 z m 1.072,-0.636 -3.784,0 1.468,3.772 0.807,0 1.509,-3.772 z"
             style="fill:#dadbdc;fill-opacity:1;fill-rule:nonzero;stroke:none"
             id="path8623" />
        </g>
        <path
           d="m 62.653,300.13 0.761,0 0,3.772 -0.761,0 0,-3.772 z"
           style="fill:#dadbdc;fill-opacity:1;fill-rule:nonzero;stroke:none"
           id="path8625" />
        <g
           id="g8627"
           transform="translate(66.138794,301.6227)">
          <path
             d="M 0,0 -0.519,1.399 -1.029,0 0,0 z m 1.402,-1.492 -0.827,0 -0.331,0.856 -1.507,0 -0.311,-0.856 -0.808,0 1.469,3.771 0.806,0 1.509,-3.771 z"
             style="fill:#dadbdc;fill-opacity:1;fill-rule:nonzero;stroke:none"
             id="path8629" />
        </g>
        <g
           id="g8631"
           transform="translate(68.709305,301.77431)">
          <path
             d="m 0,0 0,-1.008 0.705,0 c 0.275,0 0.448,0.007 0.522,0.022 0.114,0.022 0.206,0.071 0.277,0.151 0.072,0.08 0.107,0.187 0.107,0.321 0,0.113 -0.028,0.209 -0.083,0.287 C 1.474,-0.147 1.395,-0.089 1.29,-0.054 1.187,-0.018 0.961,0 0.615,0 L 0,0 z m 0,1.5 0,-0.872 0.499,0 c 0.297,0 0.482,0.004 0.553,0.012 C 1.183,0.656 1.285,0.701 1.36,0.775 1.434,0.851 1.472,0.949 1.472,1.07 1.472,1.187 1.44,1.282 1.375,1.354 1.311,1.427 1.216,1.472 1.089,1.487 1.013,1.496 0.796,1.5 0.437,1.5 L 0,1.5 z m -0.761,0.628 1.507,0 C 1.045,2.128 1.267,2.115 1.414,2.09 1.561,2.066 1.691,2.014 1.807,1.935 1.923,1.856 2.019,1.751 2.097,1.62 2.174,1.488 2.212,1.342 2.212,1.179 2.212,1.002 2.165,0.84 2.07,0.692 1.974,0.545 1.846,0.434 1.683,0.36 1.912,0.293 2.089,0.18 2.212,0.018 2.337,-0.143 2.398,-0.333 2.398,-0.55 2.398,-0.722 2.358,-0.889 2.279,-1.051 2.198,-1.213 2.09,-1.343 1.952,-1.439 1.814,-1.537 1.643,-1.596 1.441,-1.618 1.314,-1.632 1.008,-1.641 0.523,-1.644 l -1.284,0 0,3.772 z"
             style="fill:#dadbdc;fill-opacity:1;fill-rule:nonzero;stroke:none"
             id="path8633" />
        </g>
        <g
           id="g8635"
           transform="translate(73.749405,301.6227)">
          <path
             d="M 0,0 -0.519,1.399 -1.029,0 0,0 z m 1.402,-1.492 -0.827,0 -0.331,0.856 -1.507,0 -0.31,-0.856 -0.809,0 1.469,3.771 0.806,0 1.509,-3.771 z"
             style="fill:#dadbdc;fill-opacity:1;fill-rule:nonzero;stroke:none"
             id="path8637" />
        </g>
        <g
           id="g8639"
           transform="translate(75.453796,303.9021)">
          <path
             d="m 0,0 2.611,0 0,-0.638 -1.672,0 0.974,-1.163 -1.075,-1.335 1.853,0 0,-0.636 -2.74,0 0,0.706 1.011,1.265 L 0,-0.679 0,0 z"
             style="fill:#dadbdc;fill-opacity:1;fill-rule:nonzero;stroke:none"
             id="path8641" />
        </g>
        <g
           id="g8643"
           transform="translate(78.720901,300.13049)">
          <path
             d="m 0,0 0,3.772 0.761,0 0,-1.485 1.492,0 0,1.485 0.762,0 0,-3.772 -0.762,0 0,1.649 -1.492,0 L 0.761,0 0,0 z"
             style="fill:#dadbdc;fill-opacity:1;fill-rule:nonzero;stroke:none"
             id="path8645" />
        </g>
        <g
           id="g8647"
           transform="translate(54.077606,298.41341)">
          <path
             d="m 0,0 2.611,0 0,-0.638 -1.672,0 0.974,-1.163 -1.075,-1.334 1.852,0 0,-0.636 -2.739,0 0,0.705 1.011,1.265 L 0,-0.679 0,0 z"
             style="fill:#dadbdc;fill-opacity:1;fill-rule:nonzero;stroke:none"
             id="path8649" />
        </g>
        <g
           id="g8651"
           transform="translate(57.342606,294.6422)">
          <path
             d="m 0,0 0,3.771 2.796,0 0,-0.638 -2.035,0 0,-0.836 1.893,0 0,-0.635 -1.893,0 0,-1.026 2.107,0 L 2.868,0 0,0 z"
             style="fill:#dadbdc;fill-opacity:1;fill-rule:nonzero;stroke:none"
             id="path8653" />
        </g>
        <g
           id="g8655"
           transform="translate(62.3302,294.6422)">
          <path
             d="m 0,0 0,3.771 0.762,0 0,-1.674 1.538,1.674 1.024,0 L 1.904,2.303 3.401,0 2.416,0 1.38,1.77 0.762,1.139 0.762,0 0,0 z"
             style="fill:#dadbdc;fill-opacity:1;fill-rule:nonzero;stroke:none"
             id="path8657" />
        </g>
        <g
           id="g8659"
           transform="translate(67.116394,294.6422)">
          <path
             d="m 0,0 0,1.588 -1.382,2.183 0.893,0 0.888,-1.492 0.869,1.492 0.877,0 L 0.759,1.582 0.759,0 0,0 z"
             style="fill:#dadbdc;fill-opacity:1;fill-rule:nonzero;stroke:none"
             id="path8661" />
        </g>
        <g
           id="g8663"
           transform="translate(70.400803,297.7755)">
          <path
             d="m 0,0 0,-1.07 0.417,0 c 0.3,0 0.5,0.02 0.601,0.059 0.102,0.04 0.181,0.101 0.238,0.186 0.058,0.083 0.087,0.181 0.087,0.292 0,0.138 -0.041,0.251 -0.121,0.34 C 1.142,-0.104 1.04,-0.048 0.915,-0.026 0.825,-0.009 0.642,0 0.368,0 L 0,0 z m -0.761,-3.133 0,3.771 1.222,0 C 0.924,0.638 1.225,0.62 1.366,0.582 1.582,0.525 1.763,0.402 1.909,0.212 2.055,0.023 2.128,-0.222 2.128,-0.522 2.128,-0.754 2.086,-0.949 2.001,-1.106 1.918,-1.264 1.81,-1.388 1.681,-1.478 1.552,-1.568 1.42,-1.627 1.286,-1.656 1.104,-1.693 0.841,-1.711 0.496,-1.711 l -0.496,0 0,-1.422 -0.761,0 z"
             style="fill:#dadbdc;fill-opacity:1;fill-rule:nonzero;stroke:none"
             id="path8665" />
        </g>
        <g
           id="g8667"
           transform="translate(74.002396,294.6422)">
          <path
             d="m 0,0 0,3.133 -1.119,0 0,0.638 2.997,0 0,-0.638 -1.117,0 L 0.761,0 0,0 z"
             style="fill:#dadbdc;fill-opacity:1;fill-rule:nonzero;stroke:none"
             id="path8669" />
        </g>
        <g
           id="g8671"
           transform="translate(76.144104,294.6422)">
          <path
             d="m 0,0 0,0.636 0.731,0 C 0.283,1.105 0.059,1.611 0.059,2.154 0.059,2.626 0.22,3.025 0.54,3.35 0.861,3.673 1.301,3.835 1.86,3.835 2.414,3.835 2.852,3.675 3.175,3.352 3.498,3.029 3.658,2.631 3.658,2.154 3.658,1.611 3.434,1.105 2.987,0.636 l 0.734,0 0,-0.636 -1.727,0 0,0.607 C 2.284,0.715 2.503,0.89 2.651,1.132 2.8,1.374 2.874,1.653 2.874,1.968 2.874,2.292 2.788,2.576 2.618,2.819 2.447,3.064 2.194,3.185 1.86,3.185 1.527,3.185 1.276,3.064 1.104,2.822 0.933,2.58 0.847,2.296 0.847,1.968 0.847,1.651 0.921,1.372 1.069,1.131 1.218,0.89 1.436,0.715 1.727,0.607 L 1.727,0 0,0 z"
             style="fill:#dadbdc;fill-opacity:1;fill-rule:nonzero;stroke:none"
             id="path8673" />
        </g>
        <g
           id="g8675"
           transform="translate(80.4897,294.6422)">
          <path
             d="m 0,0 0,3.771 1.139,0 0.685,-2.573 0.677,2.573 1.141,0 0,-3.771 -0.707,0 0,2.969 L 2.187,0 1.454,0 0.707,2.969 0.707,0 0,0 z"
             style="fill:#dadbdc;fill-opacity:1;fill-rule:nonzero;stroke:none"
             id="path8677" />
        </g>
        <g
           id="g8679"
           transform="translate(86.886902,296.1344)">
          <path
             d="M 0,0 -0.519,1.4 -1.029,0 0,0 z m 1.402,-1.492 -0.828,0 -0.33,0.856 -1.507,0 -0.311,-0.856 -0.808,0 1.469,3.771 0.806,0 1.509,-3.771 z"
             style="fill:#dadbdc;fill-opacity:1;fill-rule:nonzero;stroke:none"
             id="path8681" />
        </g>
        <g
           id="g8683"
           transform="translate(60.902405,289.15401)">
          <path
             d="m 0,0 0,3.771 0.761,0 0,-1.483 1.492,0 0,1.483 0.762,0 0,-3.771 -0.762,0 0,1.649 -1.492,0 L 0.761,0 0,0 z"
             style="fill:#dadbdc;fill-opacity:1;fill-rule:nonzero;stroke:none"
             id="path8685" />
        </g>
        <g
           id="g8687"
           transform="translate(66.497894,289.15401)">
          <path
             d="M 0,0 0,0.41 C -0.099,0.264 -0.229,0.148 -0.392,0.064 c -0.162,-0.083 -0.333,-0.126 -0.513,-0.126 -0.184,0 -0.348,0.041 -0.494,0.121 -0.146,0.08 -0.252,0.194 -0.316,0.34 -0.065,0.146 -0.099,0.347 -0.099,0.604 l 0,1.729 0.724,0 0,-1.255 c 0,-0.385 0.013,-0.619 0.04,-0.706 l 0.145,-0.206 c 0.07,-0.05 0.159,-0.076 0.267,-0.076 0.124,0 0.235,0.034 0.333,0.102 0.097,0.067 0.164,0.151 0.2,0.252 0.036,0.1 0.054,0.346 0.054,0.737 l 0,1.152 0.723,0 L 0.672,0 0,0 z"
             style="fill:#dadbdc;fill-opacity:1;fill-rule:nonzero;stroke:none"
             id="path8689" />
        </g>
        <g
           id="g8691"
           transform="translate(67.863403,291.8864)">
          <path
             d="m 0,0 0.667,0 0,-0.373 c 0.238,0.289 0.522,0.434 0.851,0.434 0.176,0 0.327,-0.035 0.455,-0.107 0.129,-0.073 0.235,-0.181 0.317,-0.327 0.12,0.146 0.249,0.254 0.389,0.327 0.138,0.072 0.287,0.107 0.445,0.107 0.2,0 0.37,-0.041 0.509,-0.122 0.139,-0.082 0.243,-0.201 0.312,-0.358 0.049,-0.117 0.074,-0.306 0.074,-0.566 l 0,-1.747 -0.723,0 0,1.561 c 0,0.272 -0.024,0.446 -0.075,0.525 -0.066,0.103 -0.169,0.154 -0.308,0.154 -0.101,0 -0.197,-0.03 -0.286,-0.092 C 2.538,-0.646 2.474,-0.736 2.434,-0.855 2.395,-0.974 2.375,-1.163 2.375,-1.42 l 0,-1.312 -0.723,0 0,1.497 c 0,0.266 -0.013,0.437 -0.039,0.515 l -0.119,0.172 -0.22,0.056 c -0.112,0 -0.212,-0.03 -0.301,-0.09 C 0.883,-0.642 0.82,-0.728 0.782,-0.841 0.743,-0.955 0.724,-1.143 0.724,-1.405 l 0,-1.327 L 0,-2.732 0,0 z"
             style="fill:#dadbdc;fill-opacity:1;fill-rule:nonzero;stroke:none"
             id="path8693" />
        </g>
        <g
           id="g8695"
           transform="translate(73.296997,290.56689)">
          <path
             d="M 0,0 C 0,-0.308 0.061,-0.534 0.182,-0.681 0.304,-0.828 0.452,-0.9 0.627,-0.9 c 0.168,0 0.309,0.066 0.42,0.201 0.112,0.135 0.168,0.356 0.168,0.662 0,0.287 -0.058,0.5 -0.173,0.638 C 0.927,0.741 0.785,0.81 0.614,0.81 0.439,0.81 0.292,0.742 0.175,0.606 0.058,0.47 0,0.267 0,0 m -0.715,1.319 0.673,0 0,-0.401 C 0.046,1.055 0.164,1.166 0.314,1.252 0.463,1.338 0.628,1.381 0.81,1.381 1.128,1.381 1.397,1.256 1.618,1.008 1.839,0.759 1.95,0.413 1.95,-0.031 1.95,-0.488 1.838,-0.843 1.615,-1.096 1.392,-1.349 1.122,-1.475 0.805,-1.475 c -0.151,0 -0.287,0.03 -0.41,0.09 -0.123,0.06 -0.252,0.163 -0.387,0.309 l 0,-1.377 -0.723,0 0,3.772 z"
             style="fill:#dadbdc;fill-opacity:1;fill-rule:nonzero;stroke:none"
             id="path8697" />
        </g>
        <g
           id="g8699"
           transform="translate(77.443298,290.75439)">
          <path
             d="M 0,0 C -0.005,0.209 -0.059,0.368 -0.162,0.477 -0.265,0.586 -0.39,0.64 -0.537,0.64 -0.696,0.64 -0.825,0.583 -0.928,0.468 -1.031,0.353 -1.082,0.197 -1.081,0 L 0,0 z M -0.041,-0.731 0.68,-0.852 C 0.586,-1.116 0.441,-1.317 0.241,-1.454 c -0.2,-0.139 -0.45,-0.209 -0.75,-0.209 -0.475,0 -0.827,0.156 -1.055,0.467 -0.18,0.249 -0.27,0.563 -0.27,0.941 0,0.453 0.118,0.807 0.355,1.064 0.237,0.257 0.536,0.384 0.898,0.384 0.406,0 0.727,-0.134 0.962,-0.402 0.235,-0.269 0.347,-0.679 0.337,-1.234 l -1.811,0 c 0.005,-0.214 0.063,-0.381 0.174,-0.5 0.112,-0.119 0.251,-0.179 0.417,-0.179 0.114,0 0.209,0.031 0.287,0.093 0.077,0.061 0.135,0.161 0.174,0.298"
             style="fill:#dadbdc;fill-opacity:1;fill-rule:nonzero;stroke:none"
             id="path8701" />
        </g>
        <g
           id="g8703"
           transform="translate(79.326599,290.5798)">
          <path
             d="m 0,0 c 0,-0.292 0.041,-0.503 0.121,-0.634 0.117,-0.188 0.28,-0.283 0.489,-0.283 0.166,0 0.308,0.071 0.424,0.213 0.117,0.141 0.175,0.352 0.175,0.634 0,0.314 -0.056,0.539 -0.169,0.678 C 0.926,0.746 0.781,0.815 0.605,0.815 0.433,0.815 0.289,0.747 0.174,0.611 0.058,0.474 0,0.27 0,0 m 1.929,-1.426 -0.671,0 0,0.401 C 1.147,-1.18 1.015,-1.297 0.864,-1.373 0.712,-1.449 0.559,-1.488 0.404,-1.488 c -0.314,0 -0.582,0.127 -0.806,0.38 -0.224,0.253 -0.336,0.606 -0.336,1.059 0,0.463 0.109,0.814 0.326,1.056 0.219,0.241 0.493,0.361 0.827,0.361 0.305,0 0.569,-0.127 0.792,-0.381 l 0,1.358 0.722,0 0,-3.771 z"
             style="fill:#dadbdc;fill-opacity:1;fill-rule:nonzero;stroke:none"
             id="path8705" />
        </g>
        <g
           id="g8707"
           transform="translate(62.433197,285.0529)">
          <path
             d="M 0,0 0.739,-0.235 C 0.625,-0.646 0.436,-0.952 0.174,-1.151 c -0.264,-0.201 -0.597,-0.3 -1.003,-0.3 -0.5,0 -0.912,0.171 -1.234,0.513 -0.323,0.342 -0.484,0.809 -0.484,1.403 0,0.628 0.162,1.115 0.486,1.462 0.324,0.348 0.75,0.521 1.278,0.521 0.462,0 0.837,-0.136 1.125,-0.408 0.172,-0.162 0.3,-0.394 0.386,-0.695 l -0.754,-0.18 c -0.045,0.195 -0.138,0.35 -0.279,0.463 -0.142,0.113 -0.313,0.17 -0.516,0.17 -0.28,0 -0.506,-0.1 -0.681,-0.302 -0.173,-0.2 -0.26,-0.525 -0.26,-0.974 0,-0.477 0.085,-0.817 0.257,-1.019 0.171,-0.202 0.395,-0.304 0.669,-0.304 0.202,0 0.376,0.065 0.522,0.193 C -0.168,-0.479 -0.063,-0.276 0,0"
             style="fill:#dadbdc;fill-opacity:1;fill-rule:nonzero;stroke:none"
             id="path8709" />
        </g>
        <g
           id="g8711"
           transform="translate(64.511597,283.6658)">
          <path
             d="m 0,0 -0.722,0 0,2.732 0.671,0 0,-0.389 c 0.115,0.185 0.218,0.305 0.31,0.364 0.092,0.058 0.196,0.087 0.312,0.087 0.165,0 0.324,-0.046 0.476,-0.137 L 0.823,2.027 C 0.702,2.106 0.589,2.146 0.484,2.146 0.383,2.146 0.297,2.118 0.227,2.062 0.156,2.007 0.101,1.906 0.061,1.76 0.02,1.614 0,1.309 0,0.844 L 0,0 z"
             style="fill:#dadbdc;fill-opacity:1;fill-rule:nonzero;stroke:none"
             id="path8713" />
        </g>
        <g
           id="g8715"
           transform="translate(66.444305,285.03149)">
          <path
             d="m 0,0 c 0,-0.27 0.064,-0.478 0.193,-0.622 0.128,-0.144 0.287,-0.216 0.476,-0.216 0.188,0 0.347,0.072 0.475,0.216 0.127,0.144 0.192,0.353 0.192,0.627 0,0.268 -0.065,0.474 -0.192,0.618 C 1.016,0.767 0.857,0.839 0.669,0.839 0.48,0.839 0.321,0.767 0.193,0.623 0.064,0.479 0,0.271 0,0 m -0.741,0.039 c 0,0.24 0.059,0.472 0.177,0.697 0.119,0.224 0.286,0.396 0.504,0.515 0.216,0.118 0.459,0.177 0.727,0.177 0.412,0 0.751,-0.134 1.016,-0.402 0.264,-0.269 0.395,-0.608 0.395,-1.017 0,-0.414 -0.133,-0.757 -0.399,-1.028 -0.267,-0.273 -0.603,-0.409 -1.008,-0.409 -0.25,0 -0.489,0.057 -0.716,0.171 -0.227,0.112 -0.4,0.278 -0.519,0.497 -0.118,0.219 -0.177,0.486 -0.177,0.799"
             style="fill:#dadbdc;fill-opacity:1;fill-rule:nonzero;stroke:none"
             id="path8717" />
        </g>
        <g
           id="g8719"
           transform="translate(68.833603,284.4451)">
          <path
             d="m 0,0 0.726,0.11 c 0.031,-0.14 0.093,-0.246 0.187,-0.319 0.095,-0.073 0.226,-0.109 0.397,-0.109 0.186,0 0.327,0.034 0.421,0.103 L 1.827,-0.023 1.775,0.114 C 1.74,0.148 1.658,0.179 1.534,0.209 0.951,0.338 0.581,0.455 0.425,0.561 0.209,0.709 0.101,0.913 0.101,1.176 c 0,0.237 0.093,0.435 0.28,0.597 0.187,0.161 0.477,0.241 0.87,0.241 0.373,0 0.652,-0.06 0.833,-0.182 C 2.266,1.71 2.391,1.53 2.46,1.292 L 1.778,1.165 C 1.748,1.272 1.694,1.354 1.612,1.41 1.531,1.466 1.414,1.495 1.264,1.495 1.073,1.495 0.937,1.469 0.854,1.415 L 0.772,1.268 0.844,1.137 C 0.909,1.089 1.134,1.022 1.519,0.934 1.905,0.847 2.173,0.74 2.326,0.612 2.477,0.483 2.552,0.304 2.552,0.075 c 0,-0.251 -0.105,-0.466 -0.314,-0.646 -0.209,-0.18 -0.519,-0.27 -0.928,-0.27 -0.372,0 -0.667,0.076 -0.884,0.227 C 0.209,-0.464 0.068,-0.258 0,0"
             style="fill:#dadbdc;fill-opacity:1;fill-rule:nonzero;stroke:none"
             id="path8721" />
        </g>
        <g
           id="g8723"
           transform="translate(71.764298,284.4451)">
          <path
             d="m 0,0 0.726,0.11 c 0.031,-0.14 0.093,-0.246 0.187,-0.319 0.094,-0.073 0.226,-0.109 0.397,-0.109 0.186,0 0.327,0.034 0.421,0.103 L 1.826,-0.023 1.775,0.114 C 1.74,0.148 1.658,0.179 1.534,0.209 0.951,0.338 0.581,0.455 0.424,0.561 0.209,0.709 0.101,0.913 0.101,1.176 c 0,0.237 0.093,0.435 0.279,0.597 0.188,0.161 0.477,0.241 0.871,0.241 0.373,0 0.652,-0.06 0.833,-0.182 C 2.266,1.71 2.391,1.53 2.46,1.292 L 1.778,1.165 C 1.748,1.272 1.694,1.354 1.612,1.41 1.531,1.466 1.414,1.495 1.264,1.495 1.073,1.495 0.937,1.469 0.854,1.415 L 0.772,1.268 0.844,1.137 C 0.909,1.089 1.134,1.022 1.519,0.934 1.905,0.847 2.173,0.74 2.326,0.612 2.477,0.483 2.552,0.304 2.552,0.075 c 0,-0.251 -0.105,-0.466 -0.314,-0.646 -0.209,-0.18 -0.519,-0.27 -0.928,-0.27 -0.372,0 -0.667,0.076 -0.884,0.227 C 0.209,-0.464 0.068,-0.258 0,0"
             style="fill:#dadbdc;fill-opacity:1;fill-rule:nonzero;stroke:none"
             id="path8725" />
        </g>
        <g
           id="g8727"
           transform="translate(74.949997,286.39799)">
          <path
             d="m 0,0 0.722,0 0,-2.732 L 0,-2.732 0,0 z m 0,1.039 0.722,0 0,-0.669 -0.722,0 0,0.669 z"
             style="fill:#dadbdc;fill-opacity:1;fill-rule:nonzero;stroke:none"
             id="path8729" />
        </g>
        <g
           id="g8731"
           transform="translate(78.899002,283.6658)">
          <path
             d="m 0,0 -0.722,0 0,1.395 c 0,0.294 -0.017,0.485 -0.047,0.572 L -0.92,2.168 -1.171,2.24 C -1.296,2.24 -1.408,2.206 -1.507,2.137 -1.607,2.069 -1.675,1.979 -1.712,1.865 -1.748,1.751 -1.768,1.543 -1.768,1.237 l 0,-1.237 -0.722,0 0,2.732 0.671,0 0,-0.402 c 0.239,0.309 0.539,0.464 0.9,0.464 0.16,0 0.306,-0.028 0.438,-0.086 0.133,-0.058 0.232,-0.131 0.3,-0.22 C -0.114,2.399 -0.066,2.297 -0.04,2.185 -0.013,2.071 0,1.909 0,1.698 L 0,0 z"
             style="fill:#dadbdc;fill-opacity:1;fill-rule:nonzero;stroke:none"
             id="path8733" />
        </g>
        <g
           id="g8735"
           transform="translate(80.210999,285.0883)">
          <path
             d="m 0,0 c 0,-0.289 0.056,-0.502 0.168,-0.637 0.113,-0.134 0.251,-0.201 0.416,-0.201 0.176,0 0.326,0.068 0.447,0.207 0.122,0.138 0.183,0.343 0.183,0.613 0,0.283 -0.059,0.493 -0.175,0.63 C 0.923,0.749 0.775,0.818 0.597,0.818 0.423,0.818 0.281,0.751 0.168,0.616 0.056,0.481 0,0.277 0,0 M -0.646,-1.603 0.18,-1.703 0.275,-1.9 c 0.069,-0.052 0.176,-0.078 0.324,-0.078 0.189,0 0.33,0.028 0.425,0.085 l 0.143,0.182 c 0.023,0.06 0.035,0.171 0.035,0.333 l 0,0.398 C 0.985,-1.274 0.713,-1.422 0.383,-1.422 c -0.367,0 -0.657,0.155 -0.872,0.465 -0.168,0.245 -0.252,0.551 -0.252,0.916 0,0.458 0.11,0.807 0.33,1.05 0.221,0.242 0.495,0.362 0.823,0.362 0.337,0 0.616,-0.148 0.836,-0.445 l 0,0.384 0.676,0 0,-2.452 C 1.924,-1.464 1.897,-1.705 1.845,-1.865 1.791,-2.025 1.716,-2.149 1.621,-2.24 1.524,-2.331 1.397,-2.402 1.236,-2.454 1.075,-2.505 0.873,-2.531 0.627,-2.531 c -0.463,0 -0.791,0.08 -0.985,0.238 -0.194,0.159 -0.291,0.359 -0.291,0.603 l 0.003,0.087 z"
             style="fill:#dadbdc;fill-opacity:1;fill-rule:nonzero;stroke:none"
             id="path8737" />
        </g>
        <g
           id="g8739"
           transform="translate(71.9272,336.33791)">
          <path
             d="M 0,0 C 0.233,-0.568 0.84,-1.174 1.407,-1.649 1.986,-2.116 2.696,-2.404 2.883,-2.462 3.07,-2.518 3.741,-2.665 3.825,-2.665 l 0.262,-0.114 c 0.081,0 0.24,0.114 0.29,0.317 C 4.429,-2.257 4.58,-1.62 4.27,-1.567 3.956,-1.519 3.935,-1.649 3.935,-1.649 L 3.462,-1.465 C 3.378,-1.388 2.753,-1.071 2.565,-0.866 2.379,-0.662 1.949,-0.214 1.754,0.131 1.521,0.551 1.306,1.213 1.175,1.474 1.045,1.735 0.736,2.285 0.522,2.472 0.309,2.649 -0.186,3.098 -0.213,3.117 l 0.027,0.298 C -0.131,3.444 0.363,3.704 0.467,3.938 0.569,4.17 0.71,4.281 0.71,4.72 c 0,0.447 -0.421,1.389 -1.417,1.389 -0.998,0 -1.335,-0.755 -1.335,-1.306 0,-0.772 0.494,-0.951 0.364,-1.127 C -1.763,3.563 -2.021,3.573 -2.331,3.546 -2.649,3.517 -3.356,3.228 -3.72,2.882 -4.085,2.538 -4.765,1.755 -4.979,1.343 -5.196,0.925 -5.584,0.142 -5.735,-0.42 -5.893,-0.968 -5.95,-1.306 -5.95,-1.519 c 0,-0.206 -0.055,-0.447 -0.055,-0.447 0,0 -0.289,-0.177 -0.289,-0.364 0,-0.188 0.318,-0.467 0.476,-0.551 0.168,-0.082 0.522,-0.213 0.622,-0.213 0.105,0 0.477,0.159 0.477,0.4 0,0.242 -0.158,0.597 -0.158,0.8 0,0.216 0.243,1.083 0.346,1.271 0.103,0.178 0.522,0.839 0.625,0.941 0.102,0.103 0.261,0.233 0.261,0.233 0.016,-0.736 -0.084,-2.499 -0.233,-3.003 -0.16,-0.503 -0.867,-1.913 -1.168,-2.387 -0.344,-0.577 -1.127,-1.763 -1.537,-2.239 -0.411,-0.473 -1.007,-1.007 -1.102,-1.062 -0.093,-0.064 -0.065,-0.196 0,-0.318 0.067,-0.121 0.812,-1.603 0.85,-1.603 l 1.231,-0.226 c 0.064,0 0.121,0.199 0,0.262 -0.131,0.067 -0.262,0.084 -0.262,0.084 -0.11,0.448 -0.224,0.903 -0.346,1.362 0,0 0.954,0.875 1.139,1.102 0.187,0.214 1.195,1.22 1.38,1.499 0.186,0.282 0.819,1.169 0.914,1.39 0.085,0.216 0.505,0.905 0.505,0.905 0,0 0.437,-0.372 0.596,-0.597 0.149,-0.216 0.848,-1.471 1.007,-1.754 0.159,-0.28 0.756,-1.67 0.849,-1.985 0.084,-0.309 1.071,-2.955 1.071,-2.955 l 2.417,1.073 c 0.092,0.063 0.223,0.306 0,0.306 -0.225,0 -1.634,0.194 -1.634,0.194 0,0 -0.092,0.784 -0.129,1.01 -0.028,0.221 -0.371,1.789 -0.496,2.071 -0.128,0.278 -0.726,1.666 -0.856,1.824 -0.131,0.153 -0.568,1.355 -0.653,1.634 -0.094,0.279 -0.261,1.035 -0.261,1.353 0,0.308 0.157,1.136 0.363,1.509"
             style="fill:#000000;fill-opacity:1;fill-rule:evenodd;stroke:none"
             id="path8741" />
        </g>
        <path
           d="m 61.865,323.87 1.221,0 0,0.495 -1.221,0 0,-0.495 z"
           style="fill:#000000;fill-opacity:1;fill-rule:evenodd;stroke:none"
           id="path8743" />
        <path
           d="m 63.702,323.87 1.221,0 0,0.495 -1.221,0 0,-0.495 z"
           style="fill:#000000;fill-opacity:1;fill-rule:evenodd;stroke:none"
           id="path8745" />
        <path
           d="m 65.54,323.87 1.221,0 0,0.495 -1.221,0 0,-0.495 z"
           style="fill:#000000;fill-opacity:1;fill-rule:evenodd;stroke:none"
           id="path8747" />
        <path
           d="m 67.376,323.87 1.223,0 0,0.495 -1.223,0 0,-0.495 z"
           style="fill:#000000;fill-opacity:1;fill-rule:evenodd;stroke:none"
           id="path8749" />
        <path
           d="m 69.214,323.87 1.222,0 0,0.495 -1.222,0 0,-0.495 z"
           style="fill:#000000;fill-opacity:1;fill-rule:evenodd;stroke:none"
           id="path8751" />
        <path
           d="m 71.042,323.87 1.232,0 0,0.495 -1.232,0 0,-0.495 z"
           style="fill:#000000;fill-opacity:1;fill-rule:evenodd;stroke:none"
           id="path8753" />
        <path
           d="m 72.88,323.87 1.232,0 0,0.495 -1.232,0 0,-0.495 z"
           style="fill:#000000;fill-opacity:1;fill-rule:evenodd;stroke:none"
           id="path8755" />
        <path
           d="m 74.715,323.87 1.231,0 0,0.495 -1.231,0 0,-0.495 z"
           style="fill:#000000;fill-opacity:1;fill-rule:evenodd;stroke:none"
           id="path8757" />
        <path
           d="m 76.554,323.87 1.232,0 0,0.495 -1.232,0 0,-0.495 z"
           style="fill:#000000;fill-opacity:1;fill-rule:evenodd;stroke:none"
           id="path8759" />
        <path
           d="m 60.028,323.87 1.222,0 0,0.495 -1.222,0 0,-0.495 z"
           style="fill:#000000;fill-opacity:1;fill-rule:evenodd;stroke:none"
           id="path8761" />
        <path
           d="m 78.39,323.87 1.231,0 0,0.495 -1.231,0 0,-0.495 z"
           style="fill:#000000;fill-opacity:1;fill-rule:evenodd;stroke:none"
           id="path8763" />
        <path
           d="m 80.227,323.87 1.221,0 0,0.495 -1.221,0 0,-0.495 z"
           style="fill:#000000;fill-opacity:1;fill-rule:evenodd;stroke:none"
           id="path8765" />
        <path
           d="m 61.865,327.788 1.221,0 0,0.483 -1.221,0 0,-0.483 z"
           style="fill:#000000;fill-opacity:1;fill-rule:evenodd;stroke:none"
           id="path8767" />
        <path
           d="m 65.54,327.788 1.221,0 0,0.483 -1.221,0 0,-0.483 z"
           style="fill:#000000;fill-opacity:1;fill-rule:evenodd;stroke:none"
           id="path8769" />
        <path
           d="m 67.376,327.788 1.223,0 0,0.483 -1.223,0 0,-0.483 z"
           style="fill:#000000;fill-opacity:1;fill-rule:evenodd;stroke:none"
           id="path8771" />
        <path
           d="m 69.214,327.788 1.222,0 0,0.483 -1.222,0 0,-0.483 z"
           style="fill:#000000;fill-opacity:1;fill-rule:evenodd;stroke:none"
           id="path8773" />
        <path
           d="m 71.042,327.788 1.232,0 0,0.483 -1.232,0 0,-0.483 z"
           style="fill:#000000;fill-opacity:1;fill-rule:evenodd;stroke:none"
           id="path8775" />
        <path
           d="m 74.715,327.788 1.231,0 0,0.483 -1.231,0 0,-0.483 z"
           style="fill:#000000;fill-opacity:1;fill-rule:evenodd;stroke:none"
           id="path8777" />
        <path
           d="m 76.554,327.788 1.232,0 0,0.483 -1.232,0 0,-0.483 z"
           style="fill:#000000;fill-opacity:1;fill-rule:evenodd;stroke:none"
           id="path8779" />
        <path
           d="m 78.39,327.788 1.231,0 0,0.483 -1.231,0 0,-0.483 z"
           style="fill:#000000;fill-opacity:1;fill-rule:evenodd;stroke:none"
           id="path8781" />
      </g>
    </g>
  </g>
</svg>
