<?xml version="1.0" encoding="UTF-8" standalone="no"?>
<!-- Created with Inkscape (http://www.inkscape.org/) -->

<svg
   xmlns:dc="http://purl.org/dc/elements/1.1/"
   xmlns:cc="http://creativecommons.org/ns#"
   xmlns:rdf="http://www.w3.org/1999/02/22-rdf-syntax-ns#"
   xmlns:svg="http://www.w3.org/2000/svg"
   xmlns="http://www.w3.org/2000/svg"
   xmlns:sodipodi="http://sodipodi.sourceforge.net/DTD/sodipodi-0.dtd"
   xmlns:inkscape="http://www.inkscape.org/namespaces/inkscape"
   width="385.54614"
   height="340.80002"
   id="svg4205"
   version="1.1"
   inkscape:version="0.47 r22583"
   sodipodi:docname="Cyprus warning road sign child.svg">
  <defs
     id="defs4207">
    <inkscape:perspective
       sodipodi:type="inkscape:persp3d"
       inkscape:vp_x="0 : 526.18109 : 1"
       inkscape:vp_y="0 : 1000 : 0"
       inkscape:vp_z="744.09448 : 526.18109 : 1"
       inkscape:persp3d-origin="372.04724 : 350.78739 : 1"
       id="perspective4213" />
    <inkscape:perspective
       id="perspective4228"
       inkscape:persp3d-origin="106.21 : 70.796666 : 1"
       inkscape:vp_z="212.42 : 106.195 : 1"
       inkscape:vp_y="0 : 1000 : 0"
       inkscape:vp_x="0 : 106.195 : 1"
       sodipodi:type="inkscape:persp3d" />
    <clipPath
       id="clipPath16">
      <path
         inkscape:connector-curvature="0"
         d="M 0.059998,169.98 H 170 V 0.06 H 0.059998 v 169.92 z"
         id="path18" />
    </clipPath>
    <inkscape:perspective
       id="perspective4247"
       inkscape:persp3d-origin="0.5 : 0.33333333 : 1"
       inkscape:vp_z="1 : 0.5 : 1"
       inkscape:vp_y="0 : 1000 : 0"
       inkscape:vp_x="0 : 0.5 : 1"
       sodipodi:type="inkscape:persp3d" />
    <clipPath
       clipPathUnits="userSpaceOnUse"
       id="clipPath3426">
      <path
         d="m 43.076,488.976 34.845,0 0,34.015 -34.845,0 0,-34.015 z"
         id="path3428" />
    </clipPath>
    <inkscape:perspective
       id="perspective4323"
       inkscape:persp3d-origin="0.5 : 0.33333333 : 1"
       inkscape:vp_z="1 : 0.5 : 1"
       inkscape:vp_y="0 : 1000 : 0"
       inkscape:vp_x="0 : 0.5 : 1"
       sodipodi:type="inkscape:persp3d" />
    <clipPath
       clipPathUnits="userSpaceOnUse"
       id="clipPath2896">
      <path
         d="m 102.752,490.181 34.845,0 0,34.016 -34.845,0 0,-34.016 z"
         id="path2898" />
    </clipPath>
    <inkscape:perspective
       id="perspective5249"
       inkscape:persp3d-origin="0.5 : 0.33333333 : 1"
       inkscape:vp_z="1 : 0.5 : 1"
       inkscape:vp_y="0 : 1000 : 0"
       inkscape:vp_x="0 : 0.5 : 1"
       sodipodi:type="inkscape:persp3d" />
    <inkscape:perspective
       id="perspective5326"
       inkscape:persp3d-origin="0.5 : 0.33333333 : 1"
       inkscape:vp_z="1 : 0.5 : 1"
       inkscape:vp_y="0 : 1000 : 0"
       inkscape:vp_x="0 : 0.5 : 1"
       sodipodi:type="inkscape:persp3d" />
    <clipPath
       clipPathUnits="userSpaceOnUse"
       id="clipPath3128">
      <path
         d="m 164.704,490.181 34.845,0 0,34.016 -34.845,0 0,-34.016 z"
         id="path3130" />
    </clipPath>
    <inkscape:perspective
       id="perspective5450"
       inkscape:persp3d-origin="0.5 : 0.33333333 : 1"
       inkscape:vp_z="1 : 0.5 : 1"
       inkscape:vp_y="0 : 1000 : 0"
       inkscape:vp_x="0 : 0.5 : 1"
       sodipodi:type="inkscape:persp3d" />
    <clipPath
       clipPathUnits="userSpaceOnUse"
       id="clipPath3318">
      <path
         d="m 224.23,490.181 34.845,0 0,34.016 -34.845,0 0,-34.016 z"
         id="path3320" />
    </clipPath>
    <inkscape:perspective
       id="perspective5517"
       inkscape:persp3d-origin="0.5 : 0.33333333 : 1"
       inkscape:vp_z="1 : 0.5 : 1"
       inkscape:vp_y="0 : 1000 : 0"
       inkscape:vp_x="0 : 0.5 : 1"
       sodipodi:type="inkscape:persp3d" />
    <clipPath
       clipPathUnits="userSpaceOnUse"
       id="clipPath2936">
      <path
         d="m 43.087,413.859 34.845,0 0,34.016 -34.845,0 0,-34.016 z"
         id="path2938" />
    </clipPath>
    <inkscape:perspective
       id="perspective5617"
       inkscape:persp3d-origin="0.5 : 0.33333333 : 1"
       inkscape:vp_z="1 : 0.5 : 1"
       inkscape:vp_y="0 : 1000 : 0"
       inkscape:vp_x="0 : 0.5 : 1"
       sodipodi:type="inkscape:persp3d" />
    <clipPath
       clipPathUnits="userSpaceOnUse"
       id="clipPath3572">
      <path
         d="m 102.752,413.859 34.845,0 0,34.016 -34.845,0 0,-34.016 z"
         id="path3574" />
    </clipPath>
    <inkscape:perspective
       id="perspective5745"
       inkscape:persp3d-origin="0.5 : 0.33333333 : 1"
       inkscape:vp_z="1 : 0.5 : 1"
       inkscape:vp_y="0 : 1000 : 0"
       inkscape:vp_x="0 : 0.5 : 1"
       sodipodi:type="inkscape:persp3d" />
    <clipPath
       clipPathUnits="userSpaceOnUse"
       id="clipPath3694">
      <path
         d="m 164.704,413.859 34.845,0 0,34.016 -34.845,0 0,-34.016 z"
         id="path3696" />
    </clipPath>
    <inkscape:perspective
       id="perspective5843"
       inkscape:persp3d-origin="0.5 : 0.33333333 : 1"
       inkscape:vp_z="1 : 0.5 : 1"
       inkscape:vp_y="0 : 1000 : 0"
       inkscape:vp_x="0 : 0.5 : 1"
       sodipodi:type="inkscape:persp3d" />
    <clipPath
       clipPathUnits="userSpaceOnUse"
       id="clipPath3500">
      <path
         d="m 224.23,413.859 34.845,0 0,34.016 -34.845,0 0,-34.016 z"
         id="path3502" />
    </clipPath>
    <inkscape:perspective
       id="perspective6067"
       inkscape:persp3d-origin="0.5 : 0.33333333 : 1"
       inkscape:vp_z="1 : 0.5 : 1"
       inkscape:vp_y="0 : 1000 : 0"
       inkscape:vp_x="0 : 0.5 : 1"
       sodipodi:type="inkscape:persp3d" />
    <clipPath
       clipPathUnits="userSpaceOnUse"
       id="clipPath3162">
      <path
         d="m 43.076,323.15 34.845,0 0,34.016 -34.845,0 0,-34.016 z"
         id="path3164" />
    </clipPath>
    <inkscape:perspective
       id="perspective6134"
       inkscape:persp3d-origin="0.5 : 0.33333333 : 1"
       inkscape:vp_z="1 : 0.5 : 1"
       inkscape:vp_y="0 : 1000 : 0"
       inkscape:vp_x="0 : 0.5 : 1"
       sodipodi:type="inkscape:persp3d" />
    <clipPath
       clipPathUnits="userSpaceOnUse"
       id="clipPath3350">
      <path
         d="m 103.255,323.15 34.845,0 0,34.016 -34.845,0 0,-34.016 z"
         id="path3352" />
    </clipPath>
    <inkscape:perspective
       id="perspective6370"
       inkscape:persp3d-origin="0.5 : 0.33333333 : 1"
       inkscape:vp_z="1 : 0.5 : 1"
       inkscape:vp_y="0 : 1000 : 0"
       inkscape:vp_x="0 : 0.5 : 1"
       sodipodi:type="inkscape:persp3d" />
    <clipPath
       clipPathUnits="userSpaceOnUse"
       id="clipPath3262">
      <path
         d="m 164.704,323.15 34.845,0 0,34.016 -34.845,0 0,-34.016 z"
         id="path3264" />
    </clipPath>
    <clipPath
       clipPathUnits="userSpaceOnUse"
       id="clipPath3218">
      <path
         d="m 168.515,340.144 c 0,-7.465 6.12,-13.582 13.61,-13.582 l 0,0 c 7.465,0 13.608,6.117 13.608,13.582 l 0,0 c 0,7.491 -6.143,13.61 -13.608,13.61 l 0,0 c -7.49,0 -13.61,-6.119 -13.61,-13.61"
         id="path3220" />
    </clipPath>
    <clipPath
       clipPathUnits="userSpaceOnUse"
       id="clipPath3226">
      <path
         d="M 0,0 311,0 311,595 0,595 0,0 z"
         id="path3228" />
    </clipPath>
    <clipPath
       clipPathUnits="userSpaceOnUse"
       id="clipPath3194">
      <path
         d="m 164.704,323.15 34.845,0 0,34.016 -34.845,0 0,-34.016 z"
         id="path3196" />
    </clipPath>
    <inkscape:perspective
       id="perspective6674"
       inkscape:persp3d-origin="0.5 : 0.33333333 : 1"
       inkscape:vp_z="1 : 0.5 : 1"
       inkscape:vp_y="0 : 1000 : 0"
       inkscape:vp_x="0 : 0.5 : 1"
       sodipodi:type="inkscape:persp3d" />
    <clipPath
       clipPathUnits="userSpaceOnUse"
       id="clipPath3916">
      <path
         d="m 164.862,222.52 34.845,0 0,34.016 -34.845,0 0,-34.016 z"
         id="path3918" />
    </clipPath>
    <inkscape:perspective
       id="perspective6766"
       inkscape:persp3d-origin="0.5 : 0.33333333 : 1"
       inkscape:vp_z="1 : 0.5 : 1"
       inkscape:vp_y="0 : 1000 : 0"
       inkscape:vp_x="0 : 0.5 : 1"
       sodipodi:type="inkscape:persp3d" />
    <clipPath
       clipPathUnits="userSpaceOnUse"
       id="clipPath3944">
      <path
         d="m 224.739,222.52 34.845,0 0,34.016 -34.845,0 0,-34.016 z"
         id="path3946" />
    </clipPath>
    <inkscape:perspective
       id="perspective6882"
       inkscape:persp3d-origin="0.5 : 0.33333333 : 1"
       inkscape:vp_z="1 : 0.5 : 1"
       inkscape:vp_y="0 : 1000 : 0"
       inkscape:vp_x="0 : 0.5 : 1"
       sodipodi:type="inkscape:persp3d" />
    <clipPath
       clipPathUnits="userSpaceOnUse"
       id="clipPath3464">
      <path
         d="m 102.651,123.307 34.845,0 0,34.016 -34.845,0 0,-34.016 z"
         id="path3466" />
    </clipPath>
    <inkscape:perspective
       id="perspective8234"
       inkscape:persp3d-origin="0.5 : 0.33333333 : 1"
       inkscape:vp_z="1 : 0.5 : 1"
       inkscape:vp_y="0 : 1000 : 0"
       inkscape:vp_x="0 : 0.5 : 1"
       sodipodi:type="inkscape:persp3d" />
    <clipPath
       clipPathUnits="userSpaceOnUse"
       id="clipPath7334">
      <path
         d="m 52.735,415.275 34.845,0 0,34.016 -34.845,0 0,-34.016 z"
         id="path7336" />
    </clipPath>
    <inkscape:perspective
       id="perspective8289"
       inkscape:persp3d-origin="0.5 : 0.33333333 : 1"
       inkscape:vp_z="1 : 0.5 : 1"
       inkscape:vp_y="0 : 1000 : 0"
       inkscape:vp_x="0 : 0.5 : 1"
       sodipodi:type="inkscape:persp3d" />
    <clipPath
       clipPathUnits="userSpaceOnUse"
       id="clipPath7406">
      <path
         d="m 117.545,441.384 c -5.026,-7.03 -3.402,-16.804 3.628,-21.829 l 0,0 c 7.031,-5.027 16.804,-3.4 21.83,3.63 l 0,0 c 5.024,7.028 3.4,16.801 -3.631,21.826 l 0,0 c -2.757,1.972 -5.937,2.92 -9.087,2.92 l 0,0 c -4.88,0 -9.688,-2.276 -12.74,-6.547"
         id="path7408" />
    </clipPath>
    <clipPath
       clipPathUnits="userSpaceOnUse"
       id="clipPath7414">
      <path
         d="M 0,0 311,0 311,595 0,595 0,0 z"
         id="path7416" />
    </clipPath>
    <clipPath
       clipPathUnits="userSpaceOnUse"
       id="clipPath7386">
      <path
         d="m 112.85,415.275 34.845,0 0,34.016 -34.845,0 0,-34.016 z"
         id="path7388" />
    </clipPath>
    <inkscape:perspective
       id="perspective8393"
       inkscape:persp3d-origin="0.5 : 0.33333333 : 1"
       inkscape:vp_z="1 : 0.5 : 1"
       inkscape:vp_y="0 : 1000 : 0"
       inkscape:vp_x="0 : 0.5 : 1"
       sodipodi:type="inkscape:persp3d" />
    <clipPath
       clipPathUnits="userSpaceOnUse"
       id="clipPath8118">
      <path
         d="m 52.735,322.441 34.845,0 0,34.016 -34.845,0 0,-34.016 z"
         id="path8120" />
    </clipPath>
    <clipPath
       clipPathUnits="userSpaceOnUse"
       id="clipPath8098">
      <path
         d="m 53.49,339.448 c 0,-9.205 7.462,-16.667 16.668,-16.667 l 0,0 c 9.204,0 16.667,7.462 16.667,16.667 l 0,0 c 0,9.205 -7.463,16.668 -16.667,16.668 l 0,0 c -9.206,0 -16.668,-7.463 -16.668,-16.668"
         id="path8100" />
    </clipPath>
    <clipPath
       clipPathUnits="userSpaceOnUse"
       id="clipPath8106">
      <path
         d="M 0,0 311,0 311,595 0,595 0,0 z"
         id="path8108" />
    </clipPath>
    <clipPath
       clipPathUnits="userSpaceOnUse"
       id="clipPath8058">
      <path
         d="m 52.735,322.441 34.845,0 0,34.016 -34.845,0 0,-34.016 z"
         id="path8060" />
    </clipPath>
    <inkscape:perspective
       id="perspective8520"
       inkscape:persp3d-origin="0.5 : 0.33333333 : 1"
       inkscape:vp_z="1 : 0.5 : 1"
       inkscape:vp_y="0 : 1000 : 0"
       inkscape:vp_x="0 : 0.5 : 1"
       sodipodi:type="inkscape:persp3d" />
    <clipPath
       clipPathUnits="userSpaceOnUse"
       id="clipPath8118-4">
      <path
         d="m 52.735,322.441 34.845,0 0,34.016 -34.845,0 0,-34.016 z"
         id="path8120-0" />
    </clipPath>
    <clipPath
       clipPathUnits="userSpaceOnUse"
       id="clipPath8098-9">
      <path
         d="m 53.49,339.448 c 0,-9.205 7.462,-16.667 16.668,-16.667 l 0,0 c 9.204,0 16.667,7.462 16.667,16.667 l 0,0 c 0,9.205 -7.463,16.668 -16.667,16.668 l 0,0 c -9.206,0 -16.668,-7.463 -16.668,-16.668"
         id="path8100-4" />
    </clipPath>
    <clipPath
       clipPathUnits="userSpaceOnUse"
       id="clipPath8106-8">
      <path
         d="M 0,0 311,0 311,595 0,595 0,0 z"
         id="path8108-8" />
    </clipPath>
    <clipPath
       clipPathUnits="userSpaceOnUse"
       id="clipPath8058-2">
      <path
         d="m 52.735,322.441 34.845,0 0,34.016 -34.845,0 0,-34.016 z"
         id="path8060-4" />
    </clipPath>
    <inkscape:perspective
       id="perspective8733"
       inkscape:persp3d-origin="0.5 : 0.33333333 : 1"
       inkscape:vp_z="1 : 0.5 : 1"
       inkscape:vp_y="0 : 1000 : 0"
       inkscape:vp_x="0 : 0.5 : 1"
       sodipodi:type="inkscape:persp3d" />
    <clipPath
       clipPathUnits="userSpaceOnUse"
       id="clipPath7236">
      <path
         d="m 112.85,322.441 34.845,0 0,34.016 -34.845,0 0,-34.016 z"
         id="path7238" />
    </clipPath>
    <inkscape:perspective
       id="perspective8821"
       inkscape:persp3d-origin="0.5 : 0.33333333 : 1"
       inkscape:vp_z="1 : 0.5 : 1"
       inkscape:vp_y="0 : 1000 : 0"
       inkscape:vp_x="0 : 0.5 : 1"
       sodipodi:type="inkscape:persp3d" />
    <clipPath
       clipPathUnits="userSpaceOnUse"
       id="clipPath7208">
      <path
         d="m 173.356,322.441 34.845,0 0,34.016 -34.845,0 0,-34.016 z"
         id="path7210" />
    </clipPath>
    <inkscape:perspective
       id="perspective8962"
       inkscape:persp3d-origin="0.5 : 0.33333333 : 1"
       inkscape:vp_z="1 : 0.5 : 1"
       inkscape:vp_y="0 : 1000 : 0"
       inkscape:vp_x="0 : 0.5 : 1"
       sodipodi:type="inkscape:persp3d" />
    <clipPath
       clipPathUnits="userSpaceOnUse"
       id="clipPath7282">
      <path
         d="m 52.735,218.976 34.845,0 0,34.016 -34.845,0 0,-34.016 z"
         id="path7284" />
    </clipPath>
    <inkscape:perspective
       id="perspective9126"
       inkscape:persp3d-origin="0.5 : 0.33333333 : 1"
       inkscape:vp_z="1 : 0.5 : 1"
       inkscape:vp_y="0 : 1000 : 0"
       inkscape:vp_x="0 : 0.5 : 1"
       sodipodi:type="inkscape:persp3d" />
    <clipPath
       clipPathUnits="userSpaceOnUse"
       id="clipPath7434">
      <path
         d="m 112.85,218.976 34.845,0 0,34.016 -34.845,0 0,-34.016 z"
         id="path7436" />
    </clipPath>
    <inkscape:perspective
       id="perspective9244"
       inkscape:persp3d-origin="0.5 : 0.33333333 : 1"
       inkscape:vp_z="1 : 0.5 : 1"
       inkscape:vp_y="0 : 1000 : 0"
       inkscape:vp_x="0 : 0.5 : 1"
       sodipodi:type="inkscape:persp3d" />
    <clipPath
       clipPathUnits="userSpaceOnUse"
       id="clipPath7508">
      <path
         d="m 173.356,218.976 34.845,0 0,34.016 -34.845,0 0,-34.016 z"
         id="path7510" />
    </clipPath>
    <inkscape:perspective
       id="perspective9332"
       inkscape:persp3d-origin="192.77299 : 113.6 : 1"
       inkscape:vp_z="385.54599 : 170.39999 : 1"
       inkscape:vp_y="0 : 1000 : 0"
       inkscape:vp_x="0 : 170.39999 : 1"
       sodipodi:type="inkscape:persp3d" />
    <inkscape:perspective
       id="perspective11000"
       inkscape:persp3d-origin="0.5 : 0.33333333 : 1"
       inkscape:vp_z="1 : 0.5 : 1"
       inkscape:vp_y="0 : 1000 : 0"
       inkscape:vp_x="0 : 0.5 : 1"
       sodipodi:type="inkscape:persp3d" />
    <clipPath
       clipPathUnits="userSpaceOnUse"
       id="clipPath9402">
      <path
         d="m 234.081,296.929 34.845,0 0,34.016 -34.845,0 0,-34.016 z"
         id="path9404" />
    </clipPath>
    <clipPath
       clipPathUnits="userSpaceOnUse"
       id="clipPath9386">
      <path
         d="m 234.081,296.951 34.845,0 0,33.993 -34.845,0 0,-33.993 z"
         id="path9388" />
    </clipPath>
    <clipPath
       clipPathUnits="userSpaceOnUse"
       id="clipPath9374">
      <path
         d="m 234.081,296.929 34.845,0 0,34.016 -34.845,0 0,-34.016 z"
         id="path9376" />
    </clipPath>
    <inkscape:perspective
       id="perspective11148"
       inkscape:persp3d-origin="192.77299 : 113.6 : 1"
       inkscape:vp_z="385.54599 : 170.39999 : 1"
       inkscape:vp_y="0 : 1000 : 0"
       inkscape:vp_x="0 : 170.39999 : 1"
       sodipodi:type="inkscape:persp3d" />
  </defs>
  <sodipodi:namedview
     id="base"
     pagecolor="#ffffff"
     bordercolor="#666666"
     borderopacity="1.0"
     inkscape:pageopacity="0.0"
     inkscape:pageshadow="2"
     inkscape:zoom="1.1813655"
     inkscape:cx="394.84392"
     inkscape:cy="129.54877"
     inkscape:document-units="px"
     inkscape:current-layer="layer1"
     showgrid="false"
     inkscape:window-width="1600"
     inkscape:window-height="838"
     inkscape:window-x="-8"
     inkscape:window-y="-8"
     inkscape:window-maximized="1" />
  <metadata
     id="metadata4210">
    <rdf:RDF>
      <cc:Work
         rdf:about="">
        <dc:format>image/svg+xml</dc:format>
        <dc:type
           rdf:resource="http://purl.org/dc/dcmitype/StillImage" />
        <dc:title></dc:title>
      </cc:Work>
    </rdf:RDF>
  </metadata>
  <g
     inkscape:label="Livello 1"
     inkscape:groupmode="layer"
     id="layer1"
     transform="translate(389.84771,-332.53848)">
    <g
       transform="matrix(-1.25,0,0,-1.25,-0.8277726,673.60099)"
       id="g10">
      <path
         inkscape:connector-curvature="0"
         d="m 291.21,0.21001 c 6.885,0.15912 13.543,3.8133 17.28,10.2 3.677,6.454 3.512,14.047 0.24,20.16 l -134.28,232.44 c -3.544,5.847 -10.037,9.786 -17.4,9.84 -7.465,-0.054 -13.959,-3.993 -17.52,-9.84 L 5.25,30.57 C 1.9976,24.457 1.8334,16.864 5.49,10.41 9.2471,4.0233 15.905,0.369 22.77,0.21 h 268.44"
         style="fill:#ec1d24"
         id="path12" />
      <path
         inkscape:connector-curvature="0"
         d="M 157.05,238.41 35.01,27.09 H 278.97 L 157.05,238.41"
         style="fill:#ffffff"
         id="path14" />
      <path
         inkscape:connector-curvature="0"
         d="M 260.01,36.33 247.17,58.77 H 172.05 V 36.33 h 87.96"
         id="path16" />
      <path
         inkscape:connector-curvature="0"
         d="m 163.05,56.73 -4.44,-8.16 0.96,-0.48 4.44,8.16 -0.96,0.48"
         id="path18-5" />
      <path
         inkscape:connector-curvature="0"
         d="m 164.13,42.81 1.92,4.8 -0.96,0.36 -2.28,-5.28 3.48,-5.16 0.84,0.6 -3,4.68"
         id="path20" />
      <path
         inkscape:connector-curvature="0"
         d="m 148.77,46.17 3.96,-8.88 0.96,0.48 -3.84,8.88 -1.08,-0.48"
         id="path22" />
      <path
         inkscape:connector-curvature="0"
         d="m 140.97,41.97 1.08,-0.24 2.04,12.12 -1.08,0.24 -2.04,-12.12"
         id="path24" />
      <path
         inkscape:connector-curvature="0"
         d="m 135.81,52.89 -0.96,-0.6 2.76,-3.6 -0.24,-7.8 1.08,-0.12 0.24,8.28 -2.88,3.84"
         id="path26" />
      <path
         inkscape:connector-curvature="0"
         d="m 121.65,38.97 0.6,-0.84 5.52,3.6 -0.72,0.84 -5.4,-3.6"
         id="path28" />
      <path
         inkscape:connector-curvature="0"
         d="m 112.89,52.17 -2.16,3.36 -0.96,-0.6 2.04,-3.12 v -5.64 l 2.04,-6.6 1.08,0.24 -2.04,6.48 v 5.88"
         id="path30" />
      <path
         inkscape:connector-curvature="0"
         d="m 106.29,45.45 -3.12,1.92 -0.6,-0.96 2.88,-1.68 2.28,-4.8 0.96,0.48 -2.4,5.04"
         id="path32" />
      <path
         inkscape:connector-curvature="0"
         d="m 98.73,49.05 -1.08,-0.12 0.48,-5.04 -0.6,-4.8 1.08,-0.12 0.72,4.92 -0.6,5.16"
         id="path34" />
      <path
         inkscape:connector-curvature="0"
         d="m 84.57,47.25 3.48,-6.48 0.96,0.6 -3.48,6.48 -0.96,-0.6"
         id="path36" />
      <path
         inkscape:connector-curvature="0"
         d="m 77.01,43.05 1.08,-0.48 3.96,7.68 -0.96,0.48 -4.08,-7.68"
         id="path38" />
      <path
         inkscape:connector-curvature="0"
         d="m 66.69,52.53 1.44,-10.32 1.08,0.12 -1.44,10.32 -1.08,-0.12"
         id="path40" />
      <path
         inkscape:connector-curvature="0"
         d="m 58.77,40.53 0.96,-0.48 4.08,7.92 -0.96,0.48 -4.08,-7.92"
         id="path42" />
      <path
         inkscape:connector-curvature="0"
         d="m 73.77,53.01 -2.16,-1.56 1.32,-2.16 3.24,-0.36 0.84,2.04 -3.24,2.04"
         id="path44" />
      <path
         inkscape:connector-curvature="0"
         d="m 73.77,42.69 -1.44,-2.76 2.28,-1.08 0.6,2.04 -1.44,1.8"
         id="path46" />
      <path
         inkscape:connector-curvature="0"
         d="m 84.09,40.77 -3.6,-0.96 4.92,-2.16 -1.32,3.12"
         id="path48" />
      <path
         inkscape:connector-curvature="0"
         d="m 93.57,48.45 v 5.04 h -3.36 l -0.84,-3.96 4.2,-1.08"
         id="path50" />
      <path
         inkscape:connector-curvature="0"
         d="m 107.97,54.81 h -3.36 l -2.28,-3.48 4.2,-1.68 1.44,5.16"
         id="path52" />
      <path
         inkscape:connector-curvature="0"
         d="m 134.37,42.57 h -3.84 l 1.32,-3.48 2.52,3.48"
         id="path54" />
      <path
         inkscape:connector-curvature="0"
         d="m 145.89,41.61 -2.52,-1.92 3.48,-0.96 -0.96,2.88"
         id="path56" />
      <path
         inkscape:connector-curvature="0"
         d="m 153.81,51.93 h -4.8 l 3.72,-3 1.08,3"
         id="path58" />
      <path
         inkscape:connector-curvature="0"
         d="m 159.09,41.13 v 3.6 l -2.04,1.08 -1.92,-1.68 0.96,-3.36 3,0.36"
         id="path60" />
      <path
         inkscape:connector-curvature="0"
         d="m 155.73,68.25 c 7.717,2.044 25.56,7.8 25.56,7.8 l 3.48,-12.84 c 0,0 2.543,-2.637 7.08,-1.44 4.498,1.225 5.76,4.8 5.76,4.8 l -3.72,14.04 c 2.858,2.92 1.68,6.24 1.68,6.24 l -4.8,18 c -1.707,6.229 -7.68,5.04 -7.68,5.04 l -8.52,19.2 c -3.591,8.064 -10.758,7.707 -13.56,6.96 l -43.8,-11.76 c -2.86,-0.746 -9.246,-4.021 -8.28,-12.84 l 2.16,-20.88 c 0,0 -5.749,-1.924 -4.08,-8.16 l 4.8,-18 c 0,0 0.65,-3.465 4.56,-4.56 l 3.72,-14.04 c 0,0 2.984,-2.449 7.56,-1.2 4.46,1.172 5.4,4.8 5.4,4.8 l -3.48,12.84 c 0,0 18.347,3.883 26.16,6"
         id="path62" />
      <path
         inkscape:connector-curvature="0"
         d="m 145.89,104.85 c 5.434,1.464 21.805,4.842 26.16,6 5.575,1.503 3.12,6.48 3.12,6.48 l -2.4,5.76 c -2.405,4.87 -7.166,5.958 -10.92,5.4 -0.674,-0.117 -12.972,-2.504 -14.16,-2.76 l -13.92,-3.72 c -1.081,-0.362 -12.926,-4.444 -13.56,-4.68 -3.538,-1.394 -7.116,-4.716 -6.72,-10.08 l 0.72,-6.24 c 0,0 0.4,-5.542 6,-4.08 4.33,1.198 20.196,6.458 25.68,7.92"
         style="fill:#ffffff"
         id="path64" />
    </g>
  </g>
</svg>
