<svg xmlns="http://www.w3.org/2000/svg" width="76.17" height="102.537"><defs><clipPath clipPathUnits="userSpaceOnUse" id="b"><path d="M32.598 269.008h76.28v91.275h-76.28v-91.275z"/></clipPath><clipPath clipPathUnits="userSpaceOnUse" id="a"><path d="M0 0h311v595H0V0z"/></clipPath></defs><g clip-path="url(#a)" transform="matrix(1.25 0 0 -1.25 -50.245 447.496)"><path d="m0 0-59.838.405V80.92L0 80.932V0z" style="fill:#ffdb00;fill-opacity:1;fill-rule:nonzero;stroke:none" transform="translate(100.583 276.516)"/><path d="m0 0-59.838.405V80.92L0 80.932V0z" style="fill:none;stroke:#ed1d24;stroke-width:1.09800005;stroke-linecap:butt;stroke-linejoin:miter;stroke-miterlimit:4;stroke-opacity:1;stroke-dasharray:none" transform="translate(100.583 276.516)"/><path d="M0 0h-8.394L7.135 27.184 22.918 0H0z" style="fill:#fff;fill-opacity:1;fill-rule:evenodd;stroke:none" transform="translate(63.862 321.2)"/></g><g clip-path="url(#b)" transform="matrix(1.25 0 0 -1.25 -50.245 447.496)"><path d="M0 0h27.774L13.892 24.031 0 0zm29.136-3.104c.826 0 1.586.444 2 1.163a2.289 2.289 0 0 1 0 2.325l-15.232 26.37a2.325 2.325 0 0 1-4.027-.007L-3.359.384a2.331 2.331 0 0 1 0-2.325A2.337 2.337 0 0 1-1.34-3.104h30.476z" style="fill:#ed1d24;fill-opacity:1;fill-rule:evenodd;stroke:none" transform="translate(57.163 322.344)"/><path d="m0 0-47.907.268v26.395L0 26.736V0z" style="fill:#ed1d24;fill-opacity:1;fill-rule:nonzero;stroke:none" transform="translate(95.016 280.992)"/><path d="m0 0-47.907.268v26.395L0 26.736V0z" style="fill:none;stroke:#bcbec0;stroke-width:1.64600003;stroke-linecap:butt;stroke-linejoin:miter;stroke-miterlimit:4;stroke-opacity:1;stroke-dasharray:none" transform="translate(95.016 280.992)"/><path d="m0 0-.849 2.256L-1.672 0H0zm1.072-.636h-3.784l1.468 3.772h.807L1.072-.636z" style="fill:#dadbdc;fill-opacity:1;fill-rule:nonzero;stroke:none" transform="translate(61.218 300.766)"/><path d="M62.653 300.13h.761v3.772h-.761v-3.772z" style="fill:#dadbdc;fill-opacity:1;fill-rule:nonzero;stroke:none"/><path d="m0 0-.519 1.399L-1.029 0H0zm1.402-1.492H.575l-.331.856h-1.507l-.311-.856h-.808l1.469 3.771h.806l1.509-3.771z" style="fill:#dadbdc;fill-opacity:1;fill-rule:nonzero;stroke:none" transform="translate(66.139 301.623)"/><path d="M0 0v-1.008h.705c.275 0 .448.007.522.022a.477.477 0 0 1 .277.151c.072.08.107.187.107.321a.486.486 0 0 1-.083.287.447.447 0 0 1-.238.173C1.187-.018.961 0 .615 0H0zm0 1.5V.628h.499c.297 0 .482.004.553.012a.511.511 0 0 1 .308.135.405.405 0 0 1 .112.295.408.408 0 0 1-.097.284.431.431 0 0 1-.286.133 8.662 8.662 0 0 1-.652.013H0zm-.761.628H.746c.299 0 .521-.013.668-.038a.963.963 0 0 0 .393-.155.979.979 0 0 0 .29-.315.856.856 0 0 0 .115-.441.894.894 0 0 0-.529-.819.987.987 0 0 0 .529-.342.9.9 0 0 0 .186-.568c0-.172-.04-.339-.119-.501a1.012 1.012 0 0 0-.327-.388 1.067 1.067 0 0 0-.511-.179 12.175 12.175 0 0 0-.918-.026H-.761v3.772z" style="fill:#dadbdc;fill-opacity:1;fill-rule:nonzero;stroke:none" transform="translate(68.71 301.774)"/><path d="m0 0-.519 1.399L-1.029 0H0zm1.402-1.492H.575l-.331.856h-1.507l-.31-.856h-.809l1.469 3.771h.806l1.509-3.771z" style="fill:#dadbdc;fill-opacity:1;fill-rule:nonzero;stroke:none" transform="translate(73.75 301.623)"/><path d="M0 0h2.611v-.638H.939l.974-1.163L.838-3.136h1.853v-.636h-2.74v.706L.962-1.801 0-.679V0z" style="fill:#dadbdc;fill-opacity:1;fill-rule:nonzero;stroke:none" transform="translate(75.454 303.902)"/><path d="M0 0v3.772h.761V2.287h1.492v1.485h.762V0h-.762v1.649H.761V0H0z" style="fill:#dadbdc;fill-opacity:1;fill-rule:nonzero;stroke:none" transform="translate(78.72 300.13)"/><path d="M0 0h2.611v-.638H.939l.974-1.163L.838-3.135H2.69v-.636H-.049v.705L.962-1.801 0-.679V0z" style="fill:#dadbdc;fill-opacity:1;fill-rule:nonzero;stroke:none" transform="translate(54.078 298.413)"/><path d="M0 0v3.771h2.796v-.638H.761v-.836h1.893v-.635H.761V.636h2.107V0H0z" style="fill:#dadbdc;fill-opacity:1;fill-rule:nonzero;stroke:none" transform="translate(57.343 294.642)"/><path d="M0 0v3.771h.762V2.097L2.3 3.771h1.024l-1.42-1.468L3.401 0h-.985L1.38 1.77l-.618-.631V0H0z" style="fill:#dadbdc;fill-opacity:1;fill-rule:nonzero;stroke:none" transform="translate(62.33 294.642)"/><path d="M0 0v1.588l-1.382 2.183h.893l.888-1.492.869 1.492h.877L.759 1.582V0H0z" style="fill:#dadbdc;fill-opacity:1;fill-rule:nonzero;stroke:none" transform="translate(67.116 294.642)"/><path d="M0 0v-1.07h.417c.3 0 .5.02.601.059a.493.493 0 0 1 .325.478.49.49 0 0 1-.121.34.522.522 0 0 1-.307.167C.825-.009.642 0 .368 0H0zm-.761-3.133V.638H.461c.463 0 .764-.018.905-.056a.991.991 0 0 0 .543-.37c.146-.189.219-.434.219-.734 0-.232-.042-.427-.127-.584a1.027 1.027 0 0 0-.32-.372 1.094 1.094 0 0 0-.395-.178 4.244 4.244 0 0 0-.79-.055H0v-1.422h-.761z" style="fill:#dadbdc;fill-opacity:1;fill-rule:nonzero;stroke:none" transform="translate(70.4 297.776)"/><path d="M0 0v3.133h-1.119v.638h2.997v-.638H.761V0H0z" style="fill:#dadbdc;fill-opacity:1;fill-rule:nonzero;stroke:none" transform="translate(74.002 294.642)"/><path d="M0 0v.636h.731c-.448.469-.672.975-.672 1.518 0 .472.161.871.481 1.196.321.323.761.485 1.32.485.554 0 .992-.16 1.315-.483.323-.323.483-.721.483-1.198 0-.543-.224-1.049-.671-1.518h.734V0H1.994v.607c.29.108.509.283.657.525.149.242.223.521.223.836 0 .324-.086.608-.256.851-.171.245-.424.366-.758.366-.333 0-.584-.121-.756-.363a1.44 1.44 0 0 1-.257-.854c0-.317.074-.596.222-.837a1.26 1.26 0 0 1 .658-.524V0H0z" style="fill:#dadbdc;fill-opacity:1;fill-rule:nonzero;stroke:none" transform="translate(76.144 294.642)"/><path d="M0 0v3.771h1.139l.685-2.573.677 2.573h1.141V0h-.707v2.969L2.187 0h-.733L.707 2.969V0H0z" style="fill:#dadbdc;fill-opacity:1;fill-rule:nonzero;stroke:none" transform="translate(80.49 294.642)"/><path d="m0 0-.519 1.4-.51-1.4H0zm1.402-1.492H.574l-.33.856h-1.507l-.311-.856h-.808l1.469 3.771h.806l1.509-3.771z" style="fill:#dadbdc;fill-opacity:1;fill-rule:nonzero;stroke:none" transform="translate(86.887 296.134)"/><path d="M0 0v3.771h.761V2.288h1.492v1.483h.762V0h-.762v1.649H.761V0H0z" style="fill:#dadbdc;fill-opacity:1;fill-rule:nonzero;stroke:none" transform="translate(60.902 289.154)"/><path d="M0 0v.41A1.042 1.042 0 0 0-.392.064a1.112 1.112 0 0 0-.513-.126 1.01 1.01 0 0 0-.494.121.704.704 0 0 0-.316.34c-.065.146-.099.347-.099.604v1.729h.724V1.477c0-.385.013-.619.04-.706l.145-.206A.449.449 0 0 1-.638.489a.57.57 0 0 1 .533.354c.036.1.054.346.054.737v1.152h.723V0H0z" style="fill:#dadbdc;fill-opacity:1;fill-rule:nonzero;stroke:none" transform="translate(66.498 289.154)"/><path d="M0 0h.667v-.373c.238.289.522.434.851.434a.911.911 0 0 0 .455-.107.833.833 0 0 0 .317-.327c.12.146.249.254.389.327a.949.949 0 0 0 .445.107c.2 0 .37-.041.509-.122a.756.756 0 0 0 .312-.358c.049-.117.074-.306.074-.566v-1.747h-.723v1.561c0 .272-.024.446-.075.525-.066.103-.169.154-.308.154a.491.491 0 0 1-.286-.092.518.518 0 0 1-.193-.271c-.039-.119-.059-.308-.059-.565v-1.312h-.723v1.497c0 .266-.013.437-.039.515l-.119.172-.22.056a.525.525 0 0 1-.301-.09.484.484 0 0 1-.191-.259C.743-.955.724-1.143.724-1.405v-1.327H0V0z" style="fill:#dadbdc;fill-opacity:1;fill-rule:nonzero;stroke:none" transform="translate(67.863 291.886)"/><path d="M0 0c0-.308.061-.534.182-.681A.557.557 0 0 1 .627-.9c.168 0 .309.066.42.201.112.135.168.356.168.662 0 .287-.058.5-.173.638A.53.53 0 0 1 .614.81.556.556 0 0 1 .175.606C.058.47 0 .267 0 0m-.715 1.319h.673V.918a1.012 1.012 0 0 0 .852.463c.318 0 .587-.125.808-.373.221-.249.332-.595.332-1.039 0-.457-.112-.812-.335-1.065a1.041 1.041 0 0 0-.81-.379.92.92 0 0 0-.41.09c-.123.06-.252.163-.387.309v-1.377h-.723v3.772z" style="fill:#dadbdc;fill-opacity:1;fill-rule:nonzero;stroke:none" transform="translate(73.297 290.567)"/><path d="M0 0c-.005.209-.059.368-.162.477A.496.496 0 0 1-.537.64.5.5 0 0 1-.928.468C-1.031.353-1.082.197-1.081 0H0zm-.041-.731L.68-.852a1.181 1.181 0 0 0-.439-.602c-.2-.139-.45-.209-.75-.209-.475 0-.827.156-1.055.467-.18.249-.27.563-.27.941 0 .453.118.807.355 1.064s.536.384.898.384c.406 0 .727-.134.962-.402C.616.522.728.112.718-.443h-1.811c.005-.214.063-.381.174-.5a.55.55 0 0 1 .417-.179c.114 0 .209.031.287.093a.566.566 0 0 1 .174.298" style="fill:#dadbdc;fill-opacity:1;fill-rule:nonzero;stroke:none" transform="translate(77.443 290.754)"/><path d="M0 0c0-.292.041-.503.121-.634a.549.549 0 0 1 .913-.07c.117.141.175.352.175.634 0 .314-.056.539-.169.678a.54.54 0 0 1-.435.207.542.542 0 0 1-.431-.204C.058.474 0 .27 0 0m1.929-1.426h-.671v.401a1.09 1.09 0 0 0-.394-.348 1.02 1.02 0 0 0-.46-.115c-.314 0-.582.127-.806.38-.224.253-.336.606-.336 1.059 0 .463.109.814.326 1.056.219.241.493.361.827.361.305 0 .569-.127.792-.381v1.358h.722v-3.771z" style="fill:#dadbdc;fill-opacity:1;fill-rule:nonzero;stroke:none" transform="translate(79.327 290.58)"/><path d="m0 0 .739-.235C.625-.646.436-.952.174-1.151c-.264-.201-.597-.3-1.003-.3-.5 0-.912.171-1.234.513-.323.342-.484.809-.484 1.403 0 .628.162 1.115.486 1.462.324.348.75.521 1.278.521.462 0 .837-.136 1.125-.408.172-.162.3-.394.386-.695l-.754-.18a.805.805 0 0 1-.279.463.801.801 0 0 1-.516.17c-.28 0-.506-.1-.681-.302-.173-.2-.26-.525-.26-.974 0-.477.085-.817.257-1.019a.837.837 0 0 1 .669-.304c.202 0 .376.065.522.193.146.129.251.332.314.608" style="fill:#dadbdc;fill-opacity:1;fill-rule:nonzero;stroke:none" transform="translate(62.433 285.053)"/><path d="M0 0h-.722v2.732h.671v-.389c.115.185.218.305.31.364a.573.573 0 0 0 .312.087.915.915 0 0 0 .476-.137l-.224-.63a.63.63 0 0 1-.339.119.399.399 0 0 1-.257-.084C.156 2.007.101 1.906.061 1.76.02 1.614 0 1.309 0 .844V0z" style="fill:#dadbdc;fill-opacity:1;fill-rule:nonzero;stroke:none" transform="translate(64.512 283.666)"/><path d="M0 0c0-.27.064-.478.193-.622a.612.612 0 0 1 .476-.216c.188 0 .347.072.475.216.127.144.192.353.192.627 0 .268-.065.474-.192.618a.611.611 0 0 1-.475.216.612.612 0 0 1-.476-.216C.064.479 0 .271 0 0m-.741.039c0 .24.059.472.177.697.119.224.286.396.504.515.216.118.459.177.727.177.412 0 .751-.134 1.016-.402.264-.269.395-.608.395-1.017 0-.414-.133-.757-.399-1.028a1.35 1.35 0 0 0-1.008-.409c-.25 0-.489.057-.716.171-.227.112-.4.278-.519.497a1.667 1.667 0 0 0-.177.799" style="fill:#dadbdc;fill-opacity:1;fill-rule:nonzero;stroke:none" transform="translate(66.444 285.031)"/><path d="m0 0 .726.11a.532.532 0 0 1 .187-.319c.095-.073.226-.109.397-.109.186 0 .327.034.421.103l.096.192-.052.137c-.035.034-.117.065-.241.095C.951.338.581.455.425.561a.704.704 0 0 0-.324.615c0 .237.093.435.28.597.187.161.477.241.87.241.373 0 .652-.06.833-.182a.936.936 0 0 0 .376-.54l-.682-.127a.42.42 0 0 1-.166.245.61.61 0 0 1-.348.085c-.191 0-.327-.026-.41-.08l-.082-.147.072-.131c.065-.048.29-.115.675-.203.386-.087.654-.194.807-.322.151-.129.226-.308.226-.537 0-.251-.105-.466-.314-.646-.209-.18-.519-.27-.928-.27-.372 0-.667.076-.884.227C.209-.464.068-.258 0 0" style="fill:#dadbdc;fill-opacity:1;fill-rule:nonzero;stroke:none" transform="translate(68.834 284.445)"/><path d="m0 0 .726.11a.532.532 0 0 1 .187-.319c.094-.073.226-.109.397-.109.186 0 .327.034.421.103l.095.192-.051.137c-.035.034-.117.065-.241.095C.951.338.581.455.424.561a.705.705 0 0 0-.323.615.76.76 0 0 0 .279.597c.188.161.477.241.871.241.373 0 .652-.06.833-.182a.936.936 0 0 0 .376-.54l-.682-.127a.42.42 0 0 1-.166.245.61.61 0 0 1-.348.085c-.191 0-.327-.026-.41-.08l-.082-.147.072-.131c.065-.048.29-.115.675-.203.386-.087.654-.194.807-.322.151-.129.226-.308.226-.537 0-.251-.105-.466-.314-.646-.209-.18-.519-.27-.928-.27-.372 0-.667.076-.884.227C.209-.464.068-.258 0 0" style="fill:#dadbdc;fill-opacity:1;fill-rule:nonzero;stroke:none" transform="translate(71.764 284.445)"/><path d="M0 0h.722v-2.732H0V0zm0 1.039h.722V.37H0v.669z" style="fill:#dadbdc;fill-opacity:1;fill-rule:nonzero;stroke:none" transform="translate(74.95 286.398)"/><path d="M0 0h-.722v1.395c0 .294-.017.485-.047.572l-.151.201-.251.072a.573.573 0 0 1-.336-.103.51.51 0 0 1-.205-.272c-.036-.114-.056-.322-.056-.628V0h-.722v2.732h.671V2.33c.239.309.539.464.9.464.16 0 .306-.028.438-.086a.736.736 0 0 0 .3-.22.803.803 0 0 0 .141-.303c.027-.114.04-.276.04-.487V0z" style="fill:#dadbdc;fill-opacity:1;fill-rule:nonzero;stroke:none" transform="translate(78.899 283.666)"/><path d="M0 0c0-.289.056-.502.168-.637a.523.523 0 0 1 .416-.201.57.57 0 0 1 .447.207c.122.138.183.343.183.613 0 .283-.059.493-.175.63a.555.555 0 0 1-.442.206.534.534 0 0 1-.429-.202C.056.481 0 .277 0 0m-.646-1.603.826-.1.095-.197c.069-.052.176-.078.324-.078.189 0 .33.028.425.085l.143.182c.023.06.035.171.035.333v.398c-.217-.294-.489-.442-.819-.442-.367 0-.657.155-.872.465-.168.245-.252.551-.252.916 0 .458.11.807.33 1.05.221.242.495.362.823.362.337 0 .616-.148.836-.445v.384h.676v-2.452c0-.322-.027-.563-.079-.723a.91.91 0 0 0-.224-.375 1 1 0 0 0-.385-.214 2.043 2.043 0 0 0-.609-.077c-.463 0-.791.08-.985.238a.746.746 0 0 0-.291.603l.003.087z" style="fill:#dadbdc;fill-opacity:1;fill-rule:nonzero;stroke:none" transform="translate(80.211 285.088)"/><path d="M0 0c.233-.568.84-1.174 1.407-1.649a5.308 5.308 0 0 1 1.476-.813c.187-.056.858-.203.942-.203l.262-.114c.081 0 .24.114.29.317.052.205.203.842-.107.895-.314.048-.335-.082-.335-.082l-.473.184c-.084.077-.709.394-.897.599-.186.204-.616.652-.811.997-.233.42-.448 1.082-.579 1.343-.13.261-.439.811-.653.998-.213.177-.708.626-.735.645l.027.298c.055.029.549.289.653.523.102.232.243.343.243.782 0 .447-.421 1.389-1.417 1.389-.998 0-1.335-.755-1.335-1.306 0-.772.494-.951.364-1.127-.085-.113-.343-.103-.653-.13-.318-.029-1.025-.318-1.389-.664-.365-.344-1.045-1.127-1.259-1.539C-5.196.925-5.584.142-5.735-.42c-.158-.548-.215-.886-.215-1.099 0-.206-.055-.447-.055-.447s-.289-.177-.289-.364c0-.188.318-.467.476-.551.168-.082.522-.213.622-.213.105 0 .477.159.477.4 0 .242-.158.597-.158.8 0 .216.243 1.083.346 1.271.103.178.522.839.625.941.102.103.261.233.261.233.016-.736-.084-2.499-.233-3.003-.16-.503-.867-1.913-1.168-2.387-.344-.577-1.127-1.763-1.537-2.239-.411-.473-1.007-1.007-1.102-1.062-.093-.064-.065-.196 0-.318.067-.121.812-1.603.85-1.603l1.231-.226c.064 0 .121.199 0 .262a.9.9 0 0 1-.262.084c-.11.448-.224.903-.346 1.362 0 0 .954.875 1.139 1.102.187.214 1.195 1.22 1.38 1.499.186.282.819 1.169.914 1.39.085.216.505.905.505.905s.437-.372.596-.597c.149-.216.848-1.471 1.007-1.754.159-.28.756-1.67.849-1.985.084-.309 1.071-2.955 1.071-2.955l2.417 1.073c.092.063.223.306 0 .306-.225 0-1.634.194-1.634.194s-.092.784-.129 1.01c-.028.221-.371 1.789-.496 2.071-.128.278-.726 1.666-.856 1.824-.131.153-.568 1.355-.653 1.634-.094.279-.261 1.035-.261 1.353C-.363-1.201-.206-.373 0 0" style="fill:#000;fill-opacity:1;fill-rule:evenodd;stroke:none" transform="translate(71.927 336.338)"/><path d="M61.865 323.87h1.221v.495h-1.221v-.495zM63.702 323.87h1.221v.495h-1.221v-.495zM65.54 323.87h1.221v.495H65.54v-.495zM67.376 323.87h1.223v.495h-1.223v-.495zM69.214 323.87h1.222v.495h-1.222v-.495zM71.042 323.87h1.232v.495h-1.232v-.495zM72.88 323.87h1.232v.495H72.88v-.495zM74.715 323.87h1.231v.495h-1.231v-.495zM76.554 323.87h1.232v.495h-1.232v-.495zM60.028 323.87h1.222v.495h-1.222v-.495zM78.39 323.87h1.231v.495H78.39v-.495zM80.227 323.87h1.221v.495h-1.221v-.495zM61.865 327.788h1.221v.483h-1.221v-.483zM65.54 327.788h1.221v.483H65.54v-.483zM67.376 327.788h1.223v.483h-1.223v-.483zM69.214 327.788h1.222v.483h-1.222v-.483zM71.042 327.788h1.232v.483h-1.232v-.483zM74.715 327.788h1.231v.483h-1.231v-.483zM76.554 327.788h1.232v.483h-1.232v-.483zM78.39 327.788h1.231v.483H78.39v-.483z" style="fill:#000;fill-opacity:1;fill-rule:evenodd;stroke:none"/></g></svg>