<svg xmlns="http://www.w3.org/2000/svg" width="153.961" height="261.42" viewBox="-0.025 -0.17 153.961 261.42" xml:space="preserve"><path d="M65.563 261.236V118.545h22.782v142.691" style="fill:#fff;stroke:#000;stroke-width:4.79675913;stroke-linecap:butt;stroke-linejoin:miter;stroke-miterlimit:10;stroke-opacity:1;stroke-dasharray:none"/><path d="M30.592 244.846h92.727v-92.332H30.592v92.332z" style="fill:#fff;fill-opacity:1;fill-rule:evenodd;stroke:#000;stroke-width:2.39613581;stroke-linecap:butt;stroke-linejoin:miter;stroke-miterlimit:10;stroke-opacity:1;stroke-dasharray:none"/><path d="M53.572 175.95v21.18l13.79 13.788h18.792l14.183-14.184V175.95L86.85 162.46h-19.69L53.572 175.95z" style="fill:#58595b;fill-opacity:1;stroke:#000;stroke-width:2.39613581;stroke-linecap:butt;stroke-linejoin:miter;stroke-miterlimit:10;stroke-opacity:1;stroke-dasharray:none"/><path style="font-size:medium;font-style:normal;font-variant:normal;font-weight:400;font-stretch:normal;text-indent:0;text-align:start;text-decoration:none;line-height:normal;letter-spacing:normal;word-spacing:normal;text-transform:none;direction:ltr;block-progression:tb;writing-mode:lr-tb;text-anchor:start;baseline-shift:baseline;color:#000;fill:#000;fill-opacity:1;stroke:none;stroke-width:.2;marker:none;visibility:visible;display:inline;overflow:visible;enable-background:accumulate;font-family:Sans;-inkscape-font-specification:Sans" d="m68.194 162.489-14.583 30.288v1.458l15.368-31.746zm3.702 0-17.163 35.785.448.448 17.5-36.233zm3.814 0L57.2 200.742l.45.448 18.845-38.701zm3.702 0-19.743 40.72.56.561 19.968-41.281zm3.702 0-20.977 43.188.56.561 21.202-43.75zm3.702 0-22.1 45.769.562.56 22.099-45.768zm2.58 2.468-22.211 45.768.224.225h.56l21.876-45.433zm-25.913 1.121-1.459 1.57-8.413 17.389v1.682zm28.38 1.459L70.887 210.95h.786l20.753-42.965zm2.469 2.355L74.588 210.95h.786l19.519-40.497zm2.58 2.58L78.29 210.95h.786l18.397-37.917zm-40.497.786-1.57 1.458-1.234 2.58v1.683zm42.965 1.682-17.276 36.01h.786L99.94 175.5zm1.01 5.722L85.805 210.95h.337l.673-.673 13.573-28.045zm0 7.74-7.74 16.041 1.457-1.458 6.282-13.013zm0 7.74-.561 1.122.56-.56z"/><path d="m53.82 234.56 2.293-.193c.171 1.118.566 1.957 1.185 2.518.62.56 1.364.843 2.235.843 1.054 0 1.943-.395 2.67-1.184.726-.8 1.094-1.85 1.094-3.16 0-1.247-.354-2.225-1.05-2.947-.7-.718-1.615-1.082-2.75-1.082-.7 0-1.337.162-1.903.485-.57.319-1.01.731-1.337 1.238l-2.046-.264 1.723-9.136h8.844v2.086H57.68l-.96 4.784c1.068-.745 2.19-1.118 3.361-1.118 1.553 0 2.863.534 3.93 1.611 1.069 1.077 1.603 2.46 1.603 4.15 0 1.607-.467 2.998-1.41 4.174-1.139 1.44-2.696 2.158-4.67 2.158-1.616 0-2.935-.453-3.958-1.355-1.023-.91-1.61-2.109-1.754-3.608M69.884 230.448c0 2.921.341 4.868 1.023 5.833.687.965 1.526 1.445 2.53 1.445 1.002 0 1.845-.48 2.532-1.45.682-.977 1.023-2.916 1.023-5.828 0-2.926-.341-4.873-1.023-5.833-.687-.965-1.535-1.445-2.554-1.445-1.005 0-1.803.426-2.405 1.274-.749 1.086-1.126 3.087-1.126 6.004m-2.248 0c0-2.1.22-3.796.65-5.075.436-1.283 1.078-2.27 1.93-2.966.853-.696 1.93-1.041 3.222-1.041.956 0 1.79.193 2.513.574a4.812 4.812 0 0 1 1.781 1.66c.467.727.835 1.607 1.104 2.648.264 1.036.4 2.436.4 4.2 0 2.09-.212 3.774-.642 5.052-.427 1.284-1.068 2.275-1.92 2.975-.858.7-1.935 1.05-3.236 1.05-1.714 0-3.06-.614-4.043-1.844-1.167-1.48-1.759-3.89-1.759-7.233M82.063 239.221v-12.887h1.952v1.808a4.692 4.692 0 0 1 1.615-1.52c.673-.387 1.436-.575 2.293-.575.956 0 1.737.197 2.347.592.61.4 1.041.952 1.292 1.665 1.019-1.503 2.347-2.257 3.98-2.257 1.28 0 2.258.354 2.949 1.063.686.705 1.027 1.795 1.027 3.267v8.844h-2.167v-8.117c0-.87-.072-1.499-.216-1.885l-.771-.928c-.368-.238-.808-.355-1.306-.355-.907 0-1.66.305-2.262.907-.596.6-.893 1.566-.893 2.894v7.484h-2.185v-8.368c0-.97-.18-1.7-.534-2.185-.354-.485-.938-.732-1.745-.732-.615 0-1.185.166-1.705.49-.525.322-.902.794-1.136 1.417-.233.624-.35 1.521-.35 2.693v6.685h-2.185z" style="fill:#000;fill-opacity:1;fill-rule:nonzero;stroke:none"/><path d="M10.133-.17c-3.626.05-6.987 1.988-8.795 5.138a10.213 10.213 0 0 0 0 10.195l66.832 115.53a10.191 10.191 0 0 0 17.626 0l66.75-115.53a10.042 10.042 0 0 0 0-10.195 10.165 10.165 0 0 0-8.804-5.088L10.132-.17z" style="fill:#ed1d24;fill-opacity:1;fill-rule:evenodd;stroke:none"/><path style="fill:#fff;fill-opacity:1;fill-rule:evenodd;stroke:none" d="M137.828 13.476H16.092l60.85 105.335z"/></svg>