<svg xmlns="http://www.w3.org/2000/svg" width="213.556" height="213.418"><defs><clipPath clipPathUnits="userSpaceOnUse" id="a"><path d="M43.076 323.15h34.845v34.016H43.076V323.15z"/></clipPath></defs><path d="M0 0c7.465 0 13.608 6.117 13.608 13.582 0 7.49-6.143 13.61-13.608 13.61-7.491 0-13.61-6.12-13.61-13.61C-13.61 6.117-7.491 0 0 0" style="fill:#fff;fill-opacity:1;fill-rule:evenodd;stroke:none" transform="matrix(6.28013 0 0 -6.28013 106.769 192.088)"/><path d="M0 0c7.467 0 13.608 6.119 13.608 13.584 0 7.491-6.141 13.608-13.608 13.608-7.491 0-13.608-6.117-13.608-13.608C-13.608 6.119-7.491 0 0 0m0-3.394c9.356 0 17.004 7.648 17.004 16.978 0 9.359-7.648 17.005-17.004 17.005-9.354 0-17.001-7.646-17.001-17.005 0-9.33 7.647-16.978 17.001-16.978" style="fill:#ed1d24;fill-opacity:1;fill-rule:evenodd;stroke:none" transform="matrix(6.28013 0 0 -6.28013 106.769 192.103)"/><g clip-path="url(#a)" transform="matrix(6.28915 0 0 -6.28915 -504.164 2247.548)"><path d="M0 0c9.417 0 17.098 7.68 17.098 17.095 0 9.417-7.681 17.097-17.098 17.097-9.416 0-17.096-7.68-17.096-17.097C-17.096 7.68-9.416 0 0 0" style="fill:#ed1d24;fill-opacity:1;fill-rule:evenodd;stroke:none" transform="translate(60.498 323.15)"/><path d="M0 0a13.476 13.476 0 0 0-8.039-2.644c-7.481 0-13.549 6.067-13.549 13.547 0 3.011.986 5.791 2.646 8.04l9.469-9.47L0 0z" style="fill:#fff;fill-opacity:1;fill-rule:evenodd;stroke:none" transform="translate(68.537 329.342)"/><path d="M0 0c7.481 0 13.547-6.067 13.547-13.548 0-3.009-.981-5.79-2.644-8.039l-9.469 9.47-9.474 9.473A13.472 13.472 0 0 0 0 0" style="fill:#fff;fill-opacity:1;fill-rule:evenodd;stroke:none" transform="translate(60.498 353.793)"/><path d="M0 0h-6.644a2.122 2.122 0 0 1-2.117-2.116v.001-.021c-.41.721-.678 1.913-.678 3.263 0 1.347.268 2.541.678 3.263v-.021c0-1.166.953-2.118 2.117-2.118h4.394L0 0z" style="fill:#000;fill-opacity:1;fill-rule:evenodd;stroke:none" transform="translate(58.468 339.408)"/><path d="M0 0a.708.708 0 0 1-.477 1.232h-.755l-1.321 1.323h2.267A2.037 2.037 0 0 0 1.745.526h1.256a2.001 2.001 0 0 0 1.922 1.443 1.998 1.998 0 1 0 0-3.996A2 2 0 0 0 3.001-.586H1.413a2.112 2.112 0 0 0-.389-.439L0 0z" style="fill:#000;fill-opacity:1;fill-rule:evenodd;stroke:none" transform="translate(64.643 338.964)"/><path d="M0 0h3.409l.744-.744H.12a.517.517 0 0 1 0-1.031h5.062l.744-.744H0A1.26 1.26 0 0 0-1.26-1.26C-1.26-.567-.697 0 0 0" style="fill:#000;fill-opacity:1;fill-rule:evenodd;stroke:none" transform="translate(55.67 338.8)"/></g><path style="fill:#000;fill-opacity:1;fill-rule:evenodd;stroke:none" d="M0 0h20.036c.68 0 1.236-.766 1.236-1.701 0-.936-.556-1.701-1.236-1.701L0-3.401c-.68 0-1.235.764-1.235 1.7C-1.235-.766-.68 0 0 0" transform="matrix(6.29405 0 0 -6.29405 43.736 95.42)"/><path style="fill:#000;fill-opacity:1;fill-rule:nonzero;stroke:none" d="m0 0-.006-.124-.019-.082-.03-.046-.042-.015h-.809v-2.605l-.016-.045-.054-.033-.101-.019-.158-.008-.16.008-.1.019-.054.033-.017.045v2.605h-.808l-.044.015-.029.046-.019.082-.005.124.005.128.019.083.029.045.044.014h2.277l.042-.014.03-.045.019-.083L0 0z" transform="matrix(6.29405 0 0 -6.29405 59.912 64.559)"/><path style="fill:#000;fill-opacity:1;fill-rule:nonzero;stroke:none" d="m0 0-.002-.097-.01-.065-.016-.044-.037-.038-.11-.056-.202-.064-.251-.044-.274-.017a2 2 0 0 0-.475.05c-.133.033-.244.08-.332.141l-.195.22-.065.281.031.199.086.17.144.139.196.101-.177.094-.117.113-.067.138-.021.165.068.284.199.224c.089.062.197.11.326.144.129.033.279.05.449.05l.244-.018.232-.045.185-.059.102-.052.035-.04.015-.046.008-.069.003-.103-.005-.119-.014-.071-.022-.035-.037-.01-.092.031-.15.067-.213.067-.276.029-.203-.021-.137-.058-.076-.086-.023-.104.028-.109.084-.082.137-.053.188-.019h.374l.044-.01.031-.034.018-.068.007-.105-.007-.1L-.39.701-.424.665-.475.654h-.404l-.199-.021-.137-.06-.08-.093-.027-.118.029-.121.093-.096.16-.063.238-.022.283.027.217.062.147.064.085.029.034-.009.021-.035.01-.073L0 0z" transform="matrix(6.29405 0 0 -6.29405 73.609 80.889)"/><path style="fill:#000;fill-opacity:1;fill-rule:nonzero;stroke:none" d="m0 0-.005-.096-.009-.069-.015-.046-.024-.033L-.1-.27l-.069-.021-.082-.013-.082-.003-.238.026-.18.098-.138.196a1.91 1.91 0 0 0-.113.327l-.305 1.066-.477-1.526-.032-.084-.06-.046-.107-.018-.173-.004-.188.008-.099.037-.025.076.035.126.842 2.225-.055.143c-.06.164-.112.268-.154.312l-.18.065-.149-.02-.102-.02-.027.008-.018.034-.011.068-.004.11.013.171.036.085.069.037.103.024.105.015.104.005c.116 0 .219-.014.31-.04l.242-.138a.89.89 0 0 0 .191-.259c.055-.109.109-.244.158-.408L-.373.459l.044-.123.044-.071.05-.034.068-.009.052.003.04.002.032-.006.024-.03.013-.069L0 0z" transform="matrix(6.29405 0 0 -6.29405 90.476 81.582)"/><path style="fill:#000;fill-opacity:1;fill-rule:nonzero;stroke:none" d="M0 0c0-.212-.023-.397-.07-.555a1.194 1.194 0 0 0-.196-.398.805.805 0 0 0-.289-.237.834.834 0 0 0-.359-.078l-.234.023-.202.075-.165.132-.13.194a.722.722 0 0 0-.283-.321.86.86 0 0 0-.439-.103.786.786 0 0 0-.639.304 1.17 1.17 0 0 0-.196.392 1.948 1.948 0 0 0-.072.562l.024.274.059.26.078.233.085.189.071.132.055.073.088.037.202.013.149-.006.097-.016.052-.025.015-.033-.054-.112-.117-.234a2.423 2.423 0 0 1-.119-.343 1.682 1.682 0 0 1-.052-.434c0-.129.008-.24.027-.335l.076-.235.119-.138.156-.046.127.029.099.097.065.184c.015.079.022.181.022.304v.654l.015.045.049.034.094.021.151.007.153-.007.098-.021.052-.034.015-.045v-.654l.018-.273.056-.188.099-.112.151-.041.155.049.115.145.073.234c.016.092.024.197.024.316 0 .166-.017.315-.052.447a2.073 2.073 0 0 1-.118.341l-.117.229-.052.114.012.032.05.027.096.017.154.006.121-.003.082-.011.056-.02.039-.029.049-.069.073-.135.082-.188.077-.227.058-.254L0 0z" transform="matrix(6.29405 0 0 -6.29405 111.962 75.578)"/><path style="fill:#000;fill-opacity:1;fill-rule:nonzero;stroke:none" d="m0 0-.022-.299a3.198 3.198 0 0 0-.066-.339 5.706 5.706 0 0 0-.43-1.159 5.902 5.902 0 0 0-.162-.314l-.093-.147-.072-.045-.109-.019-.174-.004-.216.007-.128.021-.065.042-.033.066-.652 2.015-.027.105-.008.07.015.049.052.031.101.017.154.005.162-.006.096-.017.049-.033.023-.051.496-1.651.011-.065.022.065a4.734 4.734 0 0 1 .32.86c.038.144.068.284.088.419.021.134.032.26.032.377l.014.047.048.032.095.017.154.006.153-.005L-.07.08l.055-.031L0 0z" transform="matrix(6.29405 0 0 -6.29405 127.65 68.66)"/><path style="fill:#000;fill-opacity:1;fill-rule:nonzero;stroke:none" d="m0 0-.002-.097-.01-.065-.016-.044-.036-.038L-.175-.3l-.202-.064-.251-.044-.274-.017a2 2 0 0 0-.475.05c-.132.033-.244.08-.332.141l-.195.22-.065.281.031.199.087.17.144.139.195.101-.177.094-.117.113-.067.138-.021.165.068.284.2.224c.089.062.196.11.325.144.129.033.279.05.449.05l.244-.018.232-.045.185-.059.102-.052.035-.04.015-.046.009-.069.002-.103-.005-.119-.014-.071-.022-.035-.036-.01-.093.031-.15.067-.213.067-.276.029-.202-.021-.137-.058-.077-.086-.023-.104.028-.109.084-.082.138-.053.187-.019h.374l.044-.01.031-.034.019-.068.007-.105-.007-.1L-.39.701-.424.665-.475.654h-.404l-.199-.021-.137-.06-.08-.093-.027-.118.03-.121.092-.096.161-.063.238-.022.282.027.217.062.147.064.085.029.034-.009.021-.035.01-.073L0 0z" transform="matrix(6.29405 0 0 -6.29405 141.678 80.889)"/><path style="fill:#000;fill-opacity:1;fill-rule:nonzero;stroke:none" d="m0 0-.036-.044-.06-.026-.086-.013-.115-.002-.178.025-.031.09.194.682.095.086a.764.764 0 0 0 .245.029L.184.818.272.795.307.754.3.694 0 0zm.585-2.497L.57-2.671l-.037-.08-.063-.037-.097-.029-.121-.019-.129-.006a.908.908 0 0 0-.316.049l-.218.148-.126.256c-.027.104-.04.228-.04.371v1.539l.014.044.049.033.094.019.151.006.153-.006.097-.019.053-.033.016-.044v-1.454l.011-.166.039-.118.073-.069.114-.024.09.005.064.013.043.016.033.006.028-.009.021-.035.014-.07.005-.113z" transform="matrix(6.29405 0 0 -6.29405 148.435 65.643)"/><path style="fill:#000;fill-opacity:1;fill-rule:nonzero;stroke:none" d="M0 0c0 .11-.009.211-.026.304l-.089.24-.166.16-.262.058L-.786.71-.959.561l-.102-.238a1.37 1.37 0 0 1-.033-.316c0-.11.009-.211.028-.303l.089-.241.165-.158.26-.057.247.051.173.149.099.236C-.011-.224 0-.118 0 0m.647.025c0-.19-.025-.363-.075-.52a1.119 1.119 0 0 0-.227-.404.995.995 0 0 0-.383-.262 1.422 1.422 0 0 0-.536-.093c-.198 0-.37.028-.517.083a.93.93 0 0 0-.366.239.998.998 0 0 0-.214.387c-.047.154-.07.328-.07.525 0 .19.025.363.076.52a1.024 1.024 0 0 0 .609.666c.152.062.332.093.537.093.199 0 .373-.027.519-.082A.909.909 0 0 0 .363.939.983.983 0 0 0 .576.552C.623.398.647.223.647.025" transform="matrix(6.29405 0 0 -6.29405 164.205 75.67)"/><path style="fill:#000;fill-opacity:1;fill-rule:nonzero;stroke:none" d="m0 0-.004-.106-.011-.075-.02-.053-.04-.052-.107-.073-.192-.086-.259-.069a1.651 1.651 0 0 0-.316-.028c-.222 0-.421.035-.599.103-.178.068-.331.17-.455.305a1.364 1.364 0 0 0-.287.509 2.262 2.262 0 0 0-.101.709c0 .275.038.519.11.732.074.213.176.392.308.537.131.145.289.254.473.329.184.075.387.113.608.113l.26-.022.231-.059.191-.084.119-.081.046-.056.02-.058.011-.082.003-.118-.004-.127-.018-.085-.029-.047-.04-.015-.095.043-.149.098-.218.097a.917.917 0 0 1-.3.044.727.727 0 0 1-.344-.079l-.257-.225a1.052 1.052 0 0 1-.16-.353 1.766 1.766 0 0 1-.055-.467c0-.19.018-.354.058-.493a.969.969 0 0 1 .167-.344l.262-.201A.89.89 0 0 1-.847.015c.117 0 .218.014.302.041l.219.092.15.089.09.041.041-.01.025-.041.015-.083L0 0z" transform="matrix(6.29405 0 0 -6.29405 66.085 145.265)"/><path style="fill:#000;fill-opacity:1;fill-rule:nonzero;stroke:none" d="m0 0-.013-.044-.043-.031-.083-.019L-.268-.1l-.134.006-.081.019-.042.031L-.538 0v.257a1.428 1.428 0 0 0-.375-.3.854.854 0 0 0-.396-.099.888.888 0 0 0-.386.075l-.253.204a.837.837 0 0 0-.137.301 1.89 1.89 0 0 0-.041.426v1.364l.014.044.05.031.097.019.151.005.152-.005.096-.019.052-.031.015-.044V.969c0-.116.007-.206.022-.267l.07-.159.117-.102.165-.037.241.088c.081.058.168.143.259.255v1.481l.013.044.051.031.096.019.152.005.152-.005.095-.019.051-.031L0 2.228V0z" transform="matrix(6.29405 0 0 -6.29405 82.12 147.81)"/><path style="fill:#000;fill-opacity:1;fill-rule:nonzero;stroke:none" d="M0 0a.747.747 0 0 0-.071-.335l-.201-.242A.906.906 0 0 0-.58-.723a1.457 1.457 0 0 0-.384-.049l-.238.019-.204.048-.15.058-.087.056-.043.083-.014.166.004.116.016.07.024.035.038.009.081-.031.133-.069.187-.07.241-.033.151.018.115.05.073.082.025.115-.047.129-.121.093-.173.075-.197.078-.198.097-.172.135-.122.192-.047.27.064.294.179.228a.84.84 0 0 0 .286.147c.112.035.239.053.378.053l.204-.015.178-.038.135-.049.079-.044.034-.038.015-.045.008-.065.004-.096-.004-.11-.012-.067-.024-.034-.035-.008-.069.026-.119.056-.165.056-.213.026-.148-.017-.102-.05-.061-.076-.02-.094.048-.13.124-.092.177-.075.2-.076.2-.097.176-.134.124-.191L0 0z" transform="matrix(6.29405 0 0 -6.29405 95.964 143.849)"/><path style="fill:#000;fill-opacity:1;fill-rule:nonzero;stroke:none" d="m0 0-.014-.169-.036-.082-.066-.043-.103-.032-.127-.021-.139-.007a.995.995 0 0 0-.325.047l-.227.146-.133.248a1.33 1.33 0 0 0-.042.355v1.141h-.267l-.072.059-.025.196.006.123.019.078.031.042.044.012h.264v.497l.014.045.051.033.097.02.151.007.154-.007.096-.02.049-.033.015-.045v-.497H-.1l.044-.012.03-.042.019-.078L0 1.838l-.026-.196-.071-.059h-.488V.537c0-.122.019-.213.058-.273l.205-.092.09.009.07.02.053.02.039.009.029-.009.021-.035.013-.071L0 0z" transform="matrix(6.29405 0 0 -6.29405 106.872 146.427)"/><path style="fill:#000;fill-opacity:1;fill-rule:nonzero;stroke:none" d="M0 0c0 .11-.01.211-.026.303l-.089.241-.166.16-.262.058L-.786.71-.959.561l-.102-.238a1.499 1.499 0 0 1-.005-.619l.089-.241.165-.159.26-.056.247.051.172.149.1.236C-.011-.224 0-.118 0 0m.647.025c0-.19-.025-.363-.075-.52a1.106 1.106 0 0 0-.228-.404.984.984 0 0 0-.382-.262 1.422 1.422 0 0 0-.536-.093c-.198 0-.371.028-.517.083a.93.93 0 0 0-.366.239.998.998 0 0 0-.214.387c-.047.154-.07.328-.07.525 0 .19.025.363.076.52a1.024 1.024 0 0 0 .609.666c.152.061.332.093.537.093.199 0 .372-.027.519-.082A.92.92 0 0 0 .363.939.983.983 0 0 0 .576.552C.623.398.647.223.647.025" transform="matrix(6.29405 0 0 -6.29405 119.523 140.813)"/><path style="fill:#000;fill-opacity:1;fill-rule:nonzero;stroke:none" d="m0 0-.015-.044-.051-.031-.095-.019L-.313-.1l-.155.006-.096.019-.05.031L-.627 0v1.321l-.021.205-.066.159-.11.102-.158.036-.227-.087a1.48 1.48 0 0 1-.25-.255V0l-.015-.044-.051-.031-.096-.019-.15-.006-.152.006-.096.019-.052.031-.015.044v1.321l-.021.205-.063.159-.11.102-.157.036-.23-.087a1.375 1.375 0 0 1-.247-.255V0l-.016-.044-.051-.031-.096-.019L-3.23-.1l-.152.006-.096.019-.052.031-.014.044v2.228l.012.044.046.031.083.019.129.005.132-.005.081-.019.041-.031.013-.044V1.97c.123.133.246.234.368.3a.79.79 0 0 0 .383.1l.247-.029.197-.082.148-.129.105-.167.196.185.19.126.187.072.192.024a.85.85 0 0 0 .375-.075l.246-.203a.84.84 0 0 0 .133-.301c.026-.115.04-.237.04-.365V0z" transform="matrix(6.29405 0 0 -6.29405 149.025 147.81)"/><path style="fill:#000;fill-opacity:1;fill-rule:nonzero;stroke:none" d="M0 0a.734.734 0 0 0-.072-.335l-.2-.242A.906.906 0 0 0-.58-.723a1.457 1.457 0 0 0-.384-.049l-.238.019-.204.048-.15.058-.087.056-.043.083-.014.166.004.116.016.07.024.035.038.009.08-.031.134-.069.186-.07.242-.033.151.018.115.05.072.082.026.115-.047.129-.121.093-.173.075-.197.078-.198.097-.172.135-.122.192-.047.27.064.294.179.228a.831.831 0 0 0 .286.147c.112.035.239.053.378.053l.204-.015.178-.038.135-.049.079-.044.034-.038.015-.045.008-.065.004-.096-.004-.11-.012-.067-.024-.034-.035-.008-.07.026-.118.056-.165.056-.213.026-.148-.017-.102-.05-.061-.076-.02-.094.048-.13.124-.092.177-.075.2-.076.2-.097.176-.134.124-.191L0 0z" transform="matrix(6.29405 0 0 -6.29405 162.781 143.849)"/></svg>