<svg xmlns="http://www.w3.org/2000/svg" width="211.851" height="211.713"><path d="M0 0c7.465 0 13.608 6.117 13.608 13.582 0 7.49-6.143 13.61-13.608 13.61-7.491 0-13.61-6.12-13.61-13.61C-13.61 6.117-7.491 0 0 0" style="fill:#fff;fill-opacity:1;fill-rule:evenodd;stroke:none" transform="matrix(6.22998 0 0 -6.22998 105.916 190.553)"/><path d="M0 0c7.467 0 13.608 6.119 13.608 13.584 0 7.491-6.141 13.608-13.608 13.608-7.491 0-13.608-6.117-13.608-13.608C-13.608 6.119-7.491 0 0 0m0-3.394c9.356 0 17.004 7.648 17.004 16.978 0 9.359-7.648 17.005-17.004 17.005-9.354 0-17.001-7.646-17.001-17.005 0-9.33 7.647-16.978 17.001-16.978" style="fill:#ed1d24;fill-opacity:1;fill-rule:evenodd;stroke:none" transform="matrix(6.22998 0 0 -6.22998 105.916 190.569)"/><path style="fill:#000;fill-opacity:1;fill-rule:nonzero;stroke:none" d="M237.512 569.24c-6.936 0-12.022-1.981-15.23-5.932-3.204-3.957-4.812-9.447-4.812-16.477l13.716-2.243v1.844c0 3.428.53 5.864 1.577 7.316 1.053 1.446 2.736 2.175 5.01 2.175 1.577 0 2.967-.53 4.15-1.583 1.197-1.053 1.87-3.078 2.045-6.063v-21.755c0-3.777-1.882-5.665-5.665-5.665-1.402 0-2.748.374-4.02 1.122-1.27.741-2.262 1.994-2.966 3.758h-11.871v-49.05h38.238v13.055H232.37v22.148l.206.068.318.062c1.14-1.227 2.617-2.13 4.412-2.704 1.813-.567 3.552-.854 5.216-.854 5.62 0 9.64 1.558 12.065 4.68 2.411 3.122 3.62 7.055 3.62 11.797v18.988c0 8.7-1.695 15.094-5.066 19.182-3.39 4.088-8.606 6.132-15.63 6.132M265.203 577.478h-3.957l1.913-8.638h-1.726v-8.3h7.39v8.107l-3.62 8.83zM288.558 569.04c-5.197 0-9.011-1.484-11.404-4.45-2.412-2.96-3.627-7.086-3.627-12.358l10.3-1.682v1.383c0 2.574.394 4.406 1.185 5.49.785 1.09 2.044 1.633 3.751 1.633 1.185 0 2.219-.399 3.11-1.19.891-.792 1.402-2.306 1.533-4.543v-16.315c0-2.836-1.414-4.256-4.25-4.256-1.053 0-2.056.28-3.01.84-.96.562-1.707 1.503-2.23 2.818h-8.9v-36.78h28.673v9.784H284.7v16.614l.162.05.25.05c.847-.923 1.956-1.596 3.303-2.026 1.358-.43 2.654-.642 3.913-.642 4.207 0 7.229 1.172 9.036 3.509 1.814 2.336 2.717 5.29 2.717 8.849v14.24c0 6.524-1.271 11.322-3.795 14.382-2.543 3.066-6.456 4.6-11.728 4.6M327.467 568.448c-2.38 0-4.325-.368-5.858-1.097-1.545-.735-2.773-1.695-3.726-2.885a10.655 10.655 0 0 1-1.982-3.976 17.448 17.448 0 0 1-.586-4.394v-30.573h-5.023v-8.899h5.142v-13.086h10.88v13.086h6.282v8.9h-6.282v26.815c0 1.95.318 3.359.948 4.231.629.866 1.913 1.302 3.87 1.302h1.358v10.576h-5.023z" transform="translate(-167.542 -419.795)"/></svg>