<svg xmlns="http://www.w3.org/2000/svg" width="213.556" height="213.418"><path d="M0 0c7.465 0 13.608 6.117 13.608 13.582 0 7.49-6.143 13.61-13.608 13.61-7.491 0-13.61-6.12-13.61-13.61C-13.61 6.117-7.491 0 0 0" style="fill:#fff;fill-opacity:1;fill-rule:evenodd;stroke:none" transform="matrix(6.28013 0 0 -6.28013 106.769 192.088)"/><path d="M0 0c7.467 0 13.608 6.119 13.608 13.584 0 7.491-6.141 13.608-13.608 13.608-7.491 0-13.608-6.117-13.608-13.608C-13.608 6.119-7.491 0 0 0m0-3.394c9.356 0 17.004 7.648 17.004 16.978 0 9.359-7.648 17.005-17.004 17.005-9.354 0-17.001-7.646-17.001-17.005 0-9.33 7.647-16.978 17.001-16.978" style="fill:#ed1d24;fill-opacity:1;fill-rule:evenodd;stroke:none" transform="matrix(6.28013 0 0 -6.28013 106.769 192.103)"/><path style="fill:#000;fill-opacity:1;fill-rule:evenodd;stroke:none" d="M0 0c1.316.408 2.713.628 4.164.628 1.448 0 2.845-.22 4.16-.628l-4.16-4.161L0 0z" transform="matrix(6.1032 0 0 -6.1032 80.88 25.132)"/><path style="fill:#000;fill-opacity:1;fill-rule:evenodd;stroke:none" d="m0 0 4.164 4.162L8.325 0a14.055 14.055 0 0 0-4.161-.627C2.713-.627 1.316-.407 0 0" transform="matrix(6.1032 0 0 -6.1032 80.88 188.808)"/><path style="fill:#000;fill-opacity:1;fill-rule:nonzero;stroke:none" d="M0 0c.448-.205.742-.503.882-.893.142-.39.212-.828.212-1.315l-.019-1.536c0-1.062-.278-1.869-.835-2.419-.558-.551-1.303-.826-2.237-.826-1.089 0-1.869.298-2.342.893-.474.595-.679 1.437-.615 2.525l2.055.249c-.065-.64-.004-1.088.181-1.344a.89.89 0 0 1 .76-.384c.229 0 .444.08.643.241.198.159.297.457.297.892v1.805c0 .448-.102.768-.307.96-.206.192-.493.288-.864.288h-.576V.902h.672c.371 0 .653.09.845.269.192.179.288.48.288.903v1.478c0 .256-.058.499-.173.729-.115.231-.339.346-.672.346a.878.878 0 0 1-.758-.394c-.186-.262-.279-.7-.279-1.314l-2.035.268c.025 1.037.32 1.866.883 2.487.563.62 1.324.931 2.285.931.524 0 .966-.084 1.324-.25.359-.166.647-.387.864-.662.218-.275.375-.589.471-.941.096-.352.144-.707.144-1.066V2.63c0-.256-.009-.508-.029-.758a2.994 2.994 0 0 0-.135-.701A1.915 1.915 0 0 0 .605.567 1.774 1.774 0 0 0 0 .096V0z" transform="matrix(6.1032 0 0 -6.1032 76.067 100.362)"/><path style="fill:#000;fill-opacity:1;fill-rule:nonzero;stroke:none" d="M0 0h-.577l.279 1.258h-.249v1.209H.527v-1.18L0 0z" transform="matrix(6.1032 0 0 -6.1032 88.954 150.34)"/><path style="fill:#000;fill-opacity:1;fill-rule:nonzero;stroke:none" d="M0 0c0 .2-.046.382-.136.544-.091.163-.262.245-.512.245S-1.07.707-1.166.544A1.049 1.049 0 0 1-1.31 0v-1.893c0-.181.065-.329.194-.444a.684.684 0 0 1 .468-.172c.192 0 .348.057.469.172A.59.59 0 0 1 0-1.893V0zm0 4.028c0 .211-.05.389-.151.533-.101.144-.266.216-.497.216a.71.71 0 0 1-.461-.165.542.542 0 0 1-.201-.44V2.589a.55.55 0 0 1 .194-.44.703.703 0 0 1 .468-.166.67.67 0 0 1 .469.166c.119.11.179.257.179.44v1.439zm1.541-.863c0-.365-.053-.711-.159-1.038a1.25 1.25 0 0 0-.611-.734l.014-.014A1.47 1.47 0 0 0 1.214.99c.102-.144.177-.302.225-.475a2.85 2.85 0 0 0 .095-.569c.014-.207.022-.43.022-.67v-.863a3.08 3.08 0 0 0-.166-1.066 2.025 2.025 0 0 0-.463-.742 1.8 1.8 0 0 0-.693-.432 2.637 2.637 0 0 0-.86-.136c-.385 0-.717.057-.997.172a1.753 1.753 0 0 0-.686.49 2.07 2.07 0 0 0-.397.749c-.086.288-.13.6-.13.935v.721c0 .23.007.455.021.676.014.221.048.43.101.627a1.8 1.8 0 0 0 .238.533c.105.158.25.295.432.41a.946.946 0 0 0-.396.295c-.1.13-.18.269-.238.418a1.864 1.864 0 0 0-.114.446c-.02.149-.03.276-.03.382v1.152c0 .662.199 1.192.6 1.591.4.398.927.597 1.582.597.702 0 1.242-.199 1.617-.597.377-.399.564-.977.564-1.735v-.734z" transform="matrix(6.1032 0 0 -6.1032 114.03 118.65)"/><path style="fill:#000;fill-opacity:1;fill-rule:nonzero;stroke:none" d="M0 0c.24 0 .442-.038.606-.114.164-.076.296-.182.396-.318.1-.136.172-.296.216-.48.044-.184.065-.384.065-.6V-6H-.012v4.104c0 .208-.047.366-.139.474a.482.482 0 0 1-.383.162.543.543 0 0 1-.406-.168.664.664 0 0 1-.177-.456V-6h-1.295v4.104c0 .208-.046.366-.138.474a.47.47 0 0 1-.378.162.53.53 0 0 1-.408-.186c-.113-.124-.168-.294-.168-.51V-6H-4.8v5.94h1.296V-.6l.045-.012c.12.168.269.312.449.432.179.12.38.18.603.18.304 0 .546-.062.73-.186.183-.124.319-.29.407-.498.167.208.361.374.581.498C-.47-.062-.239 0 0 0" transform="matrix(6.1032 0 0 -6.1032 160.418 105.694)"/></svg>