<svg xmlns="http://www.w3.org/2000/svg" xmlns:xlink="http://www.w3.org/1999/xlink" width="314" height="349"><defs><radialGradient fx="0" fy="0" cx="0" cy="0" r="1" gradientUnits="userSpaceOnUse" gradientTransform="matrix(84.0606 0 0 84.0606 2428.52 -1626.21)" spreadMethod="pad" id="a"><stop style="stop-opacity:1;stop-color:#fff533" offset="0"/><stop style="stop-opacity:1;stop-color:#f89c0e" offset="1"/></radialGradient><radialGradient xlink:href="#a" id="c" gradientUnits="userSpaceOnUse" gradientTransform="matrix(6.00026 0 0 -5.99995 -265.726 213.536)" cx="0" cy="0" fx="0" fy="0" r="1" spreadMethod="pad"/><radialGradient xlink:href="#a" id="d" gradientUnits="userSpaceOnUse" gradientTransform="matrix(6.00026 0 0 -5.99995 -265.726 231.136)" cx="0" cy="0" fx="0" fy="0" r="1" spreadMethod="pad"/><radialGradient xlink:href="#a" id="e" gradientUnits="userSpaceOnUse" gradientTransform="matrix(6.00026 0 0 -5.99995 -265.726 195.936)" cx="0" cy="0" fx="0" fy="0" r="1" spreadMethod="pad"/><radialGradient xlink:href="#a" id="f" gradientUnits="userSpaceOnUse" gradientTransform="matrix(6.00026 0 0 -5.99995 -280.969 204.737)" cx="0" cy="0" fx="0" fy="0" r="1" spreadMethod="pad"/><radialGradient xlink:href="#a" id="g" gradientUnits="userSpaceOnUse" gradientTransform="matrix(6.00026 0 0 -5.99995 -280.969 222.337)" cx="0" cy="0" fx="0" fy="0" r="1" spreadMethod="pad"/><radialGradient xlink:href="#a" id="h" gradientUnits="userSpaceOnUse" gradientTransform="matrix(6.00026 0 0 -5.99995 -250.485 204.737)" cx="0" cy="0" fx="0" fy="0" r="1" spreadMethod="pad"/><radialGradient xlink:href="#a" id="i" gradientUnits="userSpaceOnUse" gradientTransform="matrix(6.00026 0 0 -5.99995 -250.485 222.337)" cx="0" cy="0" fx="0" fy="0" r="1" spreadMethod="pad"/><radialGradient xlink:href="#a" id="j" gradientUnits="userSpaceOnUse" gradientTransform="matrix(6.00026 0 0 -5.99995 -33.725 213.536)" cx="0" cy="0" fx="0" fy="0" r="1" spreadMethod="pad"/><radialGradient xlink:href="#a" id="k" gradientUnits="userSpaceOnUse" gradientTransform="matrix(6.00026 0 0 -5.99995 -33.725 231.136)" cx="0" cy="0" fx="0" fy="0" r="1" spreadMethod="pad"/><radialGradient xlink:href="#a" id="l" gradientUnits="userSpaceOnUse" gradientTransform="matrix(6.00026 0 0 -5.99995 -33.725 195.936)" cx="0" cy="0" fx="0" fy="0" r="1" spreadMethod="pad"/><radialGradient xlink:href="#a" id="m" gradientUnits="userSpaceOnUse" gradientTransform="matrix(6.00026 0 0 -5.99995 -48.968 204.737)" cx="0" cy="0" fx="0" fy="0" r="1" spreadMethod="pad"/><radialGradient xlink:href="#a" id="n" gradientUnits="userSpaceOnUse" gradientTransform="matrix(6.00026 0 0 -5.99995 -48.968 222.337)" cx="0" cy="0" fx="0" fy="0" r="1" spreadMethod="pad"/><radialGradient xlink:href="#a" id="o" gradientUnits="userSpaceOnUse" gradientTransform="matrix(6.00026 0 0 -5.99995 -18.484 204.737)" cx="0" cy="0" fx="0" fy="0" r="1" spreadMethod="pad"/><radialGradient xlink:href="#a" id="p" gradientUnits="userSpaceOnUse" gradientTransform="matrix(6.00026 0 0 -5.99995 -18.484 222.337)" cx="0" cy="0" fx="0" fy="0" r="1" spreadMethod="pad"/><clipPath clipPathUnits="userSpaceOnUse" id="b"><path d="M42.52 409.134h112.913v113.858H42.52z"/></clipPath></defs><g transform="translate(306.725 -182.536)"><path style="fill:#007ac2;fill-opacity:1;fill-rule:nonzero;stroke:none;stroke-width:.99833798" d="M-306.725 531.536h314v-295h-314z"/><path style="fill:#fff;fill-opacity:1;fill-rule:nonzero;stroke:none" d="M-279.682 377.263H-17.24V254.465h-262.442z"/><g clip-path="url(#b)" transform="matrix(3.1596 0 0 -3.1596 -458.674 1833.546)"><path d="M56.65 416.921h83.062v38.865H56.65z" style="fill:#fff;fill-opacity:1;fill-rule:nonzero;stroke:none"/><path d="M0 0v6.428h5.042V0h-.85v5.669H.851V0z" style="fill:#000;fill-opacity:1;fill-rule:nonzero;stroke:none" transform="translate(75.104 488.006)"/><path d="M0 0h1.662c.549 0 .939.102 1.17.307.231.204.347.493.347.864 0 .269-.068.499-.204.69a.955.955 0 0 1-.537.38c-.144.037-.408.056-.794.056H0zm-.851-3.372v6.428h2.425c.427 0 .753-.02.978-.061.315-.053.58-.153.793-.301.214-.147.385-.354.516-.62.13-.266.195-.559.195-.877 0-.546-.174-1.009-.522-1.388-.348-.379-.976-.568-1.885-.568H0v-2.613z" style="fill:#000;fill-opacity:1;fill-rule:nonzero;stroke:none" transform="translate(82.413 491.378)"/><path d="M0 0c0-.774.208-1.385.625-1.831.416-.445.939-.668 1.567-.668.64 0 1.167.225 1.581.675.413.45.62 1.089.62 1.916 0 .523-.088.98-.265 1.37a2.04 2.04 0 0 1-.776.908 2.105 2.105 0 0 1-1.147.322c-.602 0-1.12-.206-1.554-.62C.217 1.658 0 .967 0 0m-.877.013c0 1.067.286 1.903.859 2.506.573.603 1.313.905 2.219.905.593 0 1.128-.142 1.605-.425a2.777 2.777 0 0 0 1.089-1.186c.25-.507.375-1.082.375-1.725 0-.652-.131-1.235-.394-1.75A2.705 2.705 0 0 0 3.758-2.83a3.193 3.193 0 0 0-1.561-.397c-.605 0-1.146.146-1.623.438A2.836 2.836 0 0 0-.509-1.592 3.637 3.637 0 0 0-.877.013" style="fill:#000;fill-opacity:1;fill-rule:nonzero;stroke:none" transform="translate(88.17 491.124)"/><path d="M0 0v-.759h-3.451l2.193-2.332-2.193-2.578H.18v-.759h-4.551v.886l2.1 2.451-2.1 2.236V0z" style="fill:#000;fill-opacity:1;fill-rule:nonzero;stroke:none" transform="translate(98.864 494.434)"/><path d="M0 0c0-.774.208-1.385.625-1.831.416-.445.939-.668 1.567-.668.641 0 1.167.225 1.581.675.414.45.62 1.089.62 1.916 0 .523-.088.98-.265 1.37a2.034 2.034 0 0 1-.776.908 2.104 2.104 0 0 1-1.146.322 2.173 2.173 0 0 1-1.555-.62C.217 1.658 0 .967 0 0m-.877.013c0 1.067.286 1.903.859 2.506.573.603 1.313.905 2.219.905.593 0 1.128-.142 1.605-.425.476-.283.84-.679 1.089-1.186.25-.507.375-1.082.375-1.725 0-.652-.131-1.235-.394-1.75A2.699 2.699 0 0 0 3.758-2.83a3.193 3.193 0 0 0-1.561-.397c-.605 0-1.146.146-1.623.438A2.836 2.836 0 0 0-.509-1.592 3.637 3.637 0 0 0-.877.013" style="fill:#000;fill-opacity:1;fill-rule:nonzero;stroke:none" transform="translate(100.706 491.124)"/><path d="m0 0 2.486 3.35L.294 6.428h1.013l1.166-1.649c.242-.342.415-.605.517-.789.143.234.313.478.509.732l1.293 1.706h.925l-2.258-3.03L5.893 0H4.841L3.223 2.293c-.091.132-.185.275-.281.43a10.561 10.561 0 0 0-.307-.482L1.022 0z" style="fill:#000;fill-opacity:1;fill-rule:nonzero;stroke:none" transform="translate(106.419 488.006)"/><path d="M0 0v6.428h.851v-2.64h3.341v2.64h.85V0h-.85v3.03H.851V0z" style="fill:#000;fill-opacity:1;fill-rule:nonzero;stroke:none" transform="translate(113.088 488.006)"/><path d="M0 0h.907v-.899H0zm.206.697-.242 3.407v1.425h.978V4.104L.714.697z" style="fill:#000;fill-opacity:1;fill-rule:nonzero;stroke:none" transform="translate(119.661 488.905)"/><path d="M0 0c0-.774.208-1.385.625-1.831.416-.445.939-.668 1.567-.668.641 0 1.167.225 1.581.675.414.45.62 1.089.62 1.916 0 .524-.088.98-.265 1.37a2.034 2.034 0 0 1-.776.908 2.105 2.105 0 0 1-1.147.322c-.602 0-1.12-.206-1.554-.62C.217 1.658 0 .967 0 0m-.877.013c0 1.067.286 1.903.859 2.506.573.603 1.313.905 2.219.905.593 0 1.128-.142 1.605-.425a2.777 2.777 0 0 0 1.089-1.186c.25-.507.375-1.082.375-1.725 0-.652-.131-1.235-.394-1.75A2.699 2.699 0 0 0 3.758-2.83a3.193 3.193 0 0 0-1.561-.397c-.605 0-1.146.146-1.623.438A2.836 2.836 0 0 0-.509-1.592 3.637 3.637 0 0 0-.877.013" style="fill:#000;fill-opacity:1;fill-rule:nonzero;stroke:none" transform="translate(67.907 480.348)"/><path d="M0 0h3.573L2.184 3.661c-.208.55-.36.994-.456 1.333a8.525 8.525 0 0 0-.347-1.228zm-1.179-.758 2.468 6.427h.917l2.63-6.427z" style="fill:#000;fill-opacity:1;fill-rule:nonzero;stroke:none" transform="translate(74.563 477.989)"/><path d="M0 0v6.428h.851v-2.64h3.341v2.64h.85V0h-.85v3.03H.851V0z" style="fill:#000;fill-opacity:1;fill-rule:nonzero;stroke:none" transform="translate(80.11 477.23)"/><path d="M0 0h4.016v-.759H.851v-5.669H0z" style="fill:#000;fill-opacity:1;fill-rule:nonzero;stroke:none" transform="translate(86.594 483.658)"/><path d="M0 0v6.428h4.648v-.759H.851V3.701h3.556v-.755H.851V.758h3.946V0z" style="fill:#000;fill-opacity:1;fill-rule:nonzero;stroke:none" transform="translate(91.531 477.23)"/><path d="M97.648 477.23h.851v6.428h-.851z" style="fill:#000;fill-opacity:1;fill-rule:nonzero;stroke:none"/><path d="M0 0v5.669h-2.118v.759h5.095v-.759H.851V0z" style="fill:#000;fill-opacity:1;fill-rule:nonzero;stroke:none" transform="translate(101.633 477.23)"/><path d="M0 0v6.428h4.648v-.759H.851V3.701h3.556v-.755H.851V.758h3.946V0z" style="fill:#000;fill-opacity:1;fill-rule:nonzero;stroke:none" transform="translate(105.5 477.23)"/><path d="M0 0v-.759h-3.451l2.193-2.332-2.193-2.578H.18v-.759h-4.552v.886l2.101 2.451-2.101 2.236V0z" style="fill:#000;fill-opacity:1;fill-rule:nonzero;stroke:none" transform="translate(118.295 483.658)"/><path d="M0 0v5.669h-2.118v.759h5.095v-.759H.851V0z" style="fill:#000;fill-opacity:1;fill-rule:nonzero;stroke:none" transform="translate(121.153 477.23)"/><path d="M0 0h2.179l-.671 1.78c-.204.541-.356.985-.456 1.333a8.218 8.218 0 0 0-.346-1.228zm-1.855-2.639L.614 3.788h.916l2.631-6.427h-.969l-.75 1.946H-.245l-.707-1.946z" style="fill:#000;fill-opacity:1;fill-rule:nonzero;stroke:none" transform="translate(125.485 479.87)"/><path d="M0 0h2.179l-.671 1.78c-.204.541-.356.985-.456 1.333a8.252 8.252 0 0 0-.346-1.228zm-1.855-2.639L.614 3.788h.916l2.631-6.427h-.969l-.75 1.946H-.246l-.705-1.946z" style="fill:#000;fill-opacity:1;fill-rule:nonzero;stroke:none" transform="translate(78.55 469.094)"/><path d="M0 0h1.662c.549 0 .939.103 1.17.307.231.204.347.493.347.864 0 .269-.068.499-.204.69a.955.955 0 0 1-.537.38c-.143.037-.408.057-.794.057H0zm-.851-3.372v6.428h2.425c.427 0 .753-.02.978-.061a1.93 1.93 0 0 0 .793-.301c.214-.147.385-.354.516-.62.13-.266.195-.559.195-.877 0-.546-.174-1.009-.522-1.388-.348-.378-.976-.568-1.885-.568H0v-2.613z" style="fill:#000;fill-opacity:1;fill-rule:nonzero;stroke:none" transform="translate(84.242 469.827)"/><path d="M89.525 466.455h.851v6.428h-.851z" style="fill:#000;fill-opacity:1;fill-rule:nonzero;stroke:none"/><path d="M0 0v-.758h-3.451l2.193-2.333-2.193-2.578H.18v-.759h-4.551v.886l2.1 2.451-2.1 2.236V0z" style="fill:#000;fill-opacity:1;fill-rule:nonzero;stroke:none" transform="translate(96.203 472.883)"/><path d="M0 0v5.669h-2.118v.759h5.095v-.759H.851V0z" style="fill:#000;fill-opacity:1;fill-rule:nonzero;stroke:none" transform="translate(99.062 466.455)"/><path d="M0 0v6.428h4.648v-.759H.851V3.701h3.556v-.755H.851V.759h3.946V0z" style="fill:#000;fill-opacity:1;fill-rule:nonzero;stroke:none" transform="translate(102.929 466.455)"/><path d="M0 0h1.662c.549 0 .94.103 1.171.307.23.204.346.493.346.864 0 .269-.068.499-.204.69a.955.955 0 0 1-.537.38c-.143.037-.408.057-.794.057H0zm-.851-3.372v6.428h2.425c.427 0 .753-.02.978-.061a1.94 1.94 0 0 0 .794-.301 1.58 1.58 0 0 0 .515-.62c.13-.266.195-.559.195-.877 0-.546-.174-1.009-.522-1.388-.348-.378-.976-.568-1.885-.568H0v-2.613z" style="fill:#000;fill-opacity:1;fill-rule:nonzero;stroke:none" transform="translate(109.751 469.827)"/><path d="M0 0h2.179l-.671 1.78c-.204.541-.356.985-.456 1.333a8.252 8.252 0 0 0-.346-1.228zm-1.855-2.639L.614 3.788h.916l2.631-6.427h-.969l-.75 1.946H-.245l-.706-1.946z" style="fill:#000;fill-opacity:1;fill-rule:nonzero;stroke:none" transform="translate(115.372 469.094)"/><path d="M0 0h2.179l-.671 1.78c-.205.541-.356.985-.456 1.333a8.252 8.252 0 0 0-.346-1.228zm-1.855-2.64L.614 3.788h.916L4.161-2.64h-.969l-.75 1.947H-.246L-.952-2.64z" style="fill:#000;fill-opacity:1;fill-rule:nonzero;stroke:none" transform="translate(81.86 447.15)"/><path d="m0 0 .114-.697a2.91 2.91 0 0 0-.596-.07c-.287 0-.509.045-.667.136a.753.753 0 0 0-.333.357c-.064.147-.097.458-.097.932v2.679h-.578v.614h.578v1.153l.785.473V3.951H0v-.614h-.794V.614c0-.225.014-.37.042-.434A.332.332 0 0 1-.616.026a.527.527 0 0 1 .27-.057c.087 0 .203.011.346.031" style="fill:#000;fill-opacity:1;fill-rule:nonzero;stroke:none" transform="translate(88.324 445.217)"/><path d="m0 0 .114-.697a2.91 2.91 0 0 0-.596-.07c-.287 0-.509.045-.667.136a.753.753 0 0 0-.333.357c-.064.147-.096.458-.096.932v2.679h-.579v.614h.579v1.153l.784.473V3.951H0v-.614h-.794V.614c0-.225.014-.37.042-.434A.332.332 0 0 1-.616.026a.527.527 0 0 1 .27-.057c.087 0 .203.011.346.031" style="fill:#000;fill-opacity:1;fill-rule:nonzero;stroke:none" transform="translate(90.818 445.217)"/><path d="M0 0h2.6c-.035.392-.135.686-.298.881a1.207 1.207 0 0 1-.978.456c-.362 0-.667-.121-.914-.364C.163.731.026.406 0 0m2.591-1.276.816-.101c-.129-.476-.367-.846-.715-1.109s-.792-.395-1.333-.395c-.681 0-1.221.21-1.62.63-.399.419-.598 1.007-.598 1.764 0 .784.201 1.392.605 1.824.403.433.926.649 1.569.649.623 0 1.132-.212 1.526-.636.395-.423.592-1.019.592-1.788 0-.047-.001-.117-.004-.211H-.044c.029-.511.174-.903.434-1.175s.585-.408.974-.408c.289 0 .536.076.741.228.204.152.366.395.486.728" style="fill:#000;fill-opacity:1;fill-rule:nonzero;stroke:none" transform="translate(92.187 447.286)"/><path d="M0 0v4.656h.71v-.662c.342.512.836.768 1.482.768.281 0 .539-.051.774-.152.235-.1.411-.232.528-.396.117-.164.199-.358.246-.584.029-.146.044-.401.044-.767V0h-.789v2.832c0 .322-.031.562-.092.722a.764.764 0 0 1-.327.381c-.157.095-.34.143-.55.143a1.28 1.28 0 0 1-.871-.32C.911 3.544.789 3.139.789 2.543V0z" style="fill:#000;fill-opacity:1;fill-rule:nonzero;stroke:none" transform="translate(96.584 444.511)"/><path d="m0 0 .114-.697a2.91 2.91 0 0 0-.596-.07c-.287 0-.509.045-.667.136a.753.753 0 0 0-.333.357c-.064.147-.096.458-.096.932v2.679h-.579v.614h.579v1.153l.784.473V3.951H0v-.614h-.794V.614c0-.225.014-.37.042-.434A.332.332 0 0 1-.616.026a.527.527 0 0 1 .27-.057c.087 0 .203.011.346.031" style="fill:#000;fill-opacity:1;fill-rule:nonzero;stroke:none" transform="translate(103.302 445.217)"/><path d="M0 0h.789v-4.656H0zm0 1.772h.789V.864H0z" style="fill:#000;fill-opacity:1;fill-rule:nonzero;stroke:none" transform="translate(104.078 449.167)"/><path d="M0 0c0-.596.13-1.043.39-1.34.26-.296.588-.445.982-.445.392 0 .718.15.978.448.26.298.39.752.39 1.363 0 .576-.131 1.013-.392 1.309a1.248 1.248 0 0 1-.976.445c-.394 0-.722-.147-.982-.443C.13 1.042 0 .596 0 0m-.811 0c0 .862.24 1.501.719 1.916.4.345.888.517 1.464.517.641 0 1.164-.21 1.57-.629.406-.419.61-.999.61-1.738 0-.599-.09-1.071-.27-1.414a1.91 1.91 0 0 0-.785-.8 2.273 2.273 0 0 0-1.125-.286c-.652 0-1.178.209-1.58.628C-.61-1.388-.811-.787-.811 0" style="fill:#000;fill-opacity:1;fill-rule:nonzero;stroke:none" transform="translate(106.586 446.84)"/><path d="M0 0v4.656h.71v-.662c.342.512.836.768 1.482.768.281 0 .539-.051.774-.152.235-.1.412-.232.529-.396a1.54 1.54 0 0 0 .245-.584c.029-.146.044-.401.044-.767V0h-.789v2.832c0 .322-.031.562-.092.722a.764.764 0 0 1-.327.381c-.157.095-.34.143-.55.143a1.28 1.28 0 0 1-.871-.32C.911 3.544.789 3.139.789 2.543V0z" style="fill:#000;fill-opacity:1;fill-rule:nonzero;stroke:none" transform="translate(111.062 444.511)"/><path d="M0 0h.908v-.899H0zm.206.697-.241 3.407v1.425h.978V4.104L.715.697z" style="fill:#000;fill-opacity:1;fill-rule:nonzero;stroke:none" transform="translate(116.271 445.41)"/><path d="M0 0h1.372c.424 0 .757.04.998.118.241.079.433.191.576.334.202.201.359.473.472.813.112.34.169.754.169 1.239 0 .672-.111 1.188-.331 1.55-.221.361-.489.603-.805.725-.228.088-.595.132-1.1.132H0zm-.851-.758v6.427h2.215c.499 0 .881-.03 1.144-.092.368-.085.682-.238.943-.46a2.62 2.62 0 0 0 .76-1.098c.168-.446.253-.956.253-1.528a4.45 4.45 0 0 0-.172-1.298 3.132 3.132 0 0 0-.438-.936 2.313 2.313 0 0 0-.585-.584 2.38 2.38 0 0 0-.768-.322 4.375 4.375 0 0 0-1.032-.109z" style="fill:#000;fill-opacity:1;fill-rule:nonzero;stroke:none" transform="translate(76.325 434.494)"/><path d="M0 0v4.656h.71v-.705c.181.33.349.548.502.653a.882.882 0 0 0 .507.158c.266 0 .536-.085.811-.255l-.272-.732a1.13 1.13 0 0 1-.579.171.749.749 0 0 1-.464-.156.832.832 0 0 1-.294-.431 3.069 3.069 0 0 1-.132-.921V0z" style="fill:#000;fill-opacity:1;fill-rule:nonzero;stroke:none" transform="translate(81.85 433.735)"/><path d="M0 0h.789v-4.656H0zm0 1.771h.789V.863H0z" style="fill:#000;fill-opacity:1;fill-rule:nonzero;stroke:none" transform="translate(84.853 438.392)"/><path d="m0 0-1.771 4.656h.833l.999-2.788c.108-.301.208-.614.299-.939.07.246.167.541.293.886l1.035 2.841h.811L.737 0z" style="fill:#000;fill-opacity:1;fill-rule:nonzero;stroke:none" transform="translate(88.137 433.735)"/><path d="M0 0h2.6c-.035.392-.135.686-.298.881a1.209 1.209 0 0 1-.978.456c-.362 0-.667-.121-.914-.364C.163.731.026.406 0 0m2.591-1.276.816-.101c-.129-.476-.367-.846-.715-1.109s-.792-.395-1.333-.395c-.681 0-1.221.21-1.62.63-.399.419-.598 1.007-.598 1.764 0 .784.201 1.392.605 1.824.403.433.926.649 1.569.649.623 0 1.132-.212 1.526-.636.395-.423.592-1.019.592-1.788 0-.047-.001-.117-.004-.211H-.044c.029-.511.174-.903.434-1.175s.585-.408.974-.408c.289 0 .536.076.741.228.204.152.366.395.486.728" style="fill:#000;fill-opacity:1;fill-rule:nonzero;stroke:none" transform="translate(91.93 436.51)"/><path d="M0 0c0-.596.13-1.043.39-1.34.26-.296.588-.445.982-.445.392 0 .718.15.978.448.26.298.39.752.39 1.363 0 .576-.13 1.013-.392 1.309a1.248 1.248 0 0 1-.976.445c-.394 0-.722-.147-.982-.443C.13 1.042 0 .596 0 0m-.811 0c0 .862.24 1.501.719 1.916.4.345.889.518 1.464.518.641 0 1.164-.211 1.57-.63.406-.419.61-.999.61-1.738 0-.599-.09-1.071-.27-1.414a1.912 1.912 0 0 0-.785-.801 2.282 2.282 0 0 0-1.125-.284c-.651 0-1.178.208-1.58.626C-.61-1.388-.811-.786-.811 0" style="fill:#000;fill-opacity:1;fill-rule:nonzero;stroke:none" transform="translate(99.34 436.064)"/><path d="M0 0v4.656h.71v-.662c.342.512.836.768 1.482.768.281 0 .539-.051.774-.152s.411-.233.529-.396a1.54 1.54 0 0 0 .245-.584c.029-.146.044-.401.044-.767V0h-.789v2.832c0 .322-.031.562-.092.722a.764.764 0 0 1-.327.381c-.157.095-.34.143-.55.143a1.28 1.28 0 0 1-.871-.32C.911 3.544.789 3.139.789 2.543V0z" style="fill:#000;fill-opacity:1;fill-rule:nonzero;stroke:none" transform="translate(103.817 433.735)"/><path d="m0 0 .114-.697a2.91 2.91 0 0 0-.596-.07c-.287 0-.509.045-.667.136a.758.758 0 0 0-.333.357c-.064.147-.096.458-.096.932v2.679h-.579v.613h.579v1.154l.784.473V3.95H0v-.613h-.794V.614c0-.225.014-.37.042-.434A.332.332 0 0 1-.616.026a.527.527 0 0 1 .27-.057c.087 0 .203.011.346.031" style="fill:#000;fill-opacity:1;fill-rule:nonzero;stroke:none" transform="translate(113.029 434.441)"/><path d="M0 0v6.428h.789V4.121c.369.427.833.641 1.395.641.344 0 .644-.068.898-.204.255-.136.437-.324.546-.564.11-.239.165-.587.165-1.043V0h-.79v2.951c0 .394-.085.682-.256.861-.171.18-.413.27-.726.27-.233 0-.453-.061-.66-.182a1.024 1.024 0 0 1-.44-.493c-.088-.208-.132-.494-.132-.86V0z" style="fill:#000;fill-opacity:1;fill-rule:nonzero;stroke:none" transform="translate(113.8 433.735)"/><path d="M0 0h2.6c-.035.392-.135.686-.298.881a1.206 1.206 0 0 1-.978.456c-.362 0-.667-.121-.914-.364C.163.731.026.406 0 0m2.591-1.276.816-.101c-.129-.476-.367-.846-.715-1.109s-.792-.395-1.333-.395c-.681 0-1.221.21-1.62.63-.399.419-.598 1.007-.598 1.764 0 .784.201 1.392.605 1.824.403.433.926.649 1.569.649.623 0 1.132-.212 1.526-.636.395-.423.592-1.019.592-1.788 0-.047-.001-.117-.004-.211H-.044c.029-.511.174-.903.434-1.175s.585-.408.974-.408c.289 0 .536.076.741.228.204.152.366.395.486.728" style="fill:#000;fill-opacity:1;fill-rule:nonzero;stroke:none" transform="translate(119.39 436.51)"/><path d="M0 0v6.428h.851V.759h3.165V0z" style="fill:#000;fill-opacity:1;fill-rule:nonzero;stroke:none" transform="translate(92.158 422.96)"/><path d="M0 0h2.6c-.035.392-.135.686-.298.881a1.207 1.207 0 0 1-.978.456c-.362 0-.667-.121-.914-.364C.163.731.026.406 0 0m2.591-1.276.816-.101c-.129-.476-.367-.846-.715-1.109s-.792-.395-1.333-.395c-.681 0-1.221.21-1.62.63-.399.419-.598 1.007-.598 1.764 0 .784.201 1.392.605 1.824.403.433.926.649 1.569.649.623 0 1.132-.212 1.526-.635.395-.424.592-1.02.592-1.789 0-.047-.001-.117-.004-.211H-.044c.029-.511.174-.903.434-1.175s.585-.408.974-.408c.289 0 .536.076.741.228.204.152.366.395.486.728" style="fill:#000;fill-opacity:1;fill-rule:nonzero;stroke:none" transform="translate(97.683 425.735)"/><path d="M0 0v4.043h-.697v.613H0v.496c0 .313.028.545.083.697.076.204.21.371.402.498.191.127.459.19.804.19.222 0 .468-.026.737-.078l-.119-.689a2.658 2.658 0 0 1-.464.044c-.24 0-.41-.051-.509-.154-.1-.102-.149-.293-.149-.574v-.43h.907v-.613H.785V0z" style="fill:#000;fill-opacity:1;fill-rule:nonzero;stroke:none" transform="translate(102.269 422.96)"/><path d="m0 0 .114-.697a2.91 2.91 0 0 0-.596-.07c-.287 0-.509.045-.667.136a.758.758 0 0 0-.333.357c-.064.147-.097.458-.097.932v2.679h-.578v.614h.578v1.153l.785.473V3.951H0v-.614h-.794V.614c0-.225.014-.37.042-.434A.332.332 0 0 1-.616.026a.527.527 0 0 1 .27-.057c.087 0 .203.011.346.031" style="fill:#000;fill-opacity:1;fill-rule:nonzero;stroke:none" transform="translate(106.298 423.666)"/></g><circle style="opacity:1;fill:#000;fill-opacity:1;fill-rule:nonzero;stroke:none;stroke-width:33.88699341;stroke-linecap:square;stroke-linejoin:round;stroke-miterlimit:5.5;stroke-dasharray:none;stroke-opacity:1" cx="-265.725" cy="213.536" r="30"/><circle r="29" cy="213.536" cx="-265.725" style="opacity:1;fill:#fff;fill-opacity:1;fill-rule:nonzero;stroke:none;stroke-width:32.75742722;stroke-linecap:square;stroke-linejoin:round;stroke-miterlimit:5.5;stroke-dasharray:none;stroke-opacity:1"/><path style="fill:url(#c);stroke:none;stroke-width:.3185564" d="M-271.725 213.536a6 6 0 0 1 6-6 6 6 0 0 1 0 12 6 6 0 0 1-6-6"/><path d="M-271.725 231.136a6 6 0 0 1 6-6 6 6 0 0 1 0 12 6 6 0 0 1-6-6" style="fill:url(#d);stroke:none;stroke-width:.3185564"/><path style="fill:url(#e);stroke:none;stroke-width:.3185564" d="M-271.725 195.936a6 6 0 0 1 6-6 6 6 0 0 1 0 12 6 6 0 0 1-6-6"/><path d="M-286.968 204.737a6 6 0 0 1 6-6 6 6 0 0 1 0 12 6 6 0 0 1-6-6" style="fill:url(#f);stroke:none;stroke-width:.3185564"/><path style="fill:url(#g);stroke:none;stroke-width:.3185564" d="M-286.968 222.337a6 6 0 0 1 6-6 6 6 0 0 1 0 12 6 6 0 0 1-6-6"/><path style="fill:url(#h);stroke:none;stroke-width:.3185564" d="M-256.484 204.737a6 6 0 0 1 6-6 6 6 0 0 1 0 12 6 6 0 0 1-6-6"/><path d="M-256.484 222.337a6 6 0 0 1 6-6 6 6 0 0 1 0 12 6 6 0 0 1-6-6" style="fill:url(#i);stroke:none;stroke-width:.3185564"/><circle r="30" cy="213.536" cx="-33.725" style="opacity:1;fill:#000;fill-opacity:1;fill-rule:nonzero;stroke:none;stroke-width:33.88699341;stroke-linecap:square;stroke-linejoin:round;stroke-miterlimit:5.5;stroke-dasharray:none;stroke-opacity:1"/><circle style="opacity:1;fill:#fff;fill-opacity:1;fill-rule:nonzero;stroke:none;stroke-width:32.75742722;stroke-linecap:square;stroke-linejoin:round;stroke-miterlimit:5.5;stroke-dasharray:none;stroke-opacity:1" cx="-33.725" cy="213.536" r="29"/><path d="M-39.725 213.536a6 6 0 0 1 6-6 6 6 0 0 1 0 12 6 6 0 0 1-6-6" style="fill:url(#j);stroke:none;stroke-width:.3185564"/><path style="fill:url(#k);stroke:none;stroke-width:.3185564" d="M-39.725 231.136a6 6 0 0 1 6-6 6 6 0 0 1 0 12 6 6 0 0 1-6-6"/><path d="M-39.725 195.936a6 6 0 0 1 6-6 6 6 0 0 1 0 12 6 6 0 0 1-6-6" style="fill:url(#l);stroke:none;stroke-width:.3185564"/><path style="fill:url(#m);stroke:none;stroke-width:.3185564" d="M-54.968 204.737a6 6 0 0 1 6-6 6 6 0 0 1 0 12 6 6 0 0 1-6-6"/><path d="M-54.968 222.337a6 6 0 0 1 6-6 6 6 0 0 1 0 12 6 6 0 0 1-6-6" style="fill:url(#n);stroke:none;stroke-width:.3185564"/><path d="M-24.484 204.737a6 6 0 0 1 6-6 6 6 0 0 1 0 12 6 6 0 0 1-6-6" style="fill:url(#o);stroke:none;stroke-width:.3185564"/><path style="fill:url(#p);stroke:none;stroke-width:.3185564" d="M-24.484 222.337a6 6 0 0 1 6-6 6 6 0 0 1 0 12 6 6 0 0 1-6-6"/></g></svg>