<svg xmlns="http://www.w3.org/2000/svg" width="212.022" height="209.304"><defs><clipPath clipPathUnits="userSpaceOnUse" id="a"><path d="M32.598 382.691h55.276v55.248H32.598v-55.248z"/></clipPath><clipPath clipPathUnits="userSpaceOnUse" id="b"><path d="M32.598 381.26h55.276v58.11H32.598v-58.11z"/></clipPath></defs><g clip-path="url(#a)" style="fill:#007ac2;fill-opacity:1" transform="matrix(4.01474 0 0 -4.01474 -135.823 1751.958)"><path style="fill:#007ac2;fill-opacity:1;stroke:#000;stroke-width:.09994431;stroke-linecap:butt;stroke-linejoin:miter;stroke-miterlimit:10;stroke-opacity:1;stroke-dasharray:none" d="M33.881 384.298h52.711v52.034H33.881v-52.034z"/></g><g clip-path="url(#b)" transform="matrix(4.01474 0 0 -4.01474 -135.823 1751.958)"><path d="M0 0v-10.463h4.074c2.934 0 4.896.193 5.886.579.989.385 1.764.989 2.326 1.811.561.821.842 1.777.842 2.867 0 1.341-.394 2.447-1.182 3.32-.788.871-1.785 1.416-2.993 1.634C8.065-.084 6.279 0 3.596 0H0zm-7.444-30.633v36.87H4.502c4.527 0 7.478-.184 8.853-.553 2.112-.553 3.881-1.757 5.306-3.609 1.425-1.853 2.138-4.247 2.138-7.181 0-2.263-.411-4.166-1.232-5.709-.822-1.543-1.866-2.754-3.131-3.634-1.266-.88-2.553-1.463-3.861-1.748-1.777-.352-4.351-.528-7.721-.528H0v-13.908h-7.444z" style="fill:#fff;fill-opacity:1;fill-rule:nonzero;stroke:none" transform="translate(54.717 423.238)"/></g></svg>