<?xml version="1.0" encoding="UTF-8" standalone="no"?>
<!-- Created with Inkscape (http://www.inkscape.org/) -->

<svg
   xmlns:dc="http://purl.org/dc/elements/1.1/"
   xmlns:cc="http://creativecommons.org/ns#"
   xmlns:rdf="http://www.w3.org/1999/02/22-rdf-syntax-ns#"
   xmlns:svg="http://www.w3.org/2000/svg"
   xmlns="http://www.w3.org/2000/svg"
   xmlns:sodipodi="http://sodipodi.sourceforge.net/DTD/sodipodi-0.dtd"
   xmlns:inkscape="http://www.inkscape.org/namespaces/inkscape"
   width="213.79784"
   height="213.65952"
   id="svg4205"
   version="1.1"
   inkscape:version="0.47 r22583"
   sodipodi:docname="Cyprus road sign no motorcycles.svg">
  <defs
     id="defs4207">
    <inkscape:perspective
       sodipodi:type="inkscape:persp3d"
       inkscape:vp_x="0 : 526.18109 : 1"
       inkscape:vp_y="0 : 1000 : 0"
       inkscape:vp_z="744.09448 : 526.18109 : 1"
       inkscape:persp3d-origin="372.04724 : 350.78739 : 1"
       id="perspective4213" />
    <inkscape:perspective
       id="perspective4228"
       inkscape:persp3d-origin="106.21 : 70.796666 : 1"
       inkscape:vp_z="212.42 : 106.195 : 1"
       inkscape:vp_y="0 : 1000 : 0"
       inkscape:vp_x="0 : 106.195 : 1"
       sodipodi:type="inkscape:persp3d" />
    <clipPath
       id="clipPath16">
      <path
         inkscape:connector-curvature="0"
         d="M 0.059998,169.98 H 170 V 0.06 H 0.059998 v 169.92 z"
         id="path18" />
    </clipPath>
    <inkscape:perspective
       id="perspective4247"
       inkscape:persp3d-origin="0.5 : 0.33333333 : 1"
       inkscape:vp_z="1 : 0.5 : 1"
       inkscape:vp_y="0 : 1000 : 0"
       inkscape:vp_x="0 : 0.5 : 1"
       sodipodi:type="inkscape:persp3d" />
    <clipPath
       clipPathUnits="userSpaceOnUse"
       id="clipPath3426">
      <path
         d="m 43.076,488.976 34.845,0 0,34.015 -34.845,0 0,-34.015 z"
         id="path3428" />
    </clipPath>
    <inkscape:perspective
       id="perspective4323"
       inkscape:persp3d-origin="0.5 : 0.33333333 : 1"
       inkscape:vp_z="1 : 0.5 : 1"
       inkscape:vp_y="0 : 1000 : 0"
       inkscape:vp_x="0 : 0.5 : 1"
       sodipodi:type="inkscape:persp3d" />
    <clipPath
       clipPathUnits="userSpaceOnUse"
       id="clipPath2896">
      <path
         d="m 102.752,490.181 34.845,0 0,34.016 -34.845,0 0,-34.016 z"
         id="path2898" />
    </clipPath>
    <inkscape:perspective
       id="perspective5249"
       inkscape:persp3d-origin="0.5 : 0.33333333 : 1"
       inkscape:vp_z="1 : 0.5 : 1"
       inkscape:vp_y="0 : 1000 : 0"
       inkscape:vp_x="0 : 0.5 : 1"
       sodipodi:type="inkscape:persp3d" />
    <inkscape:perspective
       id="perspective5326"
       inkscape:persp3d-origin="0.5 : 0.33333333 : 1"
       inkscape:vp_z="1 : 0.5 : 1"
       inkscape:vp_y="0 : 1000 : 0"
       inkscape:vp_x="0 : 0.5 : 1"
       sodipodi:type="inkscape:persp3d" />
    <clipPath
       clipPathUnits="userSpaceOnUse"
       id="clipPath3128">
      <path
         d="m 164.704,490.181 34.845,0 0,34.016 -34.845,0 0,-34.016 z"
         id="path3130" />
    </clipPath>
  </defs>
  <sodipodi:namedview
     id="base"
     pagecolor="#ffffff"
     bordercolor="#666666"
     borderopacity="1.0"
     inkscape:pageopacity="0.0"
     inkscape:pageshadow="2"
     inkscape:zoom="2.362731"
     inkscape:cx="-45.575554"
     inkscape:cy="122.29469"
     inkscape:document-units="px"
     inkscape:current-layer="layer1"
     showgrid="false"
     inkscape:window-width="1600"
     inkscape:window-height="838"
     inkscape:window-x="-8"
     inkscape:window-y="-8"
     inkscape:window-maximized="1" />
  <metadata
     id="metadata4210">
    <rdf:RDF>
      <cc:Work
         rdf:about="">
        <dc:format>image/svg+xml</dc:format>
        <dc:type
           rdf:resource="http://purl.org/dc/dcmitype/StillImage" />
        <dc:title></dc:title>
      </cc:Work>
    </rdf:RDF>
  </metadata>
  <g
     inkscape:label="Livello 1"
     inkscape:groupmode="layer"
     id="layer1"
     transform="translate(-196.61923,-425.39439)">
    <path
       sodipodi:type="arc"
       style="fill:#ffffff;fill-opacity:1;fill-rule:evenodd;stroke:none"
       id="path5239"
       sodipodi:cx="98.614693"
       sodipodi:cy="117.79588"
       sodipodi:rx="91.419632"
       sodipodi:ry="86.552383"
       d="m 190.03432,117.79588 a 91.419632,86.552383 0 1 1 -182.8392593,0 91.419632,86.552383 0 1 1 182.8392593,0 z"
       transform="translate(204.66077,413.5437)" />
    <path
       id="path3432"
       style="fill:#ed1d24;fill-opacity:1;fill-rule:evenodd;stroke:none"
       d="m 303.50871,617.71498 c 46.94687,0 85.55686,-38.47166 85.55686,-85.40596 0,-47.09777 -38.60999,-85.55686 -85.55686,-85.55686 -47.09777,0 -85.55686,38.45909 -85.55686,85.55686 0,46.9343 38.45909,85.40596 85.55686,85.40596 m 0,21.33892 c 58.82348,0 106.90835,-48.08487 106.90835,-106.74488 0,-58.84235 -48.08487,-106.91464 -106.90835,-106.91464 -58.81091,0 -106.88949,48.07229 -106.88949,106.91464 0,58.66001 48.07858,106.74488 106.88949,106.74488" />
    <g
       id="g5431"
       transform="translate(261.02229,27.087298)">
      <path
         id="path3144"
         style="fill:#000000;fill-opacity:1;fill-rule:evenodd;stroke:none"
         d="m -2.2875936,520.35159 48.8139246,0 0,-5.92718 -48.8139246,0 0,5.92718 z" />
      <g
         transform="matrix(6.3189547,0,0,-6.3189547,52.921745,468.45901)"
         id="g3146">
        <path
           id="path3148"
           style="fill:#000000;fill-opacity:1;fill-rule:evenodd;stroke:none"
           d="m 0,0 0,-1.075 c 0,0 1.95,0.201 2.138,0 0.187,-0.2 2.925,-7.137 3.112,-7.137 0.188,0 0.375,0.048 0.413,0.249 C 5.7,-7.763 3,-0.788 3,-0.788 c 0,0 -0.037,0.45 -0.45,0.6 C 2.138,-0.037 0,0 0,0" />
      </g>
      <g
         transform="matrix(6.3189547,0,0,-6.3189547,46.524499,520.35349)"
         id="g3150">
        <path
           id="path3152"
           style="fill:#000000;fill-opacity:1;fill-rule:evenodd;stroke:none"
           d="m 0,0 4.387,5.063 c 0,0 -1.95,0.525 -2.137,0.412 C 2.062,5.363 -0.075,2.9 0,2.744 0.075,2.588 0.3,1.838 0.3,1.725 0.3,1.613 0,0.938 0,0.938 L 0,0 z" />
      </g>
      <g
         transform="matrix(6.3189547,0,0,-6.3189547,-12.715133,490.1413)"
         id="g3154">
        <path
           id="path3156"
           style="fill:#000000;fill-opacity:1;fill-rule:evenodd;stroke:none"
           d="m 0,0 0,-1.237 4.65,0 -0.188,-0.525 c 0,0 2.1,0.862 2.1,1.2 C 6.562,-0.225 6.637,0 6.412,0 L 0,0 z" />
      </g>
      <path
         id="path5427"
         style="fill:none;stroke:#000000;stroke-width:4;stroke-linecap:butt;stroke-linejoin:miter;stroke-miterlimit:10;stroke-opacity:1;stroke-dasharray:none"
         d="m 21.99047,518.62479 c 0,9.81901 -7.960169,17.77918 -17.779177,17.77918 -9.82534,0 -17.7855,-7.96017 -17.7855,-17.77918 0,-9.81901 7.96016,-17.7855 17.7855,-17.7855 9.819008,0 17.779177,7.96649 17.779177,17.7855 z" />
      <path
         d="m 103.99047,518.62479 c 0,9.81901 -7.960169,17.77918 -17.779177,17.77918 -9.82534,0 -17.7855,-7.96017 -17.7855,-17.77918 0,-9.81901 7.96016,-17.7855 17.7855,-17.7855 9.819008,0 17.779177,7.96649 17.779177,17.7855 z"
         style="fill:none;stroke:#000000;stroke-width:4;stroke-linecap:butt;stroke-linejoin:miter;stroke-miterlimit:10;stroke-opacity:1;stroke-dasharray:none"
         id="path5429" />
    </g>
  </g>
</svg>
