<svg xmlns="http://www.w3.org/2000/svg" width="76.17" height="146.961"><defs><clipPath clipPathUnits="userSpaceOnUse" id="a"><path d="M32.598 401.177h76.28v121.107h-76.28V401.177z"/></clipPath></defs><path d="m0 0-6.052.065v17.359L0 17.387V0z" style="fill:#fff;fill-opacity:1;fill-rule:nonzero;stroke:none" transform="matrix(1.25 0 0 -1.25 42.356 119.543)"/><path d="m0 0-6.052.065v17.359L0 17.387V0z" style="fill:none;stroke:#000;stroke-width:1.09800005;stroke-linecap:butt;stroke-linejoin:miter;stroke-miterlimit:4;stroke-opacity:1;stroke-dasharray:none" transform="matrix(1.25 0 0 -1.25 42.356 119.543)"/><path d="m0 0-59.838.405V80.92L0 80.932V0z" style="fill:#ffdb00;fill-opacity:1;fill-rule:nonzero;stroke:none" transform="matrix(1.25 0 0 -1.25 75.484 101.851)"/><path d="m0 0-59.838.405V80.92L0 80.932V0z" style="fill:none;stroke:#ed1d24;stroke-width:1.09800005;stroke-linecap:butt;stroke-linejoin:miter;stroke-miterlimit:4;stroke-opacity:1;stroke-dasharray:none" transform="matrix(1.25 0 0 -1.25 75.484 101.851)"/><path d="M0 0h-8.394L7.135 27.184 22.918 0H0z" style="fill:#fff;fill-opacity:1;fill-rule:evenodd;stroke:none" transform="matrix(1.25 0 0 -1.25 29.583 45.996)"/><g clip-path="url(#a)" transform="matrix(1.25 0 0 -1.25 -50.245 649.996)"><path d="M0 0h27.774L13.892 24.031 0 0zm29.136-3.104c.826 0 1.586.444 2 1.163a2.289 2.289 0 0 1 0 2.325l-15.232 26.37a2.325 2.325 0 0 1-4.027-.007L-3.359.384a2.331 2.331 0 0 1 0-2.325A2.337 2.337 0 0 1-1.34-3.104h30.476z" style="fill:#ed1d24;fill-opacity:1;fill-rule:evenodd;stroke:none" transform="translate(57.163 484.344)"/><path d="M0 0v-1.556h-20.7V0h2.982c.529 0 1.034.201 1.417.559l.013-.014a8.803 8.803 0 0 0 5.934 2.304A8.805 8.805 0 0 0-4.477.596l.002.005A2.06 2.06 0 0 1-3.045 0H0z" style="fill:#000;fill-opacity:1;fill-rule:evenodd;stroke:none" transform="translate(81.35 487.17)"/><path d="m0 0-47.899.282v29.082L0 29.459V0z" style="fill:#ed1d24;fill-opacity:1;fill-rule:nonzero;stroke:none" transform="translate(95.003 442.61)"/><path d="m0 0-47.899.282v29.082L0 29.459V0z" style="fill:none;stroke:#bcbec0;stroke-width:1.64600003;stroke-linecap:butt;stroke-linejoin:miter;stroke-miterlimit:4;stroke-opacity:1;stroke-dasharray:none" transform="translate(95.003 442.61)"/><path d="M0 0v3.772h.762V2.097L2.3 3.772h1.024l-1.42-1.469L3.401 0h-.985L1.38 1.77l-.618-.631V0H0z" style="fill:#dadbdc;fill-opacity:1;fill-rule:nonzero;stroke:none" transform="translate(55.162 464.505)"/><path d="M0 0v1.588l-1.382 2.184h.893l.888-1.493.869 1.493h.877L.759 1.582V0H0z" style="fill:#dadbdc;fill-opacity:1;fill-rule:nonzero;stroke:none" transform="translate(59.948 464.505)"/><path d="M0 0v-1.07h.417c.3 0 .5.02.601.059a.494.494 0 0 1 .325.479c0 .137-.041.25-.121.339a.516.516 0 0 1-.307.167C.825-.009.642 0 .368 0H0zm-.761-3.133V.638H.461c.463 0 .764-.018.905-.056a.991.991 0 0 0 .543-.37c.146-.189.219-.434.219-.734 0-.231-.042-.426-.127-.584a1.027 1.027 0 0 0-.32-.372 1.115 1.115 0 0 0-.395-.179 4.35 4.35 0 0 0-.79-.054H0v-1.422h-.761z" style="fill:#dadbdc;fill-opacity:1;fill-rule:nonzero;stroke:none" transform="translate(63.233 467.638)"/><path d="M0 0v3.133h-1.119v.639h2.997v-.639H.761V0H0z" style="fill:#dadbdc;fill-opacity:1;fill-rule:nonzero;stroke:none" transform="translate(66.834 464.505)"/><path d="M0 0v.636h.731c-.448.469-.672.975-.672 1.517 0 .474.161.873.481 1.197.321.323.761.486 1.32.486.554 0 .992-.161 1.315-.484.323-.322.483-.722.483-1.199 0-.542-.224-1.048-.671-1.517h.734V0H1.994v.607c.29.108.509.283.657.525.149.242.223.52.223.836 0 .324-.086.608-.256.852-.171.243-.424.365-.758.365-.333 0-.584-.121-.756-.363a1.443 1.443 0 0 1-.257-.854c0-.317.074-.597.222-.837a1.26 1.26 0 0 1 .658-.524V0H0z" style="fill:#dadbdc;fill-opacity:1;fill-rule:nonzero;stroke:none" transform="translate(68.976 464.505)"/><path d="M0 0v3.772h1.139l.685-2.573.677 2.573h1.141V0h-.707v2.969L2.187 0h-.733L.707 2.969V0H0z" style="fill:#dadbdc;fill-opacity:1;fill-rule:nonzero;stroke:none" transform="translate(73.322 464.505)"/><path d="m0 0-.519 1.399L-1.029 0H0zm1.402-1.492H.575l-.331.856h-1.507l-.311-.856h-.808l1.469 3.771h.806l1.509-3.771z" style="fill:#dadbdc;fill-opacity:1;fill-rule:nonzero;stroke:none" transform="translate(79.719 465.997)"/><path d="M0 0v3.133h-1.119v.639h2.997v-.639H.761V0H0z" style="fill:#dadbdc;fill-opacity:1;fill-rule:nonzero;stroke:none" transform="translate(81.938 464.505)"/><path d="m0 0-.519 1.399L-1.029 0H0zm1.402-1.492H.574l-.33.856h-1.507l-.311-.856h-.808l1.469 3.771h.806l1.509-3.771z" style="fill:#dadbdc;fill-opacity:1;fill-rule:nonzero;stroke:none" transform="translate(85.914 465.997)"/><path d="M0 0c0-.428.099-.751.296-.971a.96.96 0 0 1 .75-.331c.305 0 .553.109.748.328.194.218.292.546.292.984 0 .432-.094.754-.284.968-.19.212-.442.318-.756.318A.969.969 0 0 1 .287.973C.095.758 0 .433 0 0m-.785-.026c0 .384.057.707.172.967.086.192.203.365.351.517.148.153.311.266.488.34.235.099.506.149.813.149.556 0 1-.172 1.334-.517.334-.345.5-.824.5-1.439 0-.608-.165-1.084-.497-1.429-.331-.344-.772-.515-1.327-.515-.56 0-1.006.171-1.337.513-.332.342-.497.814-.497 1.414" style="fill:#dadbdc;fill-opacity:1;fill-rule:nonzero;stroke:none" transform="translate(50.089 460.071)"/><path d="m0 0-.849 2.256L-1.672 0H0zm1.072-.636h-3.784l1.468 3.771h.807L1.072-.636z" style="fill:#dadbdc;fill-opacity:1;fill-rule:nonzero;stroke:none" transform="translate(55.743 458.818)"/><path d="M0 0c0-.428.099-.751.296-.971a.96.96 0 0 1 .75-.331c.305 0 .553.109.748.328.194.218.292.546.292.984 0 .432-.094.754-.284.968-.19.212-.442.318-.756.318A.969.969 0 0 1 .287.973C.095.758 0 .433 0 0m-.785-.026c0 .384.057.707.172.967.086.192.203.365.351.517.148.153.311.266.488.34.235.099.506.149.813.149.556 0 1-.172 1.334-.517.334-.345.5-.824.5-1.439 0-.608-.165-1.084-.497-1.429-.331-.344-.772-.515-1.327-.515-.56 0-1.006.171-1.337.513-.332.342-.497.814-.497 1.414" style="fill:#dadbdc;fill-opacity:1;fill-rule:nonzero;stroke:none" transform="translate(57.691 460.071)"/><path d="M0 0h2.611v-.638H.939l.974-1.163L.838-3.135h1.853v-.636h-2.74v.705L.962-1.801 0-.679V0z" style="fill:#dadbdc;fill-opacity:1;fill-rule:nonzero;stroke:none" transform="translate(61.056 461.954)"/><path d="M0 0v3.133h-1.119v.638h2.997v-.638H.761V0H0z" style="fill:#dadbdc;fill-opacity:1;fill-rule:nonzero;stroke:none" transform="translate(65.17 458.183)"/><path d="M0 0v-1.07h.417c.3 0 .501.019.601.059a.498.498 0 0 1 .325.478.491.491 0 0 1-.121.34.522.522 0 0 1-.307.167C.825-.009.642 0 .368 0H0zm-.761-3.133V.638H.461c.463 0 .764-.018.905-.056a.991.991 0 0 0 .543-.37c.146-.19.219-.434.219-.734 0-.232-.042-.427-.127-.584a1.027 1.027 0 0 0-.32-.372 1.094 1.094 0 0 0-.395-.178 4.244 4.244 0 0 0-.79-.055H0v-1.422h-.761z" style="fill:#dadbdc;fill-opacity:1;fill-rule:nonzero;stroke:none" transform="translate(68.3 461.316)"/><path d="M0 0v.636h.731c-.448.469-.672.975-.672 1.517 0 .473.161.872.481 1.197.321.323.761.485 1.32.485.554 0 .992-.161 1.315-.483.323-.323.483-.722.483-1.199 0-.542-.224-1.048-.671-1.517h.734V0H1.994v.607c.29.108.509.283.657.525.149.242.223.521.223.836 0 .324-.086.608-.256.851-.171.245-.424.366-.758.366-.333 0-.584-.121-.756-.363a1.44 1.44 0 0 1-.257-.854c0-.317.074-.596.222-.837a1.26 1.26 0 0 1 .658-.524V0H0z" style="fill:#dadbdc;fill-opacity:1;fill-rule:nonzero;stroke:none" transform="translate(70.92 458.183)"/><path d="M0 0v3.771h1.139l.685-2.573.677 2.573h1.141V0h-.707v2.969L2.187 0h-.733L.707 2.969V0H0z" style="fill:#dadbdc;fill-opacity:1;fill-rule:nonzero;stroke:none" transform="translate(75.266 458.183)"/><path d="m0 0-.519 1.4-.51-1.4H0zm1.402-1.492H.575l-.331.856h-1.507l-.311-.856h-.808l1.469 3.771h.806l1.509-3.771z" style="fill:#dadbdc;fill-opacity:1;fill-rule:nonzero;stroke:none" transform="translate(81.663 459.675)"/><path d="M0 0v3.133h-1.119v.638h2.997v-.638H.761V0H0z" style="fill:#dadbdc;fill-opacity:1;fill-rule:nonzero;stroke:none" transform="translate(83.882 458.183)"/><path d="M0 0c0-.428.099-.751.296-.971a.96.96 0 0 1 .75-.331c.305 0 .553.109.748.328.194.218.292.546.292.984 0 .432-.094.754-.284.968-.19.212-.442.318-.756.318A.969.969 0 0 1 .287.973C.095.758 0 .433 0 0m-.785-.026c0 .384.057.707.172.967.086.192.204.365.351.517.148.153.311.266.488.34.235.099.506.149.813.149.556 0 1-.172 1.334-.517.334-.345.5-.824.5-1.439 0-.608-.165-1.084-.497-1.429-.331-.344-.772-.515-1.327-.515-.56 0-1.006.171-1.337.513-.332.342-.497.814-.497 1.414" style="fill:#dadbdc;fill-opacity:1;fill-rule:nonzero;stroke:none" transform="translate(86.786 460.071)"/><path d="M0 0h2.611v-.638H.939l.974-1.163L.838-3.135h1.853v-.636h-2.74v.705L.962-1.801 0-.679V0z" style="fill:#dadbdc;fill-opacity:1;fill-rule:nonzero;stroke:none" transform="translate(90.15 461.954)"/><path d="M0 0h.564c.365 0 .594.016.684.047l.214.159c.052.076.077.17.077.283a.45.45 0 0 1-.102.307.458.458 0 0 1-.287.148 6.165 6.165 0 0 1-.555.013H0V0zm-.761-2.176v3.771H.841c.404 0 .696-.033.879-.101a.862.862 0 0 0 .439-.362c.109-.173.165-.371.165-.594 0-.283-.084-.517-.25-.701-.166-.184-.415-.3-.746-.348.164-.097.3-.202.407-.317.108-.115.252-.319.435-.613l.459-.735h-.91l-.551.821a5.443 5.443 0 0 1-.4.554l-.23.157c-.08.029-.208.043-.384.043H0v-1.575h-.761z" style="fill:#dadbdc;fill-opacity:1;fill-rule:nonzero;stroke:none" transform="translate(55.954 454.036)"/><path d="M0 0c0-.27.064-.478.193-.622a.613.613 0 0 1 .476-.216c.188 0 .347.072.475.216.127.144.192.353.192.627 0 .268-.065.474-.192.618a.608.608 0 0 1-.475.216.61.61 0 0 1-.476-.216C.064.479 0 .271 0 0m-.741.039c0 .24.059.472.177.697.119.224.286.396.504.515.217.118.459.177.727.177.412 0 .751-.134 1.016-.402.264-.269.396-.608.396-1.017 0-.414-.133-.757-.4-1.028a1.35 1.35 0 0 0-1.008-.409c-.25 0-.489.057-.716.171-.227.112-.4.278-.519.497a1.667 1.667 0 0 0-.177.799" style="fill:#dadbdc;fill-opacity:1;fill-rule:nonzero;stroke:none" transform="translate(59.565 453.226)"/><path d="M0 0a4.246 4.246 0 0 0-.439-.11C-.64-.153-.772-.195-.833-.237a.3.3 0 0 1-.141-.254c0-.102.037-.189.112-.263a.396.396 0 0 1 .289-.11c.13 0 .255.043.373.129l.172.239C-.01-.435 0-.317 0-.144V0zm-.967.586-.656.119c.074.264.201.459.381.587.18.126.448.189.803.189.322 0 .562-.037.72-.113a.723.723 0 0 0 .333-.292C.679.959.711.744.711.43L.702-.414c0-.24.012-.418.036-.531.022-.114.066-.236.129-.367H.152l-.069.213-.026.085a1.285 1.285 0 0 0-.397-.27 1.13 1.13 0 0 0-.45-.09c-.281 0-.503.077-.665.229a.763.763 0 0 0-.243.579c0 .154.038.292.11.413a.722.722 0 0 0 .311.277c.133.065.324.121.575.17.338.063.572.122.702.177v.071C0 .682-.034.78-.103.84c-.068.059-.198.088-.388.088A.516.516 0 0 1-.792.853.523.523 0 0 1-.967.586" style="fill:#dadbdc;fill-opacity:1;fill-rule:nonzero;stroke:none" transform="translate(63.716 453.173)"/><path d="M0 0c0-.292.041-.503.121-.633A.547.547 0 0 1 .61-.916a.53.53 0 0 1 .424.212c.117.141.175.352.175.634 0 .314-.056.54-.169.678a.54.54 0 0 1-.435.207.542.542 0 0 1-.431-.204C.058.474 0 .27 0 0m1.929-1.426h-.671v.401a1.09 1.09 0 0 0-.394-.348 1.023 1.023 0 0 0-.46-.115c-.314 0-.582.127-.806.38-.224.253-.336.606-.336 1.059 0 .463.109.814.326 1.056.219.241.493.361.827.361.305 0 .569-.127.792-.381v1.358h.722v-3.771z" style="fill:#dadbdc;fill-opacity:1;fill-rule:nonzero;stroke:none" transform="translate(65.715 453.286)"/><path d="M0 0v3.771h.761V2.287h1.492v1.484h.762V0h-.762v1.649H.761V0H0z" style="fill:#dadbdc;fill-opacity:1;fill-rule:nonzero;stroke:none" transform="translate(69.83 451.86)"/><path d="M0 0v.409a1.112 1.112 0 0 0-.905-.471 1.01 1.01 0 0 0-.494.121.704.704 0 0 0-.316.34c-.065.145-.099.347-.099.604v1.729h.724V1.477c0-.385.013-.62.04-.706l.145-.206A.442.442 0 0 1-.638.489a.57.57 0 0 1 .533.354c.036.1.054.346.054.737v1.152h.723V0H0z" style="fill:#dadbdc;fill-opacity:1;fill-rule:nonzero;stroke:none" transform="translate(75.425 451.86)"/><path d="M0 0h.667v-.373c.238.289.522.434.851.434a.911.911 0 0 0 .455-.107.833.833 0 0 0 .317-.327c.12.146.249.254.389.327a.949.949 0 0 0 .445.107c.2 0 .37-.041.509-.122a.756.756 0 0 0 .312-.358c.049-.117.074-.306.074-.566v-1.747h-.723v1.561c0 .272-.025.446-.075.525-.066.102-.169.154-.309.154a.49.49 0 0 1-.285-.092.518.518 0 0 1-.193-.271c-.039-.119-.059-.308-.059-.565v-1.312h-.723v1.497c0 .266-.013.437-.039.515l-.119.172-.221.056a.525.525 0 0 1-.3-.09.49.49 0 0 1-.192-.259C.743-.955.723-1.143.723-1.405v-1.327H0V0z" style="fill:#dadbdc;fill-opacity:1;fill-rule:nonzero;stroke:none" transform="translate(76.79 454.593)"/><path d="M0 0c0-.308.061-.534.182-.681A.56.56 0 0 1 .627-.9c.168 0 .309.066.42.201.112.135.167.356.167.663 0 .286-.057.499-.172.637A.53.53 0 0 1 .614.81.555.555 0 0 1 .175.606C.058.469 0 .267 0 0m-.715 1.32h.673V.918a1.012 1.012 0 0 0 .852.463c.318 0 .587-.125.807-.373.222-.249.333-.595.333-1.039 0-.457-.112-.812-.335-1.064a1.042 1.042 0 0 0-.81-.38.928.928 0 0 0-.411.09c-.122.06-.251.163-.387.309v-1.377h-.722V1.32z" style="fill:#dadbdc;fill-opacity:1;fill-rule:nonzero;stroke:none" transform="translate(82.224 453.273)"/><path d="m0 0 .726.11a.532.532 0 0 1 .187-.319c.094-.073.226-.109.397-.109.186 0 .327.034.421.103l.095.192-.051.137c-.035.034-.117.065-.241.095C.951.338.581.454.424.561a.705.705 0 0 0-.323.615.76.76 0 0 0 .279.597c.188.161.477.241.871.241.373 0 .652-.06.833-.182a.936.936 0 0 0 .376-.54l-.682-.127a.42.42 0 0 1-.166.245.61.61 0 0 1-.348.085c-.191 0-.327-.027-.41-.08l-.082-.147.072-.131c.065-.048.29-.115.675-.203.386-.087.654-.194.807-.322.151-.129.226-.308.226-.537 0-.251-.105-.466-.314-.646-.209-.18-.519-.27-.928-.27-.372 0-.667.076-.884.227C.209-.464.068-.258 0 0" style="fill:#dadbdc;fill-opacity:1;fill-rule:nonzero;stroke:none" transform="translate(84.492 452.64)"/><path d="M0 0v-.671h-2.534c.028.254.11.494.248.721.137.228.408.529.812.905.326.303.526.509.599.617.1.149.15.297.15.443 0 .161-.044.285-.13.371a.482.482 0 0 1-.358.131.482.482 0 0 1-.361-.137c-.09-.09-.141-.242-.154-.453l-.72.072c.043.398.177.684.403.857.227.173.51.26.849.26.373 0 .664-.101.878-.301A.989.989 0 0 0 0 2.067a1.3 1.3 0 0 0-.091-.486 1.988 1.988 0 0 0-.29-.482A4.655 4.655 0 0 0-.853.617a7.836 7.836 0 0 1-.434-.415L-1.435 0H0z" style="fill:#dadbdc;fill-opacity:1;fill-rule:nonzero;stroke:none" transform="translate(66.98 446.208)"/><path d="m0 0-.235-.084c-.068-.055-.121-.156-.158-.3-.051-.186-.075-.501-.075-.944 0-.443.022-.746.066-.912.045-.165.101-.276.169-.33L0-2.653l.234.084c.068.055.122.155.159.3.05.185.075.498.075.941 0 .443-.022.747-.067.912C.357-.251.3-.139.233-.084L0 0zm0 .599C.365.599.651.468.857.208c.245-.309.367-.821.367-1.536 0-.713-.123-1.226-.37-1.538C.65-3.124.365-3.252 0-3.252c-.368 0-.664.141-.888.423-.225.282-.337.785-.337 1.508 0 .711.124 1.222.371 1.534.203.258.488.386.854.386" style="fill:#dadbdc;fill-opacity:1;fill-rule:nonzero;stroke:none" transform="translate(68.692 448.725)"/><path d="m0 0-.235-.084c-.068-.055-.121-.156-.158-.3-.051-.186-.075-.501-.075-.944 0-.443.022-.746.066-.912.045-.165.101-.276.169-.33L0-2.653l.234.084c.068.055.122.155.159.3.05.185.075.498.075.941 0 .443-.022.747-.067.912C.357-.251.3-.139.233-.084L0 0zm0 .599C.366.599.651.468.856.208c.246-.309.368-.821.368-1.536 0-.713-.123-1.226-.37-1.538C.65-3.124.366-3.252 0-3.252c-.368 0-.663.141-.887.423-.226.282-.338.785-.338 1.508 0 .711.124 1.222.371 1.534.203.258.488.386.854.386" style="fill:#dadbdc;fill-opacity:1;fill-rule:nonzero;stroke:none" transform="translate(71.623 448.725)"/><path d="M0 0h.667v-.373c.238.289.522.434.851.434a.911.911 0 0 0 .455-.107.833.833 0 0 0 .317-.327c.12.146.249.254.389.327a.949.949 0 0 0 .445.107c.2 0 .37-.041.509-.122a.756.756 0 0 0 .312-.358c.049-.117.074-.306.074-.566v-1.747h-.723v1.561c0 .272-.024.446-.075.525-.066.103-.169.154-.309.154a.49.49 0 0 1-.285-.092.518.518 0 0 1-.193-.271c-.039-.119-.059-.308-.059-.565v-1.312h-.723v1.497c0 .266-.013.437-.039.515l-.119.172-.221.056a.525.525 0 0 1-.3-.09.49.49 0 0 1-.192-.259C.743-.955.724-1.143.724-1.405v-1.327H0V0z" style="fill:#dadbdc;fill-opacity:1;fill-rule:nonzero;stroke:none" transform="translate(73.431 448.27)"/><path d="M0 0c5.46 0 9.956 4.476 9.956 9.938 0 5.481-4.496 9.958-9.956 9.958-5.482 0-9.958-4.477-9.958-9.958C-9.958 4.476-5.482 0 0 0" style="fill:#fff;fill-opacity:1;fill-rule:evenodd;stroke:none" transform="translate(71.056 404.912)"/><path d="M0 0c5.464 0 9.956 4.477 9.956 9.939 0 5.481-4.492 9.956-9.956 9.956-5.481 0-9.957-4.475-9.957-9.956C-9.957 4.477-5.481 0 0 0m0-2.483c6.845 0 12.441 5.595 12.441 12.422 0 6.848-5.596 12.443-12.441 12.443-6.844 0-12.44-5.595-12.44-12.443C-12.44 3.112-6.844-2.483 0-2.483" style="fill:#ed1d24;fill-opacity:1;fill-rule:evenodd;stroke:none" transform="translate(71.054 404.911)"/><path d="M0 0c-.439-.864-1.522-1.454-2.648-1.454-1.331 0-2.852.629-3.087 2.415h1.726c.176-.654.615-.973 1.302-.973.659 0 .952.246 1.113.592.131.333.131.715.131 1.06 0 .875-.234 1.466-1.287 1.466-.483 0-.834-.159-1.186-.69H-5.53v4.747h5.155V5.708h-3.502V4.142c.454.309.893.406 1.434.406 1.054 0 2.004-.492 2.443-1.294.205-.381.278-.863.278-1.701C.278.813.19.382 0 0" style="fill:#000;fill-opacity:1;fill-rule:nonzero;stroke:none" transform="translate(70.294 411.975)"/><path d="M0 0c0 .74-.497 1.134-1.243 1.134-.746 0-1.243-.394-1.243-1.134v-3.514c0-.739.497-1.146 1.243-1.146C-.497-4.66 0-4.253 0-3.514V0zm-1.243-6.102c-1.535 0-2.97.899-2.97 2.514v3.65c0 1.614 1.435 2.515 2.97 2.515 1.537 0 2.985-.901 2.985-2.515v-3.65c0-1.615-1.448-2.514-2.985-2.514" style="fill:#000;fill-opacity:1;fill-rule:nonzero;stroke:none" transform="translate(75.807 416.623)"/></g></svg>