<?xml version="1.0" encoding="UTF-8" standalone="no"?>
<!-- Created with Inkscape (http://www.inkscape.org/) -->

<svg
   xmlns:dc="http://purl.org/dc/elements/1.1/"
   xmlns:cc="http://creativecommons.org/ns#"
   xmlns:rdf="http://www.w3.org/1999/02/22-rdf-syntax-ns#"
   xmlns:svg="http://www.w3.org/2000/svg"
   xmlns="http://www.w3.org/2000/svg"
   xmlns:sodipodi="http://sodipodi.sourceforge.net/DTD/sodipodi-0.dtd"
   xmlns:inkscape="http://www.inkscape.org/namespaces/inkscape"
   width="76.169998"
   height="146.96138"
   id="svg6419"
   version="1.1"
   inkscape:version="0.47 r22583"
   sodipodi:docname="Cyprus road sign road bump 50.svg">
  <defs
     id="defs6421">
    <inkscape:perspective
       sodipodi:type="inkscape:persp3d"
       inkscape:vp_x="0 : 526.18109 : 1"
       inkscape:vp_y="0 : 1000 : 0"
       inkscape:vp_z="744.09448 : 526.18109 : 1"
       inkscape:persp3d-origin="372.04724 : 350.78739 : 1"
       id="perspective6427" />
    <inkscape:perspective
       id="perspective6455"
       inkscape:persp3d-origin="300 : 200 : 1"
       inkscape:vp_z="600 : 300 : 1"
       inkscape:vp_y="0 : 1000 : 0"
       inkscape:vp_x="0 : 300 : 1"
       sodipodi:type="inkscape:persp3d" />
    <clipPath
       id="clipPath20">
      <path
         d="m 0.014999,205.28 205.270001,0 0,-205.28 -205.270001,0 0,205.28 z"
         id="path9" />
    </clipPath>
    <inkscape:perspective
       id="perspective6487"
       inkscape:persp3d-origin="0.5 : 0.33333333 : 1"
       inkscape:vp_z="1 : 0.5 : 1"
       inkscape:vp_y="0 : 1000 : 0"
       inkscape:vp_x="0 : 0.5 : 1"
       sodipodi:type="inkscape:persp3d" />
    <clipPath
       clipPathUnits="userSpaceOnUse"
       id="clipPath5883">
      <path
         d="m 233.519,209.338 34.845,0 0,34.016 -34.845,0 0,-34.016 z"
         id="path5885" />
    </clipPath>
    <inkscape:perspective
       id="perspective7191"
       inkscape:persp3d-origin="0.5 : 0.33333333 : 1"
       inkscape:vp_z="1 : 0.5 : 1"
       inkscape:vp_y="0 : 1000 : 0"
       inkscape:vp_x="0 : 0.5 : 1"
       sodipodi:type="inkscape:persp3d" />
    <clipPath
       clipPathUnits="userSpaceOnUse"
       id="clipPath6115">
      <path
         d="m 112.397,129.449 34.845,0 0,34.016 -34.845,0 0,-34.016 z"
         id="path6117" />
    </clipPath>
    <inkscape:perspective
       id="perspective7283"
       inkscape:persp3d-origin="0.5 : 0.33333333 : 1"
       inkscape:vp_z="1 : 0.5 : 1"
       inkscape:vp_y="0 : 1000 : 0"
       inkscape:vp_x="0 : 0.5 : 1"
       sodipodi:type="inkscape:persp3d" />
    <clipPath
       clipPathUnits="userSpaceOnUse"
       id="clipPath5487">
      <path
         d="m 52.071,490.394 34.845,0 0,34.016 -34.845,0 0,-34.016 z"
         id="path5489" />
    </clipPath>
    <inkscape:perspective
       id="perspective7383"
       inkscape:persp3d-origin="0.5 : 0.33333333 : 1"
       inkscape:vp_z="1 : 0.5 : 1"
       inkscape:vp_y="0 : 1000 : 0"
       inkscape:vp_x="0 : 0.5 : 1"
       sodipodi:type="inkscape:persp3d" />
    <clipPath
       clipPathUnits="userSpaceOnUse"
       id="clipPath5335">
      <path
         d="m 51.732,129.449 34.845,0 0,34.016 -34.845,0 0,-34.016 z"
         id="path5337" />
    </clipPath>
    <inkscape:perspective
       id="perspective7487"
       inkscape:persp3d-origin="0.5 : 0.33333333 : 1"
       inkscape:vp_z="1 : 0.5 : 1"
       inkscape:vp_y="0 : 1000 : 0"
       inkscape:vp_x="0 : 0.5 : 1"
       sodipodi:type="inkscape:persp3d" />
    <clipPath
       clipPathUnits="userSpaceOnUse"
       id="clipPath6159">
      <path
         d="m 234.152,129.449 34.845,0 0,34.016 -34.845,0 0,-34.016 z"
         id="path6161" />
    </clipPath>
    <inkscape:perspective
       id="perspective7591"
       inkscape:persp3d-origin="0.5 : 0.33333333 : 1"
       inkscape:vp_z="1 : 0.5 : 1"
       inkscape:vp_y="0 : 1000 : 0"
       inkscape:vp_x="0 : 0.5 : 1"
       sodipodi:type="inkscape:persp3d" />
    <clipPath
       clipPathUnits="userSpaceOnUse"
       id="clipPath6391">
      <path
         d="m 138.483,43.228 34.845,0 0,34.016 -34.845,0 0,-34.016 z"
         id="path6393" />
    </clipPath>
    <inkscape:perspective
       id="perspective7668"
       inkscape:persp3d-origin="0.5 : 0.33333333 : 1"
       inkscape:vp_z="1 : 0.5 : 1"
       inkscape:vp_y="0 : 1000 : 0"
       inkscape:vp_x="0 : 0.5 : 1"
       sodipodi:type="inkscape:persp3d" />
    <inkscape:perspective
       id="perspective7699"
       inkscape:persp3d-origin="0.5 : 0.33333333 : 1"
       inkscape:vp_z="1 : 0.5 : 1"
       inkscape:vp_y="0 : 1000 : 0"
       inkscape:vp_x="0 : 0.5 : 1"
       sodipodi:type="inkscape:persp3d" />
    <clipPath
       clipPathUnits="userSpaceOnUse"
       id="clipPath6143">
      <path
         d="M 0,0 311,0 311,595 0,595 0,0 z"
         id="path6145" />
    </clipPath>
    <inkscape:perspective
       id="perspective7742"
       inkscape:persp3d-origin="0.5 : 0.33333333 : 1"
       inkscape:vp_z="1 : 0.5 : 1"
       inkscape:vp_y="0 : 1000 : 0"
       inkscape:vp_x="0 : 0.5 : 1"
       sodipodi:type="inkscape:persp3d" />
    <clipPath
       clipPathUnits="userSpaceOnUse"
       id="clipPath6335">
      <path
         d="m 234.901,294.331 34.845,0 0,58.11 -34.845,0 0,-58.11 z"
         id="path6337" />
    </clipPath>
    <inkscape:perspective
       id="perspective9466"
       inkscape:persp3d-origin="0.5 : 0.33333333 : 1"
       inkscape:vp_z="1 : 0.5 : 1"
       inkscape:vp_y="0 : 1000 : 0"
       inkscape:vp_x="0 : 0.5 : 1"
       sodipodi:type="inkscape:persp3d" />
    <clipPath
       clipPathUnits="userSpaceOnUse"
       id="clipPath8409">
      <path
         d="m 32.598,401.177 76.28,0 0,121.107 -76.28,0 0,-121.107 z"
         id="path8411" />
    </clipPath>
    <inkscape:perspective
       id="perspective10290"
       inkscape:persp3d-origin="0.5 : 0.33333333 : 1"
       inkscape:vp_z="1 : 0.5 : 1"
       inkscape:vp_y="0 : 1000 : 0"
       inkscape:vp_x="0 : 0.5 : 1"
       sodipodi:type="inkscape:persp3d" />
    <clipPath
       clipPathUnits="userSpaceOnUse"
       id="clipPath8815">
      <path
         d="m 112.819,401.177 76.28,0 0,121.107 -76.28,0 0,-121.107 z"
         id="path8817" />
    </clipPath>
    <clipPath
       clipPathUnits="userSpaceOnUse"
       id="clipPath8787">
      <path
         d="M 0,0 311,0 311,595 0,595 0,0 z"
         id="path8789" />
    </clipPath>
  </defs>
  <sodipodi:namedview
     id="base"
     pagecolor="#ffffff"
     bordercolor="#666666"
     borderopacity="1.0"
     inkscape:pageopacity="0.0"
     inkscape:pageshadow="2"
     inkscape:zoom="0.59068275"
     inkscape:cx="-14.673885"
     inkscape:cy="50.535465"
     inkscape:document-units="px"
     inkscape:current-layer="layer1"
     showgrid="false"
     inkscape:window-width="1600"
     inkscape:window-height="838"
     inkscape:window-x="-8"
     inkscape:window-y="-8"
     inkscape:window-maximized="1" />
  <metadata
     id="metadata6424">
    <rdf:RDF>
      <cc:Work
         rdf:about="">
        <dc:format>image/svg+xml</dc:format>
        <dc:type
           rdf:resource="http://purl.org/dc/dcmitype/StillImage" />
        <dc:title></dc:title>
      </cc:Work>
    </rdf:RDF>
  </metadata>
  <g
     inkscape:label="Livello 1"
     inkscape:groupmode="layer"
     id="layer1"
     transform="translate(19.215258,-441.9839)">
    <g
       transform="matrix(1.25,0,0,-1.25,-169.73552,1091.9804)"
       id="g8783">
      <g
         id="g8785"
         clip-path="url(#clipPath8787)">
        <g
           id="g8791"
           transform="translate(154.3011,424.3625)">
          <path
             d="m 0,0 -6.052,0.065 0,17.359 L 0,17.387 0,0 z"
             style="fill:#ffffff;fill-opacity:1;fill-rule:nonzero;stroke:none"
             id="path8793" />
        </g>
        <g
           id="g8795"
           transform="translate(154.3011,424.3625)">
          <path
             d="m 0,0 -6.052,0.065 0,17.359 L 0,17.387 0,0 z"
             style="fill:none;stroke:#000000;stroke-width:1.09800005;stroke-linecap:butt;stroke-linejoin:miter;stroke-miterlimit:4;stroke-opacity:1;stroke-dasharray:none"
             id="path8797" />
        </g>
        <g
           id="g8799"
           transform="translate(180.80321,438.5162)">
          <path
             d="m 0,0 -59.838,0.405 0,80.515 L 0,80.932 0,0 z"
             style="fill:#ffdb00;fill-opacity:1;fill-rule:nonzero;stroke:none"
             id="path8801" />
        </g>
        <g
           id="g8803"
           transform="translate(180.80321,438.5162)">
          <path
             d="m 0,0 -59.838,0.405 0,80.515 L 0,80.932 0,0 z"
             style="fill:none;stroke:#ed1d24;stroke-width:1.09800005;stroke-linecap:butt;stroke-linejoin:miter;stroke-miterlimit:4;stroke-opacity:1;stroke-dasharray:none"
             id="path8805" />
        </g>
        <g
           id="g8807"
           transform="translate(144.0824,483.2003)">
          <path
             d="M 0,0 -8.394,0 7.135,27.184 22.918,0 0,0 z"
             style="fill:#ffffff;fill-opacity:1;fill-rule:evenodd;stroke:none"
             id="path8809" />
        </g>
      </g>
    </g>
    <g
       transform="matrix(1.25,0,0,-1.25,-169.73552,1091.9804)"
       id="g8811">
      <g
         id="g8813"
         clip-path="url(#clipPath8815)">
        <g
           id="g8819"
           transform="translate(137.383,484.3439)">
          <path
             d="M 0,0 27.774,0 13.892,24.031 0,0 z m 29.136,-3.104 c 0.826,0 1.586,0.444 2,1.163 0.423,0.719 0.423,1.606 0,2.325 l -15.232,26.37 c -0.416,0.717 -1.181,1.159 -2.012,1.159 -0.832,0 -1.6,-0.445 -2.015,-1.166 L -3.359,0.384 c -0.414,-0.719 -0.414,-1.606 0,-2.325 0.413,-0.719 1.192,-1.163 2.019,-1.163 l 30.476,0 z"
             style="fill:#ed1d24;fill-opacity:1;fill-rule:evenodd;stroke:none"
             id="path8821" />
        </g>
        <g
           id="g8823"
           transform="translate(161.57091,487.1705)">
          <path
             d="m 0,0 0,-1.556 -20.7,0 0,1.556 2.975,0 0.01,0 c 0.526,0 1.031,0.201 1.414,0.559 l 0.013,-0.014 c 1.622,1.481 3.739,2.304 5.934,2.304 2.168,0 4.262,-0.804 5.877,-2.253 l 0.002,0.005 C -4.094,0.222 -3.582,0.006 -3.045,0 L 0,0 z"
             style="fill:#000000;fill-opacity:1;fill-rule:evenodd;stroke:none"
             id="path8825" />
        </g>
        <g
           id="g8827"
           transform="translate(175.22391,442.61079)">
          <path
             d="m 0,0 -47.899,0.282 0,29.082 L 0,29.459 0,0 z"
             style="fill:#ed1d24;fill-opacity:1;fill-rule:nonzero;stroke:none"
             id="path8829" />
        </g>
        <g
           id="g8831"
           transform="translate(175.22391,442.61079)">
          <path
             d="m 0,0 -47.899,0.282 0,29.082 L 0,29.459 0,0 z"
             style="fill:none;stroke:#bcbec0;stroke-width:1.64600003;stroke-linecap:butt;stroke-linejoin:miter;stroke-miterlimit:4;stroke-opacity:1;stroke-dasharray:none"
             id="path8833" />
        </g>
        <g
           id="g8835"
           transform="translate(135.3828,464.50481)">
          <path
             d="m 0,0 0,3.772 0.762,0 0,-1.675 1.538,1.675 1.024,0 L 1.904,2.303 3.401,0 2.416,0 1.38,1.77 0.762,1.139 0.762,0 0,0 z"
             style="fill:#dadbdc;fill-opacity:1;fill-rule:nonzero;stroke:none"
             id="path8837" />
        </g>
        <g
           id="g8839"
           transform="translate(140.1689,464.50481)">
          <path
             d="m 0,0 0,1.588 -1.382,2.184 0.893,0 0.888,-1.493 0.869,1.493 0.877,0 L 0.759,1.582 0.759,0 0,0 z"
             style="fill:#dadbdc;fill-opacity:1;fill-rule:nonzero;stroke:none"
             id="path8841" />
        </g>
        <g
           id="g8843"
           transform="translate(143.45329,467.638)">
          <path
             d="m 0,0 0,-1.07 0.417,0 c 0.3,0 0.5,0.02 0.601,0.059 0.102,0.04 0.182,0.102 0.238,0.186 0.058,0.083 0.087,0.181 0.087,0.293 0,0.137 -0.041,0.25 -0.121,0.339 -0.08,0.09 -0.182,0.145 -0.307,0.167 C 0.825,-0.009 0.642,0 0.368,0 L 0,0 z m -0.761,-3.133 0,3.771 1.222,0 C 0.924,0.638 1.225,0.62 1.366,0.582 1.582,0.525 1.763,0.402 1.909,0.212 2.055,0.023 2.128,-0.222 2.128,-0.522 2.128,-0.753 2.086,-0.948 2.001,-1.106 1.918,-1.264 1.81,-1.388 1.681,-1.478 1.552,-1.568 1.42,-1.627 1.286,-1.657 1.104,-1.693 0.841,-1.711 0.496,-1.711 l -0.496,0 0,-1.422 -0.761,0 z"
             style="fill:#dadbdc;fill-opacity:1;fill-rule:nonzero;stroke:none"
             id="path8845" />
        </g>
        <g
           id="g8847"
           transform="translate(147.0549,464.50481)">
          <path
             d="m 0,0 0,3.133 -1.119,0 0,0.639 2.997,0 0,-0.639 -1.117,0 L 0.761,0 0,0 z"
             style="fill:#dadbdc;fill-opacity:1;fill-rule:nonzero;stroke:none"
             id="path8849" />
        </g>
        <g
           id="g8851"
           transform="translate(149.19659,464.50481)">
          <path
             d="m 0,0 0,0.636 0.731,0 C 0.283,1.105 0.059,1.611 0.059,2.153 0.059,2.627 0.22,3.026 0.54,3.35 0.861,3.673 1.301,3.836 1.86,3.836 2.414,3.836 2.852,3.675 3.175,3.352 3.498,3.03 3.658,2.63 3.658,2.153 3.658,1.611 3.434,1.105 2.987,0.636 l 0.734,0 0,-0.636 -1.727,0 0,0.607 C 2.284,0.715 2.503,0.89 2.651,1.132 2.8,1.374 2.874,1.652 2.874,1.968 2.874,2.292 2.788,2.576 2.618,2.82 2.447,3.063 2.194,3.185 1.86,3.185 1.527,3.185 1.276,3.064 1.104,2.822 0.933,2.58 0.847,2.295 0.847,1.968 0.847,1.651 0.921,1.371 1.069,1.131 1.218,0.89 1.436,0.715 1.727,0.607 L 1.727,0 0,0 z"
             style="fill:#dadbdc;fill-opacity:1;fill-rule:nonzero;stroke:none"
             id="path8853" />
        </g>
        <g
           id="g8855"
           transform="translate(153.54221,464.50481)">
          <path
             d="m 0,0 0,3.772 1.139,0 0.685,-2.573 0.677,2.573 1.141,0 0,-3.772 -0.707,0 0,2.969 L 2.187,0 1.454,0 0.707,2.969 0.707,0 0,0 z"
             style="fill:#dadbdc;fill-opacity:1;fill-rule:nonzero;stroke:none"
             id="path8857" />
        </g>
        <g
           id="g8859"
           transform="translate(159.93941,465.99699)">
          <path
             d="M 0,0 -0.519,1.399 -1.029,0 0,0 z m 1.402,-1.492 -0.827,0 -0.331,0.856 -1.507,0 -0.311,-0.856 -0.808,0 1.469,3.771 0.806,0 1.509,-3.771 z"
             style="fill:#dadbdc;fill-opacity:1;fill-rule:nonzero;stroke:none"
             id="path8861" />
        </g>
        <g
           id="g8863"
           transform="translate(162.1582,464.50481)">
          <path
             d="m 0,0 0,3.133 -1.119,0 0,0.639 2.997,0 0,-0.639 -1.117,0 L 0.761,0 0,0 z"
             style="fill:#dadbdc;fill-opacity:1;fill-rule:nonzero;stroke:none"
             id="path8865" />
        </g>
        <g
           id="g8867"
           transform="translate(166.13409,465.99699)">
          <path
             d="M 0,0 -0.519,1.399 -1.029,0 0,0 z m 1.402,-1.492 -0.828,0 -0.33,0.856 -1.507,0 -0.311,-0.856 -0.808,0 1.469,3.771 0.806,0 1.509,-3.771 z"
             style="fill:#dadbdc;fill-opacity:1;fill-rule:nonzero;stroke:none"
             id="path8869" />
        </g>
        <g
           id="g8871"
           transform="translate(130.3094,460.0714)">
          <path
             d="m 0,0 c 0,-0.428 0.099,-0.751 0.296,-0.971 0.197,-0.221 0.447,-0.331 0.75,-0.331 0.305,0 0.553,0.109 0.748,0.328 0.194,0.218 0.292,0.546 0.292,0.984 0,0.432 -0.094,0.754 -0.284,0.968 C 1.612,1.19 1.36,1.296 1.046,1.296 0.733,1.296 0.48,1.189 0.287,0.973 0.095,0.758 0,0.433 0,0 m -0.785,-0.026 c 0,0.384 0.057,0.707 0.172,0.967 0.086,0.192 0.203,0.365 0.351,0.517 0.148,0.153 0.311,0.266 0.488,0.34 0.235,0.099 0.506,0.149 0.813,0.149 0.556,0 1,-0.172 1.334,-0.517 0.334,-0.345 0.5,-0.824 0.5,-1.439 0,-0.608 -0.165,-1.084 -0.497,-1.429 -0.331,-0.344 -0.772,-0.515 -1.327,-0.515 -0.56,0 -1.006,0.171 -1.337,0.513 -0.332,0.342 -0.497,0.814 -0.497,1.414"
             style="fill:#dadbdc;fill-opacity:1;fill-rule:nonzero;stroke:none"
             id="path8873" />
        </g>
        <g
           id="g8875"
           transform="translate(135.9639,458.81841)">
          <path
             d="M 0,0 -0.849,2.256 -1.672,0 0,0 z m 1.072,-0.636 -3.784,0 1.468,3.771 0.807,0 1.509,-3.771 z"
             style="fill:#dadbdc;fill-opacity:1;fill-rule:nonzero;stroke:none"
             id="path8877" />
        </g>
        <g
           id="g8879"
           transform="translate(137.9115,460.0714)">
          <path
             d="m 0,0 c 0,-0.428 0.099,-0.751 0.296,-0.971 0.197,-0.221 0.447,-0.331 0.75,-0.331 0.305,0 0.553,0.109 0.748,0.328 0.194,0.218 0.292,0.546 0.292,0.984 0,0.432 -0.094,0.754 -0.284,0.968 C 1.612,1.19 1.36,1.296 1.046,1.296 0.733,1.296 0.48,1.189 0.287,0.973 0.095,0.758 0,0.433 0,0 m -0.785,-0.026 c 0,0.384 0.057,0.707 0.172,0.967 0.086,0.192 0.203,0.365 0.351,0.517 0.148,0.153 0.311,0.266 0.488,0.34 0.235,0.099 0.506,0.149 0.813,0.149 0.556,0 1,-0.172 1.334,-0.517 0.334,-0.345 0.5,-0.824 0.5,-1.439 0,-0.608 -0.165,-1.084 -0.497,-1.429 -0.331,-0.344 -0.772,-0.515 -1.327,-0.515 -0.56,0 -1.006,0.171 -1.337,0.513 -0.332,0.342 -0.497,0.814 -0.497,1.414"
             style="fill:#dadbdc;fill-opacity:1;fill-rule:nonzero;stroke:none"
             id="path8881" />
        </g>
        <g
           id="g8883"
           transform="translate(141.2762,461.9536)">
          <path
             d="m 0,0 2.611,0 0,-0.638 -1.672,0 0.974,-1.163 -1.075,-1.334 1.853,0 0,-0.636 -2.74,0 0,0.705 1.011,1.265 L 0,-0.679 0,0 z"
             style="fill:#dadbdc;fill-opacity:1;fill-rule:nonzero;stroke:none"
             id="path8885" />
        </g>
        <g
           id="g8887"
           transform="translate(145.3902,458.18269)">
          <path
             d="m 0,0 0,3.133 -1.119,0 0,0.638 2.997,0 0,-0.638 -1.117,0 L 0.761,0 0,0 z"
             style="fill:#dadbdc;fill-opacity:1;fill-rule:nonzero;stroke:none"
             id="path8889" />
        </g>
        <g
           id="g8891"
           transform="translate(148.5202,461.3159)">
          <path
             d="m 0,0 0,-1.07 0.417,0 c 0.3,0 0.501,0.019 0.601,0.059 0.102,0.04 0.182,0.101 0.238,0.186 0.058,0.083 0.087,0.181 0.087,0.292 0,0.137 -0.041,0.251 -0.121,0.34 C 1.142,-0.104 1.04,-0.048 0.915,-0.026 0.825,-0.009 0.642,0 0.368,0 L 0,0 z m -0.761,-3.133 0,3.771 1.222,0 C 0.924,0.638 1.225,0.62 1.366,0.582 1.582,0.525 1.763,0.402 1.909,0.212 2.055,0.022 2.128,-0.222 2.128,-0.522 2.128,-0.754 2.086,-0.949 2.001,-1.106 1.918,-1.264 1.81,-1.388 1.681,-1.478 1.552,-1.568 1.42,-1.627 1.286,-1.656 1.104,-1.693 0.841,-1.711 0.496,-1.711 l -0.496,0 0,-1.422 -0.761,0 z"
             style="fill:#dadbdc;fill-opacity:1;fill-rule:nonzero;stroke:none"
             id="path8893" />
        </g>
        <g
           id="g8895"
           transform="translate(151.1411,458.18269)">
          <path
             d="m 0,0 0,0.636 0.731,0 C 0.283,1.105 0.059,1.611 0.059,2.153 0.059,2.626 0.22,3.025 0.54,3.35 0.861,3.673 1.301,3.835 1.86,3.835 2.414,3.835 2.852,3.674 3.175,3.352 3.498,3.029 3.658,2.63 3.658,2.153 3.658,1.611 3.434,1.105 2.987,0.636 l 0.734,0 0,-0.636 -1.727,0 0,0.607 C 2.284,0.715 2.503,0.89 2.651,1.132 2.8,1.374 2.874,1.653 2.874,1.968 2.874,2.292 2.788,2.576 2.618,2.819 2.447,3.064 2.194,3.185 1.86,3.185 1.527,3.185 1.276,3.064 1.104,2.822 0.933,2.58 0.847,2.296 0.847,1.968 0.847,1.651 0.921,1.372 1.069,1.131 1.218,0.89 1.436,0.715 1.727,0.607 L 1.727,0 0,0 z"
             style="fill:#dadbdc;fill-opacity:1;fill-rule:nonzero;stroke:none"
             id="path8897" />
        </g>
        <g
           id="g8899"
           transform="translate(155.4866,458.18269)">
          <path
             d="m 0,0 0,3.771 1.139,0 0.685,-2.573 0.677,2.573 1.141,0 0,-3.771 -0.707,0 0,2.969 L 2.187,0 1.454,0 0.707,2.969 0.707,0 0,0 z"
             style="fill:#dadbdc;fill-opacity:1;fill-rule:nonzero;stroke:none"
             id="path8901" />
        </g>
        <g
           id="g8903"
           transform="translate(161.8838,459.6747)">
          <path
             d="M 0,0 -0.519,1.4 -1.029,0 0,0 z m 1.402,-1.492 -0.827,0 -0.331,0.856 -1.507,0 -0.311,-0.856 -0.808,0 1.469,3.771 0.806,0 1.509,-3.771 z"
             style="fill:#dadbdc;fill-opacity:1;fill-rule:nonzero;stroke:none"
             id="path8905" />
        </g>
        <g
           id="g8907"
           transform="translate(164.1028,458.18269)">
          <path
             d="m 0,0 0,3.133 -1.119,0 0,0.638 2.997,0 0,-0.638 -1.117,0 L 0.761,0 0,0 z"
             style="fill:#dadbdc;fill-opacity:1;fill-rule:nonzero;stroke:none"
             id="path8909" />
        </g>
        <g
           id="g8911"
           transform="translate(167.0065,460.0714)">
          <path
             d="m 0,0 c 0,-0.428 0.099,-0.751 0.296,-0.971 0.197,-0.221 0.447,-0.331 0.75,-0.331 0.305,0 0.553,0.109 0.748,0.328 0.194,0.218 0.292,0.546 0.292,0.984 0,0.432 -0.094,0.754 -0.284,0.968 C 1.612,1.19 1.36,1.296 1.046,1.296 0.733,1.296 0.48,1.189 0.287,0.973 0.095,0.758 0,0.433 0,0 m -0.785,-0.026 c 0,0.384 0.057,0.707 0.172,0.967 0.086,0.192 0.204,0.365 0.351,0.517 0.148,0.153 0.311,0.266 0.488,0.34 0.235,0.099 0.506,0.149 0.813,0.149 0.556,0 1,-0.172 1.334,-0.517 0.334,-0.345 0.5,-0.824 0.5,-1.439 0,-0.608 -0.165,-1.084 -0.497,-1.429 -0.331,-0.344 -0.772,-0.515 -1.327,-0.515 -0.56,0 -1.006,0.171 -1.337,0.513 -0.332,0.342 -0.497,0.814 -0.497,1.414"
             style="fill:#dadbdc;fill-opacity:1;fill-rule:nonzero;stroke:none"
             id="path8913" />
        </g>
        <g
           id="g8915"
           transform="translate(170.37131,461.9536)">
          <path
             d="m 0,0 2.611,0 0,-0.638 -1.672,0 0.974,-1.163 -1.075,-1.334 1.853,0 0,-0.636 -2.74,0 0,0.705 1.011,1.265 L 0,-0.679 0,0 z"
             style="fill:#dadbdc;fill-opacity:1;fill-rule:nonzero;stroke:none"
             id="path8917" />
        </g>
        <g
           id="g8919"
           transform="translate(136.1749,454.0365)">
          <path
             d="m 0,0 0.564,0 c 0.365,0 0.594,0.016 0.684,0.047 l 0.214,0.159 c 0.052,0.076 0.077,0.17 0.077,0.283 0,0.127 -0.034,0.229 -0.102,0.307 C 1.37,0.875 1.273,0.924 1.15,0.944 1.089,0.953 0.904,0.957 0.595,0.957 L 0,0.957 0,0 z m -0.761,-2.176 0,3.771 1.602,0 C 1.245,1.595 1.537,1.562 1.72,1.494 1.903,1.426 2.05,1.306 2.159,1.132 2.268,0.959 2.324,0.761 2.324,0.538 2.324,0.255 2.24,0.021 2.074,-0.163 1.908,-0.347 1.659,-0.463 1.328,-0.511 1.492,-0.608 1.628,-0.713 1.735,-0.828 1.843,-0.943 1.987,-1.147 2.17,-1.441 l 0.459,-0.735 -0.91,0 -0.551,0.821 c -0.195,0.293 -0.329,0.478 -0.4,0.554 l -0.23,0.157 c -0.08,0.029 -0.208,0.043 -0.384,0.043 l -0.154,0 0,-1.575 -0.761,0 z"
             style="fill:#dadbdc;fill-opacity:1;fill-rule:nonzero;stroke:none"
             id="path8921" />
        </g>
        <g
           id="g8923"
           transform="translate(139.7851,453.226)">
          <path
             d="m 0,0 c 0,-0.27 0.064,-0.478 0.193,-0.622 0.129,-0.144 0.287,-0.216 0.476,-0.216 0.188,0 0.347,0.072 0.475,0.216 0.127,0.144 0.192,0.353 0.192,0.627 0,0.268 -0.065,0.474 -0.192,0.618 C 1.016,0.768 0.857,0.839 0.669,0.839 0.48,0.839 0.322,0.768 0.193,0.623 0.064,0.479 0,0.271 0,0 m -0.741,0.039 c 0,0.24 0.059,0.472 0.177,0.697 0.119,0.224 0.286,0.396 0.504,0.515 0.217,0.118 0.459,0.177 0.727,0.177 0.412,0 0.751,-0.134 1.016,-0.402 0.264,-0.269 0.396,-0.608 0.396,-1.017 0,-0.414 -0.133,-0.757 -0.4,-1.028 -0.267,-0.273 -0.603,-0.409 -1.008,-0.409 -0.25,0 -0.489,0.057 -0.716,0.171 -0.227,0.112 -0.4,0.278 -0.519,0.497 -0.118,0.219 -0.177,0.486 -0.177,0.799"
             style="fill:#dadbdc;fill-opacity:1;fill-rule:nonzero;stroke:none"
             id="path8925" />
        </g>
        <g
           id="g8927"
           transform="translate(143.9366,453.1725)">
          <path
             d="m 0,0 c -0.092,-0.031 -0.239,-0.068 -0.439,-0.11 -0.201,-0.043 -0.333,-0.085 -0.394,-0.127 -0.094,-0.066 -0.141,-0.151 -0.141,-0.254 0,-0.102 0.037,-0.189 0.112,-0.263 0.076,-0.074 0.172,-0.11 0.289,-0.11 0.13,0 0.255,0.043 0.373,0.129 l 0.172,0.239 C -0.01,-0.435 0,-0.317 0,-0.144 L 0,0 z m -0.967,0.586 -0.656,0.119 c 0.074,0.264 0.201,0.459 0.381,0.587 0.18,0.126 0.448,0.189 0.803,0.189 0.322,0 0.562,-0.037 0.72,-0.113 C 0.438,1.291 0.55,1.194 0.614,1.076 0.679,0.959 0.711,0.744 0.711,0.43 L 0.702,-0.414 c 0,-0.24 0.012,-0.418 0.036,-0.531 0.022,-0.114 0.066,-0.236 0.129,-0.367 l -0.715,0 -0.069,0.213 -0.026,0.085 c -0.123,-0.12 -0.255,-0.21 -0.397,-0.27 -0.14,-0.06 -0.29,-0.09 -0.45,-0.09 -0.281,0 -0.503,0.077 -0.665,0.229 -0.161,0.152 -0.243,0.345 -0.243,0.579 0,0.154 0.038,0.292 0.11,0.413 0.074,0.121 0.178,0.213 0.311,0.277 0.133,0.065 0.324,0.121 0.575,0.17 C -0.364,0.357 -0.13,0.416 0,0.471 L 0,0.542 C 0,0.682 -0.034,0.78 -0.103,0.84 -0.171,0.899 -0.301,0.928 -0.491,0.928 -0.619,0.928 -0.72,0.904 -0.792,0.853 -0.864,0.802 -0.923,0.714 -0.967,0.586"
             style="fill:#dadbdc;fill-opacity:1;fill-rule:nonzero;stroke:none"
             id="path8929" />
        </g>
        <g
           id="g8931"
           transform="translate(145.9359,453.2861)">
          <path
             d="m 0,0 c 0,-0.292 0.041,-0.503 0.121,-0.633 0.117,-0.189 0.28,-0.283 0.489,-0.283 0.166,0 0.308,0.07 0.424,0.212 0.117,0.141 0.175,0.352 0.175,0.634 0,0.314 -0.056,0.54 -0.169,0.678 C 0.926,0.746 0.781,0.815 0.605,0.815 0.433,0.815 0.289,0.747 0.174,0.611 0.058,0.474 0,0.27 0,0 m 1.929,-1.426 -0.671,0 0,0.401 C 1.147,-1.18 1.015,-1.297 0.864,-1.373 0.712,-1.449 0.558,-1.488 0.404,-1.488 c -0.314,0 -0.582,0.127 -0.806,0.38 -0.224,0.253 -0.336,0.606 -0.336,1.059 0,0.463 0.109,0.814 0.326,1.056 0.219,0.241 0.493,0.361 0.827,0.361 0.305,0 0.569,-0.127 0.792,-0.381 l 0,1.358 0.722,0 0,-3.771 z"
             style="fill:#dadbdc;fill-opacity:1;fill-rule:nonzero;stroke:none"
             id="path8933" />
        </g>
        <g
           id="g8935"
           transform="translate(150.0499,451.8605)">
          <path
             d="m 0,0 0,3.771 0.761,0 0,-1.484 1.492,0 0,1.484 0.762,0 0,-3.771 -0.762,0 0,1.649 -1.492,0 L 0.761,0 0,0 z"
             style="fill:#dadbdc;fill-opacity:1;fill-rule:nonzero;stroke:none"
             id="path8937" />
        </g>
        <g
           id="g8939"
           transform="translate(155.64529,451.8605)">
          <path
             d="M 0,0 0,0.409 C -0.099,0.264 -0.229,0.148 -0.392,0.064 c -0.162,-0.083 -0.333,-0.126 -0.513,-0.126 -0.184,0 -0.348,0.041 -0.494,0.121 -0.146,0.08 -0.252,0.194 -0.316,0.34 -0.065,0.145 -0.099,0.347 -0.099,0.604 l 0,1.729 0.724,0 0,-1.255 c 0,-0.385 0.013,-0.62 0.04,-0.706 l 0.145,-0.206 c 0.07,-0.051 0.159,-0.076 0.267,-0.076 0.124,0 0.235,0.034 0.333,0.102 0.097,0.067 0.164,0.151 0.2,0.252 0.036,0.1 0.054,0.346 0.054,0.737 l 0,1.152 0.723,0 L 0.672,0 0,0 z"
             style="fill:#dadbdc;fill-opacity:1;fill-rule:nonzero;stroke:none"
             id="path8941" />
        </g>
        <g
           id="g8943"
           transform="translate(157.011,454.5928)">
          <path
             d="m 0,0 0.667,0 0,-0.373 c 0.238,0.289 0.522,0.434 0.851,0.434 0.176,0 0.327,-0.035 0.455,-0.107 0.129,-0.073 0.235,-0.181 0.317,-0.327 0.12,0.146 0.249,0.254 0.389,0.327 0.138,0.072 0.287,0.107 0.445,0.107 0.2,0 0.37,-0.041 0.509,-0.122 0.139,-0.082 0.243,-0.201 0.312,-0.358 0.049,-0.117 0.074,-0.306 0.074,-0.566 l 0,-1.747 -0.723,0 0,1.561 c 0,0.272 -0.025,0.446 -0.075,0.525 -0.066,0.102 -0.169,0.154 -0.309,0.154 -0.1,0 -0.196,-0.03 -0.285,-0.092 C 2.538,-0.646 2.474,-0.736 2.434,-0.855 2.395,-0.974 2.375,-1.163 2.375,-1.42 l 0,-1.312 -0.723,0 0,1.497 c 0,0.266 -0.013,0.437 -0.039,0.515 l -0.119,0.172 -0.221,0.056 c -0.111,0 -0.211,-0.03 -0.3,-0.09 C 0.883,-0.642 0.82,-0.728 0.781,-0.841 0.743,-0.955 0.723,-1.143 0.723,-1.405 l 0,-1.327 L 0,-2.732 0,0 z"
             style="fill:#dadbdc;fill-opacity:1;fill-rule:nonzero;stroke:none"
             id="path8945" />
        </g>
        <g
           id="g8947"
           transform="translate(162.4445,453.2733)">
          <path
             d="M 0,0 C 0,-0.308 0.061,-0.534 0.182,-0.681 0.304,-0.827 0.452,-0.9 0.627,-0.9 c 0.168,0 0.309,0.066 0.42,0.201 0.112,0.135 0.167,0.356 0.167,0.663 0,0.286 -0.057,0.499 -0.172,0.637 C 0.927,0.741 0.785,0.81 0.614,0.81 0.438,0.81 0.292,0.742 0.175,0.606 0.058,0.469 0,0.267 0,0 m -0.715,1.32 0.673,0 0,-0.402 C 0.046,1.055 0.164,1.166 0.314,1.252 0.463,1.338 0.628,1.381 0.81,1.381 1.128,1.381 1.397,1.256 1.617,1.008 1.839,0.759 1.95,0.413 1.95,-0.031 c 0,-0.457 -0.112,-0.812 -0.335,-1.064 -0.223,-0.253 -0.493,-0.38 -0.81,-0.38 -0.151,0 -0.287,0.03 -0.411,0.09 -0.122,0.06 -0.251,0.163 -0.387,0.309 l 0,-1.377 -0.722,0 0,3.773 z"
             style="fill:#dadbdc;fill-opacity:1;fill-rule:nonzero;stroke:none"
             id="path8949" />
        </g>
        <g
           id="g8951"
           transform="translate(164.71271,452.6398)">
          <path
             d="m 0,0 0.726,0.11 c 0.031,-0.14 0.093,-0.246 0.187,-0.319 0.094,-0.073 0.226,-0.109 0.397,-0.109 0.186,0 0.327,0.034 0.421,0.103 L 1.826,-0.023 1.775,0.114 C 1.74,0.148 1.658,0.179 1.534,0.209 0.951,0.338 0.581,0.454 0.424,0.561 0.209,0.709 0.101,0.913 0.101,1.176 c 0,0.237 0.093,0.435 0.279,0.597 0.188,0.161 0.477,0.241 0.871,0.241 0.373,0 0.652,-0.06 0.833,-0.182 C 2.266,1.71 2.391,1.53 2.46,1.292 L 1.778,1.165 C 1.748,1.272 1.694,1.354 1.612,1.41 1.531,1.466 1.414,1.495 1.264,1.495 1.073,1.495 0.937,1.468 0.854,1.415 L 0.772,1.268 0.844,1.137 C 0.909,1.089 1.134,1.022 1.519,0.934 1.905,0.847 2.173,0.74 2.326,0.612 2.477,0.483 2.552,0.304 2.552,0.075 c 0,-0.251 -0.105,-0.466 -0.314,-0.646 -0.209,-0.18 -0.519,-0.27 -0.928,-0.27 -0.372,0 -0.667,0.076 -0.884,0.227 C 0.209,-0.464 0.068,-0.258 0,0"
             style="fill:#dadbdc;fill-opacity:1;fill-rule:nonzero;stroke:none"
             id="path8953" />
        </g>
        <g
           id="g8955"
           transform="translate(145.60471,447.0293)">
          <path
             d="M 0,0 -0.519,1.4 -1.029,0 0,0 z m 1.402,-1.492 -0.828,0 -0.33,0.856 -1.507,0 -0.311,-0.856 -0.808,0 1.469,3.771 0.806,0 1.509,-3.771 z"
             style="fill:#dadbdc;fill-opacity:1;fill-rule:nonzero;stroke:none"
             id="path8957" />
        </g>
        <g
           id="g8959"
           transform="translate(148.1268,449.3082)">
          <path
             d="m 0,0 0,-1.386 c 0.233,0.272 0.511,0.408 0.836,0.408 0.166,0 0.316,-0.03 0.45,-0.092 0.134,-0.062 0.235,-0.14 0.303,-0.237 0.067,-0.095 0.113,-0.202 0.138,-0.318 0.026,-0.117 0.037,-0.298 0.037,-0.544 l 0,-1.602 -0.722,0 0,1.443 C 1.042,-2.041 1.028,-1.86 1,-1.783 L 0.855,-1.598 C 0.786,-1.553 0.699,-1.531 0.594,-1.531 0.474,-1.531 0.367,-1.56 0.272,-1.617 0.178,-1.676 0.109,-1.764 0.065,-1.881 0.021,-1.999 0,-2.173 0,-2.402 l 0,-1.369 -0.724,0 0,3.771 L 0,0 z"
             style="fill:#dadbdc;fill-opacity:1;fill-rule:nonzero;stroke:none"
             id="path8961" />
        </g>
        <g
           id="g8963"
           transform="translate(152.2473,447.1376)">
          <path
             d="M 0,0 C -0.005,0.209 -0.059,0.368 -0.162,0.477 -0.265,0.586 -0.39,0.64 -0.537,0.64 -0.696,0.64 -0.825,0.583 -0.928,0.468 -1.031,0.353 -1.082,0.197 -1.081,0 L 0,0 z M -0.041,-0.731 0.68,-0.852 C 0.586,-1.116 0.441,-1.317 0.241,-1.455 c -0.2,-0.138 -0.45,-0.208 -0.75,-0.208 -0.475,0 -0.827,0.156 -1.055,0.467 -0.18,0.248 -0.27,0.562 -0.27,0.941 0,0.453 0.118,0.807 0.355,1.064 0.237,0.257 0.536,0.384 0.898,0.384 0.406,0 0.727,-0.134 0.962,-0.402 0.235,-0.269 0.347,-0.68 0.337,-1.234 l -1.811,0 c 0.005,-0.214 0.063,-0.381 0.174,-0.5 0.112,-0.119 0.251,-0.179 0.417,-0.179 0.114,0 0.209,0.031 0.287,0.093 0.077,0.061 0.135,0.161 0.174,0.298"
             style="fill:#dadbdc;fill-opacity:1;fill-rule:nonzero;stroke:none"
             id="path8965" />
        </g>
        <g
           id="g8967"
           transform="translate(155.06219,446.8493)">
          <path
             d="m 0,0 c -0.092,-0.031 -0.239,-0.068 -0.44,-0.11 -0.2,-0.043 -0.332,-0.085 -0.393,-0.127 -0.094,-0.066 -0.141,-0.151 -0.141,-0.254 0,-0.102 0.037,-0.189 0.112,-0.263 0.076,-0.074 0.172,-0.11 0.288,-0.11 0.131,0 0.256,0.043 0.373,0.129 l 0.173,0.239 C -0.01,-0.435 0,-0.317 0,-0.144 L 0,0 z m -0.967,0.586 -0.656,0.119 c 0.074,0.264 0.201,0.459 0.381,0.587 0.18,0.126 0.448,0.189 0.802,0.189 0.323,0 0.563,-0.037 0.721,-0.113 C 0.438,1.29 0.55,1.194 0.614,1.076 0.678,0.959 0.711,0.744 0.711,0.43 L 0.702,-0.414 c 0,-0.24 0.012,-0.418 0.035,-0.532 0.023,-0.113 0.067,-0.235 0.13,-0.366 l -0.715,0 -0.069,0.213 -0.026,0.085 c -0.124,-0.12 -0.255,-0.21 -0.397,-0.27 -0.14,-0.06 -0.29,-0.09 -0.45,-0.09 -0.281,0 -0.503,0.077 -0.665,0.229 -0.162,0.152 -0.243,0.345 -0.243,0.579 0,0.154 0.038,0.292 0.11,0.413 0.074,0.121 0.178,0.213 0.311,0.277 0.133,0.065 0.324,0.121 0.575,0.17 C -0.365,0.357 -0.13,0.416 0,0.471 L 0,0.542 C 0,0.682 -0.034,0.78 -0.103,0.84 -0.172,0.899 -0.301,0.928 -0.491,0.928 -0.62,0.928 -0.72,0.904 -0.792,0.853 -0.864,0.802 -0.923,0.714 -0.967,0.586"
             style="fill:#dadbdc;fill-opacity:1;fill-rule:nonzero;stroke:none"
             id="path8969" />
        </g>
        <g
           id="g8971"
           transform="translate(157.06129,446.96291)">
          <path
             d="m 0,0 c 0,-0.292 0.041,-0.503 0.121,-0.634 0.117,-0.188 0.28,-0.283 0.489,-0.283 0.166,0 0.308,0.071 0.424,0.213 0.117,0.141 0.175,0.352 0.175,0.634 0,0.314 -0.056,0.539 -0.169,0.678 C 0.926,0.746 0.781,0.815 0.604,0.815 0.433,0.815 0.289,0.747 0.174,0.611 0.058,0.474 0,0.27 0,0 m 1.929,-1.426 -0.671,0 0,0.401 C 1.147,-1.18 1.015,-1.297 0.864,-1.373 0.712,-1.449 0.558,-1.488 0.404,-1.488 c -0.314,0 -0.582,0.127 -0.806,0.38 -0.224,0.253 -0.336,0.606 -0.336,1.059 0,0.463 0.109,0.814 0.326,1.056 0.219,0.241 0.493,0.361 0.827,0.361 0.305,0 0.569,-0.127 0.792,-0.381 l 0,1.358 0.722,0 0,-3.771 z"
             style="fill:#dadbdc;fill-opacity:1;fill-rule:nonzero;stroke:none"
             id="path8973" />
        </g>
        <g
           id="g8975"
           transform="translate(151.27609,404.9122)">
          <path
             d="m 0,0 c 5.46,0 9.956,4.476 9.956,9.938 0,5.481 -4.496,9.958 -9.956,9.958 -5.482,0 -9.958,-4.477 -9.958,-9.958 C -9.958,4.476 -5.482,0 0,0"
             style="fill:#ffffff;fill-opacity:1;fill-rule:evenodd;stroke:none"
             id="path8977" />
        </g>
        <g
           id="g8979"
           transform="translate(151.274,404.9111)">
          <path
             d="m 0,0 c 5.464,0 9.956,4.477 9.956,9.939 0,5.481 -4.492,9.956 -9.956,9.956 -5.481,0 -9.957,-4.475 -9.957,-9.956 C -9.957,4.477 -5.481,0 0,0 m 0,-2.483 c 6.845,0 12.441,5.595 12.441,12.422 0,6.848 -5.596,12.443 -12.441,12.443 -6.844,0 -12.44,-5.595 -12.44,-12.443 0,-6.827 5.596,-12.422 12.44,-12.422"
             style="fill:#ed1d24;fill-opacity:1;fill-rule:evenodd;stroke:none"
             id="path8981" />
        </g>
        <g
           id="g8983"
           transform="translate(147.0067,412.7021)">
          <path
             d="m 0,0 c 0.048,-0.273 0.167,-0.473 0.357,-0.597 0.189,-0.125 0.408,-0.188 0.658,-0.188 0.257,0 0.485,0.085 0.682,0.255 0.197,0.168 0.296,0.41 0.296,0.723 C 1.993,0.5 1.902,0.75 1.72,0.948 1.54,1.145 1.256,1.243 0.869,1.243 l -0.723,0 0,1.39 0.748,0 c 0.386,0 0.66,0.092 0.821,0.277 0.161,0.186 0.241,0.395 0.241,0.628 0,0.249 -0.092,0.457 -0.277,0.622 C 1.493,4.325 1.272,4.408 1.015,4.408 0.83,4.408 0.644,4.345 0.459,4.22 0.274,4.096 0.153,3.864 0.096,3.526 l -1.702,0.302 c 0.073,0.362 0.195,0.682 0.369,0.959 0.173,0.279 0.381,0.511 0.622,0.701 0.241,0.189 0.507,0.334 0.796,0.434 0.291,0.101 0.592,0.152 0.906,0.152 0.475,0 0.887,-0.067 1.238,-0.2 C 2.674,5.741 2.963,5.564 3.188,5.344 3.413,5.122 3.58,4.864 3.689,4.571 3.798,4.276 3.853,3.968 3.853,3.647 3.853,3.51 3.826,3.357 3.773,3.188 3.721,3.019 3.647,2.856 3.55,2.699 3.454,2.542 3.337,2.395 3.2,2.259 3.064,2.121 2.906,2.016 2.729,1.945 2.931,1.855 3.105,1.743 3.254,1.606 3.403,1.47 3.526,1.321 3.623,1.16 3.72,0.998 3.789,0.832 3.834,0.658 3.878,0.486 3.901,0.323 3.901,0.169 3.901,-0.216 3.832,-0.572 3.695,-0.892 3.558,-1.215 3.367,-1.491 3.121,-1.72 2.876,-1.949 2.578,-2.128 2.229,-2.258 1.878,-2.386 1.49,-2.45 1.063,-2.45 c -0.298,0 -0.594,0.04 -0.887,0.12 -0.295,0.08 -0.568,0.209 -0.821,0.386 -0.254,0.178 -0.475,0.405 -0.665,0.683 -0.189,0.278 -0.324,0.617 -0.404,1.02 L 0,0 z"
             style="fill:#000000;fill-opacity:1;fill-rule:nonzero;stroke:none"
             id="path8985" />
        </g>
        <g
           id="g8987"
           transform="translate(155.7128,416.24049)">
          <path
             d="M 0,0 C 0,0.313 -0.084,0.547 -0.248,0.7 -0.413,0.852 -0.628,0.929 -0.894,0.929 -1.16,0.929 -1.373,0.852 -1.534,0.7 -1.695,0.547 -1.775,0.313 -1.775,0 l 0,-3.454 c 0,-0.314 0.08,-0.548 0.241,-0.7 0.161,-0.153 0.374,-0.23 0.64,-0.23 0.266,0 0.481,0.077 0.646,0.23 C -0.084,-4.002 0,-3.768 0,-3.454 L 0,0 z M 1.787,-3.465 C 1.787,-3.869 1.712,-4.227 1.563,-4.541 1.414,-4.854 1.215,-5.118 0.966,-5.331 0.716,-5.544 0.43,-5.708 0.108,-5.82 c -0.322,-0.113 -0.656,-0.168 -1.002,-0.168 -0.338,0 -0.668,0.055 -0.99,0.168 -0.322,0.112 -0.606,0.276 -0.851,0.489 -0.246,0.213 -0.443,0.477 -0.592,0.79 -0.149,0.314 -0.223,0.672 -0.223,1.076 l 0,3.465 c 0,0.402 0.074,0.76 0.223,1.074 0.149,0.314 0.346,0.58 0.592,0.798 0.245,0.216 0.529,0.381 0.851,0.494 0.322,0.112 0.652,0.169 0.99,0.169 0.346,0 0.68,-0.057 1.002,-0.169 C 0.43,2.253 0.716,2.088 0.966,1.872 1.215,1.654 1.414,1.388 1.563,1.074 1.712,0.76 1.787,0.402 1.787,0 l 0,-3.465 z"
             style="fill:#000000;fill-opacity:1;fill-rule:nonzero;stroke:none"
             id="path8989" />
        </g>
      </g>
    </g>
  </g>
</svg>
