<svg xmlns="http://www.w3.org/2000/svg" width="599.999" height="599.999"><defs><clipPath id="a"><path d="M.015 205.28h205.27V0H.015v205.28z"/></clipPath></defs><path d="M0 0c56.41 0 102.14-45.731 102.14-102.14 0-56.41-45.731-102.14-102.14-102.14-56.411 0-102.14 45.731-102.14 102.14S-56.411 0 0 0" style="fill:#fff;fill-rule:nonzero" transform="rotate(180 150 .73) scale(2.92279)"/><g clip-path="url(#a)" transform="rotate(180 300 300) scale(2.92279)"><path d="M0 0c56.41 0 102.14-45.731 102.14-102.14 0-56.41-45.731-102.14-102.14-102.14-56.411 0-102.14 45.731-102.14 102.14S-56.411 0 0 0z" style="fill:none;stroke:#1477c6;stroke-width:1;stroke-linecap:butt;stroke-linejoin:miter;stroke-miterlimit:4;stroke-dasharray:none" transform="translate(102.642 204.783)"/></g><path d="M0 0c56.41 0 102.14-45.731 102.14-102.14 0-56.41-45.731-102.14-102.14-102.14-56.411 0-102.14 45.731-102.14 102.14S-56.411 0 0 0" style="fill:#fff;fill-rule:nonzero" transform="rotate(180 150 .73) scale(2.92279)"/><path d="M113.725 103.798c-164.875 0-298.538 133.663-298.538 298.538S-51.15 700.874 113.725 700.874s298.538-133.663 298.538-298.538S278.6 103.798 113.725 103.798z" style="fill:none;stroke:#0079c1;stroke-width:2.92279005;stroke-linecap:butt;stroke-linejoin:miter;stroke-miterlimit:4;stroke-opacity:1;stroke-dasharray:none" transform="translate(186.275 -102.337)"/><path d="M113.725 116.099c-158.087 0-286.237 128.15-286.237 286.237 0 158.087 128.15 286.237 286.237 286.237 158.087 0 286.238-128.15 286.238-286.237 0-158.087-128.15-286.237-286.238-286.237" style="fill:#0079c1;fill-opacity:1;fill-rule:nonzero" transform="translate(186.275 -102.337)"/><path style="fill:#fff;fill-opacity:1;fill-rule:evenodd;stroke:none" d="M0 0c-.476-.974-1.451-2.66.052-3.215C-.014-2.079-.171-.981 0 0m-15.04 3.319c.233-.11.605.086.934.052-.043.851-.697.206-.934-.052m6.068.363c.169.009.25-.122.259.104-.074.079-.27.05-.259-.104m1.142 2.023c-.643-.621-1.423-1.101-2.075-1.712-.123-.001-.153.09-.311.052.302-.826.862-.002 1.193.311.328.312.91.475 1.193.83.07.086-.043.302 0 .519m1.606 4.356c.222-.322.119-.668.26-1.089-.083-.126-.393-.303-.416-.519-.033-.328.319-.472.468-.83.36-.868-.068-1.839 0-2.748.055-.739.5-1.133.674-1.556.071-.245-.162-.341-.052-.467.262.037.357-.093.518-.155 1.39.762 4.003.34 4.772-.674C1.406.165 1.164-3.518 2.074-5.912c-.289-.11-.541-.037-.881-.155.068-.719.6-1.102.518-1.816.882.09.94-1.363.207-1.504-.214.269-.338.576-.519.934-.151.304-.583.826-.621 1.089C.519-5.59.036-4.408-1.452-3.786c-.039-.505.062-.87.052-1.348-.681-.978-1.044-2.275-1.66-3.319-.083-.078-.26.045-.467 0-.114-.076.03-.411-.155-.415-.245-.062-.741-.011-1.193 0 .191.679.82.555 1.296.934.191.151.41.598.571.933.546 1.136.58 2.855.259 4.356-.544.355-1.067.731-1.763.934-1.228-.932-3.464-.63-5.393-.519.448-1.027.762-2.501 1.192-3.63.161-.422.444-.813.468-1.141.023-.343-.259-.555-.363-.829-.024-.224.217-.368.103-.52-.261-.171-.782-.082-1.193-.103.204.541.719.645.778 1.245.074.741-.421 1.311-.726 1.918-.482.96-.911 2.033-1.504 2.49-.51-.583-.775-1.34-1.245-1.971-.143-.193-.351-.284-.466-.467-.401-.639-.397-1.501-1.037-1.763-.005-.327.061-.403-.052-.622-.312-.176-.903-.097-1.193.052.572.778 1.494 1.457 1.815 2.437.06.184.027.413.104.622.316.859 1.062 1.595 1.192 2.542.088.635-.461.97-.57 1.504-.078.382-.003.799-.103 1.14-.238.805-1.118 1.646-1.296 2.49-.359-.075-.951.084-1.039-.26-.184-.08-.03.176-.154.156-.333-.188-.72-.291-.675-.726-.265-.123-.664-.121-.985-.052-.014.314-.317.34-.311.674.554 1.365 1.095 3.19 2.022 4.356.181-.096.111-.441.208-.622.216.089.406.439.57.414.031-.22-.037-.342-.053-.518 1.645-.447 2.671-1.513 3.838-2.437.279.549.784.885 1.193 1.296l.156.311.311.156.104.311c.137.183.4.296.518.467.179.257.192.617.363.881.14.215.501.317.519.623-.138 0-.296-.02-.363.052-.029.465-.296.465-.104.933-.313.041-.471-.146-.571.052.15-.011.264.013.312.104-.129 1.289 1.366 1.526 1.918.726" transform="matrix(17.92271 0 0 -17.92271 432.557 304.148)"/><path style="fill:#007ac2;fill-opacity:1;fill-rule:evenodd;stroke:none" d="M0 0c-.642-.621-1.423-1.101-2.074-1.711-.123-.002-.154.089-.312.052.302-.827.863-.003 1.193.311.328.311.91.474 1.193.829.07.086-.042.303 0 .519" transform="matrix(17.92271 0 0 -17.92271 292.215 201.904)"/><path style="fill:#007ac2;fill-opacity:1;fill-rule:evenodd;stroke:none" d="M0 0c.169.009.25-.122.259.104C.185.183-.012.154 0 0" transform="matrix(17.92271 0 0 -17.92271 271.758 238.156)"/><path style="fill:#007ac2;fill-opacity:1;fill-rule:evenodd;stroke:none" d="M0 0c.233-.11.605.087.934.052C.891.903.237.258 0 0" transform="matrix(17.92271 0 0 -17.92271 163.005 244.666)"/><path style="fill:#007ac2;fill-opacity:1;fill-rule:evenodd;stroke:none" d="M0 0c-.476-.974-1.451-2.66.052-3.215C-.014-2.079-.171-.981 0 0" transform="matrix(17.92271 0 0 -17.92271 432.557 304.148)"/></svg>