<?xml version="1.0" encoding="UTF-8" standalone="no"?>
<!-- Created with Inkscape (http://www.inkscape.org/) -->

<svg
   xmlns:dc="http://purl.org/dc/elements/1.1/"
   xmlns:cc="http://creativecommons.org/ns#"
   xmlns:rdf="http://www.w3.org/1999/02/22-rdf-syntax-ns#"
   xmlns:svg="http://www.w3.org/2000/svg"
   xmlns="http://www.w3.org/2000/svg"
   xmlns:sodipodi="http://sodipodi.sourceforge.net/DTD/sodipodi-0.dtd"
   xmlns:inkscape="http://www.inkscape.org/namespaces/inkscape"
   width="265.46259"
   height="277.35425"
   id="svg4205"
   version="1.1"
   inkscape:version="0.47 r22583"
   sodipodi:docname="Cyprus road sign no parking zone.svg">
  <defs
     id="defs4207">
    <inkscape:perspective
       sodipodi:type="inkscape:persp3d"
       inkscape:vp_x="0 : 526.18109 : 1"
       inkscape:vp_y="0 : 1000 : 0"
       inkscape:vp_z="744.09448 : 526.18109 : 1"
       inkscape:persp3d-origin="372.04724 : 350.78739 : 1"
       id="perspective4213" />
    <inkscape:perspective
       id="perspective4228"
       inkscape:persp3d-origin="106.21 : 70.796666 : 1"
       inkscape:vp_z="212.42 : 106.195 : 1"
       inkscape:vp_y="0 : 1000 : 0"
       inkscape:vp_x="0 : 106.195 : 1"
       sodipodi:type="inkscape:persp3d" />
    <clipPath
       id="clipPath16">
      <path
         inkscape:connector-curvature="0"
         d="M 0.059998,169.98 H 170 V 0.06 H 0.059998 v 169.92 z"
         id="path18" />
    </clipPath>
    <inkscape:perspective
       id="perspective4247"
       inkscape:persp3d-origin="0.5 : 0.33333333 : 1"
       inkscape:vp_z="1 : 0.5 : 1"
       inkscape:vp_y="0 : 1000 : 0"
       inkscape:vp_x="0 : 0.5 : 1"
       sodipodi:type="inkscape:persp3d" />
    <clipPath
       clipPathUnits="userSpaceOnUse"
       id="clipPath3426">
      <path
         d="m 43.076,488.976 34.845,0 0,34.015 -34.845,0 0,-34.015 z"
         id="path3428" />
    </clipPath>
    <inkscape:perspective
       id="perspective4323"
       inkscape:persp3d-origin="0.5 : 0.33333333 : 1"
       inkscape:vp_z="1 : 0.5 : 1"
       inkscape:vp_y="0 : 1000 : 0"
       inkscape:vp_x="0 : 0.5 : 1"
       sodipodi:type="inkscape:persp3d" />
    <clipPath
       clipPathUnits="userSpaceOnUse"
       id="clipPath2896">
      <path
         d="m 102.752,490.181 34.845,0 0,34.016 -34.845,0 0,-34.016 z"
         id="path2898" />
    </clipPath>
    <inkscape:perspective
       id="perspective5249"
       inkscape:persp3d-origin="0.5 : 0.33333333 : 1"
       inkscape:vp_z="1 : 0.5 : 1"
       inkscape:vp_y="0 : 1000 : 0"
       inkscape:vp_x="0 : 0.5 : 1"
       sodipodi:type="inkscape:persp3d" />
    <inkscape:perspective
       id="perspective5326"
       inkscape:persp3d-origin="0.5 : 0.33333333 : 1"
       inkscape:vp_z="1 : 0.5 : 1"
       inkscape:vp_y="0 : 1000 : 0"
       inkscape:vp_x="0 : 0.5 : 1"
       sodipodi:type="inkscape:persp3d" />
    <clipPath
       clipPathUnits="userSpaceOnUse"
       id="clipPath3128">
      <path
         d="m 164.704,490.181 34.845,0 0,34.016 -34.845,0 0,-34.016 z"
         id="path3130" />
    </clipPath>
    <inkscape:perspective
       id="perspective5450"
       inkscape:persp3d-origin="0.5 : 0.33333333 : 1"
       inkscape:vp_z="1 : 0.5 : 1"
       inkscape:vp_y="0 : 1000 : 0"
       inkscape:vp_x="0 : 0.5 : 1"
       sodipodi:type="inkscape:persp3d" />
    <clipPath
       clipPathUnits="userSpaceOnUse"
       id="clipPath3318">
      <path
         d="m 224.23,490.181 34.845,0 0,34.016 -34.845,0 0,-34.016 z"
         id="path3320" />
    </clipPath>
    <inkscape:perspective
       id="perspective5517"
       inkscape:persp3d-origin="0.5 : 0.33333333 : 1"
       inkscape:vp_z="1 : 0.5 : 1"
       inkscape:vp_y="0 : 1000 : 0"
       inkscape:vp_x="0 : 0.5 : 1"
       sodipodi:type="inkscape:persp3d" />
    <clipPath
       clipPathUnits="userSpaceOnUse"
       id="clipPath2936">
      <path
         d="m 43.087,413.859 34.845,0 0,34.016 -34.845,0 0,-34.016 z"
         id="path2938" />
    </clipPath>
    <inkscape:perspective
       id="perspective5617"
       inkscape:persp3d-origin="0.5 : 0.33333333 : 1"
       inkscape:vp_z="1 : 0.5 : 1"
       inkscape:vp_y="0 : 1000 : 0"
       inkscape:vp_x="0 : 0.5 : 1"
       sodipodi:type="inkscape:persp3d" />
    <clipPath
       clipPathUnits="userSpaceOnUse"
       id="clipPath3572">
      <path
         d="m 102.752,413.859 34.845,0 0,34.016 -34.845,0 0,-34.016 z"
         id="path3574" />
    </clipPath>
    <inkscape:perspective
       id="perspective5745"
       inkscape:persp3d-origin="0.5 : 0.33333333 : 1"
       inkscape:vp_z="1 : 0.5 : 1"
       inkscape:vp_y="0 : 1000 : 0"
       inkscape:vp_x="0 : 0.5 : 1"
       sodipodi:type="inkscape:persp3d" />
    <clipPath
       clipPathUnits="userSpaceOnUse"
       id="clipPath3694">
      <path
         d="m 164.704,413.859 34.845,0 0,34.016 -34.845,0 0,-34.016 z"
         id="path3696" />
    </clipPath>
    <inkscape:perspective
       id="perspective5843"
       inkscape:persp3d-origin="0.5 : 0.33333333 : 1"
       inkscape:vp_z="1 : 0.5 : 1"
       inkscape:vp_y="0 : 1000 : 0"
       inkscape:vp_x="0 : 0.5 : 1"
       sodipodi:type="inkscape:persp3d" />
    <clipPath
       clipPathUnits="userSpaceOnUse"
       id="clipPath3500">
      <path
         d="m 224.23,413.859 34.845,0 0,34.016 -34.845,0 0,-34.016 z"
         id="path3502" />
    </clipPath>
    <inkscape:perspective
       id="perspective6067"
       inkscape:persp3d-origin="0.5 : 0.33333333 : 1"
       inkscape:vp_z="1 : 0.5 : 1"
       inkscape:vp_y="0 : 1000 : 0"
       inkscape:vp_x="0 : 0.5 : 1"
       sodipodi:type="inkscape:persp3d" />
    <clipPath
       clipPathUnits="userSpaceOnUse"
       id="clipPath3162">
      <path
         d="m 43.076,323.15 34.845,0 0,34.016 -34.845,0 0,-34.016 z"
         id="path3164" />
    </clipPath>
    <inkscape:perspective
       id="perspective6134"
       inkscape:persp3d-origin="0.5 : 0.33333333 : 1"
       inkscape:vp_z="1 : 0.5 : 1"
       inkscape:vp_y="0 : 1000 : 0"
       inkscape:vp_x="0 : 0.5 : 1"
       sodipodi:type="inkscape:persp3d" />
    <clipPath
       clipPathUnits="userSpaceOnUse"
       id="clipPath3350">
      <path
         d="m 103.255,323.15 34.845,0 0,34.016 -34.845,0 0,-34.016 z"
         id="path3352" />
    </clipPath>
    <inkscape:perspective
       id="perspective3838"
       inkscape:persp3d-origin="0.5 : 0.33333333 : 1"
       inkscape:vp_z="1 : 0.5 : 1"
       inkscape:vp_y="0 : 1000 : 0"
       inkscape:vp_x="0 : 0.5 : 1"
       sodipodi:type="inkscape:persp3d" />
    <clipPath
       clipPathUnits="userSpaceOnUse"
       id="clipPath3072">
      <path
         d="m 42.814,491.598 34.845,0 0,34.016 -34.845,0 0,-34.016 z"
         id="path3074" />
    </clipPath>
    <inkscape:perspective
       id="perspective4040"
       inkscape:persp3d-origin="0.5 : 0.33333333 : 1"
       inkscape:vp_z="1 : 0.5 : 1"
       inkscape:vp_y="0 : 1000 : 0"
       inkscape:vp_x="0 : 0.5 : 1"
       sodipodi:type="inkscape:persp3d" />
    <clipPath
       clipPathUnits="userSpaceOnUse"
       id="clipPath2920">
      <path
         d="M 0,0 311,0 311,595 0,595 0,0 z"
         id="path2922" />
    </clipPath>
    <inkscape:perspective
       id="perspective4122"
       inkscape:persp3d-origin="0.5 : 0.33333333 : 1"
       inkscape:vp_z="1 : 0.5 : 1"
       inkscape:vp_y="0 : 1000 : 0"
       inkscape:vp_x="0 : 0.5 : 1"
       sodipodi:type="inkscape:persp3d" />
    <clipPath
       clipPathUnits="userSpaceOnUse"
       id="clipPath3292">
      <path
         d="m 126.577,297.638 58.657,0 0,53.858 -58.657,0 0,-53.858 z"
         id="path3294" />
    </clipPath>
    <clipPath
       clipPathUnits="userSpaceOnUse"
       id="clipPath3268">
      <path
         d="m 155.526,344.397 -19.449,-19.448 c -0.211,-0.21 -0.211,-0.552 0,-0.764 l 0,0 19.449,-19.448 c 0.208,-0.208 0.549,-0.208 0.761,0 l 0,0 19.449,19.45 c 0.211,0.21 0.211,0.552 0,0.762 l 0,0 -19.449,19.447 c -0.106,0.105 -0.244,0.158 -0.382,0.158 l 0,0 c -0.138,0 -0.275,-0.053 -0.379,-0.157"
         id="path3270" />
    </clipPath>
    <clipPath
       clipPathUnits="userSpaceOnUse"
       id="clipPath3276">
      <path
         d="M 0,0 311,0 311,595 0,595 0,0 z"
         id="path3278" />
    </clipPath>
    <inkscape:perspective
       id="perspective5009"
       inkscape:persp3d-origin="0.5 : 0.33333333 : 1"
       inkscape:vp_z="1 : 0.5 : 1"
       inkscape:vp_y="0 : 1000 : 0"
       inkscape:vp_x="0 : 0.5 : 1"
       sodipodi:type="inkscape:persp3d" />
    <clipPath
       clipPathUnits="userSpaceOnUse"
       id="clipPath2850">
      <path
         d="m 163.559,196.441 34.845,0 0,34.016 -34.845,0 0,-34.016 z"
         id="path2852" />
    </clipPath>
    <inkscape:perspective
       id="perspective5081"
       inkscape:persp3d-origin="0.5 : 0.33333333 : 1"
       inkscape:vp_z="1 : 0.5 : 1"
       inkscape:vp_y="0 : 1000 : 0"
       inkscape:vp_x="0 : 0.5 : 1"
       sodipodi:type="inkscape:persp3d" />
    <clipPath
       clipPathUnits="userSpaceOnUse"
       id="clipPath2994">
      <path
         d="m 66.968,83.359 43.937,0 0,46.165 -43.937,0 0,-46.165 z"
         id="path2996" />
    </clipPath>
    <clipPath
       clipPathUnits="userSpaceOnUse"
       id="clipPath2948">
      <path
         d="m 64.842,81.638 48.19,0 0,52.087 -48.19,0 0,-52.087 z"
         id="path2950" />
    </clipPath>
    <inkscape:perspective
       id="perspective5187"
       inkscape:persp3d-origin="0.5 : 0.33333333 : 1"
       inkscape:vp_z="1 : 0.5 : 1"
       inkscape:vp_y="0 : 1000 : 0"
       inkscape:vp_x="0 : 0.5 : 1"
       sodipodi:type="inkscape:persp3d" />
    <clipPath
       clipPathUnits="userSpaceOnUse"
       id="clipPath3062">
      <path
         d="m 187.795,83.359 43.937,0 0,46.165 -43.937,0 0,-46.165 z"
         id="path3064" />
    </clipPath>
    <clipPath
       clipPathUnits="userSpaceOnUse"
       id="clipPath3050">
      <path
         d="m 188.6,84.317 42.329,0 0,44.248 -42.329,0 0,-44.248 z"
         id="path3052" />
    </clipPath>
    <clipPath
       clipPathUnits="userSpaceOnUse"
       id="clipPath3004">
      <path
         d="m 185.669,81.638 48.19,0 0,52.087 -48.19,0 0,-52.087 z"
         id="path3006" />
    </clipPath>
  </defs>
  <sodipodi:namedview
     id="base"
     pagecolor="#ffffff"
     bordercolor="#666666"
     borderopacity="1.0"
     inkscape:pageopacity="0.0"
     inkscape:pageshadow="2"
     inkscape:zoom="0.99687461"
     inkscape:cx="-10.471584"
     inkscape:cy="117.6613"
     inkscape:document-units="px"
     inkscape:current-layer="layer1"
     showgrid="false"
     inkscape:window-width="1600"
     inkscape:window-height="838"
     inkscape:window-x="-8"
     inkscape:window-y="-8"
     inkscape:window-maximized="1" />
  <metadata
     id="metadata4210">
    <rdf:RDF>
      <cc:Work
         rdf:about="">
        <dc:format>image/svg+xml</dc:format>
        <dc:type
           rdf:resource="http://purl.org/dc/dcmitype/StillImage" />
        <dc:title></dc:title>
      </cc:Work>
    </rdf:RDF>
  </metadata>
  <g
     inkscape:label="Livello 1"
     inkscape:groupmode="layer"
     id="layer1"
     transform="translate(-144.31364,-412.32177)">
    <path
       d="m 145.81364,688.17602 262.46259,0 0,-274.35425 -262.46259,0 0,274.35425 z"
       style="fill:#ffffff;fill-opacity:1;stroke:#000000;stroke-width:3;stroke-linecap:butt;stroke-linejoin:miter;stroke-miterlimit:10;stroke-opacity:1;stroke-dasharray:none"
       id="path3066" />
    <g
       transform="matrix(6.2005385,0,0,-6.2005161,-1023.6079,1210.9849)"
       id="g3000">
      <g
         id="g3002"
         clip-path="url(#clipPath3004)">
        <g
           id="g3008"
           transform="translate(209.76151,91.218903)">
          <path
             d="m 0,0 c 7.394,0 13.48,6.059 13.48,13.452 0,7.419 -6.086,13.481 -13.48,13.481 -7.417,0 -13.48,-6.062 -13.48,-13.481 C -13.48,6.059 -7.417,0 0,0"
             style="fill:#ffffff;fill-opacity:1;fill-rule:evenodd;stroke:none"
             id="path3010" />
        </g>
        <g
           id="g3012"
           transform="translate(209.76151,91.216003)">
          <path
             d="m 0,0 c 7.397,0 13.48,6.062 13.48,13.455 0,7.419 -6.083,13.478 -13.48,13.478 -7.417,0 -13.477,-6.059 -13.477,-13.478 C -13.477,6.062 -7.417,0 0,0 m 0,-3.361 c 9.268,0 16.842,7.574 16.842,16.816 0,9.269 -7.574,16.842 -16.842,16.842 -9.262,0 -16.839,-7.573 -16.839,-16.842 0,-9.242 7.577,-16.816 16.839,-16.816"
             style="fill:#939598;fill-opacity:1;fill-rule:evenodd;stroke:none"
             id="path3014" />
        </g>
        <g
           id="g3016"
           transform="translate(220.01891,92.789001)">
          <path
             d="m 0,0 -22.38,21.878 1.868,1.913 L 1.871,1.913 0,0 z"
             style="fill:#939598;fill-opacity:1;fill-rule:nonzero;stroke:none"
             id="path3018" />
        </g>
        <g
           id="g3020"
           transform="translate(201.4856,123.7493)">
          <path
             d="m 0,0 0,2.896 -1.185,0 0,-2.896 -0.801,0 0,3.618 2.777,0 L 0.791,0 0,0 z"
             style="fill:#000000;fill-opacity:1;fill-rule:nonzero;stroke:none"
             id="path3022" />
        </g>
        <g
           id="g3024"
           transform="translate(203.0041,123.7493)">
          <path
             d="m 0,0 0,3.618 2.557,0 0,-0.717 -1.756,0 0,-0.733 1.496,0 0,-0.691 -1.496,0 0,-0.76 1.756,0 L 2.557,0 0,0 z"
             style="fill:#000000;fill-opacity:1;fill-rule:nonzero;stroke:none"
             id="path3026" />
        </g>
        <g
           id="g3028"
           transform="translate(207.995,126.2186)">
          <path
             d="m 0,0 c 0,0.146 -0.044,0.254 -0.131,0.325 -0.085,0.071 -0.208,0.107 -0.368,0.107 l -0.65,0 0,-0.863 0.67,0 0.338,0.116 L 0,0 z M 0.811,-0.016 C 0.811,-0.178 0.777,-0.329 0.712,-0.468 0.645,-0.607 0.557,-0.726 0.444,-0.827 0.332,-0.928 0.199,-1.006 0.046,-1.063 -0.106,-1.12 -0.268,-1.149 -0.442,-1.149 l -0.707,0 0,-1.32 -0.8,0 0,3.618 1.491,0 c 0.191,0 0.364,-0.027 0.52,-0.081 C 0.218,1.015 0.351,0.937 0.463,0.837 0.573,0.736 0.658,0.614 0.719,0.471 0.78,0.326 0.811,0.165 0.811,-0.016"
             style="fill:#000000;fill-opacity:1;fill-rule:nonzero;stroke:none"
             id="path3030" />
        </g>
        <path
           d="m 209.228,123.749 0.801,0 0,3.618 -0.801,0 0,-3.618 z"
           style="fill:#000000;fill-opacity:1;fill-rule:nonzero;stroke:none"
           id="path3032" />
        <g
           id="g3034"
           transform="translate(211.9807,126.645)">
          <path
             d="m 0,0 -0.261,-0.05 -0.183,-0.132 -0.11,-0.19 -0.036,-0.215 0,-0.983 0.036,-0.229 0.11,-0.192 0.183,-0.135 L 0,-2.178 c 0.194,0 0.345,0.058 0.451,0.174 0.106,0.116 0.16,0.261 0.16,0.434 l 0,0.983 c 0,0.158 -0.054,0.296 -0.16,0.412 C 0.345,-0.059 0.194,0 0,0 M 0.007,0.748 C 0.226,0.748 0.422,0.713 0.598,0.642 0.772,0.571 0.921,0.473 1.044,0.348 1.168,0.223 1.262,0.074 1.327,-0.099 1.394,-0.273 1.426,-0.46 1.426,-0.661 l 0,-0.852 c 0,-0.215 -0.034,-0.41 -0.1,-0.585 C 1.258,-2.273 1.162,-2.422 1.038,-2.545 0.917,-2.668 0.767,-2.762 0.592,-2.828 0.418,-2.894 0.222,-2.927 0.007,-2.927 c -0.235,0 -0.441,0.039 -0.616,0.115 -0.174,0.076 -0.321,0.179 -0.437,0.309 -0.116,0.129 -0.201,0.28 -0.259,0.452 -0.057,0.171 -0.086,0.351 -0.086,0.538 l 0,0.852 c 0,0.187 0.029,0.366 0.086,0.536 0.058,0.17 0.143,0.319 0.259,0.45 0.116,0.13 0.263,0.233 0.437,0.309 0.175,0.076 0.381,0.114 0.616,0.114"
             style="fill:#000000;fill-opacity:1;fill-rule:nonzero;stroke:none"
             id="path3036" />
        </g>
        <g
           id="g3038"
           transform="translate(215.9635,123.7493)">
          <path
             d="M 0,0 -0.722,1.175 -1.439,0 l -0.905,0 1.227,1.851 -1.159,1.767 0.91,0 0.644,-1.086 0.65,1.086 0.909,0 L -0.322,1.851 0.911,0 0,0 z"
             style="fill:#000000;fill-opacity:1;fill-rule:nonzero;stroke:none"
             id="path3040" />
        </g>
        <g
           id="g3042"
           transform="translate(219.23849,123.7493)">
          <path
             d="m 0,0 0,1.477 -1.185,0 0,-1.477 -0.801,0 0,3.618 0.801,0 0,-1.45 1.185,0 0,1.45 0.79,0 L 0.79,0 0,0 z"
             style="fill:#000000;fill-opacity:1;fill-rule:nonzero;stroke:none"
             id="path3044" />
        </g>
      </g>
    </g>
    <g
       transform="matrix(6.2005385,0,0,-6.2005161,-1023.6079,1210.9849)"
       id="g3046">
      <g
         id="g3048"
         clip-path="url(#clipPath3050)">
        <g
           id="g3054"
           transform="translate(233.0014,128.01421)">
          <path
             d="m 0,0 -44.855,-47.344 -3.236,3.065 L -3.234,3.064 0,0 z"
             style="fill:#000000;fill-opacity:1;fill-rule:evenodd;stroke:none"
             id="path3056" />
        </g>
      </g>
    </g>
  </g>
</svg>
