<svg width="361" height="319" fill="none" xmlns="http://www.w3.org/2000/svg"><path fill-rule="evenodd" clip-rule="evenodd" d="M23.978 318.1c-8.586 0-16.457-4.522-20.688-11.906a23.93 23.93 0 0 1 0-23.875L159.446 11.975A23.766 23.766 0 0 1 180.04.1h.187a23.766 23.766 0 0 1 20.594 11.875l156.157 270.344a23.933 23.933 0 0 1 0 23.875c-4.231 7.384-12.102 11.906-20.688 11.906H23.978z" fill="#EC1D24"/><path fill-rule="evenodd" clip-rule="evenodd" d="M37.755 286.283h284.758L180.134 39.806 37.755 286.284z" fill="#fff"/><path d="M118 250.834 140.268 273 180 233.449 219.732 273 242 250.834l-39.732-39.551 39.295-39.117L219.296 150 180 189.117 140.704 150l-22.267 22.166 39.295 39.117L118 250.834z" fill="#000"/></svg>