<svg xmlns="http://www.w3.org/2000/svg" width="214.453" height="214.314"><path style="fill:#fff;fill-opacity:1;fill-rule:evenodd;stroke:none" d="M1.406 606.657c47.078 0 85.819-38.577 85.819-85.655 0-47.235-38.741-85.831-85.82-85.831-47.241 0-85.83 38.596-85.83 85.831 0 47.078 38.589 85.655 85.83 85.655" transform="translate(105.811 -413.763)"/><path style="fill:#ed1d24;fill-opacity:1;fill-rule:evenodd;stroke:none" d="M1.406 606.673c47.09 0 85.819-38.59 85.819-85.668 0-47.242-38.729-85.818-85.82-85.818-47.241 0-85.818 38.576-85.818 85.818 0 47.078 38.577 85.668 85.819 85.668m0 21.404c59.003 0 107.236-48.232 107.236-107.072 0-59.022-48.233-107.242-107.236-107.242-58.991 0-107.217 48.22-107.217 107.242 0 58.84 48.226 107.072 107.217 107.072" transform="translate(105.811 -413.763)"/><path style="fill:#000;fill-opacity:1;fill-rule:evenodd;stroke:none" d="M0 0v1.875h2.944v1.059L4.561.939 2.944-1.059V0H0z" transform="matrix(6.35643 0 0 -6.35643 144.178 148.348)"/><path style="fill:#000;fill-opacity:1;fill-rule:evenodd;stroke:none" d="M0 0v-1.875h-2.944v-1.059L-4.561-.939l1.617 1.998V0H0z" transform="matrix(6.35643 0 0 -6.35643 69.934 136.453)"/><path style="fill:#000;fill-opacity:1;fill-rule:evenodd;stroke:none" d="M0 0c.874 0 1.584-.711 1.584-1.584a1.588 1.588 0 1 0-3.175 0C-1.591-.711-.886 0 0 0" transform="matrix(6.35643 0 0 -6.35643 59.223 98.76)"/><path style="fill:#000;fill-opacity:1;fill-rule:evenodd;stroke:none" d="M0 0c.872 0 1.582-.711 1.582-1.584a1.587 1.587 0 1 0-3.176 0C-1.594-.711-.888 0 0 0" transform="matrix(6.35643 0 0 -6.35643 140.282 98.76)"/><path style="fill:#000;fill-opacity:1;fill-rule:evenodd;stroke:none" d="M0 0h.757a2.14 2.14 0 0 0 4.226 0h8.524a2.142 2.142 0 0 0 2.121 1.801A2.135 2.135 0 0 0 17.733 0l1.024 1.295v.299h1.537v6.489H5.763V1.594h6.218v-.299H4.748l.071 4.199H1.852L0 1.295V0z" transform="matrix(6.35643 0 0 -6.35643 40.943 106.694)"/><path style="fill:#fff;fill-opacity:1;fill-rule:evenodd;stroke:none" d="M0 0a.586.586 0 1 0-.004-1.172A.586.586 0 0 0 0 0m-12.75 0a.58.58 0 0 0 .581-.582.583.583 0 1 0-1.167 0c0 .322.26.582.586.582m-.764 4.766h2.152V3.027h-2.761l.609 1.739z" transform="matrix(6.35643 0 0 -6.35643 140.252 105.152)"/><path style="fill:#000;fill-opacity:1;fill-rule:evenodd;stroke:none" d="M0 0v-1.248h-1.577L-.787 0H0z" transform="matrix(6.35643 0 0 -6.35643 163.685 98.76)"/><path style="fill:#000;fill-opacity:1;fill-rule:nonzero;stroke:none" d="m0 0-.656-.482v.65L0 .642h.619v-4.345H0V0z" transform="matrix(6.35643 0 0 -6.35643 80.467 131.543)"/><path style="fill:#000;fill-opacity:1;fill-rule:nonzero;stroke:none" d="M0 0c-.375 0-.625-.25-.625-.674v-1.848c0-.425.25-.675.625-.675s.619.25.619.675v1.848C.619-.25.375 0 0 0m-1.242-2.559v1.923C-1.242.169-.643.612 0 .612c.642 0 1.235-.443 1.235-1.248v-1.923c0-.794-.593-1.249-1.235-1.249-.643 0-1.242.455-1.242 1.249" transform="matrix(6.35643 0 0 -6.35643 97.882 131.112)"/><path style="fill:#000;fill-opacity:1;fill-rule:nonzero;stroke:none" d="M0 0c0 .398-.247.623-.577.623-.339 0-.576-.225-.576-.623v-1.702h-.571V0c0 .398-.247.623-.576.623-.341 0-.578-.225-.578-.623v-1.702h-.57v2.861h.57V.853h.019c.184.225.431.335.75.335.403 0 .61-.161.812-.375.248.271.519.375.911.375A.955.955 0 0 0 .566.202v-1.904H0V0z" transform="matrix(6.35643 0 0 -6.35643 131.835 144.266)"/></svg>