<svg xmlns="http://www.w3.org/2000/svg" width="213.063" height="213.07"><defs><clipPath clipPathUnits="userSpaceOnUse" id="a"><path d="M117.545 441.384c-5.026-7.03-3.402-16.804 3.628-21.829 7.031-5.027 16.804-3.4 21.83 3.63 5.024 7.028 3.4 16.801-3.631 21.826a15.57 15.57 0 0 1-9.087 2.92c-4.88 0-9.688-2.276-12.74-6.547"/></clipPath><clipPath clipPathUnits="userSpaceOnUse" id="b"><path d="M0 0h311v595H0V0z"/></clipPath></defs><g style="fill:#fff;fill-opacity:1;stroke:#000;stroke-width:.31587699;stroke-miterlimit:4;stroke-opacity:1;stroke-dasharray:none"><path d="M0 0c0-9.206-7.462-16.668-16.666-16.668-9.206 0-16.669 7.462-16.669 16.668 0 9.205 7.463 16.668 16.669 16.668C-7.462 16.668 0 9.205 0 0z" style="fill:#fff;fill-opacity:1;stroke:#000;stroke-width:.31587699;stroke-linecap:butt;stroke-linejoin:miter;stroke-miterlimit:4;stroke-opacity:1;stroke-dasharray:none" transform="matrix(6.33158 0 0 -6.33158 212.063 106.535)"/></g><path d="M0 0c-.874-1.718-3.03-2.895-5.271-2.895-2.651 0-5.679 1.251-6.147 4.81h3.438c.349-1.301 1.224-1.94 2.591-1.94 1.311 0 1.896.49 2.216 1.178.26.663.26 1.424.26 2.111 0 1.742-.466 2.92-2.563 2.92-.961 0-1.658-.319-2.358-1.375h-3.175v9.45H-.747v-2.895h-6.972V8.245c.905.614 1.776.809 2.856.809 2.095 0 3.989-.98 4.863-2.575.408-.76.552-1.718.552-3.386C.552 1.619.376.761 0 0" style="fill:#939598;fill-opacity:1;fill-rule:nonzero;stroke:none" transform="matrix(6.33158 0 0 -6.33158 96.96 142.899)"/><path d="M0 0c0 1.471-.99 2.257-2.475 2.257-1.484 0-2.473-.786-2.473-2.257v-6.995c0-1.473.989-2.283 2.473-2.283C-.99-9.278 0-8.468 0-6.995V0zm-2.475-12.148c-3.056 0-5.913 1.791-5.913 5.005V.122c0 3.214 2.857 5.006 5.913 5.006 3.059 0 5.941-1.792 5.941-5.006v-7.265c0-3.214-2.882-5.005-5.941-5.005" style="fill:#939598;fill-opacity:1;fill-rule:nonzero;stroke:none" transform="matrix(6.33158 0 0 -6.33158 166.453 84.312)"/><g clip-path="url(#a)" transform="matrix(6.33158 0 0 -6.33158 -718.299 2843.571)"><g clip-path="url(#b)"><path d="m0 0-19.89-27.821-1.139.814L-1.139.814 0 0z" style="fill:#000;fill-opacity:1;fill-rule:nonzero;stroke:none" transform="translate(138.266 446.976)"/><path d="m0 0-19.89-27.822-1.139.815L-1.139.814 0 0z" style="fill:#000;fill-opacity:1;fill-rule:nonzero;stroke:none" transform="translate(139.928 445.788)"/><path d="m0 0-19.89-27.822-1.139.815L-1.14.814 0 0z" style="fill:#000;fill-opacity:1;fill-rule:nonzero;stroke:none" transform="translate(141.59 444.6)"/></g></g></svg>