<svg xmlns="http://www.w3.org/2000/svg" width="198.198" height="331.013"><defs><clipPath clipPathUnits="userSpaceOnUse" id="b"><path d="M224.645 53.859h54.567v86.456h-54.567V53.859z"/></clipPath><clipPath clipPathUnits="userSpaceOnUse" id="a"><path d="M0 0h311v595H0V0z"/></clipPath></defs><g clip-path="url(#a)" transform="matrix(4.5197 0 0 -4.5197 -1038.112 610.215)"><path d="M229.801 91.172h43.623v43.726h-43.623V91.172z" style="fill:#007ac2;fill-opacity:1;fill-rule:nonzero;stroke:#000;stroke-width:.22899789;stroke-linecap:butt;stroke-linejoin:miter;stroke-miterlimit:10;stroke-opacity:1;stroke-dasharray:none"/><path d="M229.801 76.526h43.623v14.646h-43.623V76.526z" style="fill:#ffdb00;fill-opacity:1;fill-rule:nonzero;stroke:#000;stroke-width:.22899789;stroke-linecap:butt;stroke-linejoin:miter;stroke-miterlimit:10;stroke-opacity:1;stroke-dasharray:none"/><path d="M232.148 104.815h38.377v14.609h-38.377v-14.609z" style="fill:#fff;fill-opacity:1;fill-rule:nonzero;stroke:none"/><path d="M229.801 61.889h43.623v14.637h-43.623V61.889z" style="fill:#ffdb00;fill-opacity:1;fill-rule:nonzero;stroke:#000;stroke-width:.22899789;stroke-linecap:butt;stroke-linejoin:miter;stroke-miterlimit:10;stroke-opacity:1;stroke-dasharray:none"/><path d="M0 0h2.679v-.646H.768v-3.159H0V0z" style="fill:#000;fill-opacity:1;fill-rule:nonzero;stroke:none" transform="translate(237.684 88.361)"/></g><g clip-path="url(#b)" transform="matrix(4.5197 0 0 -4.5197 -1038.112 610.215)"><path d="M0 0v-1.079h.421c.302 0 .505.019.607.059a.505.505 0 0 1 .327.483.492.492 0 0 1-.122.342.527.527 0 0 1-.309.169A3.738 3.738 0 0 1 .371 0H0zm-.768-3.162V.644H.465c.467 0 .771-.019.913-.057a.995.995 0 0 0 .548-.373c.147-.191.221-.438.221-.741 0-.233-.043-.43-.128-.589a1.035 1.035 0 0 0-.323-.375 1.116 1.116 0 0 0-.398-.181 4.43 4.43 0 0 0-.797-.054H0v-1.436h-.768z" style="fill:#000;fill-opacity:1;fill-rule:nonzero;stroke:none" transform="translate(241.74 87.718)"/><path d="M243.939 84.556h.729v.73h-.729v-.73z" style="fill:#000;fill-opacity:1;fill-rule:nonzero;stroke:none"/><path d="m0 0-.857 2.277L-1.687 0H0zm1.083-.641h-3.819l1.482 3.805h.813L1.083-.641z" style="fill:#000;fill-opacity:1;fill-rule:nonzero;stroke:none" transform="translate(247.877 85.197)"/><path d="M249.432 84.556h.768v3.805h-.768v-3.805z" style="fill:#000;fill-opacity:1;fill-rule:nonzero;stroke:none"/><path d="M0 0h2.679v-.646H.768v-3.159H0V0z" style="fill:#000;fill-opacity:1;fill-rule:nonzero;stroke:none" transform="translate(251.051 88.361)"/><path d="M0 0v3.805h2.822v-.643H.768v-.844h1.911v-.641H.768V.641h2.126V0H0z" style="fill:#000;fill-opacity:1;fill-rule:nonzero;stroke:none" transform="translate(254.34 84.556)"/><path d="M0 0v3.805h.748l1.557-2.541v2.541h.714V0h-.771L.714 2.482V0H0z" style="fill:#000;fill-opacity:1;fill-rule:nonzero;stroke:none" transform="translate(258 84.556)"/><path d="M0 0v3.805h.768V2.307h1.506v1.498h.768V0h-.768v1.664H.768V0H0z" style="fill:#000;fill-opacity:1;fill-rule:nonzero;stroke:none" transform="translate(261.94 84.556)"/><path d="M0 0v-.704h-2.656c.029.266.115.519.259.756.144.239.428.555.852.948.342.318.551.534.628.647a.84.84 0 0 1 .157.464c0 .169-.046.299-.137.39a.506.506 0 0 1-.376.136.5.5 0 0 1-.377-.143c-.094-.095-.148-.253-.162-.474l-.755.075c.045.417.186.716.424.898.237.182.533.272.889.272.39 0 .697-.105.92-.315A1.04 1.04 0 0 0 0 2.165c0-.178-.032-.347-.096-.508a2.067 2.067 0 0 0-.303-.506A4.951 4.951 0 0 0-.895.647 8.09 8.09 0 0 1-1.35.21L-1.504 0H0z" style="fill:#000;fill-opacity:1;fill-rule:nonzero;stroke:none" transform="translate(246.178 78.633)"/><path d="M0 0c0-.247.057-.436.17-.57.113-.134.242-.201.388-.201.14 0 .257.055.351.164.093.11.14.29.14.54 0 .257-.051.445-.151.564a.474.474 0 0 1-.378.18.475.475 0 0 1-.369-.171C.05.391 0 .223 0 0m1.717 1.653-.733-.081c-.018.151-.065.262-.14.334a.41.41 0 0 1-.294.108.497.497 0 0 1-.406-.216c-.11-.144-.18-.443-.209-.898a.888.888 0 0 0 .704.335c.316 0 .587-.12.813-.361.225-.242.338-.552.338-.933 0-.405-.118-.729-.356-.974-.237-.244-.542-.366-.914-.366-.399 0-.727.154-.984.465-.257.31-.385.818-.385 1.524 0 .725.133 1.247.401 1.567.268.32.616.48 1.044.48.3 0 .548-.084.745-.252.197-.168.322-.412.376-.732" style="fill:#000;fill-opacity:1;fill-rule:nonzero;stroke:none" transform="translate(247.65 79.262)"/><path d="M0 0h.758v-.542c0-.219-.019-.393-.057-.519a.778.778 0 0 0-.214-.341 1.092 1.092 0 0 0-.401-.237l-.148.312c.153.051.262.12.326.208a.626.626 0 0 1 .103.361H0V0z" style="fill:#000;fill-opacity:1;fill-rule:nonzero;stroke:none" transform="translate(250.125 78.688)"/><path d="M0 0v-.704h-2.656c.029.266.115.519.259.756.144.239.428.555.852.948.342.318.551.534.628.647a.84.84 0 0 1 .157.464c0 .169-.046.299-.136.39a.51.51 0 0 1-.377.136.5.5 0 0 1-.377-.143c-.093-.095-.147-.253-.162-.474l-.755.075c.045.417.186.716.424.898.237.182.533.272.889.272.39 0 .697-.105.92-.315.223-.211.334-.472.334-.785 0-.178-.032-.347-.096-.508a2.067 2.067 0 0 0-.303-.506A4.951 4.951 0 0 0-.895.647 7.594 7.594 0 0 1-1.349.21L-1.504 0H0z" style="fill:#000;fill-opacity:1;fill-rule:nonzero;stroke:none" transform="translate(255.83 78.633)"/><path d="M0 0v.704h2.591v-.55c-.214-.211-.431-.513-.652-.906a5.287 5.287 0 0 1-.506-1.256 4.629 4.629 0 0 1-.171-1.187H.531c.013.546.126 1.104.338 1.672.214.567.498 1.075.854 1.523H0z" style="fill:#000;fill-opacity:1;fill-rule:nonzero;stroke:none" transform="translate(256.452 81.125)"/><path d="M0 0h2.635v-.644H.947l.984-1.173L.846-3.164h1.869v-.641H-.049v.711l1.02 1.277L0-.685V0z" style="fill:#000;fill-opacity:1;fill-rule:nonzero;stroke:none" transform="translate(239.56 73.59)"/><path d="m0 0 1.3 1.986L.122 3.805h.898l.763-1.222.748 1.222h.89L2.237 1.957 3.538 0h-.927l-.843 1.316L.921 0H0z" style="fill:#000;fill-opacity:1;fill-rule:nonzero;stroke:none" transform="translate(242.574 69.785)"/><path d="M0 0c0-.431.099-.758.299-.98a.972.972 0 0 1 .757-.333c.307 0 .558.11.754.331.197.22.295.551.295.992 0 .437-.096.762-.287.976-.191.215-.445.322-.762.322C.74 1.308.484 1.2.291.983.097.765 0 .438 0 0m-.792-.026c0 .388.058.713.174.976.087.194.205.368.355.522.149.154.313.268.491.343.237.1.511.15.821.15.56 0 1.009-.174 1.346-.521.336-.348.505-.832.505-1.452 0-.614-.168-1.095-.501-1.441-.335-.348-.781-.521-1.34-.521-.566 0-1.016.173-1.35.518-.334.345-.501.821-.501 1.426" style="fill:#000;fill-opacity:1;fill-rule:nonzero;stroke:none" transform="translate(247.249 71.69)"/><path d="m0 0 1.36-3.805H.527L-.436-.992l-.932-2.813h-.815L-.82 0H0z" style="fill:#000;fill-opacity:1;fill-rule:nonzero;stroke:none" transform="translate(252.507 73.59)"/><path d="M254.34 69.786h.768v3.805h-.768v-3.805z" style="fill:#000;fill-opacity:1;fill-rule:nonzero;stroke:none"/><path d="M0 0v3.805h.768V2.116l1.553 1.689h1.033L1.921 2.323 3.432 0h-.995L1.391 1.786.768 1.15V0H0z" style="fill:#000;fill-opacity:1;fill-rule:nonzero;stroke:none" transform="translate(255.957 69.785)"/><path d="M0 0c0-.431.099-.758.299-.98a.972.972 0 0 1 .758-.333c.306 0 .557.11.754.331.196.22.294.551.294.992 0 .437-.096.762-.287.976-.191.215-.445.322-.761.322C.74 1.308.484 1.2.291.983.097.765 0 .438 0 0m-.792-.026c0 .388.058.713.174.976.087.194.205.368.355.522.149.154.313.268.491.343.237.1.511.15.821.15.56 0 1.009-.174 1.346-.521.336-.348.505-.832.505-1.452 0-.614-.167-1.095-.501-1.441-.335-.348-.781-.521-1.34-.521-.566 0-1.016.173-1.35.518-.334.345-.501.821-.501 1.426" style="fill:#000;fill-opacity:1;fill-rule:nonzero;stroke:none" transform="translate(260.284 71.69)"/><path d="m0 0-.89 2.365L-1.753 0H0zm1.124-.666h-3.966l1.54 3.953h.844L1.124-.666z" style="fill:#000;fill-opacity:1;fill-rule:nonzero;stroke:none" transform="translate(245.43 63.825)"/><path d="M0 0h-.758v2.855a2.605 2.605 0 0 0-.978-.574v.688c.197.064.412.187.644.368.232.18.391.391.477.632H0V0z" style="fill:#000;fill-opacity:1;fill-rule:nonzero;stroke:none" transform="translate(248.842 63.159)"/><path d="M0 0h.758v-.542c0-.219-.019-.393-.057-.519a.778.778 0 0 0-.214-.341 1.092 1.092 0 0 0-.401-.237l-.148.312c.153.051.262.12.326.208a.626.626 0 0 1 .103.361H0V0z" style="fill:#000;fill-opacity:1;fill-rule:nonzero;stroke:none" transform="translate(250.227 63.917)"/><path d="m0 0-.89 2.365L-1.753 0H0zm1.124-.666h-3.966l1.54 3.953h.844L1.124-.666z" style="fill:#000;fill-opacity:1;fill-rule:nonzero;stroke:none" transform="translate(255.776 63.825)"/><path d="M0 0v-.704h-2.656c.029.266.115.519.259.756.144.239.428.555.852.948.342.319.551.534.628.647a.833.833 0 0 1 .157.464c0 .169-.046.299-.137.39a.506.506 0 0 1-.376.136.5.5 0 0 1-.377-.143c-.093-.095-.147-.253-.162-.474l-.755.075c.045.417.186.716.424.898.237.182.533.272.889.272.39 0 .697-.105.92-.315A1.04 1.04 0 0 0 0 2.165c0-.178-.032-.347-.096-.508a2.067 2.067 0 0 0-.303-.506A4.951 4.951 0 0 0-.895.647 7.594 7.594 0 0 1-1.349.21L-1.504 0H0z" style="fill:#000;fill-opacity:1;fill-rule:nonzero;stroke:none" transform="translate(259.807 63.863)"/><path d="M0 0a2.07 2.07 0 1 1-.002 4.136A2.07 2.07 0 0 1 0 0" style="fill:#000;fill-opacity:1;fill-rule:evenodd;stroke:none" transform="translate(242.405 106.829)"/><path d="M0 0a2.07 2.07 0 1 1 0 4.14A2.07 2.07 0 0 1 0 0" style="fill:#000;fill-opacity:1;fill-rule:evenodd;stroke:none" transform="translate(260.03 106.829)"/><path d="M0 0h31.916v-2.7l-5.202-1.102.005.176a2.596 2.596 0 1 1-5.191 0l.006-.176H9.087l.008.176a2.595 2.595 0 1 1-5.191 0l.004-.176H0V0z" style="fill:#000;fill-opacity:1;fill-rule:evenodd;stroke:none" transform="translate(235.906 112.524)"/><path d="M0 0h4.966L5-.274l.49-3.829.045-.35H-26.318l.051.355.566 3.83.039.268H0z" style="fill:#000;fill-opacity:1;fill-rule:evenodd;stroke:none" transform="translate(262.236 117.452)"/><path d="M0 0a.676.676 0 1 1 .002 1.352A.676.676 0 0 1 0 0m-17.624 0a.677.677 0 1 1 0 1.353.677.677 0 0 1 0-1.353zM6.598 8.606H2.207V5.401h4.8l-.409 3.205zm-5.039 0h-4.844V5.401h4.844v3.205zm-5.493 0h-4.844V5.401h4.844v3.205zm-5.491 0h-4.842V5.401h4.842v3.205zm-5.492 0h-4.844V5.401h4.844v3.205zm-5.49 0h-2.487l-.471-3.205h2.958v3.205z" style="fill:#fff;fill-opacity:1;fill-rule:evenodd;stroke:none" transform="translate(260.03 108.222)"/><path d="M0 0a.368.368 0 0 0-.368-.368h-.724A.368.368 0 0 0-1.46 0v3.066c0 .203.165.368.368.368h.724A.368.368 0 0 0 0 3.066V0z" style="fill:#000;fill-opacity:1;fill-rule:evenodd;stroke:none" transform="translate(236.864 109.09)"/><path d="m0 0-.134-.66 4.027-.198v4.956H1.19L0 0z" style="fill:#000;fill-opacity:1;fill-rule:evenodd;stroke:none" transform="translate(235.917 112.999)"/><path d="M0 0c0-.221-.203-.4-.452-.4h-.908c-.25 0-.452.179-.452.4v6.553c0 .222.202.401.452.401h.908c.249 0 .452-.179.452-.401V0z" style="fill:#fff;fill-opacity:1;fill-rule:evenodd;stroke:none" transform="translate(239.028 109.873)"/><path d="m0 0-.109-1.027 28.255-.199-.052.859L0 0z" style="fill:#000;fill-opacity:1;fill-rule:evenodd;stroke:none" transform="translate(239.676 113.366)"/></g></svg>