<svg xmlns="http://www.w3.org/2000/svg" width="210.878" height="210.878"><defs><clipPath clipPathUnits="userSpaceOnUse" id="a"><path d="M53.49 339.448c0-9.205 7.462-16.667 16.668-16.667 9.204 0 16.667 7.462 16.667 16.667 0 9.205-7.463 16.668-16.667 16.668-9.206 0-16.668-7.463-16.668-16.668"/></clipPath><clipPath clipPathUnits="userSpaceOnUse" id="b"><path d="M0 0h311v595H0V0z"/></clipPath></defs><path style="fill:#fff;fill-opacity:1;stroke:#000;stroke-width:1.89999998;stroke-linecap:butt;stroke-linejoin:miter;stroke-miterlimit:10;stroke-opacity:1;stroke-dasharray:none" d="M565.275 532.556c0 57.713-46.78 104.493-104.48 104.493-57.713 0-104.499-46.78-104.499-104.493 0-57.7 46.786-104.486 104.5-104.486 57.7 0 104.479 46.786 104.479 104.486z" transform="translate(-355.346 -427.12)"/><path d="M0 0a.369.369 0 0 0-.368-.369h-8.711A.368.368 0 0 0-9.446 0v1.879c0 .203.165.367.367.367h8.711A.367.367 0 0 0 0 1.879V0z" style="fill:#000;fill-opacity:1;fill-rule:nonzero;stroke:none" transform="matrix(6.26904 0 0 -6.26904 72.388 115.49)"/><path d="M0 0c0-.217-.165-.394-.368-.394H-.99c-.203 0-.368.177-.368.394v1.34c0 .217.165.394.368.394h.622c.203 0 .368-.177.368-.394V0z" style="fill:#000;fill-opacity:1;fill-rule:nonzero;stroke:none" transform="matrix(6.26904 0 0 -6.26904 68.832 126.51)"/><path d="M0 0c0-.217-.165-.394-.368-.394H-.99c-.203 0-.368.177-.368.394v1.34c0 .217.165.394.368.394h.622c.203 0 .368-.177.368-.394V0z" style="fill:#000;fill-opacity:1;fill-rule:nonzero;stroke:none" transform="matrix(6.26904 0 0 -6.26904 24.863 126.51)"/><path d="M0 0h6.183L7.42-2.697h-8.615L0 0z" style="fill:#000;fill-opacity:1;fill-rule:nonzero;stroke:none" transform="matrix(6.26904 0 0 -6.26904 147.498 82.04)"/><path d="m0 0-.852-1.865h7.318L5.696 0H0z" style="fill:#fdfefc;fill-opacity:1;fill-rule:nonzero;stroke:none" transform="matrix(6.26904 0 0 -6.26904 149.408 85.09)"/><g clip-path="url(#a)" transform="matrix(6.26904 0 0 -6.26904 -334.377 2233.455)"><g clip-path="url(#b)"><path style="fill:#939598;fill-opacity:1;fill-rule:evenodd;stroke:none" d="m0 0-26.883-25.967-3.629 3.758L-3.629 3.757 0 0z" transform="translate(86.167 351.421)"/></g></g><path d="M0 0a.369.369 0 0 0-.368-.369h-8.71A.369.369 0 0 0-9.446 0v1.879c0 .203.165.367.368.367h8.71A.367.367 0 0 0 0 1.879V0z" style="fill:#000;fill-opacity:1;fill-rule:nonzero;stroke:none" transform="matrix(6.26904 0 0 -6.26904 196.616 112.728)"/><path d="M0 0c0-.217-.165-.394-.368-.394H-.99c-.203 0-.368.177-.368.394v1.34c0 .217.165.394.368.394h.622c.203 0 .368-.177.368-.394V0z" style="fill:#000;fill-opacity:1;fill-rule:nonzero;stroke:none" transform="matrix(6.26904 0 0 -6.26904 193.061 123.747)"/><path d="M0 0c0-.217-.165-.394-.368-.394H-.99c-.203 0-.368.177-.368.394v1.34c0 .217.165.394.368.394h.622c.203 0 .368-.177.368-.394V0z" style="fill:#000;fill-opacity:1;fill-rule:nonzero;stroke:none" transform="matrix(6.26904 0 0 -6.26904 149.092 123.747)"/><path style="fill:#000;fill-opacity:1;fill-rule:nonzero;stroke:none" d="M0 0h6.183L7.42-2.697h-8.615L0 0z" transform="matrix(6.26904 0 0 -6.26904 22.998 84.74)"/><path style="fill:#fdfefc;fill-opacity:1;fill-rule:nonzero;stroke:none" d="m0 0-.852-1.865h7.318L5.696 0H0z" transform="matrix(6.26904 0 0 -6.26904 24.908 87.79)"/></svg>