<?xml version="1.0" encoding="UTF-8" standalone="no"?>
<!-- Created with Inkscape (http://www.inkscape.org/) -->

<svg
   xmlns:dc="http://purl.org/dc/elements/1.1/"
   xmlns:cc="http://creativecommons.org/ns#"
   xmlns:rdf="http://www.w3.org/1999/02/22-rdf-syntax-ns#"
   xmlns:svg="http://www.w3.org/2000/svg"
   xmlns="http://www.w3.org/2000/svg"
   xmlns:sodipodi="http://sodipodi.sourceforge.net/DTD/sodipodi-0.dtd"
   xmlns:inkscape="http://www.inkscape.org/namespaces/inkscape"
   width="206.93901"
   height="322.99115"
   id="svg3949"
   version="1.1"
   inkscape:version="0.47 r22583"
   sodipodi:docname="Cyprus road sign bus stop.svg">
  <defs
     id="defs3951">
    <inkscape:perspective
       sodipodi:type="inkscape:persp3d"
       inkscape:vp_x="0 : 526.18109 : 1"
       inkscape:vp_y="0 : 1000 : 0"
       inkscape:vp_z="744.09448 : 526.18109 : 1"
       inkscape:persp3d-origin="372.04724 : 350.78739 : 1"
       id="perspective3957" />
    <inkscape:perspective
       id="perspective3866"
       inkscape:persp3d-origin="0.5 : 0.33333333 : 1"
       inkscape:vp_z="1 : 0.5 : 1"
       inkscape:vp_y="0 : 1000 : 0"
       inkscape:vp_x="0 : 0.5 : 1"
       sodipodi:type="inkscape:persp3d" />
    <clipPath
       clipPathUnits="userSpaceOnUse"
       id="clipPath3544">
      <path
         d="m 224.645,53.859 54.567,0 0,86.456 -54.567,0 0,-86.456 z"
         id="path3546" />
    </clipPath>
    <clipPath
       clipPathUnits="userSpaceOnUse"
       id="clipPath3524">
      <path
         d="M 0,0 311,0 311,595 0,595 0,0 z"
         id="path3526" />
    </clipPath>
    <inkscape:perspective
       id="perspective6206"
       inkscape:persp3d-origin="0.5 : 0.33333333 : 1"
       inkscape:vp_z="1 : 0.5 : 1"
       inkscape:vp_y="0 : 1000 : 0"
       inkscape:vp_x="0 : 0.5 : 1"
       sodipodi:type="inkscape:persp3d" />
    <clipPath
       clipPathUnits="userSpaceOnUse"
       id="clipPath4388">
      <path
         d="m 224.504,464.882 34.299,0 0,58.11 -34.299,0 0,-58.11 z"
         id="path4390" />
    </clipPath>
    <clipPath
       clipPathUnits="userSpaceOnUse"
       id="clipPath4374">
      <path
         d="M 0,0 311,0 311,595 0,595 0,0 z"
         id="path4376" />
    </clipPath>
  </defs>
  <sodipodi:namedview
     id="base"
     pagecolor="#ffffff"
     bordercolor="#666666"
     borderopacity="1.0"
     inkscape:pageopacity="0.0"
     inkscape:pageshadow="2"
     inkscape:zoom="0.83535156"
     inkscape:cx="588.39074"
     inkscape:cy="18.746312"
     inkscape:document-units="px"
     inkscape:current-layer="layer1"
     showgrid="false"
     inkscape:window-width="1600"
     inkscape:window-height="838"
     inkscape:window-x="-8"
     inkscape:window-y="-8"
     inkscape:window-maximized="1" />
  <metadata
     id="metadata3954">
    <rdf:RDF>
      <cc:Work
         rdf:about="">
        <dc:format>image/svg+xml</dc:format>
        <dc:type
           rdf:resource="http://purl.org/dc/dcmitype/StillImage" />
        <dc:title></dc:title>
      </cc:Work>
    </rdf:RDF>
  </metadata>
  <g
     inkscape:label="Livello 1"
     inkscape:groupmode="layer"
     id="layer1"
     transform="translate(213.39074,-180.23334)">
    <g
       transform="matrix(6.0333832,0,0,-6.0333832,-1567.9094,3321.3876)"
       id="g4370">
      <g
         id="g4372"
         clip-path="url(#clipPath4374)">
        <path
           d="m 224.504,467.095 34.299,0 0,53.534 -34.299,0 0,-53.534 z"
           style="fill:#007ac2;fill-opacity:1;fill-rule:nonzero;stroke:none"
           id="path4378" />
        <g
           id="g4380"
           transform="translate(248.9285,480.32111)">
          <path
             d="M 0,0 8.409,0 -7.147,27.232 -22.958,0 0,0 z"
             style="fill:#ffffff;fill-opacity:1;fill-rule:evenodd;stroke:none"
             id="path4382" />
        </g>
      </g>
    </g>
    <g
       transform="matrix(6.0333832,0,0,-6.0333832,-1567.9094,3321.3876)"
       id="g4384">
      <g
         id="g4386"
         clip-path="url(#clipPath4388)">
        <g
           id="g4392"
           transform="translate(240.84911,495.4845)">
          <path
             d="m 0,0 c -0.233,-0.569 -0.842,-1.176 -1.41,-1.652 -0.58,-0.467 -1.29,-0.756 -1.478,-0.814 -0.187,-0.056 -0.859,-0.203 -0.943,-0.203 -0.075,0 -0.188,-0.114 -0.264,-0.114 -0.081,0 -0.24,0.114 -0.289,0.317 -0.053,0.205 -0.204,0.843 0.106,0.897 0.315,0.048 0.336,-0.083 0.336,-0.083 0,0 0.399,0.102 0.474,0.185 0.084,0.077 0.71,0.395 0.899,0.6 0.186,0.204 0.616,0.653 0.812,0.999 0.233,0.421 0.449,1.084 0.58,1.345 0.13,0.262 0.439,0.812 0.654,1 0.214,0.177 0.709,0.627 0.737,0.646 0.019,0.025 0.019,0.27 -0.028,0.298 -0.055,0.029 -0.55,0.291 -0.654,0.524 -0.102,0.233 -0.244,0.344 -0.244,0.785 0,0.446 0.422,1.391 1.421,1.391 0.999,0 1.336,-0.758 1.336,-1.31 C 2.045,4.039 1.551,3.859 1.68,3.682 1.767,3.57 2.024,3.579 2.336,3.553 2.653,3.524 3.362,3.235 3.726,2.888 4.092,2.543 4.773,1.759 4.988,1.345 5.205,0.927 5.594,0.142 5.745,-0.42 c 0.159,-0.549 0.216,-0.889 0.216,-1.101 0,-0.207 0.055,-0.448 0.055,-0.448 0,0 0.289,-0.177 0.289,-0.364 0,-0.189 -0.318,-0.469 -0.476,-0.553 -0.169,-0.082 -0.523,-0.213 -0.624,-0.213 -0.106,0 -0.479,0.16 -0.479,0.401 0,0.242 0.16,0.598 0.16,0.802 0,0.215 -0.244,1.084 -0.347,1.273 C 4.436,-0.445 4.016,0.218 3.913,0.319 3.811,0.422 3.651,0.553 3.651,0.553 3.635,-0.185 3.735,-1.95 3.885,-2.456 c 0.16,-0.504 0.868,-1.916 1.169,-2.391 0.344,-0.578 1.13,-1.766 1.541,-2.244 0.411,-0.474 1.008,-1.007 1.103,-1.062 0.094,-0.065 0.065,-0.197 0,-0.319 -0.066,-0.121 -0.813,-1.607 -0.851,-1.607 -0.027,0 -1.167,-0.225 -1.233,-0.225 -0.064,0 -0.121,0.199 0,0.262 0.131,0.066 0.262,0.084 0.262,0.084 0.111,0.449 0.224,0.905 0.347,1.365 0,0 -0.956,0.877 -1.141,1.104 -0.188,0.214 -1.197,1.221 -1.382,1.501 -0.186,0.282 -0.821,1.171 -0.915,1.393 -0.087,0.215 -0.507,0.906 -0.507,0.906 0,0 -0.437,-0.373 -0.598,-0.598 -0.148,-0.216 -0.849,-1.474 -1.008,-1.757 -0.158,-0.281 -0.757,-1.672 -0.851,-1.989 -0.084,-0.309 -1.072,-2.961 -1.072,-2.961 0,0 -2.326,1.008 -2.422,1.075 -0.091,0.065 -0.223,0.308 0,0.308 0.226,0 1.636,0.194 1.636,0.194 0,0 0.093,0.786 0.131,1.011 0.028,0.222 0.372,1.793 0.496,2.076 0.129,0.279 0.728,1.668 0.858,1.827 0.131,0.154 0.569,1.356 0.654,1.636 0.095,0.28 0.262,1.038 0.262,1.355 C 0.364,-1.203 0.206,-0.372 0,0"
             style="fill:#000000;fill-opacity:1;fill-rule:evenodd;stroke:none"
             id="path4394" />
        </g>
        <path
           d="m 249.706,482.995 1.223,0 0,0.495 -1.223,0 0,-0.495 z"
           style="fill:#000000;fill-opacity:1;fill-rule:evenodd;stroke:none"
           id="path4396" />
        <path
           d="m 247.865,482.995 1.223,0 0,0.495 -1.223,0 0,-0.495 z"
           style="fill:#000000;fill-opacity:1;fill-rule:evenodd;stroke:none"
           id="path4398" />
        <path
           d="m 246.024,482.995 1.224,0 0,0.495 -1.224,0 0,-0.495 z"
           style="fill:#000000;fill-opacity:1;fill-rule:evenodd;stroke:none"
           id="path4400" />
        <path
           d="m 244.183,482.995 1.225,0 0,0.495 -1.225,0 0,-0.495 z"
           style="fill:#000000;fill-opacity:1;fill-rule:evenodd;stroke:none"
           id="path4402" />
        <path
           d="m 242.343,482.995 1.224,0 0,0.495 -1.224,0 0,-0.495 z"
           style="fill:#000000;fill-opacity:1;fill-rule:evenodd;stroke:none"
           id="path4404" />
        <path
           d="m 240.502,482.995 1.234,0 0,0.495 -1.234,0 0,-0.495 z"
           style="fill:#000000;fill-opacity:1;fill-rule:evenodd;stroke:none"
           id="path4406" />
        <path
           d="m 238.66,482.995 1.234,0 0,0.495 -1.234,0 0,-0.495 z"
           style="fill:#000000;fill-opacity:1;fill-rule:evenodd;stroke:none"
           id="path4408" />
        <path
           d="m 236.823,482.995 1.233,0 0,0.495 -1.233,0 0,-0.495 z"
           style="fill:#000000;fill-opacity:1;fill-rule:evenodd;stroke:none"
           id="path4410" />
        <path
           d="m 234.98,482.995 1.234,0 0,0.495 -1.234,0 0,-0.495 z"
           style="fill:#000000;fill-opacity:1;fill-rule:evenodd;stroke:none"
           id="path4412" />
        <path
           d="m 251.545,482.995 1.225,0 0,0.495 -1.225,0 0,-0.495 z"
           style="fill:#000000;fill-opacity:1;fill-rule:evenodd;stroke:none"
           id="path4414" />
        <path
           d="m 233.142,482.995 1.233,0 0,0.495 -1.233,0 0,-0.495 z"
           style="fill:#000000;fill-opacity:1;fill-rule:evenodd;stroke:none"
           id="path4416" />
        <path
           d="m 231.312,482.995 1.223,0 0,0.495 -1.223,0 0,-0.495 z"
           style="fill:#000000;fill-opacity:1;fill-rule:evenodd;stroke:none"
           id="path4418" />
        <path
           d="m 249.706,486.921 1.223,0 0,0.483 -1.223,0 0,-0.483 z"
           style="fill:#000000;fill-opacity:1;fill-rule:evenodd;stroke:none"
           id="path4420" />
        <path
           d="m 246.024,486.921 1.224,0 0,0.483 -1.224,0 0,-0.483 z"
           style="fill:#000000;fill-opacity:1;fill-rule:evenodd;stroke:none"
           id="path4422" />
        <path
           d="m 244.183,486.921 1.225,0 0,0.483 -1.225,0 0,-0.483 z"
           style="fill:#000000;fill-opacity:1;fill-rule:evenodd;stroke:none"
           id="path4424" />
        <path
           d="m 242.343,486.921 1.224,0 0,0.483 -1.224,0 0,-0.483 z"
           style="fill:#000000;fill-opacity:1;fill-rule:evenodd;stroke:none"
           id="path4426" />
        <path
           d="m 240.502,486.921 1.234,0 0,0.483 -1.234,0 0,-0.483 z"
           style="fill:#000000;fill-opacity:1;fill-rule:evenodd;stroke:none"
           id="path4428" />
        <path
           d="m 236.823,486.921 1.233,0 0,0.483 -1.233,0 0,-0.483 z"
           style="fill:#000000;fill-opacity:1;fill-rule:evenodd;stroke:none"
           id="path4430" />
        <path
           d="m 234.98,486.921 1.234,0 0,0.483 -1.234,0 0,-0.483 z"
           style="fill:#000000;fill-opacity:1;fill-rule:evenodd;stroke:none"
           id="path4432" />
        <path
           d="m 233.142,486.921 1.233,0 0,0.483 -1.233,0 0,-0.483 z"
           style="fill:#000000;fill-opacity:1;fill-rule:evenodd;stroke:none"
           id="path4434" />
      </g>
    </g>
  </g>
</svg>
