<svg xmlns="http://www.w3.org/2000/svg" width="215.051" height="213.932"><defs><clipPath clipPathUnits="userSpaceOnUse" id="a"><path d="M43.076 323.15h34.845v34.016H43.076V323.15z"/></clipPath></defs><g clip-path="url(#a)" transform="matrix(6.28915 0 0 -6.28915 -272.96 2246.271)"><path d="M0 0c9.417 0 17.098 7.68 17.098 17.095 0 9.417-7.681 17.097-17.098 17.097-9.416 0-17.096-7.68-17.096-17.097C-17.096 7.68-9.416 0 0 0" style="fill:#ed1d24;fill-opacity:1;fill-rule:evenodd;stroke:none" transform="translate(60.498 323.15)"/><path d="M0 0a13.476 13.476 0 0 0-8.039-2.644c-7.481 0-13.549 6.067-13.549 13.547 0 3.011.986 5.791 2.646 8.04l9.469-9.47L0 0z" style="fill:#fff;fill-opacity:1;fill-rule:evenodd;stroke:none" transform="translate(68.537 329.342)"/><path d="M0 0c7.481 0 13.547-6.067 13.547-13.548 0-3.009-.981-5.79-2.644-8.039l-9.469 9.47-9.474 9.473A13.472 13.472 0 0 0 0 0" style="fill:#fff;fill-opacity:1;fill-rule:evenodd;stroke:none" transform="translate(60.498 353.793)"/><path d="M0 0h-6.644a2.122 2.122 0 0 1-2.117-2.116v.001-.021c-.41.721-.678 1.913-.678 3.263 0 1.347.268 2.541.678 3.263v-.021c0-1.166.953-2.118 2.117-2.118h4.394L0 0z" style="fill:#000;fill-opacity:1;fill-rule:evenodd;stroke:none" transform="translate(58.468 339.408)"/><path d="M0 0a.708.708 0 0 1-.477 1.232h-.755l-1.321 1.323h2.267A2.037 2.037 0 0 0 1.745.526h1.256a2.001 2.001 0 0 0 1.922 1.443 1.998 1.998 0 1 0 0-3.996A2 2 0 0 0 3.001-.586H1.413a2.112 2.112 0 0 0-.389-.439L0 0z" style="fill:#000;fill-opacity:1;fill-rule:evenodd;stroke:none" transform="translate(64.643 338.964)"/><path d="M0 0h3.409l.744-.744H.12a.517.517 0 0 1 0-1.031h5.062l.744-.744H0A1.26 1.26 0 0 0-1.26-1.26C-1.26-.567-.697 0 0 0" style="fill:#000;fill-opacity:1;fill-rule:evenodd;stroke:none" transform="translate(55.67 338.8)"/></g></svg>