<svg xmlns="http://www.w3.org/2000/svg" width="213.556" height="213.418"><path d="M0 0c7.465 0 13.608 6.117 13.608 13.582 0 7.49-6.143 13.61-13.608 13.61-7.491 0-13.61-6.12-13.61-13.61C-13.61 6.117-7.491 0 0 0" style="fill:#fff;fill-opacity:1;fill-rule:evenodd;stroke:none" transform="matrix(6.28013 0 0 -6.28013 106.769 192.088)"/><path d="M0 0c7.467 0 13.608 6.119 13.608 13.584 0 7.491-6.141 13.608-13.608 13.608-7.491 0-13.608-6.117-13.608-13.608C-13.608 6.119-7.491 0 0 0m0-3.394c9.356 0 17.004 7.648 17.004 16.978 0 9.359-7.648 17.005-17.004 17.005-9.354 0-17.001-7.646-17.001-17.005 0-9.33 7.647-16.978 17.001-16.978" style="fill:#ed1d24;fill-opacity:1;fill-rule:evenodd;stroke:none" transform="matrix(6.28013 0 0 -6.28013 106.769 192.103)"/><path style="fill:#000;fill-opacity:1;fill-rule:evenodd;stroke:none" d="M0 0h20.036c.68 0 1.236-.766 1.236-1.701 0-.936-.556-1.701-1.236-1.701L0-3.401c-.68 0-1.235.764-1.235 1.7C-1.235-.766-.68 0 0 0" transform="matrix(6.2816 0 0 -6.2816 45.472 94.382)"/><path style="fill:#000;fill-opacity:1;fill-rule:nonzero;stroke:none" d="M0 0h-.005L-.68-2.088H.671L0 0zm1.401-2.375-.056-.169-.153-.058h-2.323l-.152.058-.055.169v.09l.004.077.017.094.029.115.047.146L-.42.514l.034.07.062.039.122.018.209.004.235-.004.136-.018.068-.041.038-.075.817-2.357.049-.149.032-.116.015-.094.004-.076v-.09z" transform="matrix(6.2816 0 0 -6.2816 72.326 65.843)"/><path style="fill:#000;fill-opacity:1;fill-rule:nonzero;stroke:none" d="m0 0-.015-.174-.036-.08-.064-.037-.097-.029-.121-.019-.129-.006a.908.908 0 0 0-.316.049l-.218.148-.125.256a1.5 1.5 0 0 0-.04.371v1.539l.014.044.048.033.095.019.15.006.153-.006.098-.019.052-.033.017-.044V.564l.01-.166.039-.117.074-.07.113-.024.091.005.063.014.043.015.033.006.028-.008.021-.036.014-.069L0 0z" transform="matrix(6.2816 0 0 -6.2816 90.993 80.352)"/><path style="fill:#000;fill-opacity:1;fill-rule:nonzero;stroke:none" d="m0 0-.036-.044-.06-.026-.087-.013-.115-.002-.177.025-.032.09.194.682.095.086a.768.768 0 0 0 .245.029L.183.818.272.795.307.754.299.694 0 0zm.289-1.593c0 .109-.009.211-.025.303l-.089.241-.167.16-.261.058-.244-.052-.172-.149-.102-.238a1.366 1.366 0 0 1-.034-.316c0-.11.009-.211.028-.303l.089-.241.165-.159.261-.056.247.051.172.149.1.235c.022.093.032.199.032.317m.647.024c0-.189-.024-.362-.075-.519a1.102 1.102 0 0 0-.227-.405 1 1 0 0 0-.382-.261 1.431 1.431 0 0 0-.537-.093c-.198 0-.37.027-.517.083a.925.925 0 0 0-.365.239 1 1 0 0 0-.215.387c-.046.153-.07.328-.07.525 0 .19.026.363.076.52a1.016 1.016 0 0 0 .61.666c.152.061.331.092.536.092.2 0 .373-.027.519-.081a.916.916 0 0 0 .364-.238.996.996 0 0 0 .213-.387c.047-.154.07-.329.07-.528" transform="matrix(6.2816 0 0 -6.2816 101.24 64.665)"/><path style="fill:#000;fill-opacity:1;fill-rule:nonzero;stroke:none" d="m0 0-.025.232-.087.204-.172.195a2.42 2.42 0 0 1-.275.206L-.751.704-.912.527l-.104-.223-.037-.274.028-.254.09-.21.164-.141.25-.052.209.044.164.124.109.196L0 0zm.647.08c0-.171-.026-.331-.079-.478a1.085 1.085 0 0 0-.23-.382 1.082 1.082 0 0 0-.375-.254 1.338 1.338 0 0 0-.513-.092c-.199 0-.371.027-.516.081a.928.928 0 0 0-.359.229.914.914 0 0 0-.208.353c-.045.137-.067.29-.067.458a1.335 1.335 0 0 0 .741 1.214l-.151.125-.097.133-.053.143-.016.154.057.269.17.21a.827.827 0 0 0 .281.136c.113.033.242.049.388.049l.271-.02.237-.048.169-.055.085-.043.034-.035.018-.047.008-.069.002-.105-.004-.102-.016-.063-.023-.033-.028-.01-.087.028-.156.06-.207.06-.243.027-.136-.015-.096-.041-.056-.062-.019-.079.011-.071.031-.068.061-.071.096-.084.142-.102.232-.154.28-.217.226-.263a1.14 1.14 0 0 0 .145-.31A1.24 1.24 0 0 0 .647.08" transform="matrix(6.2816 0 0 -6.2816 120.107 75.475)"/><path style="fill:#000;fill-opacity:1;fill-rule:nonzero;stroke:none" d="m0 0-.015-.174-.037-.08-.063-.037-.097-.029-.121-.019-.129-.006a.908.908 0 0 0-.316.049l-.218.148-.126.256a1.553 1.553 0 0 0-.039.371v1.539l.014.044.048.033.095.019.15.006.153-.006.098-.019.052-.033.017-.044V.564l.01-.166.039-.117.074-.07.113-.024.091.005.063.014.043.015.033.006.028-.008.021-.036.014-.069L0 0z" transform="matrix(6.2816 0 0 -6.2816 134.572 80.352)"/><path style="fill:#000;fill-opacity:1;fill-rule:nonzero;stroke:none" d="M0 0c0 .128-.012.24-.038.335L-.141.57l-.152.135-.184.044-.22-.061-.15-.165-.087-.238-.027-.283.021-.291.075-.244.141-.169.225-.063.213.058.157.159.096.239c.022.093.033.193.033.301V0zm1.15-.942-.012-.171-.029-.072-.054-.031-.087-.023-.107-.016-.117-.007-.201.02-.166.068-.121.126-.078.199-.129-.169-.174-.131-.217-.085-.25-.03a1.04 1.04 0 0 0-.449.089.854.854 0 0 0-.316.251 1.069 1.069 0 0 0-.187.391c-.042.152-.061.32-.061.505 0 .193.024.369.072.526.048.158.119.292.211.403a.912.912 0 0 0 .341.257c.135.061.29.091.464.091l.286-.043.239-.124.178-.2.107-.273.049.237.027.164.014.103.019.048.024.018.046.013.076.01.114.004.149-.006.091-.018.046-.029.014-.042L.949.97.915.763.864.514.796.247.718-.015.635-.25l.021-.253.051-.151.072-.074.08-.019.081.008.062.015.048.014.04.008.026-.01.018-.037.011-.074.005-.119z" transform="matrix(6.2816 0 0 -6.2816 145.85 74.61)"/><path style="fill:#000;fill-opacity:1;fill-rule:nonzero;stroke:none" d="m0 0-.006-.124-.019-.082-.03-.046-.042-.015h-.809v-2.605l-.016-.045-.054-.033-.101-.019-.158-.008-.159.008-.101.019-.054.033-.017.045v2.605h-.808l-.044.015-.029.046-.019.082-.005.124.005.128.019.083.029.045.044.014h2.277l.042-.014.03-.045.019-.083L0 0z" transform="matrix(6.2816 0 0 -6.2816 68.667 128.597)"/><path style="fill:#000;fill-opacity:1;fill-rule:nonzero;stroke:none" d="M0 0c0 .11-.009.211-.026.303l-.089.241-.166.16-.262.058L-.786.71-.959.561l-.102-.238a1.499 1.499 0 0 1-.005-.619l.089-.241.165-.159.26-.056.247.051.173.149.099.236C-.011-.224 0-.118 0 0m.647.025c0-.19-.025-.363-.075-.52a1.078 1.078 0 0 0-.228-.404.988.988 0 0 0-.381-.262 1.431 1.431 0 0 0-.537-.093c-.198 0-.371.028-.517.083a.936.936 0 0 0-.366.239.998.998 0 0 0-.214.387c-.047.154-.07.328-.07.525 0 .19.025.363.076.52a1.024 1.024 0 0 0 .609.666c.153.061.332.093.537.093.199 0 .373-.027.519-.082A.92.92 0 0 0 .363.939.998.998 0 0 0 .577.552C.624.398.647.223.647.025" transform="matrix(6.2816 0 0 -6.2816 78.149 139.686)"/><path style="fill:#000;fill-opacity:1;fill-rule:nonzero;stroke:none" d="m0 0-.015-.044-.052-.031-.096-.019L-.315-.1l-.153.006-.096.019-.051.031L-.629 0v3.284l.014.045.051.034.096.021.153.007.152-.007.096-.021.052-.034L0 3.284V0z" transform="matrix(6.2816 0 0 -6.2816 89.287 146.669)"/><path style="fill:#000;fill-opacity:1;fill-rule:nonzero;stroke:none" d="m0 0-.015-.044-.052-.031-.096-.019L-.315-.1l-.153.006-.096.019-.051.031L-.629 0v3.284l.014.045.051.034.096.021.153.007.152-.007.096-.021.052-.034L0 3.284V0z" transform="matrix(6.2816 0 0 -6.2816 97.177 146.669)"/><path style="fill:#000;fill-opacity:1;fill-rule:nonzero;stroke:none" d="M0 0c0 .114-.02.207-.06.28l-.147.162-.184.067-.198.013h-.28V-.574h.294l.263.043.174.118.103.182L0 0zm.687.047c0-.181-.028-.342-.086-.481a.918.918 0 0 0-.247-.354 1.077 1.077 0 0 0-.398-.218A1.847 1.847 0 0 0-.6-1.081h-.269v-1.032l-.017-.044-.054-.033-.099-.02-.16-.008-.159.008-.101.02-.053.033-.015.044V.795l.062.175.161.06h.762l.219-.009.248-.038.293-.106.253-.196.161-.277C.668.298.687.179.687.047" transform="matrix(6.2816 0 0 -6.2816 118.2 133.367)"/><path style="fill:#000;fill-opacity:1;fill-rule:nonzero;stroke:none" d="M0 0c0 .11-.009.211-.026.303l-.089.241-.166.16-.262.058L-.786.71-.959.561l-.102-.238a1.37 1.37 0 0 1-.033-.316c0-.11.009-.211.028-.303l.089-.241.165-.159.26-.056.247.051.172.149.1.236C-.011-.224 0-.118 0 0m.647.025c0-.19-.025-.363-.075-.52a1.09 1.09 0 0 0-.227-.404.995.995 0 0 0-.383-.262 1.422 1.422 0 0 0-.536-.093c-.198 0-.371.028-.517.083a.93.93 0 0 0-.366.239.998.998 0 0 0-.214.387c-.047.154-.07.328-.07.525 0 .19.025.363.076.52a1.024 1.024 0 0 0 .609.666c.153.061.332.093.537.093.199 0 .372-.027.519-.082A.913.913 0 0 0 .363.939.998.998 0 0 0 .577.552C.623.398.647.223.647.025" transform="matrix(6.2816 0 0 -6.2816 135.043 139.686)"/><path style="fill:#000;fill-opacity:1;fill-rule:nonzero;stroke:none" d="M0 0a.76.76 0 0 0-.071-.335l-.201-.242A.906.906 0 0 0-.58-.723a1.46 1.46 0 0 0-.385-.049l-.237.019-.204.048-.15.058-.087.056-.043.083-.014.166.004.116.016.07.024.035.038.009.08-.031.134-.069.186-.07.242-.033.151.018.115.05.072.082.026.115-.047.129-.121.093-.173.075-.197.078-.198.097-.172.135-.122.192-.047.27.064.294.179.228a.831.831 0 0 0 .286.147c.112.035.239.053.378.053l.204-.015.178-.038.135-.049.079-.044.034-.038.015-.045.008-.065.004-.096-.004-.11-.012-.067-.024-.034-.035-.008-.07.026-.118.056-.165.056-.213.026-.148-.017-.102-.05-.061-.076-.02-.094.048-.13.124-.092.177-.075.199-.076.201-.097.176-.134.124-.191L0 0z" transform="matrix(6.2816 0 0 -6.2816 152.077 142.716)"/><path style="fill:#000;fill-opacity:1;fill-rule:nonzero;stroke:none" d="m0 0-.014-.169-.036-.082-.066-.043-.103-.032-.127-.021-.139-.007a.995.995 0 0 0-.325.047l-.227.146-.133.248a1.33 1.33 0 0 0-.042.355v1.141h-.267l-.073.059-.024.196.006.123.018.078.032.042.043.012h.265v.497l.014.045.051.033.097.02.151.007.154-.007.096-.02.049-.033.015-.045v-.497H-.1l.044-.012.03-.042.019-.078L0 1.838l-.026-.196-.071-.059h-.488V.537c0-.122.019-.213.058-.273l.205-.092.09.009.07.02.053.02.039.009.029-.009.021-.035.013-.071L0 0z" transform="matrix(6.2816 0 0 -6.2816 162.964 145.288)"/></svg>