<?xml version="1.0" encoding="UTF-8" standalone="no"?>
<!-- Created with Inkscape (http://www.inkscape.org/) -->

<svg
   xmlns:dc="http://purl.org/dc/elements/1.1/"
   xmlns:cc="http://creativecommons.org/ns#"
   xmlns:rdf="http://www.w3.org/1999/02/22-rdf-syntax-ns#"
   xmlns:svg="http://www.w3.org/2000/svg"
   xmlns="http://www.w3.org/2000/svg"
   xmlns:sodipodi="http://sodipodi.sourceforge.net/DTD/sodipodi-0.dtd"
   xmlns:inkscape="http://www.inkscape.org/namespaces/inkscape"
   width="213.79784"
   height="213.65952"
   id="svg4205"
   version="1.1"
   inkscape:version="0.47 r22583"
   sodipodi:docname="Cyprus road sign no hand vehicles.svg">
  <defs
     id="defs4207">
    <inkscape:perspective
       sodipodi:type="inkscape:persp3d"
       inkscape:vp_x="0 : 526.18109 : 1"
       inkscape:vp_y="0 : 1000 : 0"
       inkscape:vp_z="744.09448 : 526.18109 : 1"
       inkscape:persp3d-origin="372.04724 : 350.78739 : 1"
       id="perspective4213" />
    <inkscape:perspective
       id="perspective4228"
       inkscape:persp3d-origin="106.21 : 70.796666 : 1"
       inkscape:vp_z="212.42 : 106.195 : 1"
       inkscape:vp_y="0 : 1000 : 0"
       inkscape:vp_x="0 : 106.195 : 1"
       sodipodi:type="inkscape:persp3d" />
    <clipPath
       id="clipPath16">
      <path
         inkscape:connector-curvature="0"
         d="M 0.059998,169.98 H 170 V 0.06 H 0.059998 v 169.92 z"
         id="path18" />
    </clipPath>
    <inkscape:perspective
       id="perspective4247"
       inkscape:persp3d-origin="0.5 : 0.33333333 : 1"
       inkscape:vp_z="1 : 0.5 : 1"
       inkscape:vp_y="0 : 1000 : 0"
       inkscape:vp_x="0 : 0.5 : 1"
       sodipodi:type="inkscape:persp3d" />
    <clipPath
       clipPathUnits="userSpaceOnUse"
       id="clipPath3426">
      <path
         d="m 43.076,488.976 34.845,0 0,34.015 -34.845,0 0,-34.015 z"
         id="path3428" />
    </clipPath>
    <inkscape:perspective
       id="perspective4323"
       inkscape:persp3d-origin="0.5 : 0.33333333 : 1"
       inkscape:vp_z="1 : 0.5 : 1"
       inkscape:vp_y="0 : 1000 : 0"
       inkscape:vp_x="0 : 0.5 : 1"
       sodipodi:type="inkscape:persp3d" />
    <clipPath
       clipPathUnits="userSpaceOnUse"
       id="clipPath2896">
      <path
         d="m 102.752,490.181 34.845,0 0,34.016 -34.845,0 0,-34.016 z"
         id="path2898" />
    </clipPath>
  </defs>
  <sodipodi:namedview
     id="base"
     pagecolor="#ffffff"
     bordercolor="#666666"
     borderopacity="1.0"
     inkscape:pageopacity="0.0"
     inkscape:pageshadow="2"
     inkscape:zoom="2.362731"
     inkscape:cx="38.062555"
     inkscape:cy="114.13123"
     inkscape:document-units="px"
     inkscape:current-layer="layer1"
     showgrid="false"
     inkscape:window-width="1600"
     inkscape:window-height="838"
     inkscape:window-x="-8"
     inkscape:window-y="-8"
     inkscape:window-maximized="1" />
  <metadata
     id="metadata4210">
    <rdf:RDF>
      <cc:Work
         rdf:about="">
        <dc:format>image/svg+xml</dc:format>
        <dc:type
           rdf:resource="http://purl.org/dc/dcmitype/StillImage" />
        <dc:title></dc:title>
      </cc:Work>
    </rdf:RDF>
  </metadata>
  <g
     inkscape:label="Livello 1"
     inkscape:groupmode="layer"
     id="layer1"
     transform="translate(-196.61923,-425.39439)">
    <path
       sodipodi:type="arc"
       style="fill:#ffffff;fill-opacity:1;fill-rule:evenodd;stroke:none"
       id="path5239"
       sodipodi:cx="98.614693"
       sodipodi:cy="117.79588"
       sodipodi:rx="91.419632"
       sodipodi:ry="86.552383"
       d="m 190.03432,117.79588 a 91.419632,86.552383 0 1 1 -182.8392593,0 91.419632,86.552383 0 1 1 182.8392593,0 z"
       transform="translate(204.66077,413.5437)" />
    <path
       id="path3432"
       style="fill:#ed1d24;fill-opacity:1;fill-rule:evenodd;stroke:none"
       d="m 303.50871,617.71498 c 46.94687,0 85.55686,-38.47166 85.55686,-85.40596 0,-47.09777 -38.60999,-85.55686 -85.55686,-85.55686 -47.09777,0 -85.55686,38.45909 -85.55686,85.55686 0,46.9343 38.45909,85.40596 85.55686,85.40596 m 0,21.33892 c 58.82348,0 106.90835,-48.08487 106.90835,-106.74488 0,-58.84235 -48.08487,-106.91464 -106.90835,-106.91464 -58.81091,0 -106.88949,48.07229 -106.88949,106.91464 0,58.66001 48.07858,106.74488 106.88949,106.74488" />
    <path
       d="m 243.46171,578.37191 118.60891,0 0,-5.5705 -118.60891,0 0,5.5705 z"
       style="fill:#000000;fill-opacity:1;fill-rule:evenodd;stroke:none"
       id="path3434" />
    <path
       id="path3438"
       style="fill:#000000;fill-opacity:1;fill-rule:evenodd;stroke:none"
       d="m 246.777,573.55588 0,-9.02849 c 0,0 8.11684,-12.19097 8.11684,-13.09633 l 0,-17.61058 -2.85441,0 0,-2.40802 2.85441,0 c 0,0 1.21343,-12.64365 1.35804,-13.54273 0.14461,-0.90536 0.60358,-7.83391 1.50265,-10.08474 0.91165,-2.25712 7.67673,-7.67673 7.67673,-7.67673 l -0.89907,-4.36335 c 0,0 -1.23859,-2.69723 -0.60358,-5.12411 0.89908,-3.45798 6.02947,-4.80974 8.1357,-4.51424 2.09365,0.30179 5.55164,3.01159 6.1615,3.46427 l 0,4.06785 -0.4464,1.04997 0.71046,3.00531 -2.67208,1.35804 -0.74818,1.65984 -3.46427,0.44639 0.15089,3.91067 c 0,0 4.21246,11.74458 4.06156,13.54902 -0.1446,1.81072 14.0017,14.44809 14.75617,14.44809 0.74818,0 72.99494,15.95703 72.99494,15.95703 l 0,7.97852 -60.81025,-13.24723 -0.60358,-3.91696 -10.83293,-3.15619 -0.45896,1.50894 -3.30081,-0.15719 -13.09633,-9.78295 c -0.60358,-0.30179 -2.10623,-2.10623 -2.8607,-2.10623 -0.74818,0 -0.89908,6.22437 -0.89908,6.22437 0,0 7.97223,11.5371 8.12313,12.73797 0.1446,1.21344 -1.79816,14.0017 -2.11252,15.51064 -0.28921,1.50265 -0.89908,9.48116 -0.89908,9.48116 0,0 3.1562,0.2955 4.06785,1.50266 0.89908,1.20086 2.55262,2.86069 2.55262,2.86069 l -15.35345,0 c 0,0 1.51522,-18.81773 1.51522,-19.7168 0,-0.90537 0.89908,-3.76606 0.75447,-4.67143 -0.16346,-0.89907 -3.92324,-5.866 -4.52681,-5.866 -0.60358,0 -1.19458,5.87229 -2.10623,8.27402 -0.89908,2.4143 -8.57581,13.39812 -8.57581,13.39812 l 0.14461,3.91696 5.13039,4.66513 -12.64365,-0.90536 z" />
    <path
       id="path3442"
       style="fill:none;stroke:#000000;stroke-width:1.50000012;stroke-linecap:butt;stroke-linejoin:miter;stroke-miterlimit:10;stroke-opacity:1;stroke-dasharray:none"
       d="m 348.51151,558.69471 c 0,8.89017 -7.20519,16.10793 -16.08907,16.10793 -8.90274,0 -16.10792,-7.21776 -16.10792,-16.10793 0,-8.89017 7.20518,-16.10793 16.10792,-16.10793 8.88388,0 16.08907,7.21776 16.08907,16.10793 z" />
    <path
       d="m 330.90474,572.80141 1.51522,0 0,-29.98388 -1.51522,0 0,29.98388 z"
       style="fill:#000000;fill-opacity:1;fill-rule:evenodd;stroke:none"
       id="path3444" />
    <path
       d="m 316.67041,558.56079 29.98388,0 0,-1.50265 -29.98388,0 0,1.50265 z"
       style="fill:#000000;fill-opacity:1;fill-rule:evenodd;stroke:none"
       id="path3446" />
    <path
       id="path3450"
       style="fill:#000000;fill-opacity:1;fill-rule:evenodd;stroke:none"
       d="m 321.58954,568.95047 -1.06254,-1.06883 21.20688,-21.2006 1.06254,1.05626 -21.20688,21.21317 z" />
    <path
       id="path3454"
       style="fill:#000000;fill-opacity:1;fill-rule:evenodd;stroke:none"
       d="m 320.52888,547.73918 1.06254,-1.06254 21.2006,21.20688 -1.05626,1.06883 -21.20688,-21.21317 z" />
    <path
       id="path3458"
       style="fill:#000000;fill-opacity:1;fill-rule:evenodd;stroke:none"
       d="m 336.59025,557.81827 c 0,2.30742 -1.8736,4.17473 -4.16844,4.17473 -2.31371,0 -4.18731,-1.86731 -4.18731,-4.17473 0,-2.31371 1.8736,-4.18731 4.18731,-4.18731 2.29484,0 4.16844,1.8736 4.16844,4.18731" />
  </g>
</svg>
