<svg xmlns="http://www.w3.org/2000/svg" width="213.798" height="213.66"><path style="fill:#fff;fill-opacity:1;fill-rule:evenodd;stroke:none" d="M190.034 117.796a91.42 86.552 0 1 1-182.839 0 91.42 86.552 0 1 1 182.84 0z" transform="translate(8.042 -11.85)"/><path style="fill:#ed1d24;fill-opacity:1;fill-rule:evenodd;stroke:none" d="M303.509 617.715c46.947 0 85.557-38.472 85.557-85.406 0-47.098-38.61-85.557-85.557-85.557-47.098 0-85.557 38.46-85.557 85.557 0 46.934 38.459 85.406 85.557 85.406m0 21.339c58.823 0 106.908-48.085 106.908-106.745 0-58.842-48.085-106.915-106.908-106.915-58.811 0-106.89 48.073-106.89 106.915 0 58.66 48.079 106.745 106.89 106.745" transform="translate(-196.62 -425.394)"/><path style="fill:#000;fill-opacity:1;fill-rule:evenodd;stroke:none" d="M-2.288 520.352h48.814v-5.928H-2.288v5.928z" transform="translate(64.403 -398.307)"/><path style="fill:#000;fill-opacity:1;fill-rule:evenodd;stroke:none" d="M0 0v-1.075s1.95.201 2.138 0c.187-.2 2.925-7.137 3.112-7.137.188 0 .375.048.413.249C5.7-7.763 3-.788 3-.788s-.037.45-.45.6C2.138-.037 0 0 0 0" transform="matrix(6.31895 0 0 -6.31895 117.325 70.152)"/><path style="fill:#000;fill-opacity:1;fill-rule:evenodd;stroke:none" d="m0 0 4.387 5.063s-1.95.525-2.137.412C2.062 5.363-.075 2.9 0 2.744c.075-.156.3-.906.3-1.019 0-.112-.3-.787-.3-.787V0z" transform="matrix(6.31895 0 0 -6.31895 110.928 122.046)"/><path style="fill:#000;fill-opacity:1;fill-rule:evenodd;stroke:none" d="M0 0v-1.237h4.65l-.188-.525s2.1.862 2.1 1.2c0 .337.075.562-.15.562H0z" transform="matrix(6.31895 0 0 -6.31895 51.688 91.834)"/><path style="fill:none;stroke:#000;stroke-width:4;stroke-linecap:butt;stroke-linejoin:miter;stroke-miterlimit:10;stroke-opacity:1;stroke-dasharray:none" d="M21.99 518.625c0 9.819-7.96 17.779-17.779 17.779-9.825 0-17.785-7.96-17.785-17.78 0-9.818 7.96-17.785 17.785-17.785 9.82 0 17.78 7.967 17.78 17.786zM103.99 518.625c0 9.819-7.96 17.779-17.779 17.779-9.825 0-17.785-7.96-17.785-17.78 0-9.818 7.96-17.785 17.785-17.785 9.82 0 17.78 7.967 17.78 17.786z" transform="translate(64.403 -398.307)"/></svg>