<svg xmlns="http://www.w3.org/2000/svg" width="76.17" height="102.537"><defs><clipPath clipPathUnits="userSpaceOnUse" id="b"><path d="M193.012 269.292h76.279v91.275h-76.279v-91.275z"/></clipPath><clipPath clipPathUnits="userSpaceOnUse" id="a"><path d="M0 0h311v595H0V0z"/></clipPath></defs><g clip-path="url(#a)" transform="matrix(1.25 0 0 -1.25 -250.762 447.85)"><path d="m0 0-59.838.405V80.92L0 80.932V0z" style="fill:#ffdb00;fill-opacity:1;fill-rule:nonzero;stroke:none" transform="translate(260.997 276.8)"/><path d="m0 0-59.838.405V80.92L0 80.932V0z" style="fill:none;stroke:#ed1d24;stroke-width:1.09800005;stroke-linecap:butt;stroke-linejoin:miter;stroke-miterlimit:4;stroke-opacity:1;stroke-dasharray:none" transform="translate(260.997 276.8)"/><path d="M0 0h-8.394L7.135 27.184 22.918 0H0z" style="fill:#fff;fill-opacity:1;fill-rule:evenodd;stroke:none" transform="translate(224.276 321.484)"/></g><g clip-path="url(#b)" transform="matrix(1.25 0 0 -1.25 -250.762 447.85)"><path d="M0 0h27.774L13.892 24.031 0 0zm29.136-3.104c.826 0 1.586.444 2 1.163a2.289 2.289 0 0 1 0 2.325l-15.232 26.37a2.325 2.325 0 0 1-4.027-.007L-3.359.384a2.331 2.331 0 0 1 0-2.325A2.337 2.337 0 0 1-1.34-3.104h30.476z" style="fill:#ed1d24;fill-opacity:1;fill-rule:evenodd;stroke:none" transform="translate(217.577 322.627)"/><path d="m0 0-47.907.241v23.653L0 23.96V0z" style="fill:#ed1d24;fill-opacity:1;fill-rule:nonzero;stroke:none" transform="translate(255.43 283.65)"/><path d="m0 0-47.907.241v23.653L0 23.96V0z" style="fill:none;stroke:#bcbec0;stroke-width:1.64600003;stroke-linecap:butt;stroke-linejoin:miter;stroke-miterlimit:4;stroke-opacity:1;stroke-dasharray:none" transform="translate(255.43 283.65)"/><path d="M0 0h2.611v-.638H.939L1.914-1.8.838-3.136H2.69v-.636H-.049v.705L.963-1.8 0-.679V0z" style="fill:#dadbdc;fill-opacity:1;fill-rule:nonzero;stroke:none" transform="translate(220.136 302.17)"/><path d="m0 0 1.288 1.968L.122 3.772h.89l.757-1.212.739 1.212h.884L2.219 1.939 3.507 0h-.919l-.836 1.305L.913 0H0z" style="fill:#dadbdc;fill-opacity:1;fill-rule:nonzero;stroke:none" transform="translate(223.018 298.398)"/><path d="M0 0c0-.427.099-.75.296-.971a.964.964 0 0 1 .75-.33c.305 0 .553.109.748.328.196.218.292.546.292.984 0 .433-.094.754-.283.967-.191.213-.442.319-.757.319A.969.969 0 0 1 .287.974C.096.759 0 .435 0 0m-.785-.026c0 .385.058.708.172.968.086.192.203.365.351.518.148.152.311.266.489.339.234.099.506.149.813.149.555 0 .999-.172 1.333-.517.335-.344.5-.824.5-1.437 0-.609-.165-1.086-.495-1.43-.333-.343-.774-.516-1.328-.516-.561 0-1.007.17-1.337.513-.333.342-.498.813-.498 1.413" style="fill:#dadbdc;fill-opacity:1;fill-rule:nonzero;stroke:none" transform="translate(227.546 300.285)"/><path d="m0 0 1.348-3.772H.523L-.433-.983l-.922-2.789h-.808L-.812 0H0z" style="fill:#dadbdc;fill-opacity:1;fill-rule:nonzero;stroke:none" transform="translate(232.652 302.17)"/><path d="M0 0v3.772h2.795v-.639H.761v-.836h1.893v-.634H.761V.636h2.107V0H0z" style="fill:#dadbdc;fill-opacity:1;fill-rule:nonzero;stroke:none" transform="translate(234.387 298.398)"/><path d="M237.877 298.397h.761v3.772h-.761v-3.772z" style="fill:#dadbdc;fill-opacity:1;fill-rule:nonzero;stroke:none"/><path d="M0 0c0-.427.099-.75.296-.971a.961.961 0 0 1 .75-.33c.305 0 .553.109.748.328.193.218.292.546.292.984 0 .433-.094.754-.285.967-.189.213-.442.319-.755.319A.969.969 0 0 1 .287.974C.094.759 0 .435 0 0m-.785-.026c0 .385.056.708.172.968a1.8 1.8 0 0 0 .352.518c.147.152.31.266.486.339.236.099.506.149.813.149.557 0 1.001-.172 1.335-.517.333-.344.5-.824.5-1.437 0-.609-.165-1.086-.498-1.43-.33-.343-.771-.516-1.327-.516-.559 0-1.005.17-1.337.513-.331.342-.496.813-.496 1.413" style="fill:#dadbdc;fill-opacity:1;fill-rule:nonzero;stroke:none" transform="translate(239.995 300.285)"/><path d="m0 0 .742.072c.043-.249.135-.431.27-.548.137-.117.322-.175.553-.175.244 0 .429.052.553.156a.464.464 0 0 1 .187.363l-.078.228a.62.62 0 0 1-.274.163c-.09.031-.294.086-.611.165C.935.525.648.65.485.798a.976.976 0 0 0-.348.758c0 .192.054.372.163.54.11.167.266.293.47.381.205.088.452.131.744.131.471 0 .829-.103 1.067-.311.24-.208.365-.484.378-.831l-.762-.033c-.032.193-.102.332-.21.418-.107.085-.268.127-.482.127-.221 0-.394-.045-.519-.136l-.122-.234.114-.229c.096-.081.33-.165.699-.252.37-.088.645-.178.823-.272.178-.093.315-.222.416-.383.1-.162.15-.363.15-.601a1.11 1.11 0 0 0-.688-1.028c-.221-.092-.494-.137-.822-.137-.475 0-.842.11-1.097.33C.202-.743.049-.422 0 0" style="fill:#dadbdc;fill-opacity:1;fill-rule:nonzero;stroke:none" transform="translate(222.876 289.746)"/><path d="m0 0-.714-.129a.506.506 0 0 1-.163.322.49.49 0 0 1-.33.108.54.54 0 0 1-.431-.186c-.107-.125-.161-.333-.161-.624 0-.324.054-.553.163-.687a.538.538 0 0 1 .44-.201c.137 0 .248.039.336.117.088.078.15.212.185.403l.711-.121c-.075-.326-.216-.572-.424-.739-.21-.166-.491-.249-.843-.249-.398 0-.718.126-.956.378-.235.252-.356.601-.356 1.047 0 .452.121.802.358 1.054.238.251.562.376.967.376.333 0 .598-.07.794-.214C-.227.511-.086.294 0 0" style="fill:#dadbdc;fill-opacity:1;fill-rule:nonzero;stroke:none" transform="translate(228.96 290.443)"/><path d="M0 0v-1.386c.231.272.51.408.836.408.165 0 .315-.03.45-.092a.747.747 0 0 0 .303-.237.861.861 0 0 0 .137-.318c.026-.117.038-.298.038-.544v-1.602h-.722v1.443c0 .287-.015.468-.043.545l-.144.185a.47.47 0 0 1-.261.067.602.602 0 0 1-.322-.087.517.517 0 0 1-.208-.263C.021-1.999 0-2.173 0-2.402v-1.369h-.725V0H0z" style="fill:#dadbdc;fill-opacity:1;fill-rule:nonzero;stroke:none" transform="translate(230.23 292.29)"/><path d="M0 0c0-.27.064-.478.193-.622a.61.61 0 0 1 .476-.216.61.61 0 0 1 .476.216c.126.144.191.353.191.627 0 .268-.065.474-.191.618a.613.613 0 0 1-.476.216.613.613 0 0 1-.476-.216C.064.479 0 .271 0 0m-.74.039c0 .24.058.472.176.697.12.224.288.396.504.515.217.118.459.177.727.177.414 0 .752-.134 1.016-.402.264-.269.397-.608.397-1.017 0-.414-.133-.757-.401-1.028a1.35 1.35 0 0 0-1.008-.409c-.249 0-.489.057-.716.171a1.166 1.166 0 0 0-.519.497c-.118.219-.176.486-.176.799" style="fill:#dadbdc;fill-opacity:1;fill-rule:nonzero;stroke:none" transform="translate(233.3 289.885)"/><path d="M0 0c0-.27.064-.478.193-.622a.61.61 0 0 1 .476-.216c.188 0 .347.071.476.216.126.144.191.353.191.627 0 .268-.065.474-.191.618a.615.615 0 0 1-.476.216.613.613 0 0 1-.476-.216C.064.479 0 .271 0 0m-.74.039c0 .24.058.472.176.697.12.224.287.396.504.515.217.118.459.177.727.177.414 0 .752-.134 1.016-.402.264-.269.397-.608.397-1.017 0-.414-.133-.757-.401-1.028a1.35 1.35 0 0 0-1.008-.409c-.249 0-.489.057-.716.171a1.166 1.166 0 0 0-.519.497c-.118.219-.176.486-.176.799" style="fill:#dadbdc;fill-opacity:1;fill-rule:nonzero;stroke:none" transform="translate(236.517 289.885)"/><path d="M239.163 288.519h.722v3.771h-.722v-3.771z" style="fill:#dadbdc;fill-opacity:1;fill-rule:nonzero;stroke:none"/><path d="M0 0c-.149-.102-.441-.206-.516-.206l-.008-.122c.008-.048.863-3.344.897-3.457.041-.121.141-.272.328-.291.189-.018.695-.064.863-.101.168-.038.262-.049.262-.17-.008-.141-.141-.141-.206-.159-.075-.017-1.18-.309-1.31-.337a1.991 1.991 0 0 0-.376-.075c-.066 0-.29.094-.309.244-.019.151-.066.497-.12.647a4.626 4.626 0 0 1-.424.834c-.139.205-.393.663-.46.907-.063.235-.225.806-.225 1.285 0 .213 0 .522-.288.522-.282 0-.404-.064-.713-.064-.299 0-.411.009-.542.009-.132 0-.337-.066-.441-.179-.104-.12-.788-.767-.929-.908a17.8 17.8 0 0 0-.963-.851c-.188-.15-.562-.433-.684-.516-.122-.085-.17-.168-.131-.301.029-.141.206-1.029.235-1.18.047-.224-.02-.271-.17-.271-.15 0-.478.252-.609.262l-1.563-.356c-.179 1.508-.871 3.683-1.359 4.479-.216-.283-.862-1.079-1.125-1.275-.271-.205-.533-.28-.767-.346-.235-.067-1.463-.508-1.576-.534a.288.288 0 0 1-.213-.236c-.02-.11-.086-.71-.086-.834 0-.11-.017-.148-.167-.159-.151-.017-.171.159-.171.159l-.4 1.892 1.797.759c.496.225.965.695 1.237 1.331.272.628.516 1.396.542 2.183a2.93 2.93 0 0 1-.975-.749c-.196-.262-.458-.731-.458-.984 0-.337.216-.365.216-.646a.582.582 0 0 0-.591-.561c-.326 0-.468.196-.468.438 0 .244.142.161.142.404 0 .244-.028.44-.028.562 0 .122.075.852.225 1.209.149.346.627.926.778 1.125.158.195.541.495 1.01.635a3.79 3.79 0 0 0 1.059.131c.149.01.44.057.27.263-.166.216-.411.487-.411 1.012 0 .524.348 1.143 1.086 1.143.742 0 1.106-.638 1.106-1.124 0-.497-.422-1.05-.619-1.152-.195-.105-.112-.254-.045-.319.055-.057.787-1.022.889-1.199.103-.188.6-.965.646-1.106.048-.131.169-.225.394-.131.225.085.572.272.664.318.086.047.057.105.029.207a57.208 57.208 0 0 1-.618 1.761c-.047.102-.047.168-.047.196l.075.168c.066.075.598.628.722.751.289.244 1.273 1.011 1.452 1.096.178.094.13.075.27.075.151 0 .45-.056.545-.056.102 0 .197.159.035.206-.167.037-.505.14-.597.365-.104.225-.15.609-.15.777 0 .159.075 1.461 1.218 1.461 1.133 0 1.208-1.246 1.208-1.488 0-.254-.075-.675-.188-.825a1.477 1.477 0 0 0-.29-.263c-.046-.027-.122-.196.029-.225.14-.027.571-.131.776-.346.273-.29.611-.956.787-1.367.188-.412.544-1.144 1.04-1.602.488-.459 1.059-.854 1.161-.899.112-.048.224-.057.3-.113.086-.047.199-.188.199-.394A.468.468 0 0 0 1.707.9c-.256 0-.331.158-.443.205-.103.047-.329.093-.459.188-.121.103-.917.571-1.275.965-.364.393-.887 1.087-.983 1.471.096-.384.45-1.585.508-1.724.064-.141.205-.582.346-.853C-.45.881 0 0 .018 0H0zm-4 4.525c0-.947-.197-2.193-.338-2.576-.14-.375-.713-1.668-.713-1.668l.525-.375c-.411-.196-.973-.572-1.217-.815a5.53 5.53 0 0 1-.683-.88c-.149-.245-.58-.815-.768-.909-.187-.094-.236-.216-.17-.384.075-.16.179-.581.216-.666.075-.141-.169-.354-.262-.092-.094.26-.121.28-.141.43-.018.142-.141 1.096-.188 1.284-.055.196-.243 1.189-.309 1.434-.074.233-.309 1.048-.354 1.311a6.74 6.74 0 0 0-.076.86c0 .113 0 .375.018.375.028 0 .676-.927.863-1.067.187-.141.496-.216.739-.122.236.093 1.303.431 1.545.477.236.048.48.337.526.525.045.197-.03.402-.075.552-.046.142-.384.975-.401 1.164-.022.195-.162.346.017.476.169.122 1.246.666 1.246.666" style="fill:#000;fill-opacity:1;fill-rule:evenodd;stroke:none" transform="translate(236.755 328.816)"/></g></svg>