<?xml version="1.0" encoding="UTF-8" standalone="no"?>
<!-- Created with Inkscape (http://www.inkscape.org/) -->

<svg
   xmlns:dc="http://purl.org/dc/elements/1.1/"
   xmlns:cc="http://creativecommons.org/ns#"
   xmlns:rdf="http://www.w3.org/1999/02/22-rdf-syntax-ns#"
   xmlns:svg="http://www.w3.org/2000/svg"
   xmlns="http://www.w3.org/2000/svg"
   xmlns:sodipodi="http://sodipodi.sourceforge.net/DTD/sodipodi-0.dtd"
   xmlns:inkscape="http://www.inkscape.org/namespaces/inkscape"
   width="599.99878"
   height="599.99878"
   id="svg6419"
   version="1.1"
   inkscape:version="0.47 r22583"
   sodipodi:docname="Cyprus road sign mandatory left or right.svg">
  <defs
     id="defs6421">
    <inkscape:perspective
       sodipodi:type="inkscape:persp3d"
       inkscape:vp_x="0 : 526.18109 : 1"
       inkscape:vp_y="0 : 1000 : 0"
       inkscape:vp_z="744.09448 : 526.18109 : 1"
       inkscape:persp3d-origin="372.04724 : 350.78739 : 1"
       id="perspective6427" />
    <inkscape:perspective
       id="perspective6455"
       inkscape:persp3d-origin="300 : 200 : 1"
       inkscape:vp_z="600 : 300 : 1"
       inkscape:vp_y="0 : 1000 : 0"
       inkscape:vp_x="0 : 300 : 1"
       sodipodi:type="inkscape:persp3d" />
    <clipPath
       id="clipPath20">
      <path
         d="m 0.014999,205.28 205.270001,0 0,-205.28 -205.270001,0 0,205.28 z"
         id="path9" />
    </clipPath>
    <inkscape:perspective
       id="perspective6487"
       inkscape:persp3d-origin="0.5 : 0.33333333 : 1"
       inkscape:vp_z="1 : 0.5 : 1"
       inkscape:vp_y="0 : 1000 : 0"
       inkscape:vp_x="0 : 0.5 : 1"
       sodipodi:type="inkscape:persp3d" />
    <clipPath
       clipPathUnits="userSpaceOnUse"
       id="clipPath5883">
      <path
         d="m 233.519,209.338 34.845,0 0,34.016 -34.845,0 0,-34.016 z"
         id="path5885" />
    </clipPath>
    <inkscape:perspective
       id="perspective7191"
       inkscape:persp3d-origin="0.5 : 0.33333333 : 1"
       inkscape:vp_z="1 : 0.5 : 1"
       inkscape:vp_y="0 : 1000 : 0"
       inkscape:vp_x="0 : 0.5 : 1"
       sodipodi:type="inkscape:persp3d" />
    <clipPath
       clipPathUnits="userSpaceOnUse"
       id="clipPath6115">
      <path
         d="m 112.397,129.449 34.845,0 0,34.016 -34.845,0 0,-34.016 z"
         id="path6117" />
    </clipPath>
    <inkscape:perspective
       id="perspective7283"
       inkscape:persp3d-origin="0.5 : 0.33333333 : 1"
       inkscape:vp_z="1 : 0.5 : 1"
       inkscape:vp_y="0 : 1000 : 0"
       inkscape:vp_x="0 : 0.5 : 1"
       sodipodi:type="inkscape:persp3d" />
    <clipPath
       clipPathUnits="userSpaceOnUse"
       id="clipPath5487">
      <path
         d="m 52.071,490.394 34.845,0 0,34.016 -34.845,0 0,-34.016 z"
         id="path5489" />
    </clipPath>
    <inkscape:perspective
       id="perspective7383"
       inkscape:persp3d-origin="0.5 : 0.33333333 : 1"
       inkscape:vp_z="1 : 0.5 : 1"
       inkscape:vp_y="0 : 1000 : 0"
       inkscape:vp_x="0 : 0.5 : 1"
       sodipodi:type="inkscape:persp3d" />
    <clipPath
       clipPathUnits="userSpaceOnUse"
       id="clipPath5335">
      <path
         d="m 51.732,129.449 34.845,0 0,34.016 -34.845,0 0,-34.016 z"
         id="path5337" />
    </clipPath>
    <inkscape:perspective
       id="perspective7487"
       inkscape:persp3d-origin="0.5 : 0.33333333 : 1"
       inkscape:vp_z="1 : 0.5 : 1"
       inkscape:vp_y="0 : 1000 : 0"
       inkscape:vp_x="0 : 0.5 : 1"
       sodipodi:type="inkscape:persp3d" />
    <clipPath
       clipPathUnits="userSpaceOnUse"
       id="clipPath6159">
      <path
         d="m 234.152,129.449 34.845,0 0,34.016 -34.845,0 0,-34.016 z"
         id="path6161" />
    </clipPath>
    <inkscape:perspective
       id="perspective7591"
       inkscape:persp3d-origin="0.5 : 0.33333333 : 1"
       inkscape:vp_z="1 : 0.5 : 1"
       inkscape:vp_y="0 : 1000 : 0"
       inkscape:vp_x="0 : 0.5 : 1"
       sodipodi:type="inkscape:persp3d" />
    <clipPath
       clipPathUnits="userSpaceOnUse"
       id="clipPath6391">
      <path
         d="m 138.483,43.228 34.845,0 0,34.016 -34.845,0 0,-34.016 z"
         id="path6393" />
    </clipPath>
  </defs>
  <sodipodi:namedview
     id="base"
     pagecolor="#ffffff"
     bordercolor="#666666"
     borderopacity="1.0"
     inkscape:pageopacity="0.0"
     inkscape:pageshadow="2"
     inkscape:zoom="0.41767578"
     inkscape:cx="561.27483"
     inkscape:cy="169.97367"
     inkscape:document-units="px"
     inkscape:current-layer="layer1"
     showgrid="false"
     inkscape:window-width="1600"
     inkscape:window-height="838"
     inkscape:window-x="-8"
     inkscape:window-y="-8"
     inkscape:window-maximized="1" />
  <metadata
     id="metadata6424">
    <rdf:RDF>
      <cc:Work
         rdf:about="">
        <dc:format>image/svg+xml</dc:format>
        <dc:type
           rdf:resource="http://purl.org/dc/dcmitype/StillImage" />
        <dc:title></dc:title>
      </cc:Work>
    </rdf:RDF>
  </metadata>
  <g
     inkscape:label="Livello 1"
     inkscape:groupmode="layer"
     id="layer1"
     transform="translate(186.27483,-102.33706)">
    <g
       transform="matrix(-2.92279,0,0,-2.92279,113.72357,103.79732)"
       id="g13">
      <path
         d="m 0,0 c 56.41,0 102.14,-45.731 102.14,-102.14 0,-56.41 -45.731,-102.14 -102.14,-102.14 -56.411,0 -102.14,45.731 -102.14,102.14 C -102.14,-45.731 -56.411,0 0,0"
         style="fill:#ffffff;fill-rule:nonzero"
         id="path15" />
    </g>
    <g
       transform="matrix(-2.92279,0,0,-2.92279,413.72456,702.33591)"
       id="g17">
      <g
         clip-path="url(#clipPath20)"
         id="g19">
        <g
           transform="translate(102.642,204.783)"
           id="g21">
          <path
             d="m 0,0 c 56.41,0 102.14,-45.731 102.14,-102.14 0,-56.41 -45.731,-102.14 -102.14,-102.14 -56.411,0 -102.14,45.731 -102.14,102.14 C -102.14,-45.731 -56.411,0 0,0 z"
             style="fill:none;stroke:#1477c6;stroke-width:1;stroke-linecap:butt;stroke-linejoin:miter;stroke-miterlimit:4;stroke-dasharray:none"
             id="path23" />
        </g>
      </g>
    </g>
    <g
       transform="matrix(-2.92279,0,0,-2.92279,113.72357,103.79732)"
       id="g37">
      <path
         d="m 0,0 c 56.41,0 102.14,-45.731 102.14,-102.14 0,-56.41 -45.731,-102.14 -102.14,-102.14 -56.411,0 -102.14,45.731 -102.14,102.14 C -102.14,-45.731 -56.411,0 0,0"
         style="fill:#ffffff;fill-rule:nonzero"
         id="path39" />
    </g>
    <path
       d="m 113.72457,103.79846 c -164.875,0 -298.538,133.663 -298.538,298.538 0,164.875 133.663,298.538 298.538,298.538 164.875,0 298.538,-133.663 298.538,-298.538 0,-164.875 -133.663,-298.538 -298.538,-298.538 z"
       style="fill:none;stroke:#0079c1;stroke-width:2.92279005;stroke-linecap:butt;stroke-linejoin:miter;stroke-miterlimit:4;stroke-opacity:1;stroke-dasharray:none"
       id="path41" />
    <path
       d="m 113.72457,116.09851 c -158.087,0 -286.237,128.15 -286.237,286.237 0,158.087 128.15,286.237 286.237,286.237 158.087,0 286.238,-128.15 286.238,-286.237 0,-158.087 -128.15,-286.237 -286.238,-286.237"
       style="fill:#0079c1;fill-opacity:1;fill-rule:nonzero"
       id="path43" />
    <g
       id="g6399"
       transform="matrix(18.120997,0,0,-18.120997,246.46901,492.9223)">
      <path
         d="m 0,0 c -0.135,-0.068 -0.577,0.238 -0.577,0.238 l 0,1.496 c 0,0 0.512,-0.108 0.883,-0.873 C 0.434,0.598 0.137,0.067 0,0 m -12.847,-7.172 1.496,-0.033 0,0.509 0.17,0.307 -0.203,1.937 -0.273,2.107 c 0,0 0.137,2.514 0.137,2.752 0,0.239 0.339,1.734 0.339,1.734 l 0.408,0.067 c 0,0 0.578,-1.155 0.578,-1.528 0,-0.374 0.407,-3.127 0.407,-3.501 l 0,-2.107 c 0,-0.272 0.035,-1.156 0,-1.326 -0.034,-0.169 -0.272,-0.918 -0.272,-0.918 l 1.122,0 c 0,0 0.17,-0.203 0.272,-0.203 l 0.816,0 0,0.408 -0.544,0.306 -0.407,0.135 0.068,2.04 c 0,0 0.441,1.597 0.475,2.277 0.034,0.679 -0.408,3.398 -0.442,3.704 -0.033,0.306 -0.34,1.495 -0.374,1.802 -0.034,0.305 -0.135,0.849 -0.135,0.849 l 0.476,0 -0.476,2.888 c 0,0 -0.306,1.292 -0.306,1.666 0,0.374 0.102,0.646 0.306,0.646 0.203,0 0.339,-1.835 0.883,-2.549 0.543,-0.715 1.564,-1.871 1.564,-1.871 l 0.271,-1.188 c 0,0 1.529,-2.446 1.802,-2.515 0.271,-0.068 0.611,0.102 0.611,0.102 l 0.742,0.301 c 0,0 0.176,-1.015 -0.232,-1.355 -0.408,-0.339 -0.647,-0.849 -0.647,-0.849 0,0 -0.577,-0.102 -0.577,-0.306 0,-0.204 0.918,-1.121 0.918,-1.121 l 0.136,-2.107 c 0,0 0.543,-0.986 0.646,-1.394 0.102,-0.408 0.169,-1.19 0.169,-1.19 L -3.671,-6.763 -3.5,-6.899 c 0,0 1.014,-0.289 1.326,-0.034 0.312,0.254 -0.272,0.339 -0.272,0.339 0,0 -0.137,2.482 -0.17,2.719 -0.034,0.238 -0.137,0.476 -0.137,0.612 0,0.136 0.035,0.748 0.035,0.748 l 0.544,0.033 c 0,0 0.237,-1.155 0.339,-1.358 0.102,-0.205 0.714,-1.088 0.884,-1.395 0.17,-0.305 0.544,-0.984 0.544,-0.984 l 0,-0.442 -0.68,-0.068 c 0,0 -0.102,-0.204 0,-0.238 0.102,-0.034 0.952,0 0.952,0 0,0 0.34,0.135 0.34,0.441 0,0.307 -0.239,0.953 -0.239,0.953 0,0 -0.951,2.208 -0.951,2.31 0,0.102 0.136,0.578 0.136,0.578 0,0 1.155,0.986 1.291,1.359 0.136,0.374 0,1.02 0,1.02 0,0 0.952,0.645 0.986,0.952 0.034,0.305 -0.442,1.529 -0.612,1.767 -0.17,0.238 -1.36,1.529 -1.564,1.529 l -0.203,0 -0.136,0.781 c 0,0 0.68,0.135 0.815,0.203 0.137,0.068 -0.17,0.646 -0.17,1.089 0,0.475 -0.645,1.224 -0.917,1.257 C -1.63,7.307 -2.685,7.034 -2.957,6.899 -3.228,6.763 -3.228,6.423 -3.195,6.117 -3.16,5.811 -2.718,5.505 -2.718,5.505 L -2.616,4.926 -1.868,4.621 -1.835,4.01 c 0,0 -0.61,-0.095 -0.866,-0.299 -0.624,-0.499 -1.28,-1.411 -1.377,-1.435 -0.137,-0.033 -1.428,1.36 -1.428,1.53 0,0.17 -0.679,1.12 -0.679,1.12 l -0.17,0.24 c 0,0 -0.102,1.223 -0.204,1.359 -0.101,0.136 -1.121,1.801 -1.155,2.447 -0.034,0.646 -0.374,2.276 -0.374,2.276 0,0 0.067,1.36 -0.136,1.666 -0.204,0.306 -1.836,0.782 -1.836,0.782 l -0.169,0 -0.034,1.019 c 0,0 0.475,0.408 0.544,0.578 0.068,0.171 0.204,0.952 0.204,1.326 0,0.373 -0.442,1.325 -1.021,1.359 -0.577,0.033 -1.461,-0.748 -1.494,-1.121 -0.034,-0.374 0.135,-1.428 0.34,-1.564 0.203,-0.136 0.237,-1.224 0.237,-1.224 0,0 -1.393,-0.17 -1.869,-0.509 -0.475,-0.34 -1.937,-4.351 -1.937,-4.69 0,-0.34 -0.238,-4.724 -0.238,-4.724 0,0 -0.027,-0.216 0.06,-0.161 0.308,0.194 0.11,-0.213 0.212,-0.314 0.204,-0.205 0.492,-0.464 0.815,-0.409 0.323,0.054 0.171,0.612 0.171,0.612 l -0.34,0.442 0.408,0.17 c 0,0 -0.035,3.568 0.203,4.01 0.238,0.442 0.374,0.952 0.612,0.952 l 0.238,0 -0.442,-5.302 0.374,0 c 0,0 -0.272,-6.831 0,-7.205 0.272,-0.373 0.51,-1.937 0.51,-2.074 l 0,-1.426 -0.748,0 c 0,0 -0.272,-0.306 -0.136,-0.306"
         style="fill:#ffffff;fill-opacity:1;fill-rule:nonzero;stroke:none"
         id="path6401" />
    </g>
  </g>
</svg>
