<svg xmlns="http://www.w3.org/2000/svg" width="213.556" height="213.418"><path d="M0 0c7.465 0 13.608 6.117 13.608 13.582 0 7.49-6.143 13.61-13.608 13.61-7.491 0-13.61-6.12-13.61-13.61C-13.61 6.117-7.491 0 0 0" style="fill:#fff;fill-opacity:1;fill-rule:evenodd;stroke:none" transform="matrix(6.28013 0 0 -6.28013 106.769 192.088)"/><path d="M0 0c7.467 0 13.608 6.119 13.608 13.584 0 7.491-6.141 13.608-13.608 13.608-7.491 0-13.608-6.117-13.608-13.608C-13.608 6.119-7.491 0 0 0m0-3.394c9.356 0 17.004 7.648 17.004 16.978 0 9.359-7.648 17.005-17.004 17.005-9.354 0-17.001-7.646-17.001-17.005 0-9.33 7.647-16.978 17.001-16.978" style="fill:#ed1d24;fill-opacity:1;fill-rule:evenodd;stroke:none" transform="matrix(6.28013 0 0 -6.28013 106.769 192.103)"/><path d="M0 0h12.049l2.412-5.255H-2.33L0 0z" style="fill:#000;fill-opacity:1;fill-rule:nonzero;stroke:none" transform="matrix(6.28013 0 0 -6.28013 70.683 63.494)"/><path d="m0 0-1.659-3.635h14.261L11.102 0H0z" style="fill:#fdfefc;fill-opacity:1;fill-rule:nonzero;stroke:none" transform="matrix(6.28013 0 0 -6.28013 74.408 69.448)"/><path d="M0 0a.717.717 0 0 0-.717-.718h-16.976A.717.717 0 0 0-18.41 0v3.661c0 .397.321.718.717.718H-.717A.717.717 0 0 0 0 3.661V0z" style="fill:#000;fill-opacity:1;fill-rule:nonzero;stroke:none" transform="matrix(6.28013 0 0 -6.28013 166.577 121.993)"/><path d="M0 0a1.323 1.323 0 1 0-2.647-.003A1.323 1.323 0 0 0 0 0" style="fill:#fdfefc;fill-opacity:1;fill-rule:nonzero;stroke:none" transform="matrix(6.28013 0 0 -6.28013 73.79 107.516)"/><path d="M0 0a1.324 1.324 0 1 0-2.648 0A1.324 1.324 0 0 0 0 0" style="fill:#fdfefc;fill-opacity:1;fill-rule:nonzero;stroke:none" transform="matrix(6.28013 0 0 -6.28013 159.63 107.516)"/><path d="M0 0c0-.424-.321-.768-.717-.768h-1.212c-.396 0-.717.344-.717.768v2.612c0 .424.321.768.717.768h1.212c.396 0 .717-.344.717-.768V0z" style="fill:#000;fill-opacity:1;fill-rule:nonzero;stroke:none" transform="matrix(6.28013 0 0 -6.28013 159.63 143.508)"/><path d="M0 0c0-.424-.321-.768-.717-.768h-1.212c-.396 0-.717.344-.717.768v2.612c0 .424.321.768.717.768h1.212c.396 0 .717-.344.717-.768V0z" style="fill:#000;fill-opacity:1;fill-rule:nonzero;stroke:none" transform="matrix(6.28013 0 0 -6.28013 73.79 143.508)"/></svg>