<svg xmlns="http://www.w3.org/2000/svg" width="213.863" height="213.726"><defs><clipPath clipPathUnits="userSpaceOnUse" id="a"><path d="M43.076 323.15h34.845v34.016H43.076V323.15z"/></clipPath><clipPath clipPathUnits="userSpaceOnUse" id="b"><path d="M0 0h311v595H0V0z"/></clipPath></defs><g clip-path="url(#a)" transform="matrix(6.28915 0 0 -6.28915 -742.782 2246.588)"><path d="M0 0c9.417 0 17.098 7.68 17.098 17.095 0 9.417-7.681 17.097-17.098 17.097-9.416 0-17.096-7.68-17.096-17.097C-17.096 7.68-9.416 0 0 0" style="fill:#ed1d24;fill-opacity:1;fill-rule:evenodd;stroke:none" transform="translate(60.498 323.15)"/><path d="M0 0a13.476 13.476 0 0 0-8.039-2.644c-7.481 0-13.549 6.067-13.549 13.547 0 3.011.986 5.791 2.646 8.04l9.469-9.47L0 0z" style="fill:#fff;fill-opacity:1;fill-rule:evenodd;stroke:none" transform="translate(68.537 329.342)"/><path d="M0 0c7.481 0 13.547-6.067 13.547-13.548 0-3.009-.981-5.79-2.644-8.039l-9.469 9.47-9.474 9.473A13.472 13.472 0 0 0 0 0" style="fill:#fff;fill-opacity:1;fill-rule:evenodd;stroke:none" transform="translate(60.498 353.793)"/><path d="M0 0h-6.644a2.122 2.122 0 0 1-2.117-2.116v.001-.021c-.41.721-.678 1.913-.678 3.263 0 1.347.268 2.541.678 3.263v-.021c0-1.166.953-2.118 2.117-2.118h4.394L0 0z" style="fill:#000;fill-opacity:1;fill-rule:evenodd;stroke:none" transform="translate(58.468 339.408)"/><path d="M0 0a.708.708 0 0 1-.477 1.232h-.755l-1.321 1.323h2.267A2.037 2.037 0 0 0 1.745.526h1.256a2.001 2.001 0 0 0 1.922 1.443 1.998 1.998 0 1 0 0-3.996A2 2 0 0 0 3.001-.586H1.413a2.112 2.112 0 0 0-.389-.439L0 0z" style="fill:#000;fill-opacity:1;fill-rule:evenodd;stroke:none" transform="translate(64.643 338.964)"/><path d="M0 0h3.409l.744-.744H.12a.517.517 0 0 1 0-1.031h5.062l.744-.744H0A1.26 1.26 0 0 0-1.26-1.26C-1.26-.567-.697 0 0 0" style="fill:#000;fill-opacity:1;fill-rule:evenodd;stroke:none" transform="translate(55.67 338.8)"/></g><path d="M0 0c7.467 0 13.608 6.119 13.608 13.584 0 7.491-6.141 13.608-13.608 13.608-7.491 0-13.608-6.117-13.608-13.608C-13.608 6.119-7.491 0 0 0m0-3.394c9.356 0 17.004 7.648 17.004 16.978 0 9.359-7.648 17.005-17.004 17.005-9.354 0-17.001-7.646-17.001-17.005 0-9.33 7.647-16.978 17.001-16.978" style="fill:#ed1d24;fill-opacity:1;fill-rule:evenodd;stroke:none" transform="matrix(6.28915 0 0 -6.28915 106.922 192.38)"/><path d="M0 0v.723h2.66V.158c-.22-.216-.443-.526-.67-.93a5.393 5.393 0 0 1-.518-1.289 4.722 4.722 0 0 1-.176-1.219h-.75c.012.561.129 1.133.347 1.716.218.583.511 1.105.877 1.564H0" style="fill:#000;fill-opacity:1;fill-rule:nonzero;stroke:none" transform="matrix(6.28915 0 0 -6.28915 72.762 55.678)"/><path d="m0 0-.251-.09c-.075-.06-.131-.167-.173-.322-.054-.201-.08-.54-.08-1.016s.024-.803.073-.981c.047-.178.108-.297.18-.356L0-2.853l.251.089c.075.06.131.168.173.323.054.199.08.537.08 1.013 0 .476-.024.803-.073.981-.047.178-.108.297-.18.357L0 0m0 .645c.394 0 .701-.14.921-.421.265-.332.396-.883.396-1.652 0-.768-.133-1.319-.398-1.655C.698-3.36.394-3.499 0-3.499c-.396 0-.712.152-.954.456-.244.303-.363.845-.363 1.623 0 .764.133 1.314.398 1.65.221.277.525.415.919.415" style="fill:#000;fill-opacity:1;fill-rule:nonzero;stroke:none" transform="matrix(6.28915 0 0 -6.28915 100.856 54.738)"/><path d="M0 0h.717v-.401c.256.311.563.467.917.467a.98.98 0 0 0 .489-.116.885.885 0 0 0 .34-.351c.129.157.27.274.42.351.147.078.307.116.478.116.216 0 .398-.043.548-.131a.82.82 0 0 0 .335-.386c.052-.126.08-.329.08-.609v-1.88h-.778v1.681c0 .291-.026.479-.08.564-.072.111-.182.166-.332.166l-.307-.099a.549.549 0 0 1-.209-.293c-.042-.128-.063-.33-.063-.607V-2.94h-.778v1.611c0 .287-.014.471-.04.554l-.129.186-.237.06a.53.53 0 0 1-.53-.376c-.042-.122-.063-.324-.063-.606V-2.94H0V0" style="fill:#000;fill-opacity:1;fill-rule:nonzero;stroke:none" transform="matrix(6.28915 0 0 -6.28915 113.09 57.819)"/><g clip-path="url(#b)" transform="matrix(6.28915 0 0 -6.28915 -1038.493 2246.165)"><path d="M0 0c.874 0 1.584-.711 1.584-1.584a1.588 1.588 0 1 0-3.175 0C-1.591-.711-.886 0 0 0" style="fill:#000;fill-opacity:1;fill-rule:evenodd;stroke:none" transform="translate(187.914 334.692)"/><path d="M0 0h.757a2.14 2.14 0 0 0 4.226 0h8.524a2.142 2.142 0 0 0 2.121 1.801A2.135 2.135 0 0 0 17.733 0l1.024 1.295v.299h1.537v6.489H5.763V1.594h6.218v-.299H4.748l.071 4.199H1.851L0 1.295V0" style="fill:#000;fill-opacity:1;fill-rule:evenodd;stroke:none" transform="translate(185.039 333.444)"/><path d="M0 0a.586.586 0 1 0-.004-1.172A.586.586 0 0 0 0 0m-12.75 0a.58.58 0 0 0 .581-.582.583.583 0 1 0-1.167 0c0 .322.26.582.586.582m-.764 4.766h2.152V3.027h-2.761l.609 1.739" style="fill:#fff;fill-opacity:1;fill-rule:evenodd;stroke:none" transform="translate(200.662 333.687)"/><path d="M0 0c.872 0 1.582-.711 1.582-1.584a1.587 1.587 0 1 0-3.176 0C-1.594-.711-.888 0 0 0" style="fill:#000;fill-opacity:1;fill-rule:evenodd;stroke:none" transform="translate(176.475 334.692)"/><path d="M0 0h.757a2.14 2.14 0 0 0 4.226 0h8.524a2.142 2.142 0 0 0 2.121 1.801A2.135 2.135 0 0 0 17.733 0l1.024 1.295v.299h1.537v6.489H5.763V1.594h6.218v-.299H4.748l.071 4.199H1.852L0 1.295V0" style="fill:#000;fill-opacity:1;fill-rule:evenodd;stroke:none" transform="translate(160.847 333.444)"/><path d="M0 0a.585.585 0 1 0-.003-1.173A.585.585 0 0 0 0 0m-12.75 0a.58.58 0 0 0 .581-.582.583.583 0 1 0-1.167 0c0 .322.26.582.586.582m-.764 4.766h2.152V3.027h-2.761l.609 1.739" style="fill:#fff;fill-opacity:1;fill-rule:evenodd;stroke:none" transform="translate(176.47 333.687)"/><path d="M0 0v-1.248h-1.577L-.787 0H0z" style="fill:#000;fill-opacity:1;fill-rule:evenodd;stroke:none" transform="translate(180.157 334.692)"/></g><path d="M0 0h-70.799v70.799H0V0zm-37.956 39.133c-9.353 0-17.001-7.647-17.001-17.005 0-9.33 7.648-16.978 17.001-16.978 9.357 0 17.004 7.648 17.004 16.978 0 9.358-7.647 17.005-17.004 17.005m0-30.589c-5.051 0-9.478 2.783-11.825 6.884h4.054a2.141 2.141 0 0 0 2.121 1.802 2.133 2.133 0 0 0 2.104-1.802h1.578v1.248h-.59l.037.047v.299h1.537v6.49h-12.553c.698 6.845 6.514 12.224 13.537 12.224 7.468 0 13.608-6.117 13.608-13.608 0 .467-.024.928-.07 1.384h-4.861v-6.49h3.924a13.418 13.418 0 0 1 1.007 5.062c-.024-7.445-6.155-13.54-13.608-13.54m5.789 8.132a1.585 1.585 0 0 1-1.591-1.584 1.588 1.588 0 1 1 3.176 0c0 .873-.71 1.584-1.585 1.584m-11.439 0a1.585 1.585 0 0 1-1.594-1.584 1.587 1.587 0 1 1 3.176 0c0 .873-.71 1.584-1.582 1.584m11.442.554a2.134 2.134 0 0 0 2.104-1.802h3.924c.24.419.459.851.654 1.295h-4.812l.07 4.199h-2.967l-1.851-4.199v-1.295h.757a2.14 2.14 0 0 0 2.121 1.802m-6.756 13.845c-.394 0-.698-.139-.919-.416-.265-.336-.398-.885-.398-1.649 0-.779.119-1.32.363-1.624.241-.303.558-.455.954-.455.394 0 .698.138.919.415.264.336.398.887.398 1.656 0 .769-.131 1.32-.396 1.652-.22.281-.527.421-.921.421m5.079-1.664c.15 0 .26-.056.333-.166.054-.085.079-.273.079-.565V27h.778v1.88c0 .28-.028.483-.079.608a.828.828 0 0 1-.335.387c-.15.087-.333.131-.549.131a1.02 1.02 0 0 1-.478-.116 1.363 1.363 0 0 1-.42-.352.9.9 0 0 1-.339.352.997.997 0 0 1-.49.116c-.354 0-.661-.156-.917-.468v.402h-.717V27h.778v1.428c0 .283.021.484.064.606a.532.532 0 0 0 .529.377l.237-.061.129-.186c.026-.082.04-.267.04-.553V27h.778v1.411c0 .278.021.48.063.608a.551.551 0 0 0 .209.292l.307.1M-42.091 27c-.002.358.056.765.176 1.219.119.455.29.884.518 1.289.227.404.45.714.67.93v.564h-2.66v-.722h1.769a5.706 5.706 0 0 1-.876-1.564A5.205 5.205 0 0 1-42.841 27h.75m-5.162-10.277h-3.18c-.043.099-.086.199-.127.299h3.307v-.299m8.333 10.853-.251.088c-.072.06-.133.178-.18.356-.05.178-.073.505-.073.982 0 .475.026.814.08 1.015.042.155.098.262.173.323l.251.089.251-.089c.072-.061.133-.179.18-.358.049-.178.073-.505.073-.98 0-.477-.026-.814-.08-1.014-.042-.155-.098-.263-.173-.322l-.251-.09" style="fill:#fff;fill-opacity:1;fill-rule:nonzero;stroke:none" transform="matrix(6.28915 0 0 -6.28915 345.63 246.113)"/><path d="M0 0c-9.354 0-17.001 7.648-17.001 16.978 0 9.358 7.647 17.005 17.001 17.005 9.356 0 17.004-7.647 17.004-17.005C17.004 7.648 9.356 0 0 0m-11.826 10.278C-9.478 6.177-5.051 3.394 0 3.394c7.453 0 13.584 6.095 13.608 13.54v.044c0 7.491-6.141 13.608-13.608 13.608-7.023 0-12.839-5.379-13.537-12.224h-.003a13.437 13.437 0 0 1 .934-6.49h.002c.041-.1.083-.2.127-.299h-.002c.195-.444.412-.876.652-1.295h.001" style="fill:#ed1d24;fill-opacity:1;fill-rule:nonzero;stroke:none" transform="matrix(6.28915 0 0 -6.28915 106.922 213.724)"/><path d="M0 0h-.75c.012.561.129 1.133.347 1.716.218.583.511 1.105.876 1.564h-1.769v.723h2.66v-.565c-.22-.216-.443-.526-.67-.93a5.393 5.393 0 0 1-.518-1.289A4.722 4.722 0 0 1 0 0" style="fill:#000;fill-opacity:1;fill-rule:nonzero;stroke:none" transform="matrix(6.28915 0 0 -6.28915 80.913 76.306)"/><path d="M0 0a1.16 1.16 0 0 0-.954.455c-.244.304-.363.845-.363 1.624 0 .764.133 1.314.398 1.649.221.277.525.416.919.416s.701-.14.921-.421c.265-.332.396-.883.396-1.652 0-.768-.133-1.32-.398-1.656C.698.138.394 0 0 0m0 3.499-.251-.09c-.075-.06-.131-.168-.173-.323-.054-.201-.08-.54-.08-1.015 0-.477.024-.804.073-.982.047-.178.108-.296.18-.355L0 .645l.251.09c.075.059.131.167.173.323.054.199.08.536.08 1.013 0 .475-.024.802-.073.981-.047.178-.108.297-.18.357L0 3.499" style="fill:#000;fill-opacity:1;fill-rule:nonzero;stroke:none" transform="matrix(6.28915 0 0 -6.28915 100.856 76.74)"/><path d="M0 0h-.778v1.68c0 .292-.026.48-.08.565-.072.11-.183.166-.333.166l-.307-.1a.55.55 0 0 1-.208-.292c-.042-.128-.063-.33-.063-.608V0h-.779v1.611c0 .286-.014.471-.039.553l-.129.186-.237.061a.532.532 0 0 1-.53-.377c-.042-.122-.063-.323-.063-.606V0h-.778v2.94h.717v-.402c.256.312.563.468.916.468a.992.992 0 0 0 .49-.116.895.895 0 0 0 .34-.352c.129.157.27.274.42.352.147.077.307.116.478.116.215 0 .398-.044.548-.131a.822.822 0 0 0 .335-.387c.052-.125.08-.328.08-.608V0" style="fill:#000;fill-opacity:1;fill-rule:nonzero;stroke:none" transform="matrix(6.28915 0 0 -6.28915 140.286 76.306)"/><path d="M0 0c-.886 0-1.591.71-1.591 1.596 0 .873.705 1.584 1.591 1.584.874 0 1.584-.711 1.584-1.584C1.584.71.874 0 0 0m-.002 2.175a.586.586 0 1 1 0-1.172c.323 0 .581.263.581.589a.58.58 0 0 1-.581.583" style="fill:#000;fill-opacity:1;fill-rule:nonzero;stroke:none" transform="matrix(6.28915 0 0 -6.28915 143.33 161.235)"/><path d="M0 0h-3.924a2.14 2.14 0 0 1-4.225 0h-.757v1.295l1.851 4.199h2.967l-.07-4.199H.654A13.767 13.767 0 0 0 0 0m-6.797 5.009-.609-1.739h2.76v1.739h-2.151M.781 1.594h-3.924v6.489h4.86c.047-.455.071-.916.071-1.383v-.044A13.414 13.414 0 0 0 .781 1.594" style="fill:#000;fill-opacity:1;fill-rule:nonzero;stroke:none" transform="matrix(6.28915 0 0 -6.28915 181.258 149.082)"/><path d="M0 0a.586.586 0 1 0 0 1.172.58.58 0 0 0 .581-.583A.583.583 0 0 0 0 0m1.387 4.199h-2.76l.609 1.739h2.151V4.199" style="fill:#fff;fill-opacity:1;fill-rule:nonzero;stroke:none" transform="matrix(6.28915 0 0 -6.28915 143.315 154.926)"/><path d="M0 0c-.888 0-1.594.71-1.594 1.596 0 .873.706 1.584 1.594 1.584.872 0 1.582-.711 1.582-1.584C1.582.71.872 0 0 0m-.005 2.175a.586.586 0 1 1 0-1.172.586.586 0 0 1 0 1.172" style="fill:#000;fill-opacity:1;fill-rule:nonzero;stroke:none" transform="matrix(6.28915 0 0 -6.28915 71.383 161.235)"/><path d="M0 0a2.134 2.134 0 0 1-2.105 1.801A2.142 2.142 0 0 1-4.226 0H-8.281c-.24.419-.457.85-.652 1.295H-5.752v.299H-9.06a13.433 13.433 0 0 0-.934 6.489H2.562V1.594H1.024v-.299l-.037-.047H.79L0 0" style="fill:#000;fill-opacity:1;fill-rule:nonzero;stroke:none" transform="matrix(6.28915 0 0 -6.28915 84.62 149.082)"/><path d="M0 0a.586.586 0 1 0 0 1.171A.586.586 0 0 0 0 0" style="fill:#fff;fill-opacity:1;fill-rule:nonzero;stroke:none" transform="matrix(6.28915 0 0 -6.28915 71.354 154.926)"/><path d="M0 0h-1.577l.79 1.248H0V0z" style="fill:#000;fill-opacity:1;fill-rule:nonzero;stroke:none" transform="matrix(6.28915 0 0 -6.28915 94.54 149.082)"/></svg>