<svg xmlns="http://www.w3.org/2000/svg" width="212.045" height="211.907"><defs><clipPath clipPathUnits="userSpaceOnUse" id="a"><path d="M163.559 196.441h34.845v34.016h-34.845v-34.016z"/></clipPath></defs><g clip-path="url(#a)" transform="matrix(6.23569 0 0 -6.23569 -1022.529 1436.952)"><path d="M0 0c7.465 0 13.608 6.117 13.608 13.582 0 7.49-6.143 13.61-13.608 13.61-7.491 0-13.61-6.12-13.61-13.61C-13.61 6.117-7.491 0 0 0" style="fill:#007ac2;fill-opacity:1;fill-rule:evenodd;stroke:none" transform="translate(180.981 199.853)"/><path d="M0 0c7.467 0 13.608 6.119 13.608 13.584 0 7.491-6.141 13.608-13.608 13.608-7.491 0-13.608-6.117-13.608-13.608C-13.608 6.119-7.491 0 0 0m0-3.394c9.356 0 17.004 7.648 17.004 16.978 0 9.359-7.648 17.005-17.004 17.005-9.354 0-17.001-7.646-17.001-17.005 0-9.33 7.647-16.978 17.001-16.978" style="fill:#ed1d24;fill-opacity:1;fill-rule:evenodd;stroke:none" transform="translate(180.981 199.851)"/><path d="M179.132 203.149h3.701v20.599h-3.701v-20.599z" style="fill:#fff;fill-opacity:1;fill-rule:evenodd;stroke:none"/><path d="m0 0-22.596 22.089 1.887 1.931L1.889 1.931 0 0z" style="fill:#ed1d24;fill-opacity:1;fill-rule:nonzero;stroke:none" transform="translate(191.336 201.439)"/></g></svg>