<?xml version="1.0" encoding="UTF-8" standalone="no"?>
<!-- Created with Inkscape (http://www.inkscape.org/) -->

<svg
   xmlns:dc="http://purl.org/dc/elements/1.1/"
   xmlns:cc="http://creativecommons.org/ns#"
   xmlns:rdf="http://www.w3.org/1999/02/22-rdf-syntax-ns#"
   xmlns:svg="http://www.w3.org/2000/svg"
   xmlns="http://www.w3.org/2000/svg"
   xmlns:sodipodi="http://sodipodi.sourceforge.net/DTD/sodipodi-0.dtd"
   xmlns:inkscape="http://www.inkscape.org/namespaces/inkscape"
   width="150.32228"
   height="151.62778"
   id="svg4366"
   version="1.1"
   inkscape:version="0.47 r22583"
   sodipodi:docname="Nuovo documento 4">
  <defs
     id="defs4368">
    <inkscape:perspective
       sodipodi:type="inkscape:persp3d"
       inkscape:vp_x="0 : 526.18109 : 1"
       inkscape:vp_y="0 : 1000 : 0"
       inkscape:vp_z="744.09448 : 526.18109 : 1"
       inkscape:persp3d-origin="372.04724 : 350.78739 : 1"
       id="perspective4374" />
    <inkscape:perspective
       id="perspective4198"
       inkscape:persp3d-origin="0.5 : 0.33333333 : 1"
       inkscape:vp_z="1 : 0.5 : 1"
       inkscape:vp_y="0 : 1000 : 0"
       inkscape:vp_x="0 : 0.5 : 1"
       sodipodi:type="inkscape:persp3d" />
    <clipPath
       clipPathUnits="userSpaceOnUse"
       id="clipPath2876">
      <path
         d="m 32.598,406.205 114.997,0 0,116.22 -114.997,0 0,-116.22 z"
         id="path2878" />
    </clipPath>
    <clipPath
       clipPathUnits="userSpaceOnUse"
       id="clipPath2864">
      <path
         d="M 0,0 311,0 311,595 0,595 0,0 z"
         id="path2866" />
    </clipPath>
    <clipPath
       clipPathUnits="userSpaceOnUse"
       id="clipPath2848">
      <path
         d="m 32.598,406.205 114.997,0 0,116.22 -114.997,0 0,-116.22 z"
         id="path2850" />
    </clipPath>
  </defs>
  <sodipodi:namedview
     id="base"
     pagecolor="#ffffff"
     bordercolor="#666666"
     borderopacity="1.0"
     inkscape:pageopacity="0.0"
     inkscape:pageshadow="2"
     inkscape:zoom="0.83535156"
     inkscape:cx="162.2584"
     inkscape:cy="14.678595"
     inkscape:document-units="px"
     inkscape:current-layer="layer1"
     showgrid="false"
     inkscape:window-width="1600"
     inkscape:window-height="838"
     inkscape:window-x="-8"
     inkscape:window-y="-8"
     inkscape:window-maximized="1" />
  <metadata
     id="metadata4371">
    <rdf:RDF>
      <cc:Work
         rdf:about="">
        <dc:format>image/svg+xml</dc:format>
        <dc:type
           rdf:resource="http://purl.org/dc/dcmitype/StillImage" />
        <dc:title></dc:title>
      </cc:Work>
    </rdf:RDF>
  </metadata>
  <g
     inkscape:label="Livello 1"
     inkscape:groupmode="layer"
     id="layer1"
     transform="translate(-212.7416,-395.413)">
    <g
       transform="matrix(1.3698655,0,0,-1.3698655,164.48152,1107.0334)"
       id="g2844">
      <g
         id="g2846"
         clip-path="url(#clipPath2848)">
        <path
           d="m 35.474,409.038 109.246,0 0,110.199 -109.246,0 0,-110.199 z"
           style="fill:#007ac2;fill-opacity:1;fill-rule:nonzero;stroke:none"
           id="path2852" />
        <path
           d="m 35.718,409.333 108.758,0 0,109.612 -108.758,0 0,-109.612 z"
           style="fill:#007ac2;fill-opacity:1;fill-rule:nonzero;stroke:none"
           id="path2854" />
        <g
           id="g2856"
           transform="translate(144.7215,409.03841)">
          <path
             d="m 0,0 -109.246,0 0,110.199 L 0,110.199 0,0 z m -109.003,0.294 108.758,0 0,109.611 -108.758,0 0,-109.611 z"
             style="fill:#007ac2;fill-opacity:1;fill-rule:nonzero;stroke:none"
             id="path2858" />
        </g>
      </g>
    </g>
    <g
       transform="matrix(1.3698655,0,0,-1.3698655,164.48152,1107.0334)"
       id="g2860">
      <g
         id="g2862"
         clip-path="url(#clipPath2864)">
        <g
           id="g2868"
           transform="matrix(0.9758759,0,0,-1.1755981,3.2721863,2024.002)">
          <path
             d="m 32.998,1279.999 111.947,0 0,93.739 -111.947,0 0,-93.739 z"
             style="fill:none;stroke:#000000;stroke-width:0.45624918;stroke-linecap:butt;stroke-linejoin:miter;stroke-miterlimit:10;stroke-opacity:1;stroke-dasharray:none"
             id="path2870" />
        </g>
      </g>
    </g>
    <g
       transform="matrix(1.3698655,0,0,-1.3698655,164.48152,1107.0334)"
       id="g2872">
      <g
         id="g2874"
         clip-path="url(#clipPath2876)">
        <path
           d="m 42.831,454.74 5.001,0 0,24.981 -5.001,0 0,-24.981 z"
           style="fill:#ffffff;fill-opacity:1;fill-rule:evenodd;stroke:none"
           id="path2880" />
        <g
           id="g2882"
           transform="translate(40.3918,478.8399)">
          <path
             d="M 0,0 9.881,0 4.941,9.552 0,0 z"
             style="fill:#ffffff;fill-opacity:1;fill-rule:evenodd;stroke:none"
             id="path2884" />
        </g>
        <g
           id="g2886"
           transform="translate(55.958206,465.0594)">
          <path
             d="m 0,0 3.289,0 0,-0.748 -2.592,0 0,-5.593 L 0,-6.341 0,0 z"
             style="fill:#ffdb00;fill-opacity:1;fill-rule:nonzero;stroke:none"
             id="path2888" />
        </g>
        <g
           id="g2890"
           transform="translate(60.273499,458.718)">
          <path
             d="m 0,0 0,6.341 3.806,0 0,-0.748 -3.109,0 0,-1.942 2.912,0 0,-0.744 -2.912,0 0,-2.158 3.231,0 L 3.928,0 0,0 z"
             style="fill:#ffdb00;fill-opacity:1;fill-rule:nonzero;stroke:none"
             id="path2892" />
        </g>
        <g
           id="g2894"
           transform="translate(66.132599,462.04449)">
          <path
             d="M 0,0 1.361,0 C 1.811,0 2.13,0.101 2.32,0.302 2.509,0.504 2.604,0.789 2.604,1.156 2.604,1.42 2.548,1.647 2.437,1.836 2.326,2.026 2.178,2.15 1.997,2.21 1.88,2.248 1.663,2.267 1.347,2.267 L 0,2.267 0,0 z m -0.697,-3.327 0,6.342 1.986,0 C 1.638,3.015 1.906,2.994 2.09,2.954 2.348,2.903 2.565,2.804 2.74,2.658 2.914,2.512 3.055,2.309 3.162,2.046 3.268,1.783 3.322,1.495 3.322,1.18 3.322,0.642 3.179,0.186 2.894,-0.188 2.609,-0.562 2.094,-0.749 1.351,-0.749 l -1.351,0 0,-2.578 -0.697,0 z"
             style="fill:#ffdb00;fill-opacity:1;fill-rule:nonzero;stroke:none"
             id="path2896" />
        </g>
        <path
           d="m 70.732,458.718 0.697,0 0,6.341 -0.697,0 0,-6.341 z"
           style="fill:#ffdb00;fill-opacity:1;fill-rule:nonzero;stroke:none"
           id="path2898" />
        <g
           id="g2900"
           transform="translate(58.399994,450.625)">
          <path
             d="m 0,0 0,0.744 2.23,0.005 0,-2.354 C 1.887,-1.934 1.534,-2.181 1.17,-2.346 0.807,-2.512 0.433,-2.596 0.05,-2.596 c -0.516,0 -0.987,0.134 -1.409,0.401 -0.423,0.266 -0.741,0.651 -0.957,1.157 -0.215,0.504 -0.323,1.069 -0.323,1.692 0,0.617 0.107,1.192 0.321,1.727 0.214,0.534 0.522,0.932 0.924,1.192 0.403,0.259 0.866,0.39 1.39,0.39 0.381,0 0.725,-0.075 1.033,-0.223 C 1.336,3.591 1.578,3.383 1.753,3.119 1.927,2.853 2.06,2.508 2.151,2.081 L 1.522,1.873 C 1.443,2.196 1.346,2.45 1.228,2.635 1.111,2.819 0.943,2.966 0.725,3.078 0.507,3.188 0.265,3.245 0,3.245 -0.318,3.245 -0.593,3.186 -0.826,3.068 -1.058,2.952 -1.245,2.798 -1.388,2.609 -1.53,2.418 -1.641,2.209 -1.72,1.981 -1.854,1.589 -1.921,1.164 -1.921,0.705 c 0,-0.565 0.081,-1.038 0.243,-1.419 0.161,-0.38 0.396,-0.663 0.705,-0.847 0.308,-0.185 0.636,-0.278 0.984,-0.278 0.301,0 0.596,0.071 0.883,0.211 0.288,0.138 0.505,0.288 0.654,0.448 L 1.548,0 0,0 z"
             style="fill:#ffffff;fill-opacity:1;fill-rule:nonzero;stroke:none"
             id="path2902" />
        </g>
        <g
           id="g2904"
           transform="translate(62.334503,450.8757)">
          <path
             d="M 0,0 2.129,0 C 2.1,0.387 2.019,0.676 1.885,0.87 1.679,1.17 1.412,1.319 1.084,1.319 0.788,1.319 0.538,1.2 0.336,0.96 0.134,0.721 0.021,0.401 0,0 M 2.122,-1.259 2.79,-1.358 C 2.685,-1.828 2.489,-2.194 2.205,-2.452 1.92,-2.712 1.556,-2.841 1.113,-2.841 c -0.558,0 -1,0.206 -1.327,0.62 -0.327,0.413 -0.49,0.994 -0.49,1.741 0,0.773 0.165,1.372 0.495,1.799 C 0.122,1.746 0.55,1.96 1.077,1.96 1.587,1.96 2.003,1.751 2.326,1.332 2.65,0.915 2.811,0.326 2.811,-0.433 l -0.003,-0.206 -2.844,0 c 0.024,-0.506 0.142,-0.893 0.355,-1.161 0.214,-0.268 0.479,-0.402 0.797,-0.402 0.238,0 0.44,0.075 0.607,0.225 0.168,0.15 0.301,0.39 0.399,0.718"
             style="fill:#ffffff;fill-opacity:1;fill-rule:nonzero;stroke:none"
             id="path2906" />
        </g>
        <g
           id="g2908"
           transform="translate(66.200897,448.1376)">
          <path
             d="m 0,0 0,4.594 0.582,0 0,-0.696 c 0.148,0.325 0.286,0.54 0.41,0.643 0.126,0.105 0.265,0.157 0.415,0.157 0.219,0 0.44,-0.084 0.665,-0.251 L 1.849,3.724 C 1.691,3.837 1.533,3.894 1.375,3.894 1.234,3.894 1.108,3.842 0.994,3.74 0.882,3.637 0.802,3.495 0.754,3.313 0.682,3.037 0.646,2.733 0.646,2.405 L 0.646,0 0,0 z"
             style="fill:#ffffff;fill-opacity:1;fill-rule:nonzero;stroke:none"
             id="path2910" />
        </g>
        <g
           id="g2912"
           transform="translate(68.932999,452.7319)">
          <path
             d="m 0,0 0.646,0 0,-4.594 L 0,-4.594 0,0 z m 0,1.747 0.646,0 0,-0.896 -0.646,0 0,0.896 z"
             style="fill:#ffffff;fill-opacity:1;fill-rule:nonzero;stroke:none"
             id="path2914" />
        </g>
        <g
           id="g2916"
           transform="translate(58.184494,443.8987)">
          <path
             d="m 0,0 2.04,-6.341 -0.758,0 -1.368,4.602 c -0.12,0.404 -0.212,0.751 -0.277,1.043 -0.079,-0.349 -0.172,-0.697 -0.28,-1.043 l -1.422,-4.602 -0.71,0 L -0.718,0 0,0 z"
             style="fill:#ffdb00;fill-opacity:1;fill-rule:nonzero;stroke:none"
             id="path2918" />
        </g>
        <g
           id="g2920"
           transform="translate(61.135193,437.5573)">
          <path
             d="m 0,0 0,6.341 3.806,0 0,-0.747 -3.109,0 0,-1.943 2.912,0 0,-0.744 -2.912,0 0,-2.158 3.231,0 L 3.928,0 0,0 z"
             style="fill:#ffdb00;fill-opacity:1;fill-rule:nonzero;stroke:none"
             id="path2922" />
        </g>
        <g
           id="g2924"
           transform="translate(66.276398,437.5573)">
          <path
             d="m 0,0 0,6.341 1.048,0 1.246,-4.489 C 2.409,1.433 2.493,1.12 2.546,0.912 c 0.06,0.232 0.153,0.57 0.28,1.017 l 1.26,4.412 0.938,0 0,-6.341 -0.672,0 0,5.308 L 2.822,0 2.194,0 0.671,5.398 0.671,0 0,0 z"
             style="fill:#ffdb00;fill-opacity:1;fill-rule:nonzero;stroke:none"
             id="path2926" />
        </g>
        <g
           id="g2928"
           transform="translate(72.710098,437.5573)">
          <path
             d="m 0,0 0,6.341 3.806,0 0,-0.747 -3.109,0 0,-1.943 2.912,0 0,-0.744 -2.912,0 0,-2.158 3.231,0 L 3.928,0 0,0 z"
             style="fill:#ffdb00;fill-opacity:1;fill-rule:nonzero;stroke:none"
             id="path2930" />
        </g>
        <g
           id="g2932"
           transform="translate(81.416702,443.8987)">
          <path
             d="m 0,0 0,-0.748 -2.826,0 1.795,-2.301 -1.795,-2.543 2.973,0 0,-0.749 -3.727,0 0,0.873 1.72,2.419 -1.72,2.206 L -3.58,0 0,0 z"
             style="fill:#ffdb00;fill-opacity:1;fill-rule:nonzero;stroke:none"
             id="path2934" />
        </g>
        <g
           id="g2936"
           transform="translate(83.196899,440.633)">
          <path
             d="m 0,0 c 0,-0.764 0.171,-1.366 0.511,-1.806 0.342,-0.439 0.769,-0.659 1.285,-0.659 0.524,0 0.955,0.221 1.294,0.665 0.338,0.445 0.508,1.075 0.508,1.89 0,0.517 -0.072,0.967 -0.218,1.352 C 3.236,1.828 3.024,2.126 2.745,2.338 2.466,2.55 2.153,2.656 1.806,2.656 1.313,2.656 0.889,2.451 0.533,2.043 0.178,1.635 0,0.955 0,0 m -0.718,0.013 c 0,1.052 0.235,1.876 0.703,2.472 0.47,0.595 1.076,0.894 1.817,0.894 0.486,0 0.925,-0.141 1.315,-0.42 C 3.507,2.679 3.804,2.289 4.009,1.788 4.214,1.288 4.316,0.721 4.316,0.087 4.316,-0.557 4.208,-1.132 3.993,-1.64 3.778,-2.147 3.472,-2.531 3.077,-2.792 2.683,-3.053 2.256,-3.184 1.799,-3.184 c -0.495,0 -0.938,0.145 -1.329,0.433 -0.39,0.288 -0.686,0.682 -0.887,1.18 -0.201,0.499 -0.301,1.028 -0.301,1.584"
             style="fill:#ffdb00;fill-opacity:1;fill-rule:nonzero;stroke:none"
             id="path2938" />
        </g>
        <g
           id="g2940"
           transform="translate(92.226807,443.8987)">
          <path
             d="m 0,0 0,-0.748 -2.826,0 1.795,-2.301 -1.795,-2.543 2.973,0 0,-0.749 -3.727,0 0,0.873 1.72,2.419 -1.72,2.206 L -3.58,0 0,0 z"
             style="fill:#ffdb00;fill-opacity:1;fill-rule:nonzero;stroke:none"
             id="path2942" />
        </g>
        <g
           id="g2944"
           transform="translate(55.907898,426.9769)">
          <path
             d="m 0,0 0,6.341 0.697,0 0,-5.592 2.592,0 L 3.289,0 0,0 z"
             style="fill:#ffffff;fill-opacity:1;fill-rule:nonzero;stroke:none"
             id="path2946" />
        </g>
        <g
           id="g2948"
           transform="translate(60.704407,429.715)">
          <path
             d="M 0,0 2.129,0 C 2.1,0.387 2.019,0.676 1.885,0.87 1.679,1.17 1.412,1.319 1.084,1.319 0.788,1.319 0.538,1.2 0.336,0.96 0.134,0.721 0.021,0.401 0,0 M 2.122,-1.259 2.79,-1.358 C 2.685,-1.828 2.489,-2.194 2.204,-2.452 1.92,-2.712 1.556,-2.841 1.113,-2.841 c -0.558,0 -1,0.206 -1.327,0.62 -0.327,0.413 -0.49,0.994 -0.49,1.741 0,0.773 0.165,1.372 0.495,1.799 C 0.122,1.746 0.55,1.96 1.077,1.96 1.587,1.96 2.003,1.75 2.326,1.332 2.65,0.915 2.811,0.326 2.811,-0.433 l -0.003,-0.207 -2.844,0 c 0.024,-0.505 0.142,-0.892 0.355,-1.16 0.214,-0.268 0.479,-0.402 0.797,-0.402 0.238,0 0.44,0.075 0.607,0.225 0.168,0.15 0.301,0.39 0.399,0.718"
             style="fill:#ffffff;fill-opacity:1;fill-rule:nonzero;stroke:none"
             id="path2950" />
        </g>
        <g
           id="g2952"
           transform="translate(64.577896,426.9769)">
          <path
             d="m 0,0 0,4.594 0.578,0 0,-0.645 C 0.698,4.174 0.857,4.356 1.056,4.492 1.254,4.63 1.48,4.698 1.734,4.698 2.017,4.698 2.248,4.627 2.429,4.486 2.609,4.344 2.737,4.146 2.811,3.894 3.113,4.43 3.505,4.698 3.989,4.698 4.368,4.698 4.659,4.572 4.862,4.319 5.065,4.068 5.167,3.678 5.167,3.153 l 0,-3.153 -0.643,0 0,2.894 c 0,0.312 -0.02,0.535 -0.062,0.673 C 4.42,3.703 4.344,3.814 4.233,3.898 4.123,3.98 3.994,4.023 3.846,4.023 3.578,4.023 3.355,3.916 3.177,3.701 3.001,3.486 2.912,3.141 2.912,2.669 l 0,-2.669 -0.646,0 0,2.985 C 2.266,3.33 2.213,3.59 2.108,3.763 2.003,3.936 1.83,4.023 1.591,4.023 1.409,4.023 1.24,3.965 1.086,3.85 0.932,3.735 0.82,3.566 0.75,3.343 0.681,3.121 0.646,2.801 0.646,2.383 L 0.646,0 0,0 z"
             style="fill:#ffffff;fill-opacity:1;fill-rule:nonzero;stroke:none"
             id="path2954" />
        </g>
        <g
           id="g2956"
           transform="translate(71.464096,429.715)">
          <path
             d="M 0,0 2.129,0 C 2.1,0.387 2.019,0.676 1.885,0.87 1.679,1.17 1.412,1.319 1.084,1.319 0.788,1.319 0.538,1.2 0.336,0.96 0.134,0.721 0.021,0.401 0,0 M 2.123,-1.259 2.79,-1.358 C 2.685,-1.828 2.489,-2.194 2.205,-2.452 1.92,-2.712 1.556,-2.841 1.113,-2.841 c -0.558,0 -1,0.206 -1.327,0.62 -0.327,0.413 -0.49,0.994 -0.49,1.741 0,0.773 0.165,1.372 0.496,1.799 C 0.122,1.746 0.55,1.96 1.077,1.96 1.587,1.96 2.003,1.75 2.326,1.332 2.65,0.915 2.811,0.326 2.811,-0.433 l -0.003,-0.207 -2.844,0 c 0.024,-0.505 0.142,-0.892 0.356,-1.16 0.213,-0.268 0.478,-0.402 0.796,-0.402 0.238,0 0.44,0.075 0.607,0.225 0.168,0.15 0.301,0.39 0.4,0.718"
             style="fill:#ffffff;fill-opacity:1;fill-rule:nonzero;stroke:none"
             id="path2958" />
        </g>
        <g
           id="g2960"
           transform="translate(75.079102,428.34821)">
          <path
             d="m 0,0 0.639,0.121 c 0.036,-0.309 0.136,-0.545 0.3,-0.709 0.164,-0.164 0.393,-0.247 0.688,-0.247 0.296,0 0.517,0.073 0.66,0.219 0.144,0.146 0.216,0.316 0.216,0.513 0,0.175 -0.063,0.313 -0.19,0.414 C 2.224,0.381 2.003,0.469 1.652,0.575 1.178,0.719 0.849,0.844 0.666,0.95 0.483,1.054 0.344,1.2 0.25,1.386 0.155,1.573 0.107,1.777 0.107,2.003 c 0,0.205 0.039,0.394 0.117,0.569 0.079,0.174 0.184,0.319 0.319,0.434 0.1,0.089 0.237,0.166 0.41,0.228 0.174,0.061 0.36,0.093 0.559,0.093 C 1.811,3.327 2.074,3.274 2.3,3.171 2.527,3.067 2.693,2.926 2.801,2.748 2.908,2.572 2.982,2.334 3.023,2.037 L 2.392,1.934 C 2.363,2.17 2.28,2.355 2.142,2.488 2.004,2.62 1.809,2.686 1.558,2.686 1.262,2.686 1.05,2.626 0.923,2.509 0.796,2.39 0.733,2.252 0.733,2.094 L 0.812,1.821 C 0.864,1.737 0.947,1.668 1.06,1.614 1.124,1.585 1.314,1.519 1.631,1.414 2.087,1.267 2.407,1.147 2.587,1.053 2.768,0.959 2.91,0.823 3.013,0.644 3.116,0.466 3.167,0.243 3.167,-0.021 3.167,-0.281 3.104,-0.526 2.978,-0.755 2.852,-0.984 2.672,-1.161 2.435,-1.287 2.198,-1.413 1.929,-1.475 1.631,-1.475 1.135,-1.475 0.757,-1.351 0.498,-1.103 0.237,-0.855 0.072,-0.487 0,0"
             style="fill:#ffffff;fill-opacity:1;fill-rule:nonzero;stroke:none"
             id="path2962" />
        </g>
        <g
           id="g2964"
           transform="translate(79.710403,429.27361)">
          <path
             d="m 0,0 c 0,-0.588 0.106,-1.029 0.319,-1.321 0.214,-0.293 0.481,-0.44 0.805,-0.44 0.32,0 0.588,0.148 0.8,0.442 0.213,0.294 0.321,0.743 0.321,1.345 0,0.568 -0.108,0.998 -0.323,1.292 C 1.709,1.611 1.442,1.756 1.124,1.756 0.8,1.756 0.533,1.611 0.319,1.32 0.106,1.029 0,0.588 0,0 m -0.665,0 c 0,0.851 0.197,1.481 0.59,1.89 0.328,0.34 0.727,0.511 1.199,0.511 0.524,0 0.953,-0.207 1.285,-0.621 C 2.742,1.366 2.908,0.795 2.908,0.065 2.908,-0.526 2.835,-0.991 2.688,-1.33 2.54,-1.669 2.326,-1.933 2.044,-2.12 1.763,-2.307 1.457,-2.401 1.124,-2.401 0.59,-2.401 0.158,-2.195 -0.171,-1.782 -0.5,-1.37 -0.665,-0.776 -0.665,0"
             style="fill:#ffffff;fill-opacity:1;fill-rule:nonzero;stroke:none"
             id="path2966" />
        </g>
        <g
           id="g2968"
           transform="translate(83.389999,428.34821)">
          <path
             d="m 0,0 0.639,0.121 c 0.036,-0.309 0.136,-0.545 0.3,-0.709 0.164,-0.164 0.393,-0.247 0.688,-0.247 0.296,0 0.517,0.073 0.66,0.219 0.144,0.146 0.216,0.316 0.216,0.513 0,0.175 -0.064,0.313 -0.191,0.414 C 2.224,0.381 2.003,0.469 1.652,0.575 1.178,0.719 0.849,0.844 0.666,0.95 0.483,1.054 0.344,1.2 0.25,1.386 0.155,1.573 0.107,1.777 0.107,2.003 c 0,0.205 0.039,0.394 0.117,0.569 0.079,0.174 0.184,0.319 0.319,0.434 0.1,0.089 0.237,0.166 0.41,0.228 0.174,0.061 0.36,0.093 0.559,0.093 C 1.811,3.327 2.074,3.274 2.3,3.171 2.526,3.067 2.693,2.926 2.801,2.748 2.908,2.572 2.982,2.334 3.023,2.037 L 2.392,1.934 C 2.363,2.17 2.28,2.355 2.142,2.488 2.004,2.62 1.809,2.686 1.558,2.686 1.262,2.686 1.05,2.626 0.923,2.509 0.796,2.39 0.733,2.252 0.733,2.094 L 0.811,1.821 C 0.864,1.737 0.947,1.668 1.059,1.614 1.124,1.585 1.314,1.519 1.63,1.414 2.087,1.267 2.407,1.147 2.587,1.053 2.768,0.959 2.91,0.823 3.013,0.644 3.116,0.466 3.167,0.243 3.167,-0.021 3.167,-0.281 3.104,-0.526 2.978,-0.755 2.852,-0.984 2.672,-1.161 2.435,-1.287 2.198,-1.413 1.929,-1.475 1.63,-1.475 1.135,-1.475 0.757,-1.351 0.498,-1.103 0.237,-0.855 0.072,-0.487 0,0"
             style="fill:#ffffff;fill-opacity:1;fill-rule:nonzero;stroke:none"
             id="path2970" />
        </g>
        <g
           id="g2972"
           transform="translate(57.164795,414.45061)">
          <path
             d="m 0,0 c -0.373,0.565 -0.687,1.227 -0.945,1.987 -0.257,0.758 -0.386,1.543 -0.386,2.357 0,0.716 0.097,1.402 0.289,2.058 0.225,0.762 0.572,1.52 1.042,2.276 l 0.483,0 C 0.182,8.053 -0.019,7.605 -0.116,7.337 -0.268,6.922 -0.388,6.488 -0.476,6.037 -0.584,5.474 -0.637,4.908 -0.637,4.339 -0.637,2.891 -0.263,1.445 0.483,0 L 0,0 z"
             style="fill:#ffdb00;fill-opacity:1;fill-rule:nonzero;stroke:none"
             id="path2974" />
        </g>
        <g
           id="g2976"
           transform="translate(59.499893,419.11459)">
          <path
             d="M 0,0 1.863,0 1.289,1.834 C 1.114,2.39 0.985,2.847 0.9,3.206 0.829,2.782 0.731,2.361 0.603,1.942 L 0,0 z m -1.586,-2.718 2.111,6.62 0.784,0 2.248,-6.62 -0.828,0 -0.642,2.006 -2.297,0 -0.603,-2.006 -0.773,0 z"
             style="fill:#ffdb00;fill-opacity:1;fill-rule:nonzero;stroke:none"
             id="path2978" />
        </g>
        <g
           id="g2980"
           transform="translate(65.905594,416.3965)">
          <path
             d="m 0,0 -0.674,0 0,5.178 C -0.837,4.993 -1.05,4.806 -1.314,4.619 -1.577,4.433 -1.814,4.292 -2.024,4.199 l 0,0.785 c 0.377,0.215 0.708,0.473 0.99,0.778 0.282,0.304 0.482,0.599 0.599,0.885 L 0,6.647 0,0 z"
             style="fill:#ffdb00;fill-opacity:1;fill-rule:nonzero;stroke:none"
             id="path2982" />
        </g>
        <g
           id="g2984"
           transform="translate(68.263199,414.45061)">
          <path
             d="m 0,0 -0.483,0 c 0.746,1.445 1.12,2.891 1.12,4.339 0,0.566 -0.053,1.128 -0.161,1.685 C 0.391,6.475 0.272,6.908 0.12,7.324 0.022,7.594 -0.179,8.046 -0.483,8.678 L 0,8.678 C 0.469,7.922 0.817,7.164 1.042,6.402 1.234,5.746 1.33,5.06 1.33,4.344 1.33,3.53 1.201,2.745 0.943,1.987 0.684,1.227 0.37,0.565 0,0"
             style="fill:#ffdb00;fill-opacity:1;fill-rule:nonzero;stroke:none"
             id="path2986" />
        </g>
        <g
           id="g2988"
           transform="translate(131.2101,491.3409)">
          <path
             d="m 0,0 -1.009,0 0,4.581 C -1.378,4.166 -1.812,3.858 -2.312,3.66 l 0,1.102 c 0.263,0.105 0.549,0.301 0.858,0.591 0.308,0.29 0.52,0.627 0.635,1.014 L 0,6.367 0,0 z"
             style="fill:#f5f5f5;fill-opacity:1;fill-rule:nonzero;stroke:none"
             id="path2990" />
        </g>
        <g
           id="g2992"
           transform="translate(128.64281,457.7366)">
          <path
             d="m 0,0 1.005,0.125 c 0.029,-0.274 0.114,-0.491 0.256,-0.65 0.14,-0.16 0.303,-0.24 0.488,-0.24 0.21,0 0.389,0.103 0.534,0.309 0.147,0.206 0.22,0.516 0.22,0.932 0,0.389 -0.072,0.681 -0.218,0.876 C 2.141,1.546 1.953,1.643 1.719,1.643 1.431,1.643 1.171,1.49 0.941,1.18 l -0.819,0.144 0.517,3.3 2.668,0 0,-1.137 -1.903,0 L 1.246,2.409 C 1.471,2.544 1.701,2.612 1.935,2.612 2.383,2.612 2.763,2.417 3.074,2.024 3.385,1.632 3.54,1.123 3.54,0.497 3.54,-0.025 3.415,-0.49 3.164,-0.899 2.821,-1.459 2.346,-1.739 1.738,-1.739 1.252,-1.739 0.856,-1.582 0.549,-1.267 0.243,-0.953 0.059,-0.53 0,0"
             style="fill:#f5f5f5;fill-opacity:1;fill-rule:nonzero;stroke:none"
             id="path2994" />
        </g>
        <g
           id="g2996"
           transform="translate(129.7021,435.6228)">
          <path
             d="m 0,0 c 0,-0.242 0.057,-0.432 0.171,-0.567 0.113,-0.135 0.264,-0.203 0.453,-0.203 0.192,0 0.345,0.068 0.46,0.206 0.115,0.136 0.172,0.326 0.172,0.569 0,0.228 -0.057,0.41 -0.17,0.546 C 0.972,0.689 0.822,0.757 0.635,0.757 0.442,0.757 0.287,0.688 0.173,0.549 0.058,0.411 0,0.228 0,0 m -0.094,-2.716 c 0,-0.335 0.071,-0.596 0.214,-0.783 0.142,-0.188 0.32,-0.282 0.534,-0.282 0.208,0 0.379,0.091 0.516,0.271 0.137,0.181 0.205,0.44 0.205,0.78 0,0.298 -0.069,0.536 -0.208,0.716 -0.139,0.181 -0.315,0.271 -0.528,0.271 -0.247,0 -0.43,-0.103 -0.551,-0.307 -0.121,-0.205 -0.182,-0.427 -0.182,-0.666 m -0.114,1.492 c -0.261,0.133 -0.451,0.315 -0.57,0.547 -0.118,0.233 -0.177,0.488 -0.177,0.764 0,0.473 0.137,0.863 0.411,1.172 0.274,0.309 0.664,0.462 1.168,0.462 0.501,0 0.89,-0.153 1.166,-0.462 C 2.066,0.95 2.204,0.56 2.204,0.087 c 0,-0.294 -0.063,-0.556 -0.19,-0.785 -0.127,-0.23 -0.305,-0.405 -0.535,-0.526 0.292,-0.141 0.514,-0.348 0.666,-0.618 0.152,-0.272 0.228,-0.584 0.228,-0.94 0,-0.585 -0.155,-1.06 -0.465,-1.427 -0.31,-0.365 -0.722,-0.549 -1.237,-0.549 -0.479,0 -0.877,0.152 -1.195,0.454 -0.376,0.357 -0.564,0.848 -0.564,1.471 0,0.343 0.07,0.658 0.212,0.945 0.141,0.287 0.364,0.508 0.668,0.664"
             style="fill:#f5f5f5;fill-opacity:1;fill-rule:nonzero;stroke:none"
             id="path2998" />
        </g>
        <g
           id="g3000"
           transform="translate(132.6828,432.65981)">
          <path
             d="m 0,0 0.976,0.143 c 0.031,-0.301 0.115,-0.53 0.252,-0.689 0.136,-0.157 0.301,-0.237 0.495,-0.237 0.208,0 0.384,0.095 0.526,0.286 0.143,0.19 0.214,0.446 0.214,0.77 0,0.305 -0.068,0.548 -0.205,0.726 C 2.122,1.178 1.956,1.267 1.76,1.267 1.63,1.267 1.475,1.238 1.296,1.177 L 1.407,2.168 C 1.68,2.158 1.888,2.23 2.032,2.382 2.175,2.532 2.247,2.734 2.247,2.985 2.247,3.199 2.195,3.368 2.089,3.495 1.984,3.622 1.844,3.686 1.67,3.686 1.497,3.686 1.35,3.614 1.228,3.469 1.106,3.325 1.031,3.114 1.005,2.838 l -0.93,0.19 c 0.064,0.384 0.162,0.69 0.293,0.92 0.13,0.229 0.312,0.409 0.545,0.54 0.234,0.131 0.495,0.197 0.785,0.197 0.496,0 0.893,-0.191 1.193,-0.57 C 3.137,3.802 3.26,3.45 3.26,3.059 3.26,2.502 3.008,2.057 2.502,1.726 2.804,1.648 3.045,1.473 3.226,1.203 3.407,0.931 3.497,0.604 3.497,0.221 3.497,-0.336 3.329,-0.81 2.991,-1.203 2.653,-1.594 2.233,-1.79 1.73,-1.79 1.254,-1.79 0.859,-1.626 0.546,-1.296 0.232,-0.965 0.05,-0.534 0,0"
             style="fill:#f5f5f5;fill-opacity:1;fill-rule:nonzero;stroke:none"
             id="path3002" />
        </g>
        <g
           id="g3004"
           transform="matrix(0.9758759,0,0,-1.1755981,3.2721863,2024.002)">
          <path
             d="m 52.787,1283.729 65.25,0 0,38.884 -65.25,0 0,-38.884 z"
             style="fill:#ffffff;fill-opacity:1;fill-rule:evenodd;stroke:#000000;stroke-width:0.45624918;stroke-linecap:butt;stroke-linejoin:miter;stroke-miterlimit:10;stroke-opacity:1;stroke-dasharray:none"
             id="path3006" />
        </g>
        <g
           id="g3008"
           transform="translate(58.223999,505.22301)">
          <path
             d="m 0,0 0,6.162 4.089,0 0,-6.162 -1.033,0 0,5.12 -2.024,0 L 1.032,0 0,0 z"
             style="fill:#000000;fill-opacity:1;fill-rule:nonzero;stroke:none"
             id="path3010" />
        </g>
        <g
           id="g3012"
           transform="translate(66.342499,507.661)">
          <path
             d="M 0,0 -0.705,2.286 -1.395,0 0,0 z m 1.902,-2.438 -1.124,0 -0.446,1.4 -2.046,0 -0.421,-1.4 -1.096,0 1.993,6.162 1.092,0 2.048,-6.162 z"
             style="fill:#000000;fill-opacity:1;fill-rule:nonzero;stroke:none"
             id="path3014" />
        </g>
        <g
           id="g3016"
           transform="translate(69.066605,505.22301)">
          <path
             d="m 0,0 0,6.162 1.005,0 2.093,-4.115 0,4.115 0.96,0 L 4.058,0 3.021,0 0.959,4.018 0.959,0 0,0 z"
             style="fill:#000000;fill-opacity:1;fill-rule:nonzero;stroke:none"
             id="path3018" />
        </g>
        <g
           id="g3020"
           transform="translate(74.481094,505.22301)">
          <path
             d="m 0,0 0,6.162 3.793,0 0,-1.042 -2.761,0 0,-1.366 2.569,0 0,-1.038 -2.569,0 0,-1.678 2.859,0 L 3.891,0 0,0 z"
             style="fill:#000000;fill-opacity:1;fill-rule:nonzero;stroke:none"
             id="path3022" />
        </g>
        <g
           id="g3024"
           transform="translate(79.529007,505.22301)">
          <path
             d="m 0,0 0,6.162 4.089,0 0,-6.162 -1.033,0 0,5.12 -2.024,0 L 1.032,0 0,0 z"
             style="fill:#000000;fill-opacity:1;fill-rule:nonzero;stroke:none"
             id="path3026" />
        </g>
        <path
           d="m 84.905,505.222 1.032,0 0,6.162 -1.032,0 0,-6.162 z"
           style="fill:#000000;fill-opacity:1;fill-rule:nonzero;stroke:none"
           id="path3028" />
        <g
           id="g3030"
           transform="translate(87.0466,511.3853)">
          <path
             d="m 0,0 3.541,0 0,-1.043 -2.268,0 1.323,-1.9 -1.458,-2.181 2.512,0 0,-1.039 -3.716,0 0,1.153 1.371,2.067 L 0,-1.11 0,0 z"
             style="fill:#000000;fill-opacity:1;fill-rule:nonzero;stroke:none"
             id="path3032" />
        </g>
        <g
           id="g3034"
           transform="translate(92.890106,505.22301)">
          <path
             d="m 0,0 0,5.12 -1.517,0 0,1.042 4.064,0 0,-1.042 -1.515,0 L 1.032,0 0,0 z"
             style="fill:#000000;fill-opacity:1;fill-rule:nonzero;stroke:none"
             id="path3036" />
        </g>
        <g
           id="g3038"
           transform="translate(96.371506,505.22301)">
          <path
             d="m 0,0 0,6.162 1.032,0 0,-2.425 2.024,0 0,2.425 1.033,0 0,-6.162 -1.033,0 0,2.694 -2.024,0 L 1.032,0 0,0 z"
             style="fill:#000000;fill-opacity:1;fill-rule:nonzero;stroke:none"
             id="path3040" />
        </g>
        <g
           id="g3042"
           transform="translate(101.7789,505.22301)">
          <path
             d="m 0,0 0,6.162 1.546,0 0.928,-4.203 0.917,4.203 1.55,0 0,-6.162 -0.96,0 0,4.85 L 2.966,0 1.971,0 0.959,4.85 0.959,0 0,0 z"
             style="fill:#000000;fill-opacity:1;fill-rule:nonzero;stroke:none"
             id="path3044" />
        </g>
        <path
           d="m 107.978,505.222 1.032,0 0,6.162 -1.032,0 0,-6.162 z"
           style="fill:#000000;fill-opacity:1;fill-rule:nonzero;stroke:none"
           id="path3046" />
        <g
           id="g3048"
           transform="translate(111.11411,508.3084)">
          <path
             d="m 0,0 c 0,-0.698 0.134,-1.226 0.401,-1.587 0.267,-0.36 0.607,-0.54 1.019,-0.54 0.412,0 0.749,0.179 1.014,0.536 C 2.697,-1.233 2.83,-0.698 2.83,0.017 2.83,0.723 2.701,1.25 2.445,1.596 2.187,1.944 1.845,2.118 1.42,2.118 0.994,2.118 0.651,1.942 0.39,1.591 0.131,1.239 0,0.709 0,0 m -1.064,-0.042 c 0,0.627 0.077,1.154 0.233,1.581 0.117,0.313 0.276,0.595 0.477,0.844 0.201,0.249 0.421,0.435 0.661,0.555 0.318,0.162 0.686,0.244 1.103,0.244 0.753,0 1.357,-0.282 1.808,-0.845 0.453,-0.563 0.68,-1.347 0.68,-2.35 0,-0.994 -0.225,-1.773 -0.674,-2.335 -0.449,-0.562 -1.049,-0.843 -1.8,-0.843 -0.761,0 -1.365,0.28 -1.814,0.84 -0.449,0.558 -0.674,1.328 -0.674,2.309"
             style="fill:#000000;fill-opacity:1;fill-rule:nonzero;stroke:none"
             id="path3050" />
        </g>
        <g
           id="g3052"
           transform="translate(58.220505,494.64259)">
          <path
             d="m 0,0 0,6.163 1.032,0 0,-2.737 2.087,2.737 1.39,0 L 2.582,3.762 4.613,0 3.276,0 1.871,2.892 1.032,1.862 1.032,0 0,0 z"
             style="fill:#000000;fill-opacity:1;fill-rule:nonzero;stroke:none"
             id="path3054" />
        </g>
        <g
           id="g3056"
           transform="translate(64.974792,494.64259)">
          <path
             d="m 0,0 0,2.593 -1.874,3.57 1.211,0 1.204,-2.439 1.179,2.439 1.19,0 L 1.03,2.585 1.03,0 0,0 z"
             style="fill:#000000;fill-opacity:1;fill-rule:nonzero;stroke:none"
             id="path3058" />
        </g>
        <g
           id="g3060"
           transform="translate(68.679398,494.64259)">
          <path
             d="m 0,0 0,6.163 4.089,0 0,-6.163 -1.033,0 0,5.12 -2.024,0 L 1.032,0 0,0 z"
             style="fill:#000000;fill-opacity:1;fill-rule:nonzero;stroke:none"
             id="path3062" />
        </g>
        <g
           id="g3064"
           transform="translate(75.119598,499.7625)">
          <path
             d="m 0,0 0,-1.748 0.565,0 c 0.407,0 0.679,0.032 0.817,0.096 0.136,0.064 0.245,0.165 0.323,0.302 0.077,0.138 0.116,0.298 0.116,0.48 0,0.223 -0.055,0.409 -0.164,0.555 C 1.548,-0.171 1.409,-0.079 1.242,-0.042 1.118,-0.014 0.871,0 0.499,0 L 0,0 z m -1.032,-5.12 0,6.163 1.657,0 C 1.253,1.043 1.662,1.011 1.853,0.95 2.146,0.857 2.391,0.656 2.589,0.347 2.786,0.036 2.886,-0.363 2.886,-0.854 2.886,-1.232 2.828,-1.549 2.715,-1.808 2.601,-2.065 2.456,-2.268 2.28,-2.415 2.104,-2.562 1.926,-2.659 1.745,-2.707 1.498,-2.766 1.141,-2.796 0.673,-2.796 l -0.673,0 0,-2.324 -1.032,0 z"
             style="fill:#000000;fill-opacity:1;fill-rule:nonzero;stroke:none"
             id="path3066" />
        </g>
        <g
           id="g3068"
           transform="translate(79.972,497.728)">
          <path
             d="m 0,0 c 0,-0.698 0.134,-1.226 0.401,-1.587 0.267,-0.36 0.607,-0.54 1.019,-0.54 0.412,0 0.749,0.179 1.014,0.536 C 2.697,-1.233 2.83,-0.698 2.83,0.017 2.83,0.723 2.701,1.25 2.445,1.596 2.187,1.945 1.846,2.118 1.42,2.118 0.994,2.118 0.652,1.942 0.391,1.591 0.131,1.239 0,0.709 0,0 m -1.064,-0.042 c 0,0.627 0.077,1.154 0.234,1.581 0.116,0.313 0.275,0.595 0.476,0.844 0.201,0.249 0.421,0.435 0.661,0.555 0.319,0.162 0.686,0.244 1.103,0.244 0.754,0 1.357,-0.282 1.808,-0.845 0.453,-0.563 0.68,-1.347 0.68,-2.35 0,-0.994 -0.225,-1.773 -0.674,-2.335 -0.449,-0.562 -1.049,-0.843 -1.8,-0.843 -0.761,0 -1.365,0.28 -1.814,0.84 -0.449,0.558 -0.674,1.328 -0.674,2.309"
             style="fill:#000000;fill-opacity:1;fill-rule:nonzero;stroke:none"
             id="path3070" />
        </g>
        <g
           id="g3072"
           transform="translate(86.084198,494.64259)">
          <path
             d="m 0,0 0,2.593 -1.874,3.57 1.211,0 1.204,-2.439 1.179,2.439 1.19,0 L 1.03,2.585 1.03,0 0,0 z"
             style="fill:#000000;fill-opacity:1;fill-rule:nonzero;stroke:none"
             id="path3074" />
        </g>
        <g
           id="g3076"
           transform="translate(58.1996,490.2244)">
          <path
             d="m 0,0 1.032,0 0,-3.337 c 0,-0.53 0.013,-0.873 0.04,-1.03 0.043,-0.253 0.149,-0.454 0.315,-0.607 0.167,-0.154 0.394,-0.229 0.682,-0.229 0.293,0 0.514,0.071 0.662,0.216 0.15,0.144 0.24,0.321 0.27,0.532 0.03,0.21 0.045,0.559 0.045,1.046 l 0,3.409 1.033,0 0,-3.236 c 0,-0.74 -0.028,-1.263 -0.084,-1.569 C 3.94,-5.11 3.836,-5.368 3.686,-5.578 3.537,-5.787 3.336,-5.956 3.085,-6.08 2.833,-6.205 2.505,-6.267 2.1,-6.267 c -0.488,0 -0.859,0.068 -1.11,0.203 -0.253,0.137 -0.452,0.313 -0.6,0.531 C 0.244,-5.316 0.147,-5.089 0.102,-4.85 0.033,-4.498 0,-3.976 0,-3.287 L 0,0 z"
             style="fill:#000000;fill-opacity:1;fill-rule:nonzero;stroke:none"
             id="path3078" />
        </g>
        <g
           id="g3080"
           transform="translate(66.994904,484.0623)">
          <path
             d="m 0,0 -0.981,0 0,2.278 c 0,0.482 -0.02,0.794 -0.062,0.935 -0.042,0.142 -0.11,0.251 -0.204,0.33 -0.095,0.079 -0.208,0.118 -0.341,0.118 -0.17,0 -0.322,-0.057 -0.456,-0.168 C -2.179,3.381 -2.272,3.233 -2.323,3.047 -2.372,2.863 -2.397,2.52 -2.397,2.022 l 0,-2.022 -0.981,0 0,4.464 0.911,0 0,-0.656 c 0.323,0.505 0.731,0.757 1.221,0.757 0.216,0 0.415,-0.047 0.593,-0.141 C -0.473,4.33 -0.338,4.211 -0.246,4.065 -0.154,3.919 -0.09,3.754 -0.055,3.569 -0.018,3.384 0,3.119 0,2.774 L 0,0 z"
             style="fill:#000000;fill-opacity:1;fill-rule:nonzero;stroke:none"
             id="path3082" />
        </g>
        <g
           id="g3084"
           transform="translate(68.253799,488.5265)">
          <path
             d="m 0,0 0.981,0 0,-4.464 L 0,-4.464 0,0 z m 0,1.697 0.981,0 0,-1.093 -0.981,0 0,1.093 z"
             style="fill:#000000;fill-opacity:1;fill-rule:nonzero;stroke:none"
             id="path3086" />
        </g>
        <g
           id="g3088"
           transform="translate(71.522201,484.0623)">
          <path
             d="m 0,0 -1.493,4.464 1.029,0 0.698,-2.279 0.202,-0.76 C 0.49,1.619 0.523,1.746 0.538,1.808 0.57,1.934 0.605,2.06 0.642,2.185 l 0.705,2.279 1.008,0 L 0.883,0 0,0 z"
             style="fill:#000000;fill-opacity:1;fill-rule:nonzero;stroke:none"
             id="path3090" />
        </g>
        <g
           id="g3092"
           transform="translate(76.943604,486.677)">
          <path
             d="M 0,0 C -0.007,0.342 -0.08,0.602 -0.22,0.779 -0.359,0.957 -0.529,1.046 -0.729,1.046 -0.944,1.046 -1.12,0.952 -1.26,0.764 -1.399,0.577 -1.468,0.322 -1.466,0 L 0,0 z M -0.056,-1.194 0.921,-1.392 C 0.795,-1.823 0.597,-2.151 0.326,-2.377 c -0.27,-0.226 -0.61,-0.339 -1.017,-0.339 -0.644,0 -1.121,0.254 -1.431,0.761 -0.244,0.407 -0.366,0.919 -0.366,1.539 0,0.739 0.161,1.319 0.482,1.737 0.321,0.419 0.727,0.629 1.217,0.629 0.552,0 0.987,-0.22 1.305,-0.658 0.319,-0.438 0.472,-1.11 0.458,-2.015 l -2.457,0 c 0.007,-0.35 0.087,-0.623 0.238,-0.818 0.15,-0.194 0.339,-0.292 0.565,-0.292 0.153,0 0.282,0.051 0.387,0.152 0.105,0.1 0.184,0.262 0.237,0.487"
             style="fill:#000000;fill-opacity:1;fill-rule:nonzero;stroke:none"
             id="path3094" />
        </g>
        <g
           id="g3096"
           transform="translate(79.9189,484.0623)">
          <path
             d="m 0,0 -0.981,0 0,4.464 0.911,0 0,-0.635 c 0.156,0.3 0.296,0.497 0.42,0.592 0.125,0.096 0.267,0.144 0.425,0.144 0.223,0 0.438,-0.074 0.645,-0.224 L 1.116,3.312 C 0.951,3.441 0.798,3.506 0.656,3.506 0.518,3.506 0.402,3.46 0.307,3.369 0.212,3.277 0.137,3.113 0.082,2.876 0.027,2.637 0,2.138 0,1.379 L 0,0 z"
             style="fill:#000000;fill-opacity:1;fill-rule:nonzero;stroke:none"
             id="path3098" />
        </g>
        <g
           id="g3100"
           transform="translate(81.680298,485.3362)">
          <path
             d="m 0,0 0.984,0.181 c 0.042,-0.23 0.127,-0.404 0.254,-0.524 0.128,-0.119 0.308,-0.178 0.538,-0.178 0.254,0 0.444,0.055 0.572,0.168 0.086,0.078 0.129,0.182 0.129,0.315 L 2.407,0.185 C 2.359,0.24 2.249,0.293 2.08,0.341 1.288,0.55 0.788,0.742 0.576,0.916 0.283,1.157 0.136,1.492 0.136,1.921 c 0,0.387 0.126,0.711 0.38,0.974 C 0.77,3.159 1.163,3.29 1.696,3.29 2.203,3.29 2.579,3.192 2.826,2.992 3.073,2.793 3.243,2.499 3.336,2.11 L 2.411,1.904 C 2.371,2.077 2.296,2.21 2.186,2.303 2.076,2.396 1.918,2.442 1.713,2.442 1.455,2.442 1.27,2.398 1.158,2.311 L 1.047,2.073 1.145,1.857 C 1.233,1.779 1.538,1.668 2.06,1.526 2.582,1.383 2.947,1.207 3.154,0.999 3.359,0.79 3.461,0.497 3.461,0.121 c 0,-0.409 -0.142,-0.759 -0.425,-1.055 -0.284,-0.293 -0.705,-0.44 -1.26,-0.44 -0.504,0 -0.905,0.123 -1.198,0.369 C 0.283,-0.758 0.091,-0.423 0,0"
             style="fill:#000000;fill-opacity:1;fill-rule:nonzero;stroke:none"
             id="path3102" />
        </g>
        <g
           id="g3104"
           transform="translate(86.264603,488.5265)">
          <path
             d="m 0,0 0.981,0 0,-4.464 L 0,-4.464 0,0 z m 0,1.697 0.981,0 0,-1.093 -0.981,0 0,1.093 z"
             style="fill:#000000;fill-opacity:1;fill-rule:nonzero;stroke:none"
             id="path3106" />
        </g>
        <g
           id="g3108"
           transform="translate(90.213104,488.526)">
          <path
             d="m 0,0 0,-0.942 -0.67,0 0,-1.798 c 0,-0.365 0.006,-0.576 0.019,-0.638 l 0.088,-0.149 0.165,-0.059 c 0.091,0 0.222,0.038 0.394,0.115 L 0.08,-4.387 c -0.227,-0.119 -0.486,-0.178 -0.775,-0.178 -0.176,0 -0.336,0.037 -0.477,0.107 -0.143,0.072 -0.246,0.165 -0.312,0.278 -0.067,0.114 -0.113,0.267 -0.139,0.46 -0.02,0.138 -0.031,0.414 -0.031,0.833 l 0,1.945 -0.45,0 0,0.942 0.45,0 0,0.886 0.984,0.69 L -0.67,0 0,0 z"
             style="fill:#000000;fill-opacity:1;fill-rule:nonzero;stroke:none"
             id="path3110" />
        </g>
        <g
           id="g3112"
           transform="translate(90.693802,488.526)">
          <path
             d="M 0,0 1.043,0 1.929,-3.169 2.795,0 3.81,0 2.502,-4.296 2.268,-5.073 C 2.182,-5.334 2.1,-5.532 2.022,-5.67 1.944,-5.807 1.854,-5.919 1.754,-6.004 1.652,-6.09 1.527,-6.155 1.38,-6.204 1.233,-6.252 1.066,-6.275 0.879,-6.275 c -0.188,0 -0.373,0.023 -0.555,0.071 L 0.237,-5.28 c 0.153,-0.036 0.292,-0.054 0.416,-0.054 0.227,0 0.396,0.081 0.505,0.241 0.11,0.163 0.194,0.367 0.251,0.616 L 0,0 z"
             style="fill:#000000;fill-opacity:1;fill-rule:nonzero;stroke:none"
             id="path3114" />
        </g>
        <g
           id="g3116"
           transform="translate(59.061401,476.5672)">
          <path
             d="m 0,0 c 0,-0.698 0.134,-1.226 0.401,-1.587 0.267,-0.36 0.607,-0.54 1.019,-0.54 0.412,0 0.749,0.179 1.014,0.537 0.263,0.357 0.396,0.892 0.396,1.606 0,0.707 -0.129,1.234 -0.385,1.58 C 2.187,1.945 1.845,2.118 1.42,2.118 0.994,2.118 0.651,1.942 0.39,1.591 0.13,1.239 0,0.709 0,0 m -1.065,-0.042 c 0,0.627 0.078,1.154 0.235,1.581 0.116,0.313 0.275,0.595 0.476,0.844 0.201,0.249 0.421,0.435 0.661,0.555 0.319,0.162 0.686,0.244 1.102,0.244 0.755,0 1.358,-0.282 1.809,-0.845 0.453,-0.563 0.68,-1.347 0.68,-2.35 0,-0.994 -0.225,-1.773 -0.674,-2.335 -0.449,-0.562 -1.049,-0.843 -1.8,-0.843 -0.761,0 -1.365,0.28 -1.814,0.84 -0.45,0.558 -0.675,1.328 -0.675,2.309"
             style="fill:#000000;fill-opacity:1;fill-rule:nonzero;stroke:none"
             id="path3118" />
        </g>
        <g
           id="g3120"
           transform="translate(63.592896,477.9456)">
          <path
             d="m 0,0 0.545,0 0,0.336 c 0,0.375 0.033,0.656 0.099,0.841 0.066,0.186 0.188,0.335 0.366,0.452 0.178,0.116 0.403,0.174 0.675,0.174 0.279,0 0.553,-0.05 0.82,-0.151 L 2.372,0.829 C 2.217,0.874 2.067,0.896 1.922,0.896 1.781,0.896 1.679,0.856 1.617,0.776 1.556,0.696 1.525,0.542 1.525,0.316 l 0,-0.316 0.732,0 0,-0.929 -0.732,0 0,-3.535 -0.98,0 0,3.535 L 0,-0.929 0,0 z"
             style="fill:#000000;fill-opacity:1;fill-rule:nonzero;stroke:none"
             id="path3122" />
        </g>
        <g
           id="g3124"
           transform="translate(72.195602,475.7477)">
          <path
             d="M 0,0 1.001,-0.383 C 0.848,-1.054 0.592,-1.554 0.235,-1.881 c -0.357,-0.327 -0.81,-0.49 -1.358,-0.49 -0.679,0 -1.238,0.28 -1.675,0.839 -0.438,0.559 -0.657,1.323 -0.657,2.293 0,1.026 0.221,1.822 0.66,2.39 0.44,0.566 1.018,0.851 1.734,0.851 0.626,0 1.134,-0.224 1.526,-0.669 C 0.697,3.07 0.871,2.692 0.988,2.198 L -0.035,1.905 C -0.096,2.223 -0.222,2.476 -0.414,2.66 -0.605,2.845 -0.838,2.938 -1.113,2.938 -1.492,2.938 -1.8,2.774 -2.036,2.447 -2.272,2.118 -2.39,1.587 -2.39,0.854 c 0,-0.78 0.116,-1.335 0.348,-1.665 0.234,-0.332 0.536,-0.496 0.908,-0.496 0.274,0 0.51,0.106 0.709,0.315 C -0.228,-0.782 -0.086,-0.451 0,0"
             style="fill:#000000;fill-opacity:1;fill-rule:nonzero;stroke:none"
             id="path3126" />
        </g>
        <g
           id="g3128"
           transform="translate(73.876602,477.9456)">
          <path
             d="M 0,0 1.043,0 1.929,-3.169 2.795,0 3.81,0 2.502,-4.296 2.268,-5.073 C 2.182,-5.334 2.1,-5.532 2.022,-5.67 1.944,-5.807 1.854,-5.919 1.754,-6.004 1.652,-6.09 1.527,-6.155 1.38,-6.204 1.233,-6.252 1.066,-6.275 0.879,-6.275 c -0.188,0 -0.373,0.023 -0.555,0.071 L 0.237,-5.28 c 0.153,-0.036 0.292,-0.054 0.416,-0.054 0.227,0 0.396,0.081 0.505,0.241 0.11,0.163 0.194,0.367 0.251,0.616 L 0,0 z"
             style="fill:#000000;fill-opacity:1;fill-rule:nonzero;stroke:none"
             id="path3130" />
        </g>
        <g
           id="g3132"
           transform="translate(79.521301,475.7895)">
          <path
             d="m 0,0 c 0,-0.502 0.083,-0.872 0.248,-1.112 0.165,-0.239 0.366,-0.359 0.603,-0.359 0.228,0 0.418,0.11 0.569,0.329 0.151,0.22 0.227,0.582 0.227,1.083 0,0.468 -0.078,0.816 -0.234,1.043 C 1.257,1.211 1.064,1.325 0.833,1.325 0.594,1.325 0.395,1.213 0.237,0.99 0.079,0.766 0,0.437 0,0 m -0.97,2.156 0.914,0 0,-0.656 c 0.118,0.225 0.279,0.407 0.481,0.547 0.203,0.14 0.428,0.21 0.674,0.21 0.43,0 0.795,-0.203 1.096,-0.61 0.299,-0.406 0.45,-0.972 0.45,-1.698 0,-0.745 -0.152,-1.325 -0.454,-1.737 -0.303,-0.414 -0.669,-0.621 -1.099,-0.621 -0.205,0 -0.39,0.049 -0.556,0.148 -0.167,0.098 -0.342,0.266 -0.525,0.503 l 0,-2.247 -0.981,0 0,6.161 z"
             style="fill:#000000;fill-opacity:1;fill-rule:nonzero;stroke:none"
             id="path3134" />
        </g>
        <g
           id="g3136"
           transform="translate(84.147003,473.4819)">
          <path
             d="m 0,0 -0.981,0 0,4.464 0.912,0 0,-0.635 c 0.155,0.3 0.295,0.497 0.419,0.592 0.125,0.096 0.267,0.144 0.425,0.144 0.223,0 0.438,-0.074 0.645,-0.224 L 1.116,3.312 C 0.951,3.441 0.797,3.506 0.656,3.506 0.518,3.506 0.402,3.46 0.307,3.369 0.212,3.278 0.137,3.113 0.082,2.876 0.027,2.637 0,2.138 0,1.379 L 0,0 z"
             style="fill:#000000;fill-opacity:1;fill-rule:nonzero;stroke:none"
             id="path3138" />
        </g>
        <g
           id="g3140"
           transform="translate(88.692596,473.4819)">
          <path
             d="M 0,0 0,0.668 C -0.135,0.43 -0.312,0.242 -0.532,0.105 c -0.22,-0.137 -0.452,-0.206 -0.696,-0.206 -0.249,0 -0.472,0.066 -0.67,0.197 C -2.096,0.228 -2.239,0.414 -2.327,0.651 -2.415,0.89 -2.46,1.219 -2.46,1.64 l 0,2.824 0.981,0 0,-2.052 c 0,-0.626 0.018,-1.012 0.054,-1.153 0.035,-0.141 0.102,-0.254 0.197,-0.336 0.095,-0.084 0.216,-0.125 0.362,-0.125 0.168,0 0.319,0.057 0.451,0.166 0.132,0.112 0.223,0.249 0.273,0.413 0.048,0.164 0.073,0.565 0.073,1.203 l 0,1.884 0.979,0 L 0.91,0 0,0 z"
             style="fill:#000000;fill-opacity:1;fill-rule:nonzero;stroke:none"
             id="path3142" />
        </g>
        <g
           id="g3144"
           transform="translate(90.537506,474.7558)">
          <path
             d="m 0,0 0.984,0.181 c 0.042,-0.23 0.127,-0.404 0.254,-0.524 0.128,-0.119 0.308,-0.178 0.538,-0.178 0.254,0 0.444,0.055 0.572,0.168 0.086,0.078 0.13,0.182 0.13,0.315 L 2.407,0.185 C 2.359,0.24 2.249,0.293 2.08,0.341 1.289,0.55 0.788,0.742 0.576,0.916 0.283,1.157 0.137,1.492 0.137,1.921 0.137,2.308 0.263,2.632 0.516,2.895 0.77,3.159 1.163,3.29 1.696,3.29 2.203,3.29 2.579,3.192 2.826,2.992 3.073,2.793 3.243,2.499 3.336,2.11 L 2.411,1.904 C 2.371,2.077 2.296,2.21 2.186,2.303 2.076,2.396 1.918,2.442 1.714,2.442 1.455,2.442 1.27,2.398 1.158,2.311 L 1.047,2.072 1.145,1.857 C 1.233,1.779 1.538,1.668 2.06,1.526 2.582,1.383 2.947,1.207 3.154,0.999 3.359,0.79 3.461,0.497 3.461,0.121 c 0,-0.409 -0.142,-0.759 -0.425,-1.055 -0.284,-0.293 -0.704,-0.44 -1.26,-0.44 -0.504,0 -0.905,0.123 -1.198,0.369 C 0.283,-0.758 0.091,-0.423 0,0"
             style="fill:#000000;fill-opacity:1;fill-rule:nonzero;stroke:none"
             id="path3146" />
        </g>
        <g
           id="g3148"
           transform="translate(97.5867,420.24249)">
          <path
             d="m 0,0 0,23.454 c 0,0.272 0.182,0.494 0.405,0.494 l 15.42,0 c 0.222,0 0.406,-0.222 0.406,-0.494 L 16.231,0 c 0,-0.272 -0.184,-0.494 -0.406,-0.494 l -15.42,0 C 0.182,-0.494 0,-0.272 0,0"
             style="fill:#939598;fill-opacity:1;fill-rule:evenodd;stroke:none"
             id="path3150" />
        </g>
        <g
           id="g3152"
           transform="translate(97.5867,420.5135)">
          <path
             d="m 0,0 0,23.453 c 0,0.273 0.182,0.494 0.405,0.494 l 15.42,0 c 0.222,0 0.406,-0.222 0.406,-0.494 L 16.231,0 c 0,-0.271 -0.184,-0.495 -0.406,-0.495 l -15.42,0 C 0.182,-0.495 0,-0.271 0,0"
             style="fill:#ffffff;fill-opacity:1;fill-rule:evenodd;stroke:none"
             id="path3154" />
        </g>
        <g
           id="g3156"
           transform="translate(97.528595,420.5135)">
          <path
             d="m 0,0 0,-0.028 0.002,-0.03 0.003,-0.029 0.005,-0.027 0.005,-0.027 0.005,-0.026 0.007,-0.027 0.01,-0.026 0.009,-0.025 0.01,-0.023 0.01,-0.025 0.013,-0.023 0.013,-0.02 0.013,-0.021 0.015,-0.023 0.017,-0.02 0.014,-0.016 0.018,-0.018 0.015,-0.017 0.02,-0.017 0.02,-0.014 0.019,-0.014 0.02,-0.012 0.02,-0.012 0.021,-0.009 0.021,-0.009 0.022,-0.007 0.024,-0.008 0.022,-0.004 0.024,-0.004 0.023,-0.002 0.024,-0.002 0,0.141 L 0.445,-0.422 0.427,-0.421 0.412,-0.419 0.393,-0.415 0.378,-0.411 0.361,-0.406 0.344,-0.397 0.329,-0.391 0.313,-0.382 0.3,-0.373 0.283,-0.363 0.268,-0.352 0.258,-0.34 0.243,-0.327 0.229,-0.315 0.219,-0.3 0.207,-0.286 0.196,-0.269 0.184,-0.253 0.176,-0.236 0.167,-0.221 0.158,-0.202 0.15,-0.183 0.143,-0.165 0.138,-0.146 0.132,-0.126 0.127,-0.107 0.123,-0.085 0.12,-0.065 0.117,-0.043 0.116,-0.023 0.116,0 0,0 z m 0.464,-0.424 0,0 15.418,0 0,-0.141 -15.418,0 0,0.141 z m 15.418,-0.141 0.025,0.002 0.022,0.002 0.025,0.004 0.021,0.004 0.024,0.008 0.022,0.007 0.02,0.009 0.022,0.009 0.02,0.012 0.021,0.012 0.018,0.014 0.02,0.014 0.018,0.017 0.017,0.017 0.018,0.018 0.015,0.016 0.016,0.023 0.014,0.02 0.014,0.021 0.014,0.021 0.012,0.022 0.011,0.025 0.01,0.023 0.009,0.025 0.01,0.026 0.006,0.027 0.005,0.026 0.006,0.027 0.004,0.027 0.004,0.029 0.002,0.03 10e-4,0.028 -0.117,0 0,-0.023 -0.002,-0.02 -0.003,-0.022 -0.003,-0.02 -0.004,-0.022 -0.004,-0.019 -0.007,-0.02 -0.005,-0.019 -0.006,-0.018 -0.008,-0.019 -0.01,-0.019 L 16.171,-0.237 16.16,-0.253 16.151,-0.269 16.14,-0.286 16.128,-0.3 16.117,-0.315 16.104,-0.327 16.09,-0.34 l -0.012,-0.012 -0.015,-0.011 -0.015,-0.01 -0.015,-0.009 -0.016,-0.009 -0.015,-0.006 -0.016,-0.009 -0.017,-0.005 -0.015,-0.004 -0.018,-0.004 -0.019,-0.002 -0.016,-0.001 -0.019,-0.002 0,-0.141 z M 16.231,0 l 0,0 0,23.453 0.117,0 0,-23.453 -0.117,0 z m 0.117,23.453 -10e-4,0.03 -0.002,0.028 -0.004,0.028 -0.004,0.027 -0.006,0.027 -0.005,0.028 -0.006,0.025 -0.01,0.027 -0.009,0.025 -0.01,0.024 -0.011,0.023 -0.012,0.023 -0.014,0.021 -0.014,0.022 -0.014,0.021 -0.016,0.02 -0.015,0.019 -0.018,0.017 -0.017,0.017 -0.018,0.016 -0.019,0.014 -0.019,0.013 -0.021,0.013 -0.02,0.012 -0.022,0.01 -0.021,0.009 -0.021,0.007 -0.024,0.007 -0.021,0.004 -0.025,0.005 -0.022,0.003 -0.025,0 0,-0.142 0.019,0 0.016,-0.001 0.019,-0.003 0.018,-0.003 0.015,-0.006 0.017,-0.004 0.015,-0.007 0.016,-0.007 0.016,-0.01 0.015,-0.008 0.014,-0.012 0.016,-0.01 0.012,-0.012 0.014,-0.012 0.013,-0.014 0.011,-0.014 0.012,-0.015 0.011,-0.014 0.009,-0.017 0.011,-0.018 0.008,-0.016 0.01,-0.019 0.008,-0.017 0.006,-0.019 0.005,-0.019 0.007,-0.02 0.004,-0.02 0.004,-0.02 0.003,-0.021 0.003,-0.021 0.002,-0.021 0,-0.023 0.117,0 z m -0.466,0.423 0,0 -15.418,0 0,0.142 15.418,0 0,-0.142 z M 0.464,24.018 0.44,24.018 0.417,24.015 0.393,24.01 0.371,24.006 0.347,23.999 0.326,23.992 0.304,23.982 0.283,23.973 0.263,23.961 0.243,23.948 0.223,23.935 0.204,23.921 0.186,23.905 0.169,23.888 0.151,23.871 0.137,23.851 0.121,23.832 0.105,23.811 0.092,23.789 0.079,23.768 0.066,23.745 0.056,23.722 0.046,23.698 0.037,23.673 0.027,23.646 0.02,23.621 0.015,23.593 0.01,23.566 0.005,23.539 0.002,23.511 0,23.483 l 0,-0.03 0.116,0 0,0.023 0.001,0.021 0.003,0.021 0.003,0.021 0.004,0.02 0.005,0.02 0.006,0.02 0.005,0.019 0.007,0.019 0.008,0.017 0.009,0.019 0.009,0.016 0.008,0.018 0.012,0.017 0.011,0.014 0.012,0.016 0.011,0.013 0.013,0.014 0.014,0.012 0.011,0.012 0.017,0.01 0.015,0.012 0.013,0.008 0.016,0.01 0.016,0.007 0.015,0.007 0.018,0.004 0.015,0.006 0.019,0.003 0.015,0.003 0.018,0.001 0.019,0 0,0.142 z m -0.348,-0.565 0,0 L 0.116,0 0,0 l 0,23.453 0.116,0 z"
             style="fill:#ffffff;fill-opacity:1;fill-rule:evenodd;stroke:none"
             id="path3158" />
        </g>
        <g
           id="g3160"
           transform="translate(97.863098,420.8327)">
          <path
             d="m 0,0 0,22.815 c 0,0.263 0.177,0.479 0.392,0.479 l 14.893,0 c 0.216,0 0.391,-0.216 0.391,-0.479 L 15.676,0 c 0,-0.264 -0.175,-0.48 -0.391,-0.48 l -14.893,0 C 0.177,-0.48 0,-0.264 0,0"
             style="fill:#00a651;fill-opacity:1;fill-rule:evenodd;stroke:none"
             id="path3162" />
        </g>
        <g
           id="g3164"
           transform="translate(106.4239,434.9588)">
          <path
             d="m 0,0 0.292,-14.453 5.561,0 L 2.696,0 0,0 z m 0.786,8.744 -0.963,0 0.123,-6.172 2.187,0 -1.347,6.172 z M -1.705,0 l -0.291,-14.453 -5.563,0 L -4.401,0 -1.705,0 z m -0.785,8.744 0.962,0 -0.125,-6.172 -2.186,0 1.349,6.172 z"
             style="fill:#ffffff;fill-opacity:1;fill-rule:evenodd;stroke:none"
             id="path3166" />
        </g>
        <g
           id="g3168"
           transform="translate(98.462494,436.62981)">
          <path
             d="m 0,0 14.479,0 0,-0.771 -1.732,0 0,-0.69 -0.747,0 0,0.69 -9.704,0 0,-0.69 -0.745,0 0,0.69 L 0,-0.771 0,0 z"
             style="fill:#ffffff;fill-opacity:1;fill-rule:evenodd;stroke:none"
             id="path3170" />
        </g>
      </g>
    </g>
  </g>
</svg>
