<svg xmlns="http://www.w3.org/2000/svg" width="267.284" height="421.909"><defs><clipPath clipPathUnits="userSpaceOnUse" id="a"><path d="M32.598 20.626h71.434v121.106H32.598V20.626z"/></clipPath></defs><g clip-path="url(#a)" transform="matrix(3.91803 0 0 -3.91803 -134.017 549.059)"><path d="M0 0c0-.839-.68-1.519-1.518-1.519h-65.181c-.839 0-1.52.68-1.52 1.519v104.647a1.52 1.52 0 0 0 1.52 1.518h65.181c.838 0 1.518-.68 1.518-1.518V0z" style="fill:#007ac2;fill-opacity:1;fill-rule:nonzero;stroke:none" transform="translate(102.424 33.971)"/><path d="M0 0c0-.521.12-.916.361-1.185s.546-.403.917-.403c.37 0 .674.133.912.4.237.267.356.667.356 1.201 0 .527-.116.92-.347 1.18-.231.259-.538.389-.921.389s-.692-.131-.926-.394C.117.926 0 .529 0 0m-.958-.031c0 .468.071.862.211 1.18.105.234.247.445.428.631a1.8 1.8 0 0 0 .595.414c.287.122.618.182.992.182.678 0 1.221-.21 1.628-.631.407-.42.61-1.005.61-1.754 0-.743-.202-1.325-.605-1.744-.404-.42-.944-.63-1.62-.63-.685 0-1.229.209-1.633.627-.404.417-.606.992-.606 1.725" style="fill:#fff;fill-opacity:1;fill-rule:nonzero;stroke:none" transform="translate(53.626 135.882)"/><path d="m0 0 1.645-4.602H.637L-.527-1.199l-1.127-3.403h-.986L-.992 0H0z" style="fill:#fff;fill-opacity:1;fill-rule:nonzero;stroke:none" transform="translate(60.03 138.18)"/><path d="M0 0v1.937l-1.686 2.665h1.089L.487 2.781l1.061 1.821h1.07L.926 1.931V0H0z" style="fill:#fff;fill-opacity:1;fill-rule:nonzero;stroke:none" transform="translate(62.77 133.578)"/><path d="M0 0v4.602h1.391l.835-3.139.825 3.139h1.394V0h-.863v3.623L2.668 0h-.894L.863 3.623V0H0z" style="fill:#fff;fill-opacity:1;fill-rule:nonzero;stroke:none" transform="translate(65.838 133.578)"/><path d="M0 0v4.602h3.679V0H2.75v3.823H.929V0H0z" style="fill:#fff;fill-opacity:1;fill-rule:nonzero;stroke:none" transform="translate(71.221 133.578)"/><path d="M0 0c0-.521.12-.916.361-1.185s.546-.403.917-.403c.37 0 .674.133.912.4.237.267.356.667.356 1.201 0 .527-.116.92-.347 1.18-.231.259-.538.389-.921.389s-.692-.131-.926-.394C.117.926 0 .529 0 0m-.957-.031c0 .468.07.862.21 1.18.105.234.247.445.428.631a1.8 1.8 0 0 0 .595.414c.287.122.618.182.992.182.678 0 1.221-.21 1.628-.631.407-.42.61-1.005.61-1.754 0-.743-.202-1.325-.605-1.744-.404-.42-.944-.63-1.62-.63-.685 0-1.229.209-1.633.627-.403.417-.605.992-.605 1.725" style="fill:#fff;fill-opacity:1;fill-rule:nonzero;stroke:none" transform="translate(76.617 135.882)"/><path d="M0 0h3.186v-.779h-2.04l1.19-1.418-1.313-1.63h2.26v-.775H-.06v.86l1.234 1.545L0-.829V0z" style="fill:#fff;fill-opacity:1;fill-rule:nonzero;stroke:none" transform="translate(80.723 138.18)"/><path d="M0 0c0-.521.12-.916.361-1.185s.546-.403.917-.403c.37 0 .674.133.912.4.237.267.356.667.356 1.201 0 .527-.116.92-.347 1.18-.231.259-.538.389-.921.389s-.692-.131-.926-.394C.117.926 0 .53 0 0m-.958-.031c0 .468.071.862.211 1.18.105.234.247.445.428.631a1.8 1.8 0 0 0 .595.414c.287.122.618.182.992.182.678 0 1.221-.21 1.628-.631.407-.42.61-1.005.61-1.754 0-.743-.202-1.325-.605-1.744-.404-.42-.944-.63-1.62-.63-.685 0-1.229.209-1.633.627-.404.417-.606.992-.606 1.725" style="fill:#fff;fill-opacity:1;fill-rule:nonzero;stroke:none" transform="translate(53.626 128.167)"/><path d="M0 0v4.564h.929V.775H3.24V0H0z" style="fill:#fff;fill-opacity:1;fill-rule:nonzero;stroke:none" transform="translate(57.883 125.863)"/><path d="M0 0v1.937l-1.686 2.665h1.09L.487 2.781l1.061 1.821h1.07L.926 1.93V0H0z" style="fill:#fff;fill-opacity:1;fill-rule:nonzero;stroke:none" transform="translate(62.403 125.863)"/><path d="M0 0v4.602h1.391l.835-3.139.825 3.139h1.394V0h-.863v3.622L2.668 0h-.894L.863 3.622V0H0z" style="fill:#fff;fill-opacity:1;fill-rule:nonzero;stroke:none" transform="translate(65.47 125.863)"/><path d="M0 0v-1.306h.509c.366 0 .611.024.734.072.124.049.22.124.29.226.07.103.106.222.106.358 0 .168-.05.306-.148.415a.65.65 0 0 1-.374.204C1.007-.01.784 0 .449 0H0zm-.929-3.823V.779H.562c.565 0 .933-.023 1.105-.07.263-.069.484-.219.662-.45.178-.231.267-.53.267-.896 0-.283-.051-.52-.154-.713a1.252 1.252 0 0 0-.391-.453 1.352 1.352 0 0 0-.481-.219c-.222-.044-.543-.065-.964-.065H0v-1.736h-.929z" style="fill:#fff;fill-opacity:1;fill-rule:nonzero;stroke:none" transform="translate(71.768 129.686)"/><path d="M0 0h.929v-2.492c0-.396.012-.652.035-.77a.74.74 0 0 1 .284-.453c.149-.114.354-.171.613-.171.264 0 .463.054.597.161a.645.645 0 0 1 .242.397c.027.157.04.418.04.782V0h.93v-2.417c0-.553-.026-.943-.076-1.171a1.296 1.296 0 0 0-.278-.578 1.4 1.4 0 0 0-.541-.375c-.226-.093-.521-.14-.885-.14-.44 0-.773.051-1 .153a1.418 1.418 0 0 0-.538.395 1.273 1.273 0 0 0-.261.51C.03-3.359 0-2.97 0-2.455V0z" style="fill:#fff;fill-opacity:1;fill-rule:nonzero;stroke:none" transform="translate(75.12 130.465)"/><path d="m0 0 .904.088c.054-.304.165-.526.331-.669.167-.142.391-.213.674-.213.299 0 .524.063.676.19a.563.563 0 0 1 .228.444.42.42 0 0 1-.096.278c-.064.076-.175.143-.334.199a11.08 11.08 0 0 1-.744.201C1.141.641.791.793.59.973a1.2 1.2 0 0 0-.424.926c0 .235.067.454.2.658.133.204.324.359.574.466.25.107.552.16.906.16.577 0 1.012-.126 1.304-.38.292-.253.445-.591.46-1.014l-.929-.041c-.04.237-.125.407-.256.511-.131.103-.327.155-.589.155-.27 0-.481-.055-.634-.166a.336.336 0 0 1-.147-.286c0-.109.046-.202.138-.279.117-.099.402-.201.854-.308.452-.107.786-.217 1.003-.331a1.29 1.29 0 0 0 .508-.468c.123-.198.184-.442.184-.733a1.35 1.35 0 0 0-.841-1.254c-.268-.112-.602-.168-1.002-.168-.582 0-1.028.135-1.34.403C.247-.907.061-.515 0 0" style="fill:#fff;fill-opacity:1;fill-rule:nonzero;stroke:none" transform="translate(79.534 127.36)"/><path d="M41.885 91.931h53.218v32.681H41.885V91.931z" style="fill:#389f47;fill-opacity:1;fill-rule:nonzero;stroke:none"/><path d="M41.171 63.358h53.396v24.644H41.171V63.358zM41.171 34.428h53.396v24.644H41.171V34.428z" style="fill:#fff;fill-opacity:1;fill-rule:nonzero;stroke:none"/><path d="M0 0v3.835h3.066V0h-.774v3.186H.774V0H0z" style="fill:#000;fill-opacity:1;fill-rule:nonzero;stroke:none" transform="translate(42.802 48.037)"/><path d="m0 0 1.371-3.835h-.84L-.44-.999l-.939-2.836H-2.2L-.827 0H0z" style="fill:#000;fill-opacity:1;fill-rule:nonzero;stroke:none" transform="translate(48.253 51.872)"/><path d="m0 0-.528 1.423L-1.046 0H0zm1.426-1.517H.583l-.335.871h-1.532l-.317-.871h-.821l1.493 3.835h.819l1.536-3.835z" style="fill:#000;fill-opacity:1;fill-rule:nonzero;stroke:none" transform="translate(51.835 49.554)"/><path d="M0 0v3.186h-1.138v.649H1.91v-.649H.774V0H0z" style="fill:#000;fill-opacity:1;fill-rule:nonzero;stroke:none" transform="translate(53.876 48.037)"/><path d="M0 0v3.835h2.844v-.649H.774v-.85H2.7V1.69H.774V.646h2.143V0H0z" style="fill:#000;fill-opacity:1;fill-rule:nonzero;stroke:none" transform="translate(56.07 48.037)"/><path d="M59.406 48.037h.774v3.835h-.774v-3.835z" style="fill:#000;fill-opacity:1;fill-rule:nonzero;stroke:none"/><path d="m0 0-.528 1.423L-1.046 0H0zm1.426-1.517H.583l-.335.871h-1.532l-.317-.871h-.821l1.493 3.835h.819l1.536-3.835z" style="fill:#000;fill-opacity:1;fill-rule:nonzero;stroke:none" transform="translate(62.736 49.554)"/><path d="M0 0v3.186h-1.138v.649H1.91v-.649H.774V0H0z" style="fill:#000;fill-opacity:1;fill-rule:nonzero;stroke:none" transform="translate(66.496 48.037)"/><path d="M0 0v-1.088h.424c.305 0 .509.02.612.06.103.04.183.103.242.188a.52.52 0 0 1 .087.298.5.5 0 0 1-.434.516A3.786 3.786 0 0 1 .374 0H0zm-.774-3.186V.649H.468c.471 0 .778-.02.921-.058a.999.999 0 0 0 .552-.375c.148-.193.222-.442.222-.747 0-.235-.042-.433-.128-.594a1.044 1.044 0 0 0-.326-.378 1.114 1.114 0 0 0-.401-.182 4.48 4.48 0 0 0-.803-.055H0v-1.446h-.774z" style="fill:#000;fill-opacity:1;fill-rule:nonzero;stroke:none" transform="translate(69.465 51.223)"/><path d="M0 0c0-.434.1-.763.301-.988a.98.98 0 0 1 .764-.336c.308 0 .562.111.76.334.197.222.297.556.297 1.001 0 .439-.097.767-.29.983-.192.216-.448.324-.767.324S.488 1.209.293.99C.098.771 0 .441 0 0m-.798-.026c0 .391.058.718.175.984.087.195.207.37.358.525.15.156.315.271.495.346.239.101.514.151.827.151.565 0 1.017-.175 1.356-.525.339-.351.509-.839.509-1.463 0-.619-.168-1.103-.505-1.453-.337-.35-.786-.524-1.35-.524-.57 0-1.024.174-1.36.521-.337.349-.505.827-.505 1.438" style="fill:#000;fill-opacity:1;fill-rule:nonzero;stroke:none" transform="translate(72.69 49.957)"/><path d="M0 0c0-.434.1-.763.301-.988a.98.98 0 0 1 .764-.336c.308 0 .562.111.76.334.197.222.296.556.296 1.001 0 .439-.096.767-.289.983-.192.216-.448.324-.767.324S.488 1.209.293.99C.098.771 0 .441 0 0m-.798-.026c0 .391.059.718.175.984.088.195.207.37.358.525.15.156.316.271.495.346.239.101.515.151.827.151.565 0 1.017-.175 1.356-.525.339-.351.509-.839.509-1.463 0-.619-.168-1.103-.505-1.453-.336-.35-.786-.524-1.35-.524-.57 0-1.023.174-1.36.521-.337.349-.505.827-.505 1.438" style="fill:#000;fill-opacity:1;fill-rule:nonzero;stroke:none" transform="translate(76.644 49.957)"/><path d="m0 0-.863 2.294L-1.7 0H0zm1.091-.646h-3.848l1.493 3.835h.819L1.091-.646z" style="fill:#000;fill-opacity:1;fill-rule:nonzero;stroke:none" transform="translate(82.18 48.683)"/><path d="M0 0c0-.434.1-.763.301-.988a.98.98 0 0 1 .764-.336c.308 0 .562.111.76.334.198.222.297.556.297 1.001 0 .439-.097.767-.29.983-.192.216-.448.324-.767.324S.488 1.209.293.99C.098.771 0 .441 0 0m-.798-.026c0 .391.059.718.175.984.088.195.207.37.357.525.151.156.317.271.496.346.239.101.515.151.827.151.565 0 1.017-.175 1.356-.525.339-.351.509-.839.509-1.463 0-.619-.168-1.103-.505-1.453-.336-.35-.786-.524-1.35-.524-.57 0-1.023.174-1.36.521-.337.349-.505.827-.505 1.438" style="fill:#000;fill-opacity:1;fill-rule:nonzero;stroke:none" transform="translate(83.945 49.957)"/><path d="M0 0v1.614l-1.405 2.221h.908l.903-1.517.884 1.517h.892L.772 1.609V0H0z" style="fill:#000;fill-opacity:1;fill-rule:nonzero;stroke:none" transform="translate(88.115 48.037)"/><path d="M0 0h2.655v-.649h-1.7l.991-1.182L.853-3.189h1.883v-.646H-.05v.717L.978-1.831 0-.691V0z" style="fill:#000;fill-opacity:1;fill-rule:nonzero;stroke:none" transform="translate(90.363 51.872)"/><path d="M0 0v3.186h-1.138v.649H1.91v-.649H.774V0H0z" style="fill:#000;fill-opacity:1;fill-rule:nonzero;stroke:none" transform="translate(44.744 41.608)"/><path d="M0 0h.573c.371 0 .603.016.696.047a.413.413 0 0 1 .217.162.503.503 0 0 1 .078.288.461.461 0 0 1-.103.313.476.476 0 0 1-.292.15 6.397 6.397 0 0 1-.565.013H0V0zm-.774-2.213v3.835H.855c.41 0 .708-.035.894-.104a.881.881 0 0 0 .446-.367 1.11 1.11 0 0 0 .167-.604c0-.288-.084-.526-.254-.713-.169-.188-.421-.306-.758-.355.167-.097.305-.205.414-.321.11-.117.256-.325.441-.623l.468-.748h-.926l-.559.834a5.454 5.454 0 0 1-.408.564.6.6 0 0 1-.233.16 1.304 1.304 0 0 1-.39.043H0v-1.601h-.774z" style="fill:#000;fill-opacity:1;fill-rule:nonzero;stroke:none" transform="translate(47.716 43.821)"/><path d="M0 0c0-.434.1-.763.301-.988a.98.98 0 0 1 .764-.336c.308 0 .562.111.76.334.198.222.297.556.297 1.001 0 .439-.097.767-.29.983-.192.216-.448.324-.767.324S.488 1.209.293.99C.098.771 0 .441 0 0m-.798-.026c0 .391.058.718.175.984.088.195.207.37.357.525.151.156.316.271.496.346.239.101.515.151.827.151.565 0 1.017-.175 1.356-.525.339-.351.509-.839.509-1.463 0-.619-.168-1.103-.505-1.453-.336-.35-.786-.524-1.35-.524-.57 0-1.023.174-1.36.521-.337.349-.505.827-.505 1.438" style="fill:#000;fill-opacity:1;fill-rule:nonzero;stroke:none" transform="translate(51.235 43.528)"/><path d="M0 0c0-.434.1-.763.301-.988a.98.98 0 0 1 .764-.336c.308 0 .562.111.76.334.198.222.297.556.297 1.001 0 .439-.097.767-.29.983-.192.216-.448.324-.767.324S.488 1.209.293.99C.098.771 0 .441 0 0m-.798-.026c0 .391.058.718.175.984.088.195.207.37.357.525.151.156.317.271.496.346.239.101.515.151.827.151.565 0 1.017-.175 1.356-.525.339-.351.509-.839.509-1.463 0-.619-.168-1.103-.505-1.453-.336-.35-.786-.524-1.35-.524-.57 0-1.023.174-1.36.521-.337.349-.505.827-.505 1.438" style="fill:#000;fill-opacity:1;fill-rule:nonzero;stroke:none" transform="translate(55.188 43.528)"/><path d="M0 0v-2.54h.578c.216 0 .372.012.468.037a.71.71 0 0 1 .313.159c.083.075.15.198.203.37.052.172.078.406.078.703 0 .296-.026.524-.078.682a.887.887 0 0 1-.22.372.734.734 0 0 1-.358.18C.875-.012.663 0 .348 0H0zm-.774.649H.641c.319 0 .562-.025.73-.074.225-.066.417-.184.578-.353.16-.169.282-.376.366-.621a2.82 2.82 0 0 0 .126-.906c0-.316-.04-.588-.118-.817a1.698 1.698 0 0 0-.411-.677 1.35 1.35 0 0 0-.544-.306 2.343 2.343 0 0 0-.685-.081H-.774V.649z" style="fill:#000;fill-opacity:1;fill-rule:nonzero;stroke:none" transform="translate(59.271 44.794)"/><path d="M0 0c0-.434.1-.763.301-.988a.98.98 0 0 1 .764-.336c.308 0 .562.111.76.334.198.222.297.556.297 1.001 0 .439-.097.767-.29.983-.192.216-.448.324-.767.324S.488 1.209.293.99C.098.771 0 .441 0 0m-.798-.026c0 .391.059.718.175.984.088.195.207.37.357.525.151.156.317.271.496.346.239.101.515.151.827.151.565 0 1.017-.175 1.356-.525.339-.351.509-.839.509-1.463 0-.619-.168-1.103-.505-1.453-.336-.35-.786-.524-1.35-.524-.57 0-1.023.174-1.36.521-.337.349-.505.827-.505 1.438" style="fill:#000;fill-opacity:1;fill-rule:nonzero;stroke:none" transform="translate(62.795 43.528)"/><path d="m0 0 .753.073c.046-.252.138-.438.276-.557.139-.119.326-.178.562-.178.249 0 .437.053.563.158a.47.47 0 0 1 .19.371c0 .09-.027.168-.08.231a.633.633 0 0 1-.278.166 9.03 9.03 0 0 1-.62.168C.951.535.659.661.492.811a.996.996 0 0 0-.353.772c0 .195.055.377.166.548.111.169.27.299.478.388.209.089.461.134.755.134.482 0 .844-.106 1.087-.317.243-.211.371-.493.383-.845l-.774-.034c-.033.197-.104.339-.213.425-.109.087-.273.13-.491.13-.225 0-.401-.046-.528-.139a.294.294 0 0 1-.008-.471c.098-.082.335-.167.712-.256.376-.089.655-.181.835-.276.181-.095.322-.225.424-.39.102-.165.153-.369.153-.611a1.128 1.128 0 0 0-.701-1.045c-.223-.093-.501-.14-.834-.14-.485 0-.857.112-1.117.336C.206-.756.051-.429 0 0" style="fill:#000;fill-opacity:1;fill-rule:nonzero;stroke:none" transform="translate(65.91 42.856)"/><path d="m0 0 .753.073c.046-.252.138-.438.276-.557.139-.119.326-.178.561-.178.25 0 .438.053.564.158a.47.47 0 0 1 .19.371c0 .09-.027.168-.08.231a.631.631 0 0 1-.279.166c-.09.032-.297.088-.619.168C.95.535.659.661.492.811a.996.996 0 0 0-.353.772c0 .195.055.377.166.548.11.169.27.299.478.388.209.089.46.134.755.134.481 0 .844-.106 1.087-.317.243-.211.371-.493.383-.845l-.774-.034c-.033.197-.104.339-.213.425-.109.087-.273.13-.491.13-.225 0-.401-.046-.528-.139a.294.294 0 0 1-.008-.471c.098-.082.335-.167.712-.256.376-.089.655-.181.835-.276.181-.095.322-.225.424-.39.102-.165.153-.369.153-.611a1.128 1.128 0 0 0-.701-1.045c-.223-.093-.501-.14-.834-.14-.485 0-.858.112-1.117.336C.206-.756.05-.429 0 0" style="fill:#000;fill-opacity:1;fill-rule:nonzero;stroke:none" transform="translate(70.544 42.856)"/><path d="M0 0c.099.117.174.258.224.424.049.166.074.356.074.57 0 .443-.098.774-.293.993a.977.977 0 0 1-.766.328.98.98 0 0 1-.768-.33c-.196-.219-.294-.55-.294-.991 0-.448.098-.783.294-1.006a.95.95 0 0 1 .744-.333c.112 0 .217.018.317.055a2.213 2.213 0 0 1-.479.24l.217.442A2.63 2.63 0 0 0 0 0m.623-.437c.19-.136.396-.244.62-.324l-.286-.547a1.75 1.75 0 0 0-.342.144c-.025.012-.196.125-.516.34a2.056 2.056 0 0 0-.834-.165c-.59 0-1.051.174-1.385.521-.334.347-.501.834-.501 1.462 0 .626.167 1.113.502 1.461.335.348.789.522 1.363.522.568 0 1.019-.174 1.352-.522.333-.348.5-.835.5-1.461C1.096.663 1.05.371.957.12a1.798 1.798 0 0 0-.334-.557" style="fill:#000;fill-opacity:1;fill-rule:nonzero;stroke:none" transform="translate(76.564 42.532)"/><path d="M0 0h.774v-2.077c0-.33.01-.543.029-.641a.62.62 0 0 1 .237-.378c.124-.095.295-.143.511-.143.22 0 .386.045.497.135.112.09.179.2.202.331.022.131.034.348.034.651V0h.774v-2.014c0-.461-.021-.786-.063-.976a1.081 1.081 0 0 0-.231-.481 1.174 1.174 0 0 0-.452-.313c-.188-.078-.434-.116-.737-.116-.366 0-.644.042-.833.127-.19.084-.339.194-.449.329-.11.135-.182.277-.217.425-.051.22-.076.544-.076.973V0z" style="fill:#000;fill-opacity:1;fill-rule:nonzero;stroke:none" transform="translate(78.047 45.443)"/><path d="m0 0-.528 1.423L-1.046 0H0zm1.426-1.517H.583l-.335.871h-1.532l-.317-.871h-.821l1.493 3.835h.819l1.536-3.835z" style="fill:#000;fill-opacity:1;fill-rule:nonzero;stroke:none" transform="translate(83.74 43.125)"/><path d="M0 0h.573c.371 0 .603.016.696.047a.413.413 0 0 1 .217.162.503.503 0 0 1 .078.288.461.461 0 0 1-.103.313.476.476 0 0 1-.292.15 6.397 6.397 0 0 1-.565.013H0V0zm-.774-2.213v3.835H.855c.41 0 .708-.035.894-.104a.881.881 0 0 0 .446-.367 1.11 1.11 0 0 0 .167-.604c0-.288-.084-.526-.254-.713-.169-.188-.422-.306-.758-.355.167-.097.305-.205.414-.321.109-.117.256-.325.441-.623l.468-.748h-.926l-.559.834a5.454 5.454 0 0 1-.408.564.6.6 0 0 1-.233.16 1.304 1.304 0 0 1-.39.043H0v-1.601h-.774z" style="fill:#000;fill-opacity:1;fill-rule:nonzero;stroke:none" transform="translate(86.139 43.821)"/><path d="M0 0v3.835h2.844v-.649H.774v-.85H2.7V1.69H.774V.646h2.143V0H0z" style="fill:#000;fill-opacity:1;fill-rule:nonzero;stroke:none" transform="translate(89.016 41.608)"/><path d="m0 0-.814 2.194L-1.612 0H0zm2.197-2.338H.899L.383-.996H-1.98l-.487-1.342h-1.267l2.303 5.91H-.17l2.367-5.91z" style="fill:#fff;fill-opacity:1;fill-rule:nonzero;stroke:none" transform="translate(50.756 112.324)"/><path d="M0 0v5.91h1.161L3.58 1.964V5.91h1.109V0H3.491L1.109 3.854V0H0z" style="fill:#fff;fill-opacity:1;fill-rule:nonzero;stroke:none" transform="translate(53.598 109.986)"/><path d="M0 0c0-.669.154-1.177.464-1.522A1.51 1.51 0 0 1 1.64-2.04c.476 0 .867.171 1.172.514.305.343.457.857.457 1.542 0 .678-.148 1.183-.445 1.516-.297.333-.691.5-1.184.5-.491 0-.888-.168-1.188-.506C.15 1.189 0 .68 0 0m-1.23-.04c0 .602.09 1.107.27 1.516.135.301.318.571.551.81.232.239.487.417.764.532.368.156.792.234 1.274.234.87 0 1.567-.27 2.09-.81.523-.541.784-1.292.784-2.254 0-.954-.259-1.701-.778-2.24-.518-.539-1.212-.808-2.08-.808-.879 0-1.578.268-2.097.805-.519.536-.778 1.274-.778 2.215" style="fill:#fff;fill-opacity:1;fill-rule:nonzero;stroke:none" transform="translate(60.537 112.945)"/><path d="M65.936 109.987h1.193v5.91h-1.193v-5.91z" style="fill:#fff;fill-opacity:1;fill-rule:nonzero;stroke:none"/><path d="M0 0v5.91h1.193V3.286L3.605 5.91h1.604L2.984 3.608 5.33 0H3.786L2.161 2.774l-.968-.988V0H0z" style="fill:#fff;fill-opacity:1;fill-rule:nonzero;stroke:none" transform="translate(68.281 109.986)"/><path d="M0 0v4.911h-1.754v.999h4.697v-.999H1.192V0H0z" style="fill:#fff;fill-opacity:1;fill-rule:nonzero;stroke:none" transform="translate(75.559 109.986)"/><path d="M0 0c0-.669.154-1.177.464-1.522A1.509 1.509 0 0 1 1.64-2.04c.477 0 .867.171 1.172.514.305.343.458.857.458 1.542 0 .678-.149 1.183-.446 1.516-.297.333-.692.5-1.184.5S.752 1.864.452 1.526C.151 1.189 0 .68 0 0m-1.23-.04c0 .602.09 1.107.27 1.516.134.301.318.571.551.81.232.239.487.417.764.532.368.156.793.234 1.274.234.871 0 1.568-.27 2.09-.81.523-.541.785-1.292.785-2.254 0-.954-.26-1.701-.779-2.24-.519-.539-1.213-.808-2.08-.808-.879 0-1.578.268-2.097.805-.519.536-.778 1.274-.778 2.215" style="fill:#fff;fill-opacity:1;fill-rule:nonzero;stroke:none" transform="translate(80.11 112.945)"/><path d="M0 0h4.092v-1H1.471l1.528-1.822-1.685-2.093h2.903v-.995H-.077v1.104l1.585 1.984L0-1.064V0z" style="fill:#fff;fill-opacity:1;fill-rule:nonzero;stroke:none" transform="translate(85.385 115.897)"/><path d="M0 0c0-.669.155-1.177.464-1.522a1.512 1.512 0 0 1 1.177-.518 1.5 1.5 0 0 1 1.172.514c.304.343.456.857.456 1.542 0 .678-.148 1.183-.445 1.516-.296.333-.691.5-1.183.5-.492 0-.888-.168-1.189-.506C.151 1.189 0 .68 0 0m-1.229-.04c0 .602.089 1.107.27 1.516.134.301.318.571.55.81.232.239.488.417.764.532.367.156.793.234 1.274.234.871 0 1.568-.27 2.09-.81.523-.541.785-1.292.785-2.254 0-.954-.26-1.701-.778-2.24-.519-.539-1.213-.808-2.081-.808-.879 0-1.578.268-2.096.804-.519.537-.778 1.275-.778 2.216" style="fill:#fff;fill-opacity:1;fill-rule:nonzero;stroke:none" transform="translate(58.35 103.037)"/><path d="M0 0v-1.677h.653c.47 0 .785.031.944.092a.793.793 0 0 1 .373.291c.09.131.135.285.135.46a.765.765 0 0 1-.19.532.828.828 0 0 1-.48.262c-.142.026-.428.04-.859.04H0zm-1.193-4.911V1H.721c.727 0 1.2-.03 1.42-.089a1.56 1.56 0 0 0 .851-.578c.228-.297.342-.681.342-1.151 0-.363-.066-.668-.198-.916a1.61 1.61 0 0 0-.501-.582 1.738 1.738 0 0 0-.619-.281c-.285-.056-.698-.084-1.238-.084H0v-2.23h-1.193z" style="fill:#fff;fill-opacity:1;fill-rule:nonzero;stroke:none" transform="translate(64.978 104.989)"/><path d="M0 0v5.91h4.383v-.999H1.194V3.6h2.967v-.996H1.194V.996h3.302V0H0z" style="fill:#fff;fill-opacity:1;fill-rule:nonzero;stroke:none" transform="translate(69.291 100.078)"/><path d="M0 0v5.91h1.161L3.58 1.963V5.91h1.109V0H3.492L1.109 3.854V0H0z" style="fill:#fff;fill-opacity:1;fill-rule:nonzero;stroke:none" transform="translate(74.81 100.078)"/><path d="M0 0c-.328-.465-1.345-.169-1.803-.042a.713.713 0 0 0-.385.206 4.337 4.337 0 0 0-.894.326.683.683 0 0 0-.579.333c-1.056.718-1.848 1.91-2.343 3.055-.512.053-.796.739-.417 1.118-.479 1.51-.712 3.177-.755 4.766a.661.661 0 0 0 0 1.076c.043 1.588.276 3.255.755 4.765-.379.379-.1 1.066.417 1.118.506 1.172 1.276 2.327 2.343 3.055a.673.673 0 0 0 .579.338c.259.127.613.258.894.322a.748.748 0 0 0 .385.212c.458.125 1.472.41 1.803-.043.275.48 1.325.333 1.784.254v.004a.678.678 0 0 0 .512-.295c.259.291.749.316 1.014-.011l.3.005c3.055 0 5.556-4.59 5.54-10.263C9.139 4.633 6.665.043 3.61.043h-.3c-.249-.306-.77-.312-1.014-.006C2.027-.375 1.052-.338.613-.328A.656.656 0 0 0 0 0" style="fill:#000;fill-opacity:1;fill-rule:evenodd;stroke:none" transform="translate(67.467 65.327)"/><path d="M0 0c-.274.19-.613.365-.933.47-.276.148-.054.564.215.422C-.496.834.491.448.322.106A.245.245 0 0 0 0 0" style="fill:#fff;fill-opacity:1;fill-rule:evenodd;stroke:none" transform="translate(63.484 80.322)"/><path d="M0 0c-.362.026-.681 0-1.044-.059-.316-.01-.327.465-.021.476C-.838.475.217.634.228.248A.239.239 0 0 0 0 0" style="fill:#fff;fill-opacity:1;fill-rule:evenodd;stroke:none" transform="translate(65.884 82.217)"/><path d="M0 0c-.39-.063-.637-.142-1.012-.264-.306-.074-.408.385-.111.459.2.106 1.208.464 1.299.09A.238.238 0 0 0 0 0" style="fill:#fff;fill-opacity:1;fill-rule:evenodd;stroke:none" transform="translate(63.647 82.011)"/><path d="M0 0c-.386.065-.648.065-1.038.065-.307.01-.29.49.031.468C-.785.565.28.607.254.222A.241.241 0 0 0 0 0" style="fill:#fff;fill-opacity:1;fill-rule:evenodd;stroke:none" transform="translate(68.016 77.848)"/><path d="M0 0a4.256 4.256 0 0 1-.85.601c-.252.175.032.565.276.385C-.365.887.555.369.332.052A.237.237 0 0 0 0 0" style="fill:#fff;fill-opacity:1;fill-rule:evenodd;stroke:none" transform="translate(68.908 81.305)"/><path d="M0 0c0-.338-.521-.353-.521 0 0 .354.521.333.521 0" style="fill:#fff;fill-opacity:1;fill-rule:evenodd;stroke:none" transform="translate(70.527 85.462)"/><path d="M0 0a4.24 4.24 0 0 1-1.039.047c-.301.011-.285.486.026.475C-.79.554.276.612.248.221A.235.235 0 0 0 0 0" style="fill:#fff;fill-opacity:1;fill-rule:evenodd;stroke:none" transform="translate(69.135 85.304)"/><path d="M0 0c.559.898 1.319 1.705 2.259 2.196a.66.66 0 0 1 .612-.132c.025-.248.278-.533.385-.738.058-.106.121-.233.173-.349C2.839.671 2.296.08 1.837-.722 1.446-.389.596.359.1-.157.079-.099.037-.052 0 0" style="fill:#fff;fill-opacity:1;fill-rule:evenodd;stroke:none" transform="translate(67.578 82.765)"/><path d="M0 0c.2-.015.364.048.505.185.113-.295.486-.442.725-.613.188-.136.374-.348.601-.447a12.382 12.382 0 0 1-.575-2.127c-.454.1-1.604.274-1.904-.174a.823.823 0 0 1-.238.169C-.691-1.899-.395-.881 0 0" style="fill:#fff;fill-opacity:1;fill-rule:evenodd;stroke:none" transform="translate(67.024 81.71)"/><path d="M0 0c.41.728.902 1.324 1.456 1.778.22-.311.618-.301.954-.375.112-.026.239-.063.364-.047a.664.664 0 0 1 .158-.233c.232-.195.492-.416.687-.643-.385.063-.892.005-1.278-.047a.638.638 0 0 1-.57-.38C1.408.48.453.148 0 0" style="fill:#fff;fill-opacity:1;fill-rule:evenodd;stroke:none" transform="translate(62.387 82.624)"/><path d="M0 0c.428.132 1.102.031 1.349.459C1.609.1 2.051.206 2.427.19c.142-.005.343-.032.485-.047C2.2-.338 1.609-1.034 1.155-1.762a.494.494 0 0 1-.148.042C1.399-1.119.495-.386.073-.058.052-.037-.027-.005 0 0" style="fill:#fff;fill-opacity:1;fill-rule:evenodd;stroke:none" transform="translate(66.165 84.745)"/><path d="M0 0a.26.26 0 0 0-.264-.258A.264.264 0 0 0-.528 0c0 .148.122.264.264.264A.262.262 0 0 0 0 0" style="fill:#fff;fill-opacity:1;fill-rule:evenodd;stroke:none" transform="translate(67.326 82.365)"/><path d="M0 0c-.106.121-.238.274-.355.39-.116.105-.664.406-.407.665.275.275.96-.533 1.087-.717C.552.126.215-.217 0 0" style="fill:#fff;fill-opacity:1;fill-rule:evenodd;stroke:none" transform="translate(66.419 83.273)"/><path d="M0 0c-.153.037-.839.022-.75.385.069.296.633.127.802.095C.421.385.312-.074 0 0" style="fill:#fff;fill-opacity:1;fill-rule:evenodd;stroke:none" transform="translate(64.967 84.428)"/><path d="M0 0c-.397-.027-.645-.101-1.029-.195-.318-.047-.381.411-.084.469.231.09 1.229.38 1.302 0A.243.243 0 0 0 0 0" style="fill:#fff;fill-opacity:1;fill-rule:evenodd;stroke:none" transform="translate(66.92 85.293)"/><path d="M0 0c-.116.354-.328.612-.506.913-.153.28.274.502.411.227C.137.892.279.537.416.232.564-.037.146-.274 0 0" style="fill:#fff;fill-opacity:1;fill-rule:evenodd;stroke:none" transform="translate(71.436 83.821)"/><path d="M0 0c0-.36-.528-.333-.528-.001S0 .353 0 0" style="fill:#fff;fill-opacity:1;fill-rule:evenodd;stroke:none" transform="translate(61.79 81.39)"/><path d="M0 0a3.884 3.884 0 0 1-1.002-.311c-.307-.089-.422.369-.138.454C-.939.259.048.659.154.296A.238.238 0 0 0-.006 0H0z" style="fill:#fff;fill-opacity:1;fill-rule:evenodd;stroke:none" transform="translate(64.719 77.684)"/><path d="M0 0a5.058 5.058 0 0 1-.882-.566c-.264-.162-.512.243-.247.407C-.961 0-.122.654.078.327A.233.233 0 0 0 0 0" style="fill:#fff;fill-opacity:1;fill-rule:evenodd;stroke:none" transform="translate(62.588 76.851)"/><path d="M0 0c0-.342-.521-.332-.521 0S0 .354 0 0" style="fill:#fff;fill-opacity:1;fill-rule:evenodd;stroke:none" transform="translate(66.128 78.101)"/><path d="M0 0c.011.512-.67.834-1.082 1.024.391.096.829.053 1.03.481.301-.365.716-.195 1.119-.18.399.015.823-.106 1.096.269a.64.64 0 0 1 .227-.254 12.9 12.9 0 0 1-.77-2.452C1.287-.712.608.269 0 0" style="fill:#fff;fill-opacity:1;fill-rule:evenodd;stroke:none" transform="translate(64.312 80.47)"/><path d="M0 0c-.216.306-.459.505-.728.749-.212.222.127.554.343.327C-.19.944.617.258.338-.006A.242.242 0 0 0 0 0" style="fill:#fff;fill-opacity:1;fill-rule:evenodd;stroke:none" transform="translate(65.162 78.893)"/><path d="M0 0c.067 1.33.275 2.738.67 4.01.169.016.253.079.379.154.096-.423.55-.507.877-.671.332-.169.649-.491 1.06-.328-.011-.421.37-.632.618-.885.142-.153.275-.301.384-.438-.384.1-1.15-.211-1.509-.344a.668.668 0 0 1-.47-.612C1.524 1.261.653.602.264.295A.606.606 0 0 1 0 0" style="fill:#fff;fill-opacity:1;fill-rule:evenodd;stroke:none" transform="translate(60.91 76.719)"/><path d="M0 0c.289.143.497-.285.216-.422-.185-.131-1.076-.712-1.25-.364-.163.332.438.449.586.517.067.037.395.232.448.269" style="fill:#fff;fill-opacity:1;fill-rule:evenodd;stroke:none" transform="translate(63.484 70.93)"/><path d="M0 0c.318-.01.285-.485-.02-.476-.223 0-1.283-.1-1.272.307.01.375.586.169.771.164C-.448-.01-.063 0 0 0" style="fill:#fff;fill-opacity:1;fill-rule:evenodd;stroke:none" transform="translate(65.884 69.036)"/><path d="M0 0c.307-.074.191-.533-.117-.459-.215.016-1.271.169-1.179.543.082.365.604.052.778.011C-.437.074-.062.005 0 0" style="fill:#fff;fill-opacity:1;fill-rule:evenodd;stroke:none" transform="translate(63.647 69.248)"/><path d="M0 0c.322.02.333-.454.033-.476-.238-.036-1.267-.231-1.294.165-.026.374.586.237.744.243.08.004.454.058.517.068" style="fill:#fff;fill-opacity:1;fill-rule:evenodd;stroke:none" transform="translate(68.016 73.405)"/><path d="M0 0c.264.185.528-.217.275-.385-.159-.159-.95-.86-1.177-.549-.221.295.371.512.497.602.062.041.359.29.405.332" style="fill:#fff;fill-opacity:1;fill-rule:evenodd;stroke:none" transform="translate(68.908 69.954)"/><path d="M0 0c0-.333-.521-.354-.521 0 0 .353.521.337.521 0" style="fill:#fff;fill-opacity:1;fill-rule:evenodd;stroke:none" transform="translate(70.527 65.792)"/><path d="M0 0c.312.022.328-.454.026-.474v.004c-.225-.037-1.277-.221-1.288.174-.009.37.577.226.739.238.081 0 .459.048.523.058" style="fill:#fff;fill-opacity:1;fill-rule:evenodd;stroke:none" transform="translate(69.135 65.95)"/><path d="M0 0c.037.048.079.094.1.153.496-.517 1.351.232 1.737.564C2.2.074 2.754-.629 3.429-.977c-.137-.29-.3-.596-.48-.854a.804.804 0 0 1-.078-.232.686.686 0 0 1-.612-.133C1.367-1.736.612-.987 0 0" style="fill:#fff;fill-opacity:1;fill-rule:evenodd;stroke:none" transform="translate(67.578 68.493)"/><path d="M0 0c-.416.928-.712 1.994-.886 3.002a.708.708 0 0 1 .238.169c.332-.485 1.414-.226 1.904-.175.127-.716.321-1.439.575-2.126C1.604.771 1.43.565 1.23.422 1.003.258.613.105.505-.19A.659.659 0 0 1 0 0" style="fill:#fff;fill-opacity:1;fill-rule:evenodd;stroke:none" transform="translate(67.024 69.548)"/><path d="M0 0c0-.606.031-1.202.089-1.778-.19 0-.432-.064-.623-.074-.364-.026-.779.079-1.048-.242a.606.606 0 0 1-.454.279 20.884 20.884 0 0 0 0 3.641.612.612 0 0 1 .454.28c.258-.312.695-.222 1.048-.238.197-.011.433-.074.623-.074A18.418 18.418 0 0 1 0 0" style="fill:#fff;fill-opacity:1;fill-rule:evenodd;stroke:none" transform="translate(68 75.621)"/><path d="M0 0c-.009-5.012-1.961-9.139-4.574-9.682.248.312.47.755.623 1.118a.856.856 0 0 1 .078.255c1.995.41 3.557 3.977 3.557 8.304v.011c0 4.332-1.562 7.893-3.557 8.305-.026.227-.236.617-.332.791-.1.19-.232.407-.369.581C-1.961 9.139-.009 5.018 0 0" style="fill:#fff;fill-opacity:1;fill-rule:evenodd;stroke:none" transform="translate(76.2 75.626)"/><path d="M0 0c.453-.164 1.408-.479 1.771-.052.211-.513 1.289-.46 1.752-.433h.096a6.4 6.4 0 0 0-.687-.639.596.596 0 0 1-.158-.236c-.115.015-.259-.028-.364-.044-.336-.083-.728-.068-.954-.374C.902-1.329.41-.728 0 0" style="fill:#fff;fill-opacity:1;fill-rule:evenodd;stroke:none" transform="translate(62.387 68.635)"/><path d="M0 0c.432.343 1.413 1.092 1.007 1.719.043 0 .111.027.148.043C1.609 1.034 2.2.337 2.912-.142 2.574-.19 2.183-.207 1.841-.19a.625.625 0 0 1-.492-.269C1.124-.064.69-.127.306-.064.2-.043.1-.021 0 0" style="fill:#fff;fill-opacity:1;fill-rule:evenodd;stroke:none" transform="translate(66.165 66.51)"/><path d="M0 0c0-.354-.528-.332-.528 0 0 .333.528.359.528 0" style="fill:#fff;fill-opacity:1;fill-rule:evenodd;stroke:none" transform="translate(67.326 68.888)"/><path d="M0 0c.232.217.543-.127.325-.343-.136-.18-.806-.997-1.087-.717-.252.269.285.554.407.67.058.053.312.337.355.39" style="fill:#fff;fill-opacity:1;fill-rule:evenodd;stroke:none" transform="translate(66.419 67.986)"/><path d="M0 0c.306.073.433-.38.052-.475-.153-.042-.733-.206-.802.09-.089.364.597.348.75.385" style="fill:#fff;fill-opacity:1;fill-rule:evenodd;stroke:none" transform="translate(64.967 66.826)"/><path d="M0 0c.305-.048.216-.523-.092-.465-.227.017-1.286.079-1.212.471.057.369.612.083.781.057C-.448.047-.07.006 0 0" style="fill:#fff;fill-opacity:1;fill-rule:evenodd;stroke:none" transform="translate(66.92 65.96)"/><path d="M0 0c.153.28.559.038.416-.227-.093-.227-.479-1.182-.834-1.008-.316.18.112.612.195.76.043.068.202.416.223.475" style="fill:#fff;fill-opacity:1;fill-rule:evenodd;stroke:none" transform="translate(71.436 67.432)"/><path d="M0 0c0-.348-.528-.323-.528 0 0 .338.528.359.528 0" style="fill:#fff;fill-opacity:1;fill-rule:evenodd;stroke:none" transform="translate(61.79 69.865)"/><path d="M0 0c0-4.163-1.436-7.545-3.203-7.545-1.763 0-3.198 3.382-3.198 7.545 0 4.169 1.435 7.545 3.198 7.545C-1.436 7.545 0 4.169 0 0" style="fill:#fff;fill-opacity:1;fill-rule:evenodd;stroke:none" transform="translate(75.14 75.626)"/><path d="M0 0c0-3.794-1.308-6.869-2.928-6.869-1.614 0-3.066 3.075-3.066 6.869 0 3.793 1.452 6.87 3.066 6.87C-1.308 6.87 0 3.793 0 0" style="fill:#000;fill-opacity:1;fill-rule:evenodd;stroke:none" transform="translate(74.976 75.626)"/><path d="M0 0c0-3.498-1.256-6.569-2.749-6.569-1.246 0-2.015 2.016-2.275 2.892.216-.354.465-.549.729-.549C-3.028-4.225-2.812-.533-2.812 0c0 .534-.216 4.232-1.483 4.232-.327 0-.58-.306-.729-.554.26.881 1.029 2.897 2.275 2.897C-1.256 6.575 0 3.499 0 0" style="fill:#fff;fill-opacity:1;fill-rule:evenodd;stroke:none" transform="translate(74.75 75.626)"/><path d="M0 0c0-.601-.185-3.588-1.24-3.788.729.839.901 2.759.908 3.788-.007 1.098-.179 2.971-.908 3.789C-.548 3.657-.009 2.016 0 0" style="fill:#fff;fill-opacity:1;fill-rule:evenodd;stroke:none" transform="translate(71.551 75.626)"/><path d="M0 0h-.006c.301-.085.16-.538-.136-.454-.227.053-1.262.211-1.157.607.101.359.617.022.783-.032C-.438.095-.063.01 0 0" style="fill:#fff;fill-opacity:1;fill-rule:evenodd;stroke:none" transform="translate(64.719 73.569)"/><path d="M0 0a.26.26 0 0 0-.264-.258.258.258 0 1 0 0 .516A.26.26 0 0 0 0 0" style="fill:#fff;fill-opacity:1;fill-rule:evenodd;stroke:none" transform="translate(60.935 75.626)"/><path d="M0 0c.274-.174.005-.56-.248-.407-.206.112-1.167.55-.962.892.207.306.597-.142.75-.237C-.397.206-.059.026 0 0" style="fill:#fff;fill-opacity:1;fill-rule:evenodd;stroke:none" transform="translate(62.588 74.408)"/><path d="M0 0c0-.344-.521-.338-.521 0 0 .337.521.353.521 0" style="fill:#fff;fill-opacity:1;fill-rule:evenodd;stroke:none" transform="translate(66.128 73.152)"/><path d="M0 0c.554-.249 1.251.638 1.541 1.012.026.033.053.069.079.107.174-.823.433-1.678.77-2.454a.68.68 0 0 1-.227-.253c-.28.368-.701.259-1.096.263-.392.016-.814.185-1.119-.174-.201.412-.655.39-1.03.48C-.67-.829.011-.517 0 0" style="fill:#fff;fill-opacity:1;fill-rule:evenodd;stroke:none" transform="translate(64.312 70.783)"/><path d="M0 0c.217.217.56-.095.344-.327-.138-.174-.782-1.04-1.066-.754a.238.238 0 0 0-.006.337v-.005c.264.237.522.453.728.749" style="fill:#fff;fill-opacity:1;fill-rule:evenodd;stroke:none" transform="translate(65.162 72.36)"/><path d="M0 0c.095-.227.559-.522.743-.644.345-.217.877-.538 1.266-.247.013-.645 1.108-.845 1.606-.951a.824.824 0 0 1 .373 0 5.564 5.564 0 0 0-.817-.844.818.818 0 0 1-.185-.485c-.418.168-.723-.148-1.06-.322-.323-.169-.776-.248-.877-.676a.628.628 0 0 1-.379.154C.307-2.85.078-1.498 0 0" style="fill:#fff;fill-opacity:1;fill-rule:evenodd;stroke:none" transform="translate(60.91 74.54)"/><path d="M0 0c0-.611.03-1.244.089-1.852a.648.648 0 0 1-.31-.222c-.159.449-.629.444-1.009.549-.375.111-.764.391-1.145.095-.011.497-.491.618-.828.829-.328.2-.628.553-1.056.396A.67.67 0 0 1-4.22 0v-.005a.713.713 0 0 1-.039.211c.439-.147.728.19 1.056.401.337.212.817.316.828.823.381-.28.775-.016 1.145.095.39.116.85.094 1.009.554a.625.625 0 0 1 .31-.227C.03 1.252 0 .633 0 0" style="fill:#fff;fill-opacity:1;fill-rule:evenodd;stroke:none" transform="translate(65.558 75.626)"/></g></svg>