<svg xmlns="http://www.w3.org/2000/svg" width="114.078" height="153.718"><defs><clipPath clipPathUnits="userSpaceOnUse" id="c"><path d="M48.189 259.37h76.28v103.465h-76.28V259.37z"/></clipPath><clipPath clipPathUnits="userSpaceOnUse" id="b"><path d="M0 0h311v595H0V0z"/></clipPath><clipPath clipPathUnits="userSpaceOnUse" id="a"><path d="M48.189 262.125h76.28v100.71h-76.28v-100.71z"/></clipPath></defs><path style="fill:#ffdb00;fill-opacity:1;fill-rule:nonzero;stroke:none" d="m182.99 554.25-112.445-.76V402.187l112.445-.022v152.086z" transform="translate(-69.73 -401.349)"/><g clip-path="url(#a)" transform="matrix(1.57962 0 0 -1.57962 -79.103 571.121)"><path d="m0 0-71.185.482v95.784L0 96.28V0z" style="fill:none;stroke:#000;stroke-width:1.03347731;stroke-linecap:butt;stroke-linejoin:miter;stroke-miterlimit:4;stroke-opacity:1;stroke-dasharray:none" transform="translate(121.78 264.76)"/></g><g clip-path="url(#b)" transform="matrix(1.57962 0 0 -1.57962 -79.103 571.121)"><path d="M0 0h-9.986L8.488 32.34 27.264 0H0z" style="fill:#fff;fill-opacity:1;fill-rule:evenodd;stroke:none" transform="translate(78.095 317.917)"/></g><g clip-path="url(#c)" transform="matrix(1.57962 0 0 -1.57962 -79.103 571.121)"><path d="M0 0h33.042L16.527 28.588 0 0zm34.661-3.693c.983 0 1.887.528 2.379 1.384.504.855.504 1.91 0 2.766l-18.12 31.37a2.767 2.767 0 0 1-4.791-.008L-3.996.457a2.771 2.771 0 0 1 0-2.766 2.78 2.78 0 0 1 2.402-1.384h36.255z" style="fill:#ed1d24;fill-opacity:1;fill-rule:evenodd;stroke:none" transform="translate(70.125 319.278)"/><path d="m0 0-63.956.278v27.28L0 27.633V0z" style="fill:#ed1d24;fill-opacity:1;fill-rule:nonzero;stroke:none" transform="translate(118.307 269.425)"/><path d="m0 0-63.956.278v27.28L0 27.633V0z" style="fill:none;stroke:#000;stroke-width:.51673865;stroke-linecap:butt;stroke-linejoin:miter;stroke-miterlimit:4;stroke-opacity:1;stroke-dasharray:none" transform="translate(118.307 269.425)"/><path d="M0 0a2.35 2.35 0 1 0-4.7 0A2.35 2.35 0 1 0 0 0" style="fill:#000;fill-opacity:1;fill-rule:nonzero;stroke:none" transform="translate(88.748 323.71)"/><path d="M0 0c-.32 2.107-2.689 3.42-4.57 2.25-1.321-.821-1.856-2.682-1.211-4.108l2.29-9.023.958-.014 2.138 8.717c.203.573.438 1.116.438 1.734" style="fill:#000;fill-opacity:1;fill-rule:nonzero;stroke:none" transform="translate(89.334 338.315)"/><path d="M0 0v5.608h4.158V4.66H1.132V3.416h2.816v-.945H1.132V.945h3.134V0H0z" style="fill:#fff;fill-opacity:1;fill-rule:nonzero;stroke:none" transform="translate(70.714 287.625)"/><path d="M0 0h3.631v-.949H0V0zm-.21 2.18h4.051v-.949H-.21v.949zm-.107-4.663h4.266v-.945H-.317v.945z" style="fill:#fff;fill-opacity:1;fill-rule:nonzero;stroke:none" transform="translate(76.077 291.053)"/><path d="M0 0c0-.635.147-1.116.44-1.444a1.431 1.431 0 0 1 1.117-.492c.451 0 .821.163 1.111.488.289.325.434.813.434 1.463 0 .643-.141 1.123-.422 1.439-.283.316-.656.474-1.123.474-.467 0-.843-.16-1.129-.48C.143 1.128 0 .645 0 0m-1.167-.038c0 .571.085 1.051.256 1.438.128.286.301.542.523.769.22.227.462.395.725.505.349.148.752.222 1.208.222.827 0 1.487-.256 1.985-.769.494-.513.743-1.225.743-2.138 0-.906-.246-1.614-.738-2.126-.493-.511-1.151-.767-1.974-.767-.834 0-1.497.255-1.99.764-.492.508-.738 1.209-.738 2.102" style="fill:#fff;fill-opacity:1;fill-rule:nonzero;stroke:none" transform="translate(81.92 290.433)"/><path d="m0 0-1.262 3.355L-2.487 0H0zm1.595-.945h-5.627l2.184 5.608H-.65L1.595-.945z" style="fill:#fff;fill-opacity:1;fill-rule:nonzero;stroke:none" transform="translate(90.328 288.57)"/><path d="M0 0c0-.635.147-1.116.44-1.444a1.433 1.433 0 0 1 1.117-.492c.451 0 .821.163 1.111.488.289.325.435.813.435 1.463 0 .643-.142 1.123-.423 1.439-.283.316-.656.474-1.123.474-.467 0-.843-.16-1.129-.48C.143 1.128 0 .645 0 0m-1.167-.038c0 .571.086 1.051.256 1.438.128.286.301.542.523.769.22.227.462.395.725.505.349.148.752.222 1.209.222.826 0 1.486-.256 1.984-.769.494-.513.743-1.225.743-2.138 0-.906-.246-1.614-.738-2.126-.492-.511-1.15-.767-1.974-.767-.834 0-1.497.255-1.989.764-.493.508-.739 1.209-.739 2.102" style="fill:#fff;fill-opacity:1;fill-rule:nonzero;stroke:none" transform="translate(93.224 290.433)"/><path d="M0 0h3.883v-.949H1.396l1.45-1.729-1.599-1.985h2.755v-.945H-.073v1.048l1.504 1.882L0-1.01V0z" style="fill:#fff;fill-opacity:1;fill-rule:nonzero;stroke:none" transform="translate(98.228 293.233)"/><path d="M0 0c0-.635.147-1.117.44-1.444a1.431 1.431 0 0 1 1.117-.492c.451 0 .821.164 1.111.487.289.327.434.814.434 1.464 0 .643-.141 1.123-.422 1.439-.283.316-.656.474-1.123.474-.467 0-.843-.161-1.129-.479C.143 1.127 0 .645 0 0m-1.167-.038c0 .571.086 1.051.256 1.438.128.286.301.542.523.769.22.227.462.395.725.505.349.148.752.222 1.208.222.827 0 1.487-.256 1.985-.769.494-.513.743-1.225.743-2.138 0-.906-.246-1.615-.738-2.126-.492-.512-1.15-.767-1.974-.767-.834 0-1.497.254-1.99.764-.492.508-.738 1.209-.738 2.102" style="fill:#fff;fill-opacity:1;fill-rule:nonzero;stroke:none" transform="translate(65.287 282.598)"/><path d="m0 0 1.917 2.927L.18 5.608h1.323l1.125-1.801L3.73 5.608h1.312L3.298 2.884 5.214 0H3.849L2.605 1.94 1.358 0H0z" style="fill:#fff;fill-opacity:1;fill-rule:nonzero;stroke:none" transform="translate(69.874 279.79)"/><path d="M0 0v5.608h1.132V3.401h2.219v2.207h1.132V0H3.351v2.452H1.132V0H0z" style="fill:#fff;fill-opacity:1;fill-rule:nonzero;stroke:none" transform="translate(75.673 279.79)"/><path d="M0 0v5.608h1.695l1.017-3.825 1.007 3.825h1.698V0H4.365v4.415L3.252 0H2.161L1.052 4.415V0H0z" style="fill:#fff;fill-opacity:1;fill-rule:nonzero;stroke:none" transform="translate(81.312 279.79)"/><path d="m0 0-.773 2.081L-1.53 0H0zm2.085-2.219H.853L.364-.945h-2.242l-.463-1.274h-1.201l2.184 5.608h1.197l2.246-5.608z" style="fill:#fff;fill-opacity:1;fill-rule:nonzero;stroke:none" transform="translate(90.826 282.009)"/><path d="M0 0v4.66h-1.664v.948h4.457V4.66H1.132V0H0z" style="fill:#fff;fill-opacity:1;fill-rule:nonzero;stroke:none" transform="translate(94.124 279.79)"/><path d="M0 0v.945h1.086C.421 1.644.088 2.396.088 3.202c0 .704.238 1.297.715 1.779s1.131.723 1.963.723c.824 0 1.475-.24 1.955-.719.479-.48.719-1.074.719-1.783 0-.806-.333-1.558-.999-2.257h1.091V0H2.965v.903c.431.161.756.421.978.78.219.36.33.774.33 1.244 0 .482-.127.904-.381 1.266s-.629.543-1.126.543c-.495 0-.87-.18-1.125-.539-.255-.36-.382-.783-.382-1.27 0-.472.109-.888.33-1.246.22-.359.547-.617.978-.778V0H0z" style="fill:#fff;fill-opacity:1;fill-rule:nonzero;stroke:none" transform="translate(97.31 279.79)"/><path d="M0 0v5.608h1.102l2.295-3.745v3.745h1.052V0H3.313L1.052 3.657V0H0z" style="fill:#fff;fill-opacity:1;fill-rule:nonzero;stroke:none" transform="translate(103.799 279.79)"/><path d="m0 0-2.005 5.608h1.228l1.42-4.15 1.373 4.15h1.201L1.209 0H0z" style="fill:#fff;fill-opacity:1;fill-rule:nonzero;stroke:none" transform="translate(64.374 271.955)"/><path d="M0 0c-.008.311-.088.547-.241.709A.74.74 0 0 1-.8.953a.747.747 0 0 1-.581-.257C-1.534.525-1.609.293-1.607 0H0zm-.061-1.086 1.071-.18c-.138-.393-.356-.693-.653-.897-.297-.206-.668-.308-1.115-.308-.706 0-1.229.23-1.568.692-.268.37-.402.837-.402 1.4 0 .674.176 1.2.528 1.583.352.38.797.571 1.335.571.605 0 1.082-.2 1.431-.599.35-.399.517-1.01.501-1.834h-2.693c.008-.319.094-.567.26-.745a.815.815 0 0 1 .62-.265.66.66 0 0 1 .425.138c.114.092.201.239.26.444" style="fill:#fff;fill-opacity:1;fill-rule:nonzero;stroke:none" transform="translate(70.143 274.335)"/><path d="M0 0v-2.062c.347.406.761.608 1.243.608.248 0 .471-.046.67-.137.199-.092.348-.21.45-.352a1.34 1.34 0 0 0 .207-.475c.035-.173.054-.442.054-.807v-2.383H1.549v2.146c0 .426-.02.696-.061.811a.532.532 0 0 1-.217.274.702.702 0 0 1-.387.101.892.892 0 0 1-.479-.13.749.749 0 0 1-.307-.392C.032-2.974 0-3.231 0-3.573v-2.035h-1.075V0H0z" style="fill:#fff;fill-opacity:1;fill-rule:nonzero;stroke:none" transform="translate(73.157 277.564)"/><path d="M0 0h1.075v-4.063H0V0zm0 1.546h1.075V.551H0v.995z" style="fill:#fff;fill-opacity:1;fill-rule:nonzero;stroke:none" transform="translate(76.872 276.018)"/><path d="m0 0-1.06-.191c-.035.211-.117.371-.242.478a.738.738 0 0 1-.492.161.802.802 0 0 1-.64-.277c-.161-.186-.24-.495-.24-.928 0-.482.08-.823.242-1.022a.798.798 0 0 1 .653-.298.72.72 0 0 1 .501.174c.13.115.222.315.276.598l1.056-.179c-.11-.485-.32-.851-.632-1.098-.311-.248-.728-.371-1.251-.371-.594 0-1.068.187-1.422.562-.353.375-.529.894-.529 1.557 0 .671.178 1.192.532 1.566.355.374.834.561 1.439.561.494 0 .887-.107 1.18-.319C-.338.76-.128.436 0 0" style="fill:#fff;fill-opacity:1;fill-rule:nonzero;stroke:none" transform="translate(82.591 274.817)"/><path d="M83.406 271.956h1.075v5.608h-1.075v-5.608z" style="fill:#fff;fill-opacity:1;fill-rule:nonzero;stroke:none"/><path d="M0 0c-.008.311-.088.547-.241.709A.74.74 0 0 1-.8.953a.747.747 0 0 1-.581-.257C-1.534.525-1.609.293-1.607 0H0zm-.061-1.086 1.071-.18c-.138-.393-.356-.693-.653-.897-.297-.206-.668-.308-1.114-.308-.707 0-1.23.23-1.569.692-.268.37-.402.837-.402 1.4 0 .674.176 1.2.528 1.583.352.38.797.571 1.335.571.605 0 1.082-.2 1.431-.599.35-.399.517-1.01.501-1.834h-2.693c.008-.319.094-.567.26-.745a.815.815 0 0 1 .62-.265.66.66 0 0 1 .425.138c.114.092.201.239.26.444" style="fill:#fff;fill-opacity:1;fill-rule:nonzero;stroke:none" transform="translate(87.997 274.335)"/><path d="m0 0 1.079.165a.79.79 0 0 1 .279-.477c.14-.109.337-.162.589-.162.278 0 .487.051.628.153a.341.341 0 0 1 .141.287.28.28 0 0 1-.076.202c-.054.051-.174.098-.36.142C1.413.501.863.676.631.834a1.047 1.047 0 0 0-.482.914c0 .352.139.648.417.888.278.24.709.36 1.293.36.556 0 .969-.091 1.24-.272.27-.181.456-.449.558-.804l-1.014-.187a.628.628 0 0 1-.246.363c-.122.085-.294.127-.519.127-.283 0-.485-.04-.608-.119a.256.256 0 0 1-.122-.218c0-.076.035-.141.107-.195.097-.072.431-.172 1.005-.302.571-.13.971-.29 1.198-.478.225-.192.337-.458.337-.8 0-.372-.156-.692-.467-.96-.311-.268-.771-.402-1.381-.402-.553 0-.992.112-1.314.337A1.55 1.55 0 0 0 0 0" style="fill:#fff;fill-opacity:1;fill-rule:nonzero;stroke:none" transform="translate(89.561 273.115)"/><path d="M0 0v5.608h4.158V4.66H1.132V3.416h2.816v-.945H1.132V.945h3.134V0H0z" style="fill:#fff;fill-opacity:1;fill-rule:nonzero;stroke:none" transform="translate(96.482 271.955)"/><path d="m0 0 1.465 2.093-1.404 1.97h1.312l.72-1.117.757 1.117h1.263L2.735 2.138 4.239 0h-1.32l-.826 1.259L1.259 0H0z" style="fill:#fff;fill-opacity:1;fill-rule:nonzero;stroke:none" transform="translate(101.183 271.955)"/><path d="M0 0h1.075v-4.063H0V0zm0 1.546h1.075V.551H0v.995z" style="fill:#fff;fill-opacity:1;fill-rule:nonzero;stroke:none" transform="translate(106.057 276.018)"/><path d="M0 0v-.857h-.735v-1.637c0-.332.007-.526.021-.579a.233.233 0 0 1 .097-.137.3.3 0 0 1 .181-.053c.099 0 .243.034.432.103l.092-.834a2.139 2.139 0 0 0-.849-.161c-.194 0-.369.034-.524.097a.776.776 0 0 0-.342.253.982.982 0 0 0-.152.419c-.023.125-.034.378-.034.758v1.771h-.494V0h.494v.807l1.078.628V0H0z" style="fill:#fff;fill-opacity:1;fill-rule:nonzero;stroke:none" transform="translate(110.097 276.018)"/></g></svg>