<svg xmlns="http://www.w3.org/2000/svg" width="106.709" height="416.98"><defs><clipPath clipPathUnits="userSpaceOnUse" id="b"><path d="M123.662 32.598h34.845v114.095h-34.845V32.598z"/></clipPath><clipPath clipPathUnits="userSpaceOnUse" id="a"><path d="M0 0h311v595H0V0z"/></clipPath></defs><g clip-path="url(#a)" transform="matrix(-3.81023 0 0 -3.81023 590.92 551.2)"><path d="m0 0 27.955 18.035V9.336L-.051-8.083 0 0z" style="fill:#ed1d24;fill-opacity:1;fill-rule:nonzero;stroke:none" transform="translate(127.133 97.133)"/><path d="m0 0 27.955 18.034V9.336L-.051-8.083 0 0z" style="fill:#ed1d24;fill-opacity:1;fill-rule:nonzero;stroke:none" transform="translate(127.133 79.1)"/><path d="m0 0 27.955 18.034V9.336L-.051-8.083 0 0z" style="fill:#ed1d24;fill-opacity:1;fill-rule:nonzero;stroke:none" transform="translate(127.133 61.343)"/><path d="m0 0 27.955 18.034V9.336L-.051-8.083 0 0z" style="fill:#ed1d24;fill-opacity:1;fill-rule:nonzero;stroke:none" transform="translate(127.133 43.309)"/></g><g clip-path="url(#b)" transform="matrix(-3.81023 0 0 -3.81023 590.92 551.2)"><path d="M0 0c0-7.088-5.239-12.834-11.702-12.834S-23.404-7.088-23.404 0c0 7.088 5.239 12.834 11.702 12.834S0 7.088 0 0" style="fill:#007ac2;fill-opacity:1;fill-rule:evenodd;stroke:none" transform="translate(152.786 131.829)"/><path d="m0 0-4.657-.786.718 5.106 1.21-1.326 7.197 9.811 2.73-2.852-8.407-8.626L0 0z" style="fill:#fff;fill-opacity:1;fill-rule:evenodd;stroke:none" transform="translate(139.814 126.604)"/></g></svg>