<svg xmlns="http://www.w3.org/2000/svg" width="213.556" height="213.418"><path d="M0 0c7.465 0 13.608 6.117 13.608 13.582 0 7.49-6.143 13.61-13.608 13.61-7.491 0-13.61-6.12-13.61-13.61C-13.61 6.117-7.491 0 0 0" style="fill:#fff;fill-opacity:1;fill-rule:evenodd;stroke:none" transform="matrix(6.28013 0 0 -6.28013 106.769 192.088)"/><path d="M0 0c7.467 0 13.608 6.119 13.608 13.584 0 7.491-6.141 13.608-13.608 13.608-7.491 0-13.608-6.117-13.608-13.608C-13.608 6.119-7.491 0 0 0m0-3.394c9.356 0 17.004 7.648 17.004 16.978 0 9.359-7.648 17.005-17.004 17.005-9.354 0-17.001-7.646-17.001-17.005 0-9.33 7.647-16.978 17.001-16.978" style="fill:#ed1d24;fill-opacity:1;fill-rule:evenodd;stroke:none" transform="matrix(6.28013 0 0 -6.28013 106.769 192.103)"/><path style="fill:#000;fill-opacity:1;fill-rule:evenodd;stroke:none" d="M0 0v-4.349h12.048v.747h.941v-.637h.639v-.997h.194v-1.246h.315l.183 1.219.721-.775v-.444h1.08l-.366.138-.438.444s-.416.914-.416 1.107c0 .195.111.749.166.832.056.082.389.637.778.72.385.083 1.19-.471 1.66-.471h1.608l-.112-1.551s-.414-.831-.414-.943c0-.11-.056-.442-.056-.442h.719l.111 1.136.167.137.36 1.331.637.083s.333-.25.305-.443c-.029-.194-1.164-2.022-1.164-2.022s-.221-.305-.111-.222c.111.083.832.166.832.166l.083.444s1.163 1.107 1.163 1.384c0 .277-.5 1.178-.638 1.323-.137.146-.137.921-.137.921h1.494v.44h-.968l.137 1.25s.056.304.168.304c.11 0 .497-.637.663-.637.167 0 .667.11.667.333 0 .221-.25 1.523-.416 1.689-.167.167-.333.499-.499.61-.167.11-.333.415-.333.415l-.442-.47S19.776.277 19.61.055c-.165-.221-1.357-.886-1.357-.886s-2.625.002-2.962.055c-.902.14-1.693-.44-1.719-1.135-.006-.187-.083-.555-.083-.555h-.777l-.553.25s-.193 1.606-.388 1.745c-.193.138-.914.194-.914.194v1.08s.889-.305 1.191-.443c.305-.139.637-.249.805-.249l.941.276s-1.413.693-1.801.914c-.388.223-.832.914-.9 1.053-.069.138-.208.61-.208.61l.167.387s-.027.666-.25.748c-.222.083-.581.25-.831 0-.249-.249-.369-.299-.369-.299s-.074-.311.039-.476c.109-.166.278-.585.278-.585s-.557-.966-.695-1.244c-.141-.277-.25-1.522-.25-1.522h-.581S6.978 1.218 6.84 1.524c-.138.304 0 .581-.082.581s-1.079-.111-1.135.055c-.054.166-.278.416-.278.416H4.319S1.247.499 1.136.415C1.025.332 1.025 0 1.025 0H0z" transform="matrix(6.2816 0 0 -6.2816 34.651 92.141)"/><path style="fill:#000;fill-opacity:1;fill-rule:evenodd;stroke:none" d="m0 0-6.915.936.028.212L.028.213 0 0z" transform="matrix(6.2816 0 0 -6.2816 158.753 96.134)"/><path style="fill:#000;fill-opacity:1;fill-rule:evenodd;stroke:none" d="M0 0a1.255 1.255 0 1 0-2.509-.001A1.255 1.255 0 0 0 0 0" transform="matrix(6.2816 0 0 -6.2816 61.144 125.94)"/><path style="fill:#000;fill-opacity:1;fill-rule:evenodd;stroke:none" d="M0 0a1.254 1.254 0 1 0-2.508-.002A1.254 1.254 0 0 0 0 0" transform="matrix(6.2816 0 0 -6.2816 99.069 125.94)"/><path style="fill:#000;fill-opacity:1;fill-rule:evenodd;stroke:none" d="M-27.79 571.943h145.3v-8.348h-145.3v8.348z" transform="translate(61.739 -431.603)"/></svg>