<?xml version="1.0" encoding="UTF-8" standalone="no"?>
<!-- Created with Inkscape (http://www.inkscape.org/) -->

<svg
   xmlns:dc="http://purl.org/dc/elements/1.1/"
   xmlns:cc="http://creativecommons.org/ns#"
   xmlns:rdf="http://www.w3.org/1999/02/22-rdf-syntax-ns#"
   xmlns:svg="http://www.w3.org/2000/svg"
   xmlns="http://www.w3.org/2000/svg"
   xmlns:sodipodi="http://sodipodi.sourceforge.net/DTD/sodipodi-0.dtd"
   xmlns:inkscape="http://www.inkscape.org/namespaces/inkscape"
   width="214.34129"
   height="214.20262"
   id="svg4205"
   version="1.1"
   inkscape:version="0.47 r22583"
   sodipodi:docname="Cyprus road sign no heavy vehicles.svg">
  <defs
     id="defs4207">
    <inkscape:perspective
       sodipodi:type="inkscape:persp3d"
       inkscape:vp_x="0 : 526.18109 : 1"
       inkscape:vp_y="0 : 1000 : 0"
       inkscape:vp_z="744.09448 : 526.18109 : 1"
       inkscape:persp3d-origin="372.04724 : 350.78739 : 1"
       id="perspective4213" />
    <inkscape:perspective
       id="perspective4228"
       inkscape:persp3d-origin="106.21 : 70.796666 : 1"
       inkscape:vp_z="212.42 : 106.195 : 1"
       inkscape:vp_y="0 : 1000 : 0"
       inkscape:vp_x="0 : 106.195 : 1"
       sodipodi:type="inkscape:persp3d" />
    <clipPath
       id="clipPath16">
      <path
         inkscape:connector-curvature="0"
         d="M 0.059998,169.98 H 170 V 0.06 H 0.059998 v 169.92 z"
         id="path18" />
    </clipPath>
    <inkscape:perspective
       id="perspective4247"
       inkscape:persp3d-origin="0.5 : 0.33333333 : 1"
       inkscape:vp_z="1 : 0.5 : 1"
       inkscape:vp_y="0 : 1000 : 0"
       inkscape:vp_x="0 : 0.5 : 1"
       sodipodi:type="inkscape:persp3d" />
    <clipPath
       clipPathUnits="userSpaceOnUse"
       id="clipPath3426">
      <path
         d="m 43.076,488.976 34.845,0 0,34.015 -34.845,0 0,-34.015 z"
         id="path3428" />
    </clipPath>
    <inkscape:perspective
       id="perspective4323"
       inkscape:persp3d-origin="0.5 : 0.33333333 : 1"
       inkscape:vp_z="1 : 0.5 : 1"
       inkscape:vp_y="0 : 1000 : 0"
       inkscape:vp_x="0 : 0.5 : 1"
       sodipodi:type="inkscape:persp3d" />
    <clipPath
       clipPathUnits="userSpaceOnUse"
       id="clipPath2896">
      <path
         d="m 102.752,490.181 34.845,0 0,34.016 -34.845,0 0,-34.016 z"
         id="path2898" />
    </clipPath>
    <inkscape:perspective
       id="perspective5249"
       inkscape:persp3d-origin="0.5 : 0.33333333 : 1"
       inkscape:vp_z="1 : 0.5 : 1"
       inkscape:vp_y="0 : 1000 : 0"
       inkscape:vp_x="0 : 0.5 : 1"
       sodipodi:type="inkscape:persp3d" />
    <inkscape:perspective
       id="perspective5326"
       inkscape:persp3d-origin="0.5 : 0.33333333 : 1"
       inkscape:vp_z="1 : 0.5 : 1"
       inkscape:vp_y="0 : 1000 : 0"
       inkscape:vp_x="0 : 0.5 : 1"
       sodipodi:type="inkscape:persp3d" />
    <clipPath
       clipPathUnits="userSpaceOnUse"
       id="clipPath3128">
      <path
         d="m 164.704,490.181 34.845,0 0,34.016 -34.845,0 0,-34.016 z"
         id="path3130" />
    </clipPath>
    <inkscape:perspective
       id="perspective5450"
       inkscape:persp3d-origin="0.5 : 0.33333333 : 1"
       inkscape:vp_z="1 : 0.5 : 1"
       inkscape:vp_y="0 : 1000 : 0"
       inkscape:vp_x="0 : 0.5 : 1"
       sodipodi:type="inkscape:persp3d" />
    <clipPath
       clipPathUnits="userSpaceOnUse"
       id="clipPath3318">
      <path
         d="m 224.23,490.181 34.845,0 0,34.016 -34.845,0 0,-34.016 z"
         id="path3320" />
    </clipPath>
    <inkscape:perspective
       id="perspective5517"
       inkscape:persp3d-origin="0.5 : 0.33333333 : 1"
       inkscape:vp_z="1 : 0.5 : 1"
       inkscape:vp_y="0 : 1000 : 0"
       inkscape:vp_x="0 : 0.5 : 1"
       sodipodi:type="inkscape:persp3d" />
    <clipPath
       clipPathUnits="userSpaceOnUse"
       id="clipPath2936">
      <path
         d="m 43.087,413.859 34.845,0 0,34.016 -34.845,0 0,-34.016 z"
         id="path2938" />
    </clipPath>
    <inkscape:perspective
       id="perspective5617"
       inkscape:persp3d-origin="0.5 : 0.33333333 : 1"
       inkscape:vp_z="1 : 0.5 : 1"
       inkscape:vp_y="0 : 1000 : 0"
       inkscape:vp_x="0 : 0.5 : 1"
       sodipodi:type="inkscape:persp3d" />
    <clipPath
       clipPathUnits="userSpaceOnUse"
       id="clipPath3572">
      <path
         d="m 102.752,413.859 34.845,0 0,34.016 -34.845,0 0,-34.016 z"
         id="path3574" />
    </clipPath>
    <inkscape:perspective
       id="perspective5745"
       inkscape:persp3d-origin="0.5 : 0.33333333 : 1"
       inkscape:vp_z="1 : 0.5 : 1"
       inkscape:vp_y="0 : 1000 : 0"
       inkscape:vp_x="0 : 0.5 : 1"
       sodipodi:type="inkscape:persp3d" />
    <clipPath
       clipPathUnits="userSpaceOnUse"
       id="clipPath3694">
      <path
         d="m 164.704,413.859 34.845,0 0,34.016 -34.845,0 0,-34.016 z"
         id="path3696" />
    </clipPath>
    <inkscape:perspective
       id="perspective5843"
       inkscape:persp3d-origin="0.5 : 0.33333333 : 1"
       inkscape:vp_z="1 : 0.5 : 1"
       inkscape:vp_y="0 : 1000 : 0"
       inkscape:vp_x="0 : 0.5 : 1"
       sodipodi:type="inkscape:persp3d" />
    <clipPath
       clipPathUnits="userSpaceOnUse"
       id="clipPath3500">
      <path
         d="m 224.23,413.859 34.845,0 0,34.016 -34.845,0 0,-34.016 z"
         id="path3502" />
    </clipPath>
    <inkscape:perspective
       id="perspective6067"
       inkscape:persp3d-origin="0.5 : 0.33333333 : 1"
       inkscape:vp_z="1 : 0.5 : 1"
       inkscape:vp_y="0 : 1000 : 0"
       inkscape:vp_x="0 : 0.5 : 1"
       sodipodi:type="inkscape:persp3d" />
    <clipPath
       clipPathUnits="userSpaceOnUse"
       id="clipPath3162">
      <path
         d="m 43.076,323.15 34.845,0 0,34.016 -34.845,0 0,-34.016 z"
         id="path3164" />
    </clipPath>
    <inkscape:perspective
       id="perspective6134"
       inkscape:persp3d-origin="0.5 : 0.33333333 : 1"
       inkscape:vp_z="1 : 0.5 : 1"
       inkscape:vp_y="0 : 1000 : 0"
       inkscape:vp_x="0 : 0.5 : 1"
       sodipodi:type="inkscape:persp3d" />
    <clipPath
       clipPathUnits="userSpaceOnUse"
       id="clipPath3350">
      <path
         d="m 103.255,323.15 34.845,0 0,34.016 -34.845,0 0,-34.016 z"
         id="path3352" />
    </clipPath>
    <inkscape:perspective
       id="perspective6370"
       inkscape:persp3d-origin="0.5 : 0.33333333 : 1"
       inkscape:vp_z="1 : 0.5 : 1"
       inkscape:vp_y="0 : 1000 : 0"
       inkscape:vp_x="0 : 0.5 : 1"
       sodipodi:type="inkscape:persp3d" />
    <clipPath
       clipPathUnits="userSpaceOnUse"
       id="clipPath3262">
      <path
         d="m 164.704,323.15 34.845,0 0,34.016 -34.845,0 0,-34.016 z"
         id="path3264" />
    </clipPath>
    <clipPath
       clipPathUnits="userSpaceOnUse"
       id="clipPath3218">
      <path
         d="m 168.515,340.144 c 0,-7.465 6.12,-13.582 13.61,-13.582 l 0,0 c 7.465,0 13.608,6.117 13.608,13.582 l 0,0 c 0,7.491 -6.143,13.61 -13.608,13.61 l 0,0 c -7.49,0 -13.61,-6.119 -13.61,-13.61"
         id="path3220" />
    </clipPath>
    <clipPath
       clipPathUnits="userSpaceOnUse"
       id="clipPath3226">
      <path
         d="M 0,0 311,0 311,595 0,595 0,0 z"
         id="path3228" />
    </clipPath>
    <clipPath
       clipPathUnits="userSpaceOnUse"
       id="clipPath3194">
      <path
         d="m 164.704,323.15 34.845,0 0,34.016 -34.845,0 0,-34.016 z"
         id="path3196" />
    </clipPath>
    <inkscape:perspective
       id="perspective6674"
       inkscape:persp3d-origin="0.5 : 0.33333333 : 1"
       inkscape:vp_z="1 : 0.5 : 1"
       inkscape:vp_y="0 : 1000 : 0"
       inkscape:vp_x="0 : 0.5 : 1"
       sodipodi:type="inkscape:persp3d" />
    <clipPath
       clipPathUnits="userSpaceOnUse"
       id="clipPath3916">
      <path
         d="m 164.862,222.52 34.845,0 0,34.016 -34.845,0 0,-34.016 z"
         id="path3918" />
    </clipPath>
    <inkscape:perspective
       id="perspective6766"
       inkscape:persp3d-origin="0.5 : 0.33333333 : 1"
       inkscape:vp_z="1 : 0.5 : 1"
       inkscape:vp_y="0 : 1000 : 0"
       inkscape:vp_x="0 : 0.5 : 1"
       sodipodi:type="inkscape:persp3d" />
    <clipPath
       clipPathUnits="userSpaceOnUse"
       id="clipPath3944">
      <path
         d="m 224.739,222.52 34.845,0 0,34.016 -34.845,0 0,-34.016 z"
         id="path3946" />
    </clipPath>
    <inkscape:perspective
       id="perspective6882"
       inkscape:persp3d-origin="0.5 : 0.33333333 : 1"
       inkscape:vp_z="1 : 0.5 : 1"
       inkscape:vp_y="0 : 1000 : 0"
       inkscape:vp_x="0 : 0.5 : 1"
       sodipodi:type="inkscape:persp3d" />
    <clipPath
       clipPathUnits="userSpaceOnUse"
       id="clipPath3464">
      <path
         d="m 102.651,123.307 34.845,0 0,34.016 -34.845,0 0,-34.016 z"
         id="path3466" />
    </clipPath>
    <inkscape:perspective
       id="perspective8234"
       inkscape:persp3d-origin="0.5 : 0.33333333 : 1"
       inkscape:vp_z="1 : 0.5 : 1"
       inkscape:vp_y="0 : 1000 : 0"
       inkscape:vp_x="0 : 0.5 : 1"
       sodipodi:type="inkscape:persp3d" />
    <clipPath
       clipPathUnits="userSpaceOnUse"
       id="clipPath7334">
      <path
         d="m 52.735,415.275 34.845,0 0,34.016 -34.845,0 0,-34.016 z"
         id="path7336" />
    </clipPath>
  </defs>
  <sodipodi:namedview
     id="base"
     pagecolor="#ffffff"
     bordercolor="#666666"
     borderopacity="1.0"
     inkscape:pageopacity="0.0"
     inkscape:pageshadow="2"
     inkscape:zoom="2.362731"
     inkscape:cx="-12.314303"
     inkscape:cy="94.224964"
     inkscape:document-units="px"
     inkscape:current-layer="layer1"
     showgrid="false"
     inkscape:window-width="1600"
     inkscape:window-height="838"
     inkscape:window-x="-8"
     inkscape:window-y="-8"
     inkscape:window-maximized="1" />
  <metadata
     id="metadata4210">
    <rdf:RDF>
      <cc:Work
         rdf:about="">
        <dc:format>image/svg+xml</dc:format>
        <dc:type
           rdf:resource="http://purl.org/dc/dcmitype/StillImage" />
        <dc:title></dc:title>
      </cc:Work>
    </rdf:RDF>
  </metadata>
  <g
     inkscape:label="Livello 1"
     inkscape:groupmode="layer"
     id="layer1"
     transform="translate(-393.99834,-422.80672)">
    <g
       transform="matrix(6.3032289,0,0,-6.3032289,58.945169,3254.6873)"
       id="g7330">
      <g
         id="g7332"
         clip-path="url(#clipPath7334)">
        <g
           id="g7338"
           transform="translate(70.156799,418.688)">
          <path
             d="m 0,0 c 7.465,0 13.608,6.117 13.608,13.582 0,7.49 -6.143,13.61 -13.608,13.61 -7.491,0 -13.61,-6.12 -13.61,-13.61 C -13.61,6.117 -7.491,0 0,0"
             style="fill:#ffffff;fill-opacity:1;fill-rule:evenodd;stroke:none"
             id="path7340" />
        </g>
        <g
           id="g7342"
           transform="translate(70.156799,418.68559)">
          <path
             d="m 0,0 c 7.467,0 13.608,6.119 13.608,13.584 0,7.491 -6.141,13.608 -13.608,13.608 -7.491,0 -13.608,-6.117 -13.608,-13.608 C -13.608,6.119 -7.491,0 0,0 m 0,-3.394 c 9.356,0 17.004,7.648 17.004,16.978 0,9.359 -7.648,17.005 -17.004,17.005 -9.354,0 -17.001,-7.646 -17.001,-17.005 0,-9.33 7.647,-16.978 17.001,-16.978"
             style="fill:#ed1d24;fill-opacity:1;fill-rule:evenodd;stroke:none"
             id="path7344" />
        </g>
        <g
           id="g7346"
           transform="translate(69.118698,428.3401)">
          <path
             d="m 0,0 c -0.6,-1.18 -2.08,-1.987 -3.619,-1.987 -1.82,0 -3.899,0.859 -4.22,3.302 l 2.361,0 c 0.239,-0.894 0.84,-1.331 1.778,-1.331 0.9,0 1.301,0.336 1.522,0.808 C -2,1.247 -2,1.77 -2,2.241 c 0,1.197 -0.319,2.005 -1.759,2.005 -0.66,0 -1.139,-0.219 -1.62,-0.944 l -2.18,0 0,6.488 7.047,0 0,-1.988 -4.787,0 0,-2.141 c 0.621,0.422 1.22,0.556 1.96,0.556 C -1.9,6.217 -0.6,5.544 0,4.448 0.28,3.926 0.38,3.269 0.38,2.123 0.38,1.112 0.259,0.522 0,0"
             style="fill:#000000;fill-opacity:1;fill-rule:nonzero;stroke:none"
             id="path7348" />
        </g>
        <g
           id="g7350"
           transform="translate(76.654999,434.69279)">
          <path
             d="M 0,0 C 0,1.011 -0.68,1.55 -1.699,1.55 -2.719,1.55 -3.397,1.011 -3.397,0 l 0,-4.802 c 0,-1.011 0.678,-1.567 1.698,-1.567 1.019,0 1.699,0.556 1.699,1.567 L 0,0 z m -1.699,-8.34 c -2.099,0 -4.06,1.23 -4.06,3.436 l 0,4.988 c 0,2.207 1.961,3.437 4.06,3.437 2.1,0 4.079,-1.23 4.079,-3.437 l 0,-4.988 C 2.38,-7.11 0.401,-8.34 -1.699,-8.34"
             style="fill:#000000;fill-opacity:1;fill-rule:nonzero;stroke:none"
             id="path7352" />
        </g>
      </g>
    </g>
  </g>
</svg>
