<?xml version="1.0" encoding="UTF-8" standalone="no"?>
<!-- Created with Inkscape (http://www.inkscape.org/) -->

<svg
   xmlns:dc="http://purl.org/dc/elements/1.1/"
   xmlns:cc="http://creativecommons.org/ns#"
   xmlns:rdf="http://www.w3.org/1999/02/22-rdf-syntax-ns#"
   xmlns:svg="http://www.w3.org/2000/svg"
   xmlns="http://www.w3.org/2000/svg"
   xmlns:sodipodi="http://sodipodi.sourceforge.net/DTD/sodipodi-0.dtd"
   xmlns:inkscape="http://www.inkscape.org/namespaces/inkscape"
   width="213.86263"
   height="213.72623"
   id="svg4205"
   version="1.1"
   inkscape:version="0.47 r22583"
   sodipodi:docname="Cyprus road sign customs.svg">
  <defs
     id="defs4207">
    <inkscape:perspective
       sodipodi:type="inkscape:persp3d"
       inkscape:vp_x="0 : 526.18109 : 1"
       inkscape:vp_y="0 : 1000 : 0"
       inkscape:vp_z="744.09448 : 526.18109 : 1"
       inkscape:persp3d-origin="372.04724 : 350.78739 : 1"
       id="perspective4213" />
    <inkscape:perspective
       id="perspective4228"
       inkscape:persp3d-origin="106.21 : 70.796666 : 1"
       inkscape:vp_z="212.42 : 106.195 : 1"
       inkscape:vp_y="0 : 1000 : 0"
       inkscape:vp_x="0 : 106.195 : 1"
       sodipodi:type="inkscape:persp3d" />
    <clipPath
       id="clipPath16">
      <path
         inkscape:connector-curvature="0"
         d="M 0.059998,169.98 H 170 V 0.06 H 0.059998 v 169.92 z"
         id="path18" />
    </clipPath>
    <inkscape:perspective
       id="perspective4247"
       inkscape:persp3d-origin="0.5 : 0.33333333 : 1"
       inkscape:vp_z="1 : 0.5 : 1"
       inkscape:vp_y="0 : 1000 : 0"
       inkscape:vp_x="0 : 0.5 : 1"
       sodipodi:type="inkscape:persp3d" />
    <clipPath
       clipPathUnits="userSpaceOnUse"
       id="clipPath3426">
      <path
         d="m 43.076,488.976 34.845,0 0,34.015 -34.845,0 0,-34.015 z"
         id="path3428" />
    </clipPath>
    <inkscape:perspective
       id="perspective4323"
       inkscape:persp3d-origin="0.5 : 0.33333333 : 1"
       inkscape:vp_z="1 : 0.5 : 1"
       inkscape:vp_y="0 : 1000 : 0"
       inkscape:vp_x="0 : 0.5 : 1"
       sodipodi:type="inkscape:persp3d" />
    <clipPath
       clipPathUnits="userSpaceOnUse"
       id="clipPath2896">
      <path
         d="m 102.752,490.181 34.845,0 0,34.016 -34.845,0 0,-34.016 z"
         id="path2898" />
    </clipPath>
    <inkscape:perspective
       id="perspective5249"
       inkscape:persp3d-origin="0.5 : 0.33333333 : 1"
       inkscape:vp_z="1 : 0.5 : 1"
       inkscape:vp_y="0 : 1000 : 0"
       inkscape:vp_x="0 : 0.5 : 1"
       sodipodi:type="inkscape:persp3d" />
    <inkscape:perspective
       id="perspective5326"
       inkscape:persp3d-origin="0.5 : 0.33333333 : 1"
       inkscape:vp_z="1 : 0.5 : 1"
       inkscape:vp_y="0 : 1000 : 0"
       inkscape:vp_x="0 : 0.5 : 1"
       sodipodi:type="inkscape:persp3d" />
    <clipPath
       clipPathUnits="userSpaceOnUse"
       id="clipPath3128">
      <path
         d="m 164.704,490.181 34.845,0 0,34.016 -34.845,0 0,-34.016 z"
         id="path3130" />
    </clipPath>
    <inkscape:perspective
       id="perspective5450"
       inkscape:persp3d-origin="0.5 : 0.33333333 : 1"
       inkscape:vp_z="1 : 0.5 : 1"
       inkscape:vp_y="0 : 1000 : 0"
       inkscape:vp_x="0 : 0.5 : 1"
       sodipodi:type="inkscape:persp3d" />
    <clipPath
       clipPathUnits="userSpaceOnUse"
       id="clipPath3318">
      <path
         d="m 224.23,490.181 34.845,0 0,34.016 -34.845,0 0,-34.016 z"
         id="path3320" />
    </clipPath>
    <inkscape:perspective
       id="perspective5517"
       inkscape:persp3d-origin="0.5 : 0.33333333 : 1"
       inkscape:vp_z="1 : 0.5 : 1"
       inkscape:vp_y="0 : 1000 : 0"
       inkscape:vp_x="0 : 0.5 : 1"
       sodipodi:type="inkscape:persp3d" />
    <clipPath
       clipPathUnits="userSpaceOnUse"
       id="clipPath2936">
      <path
         d="m 43.087,413.859 34.845,0 0,34.016 -34.845,0 0,-34.016 z"
         id="path2938" />
    </clipPath>
    <inkscape:perspective
       id="perspective5617"
       inkscape:persp3d-origin="0.5 : 0.33333333 : 1"
       inkscape:vp_z="1 : 0.5 : 1"
       inkscape:vp_y="0 : 1000 : 0"
       inkscape:vp_x="0 : 0.5 : 1"
       sodipodi:type="inkscape:persp3d" />
    <clipPath
       clipPathUnits="userSpaceOnUse"
       id="clipPath3572">
      <path
         d="m 102.752,413.859 34.845,0 0,34.016 -34.845,0 0,-34.016 z"
         id="path3574" />
    </clipPath>
    <inkscape:perspective
       id="perspective5745"
       inkscape:persp3d-origin="0.5 : 0.33333333 : 1"
       inkscape:vp_z="1 : 0.5 : 1"
       inkscape:vp_y="0 : 1000 : 0"
       inkscape:vp_x="0 : 0.5 : 1"
       sodipodi:type="inkscape:persp3d" />
    <clipPath
       clipPathUnits="userSpaceOnUse"
       id="clipPath3694">
      <path
         d="m 164.704,413.859 34.845,0 0,34.016 -34.845,0 0,-34.016 z"
         id="path3696" />
    </clipPath>
    <inkscape:perspective
       id="perspective5843"
       inkscape:persp3d-origin="0.5 : 0.33333333 : 1"
       inkscape:vp_z="1 : 0.5 : 1"
       inkscape:vp_y="0 : 1000 : 0"
       inkscape:vp_x="0 : 0.5 : 1"
       sodipodi:type="inkscape:persp3d" />
    <clipPath
       clipPathUnits="userSpaceOnUse"
       id="clipPath3500">
      <path
         d="m 224.23,413.859 34.845,0 0,34.016 -34.845,0 0,-34.016 z"
         id="path3502" />
    </clipPath>
    <inkscape:perspective
       id="perspective6067"
       inkscape:persp3d-origin="0.5 : 0.33333333 : 1"
       inkscape:vp_z="1 : 0.5 : 1"
       inkscape:vp_y="0 : 1000 : 0"
       inkscape:vp_x="0 : 0.5 : 1"
       sodipodi:type="inkscape:persp3d" />
    <clipPath
       clipPathUnits="userSpaceOnUse"
       id="clipPath3162">
      <path
         d="m 43.076,323.15 34.845,0 0,34.016 -34.845,0 0,-34.016 z"
         id="path3164" />
    </clipPath>
    <inkscape:perspective
       id="perspective6134"
       inkscape:persp3d-origin="0.5 : 0.33333333 : 1"
       inkscape:vp_z="1 : 0.5 : 1"
       inkscape:vp_y="0 : 1000 : 0"
       inkscape:vp_x="0 : 0.5 : 1"
       sodipodi:type="inkscape:persp3d" />
    <clipPath
       clipPathUnits="userSpaceOnUse"
       id="clipPath3350">
      <path
         d="m 103.255,323.15 34.845,0 0,34.016 -34.845,0 0,-34.016 z"
         id="path3352" />
    </clipPath>
    <inkscape:perspective
       id="perspective6370"
       inkscape:persp3d-origin="0.5 : 0.33333333 : 1"
       inkscape:vp_z="1 : 0.5 : 1"
       inkscape:vp_y="0 : 1000 : 0"
       inkscape:vp_x="0 : 0.5 : 1"
       sodipodi:type="inkscape:persp3d" />
    <clipPath
       clipPathUnits="userSpaceOnUse"
       id="clipPath3262">
      <path
         d="m 164.704,323.15 34.845,0 0,34.016 -34.845,0 0,-34.016 z"
         id="path3264" />
    </clipPath>
    <clipPath
       clipPathUnits="userSpaceOnUse"
       id="clipPath3218">
      <path
         d="m 168.515,340.144 c 0,-7.465 6.12,-13.582 13.61,-13.582 l 0,0 c 7.465,0 13.608,6.117 13.608,13.582 l 0,0 c 0,7.491 -6.143,13.61 -13.608,13.61 l 0,0 c -7.49,0 -13.61,-6.119 -13.61,-13.61"
         id="path3220" />
    </clipPath>
    <clipPath
       clipPathUnits="userSpaceOnUse"
       id="clipPath3226">
      <path
         d="M 0,0 311,0 311,595 0,595 0,0 z"
         id="path3228" />
    </clipPath>
    <clipPath
       clipPathUnits="userSpaceOnUse"
       id="clipPath3194">
      <path
         d="m 164.704,323.15 34.845,0 0,34.016 -34.845,0 0,-34.016 z"
         id="path3196" />
    </clipPath>
  </defs>
  <sodipodi:namedview
     id="base"
     pagecolor="#ffffff"
     bordercolor="#666666"
     borderopacity="1.0"
     inkscape:pageopacity="0.0"
     inkscape:pageshadow="2"
     inkscape:zoom="2.362731"
     inkscape:cx="19.512023"
     inkscape:cy="122.12832"
     inkscape:document-units="px"
     inkscape:current-layer="layer1"
     showgrid="false"
     inkscape:window-width="1600"
     inkscape:window-height="838"
     inkscape:window-x="-8"
     inkscape:window-y="-8"
     inkscape:window-maximized="1" />
  <metadata
     id="metadata4210">
    <rdf:RDF>
      <cc:Work
         rdf:about="">
        <dc:format>image/svg+xml</dc:format>
        <dc:type
           rdf:resource="http://purl.org/dc/dcmitype/StillImage" />
        <dc:title></dc:title>
      </cc:Work>
    </rdf:RDF>
  </metadata>
  <g
     inkscape:label="Livello 1"
     inkscape:groupmode="layer"
     id="layer1"
     transform="translate(-413.89333,-428.33147)">
    <g
       transform="matrix(6.2891524,0,0,-6.2891524,-328.88895,2674.9193)"
       id="g3158">
      <g
         id="g3160"
         clip-path="url(#clipPath3162)">
        <g
           id="g3166"
           transform="translate(60.497604,323.14951)">
          <path
             d="m 0,0 c 9.417,0 17.098,7.68 17.098,17.095 0,9.417 -7.681,17.097 -17.098,17.097 -9.416,0 -17.096,-7.68 -17.096,-17.097 C -17.096,7.68 -9.416,0 0,0"
             style="fill:#ed1d24;fill-opacity:1;fill-rule:evenodd;stroke:none"
             id="path3168" />
        </g>
        <g
           id="g3170"
           transform="translate(68.536606,329.34171)">
          <path
             d="m 0,0 c -2.249,-1.662 -5.028,-2.644 -8.039,-2.644 -7.481,0 -13.549,6.067 -13.549,13.547 0,3.011 0.986,5.791 2.646,8.04 L -9.473,9.473 0,0 z"
             style="fill:#ffffff;fill-opacity:1;fill-rule:evenodd;stroke:none"
             id="path3172" />
        </g>
        <g
           id="g3174"
           transform="translate(60.497604,353.79269)">
          <path
             d="m 0,0 c 7.481,0 13.547,-6.067 13.547,-13.548 0,-3.009 -0.981,-5.79 -2.644,-8.039 l -9.469,9.47 -9.474,9.473 C -5.792,-0.981 -3.01,0 0,0"
             style="fill:#ffffff;fill-opacity:1;fill-rule:evenodd;stroke:none"
             id="path3176" />
        </g>
        <g
           id="g3178"
           transform="translate(58.467895,339.40849)">
          <path
             d="m 0,0 -6.644,0 c -1.164,0 -2.117,-0.951 -2.117,-2.116 l 0,10e-4 0,-0.021 c -0.41,0.721 -0.678,1.913 -0.678,3.263 0,1.347 0.268,2.541 0.678,3.263 l 0,-0.021 0,0 c 0,-1.166 0.953,-2.118 2.117,-2.118 l 4.394,0 L 0,0 z"
             style="fill:#000000;fill-opacity:1;fill-rule:evenodd;stroke:none"
             id="path3180" />
        </g>
        <g
           id="g3182"
           transform="translate(64.642502,338.9639)">
          <path
             d="m 0,0 c 0.142,0.13 0.232,0.316 0.232,0.523 0,0.39 -0.318,0.709 -0.709,0.709 l -0.755,0 -1.321,1.323 2.267,0 c 1.116,0 2.029,-0.912 2.031,-2.029 l 1.256,0 c 0.242,0.834 1.01,1.443 1.922,1.443 1.104,0 1.998,-0.894 1.998,-1.999 0,-1.103 -0.894,-1.997 -1.998,-1.997 -0.912,0 -1.68,0.608 -1.922,1.441 l -1.588,0 C 1.305,-0.749 1.173,-0.898 1.024,-1.025 L 0,0 z"
             style="fill:#000000;fill-opacity:1;fill-rule:evenodd;stroke:none"
             id="path3184" />
        </g>
        <g
           id="g3186"
           transform="translate(55.669601,338.7998)">
          <path
             d="m 0,0 3.409,0 0.744,-0.744 -4.033,0 c -0.285,0 -0.516,-0.232 -0.516,-0.516 0,-0.283 0.233,-0.515 0.516,-0.515 l 5.062,0 0.744,-0.744 -5.926,0 c -0.697,0 -1.26,0.567 -1.26,1.259 l 0,0 C -1.26,-0.567 -0.697,0 0,0"
             style="fill:#000000;fill-opacity:1;fill-rule:evenodd;stroke:none"
             id="path3188" />
        </g>
      </g>
    </g>
    <g
       id="g3198"
       transform="matrix(6.2891525,0,0,-6.2891525,520.81521,620.71231)">
      <path
         d="m 0,0 c 7.467,0 13.608,6.119 13.608,13.584 0,7.491 -6.141,13.608 -13.608,13.608 -7.491,0 -13.608,-6.117 -13.608,-13.608 C -13.608,6.119 -7.491,0 0,0 m 0,-3.394 c 9.356,0 17.004,7.648 17.004,16.978 0,9.359 -7.648,17.005 -17.004,17.005 -9.354,0 -17.001,-7.646 -17.001,-17.005 0,-9.33 7.647,-16.978 17.001,-16.978"
         style="fill:#ed1d24;fill-opacity:1;fill-rule:evenodd;stroke:none"
         id="path3200" />
    </g>
    <g
       id="g3202"
       transform="matrix(6.2891525,0,0,-6.2891525,486.65562,484.00928)">
      <path
         d="m 0,0 0,0.723 2.66,0 0,-0.565 C 2.44,-0.058 2.217,-0.368 1.99,-0.772 1.762,-1.177 1.591,-1.606 1.472,-2.061 1.352,-2.515 1.294,-2.922 1.296,-3.28 l -0.75,0 c 0.012,0.561 0.129,1.133 0.347,1.716 C 1.111,-0.981 1.404,-0.459 1.77,0 L 0,0"
         style="fill:#000000;fill-opacity:1;fill-rule:nonzero;stroke:none"
         id="path3204" />
    </g>
    <g
       id="g3206"
       transform="matrix(6.2891525,0,0,-6.2891525,514.74933,483.06974)">
      <path
         d="m 0,0 -0.251,-0.09 c -0.075,-0.06 -0.131,-0.167 -0.173,-0.322 -0.054,-0.201 -0.08,-0.54 -0.08,-1.016 0,-0.476 0.024,-0.803 0.073,-0.981 0.047,-0.178 0.108,-0.297 0.18,-0.356 L 0,-2.853 0.251,-2.764 c 0.075,0.06 0.131,0.168 0.173,0.323 0.054,0.199 0.08,0.537 0.08,1.013 0,0.476 -0.024,0.803 -0.073,0.981 -0.047,0.178 -0.108,0.297 -0.18,0.357 L 0,0 m 0,0.645 c 0.394,0 0.701,-0.14 0.921,-0.421 0.265,-0.332 0.396,-0.883 0.396,-1.652 0,-0.768 -0.133,-1.319 -0.398,-1.655 C 0.698,-3.36 0.394,-3.499 0,-3.499 c -0.396,0 -0.712,0.152 -0.954,0.456 -0.244,0.303 -0.363,0.845 -0.363,1.623 0,0.764 0.133,1.314 0.398,1.65 0.221,0.277 0.525,0.415 0.919,0.415"
         style="fill:#000000;fill-opacity:1;fill-rule:nonzero;stroke:none"
         id="path3208" />
    </g>
    <g
       id="g3210"
       transform="matrix(6.2891525,0,0,-6.2891525,526.98362,486.15017)">
      <path
         d="m 0,0 0.717,0 0,-0.401 c 0.256,0.311 0.563,0.467 0.917,0.467 0.187,0 0.351,-0.038 0.489,-0.116 0.139,-0.077 0.251,-0.194 0.34,-0.351 0.129,0.157 0.27,0.274 0.42,0.351 0.147,0.078 0.307,0.116 0.478,0.116 0.216,0 0.398,-0.043 0.548,-0.131 0.148,-0.088 0.26,-0.216 0.335,-0.386 0.052,-0.126 0.08,-0.329 0.08,-0.609 l 0,-1.88 -0.778,0 0,1.681 c 0,0.291 -0.026,0.479 -0.08,0.564 -0.072,0.111 -0.182,0.166 -0.332,0.166 L 2.827,-0.628 C 2.73,-0.695 2.66,-0.792 2.618,-0.921 2.576,-1.049 2.555,-1.251 2.555,-1.528 l 0,-1.412 -0.778,0 0,1.611 c 0,0.287 -0.014,0.471 -0.04,0.554 l -0.129,0.186 -0.237,0.06 c -0.122,0 -0.23,-0.032 -0.326,-0.097 C 0.952,-0.69 0.881,-0.783 0.841,-0.905 0.799,-1.027 0.778,-1.229 0.778,-1.511 l 0,-1.429 L 0,-2.94 0,0"
         style="fill:#000000;fill-opacity:1;fill-rule:nonzero;stroke:none"
         id="path3212" />
    </g>
    <g
       id="g3222"
       transform="matrix(6.2891525,0,0,-6.2891525,-624.5992,2674.496)">
      <g
         id="g3224"
         clip-path="url(#clipPath3226)">
        <g
           id="g3230"
           transform="translate(187.9144,334.6925)">
          <path
             d="M 0,0 C 0.874,0 1.584,-0.711 1.584,-1.584 1.584,-2.47 0.874,-3.18 0,-3.18 c -0.886,0 -1.591,0.71 -1.591,1.596 C -1.591,-0.711 -0.886,0 0,0"
             style="fill:#000000;fill-opacity:1;fill-rule:evenodd;stroke:none"
             id="path3232" />
        </g>
        <g
           id="g3234"
           transform="translate(185.0387,333.4444)">
          <path
             d="M 0,0 0.757,0 C 0.916,1.018 1.8,1.801 2.878,1.801 3.942,1.801 4.821,1.018 4.983,0 l 8.524,0 c 0.162,1.018 1.043,1.801 2.121,1.801 1.064,0 1.945,-0.783 2.105,-1.801 l 1.024,1.295 0,0.299 1.537,0 0,6.489 -14.531,0 0,-6.489 6.218,0 0,-0.299 -7.233,0 0.071,4.199 -2.968,0 L 0,1.295 0,0"
             style="fill:#000000;fill-opacity:1;fill-rule:evenodd;stroke:none"
             id="path3236" />
        </g>
        <g
           id="g3238"
           transform="translate(200.662,333.687)">
          <path
             d="m 0,0 c 0.323,0 0.584,-0.26 0.584,-0.582 0,-0.327 -0.261,-0.59 -0.584,-0.59 -0.326,0 -0.586,0.263 -0.586,0.59 C -0.586,-0.26 -0.326,0 0,0 m -12.75,0 c 0.323,0 0.581,-0.26 0.581,-0.582 0,-0.327 -0.258,-0.59 -0.581,-0.59 -0.326,0 -0.586,0.263 -0.586,0.59 0,0.322 0.26,0.582 0.586,0.582 m -0.764,4.766 2.152,0 0,-1.739 -2.761,0 0.609,1.739"
             style="fill:#ffffff;fill-opacity:1;fill-rule:evenodd;stroke:none"
             id="path3240" />
        </g>
        <g
           id="g3242"
           transform="translate(176.47459,334.6925)">
          <path
             d="M 0,0 C 0.872,0 1.582,-0.711 1.582,-1.584 1.582,-2.47 0.872,-3.18 0,-3.18 c -0.888,0 -1.594,0.71 -1.594,1.596 C -1.594,-0.711 -0.888,0 0,0"
             style="fill:#000000;fill-opacity:1;fill-rule:evenodd;stroke:none"
             id="path3244" />
        </g>
        <g
           id="g3246"
           transform="translate(160.84669,333.4444)">
          <path
             d="M 0,0 0.757,0 C 0.916,1.018 1.8,1.801 2.878,1.801 3.942,1.801 4.821,1.018 4.983,0 l 8.524,0 c 0.162,1.018 1.043,1.801 2.121,1.801 1.064,0 1.945,-0.783 2.105,-1.801 l 1.024,1.295 0,0.299 1.537,0 0,6.489 -14.531,0 0,-6.489 6.218,0 0,-0.299 -7.233,0 0.071,4.199 -2.967,0 L 0,1.295 0,0"
             style="fill:#000000;fill-opacity:1;fill-rule:evenodd;stroke:none"
             id="path3248" />
        </g>
        <g
           id="g3250"
           transform="translate(176.46989,333.687)">
          <path
             d="m 0,0 c 0.324,0 0.584,-0.26 0.584,-0.582 0,-0.327 -0.26,-0.59 -0.584,-0.59 -0.326,0 -0.586,0.263 -0.586,0.59 C -0.586,-0.26 -0.326,0 0,0 m -12.75,0 c 0.324,0 0.581,-0.26 0.581,-0.582 0,-0.327 -0.257,-0.59 -0.581,-0.59 -0.326,0 -0.586,0.263 -0.586,0.59 0,0.322 0.26,0.582 0.586,0.582 m -0.764,4.766 2.152,0 0,-1.739 -2.761,0 0.609,1.739"
             style="fill:#ffffff;fill-opacity:1;fill-rule:evenodd;stroke:none"
             id="path3252" />
        </g>
        <g
           id="g3254"
           transform="translate(180.15669,334.6925)">
          <path
             d="m 0,0 0,-1.248 -1.577,0 L -0.787,0 0,0 z"
             style="fill:#000000;fill-opacity:1;fill-rule:evenodd;stroke:none"
             id="path3256" />
        </g>
      </g>
    </g>
    <g
       id="g3266"
       transform="matrix(6.2891525,0,0,-6.2891525,759.52371,674.44482)">
      <path
         d="m 0,0 -70.799,0 0,70.799 L 0,70.799 0,0 z m -37.956,39.133 c -9.353,0 -17.001,-7.647 -17.001,-17.005 0,-9.33 7.648,-16.978 17.001,-16.978 9.357,0 17.004,7.648 17.004,16.978 0,9.358 -7.647,17.005 -17.004,17.005 m 0,-30.589 c -5.051,0 -9.478,2.783 -11.825,6.884 l 4.054,0 c 0.161,1.019 1.043,1.802 2.121,1.802 1.064,0 1.945,-0.783 2.104,-1.802 l 1.578,0 0,1.248 -0.59,0 0.037,0.047 0,0.299 1.537,0 0,6.49 -12.553,0 c 0.698,6.845 6.514,12.224 13.537,12.224 7.468,0 13.608,-6.117 13.608,-13.608 0,0.467 -0.024,0.928 -0.07,1.384 l -4.861,0 0,-6.49 3.924,0 c 0.643,1.566 1.001,3.275 1.007,5.062 -0.024,-7.445 -6.155,-13.54 -13.608,-13.54 m 5.789,8.132 c -0.885,0 -1.591,-0.711 -1.591,-1.584 0,-0.886 0.706,-1.596 1.591,-1.596 0.875,0 1.585,0.71 1.585,1.596 0,0.873 -0.71,1.584 -1.585,1.584 m -11.439,0 c -0.889,0 -1.594,-0.711 -1.594,-1.584 0,-0.886 0.705,-1.596 1.594,-1.596 0.872,0 1.582,0.71 1.582,1.596 0,0.873 -0.71,1.584 -1.582,1.584 m 11.442,0.554 c 1.064,0 1.943,-0.783 2.104,-1.802 l 3.924,0 c 0.24,0.419 0.459,0.851 0.654,1.295 l -4.812,0 0.07,4.199 -2.967,0 -1.851,-4.199 0,-1.295 0.757,0 c 0.159,1.019 1.043,1.802 2.121,1.802 m -6.756,13.845 c -0.394,0 -0.698,-0.139 -0.919,-0.416 -0.265,-0.336 -0.398,-0.885 -0.398,-1.649 0,-0.779 0.119,-1.32 0.363,-1.624 0.241,-0.303 0.558,-0.455 0.954,-0.455 0.394,0 0.698,0.138 0.919,0.415 0.264,0.336 0.398,0.887 0.398,1.656 0,0.769 -0.131,1.32 -0.396,1.652 -0.22,0.281 -0.527,0.421 -0.921,0.421 m 5.079,-1.664 c 0.15,0 0.26,-0.056 0.333,-0.166 0.054,-0.085 0.079,-0.273 0.079,-0.565 l 0,-1.68 0.778,0 0,1.88 c 0,0.28 -0.028,0.483 -0.079,0.608 -0.075,0.17 -0.188,0.299 -0.335,0.387 -0.15,0.087 -0.333,0.131 -0.549,0.131 -0.171,0 -0.33,-0.039 -0.478,-0.116 -0.15,-0.078 -0.291,-0.195 -0.42,-0.352 -0.089,0.157 -0.201,0.274 -0.339,0.352 -0.139,0.077 -0.303,0.116 -0.49,0.116 -0.354,0 -0.661,-0.156 -0.917,-0.468 l 0,0.402 -0.717,0 0,-2.94 0.778,0 0,1.428 c 0,0.283 0.021,0.484 0.064,0.606 0.04,0.122 0.11,0.215 0.204,0.28 0.096,0.065 0.203,0.097 0.325,0.097 l 0.237,-0.061 0.129,-0.186 c 0.026,-0.082 0.04,-0.267 0.04,-0.553 l 0,-1.611 0.778,0 0,1.411 c 0,0.278 0.021,0.48 0.063,0.608 0.042,0.128 0.113,0.226 0.209,0.292 l 0.307,0.1 m -8.25,-2.411 0,0 c -0.002,0.358 0.056,0.765 0.176,1.219 0.119,0.455 0.29,0.884 0.518,1.289 0.227,0.404 0.45,0.714 0.67,0.93 l 0,0.564 -2.66,0 0,-0.722 1.769,0 c -0.365,-0.459 -0.658,-0.981 -0.876,-1.564 -0.218,-0.583 -0.335,-1.155 -0.347,-1.716 l 0.75,0 m -5.162,-10.277 -3.18,0 c -0.043,0.099 -0.086,0.199 -0.127,0.299 l 3.307,0 0,-0.299 m 8.333,10.853 -0.251,0.088 c -0.072,0.06 -0.133,0.178 -0.18,0.356 -0.05,0.178 -0.073,0.505 -0.073,0.982 0,0.475 0.026,0.814 0.08,1.015 0.042,0.155 0.098,0.262 0.173,0.323 l 0.251,0.089 0.251,-0.089 c 0.072,-0.061 0.133,-0.179 0.18,-0.358 0.049,-0.178 0.073,-0.505 0.073,-0.98 0,-0.477 -0.026,-0.814 -0.08,-1.014 -0.042,-0.155 -0.098,-0.263 -0.173,-0.322 l -0.251,-0.09"
         style="fill:#ffffff;fill-opacity:1;fill-rule:nonzero;stroke:none"
         id="path3268" />
    </g>
    <g
       id="g3270"
       transform="matrix(6.2891525,0,0,-6.2891525,520.81521,642.05574)">
      <path
         d="m 0,0 c -9.354,0 -17.001,7.648 -17.001,16.978 0,9.358 7.647,17.005 17.001,17.005 9.356,0 17.004,-7.647 17.004,-17.005 C 17.004,7.648 9.356,0 0,0 M -11.826,10.278 C -9.478,6.177 -5.051,3.394 0,3.394 c 7.453,0 13.584,6.095 13.608,13.54 0,0.015 0,0.029 0,0.044 0,7.491 -6.141,13.608 -13.608,13.608 -7.023,0 -12.839,-5.379 -13.537,-12.224 l -0.003,0 c -0.046,-0.456 -0.07,-0.917 -0.07,-1.384 0,-1.803 0.357,-3.527 1.004,-5.106 l 0.002,0 c 0.041,-0.1 0.083,-0.2 0.127,-0.299 l -0.002,0 c 0.195,-0.444 0.412,-0.876 0.652,-1.295 l 10e-4,0"
         style="fill:#ed1d24;fill-opacity:1;fill-rule:nonzero;stroke:none"
         id="path3272" />
    </g>
    <g
       id="g3274"
       transform="matrix(6.2891525,0,0,-6.2891525,494.80642,504.6377)">
      <path
         d="m 0,0 -0.75,0 c 0.012,0.561 0.129,1.133 0.347,1.716 0.218,0.583 0.511,1.105 0.876,1.564 l -1.769,0 0,0.723 2.66,0 0,-0.565 C 1.144,3.222 0.921,2.912 0.694,2.508 0.466,2.103 0.295,1.674 0.176,1.219 0.056,0.765 -0.002,0.358 0,0"
         style="fill:#000000;fill-opacity:1;fill-rule:nonzero;stroke:none"
         id="path3276" />
    </g>
    <g
       id="g3278"
       transform="matrix(6.2891525,0,0,-6.2891525,514.74933,505.07234)">
      <path
         d="m 0,0 c -0.396,0 -0.712,0.152 -0.954,0.455 -0.244,0.304 -0.363,0.845 -0.363,1.624 0,0.764 0.133,1.314 0.398,1.649 0.221,0.277 0.525,0.416 0.919,0.416 0.394,0 0.701,-0.14 0.921,-0.421 C 1.186,3.391 1.317,2.84 1.317,2.071 1.317,1.303 1.184,0.751 0.919,0.415 0.698,0.138 0.394,0 0,0 m 0,3.499 -0.251,-0.09 c -0.075,-0.06 -0.131,-0.168 -0.173,-0.323 -0.054,-0.201 -0.08,-0.54 -0.08,-1.015 0,-0.477 0.024,-0.804 0.073,-0.982 0.047,-0.178 0.108,-0.296 0.18,-0.355 L 0,0.645 0.251,0.735 c 0.075,0.059 0.131,0.167 0.173,0.323 0.054,0.199 0.08,0.536 0.08,1.013 0,0.475 -0.024,0.802 -0.073,0.981 C 0.384,3.23 0.323,3.349 0.251,3.409 L 0,3.499"
         style="fill:#000000;fill-opacity:1;fill-rule:nonzero;stroke:none"
         id="path3280" />
    </g>
    <g
       id="g3282"
       transform="matrix(6.2891525,0,0,-6.2891525,554.17917,504.6377)">
      <path
         d="m 0,0 -0.778,0 0,1.68 c 0,0.292 -0.026,0.48 -0.08,0.565 -0.072,0.11 -0.183,0.166 -0.333,0.166 l -0.307,-0.1 C -1.594,2.245 -1.664,2.147 -1.706,2.019 -1.748,1.891 -1.769,1.689 -1.769,1.411 l 0,-1.411 -0.779,0 0,1.611 c 0,0.286 -0.014,0.471 -0.039,0.553 L -2.716,2.35 -2.953,2.411 c -0.122,0 -0.23,-0.032 -0.326,-0.097 C -3.373,2.249 -3.443,2.156 -3.483,2.034 -3.525,1.912 -3.546,1.711 -3.546,1.428 l 0,-1.428 -0.778,0 0,2.94 0.717,0 0,-0.402 c 0.256,0.312 0.563,0.468 0.916,0.468 0.188,0 0.352,-0.039 0.49,-0.116 0.139,-0.078 0.251,-0.195 0.34,-0.352 0.129,0.157 0.27,0.274 0.42,0.352 0.147,0.077 0.307,0.116 0.478,0.116 0.215,0 0.398,-0.044 0.548,-0.131 C -0.267,2.787 -0.155,2.658 -0.08,2.488 -0.028,2.363 0,2.16 0,1.88 L 0,0"
         style="fill:#000000;fill-opacity:1;fill-rule:nonzero;stroke:none"
         id="path3284" />
    </g>
    <g
       id="g3286"
       transform="matrix(6.2891525,0,0,-6.2891525,557.22312,589.56654)">
      <path
         d="M 0,0 C -0.886,0 -1.591,0.71 -1.591,1.596 -1.591,2.469 -0.886,3.18 0,3.18 0.874,3.18 1.584,2.469 1.584,1.596 1.584,0.71 0.874,0 0,0 m -0.002,2.175 c -0.326,0 -0.586,-0.26 -0.586,-0.583 0,-0.326 0.26,-0.589 0.586,-0.589 0.323,0 0.581,0.263 0.581,0.589 0,0.323 -0.258,0.583 -0.581,0.583"
         style="fill:#000000;fill-opacity:1;fill-rule:nonzero;stroke:none"
         id="path3288" />
    </g>
    <g
       id="g3290"
       transform="matrix(6.2891525,0,0,-6.2891525,595.15111,577.41332)">
      <path
         d="M 0,0 -3.924,0 C -4.085,1.018 -4.964,1.801 -6.028,1.801 -7.106,1.801 -7.99,1.018 -8.149,0 l -0.757,0 0,1.295 1.851,4.199 2.967,0 -0.07,-4.199 4.812,0 C 0.458,0.85 0.24,0.419 0,0 m -6.797,5.009 -0.609,-1.739 2.76,0 0,1.739 -2.151,0 m 7.578,-3.415 -3.924,0 0,6.489 4.86,0 C 1.764,7.628 1.788,7.167 1.788,6.7 c 0,-0.015 0,-0.03 0,-0.044 C 1.782,4.869 1.424,3.159 0.781,1.594"
         style="fill:#000000;fill-opacity:1;fill-rule:nonzero;stroke:none"
         id="path3292" />
    </g>
    <g
       id="g3294"
       transform="matrix(6.2891525,0,0,-6.2891525,557.20859,583.25776)">
      <path
         d="m 0,0 c -0.326,0 -0.586,0.263 -0.586,0.589 0,0.323 0.26,0.583 0.586,0.583 0.323,0 0.581,-0.26 0.581,-0.583 C 0.581,0.263 0.323,0 0,0 m 1.387,4.199 -2.76,0 0.609,1.739 2.151,0 0,-1.739"
         style="fill:#ffffff;fill-opacity:1;fill-rule:nonzero;stroke:none"
         id="path3296" />
    </g>
    <g
       id="g3298"
       transform="matrix(6.2891525,0,0,-6.2891525,485.27641,589.56654)">
      <path
         d="M 0,0 C -0.888,0 -1.594,0.71 -1.594,1.596 -1.594,2.469 -0.888,3.18 0,3.18 0.872,3.18 1.582,2.469 1.582,1.596 1.582,0.71 0.872,0 0,0 m -0.005,2.175 c -0.325,0 -0.586,-0.26 -0.586,-0.583 0,-0.326 0.261,-0.589 0.586,-0.589 0.324,0 0.584,0.263 0.584,0.589 0,0.323 -0.26,0.583 -0.584,0.583"
         style="fill:#000000;fill-opacity:1;fill-rule:nonzero;stroke:none"
         id="path3300" />
    </g>
    <g
       id="g3302"
       transform="matrix(6.2891525,0,0,-6.2891525,498.51394,577.41332)">
      <path
         d="M 0,0 C -0.159,1.018 -1.041,1.801 -2.105,1.801 -3.183,1.801 -4.064,1.018 -4.226,0 L -8.28,0 -8.281,0 c -0.24,0.419 -0.457,0.85 -0.652,1.295 l 0.002,0 3.179,0 0,0.299 -3.306,0 -0.002,0 c -0.647,1.578 -1.004,3.303 -1.004,5.106 0,0.467 0.024,0.928 0.07,1.383 l 0.002,0 12.554,0 0,-6.489 -1.538,0 0,-0.299 L 0.987,1.248 0.79,1.248 0,0"
         style="fill:#000000;fill-opacity:1;fill-rule:nonzero;stroke:none"
         id="path3304" />
    </g>
    <g
       id="g3306"
       transform="matrix(6.2891525,0,0,-6.2891525,485.24685,583.25776)">
      <path
         d="m 0,0 c -0.326,0 -0.586,0.263 -0.586,0.589 0,0.323 0.26,0.583 0.586,0.583 0.324,0 0.584,-0.26 0.584,-0.583 C 0.584,0.263 0.324,0 0,0"
         style="fill:#ffffff;fill-opacity:1;fill-rule:nonzero;stroke:none"
         id="path3308" />
    </g>
    <g
       id="g3310"
       transform="matrix(6.2891525,0,0,-6.2891525,508.4337,577.41332)">
      <path
         d="m 0,0 -1.577,0 0.79,1.248 0.197,0 0.59,0 L 0,0 z"
         style="fill:#000000;fill-opacity:1;fill-rule:nonzero;stroke:none"
         id="path3312" />
    </g>
  </g>
</svg>
