<?xml version="1.0" encoding="UTF-8" standalone="no"?>
<!-- Created with Inkscape (http://www.inkscape.org/) -->

<svg
   xmlns:dc="http://purl.org/dc/elements/1.1/"
   xmlns:cc="http://creativecommons.org/ns#"
   xmlns:rdf="http://www.w3.org/1999/02/22-rdf-syntax-ns#"
   xmlns:svg="http://www.w3.org/2000/svg"
   xmlns="http://www.w3.org/2000/svg"
   xmlns:sodipodi="http://sodipodi.sourceforge.net/DTD/sodipodi-0.dtd"
   xmlns:inkscape="http://www.inkscape.org/namespaces/inkscape"
   width="599.99878"
   height="599.99878"
   id="svg6419"
   version="1.1"
   inkscape:version="0.47 r22583"
   sodipodi:docname="Cyprus road sign horse street.svg">
  <defs
     id="defs6421">
    <inkscape:perspective
       sodipodi:type="inkscape:persp3d"
       inkscape:vp_x="0 : 526.18109 : 1"
       inkscape:vp_y="0 : 1000 : 0"
       inkscape:vp_z="744.09448 : 526.18109 : 1"
       inkscape:persp3d-origin="372.04724 : 350.78739 : 1"
       id="perspective6427" />
    <inkscape:perspective
       id="perspective6455"
       inkscape:persp3d-origin="300 : 200 : 1"
       inkscape:vp_z="600 : 300 : 1"
       inkscape:vp_y="0 : 1000 : 0"
       inkscape:vp_x="0 : 300 : 1"
       sodipodi:type="inkscape:persp3d" />
    <clipPath
       id="clipPath20">
      <path
         d="m 0.014999,205.28 205.270001,0 0,-205.28 -205.270001,0 0,205.28 z"
         id="path9" />
    </clipPath>
    <inkscape:perspective
       id="perspective6487"
       inkscape:persp3d-origin="0.5 : 0.33333333 : 1"
       inkscape:vp_z="1 : 0.5 : 1"
       inkscape:vp_y="0 : 1000 : 0"
       inkscape:vp_x="0 : 0.5 : 1"
       sodipodi:type="inkscape:persp3d" />
    <clipPath
       clipPathUnits="userSpaceOnUse"
       id="clipPath5883">
      <path
         d="m 233.519,209.338 34.845,0 0,34.016 -34.845,0 0,-34.016 z"
         id="path5885" />
    </clipPath>
    <inkscape:perspective
       id="perspective7191"
       inkscape:persp3d-origin="0.5 : 0.33333333 : 1"
       inkscape:vp_z="1 : 0.5 : 1"
       inkscape:vp_y="0 : 1000 : 0"
       inkscape:vp_x="0 : 0.5 : 1"
       sodipodi:type="inkscape:persp3d" />
    <clipPath
       clipPathUnits="userSpaceOnUse"
       id="clipPath6115">
      <path
         d="m 112.397,129.449 34.845,0 0,34.016 -34.845,0 0,-34.016 z"
         id="path6117" />
    </clipPath>
    <inkscape:perspective
       id="perspective7283"
       inkscape:persp3d-origin="0.5 : 0.33333333 : 1"
       inkscape:vp_z="1 : 0.5 : 1"
       inkscape:vp_y="0 : 1000 : 0"
       inkscape:vp_x="0 : 0.5 : 1"
       sodipodi:type="inkscape:persp3d" />
    <clipPath
       clipPathUnits="userSpaceOnUse"
       id="clipPath5487">
      <path
         d="m 52.071,490.394 34.845,0 0,34.016 -34.845,0 0,-34.016 z"
         id="path5489" />
    </clipPath>
    <inkscape:perspective
       id="perspective7383"
       inkscape:persp3d-origin="0.5 : 0.33333333 : 1"
       inkscape:vp_z="1 : 0.5 : 1"
       inkscape:vp_y="0 : 1000 : 0"
       inkscape:vp_x="0 : 0.5 : 1"
       sodipodi:type="inkscape:persp3d" />
    <clipPath
       clipPathUnits="userSpaceOnUse"
       id="clipPath5335">
      <path
         d="m 51.732,129.449 34.845,0 0,34.016 -34.845,0 0,-34.016 z"
         id="path5337" />
    </clipPath>
    <inkscape:perspective
       id="perspective7487"
       inkscape:persp3d-origin="0.5 : 0.33333333 : 1"
       inkscape:vp_z="1 : 0.5 : 1"
       inkscape:vp_y="0 : 1000 : 0"
       inkscape:vp_x="0 : 0.5 : 1"
       sodipodi:type="inkscape:persp3d" />
    <clipPath
       clipPathUnits="userSpaceOnUse"
       id="clipPath6159">
      <path
         d="m 234.152,129.449 34.845,0 0,34.016 -34.845,0 0,-34.016 z"
         id="path6161" />
    </clipPath>
  </defs>
  <sodipodi:namedview
     id="base"
     pagecolor="#ffffff"
     bordercolor="#666666"
     borderopacity="1.0"
     inkscape:pageopacity="0.0"
     inkscape:pageshadow="2"
     inkscape:zoom="0.41767578"
     inkscape:cx="561.27483"
     inkscape:cy="169.97367"
     inkscape:document-units="px"
     inkscape:current-layer="layer1"
     showgrid="false"
     inkscape:window-width="1600"
     inkscape:window-height="838"
     inkscape:window-x="-8"
     inkscape:window-y="-8"
     inkscape:window-maximized="1" />
  <metadata
     id="metadata6424">
    <rdf:RDF>
      <cc:Work
         rdf:about="">
        <dc:format>image/svg+xml</dc:format>
        <dc:type
           rdf:resource="http://purl.org/dc/dcmitype/StillImage" />
        <dc:title></dc:title>
      </cc:Work>
    </rdf:RDF>
  </metadata>
  <g
     inkscape:label="Livello 1"
     inkscape:groupmode="layer"
     id="layer1"
     transform="translate(186.27483,-102.33706)">
    <g
       transform="matrix(-2.92279,0,0,-2.92279,113.72357,103.79732)"
       id="g13">
      <path
         d="m 0,0 c 56.41,0 102.14,-45.731 102.14,-102.14 0,-56.41 -45.731,-102.14 -102.14,-102.14 -56.411,0 -102.14,45.731 -102.14,102.14 C -102.14,-45.731 -56.411,0 0,0"
         style="fill:#ffffff;fill-rule:nonzero"
         id="path15" />
    </g>
    <g
       transform="matrix(-2.92279,0,0,-2.92279,413.72456,702.33591)"
       id="g17">
      <g
         clip-path="url(#clipPath20)"
         id="g19">
        <g
           transform="translate(102.642,204.783)"
           id="g21">
          <path
             d="m 0,0 c 56.41,0 102.14,-45.731 102.14,-102.14 0,-56.41 -45.731,-102.14 -102.14,-102.14 -56.411,0 -102.14,45.731 -102.14,102.14 C -102.14,-45.731 -56.411,0 0,0 z"
             style="fill:none;stroke:#1477c6;stroke-width:1;stroke-linecap:butt;stroke-linejoin:miter;stroke-miterlimit:4;stroke-dasharray:none"
             id="path23" />
        </g>
      </g>
    </g>
    <g
       transform="matrix(-2.92279,0,0,-2.92279,113.72357,103.79732)"
       id="g37">
      <path
         d="m 0,0 c 56.41,0 102.14,-45.731 102.14,-102.14 0,-56.41 -45.731,-102.14 -102.14,-102.14 -56.411,0 -102.14,45.731 -102.14,102.14 C -102.14,-45.731 -56.411,0 0,0"
         style="fill:#ffffff;fill-rule:nonzero"
         id="path39" />
    </g>
    <path
       d="m 113.72457,103.79846 c -164.875,0 -298.538,133.663 -298.538,298.538 0,164.875 133.663,298.538 298.538,298.538 164.875,0 298.538,-133.663 298.538,-298.538 0,-164.875 -133.663,-298.538 -298.538,-298.538 z"
       style="fill:none;stroke:#0079c1;stroke-width:2.92279005;stroke-linecap:butt;stroke-linejoin:miter;stroke-miterlimit:4;stroke-opacity:1;stroke-dasharray:none"
       id="path41" />
    <path
       d="m 113.72457,116.09851 c -158.087,0 -286.237,128.15 -286.237,286.237 0,158.087 128.15,286.237 286.237,286.237 158.087,0 286.238,-128.15 286.238,-286.237 0,-158.087 -128.15,-286.237 -286.238,-286.237"
       style="fill:#0079c1;fill-opacity:1;fill-rule:nonzero"
       id="path43" />
    <g
       id="g7571"
       transform="translate(624.8866,14.365209)">
      <g
         transform="matrix(17.426079,0,0,-17.426079,-358.76858,273.5134)"
         id="g6167">
        <path
           id="path6169"
           style="fill:#ffffff;fill-opacity:1;fill-rule:evenodd;stroke:none"
           d="M 0,0 0,-6.789 5.214,-3.394 0,0 z" />
      </g>
      <g
         transform="matrix(17.426079,0,0,-17.426079,-335.83412,354.43157)"
         id="g6171">
        <path
           id="path6173"
           style="fill:#ffffff;fill-opacity:1;fill-rule:evenodd;stroke:none"
           d="m 0,0 -0.169,-0.17 -9.159,0 -1.369,0.17 1.2,2.499 0.169,0.169 9.159,0 L 0,2.499 0,0 z" />
      </g>
      <g
         transform="matrix(17.426079,0,0,-17.426079,-655.48417,273.5134)"
         id="g6175">
        <path
           id="path6177"
           style="fill:#ffffff;fill-opacity:1;fill-rule:evenodd;stroke:none"
           d="M 0,0 0,-6.789 -5.214,-3.394 0,0 z" />
      </g>
      <g
         transform="matrix(17.426079,0,0,-17.426079,-678.41689,354.43157)"
         id="g6179">
        <path
           id="path6181"
           style="fill:#ffffff;fill-opacity:1;fill-rule:evenodd;stroke:none"
           d="m 0,0 0.17,-0.17 9.158,0 1.37,0.17 -1.2,2.499 -0.17,0.169 -9.158,0 L 0,2.499 0,0 z" />
      </g>
      <g
         transform="matrix(17.426079,0,0,-17.426079,-550.86845,567.18657)"
         id="g6183">
        <path
           id="path6185"
           style="fill:#ffffff;fill-opacity:1;fill-rule:evenodd;stroke:none"
           d="m 0,0 4.936,0 -0.823,14.134 -3.365,0 L 0,0 z" />
      </g>
    </g>
  </g>
</svg>
