<svg width="361" height="319" viewBox="0 0 361 319" fill="none" xmlns="http://www.w3.org/2000/svg">
<path fill-rule="evenodd" clip-rule="evenodd" d="M23.9776 318.1C15.3921 318.1 7.52112 313.578 3.2901 306.194C-0.963359 298.82 -0.963359 289.715 3.2901 282.319L159.446 11.975C163.722 4.60165 171.544 0.10006 180.04 0.10006C180.071 0.10006 180.103 0.0999393 180.134 0.10006C180.165 0.0999393 180.196 0.10006 180.227 0.10006C188.723 0.10006 196.545 4.60164 200.821 11.975L356.978 282.319C361.231 289.715 361.231 298.82 356.978 306.194C352.747 313.578 344.876 318.1 336.29 318.1H23.9776Z" fill="#EC1D24"/>
<path fill-rule="evenodd" clip-rule="evenodd" d="M37.755 286.283H322.513L180.134 39.8065L37.755 286.283Z" fill="white"/>
<path d="M118 250.834L140.268 273L180 233.449L219.732 273L242 250.834L202.268 211.283L241.563 172.166L219.296 150L180 189.117L140.704 150L118.437 172.166L157.732 211.283L118 250.834Z" fill="black"/>
</svg>
