<?xml version="1.0" encoding="UTF-8" standalone="no"?>
<!-- Created with Inkscape (http://www.inkscape.org/) -->

<svg
   xmlns:dc="http://purl.org/dc/elements/1.1/"
   xmlns:cc="http://creativecommons.org/ns#"
   xmlns:rdf="http://www.w3.org/1999/02/22-rdf-syntax-ns#"
   xmlns:svg="http://www.w3.org/2000/svg"
   xmlns="http://www.w3.org/2000/svg"
   xmlns:sodipodi="http://sodipodi.sourceforge.net/DTD/sodipodi-0.dtd"
   xmlns:inkscape="http://www.inkscape.org/namespaces/inkscape"
   width="210.87846"
   height="210.87846"
   id="svg4205"
   version="1.1"
   inkscape:version="0.47 r22583"
   sodipodi:docname="Cyprus road sign end maximum speed.svg">
  <defs
     id="defs4207">
    <inkscape:perspective
       sodipodi:type="inkscape:persp3d"
       inkscape:vp_x="0 : 526.18109 : 1"
       inkscape:vp_y="0 : 1000 : 0"
       inkscape:vp_z="744.09448 : 526.18109 : 1"
       inkscape:persp3d-origin="372.04724 : 350.78739 : 1"
       id="perspective4213" />
    <inkscape:perspective
       id="perspective4228"
       inkscape:persp3d-origin="106.21 : 70.796666 : 1"
       inkscape:vp_z="212.42 : 106.195 : 1"
       inkscape:vp_y="0 : 1000 : 0"
       inkscape:vp_x="0 : 106.195 : 1"
       sodipodi:type="inkscape:persp3d" />
    <clipPath
       id="clipPath16">
      <path
         inkscape:connector-curvature="0"
         d="M 0.059998,169.98 H 170 V 0.06 H 0.059998 v 169.92 z"
         id="path18" />
    </clipPath>
    <inkscape:perspective
       id="perspective4247"
       inkscape:persp3d-origin="0.5 : 0.33333333 : 1"
       inkscape:vp_z="1 : 0.5 : 1"
       inkscape:vp_y="0 : 1000 : 0"
       inkscape:vp_x="0 : 0.5 : 1"
       sodipodi:type="inkscape:persp3d" />
    <clipPath
       clipPathUnits="userSpaceOnUse"
       id="clipPath3426">
      <path
         d="m 43.076,488.976 34.845,0 0,34.015 -34.845,0 0,-34.015 z"
         id="path3428" />
    </clipPath>
    <inkscape:perspective
       id="perspective4323"
       inkscape:persp3d-origin="0.5 : 0.33333333 : 1"
       inkscape:vp_z="1 : 0.5 : 1"
       inkscape:vp_y="0 : 1000 : 0"
       inkscape:vp_x="0 : 0.5 : 1"
       sodipodi:type="inkscape:persp3d" />
    <clipPath
       clipPathUnits="userSpaceOnUse"
       id="clipPath2896">
      <path
         d="m 102.752,490.181 34.845,0 0,34.016 -34.845,0 0,-34.016 z"
         id="path2898" />
    </clipPath>
    <inkscape:perspective
       id="perspective5249"
       inkscape:persp3d-origin="0.5 : 0.33333333 : 1"
       inkscape:vp_z="1 : 0.5 : 1"
       inkscape:vp_y="0 : 1000 : 0"
       inkscape:vp_x="0 : 0.5 : 1"
       sodipodi:type="inkscape:persp3d" />
    <inkscape:perspective
       id="perspective5326"
       inkscape:persp3d-origin="0.5 : 0.33333333 : 1"
       inkscape:vp_z="1 : 0.5 : 1"
       inkscape:vp_y="0 : 1000 : 0"
       inkscape:vp_x="0 : 0.5 : 1"
       sodipodi:type="inkscape:persp3d" />
    <clipPath
       clipPathUnits="userSpaceOnUse"
       id="clipPath3128">
      <path
         d="m 164.704,490.181 34.845,0 0,34.016 -34.845,0 0,-34.016 z"
         id="path3130" />
    </clipPath>
    <inkscape:perspective
       id="perspective5450"
       inkscape:persp3d-origin="0.5 : 0.33333333 : 1"
       inkscape:vp_z="1 : 0.5 : 1"
       inkscape:vp_y="0 : 1000 : 0"
       inkscape:vp_x="0 : 0.5 : 1"
       sodipodi:type="inkscape:persp3d" />
    <clipPath
       clipPathUnits="userSpaceOnUse"
       id="clipPath3318">
      <path
         d="m 224.23,490.181 34.845,0 0,34.016 -34.845,0 0,-34.016 z"
         id="path3320" />
    </clipPath>
    <inkscape:perspective
       id="perspective5517"
       inkscape:persp3d-origin="0.5 : 0.33333333 : 1"
       inkscape:vp_z="1 : 0.5 : 1"
       inkscape:vp_y="0 : 1000 : 0"
       inkscape:vp_x="0 : 0.5 : 1"
       sodipodi:type="inkscape:persp3d" />
    <clipPath
       clipPathUnits="userSpaceOnUse"
       id="clipPath2936">
      <path
         d="m 43.087,413.859 34.845,0 0,34.016 -34.845,0 0,-34.016 z"
         id="path2938" />
    </clipPath>
    <inkscape:perspective
       id="perspective5617"
       inkscape:persp3d-origin="0.5 : 0.33333333 : 1"
       inkscape:vp_z="1 : 0.5 : 1"
       inkscape:vp_y="0 : 1000 : 0"
       inkscape:vp_x="0 : 0.5 : 1"
       sodipodi:type="inkscape:persp3d" />
    <clipPath
       clipPathUnits="userSpaceOnUse"
       id="clipPath3572">
      <path
         d="m 102.752,413.859 34.845,0 0,34.016 -34.845,0 0,-34.016 z"
         id="path3574" />
    </clipPath>
    <inkscape:perspective
       id="perspective5745"
       inkscape:persp3d-origin="0.5 : 0.33333333 : 1"
       inkscape:vp_z="1 : 0.5 : 1"
       inkscape:vp_y="0 : 1000 : 0"
       inkscape:vp_x="0 : 0.5 : 1"
       sodipodi:type="inkscape:persp3d" />
    <clipPath
       clipPathUnits="userSpaceOnUse"
       id="clipPath3694">
      <path
         d="m 164.704,413.859 34.845,0 0,34.016 -34.845,0 0,-34.016 z"
         id="path3696" />
    </clipPath>
    <inkscape:perspective
       id="perspective5843"
       inkscape:persp3d-origin="0.5 : 0.33333333 : 1"
       inkscape:vp_z="1 : 0.5 : 1"
       inkscape:vp_y="0 : 1000 : 0"
       inkscape:vp_x="0 : 0.5 : 1"
       sodipodi:type="inkscape:persp3d" />
    <clipPath
       clipPathUnits="userSpaceOnUse"
       id="clipPath3500">
      <path
         d="m 224.23,413.859 34.845,0 0,34.016 -34.845,0 0,-34.016 z"
         id="path3502" />
    </clipPath>
    <inkscape:perspective
       id="perspective6067"
       inkscape:persp3d-origin="0.5 : 0.33333333 : 1"
       inkscape:vp_z="1 : 0.5 : 1"
       inkscape:vp_y="0 : 1000 : 0"
       inkscape:vp_x="0 : 0.5 : 1"
       sodipodi:type="inkscape:persp3d" />
    <clipPath
       clipPathUnits="userSpaceOnUse"
       id="clipPath3162">
      <path
         d="m 43.076,323.15 34.845,0 0,34.016 -34.845,0 0,-34.016 z"
         id="path3164" />
    </clipPath>
    <inkscape:perspective
       id="perspective6134"
       inkscape:persp3d-origin="0.5 : 0.33333333 : 1"
       inkscape:vp_z="1 : 0.5 : 1"
       inkscape:vp_y="0 : 1000 : 0"
       inkscape:vp_x="0 : 0.5 : 1"
       sodipodi:type="inkscape:persp3d" />
    <clipPath
       clipPathUnits="userSpaceOnUse"
       id="clipPath3350">
      <path
         d="m 103.255,323.15 34.845,0 0,34.016 -34.845,0 0,-34.016 z"
         id="path3352" />
    </clipPath>
    <inkscape:perspective
       id="perspective6370"
       inkscape:persp3d-origin="0.5 : 0.33333333 : 1"
       inkscape:vp_z="1 : 0.5 : 1"
       inkscape:vp_y="0 : 1000 : 0"
       inkscape:vp_x="0 : 0.5 : 1"
       sodipodi:type="inkscape:persp3d" />
    <clipPath
       clipPathUnits="userSpaceOnUse"
       id="clipPath3262">
      <path
         d="m 164.704,323.15 34.845,0 0,34.016 -34.845,0 0,-34.016 z"
         id="path3264" />
    </clipPath>
    <clipPath
       clipPathUnits="userSpaceOnUse"
       id="clipPath3218">
      <path
         d="m 168.515,340.144 c 0,-7.465 6.12,-13.582 13.61,-13.582 l 0,0 c 7.465,0 13.608,6.117 13.608,13.582 l 0,0 c 0,7.491 -6.143,13.61 -13.608,13.61 l 0,0 c -7.49,0 -13.61,-6.119 -13.61,-13.61"
         id="path3220" />
    </clipPath>
    <clipPath
       clipPathUnits="userSpaceOnUse"
       id="clipPath3226">
      <path
         d="M 0,0 311,0 311,595 0,595 0,0 z"
         id="path3228" />
    </clipPath>
    <clipPath
       clipPathUnits="userSpaceOnUse"
       id="clipPath3194">
      <path
         d="m 164.704,323.15 34.845,0 0,34.016 -34.845,0 0,-34.016 z"
         id="path3196" />
    </clipPath>
    <inkscape:perspective
       id="perspective6674"
       inkscape:persp3d-origin="0.5 : 0.33333333 : 1"
       inkscape:vp_z="1 : 0.5 : 1"
       inkscape:vp_y="0 : 1000 : 0"
       inkscape:vp_x="0 : 0.5 : 1"
       sodipodi:type="inkscape:persp3d" />
    <clipPath
       clipPathUnits="userSpaceOnUse"
       id="clipPath3916">
      <path
         d="m 164.862,222.52 34.845,0 0,34.016 -34.845,0 0,-34.016 z"
         id="path3918" />
    </clipPath>
    <inkscape:perspective
       id="perspective6766"
       inkscape:persp3d-origin="0.5 : 0.33333333 : 1"
       inkscape:vp_z="1 : 0.5 : 1"
       inkscape:vp_y="0 : 1000 : 0"
       inkscape:vp_x="0 : 0.5 : 1"
       sodipodi:type="inkscape:persp3d" />
    <clipPath
       clipPathUnits="userSpaceOnUse"
       id="clipPath3944">
      <path
         d="m 224.739,222.52 34.845,0 0,34.016 -34.845,0 0,-34.016 z"
         id="path3946" />
    </clipPath>
    <inkscape:perspective
       id="perspective6882"
       inkscape:persp3d-origin="0.5 : 0.33333333 : 1"
       inkscape:vp_z="1 : 0.5 : 1"
       inkscape:vp_y="0 : 1000 : 0"
       inkscape:vp_x="0 : 0.5 : 1"
       sodipodi:type="inkscape:persp3d" />
    <clipPath
       clipPathUnits="userSpaceOnUse"
       id="clipPath3464">
      <path
         d="m 102.651,123.307 34.845,0 0,34.016 -34.845,0 0,-34.016 z"
         id="path3466" />
    </clipPath>
    <inkscape:perspective
       id="perspective8234"
       inkscape:persp3d-origin="0.5 : 0.33333333 : 1"
       inkscape:vp_z="1 : 0.5 : 1"
       inkscape:vp_y="0 : 1000 : 0"
       inkscape:vp_x="0 : 0.5 : 1"
       sodipodi:type="inkscape:persp3d" />
    <clipPath
       clipPathUnits="userSpaceOnUse"
       id="clipPath7334">
      <path
         d="m 52.735,415.275 34.845,0 0,34.016 -34.845,0 0,-34.016 z"
         id="path7336" />
    </clipPath>
    <inkscape:perspective
       id="perspective8289"
       inkscape:persp3d-origin="0.5 : 0.33333333 : 1"
       inkscape:vp_z="1 : 0.5 : 1"
       inkscape:vp_y="0 : 1000 : 0"
       inkscape:vp_x="0 : 0.5 : 1"
       sodipodi:type="inkscape:persp3d" />
    <clipPath
       clipPathUnits="userSpaceOnUse"
       id="clipPath7406">
      <path
         d="m 117.545,441.384 c -5.026,-7.03 -3.402,-16.804 3.628,-21.829 l 0,0 c 7.031,-5.027 16.804,-3.4 21.83,3.63 l 0,0 c 5.024,7.028 3.4,16.801 -3.631,21.826 l 0,0 c -2.757,1.972 -5.937,2.92 -9.087,2.92 l 0,0 c -4.88,0 -9.688,-2.276 -12.74,-6.547"
         id="path7408" />
    </clipPath>
    <clipPath
       clipPathUnits="userSpaceOnUse"
       id="clipPath7414">
      <path
         d="M 0,0 311,0 311,595 0,595 0,0 z"
         id="path7416" />
    </clipPath>
    <clipPath
       clipPathUnits="userSpaceOnUse"
       id="clipPath7386">
      <path
         d="m 112.85,415.275 34.845,0 0,34.016 -34.845,0 0,-34.016 z"
         id="path7388" />
    </clipPath>
    <inkscape:perspective
       id="perspective8393"
       inkscape:persp3d-origin="0.5 : 0.33333333 : 1"
       inkscape:vp_z="1 : 0.5 : 1"
       inkscape:vp_y="0 : 1000 : 0"
       inkscape:vp_x="0 : 0.5 : 1"
       sodipodi:type="inkscape:persp3d" />
    <clipPath
       clipPathUnits="userSpaceOnUse"
       id="clipPath8118">
      <path
         d="m 52.735,322.441 34.845,0 0,34.016 -34.845,0 0,-34.016 z"
         id="path8120" />
    </clipPath>
    <clipPath
       clipPathUnits="userSpaceOnUse"
       id="clipPath8098">
      <path
         d="m 53.49,339.448 c 0,-9.205 7.462,-16.667 16.668,-16.667 l 0,0 c 9.204,0 16.667,7.462 16.667,16.667 l 0,0 c 0,9.205 -7.463,16.668 -16.667,16.668 l 0,0 c -9.206,0 -16.668,-7.463 -16.668,-16.668"
         id="path8100" />
    </clipPath>
    <clipPath
       clipPathUnits="userSpaceOnUse"
       id="clipPath8106">
      <path
         d="M 0,0 311,0 311,595 0,595 0,0 z"
         id="path8108" />
    </clipPath>
    <clipPath
       clipPathUnits="userSpaceOnUse"
       id="clipPath8058">
      <path
         d="m 52.735,322.441 34.845,0 0,34.016 -34.845,0 0,-34.016 z"
         id="path8060" />
    </clipPath>
    <inkscape:perspective
       id="perspective8520"
       inkscape:persp3d-origin="0.5 : 0.33333333 : 1"
       inkscape:vp_z="1 : 0.5 : 1"
       inkscape:vp_y="0 : 1000 : 0"
       inkscape:vp_x="0 : 0.5 : 1"
       sodipodi:type="inkscape:persp3d" />
    <clipPath
       clipPathUnits="userSpaceOnUse"
       id="clipPath8118-4">
      <path
         d="m 52.735,322.441 34.845,0 0,34.016 -34.845,0 0,-34.016 z"
         id="path8120-0" />
    </clipPath>
    <clipPath
       clipPathUnits="userSpaceOnUse"
       id="clipPath8098-9">
      <path
         d="m 53.49,339.448 c 0,-9.205 7.462,-16.667 16.668,-16.667 l 0,0 c 9.204,0 16.667,7.462 16.667,16.667 l 0,0 c 0,9.205 -7.463,16.668 -16.667,16.668 l 0,0 c -9.206,0 -16.668,-7.463 -16.668,-16.668"
         id="path8100-4" />
    </clipPath>
    <clipPath
       clipPathUnits="userSpaceOnUse"
       id="clipPath8106-8">
      <path
         d="M 0,0 311,0 311,595 0,595 0,0 z"
         id="path8108-8" />
    </clipPath>
    <clipPath
       clipPathUnits="userSpaceOnUse"
       id="clipPath8058-2">
      <path
         d="m 52.735,322.441 34.845,0 0,34.016 -34.845,0 0,-34.016 z"
         id="path8060-4" />
    </clipPath>
  </defs>
  <sodipodi:namedview
     id="base"
     pagecolor="#ffffff"
     bordercolor="#666666"
     borderopacity="1.0"
     inkscape:pageopacity="0.0"
     inkscape:pageshadow="2"
     inkscape:zoom="2.362731"
     inkscape:cx="22.931488"
     inkscape:cy="95.214292"
     inkscape:document-units="px"
     inkscape:current-layer="layer1"
     showgrid="false"
     inkscape:window-width="1600"
     inkscape:window-height="838"
     inkscape:window-x="-8"
     inkscape:window-y="-8"
     inkscape:window-maximized="1" />
  <metadata
     id="metadata4210">
    <rdf:RDF>
      <cc:Work
         rdf:about="">
        <dc:format>image/svg+xml</dc:format>
        <dc:type
           rdf:resource="http://purl.org/dc/dcmitype/StillImage" />
        <dc:title></dc:title>
      </cc:Work>
    </rdf:RDF>
  </metadata>
  <g
     inkscape:label="Livello 1"
     inkscape:groupmode="layer"
     id="layer1"
     transform="translate(-355.34644,-427.1202)">
    <path
       id="path8124"
       style="fill:#ffffff;fill-opacity:1;stroke:#000000;stroke-width:1.89999998;stroke-linecap:butt;stroke-linejoin:miter;stroke-miterlimit:10;stroke-opacity:1;stroke-dasharray:none"
       d="m 565.27491,532.5563 c 0,57.71279 -46.77958,104.49237 -104.47983,104.49237 -57.71279,0 -104.49864,-46.77958 -104.49864,-104.49237 0,-57.70025 46.78585,-104.4861 104.49864,-104.4861 57.70025,0 104.47983,46.78585 104.47983,104.4861 z" />
    <g
       id="g8062"
       transform="matrix(6.2690405,0,0,-6.2690405,427.73406,542.61065)">
      <path
         d="m 0,0 c 0,-0.204 -0.165,-0.369 -0.368,-0.369 l -8.711,0 c -0.202,0 -0.367,0.165 -0.367,0.369 l 0,1.879 c 0,0.203 0.165,0.367 0.367,0.367 l 8.711,0 C -0.165,2.246 0,2.082 0,1.879 L 0,0 z"
         style="fill:#000000;fill-opacity:1;fill-rule:nonzero;stroke:none"
         id="path8064" />
    </g>
    <g
       id="g8066"
       transform="matrix(6.2690405,0,0,-6.2690405,424.17826,553.6303)">
      <path
         d="m 0,0 c 0,-0.217 -0.165,-0.394 -0.368,-0.394 l -0.622,0 c -0.203,0 -0.368,0.177 -0.368,0.394 l 0,1.34 c 0,0.217 0.165,0.394 0.368,0.394 l 0.622,0 C -0.165,1.734 0,1.557 0,1.34 L 0,0 z"
         style="fill:#000000;fill-opacity:1;fill-rule:nonzero;stroke:none"
         id="path8068" />
    </g>
    <g
       id="g8070"
       transform="matrix(6.2690405,0,0,-6.2690405,380.20965,553.6303)">
      <path
         d="m 0,0 c 0,-0.217 -0.165,-0.394 -0.368,-0.394 l -0.622,0 c -0.203,0 -0.368,0.177 -0.368,0.394 l 0,1.34 c 0,0.217 0.165,0.394 0.368,0.394 l 0.622,0 C -0.165,1.734 0,1.557 0,1.34 L 0,0 z"
         style="fill:#000000;fill-opacity:1;fill-rule:nonzero;stroke:none"
         id="path8072" />
    </g>
    <g
       id="g8074"
       transform="matrix(6.2690405,0,0,-6.2690405,502.84402,509.16043)">
      <path
         d="m 0,0 6.183,0 1.237,-2.697 -8.615,0 L 0,0 z"
         style="fill:#000000;fill-opacity:1;fill-rule:nonzero;stroke:none"
         id="path8076" />
    </g>
    <g
       id="g8078"
       transform="matrix(6.2690405,0,0,-6.2690405,504.75479,512.20975)">
      <path
         d="m 0,0 -0.852,-1.865 7.318,0 L 5.696,0 0,0 z"
         style="fill:#fdfefc;fill-opacity:1;fill-rule:nonzero;stroke:none"
         id="path8080" />
    </g>
    <g
       clip-path="url(#clipPath8098-9)"
       id="g8096"
       transform="matrix(6.2690405,0,0,-6.2690405,20.969216,2660.5752)">
      <g
         id="g8102">
        <g
           clip-path="url(#clipPath8106-8)"
           id="g8104">
          <g
             transform="translate(86.166901,351.4212)"
             id="g8110">
            <path
               id="path8112"
               style="fill:#939598;fill-opacity:1;fill-rule:evenodd;stroke:none"
               d="m 0,0 -26.883,-25.967 -3.629,3.758 L -3.629,3.757 0,0 z" />
          </g>
        </g>
      </g>
    </g>
    <g
       id="g8082"
       transform="matrix(6.2690405,0,0,-6.2690405,551.96257,539.84838)">
      <path
         d="m 0,0 c 0,-0.204 -0.165,-0.369 -0.368,-0.369 l -8.71,0 c -0.203,0 -0.368,0.165 -0.368,0.369 l 0,1.879 c 0,0.203 0.165,0.367 0.368,0.367 l 8.71,0 C -0.165,2.246 0,2.082 0,1.879 L 0,0 z"
         style="fill:#000000;fill-opacity:1;fill-rule:nonzero;stroke:none"
         id="path8084" />
    </g>
    <g
       id="g8086"
       transform="matrix(6.2690405,0,0,-6.2690405,548.40744,550.86754)">
      <path
         d="m 0,0 c 0,-0.217 -0.165,-0.394 -0.368,-0.394 l -0.622,0 c -0.203,0 -0.368,0.177 -0.368,0.394 l 0,1.34 c 0,0.217 0.165,0.394 0.368,0.394 l 0.622,0 C -0.165,1.734 0,1.557 0,1.34 L 0,0 z"
         style="fill:#000000;fill-opacity:1;fill-rule:nonzero;stroke:none"
         id="path8088" />
    </g>
    <g
       id="g8090"
       transform="matrix(6.2690405,0,0,-6.2690405,504.43883,550.86754)">
      <path
         d="m 0,0 c 0,-0.217 -0.165,-0.394 -0.368,-0.394 l -0.622,0 c -0.203,0 -0.368,0.177 -0.368,0.394 l 0,1.34 c 0,0.217 0.165,0.394 0.368,0.394 l 0.622,0 C -0.165,1.734 0,1.557 0,1.34 L 0,0 z"
         style="fill:#000000;fill-opacity:1;fill-rule:nonzero;stroke:none"
         id="path8092" />
    </g>
    <g
       transform="matrix(6.2690405,0,0,-6.2690405,378.34415,511.86006)"
       id="g8717">
      <path
         id="path8719"
         style="fill:#000000;fill-opacity:1;fill-rule:nonzero;stroke:none"
         d="m 0,0 6.183,0 1.237,-2.697 -8.615,0 L 0,0 z" />
    </g>
    <g
       transform="matrix(6.2690405,0,0,-6.2690405,380.25492,514.90938)"
       id="g8721">
      <path
         id="path8723"
         style="fill:#fdfefc;fill-opacity:1;fill-rule:nonzero;stroke:none"
         d="m 0,0 -0.852,-1.865 7.318,0 L 5.696,0 0,0 z" />
    </g>
  </g>
</svg>
