<?xml version="1.0" encoding="UTF-8" standalone="no"?>
<!-- Created with Inkscape (http://www.inkscape.org/) -->

<svg
   xmlns:dc="http://purl.org/dc/elements/1.1/"
   xmlns:cc="http://creativecommons.org/ns#"
   xmlns:rdf="http://www.w3.org/1999/02/22-rdf-syntax-ns#"
   xmlns:svg="http://www.w3.org/2000/svg"
   xmlns="http://www.w3.org/2000/svg"
   xmlns:sodipodi="http://sodipodi.sourceforge.net/DTD/sodipodi-0.dtd"
   xmlns:inkscape="http://www.inkscape.org/namespaces/inkscape"
   width="213.55592"
   height="213.41776"
   id="svg4205"
   version="1.1"
   inkscape:version="0.47 r22583"
   sodipodi:docname="Cyprus road sign no agricle vehicles.svg">
  <defs
     id="defs4207">
    <inkscape:perspective
       sodipodi:type="inkscape:persp3d"
       inkscape:vp_x="0 : 526.18109 : 1"
       inkscape:vp_y="0 : 1000 : 0"
       inkscape:vp_z="744.09448 : 526.18109 : 1"
       inkscape:persp3d-origin="372.04724 : 350.78739 : 1"
       id="perspective4213" />
    <inkscape:perspective
       id="perspective4228"
       inkscape:persp3d-origin="106.21 : 70.796666 : 1"
       inkscape:vp_z="212.42 : 106.195 : 1"
       inkscape:vp_y="0 : 1000 : 0"
       inkscape:vp_x="0 : 106.195 : 1"
       sodipodi:type="inkscape:persp3d" />
    <clipPath
       id="clipPath16">
      <path
         inkscape:connector-curvature="0"
         d="M 0.059998,169.98 H 170 V 0.06 H 0.059998 v 169.92 z"
         id="path18" />
    </clipPath>
    <inkscape:perspective
       id="perspective4247"
       inkscape:persp3d-origin="0.5 : 0.33333333 : 1"
       inkscape:vp_z="1 : 0.5 : 1"
       inkscape:vp_y="0 : 1000 : 0"
       inkscape:vp_x="0 : 0.5 : 1"
       sodipodi:type="inkscape:persp3d" />
    <clipPath
       clipPathUnits="userSpaceOnUse"
       id="clipPath3426">
      <path
         d="m 43.076,488.976 34.845,0 0,34.015 -34.845,0 0,-34.015 z"
         id="path3428" />
    </clipPath>
    <inkscape:perspective
       id="perspective4323"
       inkscape:persp3d-origin="0.5 : 0.33333333 : 1"
       inkscape:vp_z="1 : 0.5 : 1"
       inkscape:vp_y="0 : 1000 : 0"
       inkscape:vp_x="0 : 0.5 : 1"
       sodipodi:type="inkscape:persp3d" />
    <clipPath
       clipPathUnits="userSpaceOnUse"
       id="clipPath2896">
      <path
         d="m 102.752,490.181 34.845,0 0,34.016 -34.845,0 0,-34.016 z"
         id="path2898" />
    </clipPath>
    <inkscape:perspective
       id="perspective5249"
       inkscape:persp3d-origin="0.5 : 0.33333333 : 1"
       inkscape:vp_z="1 : 0.5 : 1"
       inkscape:vp_y="0 : 1000 : 0"
       inkscape:vp_x="0 : 0.5 : 1"
       sodipodi:type="inkscape:persp3d" />
    <inkscape:perspective
       id="perspective5326"
       inkscape:persp3d-origin="0.5 : 0.33333333 : 1"
       inkscape:vp_z="1 : 0.5 : 1"
       inkscape:vp_y="0 : 1000 : 0"
       inkscape:vp_x="0 : 0.5 : 1"
       sodipodi:type="inkscape:persp3d" />
    <clipPath
       clipPathUnits="userSpaceOnUse"
       id="clipPath3128">
      <path
         d="m 164.704,490.181 34.845,0 0,34.016 -34.845,0 0,-34.016 z"
         id="path3130" />
    </clipPath>
    <inkscape:perspective
       id="perspective5450"
       inkscape:persp3d-origin="0.5 : 0.33333333 : 1"
       inkscape:vp_z="1 : 0.5 : 1"
       inkscape:vp_y="0 : 1000 : 0"
       inkscape:vp_x="0 : 0.5 : 1"
       sodipodi:type="inkscape:persp3d" />
    <clipPath
       clipPathUnits="userSpaceOnUse"
       id="clipPath3318">
      <path
         d="m 224.23,490.181 34.845,0 0,34.016 -34.845,0 0,-34.016 z"
         id="path3320" />
    </clipPath>
    <inkscape:perspective
       id="perspective5517"
       inkscape:persp3d-origin="0.5 : 0.33333333 : 1"
       inkscape:vp_z="1 : 0.5 : 1"
       inkscape:vp_y="0 : 1000 : 0"
       inkscape:vp_x="0 : 0.5 : 1"
       sodipodi:type="inkscape:persp3d" />
    <clipPath
       clipPathUnits="userSpaceOnUse"
       id="clipPath2936">
      <path
         d="m 43.087,413.859 34.845,0 0,34.016 -34.845,0 0,-34.016 z"
         id="path2938" />
    </clipPath>
    <inkscape:perspective
       id="perspective5617"
       inkscape:persp3d-origin="0.5 : 0.33333333 : 1"
       inkscape:vp_z="1 : 0.5 : 1"
       inkscape:vp_y="0 : 1000 : 0"
       inkscape:vp_x="0 : 0.5 : 1"
       sodipodi:type="inkscape:persp3d" />
    <clipPath
       clipPathUnits="userSpaceOnUse"
       id="clipPath3572">
      <path
         d="m 102.752,413.859 34.845,0 0,34.016 -34.845,0 0,-34.016 z"
         id="path3574" />
    </clipPath>
    <inkscape:perspective
       id="perspective5745"
       inkscape:persp3d-origin="0.5 : 0.33333333 : 1"
       inkscape:vp_z="1 : 0.5 : 1"
       inkscape:vp_y="0 : 1000 : 0"
       inkscape:vp_x="0 : 0.5 : 1"
       sodipodi:type="inkscape:persp3d" />
    <clipPath
       clipPathUnits="userSpaceOnUse"
       id="clipPath3694">
      <path
         d="m 164.704,413.859 34.845,0 0,34.016 -34.845,0 0,-34.016 z"
         id="path3696" />
    </clipPath>
  </defs>
  <sodipodi:namedview
     id="base"
     pagecolor="#ffffff"
     bordercolor="#666666"
     borderopacity="1.0"
     inkscape:pageopacity="0.0"
     inkscape:pageshadow="2"
     inkscape:zoom="2.362731"
     inkscape:cx="5.7973335"
     inkscape:cy="117.77259"
     inkscape:document-units="px"
     inkscape:current-layer="layer1"
     showgrid="false"
     inkscape:window-width="1600"
     inkscape:window-height="838"
     inkscape:window-x="-8"
     inkscape:window-y="-8"
     inkscape:window-maximized="1" />
  <metadata
     id="metadata4210">
    <rdf:RDF>
      <cc:Work
         rdf:about="">
        <dc:format>image/svg+xml</dc:format>
        <dc:type
           rdf:resource="http://purl.org/dc/dcmitype/StillImage" />
        <dc:title></dc:title>
      </cc:Work>
    </rdf:RDF>
  </metadata>
  <g
     inkscape:label="Livello 1"
     inkscape:groupmode="layer"
     id="layer1"
     transform="translate(-175.27493,-427.37091)">
    <g
       id="g2940"
       transform="matrix(6.2801329,0,0,-6.2801329,282.04347,619.45882)">
      <path
         d="m 0,0 c 7.465,0 13.608,6.117 13.608,13.582 0,7.49 -6.143,13.61 -13.608,13.61 -7.491,0 -13.61,-6.12 -13.61,-13.61 C -13.61,6.117 -7.491,0 0,0"
         style="fill:#ffffff;fill-opacity:1;fill-rule:evenodd;stroke:none"
         id="path2942" />
    </g>
    <g
       id="g2944"
       transform="matrix(6.2801329,0,0,-6.2801329,282.04347,619.47389)">
      <path
         d="m 0,0 c 7.467,0 13.608,6.119 13.608,13.584 0,7.491 -6.141,13.608 -13.608,13.608 -7.491,0 -13.608,-6.117 -13.608,-13.608 C -13.608,6.119 -7.491,0 0,0 m 0,-3.394 c 9.356,0 17.004,7.648 17.004,16.978 0,9.359 -7.648,17.005 -17.004,17.005 -9.354,0 -17.001,-7.646 -17.001,-17.005 0,-9.33 7.647,-16.978 17.001,-16.978"
         style="fill:#ed1d24;fill-opacity:1;fill-rule:evenodd;stroke:none"
         id="path2946" />
    </g>
    <g
       id="g5824"
       transform="translate(237.01386,-4.2323904)">
      <g
         transform="matrix(6.2815914,0,0,-6.2815914,-27.087944,523.74436)"
         id="g3702">
        <path
           id="path3704"
           style="fill:#000000;fill-opacity:1;fill-rule:evenodd;stroke:none"
           d="m 0,0 0,-4.349 12.048,0 0,0.747 0.941,0 0,-0.637 0.639,0 0,-0.997 0.194,0 0,-1.246 0.315,0 0.183,1.219 0.721,-0.775 0,-0.444 1.08,0 -0.366,0.138 -0.438,0.444 c 0,0 -0.416,0.914 -0.416,1.107 0,0.195 0.111,0.749 0.166,0.832 0.056,0.082 0.389,0.637 0.778,0.72 0.385,0.083 1.19,-0.471 1.66,-0.471 l 1.608,0 -0.112,-1.551 c 0,0 -0.414,-0.831 -0.414,-0.943 0,-0.11 -0.056,-0.442 -0.056,-0.442 l 0.719,0 0.111,1.136 0.167,0.137 0.36,1.331 0.637,0.083 c 0,0 0.333,-0.25 0.305,-0.443 -0.029,-0.194 -1.164,-2.022 -1.164,-2.022 0,0 -0.221,-0.305 -0.111,-0.222 0.111,0.083 0.832,0.166 0.832,0.166 l 0.083,0.444 c 0,0 1.163,1.107 1.163,1.384 0,0.277 -0.5,1.178 -0.638,1.323 -0.137,0.146 -0.137,0.921 -0.137,0.921 l 1.494,0 0,0.44 -0.968,0 0.137,1.25 c 0,0 0.056,0.304 0.168,0.304 0.11,0 0.497,-0.637 0.663,-0.637 0.167,0 0.667,0.11 0.667,0.333 0,0.221 -0.25,1.523 -0.416,1.689 -0.167,0.167 -0.333,0.499 -0.499,0.61 -0.167,0.11 -0.333,0.415 -0.333,0.415 l -0.442,-0.47 c 0,0 -1.553,-1.247 -1.719,-1.469 -0.165,-0.221 -1.357,-0.886 -1.357,-0.886 0,0 -2.625,0.002 -2.962,0.055 -0.902,0.14 -1.693,-0.44 -1.719,-1.135 -0.006,-0.187 -0.083,-0.555 -0.083,-0.555 l -0.777,0 -0.553,0.25 c 0,0 -0.193,1.606 -0.388,1.745 -0.193,0.138 -0.914,0.194 -0.914,0.194 l 0,1.08 c 0,0 0.889,-0.305 1.191,-0.443 0.305,-0.139 0.637,-0.249 0.805,-0.249 l 0.941,0.276 c 0,0 -1.413,0.693 -1.801,0.914 -0.388,0.223 -0.832,0.914 -0.9,1.053 -0.069,0.138 -0.208,0.61 -0.208,0.61 l 0.167,0.387 c 0,0 -0.027,0.666 -0.25,0.748 -0.222,0.083 -0.581,0.25 -0.831,0 C 9.722,3.85 9.602,3.8 9.602,3.8 9.602,3.8 9.528,3.489 9.641,3.324 9.75,3.158 9.919,2.739 9.919,2.739 c 0,0 -0.557,-0.966 -0.695,-1.244 -0.141,-0.277 -0.25,-1.522 -0.25,-1.522 l -0.581,0 c 0,0 -1.415,1.245 -1.553,1.551 -0.138,0.304 0,0.581 -0.082,0.581 C 6.676,2.105 5.679,1.994 5.623,2.16 5.569,2.326 5.345,2.576 5.345,2.576 l -1.026,0 c 0,0 -3.072,-2.077 -3.183,-2.161 C 1.025,0.332 1.025,0 1.025,0 L 0,0 z" />
      </g>
      <g
         transform="matrix(6.2815914,0,0,-6.2815914,97.014316,527.737)"
         id="g3706">
        <path
           id="path3708"
           style="fill:#000000;fill-opacity:1;fill-rule:evenodd;stroke:none"
           d="M 0,0 -6.915,0.936 -6.887,1.148 0.028,0.213 0,0 z" />
      </g>
      <g
         transform="matrix(6.2815914,0,0,-6.2815914,-0.59539558,557.54252)"
         id="g3710">
        <path
           id="path3712"
           style="fill:#000000;fill-opacity:1;fill-rule:evenodd;stroke:none"
           d="m 0,0 c 0,-0.693 -0.561,-1.255 -1.255,-1.255 -0.693,0 -1.253,0.562 -1.253,1.255 0,0.692 0.56,1.253 1.253,1.253 C -0.561,1.253 0,0.692 0,0" />
      </g>
      <g
         transform="matrix(6.2815914,0,0,-6.2815914,37.329713,557.54252)"
         id="g3714">
        <path
           id="path3716"
           style="fill:#000000;fill-opacity:1;fill-rule:evenodd;stroke:none"
           d="m 0,0 c 0,-0.693 -0.561,-1.255 -1.252,-1.255 -0.693,0 -1.256,0.562 -1.256,1.255 0,0.692 0.563,1.253 1.256,1.253 C -0.561,1.253 0,0.692 0,0" />
      </g>
      <path
         id="path3718"
         style="fill:#000000;fill-opacity:1;fill-rule:evenodd;stroke:none"
         d="m -27.790289,571.94307 145.299489,0 0,-8.34823 -145.299489,0 0,8.34823 z" />
    </g>
  </g>
</svg>
