<svg xmlns="http://www.w3.org/2000/svg" width="207.771" height="324.184"><defs><clipPath clipPathUnits="userSpaceOnUse" id="b"><path d="M129.685 131.811h149.528v235.275H129.685V131.811z"/></clipPath><clipPath clipPathUnits="userSpaceOnUse" id="a"><path d="M0 0h311v595H0V0z"/></clipPath></defs><g clip-path="url(#a)" transform="matrix(1.45962 0 0 -1.45962 -194.863 531.643)"><path d="M133.503 142.133h142.346v222.102H133.503V142.133z" style="fill:#007ac2;fill-opacity:1;fill-rule:nonzero;stroke:none"/></g><g clip-path="url(#b)" transform="matrix(1.45962 0 0 -1.45962 -194.863 531.643)"><path d="M0 0c0-5.287-7.525-9.574-16.807-9.574-9.281 0-16.806 4.287-16.806 9.574 0 5.288 7.525 9.575 16.806 9.575C-7.525 9.575 0 5.288 0 0" style="fill:#fff;fill-opacity:1;fill-rule:nonzero;stroke:none" transform="translate(183.262 350.534)"/><path d="M0 0c0-5.287-7.525-9.574-16.807-9.574-9.281 0-16.806 4.287-16.806 9.574 0 5.288 7.525 9.575 16.806 9.575C-7.525 9.575 0 5.288 0 0z" style="fill:none;stroke:#000;stroke-width:1.0465076;stroke-linecap:butt;stroke-linejoin:miter;stroke-miterlimit:10;stroke-opacity:1;stroke-dasharray:none" transform="translate(183.262 350.534)"/><path d="m0 0 .926-.234C.732-.995.383-1.575-.122-1.974c-.504-.4-1.121-.599-1.85-.599-.754 0-1.368.153-1.841.46-.472.308-.832.752-1.079 1.335a4.771 4.771 0 0 0-.37 1.876c0 .729.14 1.365.418 1.908.279.542.675.955 1.189 1.236a3.47 3.47 0 0 0 1.697.423c.701 0 1.29-.179 1.767-.535.478-.356.81-.858.998-1.504l-.912-.215c-.162.509-.398.881-.707 1.113-.309.232-.697.348-1.165.348-.538 0-.987-.129-1.349-.387a2.038 2.038 0 0 1-.761-1.038 4.165 4.165 0 0 1-.22-1.344c0-.595.087-1.115.26-1.559.174-.444.444-.776.81-.995.366-.22.762-.33 1.189-.33.518 0 .958.15 1.317.449.36.299.603.743.731 1.332" style="fill:#000;fill-opacity:1;fill-rule:nonzero;stroke:none" transform="translate(164.75 349.495)"/><path d="M0 0v2.965L-2.698 7h1.127l1.38-2.111C.064 4.495.301 4.1.52 3.705c.21.366.465.778.764 1.237L2.64 7h1.079L.926 2.965V0H0z" style="fill:#000;fill-opacity:1;fill-rule:nonzero;stroke:none" transform="translate(168.79 347.04)"/><path d="m0 0 1.539-.488C1.303-1.346.911-1.984.362-2.4c-.549-.417-1.245-.625-2.089-.625-1.044 0-1.902.357-2.574 1.07C-4.974-1.242-5.31-.267-5.31.97c0 1.309.338 2.326 1.014 3.05.676.723 1.564 1.086 2.665 1.086.962 0 1.744-.284 2.344-.853.358-.336.626-.819.805-1.448L-.054 2.43c-.093.407-.287.729-.582.965s-.653.354-1.075.354c-.583 0-1.056-.209-1.419-.628-.363-.418-.544-1.095-.544-2.032 0-.995.179-1.703.536-2.125.358-.421.823-.632 1.395-.632.422 0 .785.134 1.089.402.303.268.522.69.654 1.266" style="fill:#fff;fill-opacity:1;fill-rule:nonzero;stroke:none" transform="translate(197.167 349.712)"/><path d="M0 0v3.309l-2.88 4.554h1.861l1.85-3.111 1.813 3.111h1.829L1.582 3.299V0H0z" style="fill:#fff;fill-opacity:1;fill-rule:nonzero;stroke:none" transform="translate(202.287 346.82)"/><path d="M0 0v-2.231h.869c.626 0 1.044.041 1.255.123.211.082.376.211.496.386.12.175.18.379.18.611 0 .287-.084.523-.252.709a1.1 1.1 0 0 1-.639.348C1.72-.018 1.339 0 .767 0H0zm-1.588-6.533V1.33H.96c.965 0 1.595-.04 1.888-.118.45-.118.828-.375 1.132-.77.304-.395.456-.905.456-1.531 0-.482-.088-.888-.263-1.218a2.154 2.154 0 0 0-.668-.774 2.299 2.299 0 0 0-.823-.373c-.379-.076-.928-.113-1.647-.113H0v-2.966h-1.588z" style="fill:#fff;fill-opacity:1;fill-rule:nonzero;stroke:none" transform="translate(209.29 353.354)"/><path d="M0 0h1.175c.761 0 1.237.032 1.426.096.19.065.338.176.445.333.108.157.161.354.161.59 0 .264-.07.478-.212.641-.141.163-.34.265-.598.308-.128.018-.515.027-1.158.027H0V0zm-1.588-4.538v7.863h3.342c.84 0 1.451-.071 1.831-.212.381-.141.686-.392.915-.753.229-.361.343-.774.343-1.239 0-.59-.173-1.077-.52-1.462-.347-.384-.865-.626-1.556-.727.344-.2.627-.42.851-.659.223-.24.524-.665.903-1.277l.96-1.534H3.583L2.435-2.827c-.408.612-.686.997-.837 1.156a1.22 1.22 0 0 1-.477.328c-.168.058-.435.088-.799.088H0v-3.283h-1.588z" style="fill:#fff;fill-opacity:1;fill-rule:nonzero;stroke:none" transform="translate(216.775 351.359)"/><path d="M0 0h1.587v-4.258c0-.676.02-1.114.06-1.314.068-.322.229-.581.485-.775.256-.195.605-.293 1.048-.293.451 0 .791.092 1.02.277.228.184.366.41.413.678.046.268.069.714.069 1.335V0H6.27v-4.129c0-.945-.043-1.611-.129-2.001a2.211 2.211 0 0 0-.475-.987 2.395 2.395 0 0 0-.925-.641c-.386-.159-.89-.239-1.512-.239-.751 0-1.321.087-1.708.26-.389.174-.695.399-.92.676a2.15 2.15 0 0 0-.445.872C.052-5.738 0-5.074 0-4.194V0z" style="fill:#fff;fill-opacity:1;fill-rule:nonzero;stroke:none" transform="translate(223.258 354.683)"/><path d="m0 0 1.545.15c.092-.519.281-.9.565-1.142.285-.243.668-.365 1.151-.365.511 0 .896.108 1.156.325.259.216.389.469.389.758a.718.718 0 0 1-.164.475c-.109.13-.3.244-.571.34-.186.065-.61.179-1.271.343-.851.212-1.449.471-1.792.778-.482.433-.724.96-.724 1.582 0 .401.114.776.341 1.124.227.349.554.614.981.797.428.182.943.273 1.548.273.987 0 1.729-.216 2.228-.649.499-.432.761-1.01.786-1.732l-1.588-.07c-.068.404-.213.695-.437.871-.223.178-.559.266-1.005.266-.462 0-.823-.095-1.084-.284a.573.573 0 0 1-.252-.488c0-.186.079-.345.236-.478.2-.167.687-.343 1.459-.525.772-.183 1.344-.371 1.714-.566.37-.195.659-.461.868-.799.21-.338.314-.755.314-1.253 0-.45-.125-.872-.375-1.265a2.251 2.251 0 0 0-1.062-.877c-.458-.191-1.028-.287-1.711-.287-.994 0-1.758.23-2.29.689C.422-1.549.104-.88 0 0" style="fill:#fff;fill-opacity:1;fill-rule:nonzero;stroke:none" transform="translate(230.953 349.38)"/><path d="m0 0 1.285-.407C1.088-1.123.76-1.655.302-2.003c-.458-.347-1.039-.521-1.743-.521-.872 0-1.588.297-2.149.893-.561.595-.841 1.409-.841 2.441 0 1.093.282 1.941.846 2.545.564.604 1.305.906 2.224.906.803 0 1.455-.236 1.956-.711.299-.28.523-.684.672-1.208l-1.312-.314a1.38 1.38 0 0 1-.485.805 1.39 1.39 0 0 1-.898.296c-.486 0-.881-.175-1.184-.523-.303-.35-.454-.916-.454-1.697 0-.83.149-1.42.447-1.772a1.453 1.453 0 0 1 1.164-.529c.352 0 .655.112.909.336C-.292-.832-.11-.48 0 0" style="fill:#fff;fill-opacity:1;fill-rule:nonzero;stroke:none" transform="translate(189.032 172.815)"/><path d="M0 0a7.56 7.56 0 0 0-.765-.193c-.35-.075-.578-.147-.685-.219a.525.525 0 0 1-.247-.444c0-.176.066-.327.197-.456a.69.69 0 0 1 .502-.191c.227 0 .443.074.649.223a.791.791 0 0 1 .3.417c.033.106.049.311.049.612V0zm-1.683 1.021-1.141.206c.128.459.349.8.662 1.02.313.221.779.331 1.397.331.561 0 .978-.066 1.253-.199.274-.132.468-.301.58-.505.112-.206.167-.581.167-1.126L1.222-.72c0-.419.02-.726.06-.925a2.76 2.76 0 0 1 .226-.638H.264a4.845 4.845 0 0 0-.121.371 3.143 3.143 0 0 1-.044.148 2.276 2.276 0 0 0-.69-.47 2 2 0 0 0-.783-.156c-.49 0-.875.132-1.157.399a1.32 1.32 0 0 0-.423 1.006c0 .269.064.508.192.719.128.21.308.371.539.484.232.111.565.209 1.001.293.588.11.995.213 1.222.309v.125c0 .241-.06.413-.179.517-.119.103-.345.154-.676.154-.224 0-.398-.044-.524-.132-.125-.088-.226-.242-.304-.463" style="fill:#fff;fill-opacity:1;fill-rule:nonzero;stroke:none" transform="translate(194.196 172.685)"/><path d="M0 0v.711a1.925 1.925 0 0 0-1.576-.817c-.319 0-.605.069-.859.209-.254.14-.437.337-.551.591-.113.253-.17.604-.17 1.053v3.008h1.258V2.569c0-.667.023-1.077.07-1.228.046-.15.13-.27.252-.358A.78.78 0 0 1-1.11.851c.215 0 .407.06.577.177.17.117.287.264.35.439.062.175.094.601.094 1.282v2.006h1.257V0H0z" style="fill:#fff;fill-opacity:1;fill-rule:nonzero;stroke:none" transform="translate(199.929 170.402)"/><path d="M0 0v-1.004h-.859v-1.915c0-.387.008-.615.024-.678a.275.275 0 0 1 .112-.159.353.353 0 0 1 .213-.062c.116 0 .285.04.506.121l.107-.977a2.506 2.506 0 0 0-.994-.187c-.227 0-.431.038-.613.114a.892.892 0 0 0-.401.294 1.165 1.165 0 0 0-.176.492c-.027.145-.041.441-.041.884v2.073h-.577V0h.577v.945l1.263.733V0H0z" style="fill:#fff;fill-opacity:1;fill-rule:nonzero;stroke:none" transform="translate(204.708 175.157)"/><path d="M0 0h1.258v-4.755H0V0zm0 1.808h1.258V.644H0v1.164z" style="fill:#fff;fill-opacity:1;fill-rule:nonzero;stroke:none" transform="translate(205.709 175.157)"/><path d="M0 0c0-.472.112-.832.336-1.083.224-.25.5-.376.828-.376.328 0 .603.126.826.376.222.251.333.614.333 1.093 0 .464-.111.822-.333 1.073a1.057 1.057 0 0 1-.826.376c-.328 0-.604-.124-.828-.376C.112.832 0 .472 0 0m-1.289.067c0 .418.103.822.309 1.214.206.39.497.688.875.895.377.205.799.308 1.264.308.72 0 1.309-.233 1.768-.701.46-.467.69-1.057.69-1.77 0-.718-.232-1.315-.696-1.788-.464-.473-1.048-.709-1.753-.709-.435 0-.851.098-1.246.295a2.027 2.027 0 0 0-.902.866c-.206.381-.309.844-.309 1.39" style="fill:#fff;fill-opacity:1;fill-rule:nonzero;stroke:none" transform="translate(209.382 172.78)"/><path d="M0 0h-1.258v2.426c0 .514-.027.846-.08.996a.695.695 0 0 1-.699.477c-.218 0-.413-.06-.586-.18a.893.893 0 0 1-.356-.473c-.064-.196-.096-.562-.096-1.092V0h-1.258v4.755h1.168v-.699c.415.537.937.805 1.567.805.277 0 .531-.05.761-.149.23-.1.403-.229.521-.384s.2-.33.247-.527c.046-.196.069-.479.069-.847V0z" style="fill:#fff;fill-opacity:1;fill-rule:nonzero;stroke:none" transform="translate(218.436 170.402)"/><path d="M0 0h1.258v-1.259H0V0zm.273.434-.327 3.33v1.54h1.361v-1.54L.984.434H.273z" style="fill:#fff;fill-opacity:1;fill-rule:nonzero;stroke:none" transform="translate(220.06 171.661)"/><path d="M0 0v2.762l-2.404 3.8H-.85L.694 3.966l1.513 2.596h1.526L1.32 2.753V0H0z" style="fill:#fff;fill-opacity:1;fill-rule:nonzero;stroke:none" transform="translate(171.667 159.402)"/><path d="M0 0c0-.472.112-.832.336-1.083.223-.25.5-.376.828-.376.328 0 .603.126.826.376.222.251.333.614.333 1.093 0 .464-.111.822-.333 1.073a1.057 1.057 0 0 1-.826.376c-.328 0-.605-.124-.828-.376C.112.832 0 .472 0 0m-1.289.067c0 .418.103.822.309 1.214.206.39.497.688.875.895.377.205.799.308 1.264.308.72 0 1.309-.233 1.768-.701.46-.467.69-1.057.69-1.77 0-.718-.232-1.315-.696-1.788-.464-.473-1.048-.709-1.753-.709-.435 0-.851.098-1.246.295a2.027 2.027 0 0 0-.902.866c-.206.381-.309.844-.309 1.39" style="fill:#fff;fill-opacity:1;fill-rule:nonzero;stroke:none" transform="translate(176.496 161.779)"/><path d="M0 0v.711a1.925 1.925 0 0 0-1.576-.817c-.319 0-.605.069-.859.209-.254.14-.437.337-.551.591-.113.253-.17.604-.17 1.053v3.008h1.258V2.569c0-.667.023-1.077.07-1.228.046-.15.13-.27.252-.358A.78.78 0 0 1-1.11.851c.215 0 .407.06.577.177.17.117.287.264.349.439.063.175.095.601.095 1.282v2.006h1.257V0H0z" style="fill:#fff;fill-opacity:1;fill-rule:nonzero;stroke:none" transform="translate(184.355 159.402)"/><path d="M0 0a7.56 7.56 0 0 0-.765-.193c-.349-.075-.578-.147-.685-.219a.524.524 0 0 1-.246-.444c0-.176.065-.327.197-.456a.686.686 0 0 1 .501-.191c.227 0 .443.074.649.223a.791.791 0 0 1 .3.417c.033.106.049.311.049.612V0zm-1.683 1.021-1.141.206c.128.459.349.8.662 1.02.313.221.779.331 1.397.331.561 0 .978-.066 1.253-.199.274-.132.468-.301.58-.505.112-.206.168-.581.168-1.126L1.222-.72c0-.419.02-.726.06-.925a2.72 2.72 0 0 1 .227-.638H.264a4.845 4.845 0 0 0-.121.371 3.143 3.143 0 0 1-.044.148 2.276 2.276 0 0 0-.69-.47 2 2 0 0 0-.783-.156c-.49 0-.875.132-1.157.399a1.32 1.32 0 0 0-.423 1.006c0 .269.064.508.192.719.129.21.308.371.54.484.231.111.564.209 1 .293.588.11.995.213 1.222.309v.125c0 .241-.06.413-.179.517-.119.103-.345.154-.676.154-.224 0-.398-.044-.524-.132-.125-.088-.226-.242-.304-.463" style="fill:#fff;fill-opacity:1;fill-rule:nonzero;stroke:none" transform="translate(192.252 161.685)"/><path d="M0 0h-1.258v4.755H-.09v-.677c.2.32.38.53.54.631a.986.986 0 0 0 .544.152c.286 0 .562-.078.828-.236l-.39-1.097c-.212.136-.408.206-.591.206a.691.691 0 0 1-.447-.147c-.123-.096-.219-.271-.289-.525C.035 2.809 0 2.277 0 1.469V0z" style="fill:#fff;fill-opacity:1;fill-rule:nonzero;stroke:none" transform="translate(196.06 159.402)"/><path d="M0 0c-.009.364-.103.642-.282.83a.86.86 0 0 1-.653.285.874.874 0 0 1-.681-.3C-1.795.615-1.883.343-1.88 0H0zm-.072-1.271 1.254-.21c-.161-.46-.416-.81-.763-1.05-.348-.24-.783-.36-1.305-.36-.827 0-1.439.269-1.835.811-.314.431-.471.977-.471 1.636 0 .789.206 1.406.618 1.852.412.446.933.669 1.562.669.708 0 1.266-.233 1.674-.701.409-.467.605-1.182.587-2.146h-3.151c.009-.373.11-.663.304-.87a.954.954 0 0 1 .725-.311c.197 0 .363.054.497.16.134.108.236.281.304.52" style="fill:#fff;fill-opacity:1;fill-rule:nonzero;stroke:none" transform="translate(201.376 162.186)"/><path d="M0 0c0-.507.07-.874.21-1.101.203-.328.487-.492.851-.492.289 0 .535.123.738.369.203.246.305.614.305 1.103 0 .546-.099.94-.296 1.18a.935.935 0 0 1-.756.36.945.945 0 0 1-.75-.356C.101.826 0 .472 0 0m3.357-2.48H2.189v.699a1.884 1.884 0 0 0-.687-.606 1.761 1.761 0 0 0-.799-.199c-.546 0-1.014.22-1.404.66-.389.44-.584 1.053-.584 1.84 0 .807.19 1.42.569 1.839.379.419.858.628 1.437.628.531 0 .99-.22 1.378-.662v2.363h1.258V-2.48z" style="fill:#fff;fill-opacity:1;fill-rule:nonzero;stroke:none" transform="translate(207.456 161.882)"/><path d="M0 0h-1.258v4.755H-.09v-.677c.2.32.38.53.54.631a.986.986 0 0 0 .544.152c.286 0 .562-.078.828-.236l-.39-1.097c-.212.136-.408.206-.591.206a.691.691 0 0 1-.447-.147c-.123-.096-.219-.271-.289-.525C.035 2.809 0 2.277 0 1.469V0z" style="fill:#fff;fill-opacity:1;fill-rule:nonzero;stroke:none" transform="translate(213.386 159.402)"/><path d="M0 0h1.258v-4.755H0V0zm0 1.808h1.258V.644H0v1.164z" style="fill:#fff;fill-opacity:1;fill-rule:nonzero;stroke:none" transform="translate(215.878 164.156)"/><path d="m0 0-1.916 4.755h1.321L.3 2.328l.26-.81c.068.207.111.341.129.407.042.135.087.269.135.403l.904 2.427h1.293L1.132 0H0z" style="fill:#fff;fill-opacity:1;fill-rule:nonzero;stroke:none" transform="translate(219.86 159.402)"/><path d="M0 0h1.258v-4.755H0V0zm0 1.808h1.258V.644H0v1.164z" style="fill:#fff;fill-opacity:1;fill-rule:nonzero;stroke:none" transform="translate(223.779 164.156)"/><path d="M0 0h-1.258v2.426c0 .514-.027.846-.08.996a.695.695 0 0 1-.699.477c-.218 0-.413-.06-.586-.18a.893.893 0 0 1-.356-.473c-.064-.196-.096-.562-.096-1.092V0h-1.258v4.755h1.168v-.699c.415.537.937.805 1.567.805.278 0 .531-.05.761-.149.23-.1.404-.229.522-.384.117-.155.199-.33.246-.527.046-.196.069-.479.069-.847V0z" style="fill:#fff;fill-opacity:1;fill-rule:nonzero;stroke:none" transform="translate(230.779 159.402)"/><path d="M0 0c0-.505.098-.874.293-1.109a.912.912 0 0 1 .723-.352c.307 0 .567.121.779.361.212.241.318.596.318 1.068 0 .493-.102.858-.305 1.097a.969.969 0 0 1-.77.358.933.933 0 0 1-.745-.351C.098.837 0 .479 0 0m-1.124-2.789 1.437-.175c.024-.166.079-.281.166-.345.119-.089.307-.134.564-.134.328 0 .574.049.738.149a.605.605 0 0 1 .251.316c.039.106.058.298.058.579v.693c-.376-.514-.85-.77-1.423-.77-.639 0-1.144.27-1.517.811-.293.426-.439.957-.439 1.593 0 .797.192 1.405.575 1.826.383.42.86.631 1.43.631.588 0 1.073-.258 1.455-.774v.667h1.177v-4.265c0-.562-.046-.981-.139-1.258a1.546 1.546 0 0 0-.389-.654 1.717 1.717 0 0 0-.669-.372c-.279-.09-.632-.134-1.059-.134-.805 0-1.377.138-1.714.414a1.3 1.3 0 0 0-.506 1.05c0 .042.002.092.004.152" style="fill:#fff;fill-opacity:1;fill-rule:nonzero;stroke:none" transform="translate(233.19 161.878)"/><path d="M0 0c0-.472.112-.832.336-1.083.224-.25.5-.376.828-.376.328 0 .603.126.826.376.222.251.333.614.333 1.093 0 .464-.111.822-.333 1.073a1.057 1.057 0 0 1-.826.376c-.328 0-.604-.124-.828-.376C.112.832 0 .472 0 0m-1.289.067c0 .418.103.822.309 1.214.206.39.497.688.875.895.377.205.799.308 1.264.308.72 0 1.309-.233 1.768-.701.46-.467.69-1.057.69-1.77 0-.718-.232-1.315-.696-1.788-.464-.473-1.048-.709-1.753-.709-.435 0-.851.098-1.246.295a2.027 2.027 0 0 0-.902.866c-.206.381-.309.844-.309 1.39" style="fill:#fff;fill-opacity:1;fill-rule:nonzero;stroke:none" transform="translate(159.009 150.778)"/><path d="M0 0h-1.258v2.426c0 .514-.027.846-.08.996a.695.695 0 0 1-.699.477c-.217 0-.413-.06-.586-.18a.893.893 0 0 1-.356-.473c-.064-.196-.096-.562-.096-1.092V0h-1.258v4.755h1.168v-.699c.415.537.937.805 1.567.805.278 0 .531-.05.761-.149.23-.1.404-.229.522-.384.117-.155.199-.33.246-.527.046-.196.069-.479.069-.847V0z" style="fill:#fff;fill-opacity:1;fill-rule:nonzero;stroke:none" transform="translate(168.063 148.401)"/><path d="M0 0v-1.004h-.859v-1.915c0-.387.008-.615.024-.678a.275.275 0 0 1 .112-.159.353.353 0 0 1 .213-.062c.116 0 .285.04.505.121l.108-.977a2.506 2.506 0 0 0-.994-.187c-.227 0-.431.038-.613.114a.898.898 0 0 0-.401.294 1.165 1.165 0 0 0-.176.492c-.027.145-.041.441-.041.884v2.073h-.577V0h.577v.945l1.263.733V0H0z" style="fill:#fff;fill-opacity:1;fill-rule:nonzero;stroke:none" transform="translate(174.322 153.156)"/><path d="M0 0v-2.413c.406.476.891.712 1.455.712.289 0 .55-.053.783-.161.233-.107.408-.245.526-.411.118-.168.198-.352.242-.555.043-.203.065-.519.065-.945v-2.789H1.813v2.511c0 .498-.024.814-.072.949a.624.624 0 0 1-.253.32.805.805 0 0 1-.454.119c-.209 0-.395-.052-.56-.152a.884.884 0 0 1-.36-.46C.038-3.479 0-3.781 0-4.18v-2.382h-1.258V0H0z" style="fill:#fff;fill-opacity:1;fill-rule:nonzero;stroke:none" transform="translate(176.576 154.964)"/><path d="M0 0c-.009.364-.103.642-.282.83a.861.861 0 0 1-.654.285.873.873 0 0 1-.68-.3C-1.795.615-1.883.343-1.88 0H0zm-.072-1.271 1.254-.21c-.162-.46-.416-.81-.763-1.05-.348-.24-.783-.36-1.305-.36-.827 0-1.439.269-1.836.811-.313.431-.47.977-.47 1.636 0 .789.206 1.406.618 1.852.412.446.933.669 1.562.669.708 0 1.266-.233 1.674-.701.409-.467.605-1.182.587-2.146h-3.151c.009-.373.11-.663.304-.87a.954.954 0 0 1 .725-.311c.197 0 .363.054.497.16.134.108.236.281.304.52" style="fill:#fff;fill-opacity:1;fill-rule:nonzero;stroke:none" transform="translate(183.876 151.185)"/><path d="M188.953 148.401h1.258v6.562h-1.258v-6.562z" style="fill:#fff;fill-opacity:1;fill-rule:nonzero;stroke:none"/><path d="M0 0c-.009.364-.103.642-.282.83a.86.86 0 0 1-.653.285.874.874 0 0 1-.681-.3C-1.795.615-1.883.343-1.88 0H0zm-.072-1.271 1.254-.21c-.161-.46-.416-.81-.763-1.05-.348-.24-.783-.36-1.305-.36-.827 0-1.439.269-1.835.811-.314.431-.47.977-.47 1.636 0 .789.205 1.406.617 1.852.412.446.933.669 1.562.669.708 0 1.266-.233 1.674-.701.409-.467.605-1.182.587-2.146h-3.151c.009-.373.11-.663.304-.87a.954.954 0 0 1 .725-.311c.197 0 .363.054.497.16.134.108.236.281.304.52" style="fill:#fff;fill-opacity:1;fill-rule:nonzero;stroke:none" transform="translate(194.453 151.185)"/><path d="M0 0h.698v.358c0 .4.043.698.128.895.085.197.242.357.47.481.228.124.517.185.866.185.358 0 .709-.054 1.052-.16l-.17-.878c-.2.048-.393.071-.578.071-.182 0-.312-.041-.391-.127-.079-.084-.119-.248-.119-.49V0h.94v-.989h-.94v-3.766H.698v3.766H0V0z" style="fill:#fff;fill-opacity:1;fill-rule:nonzero;stroke:none" transform="translate(196.304 153.156)"/><path d="M0 0v-1.004h-.859v-1.915c0-.387.008-.615.024-.678a.275.275 0 0 1 .112-.159.353.353 0 0 1 .213-.062c.116 0 .285.04.505.121l.108-.977a2.506 2.506 0 0 0-.994-.187c-.227 0-.431.038-.613.114a.892.892 0 0 0-.401.294 1.165 1.165 0 0 0-.176.492c-.027.145-.041.441-.041.884v2.073h-.577V0h.577v.945l1.263.733V0H0z" style="fill:#fff;fill-opacity:1;fill-rule:nonzero;stroke:none" transform="translate(202.216 153.156)"/><path d="M0 0v-2.413c.406.476.891.712 1.455.712.289 0 .55-.053.783-.161.233-.107.408-.245.526-.411.118-.168.198-.352.242-.555.043-.203.065-.519.065-.945v-2.789H1.813v2.511c0 .498-.024.814-.072.949a.624.624 0 0 1-.253.32.805.805 0 0 1-.454.119c-.209 0-.395-.052-.56-.152a.884.884 0 0 1-.36-.46C.038-3.479 0-3.781 0-4.18v-2.382h-1.258V0H0z" style="fill:#fff;fill-opacity:1;fill-rule:nonzero;stroke:none" transform="translate(207.146 154.964)"/><path d="M0 0a7.56 7.56 0 0 0-.765-.193c-.35-.075-.578-.147-.685-.219a.525.525 0 0 1-.247-.444c0-.176.066-.327.197-.456a.69.69 0 0 1 .502-.191c.227 0 .443.074.649.223a.791.791 0 0 1 .3.417c.033.106.049.311.049.612V0zm-1.683 1.021-1.141.206c.128.459.349.8.662 1.02.313.221.779.331 1.397.331.56 0 .978-.066 1.253-.199.274-.132.468-.301.58-.505.111-.206.167-.581.167-1.126L1.222-.72c0-.419.02-.726.06-.925a2.76 2.76 0 0 1 .226-.638H.264a4.845 4.845 0 0 0-.121.371 2.043 2.043 0 0 1-.045.148 2.26 2.26 0 0 0-.689-.47 2 2 0 0 0-.783-.156c-.49 0-.875.132-1.157.399a1.32 1.32 0 0 0-.423 1.006c0 .269.064.508.192.719.128.21.308.371.539.484.232.111.565.209 1.001.293.588.11.995.213 1.222.309v.125c0 .241-.06.413-.179.517-.12.103-.345.154-.676.154-.224 0-.398-.044-.524-.132-.125-.088-.226-.242-.304-.463" style="fill:#fff;fill-opacity:1;fill-rule:nonzero;stroke:none" transform="translate(214.244 150.684)"/><path d="M0 0h-1.258v2.426c0 .514-.027.846-.08.996a.695.695 0 0 1-.699.477c-.218 0-.413-.06-.586-.18a.893.893 0 0 1-.356-.473c-.064-.196-.096-.562-.096-1.092V0h-1.258v4.755h1.168v-.699c.415.537.937.805 1.567.805.278 0 .531-.05.761-.149.23-.1.404-.229.521-.384.118-.155.2-.33.247-.527.046-.196.069-.479.069-.847V0z" style="fill:#fff;fill-opacity:1;fill-rule:nonzero;stroke:none" transform="translate(221.171 148.401)"/><path d="M0 0c0-.507.07-.874.21-1.101.203-.328.487-.492.851-.492.289 0 .535.123.738.369.203.246.305.614.305 1.103 0 .546-.099.94-.296 1.18a.935.935 0 0 1-.756.36.943.943 0 0 1-.75-.356C.101.826 0 .472 0 0m3.357-2.48H2.189v.699a1.884 1.884 0 0 0-.687-.606 1.761 1.761 0 0 0-.799-.199c-.546 0-1.014.22-1.404.66-.389.44-.584 1.053-.584 1.84 0 .807.19 1.42.569 1.839.379.419.858.628 1.437.628.531 0 .99-.22 1.378-.662v2.363h1.258V-2.48z" style="fill:#fff;fill-opacity:1;fill-rule:nonzero;stroke:none" transform="translate(223.578 150.881)"/><path d="m0 0 1.262.193c.054-.246.163-.431.327-.558.164-.126.394-.19.689-.19.326 0 .57.06.734.179a.399.399 0 0 1 .166.336c0 .095-.03.174-.089.237-.063.06-.203.115-.421.166C1.653.587 1.01.791.739.977a1.22 1.22 0 0 0-.564 1.069c0 .412.162.758.487 1.038.326.281.83.42 1.513.42.651 0 1.134-.105 1.451-.317.316-.212.534-.525.653-.939l-1.186-.22a.735.735 0 0 1-.289.425c-.141.099-.344.148-.606.148-.331 0-.569-.046-.712-.139a.3.3 0 0 1-.143-.256c0-.089.042-.165.125-.227.114-.084.505-.202 1.175-.355.67-.151 1.138-.338 1.403-.558.263-.225.394-.537.394-.936 0-.436-.182-.811-.546-1.124-.364-.314-.902-.469-1.616-.469-.647 0-1.16.131-1.537.393A1.812 1.812 0 0 0 0 0" style="fill:#fff;fill-opacity:1;fill-rule:nonzero;stroke:none" transform="translate(230.536 149.758)"/><path d="M0 0h1.258v-4.755H0V0zm0 1.807h1.258V.643H0v1.164z" style="fill:#fff;fill-opacity:1;fill-rule:nonzero;stroke:none" transform="translate(236.205 153.156)"/><path d="M0 0c0-.507.07-.874.21-1.101.203-.328.487-.492.851-.492.289 0 .535.123.738.369.203.246.305.614.305 1.103 0 .546-.099.94-.296 1.18a.935.935 0 0 1-.756.36.942.942 0 0 1-.75-.356C.101.826 0 .472 0 0m3.357-2.48H2.189v.699a1.884 1.884 0 0 0-.687-.606 1.761 1.761 0 0 0-.799-.199c-.546 0-1.014.22-1.404.66-.389.44-.584 1.053-.584 1.84 0 .807.19 1.42.569 1.839.379.419.858.628 1.437.628.531 0 .99-.22 1.378-.662v2.363h1.258V-2.48z" style="fill:#fff;fill-opacity:1;fill-rule:nonzero;stroke:none" transform="translate(239.883 150.881)"/><path d="M0 0c-.009.364-.103.642-.282.83a.861.861 0 0 1-.654.285.873.873 0 0 1-.68-.3C-1.795.615-1.883.343-1.88 0H0zm-.072-1.271 1.254-.21c-.161-.46-.416-.81-.763-1.05-.348-.24-.783-.36-1.305-.36-.827 0-1.439.269-1.835.811-.314.431-.471.977-.471 1.636 0 .789.206 1.406.618 1.852.412.446.933.669 1.562.669.708 0 1.266-.233 1.674-.701.409-.467.605-1.182.587-2.146h-3.151c.009-.373.11-.663.304-.87a.954.954 0 0 1 .725-.311c.197 0 .363.054.497.16.134.108.236.281.304.52" style="fill:#fff;fill-opacity:1;fill-rule:nonzero;stroke:none" transform="translate(247.433 151.185)"/><path d="M146.389 288.197h112.452v45.836H146.389v-45.836zM146.389 235.333h112.452v45.836H146.389v-45.836zM146.389 182.163h112.452v45.836H146.389v-45.836z" style="fill:#fff;fill-opacity:1;fill-rule:nonzero;stroke:#000;stroke-width:1.0465076;stroke-linecap:butt;stroke-linejoin:miter;stroke-miterlimit:10;stroke-opacity:1;stroke-dasharray:none"/><path d="M0 0v-11.001h38.502V4.686L35.65 7.334l-2.445-2.445v-7.741h-1.018v2.037L28.52 2.241 25.363-.917v-1.731h-1.936v2.037l-3.259 1.833-2.343-2.342v-1.936h-2.343l-.814 8.964-2.445 6.519-2.852-6.519V0L4.889 3.667 0 0z" style="fill:#000;fill-opacity:1;fill-rule:nonzero;stroke:none" transform="translate(213.412 309.383)"/><path d="M0 0v-11.001h38.502V4.686L35.65 7.334l-2.445-2.445v-7.741h-1.018v2.037L28.52 2.241 25.363-.917v-1.731h-1.936v2.037l-3.259 1.833-2.343-2.342v-1.936h-2.343l-.814 8.964-2.445 6.519-2.852-6.519V0L4.889 3.667 0 0z" style="fill:#000;fill-opacity:1;fill-rule:nonzero;stroke:none" transform="translate(213.412 256.621)"/><path d="M0 0h9.371L-7.334-26.483H-17.52L0 0z" style="fill:#ed1d24;fill-opacity:1;fill-rule:nonzero;stroke:none" transform="translate(234.802 271.085)"/><path d="M0 0v32.348c0 .373.267.68.594.68h22.551c.325 0 .593-.307.593-.68V0c0-.375-.268-.681-.593-.681H.594C.267-.681 0-.375 0 0" style="fill:#00a651;fill-opacity:1;fill-rule:evenodd;stroke:none" transform="translate(218.563 188.827)"/><path d="m0 0 .442-20.492h8.421L4.082 0H0zm1.189 12.398H-.267l.186-8.752H3.23l-2.041 8.752zM-2.582 0l-.44-20.492h-8.424L-6.663 0h4.081zm-1.189 12.398h1.457l-.19-8.752h-3.31l2.043 8.752z" style="fill:#fff;fill-opacity:1;fill-rule:evenodd;stroke:none" transform="translate(231.525 208.856)"/><path d="M0 0h21.924v-1.094H19.3v-.978h-1.13v.978H3.476v-.978H2.347v.978H0V0z" style="fill:#fff;fill-opacity:1;fill-rule:evenodd;stroke:none" transform="translate(219.47 211.225)"/><path d="M0 0c6.708 0 12.228 5.497 12.228 12.205 0 6.731-5.52 12.231-12.228 12.231-6.732 0-12.231-5.5-12.231-12.231C-12.231 5.497-6.732 0 0 0" style="fill:#fff;fill-opacity:1;fill-rule:evenodd;stroke:none" transform="translate(173.501 295.274)"/><path d="M0 0c6.711 0 12.228 5.499 12.228 12.207 0 6.731-5.517 12.229-12.228 12.229-6.732 0-12.228-5.498-12.228-12.229C-12.228 5.499-6.732 0 0 0m0-3.05c8.408 0 15.28 6.873 15.28 15.257 0 8.41-6.872 15.282-15.28 15.282-8.406 0-15.278-6.872-15.278-15.282C-15.278 3.823-8.406-3.05 0-3.05" style="fill:#ed1d24;fill-opacity:1;fill-rule:evenodd;stroke:none" transform="translate(173.501 295.272)"/><path d="M0 0c6.708 0 12.228 5.496 12.228 12.204 0 6.731-5.52 12.231-12.228 12.231-6.732 0-12.231-5.5-12.231-12.231C-12.231 5.496-6.732 0 0 0" style="fill:#fff;fill-opacity:1;fill-rule:evenodd;stroke:none" transform="translate(173.501 244.142)"/><path d="M0 0c6.711 0 12.228 5.499 12.228 12.207 0 6.731-5.517 12.229-12.228 12.229-6.732 0-12.228-5.498-12.228-12.229C-12.228 5.499-6.732 0 0 0m0-3.051c8.408 0 15.28 6.873 15.28 15.258 0 8.41-6.872 15.282-15.28 15.282-8.406 0-15.278-6.872-15.278-15.282C-15.278 3.822-8.406-3.051 0-3.051" style="fill:#ed1d24;fill-opacity:1;fill-rule:evenodd;stroke:none" transform="translate(173.501 244.14)"/><path d="m0 0 2.02.21c.058-.458.229-.82.513-1.087.284-.266.611-.4.981-.4.423 0 .782.172 1.075.516.294.344.441.862.441 1.555 0 .649-.146 1.136-.437 1.461-.291.325-.67.487-1.136.487-.583 0-1.105-.257-1.566-.772l-1.646.238 1.039 5.506h5.362V5.816H2.821L2.504 4.02c.452.225.914.339 1.385.339.9 0 1.663-.328 2.288-.982.625-.654.938-1.503.938-2.547a3.82 3.82 0 0 0-.758-2.331c-.688-.933-1.643-1.4-2.865-1.4-.976 0-1.772.262-2.388.787C.488-1.59.12-.885 0 0" style="fill:#000;fill-opacity:1;fill-rule:nonzero;stroke:none" transform="translate(166.127 304.439)"/><path d="M0 0c-.245 0-.464-.078-.657-.235-.192-.156-.341-.436-.447-.84-.14-.524-.209-1.407-.209-2.649 0-1.24.062-2.093.187-2.558.125-.464.283-.773.473-.926A1.01 1.01 0 0 1 0-7.44c.245 0 .464.079.657.235.192.156.341.436.447.84.139.52.209 1.401.209 2.641 0 1.242-.062 2.095-.187 2.559C1-.701.843-.391.653-.235A.996.996 0 0 1 0 0m0 1.681c1.025 0 1.826-.365 2.403-1.096.688-.866 1.032-2.302 1.032-4.309 0-2.001-.347-3.439-1.039-4.315C1.823-8.76 1.025-9.121 0-9.121c-1.03 0-1.859.396-2.49 1.187-.63.791-.945 2.202-.945 4.233 0 1.991.347 3.425 1.039 4.3.573.722 1.371 1.082 2.396 1.082" style="fill:#000;fill-opacity:1;fill-rule:nonzero;stroke:none" transform="translate(177.952 310.659)"/><path d="M0 0c0-.404.114-.719.343-.945.228-.226.533-.339.912-.339.385 0 .693.114.924.342.231.229.347.545.347.949 0 .38-.115.685-.343.913-.229.229-.531.343-.906.343-.39 0-.7-.115-.931-.346C.115.686 0 .38 0 0m-.188-4.532c0-.558.143-.993.43-1.305.286-.313.643-.47 1.071-.47.419 0 .765.151 1.039.452.275.3.412.734.412 1.302 0 .495-.14.893-.419 1.194a1.383 1.383 0 0 1-1.061.451c-.495 0-.865-.17-1.107-.512a1.88 1.88 0 0 1-.365-1.112m-.231 2.49c-.524.221-.905.526-1.143.913A2.386 2.386 0 0 0-1.92.144c0 .789.276 1.441.827 1.956.55.515 1.334.772 2.348.772 1.006 0 1.787-.257 2.342-.772.556-.515.833-1.167.833-1.956 0-.49-.127-.927-.382-1.309a2.416 2.416 0 0 0-1.075-.877c.587-.235 1.033-.58 1.338-1.032.306-.452.459-.974.459-1.566 0-.976-.312-1.77-.935-2.381-.623-.611-1.452-.916-2.486-.916-.962 0-1.763.252-2.403.757-.755.597-1.132 1.415-1.132 2.454 0 .572.141 1.098.425 1.577.284.478.731.847 1.342 1.107" style="fill:#000;fill-opacity:1;fill-rule:nonzero;stroke:none" transform="translate(168.256 258.54)"/><path d="M0 0c-.245 0-.464-.078-.657-.235-.192-.156-.341-.436-.447-.84-.14-.525-.209-1.407-.209-2.649 0-1.24.062-2.093.187-2.558.125-.464.283-.772.473-.926A1.01 1.01 0 0 1 0-7.44c.245 0 .464.079.657.235.192.157.341.436.447.84.139.52.209 1.401.209 2.641 0 1.242-.062 2.095-.187 2.559C1-.701.843-.391.653-.235A.996.996 0 0 1 0 0m0 1.681c1.025 0 1.826-.365 2.403-1.096.688-.866 1.032-2.302 1.032-4.309 0-2.001-.347-3.439-1.039-4.315C1.823-8.76 1.025-9.121 0-9.121c-1.03 0-1.859.396-2.49 1.187-.63.791-.945 2.202-.945 4.232 0 1.992.347 3.426 1.039 4.301.573.722 1.371 1.082 2.396 1.082" style="fill:#000;fill-opacity:1;fill-rule:nonzero;stroke:none" transform="translate(177.952 259.73)"/><path d="M0 0c6.708 0 12.228 5.497 12.228 12.205 0 6.731-5.52 12.231-12.228 12.231-6.732 0-12.231-5.5-12.231-12.231C-12.231 5.497-6.732 0 0 0" style="fill:#fff;fill-opacity:1;fill-rule:evenodd;stroke:none" transform="translate(173.501 193.213)"/><path d="M0 0c6.711 0 12.228 5.499 12.228 12.207 0 6.731-5.517 12.229-12.228 12.229-6.732 0-12.228-5.498-12.228-12.229C-12.228 5.499-6.732 0 0 0m0-3.05c8.408 0 15.28 6.873 15.28 15.257 0 8.411-6.872 15.282-15.28 15.282-8.406 0-15.278-6.871-15.278-15.282C-15.278 3.823-8.406-3.05 0-3.05" style="fill:#ed1d24;fill-opacity:1;fill-rule:evenodd;stroke:none" transform="translate(173.501 193.21)"/><path d="M0 0h-2.028v7.642a6.983 6.983 0 0 0-2.619-1.537v1.84c.529.173 1.104.501 1.724.985.621.483 1.047 1.048 1.278 1.692H0V0z" style="fill:#000;fill-opacity:1;fill-rule:nonzero;stroke:none" transform="translate(166.797 199.86)"/><path d="M0 0c-.245 0-.464-.078-.657-.233-.192-.157-.341-.437-.447-.841-.14-.525-.209-1.407-.209-2.649 0-1.241.062-2.094.187-2.558.125-.465.283-.773.473-.927.19-.154.408-.231.653-.231.245 0 .464.078.657.235.192.156.341.436.447.839.139.521.209 1.401.209 2.642 0 1.242-.062 2.094-.187 2.558C1-.7.843-.39.653-.233.463-.078.245 0 0 0m0 1.682c1.025 0 1.826-.366 2.403-1.097.688-.866 1.032-2.301 1.032-4.308 0-2.001-.347-3.44-1.039-4.315C1.823-8.76 1.025-9.12 0-9.12c-1.03 0-1.859.395-2.489 1.187-.631.791-.946 2.202-.946 4.232 0 1.992.347 3.425 1.039 4.301.573.721 1.371 1.082 2.396 1.082" style="fill:#000;fill-opacity:1;fill-rule:nonzero;stroke:none" transform="translate(172.517 208.8)"/><path d="M0 0c-.245 0-.464-.078-.657-.233-.192-.157-.341-.437-.447-.841-.14-.525-.209-1.407-.209-2.649 0-1.241.062-2.094.187-2.558.125-.465.283-.773.473-.927.19-.154.408-.231.653-.231.245 0 .464.078.657.235.192.156.341.436.447.839.14.521.209 1.401.209 2.642 0 1.242-.062 2.094-.187 2.558C1-.7.843-.39.653-.233.463-.078.245 0 0 0m0 1.682c1.025 0 1.826-.366 2.403-1.097.688-.866 1.032-2.301 1.032-4.308 0-2.001-.347-3.44-1.039-4.315C1.823-8.76 1.025-9.12 0-9.12c-1.029 0-1.859.395-2.489 1.187-.631.791-.946 2.202-.946 4.232 0 1.992.347 3.425 1.039 4.301.573.721 1.371 1.082 2.396 1.082" style="fill:#000;fill-opacity:1;fill-rule:nonzero;stroke:none" transform="translate(179.997 208.8)"/></g></svg>