<svg xmlns="http://www.w3.org/2000/svg" width="76.17" height="102.537"><defs><clipPath clipPathUnits="userSpaceOnUse" id="b"><path d="M112.535 269.008h76.279v91.275h-76.279v-91.275z"/></clipPath><clipPath clipPathUnits="userSpaceOnUse" id="a"><path d="M0 0h311v595H0V0z"/></clipPath></defs><g clip-path="url(#a)" transform="matrix(1.25 0 0 -1.25 -150.166 447.496)"><path d="m0 0-59.838.405V80.92L0 80.932V0z" style="fill:#ffdb00;fill-opacity:1;fill-rule:nonzero;stroke:none" transform="translate(180.52 276.516)"/><path d="m0 0-59.838.405V80.92L0 80.932V0z" style="fill:none;stroke:#ed1d24;stroke-width:1.09800005;stroke-linecap:butt;stroke-linejoin:miter;stroke-miterlimit:4;stroke-opacity:1;stroke-dasharray:none" transform="translate(180.52 276.516)"/><path d="M0 0h-8.394L7.135 27.184 22.918 0H0z" style="fill:#fff;fill-opacity:1;fill-rule:evenodd;stroke:none" transform="translate(143.799 321.2)"/></g><g clip-path="url(#b)" transform="matrix(1.25 0 0 -1.25 -150.166 447.496)"><path d="M0 0h27.774L13.892 24.031 0 0zm29.136-3.104c.826 0 1.586.444 2 1.163a2.289 2.289 0 0 1 0 2.325l-15.232 26.37a2.325 2.325 0 0 1-4.027-.007L-3.359.384a2.331 2.331 0 0 1 0-2.325A2.337 2.337 0 0 1-1.34-3.104h30.476z" style="fill:#ed1d24;fill-opacity:1;fill-rule:evenodd;stroke:none" transform="translate(137.1 322.344)"/><path d="M0 0a2.423 2.423 0 0 1 2.418 2.419A2.423 2.423 0 0 1 0 4.837a2.423 2.423 0 0 1-2.42-2.418A2.424 2.424 0 0 1 0 0" style="fill:#74b845;fill-opacity:1;fill-rule:evenodd;stroke:none" transform="translate(150.879 323.777)"/><path d="M0 0a2.424 2.424 0 0 1 2.418 2.419A2.424 2.424 0 0 1 0 4.838a2.424 2.424 0 0 1-2.42-2.419A2.424 2.424 0 0 1 0 0" style="fill:#fff200;fill-opacity:1;fill-rule:evenodd;stroke:none" transform="translate(150.879 330.53)"/><path d="M0 0a2.424 2.424 0 0 1 2.418 2.419A2.424 2.424 0 0 1 0 4.838a2.424 2.424 0 0 1-2.42-2.419A2.424 2.424 0 0 1 0 0" style="fill:#ed1d24;fill-opacity:1;fill-rule:evenodd;stroke:none" transform="translate(150.879 337.281)"/><path d="m0 0-47.899.282v29.082L0 29.459V0z" style="fill:#ed1d24;fill-opacity:1;fill-rule:nonzero;stroke:none" transform="translate(174.94 280.61)"/><path d="m0 0-47.899.282v29.082L0 29.459V0z" style="fill:none;stroke:#bcbec0;stroke-width:1.64600003;stroke-linecap:butt;stroke-linejoin:miter;stroke-miterlimit:4;stroke-opacity:1;stroke-dasharray:none" transform="translate(174.94 280.61)"/><path d="M0 0a.744.744 0 0 1 .505.256c.126.148.19.348.19.601 0 .234-.061.43-.182.59A.682.682 0 0 1 0 1.712V0zm-.682 1.712a.73.73 0 0 1-.507-.255c-.126-.149-.188-.349-.188-.6 0-.235.06-.431.182-.59A.692.692 0 0 1-.682 0v1.712zm0 .881H0v-.302c.417-.011.754-.148 1.011-.41.257-.263.386-.604.386-1.024a1.46 1.46 0 0 0-.369-1.002C.783-.424.439-.577 0-.601v-.406h-.682v.406c-.44.024-.784.177-1.03.457A1.475 1.475 0 0 0-2.081.857c0 .268.054.505.16.713.107.207.266.377.477.51.211.133.465.203.762.211v.302z" style="fill:#dadbdc;fill-opacity:1;fill-rule:nonzero;stroke:none" transform="translate(131.242 303.376)"/><path d="M0 0v.569h.654c-.401.422-.601.874-.601 1.36 0 .424.143.781.431 1.072.287.29.681.435 1.182.435.496 0 .888-.144 1.178-.433.288-.289.433-.647.433-1.074 0-.486-.201-.938-.601-1.36h.657V0H1.786v.544c.259.097.455.254.588.47.133.217.2.466.2.749 0 .29-.076.545-.23.763-.152.218-.378.327-.678.327-.298 0-.524-.108-.678-.325a1.29 1.29 0 0 1-.23-.765 1.4 1.4 0 0 1 .199-.75c.133-.216.329-.372.589-.469V0H0z" style="fill:#dadbdc;fill-opacity:1;fill-rule:nonzero;stroke:none" transform="translate(132.827 302.505)"/><path d="M0 0v2.807h-1.002v.572h2.684v-.572h-1V0H0z" style="fill:#dadbdc;fill-opacity:1;fill-rule:nonzero;stroke:none" transform="translate(137.253 302.505)"/><path d="M0 0c0-.383.089-.672.265-.87a.865.865 0 0 1 .673-.296c.272 0 .495.098.67.294.174.196.262.489.262.881 0 .388-.085.677-.256.867-.169.191-.395.285-.676.285a.87.87 0 0 1-.68-.288C.086.68 0 .389 0 0m-.703-.023c0 .344.051.633.154.867.077.172.182.326.315.463.133.136.279.238.437.304.211.089.453.134.729.134.497 0 .896-.155 1.194-.463.299-.309.449-.738.449-1.289 0-.545-.149-.972-.445-1.28-.297-.308-.694-.462-1.19-.462-.501 0-.901.153-1.198.459-.296.307-.445.729-.445 1.267" style="fill:#dadbdc;fill-opacity:1;fill-rule:nonzero;stroke:none" transform="translate(139.619 304.196)"/><path d="M0 0v3.379h2.505v-.572H.683v-.749h1.696v-.569H.683v-.92H2.57V0H0z" style="fill:#dadbdc;fill-opacity:1;fill-rule:nonzero;stroke:none" transform="translate(142.488 302.505)"/><path d="m0 0 1.208-3.379h-.74L-.387-.881l-.827-2.498h-.724L-.728 0H0z" style="fill:#dadbdc;fill-opacity:1;fill-rule:nonzero;stroke:none" transform="translate(146.995 305.884)"/><path d="M0 0v3.379h2.505v-.572H.683v-.749h1.696v-.569H.683v-.92H2.57V0H0z" style="fill:#dadbdc;fill-opacity:1;fill-rule:nonzero;stroke:none" transform="translate(148.313 302.505)"/><path d="M0 0h2.379v-.574H.683v-2.805H0V0z" style="fill:#dadbdc;fill-opacity:1;fill-rule:nonzero;stroke:none" transform="translate(151.237 305.884)"/><path d="m0 0 1.154 1.763L.108 3.379h.798l.677-1.086.664 1.086h.791L1.986 1.738 3.141 0h-.822l-.75 1.168L.818 0H0z" style="fill:#dadbdc;fill-opacity:1;fill-rule:nonzero;stroke:none" transform="translate(153.484 302.505)"/><path d="M0 0c0-.383.089-.672.265-.87a.865.865 0 0 1 .673-.296c.272 0 .495.098.67.294.174.196.262.489.262.881 0 .388-.085.677-.256.867-.169.191-.395.285-.676.285a.87.87 0 0 1-.68-.288C.086.68 0 .389 0 0m-.703-.023c0 .344.051.633.154.867.077.172.183.326.315.463.133.136.279.238.437.304.211.089.453.134.729.134.497 0 .896-.155 1.194-.463.299-.309.449-.738.449-1.289 0-.545-.149-.972-.445-1.28-.297-.308-.694-.462-1.19-.462-.501 0-.901.153-1.198.459-.296.307-.445.729-.445 1.267" style="fill:#dadbdc;fill-opacity:1;fill-rule:nonzero;stroke:none" transform="translate(157.304 304.196)"/><path d="M0 0v3.379h1.02l.614-2.305.606 2.305h1.023V0h-.634v2.659L1.958 0h-.656L.633 2.659V0H0z" style="fill:#dadbdc;fill-opacity:1;fill-rule:nonzero;stroke:none" transform="translate(160.165 302.505)"/><path d="M0 0v3.379h2.505v-.572H.683v-.749h1.696v-.569H.683v-.92H2.57V0H0z" style="fill:#dadbdc;fill-opacity:1;fill-rule:nonzero;stroke:none" transform="translate(163.87 302.505)"/><path d="M0 0v3.379h.664l1.382-2.257v2.257h.634V0h-.684L.634 2.203V0H0z" style="fill:#dadbdc;fill-opacity:1;fill-rule:nonzero;stroke:none" transform="translate(166.79 302.505)"/><path d="M0 0v3.379h.683v-1.33h1.336v1.33h.682V0h-.682v1.477H.683V0H0z" style="fill:#dadbdc;fill-opacity:1;fill-rule:nonzero;stroke:none" transform="translate(169.957 302.505)"/><path d="m0 0-.796 2.115L-1.568 0H0zm1.005-.596h-3.548l1.378 3.536h.754L1.005-.596z" style="fill:#dadbdc;fill-opacity:1;fill-rule:nonzero;stroke:none" transform="translate(142.456 298.161)"/><path d="M143.801 297.566h.714v3.536h-.714v-3.536z" style="fill:#dadbdc;fill-opacity:1;fill-rule:nonzero;stroke:none"/><path d="m0 0-.488 1.312L-.965 0H0zm1.314-1.399H.537l-.309.803h-1.413l-.292-.803h-.757l1.378 3.536h.754l1.416-3.536z" style="fill:#dadbdc;fill-opacity:1;fill-rule:nonzero;stroke:none" transform="translate(147.07 298.964)"/><path d="M0 0v-.945h.66c.258 0 .42.006.49.021a.451.451 0 0 1 .26.141.437.437 0 0 1 .099.301.457.457 0 0 1-.077.27l-.223.161C1.112-.017.901 0 .576 0H0zm0 1.406V.589h.467C.745.589.919.592.986.6a.48.48 0 0 1 .289.127.375.375 0 0 1 .104.276c0 .11-.03.199-.09.266a.41.41 0 0 1-.27.125c-.07.008-.274.012-.609.012H0zm-.714.589H.699c.28 0 .489-.013.626-.035a.935.935 0 0 0 .369-.146.91.91 0 0 0 .271-.296.795.795 0 0 0 .108-.414.829.829 0 0 0-.496-.766.945.945 0 0 0 .496-.321.853.853 0 0 0 .174-.534c0-.16-.037-.317-.112-.468a.96.96 0 0 0-.306-.365 1.028 1.028 0 0 0-.478-.168c-.12-.013-.407-.02-.862-.023H-.714v3.536z" style="fill:#dadbdc;fill-opacity:1;fill-rule:nonzero;stroke:none" transform="translate(149.48 299.107)"/><path d="m0 0-.488 1.312L-.965 0H0zm1.314-1.399H.537l-.309.803h-1.412l-.293-.803h-.757l1.378 3.536h.754l1.416-3.536z" style="fill:#dadbdc;fill-opacity:1;fill-rule:nonzero;stroke:none" transform="translate(154.204 298.964)"/><path d="M0 0h2.448v-.599H.88l.914-1.089L.787-2.94h1.736v-.596H-.046v.66l.949 1.188L0-.638V0z" style="fill:#dadbdc;fill-opacity:1;fill-rule:nonzero;stroke:none" transform="translate(155.8 301.102)"/><path d="M0 0v3.536h.714V2.144h1.398v1.392h.714V0h-.714v1.546H.714V0H0z" style="fill:#dadbdc;fill-opacity:1;fill-rule:nonzero;stroke:none" transform="translate(158.864 297.565)"/><path d="M0 0h2.448v-.598H.88l.914-1.089L.787-2.939h1.736v-.596H-.046v.66l.949 1.188L0-.637V0z" style="fill:#dadbdc;fill-opacity:1;fill-rule:nonzero;stroke:none" transform="translate(135.075 296.161)"/><path d="M0 0v3.535h2.622v-.598H.714v-.783h1.775v-.595H.714V.596h1.975V0H0z" style="fill:#dadbdc;fill-opacity:1;fill-rule:nonzero;stroke:none" transform="translate(138.135 292.626)"/><path d="M0 0v3.535h.714V1.966l1.443 1.569h.959L1.785 2.159 3.189 0h-.924l-.972 1.659-.579-.59V0H0z" style="fill:#dadbdc;fill-opacity:1;fill-rule:nonzero;stroke:none" transform="translate(142.812 292.626)"/><path d="M0 0v1.488l-1.296 2.047h.837l.832-1.398.816 1.398h.822l-1.3-2.051V0H0z" style="fill:#dadbdc;fill-opacity:1;fill-rule:nonzero;stroke:none" transform="translate(147.299 292.626)"/><path d="M0 0v-1.003h.391c.281 0 .47.019.564.055l.223.174a.47.47 0 0 1 .081.276.46.46 0 0 1-.4.474A3.316 3.316 0 0 1 .345 0H0zm-.714-2.937V.598H.432c.434 0 .717-.017.849-.052A.927.927 0 0 0 1.79.199c.136-.178.205-.407.205-.688 0-.217-.04-.4-.118-.547a.972.972 0 0 0-.3-.349 1.028 1.028 0 0 0-.371-.167 4.03 4.03 0 0 0-.74-.052H0v-1.333h-.714z" style="fill:#dadbdc;fill-opacity:1;fill-rule:nonzero;stroke:none" transform="translate(150.378 295.563)"/><path d="M0 0v2.937h-1.049v.598H1.76v-.598H.714V0H0z" style="fill:#dadbdc;fill-opacity:1;fill-rule:nonzero;stroke:none" transform="translate(153.756 292.626)"/><path d="M0 0v.596h.686c-.42.441-.63.914-.63 1.422 0 .444.15.818.451 1.123.3.303.713.455 1.237.455.52 0 .93-.151 1.233-.453.302-.302.453-.678.453-1.125 0-.508-.21-.981-.629-1.422h.687V0H1.869v.569c.273.102.477.265.617.492.139.228.209.488.209.784 0 .304-.081.57-.24.798-.16.229-.397.343-.711.343-.312 0-.548-.113-.708-.34a1.349 1.349 0 0 1-.242-.801c0-.297.07-.559.208-.785a1.19 1.19 0 0 1 .617-.491V0H0z" style="fill:#dadbdc;fill-opacity:1;fill-rule:nonzero;stroke:none" transform="translate(155.765 292.626)"/><path d="M0 0v3.535h1.069l.642-2.412.633 2.412h1.071V0h-.662v2.783L2.051 0h-.688L.664 2.783V0H0z" style="fill:#dadbdc;fill-opacity:1;fill-rule:nonzero;stroke:none" transform="translate(159.84 292.626)"/><path d="m0 0-.488 1.312L-.965 0H0zm1.314-1.399H.537l-.309.803h-1.412l-.293-.803h-.757l1.378 3.535h.754l1.416-3.535z" style="fill:#dadbdc;fill-opacity:1;fill-rule:nonzero;stroke:none" transform="translate(165.838 294.025)"/><path d="M0 0v3.535h.714V2.144h1.398v1.391h.714V0h-.714v1.546H.714V0H0z" style="fill:#dadbdc;fill-opacity:1;fill-rule:nonzero;stroke:none" transform="translate(132.139 287.687)"/><path d="M0 0v.384a1.035 1.035 0 0 0-.849-.442.932.932 0 0 0-.463.114.663.663 0 0 0-.297.318c-.061.136-.092.325-.092.567v1.621h.678V1.385c0-.361.012-.581.037-.663L-.849.53A.412.412 0 0 1-.598.459c.116 0 .219.031.311.094L-.1.79c.035.094.051.325.051.691v1.081h.678V0H0z" style="fill:#dadbdc;fill-opacity:1;fill-rule:nonzero;stroke:none" transform="translate(137.385 287.687)"/><path d="M0 0h.624v-.35c.224.272.49.408.798.408a.854.854 0 0 0 .427-.102.775.775 0 0 0 .297-.306c.113.137.234.238.364.306.13.068.269.102.417.102a.928.928 0 0 0 .477-.115.7.7 0 0 0 .293-.336c.046-.11.07-.287.07-.531v-1.638h-.678v1.464c0 .254-.023.418-.07.492-.063.097-.159.145-.29.145l-.267-.087a.477.477 0 0 1-.181-.255c-.038-.111-.056-.288-.056-.528v-1.231h-.677v1.404c0 .249-.012.41-.037.483L1.4-.514l-.207.053a.498.498 0 0 1-.282-.085.464.464 0 0 1-.18-.243C.696-.895.677-1.072.677-1.317v-1.245H0V0z" style="fill:#dadbdc;fill-opacity:1;fill-rule:nonzero;stroke:none" transform="translate(138.666 290.248)"/><path d="M0 0c0-.287.057-.501.172-.638a.521.521 0 0 1 .417-.206c.157 0 .288.064.393.189.104.126.156.333.156.622 0 .268-.053.467-.16.598A.505.505 0 0 1 .577.76.52.52 0 0 1 .164.568C.055.44 0 .251 0 0m-.67 1.238h.631V.861a.96.96 0 0 0 .334.314.978.978 0 0 0 1.223-.23c.207-.232.311-.557.311-.974 0-.428-.105-.76-.314-.997a.977.977 0 0 0-.76-.356.85.85 0 0 0-.384.085 1.256 1.256 0 0 0-.363.289v-1.29H-.67v3.536z" style="fill:#dadbdc;fill-opacity:1;fill-rule:nonzero;stroke:none" transform="translate(143.758 289.01)"/><path d="M0 0c-.004.195-.055.345-.151.447A.47.47 0 0 1-.504.6.468.468 0 0 1-.87.438C-.967.33-1.014.184-1.012 0H0zm-.039-.686.676-.113a1.105 1.105 0 0 0-.411-.566c-.187-.129-.422-.194-.703-.194-.446 0-.775.146-.989.437-.169.233-.253.527-.253.883 0 .424.111.757.333.997.222.24.502.361.841.361.382 0 .682-.126.903-.378C.578.49.683.104.673-.416h-1.698c.006-.2.06-.357.164-.468a.515.515 0 0 1 .392-.169c.106 0 .195.03.267.088.072.058.127.15.163.279" style="fill:#dadbdc;fill-opacity:1;fill-rule:nonzero;stroke:none" transform="translate(147.646 289.187)"/><path d="M0 0c0-.273.038-.471.112-.593a.513.513 0 0 1 .459-.264c.156 0 .289.065.398.198.109.133.164.331.164.595 0 .293-.053.506-.159.635a.504.504 0 0 1-.407.194.509.509 0 0 1-.404-.191C.054.446 0 .254 0 0m1.808-1.336h-.629v.377a1.021 1.021 0 0 0-.37-.327.944.944 0 0 0-.431-.107.977.977 0 0 0-.755.355c-.21.237-.316.569-.316.993 0 .434.102.764.307.989.204.227.462.34.774.34.286 0 .534-.12.743-.358V2.2h.677v-3.536z" style="fill:#dadbdc;fill-opacity:1;fill-rule:nonzero;stroke:none" transform="translate(149.413 289.022)"/><path d="M0 0v-1.003h.391c.281 0 .47.019.564.055l.223.174c.055.079.082.17.082.276a.46.46 0 0 1-.114.318.495.495 0 0 1-.287.156A3.307 3.307 0 0 1 .345 0H0zm-.714-2.937V.598H.432c.434 0 .717-.017.849-.052A.927.927 0 0 0 1.79.199c.136-.178.205-.407.205-.688 0-.217-.04-.4-.118-.548a.977.977 0 0 0-.3-.348 1.028 1.028 0 0 0-.371-.167 4.023 4.023 0 0 0-.74-.052H0v-1.333h-.714z" style="fill:#dadbdc;fill-opacity:1;fill-rule:nonzero;stroke:none" transform="translate(153.98 290.624)"/><path d="M0 0c-.004.195-.055.345-.151.447A.47.47 0 0 1-.504.6.468.468 0 0 1-.87.438C-.967.33-1.014.184-1.012 0H0zm-.039-.686.676-.113a1.105 1.105 0 0 0-.411-.566c-.187-.129-.422-.194-.703-.194-.446 0-.775.146-.989.437-.169.233-.253.527-.253.883 0 .424.111.757.333.997.222.24.502.361.841.361.382 0 .682-.126.903-.378C.578.49.683.104.673-.416h-1.698c.006-.2.06-.357.164-.468a.515.515 0 0 1 .392-.169c.106 0 .195.03.267.088.072.058.127.15.163.279" style="fill:#dadbdc;fill-opacity:1;fill-rule:nonzero;stroke:none" transform="translate(158.078 289.187)"/><path d="M159.304 287.687h.677v3.535h-.677v-3.535zM160.676 287.687h.677v3.535h-.677v-3.535z" style="fill:#dadbdc;fill-opacity:1;fill-rule:nonzero;stroke:none"/><path d="m0 0-.668-.121a.484.484 0 0 1-.153.302.46.46 0 0 1-.31.101.507.507 0 0 1-.404-.175c-.101-.117-.15-.312-.15-.584 0-.304.05-.519.152-.644a.503.503 0 0 1 .412-.189.46.46 0 0 1 .316.11c.081.073.139.199.174.378l.665-.114c-.069-.305-.202-.536-.398-.692-.197-.156-.459-.234-.788-.234-.375 0-.674.118-.896.355-.223.236-.335.563-.335.981 0 .423.112.752.336.988.223.236.525.354.906.354.312 0 .56-.068.744-.202C-.212.479-.08.276 0 0" style="fill:#dadbdc;fill-opacity:1;fill-rule:nonzero;stroke:none" transform="translate(164.281 289.49)"/><path d="M0 0a3.851 3.851 0 0 0-.413-.104C-.6-.145-.724-.184-.782-.223l-.132-.238.107-.246a.368.368 0 0 1 .27-.103c.121 0 .238.039.349.12l.161.224c.018.058.027.168.027.331V0zm-.907.549-.614.111c.068.248.187.431.356.55.169.119.42.179.752.179.303 0 .528-.036.676-.108a.67.67 0 0 0 .313-.272c.06-.111.09-.312.09-.607L.659-.389c0-.225.011-.391.032-.498.022-.107.063-.221.123-.344H.143l-.066.201-.023.079a1.241 1.241 0 0 0-.372-.253 1.054 1.054 0 0 0-.423-.084c-.263 0-.47.071-.623.214a.714.714 0 0 0-.228.542.72.72 0 0 0 .104.388c.069.113.166.2.291.261.124.06.304.112.539.157.316.059.536.115.658.167v.067c0 .131-.032.223-.096.279C-.161.843-.282.87-.46.87A.484.484 0 0 1-.743.799a.503.503 0 0 1-.164-.25" style="fill:#dadbdc;fill-opacity:1;fill-rule:nonzero;stroke:none" transform="translate(166.209 288.917)"/><path d="M0 0h-.677v1.308c0 .275-.015.454-.043.536l-.142.19-.236.067a.547.547 0 0 1-.315-.096.496.496 0 0 1-.192-.257c-.034-.106-.052-.302-.052-.588V0h-.678v2.562h.631v-.377c.223.289.504.435.843.435.149 0 .287-.028.411-.082a.691.691 0 0 0 .281-.206.753.753 0 0 0 .132-.285C-.012 1.941 0 1.79 0 1.592V0z" style="fill:#dadbdc;fill-opacity:1;fill-rule:nonzero;stroke:none" transform="translate(169.872 287.687)"/><path d="m0 0 .692-.22C.585-.606.409-.892.163-1.079c-.248-.188-.561-.281-.94-.281-.47 0-.856.159-1.158.481-.302.321-.453.759-.453 1.315 0 .589.152 1.045.456 1.371.304.326.704.489 1.199.489.432 0 .783-.128 1.053-.384.161-.151.281-.369.362-.65l-.707-.17a.745.745 0 0 1-.261.434.747.747 0 0 1-.484.16.799.799 0 0 1-.637-.283C-1.57 1.216-1.653.91-1.653.49c0-.448.081-.767.242-.956A.779.779 0 0 1-.785-.75c.19 0 .354.06.49.181.137.12.235.31.295.569" style="fill:#dadbdc;fill-opacity:1;fill-rule:nonzero;stroke:none" transform="translate(142.91 284.048)"/><path d="M0 0h-.677v2.562h.629v-.365c.107.172.205.286.29.34a.534.534 0 0 0 .294.083.857.857 0 0 0 .446-.129l-.21-.59a.597.597 0 0 1-.319.11l-.241-.078C.146 1.881.094 1.786.057 1.65.019 1.513 0 1.226 0 .791V0z" style="fill:#dadbdc;fill-opacity:1;fill-rule:nonzero;stroke:none" transform="translate(144.858 282.747)"/><path d="M0 0c0-.254.061-.449.181-.584a.576.576 0 0 1 .447-.203c.176 0 .325.068.445.203.119.135.179.331.179.588 0 .251-.06.444-.179.579a.573.573 0 0 1-.445.203.576.576 0 0 1-.447-.203C.061.448 0 .254 0 0m-.695.035c0 .225.056.444.168.654.11.211.268.372.471.483.203.111.43.167.681.167.388 0 .705-.127.953-.379.247-.25.371-.569.371-.952 0-.389-.125-.71-.374-.964a1.27 1.27 0 0 0-.945-.383c-.235 0-.459.054-.672.159a1.09 1.09 0 0 0-.485.467 1.543 1.543 0 0 0-.168.748" style="fill:#dadbdc;fill-opacity:1;fill-rule:nonzero;stroke:none" transform="translate(146.669 284.028)"/><path d="m0 0 .68.103a.498.498 0 0 1 .177-.3c.087-.068.212-.102.37-.102.176 0 .308.032.396.097l.09.181-.049.127c-.034.032-.11.061-.227.089C.891.315.545.426.398.525a.66.66 0 0 0-.304.577.71.71 0 0 0 .263.56c.175.151.447.227.816.227.349 0 .61-.058.78-.172a.876.876 0 0 0 .353-.507l-.639-.118a.4.4 0 0 1-.156.23.578.578 0 0 1-.327.079c-.179 0-.306-.025-.383-.075l-.077-.137.067-.123c.061-.045.272-.109.634-.191.36-.082.612-.182.755-.301.142-.121.213-.289.213-.504 0-.235-.099-.436-.294-.606-.197-.168-.487-.253-.872-.253-.348 0-.625.071-.828.212A.978.978 0 0 0 0 0" style="fill:#dadbdc;fill-opacity:1;fill-rule:nonzero;stroke:none" transform="translate(148.91 283.478)"/><path d="m0 0 .68.103a.503.503 0 0 1 .177-.3c.087-.068.212-.102.37-.102.176 0 .308.032.396.097l.09.181-.049.127c-.034.032-.11.061-.227.089C.891.315.545.426.398.525a.66.66 0 0 0-.304.577.71.71 0 0 0 .263.56c.175.151.447.227.816.227.349 0 .61-.058.78-.172a.876.876 0 0 0 .353-.507l-.639-.118a.4.4 0 0 1-.156.23.578.578 0 0 1-.327.079c-.179 0-.306-.025-.383-.075l-.077-.137.067-.123c.061-.045.272-.109.634-.191.36-.082.612-.182.755-.301.142-.121.213-.289.213-.504 0-.235-.099-.436-.294-.606-.197-.168-.487-.253-.872-.253-.348 0-.625.071-.828.212A.978.978 0 0 0 0 0" style="fill:#dadbdc;fill-opacity:1;fill-rule:nonzero;stroke:none" transform="translate(151.657 283.478)"/><path d="M0 0h.677v-2.562H0V0zm0 .973h.677V.347H0v.626z" style="fill:#dadbdc;fill-opacity:1;fill-rule:nonzero;stroke:none" transform="translate(154.644 285.309)"/><path d="M0 0h-.677v1.308c0 .275-.015.454-.043.536l-.142.19-.236.067a.543.543 0 0 1-.315-.096.496.496 0 0 1-.192-.257c-.034-.106-.052-.302-.052-.588V0h-.678v2.562h.631v-.377c.223.289.503.435.843.435.149 0 .286-.028.411-.082a.699.699 0 0 0 .281-.205.74.74 0 0 0 .131-.286C-.012 1.941 0 1.79 0 1.592V0z" style="fill:#dadbdc;fill-opacity:1;fill-rule:nonzero;stroke:none" transform="translate(158.345 282.747)"/><path d="M0 0c0-.271.052-.471.158-.597a.493.493 0 0 1 .39-.189c.165 0 .305.065.419.194.115.13.171.321.171.575 0 .266-.054.463-.164.592a.52.52 0 0 1-.415.192.501.501 0 0 1-.401-.189C.052.451 0 .259 0 0m-.606-1.503.774-.093.09-.186c.065-.049.165-.072.304-.072.176 0 .309.026.397.079l.135.171c.022.057.033.16.033.311v.374c-.203-.276-.459-.415-.768-.415a.944.944 0 0 0-.817.437c-.158.23-.237.516-.237.858 0 .43.103.758.31.984a.997.997 0 0 0 .771.341c.316 0 .578-.139.783-.418v.36h.635v-2.299c0-.302-.025-.528-.075-.677a.843.843 0 0 0-.21-.353.926.926 0 0 0-.36-.199 1.874 1.874 0 0 0-.571-.073c-.434 0-.741.075-.924.223a.702.702 0 0 0-.272.566l.002.081z" style="fill:#dadbdc;fill-opacity:1;fill-rule:nonzero;stroke:none" transform="translate(159.576 284.08)"/></g></svg>