<?xml version="1.0" encoding="UTF-8"?>
<!DOCTYPE svg PUBLIC "-//W3C//DTD SVG 1.1//EN" "http://www.w3.org/Graphics/SVG/1.1/DTD/svg11.dtd">
<!-- Creator: CorelDRAW X6 -->
<svg xmlns="http://www.w3.org/2000/svg" xml:space="preserve" width="21cm" height="29.7cm" version="1.1" style="shape-rendering:geometricPrecision; text-rendering:geometricPrecision; image-rendering:optimizeQuality; fill-rule:evenodd; clip-rule:evenodd"
viewBox="0 0 21000 29700"
 xmlns:xlink="http://www.w3.org/1999/xlink">
 <defs>
  <style type="text/css">
   <![CDATA[
    .fil2 {fill:black}
    .fil0 {fill:#04802A}
    .fil3 {fill:#F8CD01}
    .fil1 {fill:#F8FBF8}
   ]]>
  </style>
 </defs>
 <g id="Слой_x0020_1">
  <metadata id="CorelCorpID_0Corel-Layer"/>
  <g id="_803503800">
   <path class="fil0" d="M9349 26226c-41,275 -215,542 -532,395 -233,-107 -262,-479 -221,-779 87,-649 892,-560 753,384zm-7984 -103c-49,-503 340,-869 788,-911 199,-18 1395,-4 1702,-5 567,-1 1134,-2 1701,-3 1278,-1 1201,1608 159,1685 -519,38 -1169,5 -1702,6 -567,2 -1134,3 -1701,3 -532,1 -898,-279 -947,-775zm8740 102l1 406 -233 -3 -2 -863 214 -4 0 99c68,-35 268,-266 511,7 67,-54 124,-123 258,-127 389,-12 288,457 289,887l-230 2c0,-211 44,-647 -75,-703 -277,-131 -211,574 -210,704l-233 -3c0,-135 -1,-269 -1,-403 0,-136 22,-309 -120,-309 -154,0 -169,163 -169,310zm-2103 -356c532,-118 602,390 441,614 -201,282 -683,217 -719,-176l212 -20c60,85 61,190 208,170 219,-30 184,-511 -100,-411 -149,52 11,104 -293,58l108 -646 609 -3 0 223 -438 10 -28 181zm-918 -70l-222 -14c30,-207 108,-307 303,-341 460,-79 610,364 333,638 -119,118 -276,232 -315,319l455 4 0 222 -798 9c64,-477 600,-514 554,-938 -256,-170 -265,-3 -310,101zm-5396 -5227c200,-55 1214,-22 1502,-22 326,-1 1231,-63 1454,74 178,110 233,266 232,545 0,251 1,503 2,754 0,483 96,1027 -363,1145 -219,57 -1217,21 -1514,21 -326,1 -1239,62 -1455,-73 -174,-109 -231,-273 -231,-546 0,-251 -1,-502 -1,-754 -1,-520 -108,-1014 374,-1144zm5258 -1279l203 -1 1 770 -75 2 -58 1 -70 -9 -1 -763zm-3461 -284l203 -1 2 1060 -75 1 -58 2 -70 -9 -2 -1053zm864 1079c-524,0 -509,-812 -1,-812 533,-1 537,811 1,812zm-1565 2c-524,1 -510,-811 -2,-812 533,-1 537,811 2,812zm3651 -238c-46,-101 -254,-103 -354,-147 -106,-45 -178,-191 -90,-315 88,-125 513,-244 625,114l-180 18c-50,-50 -44,-85 -137,-95 -81,-9 -123,6 -152,58 69,149 452,54 493,297 57,341 -602,458 -709,51l196 -16c39,59 56,100 138,111 82,11 143,-9 170,-76zm-947 2c-46,-101 -254,-104 -355,-147 -105,-45 -177,-191 -89,-316 88,-124 513,-244 625,114l-180 19c-51,-50 -44,-85 -138,-95 -81,-9 -122,5 -151,58 69,148 452,54 492,297 58,341 -601,457 -708,51l196 -16c39,59 56,100 138,111 82,10 142,-10 170,-76zm1457 -851l203 -1 1 171 -76 1 -58 2 -69 -9 -1 -164zm-5681 10l217 3 1 446 237 -239c201,-231 120,-218 469,-214l-382 419 408 637 -69 7c-185,9 -190,8 -236,-54l-106 -184c-43,-76 -110,-173 -138,-251 -240,127 -183,268 -182,486l-217 -5 -2 -1051zm7109 -1463l235 7 2 1106 -69 6 -96 2 -70 -9 -2 -1112zm-3536 565c-1,-348 199,-580 532,-581 774,-1 720,1159 41,1160 -366,1 -572,-204 -573,-579zm-2436 4c0,-348 200,-580 533,-581 773,-1 720,1159 40,1160 -365,1 -572,-204 -573,-579zm1252 557c48,-180 133,-387 199,-570 230,-638 119,-554 448,-545l391 1114 -247 0c-69,-254 -188,-554 -276,-808l-216 629c-72,222 -32,182 -299,180zm3919 -604c-50,-50 -270,-270 -282,-332 -6,-36 -1,-140 -1,-189l779 6 0 184 -495 5c39,71 94,107 148,178 51,66 96,89 136,163l-308 390 544 3 0 187c-171,7 -679,17 -818,-4 -1,-230 -4,-201 106,-340 60,-74 158,-175 191,-251zm-1082 2c-322,-322 -283,-280 -284,-522l779 7 1 183 -495 6c43,78 243,266 284,341 -43,61 -102,124 -155,189 -60,73 -96,121 -154,201l544 3 1 187c-172,7 -680,17 -819,-5 0,-229 -3,-200 107,-339 59,-74 157,-175 191,-251zm-5218 -514l228 4 5 476 440 -479 302 3 -398 440 427 675 -294 1c-21,-62 -260,-475 -303,-512 -235,150 -178,259 -177,510l-229 4 -1 -1122zm3793 -1549l203 -2 2 770 -76 2 -58 1 -69 -9 -2 -762zm-1991 3l203 -2 2 771 -76 1 -58 2 -69 -10 -2 -762zm719 83c228,-210 351,-72 451,1 71,-44 97,-109 234,-109 118,0 188,52 220,128 46,108 26,513 27,662l-206 1c0,-195 31,-462 -33,-621 -287,-57 -220,245 -220,625l-204 -9c-1,-145 38,-521 -48,-612 -271,-150 -207,443 -207,622l-208 -11 -1 -760 191 -4 4 87zm-1210 -5c50,-128 152,-100 285,-69l-57 204c-101,-13 -63,-28 -178,-7 -79,134 -57,368 -56,559l-205 6 -2 -773c244,0 157,-14 200,52 2,2 5,17 6,14 2,-3 4,10 7,14zm2482 -371l203 -2 0 171 -75 2 -58 1 -70 -9 0 -163zm-1991 3l203 -2 0 171 -75 2 -58 2 -70 -10 0 -163zm-1798 1l783 0 1 170 -567 3 0 232 526 2 1 168 -527 4 4 309 583 1 0 171 -802 -6 -2 -1054zm5016 -1459l228 3 4 441 433 -1 0 -438 232 -7 2 1122 -232 -8 -2 -475 -436 1 1 480 -228 3 -2 -1121zm-2687 4l228 4 2 441 436 -1 -1 -439 232 -6 2 1121 -232 -7 -2 -476 -436 1 1 480 -228 4 -2 -1122zm-1179 2c409,0 880,-86 857,367 -18,364 -367,329 -628,329l1 422 -228 4 -2 -1122zm2428 -4l317 0c50,13 217,689 230,745l196 -745 343 2 2 1114c-71,5 -151,13 -214,-11l-15 -783c-62,104 -79,283 -112,416 -102,417 -5,383 -312,382l-212 -832 -7 829 -215 5 -1 -1122zm-3607 6l829 1 1 190 -602 2 4 252 555 4 1 184 -559 5 4 290 619 -1 0 193 -850 2 -2 -1122zm6616 -1632l203 -1 1 770 -76 2 -58 1 -69 -9 -1 -763zm-4485 8l203 -1 1 770 -75 1 -58 2 -70 -10 -1 -762zm3659 83c55,-103 246,-156 381,-63 219,151 214,559 0,713 -161,116 -268,25 -378,-41l-1 360 -205 1 -2 -1061 187 1 18 90zm-4485 8c55,-104 247,-157 382,-63 218,150 213,559 0,712 -162,117 -269,25 -379,-40l-1 360 -205 0 -1 -1060 187 1 17 90zm3603 694c-524,1 -509,-811 -1,-812 533,-1 536,811 1,812zm-1799 -229c-46,-101 -254,-103 -355,-147 -105,-45 -177,-191 -89,-315 88,-125 513,-244 624,114l-180 18c-50,-50 -43,-85 -137,-95 -81,-9 -122,6 -152,58 69,149 452,54 493,297 58,341 -601,458 -708,51l196 -16c128,195 278,106 308,35zm502 -851l207 5 5 533c257,-205 54,-254 469,-249 -38,73 -75,81 -130,143 -44,49 -80,97 -117,145 86,155 195,321 271,485l-221 -1c-23,-59 -64,-125 -92,-177l-72 -121c-20,-27 -15,-19 -29,-32 -115,113 -83,125 -82,327l-207 5 -2 -1063zm3004 -3l203 -1 0 171 -75 1 -58 2 -70 -9 0 -164zm-4484 8l203 -1 0 170 -76 2 -58 2 -69 -10 0 -163zm-2146 2l783 -1 0 171 -567 2 -11 232 538 3 0 168 -526 3 1 310 586 0 0 171 -802 -5 -2 -1054zm2414 -1454l234 8 2 1105 -68 7 -97 2 -69 -10 -2 -1112zm7928 -4692c0,-169 450,-962 516,-1208l238 490c274,610 303,524 304,1083l59 20567 -1052 -7 -7 -1305c8,-383 31,-398 -109,-535l-417 -415c-190,-185 -367,-360 -553,-548 -300,-305 -2713,-2651 -2778,-2789 -49,-104 -278,-715 -290,-803 214,103 425,213 644,332 332,180 288,126 555,411 716,762 1692,1691 2446,2444 99,99 405,427 499,476l-55 -18193zm-5125 5247c0,-348 200,-580 533,-581 773,-1 720,1159 41,1160 -366,0 -573,-204 -574,-579zm2640 -565l228 3 1 441 437 -1 -1 -439 232 -6 2 1122 -232 -8 -2 -475 -436 0 1 481 -228 3 -2 -1121zm-1255 2l898 7 2 1106 -231 7 -1 -922 -441 -5 2 925 -227 1 -2 -1119zm-3347 528c-66,-67 -129,-137 -192,-212 -104,-122 -90,-21 -91,-310l779 7 1 183 -495 6c43,78 243,266 284,340 -43,62 -102,125 -155,190 -60,73 -96,121 -154,201l544 3 1 187c-170,7 -681,17 -819,-5 0,-229 -4,-200 107,-339 59,-74 157,-175 190,-251zm-2084 -519l897 7 3 1106 -232 7 -1 -922 -440 -5 1 925 -227 2 -1 -1120zm-1181 2l829 0 1 191 -602 2 1 251 558 5 1 183 -559 6 -5 289 628 -1 0 194 -850 1 -2 -1121zm4078 -7l228 3 6 477c83,-77 151,-151 223,-237 79,-96 146,-138 217,-243l302 4 -398 440 427 675 -294 1c-21,-62 -260,-475 -304,-512 -48,31 -153,129 -168,171 -22,62 -9,260 -8,339l-229 3 -2 -1121zm1263 -904c-88,143 -386,154 -461,-16 -49,-108 -29,-514 -29,-666l207 3c0,170 -59,538 78,623 280,80 204,-415 204,-621l209 -6 2 773 -190 -6 -20 -84zm-1167 112c-524,1 -510,-812 -2,-812 534,-1 537,811 2,812zm-954 -955c84,-25 125,-78 209,-99l1 262 135 8 1 141 -136 6c1,547 -29,486 138,469l9 147c-459,85 -355,-205 -354,-605l-93 -30 -2 -125 93 -30 -1 -144zm-826 264c98,-154 385,-170 466,14 52,116 28,497 29,653l-211 7c-1,-163 28,-489 -44,-622 -311,-73 -241,246 -240,621l-206 -4 -1 -765 188 -3c1,115 14,89 19,99zm-1181 116c37,-156 136,-233 311,-233 575,-1 216,458 380,786 -109,10 -158,23 -209,-28l-27 -32c-1,-6 -5,-8 -9,-11 -138,156 -455,133 -469,-115 -14,-255 285,-257 472,-306 -8,-203 -213,-176 -264,-40l-185 -21zm-1169 -498l217 2 1 447 238 -239c201,-231 119,-218 468,-214l-382 419 409 637c-329,33 -269,16 -411,-231 -44,-76 -110,-173 -138,-252 -240,128 -183,269 -183,486l-217 -4 -2 -1051zm1114 -336c60,-186 149,-382 220,-568 244,-636 153,-552 449,-550l452 1118c-271,1 -242,53 -341,-250 -519,1 -438,-42 -496,132 -50,149 -33,121 -284,118zm3658 -564c-1,-348 199,-580 532,-581 774,-1 720,1159 41,1160 -366,0 -572,-204 -573,-579zm-2270 -557l227 4c143,237 285,494 451,722l0 -726 211 -1 2 1121 -236 -1 -443 -710 0 711 -211 1 -1 -1121zm1193 -2l891 2 0 187 -331 4 2 923 -231 5 -2 -925 -331 -3 2 -193zm2715 1115c-1,-438 48,-392 -119,-655 -89,-141 -214,-316 -287,-461l265 -2c46,102 180,324 254,424l81 -113c191,-340 143,-331 436,-309 -396,760 -403,327 -402,1116l-228 0zm-6441 -1109l228 4 6 476 440 -479 302 3 -398 440 427 675 -294 1c-21,-62 -260,-475 -304,-512 -234,150 -177,259 -176,510l-229 4 -2 -1122zm2749 -4566l143 -1 76 2 -2 888 532 -1 0 174 -747 1 -2 -1063zm5654 1073c-524,1 -509,-811 -1,-812 533,-1 536,811 1,812zm-2293 -402c-1,-521 708,-607 715,56l-508 4c11,102 40,164 123,183 104,25 141,-31 163,-110l208 20c-123,386 -700,336 -701,-153zm-2397 4c-1,-521 708,-607 715,56l-507 4c24,228 233,257 286,73l207 20c-122,386 -700,336 -701,-153zm5809 164c-45,-101 -253,-103 -354,-147 -105,-45 -178,-191 -89,-315 88,-125 513,-244 624,114l-180 18c-50,-50 -44,-85 -137,-95 -81,-9 -122,6 -152,58 69,149 452,54 493,297 58,341 -601,458 -708,51l195 -16c129,195 279,106 308,35zm-1971 3c-46,-101 -254,-103 -355,-146 -219,-95 -175,-483 277,-430 151,17 215,87 259,228l-180 18c-51,-50 -44,-85 -138,-95 -81,-8 -122,6 -152,59 69,148 452,53 493,296 14,79 -6,133 -48,185 -134,166 -571,204 -660,-133l196 -16c128,194 279,105 308,34zm-2656 -468c228,-211 351,-73 451,1 71,-45 97,-109 234,-109 330,-1 246,384 246,790l-205 0c0,-195 31,-462 -33,-621 -287,-56 -220,245 -220,625l-204 -9c-1,-144 38,-520 -48,-611 -271,-151 -207,443 -207,621l-208 -10 -2 -761 192 -4 4 88zm3841 -1563c-1,-348 199,-581 532,-581 773,-1 720,1159 41,1160 -366,0 -573,-204 -573,-579zm-6094 569c48,-180 133,-387 199,-570 230,-638 119,-554 448,-545l391 1114 -247 0c-69,-254 -188,-554 -276,-808 -51,90 -106,298 -143,411 -157,469 -75,400 -372,398zm2463 -1124l317 0c50,13 217,689 230,745l196 -745 343 2 2 1114c-71,5 -151,13 -214,-11l-15 -783c-62,104 -79,283 -112,416 -103,417 -5,383 -312,382l-212 -832 -7 829 -215 4 -1 -1121zm5283 513c-322,-322 -283,-279 -283,-521l779 6 0 184 -494 5c43,79 242,267 284,341l-309 391 544 3 1 187c-172,7 -680,17 -819,-5 -1,-229 -4,-201 107,-339 59,-75 157,-176 190,-252zm-2416 4c-50,-50 -270,-269 -282,-331 -6,-37 -1,-141 -1,-190l779 6 0 184 -494 6c43,78 242,266 283,340 -42,62 -101,125 -155,190 -59,72 -96,121 -153,201l544 3 0 187c-171,7 -679,17 -818,-5 -1,-229 -4,-200 106,-339 60,-74 158,-175 191,-252zm-1429 -519l829 0 0 190 -601 3 1 251 558 5 1 183 -559 5 1 290 622 -1 5 194 -856 1 -1 -1121zm-2610 4l830 1 0 190 -601 2 1 251 558 5 0 184 -558 5 1 290 621 -1 1 193 -851 1 -2 -1121zm-4476 27919l-19 1 13124 -23 -48 -28626 -19 -20 -13086 22 0 20 48 28626z"/>
   <path class="fil1" d="M644 571l0 -20 13086 -22 19 20 48 28626 -13124 23 19 -1 -48 -28626zm-473 29053l14149 -24 -50 -29593 -14149 23 50 29594z"/>
   <path class="fil1" d="M11574 6216l55 18193c-94,-49 -400,-377 -499,-476 -754,-753 -1730,-1682 -2446,-2444 -267,-285 -223,-231 -555,-411 -219,-119 -430,-229 -644,-332 12,88 241,699 290,803 65,138 2478,2484 2778,2789 186,188 363,363 553,548l417 415c140,137 117,152 109,535l7 1305 1052 7 -59 -20567c-1,-559 -30,-473 -304,-1083l-238 -490c-66,246 -516,1039 -516,1208z"/>
   <path class="fil2" d="M6329 26192c103,-461 -255,-816 -675,-825 -943,-21 -2121,3 -3094,5 -364,0 -882,-41 -1016,524 -114,487 255,832 690,840 964,17 2107,-3 3093,-5 385,0 878,20 1002,-539z"/>
   <path class="fil0" d="M2694 21759c141,88 260,108 284,304 24,201 -85,350 -199,415 -163,90 -925,96 -1144,62l-2 -1455c175,-28 891,-23 1032,34 308,124 318,477 29,640zm1016 -44c154,-81 313,-174 546,-24 134,86 247,268 189,518 -94,397 -647,472 -914,170 -220,-248 -188,-898 10,-1129 220,-257 862,-246 880,202l-282 29c-63,-83 -106,-230 -296,-124 -99,55 -127,209 -133,358zm-1996 -983c-213,71 -241,178 -240,443 1,225 1,451 1,676 1,226 0,452 1,677 2,228 81,373 291,398 194,23 2638,9 2723,-17 189,-57 228,-210 227,-445l-2 -1353c-1,-226 -82,-374 -291,-398 -208,-24 -2626,-9 -2710,19z"/>
   <path class="fil1" d="M6329 26192c-124,559 -617,539 -1002,539 -986,2 -2129,22 -3093,5 -435,-8 -804,-353 -690,-840 134,-565 652,-524 1016,-524 973,-2 2151,-26 3094,-5 420,9 778,364 675,825zm-4964 -69c49,496 415,776 947,775 567,0 1134,-1 1701,-3 533,-1 1183,32 1702,-6 1042,-77 1119,-1686 -159,-1685 -567,1 -1134,2 -1701,3 -307,1 -1503,-13 -1702,5 -448,42 -837,408 -788,911z"/>
   <path class="fil1" d="M1714 20732c84,-28 2502,-43 2710,-19 209,24 290,172 291,398l2 1353c1,235 -38,388 -227,445 -85,26 -2529,40 -2723,17 -210,-25 -289,-170 -291,-398 -1,-225 0,-451 -1,-677 0,-225 0,-451 -1,-676 -1,-265 27,-372 240,-443zm-26 -160c-482,130 -375,624 -374,1144 0,252 1,503 1,754 0,273 57,437 231,546 216,135 1129,74 1455,73 297,0 1295,36 1514,-21 459,-118 363,-662 363,-1145 -1,-251 -2,-503 -2,-754 1,-279 -54,-435 -232,-545 -223,-137 -1128,-75 -1454,-74 -288,0 -1302,-33 -1502,22z"/>
   <path class="fil3" d="M1965 21918c106,-17 323,-10 435,-2 329,24 344,359 -18,374 -119,5 -304,18 -417,-4l0 -368zm-1 -580c99,-16 292,-10 397,-5 123,5 226,32 219,168 -7,128 -125,147 -240,151 -104,5 -280,15 -376,-4l0 -310zm730 421c289,-163 279,-516 -29,-640 -141,-57 -857,-62 -1032,-34l2 1455c219,34 981,28 1144,-62 114,-65 223,-214 199,-415 -24,-196 -143,-216 -284,-304z"/>
   <path class="fil3" d="M3887 21878c301,-74 358,373 127,423 -292,63 -399,-357 -127,-423zm-177 -163c6,-149 34,-303 133,-358 190,-106 233,41 296,124l282 -29c-18,-448 -660,-459 -880,-202 -198,231 -230,881 -10,1129 267,302 820,227 914,-170 58,-250 -55,-432 -189,-518 -233,-150 -392,-57 -546,24z"/>
   <path class="fil3" d="M4855 15390l215 -5 7 -829 212 832c307,1 210,35 312,-382 33,-133 50,-312 112,-416l15 783c63,24 143,16 214,11l-2 -1114 -343 -2 -196 745c-13,-56 -180,-732 -230,-745l-317 0 1 1122z"/>
   <path class="fil3" d="M6341 2397l215 -4 7 -829 212 832c307,1 209,35 312,-382 33,-133 50,-312 112,-416l15 783c63,24 143,16 214,11l-2 -1114 -343 -2 -196 745c-13,-56 -180,-732 -230,-745l-317 0 1 1121z"/>
   <path class="fil1" d="M10105 26225c0,-147 15,-310 169,-310 142,0 120,173 120,309 0,134 1,268 1,403l233 3c-1,-130 -67,-835 210,-704 119,56 75,492 75,703l230 -2c-1,-430 100,-899 -289,-887 -134,4 -191,73 -258,127 -243,-273 -443,-42 -511,-7l0 -99 -214 4 2 863 233 3 -1 -406z"/>
   <path class="fil3" d="M3769 8703l211 -1 0 -711 443 710 236 1 -2 -1121 -211 1 0 726c-166,-228 -308,-485 -451,-722l-227 -4 1 1121z"/>
   <path class="fil3" d="M5300 17743c463,-128 515,646 173,745 -220,64 -365,-86 -392,-278 -35,-244 32,-415 219,-467zm-463 372c1,375 207,580 573,579 679,-1 733,-1161 -41,-1160 -333,1 -533,233 -532,581z"/>
   <path class="fil3" d="M6501 7767c463,-128 515,646 173,745 -220,64 -365,-86 -392,-279 -35,-243 32,-414 219,-466zm-463 372c1,375 207,579 573,579 679,-1 733,-1161 -41,-1160 -333,1 -533,233 -532,581z"/>
   <path class="fil3" d="M2865 17747c462,-128 515,646 173,745 -220,64 -365,-86 -393,-278 -35,-244 33,-415 220,-467zm-464 372c1,375 208,580 573,579 680,-1 733,-1161 -40,-1160 -333,1 -533,233 -533,581z"/>
   <path class="fil3" d="M10434 1459c463,-128 515,646 173,745 -220,64 -365,-86 -393,-279 -34,-243 33,-414 220,-466zm-463 372c0,375 207,579 573,579 679,-1 732,-1161 -41,-1160 -333,0 -533,233 -532,581z"/>
   <path class="fil3" d="M6913 11091c462,-128 515,646 173,745 -220,64 -365,-86 -393,-279 -35,-243 33,-414 220,-466zm-464 372c1,375 208,579 574,579 679,-1 732,-1161 -41,-1160 -333,1 -533,233 -533,581z"/>
   <path class="fil3" d="M1237 8708l229 -4c-1,-251 -58,-360 176,-510 44,37 283,450 304,512l294 -1 -427 -675 398 -440 -302 -3 -440 479 -6 -476 -228 -4 2 1122z"/>
   <path class="fil3" d="M1273 18682l229 -4c-1,-251 -58,-360 177,-510 43,37 282,450 303,512l294 -1 -427 -675 398 -440 -302 -3 -440 479 -5 -476 -228 -4 1 1122z"/>
   <path class="fil3" d="M5302 12025l229 -3c-1,-79 -14,-277 8,-339 15,-42 120,-140 168,-171 44,37 283,450 304,512l294 -1 -427 -675 398 -440 -302 -4c-71,105 -138,147 -217,243 -72,86 -140,160 -223,237l-6 -477 -228 -3 2 1121z"/>
   <polygon class="fil3" points="6294,15387 6522,15384 6521,14904 6957,14903 6959,15378 7191,15386 7189,14264 6957,14271 6957,14709 6524,14710 6520,14269 6292,14266 "/>
   <polygon class="fil3" points="3607,15392 3835,15388 3834,14908 4270,14907 4272,15383 4504,15390 4502,14269 4270,14275 4271,14714 3835,14715 3833,14274 3605,14270 "/>
   <polygon class="fil3" points="9091,12019 9319,12016 9318,11535 9754,11535 9756,12010 9988,12018 9986,10896 9754,10902 9755,11341 9318,11342 9317,10901 9089,10898 "/>
   <polygon class="fil3" points="1249,15396 2099,15394 2099,15201 1480,15202 1476,14912 2035,14907 2034,14723 1479,14719 1475,14467 2077,14465 2076,14275 1247,14274 "/>
   <polygon class="fil3" points="7779,2395 8635,2394 8630,2200 8008,2201 8007,1911 8566,1906 8565,1723 8007,1718 8006,1467 8607,1464 8607,1274 7778,1274 "/>
   <polygon class="fil3" points="5170,2399 6021,2398 6020,2205 5399,2206 5398,1916 5956,1911 5956,1727 5398,1722 5397,1471 5998,1469 5998,1279 5168,1278 "/>
   <polygon class="fil3" points="1224,12032 2074,12031 2074,11837 1446,11838 1451,11549 2010,11543 2009,11360 1451,11355 1450,11104 2052,11102 2051,10911 1222,10911 "/>
   <polygon class="fil3" points="2404,12029 2631,12027 2630,11102 3070,11107 3071,12029 3303,12022 3300,10916 2403,10909 "/>
   <polygon class="fil3" points="7836,12019 8063,12018 8061,11093 8502,11098 8503,12020 8734,12013 8732,10907 7834,10900 "/>
   <path class="fil1" d="M8824 25976c0,-142 7,-372 168,-345 127,22 126,242 126,383 0,153 16,501 -185,433 -127,-42 -108,-330 -109,-471zm525 250c139,-944 -666,-1033 -753,-384 -41,300 -12,672 221,779 317,147 491,-120 532,-395z"/>
   <path class="fil3" d="M2936 7872l143 388 -295 -3 152 -385zm-556 831c251,3 234,31 284,-118 58,-174 -23,-131 496,-132 99,303 70,251 341,250l-452 -1118c-296,-2 -205,-86 -449,550 -71,186 -160,382 -220,568z"/>
   <path class="fil1" d="M8030 25688l438 -10 0 -223 -609 3 -108 646c304,46 144,-6 293,-58 284,-100 319,381 100,411 -147,20 -148,-85 -208,-170l-212 20c36,393 518,458 719,176 161,-224 91,-732 -441,-614l28 -181z"/>
   <path class="fil1" d="M1268 10090l217 4c0,-217 -57,-358 183,-486 28,79 94,176 138,252 142,247 82,264 411,231l-409 -637 382 -419c-349,-4 -267,-17 -468,214l-238 239 -1 -447 -217 -2 2 1051z"/>
   <path class="fil1" d="M1266 20064l217 5c-1,-218 -58,-359 182,-486 28,78 95,175 138,251l106 184c46,62 51,63 236,54l69 -7 -408 -637 382 -419c-349,-4 -268,-17 -469,214l-237 239 -1 -446 -217 -3 2 1051z"/>
   <path class="fil1" d="M6130 3394l-4 -88 -192 4 2 761 208 10c0,-178 -64,-772 207,-621 86,91 47,467 48,611l204 9c0,-380 -67,-681 220,-625 64,159 33,426 33,621l205 0c0,-406 84,-791 -246,-790 -137,0 -163,64 -234,109 -100,-74 -223,-212 -451,-1z"/>
   <path class="fil1" d="M3793 16097l-4 -87 -191 4 1 760 208 11c0,-179 -64,-772 207,-622 86,91 47,467 48,612l204 9c0,-380 -67,-682 220,-625 64,159 33,426 33,621l206 -1c-1,-149 19,-554 -27,-662 -32,-76 -102,-128 -220,-128 -137,0 -163,65 -234,109 -100,-73 -223,-211 -451,-1z"/>
   <path class="fil3" d="M2655 14465c131,0 309,-27 370,79 81,142 -55,230 -173,230l-197 1 0 -310zm-227 929l228 -4 -1 -422c261,0 610,35 628,-329 23,-453 -448,-367 -857,-367l2 1122z"/>
   <path class="fil3" d="M11623 1789c-33,76 -131,177 -190,252 -111,138 -108,110 -107,339 139,22 647,12 819,5l-1 -187 -544 -3 309 -391c-42,-74 -241,-262 -284,-341l494 -5 0 -184 -779 -6c0,242 -39,199 283,521z"/>
   <path class="fil3" d="M7572 18072c-33,76 -131,177 -191,251 -110,139 -107,110 -106,340 139,21 647,11 818,4l0 -187 -544 -3 308 -390c-40,-74 -85,-97 -136,-163 -54,-71 -109,-107 -148,-178l495 -5 0 -184 -779 -6c0,49 -5,153 1,189 12,62 232,282 282,332z"/>
   <path class="fil1" d="M7084 25799c45,-104 54,-271 310,-101 46,424 -490,461 -554,938l798 -9 0 -222 -455 -4c39,-87 196,-201 315,-319 277,-274 127,-717 -333,-638 -195,34 -273,134 -303,341l222 14z"/>
   <path class="fil3" d="M6490 18074c-34,76 -132,177 -191,251 -110,139 -107,110 -107,339 139,22 647,12 819,5l-1 -187 -544 -3c58,-80 94,-128 154,-201 53,-65 112,-128 155,-189 -41,-75 -241,-263 -284,-341l495 -6 -1 -183 -779 -7c1,242 -38,200 284,522z"/>
   <path class="fil3" d="M9207 1793c-33,77 -131,178 -191,252 -110,139 -107,110 -106,339 139,22 647,12 818,5l0 -187 -544 -3c57,-80 94,-129 153,-201 54,-65 113,-128 155,-190 -41,-74 -240,-262 -283,-340l494 -6 0 -184 -779 -6c0,49 -5,153 1,190 12,62 232,281 282,331z"/>
   <path class="fil3" d="M4487 11428c-33,76 -131,177 -190,251 -111,139 -107,110 -107,339 138,22 649,12 819,5l-1 -187 -544 -3c58,-80 94,-128 154,-201 53,-65 112,-128 155,-190 -41,-74 -241,-262 -284,-340l495 -6 -1 -183 -779 -7c1,289 -13,188 91,310 63,75 126,145 192,212z"/>
   <polygon class="fil1" points="1278,16779 2080,16785 2080,16614 1497,16613 1493,16304 2020,16300 2019,16132 1493,16130 1493,15898 2060,15895 2059,15725 1276,15725 "/>
   <polygon class="fil1" points="1234,13416 2036,13421 2036,13250 1450,13250 1449,12940 1975,12937 1975,12769 1437,12766 1448,12534 2015,12532 2015,12361 1232,12362 "/>
   <path class="fil3" d="M3653 18676c267,2 227,42 299,-180l216 -629c88,254 207,554 276,808l247 0 -391 -1114c-329,-9 -218,-93 -448,545 -66,183 -151,390 -199,570z"/>
   <path class="fil3" d="M3877 2400c297,2 215,71 372,-398 37,-113 92,-321 143,-411 88,254 207,554 276,808l247 0 -391 -1114c-329,-9 -218,-93 -448,545 -66,183 -151,390 -199,570z"/>
   <path class="fil1" d="M2671 12795c249,-83 285,411 107,480 -240,93 -321,-408 -107,-480zm-119 -54l-17 -90 -187 -1 1 1060 205 0 1 -360c110,65 217,157 379,40 213,-153 218,-562 0,-712 -135,-94 -327,-41 -382,63z"/>
   <path class="fil1" d="M7156 12787c249,-83 284,411 107,480 -240,93 -321,-408 -107,-480zm-119 -54l-18 -90 -187 -1 2 1061 205 -1 1 -360c110,66 217,157 378,41 214,-154 219,-562 0,-713 -135,-93 -326,-40 -381,63z"/>
   <path class="fil3" d="M7676 8695l228 0c-1,-789 6,-356 402,-1116 -293,-22 -245,-31 -436,309l-81 113c-74,-100 -208,-322 -254,-424l-265 2c73,145 198,320 287,461 167,263 118,217 119,655z"/>
   <path class="fil1" d="M4860 13418l207 -5c-1,-202 -33,-214 82,-327 14,13 9,5 29,32l72 121c28,52 69,118 92,177l221 1c-76,-164 -185,-330 -271,-485 37,-48 73,-96 117,-145 55,-62 92,-70 130,-143 -415,-5 -212,44 -469,249l-5 -533 -207 -5 2 1063z"/>
   <path class="fil0" d="M6913 11091c-187,52 -255,223 -220,466 28,193 173,343 393,279 342,-99 289,-873 -173,-745z"/>
   <path class="fil0" d="M5300 17743c-187,52 -254,223 -219,467 27,192 172,342 392,278 342,-99 290,-873 -173,-745z"/>
   <path class="fil0" d="M2865 17747c-187,52 -255,223 -220,467 28,192 173,342 393,278 342,-99 289,-873 -173,-745z"/>
   <path class="fil0" d="M10434 1459c-187,52 -254,223 -220,466 28,193 173,343 393,279 342,-99 290,-873 -173,-745z"/>
   <path class="fil0" d="M6501 7767c-187,52 -254,223 -219,466 27,193 172,343 392,279 342,-99 290,-873 -173,-745z"/>
   <polygon class="fil3" points="4959,7773 5290,7776 5292,8701 5523,8696 5521,7773 5852,7769 5852,7582 4961,7580 "/>
   <path class="fil1" d="M2627 9821c78,-37 163,-49 253,-68 10,115 -8,185 -119,205 -117,20 -146,-42 -134,-137zm-192 -284l185 21c51,-136 256,-163 264,40 -187,49 -486,51 -472,306 14,248 331,271 469,115 4,3 8,5 9,11l27 32c51,51 100,38 209,28 -164,-328 195,-787 -380,-786 -175,0 -274,77 -311,233z"/>
   <path class="fil1" d="M5352 9466c273,-87 310,413 109,480 -269,91 -340,-407 -109,-480zm44 646c535,-1 532,-813 -2,-812 -508,0 -522,813 2,812z"/>
   <path class="fil1" d="M6112 12789c272,-86 309,413 108,481 -269,91 -340,-407 -108,-481zm43 646c535,-1 532,-813 -1,-812 -508,1 -523,813 1,812z"/>
   <path class="fil1" d="M4306 19442c272,-87 309,412 108,480 -268,91 -340,-407 -108,-480zm43 646c536,-1 532,-813 -1,-812 -508,0 -523,812 1,812z"/>
   <path class="fil1" d="M9595 3447c272,-86 309,413 108,481 -269,90 -340,-407 -108,-481zm43 646c535,-1 532,-813 -1,-812 -508,1 -523,813 1,812z"/>
   <path class="fil1" d="M2967 19761c-67,315 -435,178 -355,-169 26,-112 131,-195 250,-143 93,40 132,182 105,312zm-183 329c535,-1 531,-813 -2,-812 -508,1 -522,813 2,812z"/>
   <path class="fil1" d="M5160 3636c8,-118 42,-202 165,-192 98,9 120,80 133,190l-298 2zm-212 59c1,489 579,539 701,153l-207 -20c-53,184 -262,155 -286,-73l507 -4c-7,-663 -716,-577 -715,-56z"/>
   <path class="fil1" d="M7557 3632c8,-118 42,-202 164,-192 99,9 121,80 133,190l-297 2zm-212 59c1,489 578,539 701,153l-208 -20c-22,79 -59,135 -163,110 -83,-19 -112,-81 -123,-183l508 -4c-7,-663 -716,-577 -715,-56z"/>
   <path class="fil1" d="M8786 3862c-29,71 -180,160 -308,-34l-196 16c89,337 526,299 660,133 42,-52 62,-106 48,-185 -41,-243 -424,-148 -493,-296 30,-53 71,-67 152,-59 94,10 87,45 138,95l180 -18c-44,-141 -108,-211 -259,-228 -452,-53 -496,335 -277,430 101,43 309,45 355,146z"/>
   <path class="fil1" d="M3616 9421c-5,-10 -18,16 -19,-99l-188 3 1 765 206 4c-1,-375 -71,-694 240,-621 72,133 43,459 44,622l211 -7c-1,-156 23,-537 -29,-653 -81,-184 -368,-168 -466,-14z"/>
   <path class="fil1" d="M4356 13206c-30,71 -180,160 -308,-35l-196 16c107,407 766,290 708,-51 -41,-243 -424,-148 -493,-297 30,-52 71,-67 152,-58 94,10 87,45 137,95l180 -18c-111,-358 -536,-239 -624,-114 -88,124 -16,270 89,315 101,44 309,46 355,147z"/>
   <path class="fil1" d="M10757 3859c-29,71 -179,160 -308,-35l-195 16c107,407 766,290 708,-51 -41,-243 -424,-148 -493,-297 30,-52 71,-67 152,-58 93,10 87,45 137,95l180 -18c-111,-358 -536,-239 -624,-114 -89,124 -16,270 89,315 101,44 309,46 354,147z"/>
   <path class="fil1" d="M5488 19854c-28,66 -88,86 -170,76 -82,-11 -99,-52 -138,-111l-196 16c107,406 766,290 708,-51 -40,-243 -423,-149 -492,-297 29,-53 70,-67 151,-58 94,10 87,45 138,95l180 -19c-112,-358 -537,-238 -625,-114 -88,125 -16,271 89,316 101,43 309,46 355,147z"/>
   <path class="fil1" d="M6435 19852c-27,67 -88,87 -170,76 -82,-11 -99,-52 -138,-111l-196 16c107,407 766,290 709,-51 -41,-243 -424,-148 -493,-297 29,-52 71,-67 152,-58 93,10 87,45 137,95l180 -18c-112,-358 -537,-239 -625,-114 -88,124 -16,270 90,315 100,44 308,46 354,147z"/>
   <path class="fil1" d="M6563 10000l20 84 190 6 -2 -773 -209 6c0,206 76,701 -204,621 -137,-85 -78,-453 -78,-623l-207 -3c0,152 -20,558 29,666 75,170 373,159 461,16z"/>
   <polygon class="fil1" points="3986,4083 4733,4082 4733,3908 4201,3909 4203,3021 4127,3019 3984,3020 "/>
   <polygon class="fil3" points="8375,18662 8445,18671 8541,18669 8610,18663 8608,17557 8373,17550 "/>
   <polygon class="fil3" points="3648,12020 3717,12030 3814,12028 3882,12021 3880,10916 3646,10908 "/>
   <path class="fil1" d="M4442 9157l1 144 -93 30 2 125 93 30c-1,400 -105,690 354,605l-9 -147c-167,17 -137,78 -138,-469l136 -6 -1 -141 -135 -8 -1 -262c-84,21 -125,74 -209,99z"/>
   <path class="fil0" d="M1965 22286c113,22 298,9 417,4 362,-15 347,-350 18,-374 -112,-8 -329,-15 -435,2l0 368z"/>
   <polygon class="fil1" points="3487,20062 3557,20071 3615,20069 3690,20068 3688,19008 3485,19009 "/>
   <path class="fil1" d="M2583 16092c-3,-4 -5,-17 -7,-14 -1,3 -4,-12 -6,-14 -43,-66 44,-52 -200,-52l2 773 205 -6c-1,-191 -23,-425 56,-559 115,-21 77,-6 178,7l57 -204c-133,-31 -235,-59 -285,69z"/>
   <path class="fil0" d="M8824 25976c1,141 -18,429 109,471 201,68 185,-280 185,-433 0,-141 1,-361 -126,-383 -161,-27 -168,203 -168,345z"/>
   <path class="fil0" d="M1964 21648c96,19 272,9 376,4 115,-4 233,-23 240,-151 7,-136 -96,-163 -219,-168 -105,-5 -298,-11 -397,5l0 310z"/>
   <polygon class="fil1" points="5067,16773 5136,16782 5194,16781 5270,16779 5268,16009 5065,16011 "/>
   <polygon class="fil1" points="3379,13412 3449,13422 3507,13420 3582,13419 3581,12649 3378,12650 "/>
   <polygon class="fil1" points="3076,16776 3145,16786 3203,16784 3279,16783 3277,16012 3074,16014 "/>
   <polygon class="fil1" points="7864,13405 7933,13414 7991,13413 8067,13411 8066,12641 7863,12642 "/>
   <polygon class="fil1" points="6947,20056 7017,20065 7075,20064 7150,20062 7149,19292 6946,19293 "/>
   <path class="fil0" d="M2967 19761c27,-130 -12,-272 -105,-312 -119,-52 -224,31 -250,143 -80,347 288,484 355,169z"/>
   <path class="fil0" d="M6112 12789c-232,74 -161,572 108,481 201,-68 164,-567 -108,-481z"/>
   <path class="fil0" d="M9595 3447c-232,74 -161,571 108,481 201,-68 164,-567 -108,-481z"/>
   <path class="fil0" d="M4306 19442c-232,73 -160,571 108,480 201,-68 164,-567 -108,-480z"/>
   <path class="fil0" d="M5352 9466c-231,73 -160,571 109,480 201,-67 164,-567 -109,-480z"/>
   <path class="fil0" d="M3887 21878c-272,66 -165,486 127,423 231,-50 174,-497 -127,-423z"/>
   <path class="fil0" d="M2671 12795c-214,72 -133,573 107,480 178,-69 142,-563 -107,-480z"/>
   <path class="fil0" d="M7156 12787c-214,72 -133,573 107,480 177,-69 142,-563 -107,-480z"/>
   <path class="fil0" d="M2655 14775l197 -1c118,0 254,-88 173,-230 -61,-106 -239,-79 -370,-79l0 310z"/>
   <polygon class="fil0" points="2784,8257 3079,8260 2936,7872 "/>
   <path class="fil0" d="M7557 3632l297 -2c-12,-110 -34,-181 -133,-190 -122,-10 -156,74 -164,192z"/>
   <path class="fil0" d="M5160 3636l298 -2c-13,-110 -35,-181 -133,-190 -123,-10 -157,74 -165,192z"/>
   <path class="fil0" d="M2627 9821c-12,95 17,157 134,137 111,-20 129,-90 119,-205 -90,19 -175,31 -253,68z"/>
   <polygon class="fil1" points="5065,15884 5135,15893 5193,15892 5268,15890 5268,15719 5065,15721 "/>
   <polygon class="fil1" points="3378,12523 3447,12533 3505,12531 3581,12529 3581,12359 3378,12360 "/>
   <polygon class="fil1" points="7862,12516 7932,12525 7990,12523 8065,12522 8065,12351 7862,12352 "/>
   <polygon class="fil1" points="3074,15887 3144,15897 3202,15895 3277,15893 3277,15722 3074,15724 "/>
   <polygon class="fil1" points="6946,19167 7015,19176 7073,19174 7149,19173 7148,19002 6945,19003 "/>
  </g>
 </g>
</svg>
