<?xml version="1.0" encoding="UTF-8"?>
<!DOCTYPE svg PUBLIC "-//W3C//DTD SVG 1.1//EN" "http://www.w3.org/Graphics/SVG/1.1/DTD/svg11.dtd">
<!-- Creator: CorelDRAW X6 -->
<svg xmlns="http://www.w3.org/2000/svg" xml:space="preserve" width="8cm" height="6.6cm" version="1.1" style="shape-rendering:geometricPrecision; text-rendering:geometricPrecision; image-rendering:optimizeQuality; fill-rule:evenodd; clip-rule:evenodd"
viewBox="0 0 8000 6600"
 xmlns:xlink="http://www.w3.org/1999/xlink">
 <defs>
  <style type="text/css">
   <![CDATA[
    .fil0 {fill:#097AD1}
    .fil8 {fill:#0C7CD1}
    .fil6 {fill:#0F7DD2}
    .fil7 {fill:#AAA280}
    .fil5 {fill:#F4F8FA}
    .fil2 {fill:#F7F9FA}
    .fil3 {fill:#FC0E02}
    .fil4 {fill:#FEC005}
    .fil1 {fill:#FEFEFF}
    .fil9 {fill:white;fill-rule:nonzero}
   ]]>
  </style>
 </defs>
 <g id="Слой_x0020_1">
  <metadata id="CorelCorpID_0Corel-Layer"/>
  <g id="_703817600">
   <path class="fil0" d="M1130 5167l43 2 0 155 86 0c-1,49 10,34 -125,34l-4 -191zm899 94c-4,-28 -6,-16 4,-35 106,-33 120,41 102,132l-78 0c-42,-3 -45,-22 -40,-67 36,-20 32,-19 79,-19 -20,-28 -40,-19 -67,-11zm-313 0c-4,-28 -6,-16 4,-35 106,-33 120,41 102,132 -104,0 -127,8 -118,-67 36,-20 32,-19 79,-19 -20,-28 -40,-19 -67,-11zm-134 97l-37 0 -2 -136 107 1c31,30 28,75 21,134l-37 1c-4,-33 6,-73 -11,-100 -60,-4 -34,42 -41,100zm-104 0l-37 0 -2 -136 89 -2c-2,63 -18,15 -42,49 -14,20 -5,64 -8,89zm-180 -97c-4,-28 -5,-16 4,-35 106,-33 121,41 103,132 -105,0 -127,8 -118,-67 36,-20 32,-19 78,-19 -19,-28 -40,-19 -67,-11zm647 19c33,67 46,38 50,78 -53,0 -33,7 -88,-49l-2 49 -38 -1 -2 -201 41 -4 3 109c54,-43 23,-41 90,-41l-54 60zm340 -318c8,-36 24,-69 37,-102 13,-30 49,-153 89,-48l57 150c-55,0 -45,3 -57,-44l-65 1c-27,47 2,43 -61,43zm-381 0c7,-28 61,-184 84,-190 35,-8 42,37 62,88 12,31 29,67 38,102 -55,0 -45,3 -57,-44l-65 1c-28,47 2,43 -62,43zm-581 0c6,-28 61,-184 84,-190 35,-8 42,37 61,88 12,31 30,67 38,102 -55,0 -45,3 -57,-44l-65 1c-27,47 2,43 -61,43zm424 0l-38 1 -4 -191c77,0 50,27 125,116l3 -115 42 0 -1 189c-83,2 -65,-62 -128,-111l1 111zm-172 -74l0 74 -38 1 -4 -191c53,0 126,-10 139,41 17,65 -44,75 -97,75zm-446 74l57 -157c36,-89 72,15 87,57 11,32 29,67 36,99 -51,3 -42,9 -58,-40 -9,-25 -20,-55 -26,-79 -59,54 -2,120 -96,120zm1068 -93l75 92 -55 1c-13,-26 -27,-47 -61,-67l0 66 -37 2 -4 -191 41 3 1 65c61,-46 21,-68 111,-68 -25,43 -49,56 -71,97zm3232 -549l41 -3 -1 139 -39 -1 -1 -135zm-3453 0l42 -3 -1 139 -39 -1 -2 -135zm-838 -55l42 2 0 155 87 0c-1,49 9,34 -126,34l-3 -191zm4848 54l42 -1c0,56 -17,114 42,99l6 -99 40 1c0,71 17,137 -64,138 -81,0 -66,-69 -66,-138zm-1008 136l-35 1c-1,-29 20,-66 32,-98 20,-55 27,-100 63,-93 25,5 30,45 47,88 11,29 34,76 34,103l-36 0c-19,-25 -4,-25 -30,-45l-45 0c-26,20 -11,20 -30,44zm839 -56c-12,-107 136,-110 143,-20 8,102 -135,99 -143,20zm-274 16c46,12 59,-2 79,7 -3,29 -2,28 -28,33 -49,11 -112,-15 -96,-88 17,-75 139,-73 126,36 -31,1 -60,-5 -81,12zm-3864 -16c-12,-107 135,-110 142,-20 8,102 -134,99 -142,20zm-341 16c44,12 39,1 68,4l10 3c-2,29 -1,28 -28,33 -49,11 -112,-15 -95,-88 17,-75 138,-73 125,36l-62 3c-21,6 -4,-3 -18,9zm4360 41l-37 0 -2 -136 107 0c31,30 28,76 21,135l-37 1c-4,-33 6,-73 -11,-101 -60,-4 -34,43 -41,101zm-394 0l-37 -1 -2 -201 42 -1 0 73c100,-34 93,43 87,130l-38 -1c-3,-36 6,-74 -12,-100 -58,1 -31,47 -40,101zm-110 -139l40 0c-1,44 4,35 -40,35l1 65c44,13 31,-3 41,20 -7,16 7,20 -33,20 -14,1 -29,-5 -38,-13 -20,-20 -12,-63 -12,-92 -48,-4 -22,-22 -9,-41 16,-24 3,-39 35,-31 23,6 15,2 15,37zm-3128 42c-4,-28 -5,-16 4,-35 106,-33 121,41 103,132l-79 0c-42,-4 -45,-22 -39,-67 36,-21 32,-19 78,-19 -19,-28 -39,-20 -67,-11zm-182 5c51,16 74,13 60,75 -23,14 -101,46 -102,-22 38,4 39,8 65,0 -1,-1 -3,-6 -4,-4l-19 -13c0,0 -71,-17 -30,-67 13,-18 38,-19 60,-16 35,4 33,8 27,42 -33,-7 -39,-12 -57,5zm3544 -109l43 -4 -2 41 -39 -1 -2 -36zm-3453 -2l43 -3 -2 42 -39 -1 -2 -38zm-449 64c-1,42 6,34 -32,35l0 103 -39 1 -2 -104c-11,-1 -36,6 -18,-27l10 -14c25,-37 10,-61 81,-61 84,0 43,34 55,109 40,-50 60,-42 90,-42l-58 68c21,17 18,16 30,32l27 39c-62,1 -60,-20 -91,-49l-3 49 -37 -1 -2 -170c-48,3 -73,31 -11,32zm753 -492l42 2 0 188 -38 1 -4 -191zm2668 190c6,-28 60,-184 84,-190 32,-7 37,26 42,40l57 150c-55,0 -45,3 -57,-44l-65 1c-27,47 2,43 -61,43zm-2603 0c7,-28 61,-184 84,-190 35,-8 42,37 62,88 12,31 29,67 38,102 -55,0 -45,3 -57,-44l-65 1c-28,47 2,43 -62,43zm2801 -63c-36,-151 156,-164 181,-64 36,149 -156,168 -181,64zm804 -7c-25,-148 164,-156 183,-51 12,63 -12,110 -65,119 -67,13 -109,-14 -118,-68zm-542 70l-37 1 -4 -191 42 2 0 73 78 0 0 -75 41 2 0 188 -38 1 -4 -83 -77 0 -1 82zm374 0l-38 1 -4 -191c58,0 48,7 75,45 15,21 34,51 50,71l3 -115 42 0 -1 189c-56,1 -48,-7 -96,-75l-22 -27c-1,-2 -4,-4 -5,-5 -1,-1 -3,-3 -5,-4l1 111zm-4645 0l57 -157c36,-89 72,15 87,57 12,32 29,67 36,99 -45,3 -45,24 -84,-119 -19,18 -27,48 -35,71 -17,52 -8,49 -61,49zm4481 -123c20,11 50,6 74,12l-1 28 -73 2 0 40c23,13 60,7 90,10l-1 31 -127 1 -4 -191 128 0c-1,43 4,34 -38,34 -54,0 -46,-13 -48,33zm-3664 122l-80 2c-5,-40 -8,-32 28,-34 -62,-99 -13,-157 65,-157 99,0 117,89 64,157 36,2 32,-6 28,33l-80 0c-6,-66 78,-55 14,-152 -47,-7 -82,7 -77,58 5,48 42,46 38,93zm-571 -122c19,11 50,6 73,12l-1 28 -72 2 0 40c23,13 60,7 90,10l-2 31 -127 1 -4 -191 129 0c-1,43 3,34 -39,34 -54,0 -46,-13 -47,33zm715 -67c40,0 116,-11 144,8 -3,35 11,22 -28,27 -7,1 -41,-1 -51,-1 15,25 31,24 46,56 -19,36 -38,29 -58,67l92 0 0 33 -153 0c5,-44 47,-74 68,-100 -47,-49 -59,-42 -60,-90zm-317 97c14,17 22,30 37,45 25,25 24,16 38,47l-55 1c-14,-26 -28,-47 -61,-67l-1 66 -37 2 -4 -191 42 3 0 65c61,-46 22,-68 111,-68 -24,43 -49,56 -70,97zm4471 93l-37 0c-11,-126 -18,-103 -68,-190l50 0 37 73c40,-71 21,-73 88,-73 -13,28 -33,47 -48,79 -23,46 -11,67 -22,111zm-4653 0l-37 0c-11,-126 -18,-103 -68,-190l50 0 37 73c41,-71 21,-73 88,-73 -13,28 -33,47 -48,79 -23,46 -11,67 -22,111zm2255 -2061l0 371c564,54 1020,508 1075,1074 230,14 1036,-12 1139,2 28,4 218,102 250,122 -34,22 -221,118 -250,123 -62,8 -1002,-2 -1140,1 -6,66 -20,134 -37,194 -17,60 -47,123 -60,174 -45,-17 -159,-115 -217,-145 17,-83 74,-179 83,-335 11,-202 -163,-597 -324,-721 -212,-163 -493,-295 -771,-239 -166,34 -450,159 -554,281 -64,75 -119,161 -164,254 -45,94 -81,201 -101,315 -46,262 117,585 265,759 119,139 527,325 741,294 202,-30 257,-79 333,-94 19,47 89,186 97,232 -73,47 -264,88 -364,98l-1 655 -247 0 0 -656c-555,-52 -1014,-512 -1066,-1066 -250,-5 -503,-1 -753,-1 -121,0 -262,7 -381,1 -65,-4 -192,-98 -264,-118 10,-12 0,-3 14,-13 2,-1 13,-9 14,-9 280,-156 254,-107 610,-107 241,0 522,14 759,-1 55,-557 507,-1023 1067,-1073l0 -372 -216 0 0 -254 679 0 7 4 0 250 -223 0zm144 -573l42 -1 -3 138 -38 -1 -1 -136zm-1185 0l41 -1 -3 138 -38 -1 0 -136zm1020 1c15,-2 80,-3 93,0 66,13 68,156 -51,131l-3 72 -38 -1 -1 -202zm-106 136c-72,0 -59,-75 -59,-138l42 2c0,54 -17,112 45,97l2 -100 41 4c0,87 15,135 -71,135zm-1283 0c-71,0 -58,-75 -58,-138l41 2c0,54 -17,112 45,97l3 -100 41 4c0,87 15,135 -72,135zm1872 -206l42 3 -1 202c-76,4 -149,9 -134,-82 8,-50 36,-60 93,-52l0 -71zm477 206c-77,0 -103,-72 -63,-119 35,-41 123,-28 112,67l-63 2c-21,6 -4,-3 -18,9 58,15 53,-5 79,7 -3,35 -14,34 -47,34zm-649 0c-77,0 -102,-72 -62,-119 35,-41 122,-28 111,67l-63 2c-21,6 -3,-3 -18,9 58,15 54,-5 79,7 -3,35 -13,34 -47,34zm-861 -135c112,-32 129,110 50,132 -101,29 -130,-110 -50,-132zm1686 7c25,19 24,89 16,128 -105,0 -127,8 -118,-67 36,-21 32,-19 78,-19 -21,-30 -37,-17 -67,-11 -4,-33 -8,-36 27,-42 22,-3 47,-2 64,11zm-360 -8l89 -3c-1,48 -10,31 -47,46l-3 93 -39 -1 0 -135zm-50 8c25,19 23,89 16,128 -105,0 -127,8 -118,-67 36,-21 32,-19 78,-19 -21,-30 -37,-17 -67,-11 -5,-33 -8,-36 27,-42 22,-3 47,-2 64,11zm-910 94c-2,31 2,30 -28,35 -11,1 -36,-3 -43,-5 -25,-9 -41,-31 -42,-60 -3,-75 103,-108 111,-45l-25 7c-64,10 -62,63 10,66 18,0 9,-1 17,2zm-135 0c-2,31 3,30 -28,35 -35,5 -82,-14 -84,-65 -3,-75 103,-108 110,-45l-24 7c-9,1 -5,-6 -26,4 -13,6 -19,17 -17,33 6,43 49,23 69,31zm-500 -170l42 -2 0 76c98,-33 95,45 86,130l-37 -1c-3,-36 6,-73 -12,-100 -58,1 -31,47 -40,102l-38 -3 -1 -202zm-93 148c0,0 -70,-16 -30,-67 14,-18 38,-19 60,-16 35,4 33,8 27,42 -60,-14 -49,-2 -56,5 50,16 73,13 60,76 -22,12 -101,46 -102,-23l65 1 -24 -18zm-370 -80l89 -3c-1,48 -10,31 -47,46l-3 93 -39 -1 0 -135zm105 -68l42 -2 3 109c40,-51 60,-41 90,-41l-56 59c10,18 16,27 27,41 20,23 22,8 24,38 -51,0 -32,9 -87,-49l-4 50 -38 -3 -1 -202zm-333 204l-39 -1 -1 -155 -58 -2 -1 -32 162 -1c-1,52 -5,31 -59,37l-4 154zm1674 -204l44 -2 -4 42 -39 -1 -1 -39zm-1185 0l43 -2 -4 42 -38 -1 -1 -39zm2540 -323l42 4 -2 186 -39 1 -1 -191zm-2186 191c8,-37 24,-69 37,-102 13,-31 49,-154 89,-49l57 151c-55,0 -45,3 -57,-45l-57 0c-46,35 11,45 -69,45zm2325 -186c142,-35 161,158 62,182 -153,37 -165,-157 -62,-182zm-1909 0c142,-35 161,158 62,182 -152,37 -165,-157 -62,-182zm-895 0c142,-35 161,158 62,182 -152,37 -164,-157 -62,-182zm-745 0c142,-35 160,158 61,182 -152,37 -164,-157 -61,-182zm3888 -5l41 4 0 71 78 0 0 -75 42 4 -2 186 -39 1 -1 -82 -77 0 -2 81 -40 1 0 -191zm-1290 0l41 4 0 71 78 0 0 -75 42 4 -2 186 -39 1 -1 -82 -77 0 -2 81 -40 1 0 -191zm-627 1l56 0c12,36 27,84 44,117l41 -117 57 0 0 190 -43 0 0 -104c-16,25 -39,153 -79,84l-19 -55 -17 74 -39 1 -1 -190zm410 0c85,0 42,27 127,115l1 -115 42 2 -2 188c-69,1 -51,-26 -108,-93l-18 -19 -2 111 -39 1 -1 -190zm850 0l75 0c91,0 91,115 -8,115l-24 0 -2 74 -40 1 -1 -190zm-2147 0l74 0c92,0 91,115 -7,115l-25 0 -2 74 -39 1 -1 -190zm-746 0l75 0c91,0 91,115 -8,115l-25 0 -2 74 -39 1 -1 -190zm2729 0l128 0c-1,52 -29,33 -86,33l0 41 74 4 -1 29 -73 1 0 48 91 2 -3 32 -129 0 -1 -190zm-201 185l0 -185 155 1 1 182c-16,15 -10,10 -45,9l-1 -156 -66 0 -2 155c-11,1 -14,3 -26,1 -17,-2 -6,-1 -16,-7zm-656 -185l128 0c-2,52 -29,33 -86,33l0 41 74 4 -2 29 -72 1 0 48 90 2 -2 32 -129 0 -1 -190zm-749 190l-2 -156 -58 -1 0 -33 161 0c-1,50 -6,30 -59,35l0 155 -42 0zm-1641 0l-2 -156 -58 -1 0 -33 162 0c-1,50 -6,30 -60,35l0 155 -42 0zm3926 -104c-24,-19 -46,-59 -61,-86l47 1 43 57c13,-22 28,-35 36,-58l49 0c-17,38 -47,63 -61,98 20,20 50,65 62,92 -67,0 -54,-16 -86,-62 -60,55 -8,62 -92,62 23,-43 45,-62 63,-104zm-2848 -87l40 5 2 63c60,-45 20,-67 110,-67 -24,42 -49,55 -71,97 25,27 65,69 76,92l-56 0c-13,-25 -27,-47 -60,-67l-2 67 -39 1 0 -191zm-381 0l41 5 2 63c60,-45 20,-67 110,-67 -25,42 -49,55 -71,97 24,27 65,69 75,92l-55 0c-13,-25 -27,-47 -61,-67l-1 67 -39 1 -1 -191zm1325 190c-11,-126 -18,-102 -68,-189l49 0 39 72c39,-71 21,-72 87,-72 -14,29 -35,48 -51,84 -19,42 -9,65 -19,106l-37 -1zm-1640 0c-11,-126 -19,-102 -68,-189l49 0 38 72c40,-71 22,-72 87,-72 -14,29 -34,48 -50,84 -19,42 -9,65 -20,106l-36 -1zm-1783 -264c-1,1528 -9,3075 -1,4601 1,118 -23,262 102,274 129,12 970,3 1140,3l5324 0c126,1 253,1 380,-1 58,0 108,5 144,-43 65,-88 53,-151 53,-255l1 -4541c-1,-71 -14,-83 -45,-131 -40,-61 -80,-55 -153,-56l-5324 -1c-89,0 -1491,-8 -1545,8 -69,20 -76,63 -76,142z"/>
   <path class="fil1" d="M360 917c0,-79 7,-122 76,-142 54,-16 1456,-8 1545,-8l5324 1c73,1 113,-5 153,56 31,48 44,60 45,131l-1 4541c0,104 12,167 -53,255 -36,48 -86,43 -144,43 -127,2 -254,2 -380,1l-5324 0c-170,0 -1011,9 -1140,-3 -125,-12 -101,-156 -102,-274 -8,-1526 0,-3073 1,-4601zm7241 4869c25,-50 12,-1396 12,-1573l0 -3154c0,-163 19,-249 -48,-349 -37,-55 -72,-55 -148,-55 -2297,2 -4601,-8 -6898,-1 -335,2 -278,-11 -278,509l0 4340c1,439 -48,405 390,405l6704 0c174,-1 199,12 266,-122z"/>
   <path class="fil0" d="M7601 5786c-67,134 -92,121 -266,122l-6704 0c-438,0 -389,34 -390,-405l0 -4340c0,-520 -57,-507 278,-509 2297,-7 4601,3 6898,1 76,0 111,0 148,55 67,100 48,186 48,349l0 3154c0,177 13,1523 -12,1573zm-7469 217l7576 0 0 -5459 -7576 0 0 5459z"/>
   <path class="fil2" d="M3853 1954l-247 0 0 372c-560,50 -1012,516 -1067,1073 -237,15 -518,1 -759,1 -356,0 -330,-49 -610,107 -1,0 -12,8 -14,9 -14,10 -4,1 -14,13 72,20 199,114 264,118 119,6 260,-1 381,-1 250,0 503,-4 753,1 52,554 511,1014 1066,1066l0 656 247 0 1 -655c100,-10 291,-51 364,-98 -8,-46 -78,-185 -97,-232 -76,15 -131,64 -333,94 -214,31 -622,-155 -741,-294 -148,-174 -311,-497 -265,-759 20,-114 56,-221 101,-315 45,-93 100,-179 164,-254 104,-122 388,-247 554,-281 278,-56 559,76 771,239 161,124 335,519 324,721 -9,156 -66,252 -83,335 58,30 172,128 217,145 13,-51 43,-114 60,-174 17,-60 31,-128 37,-194 138,-3 1078,7 1140,-1 29,-5 216,-101 250,-123 -32,-20 -222,-118 -250,-122 -103,-14 -909,12 -1139,-2 -55,-566 -511,-1020 -1075,-1074l0 -371z"/>
   <polygon class="fil3" points="3606,1954 3853,1954 4076,1954 4076,1704 4069,1700 3390,1700 3390,1954 "/>
   <path class="fil4" d="M3913 1182l39 -1 17 -74 19 55c40,69 63,-59 79,-84l0 104 43 0 0 -190 -57 0 -41 117c-17,-33 -32,-81 -44,-117l-56 0 1 190z"/>
   <path class="fil2" d="M1526 4317c-62,-1 -37,-29 11,-32l2 170 37 1 3 -49c31,29 29,50 91,49l-27 -39c-12,-16 -9,-15 -30,-32l58 -68c-30,0 -50,-8 -90,42 -12,-75 29,-109 -55,-109 -71,0 -56,24 -81,61l-10 14c-18,33 7,26 18,27l2 104 39 -1 0 -103c38,-1 31,7 32,-35z"/>
   <path class="fil4" d="M5780 3904c2,1 4,3 5,4 1,1 4,3 5,5l22 27c48,68 40,76 96,75l1 -189 -42 0 -3 115c-16,-20 -35,-50 -50,-71 -27,-38 -17,-45 -75,-45l4 191 38 -1 -1 -111z"/>
   <path class="fil4" d="M4323 1182l39 -1 2 -111 18 19c57,67 39,94 108,93l2 -188 -42 -2 -1 115c-85,-88 -42,-115 -127,-115l1 190z"/>
   <path class="fil4" d="M1746 4851c63,49 45,113 128,111l1 -189 -42 0 -3 115c-75,-89 -48,-116 -125,-116l4 191 38 -1 -1 -111z"/>
   <path class="fil4" d="M1953 4014c4,-47 -33,-45 -38,-93 -5,-51 30,-65 77,-58 64,97 -20,86 -14,152l80 0c4,-39 8,-31 -28,-33 53,-68 35,-157 -64,-157 -78,0 -127,58 -65,157 -36,2 -33,-6 -28,34l80 -2z"/>
   <path class="fil4" d="M5221 3982c-22,-20 -42,-31 -36,-71 4,-30 19,-54 53,-52 62,5 75,117 -17,123zm-76 -30c25,104 217,85 181,-64 -25,-100 -217,-87 -181,64z"/>
   <path class="fil4" d="M6033 3862c60,-18 85,96 22,116 -32,11 -58,-12 -64,-42 -8,-46 9,-64 42,-74zm-84 83c9,54 51,81 118,68 53,-9 77,-56 65,-119 -19,-105 -208,-97 -183,51z"/>
   <path class="fil4" d="M3602 1028c60,-18 85,96 22,117 -32,11 -58,-13 -63,-42 -9,-46 8,-65 41,-75zm-21 -32c-103,25 -90,219 62,182 99,-24 80,-217 -62,-182z"/>
   <path class="fil4" d="M2707 1028c61,-18 85,96 22,117 -32,11 -58,-13 -63,-42 -9,-46 9,-65 41,-75zm-21 -32c-102,25 -90,219 62,182 99,-24 80,-217 -62,-182z"/>
   <path class="fil4" d="M5511 1028c60,-18 85,96 22,117 -32,11 -58,-13 -64,-42 -8,-46 9,-65 42,-75zm-21 -32c-103,25 -91,219 62,182 99,-24 80,-217 -62,-182z"/>
   <path class="fil4" d="M1962 1028c60,-18 84,96 22,117 -33,11 -58,-13 -64,-42 -9,-46 9,-65 42,-75zm-21 -32c-103,25 -91,219 61,182 99,-24 81,-217 -61,-182z"/>
   <polygon class="fil4" points="4539,1182 4579,1181 4581,1100 4658,1100 4659,1182 4698,1181 4700,995 4658,991 4658,1066 4580,1066 4580,995 4539,991 "/>
   <polygon class="fil4" points="5829,1182 5869,1181 5871,1100 5948,1100 5949,1182 5988,1181 5990,995 5948,991 5948,1066 5870,1066 5870,995 5829,991 "/>
   <polygon class="fil4" points="5408,3933 5485,3933 5489,4016 5527,4015 5527,3827 5486,3825 5486,3900 5408,3900 5408,3827 5366,3825 5370,4016 5407,4015 "/>
   <path class="fil4" d="M2459 1182l39 -1 1 -67c34,20 48,42 61,67l55 0c-10,-23 -51,-65 -75,-92 22,-42 46,-55 71,-97 -90,0 -50,22 -110,67l-2 -63 -41 -5 1 191z"/>
   <path class="fil4" d="M2839 1182l39 -1 2 -67c33,20 47,42 60,67l56 0c-11,-23 -51,-65 -76,-92 22,-42 47,-55 71,-97 -90,0 -50,22 -110,67l-2 -63 -40 -5 0 191z"/>
   <path class="fil2" d="M5034 4336l14 41 -36 0 22 -41zm-56 119c19,-24 4,-24 30,-44l45 0c26,20 11,20 30,45l36 0c0,-27 -23,-74 -34,-103 -17,-43 -22,-83 -47,-88 -36,-7 -43,38 -63,93 -12,32 -33,69 -32,98l35 -1z"/>
   <path class="fil4" d="M1780 3922c21,-41 46,-54 70,-97 -89,0 -50,22 -111,68l0 -65 -42 -3 4 191 37 -2 1 -66c33,20 47,41 61,67l55 -1c-14,-31 -13,-22 -38,-47 -15,-15 -23,-28 -37,-45z"/>
   <path class="fil4" d="M2197 4869c22,-41 46,-54 71,-97 -90,0 -50,22 -111,68l-1 -65 -41 -3 4 191 37 -2 0 -66c34,20 48,41 61,67l55 -1 -75 -92z"/>
   <path class="fil4" d="M1998 4840l17 42 -38 2 21 -44zm-94 122c64,0 34,4 62,-43l65 -1c12,47 2,44 57,44 -9,-35 -26,-71 -38,-102 -20,-51 -27,-96 -62,-88 -23,6 -77,162 -84,190z"/>
   <path class="fil4" d="M1417 4840l16 42 -38 2 22 -44zm-94 122c63,0 34,4 61,-43l65 -1c12,47 2,44 57,44 -8,-35 -26,-71 -38,-102 -19,-51 -26,-96 -61,-88 -23,6 -78,162 -84,190z"/>
   <path class="fil4" d="M2438 3893l17 42 -39 2 22 -44zm-94 122c64,0 34,4 62,-43l65 -1c12,47 2,44 57,44 -9,-35 -26,-71 -38,-102 -20,-51 -27,-96 -62,-88 -23,6 -77,162 -84,190z"/>
   <path class="fil4" d="M5687 1078c-18,42 -40,61 -63,104 84,0 32,-7 92,-62 32,46 19,62 86,62 -12,-27 -42,-72 -62,-92 14,-35 44,-60 61,-98l-49 0c-8,23 -23,36 -36,58l-43 -57 -47 -1c15,27 37,67 61,86z"/>
   <path class="fil4" d="M5041 3893l16 42 -38 2 22 -44zm-94 122c63,0 34,4 61,-43l65 -1c12,47 2,44 57,44l-57 -150c-5,-14 -10,-47 -42,-40 -24,6 -78,162 -84,190z"/>
   <path class="fil4" d="M2379 4840l16 42 -38 2 22 -44zm-94 122c63,0 34,4 61,-43l65 -1c12,47 2,44 57,44l-57 -150c-40,-105 -76,18 -89,48 -13,33 -29,66 -37,102z"/>
   <path class="fil4" d="M3258 1059l17 42 -38 2 21 -44zm-93 123c80,0 23,-10 69,-45l57 0c12,48 2,45 57,45l-57 -151c-40,-105 -76,18 -89,49 -13,33 -29,65 -37,102z"/>
   <path class="fil4" d="M2241 3833c-28,-19 -104,-8 -144,-8 1,48 13,41 60,90 -21,26 -63,56 -68,100l153 0 0 -33 -92 0c20,-38 39,-31 58,-67 -15,-32 -31,-31 -46,-56 10,0 44,2 51,1 39,-5 25,8 28,-27z"/>
   <path class="fil4" d="M4807 1177l36 0 1 -153c30,-5 52,-7 78,2l2 151 39 -2 -1 -182 -155 -1 0 185z"/>
   <path class="fil4" d="M5009 1182l129 0 3 -32 -91 -2 0 -48 73 -1 1 -29 -74 -4 0 -41c57,0 85,19 86,-33l-128 0 1 190z"/>
   <path class="fil4" d="M4152 1182l129 0 2 -32 -90 -2 0 -48 72 -1 2 -29 -74 -4 0 -41c57,0 84,19 86,-33l-128 0 1 190z"/>
   <path class="fil4" d="M5617 3892c2,-46 -6,-33 48,-33 42,0 37,9 38,-34l-128 0 4 191 127 -1 1 -31c-30,-3 -67,3 -90,-10l0 -40 73 -2 1 -28c-24,-6 -54,-1 -74,-12z"/>
   <path class="fil4" d="M1382 3892c1,-46 -7,-33 47,-33 42,0 38,9 39,-34l-129 0 4 191 127 -1 2 -31c-30,-3 -67,3 -90,-10l0 -40 72 -2 1 -28c-23,-6 -54,-1 -73,-12z"/>
   <path class="fil4" d="M2321 1025c82,1 80,46 0,49l0 -49zm-41 157l39 -1 2 -74 25 0c99,0 99,-115 8,-115l-75 0 1 190z"/>
   <path class="fil4" d="M5214 1025c83,1 80,46 0,49l0 -49zm-41 157l40 -1 2 -74 24 0c99,0 99,-115 8,-115l-75 0 1 190z"/>
   <path class="fil4" d="M3067 1025c82,1 80,46 0,49l0 -49zm-41 157l39 -1 2 -74 25 0c98,0 99,-115 7,-115l-74 0 1 190z"/>
   <path class="fil2" d="M5304 4456c9,-54 -18,-100 40,-101 18,26 9,64 12,100l38 1c6,-87 13,-164 -87,-130l0 -73 -42 1 2 201 37 1z"/>
   <path class="fil4" d="M1575 4806c83,1 80,46 0,48l0 -48zm0 82c53,0 114,-10 97,-75 -13,-51 -86,-41 -139,-41l4 191 38 -1 0 -74z"/>
   <path class="fil2" d="M1999 5220c-67,0 -36,-2 -90,41l-3 -109 -41 4 2 201 38 1 2 -49c55,56 35,49 88,49 -4,-40 -17,-11 -50,-78l54 -60z"/>
   <path class="fil4" d="M1136 4015c53,0 44,3 61,-49 8,-23 16,-53 35,-71 39,143 39,122 84,119 -7,-32 -24,-67 -36,-99 -15,-42 -51,-146 -87,-57l-57 157z"/>
   <path class="fil4" d="M1129 4962c94,0 37,-66 96,-120 6,24 17,54 26,79 16,49 7,43 58,40 -7,-32 -25,-67 -36,-99 -15,-42 -51,-146 -87,-57l-57 157z"/>
   <path class="fil5" d="M2055 4389c-6,45 -3,63 39,67l79 0c18,-91 3,-165 -103,-132 -9,19 -8,7 -4,35 28,-9 48,-17 67,11 -46,0 -42,-2 -78,19z"/>
   <path class="fil5" d="M2017 5291c-5,45 -2,64 40,67l78 0c18,-91 4,-165 -102,-132 -10,19 -8,7 -4,35 27,-8 47,-17 67,11 -47,0 -43,-1 -79,19z"/>
   <path class="fil5" d="M1783 5272c-47,0 -43,-1 -79,19 -9,75 14,67 118,67 18,-91 4,-165 -102,-132 -10,19 -8,7 -4,35 27,-8 47,-17 67,11z"/>
   <path class="fil5" d="M1365 5272c-46,0 -42,-1 -78,19 -9,75 13,67 118,67 18,-91 3,-165 -103,-132 -9,19 -8,7 -4,35 27,-8 48,-17 67,11z"/>
   <path class="fil5" d="M1338 4415c14,-12 -3,-3 18,-9l62 -3c13,-109 -108,-111 -125,-36 -17,73 46,99 95,88 27,-5 26,-4 28,-33l-10 -3c-29,-3 -24,8 -68,-4z"/>
   <path class="fil5" d="M5543 4415c21,-17 50,-11 81,-12 13,-109 -109,-111 -126,-36 -16,73 47,99 96,88 26,-5 25,-4 28,-33 -20,-9 -33,5 -79,-7z"/>
   <path class="fil2" d="M5888 4422c-39,-16 -32,-39 -17,-69l35 1c15,31 19,53 -18,68zm-71 -23c8,79 151,82 143,-20 -7,-90 -155,-87 -143,20z"/>
   <path class="fil2" d="M1750 4422c-39,-16 -33,-39 -17,-69l34 1c16,31 20,53 -17,68zm-71 -23c8,79 150,82 142,-20 -7,-90 -154,-87 -142,20z"/>
   <path class="fil4" d="M1598 4015c11,-44 -1,-65 22,-111 15,-32 35,-51 48,-79 -67,0 -47,2 -88,73l-37 -73 -50 0c50,87 57,64 68,190l37 0z"/>
   <path class="fil4" d="M6251 4015c11,-44 -1,-65 22,-111 15,-32 35,-51 48,-79 -67,0 -48,2 -88,73l-37 -73 -50 0c50,87 57,64 68,190l37 0z"/>
   <path class="fil4" d="M2143 1181l36 1c11,-41 1,-64 20,-106 16,-36 36,-55 50,-84 -65,0 -47,1 -87,72l-38 -72 -49 0c49,87 57,63 68,189z"/>
   <path class="fil4" d="M3783 1181l37 1c10,-41 0,-64 19,-106 16,-36 37,-55 51,-84 -66,0 -48,1 -87,72l-39 -72 -49 0c50,87 57,63 68,189z"/>
   <path class="fil5" d="M5698 4456c7,-58 -19,-105 41,-101 17,28 7,68 11,101l37 -1c7,-59 10,-105 -21,-135l-107 0 2 136 37 0z"/>
   <path class="fil5" d="M1582 5358c7,-58 -19,-104 41,-100 17,27 7,67 11,100l37 -1c7,-59 10,-104 -21,-134l-107 -1 2 136 37 0z"/>
   <path class="fil4" d="M1701 1025l58 1 2 156 42 0 0 -155c54,-5 59,15 60,-35l-162 0 0 33z"/>
   <path class="fil4" d="M3342 1025l58 1 2 156 42 0 0 -155c53,-5 58,15 59,-35l-161 0 0 33z"/>
   <path class="fil2" d="M5986 4319c0,69 -15,138 66,138 81,-1 64,-67 64,-138l-40 -1 -6 99c-59,15 -42,-43 -42,-99l-42 1z"/>
   <path class="fil2" d="M1141 4456c135,0 125,15 126,-34l-87 0 0 -155 -42 -2 3 191z"/>
   <path class="fil2" d="M1134 5358c135,0 124,15 125,-34l-86 0 0 -155 -43 -2 4 191z"/>
   <path class="fil2" d="M1884 4364c18,-17 24,-12 57,-5 6,-34 8,-38 -27,-42 -22,-3 -47,-2 -60,16 -41,50 30,67 30,67l19 13c1,-2 3,3 4,4 -26,8 -27,4 -65,0 1,68 79,36 102,22 14,-62 -9,-59 -60,-75z"/>
   <path class="fil2" d="M5203 4457c40,0 26,-4 33,-20 -10,-23 3,-7 -41,-20l-1 -65c44,0 39,9 40,-35l-40 0c0,-35 8,-31 -15,-37 -32,-8 -19,7 -35,31 -13,19 -39,37 9,41 0,29 -8,72 12,92 9,8 24,14 38,13z"/>
   <path class="fil0" d="M1962 1028c-33,10 -51,29 -42,75 6,29 31,53 64,42 62,-21 38,-135 -22,-117z"/>
   <path class="fil0" d="M2707 1028c-32,10 -50,29 -41,75 5,29 31,53 63,42 63,-21 39,-135 -22,-117z"/>
   <path class="fil0" d="M5511 1028c-33,10 -50,29 -42,75 6,29 32,53 64,42 63,-21 38,-135 -22,-117z"/>
   <path class="fil0" d="M6033 3862c-33,10 -50,28 -42,74 6,30 32,53 64,42 63,-20 38,-134 -22,-116z"/>
   <path class="fil0" d="M3602 1028c-33,10 -50,29 -41,75 5,29 31,53 63,42 63,-21 38,-135 -22,-117z"/>
   <polygon class="fil4" points="5352,1182 5391,1181 5393,995 5351,991 "/>
   <polygon class="fil4" points="2283,4016 2321,4015 2321,3827 2279,3825 "/>
   <path class="fil2" d="M1478 5358c3,-25 -6,-69 8,-89 24,-34 40,14 42,-49l-89 2 2 136 37 0z"/>
   <path class="fil6" d="M5278 3900l0 33 -86 0 0 -33 86 0zm-57 82c92,-6 79,-118 17,-123 -34,-2 -49,22 -53,52 -6,40 14,51 36,71z"/>
   <polygon class="fil5" points="1978,4455 2017,4456 2018,4317 1976,4320 "/>
   <polygon class="fil5" points="5430,4455 5469,4456 5470,4317 5429,4320 "/>
   <path class="fil0" d="M5888 4422c37,-15 33,-37 18,-68l-35 -1c-15,30 -22,53 17,69z"/>
   <path class="fil0" d="M1750 4422c37,-15 33,-37 17,-68l-34 -1c-16,30 -22,53 17,69z"/>
   <path class="fil7" d="M4807 1177c10,6 -1,5 16,7 12,2 15,0 26,-1l2 -155 66 0 1 156c35,1 29,6 45,-9l-39 2 -2 -151c-26,-9 -48,-7 -78,-2l-1 153 -36 0z"/>
   <polygon class="fil4" points="5192,3933 5278,3933 5278,3900 5192,3900 "/>
   <path class="fil0" d="M2321 1074c80,-3 82,-48 0,-49l0 49z"/>
   <path class="fil0" d="M5214 1074c80,-3 83,-48 0,-49l0 49z"/>
   <path class="fil0" d="M1575 4854c80,-2 83,-47 0,-48l0 48z"/>
   <path class="fil0" d="M3067 1074c80,-3 82,-48 0,-49l0 49z"/>
   <polygon class="fil5" points="1977,4291 2016,4292 2018,4250 1975,4253 "/>
   <polygon class="fil5" points="5430,4291 5469,4292 5471,4251 5428,4255 "/>
   <polygon class="fil6" points="3237,1103 3275,1101 3258,1059 "/>
   <polygon class="fil6" points="1395,4884 1433,4882 1417,4840 "/>
   <polygon class="fil6" points="1977,4884 2015,4882 1998,4840 "/>
   <polygon class="fil6" points="2357,4884 2395,4882 2379,4840 "/>
   <polygon class="fil6" points="5019,3937 5057,3935 5041,3893 "/>
   <polygon class="fil6" points="2416,3937 2455,3935 2438,3893 "/>
   <polygon class="fil8" points="5012,4377 5048,4377 5034,4336 "/>
   <polygon class="fil0" points="2001,1289 5485,1289 5485,1624 2001,1624 "/>
   <path class="fil9" d="M2369 1306l-1 37c-23,-1 -44,-2 -64,-2 -1,22 -1,46 -1,73 0,42 1,82 2,120l-48 0c2,-37 2,-77 2,-120 0,-26 0,-51 0,-73 -16,0 -39,1 -67,3l2 -38 175 0zm163 227l-41 2c-1,-6 -2,-11 -2,-15l-3 0c-15,12 -32,19 -52,19 -19,0 -33,-5 -43,-15 -10,-10 -14,-31 -14,-61 0,-3 0,-9 0,-15 0,-7 0,-12 0,-17 0,-13 -1,-34 -3,-62l48 -2c-2,22 -3,44 -3,64 0,28 2,48 6,57 4,10 13,15 25,15 13,0 25,-3 34,-9 0,-62 0,-104 -2,-125l47 -2c-1,22 -2,51 -2,86 0,26 1,53 5,80zm149 -166l-10 41c-8,-3 -17,-5 -26,-5 -16,0 -27,8 -33,23 0,47 1,83 1,108l-45 0c2,-35 3,-64 3,-86 0,-28 -3,-55 -9,-79l44 -5c2,12 3,20 3,22l2 0c11,-16 25,-24 42,-24 9,0 18,1 28,5zm180 167l-53 0c0,-5 -9,-19 -26,-44 -17,-25 -28,-38 -33,-38l-2 0c0,24 0,51 2,82l-46 0c2,-55 2,-98 2,-130 0,-45 -1,-84 -5,-116l49 -3c-2,44 -3,84 -3,119 0,4 0,13 0,26l3 0c3,0 12,-10 27,-29 15,-19 22,-30 22,-34l52 0c0,4 -8,14 -24,31 -15,16 -28,28 -37,34l0 3c10,7 25,24 44,51 18,27 28,43 28,48zm70 0l-46 0c1,-24 2,-52 2,-84 0,-31 -2,-58 -6,-81l50 -5c-2,22 -2,51 -2,86 0,30 0,58 2,84zm8 -220c0,8 -3,15 -8,21 -5,6 -13,9 -22,9 -8,0 -15,-2 -19,-7 -5,-6 -7,-12 -7,-19 0,-8 3,-15 8,-21 5,-6 13,-8 22,-8 9,0 15,2 19,7 5,5 7,11 7,18zm147 172c0,35 -25,52 -76,52 -18,0 -35,-2 -48,-6l5 -34c15,5 29,8 43,8 14,0 23,-1 29,-4 5,-2 8,-6 8,-12 0,-8 -10,-16 -29,-24 -17,-7 -29,-13 -37,-20 -10,-9 -16,-20 -16,-33 0,-16 6,-28 17,-38 12,-9 28,-14 50,-14 20,0 36,2 47,5l-6 35c-12,-5 -26,-8 -41,-8 -19,0 -28,5 -28,15 0,5 2,9 6,12 4,3 12,6 24,11 16,6 28,12 36,19 11,9 16,21 16,36zm186 48l-46 0c3,-30 4,-59 4,-86 0,-21 -3,-35 -8,-41 -5,-7 -13,-10 -25,-10 -13,0 -25,4 -37,13 0,49 1,91 2,124l-46 0c2,-37 2,-80 2,-130 0,-47 -2,-86 -5,-116l48 -3c-1,37 -2,70 -2,98l2 0c15,-14 32,-21 52,-21 18,0 33,4 43,12 10,9 16,24 16,45 0,3 0,7 -1,14 0,7 0,11 0,13 0,20 0,49 1,88zm279 -87c0,29 -9,52 -27,69 -17,16 -38,24 -62,24 -23,0 -43,-7 -59,-22 -16,-15 -24,-37 -24,-64 0,-30 8,-53 26,-69 18,-17 39,-25 63,-25 23,0 42,7 59,22 16,16 24,37 24,65zm-45 5c0,-17 -4,-31 -11,-43 -8,-11 -18,-17 -31,-17 -12,0 -22,5 -29,16 -8,11 -12,24 -12,40 0,17 4,32 12,43 8,12 18,17 30,17 12,0 22,-5 30,-16 7,-11 11,-24 11,-40zm205 45l-2 33c-11,6 -25,9 -43,9 -29,0 -52,-9 -68,-25 -16,-17 -23,-37 -23,-61 0,-25 8,-46 24,-64 17,-18 40,-28 68,-28 14,0 27,2 38,5l-6 36c-10,-4 -22,-7 -35,-7 -14,0 -25,5 -33,15 -8,10 -12,23 -12,37 0,16 5,29 14,40 10,11 23,17 41,17 10,0 22,-2 37,-7zm157 0l-3 33c-11,6 -25,9 -42,9 -30,0 -53,-9 -68,-25 -16,-17 -24,-37 -24,-61 0,-25 8,-46 25,-64 16,-18 39,-28 68,-28 14,0 26,2 37,5l-6 36c-10,-4 -22,-7 -35,-7 -14,0 -25,5 -33,15 -8,10 -12,23 -12,37 0,16 5,29 15,40 9,11 23,17 40,17 10,0 23,-2 38,-7zm179 36l-40 2c-1,-6 -2,-11 -2,-15l-3 0c-15,12 -33,19 -53,19 -18,0 -33,-5 -42,-15 -10,-10 -14,-31 -14,-61 0,-3 0,-9 0,-15 0,-7 0,-12 0,-17 0,-13 -1,-34 -3,-62l48 -2c-2,22 -3,44 -3,64 0,28 2,48 6,57 4,10 12,15 25,15 13,0 25,-3 34,-9 0,-62 0,-104 -2,-125l47 -2c-2,22 -2,51 -2,86 0,26 1,53 4,80zm202 -90c0,26 -7,48 -21,67 -14,19 -34,29 -58,29 -18,0 -31,-4 -38,-12l-2 0c0,28 1,57 1,87l-46 0c2,-34 3,-72 3,-116 0,-57 -3,-100 -9,-129l44 -5 2 15 3 0c12,-12 29,-18 50,-18 22,0 39,8 52,25 13,16 19,35 19,57zm-45 5c0,-15 -4,-28 -11,-38 -7,-11 -17,-16 -30,-16 -16,0 -27,5 -35,14 2,33 3,63 3,90 7,6 17,9 28,9 15,0 26,-6 34,-17 7,-12 11,-26 11,-42zm125 86l-46 0c1,-24 2,-52 2,-84 0,-31 -2,-58 -6,-81l50 -5c-2,22 -3,51 -3,86 0,30 1,58 3,84zm8 -220c0,8 -3,15 -8,21 -6,6 -13,9 -22,9 -8,0 -15,-2 -19,-7 -5,-6 -7,-12 -7,-19 0,-8 3,-15 8,-21 5,-6 13,-8 22,-8 8,0 15,2 19,7 5,5 7,11 7,18zm179 119c0,6 0,13 -1,23l-110 2c2,13 7,24 17,33 9,9 22,13 37,13 17,0 35,-3 55,-8l-4 34c-16,6 -35,9 -58,9 -30,0 -52,-9 -68,-26 -16,-17 -24,-37 -24,-61 0,-25 8,-46 23,-64 15,-19 35,-28 62,-28 24,0 42,7 54,20 12,14 17,31 17,53zm-40 -2c0,-27 -11,-40 -33,-40 -22,0 -34,14 -38,41l71 -1zm228 102l-40 2c-1,-4 -2,-8 -2,-13l-2 0c-13,11 -29,17 -48,17 -22,0 -40,-8 -53,-25 -13,-16 -19,-35 -19,-57 0,-26 7,-48 21,-67 14,-19 34,-29 59,-29 16,0 28,3 36,10l3 0c0,-28 -2,-56 -4,-83l48 -2c-2,27 -3,66 -3,117 0,52 2,95 4,130zm-43 -39c0,-37 -1,-68 -2,-93 -8,-5 -18,-8 -29,-8 -15,0 -26,6 -33,17 -8,11 -11,25 -11,42 0,15 3,27 10,38 7,11 17,16 30,16 17,0 28,-4 35,-12zm295 39l-41 2c-1,-5 -2,-9 -2,-13l-3 0c-12,11 -29,16 -50,16 -15,0 -27,-4 -36,-12 -9,-8 -14,-19 -14,-32 0,-18 7,-33 22,-44 15,-11 40,-17 77,-18 0,-2 0,-4 0,-6 0,-13 -3,-21 -8,-25 -6,-4 -17,-6 -33,-6 -17,0 -34,2 -51,7l4 -32c16,-6 37,-8 66,-8 20,0 36,4 48,13 11,9 17,24 17,46 0,5 -1,14 -1,27 0,13 -1,22 -1,26 0,24 2,44 6,59zm-46 -36c-1,-16 -1,-29 -1,-41 -39,0 -58,10 -58,31 0,13 8,20 25,20 14,0 25,-3 34,-10zm192 -130l-10 41c-9,-3 -17,-5 -26,-5 -17,0 -28,8 -33,23 0,47 0,83 1,108l-46 0c2,-35 3,-64 3,-86 0,-28 -3,-55 -8,-79l43 -5c2,12 3,20 3,22l3 0c11,-16 25,-24 42,-24 8,0 18,1 28,5zm171 66c0,6 -1,13 -1,23l-111 2c2,13 8,24 17,33 10,9 22,13 37,13 18,0 36,-3 55,-8l-3 34c-16,6 -36,9 -59,9 -29,0 -52,-9 -68,-26 -15,-17 -23,-37 -23,-61 0,-25 7,-46 22,-64 15,-19 36,-28 62,-28 24,0 42,7 54,20 12,14 18,31 18,53zm-40 -2c0,-27 -12,-40 -34,-40 -21,0 -34,14 -38,41l72 -1zm210 102l-40 2c-2,-5 -3,-9 -3,-13l-2 0c-13,11 -30,16 -51,16 -15,0 -26,-4 -36,-12 -9,-8 -14,-19 -14,-32 0,-18 7,-33 22,-44 15,-11 40,-17 77,-18 1,-2 1,-4 1,-6 0,-13 -3,-21 -9,-25 -6,-4 -17,-6 -33,-6 -17,0 -34,2 -51,7l4 -32c16,-6 38,-8 66,-8 21,0 37,4 48,13 11,9 17,24 17,46 0,5 0,14 -1,27 0,13 0,22 0,26 0,24 1,44 5,59zm-46 -36c0,-16 -1,-29 -1,-41 -39,0 -58,10 -58,31 0,13 8,20 26,20 13,0 24,-3 33,-10z"/>
   <polygon class="fil0" points="4771,4120 6561,4120 6561,4772 4771,4772 "/>
   <polygon class="fil0" points="837,5099 2628,5099 2628,5751 837,5751 "/>
   <polygon class="fil0" points="731,4084 2522,4084 2522,4737 731,4737 "/>
   <path class="fil9" d="M5141 4326l-53 0c0,-7 -5,-28 -15,-62l-77 0c-10,34 -15,54 -15,62l-50 0c0,-4 13,-40 39,-106 25,-66 38,-103 38,-109l63 0c0,6 12,42 35,108 23,65 35,101 35,107zm-76 -93c-19,-57 -29,-88 -29,-93l-2 0c0,5 -10,35 -30,93l61 0zm194 62l-2 30c-8,3 -18,5 -30,5 -18,0 -31,-5 -40,-15 -9,-10 -14,-28 -14,-56 0,-17 1,-36 1,-57 -6,0 -14,1 -23,1l1 -32c9,0 16,1 24,1 0,-6 0,-22 1,-47l39 -4c-1,22 -2,39 -2,51 9,0 23,-1 41,-2l-1 33c-17,0 -30,-1 -41,-1 0,15 0,30 0,46 0,20 2,33 6,40 4,7 11,10 21,10 6,0 12,-1 19,-3zm175 31l-44 0c2,-28 3,-55 3,-81 0,-20 -2,-33 -7,-39 -5,-6 -13,-9 -25,-9 -12,0 -23,4 -35,12 0,47 1,86 2,117l-44 0c1,-34 1,-75 1,-123 0,-44 -1,-81 -5,-110l47 -2c-1,35 -2,66 -2,92l2 0c14,-13 31,-20 50,-20 18,0 32,4 42,12 10,9 15,23 15,43 0,2 0,6 -1,13 0,6 0,11 0,13 0,18 0,46 1,82zm84 0l-45 0c2,-23 2,-49 2,-79 0,-29 -2,-55 -5,-77l47 -4c-1,21 -2,48 -2,81 0,29 1,55 3,79zm7 -207c0,7 -2,14 -8,20 -5,5 -12,8 -21,8 -8,0 -14,-2 -18,-7 -4,-5 -7,-11 -7,-18 0,-7 3,-14 8,-19 5,-6 12,-9 22,-9 8,0 14,3 18,8 4,4 6,10 6,17zm174 112c0,5 -1,13 -1,22l-107 1c2,13 7,23 16,32 9,8 21,12 36,12 17,0 35,-3 53,-7l-3 32c-15,5 -34,8 -57,8 -28,0 -50,-8 -65,-24 -15,-16 -23,-35 -23,-58 0,-23 7,-44 22,-61 14,-17 34,-26 60,-26 23,0 40,6 52,19 11,13 17,29 17,50zm-39 -2c0,-25 -11,-38 -32,-38 -21,0 -33,13 -37,39l69 -1zm218 97l-44 0c3,-28 4,-56 4,-85 0,-17 -3,-29 -8,-35 -5,-6 -13,-9 -23,-9 -13,0 -25,4 -36,13 1,43 1,82 1,116l-45 0c2,-34 3,-62 3,-81 0,-27 -2,-52 -8,-75l43 -5 2 18 3 0c15,-13 32,-20 52,-20 17,0 31,4 41,12 10,8 15,23 15,45 0,3 0,7 0,12 0,6 -1,11 -1,17 0,15 1,41 1,77zm197 -82c0,28 -9,49 -26,65 -17,16 -37,24 -61,24 -22,0 -41,-8 -56,-22 -16,-14 -24,-34 -24,-60 0,-28 9,-50 26,-66 17,-16 37,-23 60,-23 22,0 41,7 57,21 16,15 24,35 24,61zm-44 5c0,-16 -3,-30 -11,-41 -7,-10 -17,-16 -29,-16 -12,0 -21,5 -29,15 -7,11 -11,23 -11,38 0,16 4,30 12,41 7,11 17,16 29,16 12,0 21,-5 28,-15 8,-10 11,-23 11,-38zm221 77l-38 1c-2,-6 -3,-10 -3,-14l-3 0c-14,12 -31,18 -50,18 -19,0 -32,-5 -41,-14 -10,-10 -14,-29 -14,-58 0,-3 0,-8 0,-14 0,-6 0,-12 0,-16 0,-12 -1,-32 -3,-59l46 -1c-1,21 -2,41 -2,60 0,27 2,45 6,54 4,10 12,14 23,14 13,0 25,-3 34,-9 0,-58 -1,-97 -2,-118l45 -1c-2,20 -2,47 -2,81 0,24 1,50 4,76z"/>
   <path class="fil9" d="M1276 4372l-1 36 -138 0c1,-30 2,-68 2,-113 0,-42 -1,-76 -2,-103l46 0c-1,25 -1,59 -1,103 0,33 -1,60 -3,79 31,0 63,-1 97,-2zm164 -60c0,6 0,13 -1,22l-107 2c2,12 7,23 16,31 10,8 22,13 36,13 17,0 35,-3 53,-8l-3 32c-15,6 -34,8 -57,8 -28,0 -50,-8 -65,-24 -15,-16 -23,-35 -23,-57 0,-24 7,-44 22,-61 14,-18 34,-26 60,-26 23,0 40,6 52,19 11,12 17,29 17,49zm-39 -1c0,-26 -11,-38 -32,-38 -21,0 -33,13 -37,39l69 -1zm336 97l-50 0c0,-4 -8,-18 -25,-41 -17,-24 -28,-36 -33,-36l-2 0c0,23 1,48 2,77l-44 0c2,-38 2,-79 2,-123 0,-31 -1,-59 -3,-83 -9,-3 -19,-4 -30,-4 -12,0 -20,4 -23,12 -3,8 -4,22 -4,43 10,0 23,0 41,-1l-2 33c-17,-1 -30,-1 -39,-1 0,41 1,83 3,124l-44 0c1,-41 2,-82 2,-124 -6,0 -16,0 -29,1l2 -33c12,1 21,1 27,1 0,-31 5,-53 16,-65 10,-12 25,-18 45,-18 12,0 23,1 33,5l48 -3c-2,42 -3,80 -3,113l0 24 2 0c4,0 12,-9 27,-27 14,-17 22,-28 22,-32l49 0c0,4 -8,13 -23,29 -15,16 -27,26 -36,32l0 3c10,7 25,24 43,50 18,25 26,39 26,44zm181 -83c0,28 -9,50 -26,66 -17,15 -37,23 -60,23 -22,0 -41,-7 -57,-21 -16,-15 -24,-35 -24,-61 0,-28 9,-49 26,-65 17,-16 37,-24 61,-24 22,0 40,7 56,22 16,14 24,34 24,60zm-43 5c0,-16 -4,-29 -12,-40 -7,-11 -17,-16 -29,-16 -12,0 -21,5 -29,15 -7,10 -11,23 -11,38 0,16 4,29 12,40 7,11 17,17 29,17 12,0 21,-5 29,-16 7,-10 11,-22 11,-38zm185 32c0,34 -24,50 -73,50 -18,0 -34,-2 -47,-6l5 -32c14,5 28,7 42,7 13,0 22,-1 27,-3 5,-2 8,-6 8,-11 0,-8 -9,-16 -28,-23 -16,-7 -28,-13 -35,-19 -10,-9 -16,-19 -16,-32 0,-14 6,-26 17,-35 11,-9 27,-14 48,-14 19,0 34,2 46,6l-6 32c-13,-5 -26,-7 -40,-7 -18,0 -27,5 -27,14 0,4 2,8 6,11 3,3 11,6 23,10 16,6 27,12 35,19 10,8 15,20 15,33zm77 46l-45 0c2,-23 3,-49 3,-79 0,-29 -2,-55 -6,-77l48 -5c-2,22 -3,49 -3,82 0,28 1,55 3,79zm7 -208c0,8 -2,14 -7,20 -5,6 -13,9 -22,9 -7,0 -13,-3 -18,-8 -4,-5 -6,-10 -6,-17 0,-8 2,-14 7,-20 5,-5 13,-8 22,-8 8,0 14,2 18,7 4,5 6,11 6,17zm165 208l-39 1c-2,-5 -3,-9 -3,-13l-2 0c-12,11 -28,16 -49,16 -14,0 -25,-4 -34,-12 -10,-7 -14,-18 -14,-30 0,-17 7,-31 21,-41 14,-11 39,-17 75,-17 0,-2 0,-4 0,-6 0,-12 -3,-20 -8,-24 -6,-4 -17,-5 -32,-5 -17,0 -33,2 -49,6l4 -30c15,-5 36,-8 63,-8 20,0 36,4 47,13 10,8 16,23 16,44 0,4 0,13 -1,25 0,12 0,20 0,24 0,23 1,42 5,57zm-44 -35c-1,-15 -1,-28 -1,-38 -38,0 -57,9 -57,28 0,13 9,20 25,20 13,0 24,-3 33,-10z"/>
   <path class="fil9" d="M1276 5242l-1 36 -138 0c1,-30 2,-68 2,-113 0,-42 -1,-76 -2,-103l46 0c-1,25 -1,59 -1,103 0,33 -1,60 -3,79 31,0 63,-1 97,-2zm155 36l-39 1c-2,-5 -3,-9 -3,-13l-2 0c-12,11 -29,16 -49,16 -14,0 -25,-4 -35,-12 -9,-7 -13,-18 -13,-30 0,-17 7,-31 21,-41 14,-11 39,-17 75,-17 0,-2 0,-4 0,-6 0,-12 -3,-20 -9,-24 -5,-4 -16,-5 -31,-5 -17,0 -33,2 -49,6l4 -30c15,-5 36,-8 63,-8 20,0 35,4 46,13 11,8 17,23 17,44 0,4 -1,13 -1,25 0,12 -1,20 -1,24 0,23 2,42 6,57zm-44 -35c-1,-15 -1,-28 -1,-38 -38,0 -57,9 -57,28 0,13 8,20 25,20 13,0 24,-3 33,-10zm185 -123l-10 39c-8,-3 -16,-5 -25,-5 -16,0 -27,7 -32,22 0,44 1,78 1,102l-44 0c2,-34 3,-61 3,-82 0,-26 -3,-51 -8,-74l42 -5c2,12 3,19 3,21l2 0c11,-15 24,-23 41,-23 8,0 17,2 27,5zm171 158l-44 0c2,-28 3,-56 3,-85 0,-17 -2,-29 -7,-35 -5,-6 -13,-10 -24,-10 -12,0 -24,5 -35,13 0,43 0,82 0,117l-44 0c2,-35 3,-62 3,-82 0,-26 -3,-51 -8,-74l42 -5 3 17 3 0c15,-13 32,-19 52,-19 17,0 30,4 41,12 10,8 15,23 15,44 0,3 0,8 -1,13 0,5 0,11 0,17 0,14 0,40 1,77zm171 0l-39 1c-1,-5 -2,-9 -2,-13l-2 0c-13,11 -29,16 -50,16 -13,0 -25,-4 -34,-12 -9,-7 -14,-18 -14,-30 0,-17 7,-31 22,-41 14,-11 39,-17 74,-17 0,-2 0,-4 0,-6 0,-12 -2,-20 -8,-24 -6,-4 -16,-5 -32,-5 -16,0 -33,2 -49,6l4 -30c15,-5 36,-8 64,-8 20,0 35,4 46,13 11,8 16,23 16,44 0,4 0,13 0,25 -1,12 -1,20 -1,24 0,23 2,42 5,57zm-44 -35c-1,-15 -1,-28 -1,-38 -37,0 -56,9 -56,28 0,13 8,20 25,20 13,0 23,-3 32,-10zm201 0l-2 32c-10,5 -24,7 -41,7 -29,0 -51,-7 -66,-23 -15,-16 -23,-35 -23,-58 0,-23 8,-43 24,-60 16,-18 38,-26 66,-26 13,0 26,1 36,4l-5 34c-11,-4 -22,-6 -35,-6 -13,0 -23,5 -31,14 -8,9 -12,21 -12,35 0,15 5,28 14,38 9,10 22,16 39,16 10,0 22,-3 36,-7zm161 35l-39 1c-2,-5 -3,-9 -3,-13l-2 0c-12,11 -29,16 -49,16 -14,0 -25,-4 -34,-12 -10,-7 -14,-18 -14,-30 0,-17 7,-31 21,-41 14,-11 39,-17 75,-17 0,-2 0,-4 0,-6 0,-12 -3,-20 -9,-24 -5,-4 -16,-5 -31,-5 -17,0 -33,2 -49,6l4 -30c15,-5 36,-8 63,-8 20,0 36,4 46,13 11,8 17,23 17,44 0,4 0,13 -1,25 0,12 0,20 0,24 0,23 1,42 5,57zm-44 -35c-1,-15 -1,-28 -1,-38 -38,0 -57,9 -57,28 0,13 9,20 25,20 13,0 24,-3 33,-10z"/>
  </g>
 </g>
</svg>
