<svg width="460" height="655" fill="none" xmlns="http://www.w3.org/2000/svg"><path d="M460 0H0v655h460V0z" fill="#0C479D"/><path d="M53 505V150h355v355H53z" fill="#fff"/><path fill-rule="evenodd" clip-rule="evenodd" d="M151.695 408.5c-4.26 12.28-25.462 14-18.733-18.016 3.281-27.446 12.732-98.97 25.32-117.758L155.733 322c0 3.061-.169 74.253-4.038 86.5zm17.538-185.592V199c3.07-9.042 8.185-12.58 18.267-12.929.376-10.125 8.177-14.472 14-16.071h56.497c5.996 1.599 13.91 5.946 14.503 16.071 9.835.348 15.421 3.887 18.733 12.929v264h52v21.93l-226.1.07v-22h52.1V281s0 118.5-7.5 139.5-47.319 10.04-44.6-16.5c4.047-44.079 9.411-89.173 21.757-134.5l4.084-23.83 26.259-22.762zm47.994 19.139h28.597c1.953 0 3.104 1.076 3.104 2.884v25.812c0 1.634-1.156 2.888-3.104 2.888h-28.597c-1.748 0-3.104-1.255-3.104-2.888v-25.812c0-1.808 1.351-2.884 3.104-2.884zm.975-19.139h26.256c2.34 0 4.468-1.806 4.468-3.789 0-2.192-2.128-4.175-4.468-4.003h-26.256c-2.131-.174-4.467 1.811-4.467 4.003 0 1.983 2.336 3.789 4.467 3.789z" fill="#000"/></svg>