<svg width="460" height="655" fill="none" xmlns="http://www.w3.org/2000/svg"><path d="M460 0H0v655h460V0z" fill="#0C479D"/><path d="M53 505V150h355v355H53z" fill="#fff"/><path d="m199.3 190.551 75.882 117.707s60.991-.135 76.887 1.513c15.835 1.641 31.738 14.197 31.734 18.03-.009 4.162-14.247 15.734-30.087 17.45-15.904 1.635-79.491 2.659-79.491 2.659l-75.379 116.757-25.087.054 50.695-117.28-102.296-4.955L99.522 381.2h-16.36l16.911-53.544-16.91-52.793h17.349l21.696 38.306 102.315-6.177-50.311-116.386 25.088-.055z" fill="#000"/></svg>