<svg width="460" height="655" fill="none" xmlns="http://www.w3.org/2000/svg"><path d="M460 0H0v655h460V0z" fill="#0C479D"/><path d="M53 463V108h355v355H53z" fill="#fff"/><path d="M285.664 125c-15.655 0-28.341 12.747-28.341 28.47 0 15.717 12.687 28.464 28.341 28.464 15.653 0 28.336-12.747 28.336-28.464 0-15.723-12.683-28.47-28.336-28.47zM286.985 204.815l-55.78.138-2.269 4.336-72.26 68.955 37.12-1.865-38.696 73.877.237-.442c-14.657 26.653-11.854 57.649 6.974 77.125 18.055 18.676 45.396 22.956 75.216 12.429 5.245-1.852 15.558-61.623 15.558-61.623-17.075 8.825-43.969 27.666-55.364 14.654-2.741-3.129-3.864-10.09.822-18.616l88.442-168.968z" fill="#000"/><path d="M89.75 527.879a.797.797 0 0 1-.192.53c-.128.152-.339.278-.633.379-.295.102-.688.177-1.178.228-.492.051-1.11.076-1.856.076a19.39 19.39 0 0 1-1.9-.076c-.501-.051-.893-.126-1.178-.228-.285-.1-.491-.227-.619-.379a.795.795 0 0 1-.191-.53v-31.416H67.746v31.416a.837.837 0 0 1-.176.53c-.118.152-.324.278-.619.379-.294.102-.687.177-1.178.228a18.91 18.91 0 0 1-1.885.076c-.746 0-1.37-.025-1.87-.076-.501-.051-.9-.126-1.194-.228-.295-.1-.506-.227-.633-.379a.796.796 0 0 1-.191-.53v-35.358c0-.95.24-1.663.721-2.138.482-.475 1.115-.712 1.9-.712h24.507c.785 0 1.419.237 1.9.712.481.475.722 1.187.722 2.138v35.358zM123.21 525.786c0 .445-.014.834-.044 1.168a6.82 6.82 0 0 1-.117.834c-.05.222-.108.409-.178.56a1.22 1.22 0 0 1-.279.395c-.118.111-.3.217-.545.318-.245.102-.52.187-.825.258a6.98 6.98 0 0 1-.957.152c-.334.031-.658.046-.972.046-1.08 0-2.017-.107-2.813-.319a4.936 4.936 0 0 1-2.121-1.183c-.618-.576-1.163-1.374-1.635-2.395-.471-1.021-.912-2.34-1.325-3.957l-3.593-12.949-5.626 18.528c-.099.445-.226.789-.383 1.031-.157.243-.393.425-.707.546-.314.121-.731.197-1.252.227-.52.031-1.203.046-2.047.046-.923 0-1.66-.036-2.21-.106-.55-.071-.942-.217-1.177-.44-.236-.222-.335-.53-.295-.925.039-.394.177-.904.413-1.531l9.925-27.019-.647-1.728c-.707-2.001-1.312-3.265-1.812-3.79-.501-.526-1.213-.789-2.135-.789-.53 0-1.115.081-1.753.243-.639.161-1.036.242-1.193.242a.47.47 0 0 1-.324-.105c-.079-.071-.147-.208-.206-.41a4.354 4.354 0 0 1-.132-.819c-.03-.343-.045-.788-.045-1.334 0-.889.05-1.582.148-2.077.098-.495.24-.839.427-1.031.187-.192.461-.344.825-.455.363-.111.766-.207 1.207-.289.442-.081.855-.141 1.238-.181.382-.041.79-.061 1.222-.061 1.375 0 2.592.161 3.652.485a7.235 7.235 0 0 1 2.857 1.668c.845.788 1.596 1.84 2.254 3.154.657 1.314 1.281 2.961 1.87 4.943l6.922 23.471c.177.627.349 1.127.516 1.501.167.373.339.662.516.864.176.202.373.338.588.409.217.071.482.106.796.106.236 0 .442-.01.619-.03.176-.02.334-.03.471-.03.137 0 .265.025.383.076.117.05.21.172.279.364.069.192.123.47.162.834.039.362.058.858.058 1.484zM152.047 538.704a.84.84 0 0 1-.177.531c-.118.151-.315.277-.59.379-.274.101-.652.177-1.133.227-.481.051-1.085.076-1.812.076a17.36 17.36 0 0 1-1.782-.076c-.481-.05-.864-.126-1.148-.227-.284-.101-.481-.228-.589-.379a.893.893 0 0 1-.162-.531v-26.26c0-1.315-.093-2.346-.28-3.094-.187-.748-.456-1.39-.81-1.926a3.663 3.663 0 0 0-1.369-1.243c-.56-.293-1.213-.439-1.959-.439-.943 0-1.895.353-2.857 1.061-.963.708-1.964 1.739-3.005 3.093v17.982a.84.84 0 0 1-.177.531c-.118.152-.319.278-.603.379-.285.101-.663.177-1.134.228-.471.05-1.07.076-1.797.076-.727 0-1.326-.026-1.797-.076-.471-.051-.849-.127-1.134-.228-.285-.101-.486-.227-.604-.379a.841.841 0 0 1-.177-.531v-27.049c0-.202.049-.379.147-.53.099-.152.276-.278.531-.38a4.14 4.14 0 0 1 .986-.227c.404-.051.909-.076 1.517-.076.629 0 1.149.025 1.562.076.412.051.731.126.957.227.226.101.388.228.486.38a.952.952 0 0 1 .147.53v3.124c1.454-1.618 2.932-2.83 4.434-3.639 1.502-.809 3.068-1.213 4.698-1.213 1.787 0 3.294.303 4.521.91 1.227.606 2.219 1.429 2.975 2.471.756 1.041 1.301 2.259 1.635 3.654.333 1.395.5 3.072.5 5.033v27.535zM185.832 514.142c0 2.567-.275 4.822-.825 6.762-.549 1.941-1.349 3.558-2.401 4.852a9.742 9.742 0 0 1-3.858 2.896c-1.521.637-3.245.955-5.17.955-.667 0-1.335-.045-2.003-.136a10.53 10.53 0 0 1-1.944-.455 10.774 10.774 0 0 1-1.812-.804 7.279 7.279 0 0 1-1.575-1.182c.059.545.108 1.132.147 1.758.039.627.059 1.315.059 2.063v7.763a.96.96 0 0 1-.162.545c-.108.162-.304.298-.589.41-.285.111-.668.197-1.149.258s-1.075.091-1.781.091c-.727 0-1.326-.03-1.797-.091-.471-.061-.849-.147-1.134-.258-.284-.111-.486-.248-.603-.41a.903.903 0 0 1-.178-.545v-24.32c0-2.305.275-4.397.825-6.277.549-1.88 1.384-3.477 2.504-4.791 1.119-1.314 2.533-2.33 4.241-3.048 1.708-.717 3.731-1.076 6.068-1.076 2.16 0 4.055.313 5.685.94 1.629.627 2.999 1.572 4.108 2.835 1.11 1.263 1.945 2.836 2.504 4.716.559 1.879.84 4.063.84 6.549zm-7.777.303c0-1.334-.098-2.557-.295-3.669-.195-1.111-.514-2.072-.956-2.881-.442-.808-1.027-1.435-1.753-1.88-.727-.445-1.62-.667-2.681-.667-1.08 0-1.993.228-2.739.682-.746.455-1.355 1.087-1.826 1.896-.472.808-.815 1.748-1.031 2.82a17.486 17.486 0 0 0-.324 3.457v6.398c.864.91 1.791 1.582 2.784 2.016a7.448 7.448 0 0 0 3.019.652c1.06 0 1.964-.207 2.71-.621a4.83 4.83 0 0 0 1.812-1.774c.461-.768.79-1.698.986-2.79.196-1.092.294-2.305.294-3.639zM218.438 514.081c0 2.305-.295 4.407-.883 6.307-.589 1.901-1.483 3.538-2.681 4.913-1.198 1.375-2.7 2.436-4.506 3.184-1.807.748-3.918 1.122-6.333 1.122-2.337 0-4.37-.334-6.097-1.001-1.728-.667-3.162-1.637-4.301-2.91-1.139-1.274-1.983-2.841-2.533-4.701-.55-1.86-.825-3.982-.825-6.368 0-2.304.299-4.412.898-6.322.599-1.91 1.498-3.548 2.695-4.913 1.198-1.364 2.696-2.421 4.492-3.169 1.797-.748 3.903-1.122 6.318-1.122 2.357 0 4.399.329 6.127.986 1.728.657 3.157 1.622 4.286 2.896 1.129 1.274 1.968 2.84 2.518 4.7.55 1.86.825 3.992.825 6.398zm-7.629.304c0-1.335-.103-2.563-.309-3.685-.206-1.122-.555-2.097-1.046-2.926a5.305 5.305 0 0 0-1.958-1.941c-.815-.465-1.841-.697-3.079-.697-1.099 0-2.062.207-2.886.621a5.229 5.229 0 0 0-2.033 1.82c-.529.798-.927 1.758-1.193 2.881-.265 1.122-.397 2.4-.397 3.835 0 1.335.108 2.563.323 3.685.217 1.122.565 2.097 1.046 2.926a5.049 5.049 0 0 0 1.959 1.926c.825.455 1.846.682 3.063.682 1.119 0 2.091-.207 2.916-.622a5.257 5.257 0 0 0 2.032-1.804c.53-.788.923-1.743 1.179-2.866.256-1.121.383-2.4.383-3.835zM260.942 513.657c0 2.345-.349 4.457-1.046 6.337-.697 1.88-1.708 3.503-3.034 4.867-1.326 1.365-2.945 2.447-4.86 3.245-1.915.799-4.089 1.289-6.524 1.471v9.036a.905.905 0 0 1-.177.546c-.118.161-.319.298-.604.409-.284.111-.662.198-1.134.258-.471.061-1.07.091-1.797.091-.726 0-1.325-.03-1.796-.091-.471-.06-.85-.146-1.134-.258-.285-.111-.481-.247-.589-.409a.956.956 0 0 1-.163-.546v-9.036c-5.125-.283-8.983-1.678-11.575-4.185-2.592-2.507-3.888-6.136-3.888-10.886 0-1.759.186-3.362.559-4.807.373-1.445.845-2.739 1.415-3.881.569-1.142 1.202-2.133 1.899-2.972.697-.839 1.37-1.532 2.017-2.078.649-.545 1.228-.955 1.738-1.228.511-.273.864-.409 1.061-.409.373 0 .785.151 1.237.454a5.96 5.96 0 0 1 1.237 1.123c.373.444.687.919.943 1.425.255.505.382.95.382 1.334 0 .182-.122.39-.368.622-.246.232-.545.525-.898.879-.354.354-.747.783-1.178 1.289-.432.505-.825 1.122-1.179 1.85-.353.727-.653 1.576-.898 2.547-.245.97-.368 2.092-.368 3.366 0 1.375.147 2.623.442 3.745.294 1.122.756 2.098 1.384 2.926.628.829 1.448 1.496 2.46 2.002 1.011.505 2.233.818 3.667.94v-12.19c0-4.226.791-7.323 2.372-9.295 1.58-1.971 3.912-2.956 6.995-2.956 1.944 0 3.736.364 5.375 1.092a12.75 12.75 0 0 1 4.242 3.017c1.188 1.284 2.116 2.81 2.783 4.579.668 1.769 1.002 3.695 1.002 5.777zm-15.553 9.976c2.455-.202 4.389-1.132 5.803-2.789 1.414-1.658 2.121-4.023 2.121-7.096 0-1.294-.142-2.467-.427-3.518-.285-1.051-.662-1.94-1.134-2.668-.471-.728-1.021-1.289-1.649-1.683-.629-.394-1.277-.591-1.944-.591-1.021 0-1.738.511-2.151 1.531-.412 1.021-.619 2.613-.619 4.776v12.038zM293.254 514.081c0 2.305-.295 4.407-.884 6.307-.589 1.901-1.482 3.538-2.68 4.913-1.198 1.375-2.701 2.436-4.507 3.184-1.806.748-3.918 1.122-6.333 1.122-2.336 0-4.369-.334-6.097-1.001-1.728-.667-3.162-1.637-4.301-2.91-1.138-1.274-1.983-2.841-2.532-4.701-.55-1.86-.826-3.982-.826-6.368 0-2.304.3-4.412.899-6.322.599-1.91 1.497-3.548 2.695-4.913 1.198-1.364 2.695-2.421 4.492-3.169 1.796-.748 3.902-1.122 6.318-1.122 2.356 0 4.398.329 6.126.986 1.728.657 3.157 1.622 4.286 2.896 1.129 1.274 1.968 2.84 2.518 4.7.55 1.86.826 3.992.826 6.398zm-7.629.304c0-1.335-.103-2.563-.309-3.685-.207-1.122-.555-2.097-1.046-2.926a5.3 5.3 0 0 0-1.959-1.941c-.815-.465-1.84-.697-3.078-.697-1.1 0-2.062.207-2.886.621a5.215 5.215 0 0 0-2.033 1.82c-.53.798-.928 1.758-1.193 2.881-.266 1.122-.398 2.4-.398 3.835 0 1.335.108 2.563.324 3.685.216 1.122.564 2.097 1.046 2.926a5.053 5.053 0 0 0 1.958 1.926c.825.455 1.846.682 3.064.682 1.119 0 2.091-.207 2.916-.622a5.271 5.271 0 0 0 2.032-1.804c.53-.788.923-1.743 1.178-2.866.257-1.121.384-2.4.384-3.835zM325.095 514.142c0 2.567-.275 4.822-.825 6.762-.55 1.941-1.35 3.558-2.401 4.852a9.742 9.742 0 0 1-3.858 2.896c-1.522.637-3.245.955-5.17.955-.668 0-1.335-.045-2.003-.136a10.492 10.492 0 0 1-1.944-.455 10.774 10.774 0 0 1-1.812-.804 7.31 7.31 0 0 1-1.576-1.182c.059.545.109 1.132.148 1.758.039.627.059 1.315.059 2.063v7.763a.96.96 0 0 1-.162.545c-.108.162-.305.298-.589.41-.285.111-.668.197-1.149.258s-1.075.091-1.782.091c-.727 0-1.325-.03-1.797-.091-.471-.061-.849-.147-1.134-.258-.285-.111-.486-.248-.604-.41a.902.902 0 0 1-.177-.545v-24.32c0-2.305.275-4.397.825-6.277.55-1.88 1.385-3.477 2.504-4.791 1.119-1.314 2.533-2.33 4.241-3.048 1.709-.717 3.731-1.076 6.068-1.076 2.159 0 4.055.313 5.685.94s2.999 1.572 4.109 2.835c1.109 1.263 1.944 2.836 2.504 4.716.56 1.879.84 4.063.84 6.549zm-7.777.303c0-1.334-.098-2.557-.294-3.669-.196-1.111-.515-2.072-.957-2.881-.442-.808-1.027-1.435-1.753-1.88-.727-.445-1.62-.667-2.681-.667-1.079 0-1.993.228-2.739.682-.746.455-1.355 1.087-1.826 1.896-.471.808-.815 1.748-1.031 2.82a17.488 17.488 0 0 0-.323 3.457v6.398c.864.91 1.791 1.582 2.783 2.016a7.448 7.448 0 0 0 3.019.652c1.061 0 1.964-.207 2.71-.621a4.82 4.82 0 0 0 1.811-1.774c.462-.768.791-1.698.987-2.79.196-1.092.294-2.305.294-3.639zM344.682 525.362c0 .93-.059 1.632-.177 2.107-.118.475-.26.799-.427.971-.167.171-.417.323-.751.454a8.197 8.197 0 0 1-1.148.349c-.433.101-.904.177-1.415.228-.51.05-1.021.075-1.531.075-1.434 0-2.675-.196-3.726-.591-1.05-.394-1.91-.995-2.577-1.805-.667-.808-1.158-1.844-1.473-3.108-.314-1.263-.471-2.764-.471-4.503V500.86a.97.97 0 0 1 .162-.546c.108-.162.299-.293.575-.395.275-.101.648-.176 1.119-.227.471-.051 1.06-.076 1.767-.076.727 0 1.33.025 1.812.076.481.051.864.126 1.148.227.285.101.491.233.619.395a.857.857 0 0 1 .191.546v17.648c0 .769.045 1.441.133 2.017.088.576.24 1.051.456 1.425.217.374.506.657.869.849.363.192.81.288 1.34.288.413 0 .766-.02 1.061-.06a4 4 0 0 0 .751-.167c.206-.071.372-.131.5-.182.128-.05.26-.076.398-.076.118 0 .226.036.324.106.098.071.181.213.25.425s.122.496.162.849c.04.354.059.814.059 1.38zm-6.892-30.324a1.247 1.247 0 0 1-.428.53 2.33 2.33 0 0 1-.707.319 4.596 4.596 0 0 1-1.016.151c-.392.021-.844.031-1.355.031-.981 0-1.678-.101-2.091-.304-.412-.202-.54-.565-.383-1.091l2.297-8.279c.138-.465.511-.814 1.12-1.046.608-.232 1.57-.349 2.886-.349.766 0 1.379.036 1.841.106.462.071.81.167 1.046.288.236.122.373.284.412.486.04.202.01.444-.088.727l-3.534 8.431zM363.463 529.607c-8.228 0-14.646-4.039-14.646-9.525 0-2.231 2.038-5.124 5.888-6.149-4.151-1.146-5.359-3.678-5.359-5.788 0-4.642 5.51-9.043 14.268-9.043 5.36 0 10.041 1.929 13.287 4.582l-4.832 4.462c-1.887-1.87-4.907-3.075-8.002-3.075-4.303 0-7.323 1.628-7.323 3.134 0 1.628 2.264 3.437 6.568 3.437h5.435v4.703h-5.964c-3.85 0-6.567 1.748-6.567 3.858 0 1.929 3.397 3.617 7.851 3.617 3.095 0 6.114-1.265 8.002-3.135l4.907 4.401c-3.246 2.713-8.077 4.521-13.513 4.521zM401 530.608c0 .809-.093 1.637-.28 2.486a18.274 18.274 0 0 1-.692 2.396 18.58 18.58 0 0 1-.825 1.94c-.275.546-.486.895-.633 1.047a1.538 1.538 0 0 1-.456.334 4.702 4.702 0 0 1-.604.212c-.246.07-.55.116-.913.136-.363.021-.81.03-1.34.03-.648 0-1.179-.025-1.591-.075-.412-.051-.731-.122-.957-.213-.226-.09-.383-.197-.471-.318a.613.613 0 0 1-.132-.364c0-.122.117-.384.352-.789.236-.404.492-.894.767-1.47.274-.576.53-1.223.766-1.941s.353-1.46.353-2.229c0-.626-.177-1.122-.53-1.486-.354-.364-.82-.667-1.399-.91-.58-.242-1.252-.46-2.018-.652a24.197 24.197 0 0 1-2.4-.742 20.282 20.282 0 0 1-2.519-1.123 8.277 8.277 0 0 1-2.151-1.591 11.157 11.157 0 0 1-1.502-1.956 12.516 12.516 0 0 1-1.075-2.35 17.84 17.84 0 0 1-.722-2.942 21.914 21.914 0 0 1-.265-3.532c0-2.609.329-4.878.987-6.809.658-1.93 1.575-3.532 2.754-4.806a11.12 11.12 0 0 1 4.182-2.85c1.61-.627 3.367-.94 5.273-.94.845 0 1.639.07 2.386.212.746.142 1.428.323 2.047.546.618.222 1.148.47 1.59.743.442.273.751.495.928.667.176.171.304.328.383.47.078.142.142.323.191.545.049.223.083.506.103.85.02.343.029.768.029 1.273 0 .607-.025 1.117-.073 1.531-.049.415-.128.748-.236 1.001-.108.253-.236.44-.383.561a.748.748 0 0 1-.486.182c-.295 0-.603-.127-.928-.379a23.607 23.607 0 0 0-1.148-.834c-.442-.304-.982-.576-1.62-.819-.639-.242-1.429-.364-2.371-.364-.962 0-1.812.192-2.548.576-.737.384-1.36.94-1.87 1.668-.511.728-.904 1.612-1.179 2.653s-.412 2.229-.412 3.563c0 1.516.187 2.845.56 3.988.373 1.142.864 2.021 1.473 2.638a6.778 6.778 0 0 0 2.121 1.455c.805.354 1.639.667 2.503.94a49.57 49.57 0 0 1 2.548.88 7.54 7.54 0 0 1 2.238 1.303c.658.557 1.188 1.279 1.591 2.169.403.891.604 2.054.604 3.489z" fill="#FFCB04"/><path d="M91 555.296h6.517v37.717H91v-37.717zM125.828 570.698v.297c.214.395.346.789.395 1.184v20.636H120.2v-17.476l-.099-.592c-.823-2.485-2.205-3.727-4.146-3.727-.593 0-1.251.123-1.975.37-1.646.707-2.83 1.826-3.555 3.357l-.395 1.678v16.39h-5.924V565.86h5.924v2.271c1.844-1.645 3.851-2.632 6.023-2.962h.445c4.409.001 7.52 1.844 9.33 5.529zM143.256 555h1.382c1.531 0 2.814.165 3.851.494l-.198 1.086v.493l-.098 1.185a12.75 12.75 0 0 0-.038.531 2.332 2.332 0 0 1-.061.456l-.099 1.58c-.806-.248-1.563-.37-2.271-.37-1.893 0-3.242.945-4.048 2.838v2.765h4.936v5.035h-4.936v21.919h-6.023v-21.919h-4.344v-5.035h4.344v-3.061c0-.132-.005-.255-.012-.37a5.336 5.336 0 0 1-.013-.37c0-1.202.173-2.271.519-3.209 1.81-2.501 4.179-3.85 7.109-4.048zM175.301 571.291c1.136 2.715 1.703 5.389 1.703 8.022 0 1.613-.206 3.184-.617 4.715-1.136 4.903-3.999 7.964-8.59 9.182a13.81 13.81 0 0 1-1.975.383c-.641.074-1.275.119-1.9.135-2.436 0-4.665-.666-6.689-1.999-3.802-2.649-5.809-6.171-6.023-10.564a9.22 9.22 0 0 1-.025-.679v-.654c0-8.228 3.76-13.181 11.28-14.86.148-.016.297-.025.445-.025h.444c5.331 0 9.314 2.115 11.947 6.344zm-17.97 9.38c.544 4.41 2.781 6.812 6.714 7.207 4.032-.378 6.27-2.484 6.714-6.319.066-.493.124-.97.173-1.431.049-.461.066-.905.049-1.334 0-4.986-2.476-7.651-7.429-7.997-4.197 1.037-6.295 3.826-6.295 8.368 0 .477.025.979.074 1.506zM197.585 565.367v6.319a3.488 3.488 0 0 0-.42-.025h-.42c-3.274 0-5.628 1.358-7.059 4.073l-.297 1.58-.098.691v14.81h-6.023V565.96h6.023v1.505c0 .461.033.847.098 1.16 1.91-2.172 4.213-3.258 6.912-3.258h1.284zM225.185 568.823c2.303-2.221 4.755-3.332 7.356-3.332.625 0 1.25.066 1.876.197.626.132 1.266.321 1.925.568 1.925.806 3.406 1.991 4.443 3.554l.099.197.197.593.099.197.592 1.877c.033.378.058.732.074 1.061.016.329.025.634.025.913v18.167h-5.924V576.03l-.198-1.678a2.896 2.896 0 0 1-.395-1.086c-.971-1.563-2.122-2.345-3.455-2.345-.807 0-1.695.288-2.666.864-.971.725-1.662 1.547-2.074 2.469l-.197 1.185v17.377h-6.023V575.34l-.099-.889-.197-.394v-.297a10.292 10.292 0 0 1-.42-.728 3.878 3.878 0 0 1-.271-.654c-.922-.872-1.942-1.333-3.061-1.382-2.156.296-3.703 1.317-4.641 3.061l-.197.691-.099 1.086a1.759 1.759 0 0 1 .124.691c0 .132-.008.23-.025.296v15.995h-6.122v-26.955h6.122v1.975c1.827-1.366 3.736-2.155 5.727-2.37h.098c3.193 0 5.628 1.119 7.307 3.357zM268.877 568.329l.297.593c.773.954 1.267 1.941 1.48 2.962.066.427.116.826.148 1.197.033.37.05.695.05.975v13.033c.609 1.202 1.497 1.925 2.666 2.172l-.198.297c-.066.115-.131.181-.197.197l-.099.296-.197.198a2.998 2.998 0 0 1-.592.888c-.231.608-.527 1.07-.889 1.382a11.77 11.77 0 0 1-.79 1.481c-1.925-.494-3.439-1.382-4.541-2.666h-.297c-2.122 1.53-4.311 2.295-6.565 2.295-1.218 0-2.419-.206-3.604-.617-3.538-1.267-5.677-3.571-6.418-6.911v-.124c0-6.368 3.727-9.552 11.182-9.552h.074c.148-.066.312-.099.493-.099l.296-.099h.691l.297-.098h.296l2.468-.296c.033-.181.05-.346.05-.494v-.494c0-2.748-1.457-4.121-4.369-4.121-2.024 0-4.797.683-8.318 2.048l-.395-.888-.198-.593-.198-.197-.098-.197-.197-.593a3.46 3.46 0 0 1-.395-.888c-.346-.461-.576-.922-.691-1.382l.296-.099.197-.099.296-.098.198-.198h.296c.066-.066.123-.099.172-.099h.026a10.126 10.126 0 0 1 1.579-.691l.494-.098c.362-.165.691-.264.987-.296l.79-.198a5.4 5.4 0 0 1 1.678-.395l2.172-.395c.329-.033.646-.061.95-.087.305-.024.605-.036.902-.036 3.143-.001 5.718 1.027 7.725 3.084zm-6.318 12.539h-.593a4.14 4.14 0 0 1-.431.074c-.14.016-.276.025-.407.025h-.148l-.396.099h-.296a.457.457 0 0 1-.296.098h-.296l-1.58.395h-.296c-.46.264-.855.428-1.184.494-1.07 1.02-1.605 2.008-1.605 2.962 0 .872.436 1.728 1.308 2.567 1.267.773 2.502 1.16 3.703 1.16 1.531 0 2.995-.617 4.394-1.851.131-.378.263-.642.395-.79l.099-.296-.099-.395v-4.64h-1.975a.468.468 0 0 1-.297.098zM288.469 555.691v10.269h7.109v5.133h-7.109v13.823c0 .313.008.597.025.852.016.255.041.498.074.728.954.856 2.081 1.283 3.381 1.283.905 0 1.885-.197 2.938-.592l.098.296v.592c.033.149.058.292.074.432.016.14.025.276.025.407v.247c.066.181.111.358.136.531.025.173.045.325.062.457l.296 2.468a31.861 31.861 0 0 1-2.876.567 17.42 17.42 0 0 1-2.53.198c-3.209 0-5.521-1.045-6.936-3.135l-.099-.198-.197-.592a7.072 7.072 0 0 1-.395-1.184v-.297a24.122 24.122 0 0 1-.074-.95 13.64 13.64 0 0 1-.025-.802v-15.131h-4.739v-5.134h4.739v-8.59l.395-.197.79-.197.296-.198.493-.099a.465.465 0 0 1 .296-.098.46.46 0 0 1 .297-.099.458.458 0 0 1 .296-.099l.296-.197.79-.198c.065-.065.123-.098.172-.098h.025c.066-.066.124-.099.173-.099h.025l1.48-.592c.133.164.199.329.199.493zM300.913 566.058h6.023v26.955h-6.023v-26.955zm6.615-7.899v.322c0 1.365-.427 2.476-1.283 3.332-.905.444-1.736.666-2.493.666-1.317 0-2.361-.716-3.135-2.147-.148-.577-.222-1.086-.222-1.531 0-1.678.93-2.814 2.789-3.406h.248c2.088 0 3.454.922 4.096 2.764zM339.341 571.291c1.135 2.715 1.703 5.389 1.703 8.022 0 1.613-.206 3.184-.617 4.715-1.136 4.903-3.999 7.964-8.59 9.182a13.81 13.81 0 0 1-1.975.383c-.642.074-1.275.119-1.9.135-2.435 0-4.665-.666-6.689-1.999-3.802-2.649-5.809-6.171-6.023-10.564a9.22 9.22 0 0 1-.025-.679v-.654c0-8.228 3.76-13.181 11.28-14.86.149-.016.296-.025.445-.025h.444c5.331 0 9.314 2.115 11.947 6.344zm-17.97 9.38c.543 4.41 2.781 6.812 6.714 7.207 4.032-.378 6.27-2.484 6.714-6.319.066-.493.124-.97.173-1.431.049-.461.066-.905.049-1.334 0-4.986-2.476-7.651-7.43-7.997-4.195 1.037-6.294 3.826-6.294 8.368 0 .477.025.979.074 1.506zM368.929 570.698v.297c.214.395.346.789.395 1.184v20.636h-6.023v-17.476l-.098-.592c-.823-2.485-2.205-3.727-4.147-3.727-.592 0-1.251.123-1.975.37-1.645.707-2.83 1.826-3.554 3.357l-.395 1.678v16.39h-5.924V565.86h5.924v2.271c1.843-1.645 3.85-2.632 6.023-2.962h.444c4.411.001 7.521 1.844 9.33 5.529z" fill="#fff"/></svg>