<svg width="460" height="655" fill="none" xmlns="http://www.w3.org/2000/svg"><path fill="#0C479D" d="M0 0h460v655H0z"/><path d="M53 505V150h355v355H53z" fill="#fff"/><path fill-rule="evenodd" clip-rule="evenodd" d="M219.543 171.388c-15.394-2.103-29.829 4.492-37.764 16.34l-3.809 5.675c-16.913 38.802-35.891 76.715-36.713 118.928L141 324.34l4.284 33.356 12.184 35.649 29.608 56.101 9.169 1.786c-.243 11.977 2.414 23.73 14.758 30.231 10.981 5.832 18.087 3.249 30.972.766 14.439-2.803 27.448-4.971 42.141-4.269 11.107.54 21.58 2.707 32.463 4.62 1.745-2.232 4.159-3.794 3.205-6.5-1.809-5.098.129-1.529-12.502-4.016-24.18-4.812-48.649-4.076-72.797 1.306-9.296 2.072-17.197 2.231-23.545-5.255-2.378-2.834-6.698-12.424-2.473-14.241 4.186-1.784 1.168-.858 9.52.161 9.516 1.147 5.392 2.008 12.594-1.465 6.283-2.993 5.716-1.976 11.235.922 3.332-4.077 4.16-7.358 10.093-7.677 7.678-.415 15.167-7.997 14.435-15.035l-.282-2.488-31.545-50.146-19.639.256-5.08 7.011c-3.013-.286-8.728-1.784-10.156 1.754-.693 1.752 1.491 4.202 2.351 5.764-5.683-.09-9.012.543-13.772-2.388-5.715-3.505-3.301-.958-5.365-8.827l-1.714-6.563c1.714-30.199 4.127-60.051 2.696-90.255-1.207-26.089-2.888-15.641.923-31.636 2.409-10-.539-6.686 6.379-11.37 5.933-3.984 9.551-2.551 16.817-2.04l-.95 6.372c3.679-.161 8.248-1.752 10.438 1.274 2.633 3.634 15.199 1.023 19.611.831 6.091-17.747 12.408-34.919 16.09-53.203 3.046-15.2 7.105-14.434-4.188-20.262l-10.444.379-18.972-3.853.001-.002zm13.994 57.025-.667 3.281c-3.332-.635-5.519-.635-7.932-2.866-2.826-2.579-6.03-2.42-8.189-5.574-1.869-2.775-3.711-3.121-6.949-4.459-1.142-2.647-2.508-2.903 1.874-2.424 7.522.767 15.799 8.253 21.864 12.042h-.001zm-79.65 86.08c-.321 16.219 2.314 32.495 3.932 48.617l-1.491.161c-2.347-16.217-5.239-31.891-4.919-48.264.256-12.713.667-25.297 4.792-37.53l2.35-7.011c-1.842 14.656-4.378 29.313-4.664 44.029v-.002zm83.869 122.178c-3.683 2.231-6.378-.735-10.756.383-3.747.923-5.015.161-8.601-.958v-1.114c4.918-.639 7.679-3.82 12.662-3.345 5.398.51 11.521-3.789 15.422 1.593 2.32 3.249 2.572 2.232-2.505 2.167-4.984-.103-2.951-.766-6.253 1.274" fill="#000"/></svg>