<svg width="460" height="655" fill="none" xmlns="http://www.w3.org/2000/svg"><path d="M460 0H0v655h460V0z" fill="#0C479D"/><path d="M53 505V150h355v355H53z" fill="#fff"/><path fill-rule="evenodd" clip-rule="evenodd" d="M130.885 451.291c-4.744 11.159-2.594 23.779 8.874 28.659 5.322 2.289 11.74.717 16.275-2.935l3.247-2.59 71.838-125.793 71.806 126.782c7.708 6.209 16.893 9.963 25.251 2.286 5.667-5.22 6.383-12.316 4.54-19.789l-1.232-5.083-89.279-122.039c7.165-13.173 14.541-33.74 31.295-33.402 20.134.373 33.135-34.836 39.86-46.709l20.24-35.822 4.4-8.803-.575-7.745-7.306 1.058c-13.24 21.121-26.314 46.195-41.738 65.372-2.493 3.138-8.26 8.594-5.562.171l1.095-3.516 39.829-61.545c1.369-3.891 3.174-11.229-2.766-11.364-2.216-.027-.958-.304-3.483 1.742l-2.15 1.74c-9.009 13.648-31.499 51.997-42.249 63.558-1.703 1.845-2.765 1.674-5.084 1.98.205-13.405 17.202-29.235 22.694-37.835l21.536-33.707c-.302-4.471-.165-9.419-5.463-7.814-2.969.888-1.397.041-4.298 3.172l-2.454 2.63-50.548 68.436c-3.14 8.533-5.937 17.059-3.342 26.375 3.992 14.124-8.222 26.713-14.982 36.573-6.825-9.141-18.531-19.922-18.327-32.785.137-7.201-.479-3.278 2.56-11.534 3.683-9.927 4.061-19.345 1.26-29.647-4.262-15.796-16.003-29.343-26.755-40.293-12.153-12.319-27.676-25.962-44.54-27.873-7.098-.786-11.396.61-16.581 6.207-8.194 8.803-5.701 20.371-4.236 31.968 2.867 22.483 9.253 41.422 20.613 60.357 6.317 10.543 11.164 16.683 21.739 21.185 8.975 3.855 3.754 2.525 15.941 2.39 11.329-.109 6.997-1.504 13.546 1.465 8.16 3.685 13.279 14.399 17.713 22.28l5.938 10.438" fill="#000"/></svg>