<svg width="460" height="655" fill="none" xmlns="http://www.w3.org/2000/svg"><path d="M460 0H0v655h460V0z" fill="#0C479D"/><path d="M53 505V150h355v355H53z" fill="#fff"/><path d="m121.586 381.759 28.99-127.655h16.695l6.598 15.832-30.89 130.06h-18.294l-3.099-18.237zm-11.297-127.655 24.292 128.257-4.198 17.635H109.59L78 254.104h32.289zm84.273 127.555 23.992-127.555h32.19l-31.59 145.892h-20.593l-3.999-18.337zm-16.395-127.555 29.391 128.357-3.399 17.535h-18.194l-31.39-130.16 6.898-15.732h16.694zm171.244 96.994h32.39c-.534 10.02-3.265 18.871-8.197 26.553-4.867 7.616-11.631 13.594-20.293 17.936-8.665 4.275-18.961 6.413-30.89 6.413-9.531 0-18.062-1.637-25.592-4.91-7.532-3.273-13.93-7.949-19.194-14.028-5.199-6.145-9.197-13.527-11.996-22.144-2.733-8.684-4.099-18.47-4.099-29.359v-8.918c0-10.888 1.433-20.674 4.299-29.359 2.865-8.683 6.964-16.098 12.296-22.244 5.331-6.146 11.729-10.855 19.194-14.128 7.464-3.273 15.795-4.91 24.991-4.91 12.397 0 22.859 2.238 31.39 6.713 8.531 4.476 15.128 10.622 19.794 18.437 4.731 7.816 7.564 16.734 8.496 26.754h-32.489c-.266-5.678-1.333-10.455-3.198-14.329-1.867-3.941-4.733-6.914-8.599-8.918-3.865-2.004-8.996-3.006-15.394-3.006-4.666 0-8.764.869-12.296 2.606-3.466 1.736-6.365 4.442-8.697 8.116-2.266 3.674-3.966 8.35-5.098 14.028-1.134 5.611-1.699 12.291-1.699 20.04v9.118c0 7.682.499 14.329 1.498 19.94 1 5.611 2.601 10.254 4.799 13.928 2.267 3.674 5.166 6.413 8.697 8.216 3.532 1.804 7.832 2.706 12.897 2.706 5.798 0 10.629-.902 14.495-2.706 3.865-1.87 6.83-4.676 8.897-8.417 2.066-3.74 3.266-8.45 3.598-14.128z" fill="#000"/></svg>