<svg width="460" height="655" fill="none" xmlns="http://www.w3.org/2000/svg"><path d="M460 0H0v655h460V0z" fill="#0C479D"/><path d="M53 505V150h355v355H53z" fill="#fff"/><path d="M259.29 421H110.178l-8.876-4.873 8.876-4.651 28.402-3.986 2.663-10.189-28.403-6.423-29.734-19.712L80 359.649l3.106-9.081L155 288.996l29.956-5.98v-19.934h-81.879s-18.195-6.423-13.98-13.953c4.217-7.53 18.196-7.309 18.196-7.309l84.098 7.309 54.585-4.208 46.82-11.517s20.926-1.994 21.302 2.879c.375 4.873-24.187 15.061-24.187 15.061l-89.423 11.738v19.934l125.814-3.544 21.08-2.436 5.325-2.658-16.42-2.658-1.775-6.423 23.299-4.429 9.097 4.872L380 277.036v18.826l-18.417 13.289-11.539-7.309 20.415-12.846-20.415 1.993-23.742 7.974-80.326 31.672s-2.698 22.209-9.541 34.33c-7.972 14.121-29.734 29.014-29.734 29.014l10.651 13.511 40.163 3.986L259.29 421z" fill="#000"/><path d="m156.775 411.033 3.55-13.289h35.282l5.769 13.289h-44.601zM127.707 333.514l18.195-14.396 16.199-2.215-6.213 15.282-28.181 1.329zM201.82 313.802l-7.323 19.934h-22.411v-17.941l29.734-1.993z" fill="#fff"/></svg>