<svg width="460" height="655" fill="none" xmlns="http://www.w3.org/2000/svg"><path d="M460 0H0v655h460V0z" fill="#0C479D"/><path d="M53 505V150h355v355H53z" fill="#fff"/><path fill-rule="evenodd" clip-rule="evenodd" d="m186.942 281.255-6.823-5.103-8.417-14.667-8.401-8.379-10.498-17.821 1.054-9.42 5.256-5.244 10.499-5.228h7.354l12.603 4.183 5.256 6.289 2.097 18.86 4.193 11.516-3.146 16.76-11.021 8.254h-.006zm53.044-47.017c-2.475 6.512-4.209 13.276-6.305 19.912l-2.744 17.804h-16.17l-5.241-4.181 1.054-15.714-6.304-11.532v-18.844c2.064-12.691 20.803-13.022 31.077-7.418 1.543 6.657 11.532 1.906 4.64 19.973h-.007zm7.353 0c.454-3.368 1.873-6.556 2.812-9.832l26.601-4.83 16.801 5.544v9.118l-14.705 25.156-11.547 13.607h-7.353l-16.818-7.319c-.351-1.754-1.406-3.498-1.054-5.244 1.083-5.081 3.51-9.77 5.257-14.667 0-3.846-.512-7.713 0-11.533h.006zm79.829 32.489c-7.206 8.665-17.781 13.877-26.661 20.817l-17.45-8.255-3.162-4.181 13.658-19.912 9.466-18.865 4.193-5.224h7.347l18.914 16.755c-2.112 6.288-2.059 13.767-6.305 18.865zm-183.846-26.37 8.434 9.595 8.4 18.867 14.753 15.858-7.4 6.144h-6.304l-46.409-29.145 21.189-20.103 7.337-1.215v-.001zm227.362 52.617c-2.605 2.076-4.846 4.705-7.798 6.226-10.575 5.482-21.42 10.486-32.572 14.668-4.396 1.661-9.226 1.839-13.845 2.77l-5.05-10.103v-12.577l15.749-15.713 8.992-14.085 3.618 3.613 11.546 3.137 8.402 6.288 10.958 15.776zm-260.95-21.02 33.619 16.777 10.498 7.332 3.145 5.228v5.244l-3.145 6.288-6.304 9.426-10.499-7.335-15.768-3.137-15.755-6.288-17.12-14.792 15.024-16.636 6.305-2.107zm26.491 52.939c2.651 1.33 1.872 5.749 3.969 7.842v8.379l-9.451 3.137-40.972-1.046-5.257-6.288v-22.002l1.069-4.182 4.194-3.153 2.096 2.107c3.159 1.744 6.18 3.752 9.463 5.228 3.733 1.676 7.687 2.835 11.548 4.198 7.005 2.468 16.702 2.468 23.347 5.78h-.006zm234.792-15.207 2.365 28.276-4.191 8.394-40.974 3.137-8.255-1.382-1.187-14.331 5.242-5.242 32.572-13.623 14.435-5.228-.007-.001zm-229.775 55.515c0 6.387-.791 12.738-1.186 19.105l-16.657 1.853-19.963-1.046-13.658-1.044-5.257-6.289 1.274-22.664 12.387-2.469c7.701 1.044 15.339 2.881 23.108 3.135 2.889.088 5.525-1.998 8.416-2.091 3.398-.131 6.73.948 10.098 1.439.498 3.36 1.421 6.689 1.45 10.072l-.012-.001zm179.798 15.714-1.556-18.575 29.744-3.422h18.914l5.24 5.244v9.42l-4.191 5.242-48.151 2.091zm53.535 36.987-11.689 3.882h-40.798l-1.23-23.048 8.402-6.289 36.766-1.045 5.254 2.092 2.098 3.152 1.186 21.257.011-.001zm-283.757 7.019c-2.221-.301-3.491-2.79-5.241-4.183v-17.821l3.144-5.227 7.355-3.152 17.849-1.044 27.317 3.549v26.993c-3.499.993-6.861 2.928-10.499 2.991-13.325.239-26.728-.269-39.925-2.106zM74 447l1.07-8.458v-52.383l2.098-6.288v-68.094l-2.099-7.334v-8.38l3.162-10.486 6.288-8.379 17.867-19.911 6.305-6.289 8.4-5.227 9.449-9.44 11.562-10.466 11.546-12.577 10.514-5.228L276.758 207l9.449 1.06 6.304 2.091 13.657 6.288 12.606 6.289 10.496 5.228 10.513 9.436c3.846 6.288 6.737 13.26 11.547 18.849 5.812 6.765 13.31 11.884 19.962 17.82l9.451 13.623 2.095 13.607v41.914l1.069 7.334-2.11 17.816 2.11 12.56-1.069 27.246L386 423.875V447h-14.006c.38-.299.79-.523 1.201-.632.41-3.313 2.365-6.78 1.244-9.917-.834-2.375-4.193-2.79-6.29-4.181l-42.022 2.09-3.16 4.182c-1.055 3.783.542 6.527 2.958 8.457H139.579c.717-1.439 1.479-2.852 2.318-4.166l-8.001-6.382-36.764-1.044-10.5 4.195c0 2.361-.63 4.914-.995 7.397" fill="#000"/></svg>