<svg width="460" height="655" viewBox="0 0 460 655" fill="none" xmlns="http://www.w3.org/2000/svg">
<path d="M460 0H0V655H460V0Z" fill="#0C479D"/>
<path d="M53 505V150H408V505H53Z" fill="white"/>
<path d="M199.3 190.551L275.182 308.258C275.182 308.258 336.173 308.123 352.069 309.771C367.904 311.412 383.807 323.968 383.803 327.801C383.794 331.963 369.556 343.535 353.716 345.251C337.812 346.886 274.225 347.91 274.225 347.91L198.846 464.667L173.759 464.721L224.454 347.441L122.158 342.486L99.5219 381.2L83.1622 381.2L100.073 327.656L83.1622 274.863L100.512 274.863L122.208 313.169L224.523 306.992L174.212 190.606L199.3 190.551Z" fill="black"/>
</svg>
