<svg width="460" height="655" viewBox="0 0 460 655" fill="none" xmlns="http://www.w3.org/2000/svg">
<path d="M460 0H0V655H460V0Z" fill="#0C479D"/>
<path d="M53 505V150H408V505H53Z" fill="white"/>
<path fill-rule="evenodd" clip-rule="evenodd" d="M285.372 370.707C294.334 357.729 302.56 340.181 312.3 331.813C321.999 323.411 331.071 323.556 340.076 318.799C357.742 309.473 372.61 292.33 380.168 273.015C382.901 266.082 385.295 259.668 379.1 254.322C367.442 244.26 341.917 262.471 333.177 248.643L331.481 244H105.848C114.221 278.615 130.119 316.442 146.531 347.553L159.034 371.263H78C78 381.842 123.506 407.058 131.248 411H301.306C312.777 408.419 354.793 387.809 370.246 370.634L285.372 370.824V370.707ZM340.481 302.101C336.754 304.717 327.278 313.38 320.267 305.603C317.831 302.915 318.532 303.464 323.917 289.64C327.567 280.314 329.451 274.304 336.644 268.221C342.544 263.243 337.902 266.341 353.243 265.604C365.818 264.975 367.666 260.995 367.666 268.517C367.666 275.486 359.884 283.37 355.602 288.055C347.489 297.012 347.192 297.454 340.481 302.101Z" fill="black"/>
</svg>
