<svg width="460" height="655" fill="none" xmlns="http://www.w3.org/2000/svg"><path d="M460 0H0v655h460V0z" fill="#0C479D"/><path d="M356 564.914v-56.375H226.165v-44.415H109.999V418H25v23.086h61.91v46.127h116.169v44.412H332.91V588H435v-23.086h-79M201.412 177.428c18.432 0 33.371-14.872 33.371-33.214S219.844 111 201.412 111c-18.452 0-33.384 14.872-33.384 33.214s14.932 33.214 33.384 33.214zM150.478 300.836c5.546 2.489 12.059.041 14.551-5.481 0 0 30.801-67.962 35.026-77.302 9.573-1.586 64.909-10.762 69.618-11.543 4.299 1.466 42.954 14.621 52.806 17.975 1.338 9.98 5.611 41.892 5.611 41.892.801 5.992 6.341 10.205 12.356 9.401 6.024-.795 10.258-6.301 9.457-12.299l-6.513-48.607c-.549-4.117-3.397-7.565-7.35-8.912l-61.878-21.064a10.969 10.969 0 0 0-5.361-.437l-78.158 12.958a10.991 10.991 0 0 0-8.229 6.298l-37.434 82.638c-2.505 5.512-.043 11.996 5.498 14.483z" fill="#fff"/><path d="m263.468 435.194 40.704 53.47c3.662 4.818 10.572 5.764 15.407 2.116a10.919 10.919 0 0 0 2.13-15.344s-34.483-45.295-38.464-50.534V300.575c0-.145-.06-.277-.06-.418 0-.097.044-.177.036-.267l-4.893-77.775a10.924 10.924 0 0 0-4.713-8.311 11.04 11.04 0 0 0-9.476-1.476l-58.626 17.824a10.991 10.991 0 0 0-6.62 5.555 10.927 10.927 0 0 0-.536 8.59l27.033 75.543-57.159 39.817a10.929 10.929 0 0 0-4.7 8.974v71.291c0 6.05 4.923 10.951 11.005 10.951 6.083 0 11.002-4.901 11.002-10.951v-65.595l75.699-52.727v106.978c0 2.387.782 4.712 2.23 6.616" fill="#fff"/></svg>