<svg width="460" height="655" viewBox="0 0 460 655" fill="none" xmlns="http://www.w3.org/2000/svg">
<path d="M460 0H0V655H460V0Z" fill="#0C479D"/>
<path d="M53 505V150H408V505H53Z" fill="white"/>
<path d="M259.29 421H110.178L101.302 416.127L110.178 411.476L138.58 407.49L141.243 397.301L112.84 390.878L83.1065 371.166L80 359.649L83.1065 350.568L155 288.996L184.956 283.016V263.082H103.077C103.077 263.082 84.8817 256.659 89.0976 249.129C93.3136 241.599 107.293 241.82 107.293 241.82L191.391 249.129L245.976 244.921L292.796 233.404C292.796 233.404 313.722 231.41 314.098 236.283C314.473 241.156 289.911 251.344 289.911 251.344L200.488 263.082V283.016L326.302 279.472L347.382 277.036L352.707 274.378L336.287 271.72L334.512 265.297L357.811 260.868L366.908 265.74L380 277.036V295.862L361.583 309.151L350.044 301.842L370.459 288.996L350.044 290.989L326.302 298.963L245.976 330.635C245.976 330.635 243.278 352.844 236.435 364.965C228.463 379.086 206.701 393.979 206.701 393.979L217.352 407.49L257.515 411.476L259.29 421Z" fill="black"/>
<path d="M156.775 411.033L160.325 397.744H195.607L201.376 411.033H156.775Z" fill="white"/>
<path d="M127.707 333.514L145.902 319.118L162.101 316.903L155.888 332.185L127.707 333.514Z" fill="white"/>
<path d="M201.82 313.802L194.497 333.736H172.086V315.795L201.82 313.802Z" fill="white"/>
</svg>
