<svg width="460" height="655" viewBox="0 0 460 655" fill="none" xmlns="http://www.w3.org/2000/svg">
<path d="M460 0H0V655H460V0Z" fill="#0C479D"/>
<path d="M53 463V108H408V463H53Z" fill="white"/>
<path d="M285.664 125C270.009 125 257.323 137.747 257.323 153.47C257.323 169.187 270.01 181.934 285.664 181.934C301.317 181.934 314 169.187 314 153.47C314 137.747 301.317 125 285.664 125Z" fill="black"/>
<path d="M286.985 204.815L231.205 204.953L228.936 209.289L156.676 278.244L193.796 276.379L155.1 350.256L155.337 349.814C140.68 376.467 143.483 407.463 162.311 426.939C180.366 445.615 207.707 449.895 237.527 439.368C242.772 437.516 253.085 377.745 253.085 377.745C236.01 386.57 209.116 405.411 197.721 392.399C194.98 389.27 193.857 382.309 198.543 373.783L286.985 204.815Z" fill="black"/>
<path d="M89.7496 527.879C89.7496 528.081 89.6856 528.258 89.558 528.409C89.4305 528.561 89.2193 528.687 88.9248 528.788C88.6299 528.89 88.2371 528.965 87.7465 529.016C87.2555 529.067 86.6368 529.092 85.8907 529.092C85.1249 529.092 84.4917 529.067 83.9906 529.016C83.49 528.965 83.0976 528.89 82.8128 528.788C82.5275 528.688 82.3217 528.561 82.1942 528.409C82.0662 528.258 82.0026 528.081 82.0026 527.879V496.463H67.7465V527.879C67.7465 528.081 67.6875 528.258 67.5696 528.409C67.4516 528.561 67.2459 528.687 66.9514 528.788C66.6565 528.89 66.2637 528.965 65.7731 529.016C65.2821 529.067 64.654 529.092 63.8882 529.092C63.1415 529.092 62.5183 529.067 62.0172 529.016C61.5166 528.965 61.1188 528.89 60.8243 528.788C60.5294 528.688 60.3182 528.561 60.1911 528.409C60.0635 528.258 60 528.081 60 527.879V492.521C60 491.571 60.2405 490.858 60.7215 490.383C61.2025 489.908 61.8357 489.671 62.6217 489.671H87.1279C87.9134 489.671 88.5466 489.908 89.0281 490.383C89.509 490.858 89.7496 491.57 89.7496 492.521V527.879Z" fill="#FFCB04"/>
<path d="M123.21 525.786C123.21 526.231 123.196 526.62 123.166 526.954C123.137 527.288 123.097 527.566 123.049 527.788C122.999 528.01 122.941 528.197 122.871 528.348C122.803 528.5 122.71 528.632 122.592 528.743C122.474 528.854 122.292 528.96 122.047 529.061C121.802 529.163 121.527 529.248 121.222 529.319C120.917 529.39 120.598 529.441 120.265 529.471C119.931 529.502 119.607 529.517 119.293 529.517C118.213 529.517 117.276 529.41 116.48 529.198C115.685 528.986 114.978 528.592 114.359 528.015C113.741 527.439 113.196 526.641 112.724 525.62C112.253 524.599 111.812 523.28 111.399 521.663L107.806 508.714L102.18 527.242C102.081 527.687 101.954 528.031 101.797 528.273C101.64 528.516 101.404 528.698 101.09 528.819C100.776 528.94 100.359 529.016 99.8379 529.046C99.3176 529.077 98.6354 529.092 97.791 529.092C96.8679 529.092 96.1318 529.056 95.5813 528.986C95.0317 528.915 94.6386 528.769 94.4036 528.546C94.1676 528.324 94.0693 528.016 94.1086 527.621C94.148 527.227 94.2856 526.717 94.5215 526.09L104.447 499.071L103.8 497.343C103.093 495.342 102.488 494.078 101.988 493.553C101.487 493.027 100.775 492.764 99.8525 492.764C99.3222 492.764 98.7379 492.845 98.0996 493.007C97.4613 493.168 97.0641 493.249 96.9073 493.249C96.7696 493.249 96.6613 493.214 96.5831 493.144C96.5045 493.073 96.4358 492.936 96.3768 492.734C96.3178 492.532 96.274 492.259 96.2448 491.915C96.2155 491.572 96.2003 491.127 96.2003 490.581C96.2003 489.692 96.2497 488.999 96.3476 488.504C96.4459 488.009 96.5885 487.665 96.7751 487.473C96.9616 487.281 97.2364 487.129 97.5999 487.018C97.9629 486.907 98.3657 486.811 98.8074 486.729C99.2491 486.648 99.6618 486.588 100.045 486.548C100.427 486.507 100.835 486.487 101.267 486.487C102.642 486.487 103.859 486.648 104.919 486.972C105.98 487.296 106.932 487.851 107.776 488.64C108.621 489.428 109.372 490.48 110.03 491.794C110.687 493.108 111.311 494.755 111.9 496.737L118.822 520.208C118.999 520.835 119.171 521.335 119.338 521.709C119.505 522.082 119.677 522.371 119.854 522.573C120.03 522.775 120.227 522.911 120.442 522.982C120.659 523.053 120.924 523.088 121.238 523.088C121.474 523.088 121.68 523.078 121.857 523.058C122.033 523.038 122.191 523.028 122.328 523.028C122.465 523.028 122.593 523.053 122.711 523.104C122.828 523.154 122.921 523.276 122.99 523.468C123.059 523.66 123.113 523.938 123.152 524.302C123.191 524.664 123.21 525.16 123.21 525.786Z" fill="#FFCB04"/>
<path d="M152.047 538.704C152.047 538.906 151.988 539.084 151.87 539.235C151.752 539.386 151.555 539.512 151.28 539.614C151.006 539.715 150.628 539.791 150.147 539.841C149.666 539.892 149.062 539.917 148.335 539.917C147.628 539.917 147.034 539.892 146.553 539.841C146.072 539.791 145.689 539.715 145.405 539.614C145.121 539.513 144.924 539.386 144.816 539.235C144.708 539.083 144.654 538.906 144.654 538.704V512.444C144.654 511.129 144.561 510.098 144.374 509.35C144.187 508.602 143.918 507.96 143.564 507.424C143.21 506.889 142.754 506.475 142.195 506.181C141.635 505.888 140.982 505.742 140.236 505.742C139.293 505.742 138.341 506.095 137.379 506.803C136.416 507.511 135.415 508.542 134.374 509.896V527.878C134.374 528.08 134.315 528.258 134.197 528.409C134.079 528.561 133.878 528.687 133.594 528.788C133.309 528.889 132.931 528.965 132.46 529.016C131.989 529.066 131.39 529.092 130.663 529.092C129.936 529.092 129.337 529.066 128.866 529.016C128.395 528.965 128.017 528.889 127.732 528.788C127.447 528.687 127.246 528.561 127.128 528.409C127.01 528.257 126.951 528.08 126.951 527.878V500.829C126.951 500.627 127 500.45 127.098 500.299C127.197 500.147 127.374 500.021 127.629 499.919C127.884 499.818 128.212 499.743 128.615 499.692C129.019 499.641 129.524 499.616 130.132 499.616C130.761 499.616 131.281 499.641 131.694 499.692C132.106 499.743 132.425 499.818 132.651 499.919C132.877 500.02 133.039 500.147 133.137 500.299C133.235 500.45 133.284 500.627 133.284 500.829V503.953C134.738 502.335 136.216 501.123 137.718 500.314C139.22 499.505 140.786 499.101 142.416 499.101C144.203 499.101 145.71 499.404 146.937 500.011C148.164 500.617 149.156 501.44 149.912 502.482C150.668 503.523 151.213 504.741 151.547 506.136C151.88 507.531 152.047 509.208 152.047 511.169L152.047 538.704Z" fill="#FFCB04"/>
<path d="M185.832 514.142C185.832 516.709 185.557 518.964 185.007 520.904C184.458 522.845 183.658 524.462 182.606 525.756C181.556 527.05 180.27 528.015 178.748 528.652C177.227 529.289 175.503 529.607 173.578 529.607C172.911 529.607 172.243 529.562 171.575 529.471C170.908 529.38 170.26 529.228 169.631 529.016C169.003 528.804 168.399 528.536 167.819 528.212C167.24 527.889 166.715 527.495 166.244 527.03C166.303 527.575 166.352 528.162 166.391 528.788C166.43 529.415 166.45 530.103 166.45 530.851V538.614C166.45 538.816 166.396 538.997 166.288 539.159C166.18 539.321 165.984 539.457 165.699 539.569C165.414 539.68 165.031 539.766 164.55 539.827C164.069 539.888 163.475 539.918 162.769 539.918C162.042 539.918 161.443 539.888 160.972 539.827C160.501 539.766 160.123 539.68 159.838 539.569C159.554 539.458 159.352 539.321 159.235 539.159C159.117 538.997 159.057 538.816 159.057 538.614V514.294C159.057 511.989 159.332 509.897 159.882 508.017C160.431 506.137 161.266 504.54 162.386 503.226C163.505 501.912 164.919 500.896 166.627 500.178C168.335 499.461 170.358 499.102 172.695 499.102C174.855 499.102 176.75 499.415 178.38 500.042C180.009 500.669 181.379 501.614 182.488 502.877C183.598 504.14 184.433 505.713 184.992 507.593C185.551 509.472 185.832 511.656 185.832 514.142ZM178.055 514.445C178.055 513.111 177.957 511.888 177.76 510.776C177.565 509.665 177.246 508.704 176.804 507.895C176.362 507.087 175.777 506.46 175.051 506.015C174.324 505.57 173.431 505.348 172.37 505.348C171.29 505.348 170.377 505.576 169.631 506.03C168.885 506.485 168.276 507.117 167.805 507.926C167.333 508.734 166.99 509.674 166.774 510.746C166.558 511.817 166.45 512.97 166.45 514.203V520.601C167.314 521.511 168.241 522.183 169.234 522.617C170.225 523.052 171.232 523.269 172.253 523.269C173.313 523.269 174.217 523.062 174.963 522.648C175.709 522.234 176.313 521.642 176.775 520.874C177.236 520.106 177.565 519.176 177.761 518.084C177.957 516.992 178.055 515.779 178.055 514.445Z" fill="#FFCB04"/>
<path d="M218.438 514.081C218.438 516.386 218.143 518.488 217.555 520.388C216.966 522.289 216.072 523.926 214.874 525.301C213.676 526.676 212.174 527.737 210.368 528.485C208.561 529.233 206.45 529.607 204.035 529.607C201.698 529.607 199.665 529.273 197.938 528.606C196.21 527.939 194.776 526.969 193.637 525.696C192.498 524.422 191.654 522.855 191.104 520.995C190.554 519.135 190.279 517.013 190.279 514.627C190.279 512.323 190.578 510.215 191.177 508.305C191.776 506.395 192.675 504.757 193.872 503.392C195.07 502.028 196.568 500.971 198.364 500.223C200.161 499.475 202.267 499.101 204.682 499.101C207.039 499.101 209.081 499.43 210.809 500.087C212.537 500.744 213.966 501.709 215.095 502.983C216.224 504.257 217.063 505.823 217.613 507.683C218.163 509.543 218.438 511.675 218.438 514.081ZM210.809 514.385C210.809 513.05 210.706 511.822 210.5 510.7C210.294 509.578 209.945 508.603 209.454 507.774C208.963 506.945 208.31 506.298 207.496 505.833C206.681 505.368 205.655 505.136 204.417 505.136C203.318 505.136 202.355 505.343 201.531 505.757C200.706 506.171 200.029 506.778 199.498 507.577C198.969 508.375 198.571 509.335 198.305 510.458C198.04 511.58 197.908 512.858 197.908 514.293C197.908 515.628 198.016 516.856 198.231 517.978C198.448 519.1 198.796 520.075 199.277 520.904C199.758 521.733 200.411 522.375 201.236 522.83C202.061 523.285 203.082 523.512 204.299 523.512C205.418 523.512 206.39 523.305 207.215 522.89C208.04 522.476 208.718 521.874 209.247 521.086C209.777 520.298 210.17 519.343 210.426 518.22C210.682 517.099 210.809 515.82 210.809 514.385Z" fill="#FFCB04"/>
<path d="M260.942 513.657C260.942 516.002 260.593 518.114 259.896 519.994C259.199 521.874 258.188 523.497 256.862 524.861C255.536 526.226 253.917 527.308 252.002 528.106C250.087 528.905 247.913 529.395 245.478 529.577V538.613C245.478 538.815 245.419 538.997 245.301 539.159C245.183 539.32 244.982 539.457 244.697 539.568C244.413 539.679 244.035 539.766 243.563 539.826C243.092 539.887 242.493 539.917 241.766 539.917C241.04 539.917 240.441 539.887 239.97 539.826C239.499 539.766 239.12 539.68 238.836 539.568C238.551 539.457 238.355 539.321 238.247 539.159C238.138 538.997 238.084 538.815 238.084 538.613V529.577C232.959 529.294 229.101 527.899 226.509 525.392C223.917 522.885 222.621 519.256 222.621 514.506C222.621 512.747 222.807 511.144 223.18 509.699C223.553 508.254 224.025 506.96 224.595 505.818C225.164 504.676 225.797 503.685 226.494 502.846C227.191 502.007 227.864 501.314 228.511 500.768C229.16 500.223 229.739 499.813 230.249 499.54C230.76 499.267 231.113 499.131 231.31 499.131C231.683 499.131 232.095 499.282 232.547 499.585C232.998 499.889 233.411 500.263 233.784 500.708C234.157 501.152 234.471 501.627 234.727 502.133C234.982 502.638 235.109 503.083 235.109 503.467C235.109 503.649 234.987 503.857 234.741 504.089C234.495 504.321 234.196 504.614 233.843 504.968C233.489 505.322 233.096 505.751 232.665 506.257C232.233 506.762 231.84 507.379 231.486 508.107C231.133 508.834 230.833 509.683 230.588 510.654C230.343 511.624 230.22 512.746 230.22 514.02C230.22 515.395 230.367 516.643 230.662 517.765C230.956 518.887 231.418 519.863 232.046 520.691C232.674 521.52 233.494 522.187 234.506 522.693C235.517 523.198 236.739 523.511 238.173 523.633V511.443C238.173 507.217 238.964 504.12 240.545 502.148C242.125 500.177 244.457 499.192 247.54 499.192C249.484 499.192 251.276 499.556 252.915 500.284C254.555 501.011 255.969 502.017 257.157 503.301C258.345 504.585 259.273 506.111 259.94 507.88C260.608 509.649 260.942 511.575 260.942 513.657ZM245.389 523.633C247.844 523.431 249.778 522.501 251.192 520.844C252.606 519.186 253.313 516.821 253.313 513.748C253.313 512.454 253.171 511.281 252.886 510.23C252.601 509.179 252.224 508.29 251.752 507.562C251.281 506.834 250.731 506.273 250.103 505.879C249.474 505.485 248.826 505.288 248.159 505.288C247.138 505.288 246.421 505.799 246.008 506.819C245.596 507.84 245.389 509.432 245.389 511.595V523.633Z" fill="#FFCB04"/>
<path d="M293.254 514.081C293.254 516.386 292.959 518.488 292.37 520.388C291.781 522.289 290.888 523.926 289.69 525.301C288.492 526.676 286.989 527.737 285.183 528.485C283.377 529.233 281.265 529.607 278.85 529.607C276.514 529.607 274.481 529.273 272.753 528.606C271.025 527.939 269.591 526.969 268.452 525.696C267.314 524.422 266.469 522.855 265.92 520.995C265.37 519.135 265.094 517.013 265.094 514.627C265.094 512.323 265.394 510.215 265.993 508.305C266.592 506.395 267.49 504.757 268.688 503.392C269.886 502.028 271.383 500.971 273.18 500.223C274.976 499.475 277.082 499.101 279.498 499.101C281.854 499.101 283.896 499.43 285.624 500.087C287.352 500.744 288.781 501.709 289.91 502.983C291.039 504.257 291.878 505.823 292.428 507.683C292.978 509.543 293.254 511.675 293.254 514.081ZM285.625 514.385C285.625 513.05 285.522 511.822 285.316 510.7C285.109 509.578 284.761 508.603 284.27 507.774C283.779 506.945 283.126 506.298 282.311 505.833C281.496 505.368 280.471 505.136 279.233 505.136C278.133 505.136 277.171 505.343 276.347 505.757C275.521 506.171 274.844 506.778 274.314 507.577C273.784 508.375 273.386 509.335 273.121 510.458C272.855 511.58 272.723 512.858 272.723 514.293C272.723 515.628 272.831 516.856 273.047 517.978C273.263 519.1 273.611 520.075 274.093 520.904C274.574 521.733 275.227 522.375 276.051 522.83C276.876 523.285 277.897 523.512 279.115 523.512C280.234 523.512 281.206 523.305 282.031 522.89C282.855 522.476 283.533 521.874 284.063 521.086C284.593 520.298 284.986 519.343 285.241 518.22C285.498 517.099 285.625 515.82 285.625 514.385Z" fill="#FFCB04"/>
<path d="M325.095 514.142C325.095 516.709 324.82 518.964 324.27 520.904C323.72 522.845 322.92 524.462 321.869 525.756C320.819 527.05 319.533 528.015 318.011 528.652C316.489 529.289 314.766 529.607 312.841 529.607C312.173 529.607 311.506 529.562 310.838 529.471C310.17 529.38 309.522 529.228 308.894 529.016C308.266 528.804 307.662 528.536 307.082 528.212C306.503 527.889 305.978 527.495 305.506 527.03C305.565 527.575 305.615 528.162 305.654 528.788C305.693 529.415 305.713 530.103 305.713 530.851V538.614C305.713 538.816 305.659 538.997 305.551 539.159C305.443 539.321 305.246 539.457 304.962 539.569C304.677 539.68 304.294 539.766 303.813 539.827C303.332 539.888 302.738 539.918 302.031 539.918C301.304 539.918 300.706 539.888 300.234 539.827C299.763 539.766 299.385 539.68 299.1 539.569C298.815 539.458 298.614 539.321 298.496 539.159C298.378 538.997 298.319 538.816 298.319 538.614V514.294C298.319 511.989 298.594 509.897 299.144 508.017C299.694 506.137 300.529 504.54 301.648 503.226C302.767 501.912 304.181 500.896 305.889 500.178C307.598 499.461 309.62 499.102 311.957 499.102C314.116 499.102 316.012 499.415 317.642 500.042C319.272 500.669 320.641 501.614 321.751 502.877C322.86 504.14 323.695 505.713 324.255 507.593C324.815 509.472 325.095 511.656 325.095 514.142ZM317.318 514.445C317.318 513.111 317.22 511.888 317.024 510.776C316.828 509.665 316.509 508.704 316.067 507.895C315.625 507.087 315.04 506.46 314.314 506.015C313.587 505.57 312.694 505.348 311.633 505.348C310.554 505.348 309.64 505.576 308.894 506.03C308.148 506.485 307.539 507.117 307.068 507.926C306.597 508.734 306.253 509.674 306.037 510.746C305.821 511.817 305.714 512.97 305.714 514.203V520.601C306.578 521.511 307.505 522.183 308.497 522.617C309.488 523.052 310.495 523.269 311.516 523.269C312.577 523.269 313.48 523.062 314.226 522.648C314.972 522.234 315.576 521.642 316.037 520.874C316.499 520.106 316.828 519.176 317.024 518.084C317.22 516.992 317.318 515.779 317.318 514.445Z" fill="#FFCB04"/>
<path d="M344.682 525.362C344.682 526.292 344.623 526.994 344.505 527.469C344.387 527.944 344.245 528.268 344.078 528.44C343.911 528.611 343.661 528.763 343.327 528.894C342.994 529.026 342.611 529.142 342.179 529.243C341.746 529.344 341.275 529.42 340.764 529.471C340.254 529.521 339.743 529.546 339.233 529.546C337.799 529.546 336.558 529.35 335.507 528.955C334.457 528.561 333.597 527.96 332.93 527.15C332.263 526.342 331.772 525.306 331.457 524.042C331.143 522.779 330.986 521.278 330.986 519.539V500.86C330.986 500.658 331.041 500.476 331.148 500.314C331.256 500.152 331.447 500.021 331.723 499.919C331.998 499.818 332.371 499.743 332.842 499.692C333.313 499.641 333.902 499.616 334.609 499.616C335.336 499.616 335.939 499.641 336.421 499.692C336.902 499.743 337.285 499.818 337.569 499.919C337.854 500.02 338.06 500.152 338.188 500.314C338.316 500.476 338.379 500.658 338.379 500.86V518.508C338.379 519.277 338.424 519.949 338.512 520.525C338.6 521.101 338.752 521.576 338.968 521.95C339.185 522.324 339.474 522.607 339.837 522.799C340.2 522.991 340.647 523.087 341.177 523.087C341.59 523.087 341.943 523.067 342.238 523.027C342.532 522.987 342.782 522.931 342.989 522.86C343.195 522.789 343.361 522.729 343.489 522.678C343.617 522.628 343.749 522.602 343.887 522.602C344.005 522.602 344.113 522.638 344.211 522.708C344.309 522.779 344.392 522.921 344.461 523.133C344.53 523.345 344.583 523.629 344.623 523.982C344.663 524.336 344.682 524.796 344.682 525.362ZM337.79 495.038C337.692 495.26 337.549 495.437 337.362 495.568C337.176 495.699 336.94 495.806 336.655 495.887C336.371 495.968 336.032 496.018 335.639 496.038C335.247 496.059 334.795 496.069 334.284 496.069C333.303 496.069 332.606 495.968 332.193 495.765C331.781 495.563 331.653 495.2 331.81 494.674L334.107 486.395C334.245 485.93 334.618 485.581 335.227 485.349C335.835 485.117 336.797 485 338.113 485C338.879 485 339.492 485.036 339.954 485.106C340.416 485.177 340.764 485.273 341 485.394C341.236 485.516 341.373 485.678 341.412 485.88C341.452 486.082 341.422 486.324 341.324 486.607L337.79 495.038Z" fill="#FFCB04"/>
<path d="M363.463 529.607C355.235 529.607 348.817 525.568 348.817 520.082C348.817 517.851 350.855 514.958 354.705 513.933C350.554 512.787 349.346 510.255 349.346 508.145C349.346 503.503 354.856 499.102 363.614 499.102C368.974 499.102 373.655 501.031 376.901 503.684L372.069 508.146C370.182 506.276 367.162 505.071 364.067 505.071C359.764 505.071 356.744 506.699 356.744 508.205C356.744 509.833 359.008 511.642 363.312 511.642H368.747V516.345H362.783C358.933 516.345 356.216 518.093 356.216 520.203C356.216 522.132 359.613 523.82 364.067 523.82C367.162 523.82 370.181 522.555 372.069 520.685L376.976 525.086C373.73 527.799 368.899 529.607 363.463 529.607Z" fill="#FFCB04"/>
<path d="M401 530.608C401 531.417 400.907 532.245 400.72 533.094C400.534 533.943 400.303 534.742 400.028 535.49C399.753 536.238 399.478 536.885 399.203 537.43C398.928 537.976 398.717 538.325 398.57 538.477C398.423 538.628 398.271 538.739 398.114 538.811C397.956 538.882 397.755 538.952 397.51 539.023C397.264 539.093 396.96 539.139 396.597 539.159C396.234 539.18 395.787 539.189 395.257 539.189C394.609 539.189 394.078 539.164 393.666 539.114C393.254 539.063 392.935 538.992 392.709 538.901C392.483 538.811 392.326 538.704 392.238 538.583C392.149 538.461 392.106 538.34 392.106 538.219C392.106 538.097 392.223 537.835 392.458 537.43C392.694 537.026 392.95 536.536 393.225 535.96C393.499 535.384 393.755 534.737 393.991 534.019C394.227 533.301 394.344 532.559 394.344 531.79C394.344 531.164 394.167 530.668 393.814 530.304C393.46 529.94 392.994 529.637 392.415 529.394C391.835 529.152 391.163 528.934 390.397 528.742C389.631 528.551 388.831 528.303 387.997 528C387.162 527.696 386.322 527.322 385.478 526.877C384.633 526.433 383.917 525.902 383.327 525.286C382.738 524.669 382.238 524.017 381.825 523.33C381.413 522.643 381.054 521.859 380.75 520.98C380.446 520.1 380.205 519.12 380.028 518.038C379.851 516.957 379.763 515.779 379.763 514.506C379.763 511.897 380.092 509.628 380.75 507.697C381.408 505.767 382.325 504.165 383.504 502.891C384.682 501.617 386.076 500.668 387.686 500.041C389.296 499.414 391.053 499.101 392.959 499.101C393.804 499.101 394.598 499.171 395.345 499.313C396.091 499.455 396.773 499.636 397.392 499.859C398.01 500.081 398.54 500.329 398.982 500.602C399.424 500.875 399.733 501.097 399.91 501.269C400.086 501.44 400.214 501.597 400.293 501.739C400.371 501.881 400.435 502.062 400.484 502.284C400.533 502.507 400.567 502.79 400.587 503.134C400.607 503.477 400.616 503.902 400.616 504.407C400.616 505.014 400.591 505.524 400.543 505.938C400.494 506.353 400.415 506.686 400.307 506.939C400.199 507.192 400.071 507.379 399.924 507.5C399.777 507.621 399.615 507.682 399.438 507.682C399.143 507.682 398.835 507.555 398.51 507.303C398.186 507.05 397.803 506.772 397.362 506.469C396.92 506.165 396.38 505.893 395.742 505.65C395.103 505.408 394.313 505.286 393.371 505.286C392.409 505.286 391.559 505.478 390.823 505.862C390.086 506.246 389.463 506.802 388.953 507.53C388.442 508.258 388.049 509.142 387.774 510.183C387.499 511.224 387.362 512.412 387.362 513.746C387.362 515.262 387.549 516.591 387.922 517.734C388.295 518.876 388.786 519.755 389.395 520.372C390.003 520.989 390.711 521.473 391.516 521.827C392.321 522.181 393.155 522.494 394.019 522.767C394.884 523.04 395.733 523.333 396.567 523.647C397.402 523.96 398.148 524.395 398.805 524.95C399.463 525.507 399.993 526.229 400.396 527.119C400.799 528.01 401 529.173 401 530.608Z" fill="#FFCB04"/>
<path d="M91 555.296H97.5167V593.013H91V555.296Z" fill="white"/>
<path d="M125.828 570.698V570.995C126.042 571.39 126.174 571.784 126.223 572.179V592.815H120.2V575.339L120.101 574.747C119.278 572.262 117.896 571.02 115.955 571.02C115.362 571.02 114.704 571.143 113.98 571.39C112.334 572.097 111.15 573.216 110.425 574.747L110.03 576.425V592.815H104.106V565.86H110.03V568.131C111.874 566.486 113.881 565.499 116.053 565.169H116.498C120.907 565.17 124.018 567.013 125.828 570.698Z" fill="white"/>
<path d="M143.256 555H144.638C146.169 555 147.452 555.165 148.489 555.494L148.291 556.58V557.073L148.193 558.258C148.176 558.439 148.164 558.616 148.155 558.789C148.147 558.961 148.127 559.114 148.094 559.245L147.995 560.825C147.189 560.577 146.432 560.455 145.724 560.455C143.831 560.455 142.482 561.4 141.676 563.293V566.058H146.612V571.093H141.676V593.012H135.653V571.093H131.309V566.058H135.653V562.997C135.653 562.865 135.648 562.742 135.641 562.627C135.633 562.512 135.628 562.388 135.628 562.257C135.628 561.055 135.801 559.986 136.147 559.048C137.957 556.547 140.326 555.198 143.256 555Z" fill="white"/>
<path d="M175.301 571.291C176.437 574.006 177.004 576.68 177.004 579.313C177.004 580.926 176.798 582.497 176.387 584.028C175.251 588.931 172.388 591.992 167.797 593.21C167.122 593.391 166.464 593.518 165.822 593.593C165.181 593.667 164.547 593.712 163.922 593.728C161.486 593.728 159.257 593.062 157.233 591.729C153.431 589.08 151.424 585.558 151.21 581.165C151.193 580.935 151.185 580.708 151.185 580.486C151.185 580.264 151.185 580.046 151.185 579.832C151.185 571.604 154.945 566.651 162.465 564.972C162.613 564.956 162.762 564.947 162.91 564.947C163.058 564.947 163.206 564.947 163.354 564.947C168.685 564.947 172.668 567.062 175.301 571.291ZM157.331 580.671C157.875 585.081 160.112 587.483 164.045 587.878C168.077 587.5 170.315 585.394 170.759 581.559C170.825 581.066 170.883 580.589 170.932 580.128C170.981 579.667 170.998 579.223 170.981 578.794C170.981 573.808 168.505 571.143 163.552 570.797C159.355 571.834 157.257 574.623 157.257 579.165C157.257 579.642 157.282 580.144 157.331 580.671Z" fill="white"/>
<path d="M197.585 565.367V571.686C197.453 571.67 197.313 571.661 197.165 571.661H196.745C193.471 571.661 191.117 573.019 189.686 575.734L189.389 577.314L189.291 578.005V592.815H183.268V565.96H189.291V567.465C189.291 567.926 189.324 568.312 189.389 568.625C191.299 566.453 193.602 565.367 196.301 565.367H197.585Z" fill="white"/>
<path d="M225.185 568.823C227.488 566.602 229.94 565.491 232.541 565.491C233.166 565.491 233.791 565.557 234.417 565.688C235.043 565.82 235.683 566.009 236.342 566.256C238.267 567.062 239.748 568.247 240.785 569.81L240.884 570.007L241.081 570.6L241.18 570.797L241.772 572.674C241.805 573.052 241.83 573.406 241.846 573.735C241.862 574.064 241.871 574.369 241.871 574.648V592.815H235.947V576.03L235.749 574.352C235.535 573.99 235.403 573.628 235.354 573.266C234.383 571.703 233.232 570.921 231.899 570.921C231.092 570.921 230.204 571.209 229.233 571.785C228.262 572.51 227.571 573.332 227.159 574.254L226.962 575.439V592.816H220.939V575.34L220.84 574.451L220.643 574.057V573.76C220.478 573.497 220.338 573.254 220.223 573.032C220.108 572.81 220.017 572.592 219.952 572.378C219.03 571.506 218.01 571.045 216.891 570.996C214.735 571.292 213.188 572.313 212.25 574.057L212.053 574.748L211.954 575.834C212.004 575.966 212.037 576.085 212.053 576.192C212.069 576.299 212.078 576.41 212.078 576.525C212.078 576.657 212.07 576.755 212.053 576.821V592.816H205.931V565.861H212.053V567.836C213.88 566.47 215.789 565.681 217.78 565.466H217.878C221.071 565.466 223.506 566.585 225.185 568.823Z" fill="white"/>
<path d="M268.877 568.329L269.174 568.922C269.947 569.876 270.441 570.863 270.654 571.884C270.72 572.311 270.77 572.71 270.802 573.081C270.835 573.451 270.852 573.776 270.852 574.056V587.089C271.461 588.291 272.349 589.014 273.518 589.261L273.32 589.558C273.254 589.673 273.189 589.739 273.123 589.755L273.024 590.051L272.827 590.249C272.662 590.611 272.465 590.907 272.235 591.137C272.004 591.745 271.708 592.207 271.346 592.519C271.198 592.848 271.058 593.132 270.926 593.371C270.795 593.609 270.671 593.819 270.556 594C268.631 593.506 267.117 592.618 266.015 591.334H265.718C263.596 592.864 261.407 593.629 259.153 593.629C257.935 593.629 256.734 593.423 255.549 593.012C252.011 591.745 249.872 589.441 249.131 586.101V585.977C249.131 579.609 252.858 576.425 260.313 576.425H260.387C260.535 576.359 260.699 576.326 260.88 576.326L261.176 576.227H261.867L262.164 576.129H262.46L264.928 575.833C264.961 575.652 264.978 575.487 264.978 575.339V574.845C264.978 572.097 263.521 570.724 260.609 570.724C258.585 570.724 255.812 571.407 252.291 572.772L251.896 571.884L251.698 571.291L251.5 571.094L251.402 570.897L251.205 570.304C251.023 570.008 250.892 569.712 250.81 569.416C250.464 568.955 250.234 568.494 250.119 568.034L250.415 567.935L250.612 567.836L250.908 567.738L251.106 567.54H251.402C251.468 567.474 251.525 567.441 251.574 567.441H251.6C252.192 567.129 252.719 566.898 253.179 566.75L253.673 566.652C254.035 566.487 254.364 566.388 254.66 566.356L255.45 566.158C256.025 565.928 256.585 565.796 257.128 565.763L259.3 565.368C259.629 565.335 259.946 565.307 260.25 565.281C260.555 565.257 260.855 565.245 261.152 565.245C264.295 565.244 266.87 566.272 268.877 568.329ZM262.559 580.868H261.966C261.818 580.901 261.675 580.926 261.535 580.942C261.395 580.958 261.259 580.967 261.128 580.967H260.98L260.584 581.066H260.288C260.206 581.132 260.107 581.164 259.992 581.164H259.696L258.116 581.559H257.82C257.36 581.823 256.965 581.987 256.636 582.053C255.566 583.073 255.031 584.061 255.031 585.015C255.031 585.887 255.467 586.743 256.339 587.582C257.606 588.355 258.841 588.742 260.042 588.742C261.573 588.742 263.037 588.125 264.436 586.891C264.567 586.513 264.699 586.249 264.831 586.101L264.93 585.805L264.831 585.41V580.77H262.856C262.773 580.835 262.674 580.868 262.559 580.868Z" fill="white"/>
<path d="M288.469 555.691V565.96H295.578V571.093H288.469V584.916C288.469 585.229 288.477 585.513 288.494 585.768C288.51 586.023 288.535 586.266 288.568 586.496C289.522 587.352 290.649 587.779 291.949 587.779C292.854 587.779 293.834 587.582 294.887 587.187L294.985 587.483V588.075C295.018 588.224 295.043 588.367 295.059 588.507C295.075 588.647 295.084 588.783 295.084 588.914V589.161C295.15 589.342 295.195 589.519 295.22 589.692C295.245 589.865 295.265 590.017 295.282 590.149L295.578 592.617C294.557 592.864 293.599 593.053 292.702 593.184C291.805 593.316 290.962 593.382 290.172 593.382C286.963 593.382 284.651 592.337 283.236 590.247L283.137 590.049L282.94 589.457C282.759 589.03 282.627 588.635 282.545 588.273V587.976C282.512 587.631 282.487 587.314 282.471 587.026C282.454 586.738 282.446 586.471 282.446 586.224V571.093H277.707V565.959H282.446V557.369L282.841 557.172L283.631 556.975L283.927 556.777L284.42 556.678C284.503 556.613 284.601 556.58 284.716 556.58C284.799 556.514 284.897 556.481 285.013 556.481C285.095 556.415 285.194 556.382 285.309 556.382L285.605 556.185L286.395 555.987C286.46 555.922 286.518 555.889 286.567 555.889H286.592C286.658 555.823 286.716 555.79 286.765 555.79H286.79L288.27 555.198C288.403 555.362 288.469 555.527 288.469 555.691Z" fill="white"/>
<path d="M300.913 566.058H306.936V593.013H300.913V566.058ZM307.528 558.159V558.481C307.528 559.846 307.101 560.957 306.245 561.813C305.34 562.257 304.509 562.479 303.752 562.479C302.435 562.479 301.391 561.763 300.617 560.332C300.469 559.755 300.395 559.246 300.395 558.801C300.395 557.123 301.325 555.987 303.184 555.395H303.432C305.52 555.395 306.886 556.317 307.528 558.159Z" fill="white"/>
<path d="M339.341 571.291C340.476 574.006 341.044 576.68 341.044 579.313C341.044 580.926 340.838 582.497 340.427 584.028C339.291 588.931 336.428 591.992 331.837 593.21C331.162 593.391 330.504 593.518 329.862 593.593C329.22 593.667 328.587 593.712 327.962 593.728C325.527 593.728 323.297 593.062 321.273 591.729C317.471 589.08 315.464 585.558 315.25 581.165C315.233 580.935 315.225 580.708 315.225 580.486C315.225 580.264 315.225 580.046 315.225 579.832C315.225 571.604 318.985 566.651 326.505 564.972C326.654 564.956 326.801 564.947 326.95 564.947C327.098 564.947 327.246 564.947 327.394 564.947C332.725 564.947 336.708 567.062 339.341 571.291ZM321.371 580.671C321.914 585.081 324.152 587.483 328.085 587.878C332.117 587.5 334.355 585.394 334.799 581.559C334.865 581.066 334.923 580.589 334.972 580.128C335.021 579.667 335.038 579.223 335.021 578.794C335.021 573.808 332.545 571.143 327.591 570.797C323.396 571.834 321.297 574.623 321.297 579.165C321.297 579.642 321.322 580.144 321.371 580.671Z" fill="white"/>
<path d="M368.929 570.698V570.995C369.143 571.39 369.275 571.784 369.324 572.179V592.815H363.301V575.339L363.203 574.747C362.38 572.262 360.998 571.02 359.056 571.02C358.464 571.02 357.805 571.143 357.081 571.39C355.436 572.097 354.251 573.216 353.527 574.747L353.132 576.425V592.815H347.208V565.86H353.132V568.131C354.975 566.486 356.982 565.499 359.155 565.169H359.599C364.01 565.17 367.12 567.013 368.929 570.698Z" fill="white"/>
</svg>
