<svg width="460" height="655" fill="none" xmlns="http://www.w3.org/2000/svg"><path d="M460 0H0v655h460V0z" fill="#0C479D"/><path d="M356 564.914v-56.375H226.165v-44.415H109.999V418H25v23.086h61.91v46.127h116.169v44.412H332.91V588H435v-23.086h-79M260.785 172.734c17.014 0 30.797-13.823 30.797-30.867 0-17.046-13.783-30.867-30.797-30.867-17.032 0-30.814 13.821-30.814 30.867 0 17.044 13.782 30.867 30.814 30.867z" fill="#fff"/><path d="M161.164 266.161s13.132-12.574 26.468-25.331l17.226 28.333a10.146 10.146 0 0 0 8.66 4.879l42.424.03-.129 15.058h-32.179c-5.614 0-10.154 4.554-10.154 10.173v98.09c-8.075 4.965-50.749 31.194-50.749 31.194-3.12 1.921-4.838 5.259-4.838 8.683 0 1.815.483 3.653 1.497 5.312 2.932 4.787 9.195 6.287 13.971 3.353l55.586-34.17a10.19 10.19 0 0 0 4.841-8.677v-34.117l21.389.012c0 .928.12 1.859.38 2.746l32.835 113.914c1.555 5.401 7.192 8.512 12.577 6.956 4.452-1.287 7.333-5.356 7.333-9.772 0-.934-.124-1.883-.394-2.826 0 0-31.626-109.713-32.429-112.494.034-2.442.883-107.465 1.162-141.308 14.171 22.014 54.663 84.947 54.663 84.947a10.15 10.15 0 0 0 14.044 3.035c4.708-3.043 6.07-9.339 3.035-14.062l-61.894-96.187a10.167 10.167 0 0 0-7.775-4.632l-66.952-5.061a10.13 10.13 0 0 0-7.778 2.79l-56.841 54.416c-4.059 3.886-4.206 10.326-.33 14.389 3.87 4.063 10.295 4.207 14.351.327z" fill="#fff"/></svg>