<svg width="460" height="655" fill="none" xmlns="http://www.w3.org/2000/svg"><path d="M460 0H0v655h460V0z" fill="#0C479D"/><path d="M53 505V150h355v355H53z" fill="#fff"/><path fill-rule="evenodd" clip-rule="evenodd" d="M275.457 392.078c17.904 3.36 34.271 2.964 50.075-2.183 8.381 17.453 18.509 34.09 22.22 53.089 2.643 13.27 4.743 8.407-1.328 15.81-4.49 5.471-1.959 3.401-7.204 6.583-5.137 3.149-10.164 2.646-16.157 3.077l.886 3.503c10.092 6.584 20.475 3.26 31.457-.425 12.271-4.148 8.738-1.112 13.019-5.26 5.421-5.33 1.57-.751-4.955-17.135-7.173-17.998-6.281-10.159-6.281-22.825 0-13.13-2.065-25.364-8.523-36.848-5.598-9.946-4.567-5.474-5.385-12.735-.929-8.05-4.314-15.848-6.778-23.541 2.747.432 12.303 3.185 14.409 1.148 1.858-1.829 3.782-.182 5.815-2.183 3.353-3.296 2.354-9.052.457-12.738l1.787-15.956c-14.02 1.608-8.706-1.682-13.449-14.775-7.879-21.501-9.521-44.25-23.359-63.178-6.098-8.371-2.535-4.508-10.77-11.412-6.424-5.402-6.956-6.976-9.704-14.165 4.354-2.112 8.099-4.116 12.842-5.153 5.491-1.218 2.926-.072 7.632-3.507 5.167-3.829 3.244-1.214 4.922-8.368 1.461-6.154-.543-5.081 2.711-6.118 3.457-1.146-2.317-2.756.885-4.832 2.07-1.355 1.676-2.326 0-3.971-2.177-2.111-.242-2.717 1.357-4.792-15.123-.681-32.355-4.403-46.724.858-7.78 2.864-11.667 5.188-11.667 13.596 0 6.331-2.318 11.195-4.489 17.134l5.385 2.61c.314 2.899-.143 7.479.929 8.625 3.598 2.54 13.872-3.146 15.229 8.083.928 7.408 1.534 2.433-4.924 13.596-5.634 9.693-12.413 14.846-19.401 24.365 1.497 5.9 7.237 6.295 10.875 9.442l6.277 29.837c-8.593 18.136-16.834 35.27-22.898 54.409-4.349 13.703-6.489 23.862-8.164 37.671-4.743-6.188-8.17-11.412-14.73-15.738l-5.385-3.508-17.978-47.398c0-8.584 3.603-16.388 6.242-24.578h17.157l-.971-34.237c1.998 0 4.494 1.11 4.494-1.286 0-4.654-14.015-29.551-16.192-33.954l-12.552 1.899c-5.21-5.436-12.664-10.519-14.341-17.996-1.257-5.402.686-15.846 5.385-19.318l1.782-1.32-1.782-21.039L178.238 176l-9.668 11.556h-6.312v2.645c3.209 2.076 5.634 2.112 4.961 6.116-.972 5.581-8.458 10.626-3.144 15.815 2.961 2.894 1.787 6.616 1.787 10.551l12.233 3.26c1.172 6.94 3.564 10.726-1 16.49l-4.955 9.193-11.589 37.814c-17.161 7.441-33.883 17.317-52.612 19.678l-10.34 1.319L90 322.104l19.368 5.579 19.689 50.367c-2.537 10.662-2.715 16.354-2.715 28.513 0 18.748-1.461 37.209-2.814 55.882l-22.33 8.62-6.064-.858c-2.39-.498-3.923 3.508-1.747 4.828 8.777 4.544 6.46 3.939 26.963 3.473l19.477-1.289c3.527-6.941 2.743-4.972.429-15.349-2.961-13.306-2.85-6.722-.429-19.743 1.463-7.947 2.779-11.627 6.277-18.424l21.258 52.373 3.888-.609-22.433-56.166c-.971-6.586-.686-6.833 1.781-14.49 5.704-17.708 22.969-32.014 35.027-46.077 5.42 7.69 10.376 14.955 14.799 23.251 9.521 17.709 28.999 28.978 44.476 41.718l-9.879 31.588c-1.746-.253-9.095.072-11.662 1.326-6.1 2.928-17.797-6.083-19.902-.681-.143 5.934 2.924 5.579 6.417 8.548 6.849 5.864 16.482 5.651 24.681 9.231 4.889 2.107 2.607 1.752 6.743 1.752 5.779 0 6.529-12.023 7.206-16.673 1.215-8.442 6.349-16.207 10.058-23.897l3.852 4.153c4.312 4.218.742.715 1.818 13.59.743 9.052 1.1 10.804-.457 13.164-1.928 2.936-5.138 9.018-4.247 12.917 3.817 1.573 7.026-3.935 10.524-5.863l15.336-30.838c1.781-2.97 2.141-4.224.172-5.513-8.029-4.22-11.521-8.226-17.938-14.525 2.317-4.97 2.53-6.403 6.381-12.16 3.176-4.474 1.143-12.773 1.429-17.743" fill="#000"/><path fill-rule="evenodd" clip-rule="evenodd" d="M335.34 318.238c-7.491-2.436-14.338-2.148-15.407-10.412-.757-5.833-.999-2.468 2.743-9.804l3.214-6.259M163.176 327.109c-9.734 14.955-18.512 33.055-31.424 45.646-6.847-15.455-12.946-30.406-17.973-46.504 10.629-5.764 12.731-5.332 28.25-8.409l20.113-4.041" fill="#fff"/></svg>