<svg width="460" height="655" fill="none" xmlns="http://www.w3.org/2000/svg"><path d="M460 0H0v655h460V0z" fill="#0C479D"/><path d="M53 505V150h355v355H53z" fill="#fff"/><path fill-rule="evenodd" clip-rule="evenodd" d="m117.392 463.884-.541 11.532L74 475.315 74.126 489l311.334-.539.54-13.146-39.619.409.126-11.371c6.086-14.947 20.284-23.878 30.266-47.731 19.811-47.319-1.835-92.327-43.638-113.453-71.851-36.331-212.224-46.4-251.62 46.94-14.961 35.473-4.85 69.428 21.361 96.828 7.605 7.947 14.61 9.118 14.61 16.941l-.094.006zm216.787-78.548h-70.772v-41.08h70.741v41.08h.031zm-195.203-41.08 33.278.192.163 40.888H138.98v-41.08h-.004zm-11.315 131.002-.126-15.49 78.695.224 4.85 15.33-83.451-.063.032-.001zm130.358-15.584 78.538.318v15.74l-83.832-.41" fill="#000"/><path fill-rule="evenodd" clip-rule="evenodd" d="m224.375 163.084-4.718 3.953 7.768 9.685-60.812 81.186-14.613-.02.064 5.112L308 262.936v-5.048h-14.156l-59.317-81.013 8.611-9.683-4.226-4.192-7.72 8.016-6.801-7.936-.016.004zm21.541 94.808h-30.039l14.853-20.146" fill="#000"/></svg>