<svg width="460" height="655" fill="none" xmlns="http://www.w3.org/2000/svg"><path d="M460 0H0v655h460V0z" fill="#0C479D"/><path d="M353 548H107l246-116v116zM253.534 118.69c0 15.844-12.874 28.691-28.769 28.691-15.904 0-28.781-12.847-28.781-28.691 0-15.843 12.877-28.69 28.781-28.69 15.895 0 28.769 12.847 28.769 28.69zM307.21 217.851l-45.85-45.71c-.022-.02-.035-.022-.055-.042-.091-.088-.213-.137-.307-.226a9.354 9.354 0 0 0-2.428-1.585c-.304-.14-.611-.231-.934-.336a9.463 9.463 0 0 0-2.51-.471c-.203-.009-.379-.116-.592-.11-.101 0-.196.06-.295.066-1.067.044-2.132.215-3.152.631l-.201.083v.004l-50.37 20.399a9.464 9.464 0 0 0-5.919 8.757c0 .728.082 1.469.26 2.202 0 0 22.287 93.042 24.23 101.176l-36.706 46.846a9.428 9.428 0 0 0-2.009 5.822c0 1.742.478 3.484 1.443 5.024l58.494 92.998c2.787 4.424 8.642 5.761 13.079 2.985a9.434 9.434 0 0 0 4.445-8.018 9.3 9.3 0 0 0-1.454-5.016s-47.998-76.328-54.779-87.091l60.717-50.353a9.462 9.462 0 0 0 3.417-7.395l-1.278-96.526c10.466 10.433 23.639 23.564 26.577 26.488v48.098c0 5.223 4.241 9.457 9.482 9.457 5.242 0 9.485-4.234 9.485-9.457v-52.014a9.439 9.439 0 0 0-2.778-6.687" fill="#fff"/><path d="m161.529 305.152 39.523-23.644c4.494-2.687 5.946-8.497 3.248-12.976-2.693-4.479-8.517-5.929-13.009-3.242l-39.526 23.644a9.439 9.439 0 0 0-3.251 12.974c2.695 4.482 8.52 5.929 13.015 3.244zM187.584 390.95c-4.733-2.238-10.384-.228-12.634 4.485l-30.03 63.048c-2.25 4.718-.232 10.361 4.501 12.602 4.733 2.238 10.383.231 12.636-4.485l30.027-63.048c2.253-4.716.232-10.361-4.5-12.602z" fill="#fff"/></svg>