<svg width="460" height="655" fill="none" xmlns="http://www.w3.org/2000/svg"><path d="M460 0H0v655h460V0z" fill="#0C479D"/><path d="M53 505V150h355v355H53z" fill="#fff"/><path d="M74 488v-14h312v14H74z" fill="#000"/><path fill-rule="evenodd" clip-rule="evenodd" d="M185.518 396.903c8 1.411 21.261.918 31.931 1.373-1.942-1.409-26.33-29.457-38.672-46.782-11.28-15.757-2.099-3.089-27.475-52.924l23.893 5.305 2.475-3.392-2.551-2.599c-2.557-2.63-7.66-7.898-12.729-14.537-5.105-6.64-24.082-36.247-29.832-50.024-5.756-13.774-18.977-50.33-26.977-70.323-.959 12.782.685 56.699-3.09 80.355-3.735 23.662-7.468 44.455-17.415 73.458 1.641-1.068 13.951-10.344 23.969-13.971 0 0-9.528 45.412-17.677 72.772C86.181 393.09 78.371 411.213 65 435.216c0 0 5.712-.611 10.173-2.178 4.454-1.523 10.513-4.273 21.22-10.453 10.671-6.142 28.544-18.468 43.593-24.574 0 0 6.63 35.259 8.308 44.07 1.676 8.817 3.122 17.325 3.958 33.775h32.96s-18.059-42.397-21.566-51.325c-3.502-8.93-2.967-6.867-9.867-29.345 0 0 23.742.27 31.739 1.717z" fill="#000"/><path d="M388 323.421 300.022 213 212 323.421h13.051V476h48.847V367.989h52.204V476h48.847V323.421H388z" fill="#000"/></svg>