<svg width="460" height="655" fill="none" xmlns="http://www.w3.org/2000/svg"><path d="M460 0H0v655h460V0z" fill="#0C479D"/><path d="M53 505V150h355v355H53z" fill="#fff"/><path d="m388.249 332.475-89.955 44.334-224.38-56.791 90.308-31.656 224.027 44.113z" fill="#fff"/><path d="m166.086 289.294-94.5 26.067v-45.618l94.5-17.691v37.242zM390.466 302.328l-92.172 40.964v33.517l92.172-40.965v-33.516z" fill="#fff"/><path d="m167.851 295.715 214.139 40.036 2.051-10.982-214.136-40.035-2.054 10.981z" fill="#000"/><path d="m386.291 298.174-92.172 41.896a5.59 5.59 0 0 0-3.276 5.086V408h11.173v-33.249l81-35.731v27.084h11.172v-62.845a5.587 5.587 0 0 0-7.897-5.085z" fill="#000"/><path d="m71.83 328.902 221.685 52.767a5.586 5.586 0 0 0 3.641-.366l92.509-42.828-4.692-10.139s-87.373 40.449-90.755 42.016l-219.8-52.32-2.588 10.87z" fill="#000"/><path d="M162.679 246.105 70.507 264.26A5.59 5.59 0 0 0 66 269.743V371.69h11.172v-55.902l88.31-21.179a5.59 5.59 0 0 0 3.862-5.315v-37.707a5.587 5.587 0 0 0-2.036-4.316 5.594 5.594 0 0 0-4.629-1.166z" fill="#000"/><path d="m75.776 305.121 49.344 28.862 84.724-38.174-44.689-20.481-89.38 29.793z" fill="#fff"/><path d="m163.39 270.027-89.379 29.792a5.582 5.582 0 0 0-3.791 4.723c-.226 2.181.888 16.351 2.78 17.458l49.301 16.805a5.589 5.589 0 0 0 5.114.272l84.724-38.174a5.583 5.583 0 0 0 3.291-5.075 5.603 5.603 0 0 0-3.257-5.097l-44.69-20.481a5.578 5.578 0 0 0-4.093-.223zm1.442 11.297c2.697 1.236 19.691 9.026 31.511 14.442-16.273 7.333-66.63 30.021-70.891 31.94a315473.73 315473.73 0 0 0-36.216-21.183c17.192-5.732 72.14-24.049 75.596-25.199z" fill="#000"/></svg>