<?xml version="1.0" encoding="UTF-8" standalone="no"?>
<!-- Created with Inkscape (http://www.inkscape.org/) -->

<svg
   xmlns:dc="http://purl.org/dc/elements/1.1/"
   xmlns:cc="http://creativecommons.org/ns#"
   xmlns:rdf="http://www.w3.org/1999/02/22-rdf-syntax-ns#"
   xmlns:svg="http://www.w3.org/2000/svg"
   xmlns="http://www.w3.org/2000/svg"
   xmlns:sodipodi="http://sodipodi.sourceforge.net/DTD/sodipodi-0.dtd"
   xmlns:inkscape="http://www.inkscape.org/namespaces/inkscape"
   width="1000.4"
   height="1000.4003"
   id="svg2"
   sodipodi:version="0.32"
   inkscape:version="0.48.4 r9939"
   version="1.0"
   sodipodi:docname="AJAX.svg"
   inkscape:output_extension="org.inkscape.output.svg.inkscape">
  <defs
     id="defs4">
    <inkscape:perspective
       sodipodi:type="inkscape:persp3d"
       inkscape:vp_x="0 : 300.5 : 1"
       inkscape:vp_y="0 : 1000 : 0"
       inkscape:vp_z="601 : 300.5 : 1"
       inkscape:persp3d-origin="300.5 : 200.33333 : 1"
       id="perspective3380" />
    <inkscape:perspective
       id="perspective3990"
       inkscape:persp3d-origin="375 : 250 : 1"
       inkscape:vp_z="750 : 375 : 1"
       inkscape:vp_y="0 : 1000 : 0"
       inkscape:vp_x="0 : 375 : 1"
       sodipodi:type="inkscape:persp3d" />
  </defs>
  <sodipodi:namedview
     id="base"
     pagecolor="#ffffff"
     bordercolor="#666666"
     borderopacity="1.0"
     gridtolerance="10000"
     guidetolerance="10"
     objecttolerance="10"
     inkscape:pageopacity="0.0"
     inkscape:pageshadow="2"
     inkscape:zoom="0.44192573"
     inkscape:cx="531.8659"
     inkscape:cy="404.26949"
     inkscape:document-units="px"
     inkscape:current-layer="layer1"
     width="601px"
     height="601px"
     inkscape:window-width="1280"
     inkscape:window-height="1001"
     inkscape:window-x="-8"
     inkscape:window-y="-8"
     showgrid="false"
     fit-margin-top="0.2"
     fit-margin-left="0.2"
     fit-margin-right="0.2"
     fit-margin-bottom="0.2"
     inkscape:window-maximized="1"
     showguides="true"
     inkscape:guide-bbox="true" />
  <metadata
     id="metadata7">
    <rdf:RDF>
      <cc:Work
         rdf:about="">
        <dc:format>image/svg+xml</dc:format>
        <dc:type
           rdf:resource="http://purl.org/dc/dcmitype/StillImage" />
        <dc:title />
      </cc:Work>
    </rdf:RDF>
  </metadata>
  <g
     inkscape:label="Layer 1"
     inkscape:groupmode="layer"
     id="layer1"
     transform="translate(1402.1878,1871.318)">
    <rect
       style="color:#000000;fill:#000000;fill-opacity:1;fill-rule:nonzero;stroke:none;stroke-width:0.8735441;marker:none;visibility:visible;display:inline;overflow:visible"
       id="rect3653"
       width="0"
       height="27.202072"
       x="578.73834"
       y="298.1684"
       rx="249.48199"
       ry="27.202072" />
    <path
       style="fill:#b80017;fill-opacity:1;stroke:none"
       d="m -1109.0945,-871.11783 -292.8933,-292.89317 1e-4,-414.2135 292.8931,-292.8935 414.2135,3e-4 292.8933,292.8932 -2e-4,414.2136 -292.8931,292.89317 z"
       id="path3032"
       inkscape:connector-curvature="0" />
    <path
       inkscape:connector-curvature="0"
       id="path3046"
       d="m -1102.8813,-886.11792 -284.1065,-284.10628 1e-4,-401.7871 284.1063,-284.1067 401.7871,4e-4 284.1065,284.1063 -2e-4,401.7872 -284.1063,284.10628 z"
       style="fill:#ffffff;fill-opacity:1;stroke:none" />
    <path
       style="fill:#b80017;fill-opacity:1;stroke:none"
       d="m -1363.9878,-1179.7512 0,-382.7332 270.6332,-270.6333 382.7336,-3e-4 270.6331,270.6336 1e-4,382.7333 -270.6336,270.63334 -382.7331,-1.5e-4 z"
       id="path3048"
       inkscape:connector-curvature="0" />
    <path
       inkscape:connector-curvature="0"
       style="fill:#ffffff;fill-rule:nonzero;stroke:none"
       d="m -815.08564,-1270.7679 c -15.51953,28.9608 -50.69343,49.6501 -86.90227,49.6501 -36.20979,0 -71.38679,-20.6892 -86.90419,-49.6501 -8.2758,-17.5886 -13.4507,-38.2789 -13.4507,-61.0381 l 0,-189.3118 46.5556,0 0,189.3118 c 0,38.2767 21.7263,63.106 53.79929,63.106 32.06999,0 53.79734,-24.8293 53.79734,-63.106 l 0,-189.3118 46.55347,0 0,189.3118 c 0,22.7592 -5.17281,43.4495 -13.44854,61.038 z"
       id="path31" />
    <path
       inkscape:connector-curvature="0"
       style="fill:#ffffff;fill-rule:nonzero;stroke:none"
       d="m -1154.9809,-1461.118 c -7.3666,-7.3698 -17.8926,-12.6323 -30.5269,-12.6323 l -53.6883,0 0,204.2118 47.3727,0 c 15.7916,0 25.2645,-3.1584 33.6853,-11.5792 17.8979,-17.8947 27.3707,-50.5279 27.3707,-90.5288 0,-39.9977 -9.4728,-73.682 -24.2135,-89.4715 z m 20.0041,223.1565 c -11.5812,10.5312 -27.3707,15.7916 -43.1612,16.8437 -3.1573,0 -9.4761,0 -16.8427,0 l -91.5861,0 0,-300 96.8476,0 c 30.529,0 42.1102,3.1572 57.8998,15.7895 31.5811,27.3687 49.4769,74.7363 49.4769,133.6818 0,60.0019 -18.95,107.3725 -52.6343,133.685 z"
       id="path33" />
    <path
       inkscape:connector-curvature="0"
       style="fill:#ffffff;fill-rule:nonzero;stroke:none"
       d="m -590.0534,-1468.4855 c -7.3646,-4.2115 -11.573,-5.2625 -27.3646,-5.2625 l -56.8439,0 0,73.6834 56.8439,0 c 14.7396,0 20,-1.0522 27.3646,-5.2615 11.5833,-6.3168 18.9583,-18.9489 18.9583,-31.5792 0,-12.6323 -7.375,-25.2646 -18.9583,-31.5802 z m 21.0625,247.3677 -48.4271,-130.5281 -56.8438,0 0,130.5281 -47.375,0 0,-300 98.9584,0 c 23.1562,0 38.9479,2.1052 53.6875,9.475 26.3125,12.6323 45.2604,44.2094 45.2604,74.7375 0,31.5792 -18.9479,63.1573 -46.3125,75.7896 l 52.6341,139.9979 z"
       id="path29"
       sodipodi:nodetypes="csccscscccccccscsccc" />
  </g>
</svg>
