<?xml version="1.0" encoding="UTF-8" standalone="no"?>
<svg
   xmlns:dc="http://purl.org/dc/elements/1.1/"
   xmlns:cc="http://creativecommons.org/ns#"
   xmlns:rdf="http://www.w3.org/1999/02/22-rdf-syntax-ns#"
   xmlns:svg="http://www.w3.org/2000/svg"
   xmlns="http://www.w3.org/2000/svg"
   xmlns:sodipodi="http://sodipodi.sourceforge.net/DTD/sodipodi-0.dtd"
   xmlns:inkscape="http://www.inkscape.org/namespaces/inkscape"
   width="455mm"
   height="455mm"
   viewBox="0 0 455 455"
   version="1.1"
   id="svg16"
   inkscape:version="1.0.1 (3bc2e813f5, 2020-09-07)"
   sodipodi:docname="UK mandatory.svg">
  <defs
     id="defs10" />
  <sodipodi:namedview
     id="base"
     pagecolor="#ffffff"
     bordercolor="#666666"
     borderopacity="1.0"
     inkscape:pageopacity="0.0"
     inkscape:pageshadow="2"
     inkscape:zoom="0.35"
     inkscape:cx="1239.1283"
     inkscape:cy="712.61373"
     inkscape:document-units="mm"
     inkscape:current-layer="layer1"
     inkscape:document-rotation="0"
     showgrid="false"
     inkscape:window-width="1920"
     inkscape:window-height="1057"
     inkscape:window-x="-8"
     inkscape:window-y="-8"
     inkscape:window-maximized="1" />
  <metadata
     id="metadata13">
    <rdf:RDF>
      <cc:Work
         rdf:about="">
        <dc:format>image/svg+xml</dc:format>
        <dc:type
           rdf:resource="http://purl.org/dc/dcmitype/StillImage" />
        <dc:title></dc:title>
      </cc:Work>
    </rdf:RDF>
  </metadata>
  <g
     inkscape:label="Layer 1"
     inkscape:groupmode="layer"
     id="layer1"
     transform="translate(0,158)">
    <circle
       style="fill:#000000;fill-opacity:1;stroke:none;stroke-width:0;stroke-miterlimit:10"
       id="path18"
       cx="227.5"
       cy="69.500008"
       r="226.5" />
    <circle
       style="fill:#ffffff;fill-opacity:1;stroke:none;stroke-width:0;stroke-miterlimit:10"
       id="circle843"
       cx="227.5"
       cy="69.500008"
       r="225" />
    <circle
       style="fill:#01619e;fill-opacity:1;stroke:none;stroke-width:0;stroke-miterlimit:10"
       id="circle845"
       cx="227.5"
       cy="69.500008"
       r="216" />
    <path
       id="path20"
       style="fill:#ffffff;fill-opacity:1;fill-rule:nonzero;stroke:none;stroke-width:0.116969"
       d="m 310.08075,-56.245268 c -6.1569,0 -12.02824,1.2217 -17.37061,3.4629 l -17.86913,-31.10647 3.39266,-9.327135 c 8.9141,-0.866321 12.12888,-9.050067 12.12888,-10.437807 0,-1.3889 -1.65363,-1.3889 -1.65363,-1.3889 h -38.64531 c -0.86015,0 -3.70512,0.7272 -3.70512,3.76923 0,3.040827 3.24288,3.569284 3.24288,3.569284 l 16.94111,3.725936 -4.1042,11.279556 h -82.10659 c 1.01535,-3.787914 1.64203,-6.126149 1.64203,-6.126149 0,0 0.70593,-2.291429 0.70593,-3.260614 0,-4.594607 -3.41223,-8.028283 -4.85166,-8.802243 -0.28729,-0.15542 -1.24673,-0.58455 -1.24673,-1.8729 0,-1.28952 0.74982,-2.36979 2.39313,-2.36979 h 17.11667 v -11.36956 h -21.52809 c 0,0 -11.29327,1.05802 -11.29327,12.60416 0,6.749247 3.35275,8.284297 5.9996,9.870776 0.88229,0.529614 1.67587,2.732207 1.32337,3.965606 -0.20601,0.721329 -5.4628,20.421978 -9.80342,36.699492 -4.93487,-1.8624 -10.28251,-2.885372 -15.87063,-2.885372 -24.80792,0 -44.91862,20.091142 -44.91862,44.872716 0,24.78251 20.1107,44.87246 44.91862,44.87246 24.80732,0 44.9184,-20.08995 44.9184,-44.87246 0,-15.065139 -7.43403,-28.396467 -18.83559,-36.535809 0.48861,-1.820307 0.98691,-3.679171 1.4884,-5.549771 l 52.1633,36.40956 c -0.5676,1.79108 -0.87655,3.6979 -0.87655,5.67602 0,10.37698952 8.42257,18.7908596 18.81008,18.7908596 1.85841,0 3.65247,-0.26976 5.34705,-0.77127 l 2.7888,6.0638004 h -4.79352 v 6.08207 h 5.37047 c 0.84493,1.33123 2.33121,2.21545 4.02578,2.21545 1.6946,0 3.17969,-0.88422 4.02465,-2.21545 h 5.23936 v -6.08207 h -7.84677 l -3.91697,-8.3179504 c 4.041,-2.62467 7.01004,-6.75746 8.10659,-11.59993 l 4.29379,0.0656 c 2.16388,22.7660404 21.49822,40.6414604 44.85486,40.6414604 24.80779,0 44.91924,-20.08994 44.91924,-44.87245 0,-24.781601 -20.11145,-44.872721 -44.91924,-44.872721" />
    <path
       id="path24"
       style="fill:#01619e;fill-opacity:1;fill-rule:nonzero;stroke:none;stroke-width:0.116969"
       d="m 243.32275,-30.147262 c -0.24449,-0.0099 -0.48918,-0.01657 -0.73609,-0.01657 -1.96143,0 -3.85261,0.29925 -5.63145,0.856964 l -2.79232,-5.930871 h 5.11534 v -6.08055 h -5.23937 c -0.84497,-1.331607 -2.33005,-2.21545 -4.02462,-2.21545 -1.69341,0 -3.18085,0.883843 -4.02581,2.21545 h -5.37047 v 6.08055 h 8.06214 l 3.71099,8.072685 c -0.44236,0.285336 -0.86954,0.589229 -1.28498,0.909557 l -55.51959,-38.751249 c 0.59708,-2.225985 1.17858,-4.393514 1.73122,-6.455821 h 81.03269 l -15.02768,41.313941" />
    <path
       id="path26"
       style="fill:#01619e;fill-opacity:1;fill-rule:nonzero;stroke:none;stroke-width:0.116969"
       d="m 282.9277,-47.118032 -13.12363,-22.927399 -15.88669,43.674383 c 3.51557,2.655046 6.06914,6.516596 7.04282,10.966246 h 4.38508 c 1.15271,-12.929167 7.79412,-24.281209 17.58242,-31.71323" />
    <path
       id="path28"
       style="fill:#01619e;fill-opacity:1;fill-rule:nonzero;stroke:none;stroke-width:0.116969"
       d="m 289.52346,-35.410612 c -5.83977,5.014329 -9.94748,12.01027 -10.93403,20.03971 h 22.49181 l -11.55778,-20.03971" />
    <path
       id="path30"
       style="fill:#01619e;fill-opacity:1;fill-rule:nonzero;stroke:none;stroke-width:0.116969"
       d="m 299.39718,-41.057368 15.71347,27.240216 c 0,0 0.76068,1.2556 0.76068,2.6106 0,3.9995096 -4.10183,3.9995096 -6.05391,3.9995096 l -31.1367,0.0606 c 2.09481,15.4743301 15.33663,27.4658704 31.40003,27.4658704 17.52039,0 31.72422,-14.1895904 31.72422,-31.69219 0,-17.501578 -14.20383,-31.691028 -31.72422,-31.691028 -3.7964,0 -7.31078,0.784464 -10.68357,2.006193" />
    <path
       id="path32"
       style="fill:#01619e;fill-opacity:1;fill-rule:nonzero;stroke:none;stroke-width:0.116969"
       d="m 167.24141,-33.887247 c -1.53097,5.705264 -2.58973,9.654495 -2.73649,10.196965 -3.46836,12.86839 -16.70633,16.8363196 -19.40995,16.8363196 -2.91191,0 -4.67658,-1.93953 -4.67658,-4.6717596 0,-2.73336 2.20622,-3.526 2.99979,-4.14215 10.05819,-7.84472 11.64674,-16.217847 11.64674,-16.217847 0,0 0.91608,-3.439514 2.303,-8.643235 -3.82215,-1.630886 -8.03019,-2.534614 -12.4493,-2.534614 -17.52051,0 -31.72361,14.189449 -31.72361,31.691016 0,17.5025996 14.2031,31.69219 31.72361,31.69219 17.52005,0 31.72351,-14.1895904 31.72351,-31.69219 0,-8.8057 -3.59691,-16.77086 -9.40072,-22.514695" />
    <circle
       style="fill:#01619e;fill-opacity:1;stroke:none;stroke-width:0;stroke-miterlimit:10"
       id="path29"
       cx="242.57141"
       cy="-11.392797"
       r="11.785714" />
    <path
       id="path34"
       style="fill:#ffffff;fill-opacity:1;fill-rule:nonzero;stroke:none;stroke-width:0.164912"
       d="m 251.9672,48.499968 c -8.78162,0 -15.29159,6.9817 -15.29159,15.59826 0,5.39463 5.58846,13.14508 6.07641,13.73238 0.49127,0.58895 1.17702,3.13942 -0.58687,3.72841 -4.2993,1.4336 -10.74006,3.39016 -15.68394,6.57251 -1.37319,0.88099 -4.21523,2.2552 -4.80374,5.1983 l -16.71259,71.436812 c 0,0 -4.16579,0.27078 -4.16579,3.70349 0,2.55065 0.63632,2.6988 0.63632,2.6988 0,0 -8.38102,0.66186 -11.02688,-0.0738 -2.64587,-0.73396 -3.74873,-2.3542 -1.61721,-4.4144 2.13319,-2.05883 3.52947,-4.85514 3.52947,-7.94508 0,-3.09012 -3.67616,-10.59511 -10.6609,-10.59511 -6.9831,0 -10.80599,6.25414 -10.80599,10.37402 0,4.11925 2.35241,7.35748 3.30854,8.31451 0.95449,0.95502 1.68973,2.35401 -0.88356,3.60481 -9.99888,4.85963 -11.52193,10.34895 -12.79181,22.29274 -0.36776,3.456 -0.58785,19.93848 -0.44112,21.26027 0.14766,1.32619 1.9853,4.26737 5.07313,4.26737 3.08732,0 4.48359,-1.91204 4.48359,-3.38329 0,-1.47171 -1.17538,-2.20587 -1.68973,-2.72204 -0.5143,-0.51488 -1.10282,-1.91387 -0.7359,-3.01592 0.36823,-1.10513 2.49984,-13.53736 2.42563,-14.49439 0.4416,-0.36804 1.69138,-2.50296 2.42662,-3.75311 3.9927,7.49143 1.10449,20.49148 -0.58851,30.09276 -0.22103,1.24889 -0.29346,2.06019 1.8381,2.64802 0,0.65988 -0.0724,27.00085 -0.0724,27.00085 0,0 -0.14673,1.91074 -0.58851,2.35402 -0.4416,0.44191 -1.61717,1.4719 -1.61717,2.50295 0,1.02797 0.80777,1.46993 1.54464,1.46993 0.73356,0 1.17539,-0.36803 1.61717,-0.66171 0.44019,-0.29508 4.26308,-3.0154 4.26308,-3.0154 0,0 1.39627,-1.25215 1.83805,-3.0919 l 4.11635,-19.34959 c 0,0 0,-1.17607 0.88197,-1.98611 0.88361,-0.8087 1.47212,-1.32488 1.98642,-1.54396 0.51435,-0.2212 1.24959,-0.44286 1.24959,0.58697 0,1.03106 0,23.10269 0,23.10269 0,0 0.0724,1.25085 0.73524,1.83994 0.66104,0.58829 6.98306,4.70821 7.204,5.00002 0.22103,0.29508 1.24954,0.5903 1.54464,0.5903 0.29346,0 1.61716,-0.44192 1.61716,-1.54532 0,-1.10382 -0.58851,-1.69099 -0.95613,-2.20783 -0.36776,-0.51421 -1.83805,-2.35219 -2.05899,-2.57506 -0.22103,-0.22119 -1.20174,-1.64334 -0.58851,-3.89816 0.22103,-0.81005 3.08933,-16.48052 3.16185,-18.0994 0.88197,-0.29368 7.49909,-3.16224 5.36753,-10.88823 l -8.30849,-34.13598 c 0,0 -0.92973,-2.03579 0.95618,-2.72406 7.86666,-2.86889 12.49731,-5.00329 19.04027,-9.93125 0.79127,-0.59535 3.08765,-2.72205 -1.02865,-5.66519 l 19.55626,-50.24921 -1.17702,54.81058 c 0,0 -0.29346,3.38507 -0.0743,6.1058 l 5.88351,71.80799 c 0,0 -0.14859,1.02914 -0.51598,1.54401 -0.36589,0.51618 -2.79423,4.11921 -3.08765,4.415 -0.29533,0.29508 -0.73524,1.02914 -0.51435,1.61626 0.21916,0.59091 0.95613,1.69478 1.8381,1.69478 0.88193,0 1.32375,-0.44379 1.98479,-0.81005 l 10.73347,-7.87283 c 0,0 1.47048,-0.80822 1.543,-3.90018 0,0 0.43505,-22.04651 0.88193,-35.6819 0.51598,-15.66935 1.47048,-19.79039 4.85322,-35.09297 l 2.27988,30.16505 c 0,0 0.58688,13.68305 0.58688,14.71284 0,6.89734 0.17663,21.79133 -1.10286,28.61907 -0.22104,1.17809 0.14673,1.25085 0.44159,1.54598 0.29346,0.29368 7.05731,6.76901 7.35236,7.21112 0.29346,0.43865 1.39464,1.02914 1.91062,1.02914 0.51435,0 2.71839,-0.66302 2.71839,-1.98612 0,-0.44192 -0.0724,-1.10317 -0.51266,-1.76703 -0.4416,-0.66124 -1.2496,-2.06019 -1.39628,-2.27993 -0.1486,-0.2212 -0.44159,-0.5883 -0.22243,-1.83915 0.22243,-1.25032 5.66262,-46.96145 5.95604,-48.23807 0.29346,-1.27521 2.05899,-29.92137 2.05899,-33.15632 0,-3.23696 -4.90103,-52.58049 -4.90103,-53.36412 0,0 12.15451,15.44152 12.15451,37.37323 0,3.43478 -0.3444,8.54184 -0.49127,9.41834 -0.0972,0.58698 -0.19439,1.66769 -0.48963,2.35401 -0.29533,0.68762 -1.07814,2.84396 -1.07814,4.31572 0,1.47321 1.27268,6.27869 6.56768,6.27869 2.94096,0 5.92968,-3.57974 5.92968,-5.9339 0,-2.35603 -0.63795,-3.77826 -0.92972,-4.1707 -0.29347,-0.39235 -0.58852,-2.25684 -0.19767,-4.11791 0.39393,-1.86369 1.27595,-14.81413 1.27595,-18.05104 0,-11.94243 -4.31416,-32.07743 -7.15619,-44.633597 -0.37571,-1.649695 -2.25517,-5.198295 -4.7065,-6.866185 -7.08862,-4.82381 -13.37106,-8.68751 -20.6822,-9.90829 -1.17539,-0.19641 -3.62672,-1.17626 -1.56941,-4.41467 2.05899,-3.23678 5.78463,-8.53408 5.78463,-14.12506 0,-5.59093 -4.01905,-14.81295 -14.70304,-14.81295" />
  </g>
</svg>
