<?xml version="1.0" encoding="UTF-8" standalone="no"?>
<svg
   xmlns:dc="http://purl.org/dc/elements/1.1/"
   xmlns:cc="http://creativecommons.org/ns#"
   xmlns:rdf="http://www.w3.org/1999/02/22-rdf-syntax-ns#"
   xmlns:svg="http://www.w3.org/2000/svg"
   xmlns="http://www.w3.org/2000/svg"
   xmlns:sodipodi="http://sodipodi.sourceforge.net/DTD/sodipodi-0.dtd"
   xmlns:inkscape="http://www.inkscape.org/namespaces/inkscape"
   width="602mm"
   height="602mm"
   viewBox="0 0 602 602"
   version="1.1"
   id="svg8"
   inkscape:version="1.0.1 (3bc2e813f5, 2020-09-07)"
   sodipodi:docname="UK prohibitory.svg">
  <defs
     id="defs2" />
  <sodipodi:namedview
     id="base"
     pagecolor="#ffffff"
     bordercolor="#666666"
     borderopacity="1.0"
     inkscape:pageopacity="0.0"
     inkscape:pageshadow="2"
     inkscape:zoom="0.24748737"
     inkscape:cx="1933.9722"
     inkscape:cy="942.71118"
     inkscape:document-units="mm"
     inkscape:current-layer="layer1"
     inkscape:document-rotation="0"
     showgrid="false"
     inkscape:window-width="1920"
     inkscape:window-height="1057"
     inkscape:window-x="-8"
     inkscape:window-y="-8"
     inkscape:window-maximized="1" />
  <metadata
     id="metadata5">
    <rdf:RDF>
      <cc:Work
         rdf:about="">
        <dc:format>image/svg+xml</dc:format>
        <dc:type
           rdf:resource="http://purl.org/dc/dcmitype/StillImage" />
        <dc:title></dc:title>
      </cc:Work>
    </rdf:RDF>
  </metadata>
  <g
     inkscape:label="Layer 1"
     inkscape:groupmode="layer"
     id="layer1"
     transform="translate(0,305)">
    <circle
       style="fill:#e31017;fill-opacity:1;stroke:none;stroke-width:0;stroke-miterlimit:10"
       id="path10"
       cx="301"
       cy="-3.9999883"
       r="300" />
    <circle
       style="fill:#ffffff;fill-opacity:1;stroke:none;stroke-width:0;stroke-miterlimit:10"
       id="circle855"
       cx="301"
       cy="-3.9999883"
       r="240" />
    <path
       id="path24"
       style="fill:#ff921d;fill-opacity:1;fill-rule:evenodd;stroke:none;stroke-width:0.352536"
       d="m 279.6002,-209.9996 c 0,0 -1.64356,0.23914 -3.48247,0.84026 -17.28101,3.04622 -29.4535,17.76993 -29.4535,35.56062 0,2.02732 0.49558,4.0506 0.49558,6.08852 h -0.49558 c -6.60939,-8.12675 -16.75755,-12.71344 -27.42882,-12.71344 -19.29133,0 -34.02443,15.24909 -35.55287,34.0341 -24.88166,0 -44.68254,19.81789 -44.68254,44.69184 0,13.729074 6.60928,26.922284 17.26716,35.049034 -1.5284,4.57283 -1.52807,8.63426 -1.52807,13.19299 0,28.45606 30.43189,51.8243434 57.86107,44.1947234 l 66.40008,-9.8810534 43.9999,-0.11576 66.0001,9.4898634 h 4.93097 c 15.22803,0 29.45129,-10.1650134 34.02324,-24.8884034 0,0 1.36176,0.40805 3.0422,0.51108 17.75741,1.08873 32.00321,-14.2265 32.00321,-31.4849 0,-9.14565 -4.06437,-18.27698 -11.16727,-23.86521 6.5953,-5.09821 11.16727,-13.210854 11.16727,-21.334104 0,-15.23459 -12.18925,-27.43398 -27.43139,-27.43398 -4.57195,0 -7.61439,1.01889 -12.18634,3.0427 2.03745,-3.04271 3.05665,-7.10743 3.05665,-10.66136 0,-15.23108 -12.20023,-27.41951 -27.42829,-27.41951 -7.61401,0 -14.72053,3.05636 -20.32176,8.63409 0.50759,-2.02381 0.50747,-3.5536 0.50746,-5.08031 0,-17.27239 -14.20901,-31.4849 -31.47663,-31.4849 -12.81961,0 -24.67842,7.65971 -29.08918,19.71043 -3.77313,-16.43672 -18.44098,-26.56195 -35.40766,-28.34452 -2.22591,-0.23386 -1.1576,-0.21166 -3.62252,-0.3328 z"
       sodipodi:nodetypes="ccsccscscsccccscsscsscsscsscsc" />
    <path
       id="path26"
       style="fill:#000000;fill-opacity:1;fill-rule:evenodd;stroke:none;stroke-width:0.352536"
       d="m 180.63926,-93.882026 -6.08594,4.58692 -22.34823,-22.353034 10.65788,-10.66176"
       sodipodi:nodetypes="cccc" />
    <path
       id="path28"
       style="fill:#000000;fill-opacity:1;fill-rule:evenodd;stroke:none;stroke-width:0.352536"
       d="m 179.1249,-47.138066 -3.05689,-6.11713 54.33454,13.22137 -1.52845,4.57292 -64.48269,-6.09952"
       sodipodi:nodetypes="ccccc" />
    <path
       id="path30"
       style="fill:#000000;fill-opacity:1;fill-rule:evenodd;stroke:none;stroke-width:0.352536"
       d="m 350.25295,-41.560426 v 4.56932 l 66.02668,-6.08534 -3.05975,-8.64864"
       sodipodi:nodetypes="cccc" />
    <path
       id="path32"
       style="fill:#000000;fill-opacity:1;fill-rule:evenodd;stroke:none;stroke-width:0.352536"
       d="m 257.32202,-43.076446 -6.0997,4.55873 4.5716,3.05681 h 17.77626 l 4.57161,-3.05681 -3.04315,-4.55873"
       sodipodi:nodetypes="cccccc" />
    <path
       id="path34"
       style="fill:#000000;fill-opacity:1;fill-rule:evenodd;stroke:none;stroke-width:0.352536"
       d="m 339.59544,-43.076446 -6.10004,-4.07581 -4.06188,5.59183 4.06188,4.56932"
       sodipodi:nodetypes="cccc" />
    <path
       id="path36"
       style="fill:#000000;fill-opacity:1;fill-rule:evenodd;stroke:none;stroke-width:0.352536"
       d="m 341.11013,-150.76246 -17.76287,-4.55873 7.61471,-12.18837 16.24784,10.65827"
       sodipodi:nodetypes="cccc" />
    <path
       id="path38"
       style="fill:#000000;fill-opacity:1;fill-rule:evenodd;stroke:none;stroke-width:0.352536"
       d="m 197.39681,-86.252386 49.26768,34.5273 -1.52845,4.58702 -61.45364,-34.5415 h 13.71441"
       sodipodi:nodetypes="ccccc" />
    <path
       id="path40"
       style="fill:#000000;fill-opacity:1;fill-rule:evenodd;stroke:none;stroke-width:0.352536"
       d="m 246.66449,-74.575216 -70.59648,-50.777404 10.67128,-6.09943 64.48303,51.299084"
       sodipodi:nodetypes="cccc" />
    <path
       id="path42"
       style="fill:#000000;fill-opacity:1;fill-rule:evenodd;stroke:none;stroke-width:0.352536"
       d="m 249.70764,-104.5438 -3.04315,3.04623 -42.14857,-61.43917 15.22911,7.61555 1.5147,-6.09943"
       sodipodi:nodetypes="ccccc" />
    <path
       id="path44"
       style="fill:#000000;fill-opacity:1;fill-rule:evenodd;stroke:none;stroke-width:0.352536"
       d="m 270.52705,-159.89401 7.61474,9.13155 h 9.14283 v -12.17428 h -16.75757"
       sodipodi:nodetypes="ccccc" />
    <path
       id="path46"
       style="fill:#000000;fill-opacity:1;fill-rule:evenodd;stroke:none;stroke-width:0.352536"
       d="m 404.09364,-165.97945 7.59991,7.60145 -66.01183,42.15704 -3.04315,-3.04272"
       sodipodi:nodetypes="cccc" />
    <path
       id="path48"
       style="fill:#000000;fill-opacity:1;fill-rule:evenodd;stroke:none;stroke-width:0.352536"
       d="m 434.05624,-107.58652 -85.33172,37.584124 1.52843,6.08894 86.84537,-22.33893 -7.61402,-4.58702"
       sodipodi:nodetypes="ccccc" />
    <path
       id="path50"
       style="fill:#000000;fill-opacity:1;fill-rule:evenodd;stroke:none;stroke-width:0.352536"
       d="m 399.5217,-129.92545 v 16.7471 l 21.32633,-1.516 v -7.61555"
       sodipodi:nodetypes="cccc" />
    <path
       id="path52"
       style="fill:#000000;fill-opacity:1;fill-rule:evenodd;stroke:none;stroke-width:0.352536"
       d="m 339.59544,-103.01369 v 7.615544 h 12.17222 v -6.099424"
       sodipodi:nodetypes="cccc" />
    <path
       id="path54"
       style="fill:#000000;fill-opacity:1;fill-rule:evenodd;stroke:none;stroke-width:0.352536"
       d="m 300.73742,-149.50665 -0.24857,0.30282 0.56482,2.53163 c 0.30275,1.51601 0.45424,3.04624 0.45424,4.57285 0,3.68417 -0.88536,6.91811 -2.53318,10.19627 -1.76681,2.95264 -3.13425,6.11934 -4.06952,9.43199 -2.52688,-3.16519 -4.55613,-6.70758 -6.00893,-10.4867 l -0.59635,0.03 c -2.35198,5.61715 -3.56206,11.67113 -3.56206,17.77049 0,5.58371 1.02219,11.1113 2.99672,16.322524 -5.62644,-4.887824 -9.94601,-11.308734 -12.25042,-18.424714 -2.25811,4.4353 -3.42873,9.3256 -3.42873,14.2968 0,8.901684 3.76942,17.365964 10.35338,23.346374 -3.82894,-1.33535 -7.83774,-2.01227 -11.88196,-2.01227 -4.51626,0 -9.00452,0.8395 -13.21832,2.50682 l 0.32091,0.22737 c 5.94634,4.54443 10.29617,10.86465 12.42973,18.02371 l 1.19786,-0.0801 c 3.26345,10.10819 10.83679,18.27398 20.6959,22.29683 v -0.43873 c -1.65254,-2.39749 -2.69948,-5.1651 -3.02979,-8.07031 -0.33037,-3.94178 -2.14777,-7.6138 -4.83278,-10.5084 l 0.66094,-0.26097 c 2.56126,0.54968 4.94312,1.69564 6.96753,3.33158 l 0.73019,0.35605 c -0.39938,-2.02372 -0.60565,-4.04774 -0.60565,-6.11384 0,-6.60013 2.05118,-13.04485 5.85184,-18.4428 l 0.3576,0.67748 c 0.2981,2.61928 1.12407,5.13741 2.44378,7.41402 0,0 3.07816,-2.59578 4.31757,-4.06952 l 0.45424,0.70642 c 0.20653,1.17051 0.30282,2.36955 0.30282,3.56825 0,5.16518 -1.25328,9.60383 -4.59921,13.60899 2.28343,-0.1695 4.55396,-0.60817 6.75515,-1.26814 -1.66619,4.50004 -4.73634,8.35066 -8.77983,10.98073 l 0.0279,0.0605 h 2.53369 c 1.70751,0 3.41537,-0.13817 5.10873,-0.416 l 0.46768,-0.0951 c -1.30413,3.49887 -6.11384,8.11527 -6.11384,8.11527 16.73007,-0.26086 30.70574,-14.75024 30.98105,-31.48335 -4.03066,2.54675 -13.20487,5.08392 -13.20487,5.08392 9.15691,-8.33132 14.45866,-20.11653 14.73398,-32.49879 l -0.6196,-0.6165 c -4.76404,4.58692 -10.72601,7.72487 -17.19792,9.04699 l -0.85421,-0.22272 c 4.19969,-4.80558 6.49935,-10.961924 6.49935,-17.353984 0,-4.02285 -0.92228,-7.99972 -2.69855,-11.6241 l -0.35812,-1.09554 c -3.19449,7.20896 -8.411,13.33817 -14.98875,17.66197 4.15939,-6.47564 6.36861,-14.00194 6.36861,-21.6979 0,-9.15983 -3.15317,-18.0556 -8.89506,-25.18812 z" />
    <path
       id="path940"
       style="fill:#000000;fill-opacity:1;fill-rule:evenodd;stroke:none;stroke-width:0.352531"
       d="m 238.54552,-29.849836 c -16.75691,0 -24.89565,13.20766 -25.90023,19.804483 L 199.95253,52.940988 C 192.33544,54.467748 184.2,62.580768 184.2,70.707868 v 52.309452 c 0,7.63 6.60905,14.24125 9.66504,16.26518 v 38.09688 c 5.06514,5.06664 10.65532,8.62065 17.25373,8.62065 7.11659,0 14.22255,-4.05111 18.28312,-8.62065 v -36.57037 l 32.49466,2.53524 h 78.2071 l 32.49414,-2.53524 v 36.57037 c 4.06057,4.56954 11.16653,8.62065 18.28312,8.62065 6.59842,0 12.18911,-3.55401 17.25426,-8.62065 V 139.2825 c 3.05599,-2.02393 9.66505,-8.63518 9.66505,-16.26518 V 70.707868 c 0,-8.1271 -8.13544,-16.24012 -15.75254,-17.76688 l -12.69277,-62.986341 c -1.00458,-6.596823 -9.14331,-19.804483 -25.90023,-19.804483 z m 97.49636,17.766879 c 21.32893,0 42.1325,2.5489044 46.19305,21.856555 l 3.56671,18.78955 c 1.52977,11.67768 -4.57136,15.23164 -16.7566,14.7345 l -68.04494,-3.07113 -68.04495,3.07113 c -12.18524,0.49714 -18.28689,-3.05682 -16.75712,-14.7345 l 3.56723,-18.78955 c 4.06055,-19.3076506 24.86411,-21.856555 46.19303,-21.856555 z m -122.392,76.701785 c 9.15743,0 16.26309,7.10803 16.26309,16.25068 0,9.14604 -7.10566,16.253784 -16.26309,16.253784 -9.12924,0 -16.23208,-7.107744 -16.23208,-16.253784 0,-9.14265 7.10284,-16.25068 16.23208,-16.25068 z m 174.70044,0 c 9.12924,0 16.23155,7.10803 16.23155,16.25068 0,9.14604 -7.10231,16.253784 -16.23155,16.253784 -9.15743,0 -16.26361,-7.107744 -16.26361,-16.253784 0,-9.14265 7.10618,-16.25068 16.26361,-16.25068 z m -109.69718,15.23164 h 44.69391 l 37.06544,2.53471 v 7.12258 h -118.8253 v -7.12258 z M 241.07973,99.16143 h 119.84074 v 9.13225 H 241.07973 Z m 0.50746,18.27845 h 118.8253 v 7.10448 l -37.06544,2.02367 h -44.69391 l -37.06595,-2.02367 z"
       sodipodi:nodetypes="sccssccsccccccsccssccssscccccccssssssscssscccccccccccccccccccc" />
  </g>
</svg>
