<svg xmlns="http://www.w3.org/2000/svg" width="360.268" height="318.2" xml:space="preserve"><path style="fill:#ec1d24;fill-opacity:1;fill-rule:evenodd;stroke:none" d="M336.29 318.1c8.586 0 16.457-4.522 20.688-11.906 4.253-7.374 4.253-16.48 0-23.875L200.82 11.975A23.766 23.766 0 0 0 180.228.1h-.188a23.766 23.766 0 0 0-20.594 11.875L3.29 282.32c-4.253 7.396-4.253 16.501 0 23.875 4.231 7.384 12.102 11.906 20.688 11.906z"/><path style="fill:#fff;fill-opacity:1;fill-rule:evenodd;stroke:none" d="M37.755 286.283h284.758L180.133 39.807z"/><path style="fill:#000;fill-rule:nonzero;stroke:none" d="M232.656 172.227c-2.634.008-4.904 2.65-4.96 4.669.056.433-.035 1.528-1.167.875-1.243-.626-5.251-2.918-5.251-2.918s-2.065-.631-2.043 2.043c-.022 2.441 2.078 3.31 2.043 4.668.035 1.109-1.198 1.382-1.751 1.459-.541.105-46.257 3.348-47.556 3.5-14.371.968-21.982 1.742-36.179.292-2.62-.352-17.233-1.358-21.006-1.458-8.737.1-13.415 7.462-14.297 12.545-2.208 14.318-2.299 11.67-2.626 25.967.136.777.236 1.458-.584 2.042-2.499 2.148-4.067 3.244-4.084 7.294.017 1.53 1.935 10.753 2.042 12.838.487-.669 2.45-3.362 2.918-3.793.263-.209.355-.438.292-.875-.12-.292-.576-1.298-.584-3.21.008-5.12 3.25-4.619 3.21-9.044.04-1.1-.737-1.374-.584-4.377.386-8.486 1.492-19.923 3.501-28.3.04-.503.196-.506.292-.584.256.078.361.33.291.584-.109 3.969-.501 27.599.876 32.093.231.732.657 2.802-.292 4.085-.756 1.397-2.765 3.59-2.918 3.793-.335.405-1.004 1.075-.583 3.21 2.157 8.5 2.537 17.079 1.75 25.382.081.858.173 1.375.584 1.75.275.174.594.448.875.584.176.093.997.275.876 1.167-.06.888-.336 3.08-.584 3.501.02.356-.139 1.065.584 1.168 3.006.979 8.266 1.617 11.087 1.458.543-.009 1.182-.283.584-1.167-.8-1.912-1.208-2.218-2.626-3.5-.589-.572-3.397-4.91-3.502-11.963.105-6.922 2.25-12.493 4.96-16.63 3.381 4.51 6.97 14.176 6.711 21.59-.148.769.101 1.545 1.167 1.75 1.035.206 1.447.297 1.75 1.46.76 1.714.724 2.289.584 3.5.14.452.118.829.875.876 4.015.49 5.34.535 10.504 0 .388.005.6-.459 0-.876-3.072-2.847-9.321-10.13-9.337-17.505.016-1.772.061-4.876 2.334-4.96 2.02.084 1.679 2.503 2.918 2.626.998-.123 1.043-2.588 3.21-2.626 2.036.038 1.967 2.503 3.209 2.626.995-.123 1.407-2.383 1.459-2.918.312-.47.473-.743 1.167-.875 2.603-1.38 5.065-3.898 6.127-6.127.349-.592.645-1.071 2.334-.875 8.826.73 18.484 1.06 27.133-.292 2.145-.474 2.975.649 2.918 2.042.183.748.183 8.328 0 9.045.092.562.183 1.75.584 2.334.923 1.845 1.974 9.166 2.042 11.962-.068.607-.137 1.269.583 1.75.878.387 1.335.683 1.46 1.751.058.942.217 2.745.29 3.21-.026.176-.096.906 1.168 1.166 1.654.752 6.963 1.498 8.17 1.46.75.038.842-.464.291-1.168-.314-.527-1.6-2.24-2.334-2.917-.357-.124-.486-.37-.875-1.46-2.07-5.981-3.318-14.227-1.167-20.422.14-.423.163-.825.583-.876.371.05.504.44.584.876.085.11 1.683 5.796 1.75 6.127.024.309.115.65.292.875 2.85 2.371 3.936 12.07 4.085 12.837-.091.746.031 1.325.875 1.75.8.428 1.349.58 1.75 1.168.207.752.816 2.608.876 3.21 0 .677.062 1.103.875 1.458 1.913.83 6.137.896 7.877.584.718.066.9-.238.583-.876-.427-1.018-1.79-3.232-2.917-4.084-.693-.362-1.332-1.123-1.75-1.75-1.927-3.393-4.713-8.721-4.668-13.422-.045-1.83.23-4.158.292-4.96.21-1.024.485-5.181.583-6.127-.098-.789-.071-2.738 2.334-2.917 5.79-.201 8.64-8.805 9.044-10.212 1.793-9.139 8.336-19.691 12.838-23.633 2.416-2.178 3.333-2.419 7.002-2.625 1.383-.266 11.475-1.134 11.962-1.167.61.033.853.017 1.459-.292.55-.24 2.195-.847 3.21-.875.995.028 1.88.362 2.625.291.96.071 2.025-.63 2.626-1.167.311-.801.678-1.259 1.167-1.459.728-.287 1.397-.895 1.459-1.458-.062-.593-.366-.928-.876-1.167-.221-.432-16.266-14.529-16.63-14.88-.459-.561-2.969-2.8-3.21-2.918-.49-.338-1.084-.727-1.166-1.167.083-.472.493-.725 1.167-.583.466-.142.902.088 1.75 0 4.617.088 8.178-2.98 8.753-3.501.172-.225.536-.568.584-.876-.048-.559-.437-.878-.876-.875-.336-.004-3.03 1.092-6.71 1.167-5.34-.075-5.796-1.742-9.045-1.75z"/></svg>