<?xml version="1.0" encoding="UTF-8" standalone="no"?>
<!-- Created with Inkscape (http://www.inkscape.org/) -->

<svg
   xmlns:dc="http://purl.org/dc/elements/1.1/"
   xmlns:cc="http://creativecommons.org/ns#"
   xmlns:rdf="http://www.w3.org/1999/02/22-rdf-syntax-ns#"
   xmlns:svg="http://www.w3.org/2000/svg"
   xmlns="http://www.w3.org/2000/svg"
   version="1.1"
   width="600"
   height="600"
   id="svg2"
   xml:space="preserve"><defs
     id="defs18" /><metadata
     id="metadata4"><rdf:RDF><cc:Work
         rdf:about=""><dc:format>image/svg+xml</dc:format><dc:type
           rdf:resource="http://purl.org/dc/dcmitype/StillImage" /><dc:title></dc:title></cc:Work></rdf:RDF></metadata><path
     d="m 300,-3e-5 c 165.5875,-0.109875 299.8875,134.25 300,299.8625 -0.1125,165.85 -134.4125,300.2 -300,300.1375 C 134.275,600.06628 -0.0249984,465.71247 1.6e-6,299.86247 -0.0223734,134.24997 134.275,-0.11253 300,-3e-5"
     id="path8"
     style="fill:#ec1d24;fill-opacity:1;fill-rule:nonzero" /><path
     d="m 300,60.13747 c 132.3875,-0.1125 239.775,107.325 239.9,239.725 -0.125,132.6375 -107.5125,240.0625 -239.9,240 -132.525,0.0575 -239.912498,-107.3675 -239.899998,-240 C 60.087502,167.46247 167.47,60.02497 300,60.13747"
     id="path10"
     style="fill:#ffffff;fill-rule:nonzero" /><path
     d="m 215.375,359.73747 0,-159.5625 39.5425,39.56 0,-59.34125 -60.105,-60.13125 -60.105,60.13125 0,59.34125 39.5425,-39.56 0,159.5625 41.125,0"
     id="path12"
     style="fill:#ec1d24;fill-opacity:1;fill-rule:nonzero" /><path
     d="m 408.0875,140.57497 0,239.475 59.315,-59.605 0,89.1425 -90.15875,90.1975 -90.42125,-90.1975 0,-89.1425 59.57875,59.605 0,-239.475 61.6875,0"
     id="path14"
     style="fill:#000000;fill-rule:nonzero" /></svg>