<svg xmlns="http://www.w3.org/2000/svg" width="602mm" height="602mm" viewBox="0 0 602 602"><g transform="translate(0 305)"><circle style="fill:#e31017;fill-opacity:1;stroke:none;stroke-width:0;stroke-miterlimit:10" cx="301" cy="-4" r="300"/><circle style="fill:#fff;stroke:none;stroke-width:0;stroke-miterlimit:10" cx="301" cy="-4" r="240"/><path style="fill:#000;fill-opacity:1;fill-rule:nonzero;stroke:none;stroke-width:.220182" d="m188-88-47.391.002c-6.223-.073-21.008 3.11-23.78 21.577l-7.046 43.816s-12.773.659-12.77 14.312V30.9s-.617 7.426 6.825 11.67v30.825S108.41 79.912 118.37 80c9.752-.089 13.652-6.825 13.652-6.825V44.99S171.015 47.114 188 47.2c16.985-.086 55.979-2.209 55.979-2.209v28.184s3.9 6.736 13.651 6.825c9.961-.088 14.532-6.605 14.532-6.605V42.569c7.442-4.243 6.826-11.67 6.826-11.67V-8.292c.002-13.653-12.77-14.312-12.77-14.312l-7.046-43.816c-2.773-18.467-17.558-21.65-23.78-21.577z"/><path style="fill:#fff;fill-opacity:1;fill-rule:nonzero;stroke:none;stroke-width:.220183" d="m188-74.13-14.805.002c-2.512-.081-28.848 1.766-30.164 1.982-8.066.828-17.163 5.64-19.376 16.735l-1.982 13.21s-2.072 11.426 10.128 11.45c9.464-.024 44.245-2.076 56.199-1.98 11.954-.096 46.735 1.956 56.199 1.98 12.2-.024 10.128-11.45 10.128-11.45l-1.982-13.21c-2.213-11.096-11.31-15.907-19.376-16.735-1.316-.216-27.652-2.063-30.164-1.982z"/><path style="fill:#e31017;fill-opacity:1;fill-rule:nonzero;stroke:none;stroke-width:.220182" d="m414-88-47.391.002c-6.223-.073-21.008 3.11-23.78 21.577l-7.046 43.816s-12.773.659-12.77 14.312V30.9s-.617 7.426 6.825 11.67v30.825S334.41 79.912 344.37 80c9.752-.089 13.652-6.825 13.652-6.825V44.99S397.015 47.114 414 47.2c16.985-.086 55.979-2.209 55.979-2.209v28.184s3.9 6.736 13.651 6.825c9.961-.088 14.532-6.605 14.532-6.605V42.569c7.442-4.243 6.826-11.67 6.826-11.67V-8.292c.002-13.653-12.77-14.312-12.77-14.312l-7.046-43.816c-2.773-18.467-17.558-21.65-23.78-21.577z"/><path style="fill:#fff;fill-opacity:1;fill-rule:nonzero;stroke:none;stroke-width:.220183" d="m414-74.13-14.805.002c-2.512-.081-28.848 1.766-30.164 1.982-8.066.828-17.163 5.64-19.376 16.735l-1.982 13.21s-2.072 11.426 10.128 11.45c9.464-.024 44.245-2.076 56.199-1.98 11.954-.096 46.735 1.956 56.199 1.98 12.2-.024 10.128-11.45 10.128-11.45l-1.982-13.21c-2.213-11.096-11.31-15.907-19.376-16.735-1.316-.216-27.652-2.063-30.164-1.982z"/></g></svg>