<svg xmlns="http://www.w3.org/2000/svg" width="240.7" height="212.565" xml:space="preserve"><defs><clipPath id="a"><path d="M.06 170.12h192.56V.06H.06v170.06z"/></clipPath></defs><g clip-path="url(#a)" transform="matrix(1.25 0 0 -1.25 -.075 212.64)"><path d="M179.8 0c7.059 0 12.82 5.762 12.82 12.82 0 2.16-.574 4.465-1.726 6.336l-83.56 144.62a12.888 12.888 0 0 1-11.094 6.336 12.886 12.886 0 0 1-11.091-6.336L1.733 19.156C.58 17.281.004 14.976.004 12.816c0-7.058 5.764-12.82 12.82-12.82h166.98" style="fill:#ec1d24;fill-rule:evenodd"/></g><path d="M172.45 16.996H20.03l76.211 131.95 76.211-131.95" style="fill:#fff;fill-rule:evenodd" transform="matrix(1.25 0 0 -1.25 -.075 212.64)"/><path d="M76.789 66.117c-2.018-.719-3.172-3.023-2.736-5.039l3.168-11.524a4.562 4.562 0 0 1 3.023-3.031l2.453-9.07c.864-.719 2.016-1.008 3.168-1.008 2.16 0 4.031 1.297 5.039 3.168l-2.304 8.5c.289 0 16.714 3.742 16.855 3.742-.289-.144 15.852 4.899 16.137 5.043l2.16-8.496c1.008-.578 2.016-.867 3.172-.867 2.16 0 4.176 1.152 5.039 3.027l-2.445 9.219c1.152 1.008 1.582 2.59 1.152 4.031l-3.168 11.524c-.434 2.16-2.598 3.601-4.758 3.168l-5.765 12.82c-1.438 3.024-5.04 4.754-8.352 3.887L80.53 87.726c-3.168-.867-5.328-3.601-5.328-6.773v-.719l1.584-14.117zm2.016 6.484c.144-1.3 1.295-2.453 2.736-2.453.432 0 .719 0 1.008.145l16.422 4.898 16.711 4.035c1.297.141 2.312 1.293 2.312 2.735 0 .289-.148.719-.289 1.152l-1.586 3.606c-1.008 2.445-3.312 3.886-5.906 3.886l-.867-.144-8.641-1.727-9.945-2.738-8.5-2.738c-2.303-1.008-3.887-3.891-3.887-6.481.143-1.441.287-2.738.432-4.176M50.281 30.679v3.895-.004c1.871 0 3.311-.433 4.752-1.586 2.02-1.582 4.611-2.305 7.203-2.305 2.592 0 5.045.723 7.203 2.305 1.442 1.153 2.881 1.586 4.758 1.586 1.584 0 3.311-.578 4.608-1.586 2.16-1.582 4.611-2.305 7.203-2.305 2.592 0 5.185.723 7.205 2.305 1.439 1.153 2.879 1.586 4.75 1.586v-3.891c-2.59 0-5.039-.863-7.203-2.445-1.295-1.008-3.024-1.586-4.752-1.586-1.727 0-3.311.578-4.756 1.586a11.355 11.355 0 0 1-7.055 2.445c-2.74 0-5.045-.863-7.205-2.445-1.439-1.008-3.027-1.586-4.756-1.586-1.728 0-3.455.578-4.752 1.586-2.164 1.582-4.611 2.445-7.203 2.445m0 10.086v-2.16c2.592 0 5.039-.863 7.203-2.449 1.297-1.008 3.024-1.586 4.752-1.586 1.729 0 3.317.578 4.756 1.586 2.16 1.586 4.465 2.449 7.205 2.449 2.592 0 5.039-.863 7.055-2.449 1.445-1.008 3.029-1.586 4.756-1.586 1.728 0 3.457.578 4.752 1.586 2.164 1.586 4.613 2.449 7.203 2.449v2.16a5.166 5.166 0 0 0 5.187 5.184h45.957l13.547-23.332H97.963v4.031c-1.871 0-3.311-.574-4.75-1.582-2.02-1.586-4.613-2.449-7.205-2.449-2.592 0-5.043.863-7.203 2.449-1.44 1.008-2.881 1.582-4.608 1.582-1.877 0-3.316-.574-4.758-1.582-2.158-1.586-4.611-2.449-7.203-2.449-2.592 0-5.183.863-7.203 2.449-1.441 1.008-2.881 1.582-4.752 1.582v-4.031H29.82l13.545 23.332h1.871c2.741 0 5.045-2.305 5.045-5.184" style="fill:#000;fill-rule:evenodd" transform="matrix(1.25 0 0 -1.25 -.075 212.64)"/></svg>