<svg xmlns="http://www.w3.org/2000/svg" width="360.268" height="318.2" xml:space="preserve"><path style="fill:#ec1d24;fill-opacity:1;fill-rule:evenodd;stroke:none" d="M23.978 318.1c-8.586 0-16.457-4.522-20.688-11.906-4.253-7.374-4.253-16.48 0-23.875L159.446 11.975A23.766 23.766 0 0 1 180.04.1h.187a23.766 23.766 0 0 1 20.594 11.875l156.157 270.344c4.253 7.396 4.253 16.501 0 23.875-4.231 7.384-12.102 11.906-20.688 11.906z"/><path style="fill:#fff;fill-opacity:1;fill-rule:evenodd;stroke:none" d="M322.513 286.283H37.755L180.134 39.807z"/><path style="fill:#000;fill-rule:nonzero;stroke:none" d="M161.46 90.664v42.561a23.995 23.995 0 0 1-2.029 9.056l-24.48 42.28c-1.93 4.106-3.09 8.856-3.217 13.988v77.534h32.35v-73.755c-.048-2.545.511-4.848 1.467-6.995l10.492-17.798c.952-1.368 2.482-2.17 4.09-2.03 1.61-.14 3.14.662 4.091 2.03l10.492 17.798c.956 2.147 1.516 4.45 1.468 6.995v73.755h32.35V198.55c-.127-5.132-1.288-9.882-3.216-13.989l-24.481-42.28a23.995 23.995 0 0 1-2.03-9.055v-42.56z"/></svg>