<svg xmlns="http://www.w3.org/2000/svg" width="385.546" height="340.8" xml:space="preserve"><path d="M291.21.21a20.575 20.575 0 0 1 17.28 10.2c3.677 6.454 3.512 14.047.24 20.16L174.45 263.01c-3.544 5.847-10.037 9.786-17.4 9.84-7.465-.054-13.959-3.993-17.52-9.84L5.25 30.57c-3.252-6.113-3.417-13.706.24-20.16A20.627 20.627 0 0 1 22.77.21h268.44" style="fill:#ec1d24" transform="matrix(1.25 0 0 -1.25 -3.474 341.063)"/><path d="M157.05 238.41 35.01 27.09h243.96L157.05 238.41" style="fill:#fff" transform="matrix(1.25 0 0 -1.25 -3.474 341.063)"/><path d="m278.339 216.6-219.3 79.8h265.5l-46.2-79.8M242.639 204c-6.075 2.191-9.23 8.955-7.05 15 2.273 6.189 9.037 9.344 15.15 7.05 6.12-2.159 9.275-8.924 7.05-15a11.76 11.76 0 0 0-15.15-7.05M155.039 235.8c-6.094 2.281-9.25 9.045-7.05 15.15 2.253 6.129 9.018 9.283 15.15 7.05 6.102-2.22 9.256-8.984 7.05-15.15-2.247-6.067-9.01-9.221-15.15-7.05"/><path d="M237.389 166.05s5.917-2.431 9.6 3.9l8.85 15.15s3.317-.272 4.5 3c.293.784.45 1.65.45 1.65l2.7 19.2-4.5 1.65c-2.492-6.829-9.968-10.286-16.8-7.8-6.713 2.444-10.205 9.931-7.8 16.65l-63 22.95c-2.5-6.705-9.987-10.196-16.8-7.8-6.732 2.533-10.224 10.021-7.8 16.8l-12.9 4.65-19.05-52.5s-1.16-2.994 1.65-4.05l87.3-31.8c2.82-.967 3.9 2.1 3.9 2.1l9 24.6 5.55-2.1-5.4-15.15s-1.143-3.086 1.5-4.05l19.05-7.05"/><path d="M198.57 105.21c-2.481-.853-3.742-3.559-2.88-6 .919-2.452 3.624-3.714 6.12-2.88 2.398.947 3.659 3.653 2.76 6.12-.882 2.426-3.587 3.688-6 2.76M128.49 79.77a4.798 4.798 0 0 1-2.88-6.12c.903-2.404 3.609-3.665 6-2.76 2.502.876 3.764 3.581 2.88 6-.897 2.475-3.602 3.736-6 2.88M201.93 126.69l-13.32-4.8-4.08 11.04 8.76 3.36s2.661.863 3.48-.72l5.16-8.88" style="fill:#fff" transform="matrix(1.25 0 0 -1.25 -3.474 341.063)"/></svg>