<?xml version="1.0" encoding="UTF-8" standalone="no"?>
<!-- Created with Inkscape (http://www.inkscape.org/) -->

<svg
   xmlns:dc="http://purl.org/dc/elements/1.1/"
   xmlns:cc="http://creativecommons.org/ns#"
   xmlns:rdf="http://www.w3.org/1999/02/22-rdf-syntax-ns#"
   xmlns:svg="http://www.w3.org/2000/svg"
   xmlns="http://www.w3.org/2000/svg"
   xmlns:sodipodi="http://sodipodi.sourceforge.net/DTD/sodipodi-0.dtd"
   xmlns:inkscape="http://www.inkscape.org/namespaces/inkscape"
   version="1.1"
   width="385.54614"
   height="340.79999"
   id="svg2"
   xml:space="preserve"
   inkscape:version="0.48.2 r9819"
   sodipodi:docname="UK traffic sign 553.1.svg"><sodipodi:namedview
     pagecolor="#ffffff"
     bordercolor="#666666"
     borderopacity="1"
     objecttolerance="10"
     gridtolerance="10"
     guidetolerance="10"
     inkscape:pageopacity="0"
     inkscape:pageshadow="2"
     inkscape:window-width="640"
     inkscape:window-height="480"
     id="namedview16"
     showgrid="false"
     inkscape:zoom="0.69157509"
     inkscape:cx="192.77619"
     inkscape:cy="170.36249"
     inkscape:window-x="0"
     inkscape:window-y="24"
     inkscape:window-maximized="0"
     inkscape:current-layer="svg2" /><defs
     id="defs17" /><metadata
     id="metadata8"><rdf:RDF><cc:Work
         rdf:about=""><dc:format>image/svg+xml</dc:format><dc:type
           rdf:resource="http://purl.org/dc/dcmitype/StillImage" /></cc:Work></rdf:RDF></metadata><g
     transform="matrix(1.25,0,0,-1.25,-3.4738088,341.06251)"
     id="g10"><path
       d="m 291.21,0.21001 c 6.885,0.15912 13.543,3.8134 17.28,10.2 3.677,6.454 3.512,14.047 0.24,20.16 l -134.28,232.44 c -3.544,5.847 -10.037,9.786 -17.4,9.84 -7.465,-0.054 -13.959,-3.993 -17.52,-9.84 L 5.25,30.57001 c -3.2524,-6.113 -3.4166,-13.706 0.24,-20.16 3.7571,-6.3866 10.415,-10.041 17.28,-10.2 h 268.44"
       inkscape:connector-curvature="0"
       id="path12"
       style="fill:#ec1d24" /><path
       d="M 157.05,238.41 35.01,27.09 H 278.97 L 157.05,238.41"
       inkscape:connector-curvature="0"
       id="path14"
       style="fill:#ffffff" /><path
       d="m 119.25,92.61 c 15.578,0.051 28.195,-12.566 28.2,-28.08 -0.005,-15.613 -12.622,-28.23 -28.2,-28.2 -15.548,-0.03 -28.165,12.587 -28.2,28.2 0.035,15.514 12.652,28.131 28.2,28.08"
       inkscape:connector-curvature="0"
       id="path16" /><path
       d="m 215.61,69.09 c 9.085,0.016 16.41,-7.309 16.44,-16.32 -0.03,-9.059 -7.355,-16.384 -16.44,-16.44 -8.986,0.056 -16.311,7.381 -16.32,16.44 0.009,9.011 7.334,16.336 16.32,16.32"
       inkscape:connector-curvature="0"
       id="path18" /><path
       d="m 158.85,127.53 v 7.68 h -50.88 v -7.68 l -6.12,-25.32 -10.68,-10.68 3.6,-3.72 9.6,9.6 h 29.04 l 8.52,-7.68 c 6.907,-6.186 11.269,-15.208 11.28,-25.2 v -3.6 h 43.92 c 3.091,7.088 10.234,12.09 18.48,12.12 6.95,-0.03 13.045,-3.477 16.68,-8.76 v 12.36 h -12.6 l 6.6,22.8 c 0,0 0.329,1.728 -1.2,1.68 h -16.92 v 8.52 h -2.64 v 8.52 h -3.12 v -8.52 h -2.64 v -8.52 h -34.44 l 0.12,7.8 -6.6,18.6"
       inkscape:connector-curvature="0"
       id="path20" /><path
       d="m 119.25,80.97 c 9.094,-0.051 16.453,-7.411 16.44,-16.44 0.013,-9.128 -7.346,-16.488 -16.44,-16.44 -9.064,-0.048 -16.424,7.312 -16.44,16.44 0.016,9.029 7.376,16.389 16.44,16.44"
       inkscape:connector-curvature="0"
       id="path22"
       style="fill:#ffffff" /><path
       d="m 215.61,59.85 c 3.984,0.019 7.173,-3.17 7.2,-7.08 -0.027,-3.958 -3.216,-7.147 -7.2,-7.2 -3.885,0.053 -7.074,3.242 -7.08,7.2 0.006,3.91 3.195,7.099 7.08,7.08"
       inkscape:connector-curvature="0"
       id="path24"
       style="fill:#ffffff" /><path
       d="m 130.17,127.53 h -16.68 l -5.16,-20.76 h 21.84 v 20.76"
       inkscape:connector-curvature="0"
       id="path26"
       style="fill:#ffffff" /><path
       d="m 136.77,127.53 h 15 l 7.32,-20.76 h -22.32 v 20.76"
       inkscape:connector-curvature="0"
       id="path28"
       style="fill:#ffffff" /><path
       d="m 145.53,92.61 h 13.2 v 8.52 h -22.2 l 9,-8.52"
       inkscape:connector-curvature="0"
       id="path30"
       style="fill:#ffffff" /></g></svg>