<svg width="683" height="604" xmlns="http://www.w3.org/2000/svg"><path style="fill:#e31837;fill-opacity:1;stroke:none;stroke-width:1px;stroke-linecap:butt;stroke-linejoin:miter;stroke-opacity:1" d="m-849.211 874.813 294.448-510h77.943l294.448 510-38.97 67.5H-810.24z" transform="translate(857.291 -340.313)"/><path style="fill:#fff;stroke:none;stroke-width:50;stroke-linecap:square;stop-color:#000" transform="matrix(1.02277 0 0 1.02277 915.892 306.822)" d="M-299.114 229.943H-824.1l262.493-454.65z"/><path style="fill:#e31837;fill-opacity:1;stroke:none;stroke-width:50;stroke-linecap:square;stop-color:#000" transform="rotate(-150 383.052 -285.012)" d="M298.032-593.318a45 45 0 0 1-22.5 38.97 45 45 0 0 1-45 0l22.5-38.97z"/><path style="fill:#e31837;fill-opacity:1;stroke:none;stroke-width:50;stroke-linecap:square;stop-color:#000" transform="rotate(-30 -206.386 -1769.884)" d="M-595.345 666.424a45 45 0 0 1-22.5 38.971 45 45 0 0 1-45 0l22.5-38.97z"/><path style="fill:#e31837;fill-opacity:1;stroke:none;stroke-width:50;stroke-linecap:square;stop-color:#000" transform="scale(-1 1) rotate(-30 -1063.678 1429.571)" d="M298.032 1182.216a45 45 0 0 1-22.5 38.97 45 45 0 0 1-45 0l22.5-38.97z"/><path d="m-717.225 1372.14-.838.075-.8.23-.762.342-.686.495-.61.572-.457.685-.342.763-.229.8-.076.838v6.592l-30.861 21.604 29.984 20.995h-25.146l-.914.077-.914.228-.876.344-.8.495-.724.609-4.267 4.268h-118.488l-1.143.077-1.143.19-1.105.343-1.067.458-.99.609-.915.724-.8.8-.724.915-.609.99-.458 1.067-.343 1.105-10.21 40.695v54.03h30.022v5.982h17.983l.077 1.333.227 1.334.382 1.294.496 1.258.685 1.182.762 1.067.914 1.028.99.877 1.106.8 1.181.647 1.219.496 1.295.38 1.334.23 1.333.076 1.334-.077 1.333-.228 1.295-.381 1.258-.496 1.18-.647 1.106-.8.99-.877.876-1.028.801-1.067.648-1.182.533-1.258.343-1.294.229-1.334.076-1.333h18.02l.077 1.333.228 1.334.344 1.294.533 1.258.648 1.182.762 1.067.914 1.028.99.877 1.106.8 1.18.647 1.258.496 1.295.38 1.296.23 1.37.076 1.335-.077 1.333-.228 1.295-.381 1.22-.496 1.18-.647 1.105-.8.99-.877.915-1.028.762-1.067.648-1.182.533-1.258.382-1.294.228-1.334.076-1.333h131.975l.076 1.333.23 1.334.38 1.294.495 1.258.649 1.182.8 1.067.876 1.028 1.028.877 1.105.8 1.143.647 1.257.496 1.296.38 1.333.23 1.334.076 1.333-.077 1.334-.228 1.295-.381 1.257-.496 1.182-.647 1.066-.8 1.029-.877.876-1.028.8-1.067.647-1.182.496-1.258.381-1.294.228-1.334.077-1.333h17.982l.077 1.333.23 1.334.38 1.294.533 1.258.648 1.182.762 1.067.915 1.028.99.877 1.104.8 1.183.647 1.218.496 1.296.38 1.333.23 1.333.076 1.372-.077 1.333-.228 1.258-.381 1.257-.496 1.182-.647 1.104-.8.99-.877.915-1.028.762-1.067.647-1.182.534-1.258.38-1.294.191-1.334.077-1.333h18.02v-5.983h29.985v-54.03l-10.173-40.694-.343-1.105-.495-1.066-.571-.991-.724-.914-.838-.801-.915-.724-.99-.61-1.029-.457-1.105-.342-1.143-.191-1.142-.077h-118.527l-4.228-4.268-.725-.61-.8-.494-.876-.344-.915-.228-.952-.077h-25.108l29.984-20.995-30.86-21.604v-6.592l-.076-.838-.228-.8-.344-.763-.494-.685-.572-.572-.686-.495-.762-.343-.8-.229-.839-.076zm2.705 12.001 29.985 20.995-29.985 20.995-30.021-20.995zm-155.634 62.984h9.22l.838.078.8.228.762.343.686.495.61.572.457.686.38.762.19.838.077.8v23.396l-.076.838-.19.838-.381.724-.458.685-.61.61-.685.496-.762.343-.8.229-.838.038h-15.087l-.838-.077-.839-.23-.8-.38-.686-.495-.61-.649-.457-.724-.342-.8-.19-.876v-.838l.114-.876 5.866-23.396.229-.762.381-.685.495-.648.572-.534.686-.418.723-.344.762-.19zm28.422 0h14.401l.838.078.8.228.762.343.686.495.61.572.457.686.38.762.192.838.076.8v71.405l-.076.838-.191.8-.381.763-.457.685-.61.61-.686.457-.762.38-.8.192-.838.077h-14.401l-.838-.077-.801-.191-.762-.38-.685-.458-.572-.61-.495-.685-.344-.763-.227-.8-.077-.838v-71.405l.077-.8.227-.838.344-.762.495-.686.572-.572.685-.495.762-.343.8-.229zm30.021 0h14.402l.8.078.838.228.763.343.685.495.571.572.496.686.342.762.23.838.076.8v71.405l-.077.838-.229.8-.342.763-.496.685-.57.61-.686.457-.763.38-.838.192-.8.077h-14.402l-.838-.077-.8-.191-.761-.38-.687-.458-.609-.61-.457-.685-.381-.763-.19-.8-.077-.838v-71.405l.076-.8.19-.838.382-.762.457-.686.61-.572.686-.495.761-.343.8-.229zm31.47 0h32.423l.838.078.8.228.762.343.686.495.571.572.496.686.342.762.229.838.076.8v23.396l-.076.838-.229.838-.342.724-.496.685-.571.61-.686.496-.762.343-.8.229-.838.038h-32.423l-.8-.038-.838-.23-.761-.342-.687-.495-.57-.61-.496-.686-.343-.724-.229-.838-.076-.838v-23.396l.076-.8.229-.838.343-.762.495-.686.571-.572.687-.495.761-.343.838-.229zm49.529 0h32.384l.838.078.8.228.763.343.686.495.609.572.457.686.343.762.228.838.077.8v23.396l-.077.838-.228.838-.343.724-.457.685-.61.61-.685.496-.763.343-.8.229-.838.038h-32.384l-.838-.038-.8-.23-.762-.342-.686-.495-.61-.61-.456-.686-.381-.724-.191-.838-.077-.838v-23.396l.077-.8.19-.838.382-.762.457-.686.609-.572.686-.495.762-.343.8-.229zm49.49 0h32.385l.838.078.8.228.762.343.686.495.61.572.456.686.381.762.191.838.077.8v23.396l-.077.838-.19.838-.382.724-.457.685-.609.61-.686.496-.761.343-.8.229-.839.038h-32.384l-.838-.038-.8-.23-.762-.342-.687-.495-.609-.61-.456-.686-.382-.724-.19-.838-.077-.838v-23.396l.077-.8.19-.838.382-.762.456-.686.61-.572.686-.495.762-.343.8-.229zm49.491 0h14.402l.838.078.8.228.762.343.685.495.61.572.457.686.343.762.23.838.076.8v71.405l-.077.838-.229.8-.343.763-.457.685-.61.61-.685.457-.762.38-.8.192-.838.077h-14.402l-.838-.077-.8-.191-.762-.38-.685-.458-.572-.61-.496-.685-.342-.763-.229-.8-.076-.838v-71.405l.076-.8.229-.838.342-.762.496-.686.572-.572.685-.495.762-.343.8-.229zm29.984 0h14.402l.838.078.838.228.724.343.686.495.609.572.496.686.342.762.19.838.077.8v71.405l-.076.838-.19.8-.343.763-.496.685-.61.61-.685.457-.724.38-.838.192-.838.077h-14.402l-.8-.077-.837-.191-.763-.38-.685-.458-.573-.61-.494-.685-.343-.763-.23-.8-.076-.838v-71.405l.077-.8.23-.838.342-.762.494-.686.573-.572.685-.495.763-.343.837-.229zm33.605 0h9.256l.763.078.8.19.724.343.647.419.61.534.458.647.38.686.266.762 5.83 23.396.152.876-.037.838-.152.876-.343.8-.457.724-.61.648-.686.495-.8.382-.838.229-.876.076h-15.087l-.84-.038-.8-.23-.76-.343-.687-.494-.571-.61-.496-.686-.343-.724-.228-.838-.077-.838v-23.396l.077-.8.228-.838.343-.762.496-.686.57-.572.687-.495.762-.343.8-.229z" style="fill:#000;stroke:none;stroke-width:.457212;stroke-linecap:round;stroke-linejoin:round;stroke-miterlimit:10;stroke-dasharray:none;stroke-opacity:1" transform="translate(1056.038 -1030.14)"/></svg>