<svg xmlns="http://www.w3.org/2000/svg" width="216.77" height="216.754" xml:space="preserve"><defs><clipPath id="a"><path d="M.015 245.72h173.42V0H.015v245.72z"/></clipPath></defs><path style="fill:#fff;fill-rule:evenodd" d="M0 0c47.397 0 85.866-38.459 85.866-85.852 0-47.39-38.469-85.851-85.866-85.851-47.396 0-85.865 38.461-85.865 85.851S-47.396-.003 0-.003" transform="matrix(1.25 0 0 -1.25 108.375 1.063)"/><g clip-path="url(#a)" transform="matrix(1.25 0 0 -1.25 -.019 307.15)"><path style="fill:none;stroke:#0079c1;stroke-width:1.70000005;stroke-miterlimit:10" d="M0 0c47.397 0 85.866-38.459 85.866-85.852 0-47.39-38.469-85.851-85.866-85.851-47.396 0-85.865 38.461-85.865 85.851S-47.396-.003 0-.003" transform="translate(86.715 244.87)"/></g><path style="fill:#0079c1;fill-rule:evenodd" d="M0 0c45.092 0 81.686-36.592 81.686-81.676 0-45.082-36.594-81.675-81.686-81.675-45.094 0-81.686 36.593-81.686 81.675C-81.686-36.593-45.094-.001 0-.001" transform="matrix(1.25 0 0 -1.25 108.375 6.275)"/><path style="fill:#fff;fill-rule:evenodd" d="M0 0c.865 3.023 1.728 6.051 2.592 9.074h.144c0 .145-.144.289-.287.434C1.297 9.939.721 10.947.721 12.1c0 1.584 1.152 2.736 2.736 2.879h4.895V12.1H4.176c-.143 0-.287-.145-.287-.289 0-.143 0-.288.144-.432.863-.432 1.44-1.152 1.44-2.16 0-.432 0-.576-.145-1.008 0-.145-.432-1.44-.432-1.44h19.305c.285.864.719 1.872 1.152 2.879-1.441.289-2.882.577-4.464 1.008a.796.796 0 0 0-.434.721c0 .432.289.721.719.721h9.797c0-1.584-1.149-2.881-2.735-2.881-.289-.719-.578-1.584-1.008-2.448C28.381 4.611 29.533 2.303 30.83 0a9.693 9.693 0 0 0 4.035.863c5.762 0 10.516-4.752 10.516-10.66 0-5.76-4.754-10.515-10.516-10.515-5.476 0-9.945 4.035-10.519 9.507h-1.297c-.289-1.007-.867-1.873-1.727-2.449.289-.719.574-1.439 1.008-2.16h1.727v-1.44h-1.153a1.113 1.113 0 0 0-.722-.287c-.286 0-.571.145-.86.287h-1.441v1.44h1.293c-.285.576-.574 1.152-.86 1.728-.578-.287-.722-.287-1.296-.287-2.309 0-4.325 1.871-4.325 4.176 0 .432.143.863.287 1.297C10.949-5.762 6.912-3.025 2.881-.145c-.145-.289-.289-.72-.432-1.152l.143-.144C5.184-3.457 6.625-6.48 6.625-9.797c0-5.76-4.752-10.515-10.516-10.515-5.908 0-10.66 4.755-10.66 10.515 0 5.908 4.752 10.66 10.66 10.66 1.584 0 2.303-.144 3.748-.72L0 0zm16.135-9.797c0-1.439 1.297-2.736 2.883-2.736 1.437 0 2.734 1.297 2.734 2.736 0 1.584-1.297 2.883-2.734 2.883a2.892 2.892 0 0 1-2.883-2.883M1.584-4.754c-.143-.574-.287-1.15-.576-1.871-.719-2.02-2.74-3.604-4.756-4.18h-.143c-.576 0-1.152.432-1.152 1.008 0 .432.287.721.432.863 0 0 .144 0 .287.145 1.152.867 2.16 1.732 2.592 3.027.289.866.576 1.729.865 2.737-1.008.431-2.016.72-3.024.72a7.44 7.44 0 0 1-7.492-7.492c0-4.031 3.315-7.344 7.492-7.344 4.036 0 7.348 3.313 7.348 7.344 0 2.02-.721 3.748-1.873 5.043m20.168-1.871c1.297 3.455 2.734 6.912 4.18 10.512.867-1.584 1.726-3.313 2.734-5.039-2.59-1.873-4.031-4.465-4.32-7.493h-1.297c-.145.723-.578 1.444-1.153 2.02h-.144zm8.359 2.592c-1.445-1.153-2.304-2.737-2.593-4.612h5.183c-.863 1.444-1.73 3.028-2.59 4.612m5.618-5.332c.144-.145.144-.287.144-.432a.985.985 0 0 0-1.008-1.008h-7.347c.574-3.599 3.601-6.336 7.347-6.336 4.031 0 7.344 3.313 7.344 7.344 0 4.18-3.313 7.492-7.344 7.492-.871 0-1.73-.144-2.453-.431 1.008-2.16 2.164-4.321 3.317-6.629M16.564-6.193c-.289.576-.578 1.297-1.007 2.015h-1.729v1.442h1.152c.288.287.577.431.866.431a.789.789 0 0 0 .718-.431h1.446v-1.442h-1.301c.285-.431.582-1.008.867-1.584h.145c.289.145.863.289 1.297.289h.14c1.297 3.168 2.594 6.481 4.035 9.795H4.176c-.143-.58-.287-1.299-.576-2.019 4.177-2.879 8.357-5.76 12.675-8.783 0 0 .145.142.289.287" transform="matrix(1.25 0 0 -1.25 89.279 41.563)"/><path style="fill:none;stroke:#fff;stroke-width:.14399999;stroke-miterlimit:10" d="M0 0c.865 3.023 1.728 6.051 2.592 9.074h.144c0 .145-.144.289-.287.434C1.297 9.939.721 10.947.721 12.1c0 1.584 1.152 2.736 2.736 2.879h4.895V12.1H4.176c-.143 0-.287-.145-.287-.289 0-.143 0-.288.144-.432.863-.432 1.44-1.152 1.44-2.16 0-.432 0-.576-.145-1.008 0-.145-.432-1.44-.432-1.44h19.305c.285.864.719 1.872 1.152 2.879-1.441.289-2.882.577-4.464 1.008a.796.796 0 0 0-.434.721c0 .432.289.721.719.721h9.797c0-1.584-1.149-2.881-2.735-2.881-.289-.719-.578-1.584-1.008-2.448C28.381 4.611 29.533 2.303 30.83 0a9.693 9.693 0 0 0 4.035.863c5.762 0 10.516-4.752 10.516-10.66 0-5.76-4.754-10.515-10.516-10.515-5.476 0-9.945 4.035-10.519 9.507h-1.297c-.289-1.007-.867-1.873-1.727-2.449.289-.719.574-1.439 1.008-2.16h1.727v-1.44h-1.153a1.113 1.113 0 0 0-.722-.287c-.286 0-.571.145-.86.287h-1.441v1.44h1.293c-.285.576-.574 1.152-.86 1.728-.578-.287-.722-.287-1.296-.287-2.309 0-4.325 1.871-4.325 4.176 0 .432.143.863.287 1.297C10.949-5.762 6.912-3.025 2.881-.145c-.145-.289-.289-.72-.432-1.152l.143-.144C5.184-3.457 6.625-6.48 6.625-9.797c0-5.76-4.752-10.515-10.516-10.515-5.908 0-10.66 4.755-10.66 10.515 0 5.908 4.752 10.66 10.66 10.66 1.584 0 2.303-.144 3.748-.72L0 0z" transform="matrix(1.25 0 0 -1.25 89.279 41.563)"/><path style="fill:none;stroke:#fff;stroke-width:.14399999;stroke-miterlimit:10" d="M0 0c0-1.44 1.297-2.736 2.883-2.736C4.32-2.736 5.617-1.44 5.617 0c0 1.584-1.297 2.883-2.734 2.883A2.892 2.892 0 0 1 0 0z" transform="matrix(1.25 0 0 -1.25 109.448 53.809)"/><path style="fill:none;stroke:#fff;stroke-width:.14399999;stroke-miterlimit:10" d="M0 0c-.143-.574-.287-1.15-.576-1.871-.719-2.02-2.74-3.604-4.756-4.18h-.143c-.576 0-1.152.432-1.152 1.008 0 .432.287.721.432.863 0 0 .144 0 .287.145 1.152.867 2.16 1.732 2.592 3.027.289.865.576 1.729.865 2.736-1.008.432-2.016.721-3.024.721a7.44 7.44 0 0 1-7.492-7.492c0-4.031 3.315-7.344 7.492-7.344 4.036 0 7.348 3.313 7.348 7.344C1.873-3.023 1.152-1.295 0 0z" transform="matrix(1.25 0 0 -1.25 91.259 47.505)"/><path style="fill:none;stroke:#fff;stroke-width:.14399999;stroke-miterlimit:10" d="M0 0c1.297 3.455 2.734 6.912 4.18 10.512.867-1.584 1.726-3.313 2.734-5.039C4.324 3.6 2.883 1.008 2.594-2.02H1.297C1.152-1.297.719-.576.145 0H0z" transform="matrix(1.25 0 0 -1.25 116.469 49.844)"/><path style="fill:none;stroke:#fff;stroke-width:.14399999;stroke-miterlimit:10" d="M0 0c-1.445-1.152-2.304-2.736-2.593-4.611H2.59C1.727-3.168.86-1.584 0 0z" transform="matrix(1.25 0 0 -1.25 126.918 46.604)"/><path style="fill:none;stroke:#fff;stroke-width:.14399999;stroke-miterlimit:10" d="M0 0c.144-.145.144-.287.144-.432A.985.985 0 0 0-.864-1.439h-7.347c.574-3.6 3.601-6.336 7.347-6.336 4.031 0 7.344 3.312 7.344 7.343 0 4.18-3.313 7.493-7.344 7.493-.871 0-1.73-.145-2.453-.432C-2.309 4.469-1.153 2.309 0 0z" transform="matrix(1.25 0 0 -1.25 133.94 53.269)"/><path style="fill:none;stroke:#fff;stroke-width:.14399999;stroke-miterlimit:10" d="M0 0c-.289.576-.578 1.297-1.008 2.016h-1.728v1.441h1.152c.287.287.576.432.865.432A.792.792 0 0 0 0 3.457h1.445V2.016h-1.3c.285-.432.582-1.008.867-1.584h.144c.289.144.864.289 1.297.289h.141c1.297 3.168 2.594 6.48 4.035 9.795h-19.018c-.142-.58-.287-1.299-.576-2.02C-8.787 5.617-4.607 2.736-.289-.287L0 0z" transform="matrix(1.25 0 0 -1.25 109.984 49.304)"/><g><path style="fill:#fff;fill-rule:evenodd" d="M0 0v-.139c-.047 0-.096-.004-.143-.004a3.461 3.461 0 0 0-3.461 3.459v14.981c0 .951.776 1.728 1.729 1.728l.871 19.592a1.731 1.731 0 0 0 1.725 1.584c.049 0 .095-.004.144-.008l.864.008h127.06c4.851 0 8.785-3.936 8.785-8.789V5.908L107.183-.287c.285.863.43 1.728.43 2.74 0 4.752-4.031 8.783-8.789 8.783-4.898 0-8.789-4.031-8.789-8.783 0-1.012 0-1.877.289-2.74H36.588a8.36 8.36 0 0 1 .433 2.74c0 4.752-4.037 8.783-8.789 8.783-4.9 0-8.931-4.031-8.931-8.783 0-1.012.144-1.877.431-2.74L.013 0zm13.973 32.412c0 .957-.772 1.728-1.729 1.728l-5.183-.004c-.049.004-.1.004-.149.004a1.727 1.727 0 0 1-1.726-1.728l.007-25.639a1.73 1.73 0 0 1 1.868-1.58l5.183-.004a1.73 1.73 0 0 1 1.725 1.584l.004 25.639zm8.068-10.371v-.137c-.049-.004-.096-.008-.144-.008-.952 0-1.729.776-1.729 1.729v8.787c0 .957.777 1.728 1.729 1.728.048 0 .095 0 .144-.004l21.18.004c.951 0 1.728-.771 1.728-1.728v-8.787c0-.953-.777-1.729-1.728-1.729l-21.18.145zm29.104-.145c-.956 0-1.733.776-1.733 1.729v8.787a1.73 1.73 0 0 0 1.733 1.728H72.32c.953 0 1.727-.771 1.727-1.728v-8.787a1.73 1.73 0 0 0-1.727-1.729H51.145zm29.097 0c-.953 0-1.726.776-1.726 1.729v8.787c0 .957.773 1.728 1.726 1.728h21.18c.953 0 1.726-.771 1.726-1.728v-8.787c0-.953-.773-1.729-1.726-1.729h-21.18zm29.102 0a1.73 1.73 0 0 0-1.727 1.729v8.787c0 .957.773 1.728 1.727 1.728h17.718c2.946 0 5.336-2.324 5.336-5.183l-.148-5.332a1.73 1.73 0 0 0-1.727-1.729h-21.179" transform="matrix(1.25 0 0 -1.25 24.809 131.05)"/></g><g><path style="fill:none;stroke:#fff;stroke-width:.14399999;stroke-miterlimit:10" d="M0 0v-.139c-.047 0-.096-.004-.143-.004a3.461 3.461 0 0 0-3.461 3.459v14.981c0 .951.776 1.728 1.729 1.728l.871 19.592a1.731 1.731 0 0 0 1.725 1.584c.049 0 .095-.004.144-.008l.864.008h127.06c4.851 0 8.785-3.936 8.785-8.789V5.908L107.183-.287c.285.863.43 1.728.43 2.74 0 4.752-4.031 8.783-8.789 8.783-4.898 0-8.789-4.031-8.789-8.783 0-1.012 0-1.877.289-2.74H36.588a8.36 8.36 0 0 1 .433 2.74c0 4.752-4.037 8.783-8.789 8.783-4.9 0-8.931-4.031-8.931-8.783 0-1.012.144-1.877.431-2.74L.013 0z" transform="matrix(1.25 0 0 -1.25 24.809 131.05)"/><path style="fill:none;stroke:#fff;stroke-width:.14399999;stroke-miterlimit:10" d="M0 0c0 .957-.772 1.729-1.729 1.729l-5.183-.004c-.049.004-.1.004-.149.004A1.728 1.728 0 0 1-8.787 0l.008-25.639a1.728 1.728 0 0 1 1.867-1.58l5.183-.004a1.73 1.73 0 0 1 1.725 1.584L0 0z" transform="matrix(1.25 0 0 -1.25 42.275 90.535)"/><path style="fill:none;stroke:#fff;stroke-width:.14399999;stroke-miterlimit:10" d="M0 0v-.137c-.049-.004-.096-.008-.144-.008-.952 0-1.729.776-1.729 1.729v8.787A1.73 1.73 0 0 0-.144 12.1c.048 0 .095 0 .144-.004l21.18.004a1.73 1.73 0 0 0 1.728-1.729V1.584c0-.953-.777-1.729-1.728-1.729L0 0z" transform="matrix(1.25 0 0 -1.25 52.36 103.499)"/><path style="fill:none;stroke:#fff;stroke-width:.14399999;stroke-miterlimit:10" d="M0 0c-.955 0-1.732.775-1.732 1.729v8.787A1.73 1.73 0 0 0 0 12.244h21.176c.953 0 1.726-.771 1.726-1.728V1.729C22.902.775 22.129 0 21.176 0H0z" transform="matrix(1.25 0 0 -1.25 88.74 103.68)"/><path style="fill:none;stroke:#fff;stroke-width:.14399999;stroke-miterlimit:10" d="M0 0a1.73 1.73 0 0 0-1.727 1.729v8.787c0 .957.774 1.728 1.727 1.728h21.18c.953 0 1.726-.771 1.726-1.728V1.729C22.906.775 22.133 0 21.18 0H0z" transform="matrix(1.25 0 0 -1.25 125.113 103.68)"/><path style="fill:none;stroke:#fff;stroke-width:.14399999;stroke-miterlimit:10" d="M0 0c-.954 0-1.727.775-1.727 1.729v8.787c0 .957.773 1.728 1.727 1.728h17.718c2.946 0 5.336-2.324 5.336-5.183l-.148-5.332A1.73 1.73 0 0 0 21.179 0H0z" transform="matrix(1.25 0 0 -1.25 161.49 103.68)"/></g><g><path style="fill:#fff;fill-rule:evenodd" d="M0 0a3.457 3.457 0 1 0-3.459-3.455A3.46 3.46 0 0 0 0 0m.144 3.6c3.897 0 7.061-3.159 7.061-7.055a7.064 7.064 0 0 0-7.061-7.061 7.064 7.064 0 0 0-7.06 7.061A7.06 7.06 0 0 0 .144 3.6" transform="matrix(1.25 0 0 -1.25 59.924 123.675)"/></g><g><path style="fill:none;stroke:#fff;stroke-width:.14399999;stroke-miterlimit:10" d="M0 0a3.457 3.457 0 1 0-3.459-3.455A3.46 3.46 0 0 0 0 0z" transform="matrix(1.25 0 0 -1.25 59.924 123.675)"/><path style="fill:none;stroke:#fff;stroke-width:.14399999;stroke-miterlimit:10" d="M0 0c3.896 0 7.061-3.158 7.061-7.055A7.065 7.065 0 0 0 0-14.116a7.064 7.064 0 0 0-7.06 7.061A7.06 7.06 0 0 0 0 0z" transform="matrix(1.25 0 0 -1.25 60.104 119.175)"/></g><g><path style="fill:#fff;fill-rule:evenodd" d="M0 0a3.454 3.454 0 0 0 3.453-3.455 3.457 3.457 0 1 0-6.914 0A3.459 3.459 0 0 0 0 0m.141 3.6c3.898 0 7.062-3.159 7.062-7.055a7.065 7.065 0 0 0-7.062-7.061 7.064 7.064 0 0 0-7.059 7.061A7.06 7.06 0 0 0 .141 3.6" transform="matrix(1.25 0 0 -1.25 148.169 123.675)"/></g><g><path style="fill:none;stroke:#fff;stroke-width:.14399999;stroke-miterlimit:10" d="M0 0a3.454 3.454 0 0 0 3.453-3.455 3.457 3.457 0 1 0-6.914 0A3.459 3.459 0 0 0 0 0z" transform="matrix(1.25 0 0 -1.25 148.169 123.675)"/><path style="fill:none;stroke:#fff;stroke-width:.14399999;stroke-miterlimit:10" d="M0 0c3.898 0 7.062-3.158 7.062-7.055A7.065 7.065 0 0 0 0-14.116a7.064 7.064 0 0 0-7.059 7.061A7.059 7.059 0 0 0 0 0z" transform="matrix(1.25 0 0 -1.25 148.345 119.175)"/></g></svg>