<svg xmlns="http://www.w3.org/2000/svg" width="385.546" height="340.8" xml:space="preserve"><path d="M291.21.21a20.575 20.575 0 0 1 17.28 10.2c3.677 6.454 3.512 14.047.24 20.16L174.45 263.01c-3.544 5.847-10.037 9.786-17.4 9.84-7.465-.054-13.959-3.993-17.52-9.84L5.25 30.57c-3.252-6.113-3.417-13.706.24-20.16A20.627 20.627 0 0 1 22.77.21h268.44" style="fill:#ec1d24" transform="matrix(1.25 0 0 -1.25 -3.474 341.063)"/><path d="M157.05 238.41 35.01 27.09h243.96L157.05 238.41" style="fill:#fff" transform="matrix(1.25 0 0 -1.25 -3.474 341.063)"/><path d="m321.539 295.65-16.05-28.05h-93.9v28.05h109.95M200.339 270.15l-5.55 10.2 1.2.6 5.55-10.2-1.2-.6M201.689 287.55l2.4-6-1.2-.45-2.85 6.6 4.35 6.45 1.05-.75-3.75-5.85M182.489 283.35l4.95 11.1 1.2-.6-4.8-11.1-1.35.6M172.739 288.6l1.35.3 2.55-15.15-1.35-.3-2.55 15.15M166.289 274.95l-1.2.75 3.45 4.5-.3 9.75 1.35.15.3-10.35-3.6-4.8M148.589 292.35l.75 1.05 6.9-4.5-.9-1.05-6.75 4.5M137.639 275.85l-2.7-4.2-1.2.75 2.55 3.9v7.05l2.55 8.25 1.35-.3-2.55-8.1v-7.35M129.389 284.25l-3.9-2.4-.75 1.2 3.6 2.1 2.85 6 1.2-.6-3-6.3M119.939 279.75l-1.35.15.6 6.3-.75 6 1.35.15.9-6.15-.75-6.45M102.239 282l4.35 8.1 1.2-.75-4.35-8.1-1.2.75M92.789 287.25l1.35.6 4.95-9.6-1.2-.6-5.1 9.6M79.889 275.4l1.8 12.9 1.35-.15-1.8-12.9-1.35.15M69.989 290.4l1.2.6 5.1-9.9-1.2-.6-5.1 9.9M88.739 274.8l-2.7 1.95 1.65 2.7 4.05.45 1.05-2.55-4.05-2.55M88.739 287.7l-1.8 3.45 2.85 1.35.75-2.55-1.8-2.25M101.639 290.1l-4.5 1.2 6.15 2.7-1.65-3.9M113.489 280.5v-6.3h-4.2l-1.05 4.95 5.25 1.35M131.489 272.55h-4.2l-2.85 4.35 5.25 2.1 1.8-6.45M164.489 287.85h-4.8l1.65 4.35 3.15-4.35M178.889 289.05l-3.15 2.4 4.35 1.2-1.2-3.6M188.789 276.15h-6l4.65 3.75 1.35-3.75M195.389 289.65v-4.5l-2.55-1.35-2.4 2.1 1.2 4.2 3.75-.45"/><path d="M191.189 255.75c9.646-2.555 31.95-9.75 31.95-9.75l4.35 16.05s3.178 3.296 8.85 1.8c5.622-1.531 7.2-6 7.2-6l-4.65-17.55c3.572-3.65 2.1-7.8 2.1-7.8l-6-22.5c-2.134-7.786-9.6-6.3-9.6-6.3l-10.65-24c-4.49-10.08-13.448-9.634-16.95-8.7l-54.75 14.7c-3.575.933-11.558 5.026-10.35 16.05l2.7 26.1s-7.187 2.405-5.1 10.2l6 22.5s.812 4.331 5.7 5.7l4.65 17.55s3.73 3.061 9.45 1.5c5.575-1.465 6.75-6 6.75-6l-4.35-16.05s22.933-4.854 32.7-7.5"/><path d="M145.89 104.85c5.434 1.464 21.805 4.842 26.16 6 5.575 1.503 3.12 6.48 3.12 6.48l-2.4 5.76c-2.405 4.87-7.166 5.958-10.92 5.4-.674-.117-12.972-2.504-14.16-2.76l-13.92-3.72c-1.081-.362-12.926-4.444-13.56-4.68-3.538-1.394-7.116-4.716-6.72-10.08l.72-6.24s.4-5.542 6-4.08c4.33 1.198 20.196 6.458 25.68 7.92" style="fill:#fff" transform="matrix(1.25 0 0 -1.25 -3.474 341.063)"/></svg>