<svg width="681" height="602.12" fill-rule="evenodd" xmlns="http://www.w3.org/2000/svg"><path d="m46.019 601.088-38.971-67.5L301.529 23.532h77.942l294.481 510.056-38.971 67.5" fill="#e31017"/><circle cx="340.5" cy="46.032" r="45" fill="#e31017"/><circle cx="634.981" cy="556.088" r="45" fill="#e31017"/><circle cx="46.019" cy="556.088" r="45" fill="#e31017"/><path d="M72 541.088 340.5 76.032 609 541.088" fill="#fff"/><path style="fill:#000;fill-opacity:1;fill-rule:evenodd;stroke:none;stroke-width:.352828" d="M324.133 245.633c-9.648 0-17.793 7.113-19.317 16.258l-5.587 37.613c-6.1.51-10.676 5.587-10.676 11.176v4.06h-27.448c-9.668 0-17.289 6.614-18.812 15.766l-6.1 37.611c-6.091.512-10.666 5.583-10.666 11.69v3.556H198.08c-9.668 0-17.801 7.11-19.324 16.248l-5.588 37.118c-6.099.508-10.668 5.58-10.668 11.699v32.002c0 4.068 2.032 7.623 5.588 10.172v25.414c3.046 3.049 7.113 5.072 11.682 5.072 4.066 0 8.641-2.023 11.19-5.072V492.64l46.255 1.517 45.75-1.517v23.375c3.053 3.049 7.119 5.072 11.178 5.072 4.575 0 8.641-2.023 11.687-5.072v-25.414c3.556-2.04 5.588-6.104 5.588-10.172v-32.002c0-6.118-4.57-11.19-10.668-11.7l-1.521-11.177 46.769-2.04v23.376c3.046 3.567 7.112 5.097 11.178 5.097 4.576 0 8.63-1.53 11.69-5.097v-25.404c3.556-2.025 5.58-5.583 5.58-9.66v-32.016c0-6.107-4.561-11.178-10.157-11.69l-2.041-11.19 46.78-2.026v23.375c3.044 3.062 7.109 5.087 11.173 5.087 4.576 0 8.645-2.025 11.69-5.087V352.86c3.556-2.025 5.609-5.596 5.609-9.648V310.68c0-5.589-4.604-10.666-10.186-11.176l-6.09-37.613c-1.53-9.145-9.663-16.258-18.812-16.258zm24.912 11.682h27.95l23.886 1.53c7.635 1.014 13.738 6.602 14.762 14.237 2.01 10.668 2.011 12.197 2.011 12.197 0 4.06-3.557 7.616-7.607 7.616 0 0-1.021-.504-46.78-1.524-46.247 1.02-46.755 1.524-46.755 1.524-4.583 0-7.637-3.557-7.637-7.616 0 0 0-1.53 1.53-12.197 1.012-7.635 7.126-13.223 14.747-14.236zm-63.027 68.615h27.957l23.879 1.531c7.635 1.02 13.726 7.11 14.746 14.732 2.038 10.668 2.039 11.688 2.039 11.688 0 4.067-3.556 7.635-7.635 7.635 0 0-.496 0-46.764-1.514-46.247 1.513-46.756 1.514-46.756 1.514-4.59 0-8.146-3.568-8.146-7.635 0 0 .51-1.02 2.033-12.197v.51c1.02-7.622 7.133-13.713 14.748-14.733zm-63.034 69.119h27.944l23.898 1.531c7.622 1.005 13.727 6.616 14.746 14.237 2.033 10.666 2.033 11.675 2.033 11.675 0 4.573-3.555 7.635-7.62 7.635 0 0-1.02 0-46.77-1.531-46.254 1.531-47.281 1.531-47.281 1.531-4.066 0-7.621-3.062-7.621-7.635 0 0 0-1.01 2.033-11.675 1.013-7.62 7.124-13.232 14.746-14.237z"/></svg>