<svg xmlns="http://www.w3.org/2000/svg" width="500.4" height="428.124" version="1.0"><path d="M-2261.247-3739.301h-196.481c-29.555 0-53.52 23.914-53.52 53.418v320.887c0 29.504 23.965 53.419 53.52 53.419h392.96c29.556 0 53.52-23.915 53.52-53.42v-320.886c0-29.504-23.964-53.418-53.52-53.418h-196.48" style="fill:#000;fill-opacity:1;fill-rule:evenodd;stroke:none" transform="translate(2511.447 3739.501)"/><path d="M-2261.247-3712.506h-196.3c-14.828 0-26.845 11.997-26.845 26.804v320.524c0 14.798 12.017 26.795 26.845 26.795h392.598c14.828 0 26.846-11.997 26.846-26.795v-320.524c0-14.807-12.018-26.804-26.846-26.804h-196.298" style="fill:#fff;fill-opacity:1;fill-rule:evenodd;stroke:none" transform="translate(2511.447 3739.501)"/><path d="M-2328.195-3667.952h-75.832c-19.734 0-35.74 15.966-35.74 35.67v213.685c0 19.704 16.006 35.67 35.74 35.67h151.674c19.734 0 35.73-15.966 35.73-35.67v-213.685c0-19.704-15.996-35.67-35.73-35.67h-75.842zm-22.313 137.985c32.044 0 58.053 25.959 58.053 57.942 0 31.993-26.009 57.951-58.053 57.951-32.043 0-58.052-25.958-58.052-57.951 0-31.983 26.01-57.942 58.052-57.942zm0 17.023c22.636 0 40.999 18.334 40.999 40.919 0 22.594-18.363 40.927-40.999 40.927-22.634 0-40.998-18.333-40.998-40.927 0-22.585 18.364-40.919 40.998-40.919zm71.118-135.818c18.828 0 34.108 15.25 34.108 34.048 0 18.787-15.28 34.038-34.108 34.038-18.827 0-34.108-15.251-34.108-34.038 0-18.797 15.281-34.048 34.108-34.048zm.363 16.298c9.811 0 17.78 7.949 17.78 17.75 0 9.79-7.969 17.749-17.78 17.749-9.812 0-17.78-7.958-17.78-17.75 0-9.8 7.968-17.749 17.78-17.749zm91.073 11.958h-14.516v161.888h14.516v-161.888zm14.153 10.495h14.516v151.393h-14.516v-151.393zm28.659 164.79v-142.698h14.878v26.805h47.536v89.089h-47.536v44.554h-72.206v-17.75h57.328" style="fill:#000;fill-opacity:1;fill-rule:evenodd;stroke:none" transform="translate(2511.447 3739.501)"/></svg>