<?xml version="1.0" encoding="UTF-8" standalone="no"?>
<!-- Created with Inkscape (http://www.inkscape.org/) -->

<svg
   xmlns:dc="http://purl.org/dc/elements/1.1/"
   xmlns:cc="http://creativecommons.org/ns#"
   xmlns:rdf="http://www.w3.org/1999/02/22-rdf-syntax-ns#"
   xmlns:svg="http://www.w3.org/2000/svg"
   xmlns="http://www.w3.org/2000/svg"
   xmlns:sodipodi="http://sodipodi.sourceforge.net/DTD/sodipodi-0.dtd"
   xmlns:inkscape="http://www.inkscape.org/namespaces/inkscape"
   version="1.1"
   width="240.57124"
   height="212.57001"
   id="svg2"
   xml:space="preserve"
   inkscape:version="0.48.2 r9819"
   sodipodi:docname="UK traffic sign 508.1.svg"><sodipodi:namedview
     pagecolor="#ffffff"
     bordercolor="#666666"
     borderopacity="1"
     objecttolerance="10"
     gridtolerance="10"
     guidetolerance="10"
     inkscape:pageopacity="0"
     inkscape:pageshadow="2"
     inkscape:window-width="640"
     inkscape:window-height="480"
     id="namedview13"
     showgrid="false"
     inkscape:zoom="1.1098049"
     inkscape:cx="120.27875"
     inkscape:cy="106.25"
     inkscape:window-x="0"
     inkscape:window-y="24"
     inkscape:window-maximized="0"
     inkscape:current-layer="svg2" /><metadata
     id="metadata8"><rdf:RDF><cc:Work
         rdf:about=""><dc:format>image/svg+xml</dc:format><dc:type
           rdf:resource="http://purl.org/dc/dcmitype/StillImage" /></cc:Work></rdf:RDF></metadata><defs
     id="defs6"><clipPath
       id="clipPath16"><path
         d="M 0,170.12 H 192.47 V 0.06 H 0 v 170.06 z"
         inkscape:connector-curvature="0"
         id="path18" /></clipPath></defs><g
     transform="matrix(1.25,0,0,-1.25,-0.01625,212.645)"
     id="g10"><g
       id="g12"><g
         clip-path="url(#clipPath16)"
         id="g14"><path
           d="m 12.824,0 h 166.97 c 7.062,0 12.68,5.762 12.68,12.82 0,2.164 -0.578,4.465 -1.586,6.34 l -83.555,144.62 c -2.309,4.035 -6.484,6.336 -11.096,6.336 -4.465,0 -8.789,-2.301 -11.091,-6.336 L 1.745,19.16 C 0.5892,17.285 0.013,14.984 0.013,12.82 0.013,5.762 5.7767,0 12.837,0"
           inkscape:connector-curvature="0"
           id="path20"
           style="fill:#ec1d24;fill-rule:evenodd" /></g></g><path
       d="M 172.45,17 H 20.17 L 96.236,148.94 172.45,17"
       inkscape:connector-curvature="0"
       id="path22"
       style="fill:#ffffff;fill-rule:evenodd" /><path
       d="m 85,81.242 v 19.449 l 14.119,14.117 14.119,-14.117 V 22.758 H 85 V 55.316 L 62.234,32.7 52.15,42.641 80.822,71.306 c 2.592,2.589 4.176,6.195 4.176,9.937"
       inkscape:connector-curvature="0"
       id="path24"
       style="fill:#000000;fill-rule:evenodd" /></g></svg>