<?xml version="1.0" encoding="UTF-8" standalone="no"?>
<!-- Created with Inkscape (http://www.inkscape.org/) -->

<svg
   xmlns:dc="http://purl.org/dc/elements/1.1/"
   xmlns:cc="http://creativecommons.org/ns#"
   xmlns:rdf="http://www.w3.org/1999/02/22-rdf-syntax-ns#"
   xmlns:svg="http://www.w3.org/2000/svg"
   xmlns="http://www.w3.org/2000/svg"
   xmlns:sodipodi="http://sodipodi.sourceforge.net/DTD/sodipodi-0.dtd"
   xmlns:inkscape="http://www.inkscape.org/namespaces/inkscape"
   xml:space="preserve"
   height="600"
   width="680"
   version="1.1"
   id="svg22"
   sodipodi:docname="UK_traffic_sign_523.1.svg"
   inkscape:version="0.92.2 (5c3e80d, 2017-08-06)"><defs
     id="defs26" /><sodipodi:namedview
     pagecolor="#ffffff"
     bordercolor="#666666"
     borderopacity="1"
     objecttolerance="10"
     gridtolerance="10"
     guidetolerance="10"
     inkscape:pageopacity="0"
     inkscape:pageshadow="2"
     inkscape:window-width="1366"
     inkscape:window-height="705"
     id="namedview24"
     showgrid="false"
     inkscape:pagecheckerboard="true"
     inkscape:snap-intersection-paths="true"
     inkscape:zoom="0.5"
     inkscape:cx="372.80989"
     inkscape:cy="237.76655"
     inkscape:window-x="-8"
     inkscape:window-y="-8"
     inkscape:window-maximized="1"
     inkscape:current-layer="svg22" /><metadata
     id="metadata2"><rdf:RDF><cc:Work
         rdf:about=""><dc:format>image/svg+xml</dc:format><dc:type
           rdf:resource="http://purl.org/dc/dcmitype/StillImage" /><dc:title></dc:title></cc:Work></rdf:RDF></metadata><path
     style="fill:#e31837;fill-rule:evenodd;stroke-width:0.9996568;fill-opacity:1"
     inkscape:connector-curvature="0"
     d="m 635.02873,600 c 16.27641,0 31.02535,-8.62324 39.18055,-22.86815 7.62838,-13.70929 7.62838,-30.97337 0,-44.70665 L 378.66075,22.290348 C 370.6616,8.4930854 355.89957,1.34712e-6 339.92305,1.34712e-6 323.94954,1.34712e-6 309.2016,8.4928854 301.20235,22.290348 L 6.1636437,532.4252 c -8.1256102,13.73428 -8.1256102,30.99836 0,44.70665 C 14.303449,591.37696 29.064781,600 45.341193,600 Z"
     id="path4" /><path
     style="fill:#ffffff;fill-rule:evenodd;stroke-width:0.9996568"
     inkscape:connector-curvature="0"
     d="M 71.292283,540.04058 H 609.09763 L 339.93005,74.690357 71.292283,540.04058"
     id="path6" /><path
     style="opacity:1;fill:#000000;fill-opacity:1;stroke:none;stroke-width:1.91522324;stroke-linecap:square;stroke-linejoin:miter;stroke-miterlimit:4;stroke-dasharray:none;stroke-opacity:1"
     d="M 208.87891 341.73633 L 105.93359 520.04102 L 574.45703 520.04102 L 208.87891 341.73633 z "
     id="path905" /><path
     style="fill:#000000;fill-rule:evenodd;stroke-width:0.9996568"
     inkscape:connector-curvature="0"
     d="m 284.96642,269.05719 13.74128,6.098 -37.15224,75.70201 -14.74494,-7.10676 25.45226,-52.33203 -12.2228,-6.09801 6.09551,-12.19981 2.0413,1.01575 c 3.57397,1.52008 9.67317,4.57093 16.78923,-5.07875"
     id="path8" /><path
     style="fill:#000000;fill-rule:evenodd;stroke-width:0.9996568"
     inkscape:connector-curvature="0"
     d="m 344.49598,314.78149 c 8.13681,4.063 13.73729,12.71463 4.58053,32.00401 -9.65888,19.8112 -19.85118,22.34633 -28.99804,17.78589 -9.16096,-4.063 -13.74129,-13.70929 -3.55988,-33.51949 9.65548,-19.31337 19.83719,-19.82419 27.97839,-16.26941 m 6.62173,-14.21712 c 11.18816,5.08226 28.99904,21.8345 13.22946,54.35034 -16.29241,33.03666 -39.19455,29.97871 -51.38836,23.8878 -11.69698,-5.59368 -28.50022,-21.8485 -12.20881,-54.87216 15.76859,-32.50784 39.67438,-28.44524 50.36771,-23.36598"
     id="path10" /><path
     style="fill:#000000;fill-rule:evenodd;stroke-width:0.9996568"
     inkscape:connector-curvature="0"
     d="m 412.67257,335.62433 c 3.55988,2.02441 6.11331,6.09101 2.0448,14.72895 -4.58052,9.13476 -9.16095,10.15451 -13.23345,8.11541 -4.06851,-2.02441 -6.60774,-6.09101 -2.02721,-15.23977 4.56643,-8.62324 9.65889,-9.13126 13.21546,-7.60399 m 3.05136,-6.08751 c 5.08905,2.02441 13.24445,9.64269 6.1097,24.87946 -7.62828,14.71495 -18.30472,13.70929 -23.39697,10.66534 -5.61527,-2.53593 -13.24445,-10.16851 -6.1097,-24.88246 7.64238,-15.26476 18.31871,-13.21146 23.39697,-10.66234"
     id="path12" /><path
     style="fill:#000000;fill-rule:evenodd;stroke-width:0.9996568"
     inkscape:connector-curvature="0"
     d="m 430.99628,395.55376 c 3.55988,2.0421 6.10971,5.59368 2.0413,14.74294 -4.0685,9.14885 -9.16105,10.1685 -13.24445,8.1296 -4.0685,-2.0244 -6.09911,-6.61303 -1.51858,-15.23976 4.56643,-9.14536 9.16096,-9.14536 12.72063,-7.63228 m 3.04786,-6.58474 c 5.09265,2.53593 13.22946,10.13952 6.1133,24.88245 -7.62828,15.23577 -17.80989,13.72329 -23.41096,11.18716 -5.58709,-2.53593 -13.21547,-10.16851 -6.09911,-25.40527 7.62828,-14.74294 18.83153,-13.21147 23.39697,-10.66534"
     id="path14" /><path
     style="fill:#000000;fill-rule:evenodd;stroke-width:0.9996568"
     inkscape:connector-curvature="0"
     d="m 363.83934,401.65166 -3.06195,-1.53067 98.72011,-51.80022 9.65888,5.06826 -98.70811,51.30639 -3.04785,-1.51658 -3.55988,-1.52728"
     id="path16" /></svg>