<?xml version="1.0" encoding="UTF-8" standalone="no"?>
<!-- Created with Inkscape (http://www.inkscape.org/) -->

<svg
   xmlns:dc="http://purl.org/dc/elements/1.1/"
   xmlns:cc="http://creativecommons.org/ns#"
   xmlns:rdf="http://www.w3.org/1999/02/22-rdf-syntax-ns#"
   xmlns:svg="http://www.w3.org/2000/svg"
   xmlns="http://www.w3.org/2000/svg"
   xmlns:sodipodi="http://sodipodi.sourceforge.net/DTD/sodipodi-0.dtd"
   xmlns:inkscape="http://www.inkscape.org/namespaces/inkscape"
   version="1.1"
   width="240.76431"
   height="212.64999"
   id="svg2"
   xml:space="preserve"
   inkscape:version="0.48.2 r9819"
   sodipodi:docname="UK traffic sign 524.1.svg"><sodipodi:namedview
     pagecolor="#ffffff"
     bordercolor="#666666"
     borderopacity="1"
     objecttolerance="10"
     gridtolerance="10"
     guidetolerance="10"
     inkscape:pageopacity="0"
     inkscape:pageshadow="2"
     inkscape:window-width="753"
     inkscape:window-height="480"
     id="namedview18"
     showgrid="false"
     inkscape:zoom="0.78475055"
     inkscape:cx="346.75219"
     inkscape:cy="156.71119"
     inkscape:window-x="221"
     inkscape:window-y="83"
     inkscape:window-maximized="0"
     inkscape:current-layer="svg2" /><metadata
     id="metadata8"><rdf:RDF><cc:Work
         rdf:about=""><dc:format>image/svg+xml</dc:format><dc:type
           rdf:resource="http://purl.org/dc/dcmitype/StillImage" /></cc:Work></rdf:RDF></metadata><defs
     id="defs6"><clipPath
       id="clipPath16"><path
         d="M 0.059998,170.12 H 192.62 V 0.06 H 0.059998 v 170.06 z"
         inkscape:connector-curvature="0"
         id="path18" /></clipPath></defs><path
     style="fill:#ec1d24;fill-rule:evenodd"
     d="m 224.73806,212.65 c 5.76625,0 10.98625,-3.05625 13.8625,-8.105 2.885,-4.85875 2.885,-10.9775 0,-15.845 L 134.00056,7.9 C 131.16806,3.01 125.94431,0 120.29431,0 c -5.65875,0 -10.88375,3.01 -13.715,7.9 L 2.1643125,188.7 c -2.88575,4.8675 -2.88575,10.98625 0,15.845 2.8765,5.04875 8.0962495,8.105 13.8625005,8.105 H 224.73931 z"
     id="path3014"
     inkscape:connector-curvature="0" /><path
     style="fill:#ffffff;fill-opacity:1;fill-rule:evenodd"
     d="M 25.213062,191.4 H 215.56306 L 120.47556,26.475 25.211812,191.4"
     id="path20"
     inkscape:connector-curvature="0" /><path
     style="fill:#000000;fill-rule:evenodd"
     id="path22"
     inkscape:connector-curvature="0"
     d="m 79.240562,137.38625 -5.586249,2.695 c -2.52,-4.6775 -2.52,-11.88375 5.58625,-16.02 7.92,-3.78375 13.14375,2.15875 14.22375,4.6775 1.25875,2.34875 3.23625,7.2075 -3.59875,18.18875 l 9.90125,-4.86375 2.339997,4.86375 -19.448747,9.365 -2.33875,-4.8625 c 5.57625,-9.9025 9.72125,-15.665 7.74375,-19.625 -1.08375,-2.34875 -4.145,-3.78375 -7.20625,-2.1625 -3.0575,1.445 -3.0575,5.04375 -1.61625,7.74375" /><path
     style="fill:#000000;fill-rule:evenodd"
     id="path24"
     inkscape:connector-curvature="0"
     d="m 107.86806,117.22 c 2.705,-1.44 6.30375,-1.26 9.9025,5.7625 3.4275,6.835 1.80125,10.26375 -1.43625,11.885 -3.06125,1.435 -6.84,0.53625 -10.0875,-6.30875 -3.2375,-7.0225 -1.26,-10.07875 1.62125,-11.33875 m -2.52,-5.04875 c 3.785,-1.9775 12.4225,-3.4175 18.00875,8.29125 5.58,11.52375 -0.18125,17.285 -4.5025,19.44375 -4.14,1.9825 -12.42625,3.05625 -18.0075,-8.4625 -5.762497,-11.70375 0.7225,-17.465 4.50125,-19.2725" /><path
     style="fill:#000000;fill-rule:evenodd"
     id="path26"
     inkscape:connector-curvature="0"
     d="m 128.57556,102.635 c 1.26,-0.53875 2.88625,-0.36125 4.5075,2.7 1.62125,3.2425 0.89875,4.67875 -0.5425,5.40125 -1.61625,0.7175 -3.2425,0.36125 -4.6825,-2.88125 -1.62125,-3.05875 -0.7225,-4.5 0.7175,-5.22 m -1.25875,-2.16 c 1.80125,-0.90125 5.76625,-1.62375 8.285,3.77875 2.70125,5.2225 0,7.9175 -1.9775,8.82125 -1.9825,1.07875 -5.76625,1.62125 -8.285,-3.78 -2.70125,-5.4 0.18,-8.1 1.9775,-8.82" /><path
     style="fill:#000000;fill-rule:evenodd"
     id="path28"
     inkscape:connector-curvature="0"
     d="m 149.28806,110.555 c 1.25875,-0.54125 2.88,-0.36125 4.50125,2.7 1.62125,3.2425 0.90375,4.6875 -0.53625,5.40625 -1.62625,0.7175 -3.2475,0.35625 -4.6875,-2.88125 -1.62125,-3.06125 -0.5375,-4.5075 0.7225,-5.225 m -1.08,-2.1625 c 1.61625,-0.89875 5.58125,-1.61625 8.10125,3.77875 2.7,5.23 0,7.93 -1.9775,8.82875 -1.9875,1.07875 -5.76625,1.44 -8.28625,-3.78 -2.7,-5.405 0.36125,-8.105 2.1625,-8.8275" /><path
     style="fill:#000000;fill-rule:evenodd"
     id="path30"
     inkscape:connector-curvature="0"
     d="m 135.23806,131.0875 7.02625,-38.5375 3.41875,-1.79875 -7.02125,38.705 -3.42375,1.63125" /><path
     style="fill:#000000;fill-rule:evenodd"
     id="path32"
     inkscape:connector-curvature="0"
     d="m 35.475563,183.84125 166.037497,-0.18 -36.375,-63.19875 -129.662498,63.37875" /><path
     style="fill:none;stroke:#000000;stroke-width:0.17999999;stroke-miterlimit:10"
     id="path34"
     inkscape:connector-curvature="0"
     d="m 35.475563,183.84125 166.037497,-0.18 -36.375,-63.19875 -129.662498,63.37875 z" /></svg>