<?xml version="1.0"?>
<svg xmlns="http://www.w3.org/2000/svg" width="707" height="807" fill-rule="evenodd">
<rect width="705" height="805" rx="50.5" ry="50.5" x="1" y="1" fill="#000" stroke="none"/>
<rect width="700" height="800" rx="48" ry="48" x="3.5" y="3.5" fill="#fff" stroke="none"/>
<rect width="652" height="752" rx="24" ry="24" x="27.5" y="27.5" fill="#01619e" stroke="none"/>
<path d="M223.5,67.5 363.5,207.5 363.5,347.5 270.167,254.167 270.167,627.5 176.833,627.5 176.833,254.167 83.5,347.5 83.5,207.5 M519.5,739.814 622.5,636.814 622.5,519.187 559.167,582.52 559.167,340.5 479.833,340.5 479.833,582.52 416.5,519.187 416.5,636.814" fill="#fff" stroke="none"/>
<path d="M519.5,728.5 614.5,633.5 614.5,538.5 551.167,601.833 551.167,348.5 487.833,348.5 487.833,601.833 424.5,538.5 424.5,633.5" fill="#e31017" stroke="none"/>
</svg>