<svg xmlns="http://www.w3.org/2000/svg" width="360.268" height="318.2" xml:space="preserve"><path style="fill:#ec1d24;fill-opacity:1;fill-rule:evenodd;stroke:none" d="M336.29 318.1c8.586 0 16.457-4.522 20.688-11.906 4.253-7.374 4.253-16.48 0-23.875L200.82 11.975A23.766 23.766 0 0 0 180.228.1h-.188a23.766 23.766 0 0 0-20.594 11.875L3.29 282.319c-4.253 7.396-4.253 16.501 0 23.875 4.231 7.384 12.102 11.906 20.688 11.906z"/><path style="fill:#fff;fill-opacity:1;fill-rule:evenodd;stroke:none" d="M322.513 286.283H37.755L180.134 39.807z"/><path style="fill:#000;fill-rule:nonzero;stroke:none" d="m193.485 149.486-.416 2.637h36.445l24.62 41.933V278.2h-148v-84.144l24.62-41.933H167.2l-.416-2.637z"/><path style="fill:#fff;fill-opacity:1;fill-rule:nonzero;stroke:none" d="M190.848 166.287c22.55 4.95 39.378 24.94 39.359 48.879v60.394h-7.786v-60.394c-.01-23.267-18.947-42.109-42.287-42.072-23.341-.037-42.278 18.805-42.288 42.072v60.394h-7.785v-60.394c-.02-23.938 16.807-43.929 39.358-48.879l.555 2.644a39.197 39.197 0 0 1 10.16-1.117c3.607-.07 6.884.326 10.16 1.117zM190.024 152.122l-2.081 13.752c-2.524-.45-5.117-.661-7.809-.686-2.692.025-5.285.237-7.809.686l-2.08-13.752zM128.804 203.363c-.866 3.755-1.503 7.71-1.53 11.802h-18.64v-17.633l20.17 5.831M129.5 200.721a50.908 50.908 0 0 1 5.008-11.802l-16.553-9.72-9.18 15.552 20.726 5.97"/><path style="fill:#fff;fill-opacity:1;fill-rule:nonzero;stroke:none" d="M135.902 186.558a54.831 54.831 0 0 1 9.876-11.247l-14.745-18.467L119.21 176.7l16.692 9.858M147.863 173.65a49.239 49.239 0 0 1 8.068-5.137l-7.234-13.885H132.98l14.883 19.023M158.293 167.4c3.394-1.61 6.995-2.809 10.71-3.61l-1.39-9.164h-15.858l6.538 12.775M108.634 230.296h18.639V217.8h-18.64zM108.634 245.431h18.639v-12.496h-18.64zM108.634 260.427h18.639v-12.496h-18.64zM108.634 275.562h18.639v-12.496h-18.64zM231.464 203.363c.866 3.755 1.503 7.71 1.53 11.802h18.64v-17.633l-20.17 5.831M230.768 200.721a50.908 50.908 0 0 0-5.008-11.802l16.553-9.72 9.18 15.552-20.726 5.97M224.366 186.558a54.83 54.83 0 0 0-9.876-11.247l14.745-18.467 11.823 19.856-16.692 9.858M212.405 173.65a49.24 49.24 0 0 0-8.068-5.137l7.234-13.885h15.717l-14.883 19.023M201.975 167.4c-3.394-1.61-6.995-2.809-10.71-3.61l1.39-9.164h15.858l-6.538 12.775M251.634 230.296h-18.639V217.8h18.64zM251.634 245.431h-18.639v-12.496h18.64zM251.634 260.427h-18.639v-12.496h18.64zM251.634 275.562h-18.639v-12.496h18.64z"/></svg>