<svg xmlns="http://www.w3.org/2000/svg" width="360.268" height="318.2" xml:space="preserve"><path style="fill:#ec1d24;fill-opacity:1;fill-rule:evenodd;stroke:none" d="M336.29 318.1c8.586 0 16.457-4.522 20.688-11.906 4.253-7.374 4.253-16.48 0-23.875L200.82 11.975A23.766 23.766 0 0 0 180.228.1h-.188a23.766 23.766 0 0 0-20.594 11.875L3.29 282.32c-4.253 7.396-4.253 16.501 0 23.875 4.231 7.384 12.102 11.906 20.688 11.906z"/><path style="fill:#fff;fill-opacity:1;fill-rule:evenodd;stroke:none" d="M37.755 286.283h284.758L180.133 39.807z"/><path style="fill:#000;fill-rule:nonzero;stroke:none" d="M117.322 168.118c-4.33 7.49 11.076 17.795 11.076 17.795l26.85 15.495.296 65.645c.023 2.678 2.604 4.075 2.604 4.075l4.964 2.903c4.81 2.705 6.714-3.509 6.714-3.509l9.936-43.152 5.24-9.063s14.923 8.825 19.85 11.682c5.341 3.07 11.093 3.197 11.093 3.197l-.883 16.621s-.603 3.072 3.49 5.552c5.17 2.867 7.526-.605 8.169-1.456 6.67-11.785 13.4-23.536 20.128-35.288.405-.987 2.194-4.783-2.905-7.773-4.218-2.26-6.555-.177-6.555-.177l-13.858 9.22s-3.036-4.886-8.397-7.92c-4.968-2.787-20.16-11.139-20.16-11.139l5.133-9.124 32.085-30.519s4.379-4.801-.397-7.566l-5.026-2.794s-2.516-1.51-4.833-.167l-56.655 33.162-27.005-15.224s-16.71-8.015-20.954-.476z"/></svg>