<svg xmlns="http://www.w3.org/2000/svg" width="600" height="600" xml:space="preserve"><path d="M300 0c165.588-.11 299.887 134.25 300 299.862-.113 165.85-134.412 300.2-300 300.138C134.275 600.066-.025 465.712 0 299.862-.022 134.25 134.275-.113 300 0" style="fill:#ec1d24;fill-opacity:1;fill-rule:nonzero"/><path d="M300 60.137c132.387-.112 239.775 107.325 239.9 239.725-.125 132.638-107.513 240.063-239.9 240-132.525.058-239.912-107.367-239.9-240-.012-132.4 107.37-239.837 239.9-239.725" style="fill:#fff;fill-rule:nonzero"/><path d="M215.375 359.737V200.175l39.542 39.56v-59.341l-60.105-60.132-60.105 60.132v59.341l39.543-39.56v159.562h41.125" style="fill:#ec1d24;fill-opacity:1;fill-rule:nonzero"/><path d="M408.087 140.575V380.05l59.315-59.605v89.142l-90.158 90.198-90.422-90.198v-89.142l59.58 59.605V140.575h61.687" style="fill:#000;fill-rule:nonzero"/></svg>