<?xml version="1.0" encoding="UTF-8" standalone="no"?>
<!-- Created with Inkscape (http://www.inkscape.org/) -->

<svg
   xmlns:dc="http://purl.org/dc/elements/1.1/"
   xmlns:cc="http://creativecommons.org/ns#"
   xmlns:rdf="http://www.w3.org/1999/02/22-rdf-syntax-ns#"
   xmlns:svg="http://www.w3.org/2000/svg"
   xmlns="http://www.w3.org/2000/svg"
   xmlns:sodipodi="http://sodipodi.sourceforge.net/DTD/sodipodi-0.dtd"
   xmlns:inkscape="http://www.inkscape.org/namespaces/inkscape"
   version="1.1"
   width="385.54614"
   height="340.79999"
   id="svg2"
   xml:space="preserve"
   inkscape:version="0.48.2 r9819"
   sodipodi:docname="UK traffic sign 556.1.svg"><sodipodi:namedview
     pagecolor="#ffffff"
     bordercolor="#666666"
     borderopacity="1"
     objecttolerance="10"
     gridtolerance="10"
     guidetolerance="10"
     inkscape:pageopacity="0"
     inkscape:pageshadow="2"
     inkscape:window-width="640"
     inkscape:window-height="480"
     id="namedview33"
     showgrid="false"
     inkscape:zoom="0.69157509"
     inkscape:cx="192.77619"
     inkscape:cy="170.36249"
     inkscape:window-x="0"
     inkscape:window-y="24"
     inkscape:window-maximized="0"
     inkscape:current-layer="svg2" /><defs
     id="defs34" /><metadata
     id="metadata8"><rdf:RDF><cc:Work
         rdf:about=""><dc:format>image/svg+xml</dc:format><dc:type
           rdf:resource="http://purl.org/dc/dcmitype/StillImage" /></cc:Work></rdf:RDF></metadata><g
     transform="matrix(1.25,0,0,-1.25,-3.4738088,341.06251)"
     id="g10"><path
       d="m 291.21,0.21001 c 6.885,0.15912 13.543,3.8133 17.28,10.2 3.677,6.454 3.512,14.047 0.24,20.16 l -134.28,232.44 c -3.544,5.847 -10.037,9.786 -17.4,9.84 -7.465,-0.054 -13.959,-3.993 -17.52,-9.84 L 5.25,30.57001 c -3.2524,-6.113 -3.4166,-13.706 0.24,-20.16 3.7571,-6.3867 10.415,-10.041 17.28,-10.2 h 268.44"
       inkscape:connector-curvature="0"
       id="path12"
       style="fill:#ec1d24" /><path
       d="M 157.05,238.41 35.01,27.09 H 278.97 L 157.05,238.41"
       inkscape:connector-curvature="0"
       id="path14"
       style="fill:#ffffff" /><path
       d="M 260.01,36.33 247.17,58.77 H 172.05 V 36.33 h 87.96"
       inkscape:connector-curvature="0"
       id="path16" /><path
       d="m 163.05,56.73 -4.44,-8.16 0.96,-0.48 4.44,8.16 -0.96,0.48"
       inkscape:connector-curvature="0"
       id="path18" /><path
       d="m 164.13,42.81 1.92,4.8 -0.96,0.36 -2.28,-5.28 3.48,-5.16 0.84,0.6 -3,4.68"
       inkscape:connector-curvature="0"
       id="path20" /><path
       d="m 148.77,46.17 3.96,-8.88 0.96,0.48 -3.84,8.88 -1.08,-0.48"
       inkscape:connector-curvature="0"
       id="path22" /><path
       d="m 140.97,41.97 1.08,-0.24 2.04,12.12 -1.08,0.24 -2.04,-12.12"
       inkscape:connector-curvature="0"
       id="path24" /><path
       d="m 135.81,52.89 -0.96,-0.6 2.76,-3.6 -0.24,-7.8 1.08,-0.12 0.24,8.28 -2.88,3.84"
       inkscape:connector-curvature="0"
       id="path26" /><path
       d="m 121.65,38.97 0.6,-0.84 5.52,3.6 -0.72,0.84 -5.4,-3.6"
       inkscape:connector-curvature="0"
       id="path28" /><path
       d="m 112.89,52.17 -2.16,3.36 -0.96,-0.6 2.04,-3.12 v -5.64 l 2.04,-6.6 1.08,0.24 -2.04,6.48 v 5.88"
       inkscape:connector-curvature="0"
       id="path30" /><path
       d="m 106.29,45.45 -3.12,1.92 -0.6,-0.96 2.88,-1.68 2.28,-4.8 0.96,0.48 -2.4,5.04"
       inkscape:connector-curvature="0"
       id="path32" /><path
       d="m 98.73,49.05 -1.08,-0.12 0.48,-5.04 -0.6,-4.8 1.08,-0.12 0.72,4.92 -0.6,5.16"
       inkscape:connector-curvature="0"
       id="path34" /><path
       d="m 84.57,47.25 3.48,-6.48 0.96,0.6 -3.48,6.48 -0.96,-0.6"
       inkscape:connector-curvature="0"
       id="path36" /><path
       d="m 77.01,43.05 1.08,-0.48 3.96,7.68 -0.96,0.48 -4.08,-7.68"
       inkscape:connector-curvature="0"
       id="path38" /><path
       d="m 66.69,52.53 1.44,-10.32 1.08,0.12 -1.44,10.32 -1.08,-0.12"
       inkscape:connector-curvature="0"
       id="path40" /><path
       d="m 58.77,40.53 0.96,-0.48 4.08,7.92 -0.96,0.48 -4.08,-7.92"
       inkscape:connector-curvature="0"
       id="path42" /><path
       d="m 73.77,53.01 -2.16,-1.56 1.32,-2.16 3.24,-0.36 0.84,2.04 -3.24,2.04"
       inkscape:connector-curvature="0"
       id="path44" /><path
       d="m 73.77,42.69 -1.44,-2.76 2.28,-1.08 0.6,2.04 -1.44,1.8"
       inkscape:connector-curvature="0"
       id="path46" /><path
       d="m 84.09,40.77 -3.6,-0.96 4.92,-2.16 -1.32,3.12"
       inkscape:connector-curvature="0"
       id="path48" /><path
       d="m 93.57,48.45 v 5.04 h -3.36 l -0.84,-3.96 4.2,-1.08"
       inkscape:connector-curvature="0"
       id="path50" /><path
       d="m 107.97,54.81 h -3.36 l -2.28,-3.48 4.2,-1.68 1.44,5.16"
       inkscape:connector-curvature="0"
       id="path52" /><path
       d="m 134.37,42.57 h -3.84 l 1.32,-3.48 2.52,3.48"
       inkscape:connector-curvature="0"
       id="path54" /><path
       d="m 145.89,41.61 -2.52,-1.92 3.48,-0.96 -0.96,2.88"
       inkscape:connector-curvature="0"
       id="path56" /><path
       d="m 153.81,51.93 h -4.8 l 3.72,-3 1.08,3"
       inkscape:connector-curvature="0"
       id="path58" /><path
       d="m 159.09,41.13 v 3.6 l -2.04,1.08 -1.92,-1.68 0.96,-3.36 3,0.36"
       inkscape:connector-curvature="0"
       id="path60" /><path
       d="m 155.73,68.25 c 7.717,2.044 25.56,7.8 25.56,7.8 l 3.48,-12.84 c 0,0 2.543,-2.637 7.08,-1.44 4.498,1.225 5.76,4.8 5.76,4.8 l -3.72,14.04 c 2.858,2.92 1.68,6.24 1.68,6.24 l -4.8,18 c -1.707,6.229 -7.68,5.04 -7.68,5.04 l -8.52,19.2 c -3.591,8.064 -10.758,7.707 -13.56,6.96 l -43.8,-11.76 c -2.86,-0.746 -9.246,-4.021 -8.28,-12.84 l 2.16,-20.88 c 0,0 -5.749,-1.924 -4.08,-8.16 l 4.8,-18 c 0,0 0.65,-3.465 4.56,-4.56 l 3.72,-14.04 c 0,0 2.984,-2.449 7.56,-1.2 4.46,1.172 5.4,4.8 5.4,4.8 l -3.48,12.84 c 0,0 18.347,3.883 26.16,6"
       inkscape:connector-curvature="0"
       id="path62" /><path
       d="m 145.89,104.85 c 5.434,1.464 21.805,4.842 26.16,6 5.575,1.503 3.12,6.48 3.12,6.48 l -2.4,5.76 c -2.405,4.87 -7.166,5.958 -10.92,5.4 -0.674,-0.117 -12.972,-2.504 -14.16,-2.76 l -13.92,-3.72 c -1.081,-0.362 -12.926,-4.444 -13.56,-4.68 -3.538,-1.394 -7.116,-4.716 -6.72,-10.08 l 0.72,-6.24 c 0,0 0.4,-5.542 6,-4.08 4.33,1.198 20.196,6.458 25.68,7.92"
       inkscape:connector-curvature="0"
       id="path64"
       style="fill:#ffffff" /></g></svg>