<svg xmlns="http://www.w3.org/2000/svg" width="360.268" height="318.2" xml:space="preserve"><path style="fill:#ec1d24;fill-opacity:1;fill-rule:evenodd;stroke:none" d="M336.29 318.1c8.586 0 16.457-4.522 20.688-11.906 4.253-7.374 4.253-16.48 0-23.875L200.82 11.975A23.766 23.766 0 0 0 180.228.1h-.188a23.766 23.766 0 0 0-20.594 11.875L3.29 282.32c-4.253 7.396-4.253 16.501 0 23.875 4.231 7.384 12.102 11.906 20.688 11.906z"/><path style="fill:#fff;fill-opacity:1;fill-rule:evenodd;stroke:none" d="M37.755 286.283h284.758L180.133 39.807z"/><path style="fill:#000;fill-rule:nonzero;stroke:none" d="m276.134 225.407 29 50.876h-53.188v-7.845c-10.35-.018-10.722 7.956-24.125 7.844-13.35.112-13.69-7.945-24.156-7.844-10.15-.1-10.625 7.71-23.531 7.844-12.907-.134-13.382-7.943-23.531-7.844-10.467-.1-10.806 7.956-24.157 7.844-13.402.112-13.774-7.862-24.125-7.844v7.845H55.134l29-50.876h24.187v18.594c13.373.194 13.718 8.21 24.125 8.156 10.328.053 10.667-8.025 24.157-8.156 13.067.129 13.639 7.868 23.53 8.125 9.893-.257 10.465-7.996 23.532-8.125 13.49.131 13.828 8.21 24.156 8.156 10.407.053 10.753-7.962 24.125-8.156v-18.594zm-24.188 26.75c-10.35.097-10.722 8.062-24.125 8.125-13.35-.063-13.658-8.11-24.125-8.125-10.155.015-10.632 7.802-23.562 8.094-12.93-.292-13.407-8.08-23.563-8.094-10.466.015-10.774 8.062-24.125 8.125-13.402-.063-13.774-8.028-24.125-8.125v8.125c13.373.08 13.718 8.093 24.125 8.156 10.328-.063 10.636-8.142 24.125-8.156 13.078.014 13.649 7.77 23.563 8.125 9.914-.355 10.485-8.111 23.562-8.125 13.49.014 13.797 8.093 24.125 8.156 10.407-.063 10.753-8.077 24.125-8.156z"/><path style="fill:#000;fill-opacity:1;stroke:none" d="m108.322 225.407-14.535-14.535 101.116-101.116 14.535 14.535z"/></svg>