<?xml version="1.0" encoding="UTF-8" standalone="no"?>
<!-- Created with Inkscape (http://www.inkscape.org/) -->

<svg
   xmlns:dc="http://purl.org/dc/elements/1.1/"
   xmlns:cc="http://creativecommons.org/ns#"
   xmlns:rdf="http://www.w3.org/1999/02/22-rdf-syntax-ns#"
   xmlns:svg="http://www.w3.org/2000/svg"
   xmlns="http://www.w3.org/2000/svg"
   version="1.1"
   width="600"
   height="600"
   id="svg2"
   xml:space="preserve"><metadata
     id="metadata4"><rdf:RDF><cc:Work
         rdf:about=""><dc:format>image/svg+xml</dc:format><dc:type
           rdf:resource="http://purl.org/dc/dcmitype/StillImage" /><dc:title></dc:title></cc:Work></rdf:RDF></metadata><defs
     id="defs6"><clipPath
       id="clipPath20"><path
         d="m 0.014999,205.28 205.270001,0 0,-205.28 -205.270001,0 0,205.28 z"
         id="path9" /></clipPath></defs><g
     transform="matrix(2.9227944,0,0,-2.9227949,300.00146,1.4614125)"
     id="g13"><path
       d="m 0,0 c 56.41,0 102.14,-45.731 102.14,-102.14 0,-56.41 -45.731,-102.14 -102.14,-102.14 -56.411,0 -102.14,45.731 -102.14,102.14 C -102.14,-45.731 -56.411,0 0,0"
       id="path15"
       style="fill:#ffffff;fill-rule:nonzero" /></g><g
     transform="matrix(2.9227944,0,0,-2.9227949,6.2275e-6,600.0001)"
     id="g17"><g
       clip-path="url(#clipPath20)"
       id="g19"><g
         transform="translate(102.642,204.783)"
         id="g21"><path
           d="m 0,0 c 56.41,0 102.14,-45.731 102.14,-102.14 0,-56.41 -45.731,-102.14 -102.14,-102.14 -56.411,0 -102.14,45.731 -102.14,102.14 C -102.14,-45.731 -56.411,0 0,0 z"
           id="path23"
           style="fill:none;stroke:#1477c6;stroke-width:1;stroke-linecap:butt;stroke-linejoin:miter;stroke-miterlimit:4;stroke-dasharray:none" /></g></g></g><g
     transform="matrix(2.9227944,0,0,-2.9227949,66.090231,357.91961)"
     id="g25"><path
       d="m 0,0 15.486,1.371 c 2.055,-9.73 8.908,-16.172 19.049,-16.172 10.826,0 16.856,6.578 16.856,15.898 0,7.948 -4.797,13.567 -12.197,13.567 H 27.408 v 13.292 h 7.538 c 7.4,0 15.485,6.441 15.485,14.39 0,8.359 -4.385,13.567 -15.074,13.567 -10.141,0 -18.227,-4.934 -20.008,-17.679 L 0,40.016 c 1.919,30.149 33.438,30.149 33.438,30.149 31.519,0 33.712,-22.612 33.712,-26.723 0,0 0,-15.759 -10.963,-21.378 11.786,-4.523 11.786,-19.46 11.786,-19.46 0,-18.089 -10.69,-31.657 -32.616,-31.657 C 13.704,-29.053 2.467,-17.952 0,0"
       id="path27"
       style="fill:#231f20;fill-rule:nonzero" /></g><g
     transform="matrix(2.9227944,0,0,-2.9227949,435.99031,445.63854)"
     id="g29"><path
       d="m 0,0 c -23.435,0 -37.275,20.282 -37.275,50.157 0,29.738 13.704,50.979 37.275,50.979 22.2,0 38.781,-20.967 38.781,-50.979 C 38.781,28.775 28.777,-0.004 0,-0.004"
       id="path31"
       style="fill:#231f20;fill-rule:nonzero" /></g><g
     transform="matrix(2.9227944,0,0,-2.9227949,437.19158,402.78159)"
     id="g33"><path
       d="m 0,0 c 15.348,0 21.515,12.06 21.515,35.494 0,20.967 -7.126,36.042 -21.379,36.042 -13.155,0 -21.378,-12.333 -21.378,-36.042 C -21.242,13.43 -15.075,0 0,0"
       id="path35"
       style="fill:#ffffff;fill-rule:nonzero" /></g><g
     transform="matrix(2.9227944,0,0,-2.9227949,300.00146,1.4614125)"
     id="g37"><path
       d="m 0,0 c 56.41,0 102.14,-45.731 102.14,-102.14 0,-56.41 -45.731,-102.14 -102.14,-102.14 -56.411,0 -102.14,45.731 -102.14,102.14 C -102.14,-45.731 -56.411,0 0,0"
       id="path39"
       style="fill:#ffffff;fill-rule:nonzero" /></g><path
     d="m 300.00005,1.46255 c 164.875,0 298.5375,133.6625 298.5375,298.5375 0,164.875 -133.6625,298.5375 -298.5375,298.5375 -164.875,0 -298.5375039,-133.6625 -298.5375039,-298.5375 0,-164.875 133.6625039,-298.5375 298.5375039,-298.5375 z"
     id="path41"
     style="fill:none;stroke:#0079c1;stroke-width:2.92279458;stroke-linecap:butt;stroke-linejoin:miter;stroke-miterlimit:4;stroke-opacity:1;stroke-dasharray:none" /><path
     d="m 300.00005,13.76255 c 158.0875,0 286.2375,128.15 286.2375,286.2375 0,158.0875 -128.15,286.2375 -286.2375,286.2375 -158.0875,0 -286.237504,-128.15 -286.237504,-286.2375 0,-158.0875 128.150004,-286.2375 286.237504,-286.2375"
     id="path43"
     style="fill:#0079c1;fill-opacity:1;fill-rule:nonzero" /><g
     transform="matrix(2.9227944,0,0,-2.9227949,66.090231,357.91961)"
     id="g45"><path
       d="m 0,0 15.486,1.371 c 2.055,-9.73 8.908,-16.172 19.049,-16.172 10.826,0 16.856,6.578 16.856,15.898 0,7.948 -4.797,13.567 -12.197,13.567 H 27.408 v 13.292 h 7.538 c 7.4,0 15.485,6.441 15.485,14.39 0,8.359 -4.385,13.567 -15.074,13.567 -10.141,0 -18.227,-4.934 -20.008,-17.679 L 0,40.016 c 1.919,30.149 33.438,30.149 33.438,30.149 31.519,0 33.712,-22.612 33.712,-26.723 0,0 0,-15.759 -10.963,-21.378 11.786,-4.523 11.786,-19.46 11.786,-19.46 0,-18.089 -10.69,-31.657 -32.616,-31.657 C 13.704,-29.053 2.467,-17.952 0,0"
       id="path47"
       style="fill:#ffffff;fill-rule:nonzero" /></g><path
     d="m 436.01255,150.01255 c -68.89375,0 -108.9475,62.145 -108.9475,149.0625 0,87.31875 40.45125,146.575 108.9475,146.575 84.10875,0 113.33125,-84.095 113.33125,-146.575 0,-87.71875 -48.445,-149.0625 -113.33125,-149.0625 z m 1.6075,43.69625 c 41.65875,0 62.475,44.085 62.475,105.36625 0,68.4925 -18.05375,103.68625 -62.91375,103.68625 -44.06125,0 -62.03625,-39.1975 -62.03625,-103.68625 0,-69.29625 24.025,-105.36625 62.475,-105.36625 z"
     id="path49"
     style="fill:#ffffff;fill-rule:nonzero" /><g
     transform="matrix(2.9227944,0,0,-2.9227949,118.65084,521.83288)"
     id="g51"
     style="fill:#ec1d24;fill-opacity:1"><path
       d="m 0,0 c -5.337,4.368 -10.206,9.288 -14.517,14.673 l 137.78,137.81 c 5.394,-4.316 10.321,-9.19 14.695,-14.535 L -0.002,0.008"
       id="path53"
       style="fill:#ec1d24;fill-opacity:1;fill-rule:nonzero" /></g></svg>