<?xml version="1.0" encoding="UTF-8" standalone="no"?>
<!-- Created with Inkscape (http://www.inkscape.org/) -->

<svg
   xmlns:dc="http://purl.org/dc/elements/1.1/"
   xmlns:cc="http://creativecommons.org/ns#"
   xmlns:rdf="http://www.w3.org/1999/02/22-rdf-syntax-ns#"
   xmlns:svg="http://www.w3.org/2000/svg"
   xmlns="http://www.w3.org/2000/svg"
   xmlns:sodipodi="http://sodipodi.sourceforge.net/DTD/sodipodi-0.dtd"
   xmlns:inkscape="http://www.inkscape.org/namespaces/inkscape"
   version="1.1"
   width="240.7"
   height="212.565"
   id="svg2"
   xml:space="preserve"
   inkscape:version="0.48.2 r9819"
   sodipodi:docname="UK traffic sign 555.1.svg"><sodipodi:namedview
     pagecolor="#ffffff"
     bordercolor="#666666"
     borderopacity="1"
     objecttolerance="10"
     gridtolerance="10"
     guidetolerance="10"
     inkscape:pageopacity="0"
     inkscape:pageshadow="2"
     inkscape:window-width="640"
     inkscape:window-height="480"
     id="namedview13"
     showgrid="false"
     inkscape:zoom="1.1098049"
     inkscape:cx="120.31"
     inkscape:cy="106.25"
     inkscape:window-x="0"
     inkscape:window-y="24"
     inkscape:window-maximized="0"
     inkscape:current-layer="svg2" /><metadata
     id="metadata8"><rdf:RDF><cc:Work
         rdf:about=""><dc:format>image/svg+xml</dc:format><dc:type
           rdf:resource="http://purl.org/dc/dcmitype/StillImage" /></cc:Work></rdf:RDF></metadata><defs
     id="defs6"><clipPath
       id="clipPath16"><path
         d="M 0.059998,170.12 H 192.62 V 0.06 H 0.059998 v 170.06 z"
         inkscape:connector-curvature="0"
         id="path18" /></clipPath></defs><g
     transform="matrix(1.25,0,0,-1.25,-0.0749975,212.64)"
     id="g10"><g
       id="g12"><g
         clip-path="url(#clipPath16)"
         id="g14"><path
           d="m 179.8,0 c 7.059,0 12.82,5.762 12.82,12.82 0,2.16 -0.574,4.465 -1.726,6.336 l -83.56,144.62 c -2.305,3.887 -6.484,6.336 -11.094,6.336 -4.607,0 -8.787,-2.449 -11.091,-6.336 L 1.733,19.156 c -1.1528,-1.875 -1.729,-4.18 -1.729,-6.34 0,-7.058 5.7637,-12.82 12.82,-12.82 h 166.98"
           inkscape:connector-curvature="0"
           id="path20"
           style="fill:#ec1d24;fill-rule:evenodd" /></g></g><path
       d="M 172.45,16.996 H 20.03 l 76.211,131.95 76.211,-131.95"
       inkscape:connector-curvature="0"
       id="path22"
       style="fill:#ffffff;fill-rule:evenodd" /><path
       d="m 76.789,66.117 c -2.018,-0.719 -3.172,-3.023 -2.736,-5.039 l 3.168,-11.524 c 0.431,-1.441 1.584,-2.593 3.023,-3.031 l 2.453,-9.07 c 0.864,-0.719 2.016,-1.008 3.168,-1.008 2.16,0 4.031,1.297 5.039,3.168 l -2.304,8.5 c 0.289,0 16.714,3.742 16.855,3.742 -0.289,-0.144 15.852,4.899 16.137,5.043 l 2.16,-8.496 c 1.008,-0.578 2.016,-0.867 3.172,-0.867 2.16,0 4.176,1.152 5.039,3.027 l -2.445,9.219 c 1.152,1.008 1.582,2.59 1.152,4.031 l -3.168,11.524 c -0.434,2.16 -2.598,3.601 -4.758,3.168 l -5.765,12.82 c -1.438,3.024 -5.04,4.754 -8.352,3.887 L 80.53,87.726 c -3.168,-0.867 -5.328,-3.601 -5.328,-6.773 v -0.719 l 1.584,-14.117 z m 2.016,6.484 c 0.144,-1.3 1.295,-2.453 2.736,-2.453 0.432,0 0.719,0 1.008,0.145 l 16.422,4.898 16.711,4.035 c 1.297,0.141 2.312,1.293 2.312,2.735 0,0.289 -0.148,0.719 -0.289,1.152 l -1.586,3.606 c -1.008,2.445 -3.312,3.886 -5.906,3.886 l -0.867,-0.144 -8.641,-1.727 -9.945,-2.738 -8.5,-2.738 c -2.303,-1.008 -3.887,-3.891 -3.887,-6.481 0.143,-1.441 0.287,-2.738 0.432,-4.176 M 50.281,30.679 v 3.895 -0.004 c 1.871,0 3.311,-0.433 4.752,-1.586 2.02,-1.582 4.611,-2.305 7.203,-2.305 2.592,0 5.045,0.723 7.203,2.305 1.442,1.153 2.881,1.586 4.758,1.586 1.584,0 3.311,-0.578 4.608,-1.586 2.16,-1.582 4.611,-2.305 7.203,-2.305 2.592,0 5.185,0.723 7.205,2.305 1.439,1.153 2.879,1.586 4.75,1.586 v -3.891 c -2.59,0 -5.039,-0.863 -7.203,-2.445 -1.295,-1.008 -3.024,-1.586 -4.752,-1.586 -1.727,0 -3.311,0.578 -4.756,1.586 -2.016,1.582 -4.463,2.445 -7.055,2.445 -2.74,0 -5.045,-0.863 -7.205,-2.445 -1.439,-1.008 -3.027,-1.586 -4.756,-1.586 -1.728,0 -3.455,0.578 -4.752,1.586 -2.164,1.582 -4.611,2.445 -7.203,2.445 m 0,10.086 v -2.16 c 2.592,0 5.039,-0.863 7.203,-2.449 1.297,-1.008 3.024,-1.586 4.752,-1.586 1.729,0 3.317,0.578 4.756,1.586 2.16,1.586 4.465,2.449 7.205,2.449 2.592,0 5.039,-0.863 7.055,-2.449 1.445,-1.008 3.029,-1.586 4.756,-1.586 1.728,0 3.457,0.578 4.752,1.586 2.164,1.586 4.613,2.449 7.203,2.449 v 2.16 c 0,2.879 2.308,5.184 5.187,5.184 h 45.957 L 162.654,22.617 H 97.963 v 4.031 c -1.871,0 -3.311,-0.574 -4.75,-1.582 -2.02,-1.586 -4.613,-2.449 -7.205,-2.449 -2.592,0 -5.043,0.863 -7.203,2.449 -1.44,1.008 -2.881,1.582 -4.608,1.582 -1.877,0 -3.316,-0.574 -4.758,-1.582 -2.158,-1.586 -4.611,-2.449 -7.203,-2.449 -2.592,0 -5.183,0.863 -7.203,2.449 -1.441,1.008 -2.881,1.582 -4.752,1.582 V 22.617 H 29.82 l 13.545,23.332 h 1.871 c 2.741,0 5.045,-2.305 5.045,-5.184"
       inkscape:connector-curvature="0"
       id="path24"
       style="fill:#000000;fill-rule:evenodd" /></g></svg>