<svg xmlns="http://www.w3.org/2000/svg" width="900.4" height="900.4" viewBox="-50 -30 90.04 90.04"><path d="M-4.98 60.02c-24.853 0-45-20.147-45-45s20.147-45 45-45 45 20.147 45 45-20.147 45-45 45z" style="fill:#ec1d24;fill-opacity:1;stroke:none"/><path d="M-4.98-20.98c-19.882 0-36 16.118-36 36s16.118 36 36 36 36-16.118 36-36-16.118-36-36-36z" style="fill:#fff;fill-opacity:1;stroke:none"/><path d="M23.359 24.879V1.532S23.386.176 22.12.212h-38.855c-1.254-.036-1.238 1.32-1.238 1.32v10.972h-2.557V5.74s.018-1.408-1.156-1.403h-8.497s-2.678-.135-3.217 2.888l-1.32 7.26s-1.337.323-1.32 1.814c-.018.315.081.66.081.66l1.65 7.92z" style="fill:#000;fill-rule:nonzero;stroke:none"/><path d="M12.14 22.404c1.388.035 2.492 1.14 2.474 2.475a2.427 2.427 0 0 1-2.475 2.475c-1.334.016-2.438-1.087-2.475-2.475a2.567 2.567 0 0 1 2.475-2.475z" style="fill:#000;fill-rule:nonzero;stroke:none"/><path d="M-32.326 12.505h7.424V6.317h-4.95s-1.425-.019-1.567.908z" style="fill:#fff;fill-rule:nonzero;stroke:none"/><path d="M12.145 29.829a4.95 4.95 0 1 0 0-9.9 4.95 4.95 0 0 0 0 9.9z" style="fill:#000;fill-opacity:1;stroke:none"/><path d="M12.145 27.309a2.43 2.43 0 1 0 0-4.86 2.43 2.43 0 0 0 0 4.86zM-26.848 19.353a5.526 5.526 0 1 1 0 11.052 5.526 5.526 0 0 1 0-11.052z" style="fill:#fff;fill-opacity:1;stroke:none"/><path d="M-26.848 19.929a4.95 4.95 0 1 1 0 9.9 4.95 4.95 0 0 1 0-9.9z" style="fill:#000;fill-opacity:1;stroke:none"/><path d="M-26.848 22.449a2.43 2.43 0 1 1 0 4.86 2.43 2.43 0 0 1 0-4.86z" style="fill:#fff;fill-opacity:1;stroke:none"/><path d="m-13.518 18.188 5.94-12.54h-7.837V3.422H-5.02v2.31l-5.61 12.457h-2.888zM8.096 8.781H3.064l-.412 2.31c.847-.468 1.237-.598 2.062-.577 2.56-.021 4.042 1.639 4.043 3.877-.001 2.465-1.661 4.027-4.208 4.042-2.14-.014-3.687-1.105-4.207-2.97l1.897-.577c.3 1.173 1.113 1.824 2.31 1.815 1.26.009 2.221-.984 2.228-2.31-.006-1.392-.967-2.303-2.31-2.31-.87.006-1.522.365-1.98 1.072l-1.98-.33.825-5.774h6.765V8.78z" style="fill:#fff;fill-rule:nonzero;stroke:none"/><path d="M-2.587 18.598a1.031 1.031 0 1 0 0-2.063 1.031 1.031 0 0 0 0 2.063z" style="fill:#fff;fill-opacity:1;stroke:none"/><path d="m17.521 4.211-2.03.572v2.51h-1.254v1.7h1.253v4.533c0 1.267.642 1.676 1.657 1.795 1.235.144 2.618-.332 2.618-.332l-.39-1.658s-.695.178-1.1.126c-.447-.057-.754-.359-.754-1.076V8.992h1.966v-1.7h-1.966v-3.08z" style="fill:#fff;fill-opacity:1;fill-rule:nonzero;stroke:none"/></svg>