<svg xmlns="http://www.w3.org/2000/svg" width="212.42" height="212.39" xml:space="preserve"><defs><clipPath id="a"><path d="M.06 169.98H170V.06H.06v169.92z"/></clipPath></defs><g clip-path="url(#a)" transform="matrix(1.25 0 0 -1.25 -.075 212.47)"><path d="M85 169.98c46.918 0 85-38.076 85-84.986C170 38.079 131.92 0 85 0 38.078 0 0 38.079 0 84.989c0 46.91 38.078 84.986 85 84.986" style="fill:#ec1d24;fill-rule:evenodd"/></g><path d="M85 152.98c37.535 0 68-30.459 68-67.99C153 47.454 122.54 17 85 17c-37.535 0-68 30.454-68 67.989 0 37.531 30.465 67.99 68 67.99" style="fill:#fff;fill-rule:evenodd" transform="matrix(1.25 0 0 -1.25 -.075 212.47)"/><path d="M109.94 88.299h25.067l-.004.008c.496.084.867.568.867 1.145h.145v7.92h-.145c0 .576-.371 1.06-.867 1.144l.004.008H109.94c-.562 0-1.007-.516-1.007-1.152v-7.92c0-.635.445-1.153 1.007-1.153m-28.242 9.073v-7.92c0-.635.52-1.153 1.156-1.153h11.235c.636 0 1.152.518 1.152 1.153v7.92c0 .636-.516 1.152-1.152 1.152H82.854a1.156 1.156 0 0 1-1.156-1.152m27.09-24.489a4.033 4.033 0 0 0 4.031-4.031 4.035 4.035 0 0 0-8.07 0 4.035 4.035 0 0 0 4.039 4.031m0 3.75c4.211 0 7.629-3.422 7.629-7.637 0-4.214-3.418-7.636-7.629-7.636a7.638 7.638 0 0 0-7.637 7.636 7.638 7.638 0 0 0 7.637 7.637m-65.84-3.75a4.03 4.03 0 0 0 4.031-4.031 4.03 4.03 0 0 0-4.031-4.031 4.032 4.032 0 1 0 0 8.062m0 3.75a7.637 7.637 0 0 0 0-15.273 7.638 7.638 0 0 0-7.637 7.636 7.638 7.638 0 0 0 7.637 7.637m-14.84 20.883h8.93l10.23-10.66h-19.16v10.66zm34.857-16.133c0 1.008-.864 2.016-1.872 2.16a9.983 9.983 0 0 0-6.199 3.168l-9.652 9.942c-3.309 3.459-7.488 5.332-12.242 5.332h-5.621l-.864-.721-.429-.865v-.867l.429-1.297-.144-1.871-.285-2.016.14-1.728.289-1.729-.289-1.871.578-2.596-.433-1.297.144-1.439v-1.152l.289-1.153-.433-1.152.433-1.727-.433-2.304-.145-.723.145-1.297.578-1.297-.145-1.008-.433-1.296v-.864l.289-.574-.289-1.152h7.926v.863c0 4.898 3.886 8.789 8.785 8.789 4.758 0 8.644-3.891 8.644-8.789v-.863l11.239.863h37.316c0 4.75 3.887 8.645 8.645 8.645 4.75 0 8.5-3.895 8.5-8.645h20.742c3.601 0 6.34 2.879 6.34 6.34v21.316c0 5.043-3.606 9.364-8.645 10.084.145 0-6.051 1.008-12.68 1.584-7.347.576-15.129.576-15.129.576s-7.199-.144-14.257-.72c-6.918-.432-13.832-1.44-13.832-1.44-4.754-.72-8.5-5.041-8.5-10.084V75.192c0-1.442.429-2.598 1.296-3.895h-9.796v10.086" style="fill:#231f20;fill-rule:evenodd" transform="matrix(1.25 0 0 -1.25 -.075 212.47)"/></svg>