<svg xmlns="http://www.w3.org/2000/svg" width="385.509" height="340.8" xml:space="preserve"><path d="M290.43.21c6.915.159 13.573 3.813 17.28 10.2 3.707 6.454 3.542 14.047.24 20.16L173.79 263.01c-3.634 5.847-10.127 9.786-17.52 9.84a20.706 20.706 0 0 1-17.52-9.84L4.59 30.57c-3.342-6.113-3.507-13.706.24-20.16C8.497 4.023 15.155.369 22.11.21h268.32" style="fill:#ec1d24" transform="matrix(1.25 0 0 -1.25 -2.564 341.063)"/><path d="M156.27 238.41 34.23 27.09h243.96L156.27 238.41" style="fill:#fff" transform="matrix(1.25 0 0 -1.25 -2.564 341.063)"/><path d="m222.323 147.15-37.65 14.1a76.119 76.119 0 0 0-27.6 22.5l-24.45-13.95-10.05 16.65 24.6 14.1a78.27 78.27 0 0 0-6 29.7v65.25h37.05v-65.25c.071-15.825 9.38-29.497 22.8-35.85l33.9-12.3 11.1-23.7-23.7-11.25"/></svg>