<?xml version="1.0" encoding="UTF-8" standalone="no"?>
<!-- Created with Inkscape (http://www.inkscape.org/) -->

<svg
   xmlns:dc="http://purl.org/dc/elements/1.1/"
   xmlns:cc="http://creativecommons.org/ns#"
   xmlns:rdf="http://www.w3.org/1999/02/22-rdf-syntax-ns#"
   xmlns:svg="http://www.w3.org/2000/svg"
   xmlns="http://www.w3.org/2000/svg"
   version="1.1"
   width="900.39996"
   height="900.40009"
   viewBox="-50 -30 90.039905 90.040012"
   id="svg2">
  <metadata
     id="metadata14">
    <rdf:RDF>
      <cc:Work
         rdf:about="">
        <dc:format>image/svg+xml</dc:format>
        <dc:type
           rdf:resource="http://purl.org/dc/dcmitype/StillImage" />
        <dc:title></dc:title>
      </cc:Work>
    </rdf:RDF>
  </metadata>
  <defs
     id="defs12" />
  <g
     id="g3021">
    <path
       d="m -4.9800366,60.020011 c -24.8528314,0 -45.0000104,-20.147188 -45.0000104,-45.000017 0,-24.852798 20.147179,-44.999994 45.0000104,-44.999994 24.8527996,0 44.9999896,20.147196 44.9999896,44.999994 0,24.852829 -20.147191,45.000017 -44.9999896,45.000017 z"
       id="path4310"
       style="fill:#ec1d24;fill-opacity:1;stroke:none" />
    <path
       d="m -4.9800396,-20.98 c -19.8822624,0 -36.0000064,16.117747 -36.0000064,36.000013 0,19.88224 16.117744,35.99999 36.0000064,35.99999 19.8822396,0 35.9999936,-16.11775 35.9999936,-35.99999 C 31.019954,-4.862253 14.902199,-20.98 -4.9800396,-20.98 z"
       id="path4312"
       style="fill:#ffffff;fill-opacity:1;stroke:none" />
    <path
       d="m 23.358883,24.878607 0,-23.3465422 c 0,0 0.027,-1.35604798 -1.23747,-1.31994898 l -38.855881,0 c -1.253753,-0.036 -1.237644,1.31994898 -1.237644,1.31994898 l 0,10.9722412 -2.557376,0 0,-6.7647412 c 0,0 0.018,-1.407393 -1.155024,-1.402443 l -8.497088,0 c 0,0 -2.677976,-0.134649 -3.217373,2.887388 l -1.320003,7.2597052 c 0,0 -1.336644,0.323388 -1.319904,1.814931 -0.018,0.314478 0.081,0.660006 0.081,0.660006 l 1.649952,7.91941 z"
       id="path2995"
       style="fill:#000000;fill-rule:nonzero;stroke:none" />
    <path
       d="m 12.139333,22.404125 c 1.388583,0.0351 2.492388,1.139126 2.474928,2.474915 0.018,1.387593 -1.086345,2.491073 -2.474928,2.474909 -1.334394,0.0162 -2.4382127,-1.087316 -2.4748427,-2.474909 0.036,-1.335789 1.1404487,-2.439599 2.4748427,-2.474915 z"
       id="path2997"
       style="fill:#000000;fill-rule:nonzero;stroke:none" />
    <path
       d="m -32.326268,12.504607 7.424702,0 0,-6.1872562 -4.949774,0 c 0,0 -1.425663,-0.0189 -1.567413,0.907469 z"
       id="path2999"
       style="fill:#ffffff;fill-rule:nonzero;stroke:none" />
    <path
       d="m 12.144958,29.828607 c 2.733813,0 4.95,-2.21619 4.95,-4.95 0,-2.733807 -2.216187,-4.950003 -4.95,-4.950003 -2.7338177,0 -4.9500037,2.216196 -4.9500037,4.950003 0,2.73381 2.216195,4.95 4.9500037,4.95 z"
       id="path3007"
       style="fill:#000000;fill-opacity:1;stroke:none" />
    <path
       d="m 12.144958,27.308608 c 1.342053,0 2.43,-1.087947 2.43,-2.43 0,-1.342051 -1.087947,-2.430004 -2.43,-2.430004 -1.342044,0 -2.4300047,1.087953 -2.4300047,2.430004 0,1.342053 1.0879607,2.43 2.4300047,2.43 z"
       id="path3009"
       style="fill:#ffffff;fill-opacity:1;stroke:none" />
    <path
       d="m -26.848269,19.352604 c 3.051936,0 5.526,2.474075 5.526,5.526001 0,3.051922 -2.474064,5.526004 -5.526,5.526004 -3.051926,0 -5.525999,-2.474082 -5.525999,-5.526004 0,-3.051926 2.474073,-5.526001 5.525999,-5.526001 z"
       id="path3011"
       style="fill:#ffffff;fill-opacity:1;stroke:none" />
    <path
       d="m -26.848269,19.928604 c 2.733813,0 4.95,2.216191 4.95,4.950001 0,2.733808 -2.216187,4.950004 -4.95,4.950004 -2.733812,0 -4.949999,-2.216196 -4.949999,-4.950004 0,-2.73381 2.216187,-4.950001 4.949999,-4.950001 z"
       id="path3013"
       style="fill:#000000;fill-opacity:1;stroke:none" />
    <path
       d="m -26.848269,22.448604 c 1.342053,0 2.43,1.087947 2.43,2.43 0,1.342052 -1.087947,2.430005 -2.43,2.430005 -1.342053,0 -2.429999,-1.087953 -2.429999,-2.430005 0,-1.342053 1.087946,-2.43 2.429999,-2.43 z"
       id="path3015"
       style="fill:#ffffff;fill-opacity:1;stroke:none" />
    <path
       d="m -13.517621,18.188258 5.9396883,-12.5394522 -7.8371403,0 0,-2.227399 10.3945943,0 0,2.309902 -5.6097393,12.4569492 -2.887403,0 z"
       id="path3056"
       style="fill:#ffffff;fill-rule:nonzero;stroke:none" />
    <path
       d="m 8.0964523,8.7811718 -5.032275,0 -0.412224,2.3098932 c 0.84694,-0.467926 1.237376,-0.598254 2.062348,-0.577464 2.560059,-0.0207 4.041335,1.639036 4.042325,3.877325 -9e-4,2.465008 -1.661104,4.027482 -4.207304,4.042332 -2.140917,-0.0144 -3.68689399,-1.105124 -4.20729899,-2.96987 L 2.2394673,14.885924 c 0.299716,1.172767 1.112988,1.823824 2.309855,1.814923 1.260592,0.009 2.220842,-0.98402 2.227412,-2.309912 -0.0054,-1.39187 -0.96682,-2.303296 -2.30986,-2.309893 -0.870331,0.0063 -1.521595,0.364606 -1.979981,1.072453 L 0.50700131,12.823547 1.3323333,7.0487958 l 6.764749,0 0,1.73243 z"
       id="path3058"
       style="fill:#ffffff;fill-rule:nonzero;stroke:none" />
    <path
       d="m -2.5870137,18.598257 c 0.569627,0 1.0314,-0.461773 1.0314,-1.0314 0,-0.569626 -0.461773,-1.031402 -1.0314,-1.031402 -0.569623,0 -1.0314,0.461776 -1.0314,1.031402 0,0.569627 0.461777,1.0314 1.0314,1.0314 z"
       id="path3073"
       style="fill:#ffffff;fill-opacity:1;stroke:none" />
    <path
       d="m 17.521149,4.2112745 -2.030834,0.571592 0,2.509628 -1.253469,0 0,1.699983 1.253469,0 0,4.5330855 c 0,1.267061 0.642142,1.676223 1.656395,1.795417 1.235337,0.144497 2.618771,-0.331791 2.618771,-0.331791 l -0.391203,-1.657742 c 0,0 -0.694428,0.177204 -1.09998,0.125391 -0.44599,-0.05698 -0.753149,-0.358608 -0.753149,-1.075384 l 0,-3.3889765 1.966279,0 0,-1.699983 -1.966279,0 0,-3.08122 z"
       id="path20629"
       style="fill:#ffffff;fill-opacity:1;fill-rule:nonzero;stroke:none" />
  </g>
</svg>
