<svg xmlns="http://www.w3.org/2000/svg" width="360.268" height="318.2" xml:space="preserve"><path style="fill:#ec1d24;fill-opacity:1;fill-rule:evenodd;stroke:none" d="M336.29 318.1c8.586 0 16.457-4.522 20.688-11.906 4.253-7.374 4.253-16.48 0-23.875L200.82 11.975A23.766 23.766 0 0 0 180.228.1h-.188a23.766 23.766 0 0 0-20.594 11.875L3.29 282.32c-4.253 7.396-4.253 16.501 0 23.875 4.231 7.384 12.102 11.906 20.688 11.906z"/><path style="fill:#fff;fill-opacity:1;fill-rule:evenodd;stroke:none" d="M37.755 286.283h284.758L180.133 39.807z"/><path style="fill:#000;fill-rule:nonzero;stroke:none" d="M154.312 202.544c-2.076 3.378-3.265 7.11-3.209 11.379v61.56h-23.924v-61.56c.1-8.669 2.574-16.815 7.002-23.633l11.087-14.88a21.349 21.349 0 0 0 3.21-11.086v-53.1h23.632v52.808c.087 8.855-2.386 17.001-6.71 23.924l-11.088 14.588zM205.955 202.544c2.076 3.378 3.266 7.11 3.21 11.379v61.56h23.924v-61.56c-.1-8.669-2.575-16.815-7.002-23.633L215 175.41a21.349 21.349 0 0 1-3.21-11.086v-53.1h-23.632v52.808c-.087 8.855 2.386 17.001 6.71 23.924l11.087 14.588z"/></svg>