<svg xmlns="http://www.w3.org/2000/svg" width="455mm" height="455mm" viewBox="0 0 455 455"><g transform="translate(0 158)"><circle style="fill:#000;fill-opacity:1;stroke:none;stroke-width:0;stroke-miterlimit:10" cx="227.5" cy="69.5" r="226.5"/><circle style="fill:#fff;fill-opacity:1;stroke:none;stroke-width:0;stroke-miterlimit:10" cx="227.5" cy="69.5" r="225"/><circle style="fill:#01619e;fill-opacity:1;stroke:none;stroke-width:0;stroke-miterlimit:10" cx="227.5" cy="69.5" r="216"/><path style="fill:#fff;fill-opacity:1;fill-rule:nonzero;stroke:none;stroke-width:.163757" d="M343.113 48.857c-8.62 0-16.84 1.71-24.319 4.848l-25.017-43.55 4.75-13.057c12.48-1.213 16.98-12.67 16.98-14.613 0-1.945-2.314-1.945-2.314-1.945h-54.104c-1.204 0-5.187 1.018-5.187 5.277 0 4.257 4.54 4.997 4.54 4.997l23.717 5.216-5.745 15.792h-114.95l2.3-8.577s.988-3.208.988-4.565c0-6.432-4.778-11.24-6.793-12.323-.402-.217-1.745-.818-1.745-2.622 0-1.805 1.05-3.318 3.35-3.318h23.964V-35.5h-30.14s-15.81 1.481-15.81 17.646c0 9.449 4.693 11.598 8.399 13.819 1.235.741 2.346 3.825 1.853 5.552-.289 1.01-7.648 28.59-13.725 51.38a62.794 62.794 0 0 0-22.219-4.04C77.155 48.857 49 76.984 49 111.678c0 34.696 28.155 62.822 62.886 62.822 34.73 0 62.886-28.126 62.886-62.822 0-21.09-10.408-39.755-26.37-51.15l2.084-7.77 73.028 50.974a26.263 26.263 0 0 0-1.227 7.946c0 14.528 11.792 26.308 26.334 26.308 2.602 0 5.114-.378 7.486-1.08l3.905 8.49H253.3v8.514h7.518a6.665 6.665 0 0 0 5.636 3.102 6.662 6.662 0 0 0 5.635-3.102h7.335v-8.515h-10.986l-5.483-11.645c5.657-3.675 9.814-9.46 11.349-16.24l6.011.092c3.03 31.872 30.098 56.898 62.797 56.898 34.731 0 62.887-28.126 62.887-62.821 0-34.695-28.156-62.822-62.887-62.822"/><path style="fill:#01619e;fill-opacity:1;fill-rule:nonzero;stroke:none;stroke-width:.163757" d="M249.652 85.394a26.308 26.308 0 0 0-8.915 1.177l-3.909-8.304h7.162v-8.513h-7.336a6.66 6.66 0 0 0-5.634-3.101 6.666 6.666 0 0 0-5.636 3.101h-7.519v8.513h11.287l5.196 11.302c-.62.4-1.218.825-1.8 1.273L154.822 36.59l2.424-9.038H270.69l-21.04 57.84M305.099 61.635l-18.373-32.099-22.242 61.144c4.922 3.718 8.497 9.124 9.86 15.353h6.14c1.613-18.1 10.911-33.993 24.615-44.398M314.333 78.025c-8.176 7.02-13.927 16.814-15.308 28.056h31.489l-16.181-28.056"/><path style="fill:#01619e;fill-opacity:1;fill-rule:nonzero;stroke:none;stroke-width:.163757" d="m328.156 70.12 21.999 38.136s1.065 1.758 1.065 3.655c0 5.6-5.743 5.6-8.476 5.6l-43.591.084c2.933 21.664 21.471 38.452 43.96 38.452 24.529 0 44.414-19.865 44.414-44.369 0-24.502-19.885-44.367-44.414-44.367-5.315 0-10.235 1.098-14.957 2.808M143.138 80.158c-2.143 7.987-3.626 13.516-3.831 14.276-4.856 18.015-23.389 23.57-27.174 23.57-4.077 0-6.547-2.715-6.547-6.54 0-3.827 3.088-4.936 4.2-5.8 14.08-10.982 16.305-22.704 16.305-22.704l3.224-12.1a44.305 44.305 0 0 0-17.429-3.55c-24.529 0-44.413 19.866-44.413 44.368 0 24.504 19.884 44.37 44.413 44.37 24.528 0 44.413-19.866 44.413-44.37 0-12.328-5.036-23.479-13.161-31.52"/><circle style="fill:#01619e;fill-opacity:1;stroke:none;stroke-width:0;stroke-miterlimit:10" cx="248.6" cy="111.65" r="16.5"/></g></svg>