<svg width="683" height="604" xmlns="http://www.w3.org/2000/svg"><path style="fill:#e31837;fill-opacity:1;stroke:none;stroke-width:1px;stroke-linecap:butt;stroke-linejoin:miter;stroke-opacity:1" d="m-849.211 874.813 294.448-510h77.943l294.448 510-38.97 67.5H-810.24z" transform="translate(857.291 -340.313)"/><path style="fill:#fff;stroke:none;stroke-width:50;stroke-linecap:square;stop-color:#000" transform="matrix(1.02277 0 0 1.02277 915.892 306.822)" d="M-299.114 229.943H-824.1l262.493-454.65z"/><path style="fill:#e31837;fill-opacity:1;stroke:none;stroke-width:50;stroke-linecap:square;stop-color:#000" transform="rotate(-150 383.052 -285.012)" d="M298.032-593.318a45 45 0 0 1-22.5 38.97 45 45 0 0 1-45 0l22.5-38.97z"/><path style="fill:#e31837;fill-opacity:1;stroke:none;stroke-width:50;stroke-linecap:square;stop-color:#000" transform="rotate(-30 -206.386 -1769.884)" d="M-595.345 666.424a45 45 0 0 1-22.5 38.971 45 45 0 0 1-45 0l22.5-38.97z"/><path style="fill:#e31837;fill-opacity:1;stroke:none;stroke-width:50;stroke-linecap:square;stop-color:#000" transform="scale(-1 1) rotate(-30 -1063.678 1429.571)" d="M298.032 1182.216a45 45 0 0 1-22.5 38.97 45 45 0 0 1-45 0l22.5-38.97z"/><path style="fill:#000;stroke:none;stroke-width:.580607;stroke-linecap:round;stroke-linejoin:round;stroke-miterlimit:10;stroke-dasharray:none;stroke-opacity:1" d="m-2604.61 2546.053-1.065.099-1.016.242-.967.436-.87.531-.776.726-.676.823-.533.92-.386.966-.242 1.017-7.936 56.564-10.062-24.387-60.428-8.225-3.049 22.16-14.175 8.225-24.626-42.676-.726-1.064-.871-.92-.968-.823-1.112-.676-1.162-.485-1.257-.339-1.259-.145h-1.257l-1.258.242-1.258.387-1.113.532-25.786 14.903-1.452.92-1.306 1.065-1.161 1.21-1.065 1.354-.92 1.403-.725 1.549-.58 1.597-.387 1.644-.194 1.694-4.113 55.79-.048 1.355.146 1.307.29 1.305.484 1.258.58 1.21 17.321 29.952 6.967-4.017-.822-2.177-.63-2.225-.483-2.274-.242-2.276-.098-2.322.145-2.322.291-2.323.532-2.226.678-2.225.87-2.177 1.016-2.033 1.258-1.984 1.355-1.886 1.5-1.743 1.692-1.645 1.791-1.45 1.886-1.308 2.033-1.16 2.08-1.018 2.177-.822 2.226-.629 2.273-.435 2.322-.243 2.324-.048 2.274.098 2.322.34 2.274.531 2.177.678 2.176.87 2.033 1.065 1.983 1.21 1.887 1.403 1.742 1.5 1.597 1.693 1.45 1.791 8.13-4.693-.824-2.177-.628-2.227-.436-2.274-.29-2.274-.049-2.323.096-2.322.34-2.322.484-2.226.677-2.226.87-2.178 1.065-2.032 1.21-1.983 1.354-1.888 1.548-1.741 1.645-1.646 1.79-1.452 1.887-1.306 2.032-1.162 2.08-1.015 2.178-.823 2.226-.63 2.273-.434 2.323-.242 2.322-.048 2.322.098 2.274.339 2.273.532 2.227.678 2.129.87 2.08 1.064 1.983 1.21 1.839 1.404 1.74 1.5 1.598 1.693 1.5 1.79 5.805-3.386-7.788-7.597 7.546 1.016 18.918 41.37 35.733 5.027h.07l.41.06 76.95 10.826.243-2.274.434-2.275.581-2.177.726-2.177.92-2.08 1.113-1.985 1.209-1.935 1.402-1.838 1.5-1.694 1.645-1.549 1.79-1.452 1.887-1.306 1.984-1.161 2.031-.968 2.13-.822 2.177-.678 2.225-.484 2.274-.29 2.274-.146 2.322.048 2.226.243 2.274.387 2.226.58 2.128.775 2.08.919 2.033 1.064 1.935 1.21 1.79 1.403 1.693 1.5 1.597 1.694 1.452 1.742 1.306 1.887 1.161 1.983.968 2.033.822 2.129.678 2.177.483 2.226.339 2.275.098 2.274-.048 2.274-.194 2.274-.436 2.274 13.353 1.838.436-2.757.242-2.807.098-2.807-.098-2.805-.29-2.807-.485-2.759-.676-2.708-.823-2.71-1.015-2.613-1.21-2.565-1.355-2.42-1.5-2.37-1.645-2.274-1.838-2.177-1.936-2.034-2.08-1.886-2.177-1.742-2.322-1.596-2.42-1.452-2.467-1.258-2.614-1.161-2.611-.92-2.71-.774-2.757-.58-2.807-.388-2.806-.242-2.805-.048-2.806.194-2.759.29-2.756.533-2.758.725-2.663.871-2.611 1.065-2.516 1.21-2.42 1.402-2.37 1.55-2.225 1.692-2.129 1.84-1.984 1.983-7.789-1.113 9.628-68.757.098-1.016-.098-1.065-.29-1.016-.388-.968-.58-.871-.725-.822-.775-.678-.919-.532-.967-.387-1.065-.194-84.232-11.854zm14.054 105.884-.48-.067-3.511-.285-3.58-.145-3.58.098-3.58.242-3.532.434-3.532.679-3.483.822-3.436 1.016-3.387 1.16-3.338 1.404-3.241 1.549-3.145 1.694-53.074 30.87-3.532 1.935-3.58 1.743-3.726 1.597-3.725 1.402-3.822 1.258-3.918 1.017-3.92.87-3.967.678-3.968.484-4.015.29-4.015.099h-90.376v35.273h384v-35.273h-37.253l-4.113-.098-4.112-.34-4.113-.484-4.064-.725-4.015-.87-3.967-1.113-3.92-1.307-3.87-1.5-3.773-1.646-3.677-1.886-3.58-2.032-49.542-29.759-3.146-1.741-3.193-1.597-3.29-1.404-3.386-1.258-3.387-1.064-3.483-.87-3.532-.679zm-149.956-72.883 15.627 27.144-42.043 24.338 2.756-37.837zm66.861 29.66-2.031.098-2.032.29-2.033.436-1.935.629-1.886.775-1.839.919-1.741 1.113-1.597 1.258-1.548 1.403-1.355 1.5-1.258 1.596-1.113 1.743-.919 1.838-.822 1.888-.581 1.935-.435 2.031-.29 2.033-.098 2.032.098 2.032.29 2.082.435 1.983.581 1.935.822 1.888.92 1.838 1.112 1.742 1.258 1.596 1.355 1.55 1.548 1.354 1.597 1.258 1.741 1.113 1.84.967 1.885.775 1.935.58 2.033.485 2.032.242 2.031.096 2.033-.096 2.032-.242 2.031-.485 1.936-.58 1.887-.775 1.839-.967 1.74-1.113 1.598-1.258 1.548-1.355 1.355-1.549 1.257-1.596 1.114-1.742.967-1.838.774-1.888.581-1.935.483-1.983.242-2.082.096-2.032-.096-2.032-.242-2.033-.483-2.031-.581-1.935-.774-1.888-.967-1.838-1.114-1.743-1.257-1.597-1.355-1.499-1.548-1.403-1.597-1.258-1.741-1.113-1.84-.92-1.886-.774-1.935-.629-2.032-.436-2.032-.29zm0 15.677 1.21.098 1.21.29 1.16.485 1.017.628.968.823.774.92.63 1.064.482 1.113.29 1.21.099 1.21-.098 1.209-.29 1.21-.484 1.16-.63 1.017-.773.967-.968.775-1.017.629-1.16.484-1.21.29-1.21.097-1.21-.096-1.209-.291-1.112-.484-1.065-.629-.919-.775-.822-.967-.63-1.016-.482-1.161-.29-1.21-.099-1.21.098-1.21.29-1.209.484-1.113.63-1.064.821-.92.92-.823 1.064-.628 1.112-.484 1.21-.29zm189.122 16.694-2.08.049-2.032.29-1.984.435-1.935.628-1.935.775-1.79.968-1.742 1.064-1.645 1.258-1.5 1.404-1.403 1.5-1.21 1.645-1.112 1.693-.967 1.838-.775 1.888-.629 1.984-.435 1.984-.242 2.032-.098 2.032.098 2.08.242 2.033.435 1.984.629 1.984.775 1.887.967 1.79 1.113 1.742 1.21 1.645 1.403 1.5 1.499 1.403 1.645 1.21 1.742 1.113 1.79.968 1.935.774 1.935.628 1.984.436 2.032.243 2.08.098 2.032-.098 2.033-.243 2.031-.436 1.935-.628 1.888-.774 1.838-.968 1.693-1.113 1.645-1.21 1.5-1.403 1.402-1.5 1.26-1.645 1.112-1.742.919-1.79.774-1.887.629-1.984.436-1.984.29-2.033.096-2.08-.096-2.032-.29-2.032-.436-1.984-.629-1.984-.774-1.888-.92-1.838-1.112-1.693-1.26-1.645-1.401-1.5-1.5-1.404-1.644-1.258-1.694-1.064-1.838-.968-1.888-.775-1.935-.628-2.031-.436-2.033-.29zm-245.34.099-2.08.095-2.033.291-1.983.436-1.935.629-1.936.774-1.79.92-1.741 1.112-1.646 1.258-1.499 1.404-1.354 1.5-1.258 1.596-1.113 1.742-.967 1.838-.775 1.888-.629 1.935-.436 2.032-.242 2.033-.098 2.032.098 2.032.242 2.033.436 2.032.629 1.935.775 1.888.967 1.838 1.113 1.742 1.258 1.597 1.354 1.548 1.5 1.355 1.645 1.258 1.742 1.113 1.79.919 1.935.823 1.935.58 1.983.484 2.033.243 2.08.098 2.032-.098 2.033-.243 2.031-.484 1.935-.58 1.887-.823 1.838-.92 1.743-1.112 1.595-1.258 1.5-1.355 1.404-1.548 1.258-1.597 1.112-1.742.92-1.838.774-1.888.629-1.935.435-2.032.291-2.033.096-2.032-.096-2.032-.29-2.033-.436-2.032-.629-1.935-.775-1.888-.919-1.838-1.112-1.742-1.258-1.596-1.404-1.5-1.5-1.404-1.595-1.258-1.743-1.113-1.838-.919-1.887-.775-1.935-.628-2.031-.436-2.033-.29zm245.34 15.531 1.21.098 1.21.29 1.112.484 1.064.629.92.823.823.92.628 1.064.484 1.112.29 1.21.098 1.21-.098 1.258-.29 1.161-.484 1.161-.628 1.065-.824.92-.919.774-1.064.676-1.113.436-1.209.291-1.21.098-1.258-.098-1.16-.29-1.162-.437-1.016-.676-.968-.774-.774-.92-.677-1.065-.436-1.161-.29-1.161-.098-1.258.098-1.21.29-1.21.436-1.113.677-1.064.774-.919.968-.823 1.016-.629 1.161-.484 1.161-.29zm-245.34.146 1.21.096 1.21.29 1.112.485 1.064.628.92.824.822.919.629 1.064.484 1.113.29 1.21.097 1.21-.098 1.21-.289 1.209-.484 1.161-.629 1.016-.823.967-.919.775-1.064.629-1.113.484-1.21.29-1.209.099-1.258-.098-1.161-.29-1.16-.485-1.017-.629-.968-.775-.774-.967-.677-1.016-.436-1.161-.29-1.21-.098-1.21.098-1.21.29-1.209.436-1.113.677-1.064.774-.92.968-.822 1.016-.63 1.161-.484 1.161-.29z" transform="translate(2971.52 -2216.053)"/></svg>