<svg xmlns="http://www.w3.org/2000/svg" width="360.268" height="318.2" xml:space="preserve"><path style="fill:#ec1d24;fill-opacity:1;fill-rule:evenodd;stroke:none" d="M336.29 318.1c8.586 0 16.457-4.522 20.688-11.906 4.253-7.374 4.253-16.48 0-23.875L200.82 11.975A23.766 23.766 0 0 0 180.228.1h-.188a23.766 23.766 0 0 0-20.594 11.875L3.29 282.319c-4.253 7.396-4.253 16.501 0 23.875 4.231 7.384 12.102 11.906 20.688 11.906z"/><path style="fill:#fff;fill-opacity:1;fill-rule:evenodd;stroke:none" d="M322.513 286.283H37.755L180.134 39.807z"/><path style="fill:#000;fill-rule:nonzero;stroke:none" d="M180.134 95.78c-14.784.012-27.323 11.906-27.437 27.124.114 4.053 1.156 6.718 1.156 6.718l23.062 93.061h6.438l23.062-93.06s1.041-2.666 1.156-6.72c-.115-15.217-12.653-27.111-27.437-27.124z"/><path style="fill:#000;fill-opacity:1;stroke:none" d="M180.134 275.783c-11.681 0-21.15-9.469-21.15-21.15 0-11.68 9.469-21.15 21.15-21.15 11.68 0 21.15 9.47 21.15 21.15 0 11.681-9.47 21.15-21.15 21.15z"/></svg>