<svg xmlns="http://www.w3.org/2000/svg" width="455mm" height="455mm" viewBox="0 0 455 455"><g transform="translate(0 158)"><circle style="fill:#000;fill-opacity:1;stroke:none;stroke-width:0;stroke-miterlimit:10" cx="227.5" cy="69.5" r="226.5"/><circle style="fill:#fff;fill-opacity:1;stroke:none;stroke-width:0;stroke-miterlimit:10" cx="227.5" cy="69.5" r="225"/><circle style="fill:#01619e;fill-opacity:1;stroke:none;stroke-width:0;stroke-miterlimit:10" cx="227.5" cy="69.5" r="216"/><path style="fill:#fff;fill-opacity:1;stroke:none;stroke-width:0;stroke-miterlimit:10" d="M176.5-125.5h15v390h-15z"/><path style="fill:#fff;fill-opacity:1;fill-rule:nonzero;stroke:none;stroke-width:.148421" d="M116.77-44.5c-7.903 0-13.762 6.284-13.762 14.038 0 4.856 5.03 11.831 5.469 12.36.442.53 1.06 2.825-.528 3.355-3.87 1.29-9.666 3.051-14.116 5.915-1.236.793-3.794 2.03-4.323 4.679L74.468 60.14s-3.749.244-3.749 3.333c0 2.296.573 2.43.573 2.43s-7.543.595-9.924-.067c-2.382-.66-3.374-2.12-1.456-3.973 1.92-1.853 3.177-4.37 3.177-7.15 0-2.782-3.309-9.536-9.595-9.536-6.285 0-9.725 5.628-9.725 9.336 0 3.707 2.117 6.622 2.977 7.483.86.86 1.521 2.119-.795 3.245-8.999 4.373-10.37 9.314-11.513 20.063-.33 3.11-.529 17.945-.397 19.134.133 1.194 1.787 3.84 4.566 3.84s4.035-1.72 4.035-3.044c0-1.325-1.057-1.985-1.52-2.45-.463-.463-.993-1.722-.663-2.714.332-.995 2.25-12.184 2.183-13.045.398-.331 1.523-2.253 2.184-3.378 3.594 6.742.994 18.442-.53 27.083-.198 1.124-.263 1.855 1.655 2.384 0 .594-.065 24.3-.065 24.3s-.132 1.72-.53 2.12c-.397.397-1.455 1.324-1.455 2.252 0 .925.727 1.323 1.39 1.323.66 0 1.058-.332 1.455-.596.397-.265 3.837-2.714 3.837-2.714s1.257-1.127 1.654-2.782l3.705-17.415s0-1.059.794-1.788c.795-.727 1.325-1.192 1.788-1.39.463-.198 1.124-.398 1.124.53v20.792s.065 1.125.662 1.655c.595.53 6.285 4.238 6.484 4.5.199.266 1.124.532 1.39.532.264 0 1.455-.398 1.455-1.391s-.53-1.522-.86-1.987c-.331-.463-1.655-2.117-1.853-2.318-.2-.199-1.082-1.479-.53-3.508.199-.729 2.78-14.832 2.846-16.29.793-.264 6.749-2.845 4.83-9.799l-7.477-30.722s-.837-1.832.86-2.452c7.08-2.582 11.248-4.503 17.137-8.938.712-.536 2.778-2.45-.926-5.099l17.6-45.224-1.059 49.33s-.264 3.046-.067 5.495l5.295 64.627s-.133.926-.464 1.39c-.33.464-2.515 3.707-2.779 3.973-.266.266-.662.926-.463 1.455.197.532.86 1.525 1.654 1.525.794 0 1.192-.4 1.787-.729l9.66-7.086s1.323-.727 1.389-3.51c0 0 .391-19.842.793-32.113.465-14.103 1.324-17.812 4.368-31.584l2.052 27.148s.528 12.315.528 13.242c0 6.208.16 19.612-.992 25.757-.2 1.06.132 1.126.397 1.392.264.264 6.352 6.092 6.617 6.49.264.394 1.255.926 1.72.926.463 0 2.446-.597 2.446-1.788 0-.397-.065-.993-.461-1.59-.397-.595-1.125-1.854-1.257-2.052-.133-.2-.397-.53-.2-1.655.2-1.126 5.097-42.266 5.36-43.415.265-1.147 1.854-26.929 1.854-29.84 0-2.913-4.411-47.323-4.411-48.028 0 0 10.939 13.897 10.939 33.636 0 3.091-.31 7.688-.442 8.477-.088.528-.175 1.5-.441 2.118-.266.619-.97 2.56-.97 3.884 0 1.326 1.145 5.651 5.91 5.651 2.647 0 5.337-3.222 5.337-5.34 0-2.12-.574-3.4-.836-3.754-.265-.353-.53-2.031-.178-3.706.354-1.677 1.148-13.333 1.148-16.246 0-10.748-3.883-28.87-6.44-40.17-.339-1.485-2.03-4.679-4.236-6.18-6.38-4.341-12.034-7.819-18.614-8.917-1.058-.177-3.264-1.059-1.413-3.974 1.853-2.913 5.206-7.68 5.206-12.712S126.386-44.5 116.771-44.5"/><path style="fill:#fff;fill-opacity:1;fill-rule:nonzero;stroke:none;stroke-width:.0935752" d="M248.435 72.704c4.926 0 9.623.977 13.897 2.77l14.295-24.885-2.714-7.462c-7.131-.693-9.703-7.24-9.703-8.35 0-1.111 1.323-1.111 1.323-1.111h30.916c.688 0 2.964.582 2.964 3.015 0 2.433-2.594 2.856-2.594 2.856l-13.553 2.98 3.283 9.024h65.686l-1.314-4.9s-.565-1.834-.565-2.61c0-3.675 2.73-6.422 3.882-7.041.23-.124.997-.468.997-1.498 0-1.032-.6-1.896-1.915-1.896h-13.693V24.5h17.223s9.034.846 9.034 10.083c0 5.4-2.682 6.628-4.8 7.897-.705.424-1.34 2.186-1.058 3.172.165.578 4.37 16.338 7.843 29.36a35.883 35.883 0 0 1 12.696-2.308c19.846 0 35.935 16.073 35.935 35.898 0 19.826-16.089 35.898-35.935 35.898-19.846 0-35.935-16.072-35.935-35.898 0-12.052 5.948-22.717 15.069-29.229-.391-1.456-.79-2.943-1.19-4.44l-41.732 29.128c.455 1.433.702 2.958.702 4.541 0 8.302-6.738 15.033-15.048 15.033a15.05 15.05 0 0 1-4.278-.617l-2.231 4.85h3.835v4.866h-4.297a3.808 3.808 0 0 1-3.22 1.773 3.807 3.807 0 0 1-3.22-1.773h-4.191v-4.865h6.277l3.134-6.655a15.05 15.05 0 0 1-6.486-9.28l-3.435.053c-1.73 18.213-17.198 32.513-35.884 32.513-19.846 0-35.935-16.072-35.935-35.898 0-19.825 16.09-35.898 35.935-35.898"/><path style="fill:#01619e;fill-opacity:1;fill-rule:nonzero;stroke:none;stroke-width:.0935752" d="M301.842 93.582a15.033 15.033 0 0 1 5.094.672l2.234-4.744h-4.093v-4.865h4.192a3.809 3.809 0 0 1 6.44 0h4.297v4.865h-6.45l-2.969 6.458c.354.228.696.471 1.028.728l44.416-31.001-1.385-5.165H289.82l12.022 33.051M270.158 80.006l10.499-18.342 12.71 34.94a15.037 15.037 0 0 0-5.635 8.772h-3.508c-.922-10.343-6.236-19.425-14.066-25.37M264.881 89.372c4.672 4.011 7.958 9.608 8.747 16.031h-17.993l9.246-16.031"/><path style="fill:#01619e;fill-opacity:1;fill-rule:nonzero;stroke:none;stroke-width:.0935752" d="m256.982 84.854-12.57 21.792s-.61 1.005-.61 2.089c0 3.2 3.282 3.2 4.844 3.2l24.91.048c-1.676 12.38-12.27 21.973-25.12 21.973-14.017 0-25.38-11.352-25.38-25.354 0-14.001 11.363-25.353 25.38-25.353 3.037 0 5.848.628 8.546 1.605M362.707 90.59c1.225 4.564 2.072 7.724 2.19 8.158 2.774 10.294 13.364 13.469 15.527 13.469 2.33 0 3.741-1.552 3.741-3.738s-1.765-2.82-2.4-3.313c-8.046-6.276-9.317-12.975-9.317-12.975l-1.842-6.914a25.317 25.317 0 0 1 9.96-2.028c14.016 0 25.378 11.352 25.378 25.353 0 14.002-11.362 25.354-25.379 25.354-14.016 0-25.379-11.352-25.379-25.354 0-7.045 2.878-13.417 7.52-18.012"/><circle style="fill:#01619e;fill-opacity:1;stroke:none;stroke-width:0;stroke-miterlimit:10" cx="-302.443" cy="108.586" r="9.429" transform="scale(-1 1)"/></g></svg>