<?xml version="1.0" encoding="UTF-8" standalone="no"?>
<!-- Created with Inkscape (http://www.inkscape.org/) -->

<svg
   xmlns:dc="http://purl.org/dc/elements/1.1/"
   xmlns:cc="http://creativecommons.org/ns#"
   xmlns:rdf="http://www.w3.org/1999/02/22-rdf-syntax-ns#"
   xmlns:svg="http://www.w3.org/2000/svg"
   xmlns="http://www.w3.org/2000/svg"
   xmlns:sodipodi="http://sodipodi.sourceforge.net/DTD/sodipodi-0.dtd"
   xmlns:inkscape="http://www.inkscape.org/namespaces/inkscape"
   version="1.1"
   width="385.54614"
   height="340.79999"
   id="svg2"
   xml:space="preserve"
   inkscape:version="0.48.2 r9819"
   sodipodi:docname="UK traffic sign 583.svg"><sodipodi:namedview
     pagecolor="#ffffff"
     bordercolor="#666666"
     borderopacity="1"
     objecttolerance="10"
     gridtolerance="10"
     guidetolerance="10"
     inkscape:pageopacity="0"
     inkscape:pageshadow="2"
     inkscape:window-width="640"
     inkscape:window-height="480"
     id="namedview15"
     showgrid="false"
     inkscape:zoom="0.69157509"
     inkscape:cx="192.77619"
     inkscape:cy="170.36249"
     inkscape:window-x="0"
     inkscape:window-y="24"
     inkscape:window-maximized="0"
     inkscape:current-layer="svg2" /><defs
     id="defs16" /><metadata
     id="metadata8"><rdf:RDF><cc:Work
         rdf:about=""><dc:format>image/svg+xml</dc:format><dc:type
           rdf:resource="http://purl.org/dc/dcmitype/StillImage" /></cc:Work></rdf:RDF></metadata><g
     transform="matrix(1.25,0,0,-1.25,-3.4738088,341.06251)"
     id="g10"><path
       d="m 291.21,0.21001 c 6.885,0.15912 13.543,3.8133 17.28,10.2 3.677,6.454 3.512,14.047 0.24,20.16 l -134.28,232.44 c -3.544,5.847 -10.037,9.786 -17.4,9.84 -7.465,-0.054 -13.959,-3.993 -17.52,-9.84 L 5.25,30.57001 c -3.2524,-6.113 -3.4166,-13.706 0.24,-20.16 3.7571,-6.3867 10.415,-10.041 17.28,-10.2 h 268.44"
       inkscape:connector-curvature="0"
       id="path12"
       style="fill:#ec1d24" /><path
       d="M 157.05,238.41 35.01,27.09 H 278.97 L 157.05,238.41"
       inkscape:connector-curvature="0"
       id="path14"
       style="fill:#ffffff" /><path
       d="M 225.45,99.57 50.01,35.73 h 212.4 l -36.96,63.84"
       inkscape:connector-curvature="0"
       id="path16" /><path
       d="m 196.89,109.65 c -4.86,-1.753 -7.383,-7.164 -5.64,-12 1.819,-4.951 7.23,-7.475 12.12,-5.64 4.897,1.727 7.42,7.139 5.64,12 -1.782,4.926 -7.193,7.449 -12.12,5.64"
       inkscape:connector-curvature="0"
       id="path18" /><path
       d="m 126.81,84.21 c -4.875,-1.825 -7.399,-7.236 -5.64,-12.12 1.803,-4.903 7.215,-7.426 12.12,-5.64 4.882,1.776 7.405,7.187 5.64,12.12 -1.797,4.854 -7.208,7.377 -12.12,5.64"
       inkscape:connector-curvature="0"
       id="path20" /><path
       d="m 192.69,140.01 c 0,0 4.734,1.945 7.68,-3.12 l 7.08,-12.12 c 0,0 2.654,0.218 3.6,-2.4 0.235,-0.627 0.36,-1.32 0.36,-1.32 l 2.16,-15.36 -3.6,-1.32 c -1.993,5.463 -7.974,8.229 -13.44,6.24 -5.37,-1.955 -8.164,-7.945 -6.24,-13.32 l -50.4,-18.36 c -1.999,5.364 -7.989,8.157 -13.44,6.24 -5.385,-2.026 -8.179,-8.017 -6.24,-13.44 l -10.32,-3.72 -15.24,42 c 0,0 -0.928,2.395 1.32,3.24 l 69.84,25.44 c 2.257,0.774 3.12,-1.68 3.12,-1.68 l 7.2,-19.68 4.44,1.68 -4.32,12.12 c 0,0 -0.914,2.469 1.2,3.24 l 15.24,5.64"
       inkscape:connector-curvature="0"
       id="path22" /><path
       d="m 198.57,105.21 c -2.481,-0.853 -3.742,-3.559 -2.88,-6 0.919,-2.452 3.624,-3.714 6.12,-2.88 2.398,0.947 3.659,3.653 2.76,6.12 -0.882,2.426 -3.587,3.688 -6,2.76"
       inkscape:connector-curvature="0"
       id="path24"
       style="fill:#ffffff" /><path
       d="m 128.49,79.77 c -2.496,-0.925 -3.758,-3.63 -2.88,-6.12 0.903,-2.404 3.609,-3.665 6,-2.76 2.502,0.876 3.764,3.581 2.88,6 -0.897,2.475 -3.602,3.736 -6,2.88"
       inkscape:connector-curvature="0"
       id="path26"
       style="fill:#ffffff" /><path
       d="m 201.93,126.69 -13.32,-4.8 -4.08,11.04 8.76,3.36 c 0,0 2.661,0.863 3.48,-0.72 l 5.16,-8.88"
       inkscape:connector-curvature="0"
       id="path28"
       style="fill:#ffffff" /></g></svg>