<svg xmlns="http://www.w3.org/2000/svg" width="240.586" height="212.574" xml:space="preserve"><defs><clipPath id="a"><path d="M0 170.12h192.47V.06H0v170.06z"/></clipPath></defs><g clip-path="url(#a)" transform="matrix(1.25 0 0 -1.25 -.001 212.649)"><path d="m107.33 163.63 83.41-144.47a12.857 12.857 0 0 0 1.731-6.484c0-7.059-5.33-12.676-12.39-12.676H12.821C5.765 0 .001 5.617.001 12.672c0 2.304.576 4.468 1.728 6.343l83.416 144.62c2.303 4.037 6.627 6.484 11.092 6.484 4.611 0 8.786-2.447 11.091-6.484" style="fill:#ec1d24;fill-rule:evenodd"/></g><path d="M20.168 17h152.13L96.234 148.8 20.166 17" style="fill:#fff;fill-rule:evenodd" transform="matrix(1.25 0 0 -1.25 -.001 212.649)"/><path d="m86.871 47.101 2.881.43c-1.152 1.875-1.584 3.602-1.584 5.762 0 2.886.863 5.476 2.883 7.636a2.4 2.4 0 0 1-1.731.719c-.72 0-1.441-.429-1.873-1.148-1.008-2.883-1.152-3.602-1.152-6.633 0 0 .144-2.156.576-6.766M57.195 31.687a9.039 9.039 0 0 1 9.076-9.074 9.04 9.04 0 0 1 9.077 9.074 9.038 9.038 0 0 1-9.077 9.075 9.037 9.037 0 0 1-9.076-9.075m2.016 0c0-3.89 3.168-7.058 7.06-7.058 3.889 0 7.061 3.168 7.061 7.058 0 3.891-3.172 7.059-7.061 7.059-3.892 0-7.06-3.168-7.06-7.059m4.752 0c0-1.293 1.014-2.3 2.308-2.3 1.153 0 2.161 1.007 2.161 2.3 0 1.297-1.008 2.305-2.161 2.305a2.28 2.28 0 0 1-2.308-2.305m-23.912 8.5-1.008-1.73c2.881-1.008 4.752-3.742 4.752-6.77 0-3.89-3.168-7.058-7.059-7.058-1.728 0-3.312.574-4.609 1.73l-1.008-1.73c1.729-1.293 3.457-2.016 5.617-2.016a9.039 9.039 0 0 1 9.077 9.074c0 3.746-2.305 7.059-5.762 8.5m-5.332-9.359c.289-.867 1.152-1.441 2.017-1.441a2.276 2.276 0 0 1 2.307 2.3 2.278 2.278 0 0 1-2.307 2.305h-.289l-1.728-3.164zM102 25.062c-1.297.289-2.305.719-3.172 1.727v1.875l-.144.14c-.145 0-.286.145-.286.438-1.007 3.168-2.019 5.039-4.322 7.488-.144.145-.289.434-.289.574 0 .29.145.434.289.579 1.44 1.582 2.447 3.312 3.315 5.332-1.731-2.02-3.459-3.75-5.62-5.192-.72-.574-1.298-1.437-1.298-2.301.291-2.738.578-5.472.722-8.066v-.723c-.144 0-.144-.144-.144-.285 0-.148.144-.433.289-.578.576-.719 1.008-1.586 1.008-2.594-1.297.145-2.596.578-3.748 1.153 0 .144.144.433.144.722 0 .575-.289 1.149-.865 1.582 0 0-.143.145 0 .289.144 1.293.289 2.598.289 4.036 0 3.457.145 2.445-.863 5.906v.43c0 .429.142.863.431 1.152 1.295 1.152 2.16 2.16 3.028 3.457.431.578.576 1.012.576 1.586 0 .433 0 .719-.145 1.008l-4.324-.575c-.432-.863-1.008-1.871-1.871-2.597-.145-.281-.576-.43-.863-.43-1.297 0-1.586 1.297-1.586 2.164v.43l-4.899-.719v-3.316H74.34c-2.164 2.164-5.045 3.316-8.069 3.316-3.027 0-5.908-1.152-8.068-3.316H44.805c-1.01 1.008-2.305 1.73-3.602 2.308l10.805 18.723h12.68c.72 0 1.439.289 2.16.574.289.149.431.289.431.578.145 1.008.289 1.875.289 2.883v.43c0 .289-.144.578-.431.578-.721.289-1.01.434-1.442.867-.287.141-.431.43-.431.863v.145a14.478 14.478 0 0 0 4.607 7.633c0 .14.145.14.145.429 0 0 0 .145-.145.29-.576.574-.863 1.437-.863 2.16 0 1.875 1.584 3.316 3.312 3.316 1.875 0 3.459-1.441 3.459-3.316 0-1.012-.576-2.02-1.295-2.594-.144 0-.144-.145-.144-.145 0-.14 0-.14.144-.14a7.132 7.132 0 0 0 2.016-4.321v-3.023c-.145-.434.287-.867.719-1.008 1.152-.289 2.304-.578 3.457-1.015.144 0 .431 0 .72.148.288 0 .581-.289.581-.578.142-.289.287-.434.287-.719v-.148c-.145-.575-.58-1.008-1.157-1.008-.144 0-.287 0-.431.148-3.024.43-3.457.575-6.049 1.867.576-2.156 1.728-3.742 3.602-5.039.863-.574 1.294-1.582 1.294-2.589v-7.782a.985.985 0 0 1 1.008-1.007c.576 0 .865-.434.865-1.008 0-.434-.289-.723-.576-.864-.576-.144-1.152-.144-1.728-.144-.576 0-.863 0-1.44.144v-1.441l5.043.723c.432 6.91.721 8.5 3.6 14.976.289.867 1.297 1.586 2.305 1.586.431 0 .863-.144 1.296-.433a26.794 26.794 0 0 0 2.307-1.008c1.152.722 2.592 1.008 4.033 1.008a9.01 9.01 0 0 0 2.737-.434c3.172-.859 6.195-1.148 9.511-1.148 5.907 0 8.356 6.339 11.954 9.937 1.156 1.442 2.738 2.738 4.609 3.457.726.434 1.016.574 1.59 1.297.718.719 1.441 1.582 2.16 2.449v-1.008c0-.867 0-1.441-.145-2.304.719-.434 1.297-.867 1.727-1.727.289-.434.723-.722 1.152-1.008.864-.437 1.586-1.156 1.727-2.019.144-.434.144-.434.433-.864 2.309-3.601 1.301-2.304 4.614-5.187.285-.43.574-.719.574-1.297a.91.91 0 0 1 0-.863c0-.434-.145-.723-.43-1.008-.144-.145-.433-.289-.578-.434-.43 0-.719 0-1.152.145h-.285c-.289 0-.289 0-.579-.145h-1.007c-.575 0-1.157.434-1.446.868-.429.718-.429.718-1.152 1.293 0 0-.285.144-.43.144h-.144c-1.442 0-2.735.43-3.746 1.152-1.008-2.878-1.008-5.761-.285-8.64.144-.863.285-1.875.285-2.738 0-2.305-.575-4.18-1.867-6.196.285-1.867.718-3.742 1.148-5.761.144-.723.434-1.153.867-1.583.285-.289.43-.722.43-1.156v-.429c-.145-.145-.145 0-.145-.29 0-.289 0-.429.145-.574.144-.289.289-.574.289-.863 0-.289-.145-.434-.289-.719-1.153-2.304-1.871-4.754-2.016-7.351 0-.289 0-.575-.144-1.008V26.5c0-.43-.285-.86-.723-.86 0 0-.141 0-.141.141-.148-1.152-.867-2.16-1.734-2.734-.43 2.593-.141 1.582-1.148 4.031.14.144.429.289.718.578.43.285.578.574.578 1.008v.285h-.148c0 .145.148.145.148.293.286.145.575.289.86.43.148.148.148.289.148.433v7.633c-1.156.863-2.453 1.727-3.601 2.738h-.145c-.289-1.297-.574-2.593-1.008-4.035-1.152-4.32-1.007-3.023-1.007-7.637v-.574c.144-.144.144-.289.144-.574 0-.578-.144-1.008-.578-1.297.867-.719 1.297-1.73 1.297-2.883v-.14c-1.297.14-2.594.429-3.75 1.008.289.429.433 1.007.433 1.437 0 .578-.144.867-.433 1.297v.289c0 .141 0 .289.148.43.285.433.578 1.007.578 1.59.141 6.335.141 6.48.141 6.48 0 .43-.141.863-.285 1.297-1.012 1.867-1.59 3.598-2.164 5.617 0 .145-.285.289-.434.289h-1.871c-2.879 0-5.762.43-8.5 1.152h-.285c-.289 0-.723-.144-.723-.574-.285-.722-.574-1.156-1.008-1.73-1.441-1.301-2.882-2.739-4.324-4.18-.14-.144-.14-.289-.14-.434 0-.14 0-.289.14-.289.578-.859 1.008-1.867 1.297-2.734.145-.43 0-.289.289-.578.578-1.008 1.297-2.156 2.02-3.309.144-.289.285-.574.285-.863 0-.289-.141-.582-.285-.867-.145 0-.145 0-.145-.149h.145c.574-1.148.863-2.3.863-3.453" style="fill:#000;fill-rule:evenodd" transform="matrix(1.25 0 0 -1.25 -.001 212.649)"/></svg>