<?xml version="1.0" encoding="UTF-8" standalone="no"?>
<svg
   xmlns:dc="http://purl.org/dc/elements/1.1/"
   xmlns:cc="http://creativecommons.org/ns#"
   xmlns:rdf="http://www.w3.org/1999/02/22-rdf-syntax-ns#"
   xmlns:svg="http://www.w3.org/2000/svg"
   xmlns="http://www.w3.org/2000/svg"
   xmlns:sodipodi="http://sodipodi.sourceforge.net/DTD/sodipodi-0.dtd"
   xmlns:inkscape="http://www.inkscape.org/namespaces/inkscape"
   width="900.40002"
   height="900.40015"
   viewBox="-50 -30 90.039922 90.040021"
   id="svg2"
   version="1.1"
   inkscape:version="0.48.4 r9939"
   sodipodi:docname="AJAX.svg">
  <metadata
     id="metadata14">
    <rdf:RDF>
      <cc:Work
         rdf:about="">
        <dc:format>image/svg+xml</dc:format>
        <dc:type
           rdf:resource="http://purl.org/dc/dcmitype/StillImage" />
        <dc:title />
      </cc:Work>
    </rdf:RDF>
  </metadata>
  <defs
     id="defs12" />
  <sodipodi:namedview
     pagecolor="#ffffff"
     bordercolor="#666666"
     borderopacity="1"
     objecttolerance="10"
     gridtolerance="10"
     guidetolerance="10"
     inkscape:pageopacity="0"
     inkscape:pageshadow="2"
     inkscape:window-width="1920"
     inkscape:window-height="1057"
     id="namedview10"
     showgrid="false"
     fit-margin-top="0.2"
     fit-margin-left="0.2"
     fit-margin-right="0.2"
     fit-margin-bottom="0.2"
     inkscape:zoom="0.45254834"
     inkscape:cx="660.61603"
     inkscape:cy="452.03072"
     inkscape:window-x="-8"
     inkscape:window-y="-8"
     inkscape:window-maximized="1"
     inkscape:current-layer="svg2"
     showguides="true"
     inkscape:guide-bbox="true"
     inkscape:showpageshadow="true"
     borderlayer="false"
     showborder="true" />
  <path
     sodipodi:nodetypes="sssss"
     style="fill:#ec1d24;fill-opacity:1;stroke:none"
     d="m -4.9800262,60.020021 c -24.8528358,0 -45.0000168,-20.147186 -45.0000168,-45.000021 0,-24.852797 20.147181,-45 45.0000168,-45 24.8528042,0 44.9999942,20.147203 44.9999942,45 0,24.852835 -20.147191,45.000021 -44.9999942,45.000021 z"
     id="path4310"
     inkscape:connector-curvature="0" />
  <path
     inkscape:connector-curvature="0"
     id="path4312"
     d="m -4.9800302,51.020021 c -19.8822658,0 -36.0000118,-16.117753 -36.0000118,-36.000021 0,-19.882241 16.117746,-35.999999 36.0000118,-35.999999 19.8822462,0 35.9999982,16.117758 35.9999982,35.999999 0,19.882268 -16.117753,36.000021 -35.9999982,36.000021 z"
     style="fill:#ffffff;fill-opacity:1;stroke:none"
     sodipodi:nodetypes="sssss" />
  <path
     id="path4169"
     d="m 10.77512,-4.4785101 c 2.755763,1.122597 4.666521,3.81861 4.701816,6.929 l -1.237329,0 c 0.01584,3.566611 -2.849117,6.432562 -6.351559,6.434209 -2.435526,-0.0018 -4.529735,-1.326402 -5.608997,-3.299499 l -11.1358872,0 c 0,0 -3.1015428,0.2016 -3.1345408,-3.13471 0.03303,-2.168847 -0.97137,-4.134689 -2.557129,-5.444198 l -0.329941,0.577404 c 1.366653,1.194129 2.242688,2.944133 2.22717,4.866794 0.01584,3.566611 -2.850127,6.432562 -6.351574,6.434209 -3.56841,-0.0018 -6.434216,-2.867598 -6.434216,-6.434209 0,-3.503168 2.865806,-6.368948 6.434216,-6.351569 0.762184,-0.01746 1.524062,0.127908 2.227178,0.412434 l 0.329949,-0.577422 c -0.788235,-0.353484 -1.668895,-0.529731 -2.557127,-0.494928 -0.106901,-0.03483 -0.179751,-0.03357 -0.247334,0 l 0,-2.63961 1.567278,0 c 0,0 3.017733,0.125361 4.701805,-2.722091 0.506145,-0.9173699 2.722098,-4.4543509 2.722098,-4.4543509 0,0 0.150731,-0.275517 0.3299548,-0.247464 0.139891,0.09957 0.120098,0.256473 0.08237,0.329949 -0.02637,0.117927 -1.2373148,5.6916709 -1.2373148,5.6916709 -0.02637,0.153356 -0.145977,0.680531 0.247326,0.907358 0.421027,0.275805 0.827866,-0.05931 0.9073638,-0.164979 l 1.897227,-1.402277 1.649751,-2.9695769 c 0,0 0.205099,-0.407628 0,-0.412434 -0.345443,0.0045 -1.530967,-0.05508 -1.56727,-1.402307 l 0,-1.567278 -0.494929,0 c -0.02664,-0.06993 -0.03006,-0.145962 0,-0.247437 -0.03006,-1.3311 1.069395,-2.430495 2.392157,-2.392155 1.388778,-0.03834 2.488168,1.061055 2.474638,2.392155 0.01323,0.574182 -0.166563,1.081332 -0.494938,1.484775 l 0,0.989865 0.494938,0 3.13456495,1.319795 3.05205625,3.2995259 c 0,0 0.864469,0.629924 0.82488,2.392142 l 6.021426,0 c 0,0 1.353146,-0.06867 1.319803,1.897209 z"
     style="fill:#000000;fill-rule:nonzero;stroke:none"
     inkscape:connector-curvature="0" />
  <path
     id="path4171"
     d="m -16.198268,-0.1066441 c 0.598221,0.662157 0.988887,1.579851 0.989859,2.557134 -9e-4,2.145187 -1.714741,3.858616 -3.794446,3.877093 -2.147083,-0.01845 -3.860318,-1.731906 -3.87709,-3.877093 0.01584,-2.081871 1.730007,-3.79511 3.87709,-3.794444 0.278488,-5.31e-4 0.581721,0.03672 0.907369,0.08253 l -0.82488,1.319786 c -0.02376,-0.01323 -0.06887,-0.01449 -0.08237,0 -1.380198,-0.01449 -2.471891,1.077156 -2.474799,2.392164 0.0027,1.378377 1.094601,2.470177 2.474799,2.474794 1.313201,-0.0045 2.40503,-1.096417 2.392149,-2.474794 0.01323,-0.461412 -0.134097,-0.920574 -0.41244,-1.319814 l 0.824878,-1.23732 z"
     style="fill:#ffffff;fill-rule:nonzero;stroke:none"
     inkscape:connector-curvature="0" />
  <path
     id="path4173"
     d="m 7.558268,-1.3439541 c 0.116678,0.0027 0.206422,-5.31e-4 0.32996,0 2.08065,-5.31e-4 3.79445,1.712573 3.79445,3.794444 0,2.145187 -1.7138,3.858616 -3.79445,3.877093 C 5.742225,6.3091329 4.028764,4.5956769 4.0113,2.4504899 4.02975,1.2453989 4.615734,0.1456439 5.496079,-0.5190771 l 0.577411,1.402289 c -0.418057,0.396333 -0.656282,0.969894 -0.6599,1.567278 0.0027,1.378377 1.095437,2.470177 2.474638,2.474794 1.313842,-0.0045 2.405663,-1.096417 2.392152,-2.474794 0.01323,-1.230894 -0.94599,-2.26908 -2.144692,-2.392164 l -0.57742,-1.40228 z"
     style="fill:#ffffff;fill-rule:nonzero;stroke:none"
     inkscape:connector-curvature="0" />
  <path
     id="path4175"
     d="m 1.619143,1.2131609 c 0.17264,-1.40616 1.016891,-2.549069 1.979709,-3.464486 0.1172,-0.164637 0.177914,-0.558747 -0.08237,-0.577431 -0.282432,0.01872 -2.474628,0 -2.474628,0 l 0,4.041917 c 0,0 0.0054,0.319329 0.247324,0.329958 0.236505,-0.01053 0.284394,-0.27261 0.329949,-0.329958 z"
     style="fill:#ffffff;fill-rule:nonzero;stroke:none"
     inkscape:connector-curvature="0" />
  <path
     id="path4177"
     d="m -3.3301602,-6.3757191 c 0,0 -1.146557,-0.469152 -1.567268,-1.979712 l -5.1967318,2.96955 5.1142508,1.649763 1.649749,-2.639601 z"
     style="fill:#ffffff;fill-rule:nonzero;stroke:none"
     inkscape:connector-curvature="0" />
  <path
     sodipodi:nodetypes="ccccccccccccccccccccccc"
     inkscape:connector-curvature="0"
     id="path2995"
     d="m 4.809364,11.25962 c 1.260805,0.0105 4.264935,0.65698 4.867984,4.37275 l 1.401308,8.9115 c 0,0 2.584573,0.1649 2.557803,2.88985 l 0,8.002625 c 0,0 0.152337,1.517796 -1.319703,2.391777 l 0,6.272199 c 0,0 -0.96732,1.304856 -2.96863,1.319697 -2.004917,-0.01476 -2.808236,-1.4013 -2.808236,-1.4013 l 0,-5.695353 c 0,0 -8.0386102,0.415107 -11.5199572,0.41364 -3.481349,0.0018 -11.5199548,-0.41364 -11.5199548,-0.41364 l 0,5.695353 c 0,0 -0.803319,1.38654 -2.808235,1.4013 -2.001306,-0.01485 -2.968627,-1.319697 -2.968627,-1.319697 l 0,-6.272199 c -1.472041,-0.873981 -1.319703,-2.391777 -1.319703,-2.391777 l 0,-8.002625 c -0.02677,-2.72495 2.557804,-2.88985 2.557804,-2.88985 l 1.401303,-8.9115 c 0.603049,-3.71577 3.607179,-4.36221 4.867984,-4.37275 l 9.7894288,0 z"
     style="fill:#000000;fill-rule:nonzero;stroke:none" />
  <path
     inkscape:connector-curvature="0"
     style="fill:#ffffff;fill-rule:nonzero;stroke:none"
     d="m -18.893016,26.45302 c 1.456601,2.6e-4 2.638701,1.18238 2.635974,2.64202 0.0027,1.4566 -1.179373,2.6387 -2.635974,2.63598 -1.459643,0.003 -2.641743,-1.17938 -2.642022,-2.63598 3.96e-4,-1.45964 1.182379,-2.64173 2.642022,-2.64202 z"
     id="path2997" />
  <path
     inkscape:connector-curvature="0"
     id="path3001"
     d="m -1.9086912,14.07662 c 0.48597,0.0219 5.8354902,0.39828 6.1033892,0.41346 1.637747,0.19629 3.486558,1.17199 3.960171,3.46234 l 0.329077,2.64105 c 0,0 0.469073,2.32797 -1.980086,2.30916 -1.937097,0.0185 -8.9803632,-0.39371 -11.4839342,-0.41346 -2.503571,0.0197 -9.5468338,0.43204 -11.4839318,0.41346 -2.449159,0.0188 -1.980085,-2.30916 -1.980085,-2.30916 l 0.329077,-2.64105 c 0.473613,-2.29035 2.322424,-3.26605 3.960172,-3.46234 0.267898,-0.0152 5.6174138,-0.39159 6.1033848,-0.41346 l 3.071383,0 3.071383,0 z"
     style="fill:#ffffff;fill-rule:nonzero;stroke:none" />
  <path
     id="path3022"
     d="m 8.93288,26.45302 c -1.456601,2.6e-4 -2.638701,1.18238 -2.635974,2.64202 -0.0027,1.4566 1.179373,2.6387 2.635974,2.63598 1.459647,0.003 2.641747,-1.17938 2.642026,-2.63598 C 11.57451,27.6354 10.392527,26.45331 8.93288,26.45302 z"
     style="fill:#ffffff;fill-rule:nonzero;stroke:none"
     inkscape:connector-curvature="0" />
  <path
     inkscape:connector-curvature="0"
     id="path3037"
     d="m -5.6044522,28.75102 c -2.12917,0.009 -7.8800988,0.108 -8.9156218,0.2502 l 0,1.2375 9.5399968,0 9.5400012,0 0,-1.2375 c -1.035523,-0.1422 -6.7864572,-0.2403 -8.9156262,-0.2502 -0.284917,0 -0.48911,0 -0.624375,0 -0.135266,0 -0.339459,0 -0.624375,0 z"
     style="fill:#ffffff;fill-rule:nonzero;stroke:none" />
  <path
     style="fill:#ffffff;fill-opacity:1;stroke:none"
     d="m -14.520074,33.251517 19.079999,0 0,-1.567997 -19.079999,0 z"
     id="path3039"
     inkscape:connector-curvature="0"
     sodipodi:nodetypes="ccccc" />
  <path
     style="fill:#ffffff;fill-rule:nonzero;stroke:none"
     d="m -5.6044522,36.184017 c -2.12917,-0.009 -7.8800988,-0.108 -8.9156218,-0.2502 l 0,-1.2375 9.5399968,0 9.5400012,0 0,1.2375 c -1.035523,0.1422 -6.7864572,0.2403 -8.9156262,0.2502 -0.284917,0 -0.48911,0 -0.624375,0 -0.135266,0 -0.339459,0 -0.624375,0 z"
     id="path3052"
     inkscape:connector-curvature="0" />
</svg>
