<svg xmlns="http://www.w3.org/2000/svg" width="360.268" height="318.2" xml:space="preserve"><path style="fill:#ec1d24;fill-opacity:1;fill-rule:evenodd;stroke:none" d="M336.29 318.1c8.586 0 16.457-4.522 20.688-11.906 4.253-7.374 4.253-16.48 0-23.875L200.82 11.975A23.766 23.766 0 0 0 180.228.1h-.188a23.766 23.766 0 0 0-20.594 11.875L3.29 282.32c-4.253 7.396-4.253 16.501 0 23.875 4.231 7.384 12.102 11.906 20.688 11.906z"/><path style="fill:#fff;fill-opacity:1;fill-rule:evenodd;stroke:none" d="M37.755 286.283h284.758L180.133 39.807z"/><path style="fill:#000;fill-rule:nonzero;stroke:none" d="M180.134 187.85c17.018.126 32.409 7.499 43.007 19.28 8.635 9.407 21.02 15.318 34.838 15.188h18.155v42.375h-69.958v-18.406c.079-14.617-11.652-26.34-26.042-26.281-14.39-.059-26.12 11.664-26.043 26.28v18.407H84.134v-42.375h18.154c13.818.13 26.203-5.78 34.838-15.187 10.599-11.782 25.99-19.155 43.008-19.282z"/></svg>