<?xml version="1.0" encoding="UTF-8" standalone="no"?>
<!-- Created with Inkscape (http://www.inkscape.org/) -->

<svg
   xmlns:dc="http://purl.org/dc/elements/1.1/"
   xmlns:cc="http://creativecommons.org/ns#"
   xmlns:rdf="http://www.w3.org/1999/02/22-rdf-syntax-ns#"
   xmlns:svg="http://www.w3.org/2000/svg"
   xmlns="http://www.w3.org/2000/svg"
   xmlns:sodipodi="http://sodipodi.sourceforge.net/DTD/sodipodi-0.dtd"
   xmlns:inkscape="http://www.inkscape.org/namespaces/inkscape"
   version="1.1"
   width="360.26767"
   height="318.20004"
   id="svg2816"
   xml:space="preserve"
   inkscape:version="0.48.4 r9939"
   sodipodi:docname="AJAX.svg"><metadata
     id="metadata81"><rdf:RDF><cc:Work
         rdf:about=""><dc:format>image/svg+xml</dc:format><dc:type
           rdf:resource="http://purl.org/dc/dcmitype/StillImage" /><dc:title></dc:title></cc:Work></rdf:RDF></metadata><sodipodi:namedview
     pagecolor="#ffffff"
     bordercolor="#666666"
     borderopacity="1"
     objecttolerance="10"
     gridtolerance="10"
     guidetolerance="10"
     inkscape:pageopacity="0"
     inkscape:pageshadow="2"
     inkscape:window-width="1920"
     inkscape:window-height="1057"
     id="namedview79"
     showgrid="false"
     fit-margin-top="0.1"
     fit-margin-left="0.1"
     fit-margin-right="0.1"
     fit-margin-bottom="0.1"
     inkscape:zoom="1.5992648"
     inkscape:cx="299.30814"
     inkscape:cy="92.872972"
     inkscape:window-x="-8"
     inkscape:window-y="-8"
     inkscape:window-maximized="1"
     inkscape:current-layer="svg2816"
     showguides="true"
     inkscape:guide-bbox="true" /><defs
     id="defs2820"><clipPath
       id="clipPath2832"><path
         d="m -0.24,595.138 317.48,0 0,-595.276 -317.48,0 0,595.276 z"
         id="path2834"
         inkscape:connector-curvature="0" /></clipPath><clipPath
       id="clipPath2840"><path
         d="m 0.03,595.32 317.46,0 0,-595.32 -317.46,0 0,595.32 z"
         id="path2842"
         inkscape:connector-curvature="0" /></clipPath><clipPath
       id="clipPath2858"><path
         d="m -0.24,595.138 317.48,0 0,-595.276 -317.48,0 0,595.276 z"
         id="path2860"
         inkscape:connector-curvature="0" /></clipPath><clipPath
       id="clipPath2864"><path
         d="m 0.03,595.32 317.46,0 0,-595.32 -317.46,0 0,595.32 z"
         id="path2866"
         inkscape:connector-curvature="0" /></clipPath><clipPath
       id="clipPath3306"><path
         d="m 199.238,472.977 0,-29.74 29.744,0 0,29.74"
         id="path3308"
         inkscape:connector-curvature="0" /></clipPath><clipPath
       id="clipPath3322"><path
         d="m -0.24,595.138 317.48,0 0,-595.276 -317.48,0 0,595.276 z"
         id="path3324"
         inkscape:connector-curvature="0" /></clipPath><clipPath
       id="clipPath3330"><path
         d="m 0.03,595.32 317.46,0 0,-595.32 -317.46,0 0,595.32 z"
         id="path3332"
         inkscape:connector-curvature="0" /></clipPath><clipPath
       id="clipPath3344"><path
         d="m 88.233,387.221 0,-28.335 32.08,0 0,28.335"
         id="path3346"
         inkscape:connector-curvature="0" /></clipPath><clipPath
       id="clipPath3462"><path
         d="m -0.24,595.138 317.48,0 0,-595.276 -317.48,0 0,595.276 z"
         id="path3464"
         inkscape:connector-curvature="0" /></clipPath><clipPath
       id="clipPath3470"><path
         d="m 0.03,595.32 317.46,0 0,-595.32 -317.46,0 0,595.32 z"
         id="path3472"
         inkscape:connector-curvature="0" /></clipPath><clipPath
       id="clipPath3490"><path
         d="m -0.24,595.138 317.48,0 0,-595.276 -317.48,0 0,595.276 z"
         id="path3492"
         inkscape:connector-curvature="0" /></clipPath><clipPath
       id="clipPath3496"><path
         d="m 0.03,595.32 317.46,0 0,-595.32 -317.46,0 0,595.32 z"
         id="path3498"
         inkscape:connector-curvature="0" /></clipPath><clipPath
       id="clipPath3520"><path
         d="m 254.788,326.215 0,-28.309 28.326,0 0,28.309"
         id="path3522"
         inkscape:connector-curvature="0" /></clipPath><clipPath
       id="clipPath3544"><path
         d="m 145.049,326.142 0,-28.333 28.342,0 0,28.333"
         id="path3546"
         inkscape:connector-curvature="0" /></clipPath><clipPath
       id="clipPath3682"><path
         d="m -0.24,595.138 317.48,0 0,-595.276 -317.48,0 0,595.276 z"
         id="path3684"
         inkscape:connector-curvature="0" /></clipPath><clipPath
       id="clipPath3690"><path
         d="m 0.03,595.32 317.46,0 0,-595.32 -317.46,0 0,595.32 z"
         id="path3692"
         inkscape:connector-curvature="0" /></clipPath><clipPath
       id="clipPath3980"><path
         d="m -0.24,595.138 317.48,0 0,-595.276 -317.48,0 0,595.276 z"
         id="path3982"
         inkscape:connector-curvature="0" /></clipPath><clipPath
       id="clipPath3988"><path
         d="m 0.03,595.32 317.46,0 0,-595.32 -317.46,0 0,595.32 z"
         id="path3990"
         inkscape:connector-curvature="0" /></clipPath><clipPath
       id="clipPath4010"><path
         d="m -0.24,595.138 317.48,0 0,-595.276 -317.48,0 0,595.276 z"
         id="path4012"
         inkscape:connector-curvature="0" /></clipPath><clipPath
       id="clipPath4016"><path
         d="m 0.03,595.32 317.46,0 0,-595.32 -317.46,0 0,595.32 z"
         id="path4018"
         inkscape:connector-curvature="0" /></clipPath><clipPath
       id="clipPath4062"><path
         d="m 200.163,177.773 0,-28.284 28.283,0 0,28.284"
         id="path4064"
         inkscape:connector-curvature="0" /></clipPath><clipPath
       id="clipPath4090"><path
         d="m 34.886,177.515 0,-51.632 30.367,0 0,51.632"
         id="path4092"
         inkscape:connector-curvature="0" /></clipPath><clipPath
       id="clipPath4106"><path
         d="m 34.886,177.515 0,-51.632 30.367,0 0,51.632"
         id="path4108"
         inkscape:connector-curvature="0" /></clipPath><clipPath
       id="clipPath4272"><path
         d="m 34.886,177.515 0,-51.632 30.367,0 0,51.632"
         id="path4274"
         inkscape:connector-curvature="0" /></clipPath><clipPath
       id="clipPath4304"><path
         d="m 254.653,176.442 0,-48.167 28.317,0 0,48.167"
         id="path4306"
         inkscape:connector-curvature="0" /></clipPath><clipPath
       id="clipPath4310"><path
         d="m 253.565,177.983 31.181,0 0,-49.183 -31.181,0 0,49.183 z"
         id="path4312"
         inkscape:connector-curvature="0" /></clipPath><clipPath
       id="clipPath4316"><path
         d="m -0.24,595.138 317.48,0 0,-595.276 -317.48,0 0,595.276 z"
         id="path4318"
         inkscape:connector-curvature="0" /></clipPath><clipPath
       id="clipPath4322"><path
         d="m 0.03,595.32 317.46,0 0,-595.32 -317.46,0 0,595.32 z"
         id="path4324"
         inkscape:connector-curvature="0" /></clipPath><clipPath
       id="clipPath4456"><path
         d="m -0.24,595.138 317.48,0 0,-595.276 -317.48,0 0,595.276 z"
         id="path4458"
         inkscape:connector-curvature="0" /></clipPath><clipPath
       id="clipPath4464"><path
         d="m 0.03,595.32 317.46,0 0,-595.32 -317.46,0 0,595.32 z"
         id="path4466"
         inkscape:connector-curvature="0" /></clipPath></defs><path
     style="fill:#ec1d24;fill-opacity:1;fill-rule:evenodd;stroke:none"
     d="m 336.29007,318.10005 c 8.5855,0 16.45648,-4.5216 20.6875,-11.90625 4.25346,-7.37342 4.25346,-16.47912 0,-23.875 L 200.82131,11.975053 C 196.54539,4.6016333 188.72329,0.10005333 180.22757,0.10005333 c -0.0312,0 -0.0625,-1.2e-4 -0.0937,0 -0.0312,-1.2e-4 -0.0625,0 -0.0937,0 -8.49572,0 -16.31784,4.50157997 -20.59375,11.87499967 L 3.2901025,282.3188 c -4.25347,7.39588 -4.25347,16.50158 0,23.875 4.23102,7.38465 12.1019905,11.90625 20.6875005,11.90625 z"
     id="path3101"
     inkscape:connector-curvature="0"
     sodipodi:nodetypes="scccscscccss" /><path
     inkscape:connector-curvature="0"
     style="fill:#ffffff;fill-opacity:1;fill-rule:evenodd;stroke:none"
     id="path3121"
     d="m 37.754833,286.28316 284.757827,0 L 180.13365,39.806513 z"
     sodipodi:nodetypes="cccc" /><path
     inkscape:connector-curvature="0"
     style="fill:#000000;fill-rule:nonzero;stroke:none"
     d="m 232.65622,172.22748 c -2.63401,0.008 -4.9039,2.65035 -4.95992,4.66817 0.056,0.43297 -0.035,1.52881 -1.16704,0.87528 -1.2429,-0.62554 -5.25169,-2.91761 -5.25169,-2.91761 0,0 -2.06449,-0.63137 -2.04232,2.04233 -0.0222,2.44145 2.07734,3.30971 2.04232,4.66816 0.035,1.10869 -1.19737,1.38177 -1.75056,1.4588 -0.5415,0.10503 -46.25741,3.34824 -47.55633,3.50112 -14.37094,0.96747 -21.98122,1.74123 -36.17827,0.29176 -2.62001,-0.35244 -17.23369,-1.35844 -21.00674,-1.4588 -8.73635,0.10036 -13.41467,7.46206 -14.29684,12.54569 -2.207568,14.31726 -2.298708,11.66925 -2.625838,25.96667 0.13561,0.77724 0.23586,1.45763 -0.58352,2.04232 -2.49933,2.14735 -4.0676,3.24319 -4.08464,7.294 0.0171,1.52882 1.93518,10.75311 2.04232,12.83745 0.48665,-0.66872 2.45032,-3.36224 2.9176,-3.79288 0.26329,-0.2089 0.3556,-0.43764 0.29176,-0.87528 -0.11962,-0.29176 -0.57558,-1.29776 -0.58352,-3.20936 0.008,-5.12098 3.250438,-4.61915 3.209358,-9.04457 0.0411,-1.10053 -0.73628,-1.37361 -0.58352,-4.3764 0.38641,-8.48674 1.49184,-19.92374 3.50113,-28.30075 0.04,-0.50299 0.19606,-0.50533 0.29176,-0.58352 0.2564,0.0782 0.36131,0.33027 0.29176,0.58352 -0.10935,3.9691 -0.50148,27.59935 0.87528,32.09363 0.2313,0.73172 0.65763,2.80206 -0.29176,4.08464 -0.75566,1.39695 -2.76484,3.58981 -2.91761,3.79289 -0.33505,0.40496 -1.00412,1.07484 -0.58352,3.20936 2.1574,8.50073 2.53692,17.07965 1.75057,25.38314 0.0808,0.85777 0.17214,1.37477 0.58352,1.75057 0.27472,0.17272 0.59379,0.44696 0.87528,0.58352 0.17552,0.0922 0.99724,0.27424 0.87528,1.16704 -0.0604,0.88811 -0.33506,3.07981 -0.58352,3.50112 0.0205,0.35595 -0.13899,1.06434 0.58352,1.16704 3.00653,0.97914 8.26674,1.61751 11.08747,1.4588 0.54268,-0.009 1.18222,-0.28359 0.58353,-1.16704 -0.79943,-1.91278 -1.20789,-2.21854 -2.62585,-3.50112 -0.58819,-0.57069 -3.39691,-4.90974 -3.50171,-11.96217 0.1048,-6.92173 2.25088,-12.49318 4.96051,-16.63034 3.38092,4.51061 6.96957,14.17605 6.71049,21.59026 -0.14821,0.76908 0.10153,1.54517 1.16704,1.75056 1.03517,0.20539 1.44713,0.29642 1.75056,1.45881 0.75858,1.71438 0.72357,2.28973 0.58352,3.50112 0.14005,0.45163 0.11787,0.82859 0.87528,0.87528 4.01462,0.49016 5.33922,0.53567 10.50337,0 0.38863,0.005 0.59986,-0.45866 0,-0.87528 -3.07165,-2.84759 -9.32115,-10.13108 -9.33633,-17.50562 0.0152,-1.77158 0.0607,-4.8759 2.33409,-4.95992 2.02014,0.084 1.6782,2.5033 2.9176,2.62584 0.99782,-0.12254 1.04333,-2.58734 3.20936,-2.62584 2.03649,0.0385 1.96763,2.5033 3.20936,2.62584 0.99549,-0.12254 1.40746,-2.38311 1.45881,-2.91761 0.31276,-0.47031 0.47381,-0.7434 1.16704,-0.87528 2.60367,-1.38061 5.06495,-3.89792 6.12696,-6.12696 0.34895,-0.59169 0.64538,-1.07135 2.33408,-0.87528 8.82633,0.73056 18.48477,1.05966 27.13371,-0.29176 2.14502,-0.47382 2.97478,0.64886 2.9176,2.04232 0.18322,0.74807 0.18322,8.32799 0,9.04457 0.0922,0.5625 0.18322,1.75056 0.58352,2.33408 0.92313,1.84509 1.97463,9.16593 2.04232,11.96217 -0.0677,0.60687 -0.13654,1.26858 0.58352,1.75057 0.87762,0.38628 1.3351,0.68271 1.4588,1.75056 0.0584,0.94179 0.21824,2.74487 0.29176,3.20936 -0.0269,0.17621 -0.0969,0.90678 1.16704,1.16704 1.6537,0.75158 6.96257,1.4973 8.16929,1.4588 0.75158,0.0385 0.8426,-0.46332 0.29176,-1.16704 -0.31393,-0.5275 -1.60001,-2.24073 -2.33408,-2.9176 -0.35712,-0.12371 -0.48549,-0.36995 -0.87528,-1.4588 -2.06916,-5.98225 -3.3179,-14.22741 -1.16704,-20.42322 0.14004,-0.42247 0.16338,-0.8251 0.58352,-0.87529 0.37112,0.0502 0.50416,0.4388 0.58352,0.87529 0.0852,0.11086 1.68287,5.79669 1.75056,6.12697 0.0233,0.30926 0.11437,0.6512 0.29176,0.87528 2.84991,2.37141 3.93643,12.06953 4.08464,12.83745 -0.091,0.74573 0.0315,1.32459 0.87528,1.75056 0.80059,0.42714 1.3491,0.57885 1.75057,1.16704 0.20656,0.75157 0.81576,2.60833 0.87528,3.20936 9.3e-4,0.67804 0.0618,1.10402 0.87528,1.4588 1.91278,0.82976 6.13747,0.89629 7.87694,0.58352 0.71773,0.0665 0.90096,-0.23807 0.58352,-0.87528 -0.42714,-1.01883 -1.79082,-3.23271 -2.91702,-4.08464 -0.69322,-0.36178 -1.33276,-1.1227 -1.75056,-1.75056 -1.92678,-3.39259 -4.71251,-8.72014 -4.66816,-13.42097 -0.0443,-1.82993 0.2299,-4.15818 0.29176,-4.95993 0.21123,-1.02466 0.48549,-5.18167 0.58352,-6.12697 -0.098,-0.78892 -0.0711,-2.73788 2.33408,-2.9176 5.7891,-0.20074 8.64018,-8.80417 9.04398,-10.21161 1.79257,-9.1391 8.33617,-19.69149 12.83745,-23.63258 2.41694,-2.17887 3.33307,-2.41928 7.00225,-2.62584 1.38294,-0.26609 11.47551,-1.13321 11.96217,-1.16704 0.61036,0.0338 0.8531,0.0175 1.4588,-0.29176 0.55085,-0.23925 2.1952,-0.84727 3.20936,-0.87528 0.99549,0.028 1.8801,0.36294 2.62584,0.29176 0.95932,0.0711 2.02483,-0.63021 2.62584,-1.16704 0.3116,-0.80177 0.67805,-1.25924 1.16705,-1.4588 0.72823,-0.28711 1.39695,-0.89513 1.4588,-1.45881 -0.0618,-0.59285 -0.36528,-0.9278 -0.87528,-1.16704 -0.22174,-0.43181 -16.26622,-14.5285 -16.63034,-14.87977 -0.45865,-0.56135 -2.96895,-2.79974 -3.20936,-2.9176 -0.49133,-0.33845 -1.08418,-0.72708 -1.16704,-1.16704 0.0829,-0.47265 0.49366,-0.72474 1.16704,-0.58352 0.46682,-0.14122 0.90212,0.0887 1.75056,0 4.61681,0.0887 8.17746,-2.97946 8.75281,-3.50113 0.17155,-0.22408 0.53567,-0.56718 0.58352,-0.87528 -0.0479,-0.55901 -0.43647,-0.87878 -0.87528,-0.87528 -0.33611,-0.004 -3.02964,1.09234 -6.71049,1.16704 -5.34037,-0.0747 -5.79552,-1.7424 -9.04457,-1.75056 z"
     id="path15-7" /></svg>