<?xml version="1.0" encoding="UTF-8" standalone="no"?>
<!-- Created with Inkscape (http://www.inkscape.org/) -->

<svg
   xmlns:dc="http://purl.org/dc/elements/1.1/"
   xmlns:cc="http://creativecommons.org/ns#"
   xmlns:rdf="http://www.w3.org/1999/02/22-rdf-syntax-ns#"
   xmlns:svg="http://www.w3.org/2000/svg"
   xmlns="http://www.w3.org/2000/svg"
   xmlns:sodipodi="http://sodipodi.sourceforge.net/DTD/sodipodi-0.dtd"
   xmlns:inkscape="http://www.inkscape.org/namespaces/inkscape"
   version="1.1"
   width="385.54614"
   height="340.79999"
   id="svg2"
   xml:space="preserve"
   inkscape:version="0.48.2 r9819"
   sodipodi:docname="UK traffic sign 550.1.svg"><sodipodi:namedview
     pagecolor="#ffffff"
     bordercolor="#666666"
     borderopacity="1"
     objecttolerance="10"
     gridtolerance="10"
     guidetolerance="10"
     inkscape:pageopacity="0"
     inkscape:pageshadow="2"
     inkscape:window-width="640"
     inkscape:window-height="480"
     id="namedview10"
     showgrid="false"
     inkscape:zoom="0.69157509"
     inkscape:cx="192.77619"
     inkscape:cy="170.36249"
     inkscape:window-x="0"
     inkscape:window-y="24"
     inkscape:window-maximized="0"
     inkscape:current-layer="svg2" /><defs
     id="defs11" /><metadata
     id="metadata8"><rdf:RDF><cc:Work
         rdf:about=""><dc:format>image/svg+xml</dc:format><dc:type
           rdf:resource="http://purl.org/dc/dcmitype/StillImage" /></cc:Work></rdf:RDF></metadata><g
     transform="matrix(1.25,0,0,-1.25,-3.4738088,341.06251)"
     id="g10"><path
       d="m 291.21,0.21001 c 6.885,0.15912 13.543,3.8133 17.28,10.2 3.677,6.454 3.512,14.047 0.24,20.16 l -134.28,232.44 c -3.544,5.847 -10.037,9.786 -17.4,9.84 -7.465,-0.054 -13.959,-3.993 -17.52,-9.84 L 5.25,30.57001 c -3.2524,-6.113 -3.4166,-13.706 0.24,-20.16 3.7571,-6.3867 10.415,-10.041 17.28,-10.2 h 268.44"
       inkscape:connector-curvature="0"
       id="path12"
       style="fill:#ec1d24" /><path
       d="M 157.05,238.41 35.01,27.09 H 278.97 L 157.05,238.41"
       inkscape:connector-curvature="0"
       id="path14"
       style="fill:#ffffff" /><path
       d="m 150.81,140.37 c 0,0 -2.707,1.854 -0.12,3 2.093,1.044 1.8,2.64 1.8,2.64 v 3.12 h 2.16 c 0,0 0.301,0.274 0,0.48 -0.27,0.238 -1.68,1.32 -1.68,1.32 0,0 -0.904,5.989 -5.64,6 -4.506,-0.011 -5.28,-4.44 -5.28,-4.44 l -0.36,-4.44 0.84,-0.36 c 0,0 -0.172,-3.088 0.96,-4.32 0.268,-0.308 0.426,-1.196 -0.12,-1.56 -0.595,-0.334 -3.085,-1.586 -4.08,-3.48 -3.809,-7.714 -4.522,-13.485 -4.56,-17.88 0.038,-5.061 0.558,-8.799 1.32,-11.88 0.145,-0.548 0.43,-1.594 -0.84,-1.08 -1.298,0.437 -8.576,2.625 -13.92,2.64 -5.406,-0.015 -11.018,-1.442 -16.92,-3.96 0,0 -2.707,0.283 -4.32,0.24 -7.456,0.043 -10.31,-0.972 -13.32,-4.32 -3.206,-3.598 -5.853,-7.875 -5.88,-13.68 0.027,-7.484 -2.431,-14.349 -7.68,-14.4 -0.57,0.051 -1.44,0.48 -1.44,0.48 0,0 1.536,-3.378 6.48,-3.36 9.062,-0.018 13.019,13.973 12.48,18.96 -1.109,9.989 6.93,12.89 9.6,12.96 0,0 -2.67,-5.349 -2.64,-12.12 -0.03,-6.833 3.394,-12.35 3.24,-14.88 -0.036,-2.607 -1.08,-4.44 -1.08,-4.44 0,0 -3.047,-1.83 -3.36,-2.04 -0.352,-0.266 -0.781,-0.551 -0.72,-1.8 0,0 0.551,-13.305 0,-16.44 -0.346,-1.86 -0.917,-2.431 -1.2,-2.64 -0.288,-0.267 -0.478,-0.433 -0.36,-0.84 0.072,-0.307 -0.284,-1.448 -1.2,-1.44 -0.892,-0.008 -2.88,0.96 -2.88,0.96 0,0 -1.318,-4.226 0.48,-8.52 0,0 0.438,-0.249 1.44,-0.24 2.97,-0.009 5.689,1.696 6.96,4.32 0.433,0.784 0.433,1.902 0.12,2.64 -0.258,0.832 -0.186,1.64 -0.12,2.4 0.077,0.763 0.916,8.684 0.96,9.12 0.038,0.478 0.044,1.108 0.6,1.56 2.107,1.969 2.01,2.087 2.76,5.04 0.259,0.794 0.84,2.52 0.84,2.52 0,0 9.44,4.299 9.96,4.56 0.494,0.247 1.192,0.278 1.44,0 0.133,-0.166 0.513,-0.578 0.12,-1.32 -0.431,-0.653 -1.858,-2.999 -2.04,-3.48 -0.464,-1.587 -0.567,-1.992 0.72,-4.2 3.014,-4.996 4.989,-12.041 5.16,-16.92 0.034,-0.659 0.163,-2.679 2.4,-2.4 0.844,0.091 1.89,0.218 2.28,-0.24 0.371,-0.43 0.245,-0.81 0.24,-1.2 -0.059,-0.435 0.1,-3.384 0.96,-4.44 0.408,-0.181 6.052,-0.466 7.44,-0.36 0.46,0.114 0.607,1.069 0.24,1.68 -2.751,4.806 -4.526,7.34 -8.88,10.08 -1.593,1.045 -1.75,1.908 -1.8,4.44 -0.179,3.408 -0.88,5.935 -1.44,9.48 -0.099,0.628 -0.447,1.39 0.6,2.64 1.624,2.173 2.189,5.658 1.92,9.48 -0.019,0.495 0.045,0.875 0.48,1.2 0.694,0.522 1.665,1.233 2.28,2.28 0.202,0.471 0.773,0.852 1.68,0.36 0.932,-0.46 9.969,-4.835 22.92,-4.8 10.975,-0.035 17.64,2.64 17.64,2.64 0,0 -0.454,-4.355 0.12,-7.44 0.112,-0.801 -0.079,-1.039 -0.36,-1.44 -3.978,-6.901 -4.316,-9.256 -4.32,-14.04 0.004,-0.843 -0.155,-3.633 -0.84,-4.68 -0.774,-1.046 -1.63,-2.695 -1.8,-3.24 -0.147,-0.47 -0.527,-1.706 0.72,-2.52 1.289,-0.709 1.479,-0.835 1.44,-1.8 0.039,-0.874 -0.024,-0.811 -0.24,-1.2 0,0 -1.179,-1.45 -1.56,-2.16 0,0 2.03,-1.129 4.68,-1.08 2.677,-0.049 3.946,0.712 4.44,0.96 0.393,0.196 0.806,0.449 0.36,1.2 -0.506,0.771 -3.042,4.767 -3.36,5.4 -0.703,1.305 -0.887,1.815 -0.84,3.36 -0.047,0.637 0,2.52 0,2.52 0,0 -0.111,0.336 0.36,1.2 1.579,2.724 4.239,7.827 6.72,10.92 0.863,0.995 2.005,2.803 2.04,4.92 0.038,2.679 1.8,5.67 2.88,6.72 0.446,0.359 1.334,0.93 2.4,0 1.09,-1.037 9.7,-8.219 11.88,-10.56 2.8,-2.965 4.08,-4.371 5.16,-7.8 0.27,-0.846 0.762,-2.4 0.84,-3.12 0.19,-1.25 0.234,-2.082 0.84,-2.88 0.382,-0.459 1.428,-1.41 0.48,-1.92 -1.018,-0.505 -1.684,-0.854 -2.64,-1.92 0,0 -0.427,-2.513 3.12,-6.24 0.373,-0.495 0.839,-0.18 1.32,0.48 0.92,1.209 3.232,6.688 3.48,9.12 0.108,0.592 0.266,1.353 -0.48,2.76 -0.776,1.383 -4.169,8.169 -4.44,8.76 -0.236,0.487 -0.522,1.502 -0.6,2.4 -0.09,1.632 -1.265,3.818 -2.28,4.92 -0.591,0.683 -10.357,10.798 -10.56,11.16 -0.99,1.129 -1.141,1.735 -0.48,3.36 1.137,3.096 1.507,8.058 1.56,8.88 -0.053,0.653 -0.116,2.112 0.84,3.12 1.484,1.59 4.493,6.757 5.4,13.68 0.017,0.469 0.114,1.051 0.72,1.08 0.312,0.055 0.502,-0.167 0.72,-0.36 1.108,-1.132 2.22,-2.292 3.96,-2.76 0.484,-0.186 1.942,-0.599 1.8,-1.92 -0.175,-1.279 -0.777,-4.64 1.68,-5.88 0,0 0.619,0.986 0.84,1.2 0,0 1.554,-1.26 2.16,-1.44 0.663,-0.201 1.392,-0.233 1.8,0.6 0.417,0.753 1.051,2.56 1.2,2.88 0.168,0.251 0.517,0.917 0.12,2.4 -0.364,1.498 -1.696,6.349 -1.68,11.64 -0.016,1.432 0.364,4.001 0.36,5.04 0.004,1.053 -1.771,5.588 -1.92,6 -0.168,0.412 -0.327,1.269 0.96,1.32 1.25,0.012 1.44,0 1.44,0 0,0 -1.427,1.059 -1.68,1.08 -0.254,0.105 -0.73,0.454 -0.36,0.84 0.328,0.439 0.677,0.882 0.84,1.32 0.217,0.324 0.09,1.18 -0.96,0.72 -1.106,-0.365 -5.324,-1.982 -5.64,-2.16 -0.318,-0.139 -0.793,-0.298 -1.8,-0.24 -1.086,0.133 -1.308,0.418 -4.44,0.36 -5.438,0.058 -10.686,-1.749 -13.2,-3.48 -5.237,-3.437 -9.511,-6.308 -13.8,-10.68 -0.262,-0.178 -0.976,-0.844 -1.92,-0.36 -0.863,0.562 -1.529,0.515 -2.28,0.48 -0.676,0.035 -1.58,0.225 -2.4,0.96 -0.797,0.787 -4.84,4.117 -5.4,4.44 -0.582,0.438 -1.152,0.675 -1.08,2.64 0.269,5.026 -1.17,10.426 -2.28,14.4 -0.218,0.806 -0.234,1.821 -1.68,2.76"
       inkscape:connector-curvature="0"
       id="path16" /><path
       d="m 155.01,115.05 c -0.37,0.131 -1.169,0.464 -1.56,0.12 -0.322,-0.417 0.13,-1.297 0.24,-1.56 0.223,-0.213 2.149,-4.113 2.4,-4.68 0.177,-0.527 0.867,-1.597 2.16,-0.6 1.228,0.905 2.179,1.5 2.76,1.68 0.466,0.295 0.703,1.033 0.12,1.2 -0.558,0.261 -0.915,0.618 -1.2,1.08 -0.238,0.394 -0.904,0.893 -1.2,0.96 -0.37,0.123 -3.581,1.741 -3.72,1.8"
       inkscape:connector-curvature="0"
       id="path18"
       style="fill:#ffffff" /></g></svg>