<svg width="681" height="602.12" fill-rule="evenodd" xmlns="http://www.w3.org/2000/svg"><path d="m46.019 601.088-38.971-67.5L301.529 23.532h77.942l294.481 510.056-38.971 67.5" fill="#e31017"/><circle cx="340.5" cy="46.032" r="45" fill="#e31017"/><circle cx="634.981" cy="556.088" r="45" fill="#e31017"/><circle cx="46.019" cy="556.088" r="45" fill="#e31017"/><path d="M72 541.088 340.5 76.032 609 541.088" fill="#fff"/><path style="fill:#000;fill-opacity:1;fill-rule:evenodd;stroke:none;stroke-width:.21983" d="M349.758 157.488c-15.122-.055-26.403 12.034-26.379 27.04-.024 9.257 9.658 22.675 10.55 23.742.806.971 1.994 5.388-1.099 6.375-7.417 2.517-18.575 5.907-27.039 11.431-2.482 1.51-7.408 3.888-8.353 9.012L268.42 358.854s-7.236.378-7.254 6.375c.018 4.365 1.1 4.615 1.1 4.615s-14.5 1.15-19.125-.219c-4.548-1.178-6.46-3.981-2.86-7.475 3.788-3.642 6.21-8.483 6.157-13.85.053-5.334-6.317-18.329-18.467-18.245-12.055-.084-18.68 10.745-18.685 17.806.005 7.209 4.082 12.815 5.717 14.51 1.679 1.618 2.952 4.035-1.54 6.155-17.296 8.463-19.935 17.968-22.203 38.689-.568 5.947-.952 34.484-.66 36.713.218 2.358 3.405 7.455 8.795 7.474 5.311-.02 7.731-3.332 7.693-5.935.038-2.493-2-3.768-2.857-4.617-.926-.935-1.947-3.354-1.32-5.276.647-1.9 4.342-23.43 4.177-25.06.802-.663 2.967-4.358 4.176-6.596 6.984 13.044 1.98 35.553-.879 52.1-.456 2.243-.584 3.645 3.078 4.617.033 1.194 0 46.824 0 46.824s-.35 3.29-1.1 3.957c-.779.862-2.817 2.646-2.857 4.397.04 1.816 1.442 2.579 2.64 2.636 1.35-.057 2.115-.692 2.857-1.097.787-.614 7.474-5.278 7.474-5.278s2.355-2.218 3.076-5.496l7.256-33.414s-.076-2.035 1.537-3.515c1.442-1.323 2.464-2.215 3.3-2.64.947-.34 2.22-.72 2.196 1.1.025 1.746 0 40.008 0 40.008s.153 2.123 1.32 3.078c1.126 1.082 12.081 8.216 12.53 8.793.316.443 2.1.952 2.639.88.481.072 2.773-.69 2.857-2.637-.084-1.876-1.103-2.896-1.758-3.739-.618-.94-3.168-4.125-3.517-4.615-.414-.274-2.116-2.74-1.1-6.596.43-1.45 5.4-28.585 5.496-31.435 1.559-.463 13.025-5.43 9.232-18.904l-14.289-58.916s-1.622-3.623 1.54-4.836c13.739-4.947 21.764-8.641 33.193-17.147 1.28-1.06 5.26-4.744-1.979-9.892l34.074-87.053-2.197 94.967s-.43 5.897 0 10.55l10.111 124.426s-.223 1.758-.879 2.637c-.617.905-4.822 7.15-5.275 7.695-.565.472-1.331 1.746-.88 2.858.314.927 1.587 2.837 3.077 2.857 1.568-.02 2.333-.783 3.518-1.318l18.467-13.631s2.642-1.505 2.857-6.815c0 0 .666-38.217 1.54-61.771.793-27.193 2.45-34.327 8.353-60.893l3.957 52.319s.969 23.676.879 25.5c.09 11.902.394 37.69-1.76 49.463-.444 2.094.194 2.22.66 2.636.552.603 12.273 11.814 12.75 12.531.54.813 2.453 1.831 3.297 1.758.938.073 4.763-1.073 4.838-3.297-.075-.833-.206-1.98-.881-3.078-.853-1.196-2.253-3.617-2.418-3.957-.345-.424-.855-1.06-.44-3.297.35-2.095 9.776-81.25 10.332-83.535.464-2.132 3.522-51.732 3.518-57.375.005-5.568-8.49-91.01-8.574-92.33 0 0 21.15 26.701 21.105 64.631.044 5.995-.555 14.839-.88 16.268-.097 1.108-.266 2.975-.88 4.175-.406 1.179-1.764 4.916-1.757 7.475-.007 2.537 2.2 10.86 11.43 10.771 5.038.088 10.22-6.11 10.113-10.11.107-4.153-.997-6.617-1.54-7.255-.477-.72-.987-3.95-.22-7.256.593-3.148 2.122-25.57 2.199-31.214-.077-20.64-7.552-55.507-12.531-77.16-.594-2.949-3.853-9.093-8.133-11.872-12.251-8.461-23.141-15.153-35.832-17.367-2.014-.237-6.261-1.935-2.639-7.475 3.513-5.671 9.968-14.845 9.893-24.62.075-9.59-6.89-25.556-25.5-25.5z"/></svg>