<?xml version="1.0" encoding="UTF-8" standalone="no"?>
<!-- Created with Inkscape (http://www.inkscape.org/) -->

<svg
   xmlns:dc="http://purl.org/dc/elements/1.1/"
   xmlns:cc="http://creativecommons.org/ns#"
   xmlns:rdf="http://www.w3.org/1999/02/22-rdf-syntax-ns#"
   xmlns:svg="http://www.w3.org/2000/svg"
   xmlns="http://www.w3.org/2000/svg"
   xmlns:inkscape="http://www.inkscape.org/namespaces/inkscape"
   version="1.1"
   width="212.42"
   height="212.39"
   id="svg2"
   xml:space="preserve"><metadata
     id="metadata8"><rdf:RDF><cc:Work
         rdf:about=""><dc:format>image/svg+xml</dc:format><dc:type
           rdf:resource="http://purl.org/dc/dcmitype/StillImage" /></cc:Work></rdf:RDF></metadata><defs
     id="defs6"><clipPath
       id="clipPath16"><path
         d="M 0.059998,169.98 H 170 V 0.06 H 0.059998 v 169.92 z"
         inkscape:connector-curvature="0"
         id="path18" /></clipPath></defs><g
     transform="matrix(1.25,0,0,-1.25,-0.074998,212.47)"
     id="g10"><g
       id="g12"><g
         clip-path="url(#clipPath16)"
         id="g14"><path
           d="m 85,169.98 c 46.918,0 85,-38.076 85,-84.986 C 170,38.079 131.92,0 85,0 38.078,0 0,38.079 0,84.989 c 0,46.91 38.078,84.986 85,84.986"
           inkscape:connector-curvature="0"
           id="path20"
           style="fill:#ec1d24;fill-rule:evenodd" /></g></g><path
       d="m 85,152.98 c 37.535,0 68,-30.459 68,-67.99 C 153,47.454 122.54,17 85,17 47.465,17 17,47.454 17,84.989 c 0,37.531 30.465,67.99 68,67.99"
       inkscape:connector-curvature="0"
       id="path22"
       style="fill:#ffffff;fill-rule:evenodd" /><path
       d="m 109.94,88.299 h 25.067 l -0.004,0.008 c 0.496,0.084 0.867,0.568 0.867,1.145 h 0.145 v 7.92 h -0.145 c 0,0.576 -0.371,1.06 -0.867,1.144 l 0.004,0.008 H 109.94 c -0.562,0 -1.007,-0.516 -1.007,-1.152 v -7.92 c 0,-0.635 0.445,-1.153 1.007,-1.153 m -28.242,9.073 v -7.92 c 0,-0.635 0.52,-1.153 1.156,-1.153 h 11.235 c 0.636,0 1.152,0.518 1.152,1.153 v 7.92 c 0,0.636 -0.516,1.152 -1.152,1.152 H 82.854 c -0.636,0 -1.156,-0.516 -1.156,-1.152 m 27.09,-24.489 c 2.223,0 4.031,-1.804 4.031,-4.031 0,-2.227 -1.808,-4.031 -4.031,-4.031 -2.23,0 -4.039,1.804 -4.039,4.031 0,2.227 1.809,4.031 4.039,4.031 m 0,3.75 c 4.211,0 7.629,-3.422 7.629,-7.637 0,-4.214 -3.418,-7.636 -7.629,-7.636 -4.219,0 -7.637,3.422 -7.637,7.636 0,4.215 3.418,7.637 7.637,7.637 m -65.84,-3.75 c 2.227,0 4.031,-1.804 4.031,-4.031 0,-2.227 -1.804,-4.031 -4.031,-4.031 -2.23,0 -4.035,1.804 -4.035,4.031 0,2.227 1.805,4.031 4.035,4.031 m 0,3.75 c 4.215,0 7.633,-3.422 7.633,-7.637 0,-4.214 -3.418,-7.636 -7.633,-7.636 -4.219,0 -7.637,3.422 -7.637,7.636 0,4.215 3.418,7.637 7.637,7.637 m -14.84,20.883 h 8.93 l 10.23,-10.66 h -19.16 v 10.66 z M 62.965,81.383 c 0,1.008 -0.864,2.016 -1.872,2.16 -2.449,0.289 -4.609,1.442 -6.199,3.168 l -9.652,9.942 c -3.309,3.459 -7.488,5.332 -12.242,5.332 h -5.621 l -0.864,-0.721 -0.429,-0.865 v -0.867 l 0.429,-1.297 -0.144,-1.871 -0.285,-2.016 0.14,-1.728 0.289,-1.729 -0.289,-1.871 0.578,-2.596 -0.433,-1.297 0.144,-1.439 v -1.152 l 0.289,-1.153 -0.433,-1.152 0.433,-1.727 -0.433,-2.304 -0.145,-0.723 0.145,-1.297 0.578,-1.297 -0.145,-1.008 -0.433,-1.296 v -0.864 l 0.289,-0.574 -0.289,-1.152 h 7.926 v 0.863 c 0,4.898 3.886,8.789 8.785,8.789 4.758,0 8.644,-3.891 8.644,-8.789 v -0.863 l 11.239,0.863 h 37.316 c 0,4.75 3.887,8.645 8.645,8.645 4.75,0 8.5,-3.895 8.5,-8.645 h 20.742 c 3.601,0 6.34,2.879 6.34,6.34 v 21.316 c 0,5.043 -3.606,9.364 -8.645,10.084 0.145,0 -6.051,1.008 -12.68,1.584 -7.347,0.576 -15.129,0.576 -15.129,0.576 0,0 -7.199,-0.144 -14.257,-0.72 -6.918,-0.432 -13.832,-1.44 -13.832,-1.44 -4.754,-0.72 -8.5,-5.041 -8.5,-10.084 V 75.192 c 0,-1.442 0.429,-2.598 1.296,-3.895 h -9.796 v 10.086"
       inkscape:connector-curvature="0"
       id="path24"
       style="fill:#231f20;fill-rule:evenodd" /></g></svg>