<svg xmlns="http://www.w3.org/2000/svg" width="681" height="602.12" fill-rule="evenodd"><path d="m46.019 601.088-38.971-67.5L301.529 23.532h77.942l294.481 510.056-38.971 67.5" fill="#e31017"/><circle cx="340.5" cy="46.032" r="45" fill="#e31017"/><circle cx="634.981" cy="556.088" r="45" fill="#e31017"/><circle cx="46.019" cy="556.088" r="45" fill="#e31017"/><path d="M72 541.088 340.5 76.032 609 541.088" fill="#fff"/><path d="M325.5 509.428v-246.68l15-8.66 15 8.66v246.68l-15 8.66"/><path d="m241.185 460.748 213.63-123.34v-17.32l-15-8.66-213.63 123.34v17.32"/><path d="m439.815 460.748-213.63-123.34v-17.32l15-8.66 213.63 123.34v17.32"/><path d="m340.5 450.767 43.301 25v17.321l-15 8.66-28.301-16.34-28.301 16.34-15-8.66v-17.321M340.5 286.768l28.301-16.34 15 8.66v17.321l-43.301 25-43.301-25v-17.321l15-8.66m-57.713 165.32-28.301-16.339v-17.321l15-8.66 43.301 25v49.999l-15 8.66-15-8.66m172.028-32.679 28.301-16.339v-17.321l-15-8.66-43.301 25v49.999l15 8.66 15-8.67M254.486 336.428v-32.679l15-8.66 15 8.66v49.999l-43.301 25-15-8.66v-17.321m200.329-16.339v-32.679l-15-8.66-15 8.66v49.999l43.301 25 15-8.66v-17.321"/></svg>