<svg width="681" height="602.12" fill-rule="evenodd" xmlns="http://www.w3.org/2000/svg"><path d="m46.019 601.088-38.971-67.5L301.529 23.532h77.942l294.481 510.056-38.971 67.5" fill="#e31017"/><circle cx="340.5" cy="46.032" r="45" fill="#e31017"/><circle cx="634.981" cy="556.088" r="45" fill="#e31017"/><circle cx="46.019" cy="556.088" r="45" fill="#e31017"/><path d="M72 541.088 340.5 76.032 609 541.088" fill="#fff"/><path d="M231.856 370.154c-8.558-.085-15.557 6.915-15.576 15.576v25.668s1.247 9.497 10.311 9.433v6.143h-47.605c-9.16-.07-18.849 5.11-24.132 11.846l-23.474 41.244c-3.367 5.942-2.852 14.26-2.852 14.26s1.76 26.751 30.275 26.764H478c9.227-.013 18.917-5.192 24.132-11.847l23.693-41.462c3.216-5.806 2.633-14.04 2.633-14.04s-1.692-26.835-30.055-26.765H342.863v-6.143c9.146.065 10.31-9.433 10.31-9.433v-5.704l110.568-16.015-1.535-11.627-109.032 7.24c-.138-8.42-7.062-15.223-15.576-15.138" style="fill:#000;fill-opacity:1;fill-rule:evenodd;stroke:none;stroke-width:.21938"/></svg>