<?xml version="1.0" encoding="UTF-8" standalone="no"?>
<!-- Created with Inkscape (http://www.inkscape.org/) -->

<svg
   xmlns:dc="http://purl.org/dc/elements/1.1/"
   xmlns:cc="http://creativecommons.org/ns#"
   xmlns:rdf="http://www.w3.org/1999/02/22-rdf-syntax-ns#"
   xmlns:svg="http://www.w3.org/2000/svg"
   xmlns="http://www.w3.org/2000/svg"
   xmlns:sodipodi="http://sodipodi.sourceforge.net/DTD/sodipodi-0.dtd"
   xmlns:inkscape="http://www.inkscape.org/namespaces/inkscape"
   version="1.1"
   width="360.26767"
   height="318.20004"
   id="svg2816"
   xml:space="preserve"
   inkscape:version="0.48.4 r9939"
   sodipodi:docname="AJAX.svg"><metadata
     id="metadata81"><rdf:RDF><cc:Work
         rdf:about=""><dc:format>image/svg+xml</dc:format><dc:type
           rdf:resource="http://purl.org/dc/dcmitype/StillImage" /><dc:title></dc:title></cc:Work></rdf:RDF></metadata><sodipodi:namedview
     pagecolor="#ffffff"
     bordercolor="#666666"
     borderopacity="1"
     objecttolerance="10"
     gridtolerance="10"
     guidetolerance="10"
     inkscape:pageopacity="0"
     inkscape:pageshadow="2"
     inkscape:window-width="1920"
     inkscape:window-height="1057"
     id="namedview79"
     showgrid="false"
     fit-margin-top="0.1"
     fit-margin-left="0.1"
     fit-margin-right="0.1"
     fit-margin-bottom="0.1"
     inkscape:zoom="1.4142136"
     inkscape:cx="133.50916"
     inkscape:cy="240.80027"
     inkscape:window-x="-8"
     inkscape:window-y="-8"
     inkscape:window-maximized="1"
     inkscape:current-layer="svg2816" /><defs
     id="defs2820"><clipPath
       id="clipPath2832"><path
         d="m -0.24,595.138 317.48,0 0,-595.276 -317.48,0 0,595.276 z"
         id="path2834"
         inkscape:connector-curvature="0" /></clipPath><clipPath
       id="clipPath2840"><path
         d="m 0.03,595.32 317.46,0 0,-595.32 -317.46,0 0,595.32 z"
         id="path2842"
         inkscape:connector-curvature="0" /></clipPath><clipPath
       id="clipPath2858"><path
         d="m -0.24,595.138 317.48,0 0,-595.276 -317.48,0 0,595.276 z"
         id="path2860"
         inkscape:connector-curvature="0" /></clipPath><clipPath
       id="clipPath2864"><path
         d="m 0.03,595.32 317.46,0 0,-595.32 -317.46,0 0,595.32 z"
         id="path2866"
         inkscape:connector-curvature="0" /></clipPath><clipPath
       id="clipPath3306"><path
         d="m 199.238,472.977 0,-29.74 29.744,0 0,29.74"
         id="path3308"
         inkscape:connector-curvature="0" /></clipPath><clipPath
       id="clipPath3322"><path
         d="m -0.24,595.138 317.48,0 0,-595.276 -317.48,0 0,595.276 z"
         id="path3324"
         inkscape:connector-curvature="0" /></clipPath><clipPath
       id="clipPath3330"><path
         d="m 0.03,595.32 317.46,0 0,-595.32 -317.46,0 0,595.32 z"
         id="path3332"
         inkscape:connector-curvature="0" /></clipPath><clipPath
       id="clipPath3344"><path
         d="m 88.233,387.221 0,-28.335 32.08,0 0,28.335"
         id="path3346"
         inkscape:connector-curvature="0" /></clipPath><clipPath
       id="clipPath3462"><path
         d="m -0.24,595.138 317.48,0 0,-595.276 -317.48,0 0,595.276 z"
         id="path3464"
         inkscape:connector-curvature="0" /></clipPath><clipPath
       id="clipPath3470"><path
         d="m 0.03,595.32 317.46,0 0,-595.32 -317.46,0 0,595.32 z"
         id="path3472"
         inkscape:connector-curvature="0" /></clipPath><clipPath
       id="clipPath3490"><path
         d="m -0.24,595.138 317.48,0 0,-595.276 -317.48,0 0,595.276 z"
         id="path3492"
         inkscape:connector-curvature="0" /></clipPath><clipPath
       id="clipPath3496"><path
         d="m 0.03,595.32 317.46,0 0,-595.32 -317.46,0 0,595.32 z"
         id="path3498"
         inkscape:connector-curvature="0" /></clipPath><clipPath
       id="clipPath3520"><path
         d="m 254.788,326.215 0,-28.309 28.326,0 0,28.309"
         id="path3522"
         inkscape:connector-curvature="0" /></clipPath><clipPath
       id="clipPath3544"><path
         d="m 145.049,326.142 0,-28.333 28.342,0 0,28.333"
         id="path3546"
         inkscape:connector-curvature="0" /></clipPath><clipPath
       id="clipPath3682"><path
         d="m -0.24,595.138 317.48,0 0,-595.276 -317.48,0 0,595.276 z"
         id="path3684"
         inkscape:connector-curvature="0" /></clipPath><clipPath
       id="clipPath3690"><path
         d="m 0.03,595.32 317.46,0 0,-595.32 -317.46,0 0,595.32 z"
         id="path3692"
         inkscape:connector-curvature="0" /></clipPath><clipPath
       id="clipPath3980"><path
         d="m -0.24,595.138 317.48,0 0,-595.276 -317.48,0 0,595.276 z"
         id="path3982"
         inkscape:connector-curvature="0" /></clipPath><clipPath
       id="clipPath3988"><path
         d="m 0.03,595.32 317.46,0 0,-595.32 -317.46,0 0,595.32 z"
         id="path3990"
         inkscape:connector-curvature="0" /></clipPath><clipPath
       id="clipPath4010"><path
         d="m -0.24,595.138 317.48,0 0,-595.276 -317.48,0 0,595.276 z"
         id="path4012"
         inkscape:connector-curvature="0" /></clipPath><clipPath
       id="clipPath4016"><path
         d="m 0.03,595.32 317.46,0 0,-595.32 -317.46,0 0,595.32 z"
         id="path4018"
         inkscape:connector-curvature="0" /></clipPath><clipPath
       id="clipPath4062"><path
         d="m 200.163,177.773 0,-28.284 28.283,0 0,28.284"
         id="path4064"
         inkscape:connector-curvature="0" /></clipPath><clipPath
       id="clipPath4090"><path
         d="m 34.886,177.515 0,-51.632 30.367,0 0,51.632"
         id="path4092"
         inkscape:connector-curvature="0" /></clipPath><clipPath
       id="clipPath4106"><path
         d="m 34.886,177.515 0,-51.632 30.367,0 0,51.632"
         id="path4108"
         inkscape:connector-curvature="0" /></clipPath><clipPath
       id="clipPath4272"><path
         d="m 34.886,177.515 0,-51.632 30.367,0 0,51.632"
         id="path4274"
         inkscape:connector-curvature="0" /></clipPath><clipPath
       id="clipPath4304"><path
         d="m 254.653,176.442 0,-48.167 28.317,0 0,48.167"
         id="path4306"
         inkscape:connector-curvature="0" /></clipPath><clipPath
       id="clipPath4310"><path
         d="m 253.565,177.983 31.181,0 0,-49.183 -31.181,0 0,49.183 z"
         id="path4312"
         inkscape:connector-curvature="0" /></clipPath><clipPath
       id="clipPath4316"><path
         d="m -0.24,595.138 317.48,0 0,-595.276 -317.48,0 0,595.276 z"
         id="path4318"
         inkscape:connector-curvature="0" /></clipPath><clipPath
       id="clipPath4322"><path
         d="m 0.03,595.32 317.46,0 0,-595.32 -317.46,0 0,595.32 z"
         id="path4324"
         inkscape:connector-curvature="0" /></clipPath><clipPath
       id="clipPath4456"><path
         d="m -0.24,595.138 317.48,0 0,-595.276 -317.48,0 0,595.276 z"
         id="path4458"
         inkscape:connector-curvature="0" /></clipPath><clipPath
       id="clipPath4464"><path
         d="m 0.03,595.32 317.46,0 0,-595.32 -317.46,0 0,595.32 z"
         id="path4466"
         inkscape:connector-curvature="0" /></clipPath></defs><path
     style="fill:#ec1d24;fill-opacity:1;fill-rule:evenodd;stroke:none"
     d="m 23.977595,318.10005 c -8.5855,0 -16.45648,-4.5216 -20.6875,-11.90625 -4.25346,-7.37342 -4.25346,-16.47912 0,-23.875 L 159.44633,11.975053 c 4.27593,-7.3734197 12.09803,-11.87499967 20.59375,-11.87499967 0.0312,0 0.0625,-1.2e-4 0.0937,0 0.0312,-1.2e-4 0.0625,0 0.0937,0 8.49572,0 16.31784,4.50157997 20.59375,11.87499967 L 356.97758,282.3188 c 4.25347,7.39588 4.25347,16.50158 0,23.875 -4.23102,7.38465 -12.10199,11.90625 -20.6875,11.90625 z"
     id="path3101"
     inkscape:connector-curvature="0"
     sodipodi:nodetypes="scccscscccss" /><path
     inkscape:connector-curvature="0"
     style="fill:#ffffff;fill-opacity:1;fill-rule:evenodd;stroke:none"
     id="path3121"
     d="m 322.51284,286.28316 -284.757835,0 L 180.13399,39.806513 z"
     sodipodi:nodetypes="cccc" /><path
     inkscape:connector-curvature="0"
     style="fill:#000000;fill-rule:nonzero;stroke:none"
     d="m 208.45939,143.90521 c 4.29214,0.13188 10.63551,-2.71242 10.50363,-11.37956 0.13188,-8.68232 -7.59629,-12.83848 -12.25433,-12.83848 -4.81908,0 -13.27615,3.71849 -13.13025,11.67135 -0.1459,1.08659 0.13773,3.98109 -1.45892,4.66854 -15.3805,7.35294 -31.67368,23.42788 -36.47294,47.26893 0,0 -10.62793,-1.9351 -10.50422,-12.25491 -0.12372,-5.54273 2.60622,-12.84781 4.66855,-16.33987 0.61157,-1.26051 0.77031,-1.88026 2.91783,-2.33427 2.72293,-0.31047 10.7423,-3.30066 10.79599,-12.83848 -0.0537,-9.41527 -9.24021,-13.20613 -12.83847,-13.13027 -5.51356,-0.0759 -13.38587,3.64263 -13.42205,13.42205 0.0361,3.4162 1.62464,5.54389 -0.29179,7.29459 -9.77008,9.93464 -41.972941,36.59783 -42.017415,98.91463 l 9.628865,0 -1.75071,29.76192 18.38295,0 c 0,0 1.86858,-0.24394 1.7507,-1.16714 0.11788,-0.97221 -0.68394,-1.4811 -1.16713,-1.7507 -0.39099,-0.16807 -8.46231,-3.5014 -8.46231,-3.5014 -0.67822,-0.31163 -1.99007,-0.60341 -1.16714,-3.5014 l 5.54448,-19.84128 6.12745,0 10.50421,30.0537 40.55791,0 c 0,0 1.32354,-0.97222 1.45892,-1.7507 -0.13538,-0.68043 -0.71779,-1.33521 -1.16714,-1.45892 -0.42599,-0.31396 -5.30929,-2.50118 -5.83565,-2.91783 -0.49487,-0.16691 -2.17205,-0.60342 -1.16713,-3.5014 0.89052,-2.78828 3.51541,-24.22038 3.20961,-28.88658 2.27474,6.41574 8.27615,19.51449 11.08778,36.76473 0.007,1.06909 0.29878,1.58031 1.45891,1.45892 l 18.09059,0 c 0,0 1.81723,-0.0246 1.7507,-1.16714 0.0665,-1.33637 -0.66293,-1.8464 -1.16713,-2.04248 -0.66178,-0.2416 -6.34805,-2.0635 -7.2946,-2.33427 -0.94887,-0.45869 -1.96895,-0.53105 -2.33426,-3.79318 -0.51004,-3.00771 -10.89753,-52.32496 -10.796,-61.27455 -0.10153,-17.13703 8.80954,-30.48206 11.96313,-33.84689 0.5649,-0.7248 0.89286,-1.05276 1.45892,-1.16714 0.7458,0.11438 1.62115,0.77147 1.7507,1.16714 6.09595,10.80999 22.25901,24.77475 27.13529,28.59479 1.11111,0.97104 0.47268,1.84639 0.29178,2.04249 -0.18207,0.24158 -0.91153,0.89635 -0.87535,1.75069 -0.0361,1.04109 0,1.45892 0,1.45892 l 3.5014,-0.29178 c 0,0 -0.056,-1.74838 0.87535,-2.04248 0,0 2.29225,1.77054 4.96032,2.62604 l -11.08777,70.02805 3.20962,0.58357 11.67134,-70.02805 c 0,0 3.4734,-0.084 3.5014,-3.20961 -0.028,-2.36345 -2.51402,-3.83754 -2.62605,-4.08498 -15.4587,-9.78641 -30.85144,-29.82145 -35.30522,-51.35391 -0.29646,-2.22222 1.74486,-3.61578 2.91783,-3.5014 0.99557,-0.11438 2.18021,0.13188 2.91783,0 z"
     id="path15" /><path
     inkscape:connector-curvature="0"
     style="fill:#ffffff;fill-rule:nonzero;stroke:none"
     d="m 153.02052,195.84269 c -3.68932,-1.11345 -8.18396,-3.30066 -10.796,-5.83567 -0.76331,-0.83919 -1.85341,-1.98413 -3.20963,-2.04248 -4.47595,0.0584 -5.63374,19.47712 -5.54388,21.30019 -0.0898,9.93113 5.83568,36.76473 5.83568,36.76473 l -3.20963,0 3.79319,20.71663 c 0,0 0.0338,1.36554 1.45892,2.04249 1.63749,0.63609 8.19795,3.2598 8.7535,3.5014 0.46453,0.19607 1.55812,0.77964 2.0425,-0.87535 0.68161,-1.40757 4.69188,-16.82541 4.66854,-34.43047 0.0233,-17.60505 -3.91341,-27.44633 -3.79319,-36.18115 -0.12022,-0.58708 0,-4.96032 0,-4.96032 z"
     id="path17" /></svg>