<svg width="683" height="604" xmlns="http://www.w3.org/2000/svg"><path style="fill:#e31837;fill-opacity:1;stroke:none;stroke-width:1px;stroke-linecap:butt;stroke-linejoin:miter;stroke-opacity:1" d="m-849.211 874.813 294.448-510h77.943l294.448 510-38.97 67.5H-810.24z" transform="translate(857.291 -340.313)"/><path style="fill:#fff;stroke:none;stroke-width:50;stroke-linecap:square;stop-color:#000" transform="matrix(1.02277 0 0 1.02277 915.892 306.822)" d="M-299.114 229.943H-824.1l262.493-454.65z"/><path style="fill:#e31837;fill-opacity:1;stroke:none;stroke-width:50;stroke-linecap:square;stop-color:#000" transform="rotate(-150 383.052 -285.012)" d="M298.032-593.318a45 45 0 0 1-22.5 38.97 45 45 0 0 1-45 0l22.5-38.97z"/><path style="fill:#e31837;fill-opacity:1;stroke:none;stroke-width:50;stroke-linecap:square;stop-color:#000" transform="rotate(-30 -206.386 -1769.884)" d="M-595.345 666.424a45 45 0 0 1-22.5 38.971 45 45 0 0 1-45 0l22.5-38.97z"/><path style="fill:#e31837;fill-opacity:1;stroke:none;stroke-width:50;stroke-linecap:square;stop-color:#000" transform="scale(-1 1) rotate(-30 -1063.678 1429.571)" d="M298.032 1182.216a45 45 0 0 1-22.5 38.97 45 45 0 0 1-45 0l22.5-38.97z"/><path style="fill:#000;stroke:none;stroke-width:.660407;stroke-linecap:round;stroke-linejoin:round;stroke-miterlimit:10;stroke-dasharray:none;stroke-opacity:1" d="m418.431 1595.729-.109-2.091-.331-2.092-.495-2.036-.715-1.98-.881-1.927-1.1-1.816-1.266-1.651-1.376-1.596-1.597-1.376-1.65-1.266-1.816-1.1-1.926-.88-1.982-.716-2.036-.495-2.092-.33-2.09-.11-2.092.11-2.091.33-2.037.495-1.98.716-1.927.88-1.816 1.1-1.652 1.266-1.596 1.376-1.375 1.596-1.266 1.651-1.101 1.816-.88 1.926-.716 1.981-.495 2.036-.33 2.092-.11 2.09.11 2.092.33 2.091.495 2.036.715 1.982.881 1.87 1.1 1.817 1.267 1.706 1.375 1.54 1.596 1.431 1.652 1.266 1.816 1.046 1.926.935 1.981.716 2.037.495 2.091.33 2.091.11 2.091-.11 2.092-.33 2.036-.495 1.982-.716 1.926-.935 1.816-1.046 1.65-1.266 1.597-1.43 1.376-1.541 1.266-1.706 1.1-1.816.881-1.871.715-1.982.495-2.036.331-2.091zm-55.366-153.374-.33-1.376-.55-1.32-.716-1.211-.935-1.046-1.046-.935-1.21-.77-1.267-.551-1.376-.33-1.43-.164-1.431.11-1.376.274-1.321.55-1.21.716-2.092 1.32-2.202 1.101-2.256.936-2.367.77-2.421.55-2.477.276-2.476.11-2.477-.056-2.422-.33-2.421-.55-2.367-.716-2.311-.936-2.202-1.155-2.091-1.32-1.981-1.487-1.817-1.65-1.706-1.817-1.486-1.981-1.376-2.036-2.476 1.376-2.587 1.155-2.642.99-2.751.772-2.752.55-2.807.33-2.862.11-2.807-.11-2.806-.33-2.807-.55-2.697-.771-2.697-.99-2.531-1.156-2.477-1.376-2.367-1.596-2.256-1.706-2.091-1.926-1.927-2.036-1.76-2.256-2.973.77-2.972.55-2.972.33-3.027.11-3.027-.055-3.026-.275-2.973-.495-2.916-.716-2.917-.88-2.807-1.046-2.752-1.266-2.642-1.486-2.531-1.65-2.422-1.762-2.311-1.98-2.147-2.147-1.981-2.256-1.871-2.367-1.651-2.531-1.541-2.642-1.321-2.696-1.1-2.807-.937-2.862-.77-2.916-.495-2.972-.33-3.027-.164-3.027.109-3.026.275-2.972.495-2.972.716-2.971.88-2.862 1.101-2.807 1.266-2.751 1.431-2.642 1.651-2.531 1.816-2.422 1.982-2.31 2.091-2.147 2.311-1.981 2.367-1.871 2.531-1.651 2.587-1.486 2.752-1.321 2.807-1.156 2.862-.936 2.917-.715 2.971-.55 3.028-.33 3.026-.11 3.027.11 2.972.275 2.972.495 2.972.715 2.862.881 2.807 1.101 2.752 1.266 2.641 1.485 2.532 1.651 2.422 1.817 2.311 1.98 2.146 2.092 1.982 2.256 1.816 2.422 3.302-.276 3.247-.055 3.302.164 3.248.44 3.192.605 3.192.881 3.082 1.046 2.971 1.32 2.917 1.486 2.807 1.706 2.697 1.871 2.532 2.091 2.366 2.257 2.257 2.366 2.036 2.587 1.871 2.696 3.963 1.266 3.852 1.541 3.798 1.706 3.687 1.926 3.578 2.091 3.467 2.311 3.302 2.477 3.192 2.641 3.082 2.807 2.917 2.972 2.697 3.137 2.586 3.246 2.367 3.412 2.201 3.523 2.037 3.632 1.816 3.742 1.596 3.797 1.431 3.907 1.21 4.018.991 4.017.77 4.072.551 4.128.33 4.127.11 4.182v12.988h-20.804v-14.804zm-126.032 39.623h-54.595v-20.802h-61.09v26.03h23.39v38.963h-36.379v45.511h13.1l-.937 2.476-.77 2.587-.55 2.641-.33 2.642-.11 2.696.11 2.697.33 2.641.55 2.642.77 2.531.991 2.532 1.156 2.421 1.376 2.257 1.596 2.2 1.706 2.037 1.926 1.926 2.036 1.706 2.202 1.596 2.311 1.32 2.367 1.212 2.532.99 2.586.715 2.587.55 2.697.331 2.641.164 2.697-.164 2.697-.33 2.587-.55 2.586-.716 2.477-.99 2.422-1.211 2.311-1.32 2.201-1.597 2.037-1.706 1.926-1.926 1.706-2.036 1.596-2.201 1.376-2.257 1.156-2.42.99-2.533.771-2.53.55-2.643.33-2.64.11-2.698-.11-2.696-.33-2.642-.55-2.641-.77-2.587-.936-2.476h10.622l-.991 2.476-.77 2.587-.55 2.641-.331 2.642-.11 2.696.165 2.697.33 2.641.55 2.642.77 2.531.936 2.532 1.21 2.421 1.376 2.257 1.542 2.2 1.761 2.037 1.872 1.926 2.09 1.706 2.147 1.596 2.312 1.32 2.421 1.212 2.477.99 2.587.715 2.641.55 2.642.331 2.697.164 2.697-.164 2.641-.33 2.642-.55 2.587-.716 2.476-.99 2.422-1.211 2.312-1.32 2.146-1.597 2.091-1.706 1.871-1.926 1.762-2.036 1.54-2.201 1.376-2.257 1.211-2.42.936-2.533.77-2.53.55-2.643.33-2.64.167-2.698-.109-2.696-.33-2.642-.55-2.641-.771-2.587-.99-2.476h10.621l-.935 2.476-.77 2.587-.551 2.641-.33 2.642-.11 2.696.11 2.697.33 2.641.55 2.642.77 2.531.991 2.532 1.211 2.421 1.376 2.257 1.541 2.2 1.706 2.037 1.926 1.926 2.036 1.706 2.202 1.596 2.312 1.32 2.421 1.212 2.477.99 2.586.715 2.642.55 2.642.331 2.697.164 2.641-.164 2.697-.33 2.587-.55 2.587-.716 2.531-.99 2.367-1.211 2.311-1.32 2.202-1.597 2.036-1.706 1.926-1.926 1.706-2.036 1.596-2.201 1.376-2.257 1.156-2.42.99-2.533.771-2.53.55-2.643.33-2.64.11-2.698-.11-2.696-.33-2.642-.55-2.641-.715-2.587-.991-2.476h98.9v-23.389h-12.99v-66.313h-18.216v-5.173l.11-1.046.275-.99.495-.88.66-.771.77-.66.937-.496.935-.275 1.046-.11v-10.4h-41.607v10.4l.99.11.99.275.882.496.825.66.605.77.496.88.33.991.054 1.046v5.173h-81.893v-3.907l-.109-2.036-.33-2.037-.496-1.926-.77-1.926-.88-1.816-1.157-1.706-1.265-1.596-1.431-1.43-1.596-1.321-1.706-1.101H246.83l-1.706 1.1-1.596 1.321-1.431 1.431-1.32 1.596-1.102 1.706-.935 1.816-.716 1.926-.55 1.926-.33 2.037-.11 2.036zm134.563 113.75-.11-2.09-.274-2.092-.496-2.036-.715-1.98-.936-1.927-1.046-1.816-1.265-1.651-1.431-1.596-1.541-1.376-1.707-1.266-1.816-1.1-1.87-.88-1.982-.716-2.037-.495-2.09-.33-2.092-.11-2.146.11-2.037.33-2.091.495-1.982.716-1.87.88-1.817 1.1-1.706 1.266-1.541 1.376-1.431 1.596-1.21 1.651-1.101 1.816-.881 1.926-.716 1.981-.55 2.036-.275 2.092-.11 2.09.11 2.092.275 2.091.55 2.036.716 1.982.88 1.87 1.101 1.817 1.21 1.706 1.432 1.54 1.541 1.431 1.706 1.266 1.816 1.046 1.871.935 1.982.716 2.091.495 2.037.33 2.146.11 2.091-.11 2.091-.33 2.037-.495 1.981-.716 1.871-.935 1.816-1.046 1.707-1.266 1.54-1.43 1.432-1.541 1.265-1.706 1.046-1.816.936-1.871.715-1.982.496-2.036.275-2.091z" transform="translate(77.14 -1095.19)"/></svg>