<?xml version="1.0" encoding="UTF-8" standalone="no"?>
<!-- Created with Inkscape (http://www.inkscape.org/) -->

<svg
   xmlns:dc="http://purl.org/dc/elements/1.1/"
   xmlns:cc="http://creativecommons.org/ns#"
   xmlns:rdf="http://www.w3.org/1999/02/22-rdf-syntax-ns#"
   xmlns:svg="http://www.w3.org/2000/svg"
   xmlns="http://www.w3.org/2000/svg"
   xmlns:sodipodi="http://sodipodi.sourceforge.net/DTD/sodipodi-0.dtd"
   xmlns:inkscape="http://www.inkscape.org/namespaces/inkscape"
   version="1.1"
   width="240.58624"
   height="212.57375"
   id="svg2"
   xml:space="preserve"
   inkscape:version="0.48.2 r9819"
   sodipodi:docname="UK traffic sign 550.2.svg"><sodipodi:namedview
     pagecolor="#ffffff"
     bordercolor="#666666"
     borderopacity="1"
     objecttolerance="10"
     gridtolerance="10"
     guidetolerance="10"
     inkscape:pageopacity="0"
     inkscape:pageshadow="2"
     inkscape:window-width="640"
     inkscape:window-height="480"
     id="namedview13"
     showgrid="false"
     inkscape:zoom="1.1098049"
     inkscape:cx="120.29375"
     inkscape:cy="106.25"
     inkscape:window-x="0"
     inkscape:window-y="24"
     inkscape:window-maximized="0"
     inkscape:current-layer="svg2" /><metadata
     id="metadata8"><rdf:RDF><cc:Work
         rdf:about=""><dc:format>image/svg+xml</dc:format><dc:type
           rdf:resource="http://purl.org/dc/dcmitype/StillImage" /></cc:Work></rdf:RDF></metadata><defs
     id="defs6"><clipPath
       id="clipPath16"><path
         d="M 0,170.12 H 192.47 V 0.06 H 0 v 170.06 z"
         inkscape:connector-curvature="0"
         id="path18" /></clipPath></defs><g
     transform="matrix(1.25,0,0,-1.25,-0.00125,212.64875)"
     id="g10"><g
       id="g12"><g
         clip-path="url(#clipPath16)"
         id="g14"><path
           d="M 107.33,163.63 190.74,19.16 c 1.153,-2.016 1.731,-4.18 1.731,-6.484 C 192.471,5.617 187.141,0 180.081,0 H 12.821 C 5.7647,0 0.001,5.617 0.001,12.672 c 0,2.304 0.57618,4.468 1.7285,6.343 l 83.416,144.62 c 2.302,4.037 6.626,6.484 11.091,6.484 4.612,0 8.787,-2.447 11.092,-6.484"
           inkscape:connector-curvature="0"
           id="path20"
           style="fill:#ec1d24;fill-rule:evenodd" /></g></g><path
       d="m 20.168,17 h 152.13 L 96.234,148.8 20.166,17"
       inkscape:connector-curvature="0"
       id="path22"
       style="fill:#ffffff;fill-rule:evenodd" /><path
       d="m 86.871,47.101 2.881,0.43 c -1.152,1.875 -1.584,3.602 -1.584,5.762 0,2.886 0.863,5.476 2.883,7.636 -0.432,0.43 -1.012,0.719 -1.731,0.719 -0.72,0 -1.441,-0.429 -1.873,-1.148 -1.008,-2.883 -1.152,-3.602 -1.152,-6.633 0,0 0.144,-2.156 0.576,-6.766 M 57.195,31.687 c 0,-5.039 4.034,-9.074 9.076,-9.074 5.042,0 9.077,4.035 9.077,9.074 0,5.043 -4.035,9.075 -9.077,9.075 -5.042,0 -9.076,-4.032 -9.076,-9.075 m 2.016,0 c 0,-3.89 3.168,-7.058 7.06,-7.058 3.889,0 7.061,3.168 7.061,7.058 0,3.891 -3.172,7.059 -7.061,7.059 -3.892,0 -7.06,-3.168 -7.06,-7.059 m 4.752,0 c 0,-1.293 1.014,-2.3 2.308,-2.3 1.153,0 2.161,1.007 2.161,2.3 0,1.297 -1.008,2.305 -2.161,2.305 -1.294,0 -2.308,-1.008 -2.308,-2.305 m -23.912,8.5 -1.008,-1.73 c 2.881,-1.008 4.752,-3.742 4.752,-6.77 0,-3.89 -3.168,-7.058 -7.059,-7.058 -1.728,0 -3.312,0.574 -4.609,1.73 l -1.008,-1.73 c 1.729,-1.293 3.457,-2.016 5.617,-2.016 5.043,0 9.077,4.035 9.077,9.074 0,3.746 -2.305,7.059 -5.762,8.5 m -5.332,-9.359 c 0.289,-0.867 1.152,-1.441 2.017,-1.441 1.295,0 2.307,1.007 2.307,2.3 0,1.297 -1.012,2.305 -2.307,2.305 H 36.447 L 34.719,30.828 z M 102,25.062 c -1.297,0.289 -2.305,0.719 -3.172,1.727 v 1.875 l -0.144,0.14 c -0.145,0 -0.286,0.145 -0.286,0.438 -1.007,3.168 -2.019,5.039 -4.322,7.488 -0.144,0.145 -0.289,0.434 -0.289,0.574 0,0.29 0.145,0.434 0.289,0.579 1.44,1.582 2.447,3.312 3.315,5.332 -1.731,-2.02 -3.459,-3.75 -5.62,-5.192 -0.72,-0.574 -1.298,-1.437 -1.298,-2.301 0.291,-2.738 0.578,-5.472 0.722,-8.066 v -0.723 c -0.144,0 -0.144,-0.144 -0.144,-0.285 0,-0.148 0.144,-0.433 0.289,-0.578 0.576,-0.719 1.008,-1.586 1.008,-2.594 -1.297,0.145 -2.596,0.578 -3.748,1.153 0,0.144 0.144,0.433 0.144,0.722 0,0.575 -0.289,1.149 -0.865,1.582 0,0 -0.143,0.145 0,0.289 0.144,1.293 0.289,2.598 0.289,4.036 0,3.457 0.145,2.445 -0.863,5.906 v 0.43 c 0,0.429 0.142,0.863 0.431,1.152 1.295,1.152 2.16,2.16 3.028,3.457 0.431,0.578 0.576,1.012 0.576,1.586 0,0.433 0,0.719 -0.145,1.008 L 86.871,44.222 C 86.439,43.359 85.863,42.351 85,41.625 c -0.145,-0.281 -0.576,-0.43 -0.863,-0.43 -1.297,0 -1.586,1.297 -1.586,2.164 v 0.43 L 77.652,43.07 V 39.754 H 74.34 c -2.164,2.164 -5.045,3.316 -8.069,3.316 -3.027,0 -5.908,-1.152 -8.068,-3.316 H 44.805 c -1.01,1.008 -2.305,1.73 -3.602,2.308 l 10.805,18.723 h 12.68 c 0.72,0 1.439,0.289 2.16,0.574 0.289,0.149 0.431,0.289 0.431,0.578 0.145,1.008 0.289,1.875 0.289,2.883 v 0.43 c 0,0.289 -0.144,0.578 -0.431,0.578 -0.721,0.289 -1.01,0.434 -1.442,0.867 -0.287,0.141 -0.431,0.43 -0.431,0.863 v 0.145 c 0.72,3.023 2.304,5.617 4.607,7.633 0,0.14 0.145,0.14 0.145,0.429 0,0 0,0.145 -0.145,0.29 -0.576,0.574 -0.863,1.437 -0.863,2.16 0,1.875 1.584,3.316 3.312,3.316 1.875,0 3.459,-1.441 3.459,-3.316 0,-1.012 -0.576,-2.02 -1.295,-2.594 -0.144,0 -0.144,-0.145 -0.144,-0.145 0,-0.14 0,-0.14 0.144,-0.14 1.153,-1.156 1.871,-2.738 2.016,-4.321 v -3.023 c -0.145,-0.434 0.287,-0.867 0.719,-1.008 1.152,-0.289 2.304,-0.578 3.457,-1.015 0.144,0 0.431,0 0.72,0.148 0.288,0 0.581,-0.289 0.581,-0.578 0.142,-0.289 0.287,-0.434 0.287,-0.719 v -0.148 c -0.145,-0.575 -0.58,-1.008 -1.157,-1.008 -0.144,0 -0.287,0 -0.431,0.148 -3.024,0.43 -3.457,0.575 -6.049,1.867 0.576,-2.156 1.728,-3.742 3.602,-5.039 0.863,-0.574 1.294,-1.582 1.294,-2.589 v -7.782 c 0,-0.574 0.432,-1.007 1.008,-1.007 0.576,0 0.865,-0.434 0.865,-1.008 0,-0.434 -0.289,-0.723 -0.576,-0.864 -0.576,-0.144 -1.152,-0.144 -1.728,-0.144 -0.576,0 -0.863,0 -1.44,0.144 v -1.441 l 5.043,0.723 c 0.432,6.91 0.721,8.5 3.6,14.976 0.289,0.867 1.297,1.586 2.305,1.586 0.431,0 0.863,-0.144 1.296,-0.433 0.723,-0.286 1.444,-0.575 2.307,-1.008 1.152,0.722 2.592,1.008 4.033,1.008 0.866,0 1.873,-0.145 2.737,-0.434 3.172,-0.859 6.195,-1.148 9.511,-1.148 5.907,0 8.356,6.339 11.954,9.937 1.156,1.442 2.738,2.738 4.609,3.457 0.726,0.434 1.016,0.574 1.59,1.297 0.718,0.719 1.441,1.582 2.16,2.449 v -1.008 c 0,-0.867 0,-1.441 -0.145,-2.304 0.719,-0.434 1.297,-0.867 1.727,-1.727 0.289,-0.434 0.723,-0.722 1.152,-1.008 0.864,-0.437 1.586,-1.156 1.727,-2.019 0.144,-0.434 0.144,-0.434 0.433,-0.864 2.309,-3.601 1.301,-2.304 4.614,-5.187 0.285,-0.43 0.574,-0.719 0.574,-1.297 -0.145,-0.289 -0.145,-0.578 0,-0.863 0,-0.434 -0.145,-0.723 -0.43,-1.008 -0.144,-0.145 -0.433,-0.289 -0.578,-0.434 -0.43,0 -0.719,0 -1.152,0.145 h -0.285 c -0.289,0 -0.289,0 -0.579,-0.145 h -1.007 c -0.575,0 -1.157,0.434 -1.446,0.868 -0.429,0.718 -0.429,0.718 -1.152,1.293 0,0 -0.285,0.144 -0.43,0.144 h -0.144 c -1.442,0 -2.735,0.43 -3.746,1.152 -1.008,-2.878 -1.008,-5.761 -0.285,-8.64 0.144,-0.863 0.285,-1.875 0.285,-2.738 0,-2.305 -0.575,-4.18 -1.867,-6.196 0.285,-1.867 0.718,-3.742 1.148,-5.761 0.144,-0.723 0.434,-1.153 0.867,-1.583 0.285,-0.289 0.43,-0.722 0.43,-1.156 v -0.429 c -0.145,-0.145 -0.145,0 -0.145,-0.29 0,-0.289 0,-0.429 0.145,-0.574 0.144,-0.289 0.289,-0.574 0.289,-0.863 0,-0.289 -0.145,-0.434 -0.289,-0.719 -1.153,-2.304 -1.871,-4.754 -2.016,-7.351 0,-0.289 0,-0.575 -0.144,-1.008 V 26.5 c 0,-0.43 -0.285,-0.86 -0.723,-0.86 0,0 -0.141,0 -0.141,0.141 -0.148,-1.152 -0.867,-2.16 -1.734,-2.734 -0.43,2.593 -0.141,1.582 -1.148,4.031 0.14,0.144 0.429,0.289 0.718,0.578 0.43,0.285 0.578,0.574 0.578,1.008 v 0.285 h -0.148 c 0,0.145 0.148,0.145 0.148,0.293 0.286,0.145 0.575,0.289 0.86,0.43 0.148,0.148 0.148,0.289 0.148,0.433 v 7.633 c -1.156,0.863 -2.453,1.727 -3.601,2.738 h -0.145 c -0.289,-1.297 -0.574,-2.593 -1.008,-4.035 -1.152,-4.32 -1.007,-3.023 -1.007,-7.637 V 28.23 c 0.144,-0.144 0.144,-0.289 0.144,-0.574 0,-0.578 -0.144,-1.008 -0.578,-1.297 0.867,-0.719 1.297,-1.73 1.297,-2.883 v -0.14 c -1.297,0.14 -2.594,0.429 -3.75,1.008 0.289,0.429 0.433,1.007 0.433,1.437 0,0.578 -0.144,0.867 -0.433,1.297 v 0.289 c 0,0.141 0,0.289 0.148,0.43 0.285,0.433 0.578,1.007 0.578,1.59 0.141,6.335 0.141,6.48 0.141,6.48 0,0.43 -0.141,0.863 -0.285,1.297 -1.012,1.867 -1.59,3.598 -2.164,5.617 0,0.145 -0.285,0.289 -0.434,0.289 h -1.871 c -2.879,0 -5.762,0.43 -8.5,1.152 h -0.285 c -0.289,0 -0.723,-0.144 -0.723,-0.574 -0.285,-0.722 -0.574,-1.156 -1.008,-1.73 -1.441,-1.301 -2.882,-2.739 -4.324,-4.18 -0.14,-0.144 -0.14,-0.289 -0.14,-0.434 0,-0.14 0,-0.289 0.14,-0.289 0.578,-0.859 1.008,-1.867 1.297,-2.734 0.145,-0.43 0,-0.289 0.289,-0.578 0.578,-1.008 1.297,-2.156 2.02,-3.309 0.144,-0.289 0.285,-0.574 0.285,-0.863 0,-0.289 -0.141,-0.582 -0.285,-0.867 -0.145,0 -0.145,0 -0.145,-0.149 h 0.145 c 0.574,-1.148 0.863,-2.3 0.863,-3.453"
       inkscape:connector-curvature="0"
       id="path24"
       style="fill:#000000;fill-rule:evenodd" /></g></svg>