<svg xmlns="http://www.w3.org/2000/svg" width="360.268" height="318.2" xml:space="preserve"><path style="fill:#ec1d24;fill-opacity:1;fill-rule:evenodd;stroke:none" d="M336.29 318.1c8.586 0 16.457-4.522 20.688-11.906 4.253-7.374 4.253-16.48 0-23.875L200.82 11.975A23.766 23.766 0 0 0 180.228.1h-.188a23.766 23.766 0 0 0-20.594 11.875L3.29 282.319c-4.253 7.396-4.253 16.501 0 23.875 4.231 7.384 12.102 11.906 20.688 11.906z"/><path style="fill:#fff;fill-opacity:1;fill-rule:evenodd;stroke:none" d="M322.513 286.283H37.755L180.134 39.807z"/><path style="fill:#000;fill-rule:nonzero;stroke:none" d="M219.417 202.558v73.525h32.095V191.18c.114-14.68-11.857-26.65-26.551-26.55-6.319-.1-12.064 2.042-16.631 5.543l-46.683 42.014v-63.604L145.6 132.826l-16.047 15.756v74.692c-.114 14.908 11.858 26.88 26.55 26.842 6.32.037 12.065-2.105 16.632-5.835l46.682-41.723z"/></svg>