<svg xmlns="http://www.w3.org/2000/svg" width="240.764" height="212.65" xml:space="preserve"><path style="fill:#ec1d24;fill-rule:evenodd" d="M224.738 212.65c5.766 0 10.986-3.056 13.863-8.105 2.885-4.859 2.885-10.977 0-15.845L134 7.9A15.84 15.84 0 0 0 120.294 0a15.842 15.842 0 0 0-13.715 7.9L2.164 188.7c-2.885 4.867-2.885 10.986 0 15.845 2.877 5.049 8.097 8.105 13.863 8.105h208.712z"/><path style="fill:#fff;fill-opacity:1;fill-rule:evenodd" d="M25.213 191.4h190.35L120.476 26.475 25.212 191.4"/><path style="fill:#000;fill-rule:evenodd" d="m79.24 137.386-5.586 2.695c-2.52-4.677-2.52-11.884 5.587-16.02 7.92-3.784 13.143 2.159 14.223 4.678 1.26 2.348 3.237 7.207-3.598 18.188l9.9-4.863 2.34 4.863-19.448 9.365-2.339-4.862c5.577-9.903 9.722-15.665 7.744-19.625-1.084-2.349-4.145-3.784-7.206-2.163-3.058 1.445-3.058 5.044-1.616 7.744M107.868 117.22c2.705-1.44 6.304-1.26 9.903 5.763 3.427 6.834 1.8 10.263-1.437 11.884-3.06 1.436-6.84.537-10.087-6.308-3.238-7.023-1.26-10.079 1.621-11.339m-2.52-5.049c3.785-1.977 12.423-3.417 18.009 8.291 5.58 11.524-.181 17.286-4.503 19.444-4.14 1.983-12.426 3.056-18.007-8.462-5.763-11.704.722-17.465 4.501-19.273M128.576 102.635c1.26-.539 2.886-.361 4.507 2.7 1.621 3.243.899 4.679-.542 5.401-1.617.718-3.243.362-4.683-2.881-1.621-3.059-.722-4.5.718-5.22m-1.26-2.16c1.802-.901 5.767-1.624 8.286 3.779 2.701 5.222 0 7.917-1.978 8.821-1.982 1.079-5.766 1.621-8.285-3.78-2.7-5.4.18-8.1 1.978-8.82M149.288 110.555c1.259-.541 2.88-.361 4.501 2.7 1.622 3.243.904 4.688-.536 5.406-1.626.718-3.247.357-4.687-2.881-1.622-3.061-.538-4.507.722-5.225m-1.08-2.162c1.616-.9 5.581-1.617 8.101 3.778 2.7 5.23 0 7.93-1.977 8.829-1.988 1.079-5.766 1.44-8.286-3.78-2.7-5.405.36-8.105 2.162-8.827M135.238 131.088l7.026-38.538 3.42-1.799-7.022 38.705-3.424 1.632M35.476 183.841l166.037-.18-36.375-63.199-129.662 63.38"/><path style="fill:none;stroke:#000;stroke-width:.17999999;stroke-miterlimit:10" d="m35.476 183.841 166.037-.18-36.375-63.199-129.662 63.38z"/></svg>