<?xml version="1.0" encoding="utf-8"?>
<!-- Generator: Adobe Illustrator 16.0.3, SVG Export Plug-In . SVG Version: 6.00 Build 0)  -->
<!DOCTYPE svg PUBLIC "-//W3C//DTD SVG 1.1//EN" "http://www.w3.org/Graphics/SVG/1.1/DTD/svg11.dtd">
<svg version="1.1" id="Layer_1" xmlns="http://www.w3.org/2000/svg" xmlns:xlink="http://www.w3.org/1999/xlink" x="0px" y="0px"
	 width="173.446px" height="173.43px" viewBox="0 0 173.446 173.43" enable-background="new 0 0 173.446 173.43"
	 xml:space="preserve">
<path fill-rule="evenodd" clip-rule="evenodd" fill="#FFFFFF" d="M86.721,0.85c47.398,0,85.875,38.469,85.875,85.867
	c0,47.395-38.477,85.863-85.875,85.863S0.85,134.112,0.85,86.717C0.85,39.319,39.323,0.85,86.721,0.85"/>
<path fill="none" stroke="#00703C" stroke-width="1.7" stroke-miterlimit="10" d="M86.721,0.85
	c47.398,0,85.875,38.469,85.875,85.867c0,47.395-38.477,85.863-85.875,85.863S0.85,134.112,0.85,86.717
	C0.85,39.319,39.323,0.85,86.721,0.85"/>
<path fill-rule="evenodd" clip-rule="evenodd" fill="#00703C" d="M86.721,5.03c45.016,0,81.547,36.594,81.547,81.688
	c0,45.09-36.531,81.688-81.547,81.688S5.174,131.807,5.174,86.717C5.174,41.624,41.706,5.03,86.721,5.03"/>
<path fill-rule="evenodd" clip-rule="evenodd" fill="#FFFFFF" d="M69.002,98.506v-4.18H52.147v-8.785h25.074v32.848h-8.363v-5.184
	c-1.152,1.438-3.313,6.766-14.551,6.766c-13.398,0-27.375-10.66-27.375-30.395c0-19.883,14.262-30.543,27.664-30.543
	c11.672,0,18.73,6.48,22.91,12.246l-8.359,5.617c-3.746-5.184-6.918-8.789-14.551-8.789c-7.492,0-17.148,6.195-17.148,22.477
	c0.148,13.543,9.508,20.457,17.148,20.457C63.385,111.042,68.573,103.834,69.002,98.506"/>
<path fill-rule="evenodd" clip-rule="evenodd" fill="#FFFFFF" d="M118.854,68.252c11.816,0,17.578,11.672,17.578,21.035
	s-5.617,21.609-17.578,21.609c-11.953,0-17.578-12.246-17.578-21.609S107.186,68.252,118.854,68.252 M118.854,59.034
	c15.129,0,28.094,12.535,28.094,30.254c0,17.578-12.242,30.684-28.094,30.684c-15.703,0-27.953-13.105-27.953-30.684
	C90.901,71.569,103.729,59.034,118.854,59.034"/>
</svg>
