<svg xmlns="http://www.w3.org/2000/svg" width="600" height="600" xml:space="preserve"><defs><clipPath id="a"><path d="M.015 205.28h205.27V0H.015v205.28z"/></clipPath></defs><path d="M0 0c56.41 0 102.14-45.731 102.14-102.14 0-56.41-45.731-102.14-102.14-102.14-56.411 0-102.14 45.731-102.14 102.14S-56.411 0 0 0" style="fill:#fff;fill-rule:nonzero" transform="matrix(2.9228 0 0 -2.9228 300.001 1.461)"/><g clip-path="url(#a)" transform="matrix(2.9228 0 0 -2.9228 0 600)"><path d="M0 0c56.41 0 102.14-45.731 102.14-102.14 0-56.41-45.731-102.14-102.14-102.14-56.411 0-102.14 45.731-102.14 102.14S-56.411 0 0 0z" style="fill:none;stroke:#1477c6;stroke-width:1;stroke-linecap:butt;stroke-linejoin:miter;stroke-miterlimit:4;stroke-dasharray:none" transform="translate(102.642 204.783)"/></g><path d="m0 0 15.486 1.371c2.055-9.73 8.908-16.172 19.049-16.172 10.826 0 16.856 6.578 16.856 15.898 0 7.948-4.797 13.567-12.197 13.567H27.408v13.292h7.538c7.4 0 15.485 6.441 15.485 14.39 0 8.359-4.385 13.567-15.074 13.567-10.141 0-18.227-4.934-20.008-17.679L0 40.016c1.919 30.149 33.438 30.149 33.438 30.149 31.519 0 33.712-22.612 33.712-26.723 0 0 0-15.759-10.963-21.378 11.786-4.523 11.786-19.46 11.786-19.46 0-18.089-10.69-31.657-32.616-31.657C13.704-29.053 2.467-17.952 0 0" style="fill:#231f20;fill-rule:nonzero" transform="matrix(2.9228 0 0 -2.9228 66.09 357.92)"/><path d="M0 0c-23.435 0-37.275 20.282-37.275 50.157 0 29.738 13.704 50.979 37.275 50.979 22.2 0 38.781-20.967 38.781-50.979C38.781 28.775 28.777-.004 0-.004" style="fill:#231f20;fill-rule:nonzero" transform="matrix(2.9228 0 0 -2.9228 435.99 445.639)"/><path d="M0 0c15.348 0 21.515 12.06 21.515 35.494 0 20.967-7.126 36.042-21.379 36.042-13.155 0-21.378-12.333-21.378-36.042C-21.242 13.43-15.075 0 0 0" style="fill:#fff;fill-rule:nonzero" transform="matrix(2.9228 0 0 -2.9228 437.192 402.782)"/><path d="M0 0c56.41 0 102.14-45.731 102.14-102.14 0-56.41-45.731-102.14-102.14-102.14-56.411 0-102.14 45.731-102.14 102.14S-56.411 0 0 0" style="fill:#fff;fill-rule:nonzero" transform="matrix(2.9228 0 0 -2.9228 300.001 1.461)"/><path d="M300 1.463c164.875 0 298.538 133.662 298.538 298.537 0 164.875-133.663 298.538-298.538 298.538S1.463 464.875 1.463 300 135.125 1.463 300 1.463z" style="fill:none;stroke:#0079c1;stroke-width:2.92279458;stroke-linecap:butt;stroke-linejoin:miter;stroke-miterlimit:4;stroke-opacity:1;stroke-dasharray:none"/><path d="M300 13.763c158.088 0 286.238 128.15 286.238 286.237 0 158.088-128.15 286.238-286.238 286.238-158.087 0-286.237-128.15-286.237-286.238 0-158.087 128.15-286.237 286.237-286.237" style="fill:#0079c1;fill-opacity:1;fill-rule:nonzero"/><path d="m0 0 15.486 1.371c2.055-9.73 8.908-16.172 19.049-16.172 10.826 0 16.856 6.578 16.856 15.898 0 7.948-4.797 13.567-12.197 13.567H27.408v13.292h7.538c7.4 0 15.485 6.441 15.485 14.39 0 8.359-4.385 13.567-15.074 13.567-10.141 0-18.227-4.934-20.008-17.679L0 40.016c1.919 30.149 33.438 30.149 33.438 30.149 31.519 0 33.712-22.612 33.712-26.723 0 0 0-15.759-10.963-21.378 11.786-4.523 11.786-19.46 11.786-19.46 0-18.089-10.69-31.657-32.616-31.657C13.704-29.053 2.467-17.952 0 0" style="fill:#fff;fill-rule:nonzero" transform="matrix(2.9228 0 0 -2.9228 66.09 357.92)"/><path d="M436.013 150.013c-68.894 0-108.948 62.145-108.948 149.062 0 87.319 40.451 146.575 108.948 146.575 84.108 0 113.33-84.095 113.33-146.575 0-87.719-48.444-149.062-113.33-149.062zm1.607 43.696c41.659 0 62.475 44.085 62.475 105.366 0 68.493-18.054 103.686-62.914 103.686-44.06 0-62.036-39.197-62.036-103.686 0-69.296 24.025-105.366 62.475-105.366z" style="fill:#fff;fill-rule:nonzero"/><g style="fill:#ec1d24;fill-opacity:1"><path d="M0 0a98.575 98.575 0 0 0-14.517 14.673l137.78 137.81a98.557 98.557 0 0 0 14.695-14.535L-.002.008" style="fill:#ec1d24;fill-opacity:1;fill-rule:nonzero" transform="matrix(2.9228 0 0 -2.9228 118.65 521.833)"/></g></svg>