<svg width="904" height="399" xmlns="http://www.w3.org/2000/svg"><path style="fill:#e31837;fill-opacity:1;stroke:none;stroke-width:1px;stroke-linecap:butt;stroke-linejoin:miter;stroke-opacity:1" d="m-2543.858 2686.33 165.393-55.132-165.393-55.13-47.435-94.87 94.869-47.434 355.131 118.377 355.132-118.377 94.868 47.434-47.434 94.87-165.393 55.13 165.393 55.13 47.434 94.87-94.868 47.434-355.132-118.377-355.13 118.377-94.87-47.434z" transform="translate(2593.293 -2431.698)"/><path style="fill:#fff;stroke:none;stroke-width:50;stroke-linecap:square;stroke-opacity:1;stop-color:#000" d="m-1794.7 2113.19-346.595 115.53-346.592-115.529-18.972 56.92 270.697 90.233-270.697 90.232 18.972 56.922 346.594-115.531 346.594 115.531 18.974-56.922-270.699-90.232 270.7-90.233z" transform="translate(2593.293 -2060.844)"/></svg>