<?xml version="1.0" encoding="UTF-8" standalone="no"?>
<!-- Created with Inkscape (http://www.inkscape.org/) -->

<svg
   xmlns:dc="http://purl.org/dc/elements/1.1/"
   xmlns:cc="http://creativecommons.org/ns#"
   xmlns:rdf="http://www.w3.org/1999/02/22-rdf-syntax-ns#"
   xmlns:svg="http://www.w3.org/2000/svg"
   xmlns="http://www.w3.org/2000/svg"
   xmlns:sodipodi="http://sodipodi.sourceforge.net/DTD/sodipodi-0.dtd"
   xmlns:inkscape="http://www.inkscape.org/namespaces/inkscape"
   version="1.1"
   width="360.26767"
   height="318.20004"
   id="svg2816"
   xml:space="preserve"
   inkscape:version="0.48.4 r9939"
   sodipodi:docname="AJAX.svg"><metadata
     id="metadata81"><rdf:RDF><cc:Work
         rdf:about=""><dc:format>image/svg+xml</dc:format><dc:type
           rdf:resource="http://purl.org/dc/dcmitype/StillImage" /><dc:title></dc:title></cc:Work></rdf:RDF></metadata><sodipodi:namedview
     pagecolor="#ffffff"
     bordercolor="#666666"
     borderopacity="1"
     objecttolerance="10"
     gridtolerance="10"
     guidetolerance="10"
     inkscape:pageopacity="0"
     inkscape:pageshadow="2"
     inkscape:window-width="1920"
     inkscape:window-height="1057"
     id="namedview79"
     showgrid="false"
     fit-margin-top="0.1"
     fit-margin-left="0.1"
     fit-margin-right="0.1"
     fit-margin-bottom="0.1"
     inkscape:zoom="1.4142136"
     inkscape:cx="133.5091"
     inkscape:cy="80.637523"
     inkscape:window-x="-8"
     inkscape:window-y="-8"
     inkscape:window-maximized="1"
     inkscape:current-layer="svg2816"
     showguides="true"
     inkscape:guide-bbox="true" /><defs
     id="defs2820"><clipPath
       id="clipPath2832"><path
         d="m -0.24,595.138 317.48,0 0,-595.276 -317.48,0 0,595.276 z"
         id="path2834"
         inkscape:connector-curvature="0" /></clipPath><clipPath
       id="clipPath2840"><path
         d="m 0.03,595.32 317.46,0 0,-595.32 -317.46,0 0,595.32 z"
         id="path2842"
         inkscape:connector-curvature="0" /></clipPath><clipPath
       id="clipPath2858"><path
         d="m -0.24,595.138 317.48,0 0,-595.276 -317.48,0 0,595.276 z"
         id="path2860"
         inkscape:connector-curvature="0" /></clipPath><clipPath
       id="clipPath2864"><path
         d="m 0.03,595.32 317.46,0 0,-595.32 -317.46,0 0,595.32 z"
         id="path2866"
         inkscape:connector-curvature="0" /></clipPath><clipPath
       id="clipPath3306"><path
         d="m 199.238,472.977 0,-29.74 29.744,0 0,29.74"
         id="path3308"
         inkscape:connector-curvature="0" /></clipPath><clipPath
       id="clipPath3322"><path
         d="m -0.24,595.138 317.48,0 0,-595.276 -317.48,0 0,595.276 z"
         id="path3324"
         inkscape:connector-curvature="0" /></clipPath><clipPath
       id="clipPath3330"><path
         d="m 0.03,595.32 317.46,0 0,-595.32 -317.46,0 0,595.32 z"
         id="path3332"
         inkscape:connector-curvature="0" /></clipPath><clipPath
       id="clipPath3344"><path
         d="m 88.233,387.221 0,-28.335 32.08,0 0,28.335"
         id="path3346"
         inkscape:connector-curvature="0" /></clipPath><clipPath
       id="clipPath3462"><path
         d="m -0.24,595.138 317.48,0 0,-595.276 -317.48,0 0,595.276 z"
         id="path3464"
         inkscape:connector-curvature="0" /></clipPath><clipPath
       id="clipPath3470"><path
         d="m 0.03,595.32 317.46,0 0,-595.32 -317.46,0 0,595.32 z"
         id="path3472"
         inkscape:connector-curvature="0" /></clipPath><clipPath
       id="clipPath3490"><path
         d="m -0.24,595.138 317.48,0 0,-595.276 -317.48,0 0,595.276 z"
         id="path3492"
         inkscape:connector-curvature="0" /></clipPath><clipPath
       id="clipPath3496"><path
         d="m 0.03,595.32 317.46,0 0,-595.32 -317.46,0 0,595.32 z"
         id="path3498"
         inkscape:connector-curvature="0" /></clipPath><clipPath
       id="clipPath3520"><path
         d="m 254.788,326.215 0,-28.309 28.326,0 0,28.309"
         id="path3522"
         inkscape:connector-curvature="0" /></clipPath><clipPath
       id="clipPath3544"><path
         d="m 145.049,326.142 0,-28.333 28.342,0 0,28.333"
         id="path3546"
         inkscape:connector-curvature="0" /></clipPath><clipPath
       id="clipPath3682"><path
         d="m -0.24,595.138 317.48,0 0,-595.276 -317.48,0 0,595.276 z"
         id="path3684"
         inkscape:connector-curvature="0" /></clipPath><clipPath
       id="clipPath3690"><path
         d="m 0.03,595.32 317.46,0 0,-595.32 -317.46,0 0,595.32 z"
         id="path3692"
         inkscape:connector-curvature="0" /></clipPath><clipPath
       id="clipPath3980"><path
         d="m -0.24,595.138 317.48,0 0,-595.276 -317.48,0 0,595.276 z"
         id="path3982"
         inkscape:connector-curvature="0" /></clipPath><clipPath
       id="clipPath3988"><path
         d="m 0.03,595.32 317.46,0 0,-595.32 -317.46,0 0,595.32 z"
         id="path3990"
         inkscape:connector-curvature="0" /></clipPath><clipPath
       id="clipPath4010"><path
         d="m -0.24,595.138 317.48,0 0,-595.276 -317.48,0 0,595.276 z"
         id="path4012"
         inkscape:connector-curvature="0" /></clipPath><clipPath
       id="clipPath4016"><path
         d="m 0.03,595.32 317.46,0 0,-595.32 -317.46,0 0,595.32 z"
         id="path4018"
         inkscape:connector-curvature="0" /></clipPath><clipPath
       id="clipPath4062"><path
         d="m 200.163,177.773 0,-28.284 28.283,0 0,28.284"
         id="path4064"
         inkscape:connector-curvature="0" /></clipPath><clipPath
       id="clipPath4090"><path
         d="m 34.886,177.515 0,-51.632 30.367,0 0,51.632"
         id="path4092"
         inkscape:connector-curvature="0" /></clipPath><clipPath
       id="clipPath4106"><path
         d="m 34.886,177.515 0,-51.632 30.367,0 0,51.632"
         id="path4108"
         inkscape:connector-curvature="0" /></clipPath><clipPath
       id="clipPath4272"><path
         d="m 34.886,177.515 0,-51.632 30.367,0 0,51.632"
         id="path4274"
         inkscape:connector-curvature="0" /></clipPath><clipPath
       id="clipPath4304"><path
         d="m 254.653,176.442 0,-48.167 28.317,0 0,48.167"
         id="path4306"
         inkscape:connector-curvature="0" /></clipPath><clipPath
       id="clipPath4310"><path
         d="m 253.565,177.983 31.181,0 0,-49.183 -31.181,0 0,49.183 z"
         id="path4312"
         inkscape:connector-curvature="0" /></clipPath><clipPath
       id="clipPath4316"><path
         d="m -0.24,595.138 317.48,0 0,-595.276 -317.48,0 0,595.276 z"
         id="path4318"
         inkscape:connector-curvature="0" /></clipPath><clipPath
       id="clipPath4322"><path
         d="m 0.03,595.32 317.46,0 0,-595.32 -317.46,0 0,595.32 z"
         id="path4324"
         inkscape:connector-curvature="0" /></clipPath><clipPath
       id="clipPath4456"><path
         d="m -0.24,595.138 317.48,0 0,-595.276 -317.48,0 0,595.276 z"
         id="path4458"
         inkscape:connector-curvature="0" /></clipPath><clipPath
       id="clipPath4464"><path
         d="m 0.03,595.32 317.46,0 0,-595.32 -317.46,0 0,595.32 z"
         id="path4466"
         inkscape:connector-curvature="0" /></clipPath></defs><path
     style="fill:#ec1d24;fill-opacity:1;fill-rule:evenodd;stroke:none"
     d="m 23.977595,318.10005 c -8.5855,0 -16.45648,-4.5216 -20.6875,-11.90625 -4.25346,-7.37342 -4.25346,-16.47912 0,-23.875 L 159.44631,11.975043 c 4.27595,-7.3733997 12.09805,-11.87498967 20.59376,-11.87498967 0.0312,0 0.0625,-1.2e-4 0.0937,0 0.0312,-1.2e-4 0.0625,0 0.0937,0 8.49572,0 16.31784,4.50157997 20.59375,11.87498967 L 356.97757,282.3188 c 4.25347,7.39588 4.25347,16.50158 0,23.875 -4.23102,7.38465 -12.10199,11.90625 -20.6875,11.90625 z"
     id="path3101"
     inkscape:connector-curvature="0"
     sodipodi:nodetypes="scccscscccss" /><path
     inkscape:connector-curvature="0"
     style="fill:#ffffff;fill-opacity:1;fill-rule:evenodd;stroke:none"
     id="path3121"
     d="m 37.755005,286.28316 284.757825,0 -142.379,-246.476647 z"
     sodipodi:nodetypes="cccc" /><path
     inkscape:connector-curvature="0"
     style="fill:#000000;fill-rule:nonzero;stroke:none"
     d="m 237.0089,195.64309 c -5.34257,-3.59205 -12.60486,-2.31068 -16.33813,2.91752 -3.6469,5.31222 -2.36668,12.57684 2.91752,16.33811 5.25503,3.61773 12.51966,2.33752 16.33812,-2.91752 3.5617,-5.28538 2.2815,-12.54884 -2.91751,-16.33811 z"
     id="path15" /><path
     inkscape:connector-curvature="0"
     style="fill:#000000;fill-rule:nonzero;stroke:none"
     d="m 295.94223,265.08008 c -1.89173,1.72367 -4.01218,3.10541 -7.58556,3.20928 -10.0141,-0.10387 -8.61836,-10.61278 -22.17316,-10.50307 -13.54077,-0.10971 -12.14738,10.3992 -22.17315,10.50307 -9.9149,-0.10387 -8.52149,-10.61278 -22.17315,-10.50307 -13.44276,-0.10971 -12.05053,10.3992 -21.88141,10.50307 -10.10979,-0.10387 -8.71405,-10.61278 -22.17316,-10.50307 -6.02409,-0.10971 -9.09157,1.90571 -11.37774,4.08452 l 0,-7.29379 c 3.41467,-2.94204 5.44585,-6.71614 11.37774,-6.7103 9.65699,-0.006 8.79809,10.50307 22.17316,10.50307 13.0985,0 12.23959,-10.50891 21.88141,-10.50307 9.85188,-0.006 8.99297,10.50307 22.17315,10.50307 13.29223,0 12.4333,-10.50891 22.17315,-10.50307 9.8519,-0.006 8.98248,10.50307 22.46492,10.50307 1.13784,0 2.26168,-0.0921 3.20927,-0.29175 l -3.79277,-7.00205 c -9.68618,-0.13655 -8.5005,-10.37821 -21.88141,-10.50308 -13.54078,0.12487 -12.14739,10.63494 -22.17316,10.50308 -9.9149,0.13186 -8.52149,-10.37821 -22.17315,-10.50308 -13.44276,0.12487 -12.05053,10.63494 -21.88141,10.50308 -10.10979,0.13186 -8.71405,-10.37821 -22.17316,-10.50308 -6.02409,0.12487 -9.09157,2.14029 -11.37774,4.37629 l 0,-7.29381 c 3.41467,-2.99921 5.44585,-6.77332 11.37774,-6.71029 9.65699,-0.063 8.79809,10.44705 22.17316,10.50307 13.0985,-0.056 12.23959,-10.5661 21.88141,-10.50307 9.85188,-0.063 8.99297,10.44705 22.17315,10.50307 13.29223,-0.056 12.43331,-10.5661 22.17316,-10.50307 7.68942,-0.063 8.84826,6.34034 15.46287,9.04431 l -9.04432,-15.17111 c -1.62214,-0.68387 -3.72275,-1.09933 -6.41855,-1.16701 -13.54078,0.0677 -12.14739,10.57776 -22.17316,10.50308 -9.9149,0.0747 -8.52149,-10.4354 -22.17315,-10.50308 -13.44276,0.0677 -12.05053,10.57776 -21.88141,10.50308 -10.10979,0.0747 -8.71405,-10.4354 -22.17316,-10.50308 -6.02409,0.0677 -9.09157,2.08427 -11.37774,4.37628 l 0,-59.80917 -5.83505,0 c 3.66908,-0.18673 7.22028,-1.91156 9.33607,-5.25154 3.81204,-5.1255 2.5295,-12.38895 -2.62576,-16.04636 -5.38459,-3.72276 -12.64687,-2.44138 -16.33813,2.91752 -3.69006,5.18034 -2.40986,12.44497 2.91753,16.04637 1.90106,1.45876 4.13587,2.14261 6.41854,2.33401 l -43.47107,0 -61.852025,107.36476 111.449885,-0.5835 0,-3.50103 c 3.41467,-2.88484 5.44586,-6.66012 11.37774,-6.7103 9.65699,0.0501 8.79809,10.56027 22.17316,10.50308 13.0985,0.0572 12.23959,-10.4529 21.88141,-10.50308 9.85188,0.0501 8.99297,10.56027 22.17315,10.50308 13.29223,0.0572 12.43331,-10.4529 22.17316,-10.50308 9.85189,0.0501 8.98248,10.56027 22.46491,10.50308 5.44177,0.0572 8.53667,-1.75402 11.08658,-3.79278 l -3.79277,-6.41855 z"
     id="path17" /><path
     inkscape:connector-curvature="0"
     style="fill:#000000;fill-rule:nonzero;stroke:none"
     d="m 240.21817,214.02347 c -0.33844,-0.30809 0.61735,-0.77373 0.87525,-1.167 4.19539,-5.96809 2.74013,-14.22117 -3.20927,-18.38038 -6.02527,-4.22574 -14.27718,-2.77048 -18.38038,3.20927 -0.35826,0.39212 -0.60218,0.7819 -0.87526,1.16701 l -48.13909,-33.84324 c 0.27776,-0.23108 0.57534,-0.61385 0.87525,-0.87526 4.15339,-6.09995 2.69813,-14.35187 -3.20927,-18.67213 -6.06728,-4.06585 -14.31919,-2.6106 -18.38038,3.50102 -0.40144,0.26025 -0.64419,0.6512 -0.87526,1.16701 L 135.77092,139.0432 146.274,123.87208 c 0,0 1.22771,-2.58609 4.95978,-0.87525 3.82896,1.47626 6.06961,1.88705 10.79482,0.87525 l 20.7144,-4.08452 c 0,0 9.42592,-2.39471 19.83915,4.95978 l 21.2979,14.87936 c 0,0 5.35072,2.79615 5.25154,9.04431 l -0.5835,21.88141 24.50718,22.75666 c 0,0 5.08346,4.26074 1.7505,9.04432 -3.42051,4.86058 -7.00204,9.91956 -7.00204,9.91956 0,0 -3.48471,4.55016 -7.58556,1.75051 z"
     id="path19" /><path
     inkscape:connector-curvature="0"
     style="fill:#ffffff;fill-rule:nonzero;stroke:none"
     d="m 233.79963,200.31112 c -2.79733,-2.02359 -6.63912,-1.34673 -8.46082,1.45877 -2.08078,2.76813 -1.4039,6.60992 1.45877,8.4608 2.71212,2.05043 6.55274,1.37357 8.4608,-1.45876 1.99443,-2.7413 1.31639,-6.58193 -1.45875,-8.46081 z"
     id="path21" /><path
     inkscape:connector-curvature="0"
     style="fill:#ffffff;fill-rule:nonzero;stroke:none"
     d="m 164.07087,151.29678 c -2.83933,-1.86371 -6.68112,-1.18685 -8.75256,1.45877 -1.83102,2.92802 -1.15417,6.76864 1.75051,8.75255 2.67012,1.91974 6.51074,1.24169 8.46083,-1.45876 1.95124,-2.87201 1.27436,-6.7138 -1.45878,-8.75256 z"
     id="path23" /><path
     inkscape:connector-curvature="0"
     style="fill:#ffffff;fill-rule:nonzero;stroke:none"
     d="m 224.75532,148.37926 -0.58351,19.25564 -27.13295,-18.96389 9.33607,-13.12884 18.38039,12.83709 z"
     id="path25" /><path
     inkscape:connector-curvature="0"
     style="fill:#ffffff;fill-rule:nonzero;stroke:none"
     d="m 192.66258,125.91434 -21.58966,4.37629 23.34017,16.62987 9.33607,-13.42059 -11.08658,-7.58557 z"
     id="path27" /></svg>