<svg width="681" height="602.12" fill-rule="evenodd" xmlns="http://www.w3.org/2000/svg"><path d="m46.019 601.088-38.971-67.5L301.529 23.532h77.942l294.481 510.056-38.971 67.5" fill="#e31017"/><circle cx="340.5" cy="46.032" r="45" fill="#e31017"/><circle cx="634.981" cy="556.088" r="45" fill="#e31017"/><circle cx="46.019" cy="556.088" r="45" fill="#e31017"/><path d="M72 541.088 340.5 76.032 609 541.088" fill="#fff"/><path style="fill:#000;fill-opacity:1;fill-rule:evenodd;stroke:none;stroke-width:.220264" d="M353.297 146.088c-15.139-.062-27.432 12.233-27.533 27.313.1 6.383 2.206 12.196 5.726 16.74.621.801 3.887 6.187-3.303 7.049-7.17.77-27.89 1.83-40.087 14.537-24.886 25.859-41.685 56.495-45.817 100-1.542.61-6.437 2.402-6.387 7.709-.05 5.462 10.067 17.049 24.45 16.96 3.456.089 8.298-2.155 8.37-7.488-.072-2.865-.074-4.824-.882-7.049-.824-2.343-1.312-8.544-1.32-18.722.008-10.381 10.123-33.55 24.449-43.393 0 0 11.667 93.203-85.463 180.617 0 0 15.173 27.633 15.639 28.635 3.232 6.395 9.828 8.61 13.216 9.25 1.574.352 12.259 1.496 12.995 1.543.733.115 4.324.767 4.406-1.763-.082-2.692-1.077-3.283-1.983-3.745-2.618-1.553-6.046-2.933-7.709-9.47 0 0-4.26-16.152-4.406-18.282 0 0 46.485-29.607 80.397-100.662 0 0 48.077 55.311 67.841 150.221l52.424-22.908s1.972-1.148 1.983-3.082c-.012-1.737-2.094-2.595-3.526-2.865-1.26-.22-30.384-3.155-30.836-3.082-.282-.073-1.752-.32-1.763-1.764.011-20.711-8.263-54.982-14.977-74.229-1.53-4.112-3.001-8.273-4.627-11.013-22.947-35.877-30.945-62.293-19.822-105.506 0 0 20.84 48.283 76.432 53.523 0 0 1.799 2.47 4.845 2.424 7.11.046 9.436-18.983 9.471-21.146-.035-5.426-4.808-5.668-4.846-5.727-.942.06-2.9-.124-4.625 2.645 0 0-42.064-12.1-53.965-53.965-4.951-17.117-15.273-32.502-26.873-42.07-1.916-1.694-6.395-6.083.001-9.032 9.326-4.392 15.59-13.926 15.638-24.89-.048-15.08-12.341-27.375-27.533-27.313z"/><path style="fill:#000;fill-rule:evenodd;stroke:none;stroke-width:4.66436" d="M159.25 436.088v10h25v-10zm75 0v10h25v-10zm37.5 0v10h25v-10zm37.5 0v10h25v-10zm37.5 0v10h25v-10zm75 0v10h25v-10zm37.5 0v10h25v-10zm37.5 0v10h25v-10zm-375 80v10h25v-10zm37.5 0v10h25v-10zm37.5 0v10h25v-10zm37.5 0v10h25v-10zm37.5 0v10h25v-10zm37.5 0v10h25v-10zm37.5 0v10h25v-10zm37.5 0v10h25v-10zm37.5 0v10h25v-10zm37.5 0v10h25v-10zm37.5 0v10h25v-10zm37.5 0v10h25v-10z"/></svg>