<svg width="681" height="602.12" fill-rule="evenodd" xmlns="http://www.w3.org/2000/svg"><path d="m46.019 601.088-38.971-67.5L301.529 23.532h77.942l294.481 510.056-38.971 67.5" fill="#e31017"/><circle cx="340.5" cy="46.032" r="45" fill="#e31017"/><circle cx="634.981" cy="556.088" r="45" fill="#e31017"/><circle cx="46.019" cy="556.088" r="45" fill="#e31017"/><path d="M72 541.088 340.5 76.032 609 541.088" fill="#fff"/><path d="M261.091 425.419s-3.07-7.247-10.776-9.457c-7.907-2.181-14.434-1.114-20.893-13.416l-5.719-9.457s-1.297-3.458-7.257-4.618c-5.75-1.28-13.555-3.475-16.715-3.3-4.308.4-7.709-.75-13.416 5.939C181.912 396.217 110 521.088 110 521.088h172.864s4.428-.463 3.3-4.399c-1.312-3.87-22.214-78.074-22.214-78.074l23.973-15.176s2.012 3.23 9.017 0c6.98-3.275 9.457-4.838 9.457-4.838s4.042-.443 3.519-8.797c2.769-1.819 28.37-18.034 28.37-18.034s-8.955 22.499-9.676 32.33c-.904 10.009-4.399 76.755-4.399 76.755s.405 4.971-3.079 5.938c-3.347.984-18.694 5.278-18.694 5.278s-4.493.747-4.399 4.179c-.094 3.399 1.531 4.7 3.52 4.618 1.915.082 50.583 0 50.583 0s4.997.732 5.718-5.718c.906-6.56 10.117-73.017 10.117-73.017s-4.007-1.031-3.959-5.058c-.048-4.105-.048-7.194 1.32-8.797 1.234-1.65 15.85-18.571 25.951-42.227 1.465-3.331 2.604-.242 2.86.66.393.725 19.421 52.602 21.772 54.543 2.202 1.962 53.593 43.594 54.763 44.425 1.106.795 4.359 3.072 4.398 10.337-.04 7.37-2.969 13.225-4.838 15.395-2.032 2.383-5.285 5.636-5.278 7.038-.007 1.525 1.458 2.5 2.639 2.42 1.095.08 7.761.08 8.357 0 .706.08 9.488.731 15.615-9.898 6.233-10.837 17.594-30.13 17.594-30.13s2.461-3.637-1.1-5.938c-3.595-2.253-9.287-3.553-12.755-7.038-3.36-3.67-36.211-41.562-36.728-42.226-.46-.637-4.687-5.191-10.117-2.86-1.564-2.005-3.519-4.838-3.519-4.838s-9.263-56.777-19.134-80.714c2.226-1.506 5.059-3.739 5.059-3.739s8.062 6.787 14.735-.44c6.662-7.083 6.173-6.92 5.058-10.116-1.161-3.31-1.65-4.287-3.958-5.498-2.244-1.39-5.985-5.131-5.939-11.657-.046-6.483-2.81-24.21-5.938-31.67-3.05-7.501-4.027-15.795-15.835-20.893-18.192-8.236-42.833-13.116-60.92-8.357-4.823 1.227-20.781 12.967-22.213 13.856-1.495.738-7.748 3.334-7.257-2.2 1.313-12.241-9.334-33.979-28.371-33.869-23.163-.11-26.689 22.266-26.612 24.852-.077 11.716 8.38 26.429 31.89 28.59 0 0 4.788.766 4.838 3.74-.05 2.88-.05 1.904-1.539 3.519-1.438 1.638-13.697 13.035-13.856 16.054-1.407 14.206 1.764 32.622 4.619 43.107 0 0 3.57 8.99.88 15.395-2.84 6.279-14.874 36.528-15.835 38.267-2.897 5.334-4.014 9.645-2.2 15.835" style="fill:#000;fill-opacity:1;fill-rule:evenodd;stroke:none;stroke-width:.219929"/><path style="fill:#fff;fill-opacity:1;fill-rule:evenodd;stroke:none;stroke-width:.219929" d="M391.07 272.568s-4.816.288-1.76 4.619c4.91 6.82 28.532 42.82 31.01 48.385l5.059-3.08-12.977-45.745s-1.76-3.474-4.619-3.74c-2.995-.385-16.713-.44-16.713-.44zM327.508 329.53c-.976.058-1.775.71-1.537 2.418 3.237 17.764-1.843 39.877-15.395 58.502-2.505 3.165-1.074 4.545 1.319 3.079 2.485-1.461 33.209-20.893 33.209-20.893l7.039-14.736s.992-3.885.218-5.057c-8.394-11.592-18.07-19.926-23.091-22.873-.527-.294-1.177-.474-1.762-.44z"/></svg>