<svg width="606mm" height="606mm" viewBox="0 0 606 606" xmlns="http://www.w3.org/2000/svg"><g transform="translate(0 309)"><circle style="fill:#000;fill-rule:evenodd;stroke:none;stroke-width:.810509" cx="303" cy="-6" r="302"/><circle style="fill:#fff;fill-rule:evenodd;stroke:none;stroke-width:.805142" cx="303" cy="-6" r="300"/><circle style="fill:#01619e;fill-opacity:1;fill-rule:evenodd;stroke:none;stroke-width:.772936" cx="303" cy="-6" r="288"/><path style="fill:#fff;fill-opacity:1;fill-rule:evenodd;stroke:none;stroke-width:.563599" d="M357.352-208.844A210 210 0 0 1 513-6H303zM100.156 48.352A210 210 0 0 1 198-187.865L303-6zM451.492 142.492A210 210 0 0 1 198 175.865L303-6z"/><circle style="fill:#01619e;fill-opacity:1;fill-rule:evenodd;stroke:none;stroke-width:.456247" cx="303" cy="-6" r="170"/><path style="fill:#fff;fill-opacity:1;fill-rule:evenodd;stroke:none;stroke-width:.49239" d="m154.508 142.492 75.328-39.058 57.194 18.135-75.329 39.059 39.059 75.329-57.194-18.136zM248.648-208.844l-3.839 84.766-44.302 40.463 3.839-84.766-84.766-3.839 44.302-40.463zM505.844 48.352l-71.49-45.707-12.89-58.6 71.49 45.708 45.707-71.49 12.89 58.599z"/></g></svg>