<svg width="681" height="602.12" fill-rule="evenodd" xmlns="http://www.w3.org/2000/svg"><path d="m46.019 601.088-38.971-67.5L301.529 23.532h77.942l294.481 510.056-38.971 67.5" fill="#e31017"/><circle cx="340.5" cy="46.032" r="45" fill="#e31017"/><circle cx="634.981" cy="556.088" r="45" fill="#e31017"/><circle cx="46.019" cy="556.088" r="45" fill="#e31017"/><path d="M72 541.088 340.5 76.032 609 541.088" fill="#fff"/><path d="M234.2 345.358h-6.59v-9.884H208.5v185.614h19.11V353.925h6.81l34.267 24.163h5.272c35.895-.04 43.346 32.241 111.589 32.29 24.782-.049 34.715-7.498 48.984-7.468 24.532-.03 46.788 12.3 46.788 12.3l13.18-41.076s-33.167-26.076-88.743-26.14c-3.64.064-11.471 1.208-16.255 1.318-47.557-.11-22.533-36.593-115.543-36.683" style="fill:#000;fill-opacity:1;fill-rule:evenodd;stroke:none;stroke-width:.219662"/><path d="m235.958 349.532 33.388 23.504 3.954-54.257z" style="fill:#fff;fill-opacity:1;fill-rule:evenodd;stroke:none;stroke-width:.219662"/></svg>