<svg width="683" height="604" xmlns="http://www.w3.org/2000/svg"><path style="fill:#e31837;fill-opacity:1;stroke:none;stroke-width:1px;stroke-linecap:butt;stroke-linejoin:miter;stroke-opacity:1" d="m-849.211 874.813 294.448-510h77.943l294.448 510-38.97 67.5H-810.24z" transform="translate(857.291 -340.313)"/><path style="fill:#fff;stroke:none;stroke-width:50;stroke-linecap:square;stop-color:#000" transform="matrix(1.02277 0 0 1.02277 915.892 306.822)" d="M-299.114 229.943H-824.1l262.493-454.65z"/><path style="fill:#e31837;fill-opacity:1;stroke:none;stroke-width:50;stroke-linecap:square;stop-color:#000" transform="rotate(-150 383.052 -285.012)" d="M298.032-593.318a45 45 0 0 1-22.5 38.97 45 45 0 0 1-45 0l22.5-38.97z"/><path style="fill:#e31837;fill-opacity:1;stroke:none;stroke-width:50;stroke-linecap:square;stop-color:#000" transform="rotate(-30 -206.386 -1769.884)" d="M-595.345 666.424a45 45 0 0 1-22.5 38.971 45 45 0 0 1-45 0l22.5-38.97z"/><path style="fill:#e31837;fill-opacity:1;stroke:none;stroke-width:50;stroke-linecap:square;stop-color:#000" transform="scale(-1 1) rotate(-30 -1063.678 1429.571)" d="M298.032 1182.216a45 45 0 0 1-22.5 38.97 45 45 0 0 1-45 0l22.5-38.97z"/><path style="fill:#000;stroke:none;stroke-width:.317245;stroke-linecap:round;stroke-linejoin:round;stroke-miterlimit:10;stroke-dasharray:none;stroke-opacity:1" d="M-979.012 976.806h-27.972l-.924 5.293-.211.926-.29.9-.37.873-.45.82-.554.794-.582.714-.686.662-.713.608-.792.53-.82.45-.871.37-.898.291-1.875.503-.317.132-.265.212-.21.264-.133.318-.053.344.053.344.132.317.211.265.265.212.317.132 9.112 2.461.317.132.264.212.212.265.131.317.053.344-.053.344-.131.318-.212.264-.264.212-.317.132-9.112 2.461-.317.133-.265.211-.21.265-.133.317-.053.344.053.344.132.318.211.265.265.211.317.133 9.112 2.46.317.133.264.211.212.265.131.318.053.344-.053.344-.131.317-.212.265-.264.211-.317.133-9.112 2.46-.317.133-.265.212-.21.264-.133.318-.053.344.053.344.132.317.211.265.265.212.317.132 9.112 2.46.317.133.264.185.212.291.131.318.053.344-.053.344-.131.318-.212.264-.264.212-.317.132-9.112 2.435-.317.132-.265.212-.21.29-.133.318-.053.344.053.344.132.318.211.264.265.212.317.132 9.112 2.435.317.132.264.212.212.29.131.318.053.344-.053.344-.131.318-.212.265-.264.211-.317.133-9.112 2.434-.317.132-.265.212-.21.291-.133.318-.053.344.053.344.132.317.211.265.265.212.317.132 9.112 2.434.317.133.264.211.212.291.131.318.053.344-.053.344-.131.317-.212.265-.264.212-.317.132-9.112 2.434-.317.133-.265.211-.21.292-.133.317-.053.344.053.344.132.318.211.264.265.212.317.132 9.112 2.435.317.132.264.212.212.29.131.318.053.344-.053.344-.131.318-.212.264-.264.212-.317.132-9.112 2.435-.317.132-.265.212-.21.29-.133.318-.053.344.053.344.132.318.211.265.265.211.317.133 9.112 2.434.29.132.291.212.212.265.131.29.053.345-.053.344-.105.317-.185.265-1.03 1.217-.924 1.27-.872 1.323-.766 1.376-.66 1.43-.581 1.455-.502 1.508-.37 1.535h10.01l.185 1.614.291 1.614.396 1.588.502 1.56.58 1.51.714 1.481.793 1.429.871 1.376.977 1.297 1.057 1.243 1.135 1.19 1.19 1.086 1.293 1.005 1.268-1.005 1.189-1.085 1.136-1.19 1.056-1.244.978-1.297.87-1.376.794-1.429.713-1.482.58-1.508.502-1.561.397-1.588.29-1.614.185-1.614h10.01l-.37-1.535-.501-1.482-.58-1.482-.661-1.429-.766-1.376-.845-1.323-.952-1.27-1.03-1.217-.184-.265-.106-.317-.026-.344.053-.318.132-.317.21-.265.265-.212.317-.105 9.086-2.461.317-.133.29-.211.212-.265.132-.318.026-.344-.026-.344-.132-.317-.211-.291-.291-.212-.317-.132-9.112-2.435-.317-.132-.265-.212-.21-.264-.133-.318-.053-.344.053-.344.133-.317.21-.291.265-.212.317-.132 9.112-2.435.317-.132.265-.212.21-.264.132-.318.053-.344-.053-.344-.131-.317-.211-.292-.265-.211-.317-.133-9.112-2.434-.317-.132-.265-.212-.21-.265-.133-.317-.053-.344.053-.344.133-.318.21-.29.265-.212.317-.133 9.112-2.434.317-.132.265-.212.21-.265.132-.317.053-.344-.053-.344-.131-.318-.211-.291-.265-.212-.317-.132-9.112-2.434-.317-.133-.265-.211-.21-.265-.133-.318-.053-.344.053-.344.133-.317.21-.291.265-.212.317-.132 9.112-2.435.317-.132.265-.212.21-.264.132-.318.053-.344-.053-.344-.131-.317-.211-.291-.265-.212-.317-.132-9.112-2.435-.317-.132-.265-.212-.21-.264-.133-.318-.053-.344.053-.344.133-.318.21-.29.265-.186.317-.132 9.112-2.461.317-.132.265-.212.21-.265.132-.317.053-.344-.053-.344-.131-.318-.211-.264-.265-.212-.317-.132-9.112-2.461-.317-.133-.265-.211-.21-.265-.133-.317-.053-.344.053-.344.133-.318.21-.265.265-.211.317-.133 9.112-2.46.317-.133.264-.211.212-.265.131-.318.053-.344-.053-.344-.131-.317-.212-.265-.264-.211-.317-.133-9.112-2.46-.318-.133-.264-.212-.21-.264-.133-.318-.053-.344.053-.344.133-.317.21-.265.264-.212.318-.132 9.112-2.46.317-.133.264-.212.212-.265.131-.317.053-.344-.053-.344-.131-.318-.212-.264-.264-.212-.317-.132-1.875-.503-.898-.291-.872-.37-.818-.45-.793-.53-.713-.608-.66-.662-.608-.714-.554-.794-.45-.82-.37-.874-.29-.9-.211-.925z" transform="translate(1334.497 -834.806)"/><path style="fill:#000;stroke:none;stroke-width:1px;stroke-linecap:butt;stroke-linejoin:miter;stroke-opacity:1" d="m-1026.812 1193.218 33.814-101.412-160 175 168.609-46.95a4 4 46.93 0 1 4.845 5.184l-46.454 131.766 153-200-148.945 41.53a4 4 46.43 0 1-4.869-5.118z" transform="translate(1334.497 -834.806)"/></svg>