<?xml version="1.0" encoding="UTF-8" standalone="no"?>
<!-- Created with Inkscape (http://www.inkscape.org/) -->

<svg
   version="1.1"
   width="360.26767"
   height="318.20007"
   id="svg2816"
   xml:space="preserve"
   inkscape:version="1.1 (c68e22c387, 2021-05-23)"
   sodipodi:docname="UK_traffic_sign_950.svg"
   xmlns:inkscape="http://www.inkscape.org/namespaces/inkscape"
   xmlns:sodipodi="http://sodipodi.sourceforge.net/DTD/sodipodi-0.dtd"
   xmlns="http://www.w3.org/2000/svg"
   xmlns:svg="http://www.w3.org/2000/svg"
   xmlns:rdf="http://www.w3.org/1999/02/22-rdf-syntax-ns#"
   xmlns:cc="http://creativecommons.org/ns#"
   xmlns:dc="http://purl.org/dc/elements/1.1/"><metadata
     id="metadata81"><rdf:RDF><cc:Work
         rdf:about=""><dc:format>image/svg+xml</dc:format><dc:type
           rdf:resource="http://purl.org/dc/dcmitype/StillImage" /></cc:Work></rdf:RDF></metadata><sodipodi:namedview
     pagecolor="#ffffff"
     bordercolor="#666666"
     borderopacity="1"
     objecttolerance="10"
     gridtolerance="10"
     guidetolerance="10"
     inkscape:pageopacity="0"
     inkscape:pageshadow="2"
     inkscape:window-width="1366"
     inkscape:window-height="705"
     id="namedview79"
     showgrid="false"
     fit-margin-top="0.1"
     fit-margin-left="0.1"
     fit-margin-right="0.1"
     fit-margin-bottom="0.1"
     inkscape:zoom="1"
     inkscape:cx="164.5"
     inkscape:cy="237.49999"
     inkscape:window-x="-8"
     inkscape:window-y="-8"
     inkscape:window-maximized="1"
     inkscape:current-layer="svg2816"
     showguides="true"
     inkscape:guide-bbox="true"
     inkscape:pagecheckerboard="true" /><defs
     id="defs2820"><clipPath
       id="clipPath2832"><path
         d="m -0.24,595.138 317.48,0 0,-595.276 -317.48,0 0,595.276 z"
         id="path2834"
         inkscape:connector-curvature="0" /></clipPath><clipPath
       id="clipPath2840"><path
         d="m 0.03,595.32 317.46,0 0,-595.32 -317.46,0 0,595.32 z"
         id="path2842"
         inkscape:connector-curvature="0" /></clipPath><clipPath
       id="clipPath2858"><path
         d="m -0.24,595.138 317.48,0 0,-595.276 -317.48,0 0,595.276 z"
         id="path2860"
         inkscape:connector-curvature="0" /></clipPath><clipPath
       id="clipPath2864"><path
         d="m 0.03,595.32 317.46,0 0,-595.32 -317.46,0 0,595.32 z"
         id="path2866"
         inkscape:connector-curvature="0" /></clipPath><clipPath
       id="clipPath3306"><path
         d="m 199.238,472.977 0,-29.74 29.744,0 0,29.74"
         id="path3308"
         inkscape:connector-curvature="0" /></clipPath><clipPath
       id="clipPath3322"><path
         d="m -0.24,595.138 317.48,0 0,-595.276 -317.48,0 0,595.276 z"
         id="path3324"
         inkscape:connector-curvature="0" /></clipPath><clipPath
       id="clipPath3330"><path
         d="m 0.03,595.32 317.46,0 0,-595.32 -317.46,0 0,595.32 z"
         id="path3332"
         inkscape:connector-curvature="0" /></clipPath><clipPath
       id="clipPath3344"><path
         d="m 88.233,387.221 0,-28.335 32.08,0 0,28.335"
         id="path3346"
         inkscape:connector-curvature="0" /></clipPath><clipPath
       id="clipPath3462"><path
         d="m -0.24,595.138 317.48,0 0,-595.276 -317.48,0 0,595.276 z"
         id="path3464"
         inkscape:connector-curvature="0" /></clipPath><clipPath
       id="clipPath3470"><path
         d="m 0.03,595.32 317.46,0 0,-595.32 -317.46,0 0,595.32 z"
         id="path3472"
         inkscape:connector-curvature="0" /></clipPath><clipPath
       id="clipPath3490"><path
         d="m -0.24,595.138 317.48,0 0,-595.276 -317.48,0 0,595.276 z"
         id="path3492"
         inkscape:connector-curvature="0" /></clipPath><clipPath
       id="clipPath3496"><path
         d="m 0.03,595.32 317.46,0 0,-595.32 -317.46,0 0,595.32 z"
         id="path3498"
         inkscape:connector-curvature="0" /></clipPath><clipPath
       id="clipPath3520"><path
         d="m 254.788,326.215 0,-28.309 28.326,0 0,28.309"
         id="path3522"
         inkscape:connector-curvature="0" /></clipPath><clipPath
       id="clipPath3544"><path
         d="m 145.049,326.142 0,-28.333 28.342,0 0,28.333"
         id="path3546"
         inkscape:connector-curvature="0" /></clipPath><clipPath
       id="clipPath3682"><path
         d="m -0.24,595.138 317.48,0 0,-595.276 -317.48,0 0,595.276 z"
         id="path3684"
         inkscape:connector-curvature="0" /></clipPath><clipPath
       id="clipPath3690"><path
         d="m 0.03,595.32 317.46,0 0,-595.32 -317.46,0 0,595.32 z"
         id="path3692"
         inkscape:connector-curvature="0" /></clipPath><clipPath
       id="clipPath3980"><path
         d="m -0.24,595.138 317.48,0 0,-595.276 -317.48,0 0,595.276 z"
         id="path3982"
         inkscape:connector-curvature="0" /></clipPath><clipPath
       id="clipPath3988"><path
         d="m 0.03,595.32 317.46,0 0,-595.32 -317.46,0 0,595.32 z"
         id="path3990"
         inkscape:connector-curvature="0" /></clipPath><clipPath
       id="clipPath4010"><path
         d="m -0.24,595.138 317.48,0 0,-595.276 -317.48,0 0,595.276 z"
         id="path4012"
         inkscape:connector-curvature="0" /></clipPath><clipPath
       id="clipPath4016"><path
         d="m 0.03,595.32 317.46,0 0,-595.32 -317.46,0 0,595.32 z"
         id="path4018"
         inkscape:connector-curvature="0" /></clipPath><clipPath
       id="clipPath4062"><path
         d="m 200.163,177.773 0,-28.284 28.283,0 0,28.284"
         id="path4064"
         inkscape:connector-curvature="0" /></clipPath><clipPath
       id="clipPath4090"><path
         d="m 34.886,177.515 0,-51.632 30.367,0 0,51.632"
         id="path4092"
         inkscape:connector-curvature="0" /></clipPath><clipPath
       id="clipPath4106"><path
         d="m 34.886,177.515 0,-51.632 30.367,0 0,51.632"
         id="path4108"
         inkscape:connector-curvature="0" /></clipPath><clipPath
       id="clipPath4272"><path
         d="m 34.886,177.515 0,-51.632 30.367,0 0,51.632"
         id="path4274"
         inkscape:connector-curvature="0" /></clipPath><clipPath
       id="clipPath4304"><path
         d="m 254.653,176.442 0,-48.167 28.317,0 0,48.167"
         id="path4306"
         inkscape:connector-curvature="0" /></clipPath><clipPath
       id="clipPath4310"><path
         d="m 253.565,177.983 31.181,0 0,-49.183 -31.181,0 0,49.183 z"
         id="path4312"
         inkscape:connector-curvature="0" /></clipPath><clipPath
       id="clipPath4316"><path
         d="m -0.24,595.138 317.48,0 0,-595.276 -317.48,0 0,595.276 z"
         id="path4318"
         inkscape:connector-curvature="0" /></clipPath><clipPath
       id="clipPath4322"><path
         d="m 0.03,595.32 317.46,0 0,-595.32 -317.46,0 0,595.32 z"
         id="path4324"
         inkscape:connector-curvature="0" /></clipPath><clipPath
       id="clipPath4456"><path
         d="m -0.24,595.138 317.48,0 0,-595.276 -317.48,0 0,595.276 z"
         id="path4458"
         inkscape:connector-curvature="0" /></clipPath><clipPath
       id="clipPath4464"><path
         d="m 0.03,595.32 317.46,0 0,-595.32 -317.46,0 0,595.32 z"
         id="path4466"
         inkscape:connector-curvature="0" /></clipPath></defs><path
     style="fill:#ec1d24;fill-opacity:1;fill-rule:evenodd;stroke:none"
     d="m 336.29011,318.10006 c 8.5855,0 16.4565,-4.5216 20.6875,-11.9063 4.2534,-7.3734 4.2534,-16.4791 0,-23.875 L 200.82134,11.975053 C 196.54541,4.6016433 188.72331,0.10005333 180.22759,0.10005333 c -0.0312,0 -0.0625,-1.2e-4 -0.0937,0 -0.0312,-1.2e-4 -0.0625,0 -0.0937,0 -8.49572,0 -16.31784,4.50157997 -20.59375,11.87499967 L 3.2901025,282.31876 c -4.25347,7.3959 -4.25347,16.5016 0,23.875 4.23102,7.3847 12.1019925,11.9063 20.6875025,11.9063 z"
     id="path3101"
     inkscape:connector-curvature="0"
     sodipodi:nodetypes="scccscscccss" /><path
     inkscape:connector-curvature="0"
     style="fill:#ffffff;fill-opacity:1;fill-rule:evenodd;stroke:none"
     id="path3121"
     d="m 322.51271,286.28316 -284.757876,0 L 180.13382,39.806523 z"
     sodipodi:nodetypes="cccc" /><path
     id="path15"
     fill="none"
     stroke="#000000"
     stroke-width="1.00063"
     d="m 244.1435,205.84933 c -4.77301,-0.12008 -9.33588,0.83052 -13.41844,2.63165 l -13.9988,-24.21522 2.62165,-7.29459 c 7.0044,-0.6404 9.49597,-7.0044 9.62605,-8.16513 -0.13008,-0.99062 -1.46092,-0.88055 -1.46092,-0.88055 h -30.03889 c -0.58036,-0.11007 -2.78175,0.45028 -2.92183,2.92183 0.14008,2.26142 2.63165,2.62165 2.63165,2.62165 l 13.11825,2.92184 -3.20202,8.7455 h -63.59998 c 0.73046,-2.90183 1.17073,-4.66294 1.17073,-4.66294 0,0 0.60038,-1.84115 0.58037,-2.63165 0.02,-3.53222 -2.63166,-6.1939 -3.79238,-6.70422 -0.18012,-0.22013 -0.92058,-0.55034 -0.87055,-1.46091 -0.05,-1.09069 0.53033,-1.93122 1.7511,-2.04129 h 13.41844 v -8.7555 h -16.92064 c 0,0 -8.63543,0.85053 -8.75551,9.92624 0.12008,5.14323 2.72172,6.33398 4.67294,7.58477 0.7905,0.39024 1.41089,2.10132 1.16073,3.20201 -0.19012,0.42027 -4.27268,15.72989 -7.58477,28.3078 -3.88244,-1.38087 -8.03505,-2.17137 -12.2477,-2.05129 -19.372176,-0.12008 -34.98199,15.48974 -35.012009,34.72183 0.03002,19.28212 15.639833,34.89194 35.012009,35.01201 19.13203,-0.12007 34.74185,-15.72989 34.71183,-35.01201 0.03,-11.68735 -5.74362,-22.04386 -14.58918,-28.29779 0.38024,-1.48093 0.76048,-2.92184 1.17074,-4.37275 l 40.54549,28.29779 c -0.52033,1.38087 -0.76048,2.8618 -0.87055,4.37275 0.11007,8.08508 6.65419,14.61919 14.58918,14.58917 1.56098,0.03 2.96186,-0.18011 4.37275,-0.58036 l 2.04128,4.66293 h -3.79238 v 4.67294 h 4.37274 c 0.55035,1.15072 1.70107,1.84115 2.92184,1.7511 1.41089,0.09 2.56161,-0.60038 3.20201,-1.7511 h 4.09258 v -4.67294 h -6.13386 l -2.91183,-6.41404 c 3.04191,-2.02127 5.34336,-5.23329 6.12385,-9.04568 h 3.5022 c 1.581,17.79118 16.58042,31.67992 34.71183,31.79999 19.2521,-0.12007 34.86191,-15.72989 35.01201,-35.01201 -0.1501,-19.23209 -15.75991,-34.84191 -35.01201,-34.72183 z m -52.50301,25.67614 c 5.17325,-0.08 9.27583,4.01252 9.33587,9.04569 -0.06,5.07319 -4.16262,9.17577 -9.33587,9.04568 -4.93311,0.13009 -9.02568,-3.97249 -9.04569,-9.04568 0.02,-5.03317 4.11258,-9.12574 9.04569,-9.04569 z m 0.58036,-5.54349 c -0.08,0.02 -0.27017,0.01 -0.58036,0 -1.40089,0.01 -2.87181,0.25016 -4.38276,0.59038 l -2.04128,-4.38276 h 4.08256 v -4.95311 h -4.08256 c -0.74047,-0.94059 -1.89119,-1.63103 -3.20202,-1.7511 -1.32083,0.12007 -2.48156,0.81051 -3.21202,1.7511 h -4.08256 v 4.95311 h 6.12385 l 2.91183,6.13386 c -0.25016,0.22014 -0.58037,0.46029 -0.87055,0.58036 l -43.17715,-30.04889 c 0.52033,-1.66104 0.97062,-3.35211 1.46092,-4.96312 h 62.71944 z m 17.21082,11.37716 h -3.5022 c -0.66042,-3.35211 -2.64166,-6.354 -5.2533,-8.45532 l 12.2577,-33.84127 10.20642,17.79118 c -7.66482,5.74361 -12.81806,14.55915 -13.70862,24.50541 z m 27.71743,0 h -17.51101 c 0.83052,-6.11385 4.02253,-11.54726 8.46532,-15.45972 z m 6.9944,-21.29339 c 13.59854,-0.10006 24.62548,10.92687 24.5054,24.50541 0.12008,13.61856 -10.90686,24.64549 -24.5054,24.5054 -12.46784,0.14009 -22.7443,-9.17576 -24.50541,-21.29338 h 24.21522 c 1.60101,0.05 4.78301,0.05 4.67294,-2.92184 0.11007,-1.19075 -0.59037,-2.04128 -0.59037,-2.04128 l -11.95752,-21.29339 c 2.49157,-0.9506 5.22329,-1.56098 8.16514,-1.46092 z m -103.55511,24.50541 c -0.01,13.61856 -11.02693,24.64549 -24.50541,24.5054 -13.71862,0.14009 -24.745557,-10.88684 -24.795587,-24.5054 0.05003,-13.57854 11.076967,-24.60547 24.795587,-24.50541 3.31208,-0.10006 6.57414,0.61039 9.62606,1.7511 -1.16073,4.16262 -1.75111,6.71422 -1.75111,6.71422 0,0 -1.35085,6.62417 -9.04568,12.82807 -0.73046,0.38024 -2.44154,0.99062 -2.33147,3.21202 -0.11007,2.03127 1.26079,3.5322 3.5022,3.5022 2.11133,0.03 12.38779,-3.05192 15.16954,-13.12825 0.02,-0.34022 0.84053,-3.41215 2.04128,-7.87496 4.49283,4.49283 7.28459,10.67672 7.29459,17.50101 z"
     style="fill:#000000;fill-opacity:1;stroke:none"
     sodipodi:nodetypes="scccccccccccccccccccccccccccccccccccccccccccccccsccccccscccccccccccccccccccscccsccccccccccccccccccccccc" /></svg>
