<svg width="681" height="602.12" fill-rule="evenodd" xmlns="http://www.w3.org/2000/svg"><path d="m46.019 601.088-38.971-67.5L301.529 23.532h77.942l294.481 510.056-38.971 67.5" fill="#e31017"/><circle cx="340.5" cy="46.032" r="45" fill="#e31017"/><circle cx="634.981" cy="556.088" r="45" fill="#e31017"/><circle cx="46.019" cy="556.088" r="45" fill="#e31017"/><path d="M72 541.088 340.5 76.032 609 541.088" fill="#fff"/><path style="fill:#000;fill-opacity:1;fill-rule:evenodd;stroke:none;stroke-width:.220464" d="M417.343 293.125c-1.024.14-2.293.715-3.49 2.407 0 0-5.224 6.828-5.513 7.273 0 0-6.195-.947-11.903.662-.954.35-.739.734-.662.882-.077.187.051.774 1.105.662 1.038-.055 3.132-.51 3.306.662-.048.457-.468.457-.662.662-.392.296-2.066 1.26-3.087 1.544-1.296.346-3.542.302-6.613 3.307 0 0 4.245.426 4.63.44 0 0-1.727 2.164-5.292 2.206-5.983-.042-11.366 4.073-12.122 5.29-.256.401-.593.653-1.105.662-.156-.008-2.793-.008-3.087 0-.293.075-.667.327-.658.662-.008.166.116.415.881.44.74.059 1.788.226 1.763.881.108.767-1.108 1.105-1.324 1.105-.284 0-5.304 1.257-5.509 6.614 0 0 5.601-1.884 5.952-1.986.487-.066 1.657-.107 1.763.662-.02.779-.272.82-.662.882-5.117 2.386-5.122 1.682-9.478 5.294-.509.507-3.23 3.183-8.156 3.084 0 0 .866 3.951.881 4.412 0 0-5.582 3.432-7.275 5.952 0 0 3.536 1.082 7.495-.22 0 0-9.274 6.534-23.147 6.615-16.553-.081-43-17.915-61.502-17.86-15.23-.055-26.014 9.04-26.014 9.04s-6.627-2.817-13.889-2.868c-17.827.05-35 15.792-39.237 38.147-2.235 12.17-8.272 25.97-18.516 32.85-8.48 5.606-9.783 10.467-9.7 17.419-.083 1.965.026 5.649 3.746 5.733 1.525-.084 2.177-.887 3.087-1.544-2.768 2.205 33.23-21.34 41.003-63.059 1.94-10.1 8.666-18.638 18.736-18.74 2.31.102 4.712.435 4.63 1.541.082.904-.476 1.185-.881 1.767-.6.536-6.848 7.62-6.833 18.959-.015 12.855 5.872 15.366 5.951 21.388-.08 5.197-3.762 10.639-10.14 10.584-6.511.055-9.945.14-11.905.662-1.89.481-6.327 2.322-6.394 6.172.068 3.685 1.157 17.499 1.105 19.624.052 6.158-1.155 20.652-2.206 25.577-.17 1.18-.338 3.19.882 3.97 1.291.978 1.375 1.814.881 2.645-.594 1.011-1.388 2.143-2.864 2.206-1.537-.148-8.024-.44-9.92-.882l-7.718 16.756s2.626 1.015 7.498-.881c5.937-2.17 11.458-4.933 16.973-8.379 1.394-.794 3.947-1.763 5.29-7.719 2.353-9.953 3.575-22.984 3.306-32.63-.395-7.614 3.539-9.626 10.582-9.04 10.17.98 18.043.168 21.825-1.102 1.391-.347 4.489-1.771 5.732-.443 1.268 1.518.514 2.357 0 2.868-3.87 4.752-6.95 8.636-9.038 13.889-1.733 4.029-.701 6.542 5.732 8.6 8.478 2.913 26.838 17.387 32.404 29.324 2.134 4.566 4.06 4.916 6.394 5.513 1.43.345 3.69 1.097 3.965 2.865.06 1.748-.19 4.93.223 6.395l18.296 6.615s2.15-8.016-4.41-15.436c-6.821-7.79-25.918-28.011-34.607-34.836-6.519-5.344-3.978-9.784.22-14.111 3.663-3.537 10.674-13.257 12.783-18.3 1.923-5.04 5.231-7.214 10.802-4.629 10.334 4.644 35.338 11.828 47.617 13.669 5.53.704 4.502 2.945 3.968 5.29-1.263 5.688-3.328 12.652-6.174 16.537-.282.286-.573.834-.439 1.986 2.28 21.778-5.474 36.33-9.7 41.894-.853 1.364-.438 2.368.22 2.865 1.745 1.305 3.945 4.287 2.867 9.04-.258 1.597-1.596 7.543-1.763 7.939l20.94 9.037s1.252-4.268-4.63-11.685c-.996-1.184-5.179-5.37-5.29-14.774.111-9.348 25.637-63.985 27.555-66.805 4.327-5.856 10.233-7.406 16.756-4.851 8.05 3.114 18.843 6.508 25.568 10.584 1.513.994 2.296 1.997.662 3.085-1.492.92-22.696 14.764-23.146 15.215-.666.442-2.13 1.319-3.307 1.321-1-.086-2.758.21-3.968 2.649-1.05 2.248-3.979 3.46-5.952 1.32-2.127-2.128-4.627-4.85-4.627-4.85s-5.075 2.429-13.007 14.553c0 0 1.07 1.565 4.85 1.544 3.752.02 15.262.02 16.314 0 3.547-.172 6.623-1.326 9.477-3.53.937-.638 35.964-24.204 37.035-24.915 4.178-2.663 9.865-8.919.882-15.655-1.618-1.214-11.41-9.166-29.76-17.638 0 0 1.358-4.673 1.763-5.513.6-1.002 1.439-4.013 1.324-4.848-.22-.84.114-1.844.22-2.426.23-.59.479-2.515.439-3.307-.13-.883.96-7.416 1.986-9.263 1.15-1.835 3.996-7.86 4.188-8.817.31-1.054 2.904-7.583 3.746-9.04.666-1.557 2.424-5.578 2.867-6.396.227-1.023.646-4.037 5.732-2.425 5.293 1.57 9.308 1.401 11.021 1.101 1.803-.203 5.152-.784 7.495.885 2.51 1.51 8.12 4.775 9.48 5.29 3.246 1.112 4.05 1.43 6.614-.22.981-.714 3.49-2.554 1.32-4.188-2.014-1.548-4.023-2.637-4.85-2.868-1.016-.439-1.657-.52-1.54-1.102.11-1.682 2.87-1.598 4.189-1.104 1.928.586 3.788 2.104 4.407 2.648.551.626 3.061 1.128 4.408-.442 2.22-2.445.667-6.275-1.101-8.378-1.08-1.187-14.39-13.158-15.432-13.892-2.857-2.266-6.274-5.866-7.495-8.378-.335-.6-1.59-1.854-2.202-2.425-.726-.602-18.137-13.241-18.739-13.669-2.38-1.704-3.614-2.324-3.969-6.615-.2-1.832-.953-7.442-1.1-7.938-.219-.046-.999-.34-2.022-.2z"/></svg>