<?xml version="1.0" encoding="UTF-8" standalone="no"?>
<!-- Created with Inkscape (http://www.inkscape.org/) -->

<svg
   width="904"
   height="399"
   viewBox="0 0 904 399"
   version="1.1"
   id="svg61688"
   inkscape:version="1.2.1 (9c6d41e410, 2022-07-14)"
   sodipodi:docname="UK_traffic_sign_774.svg"
   xmlns:inkscape="http://www.inkscape.org/namespaces/inkscape"
   xmlns:sodipodi="http://sodipodi.sourceforge.net/DTD/sodipodi-0.dtd"
   xmlns="http://www.w3.org/2000/svg"
   xmlns:svg="http://www.w3.org/2000/svg">
  <sodipodi:namedview
     id="namedview61690"
     pagecolor="#808080"
     bordercolor="#000000"
     borderopacity="1"
     inkscape:showpageshadow="0"
     inkscape:pageopacity="0"
     inkscape:pagecheckerboard="1"
     inkscape:deskcolor="#808080"
     inkscape:document-units="px"
     showgrid="false"
     inkscape:zoom="0.70710678"
     inkscape:cx="405.17219"
     inkscape:cy="248.90159"
     inkscape:window-width="1920"
     inkscape:window-height="1017"
     inkscape:window-x="-8"
     inkscape:window-y="-8"
     inkscape:window-maximized="1"
     inkscape:current-layer="layer1" />
  <defs
     id="defs61685" />
  <g
     inkscape:label="Layer 1"
     inkscape:groupmode="layer"
     id="layer1">
    <g
       id="g11897"
       transform="translate(2593.2927,-2431.6983)"
       inkscape:export-filename="..\Users\Natha\Downloads\g11897.png"
       inkscape:export-xdpi="96"
       inkscape:export-ydpi="96">
      <path
         style="fill:#e31837;fill-opacity:1;stroke:none;stroke-width:1px;stroke-linecap:butt;stroke-linejoin:miter;stroke-opacity:1"
         d="m -2543.858,2686.3293 165.3928,-55.1313 -165.393,-55.1305 -47.4346,-94.8687 94.8687,-47.4345 355.1315,118.3764 355.1316,-118.3764 94.8685,47.4337 -47.4341,94.8694 -165.3933,55.1307 165.3931,55.1306 47.4343,94.8693 -94.8684,47.4338 -355.1316,-118.3765 -355.1312,118.377 -94.8688,-47.4344 z"
         id="path8716"
         sodipodi:nodetypes="ccccccccccccccccc" />
      <path
         id="rect6643-5-1-6-2-2-7-8"
         style="fill:#ffffff;stroke:none;stroke-width:50;stroke-linecap:square;stroke-opacity:1;stop-color:#000000"
         d="m -1794.6992,2113.1895 -346.5957,115.5312 -346.5918,-115.5293 -18.9727,56.9199 270.6973,90.2325 -270.6973,90.2324 18.9727,56.9218 346.5937,-115.5312 346.5938,115.5312 18.9746,-56.9218 -270.6992,-90.2324 270.6992,-90.2325 z"
         transform="translate(0,370.85415)" />
    </g>
  </g>
</svg>
