<svg xmlns="http://www.w3.org/2000/svg" width="385.546" height="340.8" xml:space="preserve"><path d="M291.21.21a20.576 20.576 0 0 1 17.28 10.2c3.677 6.454 3.512 14.047.24 20.16L174.45 263.01c-3.544 5.847-10.037 9.786-17.4 9.84-7.465-.054-13.959-3.993-17.52-9.84L5.25 30.57c-3.252-6.113-3.417-13.706.24-20.16A20.627 20.627 0 0 1 22.77.21h268.44" style="fill:#ec1d24" transform="matrix(1.25 0 0 -1.25 -3.474 341.063)"/><path d="M157.05 238.41 35.01 27.09h243.96L157.05 238.41" style="fill:#fff" transform="matrix(1.25 0 0 -1.25 -3.474 341.063)"/><path d="M179.489 224.55v-3.75l66.9-7.35s1.667-2.024 1.65-4.2c.017-2.322-1.8-4.5-1.8-4.5l-58.5 6.6c-3.794 5.76-8.944 5.523-10.35 5.55-1.317-.027-6.467.21-10.35-5.55l-58.35-6.6s-1.877 2.178-1.95 4.5c.073 2.176 1.65 4.2 1.65 4.2l66.9 7.35v3.75s-1.525-.336-2.7 1.8l-2.7 4.65s-1.572 2.389-4.2 1.8c-2.58-.595-12.763-2.726-20.25-2.7-24.395-.026-23.828 21.23-23.85 23.25.022 28.048 26.25 24.6 26.25 24.6v12.45h-13.8s-2.424-.301-3.6-1.95c-1.192-1.547-1.962-1.487-2.4-1.5-.508.013-2.64.485-2.7 2.4.06 1.874 3.553 6.018 8.4 6h62.7c4.85.018 8.343-4.126 8.4-6-.057-1.915-2.188-2.387-2.7-2.4-.434.013-1.204-.047-2.4 1.5-1.172 1.649-3.6 1.95-3.6 1.95h-10.35v-12.45c-.008-3.982 1.767-11.174 11.85-12.9l73.65-14.1s7.193-1.045 7.65-8.7c0 0 9.4-2.646 9.45-11.85-.05-9.087-7.687-12.995-13.05-13.05-5.47.055-12.395 4.939-12.45 12.3.055 9.228 7.35 11.85 7.35 11.85s-1.08 1.834-3.6 1.65l-79.5-8.1-4.95-8.7s-.523-1.486-2.7-1.8"/><path d="M124.65 40.53h23.16v9.96h-23.16v-9.96zM225.81 82.41s4.373 1.74 4.32 6.36c.053 4.615-4.351 6.888-6.72 6.84-2.462.048-7.008-1.657-6.96-6.84-.048-4.858 3.6-6 3.6-6l2.52 7.32s.296 1.164 1.32 1.2c1.107-.036 1.462-1.315 1.44-1.68l.48-7.2M137.85 77.25c.436.98 1.383 3.727-2.16 4.92-3.466 1.08-9.433 2.69-15.12 2.64-5.679.05-6.437-.376-7.44-.6-.986-.249-8.895-2.996-8.88-13.2-.015-5.902 4.007-7.555 6.48-7.56h22.32l4.8 13.8" style="fill:#fff" transform="matrix(1.25 0 0 -1.25 -3.474 341.063)"/></svg>