<svg xmlns="http://www.w3.org/2000/svg" width="360.268" height="318.2" xml:space="preserve"><path style="fill:#ec1d24;fill-opacity:1;fill-rule:evenodd;stroke:none" d="M23.978 318.1c-8.586 0-16.457-4.522-20.688-11.906-4.253-7.374-4.253-16.48 0-23.875L159.446 11.975A23.766 23.766 0 0 1 180.04.1h.187a23.766 23.766 0 0 1 20.594 11.875l156.157 270.344c4.253 7.396 4.253 16.501 0 23.875-4.231 7.384-12.102 11.906-20.688 11.906z"/><path style="fill:#fff;fill-opacity:1;fill-rule:evenodd;stroke:none" d="M37.755 286.283h284.758L180.133 39.807z"/><path style="fill:#000;fill-rule:nonzero;stroke:none" d="M113.207 230.988c-3.296-8.26-5.104-17.25-4.96-26.55-.144-34.962 24.633-64.026 57.477-70.606l14.588 11.962-13.13 15.463c-18.49 5.558-32.011 22.735-32.093 43.18.082 5.744 1.202 11.337 3.21 16.34l-25.092 10.21zM236.621 248.785c-5.548 7.094-12.43 13.153-20.715 17.797-30.047 17.488-67.605 10.563-89.861-14.588l3.21-18.672 19.839 3.5c14.166 13.427 35.803 16.55 53.391 6.42a45.68 45.68 0 0 0 12.838-11.087l21.298 16.63zM190.523 132.957c8.678 1.417 17.367 4.346 25.383 9.044 30.316 17.434 43.099 53.422 32.385 85.194l-17.797 6.71-6.71-19.256c4.45-18.733-3.666-39.032-21.299-49.307-5.048-2.82-10.453-4.646-16.046-5.543l4.084-26.842z"/></svg>