<svg xmlns="http://www.w3.org/2000/svg" width="240.571" height="212.57" xml:space="preserve"><defs><clipPath id="a"><path d="M0 170.12h192.47V.06H0v170.06z"/></clipPath></defs><g clip-path="url(#a)" transform="matrix(1.25 0 0 -1.25 -.016 212.645)"><path d="M12.824 0h166.97c7.062 0 12.68 5.762 12.68 12.82 0 2.164-.578 4.465-1.586 6.34l-83.555 144.62c-2.309 4.035-6.484 6.336-11.096 6.336-4.465 0-8.789-2.301-11.091-6.336L1.745 19.16C.589 17.285.013 14.984.013 12.82.013 5.762 5.777 0 12.837 0" style="fill:#ec1d24;fill-rule:evenodd"/></g><path d="M172.45 17H20.17l76.066 131.94L172.45 17" style="fill:#fff;fill-rule:evenodd" transform="matrix(1.25 0 0 -1.25 -.016 212.645)"/><path d="M85 81.242v19.449l14.119 14.117 14.119-14.117V22.758H85v32.558L62.234 32.7 52.15 42.641l28.672 28.665c2.592 2.589 4.176 6.195 4.176 9.937" style="fill:#000;fill-rule:evenodd" transform="matrix(1.25 0 0 -1.25 -.016 212.645)"/></svg>