<svg xmlns="http://www.w3.org/2000/svg" width="360.268" height="318.2" xml:space="preserve"><path style="fill:#ec1d24;fill-opacity:1;fill-rule:evenodd;stroke:none" d="M23.978 318.1c-8.586 0-16.457-4.522-20.688-11.906-4.253-7.374-4.253-16.48 0-23.875L159.446 11.975A23.766 23.766 0 0 1 180.04.1h.187a23.766 23.766 0 0 1 20.594 11.875L356.978 282.32c4.253 7.396 4.253 16.501 0 23.875-4.231 7.384-12.102 11.906-20.688 11.906z"/><path style="fill:#fff;fill-opacity:1;fill-rule:evenodd;stroke:none" d="M322.513 286.283H37.755L180.134 39.807z"/><path style="fill:#000;fill-rule:nonzero;stroke:none" d="M208.46 143.905c4.292.132 10.635-2.712 10.503-11.38.132-8.682-7.596-12.838-12.254-12.838-4.82 0-13.276 3.719-13.13 11.672-.146 1.086.137 3.98-1.46 4.668-15.38 7.353-31.673 23.428-36.472 47.269 0 0-10.628-1.935-10.505-12.255-.123-5.543 2.607-12.848 4.669-16.34.611-1.26.77-1.88 2.918-2.334 2.723-.31 10.742-3.3 10.796-12.839-.054-9.415-9.24-13.206-12.839-13.13-5.513-.076-13.386 3.643-13.422 13.422.036 3.416 1.625 5.544-.292 7.295-9.77 9.934-41.973 36.598-42.017 98.914h9.629l-1.75 29.762h18.382s1.869-.244 1.75-1.167c.119-.972-.683-1.48-1.166-1.75a4802.43 4802.43 0 0 0-8.463-3.502c-.678-.311-1.99-.603-1.167-3.501l5.545-19.842h6.127l10.504 30.054h40.558s1.324-.972 1.46-1.75c-.136-.681-.719-1.336-1.168-1.46-.426-.313-5.31-2.5-5.836-2.917-.494-.167-2.172-.604-1.167-3.502.89-2.788 3.516-24.22 3.21-28.886 2.275 6.415 8.276 19.514 11.088 36.764.007 1.07.298 1.58 1.459 1.46h18.09s1.817-.025 1.75-1.168c.067-1.336-.662-1.846-1.166-2.042-.662-.242-6.348-2.064-7.295-2.335-.949-.458-1.969-.53-2.334-3.793-.51-3.007-10.898-52.325-10.796-61.274-.102-17.137 8.81-30.482 11.963-33.847.565-.725.893-1.053 1.459-1.167.746.114 1.621.771 1.75 1.167 6.097 10.81 22.26 24.775 27.136 28.595 1.111.97.473 1.846.292 2.042-.182.242-.912.896-.876 1.75-.036 1.042 0 1.46 0 1.46l3.502-.292s-.056-1.748.875-2.043c0 0 2.292 1.771 4.96 2.627L222.173 275.5l3.21.583 11.67-70.028s3.474-.084 3.502-3.21c-.028-2.363-2.514-3.837-2.626-4.084-15.459-9.787-30.851-29.822-35.305-51.354-.297-2.223 1.745-3.616 2.918-3.502.995-.114 2.18.132 2.917 0z"/><path style="fill:#fff;fill-rule:nonzero;stroke:none" d="M153.02 195.843c-3.689-1.114-8.183-3.301-10.795-5.836-.764-.84-1.854-1.984-3.21-2.042-4.476.058-5.634 19.477-5.544 21.3-.09 9.93 5.836 36.764 5.836 36.764h-3.21l3.793 20.717s.034 1.366 1.46 2.043c1.637.636 8.197 3.26 8.753 3.501.464.196 1.558.78 2.042-.875.682-1.408 4.692-16.826 4.669-34.43.023-17.606-3.914-27.447-3.793-36.182-.12-.587 0-4.96 0-4.96z"/></svg>