<?xml version="1.0" encoding="UTF-8" standalone="no"?>
<!-- Created with Inkscape (http://www.inkscape.org/) -->

<svg
   xmlns:dc="http://purl.org/dc/elements/1.1/"
   xmlns:cc="http://creativecommons.org/ns#"
   xmlns:rdf="http://www.w3.org/1999/02/22-rdf-syntax-ns#"
   xmlns:svg="http://www.w3.org/2000/svg"
   xmlns="http://www.w3.org/2000/svg"
   xmlns:sodipodi="http://sodipodi.sourceforge.net/DTD/sodipodi-0.dtd"
   xmlns:inkscape="http://www.inkscape.org/namespaces/inkscape"
   version="1.1"
   width="321.375"
   height="321.375"
   id="svg2"
   xml:space="preserve"
   inkscape:version="0.48.2 r9819"
   sodipodi:docname="AJAX1.svg"><sodipodi:namedview
     pagecolor="#ffffff"
     bordercolor="#666666"
     borderopacity="1"
     objecttolerance="10"
     gridtolerance="10"
     guidetolerance="10"
     inkscape:pageopacity="0"
     inkscape:pageshadow="2"
     inkscape:window-width="1280"
     inkscape:window-height="1004"
     id="namedview19"
     showgrid="false"
     inkscape:zoom="1.4142136"
     inkscape:cx="152.18664"
     inkscape:cy="65.765773"
     inkscape:window-x="-8"
     inkscape:window-y="-8"
     inkscape:window-maximized="1"
     inkscape:current-layer="svg2"
     fit-margin-top="0.5"
     fit-margin-left="0.5"
     fit-margin-right="0.5"
     fit-margin-bottom="0.5" /><defs
     id="defs20" /><metadata
     id="metadata8"><rdf:RDF><cc:Work
         rdf:about=""><dc:format>image/svg+xml</dc:format><dc:type
           rdf:resource="http://purl.org/dc/dcmitype/StillImage" /><dc:title /></cc:Work></rdf:RDF></metadata><path
     d="m 160.75,0.50000941 c 88.435,-0.03 160.15,71.68999959 160.125,160.12500059 0.03,88.4975 -71.69,160.2125 -160.125,160.25 C 72.2525,320.84251 0.5375,249.12251 0.5,160.62501 0.5325,72.190009 72.2525,0.47500941 160.75,0.50000941"
     inkscape:connector-curvature="0"
     id="path14"
     style="fill:#ec1d24;stroke:none" /><path
     d="m 160.75,32.375009 c 70.81625,0 128.25,57.43375 128.25,128.250001 0,70.87875 -57.43375,128.3125 -128.25,128.375 C 89.87125,288.93751 32.4375,231.50376 32.375,160.62501 32.4375,89.808759 89.87125,32.375009 160.75,32.375009"
     inkscape:connector-curvature="0"
     id="path18"
     style="fill:#ffd421;fill-opacity:1;stroke:none" /><path
     d="m 97.25,114.25001 c -0.0175,-2.625 -1.14375,-4.385 -6.375,-5.5 l -8.5,-1.75 c -4.9925,-0.93625 -11.54,-5.23 -11.5,-13.500001 -0.04,-7.99125 7.21125,-15.66375 18.875,-15.625 0,0 12.97375,-0.0387 19.5,7.75 l -7.125,7.125 c -5.8775,-5.05875 -12.75,-5 -12.75,-5 -4.53125,-0.0588 -7.20625,2.1225 -7.25,5.375 0.04375,2.59125 1.94375,4.28 10.5,5.5 9.395,1.24375 15.8,7.086251 15.875,15.375001 0.0663,6.84625 -3.80625,15.575 -21,15.625 -9.76625,-0.05 -14.34125,-2.655 -21.125,-9.5 l 8.5,-6.375 c 4.61875,4.49125 7.8575,5.9 13.25,5.875 5.5175,0.025 9.1075,-1.665 9.125,-5.375"
     inkscape:connector-curvature="0"
     id="path20"
     style="fill:#000000;stroke:none" /><path
     d="m 140.25,88.375009 v 40.125001 h -9.875 V 88.375009 H 116.5 v -9.5 h 37.625 v 9.5 H 140.25"
     inkscape:connector-curvature="0"
     id="path22"
     style="fill:#000000;stroke:none" /><path
     d="m 184.51,77.865009 c -14.1575,0.0312 -24.0125,10.59 -24,26.000001 -0.0125,15 10.61625,25.77 24,25.75 14.14,0.02 23.995,-10.46875 24,-25.625 -0.005,-14.971251 -9.4375,-26.093751 -24,-26.125001 z m 0,9.75 c 8.57875,-0.005 12.9437,6.33125 13,16.250001 -0.0563,9.86125 -4.49125,16.1962 -13,16.25 -8.7375,-0.0537 -12.75,-6.2475 -12.75,-16.25 0,-10.060001 3.9425,-16.255001 12.75,-16.250001 z"
     id="path24"
     inkscape:connector-curvature="0"
     style="fill:#000000;stroke:none" /><path
     d="m 220.76,78.865009 0,49.625001 10.5,0 0,-17.875 10.375,0 c 12.11625,-0.0563 16.27,-10.685001 16.25,-15.500001 0.02,-3.5625 -2.30375,-16.23375 -17.25,-16.25 l -19.875,0 z m 10.5,9.5 9.375,0 c 4.03625,-0.05 6.9212,2.2025 6.875,6.75 0.0462,4.04 -3.61375,6.573701 -6.875,6.625001 l -9.375,0 0,-13.375001 z"
     id="path28"
     inkscape:connector-curvature="0"
     style="fill:#000000;stroke:none" /><path
     d="m 70.125,182.00001 c -11.8,-0.0138 -21.35,-9.56375 -21.375,-21.375 0.025,-11.75 9.575,-21.29875 21.375,-21.25 H 251.25 c 11.79,-0.0487 21.34,9.5 21.375,21.25 -0.035,11.81125 -9.585,21.36125 -21.375,21.375 H 70.125"
     inkscape:connector-curvature="0"
     id="path32"
     style="fill:#000000;stroke:none" /><path
     d="m 175.385,188.74001 c -7,0.005 -7.8575,8.2275 -7.875,9.75 0.0175,1.19 -0.4575,5.77375 4.75,7.25 0.21625,0.0138 0.78125,0.40375 0.625,0.875 -0.11625,0.385 -0.29125,0.5225 -0.875,0.5 -0.66375,-0.13375 -1.89125,-0.32875 -2.375,-0.375 -0.45125,-0.0712 -1.21125,-0.3625 -2.5,0.375 -0.51125,0.37625 -8.63875,4.53125 -13.875,11.5 -0.26625,0.3675 -1.00625,1.185 -0.5,2.625 l 4,11.5 c 0,0 0.55875,1.205 -0.25,1.75 -0.8275,0.545 -3.71125,1.71375 -4.125,1.875 -0.46123,0.0653 -1.23141,0.36709 -2.0625,-0.46875 0.002,-0.001 0.001,-0.0252 0,-0.0312 -0.009,-0.009 -0.022,-0.0215 -0.0312,-0.0312 -0.39332,-0.89867 -7.80156,-12.74453 -10.65625,-15.59375 -0.3175,-0.3225 -0.59,-1.0625 0.125,-1.625 0.73875,-0.555 4.24625,-3.11375 4.25,-7.375 -0.004,-4.3625 -3.0425,-7.24625 -7,-7.25 -3.83625,0.004 -7.03125,2.99125 -7,7.625 -0.0312,3.1075 2.04625,5.54875 2.5,6 0.4825,0.53625 0.4825,1.7825 -0.875,1.75 -1.34375,-0.045 -3.345,-0.2275 -4.75,0.125 -2.95375,0.64375 -7.34125,2.185 -9.875,5.125 -1.16,1.28125 -4.1275,5.84375 -4.875,7.625 -1.20375,2.8525 -1.38375,7.7275 -1.125,10.5 0.0575,0.4 0.0188,0.82875 -0.125,1.125 -0.12875,0.28875 -0.5575,0.58 -0.5,1.75 -0.0575,1.24625 1.03375,2.6875 3.125,2.75 1.29875,-0.0625 3.675,-1.1925 3.625,-3.625 0.05,-1.03875 -0.63125,-1.77125 -1,-2.25 -0.36875,-0.4225 -0.83,-1.69875 -0.125,-3.375 1.30375,-3.04125 3.70375,-7.1625 8.75,-9.125 0,0 -0.002,1.5125 0,1.875 -0.002,4.2725 -3.95125,17.15875 -10.25,19.75 l -13,5.75 c 0,0 2.46625,11.1025 2.625,11.75 0.1525,0.6775 0.62,1.26125 1.25,1.25 0.54,0.0113 1.085,-0.7675 1.125,-1.375 0.0375,-0.64 0.4275,-4.41875 0.5,-4.75 0.005,-0.37 0.2,-1.54 1.875,-2.125 1.755,-0.58375 10.98875,-3.66125 11.625,-3.875 0.61125,-0.25375 2.9875,-0.955 5,-3.125 2.04,-2.195 5.58625,-6.28625 5.875,-6.75 0,0 7.24375,15.89375 8.75,28.625 l 10,-2.375 c 0,0 0.33875,-0.12125 0.75,0.125 0.36875,0.325 2.03125,1.1825 2.375,1.375 0.33125,0.17125 1.24125,0.3275 1.5,-0.125 0.3125,-0.3275 0.28625,-0.925 0.25,-1.5 l -1.375,-7.375 c 0,0 -0.375,-1.12875 0.625,-1.75 3.3225,-1.97375 13.25875,-10.58125 15.5,-13.375 0.56,-0.77125 2.0675,-2.485 4.375,-2.5 2.26375,0.015 5.12125,0.0662 6.875,-0.375 1.77875,-0.49375 2.92125,0.545 3,2.125 0.27125,9.2525 3.3,14.09375 4.625,15.75 2.34625,3.09375 2.60875,5.4675 2.875,7.25 0.11125,0.67 0.37125,2.955 2.375,3 0.91875,-0.045 1.07375,-0.27875 1.75,-0.375 0.64875,-0.215 8.83125,-2.1625 9.25,-2.25 0.36125,-0.0687 1.10125,-0.53625 1,-1.125 -0.1325,-0.5025 -0.67875,-0.93125 -1.25,-1 -0.675,-0.009 -4.805,-0.39875 -5.25,-0.5 -1.61625,-0.2425 -2.3,-0.4 -2.875,-2.375 -0.30375,-0.91375 -5.72,-20.37 -5.875,-22.25 0,0 2.38875,-0.355 3.75,-1.5 0,0 -6.76375,-9.29625 -9.375,-22.75 0,0 4.68875,10.18 16.125,15.375 0.6825,0.28375 1.15125,0.4375 1.625,0.75 0.55,0.42 1.43375,0.9125 2.25,0.875 0.7425,0.0375 2.89875,-0.79375 2.875,-2.875 0.0237,-1.97125 -1.82125,-2.56875 -2.125,-2.75 -2.13375,-0.8625 -4.6225,-2.5375 -6.375,-4.125 -4.31125,-3.68625 -6.74,-6.8575 -9.125,-12.5 -0.30125,-0.88375 -3.36625,-7.065 -4,-7.75 -1.34125,-1.455 -3.19125,-2.55375 -4.75,-2.875 -0.48125,-0.1425 -1.78625,-0.37625 -1.75,-0.875 -0.0362,-0.69 0.35875,-0.81625 0.625,-0.875 2.84125,-1.2825 3.00125,-5.53125 3,-6.75 0.001,-2.59125 -0.9725,-9.995 -8,-10 z m -7.5,28.5 c 0.40875,16.15875 -6.125,27.125 -6.125,27.125 2.06625,1.91875 3.5,2.125 3.5,2.125 -8.915,4.52125 -11.825,9.665 -13.5,12.5 -1.65,2.88 -2.71375,3.685 -4.25,4.625 -1.42625,0.9825 -0.90625,2.125 -0.75,2.5 0.0513,0.3 1.24625,3.52125 1.375,4 0.235,0.56 0.001,1.3138 -0.75,1.375 -0.8075,-0.0612 -1.84625,-2.19125 -2,-4.25 -0.755,-7.02125 -4.2625,-21.52875 -5,-24.125 -0.82125,-2.59875 -1,-6.125 -1,-6.125 l 0.125,-2.625 c 0,0 3.7425,4.5925 5.5,6.625 1.88,1.91625 5.1,0.8263 5.625,0.75 0.41125,-0.1325 8.1,-2.57375 9.625,-3.125 1.59125,-0.48875 2.7875,-2.77375 3,-4.125 0.0987,-1.455 -0.88875,-3.3775 -1.25,-3.875 -0.2625,-0.4375 -1.09375,-2.35875 -1.25,-3 -0.155,-0.60625 -0.67375,-2.47625 -0.875,-3.25 -0.9325,-3.475 1.5,-4 1.5,-4 l 6.5,-3.125 z"
     id="path34"
     inkscape:connector-curvature="0"
     style="fill:#000000;stroke:none" /></svg>