<?xml version="1.0" encoding="UTF-8" standalone="no"?>
<!-- Created with Inkscape (http://www.inkscape.org/) -->

<svg
   xmlns:dc="http://purl.org/dc/elements/1.1/"
   xmlns:cc="http://creativecommons.org/ns#"
   xmlns:rdf="http://www.w3.org/1999/02/22-rdf-syntax-ns#"
   xmlns:svg="http://www.w3.org/2000/svg"
   xmlns="http://www.w3.org/2000/svg"
   xmlns:sodipodi="http://sodipodi.sourceforge.net/DTD/sodipodi-0.dtd"
   xmlns:inkscape="http://www.inkscape.org/namespaces/inkscape"
   version="1.1"
   width="216.77"
   height="216.75375"
   id="svg2"
   xml:space="preserve"
   inkscape:version="0.48.2 r9819"
   sodipodi:docname="UK traffic sign 953+953.2.svg"><sodipodi:namedview
     pagecolor="#ffffff"
     bordercolor="#666666"
     borderopacity="1"
     objecttolerance="10"
     gridtolerance="10"
     guidetolerance="10"
     inkscape:pageopacity="0"
     inkscape:pageshadow="2"
     inkscape:window-width="640"
     inkscape:window-height="480"
     id="namedview70"
     showgrid="false"
     fit-margin-top="0"
     fit-margin-left="0"
     fit-margin-right="0"
     fit-margin-bottom="0"
     inkscape:zoom="0.76835424"
     inkscape:cx="108.385"
     inkscape:cy="63.178753"
     inkscape:window-x="0"
     inkscape:window-y="24"
     inkscape:window-maximized="0"
     inkscape:current-layer="svg2" /><metadata
     id="metadata8"><rdf:RDF><cc:Work
         rdf:about=""><dc:format>image/svg+xml</dc:format><dc:type
           rdf:resource="http://purl.org/dc/dcmitype/StillImage" /></cc:Work></rdf:RDF></metadata><defs
     id="defs6"><clipPath
       id="clipPath20"><path
         d="M 0.014999,245.72 H 173.435 V 0 H 0.014999 v 245.72 z"
         inkscape:connector-curvature="0"
         id="path22" /></clipPath></defs><g
     id="g12"
     transform="matrix(1.25,0,0,-1.25,108.375,1.0625)"><path
       style="fill:#ffffff;fill-rule:evenodd"
       id="path14"
       inkscape:connector-curvature="0"
       d="m 0,0 c 47.397,0 85.866,-38.459 85.866,-85.852 0,-47.39 -38.469,-85.851 -85.866,-85.851 -47.396,0 -85.865,38.461 -85.865,85.851 0,47.39 38.469,85.849 85.865,85.849" /></g><g
     id="g16"
     transform="matrix(1.25,0,0,-1.25,-0.01874875,307.15)"><g
       id="g18"
       clip-path="url(#clipPath20)"><g
         id="g24"
         transform="translate(86.715,244.87)"><path
           style="fill:none;stroke:#0079c1;stroke-width:1.70000005;stroke-miterlimit:10"
           id="path26"
           inkscape:connector-curvature="0"
           d="m 0,0 c 47.397,0 85.866,-38.459 85.866,-85.852 0,-47.39 -38.469,-85.851 -85.866,-85.851 -47.396,0 -85.865,38.461 -85.865,85.851 0,47.39 38.469,85.849 85.865,85.849" /></g></g></g><g
     id="g28"
     transform="matrix(1.25,0,0,-1.25,108.375,6.275)"><path
       style="fill:#0079c1;fill-rule:evenodd"
       id="path30"
       inkscape:connector-curvature="0"
       d="m 0,0 c 45.092,0 81.686,-36.592 81.686,-81.676 0,-45.082 -36.594,-81.675 -81.686,-81.675 -45.094,0 -81.686,36.593 -81.686,81.675 0,45.083 36.592,81.675 81.686,81.675" /></g><g
     id="g32"
     transform="matrix(1.25,0,0,-1.25,89.278751,41.5625)"><path
       style="fill:#ffffff;fill-rule:evenodd"
       id="path34"
       inkscape:connector-curvature="0"
       d="m 0,0 c 0.865,3.023 1.728,6.051 2.592,9.074 h 0.144 c 0,0.145 -0.144,0.289 -0.287,0.434 -1.152,0.431 -1.728,1.439 -1.728,2.592 0,1.584 1.152,2.736 2.736,2.879 H 8.352 V 12.1 H 4.176 c -0.143,0 -0.287,-0.145 -0.287,-0.289 0,-0.143 0,-0.288 0.144,-0.432 0.863,-0.432 1.44,-1.152 1.44,-2.16 0,-0.432 0,-0.576 -0.145,-1.008 0,-0.145 -0.432,-1.44 -0.432,-1.44 h 19.305 c 0.285,0.864 0.719,1.872 1.152,2.879 -1.441,0.289 -2.882,0.577 -4.464,1.008 -0.289,0.145 -0.434,0.434 -0.434,0.721 0,0.432 0.289,0.721 0.719,0.721 h 9.797 c 0,-1.584 -1.149,-2.881 -2.735,-2.881 C 27.947,8.5 27.658,7.635 27.228,6.771 28.381,4.611 29.533,2.303 30.83,0 c 1.297,0.574 2.59,0.863 4.035,0.863 5.762,0 10.516,-4.752 10.516,-10.66 0,-5.76 -4.754,-10.515 -10.516,-10.515 -5.476,0 -9.945,4.035 -10.519,9.507 h -1.297 c -0.289,-1.007 -0.867,-1.873 -1.727,-2.449 0.289,-0.719 0.574,-1.439 1.008,-2.16 h 1.727 v -1.44 h -1.153 c -0.144,-0.142 -0.433,-0.287 -0.722,-0.287 -0.286,0 -0.571,0.145 -0.86,0.287 h -1.441 v 1.44 h 1.293 c -0.285,0.576 -0.574,1.152 -0.86,1.728 -0.578,-0.287 -0.722,-0.287 -1.296,-0.287 -2.309,0 -4.325,1.871 -4.325,4.176 0,0.432 0.143,0.863 0.287,1.297 -4.031,2.738 -8.068,5.475 -12.099,8.355 -0.145,-0.289 -0.289,-0.72 -0.432,-1.152 l 0.143,-0.144 c 2.592,-2.016 4.033,-5.039 4.033,-8.356 0,-5.76 -4.752,-10.515 -10.516,-10.515 -5.908,0 -10.66,4.755 -10.66,10.515 0,5.908 4.752,10.66 10.66,10.66 1.584,0 2.303,-0.144 3.748,-0.72 L 0,0 z m 16.135,-9.797 c 0,-1.439 1.297,-2.736 2.883,-2.736 1.437,0 2.734,1.297 2.734,2.736 0,1.584 -1.297,2.883 -2.734,2.883 -1.586,0 -2.883,-1.299 -2.883,-2.883 M 1.584,-4.754 c -0.143,-0.574 -0.287,-1.15 -0.576,-1.871 -0.719,-2.02 -2.74,-3.604 -4.756,-4.18 h -0.143 c -0.576,0 -1.152,0.432 -1.152,1.008 0,0.432 0.287,0.721 0.432,0.863 0,0 0.144,0 0.287,0.145 1.152,0.867 2.16,1.732 2.592,3.027 0.289,0.866 0.576,1.729 0.865,2.737 -1.008,0.431 -2.016,0.72 -3.024,0.72 -4.177,0 -7.492,-3.312 -7.492,-7.492 0,-4.031 3.315,-7.344 7.492,-7.344 4.036,0 7.348,3.313 7.348,7.344 0,2.02 -0.721,3.748 -1.873,5.043 m 20.168,-1.871 c 1.297,3.455 2.734,6.912 4.18,10.512 0.867,-1.584 1.726,-3.313 2.734,-5.039 -2.59,-1.873 -4.031,-4.465 -4.32,-7.493 h -1.297 c -0.145,0.723 -0.578,1.444 -1.153,2.02 h -0.144 z m 8.359,2.592 C 28.666,-5.186 27.807,-6.77 27.518,-8.645 h 5.183 c -0.863,1.444 -1.73,3.028 -2.59,4.612 m 5.618,-5.332 c 0.144,-0.145 0.144,-0.287 0.144,-0.432 0,-0.576 -0.434,-1.008 -1.008,-1.008 h -7.347 c 0.574,-3.599 3.601,-6.336 7.347,-6.336 4.031,0 7.344,3.313 7.344,7.344 0,4.18 -3.313,7.492 -7.344,7.492 -0.871,0 -1.73,-0.144 -2.453,-0.431 1.008,-2.16 2.164,-4.321 3.317,-6.629 m -19.165,3.172 c -0.289,0.576 -0.578,1.297 -1.007,2.015 h -1.729 v 1.442 h 1.152 c 0.288,0.287 0.577,0.431 0.866,0.431 0.289,0 0.574,-0.144 0.718,-0.431 h 1.446 v -1.442 h -1.301 c 0.285,-0.431 0.582,-1.008 0.867,-1.584 h 0.145 c 0.289,0.145 0.863,0.289 1.297,0.289 h 0.14 c 1.297,3.168 2.594,6.481 4.035,9.795 H 4.176 C 4.033,3.742 3.889,3.023 3.6,2.303 c 4.177,-2.879 8.357,-5.76 12.675,-8.783 0,0 0.145,0.142 0.289,0.287" /></g><g
     id="g36"
     transform="matrix(1.25,0,0,-1.25,89.278751,41.5625)"><path
       style="fill:none;stroke:#ffffff;stroke-width:0.14399999;stroke-miterlimit:10"
       id="path38"
       inkscape:connector-curvature="0"
       d="m 0,0 c 0.865,3.023 1.728,6.051 2.592,9.074 h 0.144 c 0,0.145 -0.144,0.289 -0.287,0.434 -1.152,0.431 -1.728,1.439 -1.728,2.592 0,1.584 1.152,2.736 2.736,2.879 H 8.352 V 12.1 H 4.176 c -0.143,0 -0.287,-0.145 -0.287,-0.289 0,-0.143 0,-0.288 0.144,-0.432 0.863,-0.432 1.44,-1.152 1.44,-2.16 0,-0.432 0,-0.576 -0.145,-1.008 0,-0.145 -0.432,-1.44 -0.432,-1.44 h 19.305 c 0.285,0.864 0.719,1.872 1.152,2.879 -1.441,0.289 -2.882,0.577 -4.464,1.008 -0.289,0.145 -0.434,0.434 -0.434,0.721 0,0.432 0.289,0.721 0.719,0.721 h 9.797 c 0,-1.584 -1.149,-2.881 -2.735,-2.881 C 27.947,8.5 27.658,7.635 27.228,6.771 28.381,4.611 29.533,2.303 30.83,0 c 1.297,0.574 2.59,0.863 4.035,0.863 5.762,0 10.516,-4.752 10.516,-10.66 0,-5.76 -4.754,-10.515 -10.516,-10.515 -5.476,0 -9.945,4.035 -10.519,9.507 h -1.297 c -0.289,-1.007 -0.867,-1.873 -1.727,-2.449 0.289,-0.719 0.574,-1.439 1.008,-2.16 h 1.727 v -1.44 h -1.153 c -0.144,-0.142 -0.433,-0.287 -0.722,-0.287 -0.286,0 -0.571,0.145 -0.86,0.287 h -1.441 v 1.44 h 1.293 c -0.285,0.576 -0.574,1.152 -0.86,1.728 -0.578,-0.287 -0.722,-0.287 -1.296,-0.287 -2.309,0 -4.325,1.871 -4.325,4.176 0,0.432 0.143,0.863 0.287,1.297 -4.031,2.738 -8.068,5.475 -12.099,8.355 -0.145,-0.289 -0.289,-0.72 -0.432,-1.152 l 0.143,-0.144 c 2.592,-2.016 4.033,-5.039 4.033,-8.356 0,-5.76 -4.752,-10.515 -10.516,-10.515 -5.908,0 -10.66,4.755 -10.66,10.515 0,5.908 4.752,10.66 10.66,10.66 1.584,0 2.303,-0.144 3.748,-0.72 L 0,0 z" /><g
       id="g40"
       transform="translate(16.135,-9.797)"><path
         style="fill:none;stroke:#ffffff;stroke-width:0.14399999;stroke-miterlimit:10"
         id="path42"
         inkscape:connector-curvature="0"
         d="M 0,0 C 0,-1.44 1.297,-2.736 2.883,-2.736 4.32,-2.736 5.617,-1.44 5.617,0 5.617,1.584 4.32,2.883 2.883,2.883 1.297,2.883 0,1.584 0,0 z" /><g
         id="g44"
         transform="translate(-14.551,5.043)"><path
           style="fill:none;stroke:#ffffff;stroke-width:0.14399999;stroke-miterlimit:10"
           id="path46"
           inkscape:connector-curvature="0"
           d="m 0,0 c -0.143,-0.574 -0.287,-1.15 -0.576,-1.871 -0.719,-2.02 -2.74,-3.604 -4.756,-4.18 h -0.143 c -0.576,0 -1.152,0.432 -1.152,1.008 0,0.432 0.287,0.721 0.432,0.863 0,0 0.144,0 0.287,0.145 1.152,0.867 2.16,1.732 2.592,3.027 0.289,0.865 0.576,1.729 0.865,2.736 -1.008,0.432 -2.016,0.721 -3.024,0.721 -4.177,0 -7.492,-3.312 -7.492,-7.492 0,-4.031 3.315,-7.344 7.492,-7.344 4.036,0 7.348,3.313 7.348,7.344 C 1.873,-3.023 1.152,-1.295 0,0 z" /><g
           id="g48"
           transform="translate(20.168,-1.871)"><path
             style="fill:none;stroke:#ffffff;stroke-width:0.14399999;stroke-miterlimit:10"
             id="path50"
             inkscape:connector-curvature="0"
             d="M 0,0 C 1.297,3.455 2.734,6.912 4.18,10.512 5.047,8.928 5.906,7.199 6.914,5.473 4.324,3.6 2.883,1.008 2.594,-2.02 H 1.297 C 1.152,-1.297 0.719,-0.576 0.145,0 H 0 z" /><g
             id="g52"
             transform="translate(8.359,2.592)"><path
               style="fill:none;stroke:#ffffff;stroke-width:0.14399999;stroke-miterlimit:10"
               id="path54"
               inkscape:connector-curvature="0"
               d="M 0,0 C -1.445,-1.152 -2.304,-2.736 -2.593,-4.611 H 2.59 C 1.727,-3.168 0.86,-1.584 0,0 z" /><g
               id="g56"
               transform="translate(5.618,-5.332)"><path
                 style="fill:none;stroke:#ffffff;stroke-width:0.14399999;stroke-miterlimit:10"
                 id="path58"
                 inkscape:connector-curvature="0"
                 d="m 0,0 c 0.144,-0.145 0.144,-0.287 0.144,-0.432 0,-0.576 -0.434,-1.007 -1.008,-1.007 h -7.347 c 0.574,-3.6 3.601,-6.336 7.347,-6.336 4.031,0 7.344,3.312 7.344,7.343 0,4.18 -3.313,7.493 -7.344,7.493 -0.871,0 -1.73,-0.145 -2.453,-0.432 C -2.309,4.469 -1.153,2.309 0,0 z" /><g
                 id="g60"
                 transform="translate(-19.165,3.172)"><path
                   style="fill:none;stroke:#ffffff;stroke-width:0.14399999;stroke-miterlimit:10"
                   id="path62"
                   inkscape:connector-curvature="0"
                   d="m 0,0 c -0.289,0.576 -0.578,1.297 -1.008,2.016 h -1.728 v 1.441 h 1.152 c 0.287,0.287 0.576,0.432 0.865,0.432 0.289,0 0.574,-0.145 0.719,-0.432 H 1.445 V 2.016 h -1.3 C 0.43,1.584 0.727,1.008 1.012,0.432 H 1.156 C 1.445,0.576 2.02,0.721 2.453,0.721 h 0.141 c 1.297,3.168 2.594,6.48 4.035,9.795 h -19.018 c -0.142,-0.58 -0.287,-1.299 -0.576,-2.02 4.178,-2.879 8.358,-5.76 12.676,-8.783 0,0 0.144,0.142 0.289,0.287 z" /></g></g></g></g></g></g></g><g
     id="g64"
     transform="matrix(1.25,0,0,-1.25,24.808751,131.05)"><path
       style="fill:#ffffff;fill-rule:evenodd"
       id="path66"
       inkscape:connector-curvature="0"
       d="m 0,0 v -0.139 c -0.047,0 -0.096,-0.004 -0.143,-0.004 -1.912,0 -3.461,1.551 -3.461,3.459 v 14.981 c 0,0.951 0.776,1.728 1.729,1.728 l 0.871,19.592 c 0.076,0.894 0.824,1.584 1.725,1.584 0.049,0 0.095,-0.004 0.144,-0.008 l 0.864,0.008 h 127.06 c 4.851,0 8.785,-3.936 8.785,-8.789 V 5.908 l -30.391,-6.195 c 0.285,0.863 0.43,1.728 0.43,2.74 0,4.752 -4.031,8.783 -8.789,8.783 -4.898,0 -8.789,-4.031 -8.789,-8.783 0,-1.012 0,-1.877 0.289,-2.74 H 36.588 c 0.289,0.863 0.433,1.728 0.433,2.74 0,4.752 -4.037,8.783 -8.789,8.783 -4.9,0 -8.931,-4.031 -8.931,-8.783 0,-1.012 0.144,-1.877 0.431,-2.74 L 0.013,0 z m 13.973,32.412 c 0,0.957 -0.772,1.728 -1.729,1.728 L 7.061,34.136 C 7.012,34.14 6.961,34.14 6.912,34.14 5.961,34.14 5.186,33.369 5.186,32.412 L 5.193,6.773 C 5.27,5.877 6.018,5.189 6.912,5.189 c 0.049,0 0.1,0 0.149,0.004 l 5.183,-0.004 c 0.901,0 1.649,0.688 1.725,1.584 l 0.004,25.639 z m 8.068,-10.371 v -0.137 c -0.049,-0.004 -0.096,-0.008 -0.144,-0.008 -0.952,0 -1.729,0.776 -1.729,1.729 v 8.787 c 0,0.957 0.777,1.728 1.729,1.728 0.048,0 0.095,0 0.144,-0.004 l 21.18,0.004 c 0.951,0 1.728,-0.771 1.728,-1.728 v -8.787 c 0,-0.953 -0.777,-1.729 -1.728,-1.729 l -21.18,0.145 z m 29.104,-0.145 c -0.956,0 -1.733,0.776 -1.733,1.729 v 8.787 c 0,0.957 0.777,1.728 1.733,1.728 H 72.32 c 0.953,0 1.727,-0.771 1.727,-1.728 v -8.787 c 0,-0.953 -0.774,-1.729 -1.727,-1.729 H 51.145 z m 29.097,0 c -0.953,0 -1.726,0.776 -1.726,1.729 v 8.787 c 0,0.957 0.773,1.728 1.726,1.728 h 21.18 c 0.953,0 1.726,-0.771 1.726,-1.728 v -8.787 c 0,-0.953 -0.773,-1.729 -1.726,-1.729 h -21.18 z m 29.102,0 c -0.954,0 -1.727,0.776 -1.727,1.729 v 8.787 c 0,0.957 0.773,1.728 1.727,1.728 h 17.718 c 2.946,0 5.336,-2.324 5.336,-5.183 l -0.148,-5.332 c 0,-0.953 -0.774,-1.729 -1.727,-1.729 h -21.179" /></g><g
     id="g68"
     transform="matrix(1.25,0,0,-1.25,24.808751,131.05)"><path
       style="fill:none;stroke:#ffffff;stroke-width:0.14399999;stroke-miterlimit:10"
       id="path70"
       inkscape:connector-curvature="0"
       d="m 0,0 v -0.139 c -0.047,0 -0.096,-0.004 -0.143,-0.004 -1.912,0 -3.461,1.551 -3.461,3.459 v 14.981 c 0,0.951 0.776,1.728 1.729,1.728 l 0.871,19.592 c 0.076,0.894 0.824,1.584 1.725,1.584 0.049,0 0.095,-0.004 0.144,-0.008 l 0.864,0.008 h 127.06 c 4.851,0 8.785,-3.936 8.785,-8.789 V 5.908 l -30.391,-6.195 c 0.285,0.863 0.43,1.728 0.43,2.74 0,4.752 -4.031,8.783 -8.789,8.783 -4.898,0 -8.789,-4.031 -8.789,-8.783 0,-1.012 0,-1.877 0.289,-2.74 H 36.588 c 0.289,0.863 0.433,1.728 0.433,2.74 0,4.752 -4.037,8.783 -8.789,8.783 -4.9,0 -8.931,-4.031 -8.931,-8.783 0,-1.012 0.144,-1.877 0.431,-2.74 L 0.013,0 z" /><g
       id="g72"
       transform="translate(13.973,32.412)"><path
         style="fill:none;stroke:#ffffff;stroke-width:0.14399999;stroke-miterlimit:10"
         id="path74"
         inkscape:connector-curvature="0"
         d="M 0,0 C 0,0.957 -0.772,1.729 -1.729,1.729 L -6.912,1.725 c -0.049,0.004 -0.1,0.004 -0.149,0.004 -0.951,0 -1.726,-0.772 -1.726,-1.729 l 0.008,-25.639 c 0.076,-0.896 0.824,-1.584 1.718,-1.584 0.049,0 0.1,0 0.149,0.004 l 5.183,-0.004 c 0.901,0 1.649,0.688 1.725,1.584 L 0,0 z" /><g
         id="g76"
         transform="translate(8.068,-10.371)"><path
           style="fill:none;stroke:#ffffff;stroke-width:0.14399999;stroke-miterlimit:10"
           id="path78"
           inkscape:connector-curvature="0"
           d="m 0,0 v -0.137 c -0.049,-0.004 -0.096,-0.008 -0.144,-0.008 -0.952,0 -1.729,0.776 -1.729,1.729 v 8.787 c 0,0.957 0.777,1.729 1.729,1.729 0.048,0 0.095,0 0.144,-0.004 L 21.18,12.1 c 0.951,0 1.728,-0.772 1.728,-1.729 V 1.584 c 0,-0.953 -0.777,-1.729 -1.728,-1.729 L 0,0 z" /><g
           id="g80"
           transform="translate(29.104,-0.145)"><path
             style="fill:none;stroke:#ffffff;stroke-width:0.14399999;stroke-miterlimit:10"
             id="path82"
             inkscape:connector-curvature="0"
             d="m 0,0 c -0.955,0 -1.732,0.775 -1.732,1.729 v 8.787 c 0,0.957 0.777,1.728 1.732,1.728 h 21.176 c 0.953,0 1.726,-0.771 1.726,-1.728 V 1.729 C 22.902,0.775 22.129,0 21.176,0 H 0 z" /><g
             id="g84"
             transform="translate(29.098,0)"><path
               style="fill:none;stroke:#ffffff;stroke-width:0.14399999;stroke-miterlimit:10"
               id="path86"
               inkscape:connector-curvature="0"
               d="m 0,0 c -0.953,0 -1.727,0.775 -1.727,1.729 v 8.787 c 0,0.957 0.774,1.728 1.727,1.728 h 21.18 c 0.953,0 1.726,-0.771 1.726,-1.728 V 1.729 C 22.906,0.775 22.133,0 21.18,0 H 0 z" /><g
               id="g88"
               transform="translate(29.102,0)"><path
                 style="fill:none;stroke:#ffffff;stroke-width:0.14399999;stroke-miterlimit:10"
                 id="path90"
                 inkscape:connector-curvature="0"
                 d="m 0,0 c -0.954,0 -1.727,0.775 -1.727,1.729 v 8.787 c 0,0.957 0.773,1.728 1.727,1.728 h 17.718 c 2.946,0 5.336,-2.324 5.336,-5.183 L 22.906,1.729 C 22.906,0.775 22.132,0 21.179,0 H 0 z" /></g></g></g></g></g></g><g
     id="g92"
     transform="matrix(1.25,0,0,-1.25,59.923751,123.675)"><path
       style="fill:#ffffff;fill-rule:evenodd"
       id="path94"
       inkscape:connector-curvature="0"
       d="m 0,0 c 1.908,0 3.457,-1.547 3.457,-3.455 0,-1.912 -1.549,-3.461 -3.457,-3.461 -1.906,0 -3.459,1.549 -3.459,3.461 C -3.459,-1.547 -1.906,0 0,0 m 0.144,3.6 c 3.897,0 7.061,-3.159 7.061,-7.055 0,-3.897 -3.164,-7.061 -7.061,-7.061 -3.896,0 -7.06,3.164 -7.06,7.061 0,3.896 3.164,7.055 7.06,7.055" /></g><g
     id="g96"
     transform="matrix(1.25,0,0,-1.25,59.923751,123.675)"><path
       style="fill:none;stroke:#ffffff;stroke-width:0.14399999;stroke-miterlimit:10"
       id="path98"
       inkscape:connector-curvature="0"
       d="m 0,0 c 1.908,0 3.457,-1.547 3.457,-3.455 0,-1.912 -1.549,-3.461 -3.457,-3.461 -1.906,0 -3.459,1.549 -3.459,3.461 C -3.459,-1.547 -1.906,0 0,0 z" /><g
       id="g100"
       transform="translate(0.144,3.6)"><path
         style="fill:none;stroke:#ffffff;stroke-width:0.14399999;stroke-miterlimit:10"
         id="path102"
         inkscape:connector-curvature="0"
         d="m 0,0 c 3.896,0 7.061,-3.158 7.061,-7.055 0,-3.897 -3.165,-7.061 -7.061,-7.061 -3.896,0 -7.06,3.164 -7.06,7.061 C -7.06,-3.158 -3.896,0 0,0 z" /></g></g><g
     id="g104"
     transform="matrix(1.25,0,0,-1.25,148.16875,123.675)"><path
       style="fill:#ffffff;fill-rule:evenodd"
       id="path106"
       inkscape:connector-curvature="0"
       d="m 0,0 c 1.907,0 3.453,-1.547 3.453,-3.455 0,-1.912 -1.546,-3.461 -3.453,-3.461 -1.91,0 -3.461,1.549 -3.461,3.461 C -3.461,-1.547 -1.91,0 0,0 m 0.141,3.6 c 3.898,0 7.062,-3.159 7.062,-7.055 0,-3.897 -3.164,-7.061 -7.062,-7.061 -3.895,0 -7.059,3.164 -7.059,7.061 0,3.896 3.164,7.055 7.059,7.055" /></g><g
     id="g108"
     transform="matrix(1.25,0,0,-1.25,148.16875,123.675)"><path
       style="fill:none;stroke:#ffffff;stroke-width:0.14399999;stroke-miterlimit:10"
       id="path110"
       inkscape:connector-curvature="0"
       d="m 0,0 c 1.907,0 3.453,-1.547 3.453,-3.455 0,-1.912 -1.546,-3.461 -3.453,-3.461 -1.91,0 -3.461,1.549 -3.461,3.461 C -3.461,-1.547 -1.91,0 0,0 z" /><g
       id="g112"
       transform="translate(0.141,3.6)"><path
         style="fill:none;stroke:#ffffff;stroke-width:0.14399999;stroke-miterlimit:10"
         id="path114"
         inkscape:connector-curvature="0"
         d="m 0,0 c 3.898,0 7.062,-3.158 7.062,-7.055 0,-3.897 -3.164,-7.061 -7.062,-7.061 -3.895,0 -7.059,3.164 -7.059,7.061 C -7.059,-3.158 -3.895,0 0,0 z" /></g></g></svg>