<?xml version="1.0" encoding="UTF-8" standalone="no"?>
<svg
   width="681"
   height="602.12"
   fill-rule="evenodd"
   version="1.1"
   id="svg12"
   sodipodi:docname="UK_traffic_sign_500.svg"
   inkscape:version="1.1.1 (3bf5ae0d25, 2021-09-20)"
   xmlns:inkscape="http://www.inkscape.org/namespaces/inkscape"
   xmlns:sodipodi="http://sodipodi.sourceforge.net/DTD/sodipodi-0.dtd"
   xmlns="http://www.w3.org/2000/svg"
   xmlns:svg="http://www.w3.org/2000/svg">
  <defs
     id="defs16" />
  <sodipodi:namedview
     id="namedview14"
     pagecolor="#ffffff"
     bordercolor="#111111"
     borderopacity="1"
     inkscape:pageshadow="0"
     inkscape:pageopacity="0"
     inkscape:pagecheckerboard="1"
     showgrid="false"
     inkscape:zoom="1.1941141"
     inkscape:cx="262.53772"
     inkscape:cy="327.02066"
     inkscape:window-width="1920"
     inkscape:window-height="1057"
     inkscape:window-x="-8"
     inkscape:window-y="-8"
     inkscape:window-maximized="1"
     inkscape:current-layer="svg12" />
  <path
     d="M46.019,601.088 7.048,533.588 301.529,23.532 379.471,23.532 673.952,533.588 634.981,601.088"
     fill="#e31017"
     stroke="none"
     id="path2" />
  <circle
     cx="340.5"
     cy="46.032"
     r="45"
     fill="#e31017"
     stroke="none"
     id="circle4" />
  <circle
     cx="634.981"
     cy="556.088"
     r="45"
     fill="#e31017"
     stroke="none"
     id="circle6" />
  <circle
     cx="46.019"
     cy="556.088"
     r="45"
     fill="#e31017"
     stroke="none"
     id="circle8" />
  <path
     d="M72,541.088 340.5,76.032 609,541.088"
     fill="#fff"
     stroke="none"
     id="path10" />
  <path
     id="path16"
     style="fill:#000000;fill-opacity:1;fill-rule:evenodd;stroke:none;stroke-width:0.352828"
     d="m 324.13281,245.63292 c -9.64775,0 -17.79324,7.11321 -19.3164,16.25782 l -5.58789,37.61328 c -6.099,0.50984 -10.67579,5.58733 -10.67579,11.17578 v 4.06054 h -27.44726 c -9.66857,0 -17.28934,6.61397 -18.8125,15.76563 l -6.09961,37.61133 c -6.09158,0.51125 -10.66602,5.58272 -10.66602,11.68945 v 3.55664 h -27.44726 c -9.66821,0 -17.80105,7.10909 -19.32422,16.24805 l -5.58789,37.11719 C 167.06936,437.23743 162.5,442.30978 162.5,448.42784 v 32.00196 c 0,4.06845 2.03209,7.62341 5.58789,10.17187 v 25.41407 c 3.04597,3.04881 7.11288,5.07226 11.68164,5.07226 4.06599,0 8.64186,-2.02345 11.19141,-5.07226 v -23.375 l 46.2539,1.51757 45.75,-1.51757 v 23.375 c 3.05268,3.04881 7.11878,5.07226 11.17774,5.07226 4.57545,0 8.64155,-2.02345 11.6875,-5.07226 v -25.41407 c 3.55583,-2.03971 5.58789,-6.10342 5.58789,-10.17187 v -32.00196 c 0,-6.11806 -4.56932,-11.19041 -10.66797,-11.69921 l -1.52148,-11.17774 46.76953,-2.03906 v 23.375 c 3.04597,3.56673 7.11244,5.09765 11.17773,5.09765 4.57617,0 8.63041,-1.53092 11.68945,-5.09765 v -25.4043 c 3.5565,-2.02488 5.58008,-5.58218 5.58008,-9.66015 v -32.01563 c 0,-6.10673 -4.56041,-11.1782 -10.15625,-11.68945 l -2.04101,-11.18946 46.77929,-2.02734 v 23.375 c 3.04491,3.0622 7.10926,5.08789 11.17383,5.08789 4.57619,0 8.64455,-2.02569 11.68945,-5.08789 V 352.86144 C 435.44714,350.8355 437.5,347.26522 437.5,343.213 v -32.5332 c 0,-5.58845 -4.60381,-10.66594 -10.18555,-11.17578 l -6.08984,-37.61328 c -1.53128,-9.14461 -9.66367,-16.25782 -18.8125,-16.25782 z m 24.91211,11.68164 h 27.94922 l 23.88672,1.53125 c 7.63519,1.01297 13.73853,6.60076 14.76172,14.23633 2.01113,10.6674 2.01172,12.19727 2.01172,12.19727 0,4.05891 -3.55697,7.61523 -7.60742,7.61523 0,0 -1.021,-0.50341 -46.7793,-1.52344 -46.24767,1.02003 -46.75586,1.52344 -46.75586,1.52344 -4.58252,0 -7.63672,-3.55632 -7.63672,-7.61523 0,0 -5.4e-4,-1.52987 1.5293,-12.19727 1.01298,-7.63557 7.12661,-13.22336 14.74804,-14.23633 z m -63.02734,68.61524 h 27.95703 l 23.87891,1.53125 c 7.63557,1.02004 13.72642,7.11064 14.74609,14.73242 2.0383,10.6674 2.03906,11.6875 2.03906,11.6875 0,4.06705 -3.55536,7.63476 -7.63476,7.63477 0,0 -0.49623,-4e-4 -46.76368,-1.51368 -46.24694,1.51328 -46.75586,1.51367 -46.75585,1.51368 -4.58959,0 -8.14649,-3.56772 -8.14649,-7.63477 0,0 0.51041,-1.02005 2.0332,-12.19727 v 0.50977 c 1.02004,-7.62178 7.13331,-13.71238 14.74805,-14.73242 z m -63.0332,69.11914 h 27.94335 l 23.89844,1.53125 c 7.62179,1.00486 13.72643,6.61596 14.7461,14.23633 2.033,10.66635 2.0332,11.67578 2.0332,11.67578 0,4.573 -3.5551,7.63476 -7.62109,7.63476 0,0 -1.019,0 -46.76954,-1.53125 -46.25367,1.53125 -47.28125,1.53125 -47.28125,1.53125 -4.06564,0 -7.62109,-3.06176 -7.62109,-7.63476 0,0 2e-4,-1.00943 2.0332,-11.67578 1.01298,-7.62037 7.12431,-13.23147 14.7461,-14.23633 z" />
</svg>
