<svg width="360.268" height="318.2" xml:space="preserve" xmlns="http://www.w3.org/2000/svg"><path style="fill:#ec1d24;fill-opacity:1;fill-rule:evenodd;stroke:none" d="M336.29 318.1c8.586 0 16.457-4.522 20.688-11.906 4.253-7.374 4.253-16.48 0-23.875L200.82 11.975A23.766 23.766 0 0 0 180.228.1h-.188a23.766 23.766 0 0 0-20.594 11.875L3.29 282.32c-4.253 7.396-4.253 16.501 0 23.875 4.231 7.384 12.102 11.906 20.688 11.906z"/><path style="fill:#fff;fill-opacity:1;fill-rule:evenodd;stroke:none" d="M322.513 286.283H37.755L180.134 39.807z"/><path fill="none" stroke="#000" stroke-width="1.001" d="M244.143 205.85c-4.773-.12-9.335.83-13.418 2.631l-13.999-24.215 2.622-7.295c7.004-.64 9.496-7.004 9.626-8.165-.13-.99-1.461-.88-1.461-.88h-30.039c-.58-.11-2.782.45-2.922 2.921.14 2.262 2.632 2.622 2.632 2.622l13.118 2.922-3.202 8.745h-63.6c.73-2.902 1.17-4.663 1.17-4.663s.601-1.84.581-2.631c.02-3.533-2.631-6.194-3.792-6.705-.18-.22-.92-.55-.87-1.46-.05-1.091.53-1.932 1.75-2.042h13.419v-8.755h-16.92s-8.636.85-8.756 9.926c.12 5.143 2.721 6.334 4.673 7.585.79.39 1.41 2.101 1.16 3.202-.19.42-4.272 15.73-7.584 28.308-3.883-1.381-8.035-2.172-12.248-2.052-19.372-.12-34.982 15.49-35.012 34.722.03 19.282 15.64 34.892 35.012 35.012 19.132-.12 34.742-15.73 34.712-35.012.03-11.687-5.744-22.044-14.59-28.298.38-1.48.761-2.921 1.171-4.372l40.546 28.297c-.52 1.381-.76 2.862-.87 4.373.11 8.085 6.653 14.62 14.588 14.59 1.561.03 2.962-.18 4.373-.581l2.042 4.663h-3.793v4.673h4.373c.55 1.15 1.7 1.841 2.922 1.75 1.41.09 2.561-.6 3.202-1.75h4.092v-4.673h-6.134l-2.911-6.414c3.042-2.021 5.343-5.233 6.123-9.046h3.503c1.58 17.791 16.58 31.68 34.711 31.8 19.253-.12 34.862-15.73 35.013-35.012-.15-19.232-15.76-34.842-35.013-34.722zm-52.503 25.675a9.146 9.146 0 0 1 9.336 9.046c-.06 5.073-4.162 9.176-9.336 9.046-4.933.13-9.025-3.973-9.045-9.046.02-5.033 4.112-9.126 9.045-9.046zm.58-5.543c-.08.02-.27.01-.58 0-1.4.01-2.871.25-4.382.59l-2.042-4.382h4.083v-4.954h-4.083a4.653 4.653 0 0 0-3.202-1.75c-1.32.12-2.481.81-3.212 1.75h-4.082v4.954h6.124l2.912 6.133c-.25.22-.58.46-.871.58l-43.177-30.048c.52-1.661.97-3.352 1.46-4.963h62.72zm17.212 11.377h-3.503c-.66-3.352-2.641-6.354-5.253-8.455l12.258-33.841 10.206 17.79c-7.665 5.744-12.818 14.56-13.708 24.506zm27.717 0h-17.51c.83-6.114 4.022-11.547 8.464-15.46zm6.995-21.293c13.598-.1 24.625 10.927 24.505 24.505.12 13.619-10.907 24.646-24.505 24.506-12.468.14-22.745-9.176-24.506-21.294h24.215c1.601.05 4.783.05 4.673-2.922.11-1.19-.59-2.04-.59-2.04l-11.958-21.294c2.492-.95 5.224-1.561 8.165-1.461zM140.588 240.57c-.01 13.619-11.027 24.646-24.505 24.506-13.719.14-24.746-10.887-24.796-24.506.05-13.578 11.077-24.605 24.796-24.505 3.312-.1 6.574.61 9.626 1.75-1.16 4.163-1.751 6.715-1.751 6.715s-1.35 6.624-9.046 12.828c-.73.38-2.441.99-2.331 3.212-.11 2.031 1.26 3.532 3.502 3.502 2.111.03 12.388-3.052 15.17-13.128.02-.34.84-3.412 2.04-7.875 4.494 4.493 7.285 10.677 7.295 17.501z" style="fill:#000;fill-opacity:1;stroke:none"/></svg>