<svg xmlns="http://www.w3.org/2000/svg" width="173.446" height="173.43" xml:space="preserve"><path fill-rule="evenodd" clip-rule="evenodd" fill="#FFF" d="M86.721.85c47.398 0 85.875 38.469 85.875 85.867 0 47.395-38.477 85.863-85.875 85.863S.85 134.112.85 86.717C.85 39.319 39.323.85 86.721.85"/><path fill="none" stroke="#00703C" stroke-width="1.7" stroke-miterlimit="10" d="M86.721.85c47.398 0 85.875 38.469 85.875 85.867 0 47.395-38.477 85.863-85.875 85.863S.85 134.112.85 86.717C.85 39.319 39.323.85 86.721.85"/><path fill-rule="evenodd" clip-rule="evenodd" fill="#00703C" d="M86.721 5.03c45.016 0 81.547 36.594 81.547 81.688 0 45.09-36.531 81.688-81.547 81.688S5.174 131.807 5.174 86.717c0-45.093 36.532-81.687 81.547-81.687"/><path fill-rule="evenodd" clip-rule="evenodd" fill="#FFF" d="M69.002 98.506v-4.18H52.147v-8.785h25.074v32.848h-8.363v-5.184c-1.152 1.438-3.313 6.766-14.551 6.766-13.398 0-27.375-10.66-27.375-30.395 0-19.883 14.262-30.543 27.664-30.543 11.672 0 18.73 6.48 22.91 12.246l-8.359 5.617c-3.746-5.184-6.918-8.789-14.551-8.789-7.492 0-17.148 6.195-17.148 22.477.148 13.543 9.508 20.457 17.148 20.457 8.789.001 13.977-7.207 14.406-12.535M118.854 68.252c11.816 0 17.578 11.672 17.578 21.035s-5.617 21.609-17.578 21.609c-11.953 0-17.578-12.246-17.578-21.609s5.91-21.035 17.578-21.035m0-9.218c15.129 0 28.094 12.535 28.094 30.254 0 17.578-12.242 30.684-28.094 30.684-15.703 0-27.953-13.105-27.953-30.684 0-17.719 12.828-30.254 27.953-30.254"/></svg>