<svg xmlns="http://www.w3.org/2000/svg" width="455mm" height="455mm" viewBox="0 0 455 455"><g transform="translate(0 158)"><circle style="fill:#000;fill-opacity:1;stroke:none;stroke-width:0;stroke-miterlimit:10" cx="227.5" cy="69.5" r="226.5"/><circle style="fill:#fff;fill-opacity:1;stroke:none;stroke-width:0;stroke-miterlimit:10" cx="227.5" cy="69.5" r="225"/><circle style="fill:#01619e;fill-opacity:1;stroke:none;stroke-width:0;stroke-miterlimit:10" cx="227.5" cy="69.5" r="216"/><path style="fill:#fff;fill-opacity:1;fill-rule:nonzero;stroke:none;stroke-width:.116969" d="M310.08-56.245c-6.156 0-12.027 1.221-17.37 3.463L274.841-83.89l3.393-9.327c8.914-.866 12.129-9.05 12.129-10.438 0-1.389-1.654-1.389-1.654-1.389h-38.645c-.86 0-3.706.728-3.706 3.77 0 3.04 3.243 3.569 3.243 3.569l16.941 3.726-4.104 11.28h-82.106l1.642-6.127s.706-2.291.706-3.26c0-4.595-3.413-8.029-4.852-8.803-.287-.155-1.247-.584-1.247-1.873 0-1.29.75-2.37 2.393-2.37h17.117V-116.5h-21.528s-11.293 1.058-11.293 12.604c0 6.75 3.352 8.285 6 9.871.882.53 1.675 2.732 1.323 3.966-.206.72-5.463 20.422-9.804 36.7a44.853 44.853 0 0 0-15.87-2.886C120.11-56.245 100-36.155 100-11.373 100 13.41 120.11 33.5 144.919 33.5c24.807 0 44.918-20.09 44.918-44.873 0-15.065-7.434-28.396-18.836-36.535l1.489-5.55 52.163 36.41a18.76 18.76 0 0 0-.876 5.675c0 10.377 8.422 18.791 18.81 18.791 1.858 0 3.652-.27 5.347-.771l2.789 6.064h-4.794v6.082h5.37a4.76 4.76 0 0 0 4.026 2.215c1.695 0 3.18-.884 4.025-2.215h5.24V12.71h-7.848l-3.916-8.318a18.812 18.812 0 0 0 8.106-11.6l4.294.066C267.39 15.625 286.724 33.5 310.08 33.5 334.889 33.5 355 13.41 355-11.372s-20.111-44.873-44.92-44.873"/><path style="fill:#01619e;fill-opacity:1;fill-rule:nonzero;stroke:none;stroke-width:.116969" d="M243.323-30.147a18.791 18.791 0 0 0-6.368.84l-2.792-5.93h5.115v-6.081h-5.24a4.758 4.758 0 0 0-4.024-2.216c-1.693 0-3.18.884-4.026 2.216h-5.37v6.08h8.062l3.711 8.073c-.442.285-.87.59-1.285.91l-55.52-38.752c.598-2.226 1.18-4.393 1.732-6.456h81.032l-15.027 41.314M282.928-47.118l-13.124-22.927-15.887 43.674a18.796 18.796 0 0 1 7.043 10.966h4.385c1.153-12.929 7.794-24.281 17.583-31.713M289.523-35.41c-5.84 5.014-9.947 12.01-10.934 20.04h22.492l-11.558-20.04"/><path style="fill:#01619e;fill-opacity:1;fill-rule:nonzero;stroke:none;stroke-width:.116969" d="m299.397-41.057 15.714 27.24s.76 1.255.76 2.61c0 4-4.102 4-6.054 4l-31.136.06c2.095 15.475 15.336 27.466 31.4 27.466 17.52 0 31.724-14.19 31.724-31.692 0-17.501-14.204-31.69-31.724-31.69-3.797 0-7.311.784-10.684 2.005M167.241-33.887l-2.736 10.197c-3.468 12.868-16.706 16.836-19.41 16.836-2.912 0-4.677-1.94-4.677-4.672 0-2.733 2.207-3.526 3-4.142 10.058-7.845 11.647-16.218 11.647-16.218l2.303-8.643a31.647 31.647 0 0 0-12.45-2.535c-17.52 0-31.723 14.19-31.723 31.691 0 17.503 14.203 31.693 31.724 31.693 17.52 0 31.723-14.19 31.723-31.693 0-8.805-3.597-16.77-9.4-22.514"/><circle style="fill:#01619e;fill-opacity:1;stroke:none;stroke-width:0;stroke-miterlimit:10" cx="242.571" cy="-11.393" r="11.786"/><path style="fill:#fff;fill-opacity:1;fill-rule:nonzero;stroke:none;stroke-width:.164912" d="M251.967 48.5c-8.781 0-15.291 6.982-15.291 15.598 0 5.395 5.588 13.145 6.076 13.733.491.589 1.177 3.139-.587 3.728-4.3 1.434-10.74 3.39-15.684 6.573-1.373.88-4.215 2.255-4.804 5.198l-16.712 71.437s-4.166.27-4.166 3.703c0 2.55.636 2.699.636 2.699s-8.38.662-11.026-.074c-2.646-.734-3.75-2.354-1.618-4.414 2.134-2.06 3.53-4.855 3.53-7.945s-3.676-10.595-10.661-10.595c-6.983 0-10.806 6.254-10.806 10.374 0 4.119 2.352 7.357 3.308 8.314.955.955 1.69 2.354-.883 3.605-9.999 4.86-11.522 10.349-12.792 22.293-.368 3.456-.588 19.938-.441 21.26.148 1.326 1.985 4.267 5.073 4.267 3.087 0 4.484-1.912 4.484-3.383 0-1.472-1.176-2.206-1.69-2.722-.514-.515-1.103-1.914-.736-3.016.368-1.105 2.5-13.537 2.426-14.494.441-.368 1.691-2.503 2.426-3.753 3.993 7.49 1.105 20.491-.588 30.092-.221 1.25-.294 2.06 1.838 2.648 0 .66-.073 27.001-.073 27.001s-.146 1.91-.588 2.354c-.442.442-1.617 1.472-1.617 2.503 0 1.028.808 1.47 1.544 1.47.734 0 1.176-.368 1.618-.662.44-.295 4.263-3.015 4.263-3.015s1.396-1.252 1.838-3.092l4.116-19.35s0-1.176.882-1.986c.884-.808 1.472-1.325 1.986-1.544.515-.22 1.25-.442 1.25.587v23.103s.072 1.25.735 1.84c.661.588 6.983 4.708 7.204 5 .221.295 1.25.59 1.545.59.293 0 1.617-.442 1.617-1.545 0-1.104-.588-1.691-.956-2.208-.368-.514-1.838-2.352-2.059-2.575-.221-.221-1.202-1.643-.589-3.898.222-.81 3.09-16.48 3.162-18.1.882-.293 7.5-3.162 5.368-10.888l-8.309-34.136s-.93-2.035.957-2.724c7.866-2.869 12.497-5.003 19.04-9.931.791-.595 3.087-2.722-1.029-5.665l19.556-50.25-1.177 54.811s-.293 3.385-.074 6.106l5.884 71.808s-.149 1.03-.516 1.544c-.366.516-2.795 4.12-3.088 4.415-.295.295-.735 1.03-.514 1.616.219.591.956 1.695 1.838 1.695.882 0 1.323-.444 1.985-.81l10.733-7.873s1.47-.808 1.543-3.9c0 0 .435-22.047.882-35.682.516-15.67 1.47-19.79 4.853-35.093l2.28 30.165s.587 13.683.587 14.713c0 6.897.177 21.791-1.103 28.619-.221 1.178.147 1.25.442 1.546.293.294 7.057 6.769 7.352 7.211.293.439 1.395 1.03 1.91 1.03.515 0 2.719-.664 2.719-1.987 0-.442-.072-1.103-.513-1.767-.441-.661-1.25-2.06-1.396-2.28-.149-.221-.442-.588-.222-1.839.222-1.25 5.662-46.961 5.956-48.238.293-1.275 2.059-29.921 2.059-33.156 0-3.237-4.901-52.58-4.901-53.364 0 0 12.154 15.441 12.154 37.373 0 3.435-.344 8.542-.491 9.418-.097.587-.195 1.668-.49 2.354-.295.688-1.078 2.844-1.078 4.316 0 1.473 1.273 6.279 6.568 6.279 2.94 0 5.93-3.58 5.93-5.934 0-2.356-.638-3.779-.93-4.171-.294-.392-.589-2.257-.198-4.118.394-1.864 1.276-14.814 1.276-18.051 0-11.942-4.314-32.077-7.156-44.634-.376-1.65-2.255-5.198-4.707-6.866-7.088-4.824-13.37-8.687-20.682-9.908-1.175-.196-3.627-1.176-1.57-4.415 2.06-3.237 5.785-8.534 5.785-14.125 0-5.59-4.019-14.813-14.703-14.813"/></g></svg>