<?xml version="1.0" encoding="UTF-8" standalone="no"?>
<!-- Created with Inkscape (http://www.inkscape.org/) -->

<svg
   xmlns:dc="http://purl.org/dc/elements/1.1/"
   xmlns:cc="http://creativecommons.org/ns#"
   xmlns:rdf="http://www.w3.org/1999/02/22-rdf-syntax-ns#"
   xmlns:svg="http://www.w3.org/2000/svg"
   xmlns="http://www.w3.org/2000/svg"
   xmlns:sodipodi="http://sodipodi.sourceforge.net/DTD/sodipodi-0.dtd"
   xmlns:inkscape="http://www.inkscape.org/namespaces/inkscape"
   version="1.1"
   width="360.26767"
   height="318.20004"
   id="svg2816"
   xml:space="preserve"
   inkscape:version="0.48.4 r9939"
   sodipodi:docname="AJAX.svg"><metadata
     id="metadata81"><rdf:RDF><cc:Work
         rdf:about=""><dc:format>image/svg+xml</dc:format><dc:type
           rdf:resource="http://purl.org/dc/dcmitype/StillImage" /><dc:title></dc:title></cc:Work></rdf:RDF></metadata><sodipodi:namedview
     pagecolor="#ffffff"
     bordercolor="#666666"
     borderopacity="1"
     objecttolerance="10"
     gridtolerance="10"
     guidetolerance="10"
     inkscape:pageopacity="0"
     inkscape:pageshadow="2"
     inkscape:window-width="1920"
     inkscape:window-height="1057"
     id="namedview79"
     showgrid="false"
     fit-margin-top="0.1"
     fit-margin-left="0.1"
     fit-margin-right="0.1"
     fit-margin-bottom="0.1"
     inkscape:zoom="2.0000001"
     inkscape:cx="194.27065"
     inkscape:cy="140.09714"
     inkscape:window-x="-8"
     inkscape:window-y="-8"
     inkscape:window-maximized="1"
     inkscape:current-layer="svg2816"
     showguides="true"
     inkscape:guide-bbox="true" /><defs
     id="defs2820"><clipPath
       id="clipPath2832"><path
         d="m -0.24,595.138 317.48,0 0,-595.276 -317.48,0 0,595.276 z"
         id="path2834"
         inkscape:connector-curvature="0" /></clipPath><clipPath
       id="clipPath2840"><path
         d="m 0.03,595.32 317.46,0 0,-595.32 -317.46,0 0,595.32 z"
         id="path2842"
         inkscape:connector-curvature="0" /></clipPath><clipPath
       id="clipPath2858"><path
         d="m -0.24,595.138 317.48,0 0,-595.276 -317.48,0 0,595.276 z"
         id="path2860"
         inkscape:connector-curvature="0" /></clipPath><clipPath
       id="clipPath2864"><path
         d="m 0.03,595.32 317.46,0 0,-595.32 -317.46,0 0,595.32 z"
         id="path2866"
         inkscape:connector-curvature="0" /></clipPath><clipPath
       id="clipPath3306"><path
         d="m 199.238,472.977 0,-29.74 29.744,0 0,29.74"
         id="path3308"
         inkscape:connector-curvature="0" /></clipPath><clipPath
       id="clipPath3322"><path
         d="m -0.24,595.138 317.48,0 0,-595.276 -317.48,0 0,595.276 z"
         id="path3324"
         inkscape:connector-curvature="0" /></clipPath><clipPath
       id="clipPath3330"><path
         d="m 0.03,595.32 317.46,0 0,-595.32 -317.46,0 0,595.32 z"
         id="path3332"
         inkscape:connector-curvature="0" /></clipPath><clipPath
       id="clipPath3344"><path
         d="m 88.233,387.221 0,-28.335 32.08,0 0,28.335"
         id="path3346"
         inkscape:connector-curvature="0" /></clipPath><clipPath
       id="clipPath3462"><path
         d="m -0.24,595.138 317.48,0 0,-595.276 -317.48,0 0,595.276 z"
         id="path3464"
         inkscape:connector-curvature="0" /></clipPath><clipPath
       id="clipPath3470"><path
         d="m 0.03,595.32 317.46,0 0,-595.32 -317.46,0 0,595.32 z"
         id="path3472"
         inkscape:connector-curvature="0" /></clipPath><clipPath
       id="clipPath3490"><path
         d="m -0.24,595.138 317.48,0 0,-595.276 -317.48,0 0,595.276 z"
         id="path3492"
         inkscape:connector-curvature="0" /></clipPath><clipPath
       id="clipPath3496"><path
         d="m 0.03,595.32 317.46,0 0,-595.32 -317.46,0 0,595.32 z"
         id="path3498"
         inkscape:connector-curvature="0" /></clipPath><clipPath
       id="clipPath3520"><path
         d="m 254.788,326.215 0,-28.309 28.326,0 0,28.309"
         id="path3522"
         inkscape:connector-curvature="0" /></clipPath><clipPath
       id="clipPath3544"><path
         d="m 145.049,326.142 0,-28.333 28.342,0 0,28.333"
         id="path3546"
         inkscape:connector-curvature="0" /></clipPath><clipPath
       id="clipPath3682"><path
         d="m -0.24,595.138 317.48,0 0,-595.276 -317.48,0 0,595.276 z"
         id="path3684"
         inkscape:connector-curvature="0" /></clipPath><clipPath
       id="clipPath3690"><path
         d="m 0.03,595.32 317.46,0 0,-595.32 -317.46,0 0,595.32 z"
         id="path3692"
         inkscape:connector-curvature="0" /></clipPath><clipPath
       id="clipPath3980"><path
         d="m -0.24,595.138 317.48,0 0,-595.276 -317.48,0 0,595.276 z"
         id="path3982"
         inkscape:connector-curvature="0" /></clipPath><clipPath
       id="clipPath3988"><path
         d="m 0.03,595.32 317.46,0 0,-595.32 -317.46,0 0,595.32 z"
         id="path3990"
         inkscape:connector-curvature="0" /></clipPath><clipPath
       id="clipPath4010"><path
         d="m -0.24,595.138 317.48,0 0,-595.276 -317.48,0 0,595.276 z"
         id="path4012"
         inkscape:connector-curvature="0" /></clipPath><clipPath
       id="clipPath4016"><path
         d="m 0.03,595.32 317.46,0 0,-595.32 -317.46,0 0,595.32 z"
         id="path4018"
         inkscape:connector-curvature="0" /></clipPath><clipPath
       id="clipPath4062"><path
         d="m 200.163,177.773 0,-28.284 28.283,0 0,28.284"
         id="path4064"
         inkscape:connector-curvature="0" /></clipPath><clipPath
       id="clipPath4090"><path
         d="m 34.886,177.515 0,-51.632 30.367,0 0,51.632"
         id="path4092"
         inkscape:connector-curvature="0" /></clipPath><clipPath
       id="clipPath4106"><path
         d="m 34.886,177.515 0,-51.632 30.367,0 0,51.632"
         id="path4108"
         inkscape:connector-curvature="0" /></clipPath><clipPath
       id="clipPath4272"><path
         d="m 34.886,177.515 0,-51.632 30.367,0 0,51.632"
         id="path4274"
         inkscape:connector-curvature="0" /></clipPath><clipPath
       id="clipPath4304"><path
         d="m 254.653,176.442 0,-48.167 28.317,0 0,48.167"
         id="path4306"
         inkscape:connector-curvature="0" /></clipPath><clipPath
       id="clipPath4310"><path
         d="m 253.565,177.983 31.181,0 0,-49.183 -31.181,0 0,49.183 z"
         id="path4312"
         inkscape:connector-curvature="0" /></clipPath><clipPath
       id="clipPath4316"><path
         d="m -0.24,595.138 317.48,0 0,-595.276 -317.48,0 0,595.276 z"
         id="path4318"
         inkscape:connector-curvature="0" /></clipPath><clipPath
       id="clipPath4322"><path
         d="m 0.03,595.32 317.46,0 0,-595.32 -317.46,0 0,595.32 z"
         id="path4324"
         inkscape:connector-curvature="0" /></clipPath><clipPath
       id="clipPath4456"><path
         d="m -0.24,595.138 317.48,0 0,-595.276 -317.48,0 0,595.276 z"
         id="path4458"
         inkscape:connector-curvature="0" /></clipPath><clipPath
       id="clipPath4464"><path
         d="m 0.03,595.32 317.46,0 0,-595.32 -317.46,0 0,595.32 z"
         id="path4466"
         inkscape:connector-curvature="0" /></clipPath></defs><path
     style="fill:#ec1d24;fill-opacity:1;fill-rule:evenodd;stroke:none"
     d="m 23.977595,318.10005 c -8.5855,0 -16.45648,-4.5216 -20.6875,-11.90625 -4.25346,-7.37342 -4.25346,-16.47912 0,-23.875 L 159.4463,11.975043 c 4.27596,-7.3733997 12.09806,-11.87498967 20.59376,-11.87498967 0.0312,0 0.0625,-1.2e-4 0.0937,0 0.0312,-1.2e-4 0.0625,0 0.0937,0 8.49572,0 16.31784,4.50157997 20.59375,11.87498967 L 356.97757,282.3188 c 4.25347,7.39588 4.25347,16.50158 0,23.875 -4.23102,7.38465 -12.10199,11.90625 -20.6875,11.90625 z"
     id="path3101"
     inkscape:connector-curvature="0"
     sodipodi:nodetypes="scccscscccss" /><path
     inkscape:connector-curvature="0"
     style="fill:#ffffff;fill-opacity:1;fill-rule:evenodd;stroke:none"
     id="path3121"
     d="m 37.755005,286.28316 284.757825,0 L 180.13382,39.806513 z"
     sodipodi:nodetypes="cccc" /><path
     inkscape:connector-curvature="0"
     style="fill:#000000;fill-rule:evenodd;stroke:none"
     d="m 128.25831,231.66717 51.60814,28.41528 -46.63662,-35.31416"
     id="path15" /><path
     inkscape:connector-curvature="0"
     style="fill:#000000;fill-rule:evenodd;stroke:none"
     d="m 103.7035,255.3919 79.46798,7.72821 -78.3663,-16.00419"
     id="path17" /><path
     inkscape:connector-curvature="0"
     style="fill:#000000;fill-rule:evenodd;stroke:none"
     d="m 141.77932,163.79383 c 1.10551,-1.37652 0,-0.82281 3.31059,-0.54605 0.27312,4.13722 0.8362,1.65347 1.93788,4.96022 -0.27695,0 0,0 -0.27695,0.55371 -2.49142,1.65347 -2.49142,2.7607 -5.52331,2.7607 0,-0.26929 -0.27292,-0.26929 -0.27292,-0.26929 -0.82877,-0.83794 -1.65905,-1.39165 -2.48395,-1.66094 0,0 0,-0.27676 -0.27676,-0.55371 0,-1.10723 0.27676,-2.7607 0.27676,-4.41417 l 0,-0.55352 c 0.8249,0 1.65519,0 2.48395,-0.27695"
     id="path19" /><path
     inkscape:connector-curvature="0"
     style="fill:#000000;fill-rule:evenodd;stroke:none"
     d="m 119.71057,167.38499 c 1.93022,-2.7607 0.82472,-1.65328 4.40842,-1.93023 0,0 0.27693,0 0.55562,0.27695 1.93023,0.82281 1.10169,0 1.93023,2.47628 -0.27695,0.83047 -0.27695,1.93024 -0.82855,3.31442 0,0.83047 0,1.66094 -0.27695,2.48394 l 0,0.27676 c -0.55181,0 -0.55181,0 -0.55181,0.55371 -1.10167,0 -1.93196,0 -3.30674,0.27676 l 0,-0.27676 c -3.31061,-3.03018 -1.65733,-2.20718 -4.41611,-3.86812 l -0.54796,0 c 0.54796,-0.83047 0.54796,-1.65328 0.54796,-2.48376 l 0.27678,0 c 0.55006,-0.27695 1.37861,-0.27695 1.65345,-0.823"
     id="path21" /><path
     inkscape:connector-curvature="0"
     style="fill:#000000;fill-rule:evenodd;stroke:none"
     d="m 122.19066,186.1426 c 1.38036,-3.30809 0.27486,-2.75419 3.58564,-2.75419 l 0,0.2758 c 4.9715,1.3771 2.75878,0.54777 4.14468,4.13894 1.93023,2.20642 1.65538,0.82166 1.10551,3.85931 -2.76818,1.65482 -2.76818,4.96827 -6.63056,3.59118 -1.65155,-0.28347 -5.24101,-2.48988 -5.51584,-4.1447 0.27483,-4.13702 -0.82855,-2.48413 2.7607,-4.13702"
     id="path23" /><path
     inkscape:connector-curvature="0"
     style="fill:#000000;fill-rule:evenodd;stroke:none"
     d="m 120.53529,212.3572 c -0.55183,-0.27772 -0.55183,-0.83124 -0.82472,-1.10704 l 0,-0.55352 c 0.82472,-2.47647 0,-1.09938 4.1353,-1.93062 1.65348,-1.37709 0.82875,-0.82357 3.58369,-0.82357 5.25038,1.93061 5.80026,1.10129 5.25038,6.6135 0.82665,0.83124 2.20511,2.48414 0.54988,4.14661 -1.3786,1.10704 -5.80026,4.41283 -7.73047,3.59117 -1.65348,-0.83123 -7.16914,-2.48413 -6.34442,-4.97593 2.20892,-2.48413 1.65731,-1.09937 1.65731,-4.13703"
     id="path25" /><path
     inkscape:connector-curvature="0"
     style="fill:#000000;fill-rule:evenodd;stroke:none"
     d="m 93.489245,210.69664 c 1.94344,-2.75419 0.83046,-1.93062 3.59692,-2.75419 l 0,0.27772 c 0.27485,0 4.135305,0 4.414185,1.37709 1.65154,2.48222 3.86046,4.41283 3.30482,7.72054 -1.93023,1.38476 -0.82471,0.83699 -2.75495,1.6529 -4.964055,4.97593 -3.310775,3.86889 -7.455465,0.56118 -2.48011,0 -1.10551,0.27772 -2.75879,-1.37709 -1.38034,-4.1447 -1.38034,-1.93636 0.27868,-6.07531"
     id="path27" /><path
     inkscape:connector-curvature="0"
     style="fill:#000000;fill-rule:evenodd;stroke:none"
     d="m 97.910885,236.91124 c 3.033835,1.65482 1.6554,0.54586 3.310585,4.13129 -0.27675,0.55352 -0.27675,0.82932 -0.27675,1.38284 -0.54796,0 -0.54796,0.28538 -0.54796,0.28538 0,2.75227 0,4.13703 -1.930235,5.78993 -1.65903,1.09938 -3.03383,-0.82932 -4.14681,-0.82932 -3.31057,-0.55544 -7.16912,0.82932 -5.51584,-4.13895 0.55007,-1.66056 1.38054,-4.42049 2.20527,-6.62117 0.27675,-1.10703 2.75878,-1.93636 4.13913,-1.10703 1.10915,0.83123 0.28442,0.27771 2.48778,0.83123"
     id="path29" /><path
     inkscape:connector-curvature="0"
     style="fill:#000000;fill-rule:evenodd;stroke:none"
     d="m 68.109905,253.46129 c 1.93023,-2.47648 1.93023,-3.30771 3.58543,-0.54586 l 0,0.54586 c 1.1055,0 1.93023,-0.54586 2.75897,-0.54586 0,2.20641 1.65328,4.68289 0.82472,6.33578 -1.1034,2.76186 -2.47819,1.66248 -4.68711,1.10896 -2.20719,0 -3.03191,1.9287 -4.96406,0.82932 -2.75514,-1.93828 0,-4.96827 1.65328,-6.06765 0,-0.55352 0,-0.55352 0.27887,-0.82932"
     id="path31" /><path
     inkscape:connector-curvature="0"
     style="fill:#000000;fill-rule:evenodd;stroke:none"
     d="m 207.72726,185.31902 c 6.85675,0 12.41874,5.43943 12.41874,12.14295 0,6.69586 -5.56204,12.13529 -12.41874,12.13529 -6.84909,0 -12.4207,-5.43943 -12.4207,-12.13529 0,-6.70352 5.5716,-12.14295 12.4207,-12.14295 z m 51.59603,12.69647 c -7.44282,-0.27772 -26.75662,0.82166 -31.17903,1.6529 l 0,5.51412 35.60144,0.83124 4.13703,7.16702 -17.66091,-0.27771 -22.90498,0 0,6.62882 44.14941,0 3.58735,6.34537 -26.48466,0 -21.25209,0.55352 0,5.78992 c 11.31747,1.09938 38.08176,2.20642 52.43112,2.20642 l 7.72629,13.24425 c -20.41892,0.82932 -49.94507,-1.1013 -70.08437,-3.30771 l 0,27.86175 c -6.90654,4.41475 -17.11122,4.13704 -24.56171,0 l -1.93059,-32.28416 c -3.31213,-2.48414 -5.24236,-6.89697 -5.24236,-12.4111 l 0,-36.4212 c 0,-9.37419 6.34555,-12.1349 10.21254,-13.78837 1.10512,-4.69093 6.06763,-28.41508 7.72244,-39.4579 1.65675,-11.02787 6.89314,-15.44951 10.48814,-19.31017 l 8.276,14.34976 c -2.48415,2.20718 -6.89506,4.68346 -8.82952,11.02787 -1.66054,6.62883 -2.48796,9.93558 -3.04148,11.866 -0.82548,2.48375 -1.6529,12.1351 8.28363,12.1351 9.65499,0 12.69456,-0.823 22.90115,-0.54624"
     id="path33" /><path
     inkscape:connector-curvature="0"
     style="fill:#000000;fill-rule:evenodd;stroke:none"
     d="m 139.57424,190.27962 45.25626,71.73345 -37.80271,-75.31695 -7.45355,3.5835 z"
     id="path35" /></svg>