<?xml version="1.0" encoding="UTF-8" standalone="no"?>
<svg
   width="681"
   height="602.12"
   fill-rule="evenodd"
   version="1.1"
   id="svg12"
   sodipodi:docname="UK_traffic_sign_500.svg"
   inkscape:version="1.1.1 (3bf5ae0d25, 2021-09-20)"
   xmlns:inkscape="http://www.inkscape.org/namespaces/inkscape"
   xmlns:sodipodi="http://sodipodi.sourceforge.net/DTD/sodipodi-0.dtd"
   xmlns="http://www.w3.org/2000/svg"
   xmlns:svg="http://www.w3.org/2000/svg">
  <defs
     id="defs16" />
  <sodipodi:namedview
     id="namedview14"
     pagecolor="#ffffff"
     bordercolor="#111111"
     borderopacity="1"
     inkscape:pageshadow="0"
     inkscape:pageopacity="0"
     inkscape:pagecheckerboard="1"
     showgrid="false"
     inkscape:zoom="0.84436621"
     inkscape:cx="173.50292"
     inkscape:cy="-37.306088"
     inkscape:window-width="1920"
     inkscape:window-height="1057"
     inkscape:window-x="-8"
     inkscape:window-y="-8"
     inkscape:window-maximized="1"
     inkscape:current-layer="svg12" />
  <path
     d="M46.019,601.088 7.048,533.588 301.529,23.532 379.471,23.532 673.952,533.588 634.981,601.088"
     fill="#e31017"
     stroke="none"
     id="path2" />
  <circle
     cx="340.5"
     cy="46.032"
     r="45"
     fill="#e31017"
     stroke="none"
     id="circle4" />
  <circle
     cx="634.981"
     cy="556.088"
     r="45"
     fill="#e31017"
     stroke="none"
     id="circle6" />
  <circle
     cx="46.019"
     cy="556.088"
     r="45"
     fill="#e31017"
     stroke="none"
     id="circle8" />
  <path
     d="M72,541.088 340.5,76.032 609,541.088"
     fill="#fff"
     stroke="none"
     id="path10" />
  <path
     id="path16"
     style="fill:#000000;fill-opacity:1;fill-rule:evenodd;stroke:none;stroke-width:0.220464"
     d="m 417.3428,293.12529 c -1.02367,0.13974 -2.29259,0.71508 -3.49069,2.40621 0,0 -5.22337,6.82813 -5.51216,7.27352 0,0 -6.19536,-0.94745 -11.90263,0.66211 -0.95451,0.35057 -0.73913,0.73401 -0.66197,0.88173 -0.0772,0.18743 0.0506,0.77456 1.10437,0.6621 1.03828,-0.055 3.13248,-0.51086 3.30664,0.66213 -0.0484,0.45641 -0.46799,0.45705 -0.66197,0.66211 -0.3924,0.29546 -2.06642,1.25941 -3.08707,1.54384 -1.2962,0.34616 -3.54252,0.30206 -6.61329,3.30732 0,0 4.24483,0.42603 4.6306,0.43924 0,0 -1.72801,2.16406 -5.29257,2.20597 -5.98283,-0.0418 -11.36609,4.07332 -12.12221,5.29042 -0.25572,0.40127 -0.59294,0.65327 -1.10437,0.6621 -0.15657,-0.008 -2.79386,-0.008 -3.08706,0 -0.29319,0.0749 -0.66755,0.32697 -0.65874,0.66211 -0.008,0.16537 0.11673,0.415 0.88155,0.43925 0.74069,0.0595 1.78738,0.22689 1.76312,0.88175 0.10797,0.76729 -1.10792,1.10459 -1.32396,1.10459 -0.28437,0 -5.30391,1.25678 -5.50892,6.61464 0,0 5.60081,-1.88491 5.95132,-1.98634 0.48718,-0.0661 1.6573,-0.10733 1.76312,0.6621 -0.0198,0.77833 -0.27179,0.82 -0.66198,0.88175 -5.11648,2.38567 -5.12158,1.68205 -9.47753,5.29364 -0.50923,0.50711 -3.22993,3.18368 -8.15683,3.08446 0,0 0.86614,3.95108 0.88156,4.41191 0,0 -5.58226,3.43235 -7.27526,5.95253 0,0 3.53568,1.08124 7.49484,-0.21963 0,0 -9.27404,6.53305 -23.14651,6.61464 -16.55306,-0.0815 -43.00053,-17.91594 -61.50229,-17.86081 -15.23041,-0.055 -26.01399,9.04022 -26.01399,9.04022 0,0 -6.62716,-2.81735 -13.88855,-2.86807 -17.82721,0.0508 -35.00065,15.79194 -39.23734,38.1472 -2.23551,12.16983 -8.27215,25.96956 -18.51592,32.85032 -8.48022,5.60524 -9.78301,10.46701 -9.70035,17.41834 -0.0827,1.96542 0.0267,5.64932 3.74581,5.73289 1.52592,-0.0835 2.17773,-0.88679 3.08706,-1.54385 -2.76766,2.20577 33.2313,-21.33993 41.00368,-63.05866 1.93989,-10.10055 8.66566,-18.63788 18.7355,-18.73931 2.31024,0.10137 4.71215,0.43376 4.63059,1.54062 0.0815,0.90398 -0.47594,1.18461 -0.88155,1.76669 -0.59961,0.53579 -6.8483,7.61926 -6.83288,18.95895 -0.0149,12.85467 5.87196,15.36644 5.95132,21.38774 -0.0794,5.1969 -3.76211,10.63921 -10.13952,10.58406 -6.51189,0.0551 -9.94612,0.13941 -11.90585,0.66212 -1.89008,0.48155 -6.32647,2.32221 -6.39371,6.17215 0.0673,3.68457 1.15683,17.49858 1.10437,19.62428 0.0524,6.15736 -1.15489,20.652 -2.20551,25.57681 -0.17041,1.18005 -0.33772,3.19001 0.88156,3.96943 1.29157,0.9783 1.37491,1.81485 0.88156,2.64521 -0.59409,1.01115 -1.38838,2.14312 -2.86426,2.20596 -1.53714,-0.14734 -8.02368,-0.43989 -9.91993,-0.88175 l -7.71765,16.75623 c 0,0 2.62583,1.01489 7.49807,-0.88175 5.93652,-2.1696 11.4578,-4.93296 16.97238,-8.3781 1.39409,-0.79485 3.94685,-1.76341 5.28934,-7.71923 2.35434,-9.95304 3.57559,-22.98433 3.30665,-32.63069 -0.39458,-7.61366 3.53875,-9.62585 10.5819,-9.04023 10.17124,0.98006 18.04299,0.1691 21.82579,-1.10136 1.39101,-0.34705 4.48844,-1.77137 5.73174,-0.44249 1.26755,1.51763 0.51363,2.35653 0,2.86807 -3.87098,4.75173 -6.95078,8.63524 -9.03838,13.88816 -1.73268,4.02897 -0.7008,6.54248 5.73173,8.60096 8.47824,2.91286 26.83828,17.38595 32.40447,29.32338 2.1339,4.56564 4.05922,4.91555 6.39371,5.51328 1.43067,0.34441 3.68983,1.0965 3.96539,2.86483 0.0595,1.74759 -0.18941,4.92986 0.22281,6.395 l 18.29633,6.61463 c 0,0 2.14937,-8.01537 -4.41101,-15.43522 -6.8205,-7.79027 -25.91688,-28.01189 -34.60674,-34.83666 -6.51851,-5.34418 -3.97766,-9.78392 0.21958,-14.111 3.66376,-3.53639 10.67454,-13.25639 12.78418,-18.30007 1.92227,-5.03923 5.23089,-7.21395 10.80149,-4.62829 10.33436,4.64392 35.33829,11.82788 47.61697,13.66852 5.53091,0.70358 4.50208,2.94508 3.96862,5.29042 -1.26314,5.68792 -3.3282,12.65137 -6.17413,16.53659 -0.28216,0.28597 -0.57364,0.83384 -0.43916,1.98632 2.27937,21.77758 -5.47446,36.32999 -9.70035,41.89378 -0.85312,1.36415 -0.43734,2.36786 0.21957,2.86483 1.74591,1.30486 3.94546,4.28673 2.86749,9.04022 -0.25792,1.59678 -1.59558,7.54264 -1.76312,7.93886 l 20.94101,9.03698 c 0,0 1.25083,-4.268 -4.63059,-11.68543 -0.9964,-1.18336 -5.17913,-5.36974 -5.28934,-14.77311 0.11028,-9.34825 25.63643,-63.98542 27.55428,-66.80525 4.32731,-5.85593 10.23313,-7.40573 16.75604,-4.85116 8.05057,3.11352 18.84265,6.50769 25.56837,10.58407 1.51224,0.99395 2.29545,1.99658 0.66197,3.08446 -1.49241,0.92076 -22.69681,14.76428 -23.14651,15.21561 -0.66573,0.44186 -2.12948,1.31833 -3.30664,1.32098 -1.00081,-0.0861 -2.75839,0.2092 -3.96862,2.64845 -1.0493,2.24875 -3.97834,3.46127 -5.95132,1.32097 -2.12726,-2.12902 -4.62735,-4.85115 -4.62735,-4.85115 0,0 -5.07547,2.4293 -13.007,14.55348 0,0 1.06957,1.56459 4.85017,1.54386 3.75194,0.0207 15.26213,0.0207 16.31365,0 3.54692,-0.17132 6.62279,-1.32531 9.47753,-3.53018 0.93689,-0.63744 35.96371,-24.20318 37.03506,-24.91471 4.17738,-2.66305 9.86461,-8.91872 0.88157,-15.65484 -1.61806,-1.21444 -11.41012,-9.16638 -29.7598,-17.63796 0,0 1.35749,-4.67344 1.7631,-5.51326 0.59961,-1.0017 1.43858,-4.01251 1.32395,-4.84794 -0.22044,-0.83895 0.11375,-1.84416 0.2196,-2.42558 0.22926,-0.59093 0.47883,-2.51578 0.43915,-3.30732 -0.13012,-0.88284 0.96086,-7.41561 1.98592,-9.26308 1.15071,-1.83446 3.99643,-7.86043 4.18821,-8.81735 0.31083,-1.05393 2.9037,-7.58281 3.7458,-9.04022 0.66573,-1.55666 2.4244,-5.577 2.86749,-6.39502 0.22705,-1.02306 0.6461,-4.03732 5.73172,-2.42558 5.29283,1.5699 9.30824,1.40123 11.02108,1.10136 1.80323,-0.20285 5.15152,-0.78411 7.49484,0.88497 2.51084,1.51036 8.12064,4.77449 9.48078,5.29042 3.24492,1.11127 4.04953,1.42961 6.61329,-0.21963 0.98096,-0.71439 3.48986,-2.55523 1.3207,-4.18906 -2.01485,-1.54782 -4.0235,-2.63655 -4.85017,-2.86806 -1.01624,-0.43877 -1.65712,-0.51927 -1.5403,-1.10135 0.11028,-1.68234 2.86994,-1.5985 4.1882,-1.1046 1.92886,0.5865 3.78835,2.10383 4.40779,2.64843 0.55112,0.62619 3.06086,1.1274 4.40777,-0.44248 2.21987,-2.44519 0.66684,-6.27465 -1.10113,-8.37811 -1.08016,-1.18623 -14.38939,-13.15715 -15.43209,-13.89138 -2.85694,-2.26661 -6.2736,-5.86674 -7.49484,-8.3781 -0.33508,-0.59973 -1.58944,-1.85452 -2.20227,-2.4256 -0.72525,-0.60191 -18.13691,-13.24077 -18.73872,-13.66851 -2.38079,-1.70438 -3.61372,-2.32395 -3.96862,-6.61464 -0.20062,-1.83225 -0.95344,-7.44275 -1.10115,-7.93885 -0.21824,-0.0453 -0.99776,-0.33999 -2.02145,-0.20026 z" />
</svg>
