<?xml version="1.0" encoding="UTF-8" standalone="no"?>
<!-- Created with Inkscape (http://www.inkscape.org/) -->

<svg
   xmlns:dc="http://purl.org/dc/elements/1.1/"
   xmlns:cc="http://creativecommons.org/ns#"
   xmlns:rdf="http://www.w3.org/1999/02/22-rdf-syntax-ns#"
   xmlns:svg="http://www.w3.org/2000/svg"
   xmlns="http://www.w3.org/2000/svg"
   xmlns:sodipodi="http://sodipodi.sourceforge.net/DTD/sodipodi-0.dtd"
   xmlns:inkscape="http://www.inkscape.org/namespaces/inkscape"
   version="1.1"
   width="360.2677"
   height="318.20004"
   id="svg2816"
   xml:space="preserve"
   inkscape:version="0.48.4 r9939"
   sodipodi:docname="UK_traffic_sign_529.1.svg"><metadata
     id="metadata81"><rdf:RDF><cc:Work
         rdf:about=""><dc:format>image/svg+xml</dc:format><dc:type
           rdf:resource="http://purl.org/dc/dcmitype/StillImage" /><dc:title></dc:title></cc:Work></rdf:RDF></metadata><sodipodi:namedview
     pagecolor="#ffffff"
     bordercolor="#666666"
     borderopacity="1"
     objecttolerance="10"
     gridtolerance="10"
     guidetolerance="10"
     inkscape:pageopacity="0"
     inkscape:pageshadow="2"
     inkscape:window-width="1920"
     inkscape:window-height="1057"
     id="namedview79"
     showgrid="false"
     fit-margin-top="0.1"
     fit-margin-left="0.1"
     fit-margin-right="0.1"
     fit-margin-bottom="0.1"
     inkscape:zoom="2.0000001"
     inkscape:cx="231.45562"
     inkscape:cy="167.03476"
     inkscape:window-x="-8"
     inkscape:window-y="-8"
     inkscape:window-maximized="1"
     inkscape:current-layer="svg2816"
     showguides="true"
     inkscape:guide-bbox="true" /><defs
     id="defs2820"><clipPath
       id="clipPath2832"><path
         d="m -0.24,595.138 317.48,0 0,-595.276 -317.48,0 0,595.276 z"
         id="path2834"
         inkscape:connector-curvature="0" /></clipPath><clipPath
       id="clipPath2840"><path
         d="m 0.03,595.32 317.46,0 0,-595.32 -317.46,0 0,595.32 z"
         id="path2842"
         inkscape:connector-curvature="0" /></clipPath><clipPath
       id="clipPath2858"><path
         d="m -0.24,595.138 317.48,0 0,-595.276 -317.48,0 0,595.276 z"
         id="path2860"
         inkscape:connector-curvature="0" /></clipPath><clipPath
       id="clipPath2864"><path
         d="m 0.03,595.32 317.46,0 0,-595.32 -317.46,0 0,595.32 z"
         id="path2866"
         inkscape:connector-curvature="0" /></clipPath><clipPath
       id="clipPath3306"><path
         d="m 199.238,472.977 0,-29.74 29.744,0 0,29.74"
         id="path3308"
         inkscape:connector-curvature="0" /></clipPath><clipPath
       id="clipPath3322"><path
         d="m -0.24,595.138 317.48,0 0,-595.276 -317.48,0 0,595.276 z"
         id="path3324"
         inkscape:connector-curvature="0" /></clipPath><clipPath
       id="clipPath3330"><path
         d="m 0.03,595.32 317.46,0 0,-595.32 -317.46,0 0,595.32 z"
         id="path3332"
         inkscape:connector-curvature="0" /></clipPath><clipPath
       id="clipPath3344"><path
         d="m 88.233,387.221 0,-28.335 32.08,0 0,28.335"
         id="path3346"
         inkscape:connector-curvature="0" /></clipPath><clipPath
       id="clipPath3462"><path
         d="m -0.24,595.138 317.48,0 0,-595.276 -317.48,0 0,595.276 z"
         id="path3464"
         inkscape:connector-curvature="0" /></clipPath><clipPath
       id="clipPath3470"><path
         d="m 0.03,595.32 317.46,0 0,-595.32 -317.46,0 0,595.32 z"
         id="path3472"
         inkscape:connector-curvature="0" /></clipPath><clipPath
       id="clipPath3490"><path
         d="m -0.24,595.138 317.48,0 0,-595.276 -317.48,0 0,595.276 z"
         id="path3492"
         inkscape:connector-curvature="0" /></clipPath><clipPath
       id="clipPath3496"><path
         d="m 0.03,595.32 317.46,0 0,-595.32 -317.46,0 0,595.32 z"
         id="path3498"
         inkscape:connector-curvature="0" /></clipPath><clipPath
       id="clipPath3520"><path
         d="m 254.788,326.215 0,-28.309 28.326,0 0,28.309"
         id="path3522"
         inkscape:connector-curvature="0" /></clipPath><clipPath
       id="clipPath3544"><path
         d="m 145.049,326.142 0,-28.333 28.342,0 0,28.333"
         id="path3546"
         inkscape:connector-curvature="0" /></clipPath><clipPath
       id="clipPath3682"><path
         d="m -0.24,595.138 317.48,0 0,-595.276 -317.48,0 0,595.276 z"
         id="path3684"
         inkscape:connector-curvature="0" /></clipPath><clipPath
       id="clipPath3690"><path
         d="m 0.03,595.32 317.46,0 0,-595.32 -317.46,0 0,595.32 z"
         id="path3692"
         inkscape:connector-curvature="0" /></clipPath><clipPath
       id="clipPath3980"><path
         d="m -0.24,595.138 317.48,0 0,-595.276 -317.48,0 0,595.276 z"
         id="path3982"
         inkscape:connector-curvature="0" /></clipPath><clipPath
       id="clipPath3988"><path
         d="m 0.03,595.32 317.46,0 0,-595.32 -317.46,0 0,595.32 z"
         id="path3990"
         inkscape:connector-curvature="0" /></clipPath><clipPath
       id="clipPath4010"><path
         d="m -0.24,595.138 317.48,0 0,-595.276 -317.48,0 0,595.276 z"
         id="path4012"
         inkscape:connector-curvature="0" /></clipPath><clipPath
       id="clipPath4016"><path
         d="m 0.03,595.32 317.46,0 0,-595.32 -317.46,0 0,595.32 z"
         id="path4018"
         inkscape:connector-curvature="0" /></clipPath><clipPath
       id="clipPath4062"><path
         d="m 200.163,177.773 0,-28.284 28.283,0 0,28.284"
         id="path4064"
         inkscape:connector-curvature="0" /></clipPath><clipPath
       id="clipPath4090"><path
         d="m 34.886,177.515 0,-51.632 30.367,0 0,51.632"
         id="path4092"
         inkscape:connector-curvature="0" /></clipPath><clipPath
       id="clipPath4106"><path
         d="m 34.886,177.515 0,-51.632 30.367,0 0,51.632"
         id="path4108"
         inkscape:connector-curvature="0" /></clipPath><clipPath
       id="clipPath4272"><path
         d="m 34.886,177.515 0,-51.632 30.367,0 0,51.632"
         id="path4274"
         inkscape:connector-curvature="0" /></clipPath><clipPath
       id="clipPath4304"><path
         d="m 254.653,176.442 0,-48.167 28.317,0 0,48.167"
         id="path4306"
         inkscape:connector-curvature="0" /></clipPath><clipPath
       id="clipPath4310"><path
         d="m 253.565,177.983 31.181,0 0,-49.183 -31.181,0 0,49.183 z"
         id="path4312"
         inkscape:connector-curvature="0" /></clipPath><clipPath
       id="clipPath4316"><path
         d="m -0.24,595.138 317.48,0 0,-595.276 -317.48,0 0,595.276 z"
         id="path4318"
         inkscape:connector-curvature="0" /></clipPath><clipPath
       id="clipPath4322"><path
         d="m 0.03,595.32 317.46,0 0,-595.32 -317.46,0 0,595.32 z"
         id="path4324"
         inkscape:connector-curvature="0" /></clipPath><clipPath
       id="clipPath4456"><path
         d="m -0.24,595.138 317.48,0 0,-595.276 -317.48,0 0,595.276 z"
         id="path4458"
         inkscape:connector-curvature="0" /></clipPath><clipPath
       id="clipPath4464"><path
         d="m 0.03,595.32 317.46,0 0,-595.32 -317.46,0 0,595.32 z"
         id="path4466"
         inkscape:connector-curvature="0" /></clipPath></defs><path
     style="fill:#ec1d24;fill-opacity:1;fill-rule:evenodd;stroke:none"
     d="m 336.2901,318.10005 c 8.58549,0 16.45647,-4.5216 20.6875,-11.90625 4.25345,-7.37342 4.25345,-16.47912 0,-23.875 L 200.82135,11.975043 C 196.54542,4.6016433 188.72332,0.10005333 180.2276,0.10005333 c -0.0312,0 -0.0625,-1.2e-4 -0.0937,0 -0.0312,-1.2e-4 -0.0625,0 -0.0937,0 -8.49572,0 -16.31784,4.50157997 -20.59375,11.87498967 L 3.2901025,282.3188 c -4.25347,7.39588 -4.25347,16.50158 0,23.875 4.231024,7.38465 12.1019955,11.90625 20.6875055,11.90625 z"
     id="path3101"
     inkscape:connector-curvature="0"
     sodipodi:nodetypes="scccscscccss" /><path
     inkscape:connector-curvature="0"
     style="fill:#ffffff;fill-opacity:1;fill-rule:evenodd;stroke:none"
     id="path3121"
     d="m 322.51268,286.28316 -284.757832,0 L 180.13383,39.806513 z"
     sodipodi:nodetypes="cccc" /><path
     style="fill:#000000;fill-rule:nonzero;stroke:none"
     d="m 193.48482,149.4864 -0.41625,2.63613 36.44502,0 24.62041,41.93333 0,84.14418 -74.00001,0 -73.99999,0 0,-84.14418 24.62041,-41.93333 36.445,0 -0.41625,-2.63613 z"
     id="path12"
     inkscape:connector-curvature="0"
     sodipodi:nodetypes="cccccccccccc" /><path
     style="fill:#ffffff;fill-opacity:1;fill-rule:nonzero;stroke:none"
     d="m 190.84815,166.28747 c 22.55072,4.94988 39.3776,24.94007 39.35849,48.8782 l 0,60.39437 -7.78536,0 0,-60.39437 c -0.01,-23.26711 -18.9469,-42.1086 -42.28764,-42.07179 -23.34073,-0.0368 -42.27774,18.80468 -42.28761,42.07179 l 0,60.39437 -7.78536,0 0,-60.39437 c -0.0197,-23.93813 16.80775,-43.92832 39.35847,-48.8782 l 0.555,2.64394 c 3.27551,-0.79142 6.55233,-1.18709 10.1595,-1.11771 3.60718,-0.0694 6.88399,0.32629 10.15951,1.11771 z"
     id="path32"
     inkscape:connector-curvature="0"
     sodipodi:nodetypes="ccccccccccccccc" /><path
     style="fill:#ffffff;fill-opacity:1;fill-rule:nonzero;stroke:none"
     d="m 190.02379,152.12237 -2.08125,13.75167 c -2.52398,-0.44934 -5.11645,-0.66132 -7.80855,-0.68604 -2.6921,0.0248 -5.28457,0.2367 -7.80853,0.68604 l -2.08124,-13.75167 z"
     id="path3923"
     inkscape:connector-curvature="0"
     sodipodi:nodetypes="cccccc" /><path
     style="fill:#ffffff;fill-opacity:1;fill-rule:nonzero;stroke:none"
     id="path3980"
     d="m 128.80365,203.36327 c -0.8659,3.75465 -1.50223,7.71041 -1.53005,11.80221 l -18.63921,0 0,-17.63366 20.16921,5.83159"
     inkscape:connector-curvature="0"
     sodipodi:nodetypes="ccccc" /><path
     style="fill:#ffffff;fill-opacity:1;fill-rule:nonzero;stroke:none"
     id="path3982-1"
     d="m 129.50029,200.72128 c 1.18351,-4.19092 2.86656,-8.12117 5.00748,-11.80222 l -16.55255,-9.71952 -9.18055,15.55097 20.72584,5.97044"
     inkscape:connector-curvature="0"
     sodipodi:nodetypes="ccccc" /><path
     style="fill:#ffffff;fill-opacity:1;fill-rule:nonzero;stroke:none"
     id="path3984"
     d="m 135.90154,186.55835 c 2.75299,-4.16778 6.06701,-7.95029 9.87597,-11.24687 l -14.74458,-18.467 -11.82326,19.85503 16.69187,9.85818"
     inkscape:connector-curvature="0"
     sodipodi:nodetypes="ccccc" /><path
     style="fill:#ffffff;fill-opacity:1;fill-rule:nonzero;stroke:none"
     id="path3986"
     d="m 147.86281,173.65071 c 2.46317,-1.92997 5.1559,-3.65745 8.06793,-5.13736 l -7.23327,-13.88493 -15.7179,0 14.88324,19.02235"
     inkscape:connector-curvature="0"
     sodipodi:nodetypes="ccccc" /><path
     style="fill:#ffffff;fill-opacity:1;fill-rule:nonzero;stroke:none"
     id="path3988"
     d="m 158.29274,167.40062 c 3.39403,-1.61064 6.99538,-2.80939 10.71061,-3.61007 l -1.39097,-9.16417 -15.8572,0 6.53752,12.77424"
     inkscape:connector-curvature="0"
     sodipodi:nodetypes="ccccc" /><path
     style="fill:#ffffff;fill-opacity:1;fill-rule:nonzero;stroke:none"
     id="path3990-7"
     d="m 108.63382,230.29581 18.63922,0 0,-12.49623 -18.63922,0 z"
     inkscape:connector-curvature="0"
     sodipodi:nodetypes="ccccc" /><path
     style="fill:#ffffff;fill-opacity:1;fill-rule:nonzero;stroke:none"
     id="path3992"
     d="m 108.63382,245.43141 18.63922,0 0,-12.49623 -18.63922,0 z"
     inkscape:connector-curvature="0"
     sodipodi:nodetypes="ccccc" /><path
     style="fill:#ffffff;fill-opacity:1;fill-rule:nonzero;stroke:none"
     id="path3994"
     d="m 108.63382,260.42702 18.63922,0 0,-12.49623 -18.63922,0 z"
     inkscape:connector-curvature="0"
     sodipodi:nodetypes="ccccc" /><path
     style="fill:#ffffff;fill-opacity:1;fill-rule:nonzero;stroke:none"
     id="path3996"
     d="m 108.63382,275.56196 18.63922,0 0,-12.49623 -18.63922,0 z"
     inkscape:connector-curvature="0"
     sodipodi:nodetypes="ccccc" /><path
     sodipodi:nodetypes="ccccc"
     inkscape:connector-curvature="0"
     d="m 231.46435,203.36327 c 0.8659,3.75465 1.50223,7.71041 1.53005,11.80221 l 18.63921,0 0,-17.63366 -20.16921,5.83159"
     id="path3085"
     style="fill:#ffffff;fill-opacity:1;fill-rule:nonzero;stroke:none" /><path
     sodipodi:nodetypes="ccccc"
     inkscape:connector-curvature="0"
     d="m 230.76771,200.72128 c -1.18351,-4.19092 -2.86656,-8.12117 -5.00748,-11.80222 l 16.55255,-9.71952 9.18055,15.55097 -20.72584,5.97044"
     id="path3087"
     style="fill:#ffffff;fill-opacity:1;fill-rule:nonzero;stroke:none" /><path
     sodipodi:nodetypes="ccccc"
     inkscape:connector-curvature="0"
     d="m 224.36646,186.55835 c -2.75298,-4.16778 -6.067,-7.95029 -9.87596,-11.24687 l 14.74458,-18.467 11.82325,19.85503 -16.69187,9.85818"
     id="path3089"
     style="fill:#ffffff;fill-opacity:1;fill-rule:nonzero;stroke:none" /><path
     sodipodi:nodetypes="ccccc"
     inkscape:connector-curvature="0"
     d="m 212.4052,173.65071 c -2.46318,-1.92997 -5.15591,-3.65745 -8.06794,-5.13736 l 7.23327,-13.88493 15.71791,0 -14.88324,19.02235"
     id="path3091"
     style="fill:#ffffff;fill-opacity:1;fill-rule:nonzero;stroke:none" /><path
     sodipodi:nodetypes="ccccc"
     inkscape:connector-curvature="0"
     d="m 201.97526,167.40062 c -3.39402,-1.61064 -6.99537,-2.80939 -10.71061,-3.61007 l 1.39097,-9.16417 15.85721,0 -6.53752,12.77424"
     id="path3093"
     style="fill:#ffffff;fill-opacity:1;fill-rule:nonzero;stroke:none" /><path
     sodipodi:nodetypes="ccccc"
     inkscape:connector-curvature="0"
     d="m 251.63418,230.29581 -18.63922,0 0,-12.49623 18.63922,0 z"
     id="path3095"
     style="fill:#ffffff;fill-opacity:1;fill-rule:nonzero;stroke:none" /><path
     sodipodi:nodetypes="ccccc"
     inkscape:connector-curvature="0"
     d="m 251.63418,245.43141 -18.63922,0 0,-12.49623 18.63922,0 z"
     id="path3097"
     style="fill:#ffffff;fill-opacity:1;fill-rule:nonzero;stroke:none" /><path
     sodipodi:nodetypes="ccccc"
     inkscape:connector-curvature="0"
     d="m 251.63418,260.42702 -18.63922,0 0,-12.49623 18.63922,0 z"
     id="path3099"
     style="fill:#ffffff;fill-opacity:1;fill-rule:nonzero;stroke:none" /><path
     sodipodi:nodetypes="ccccc"
     inkscape:connector-curvature="0"
     d="m 251.63418,275.56196 -18.63922,0 0,-12.49623 18.63922,0 z"
     id="path3102"
     style="fill:#ffffff;fill-opacity:1;fill-rule:nonzero;stroke:none" /></svg>