<svg xmlns="http://www.w3.org/2000/svg" width="385.546" height="340.8" xml:space="preserve"><path d="M291.21.21a20.575 20.575 0 0 1 17.28 10.2c3.677 6.454 3.512 14.047.24 20.16L174.45 263.01c-3.544 5.847-10.037 9.786-17.4 9.84-7.465-.054-13.959-3.993-17.52-9.84L5.25 30.57c-3.252-6.113-3.417-13.706.24-20.16A20.627 20.627 0 0 1 22.77.21h268.44" style="fill:#ec1d24" transform="matrix(1.25 0 0 -1.25 -3.474 341.063)"/><path d="M157.05 238.41 35.01 27.09h243.96L157.05 238.41" style="fill:#fff" transform="matrix(1.25 0 0 -1.25 -3.474 341.063)"/><path d="M185.039 165.6s-3.384-2.317-.15-3.75c2.616-1.305 2.25-3.3 2.25-3.3v-3.9h2.7s.376-.342 0-.6c-.338-.297-2.1-1.65-2.1-1.65s-1.13-7.486-7.05-7.5c-5.633.014-6.6 5.55-6.6 5.55l-.45 5.55 1.05.45s-.215 3.86 1.2 5.4c.335.385.532 1.495-.15 1.95-.744.418-3.857 1.983-5.1 4.35-4.762 9.643-5.653 16.856-5.7 22.35.047 6.326.697 10.999 1.65 14.85.18.685.537 1.993-1.05 1.35-1.623-.546-10.72-3.281-17.4-3.3-6.758.019-13.773 1.803-21.15 4.95 0 0-3.384-.354-5.4-.3-9.32-.054-12.888 1.215-16.65 5.4-4.008 4.498-7.317 9.844-7.35 17.1.033 9.355-3.04 17.936-9.6 18-.713-.064-1.8-.6-1.8-.6s1.92 4.223 8.1 4.2c11.327.023 16.273-17.466 15.6-23.7-1.387-12.486 8.662-16.112 12-16.2 0 0-3.338 6.686-3.3 15.15-.038 8.541 4.242 15.438 4.05 18.6-.045 3.259-1.35 5.55-1.35 5.55s-3.81 2.288-4.2 2.55c-.44.333-.977.689-.9 2.25 0 0 .688 16.631 0 20.55-.433 2.325-1.147 3.039-1.5 3.3-.36.334-.598.541-.45 1.05.09.384-.355 1.81-1.5 1.8-1.115.01-3.6-1.2-3.6-1.2s-1.648 5.283.6 10.65c0 0 .547.311 1.8.3 3.712.011 7.11-2.12 8.7-5.4.54-.98.54-2.377.15-3.3-.323-1.04-.233-2.05-.15-3 .096-.954 1.145-10.855 1.2-11.4.047-.597.055-1.385.75-1.95 2.633-2.461 2.512-2.609 3.45-6.3.323-.992 1.05-3.15 1.05-3.15s11.8-5.374 12.45-5.7c.617-.309 1.49-.347 1.8 0 .166.208.64.723.15 1.65-.54.816-2.323 3.749-2.55 4.35-.58 1.984-.71 2.49.9 5.25 3.767 6.245 6.236 15.051 6.45 21.15.042.824.203 3.349 3 3 1.055-.114 2.362-.272 2.85.3.463.538.306 1.013.3 1.5-.074.544.125 4.23 1.2 5.55.51.226 7.565.583 9.3.45.575-.142.758-1.336.3-2.1-3.44-6.007-5.658-9.175-11.1-12.6-1.992-1.306-2.188-2.385-2.25-5.55-.224-4.26-1.1-7.419-1.8-11.85-.124-.785-.56-1.737.75-3.3 2.03-2.716 2.736-7.072 2.4-11.85-.024-.619.056-1.094.6-1.5.867-.652 2.08-1.541 2.85-2.85.252-.589.966-1.065 2.1-.45 1.165.575 12.46 6.044 28.65 6 13.718.044 22.05-3.3 22.05-3.3s-.568 5.444.15 9.3c.14 1.001-.1 1.299-.45 1.8-4.973 8.626-5.395 11.57-5.4 17.55.005 1.054-.194 4.541-1.05 5.85-.968 1.308-2.038 3.369-2.25 4.05-.184.588-.66 2.133.9 3.15 1.61.886 1.848 1.044 1.8 2.25.048 1.093-.03 1.014-.3 1.5 0 0-1.474 1.813-1.95 2.7 0 0 2.537 1.411 5.85 1.35 3.346.061 4.932-.89 5.55-1.2.49-.245 1.007-.561.45-1.5-.633-.964-3.803-5.959-4.2-6.75-.88-1.631-1.11-2.269-1.05-4.2-.06-.796 0-3.15 0-3.15s-.14-.42.45-1.5c1.973-3.405 5.298-9.784 8.4-13.65 1.078-1.244 2.506-3.504 2.55-6.15.047-3.349 2.25-7.087 3.6-8.4.557-.449 1.667-1.162 3 0 1.362 1.296 12.125 10.274 14.85 13.2 3.5 3.706 5.1 5.464 6.45 9.75.337 1.058.952 3 1.05 3.9.237 1.563.292 2.603 1.05 3.6.477.574 1.785 1.763.6 2.4-1.273.631-2.105 1.068-3.3 2.4 0 0-.534 3.141 3.9 7.8.466.619 1.048.225 1.65-.6 1.15-1.511 4.04-8.36 4.35-11.4.135-.74.332-1.691-.6-3.45-.97-1.729-5.212-10.211-5.55-10.95-.295-.609-.653-1.877-.75-3-.113-2.04-1.582-4.772-2.85-6.15-.74-.854-12.947-13.497-13.2-13.95-1.238-1.411-1.427-2.169-.6-4.2 1.42-3.87 1.883-10.072 1.95-11.1-.067-.816-.145-2.64 1.05-3.9 1.855-1.987 5.616-8.446 6.75-17.1.02-.586.142-1.314.9-1.35.39-.069.627.209.9.45 1.385 1.415 2.775 2.865 4.95 3.45.605.233 2.427.749 2.25 2.4-.22 1.599-.972 5.8 2.1 7.35 0 0 .773-1.232 1.05-1.5 0 0 1.942 1.575 2.7 1.8.828.251 1.74.291 2.25-.75.52-.941 1.313-3.2 1.5-3.6.21-.314.646-1.146.15-3-.455-1.872-2.12-7.936-2.1-14.55-.02-1.79.455-5.001.45-6.3.005-1.316-2.214-6.985-2.4-7.5-.21-.515-.41-1.586 1.2-1.65 1.562-.015 1.8 0 1.8 0s-1.784-1.324-2.1-1.35c-.318-.131-.913-.567-.45-1.05.41-.549.846-1.102 1.05-1.65.27-.405.112-1.475-1.2-.9-1.383.456-6.655 2.478-7.05 2.7-.398.174-.992.373-2.25.3-1.358-.166-1.635-.522-5.55-.45-6.798-.072-13.358 2.186-16.5 4.35-6.547 4.296-11.89 7.885-17.25 13.35-.328.223-1.22 1.055-2.4.45-1.08-.702-1.912-.644-2.85-.6-.845-.044-1.975-.281-3-1.2-.997-.984-6.05-5.146-6.75-5.55-.728-.547-1.44-.844-1.35-3.3.336-6.282-1.463-13.032-2.85-18-.273-1.007-.293-2.276-2.1-3.45"/><path d="M155.01 115.05c-.37.131-1.169.464-1.56.12-.322-.417.13-1.297.24-1.56.223-.213 2.149-4.113 2.4-4.68.177-.527.867-1.597 2.16-.6 1.228.905 2.179 1.5 2.76 1.68.466.295.703 1.033.12 1.2a2.676 2.676 0 0 0-1.2 1.08c-.238.394-.904.893-1.2.96-.37.123-3.581 1.741-3.72 1.8" style="fill:#fff" transform="matrix(1.25 0 0 -1.25 -3.474 341.063)"/></svg>