<svg xmlns="http://www.w3.org/2000/svg" width="602mm" height="602mm" viewBox="0 0 602 602"><g transform="translate(0 305)"><circle style="fill:#e31017;fill-opacity:1;stroke:none;stroke-width:0;stroke-miterlimit:10" cx="301" cy="-4" r="300"/><circle style="fill:#fff;fill-opacity:1;stroke:none;stroke-width:0;stroke-miterlimit:10" cx="301" cy="-4" r="240"/><path style="fill:#ff921d;fill-opacity:1;fill-rule:evenodd;stroke:none;stroke-width:.352536" d="M279.6-210s-1.643.24-3.482.84c-17.281 3.047-29.454 17.77-29.454 35.561 0 2.028.496 4.05.496 6.089h-.496c-6.61-8.127-16.757-12.714-27.429-12.714-19.29 0-34.024 15.25-35.552 34.034-24.882 0-44.683 19.818-44.683 44.692 0 13.73 6.61 26.923 17.267 35.05-1.528 4.572-1.528 8.634-1.528 13.192C154.74-24.8 185.171-1.43 212.6-9.06l66.4-9.881 44-.116 66 9.49h4.931c15.228 0 29.451-10.165 34.023-24.888 0 0 1.362.408 3.043.51C448.754-32.855 463-48.171 463-65.43c0-9.146-4.065-18.277-11.167-23.865C458.428-94.394 463-102.506 463-110.63a27.321 27.321 0 0 0-27.432-27.434c-4.571 0-7.614 1.018-12.186 3.042 2.038-3.042 3.057-7.107 3.057-10.661 0-15.231-12.2-27.42-27.429-27.42-7.614 0-14.72 3.057-20.321 8.634.507-2.023.507-3.553.507-5.08 0-17.272-14.209-31.485-31.476-31.485-12.82 0-24.679 7.66-29.09 19.71-3.773-16.436-18.44-26.561-35.407-28.344-2.226-.234-1.158-.211-3.623-.333z"/><path style="fill:#000;fill-opacity:1;fill-rule:evenodd;stroke:none;stroke-width:.352536" d="m180.64-93.882-6.087 4.587-22.348-22.353 10.658-10.662M179.125-47.138l-3.057-6.117 54.335 13.221-1.529 4.573-64.483-6.1M350.253-41.56v4.569l66.027-6.085-3.06-8.65M257.322-43.076l-6.1 4.558 4.572 3.057h17.776l4.572-3.057-3.043-4.558M339.595-43.076l-6.1-4.076-4.061 5.592 4.061 4.569M341.11-150.762l-17.763-4.56 7.615-12.188 16.248 10.659M197.397-86.252l49.267 34.527-1.528 4.587-61.454-34.542h13.715M246.664-74.575l-70.596-50.778 10.671-6.1 64.483 51.3M249.708-104.544l-3.044 3.046-42.148-61.439 15.229 7.616 1.515-6.1M270.527-159.894l7.615 9.132h9.143v-12.175h-16.758M404.094-165.98l7.6 7.602-66.012 42.157-3.043-3.043M434.056-107.587l-85.331 37.585 1.528 6.089 86.845-22.34-7.614-4.586M399.522-129.925v16.747l21.326-1.516v-7.616M339.595-103.014v7.616h12.173v-6.1M300.737-149.507l-.248.303.565 2.532a23.34 23.34 0 0 1 .454 4.573c0 3.684-.885 6.918-2.533 10.196a38.988 38.988 0 0 0-4.07 9.432 39.59 39.59 0 0 1-6.009-10.487l-.596.03a46.055 46.055 0 0 0-3.562 17.77 46.064 46.064 0 0 0 2.997 16.323c-5.627-4.888-9.946-11.309-12.25-18.424a31.48 31.48 0 0 0-3.43 14.296c0 8.902 3.77 17.366 10.354 23.347a36.045 36.045 0 0 0-11.882-2.013c-4.516 0-9.005.84-13.218 2.507l.32.228a35.429 35.429 0 0 1 12.43 18.023l1.198-.08a36.058 36.058 0 0 0 20.696 22.297v-.439a17.754 17.754 0 0 1-3.03-8.07c-.33-3.942-2.148-7.614-4.833-10.508l.661-.261a16.637 16.637 0 0 1 6.968 3.331l.73.356a31.404 31.404 0 0 1-.606-6.114c0-6.6 2.052-13.044 5.852-18.442l.358.677a19.054 19.054 0 0 0 2.444 7.414s3.078-2.596 4.317-4.07l.454.707c.207 1.17.303 2.37.303 3.568 0 5.165-1.253 9.604-4.599 13.61a31.763 31.763 0 0 0 6.755-1.269 22.351 22.351 0 0 1-8.78 10.98l.028.061h2.534c1.707 0 3.415-.138 5.109-.416l.467-.095c-1.304 3.5-6.114 8.116-6.114 8.116 16.73-.261 30.706-14.75 30.982-31.484-4.031 2.547-13.205 5.084-13.205 5.084 9.157-8.331 14.458-20.116 14.734-32.499l-.62-.616a34.853 34.853 0 0 1-17.198 9.047l-.854-.223a26.34 26.34 0 0 0 6.5-17.354c0-4.023-.923-8-2.7-11.624l-.357-1.096a41.062 41.062 0 0 1-14.99 17.662 40.136 40.136 0 0 0 6.37-21.697c0-9.16-3.154-18.056-8.896-25.189z"/><path style="fill:#000;fill-opacity:1;fill-rule:evenodd;stroke:none;stroke-width:.352531" d="M238.546-29.85c-16.757 0-24.896 13.208-25.9 19.805L199.952 52.94c-7.618 1.527-15.753 9.64-15.753 17.767v52.31c0 7.63 6.609 14.24 9.665 16.265v38.096c5.065 5.067 10.655 8.621 17.254 8.621 7.116 0 14.222-4.051 18.283-8.62v-36.571l32.495 2.535h78.207l32.494-2.535v36.57c4.06 4.57 11.166 8.621 18.283 8.621 6.598 0 12.189-3.554 17.254-8.62v-38.097c3.056-2.024 9.665-8.636 9.665-16.266v-52.31c0-8.126-8.135-16.24-15.752-17.766l-12.693-62.986c-1.005-6.597-9.143-19.805-25.9-19.805zm97.496 17.767c21.329 0 42.132 2.549 46.193 21.857l3.567 18.79c1.53 11.677-4.572 15.23-16.757 14.734L301 40.227l-68.045 3.07c-12.185.498-18.287-3.056-16.757-14.734l3.567-18.79c4.06-19.307 24.864-21.856 46.193-21.856zM213.65 64.619c9.157 0 16.263 7.108 16.263 16.25 0 9.147-7.106 16.254-16.263 16.254-9.13 0-16.232-7.107-16.232-16.253 0-9.143 7.103-16.251 16.232-16.251zm174.7 0c9.13 0 16.232 7.108 16.232 16.25 0 9.147-7.102 16.254-16.232 16.254-9.157 0-16.263-7.107-16.263-16.253 0-9.143 7.106-16.251 16.263-16.251zM278.653 79.85h44.694l37.065 2.535v7.123H241.587v-7.123zM241.08 99.161h119.84v9.133H241.08zm.507 18.279h118.825v7.104l-37.065 2.024h-44.694l-37.066-2.024z"/></g></svg>