<?xml version="1.0" encoding="UTF-8" standalone="no"?>
<!-- Created with Inkscape (http://www.inkscape.org/) -->

<svg
   xmlns:dc="http://purl.org/dc/elements/1.1/"
   xmlns:cc="http://creativecommons.org/ns#"
   xmlns:rdf="http://www.w3.org/1999/02/22-rdf-syntax-ns#"
   xmlns:svg="http://www.w3.org/2000/svg"
   xmlns="http://www.w3.org/2000/svg"
   xmlns:sodipodi="http://sodipodi.sourceforge.net/DTD/sodipodi-0.dtd"
   xmlns:inkscape="http://www.inkscape.org/namespaces/inkscape"
   version="1.1"
   width="385.54614"
   height="340.79999"
   id="svg2"
   xml:space="preserve"
   inkscape:version="0.48.2 r9819"
   sodipodi:docname="UK traffic sign 558.1.svg"><sodipodi:namedview
     pagecolor="#ffffff"
     bordercolor="#666666"
     borderopacity="1"
     objecttolerance="10"
     gridtolerance="10"
     guidetolerance="10"
     inkscape:pageopacity="0"
     inkscape:pageshadow="2"
     inkscape:window-width="640"
     inkscape:window-height="480"
     id="namedview12"
     showgrid="false"
     inkscape:zoom="0.69157509"
     inkscape:cx="192.77619"
     inkscape:cy="170.36249"
     inkscape:window-x="0"
     inkscape:window-y="24"
     inkscape:window-maximized="0"
     inkscape:current-layer="svg2" /><defs
     id="defs13" /><metadata
     id="metadata8"><rdf:RDF><cc:Work
         rdf:about=""><dc:format>image/svg+xml</dc:format><dc:type
           rdf:resource="http://purl.org/dc/dcmitype/StillImage" /></cc:Work></rdf:RDF></metadata><g
     transform="matrix(1.25,0,0,-1.25,-3.4738088,341.06251)"
     id="g10"><path
       d="m 291.21,0.21001 c 6.885,0.15912 13.543,3.8134 17.28,10.2 3.677,6.454 3.512,14.047 0.24,20.16 l -134.28,232.44 c -3.544,5.847 -10.037,9.786 -17.4,9.84 -7.465,-0.054 -13.959,-3.993 -17.52,-9.84 L 5.25,30.57001 c -3.2524,-6.113 -3.4166,-13.706 0.24,-20.16 3.7571,-6.3866 10.415,-10.041 17.28,-10.2 h 268.44"
       inkscape:connector-curvature="0"
       id="path12"
       style="fill:#ec1d24" /><path
       d="M 157.05,238.41 35.01,27.09 H 278.97 L 157.05,238.41"
       inkscape:connector-curvature="0"
       id="path14"
       style="fill:#ffffff" /><path
       d="m 146.37,93.21 v 3 l 53.52,5.88 c 0,0 1.334,1.619 1.32,3.36 0.014,1.858 -1.44,3.6 -1.44,3.6 l -46.8,-5.28 c -3.035,-4.608 -7.155,-4.418 -8.28,-4.44 -1.053,0.022 -5.173,-0.168 -8.28,4.44 l -46.68,5.28 c 0,0 -1.501,-1.742 -1.56,-3.6 0.059,-1.741 1.32,-3.36 1.32,-3.36 l 53.52,-5.88 v -3 c 0,0 -1.22,0.269 -2.16,-1.44 l -2.16,-3.72 c 0,0 -1.257,-1.911 -3.36,-1.44 -2.064,0.476 -10.21,2.181 -16.2,2.16 -19.516,0.021 -19.062,-16.984 -19.08,-18.6 0.018,-22.438 21,-19.68 21,-19.68 v -9.96 h -11.04 c 0,0 -1.939,0.241 -2.88,1.56 -0.953,1.238 -1.569,1.19 -1.92,1.2 -0.406,-0.01 -2.111,-0.388 -2.16,-1.92 0.049,-1.499 2.843,-4.814 6.72,-4.8 h 50.16 c 3.881,-0.014 6.675,3.301 6.72,4.8 -0.045,1.532 -1.75,1.91 -2.16,1.92 -0.347,-0.01 -0.963,0.038 -1.92,-1.2 -0.937,-1.319 -2.88,-1.56 -2.88,-1.56 h -8.28 v 9.96 c -0.006,3.186 1.414,8.939 9.48,10.32 l 58.92,11.28 c 0,0 5.755,0.836 6.12,6.96 0,0 7.521,2.117 7.56,9.48 -0.039,7.27 -6.149,10.396 -10.44,10.44 -4.375,-0.044 -9.916,-3.951 -9.96,-9.84 0.044,-7.382 5.88,-9.48 5.88,-9.48 0,0 -0.863,-1.467 -2.88,-1.32 l -63.6,6.48 -3.96,6.96 c 0,0 -0.418,1.189 -2.16,1.44"
       inkscape:connector-curvature="0"
       id="path16" /><path
       d="m 124.65,40.53 h 23.16 v 9.96 h -23.16 v -9.96 z"
       inkscape:connector-curvature="0"
       id="path18"
       style="fill:#ffffff" /><path
       d="m 225.81,82.41 c 0,0 4.373,1.74 4.32,6.36 0.053,4.615 -4.351,6.888 -6.72,6.84 -2.462,0.048 -7.008,-1.657 -6.96,-6.84 -0.048,-4.858 3.6,-6 3.6,-6 l 2.52,7.32 c 0,0 0.296,1.164 1.32,1.2 1.107,-0.036 1.462,-1.315 1.44,-1.68 l 0.48,-7.2"
       inkscape:connector-curvature="0"
       id="path20"
       style="fill:#ffffff" /><path
       d="m 137.85,77.25 c 0.436,0.98 1.383,3.727 -2.16,4.92 -3.466,1.08 -9.433,2.69 -15.12,2.64 -5.679,0.05 -6.437,-0.376 -7.44,-0.6 -0.986,-0.249 -8.895,-2.996 -8.88,-13.2 -0.015,-5.902 4.007,-7.555 6.48,-7.56 h 22.32 l 4.8,13.8"
       inkscape:connector-curvature="0"
       id="path22"
       style="fill:#ffffff" /></g></svg>