<?xml version="1.0" encoding="UTF-8" standalone="no"?>
<svg
   width="681"
   height="602.12"
   fill-rule="evenodd"
   version="1.1"
   id="svg12"
   sodipodi:docname="666.svg"
   inkscape:version="1.1.1 (3bf5ae0d25, 2021-09-20)"
   xmlns:inkscape="http://www.inkscape.org/namespaces/inkscape"
   xmlns:sodipodi="http://sodipodi.sourceforge.net/DTD/sodipodi-0.dtd"
   xmlns="http://www.w3.org/2000/svg"
   xmlns:svg="http://www.w3.org/2000/svg">
  <defs
     id="defs16" />
  <sodipodi:namedview
     id="namedview14"
     pagecolor="#ffffff"
     bordercolor="#111111"
     borderopacity="1"
     inkscape:pageshadow="0"
     inkscape:pageopacity="0"
     inkscape:pagecheckerboard="1"
     showgrid="false"
     inkscape:zoom="1.1941141"
     inkscape:cx="285.98606"
     inkscape:cy="272.58701"
     inkscape:window-width="1920"
     inkscape:window-height="1057"
     inkscape:window-x="-8"
     inkscape:window-y="-8"
     inkscape:window-maximized="1"
     inkscape:current-layer="svg12" />
  <path
     d="M46.019,601.088 7.048,533.588 301.529,23.532 379.471,23.532 673.952,533.588 634.981,601.088"
     fill="#e31017"
     stroke="none"
     id="path2" />
  <circle
     cx="340.5"
     cy="46.032"
     r="45"
     fill="#e31017"
     stroke="none"
     id="circle4" />
  <circle
     cx="634.981"
     cy="556.088"
     r="45"
     fill="#e31017"
     stroke="none"
     id="circle6" />
  <circle
     cx="46.019"
     cy="556.088"
     r="45"
     fill="#e31017"
     stroke="none"
     id="circle8" />
  <path
     d="M72,541.088 340.5,76.032 609,541.088"
     fill="#fff"
     stroke="none"
     id="path10" />
  <path
     id="path16"
     style="fill:#000000;fill-opacity:1;fill-rule:evenodd;stroke:none;stroke-width:0.21983"
     d="m 349.75802,157.48839 c -15.1221,-0.0549 -26.40301,12.03344 -26.37883,27.03906 -0.0243,9.25706 9.65824,22.676 10.55075,23.74219 0.80458,0.97165 1.9934,5.38796 -1.09961,6.375 -7.41706,2.51705 -18.57554,5.90729 -27.03898,11.43164 -2.48187,1.51024 -7.40822,3.88748 -8.3535,9.01172 l -29.0175,123.76562 c 0,0 -7.23629,0.37803 -7.25388,6.375 0.0176,4.36583 1.09961,4.61524 1.09961,4.61524 0,0 -14.49974,1.1508 -19.12495,-0.21875 -4.54829,-1.17829 -6.46018,-3.98149 -2.85937,-7.47461 3.78766,-3.64258 6.20899,-8.48355 6.15623,-13.84961 0.0528,-5.33529 -6.31675,-18.32963 -18.46674,-18.24609 -12.05547,-0.0836 -18.68045,10.74567 -18.6855,17.80664 0.005,7.20824 4.08257,12.81487 5.71678,14.50976 1.67951,1.61795 2.95207,4.03514 -1.53905,6.1543 -17.29622,8.46346 -19.9353,17.96868 -22.20307,38.68945 -0.56848,5.94664 -0.95207,34.48447 -0.66015,36.71289 0.21808,2.35813 3.40466,7.45482 8.7949,7.47461 5.31108,-0.0198 7.73116,-3.33273 7.69333,-5.93554 0.0378,-2.49287 -2.00052,-3.76797 -2.85741,-4.61719 -0.92658,-0.93426 -1.94727,-3.35362 -1.32031,-5.27539 0.64741,-1.90042 4.3426,-23.43072 4.17772,-25.06055 0.80194,-0.66301 2.9667,-4.35781 4.17577,-6.5957 6.984,13.04388 1.97977,35.55297 -0.8789,52.09961 -0.4568,2.24293 -0.58424,3.6451 3.07812,4.61719 0.0325,1.19367 0,46.82421 0,46.82421 0,0 -0.35086,3.29073 -1.09961,3.95703 -0.77973,0.86218 -2.81784,2.64553 -2.85741,4.39649 0.0396,1.81624 1.44169,2.57914 2.63866,2.63672 1.35151,-0.0575 2.11549,-0.69228 2.85741,-1.09766 0.78701,-0.61398 7.47459,-5.27734 7.47459,-5.27734 0,0 2.35513,-2.21843 3.07617,-5.4961 l 7.25584,-33.41406 c 0,0 -0.0764,-2.03528 1.5371,-3.51562 1.44207,-1.3225 2.46346,-2.21441 3.29882,-2.63867 0.94745,-0.34008 2.22145,-0.7217 2.19726,1.0996 0.0242,1.74567 0,40.00782 0,40.00782 0,0 0.15301,2.1223 1.32031,3.07812 1.12553,1.08201 12.08081,8.21591 12.52926,8.79297 0.31655,0.4423 2.10008,0.95189 2.63866,0.87891 0.48143,0.073 2.77389,-0.69014 2.85742,-2.63672 -0.0836,-1.87538 -1.10272,-2.8959 -1.75781,-3.73828 -0.61773,-0.9411 -3.16804,-4.12503 -3.51757,-4.61524 -0.41327,-0.27391 -2.11522,-2.73921 -1.0996,-6.5957 0.43086,-1.45044 5.39934,-28.58545 5.49608,-31.43555 1.55858,-0.46273 13.02446,-5.43022 9.23239,-18.90429 L 253.25243,394.0255 c 0,0 -1.62211,-3.62247 1.53906,-4.83594 13.73936,-4.94618 21.76431,-8.64102 33.19326,-17.14648 1.27941,-1.05959 5.26049,-4.74413 -1.97851,-9.89258 l 34.07413,-87.05273 -2.19726,94.96679 c 0,0 -0.43087,5.89696 0,10.55078 l 10.1113,124.42578 c 0,0 -0.22383,1.75828 -0.87891,2.63672 -0.61773,0.90503 -4.82252,7.14926 -5.27538,7.69532 -0.56494,0.4722 -1.3315,1.74618 -0.88085,2.85742 0.31436,0.92745 1.58767,2.83763 3.07812,2.85742 1.56737,-0.0198 2.33268,-0.7833 3.51757,-1.31836 l 18.46674,-13.63086 c 0,0 2.64199,-1.5051 2.85742,-6.81445 0,0 0.66634,-38.21775 1.53906,-61.77149 0.7936,-27.19281 2.45105,-34.32649 8.35348,-60.89257 l 3.95703,52.31835 c 0,0 0.96904,23.67607 0.8789,25.5 0.0902,11.90273 0.39457,37.68987 -1.75976,49.4629 -0.44407,2.09434 0.1941,2.22013 0.66015,2.63671 0.55176,0.60278 12.27294,11.81417 12.74997,12.53125 0.54077,0.81227 2.45272,1.8308 3.29687,1.75782 0.93866,0.073 4.76314,-1.07374 4.83787,-3.29688 -0.0747,-0.83383 -0.20598,-1.98073 -0.88085,-3.07812 -0.85294,-1.1961 -2.2531,-3.61694 -2.41797,-3.95703 -0.34513,-0.42426 -0.85491,-1.06076 -0.43945,-3.29688 0.34953,-2.0952 9.77584,-81.2509 10.33201,-83.53516 0.46384,-2.13214 3.52195,-51.73197 3.51757,-57.375 0.005,-5.56832 -8.49067,-91.01109 -8.5742,-92.33007 0,0 21.14937,26.7013 21.10541,64.63086 0.0441,5.99478 -0.55551,14.83868 -0.88086,16.26757 -0.0968,1.10795 -0.26559,2.97552 -0.8789,4.17579 -0.40669,1.17827 -1.76442,4.91578 -1.75781,7.4746 -0.007,2.53685 2.20118,10.85942 11.42966,10.77149 5.0385,0.0879 10.22097,-6.11044 10.11325,-10.11133 0.10767,-4.15261 -0.9961,-6.6164 -1.53906,-7.25391 -0.47705,-0.72104 -0.98791,-3.9496 -0.2207,-7.25585 0.59353,-3.14797 2.12226,-25.5696 2.19921,-31.21485 -0.077,-20.63988 -7.55207,-55.50686 -12.53122,-77.16015 -0.59353,-2.94792 -3.85269,-9.09245 -8.13278,-11.8711 -12.2511,-8.46127 -23.14116,-15.15349 -35.83193,-17.36719 -2.01364,-0.23742 -6.26148,-1.93488 -2.63868,-7.47461 3.51288,-5.67163 9.9673,-14.84524 9.89256,-24.62109 0.0747,-9.58901 -6.88913,-25.55496 -25.49993,-25.5 z" />
</svg>
