<?xml version="1.0" encoding="UTF-8" standalone="no"?>
<svg
   xmlns:dc="http://purl.org/dc/elements/1.1/"
   xmlns:cc="http://creativecommons.org/ns#"
   xmlns:rdf="http://www.w3.org/1999/02/22-rdf-syntax-ns#"
   xmlns:svg="http://www.w3.org/2000/svg"
   xmlns="http://www.w3.org/2000/svg"
   xmlns:sodipodi="http://sodipodi.sourceforge.net/DTD/sodipodi-0.dtd"
   xmlns:inkscape="http://www.inkscape.org/namespaces/inkscape"
   width="602mm"
   height="602mm"
   viewBox="0 0 602 602"
   version="1.1"
   id="svg8"
   inkscape:version="1.0.1 (3bc2e813f5, 2020-09-07)"
   sodipodi:docname="UK prohibitory.svg">
  <defs
     id="defs2" />
  <sodipodi:namedview
     id="base"
     pagecolor="#ffffff"
     bordercolor="#666666"
     borderopacity="1.0"
     inkscape:pageopacity="0.0"
     inkscape:pageshadow="2"
     inkscape:zoom="0.24748737"
     inkscape:cx="1933.9722"
     inkscape:cy="929.96888"
     inkscape:document-units="mm"
     inkscape:current-layer="layer1"
     inkscape:document-rotation="0"
     showgrid="false"
     inkscape:window-width="1920"
     inkscape:window-height="1057"
     inkscape:window-x="-8"
     inkscape:window-y="-8"
     inkscape:window-maximized="1" />
  <metadata
     id="metadata5">
    <rdf:RDF>
      <cc:Work
         rdf:about="">
        <dc:format>image/svg+xml</dc:format>
        <dc:type
           rdf:resource="http://purl.org/dc/dcmitype/StillImage" />
        <dc:title></dc:title>
      </cc:Work>
    </rdf:RDF>
  </metadata>
  <g
     inkscape:label="Layer 1"
     inkscape:groupmode="layer"
     id="layer1"
     transform="translate(0,305)">
    <circle
       style="fill:#e31017;fill-opacity:1;stroke:none;stroke-width:0;stroke-miterlimit:10"
       id="path10"
       cx="301"
       cy="-3.9999883"
       r="300" />
    <circle
       style="fill:#ffffff;stroke:none;stroke-width:0;stroke-miterlimit:10"
       id="circle855"
       cx="301"
       cy="-3.9999883"
       r="240" />
    <path
       id="path22"
       style="fill:#000000;fill-opacity:1;fill-rule:nonzero;stroke:none;stroke-width:0.220182"
       d="m 188.00017,-88.000458 -47.39142,0.002 c -6.22234,-0.073 -21.00784,3.11082 -23.77994,21.5775 l -7.04557,43.81641 c 0,0 -12.772975,0.65833 -12.770795,14.3117897 V 30.899682 c 0,0 -0.61634,7.42662 6.825935,11.66957 v 30.82551 c 0,0 4.57088,6.51677 14.53193,6.60527 9.75184,-0.0887 13.65137,-6.8254 13.65137,-6.8254 v -28.18331 c 0,0 38.99365,2.12276 55.97849,2.20865 16.98484,-0.0859 55.9785,-2.20865 55.9785,-2.20865 v 28.18331 c 0,0 3.89952,6.73671 13.65136,6.8254 9.96105,-0.0885 14.53193,-6.60527 14.53193,-6.60527 v -30.82551 c 7.44228,-4.24295 6.82594,-11.66957 6.82594,-11.66957 V -8.2927583 c 0.002,-13.6534597 -12.7708,-14.3117897 -12.7708,-14.3117897 l -7.04556,-43.81645 c -2.7721,-18.46668 -17.55761,-21.65049 -23.77994,-21.57749 z" />
    <path
       id="path24"
       style="fill:#ffffff;fill-opacity:1;fill-rule:nonzero;stroke:none;stroke-width:0.220183"
       d="m 187.99996,-74.130508 -14.80478,0.003 c -2.51226,-0.0817 -28.8479,1.76595 -30.16457,1.98179 -8.06523,0.82787 -17.16268,5.63917 -19.37556,16.73438 l -1.98179,13.21108 c 0,0 -2.07212,11.42573 10.12807,11.44995 9.46337,-0.025 44.24505,-2.07711 56.19863,-1.98024 11.95358,-0.0969 46.73527,1.95524 56.19864,1.98024 12.20018,-0.0242 10.12806,-11.44995 10.12806,-11.44995 l -1.98179,-13.21108 c -2.21288,-11.09521 -11.31032,-15.90651 -19.37556,-16.73438 -1.31666,-0.21584 -27.65231,-2.06349 -30.16457,-1.98179 z" />
    <path
       id="path17"
       style="fill:#e31017;fill-opacity:1;fill-rule:nonzero;stroke:none;stroke-width:0.220182"
       d="m 414.00017,-88.000458 -47.39142,0.002 c -6.22234,-0.073 -21.00784,3.11082 -23.77994,21.5775 l -7.04557,43.81641 c 0,0 -12.77298,0.65833 -12.7708,14.3117897 V 30.899682 c 0,0 -0.61634,7.42662 6.82594,11.66957 v 30.82551 c 0,0 4.57088,6.51677 14.53193,6.60527 9.75184,-0.0887 13.65137,-6.8254 13.65137,-6.8254 v -28.18331 c 0,0 38.99365,2.12276 55.97849,2.20865 16.98484,-0.0859 55.9785,-2.20865 55.9785,-2.20865 v 28.18331 c 0,0 3.89952,6.73671 13.65136,6.8254 9.96105,-0.0885 14.53193,-6.60527 14.53193,-6.60527 v -30.82551 c 7.44228,-4.24295 6.82594,-11.66957 6.82594,-11.66957 V -8.2927583 c 0.002,-13.6534597 -12.7708,-14.3117897 -12.7708,-14.3117897 l -7.04556,-43.81645 c -2.7721,-18.46668 -17.55761,-21.65049 -23.77994,-21.57749 z" />
    <path
       id="path19"
       style="fill:#ffffff;fill-opacity:1;fill-rule:nonzero;stroke:none;stroke-width:0.220183"
       d="m 413.99996,-74.130508 -14.80478,0.003 c -2.51226,-0.0817 -28.8479,1.76595 -30.16457,1.98179 -8.06523,0.82787 -17.16268,5.63917 -19.37556,16.73438 l -1.98179,13.21108 c 0,0 -2.07212,11.42573 10.12807,11.44995 9.46337,-0.025 44.24505,-2.07711 56.19863,-1.98024 11.95358,-0.0969 46.73527,1.95524 56.19864,1.98024 12.20018,-0.0242 10.12806,-11.44995 10.12806,-11.44995 l -1.98179,-13.21108 c -2.21288,-11.09521 -11.31032,-15.90651 -19.37556,-16.73438 -1.31666,-0.21584 -27.65231,-2.06349 -30.16457,-1.98179 z" />
  </g>
</svg>
