<?xml version="1.0" encoding="UTF-8" standalone="no"?>
<!-- Created with Inkscape (http://www.inkscape.org/) -->

<svg
   xmlns:dc="http://purl.org/dc/elements/1.1/"
   xmlns:cc="http://creativecommons.org/ns#"
   xmlns:rdf="http://www.w3.org/1999/02/22-rdf-syntax-ns#"
   xmlns:svg="http://www.w3.org/2000/svg"
   xmlns="http://www.w3.org/2000/svg"
   xmlns:sodipodi="http://sodipodi.sourceforge.net/DTD/sodipodi-0.dtd"
   xmlns:inkscape="http://www.inkscape.org/namespaces/inkscape"
   version="1.1"
   width="385.50864"
   height="340.79999"
   id="svg2"
   xml:space="preserve"
   inkscape:version="0.48.2 r9819"
   sodipodi:docname="UK traffic sign 512.2.svg"><sodipodi:namedview
     pagecolor="#ffffff"
     bordercolor="#666666"
     borderopacity="1"
     objecttolerance="10"
     gridtolerance="10"
     guidetolerance="10"
     inkscape:pageopacity="0"
     inkscape:pageshadow="2"
     inkscape:window-width="640"
     inkscape:window-height="480"
     id="namedview9"
     showgrid="false"
     inkscape:zoom="0.69157509"
     inkscape:cx="193.06056"
     inkscape:cy="170.36249"
     inkscape:window-x="0"
     inkscape:window-y="24"
     inkscape:window-maximized="0"
     inkscape:current-layer="svg2" /><defs
     id="defs10" /><metadata
     id="metadata8"><rdf:RDF><cc:Work
         rdf:about=""><dc:format>image/svg+xml</dc:format><dc:type
           rdf:resource="http://purl.org/dc/dcmitype/StillImage" /></cc:Work></rdf:RDF></metadata><g
     transform="matrix(1.25,0,0,-1.25,-2.5644363,341.06251)"
     id="g10"><path
       d="m 290.43,0.21001 c 6.915,0.15896 13.573,3.8133 17.28,10.2 3.707,6.454 3.542,14.047 0.24,20.16 l -134.16,232.44 c -3.634,5.847 -10.127,9.786 -17.52,9.84 -7.435,-0.054 -13.929,-3.993 -17.52,-9.84 L 4.59,30.57001 c -3.3424,-6.113 -3.5066,-13.706 0.24,-20.16 3.6671,-6.3867 10.325,-10.041 17.28,-10.2 h 268.32"
       inkscape:connector-curvature="0"
       id="path12"
       style="fill:#ec1d24" /><path
       d="M 156.27,238.41 34.23,27.09 H 278.19 L 156.27,238.41"
       inkscape:connector-curvature="0"
       id="path14"
       style="fill:#ffffff" /><path
       d="m 189.75,126.45 8.76,18.96 -18.84,9 -30.12,-11.28 c -20.597,-9.873 -34.818,-30.889 -34.8,-55.2 v -52.2 h 29.64 v 52.2 c -0.008,3.058 0.433,6.027 1.2,8.88 l 21.6,-12.48 8.04,13.8 -21.36,12.36 c 2.534,2.513 5.474,4.577 8.76,6.12 l 27.12,9.84"
       inkscape:connector-curvature="0"
       id="path16" /></g></svg>