<svg xmlns="http://www.w3.org/2000/svg" width="360.268" height="318.2" xml:space="preserve"><path style="fill:#ec1d24;fill-opacity:1;fill-rule:evenodd;stroke:none" d="M336.29 318.1c8.586 0 16.457-4.522 20.688-11.906 4.253-7.374 4.253-16.48 0-23.875L200.82 11.975A23.766 23.766 0 0 0 180.228.1h-.188a23.766 23.766 0 0 0-20.594 11.875L3.29 282.32c-4.253 7.396-4.253 16.501 0 23.875 4.231 7.384 12.102 11.906 20.688 11.906z"/><path style="fill:#fff;fill-opacity:1;fill-rule:evenodd;stroke:none" d="M37.755 286.283h284.758L180.133 39.807z"/><path style="fill:#000;fill-rule:nonzero;stroke:none" d="M133.384 211.863c-28.989.143-26.974 26.783-55.25 26.875v34.125h204v-34.125c-28.277-.092-26.262-26.732-55.25-26.875-26.501.143-26.178 26.783-46.75 26.875-20.572-.092-20.249-26.732-46.75-26.875z"/></svg>