<?xml version="1.0" encoding="UTF-8" standalone="no"?>
<svg
   xmlns:dc="http://purl.org/dc/elements/1.1/"
   xmlns:cc="http://creativecommons.org/ns#"
   xmlns:rdf="http://www.w3.org/1999/02/22-rdf-syntax-ns#"
   xmlns:svg="http://www.w3.org/2000/svg"
   xmlns="http://www.w3.org/2000/svg"
   xmlns:sodipodi="http://sodipodi.sourceforge.net/DTD/sodipodi-0.dtd"
   xmlns:inkscape="http://www.inkscape.org/namespaces/inkscape"
   width="900.40002"
   height="900.40015"
   viewBox="-50 -30 90.03992 90.040021"
   id="svg2"
   version="1.1"
   inkscape:version="0.48.4 r9939"
   sodipodi:docname="AJAX.svg">
  <metadata
     id="metadata14">
    <rdf:RDF>
      <cc:Work
         rdf:about="">
        <dc:format>image/svg+xml</dc:format>
        <dc:type
           rdf:resource="http://purl.org/dc/dcmitype/StillImage" />
        <dc:title></dc:title>
      </cc:Work>
    </rdf:RDF>
  </metadata>
  <defs
     id="defs12" />
  <sodipodi:namedview
     pagecolor="#ffffff"
     bordercolor="#666666"
     borderopacity="1"
     objecttolerance="10"
     gridtolerance="10"
     guidetolerance="10"
     inkscape:pageopacity="0"
     inkscape:pageshadow="2"
     inkscape:window-width="1920"
     inkscape:window-height="1057"
     id="namedview10"
     showgrid="false"
     fit-margin-top="0.2"
     fit-margin-left="0.2"
     fit-margin-right="0.2"
     fit-margin-bottom="0.2"
     inkscape:zoom="0.64"
     inkscape:cx="509.57509"
     inkscape:cy="417.37495"
     inkscape:window-x="-8"
     inkscape:window-y="-8"
     inkscape:window-maximized="1"
     inkscape:current-layer="svg2"
     showguides="true"
     inkscape:guide-bbox="true"
     inkscape:showpageshadow="true"
     borderlayer="false"
     showborder="true" />
  <path
     sodipodi:nodetypes="sssss"
     style="fill:#ec1d24;fill-opacity:1;stroke:none"
     d="m -4.9800348,60.020021 c -24.8528282,0 -45.0000092,-20.147186 -45.0000092,-45.000021 0,-24.852797 20.147181,-45 45.0000092,-45 24.8528108,0 45.0000018,20.147203 45.0000018,45 0,24.852835 -20.147192,45.000021 -45.0000018,45.000021 z"
     id="path4310"
     inkscape:connector-curvature="0" />
  <path
     inkscape:connector-curvature="0"
     id="path4312"
     d="m -4.9800388,51.020021 c -19.8822582,0 -36.0000042,-16.117753 -36.0000042,-36.000021 0,-19.882241 16.117746,-35.999999 36.0000042,-35.999999 19.8822538,0 36.0000058,16.117758 36.0000058,35.999999 0,19.882268 -16.117753,36.000021 -36.0000058,36.000021 z"
     style="fill:#ffffff;fill-opacity:1;stroke:none"
     sodipodi:nodetypes="sssss" />
  <path
     inkscape:connector-curvature="0"
     style="fill:#000000;fill-rule:nonzero;stroke:none"
     d="m 15.697604,11.725656 c -1.541652,0 -3.011774,0.306218 -4.34947,0.867958 L 6.8738581,4.7969433 7.7233484,2.458996 c 2.2320167,-0.2171944 3.0369656,-2.26811761 3.0369656,-2.61609177 0,-0.34797327 -0.414039,-0.34797327 -0.414039,-0.34797327 l -9.67646811,0 c -0.2154332,0 -0.9277269,0.18228842 -0.9277269,0.94461359 0,0.76205635 0.8119703,0.89456525 0.8119703,0.89456525 l 4.24191361,0.934036 -1.0276528,2.8271016 -20.5588751,0 c 0.254422,-0.9493023 0.411234,-1.5353641 0.411234,-1.5353641 0,0 0.176755,-0.5743393 0.176755,-0.8172929 0,-1.1515216 -0.854485,-2.01230095 -1.215021,-2.20631455 -0.07176,-0.038909 -0.312234,-0.1465153 -0.312234,-0.46958409 0,-0.32309462 0.187778,-0.59379649 0.599244,-0.59379649 l 4.28596,0 0,-2.84990027 -5.390577,0 c 0,0 -2.827556,0.2652795 -2.827556,3.15925119 0,1.69178651 0.839589,2.07668071 1.502361,2.47414771 0.220829,0.1327787 0.419496,0.6850787 0.331074,0.9941367 -0.05164,0.180554 -1.367533,5.1184586 -2.454404,9.1983254 -1.235651,-0.466798 -2.574897,-0.7232 -3.973966,-0.7232 -6.211709,0 -11.247349,5.035735 -11.247349,11.247108 0,6.211518 5.03564,11.247251 11.247349,11.247251 6.21145,0 11.247108,-5.035733 11.247108,-11.247251 0,-3.775995 -1.861544,-7.117425 -4.716275,-9.157505 0.122132,-0.456248 0.246944,-0.922168 0.372574,-1.391016 L -5.6928543,21.5501 c -0.1420581,0.448924 -0.2194131,0.926857 -0.2194131,1.422664 0,2.600941 2.1089234,4.709736 4.7098727,4.709736 0.46532359,0 0.91455839,-0.06768 1.33886279,-0.1934 l 0.6982793,1.520244 -1.2002505,0 0,1.524343 1.3447304,0 c 0.21144431,0.333762 0.58371571,0.555294 1.00802021,0.555294 0.4243133,0 0.7961573,-0.221532 1.0077264,-0.555294 l 1.3119114,0 0,-1.524343 -1.9647909,0 -0.9807572,-2.085208 c 1.0118221,-0.657854 1.7552519,-1.69357 2.0298144,-2.907303 l 1.0751361,0.01641 c 0.5418061,5.706043 5.3829812,10.186774 11.2312903,10.186774 6.211663,0 11.247384,-5.035733 11.247384,-11.247252 0,-6.211372 -5.035721,-11.247107 -11.247384,-11.247107 z"
     id="path15-1" />
  <path
     inkscape:connector-curvature="0"
     style="fill:#ffffff;fill-opacity:1;fill-rule:nonzero;stroke:none"
     d="m -1.2024214,20.020479 c 1.63069839,0 2.9522703,1.321863 2.9522703,2.952285 0,1.630717 -1.32157191,2.952578 -2.9522703,2.952578 -1.6304313,0 -2.9523059,-1.321861 -2.9523059,-2.952578 0,-1.630422 1.3218746,-2.952285 2.9523059,-2.952285 z"
     id="path17" />
  <path
     inkscape:connector-curvature="0"
     style="fill:#ffffff;fill-opacity:1;fill-rule:nonzero;stroke:none"
     d="m -1.0181243,18.266983 c -0.061168,-0.0023 -0.1223632,-0.0037 -0.1842526,-0.0037 -0.4911176,0 -0.9646593,0.07502 -1.4100566,0.214804 l -0.6991874,-1.486547 1.2808643,0 0,-1.524052 -1.3119203,0 c -0.2114533,-0.333789 -0.5834131,-0.55532 -1.0077175,-0.55532 -0.4240284,0 -0.7964601,0.221531 -1.0080291,0.555293 l -1.3447302,0 0,1.524052 2.0187025,0 0.9291871,2.023379 c -0.110646,0.07151 -0.2177749,0.147688 -0.3217431,0.227978 L -17.978643,9.5300321 c 0.149795,-0.5579305 0.29505,-1.1012102 0.433546,-1.6181164 l 20.2898421,0 -3.7627982,10.3551233 z"
     id="path19" />
  <path
     inkscape:connector-curvature="0"
     style="fill:#ffffff;fill-opacity:1;fill-rule:nonzero;stroke:none"
     d="M 8.898624,14.013348 5.6125818,8.2667207 1.6346977,19.213474 c 0.8802703,0.665472 1.5196608,1.633352 1.7634611,2.748628 l 1.097974,0 C 4.7847809,18.721474 6.4477195,15.876144 8.898624,14.013348 z"
     id="path21" />
  <path
     inkscape:connector-curvature="0"
     style="fill:#ffffff;fill-opacity:1;fill-rule:nonzero;stroke:none"
     d="m 10.550151,16.947758 c -1.4622261,1.256809 -2.4907603,3.010306 -2.7377748,5.022841 l 5.6317528,0 -2.893978,-5.022841 z"
     id="path23" />
  <path
     inkscape:connector-curvature="0"
     style="fill:#ffffff;fill-opacity:1;fill-rule:nonzero;stroke:none"
     d="m 13.02246,15.532419 3.934515,6.827618 c 0,0 0.190592,0.314715 0.190592,0.654338 0,1.002458 -1.027065,1.002458 -1.515841,1.002458 l -7.7963783,0.01524 c 0.5245241,3.878555 3.8401563,6.88417 7.8622923,6.88417 4.386981,0 7.943481,-3.556513 7.943481,-7.943476 0,-4.38667 -3.5565,-7.943186 -7.943481,-7.943186 -0.950583,0 -1.830542,0.196612 -2.675055,0.50284 z"
     id="path25" />
  <path
     inkscape:connector-curvature="0"
     style="fill:#ffffff;fill-opacity:1;fill-rule:nonzero;stroke:none"
     d="m -20.06824,17.329578 c -0.383214,1.429991 -0.648463,2.419848 -0.685084,2.555815 -0.868517,3.225389 -4.18314,4.219935 -4.860202,4.219935 -0.729131,0 -1.170975,-0.486137 -1.170975,-1.17095 0,-0.685106 0.552579,-0.883781 0.751167,-1.038209 2.51851,-1.966236 2.916308,-4.064923 2.916308,-4.064923 0,0 0.22927,-0.862097 0.576593,-2.166377 -0.957198,-0.408778 -2.010876,-0.635291 -3.117166,-0.635291 -4.387142,0 -7.943597,3.556516 -7.943597,7.943186 0,4.386964 3.556455,7.943476 7.943597,7.943476 4.386901,0 7.943338,-3.556512 7.943338,-7.943476 0,-2.207106 -0.900855,-4.203526 -2.353979,-5.643186 z"
     id="path27" />
</svg>
