<svg xmlns="http://www.w3.org/2000/svg" width="385.546" height="340.8" xml:space="preserve"><path d="M291.21.21a20.576 20.576 0 0 1 17.28 10.2c3.677 6.454 3.512 14.047.24 20.16L174.45 263.01c-3.544 5.847-10.037 9.786-17.4 9.84-7.465-.054-13.959-3.993-17.52-9.84L5.25 30.57c-3.252-6.113-3.417-13.706.24-20.16A20.627 20.627 0 0 1 22.77.21h268.44" style="fill:#ec1d24" transform="matrix(1.25 0 0 -1.25 -3.474 341.063)"/><path d="M157.05 238.41 35.01 27.09h243.96L157.05 238.41" style="fill:#fff" transform="matrix(1.25 0 0 -1.25 -3.474 341.063)"/><path d="M145.589 225.3c19.472-.064 35.243 15.708 35.25 35.1-.007 19.516-15.778 35.288-35.25 35.25-19.435.038-35.207-15.734-35.25-35.25.043-19.392 15.815-35.164 35.25-35.1M266.039 254.7c11.356-.02 20.512 9.136 20.55 20.4-.038 11.324-9.194 20.48-20.55 20.55-11.233-.07-20.39-9.226-20.4-20.55.01-11.264 9.167-20.42 20.4-20.4"/><path d="M195.089 181.65v-9.6h-63.6v9.6l-7.65 31.65-13.35 13.35 4.5 4.65 12-12h36.3l10.65 9.6c8.633 7.733 14.086 19.01 14.1 31.5v4.5h54.9c3.863-8.86 12.792-15.112 23.1-15.15 8.687.038 16.306 4.346 20.85 10.95v-15.45h-15.75l8.25-28.5s.41-2.16-1.5-2.1h-21.15V204h-3.3v-10.65h-3.9V204h-3.3v10.65h-43.05l.15-9.75-8.25-23.25"/><path d="M119.25 80.97c9.094-.051 16.453-7.411 16.44-16.44.013-9.128-7.346-16.488-16.44-16.44-9.064-.048-16.424 7.312-16.44 16.44.016 9.029 7.376 16.389 16.44 16.44M215.61 59.85c3.984.019 7.173-3.17 7.2-7.08-.027-3.958-3.216-7.147-7.2-7.2-3.885.053-7.074 3.242-7.08 7.2.006 3.91 3.195 7.099 7.08 7.08M130.17 127.53h-16.68l-5.16-20.76h21.84v20.76M136.77 127.53h15l7.32-20.76h-22.32v20.76M145.53 92.61h13.2v8.52h-22.2l9-8.52" style="fill:#fff" transform="matrix(1.25 0 0 -1.25 -3.474 341.063)"/></svg>