<?xml version="1.0" encoding="UTF-8" standalone="no"?>
<svg
   xmlns:dc="http://purl.org/dc/elements/1.1/"
   xmlns:cc="http://creativecommons.org/ns#"
   xmlns:rdf="http://www.w3.org/1999/02/22-rdf-syntax-ns#"
   xmlns:svg="http://www.w3.org/2000/svg"
   xmlns="http://www.w3.org/2000/svg"
   xmlns:sodipodi="http://sodipodi.sourceforge.net/DTD/sodipodi-0.dtd"
   xmlns:inkscape="http://www.inkscape.org/namespaces/inkscape"
   width="455mm"
   height="455mm"
   viewBox="0 0 455 455"
   version="1.1"
   id="svg16"
   inkscape:version="1.0.1 (3bc2e813f5, 2020-09-07)"
   sodipodi:docname="222.svg">
  <defs
     id="defs10" />
  <sodipodi:namedview
     id="base"
     pagecolor="#ffffff"
     bordercolor="#666666"
     borderopacity="1.0"
     inkscape:pageopacity="0.0"
     inkscape:pageshadow="2"
     inkscape:zoom="0.35"
     inkscape:cx="1297.0783"
     inkscape:cy="922.81287"
     inkscape:document-units="mm"
     inkscape:current-layer="layer1"
     inkscape:document-rotation="0"
     showgrid="false"
     inkscape:window-width="1920"
     inkscape:window-height="1057"
     inkscape:window-x="-8"
     inkscape:window-y="-8"
     inkscape:window-maximized="1" />
  <metadata
     id="metadata13">
    <rdf:RDF>
      <cc:Work
         rdf:about="">
        <dc:format>image/svg+xml</dc:format>
        <dc:type
           rdf:resource="http://purl.org/dc/dcmitype/StillImage" />
        <dc:title></dc:title>
      </cc:Work>
    </rdf:RDF>
  </metadata>
  <g
     inkscape:label="Layer 1"
     inkscape:groupmode="layer"
     id="layer1"
     transform="translate(0,158)">
    <circle
       style="fill:#000000;fill-opacity:1;stroke:none;stroke-width:0;stroke-miterlimit:10"
       id="path18"
       cx="227.5"
       cy="69.500008"
       r="226.5" />
    <circle
       style="fill:#ffffff;fill-opacity:1;stroke:none;stroke-width:0;stroke-miterlimit:10"
       id="circle843"
       cx="227.5"
       cy="69.500008"
       r="225" />
    <circle
       style="fill:#01619e;fill-opacity:1;stroke:none;stroke-width:0;stroke-miterlimit:10"
       id="circle845"
       cx="227.5"
       cy="69.500008"
       r="216" />
    <rect
       style="fill:#ffffff;fill-opacity:1;stroke:none;stroke-width:0;stroke-miterlimit:10"
       id="rect10"
       width="15"
       height="390"
       x="176.5"
       y="-125.49998" />
    <path
       id="path34"
       style="fill:#ffffff;fill-opacity:1;fill-rule:nonzero;stroke:none;stroke-width:0.148421"
       d="m 116.77053,-44.499982 c -7.90346,0 -13.76243,6.283528 -13.76243,14.03843 0,4.855166 5.02962,11.83057 5.46877,12.35914 0.44214,0.530055 1.05932,2.825477 -0.52818,3.355568 -3.86937,1.29024 -9.66605,3.051142 -14.11555,5.9152573 -1.23587,0.79289 -3.7937,2.029679 -4.32336,4.6784695 L 74.46845,60.139997 c 0,0 -3.74921,0.243702 -3.74921,3.33314 0,2.295584 0.57269,2.428919 0.57269,2.428919 0,0 -7.54292,0.595674 -9.92419,-0.06642 -2.38128,-0.660564 -3.37386,-2.118779 -1.45549,-3.972959 1.91987,-1.852946 3.17652,-4.369625 3.17652,-7.15057 0,-2.781108 -3.30854,-9.535597 -9.5948,-9.535597 -6.28479,0 -9.72539,5.628725 -9.72539,9.336616 0,3.707324 2.11717,6.62173 2.97768,7.483057 0.85904,0.859518 1.52076,2.118609 -0.7952,3.244328 -8.99899,4.373666 -10.36974,9.314057 -11.51263,20.063457 -0.33098,3.1104 -0.52906,17.944632 -0.39701,19.134242 0.1329,1.19357 1.78677,3.84063 4.56582,3.84063 2.77859,0 4.03523,-1.72083 4.03523,-3.04496 0,-1.32453 -1.05784,-1.98528 -1.52076,-2.44983 -0.46287,-0.46339 -0.99253,-1.72248 -0.66231,-2.71433 0.33141,-0.994617 2.24986,-12.183622 2.18307,-13.044952 0.39744,-0.33123 1.52224,-2.25266 2.18396,-3.37779 3.59343,6.74228 0.99404,18.442322 -0.52966,27.083472 -0.19893,1.124 -0.26411,1.85417 1.65429,2.38322 0,0.59389 -0.0652,24.30076 -0.0652,24.30076 0,0 -0.13206,1.71967 -0.52966,2.11862 -0.39744,0.39772 -1.45545,1.32471 -1.45545,2.25265 0,0.92517 0.72699,1.32294 1.39017,1.32294 0.66021,0 1.05785,-0.33123 1.45546,-0.59554 0.39617,-0.26557 3.83677,-2.71386 3.83677,-2.71386 0,0 1.25664,-1.12693 1.65424,-2.78271 l 3.70472,-17.41463 c 0,0 0,-1.05846 0.79377,-1.78749 0.79525,-0.72783 1.32491,-1.1924 1.78778,-1.38957 0.46291,-0.19908 1.12463,-0.39857 1.12463,0.52827 0,0.92796 0,20.79242 0,20.79242 0,0 0.0652,1.12577 0.66171,1.65595 0.59494,0.52946 6.28476,4.23738 6.4836,4.50001 0.19893,0.26558 1.12459,0.53127 1.39018,0.53127 0.26411,0 1.45544,-0.39772 1.45544,-1.39078 0,-0.99344 -0.52966,-1.5219 -0.86052,-1.98705 -0.33098,-0.46279 -1.65424,-2.11697 -1.85309,-2.31755 -0.19892,-0.19908 -1.08156,-1.47901 -0.52966,-3.50835 0.19893,-0.72904 2.7804,-14.83246 2.84567,-16.28945 0.79377,-0.26432 6.74918,-2.84602 4.83077,-9.79941 L 66.59476,78.417798 c 0,0 -0.83676,-1.83221 0.86056,-2.45166 7.07999,-2.582 11.24757,-4.502956 17.13624,-8.938119 0.71214,-0.535815 2.77888,-2.449844 -0.92579,-5.09867 l 17.60063,-45.224278 -1.05932,49.32951 c 0,0 -0.26411,3.046562 -0.0669,5.495219 l 5.29516,64.62718 c 0,0 -0.13373,0.92622 -0.46438,1.38961 -0.3293,0.46456 -2.51481,3.70728 -2.77889,3.97349 -0.26579,0.26558 -0.66171,0.92623 -0.46291,1.45464 0.19724,0.53182 0.86052,1.5253 1.65429,1.5253 0.79374,0 1.19137,-0.39941 1.78631,-0.72904 l 9.66012,-7.08555 c 0,0 1.32343,-0.7274 1.3887,-3.51016 0,0 0.39155,-19.84186 0.79374,-32.1137 0.46438,-14.102422 1.32343,-17.811352 4.36789,-31.583671 l 2.0519,27.148539 c 0,0 0.52819,12.314742 0.52819,13.241552 0,6.20761 0.15896,19.61219 -0.99258,25.75716 -0.19893,1.06028 0.13206,1.12576 0.39743,1.39138 0.26412,0.26431 6.35158,6.09211 6.61713,6.49001 0.26411,0.39478 1.25517,0.92622 1.71956,0.92622 0.46291,0 2.44655,-0.59671 2.44655,-1.7875 0,-0.39773 -0.0652,-0.99286 -0.4614,-1.59033 -0.39744,-0.59512 -1.12464,-1.85417 -1.25665,-2.05194 -0.13374,-0.19908 -0.39743,-0.52947 -0.20019,-1.65523 0.20019,-1.12529 5.09636,-42.265302 5.36044,-43.414262 0.26411,-1.14768 1.85309,-26.929221 1.85309,-29.840675 0,-2.913264 -4.41093,-47.32243 -4.41093,-48.027697 0,0 10.93906,13.897365 10.93906,33.635899 0,3.091301 -0.30996,7.687654 -0.44214,8.476504 -0.0875,0.528282 -0.17496,1.500921 -0.44067,2.118609 -0.2658,0.618857 -0.97033,2.559563 -0.97033,3.884147 0,1.325888 1.14541,5.650819 5.91091,5.650819 2.64687,0 5.33671,-3.221765 5.33671,-5.340508 0,-2.120427 -0.57415,-3.400434 -0.83674,-3.75363 -0.26413,-0.353114 -0.52967,-2.031155 -0.17791,-3.706118 0.35454,-1.67732 1.14836,-13.332714 1.14836,-16.245932 0,-10.748184 -3.88274,-28.86968 -6.44057,-40.17023118 -0.33814,-1.48472 -2.02965,-4.67845902 -4.23585,-6.17956002 -6.37976,-4.3414285 -12.03395,-7.8187568 -18.61398,-8.9174588 -1.05785,-0.176769 -3.26404,-1.058634 -1.41246,-3.973203 1.85309,-2.913101 5.20616,-7.68067 5.20616,-12.712551 0,-5.031835 -3.61714,-13.331651 -13.23273,-13.331651" />
    <path
       id="path20"
       style="fill:#ffffff;fill-opacity:1;fill-rule:nonzero;stroke:none;stroke-width:0.0935752"
       d="m 248.4354,72.703782 c 4.92552,0 9.62259,0.97736 13.89648,2.77032 l 14.29531,-24.885177 -2.71413,-7.461712 c -7.13128,-0.693056 -9.7031,-7.240048 -9.7031,-8.35024 0,-1.11112 1.3229,-1.11112 1.3229,-1.11112 h 30.91625 c 0.68812,0 2.9641,0.58176 2.9641,3.015384 0,2.432656 -2.59431,2.855424 -2.59431,2.855424 l -13.55289,2.980752 3.28336,9.02364 h 65.68528 c -0.81228,-3.030328 -1.31362,-4.90092 -1.31362,-4.90092 0,0 -0.56475,-1.833136 -0.56475,-2.608488 0,-3.675688 2.72979,-6.422624 3.88133,-7.041792 0.22983,-0.124336 0.99738,-0.46764 0.99738,-1.49832 0,-1.031616 -0.59985,-1.895832 -1.9145,-1.895832 h -13.69334 v -9.095648 h 17.22248 c 0,0 9.03461,0.846416 9.03461,10.083328 0,5.399392 -2.6822,6.627432 -4.79968,7.896616 -0.70583,0.423696 -1.34069,2.185768 -1.05869,3.172488 0.1648,0.577064 4.37023,16.337585 7.84273,29.359593 3.94789,-1.48992 8.22601,-2.308296 12.6965,-2.308296 19.84634,0 35.9349,16.072913 35.9349,35.898178 0,19.826 -16.08856,35.89797 -35.9349,35.89797 -19.84585,0 -35.93471,-16.07197 -35.93471,-35.89797 0,-12.052113 5.94722,-22.717177 15.06847,-29.22865 -0.39089,-1.456248 -0.78953,-2.943336 -1.19072,-4.439816 l -41.73065,29.127646 c 0.45408,1.43286 0.70124,2.95832 0.70124,4.54082 0,8.30159 -6.73805,15.03268 -15.04806,15.03268 -1.48673,0 -2.92198,-0.21581 -4.27764,-0.61702 l -2.23104,4.85105 h 3.83482 v 4.86566 h -4.29638 c -0.67594,1.06499 -1.86497,1.77236 -3.22062,1.77236 -1.35568,0 -2.54376,-0.70737 -3.21972,-1.77236 h -4.19149 v -4.86566 h 6.27741 l 3.13358,-6.65437 c -3.2328,-2.09973 -5.60803,-5.40596 -6.48527,-9.27994 l -3.43503,0.0525 c -1.73111,18.21283 -17.19858,32.51318 -35.88389,32.51318 -19.84624,0 -35.9354,-16.07196 -35.9354,-35.89797 0,-19.825283 16.08916,-35.89818 35.9354,-35.89818" />
    <path
       id="path24"
       style="fill:#01619e;fill-opacity:1;fill-rule:nonzero;stroke:none;stroke-width:0.0935752"
       d="m 301.8418,93.582191 c 0.19559,-0.008 0.39134,-0.01328 0.58887,-0.01328 1.56914,0 3.08209,0.2394 4.50516,0.685568 l 2.23386,-4.744696 h -4.09228 v -4.86444 h 4.1915 c 0.67598,-1.065288 1.86404,-1.77236 3.2197,-1.77236 1.35472,0 2.54468,0.707072 3.22064,1.77236 h 4.29638 v 4.86444 h -6.44971 l -2.96879,6.458144 c 0.35388,0.228272 0.69563,0.471384 1.02798,0.727648 l 44.41568,-31.001009 c -0.47767,-1.780784 -0.94287,-3.514808 -1.38498,-5.164656 h -64.82616 l 12.02215,33.051153" />
    <path
       id="path26"
       style="fill:#01619e;fill-opacity:1;fill-rule:nonzero;stroke:none;stroke-width:0.0935752"
       d="m 270.15784,80.005575 10.4989,-18.341921 12.70935,34.939505 c -2.81245,2.124044 -4.85531,5.213281 -5.63425,8.773001 h -3.50807 C 283.30161,95.032823 277.98848,85.951191 270.15784,80.005575" />
    <path
       id="path28"
       style="fill:#01619e;fill-opacity:1;fill-rule:nonzero;stroke:none;stroke-width:0.0935752"
       d="m 264.88123,89.371511 c 4.67181,4.011456 7.95798,9.608212 8.74722,16.031769 H 255.635 l 9.24623,-16.031769" />
    <path
       id="path30"
       style="fill:#01619e;fill-opacity:1;fill-rule:nonzero;stroke:none;stroke-width:0.0935752"
       d="m 256.98225,84.854103 -12.57077,21.792177 c 0,0 -0.60855,1.00448 -0.60855,2.08848 0,3.1996 3.28147,3.1996 4.84313,3.1996 l 24.90936,0.0485 c -1.67585,12.37946 -12.2693,21.97271 -25.12002,21.97271 -14.01632,0 -25.37938,-11.35169 -25.37938,-25.35376 0,-14.001263 11.36306,-25.352823 25.37938,-25.352823 3.03712,0 5.84862,0.627568 8.54685,1.604952" />
    <path
       id="path32"
       style="fill:#01619e;fill-opacity:1;fill-rule:nonzero;stroke:none;stroke-width:0.0935752"
       d="m 362.70687,90.590199 c 1.22478,4.564208 2.07178,7.723604 2.18919,8.157574 2.77469,10.294707 13.36507,13.469057 15.52796,13.469057 2.32953,0 3.74127,-1.55163 3.74127,-3.73741 0,-2.18669 -1.76498,-2.8208 -2.39984,-3.31372 -8.04655,-6.275777 -9.31739,-12.974277 -9.31739,-12.974277 0,0 -0.73286,-2.751616 -1.8424,-6.914592 3.05772,-1.304704 6.42415,-2.027688 9.95944,-2.027688 14.01641,0 25.37889,11.35156 25.37889,25.352817 0,14.00207 -11.36248,25.35376 -25.37889,25.35376 -14.01604,0 -25.3788,-11.35169 -25.3788,-25.35376 0,-7.04456 2.87753,-13.416689 7.52057,-18.011761" />
    <circle
       style="fill:#01619e;fill-opacity:1;stroke:none;stroke-width:0;stroke-miterlimit:10"
       id="path29"
       cx="-302.4429"
       cy="108.58576"
       r="9.4285727"
       transform="scale(-1,1)" />
  </g>
</svg>
