<?xml version="1.0" encoding="UTF-8" standalone="no"?>
<svg
   xmlns:dc="http://purl.org/dc/elements/1.1/"
   xmlns:cc="http://creativecommons.org/ns#"
   xmlns:rdf="http://www.w3.org/1999/02/22-rdf-syntax-ns#"
   xmlns:svg="http://www.w3.org/2000/svg"
   xmlns="http://www.w3.org/2000/svg"
   xmlns:sodipodi="http://sodipodi.sourceforge.net/DTD/sodipodi-0.dtd"
   xmlns:inkscape="http://www.inkscape.org/namespaces/inkscape"
   width="455mm"
   height="455mm"
   viewBox="0 0 455 455"
   version="1.1"
   id="svg16"
   inkscape:version="1.0.1 (3bc2e813f5, 2020-09-07)"
   sodipodi:docname="UK mandatory.svg">
  <defs
     id="defs10" />
  <sodipodi:namedview
     id="base"
     pagecolor="#ffffff"
     bordercolor="#666666"
     borderopacity="1.0"
     inkscape:pageopacity="0.0"
     inkscape:pageshadow="2"
     inkscape:zoom="0.35"
     inkscape:cx="1504.874"
     inkscape:cy="902.05885"
     inkscape:document-units="mm"
     inkscape:current-layer="layer1"
     inkscape:document-rotation="0"
     showgrid="false"
     inkscape:window-width="1920"
     inkscape:window-height="1057"
     inkscape:window-x="-8"
     inkscape:window-y="-8"
     inkscape:window-maximized="1" />
  <metadata
     id="metadata13">
    <rdf:RDF>
      <cc:Work
         rdf:about="">
        <dc:format>image/svg+xml</dc:format>
        <dc:type
           rdf:resource="http://purl.org/dc/dcmitype/StillImage" />
        <dc:title></dc:title>
      </cc:Work>
    </rdf:RDF>
  </metadata>
  <g
     inkscape:label="Layer 1"
     inkscape:groupmode="layer"
     id="layer1"
     transform="translate(0,158)">
    <circle
       style="fill:#000000;fill-opacity:1;stroke:none;stroke-width:0;stroke-miterlimit:10"
       id="path18"
       cx="227.5"
       cy="69.500008"
       r="226.5" />
    <circle
       style="fill:#ffffff;fill-opacity:1;stroke:none;stroke-width:0;stroke-miterlimit:10"
       id="circle843"
       cx="227.5"
       cy="69.500008"
       r="225" />
    <circle
       style="fill:#01619e;fill-opacity:1;stroke:none;stroke-width:0;stroke-miterlimit:10"
       id="circle845"
       cx="227.5"
       cy="69.500008"
       r="216" />
    <path
       id="path20"
       style="fill:#ffffff;fill-opacity:1;fill-rule:nonzero;stroke:none;stroke-width:0.163757"
       d="m 343.11308,48.856538 c -8.61968,0 -16.83953,1.71039 -24.31885,4.84807 l -25.01679,-43.54906 4.74972,-13.0579902 c 12.47975,-1.21285 16.98044,-12.6700898 16.98044,-14.6129298 0,-1.94445 -2.31509,-1.94445 -2.31509,-1.94445 h -54.10343 c -1.20422,0 -5.18717,1.01807 -5.18717,5.27691 0,4.2571598 4.54003,4.9969998 4.54003,4.9969998 l 23.71755,5.21631 -5.74588,15.7913802 H 161.46439 c 1.42148,-5.3030802 2.29883,-8.5766102 2.29883,-8.5766102 0,0 0.98831,-3.20799998 0.98831,-4.56486 0,-6.43245 -4.77713,-11.2395998 -6.79233,-12.3231298 -0.4022,-0.2176 -1.74542,-0.81838 -1.74542,-2.62207 0,-1.80533 1.04975,-3.3177 3.35039,-3.3177 h 23.96333 v -15.91739 h -30.13932 c 0,0 -15.81058,1.481233 -15.81058,17.64583 0,9.4489398 4.69385,11.5980098 8.39944,13.8190798 1.2352,0.74146 2.34621,3.82509002 1.85271,5.55185 -0.28841,1.00986 -7.64791,28.5907702 -13.72479,51.3792902 -6.90881,-2.60737 -14.39551,-4.03953 -22.21888,-4.03953 C 77.15499,48.856538 49,76.984138 49,111.67835 c 0,34.69552 28.15499,62.82144 62.88608,62.82144 34.73025,0 62.88576,-28.12592 62.88576,-62.82144 0,-21.091202 -10.40764,-39.755062 -26.36982,-51.150132 0.68406,-2.54844 1.38168,-5.15084 2.08376,-7.76968 l 73.02862,50.973372 c -0.79464,2.50752 -1.22716,5.17706 -1.22716,7.94644 0,14.52778 11.79159,26.3072 26.3341,26.3072 2.60178,0 5.11347,-0.37766 7.48587,-1.07978 l 3.90432,8.48933 h -6.71092 v 8.5149 h 7.51866 c 1.1829,1.86372 3.26369,3.10162 5.63609,3.10162 2.37244,0 4.45156,-1.2379 5.63451,-3.10162 h 7.33511 v -8.5149 h -10.98549 l -5.48375,-11.64514 c 5.6574,-3.67453 9.81405,-9.46044 11.34922,-16.23989 l 6.01131,0.0919 c 3.02943,31.87246 30.09751,56.89805 62.79681,56.89805 C 377.84399,174.50002 406,146.3741 406,111.67858 406,76.984348 377.84399,48.856768 343.11308,48.856768" />
    <path
       id="path24"
       style="fill:#01619e;fill-opacity:1;fill-rule:nonzero;stroke:none;stroke-width:0.163757"
       d="m 249.65187,85.393748 c -0.34229,-0.0139 -0.68485,-0.0232 -1.03053,-0.0232 -2.74599,0 -5.39365,0.41896 -7.88402,1.19976 l -3.90925,-8.30323 h 7.16147 v -8.51276 h -7.33512 c -1.18295,-1.86425 -3.26206,-3.10163 -5.63446,-3.10163 -2.37077,0 -4.45319,1.23738 -5.63613,3.10163 h -7.51866 v 8.51276 h 11.28699 l 5.19539,11.30177 c -0.61931,0.39947 -1.21736,0.82492 -1.79897,1.27338 l -77.72744,-54.25175 c 0.83592,-3.11638 1.65002,-6.15092 2.42372,-9.03815 h 113.44577 l -21.03876,57.83952" />
    <path
       id="path26"
       style="fill:#01619e;fill-opacity:1;fill-rule:nonzero;stroke:none;stroke-width:0.163757"
       d="m 305.0988,61.634678 -18.37308,-32.09836 -22.24136,61.14413 c 4.9218,3.71707 8.49679,9.123245 9.85994,15.352752 h 6.13911 c 1.6138,-18.100842 10.91178,-33.993692 24.61539,-44.398522" />
    <path
       id="path28"
       style="fill:#01619e;fill-opacity:1;fill-rule:nonzero;stroke:none;stroke-width:0.163757"
       d="m 314.33287,78.025068 c -8.17568,7.02006 -13.92648,16.81437 -15.30765,28.055592 h 31.48853 L 314.33287,78.025068" />
    <path
       id="path30"
       style="fill:#01619e;fill-opacity:1;fill-rule:nonzero;stroke:none;stroke-width:0.163757"
       d="m 328.15607,70.119598 21.99888,38.136302 c 0,0 1.06494,1.75785 1.06494,3.65485 0,5.59932 -5.74258,5.59932 -8.47547,5.59932 l -43.59139,0.0849 c 2.93274,21.66406 21.47129,38.45222 43.96005,38.45222 24.52854,0 44.4139,-19.86543 44.4139,-44.36907 0,-24.502202 -19.88536,-44.367442 -44.4139,-44.367442 -5.31498,0 -10.2351,1.09825 -14.95701,2.80868" />
    <path
       id="path32"
       style="fill:#01619e;fill-opacity:1;fill-rule:nonzero;stroke:none;stroke-width:0.163757"
       d="m 143.13799,80.157768 c -2.14335,7.98737 -3.62562,13.51629 -3.83109,14.27575 -4.8557,18.015752 -23.38887,23.570852 -27.17393,23.570852 -4.07667,0 -6.54721,-2.71533 -6.54721,-6.54047 0,-3.8267 3.0887,-4.9364 4.1997,-5.799 14.08147,-10.982602 16.30544,-22.704992 16.30544,-22.704992 0,0 1.28252,-4.81532 3.22421,-12.10053 -5.35102,-2.28324 -11.24227,-3.54846 -17.42903,-3.54846 -24.52872,0 -44.41306,19.86523 -44.41306,44.367432 0,24.50364 19.88434,44.36907 44.41306,44.36907 24.52808,0 44.41292,-19.86543 44.41292,-44.36907 0,-12.327987 -5.03567,-23.479212 -13.16101,-31.520582" />
    <circle
       style="fill:#01619e;fill-opacity:1;stroke:none;stroke-width:0;stroke-miterlimit:10"
       id="path29"
       cx="248.60001"
       cy="111.65002"
       r="16.5" />
  </g>
</svg>
