<svg xmlns="http://www.w3.org/2000/svg" width="321.375" height="321.375" xml:space="preserve"><path d="M160.75.5C249.185.47 320.9 72.19 320.875 160.625c.03 88.498-71.69 160.213-160.125 160.25C72.252 320.843.537 249.123.5 160.625.532 72.19 72.252.475 160.75.5" style="fill:#ec1d24;stroke:none"/><path d="M160.75 32.375c70.816 0 128.25 57.434 128.25 128.25 0 70.879-57.434 128.313-128.25 128.375-70.879-.062-128.313-57.496-128.375-128.375.063-70.816 57.496-128.25 128.375-128.25" style="fill:#ffd421;fill-opacity:1;stroke:none"/><path d="M97.25 114.25c-.018-2.625-1.144-4.385-6.375-5.5l-8.5-1.75c-4.992-.936-11.54-5.23-11.5-13.5-.04-7.991 7.211-15.664 18.875-15.625 0 0 12.974-.039 19.5 7.75l-7.125 7.125c-5.878-5.059-12.75-5-12.75-5-4.531-.059-7.206 2.123-7.25 5.375.044 2.591 1.944 4.28 10.5 5.5 9.395 1.244 15.8 7.086 15.875 15.375.066 6.846-3.806 15.575-21 15.625-9.766-.05-14.341-2.655-21.125-9.5l8.5-6.375c4.619 4.491 7.857 5.9 13.25 5.875 5.518.025 9.107-1.665 9.125-5.375M140.25 88.375V128.5h-9.875V88.375H116.5v-9.5h37.625v9.5H140.25M184.51 77.865c-14.158.031-24.012 10.59-24 26-.013 15 10.616 25.77 24 25.75 14.14.02 23.995-10.469 24-25.625-.005-14.971-9.438-26.094-24-26.125zm0 9.75c8.579-.005 12.944 6.331 13 16.25-.056 9.861-4.491 16.196-13 16.25-8.738-.054-12.75-6.247-12.75-16.25 0-10.06 3.942-16.255 12.75-16.25zM220.76 78.865v49.625h10.5v-17.875h10.375c12.116-.056 16.27-10.685 16.25-15.5.02-3.562-2.304-16.234-17.25-16.25H220.76zm10.5 9.5h9.375c4.036-.05 6.921 2.203 6.875 6.75.046 4.04-3.614 6.574-6.875 6.625h-9.375V88.365zM70.125 182c-11.8-.014-21.35-9.564-21.375-21.375.025-11.75 9.575-21.299 21.375-21.25H251.25c11.79-.049 21.34 9.5 21.375 21.25-.035 11.811-9.585 21.361-21.375 21.375H70.125M175.385 188.74c-7 .005-7.857 8.228-7.875 9.75.018 1.19-.458 5.774 4.75 7.25.216.014.781.404.625.875-.116.385-.291.523-.875.5a32.916 32.916 0 0 0-2.375-.375c-.451-.071-1.211-.362-2.5.375-.511.376-8.639 4.531-13.875 11.5-.266.368-1.006 1.185-.5 2.625l4 11.5s.559 1.205-.25 1.75c-.828.545-3.711 1.714-4.125 1.875-.461.065-1.231.367-2.063-.469a.107.107 0 0 0 0-.03c-.009-.01-.022-.022-.03-.032-.394-.899-7.802-12.745-10.657-15.594-.317-.322-.59-1.062.125-1.625.739-.555 4.246-3.114 4.25-7.375-.004-4.362-3.042-7.246-7-7.25-3.836.004-7.031 2.991-7 7.625-.031 3.108 2.046 5.549 2.5 6 .483.536.483 1.783-.875 1.75-1.344-.045-3.345-.227-4.75.125-2.954.644-7.341 2.185-9.875 5.125-1.16 1.281-4.127 5.844-4.875 7.625-1.204 2.853-1.384 7.728-1.125 10.5.058.4.019.829-.125 1.125-.129.289-.557.58-.5 1.75-.057 1.246 1.034 2.688 3.125 2.75 1.299-.062 3.675-1.192 3.625-3.625.05-1.039-.631-1.771-1-2.25-.369-.422-.83-1.699-.125-3.375 1.304-3.041 3.704-7.162 8.75-9.125 0 0-.002 1.513 0 1.875-.002 4.273-3.951 17.159-10.25 19.75l-13 5.75s2.466 11.103 2.625 11.75c.153.678.62 1.261 1.25 1.25.54.011 1.085-.767 1.125-1.375.038-.64.428-4.419.5-4.75.005-.37.2-1.54 1.875-2.125 1.755-.584 10.989-3.661 11.625-3.875.611-.254 2.988-.955 5-3.125 2.04-2.195 5.586-6.286 5.875-6.75 0 0 7.244 15.894 8.75 28.625l10-2.375s.339-.121.75.125c.369.325 2.031 1.183 2.375 1.375.331.171 1.241.328 1.5-.125.313-.327.286-.925.25-1.5l-1.375-7.375s-.375-1.129.625-1.75c3.323-1.974 13.259-10.581 15.5-13.375.56-.771 2.068-2.485 4.375-2.5 2.264.015 5.121.066 6.875-.375 1.779-.494 2.921.545 3 2.125.271 9.253 3.3 14.094 4.625 15.75 2.346 3.094 2.609 5.468 2.875 7.25.111.67.371 2.955 2.375 3 .919-.045 1.074-.279 1.75-.375.649-.215 8.831-2.162 9.25-2.25.361-.069 1.101-.536 1-1.125-.132-.502-.679-.931-1.25-1-.675-.009-4.805-.399-5.25-.5-1.616-.242-2.3-.4-2.875-2.375-.304-.914-5.72-20.37-5.875-22.25 0 0 2.389-.355 3.75-1.5 0 0-6.764-9.296-9.375-22.75 0 0 4.689 10.18 16.125 15.375.683.284 1.151.438 1.625.75.55.42 1.434.913 2.25.875.743.038 2.899-.794 2.875-2.875.024-1.971-1.821-2.569-2.125-2.75-2.134-.862-4.622-2.537-6.375-4.125-4.311-3.686-6.74-6.857-9.125-12.5-.301-.884-3.366-7.065-4-7.75-1.341-1.455-3.191-2.554-4.75-2.875-.481-.142-1.786-.376-1.75-.875-.036-.69.359-.816.625-.875 2.841-1.282 3.001-5.531 3-6.75.001-2.591-.972-9.995-8-10zm-7.5 28.5c.409 16.159-6.125 27.125-6.125 27.125 2.066 1.919 3.5 2.125 3.5 2.125-8.915 4.521-11.825 9.665-13.5 12.5-1.65 2.88-2.714 3.685-4.25 4.625-1.426.983-.906 2.125-.75 2.5.051.3 1.246 3.521 1.375 4 .235.56.001 1.314-.75 1.375-.807-.061-1.846-2.191-2-4.25-.755-7.021-4.263-21.529-5-24.125-.821-2.599-1-6.125-1-6.125l.125-2.625s3.743 4.593 5.5 6.625c1.88 1.916 5.1.826 5.625.75.411-.132 8.1-2.574 9.625-3.125 1.591-.489 2.788-2.774 3-4.125.099-1.455-.889-3.377-1.25-3.875-.263-.437-1.094-2.359-1.25-3-.155-.606-.674-2.476-.875-3.25-.932-3.475 1.5-4 1.5-4l6.5-3.125z" style="fill:#000;stroke:none"/></svg>