<svg xmlns="http://www.w3.org/2000/svg" width="360.268" height="318.2" xml:space="preserve"><path style="fill:#ec1d24;fill-opacity:1;fill-rule:evenodd;stroke:none" d="M23.978 318.1c-8.586 0-16.457-4.522-20.688-11.906-4.253-7.374-4.253-16.48 0-23.875L159.446 11.975A23.766 23.766 0 0 1 180.04.1h.187a23.766 23.766 0 0 1 20.594 11.875l156.157 270.344c4.253 7.396 4.253 16.501 0 23.875-4.231 7.384-12.102 11.906-20.688 11.906z"/><path style="fill:#fff;fill-opacity:1;fill-rule:evenodd;stroke:none" d="M37.755 286.283h284.758L180.133 39.807z"/><path style="fill:#000;fill-rule:evenodd;stroke:none" d="m128.258 231.667 51.608 28.415-46.636-35.314M103.704 255.392l79.467 7.728-78.366-16.004M141.78 163.794c1.105-1.377 0-.823 3.31-.546.273 4.137.836 1.653 1.938 4.96-.277 0 0 0-.277.554-2.492 1.653-2.492 2.76-5.523 2.76 0-.269-.273-.269-.273-.269-.83-.838-1.66-1.392-2.484-1.66 0 0 0-.278-.277-.555 0-1.107.277-2.76.277-4.414v-.553c.825 0 1.655 0 2.484-.277M119.71 167.385c1.93-2.76.825-1.653 4.409-1.93 0 0 .277 0 .556.277 1.93.823 1.101 0 1.93 2.476-.277.83-.277 1.93-.829 3.314 0 .83 0 1.661-.277 2.484v.277c-.551 0-.551 0-.551.554-1.102 0-1.932 0-3.307.277v-.277c-3.31-3.03-1.658-2.207-4.416-3.868h-.548c.548-.83.548-1.654.548-2.484h.276c.55-.277 1.38-.277 1.654-.823M122.19 186.143c1.381-3.308.276-2.755 3.586-2.755v.276c4.972 1.377 2.76.548 4.145 4.14 1.93 2.206 1.655.82 1.105 3.858-2.768 1.655-2.768 4.969-6.63 3.592-1.652-.284-5.241-2.49-5.516-4.145.275-4.137-.828-2.484 2.76-4.137M120.535 212.357c-.552-.278-.552-.831-.824-1.107v-.553c.824-2.477 0-1.1 4.135-1.931 1.653-1.377.829-.824 3.584-.824 5.25 1.931 5.8 1.102 5.25 6.614.827.831 2.205 2.484.55 4.147-1.379 1.107-5.8 4.412-7.73 3.59-1.654-.83-7.17-2.483-6.345-4.975 2.209-2.484 1.657-1.1 1.657-4.137M93.49 210.697c1.943-2.755.83-1.931 3.596-2.755v.278c.275 0 4.135 0 4.414 1.377 1.652 2.482 3.86 4.413 3.305 7.72-1.93 1.386-.825.838-2.755 1.654-4.964 4.976-3.31 3.869-7.455.56-2.48 0-1.106.279-2.759-1.376-1.38-4.145-1.38-1.937.279-6.076M97.91 236.911c3.035 1.655 1.656.546 3.311 4.132-.276.553-.276.829-.276 1.382-.548 0-.548.286-.548.286 0 2.752 0 4.137-1.93 5.79-1.66 1.1-3.034-.83-4.147-.83-3.31-.555-7.17.83-5.516-4.139.55-1.66 1.38-4.42 2.205-6.62.277-1.108 2.759-1.937 4.14-1.108 1.108.831.284.278 2.487.831M68.11 253.461c1.93-2.476 1.93-3.307 3.585-.546v.546c1.106 0 1.93-.546 2.76-.546 0 2.207 1.653 4.683.824 6.336-1.103 2.762-2.478 1.663-4.687 1.11-2.207 0-3.032 1.928-4.964.828-2.755-1.938 0-4.968 1.653-6.067 0-.554 0-.554.279-.83M207.727 185.319c6.857 0 12.419 5.44 12.419 12.143 0 6.696-5.562 12.135-12.419 12.135-6.849 0-12.42-5.44-12.42-12.135 0-6.704 5.571-12.143 12.42-12.143zm51.596 12.696c-7.443-.277-26.756.822-31.179 1.653v5.515l35.602.83 4.137 7.168-17.661-.278h-22.905v6.629h44.15l3.587 6.345h-26.485l-21.252.554v5.79c11.317 1.1 38.082 2.206 52.431 2.206l7.726 13.244c-20.419.83-49.945-1.1-70.084-3.307v27.861c-6.907 4.415-17.111 4.137-24.562 0l-1.93-32.284c-3.313-2.484-5.243-6.897-5.243-12.41v-36.422c0-9.374 6.346-12.135 10.213-13.788 1.105-4.691 6.067-28.416 7.722-39.458 1.657-11.028 6.893-15.45 10.488-19.31l8.276 14.35c-2.484 2.206-6.895 4.683-8.83 11.027-1.66 6.629-2.487 9.936-3.04 11.866-.826 2.484-1.654 12.135 8.283 12.135 9.655 0 12.695-.823 22.901-.546M139.574 190.28l45.256 71.733-37.802-75.317-7.454 3.584z"/></svg>