<svg xmlns="http://www.w3.org/2000/svg" width="360.268" height="318.2" xml:space="preserve"><path style="fill:#ec1d24;fill-opacity:1;fill-rule:evenodd;stroke:none" d="M23.978 318.1c-8.586 0-16.457-4.522-20.688-11.906-4.253-7.374-4.253-16.48 0-23.875L159.446 11.975A23.766 23.766 0 0 1 180.04.1h.187a23.766 23.766 0 0 1 20.594 11.875l156.157 270.344c4.253 7.396 4.253 16.501 0 23.875-4.231 7.384-12.102 11.906-20.688 11.906z"/><path style="fill:#fff;fill-opacity:1;fill-rule:evenodd;stroke:none" d="M37.755 286.283h284.758L180.133 39.807z"/><path style="fill:#000;fill-rule:nonzero;stroke:none" d="M237.009 195.643c-5.343-3.592-12.605-2.31-16.338 2.918-3.647 5.312-2.367 12.576 2.917 16.338 5.255 3.617 12.52 2.337 16.338-2.918 3.562-5.285 2.282-12.549-2.917-16.338z"/><path style="fill:#000;fill-rule:nonzero;stroke:none" d="M295.942 265.08c-1.892 1.724-4.012 3.105-7.585 3.21-10.014-.105-8.619-10.613-22.173-10.504-13.541-.11-12.148 10.4-22.174 10.503-9.915-.104-8.521-10.612-22.173-10.503-13.443-.11-12.05 10.4-21.881 10.503-10.11-.104-8.714-10.612-22.173-10.503-6.024-.11-9.092 1.906-11.378 4.085v-7.294c3.415-2.942 5.446-6.716 11.378-6.71 9.657-.006 8.798 10.503 22.173 10.503 13.098 0 12.24-10.51 21.881-10.503 9.852-.006 8.993 10.503 22.173 10.503 13.293 0 12.434-10.51 22.174-10.503 9.851-.006 8.982 10.503 22.464 10.503 1.138 0 2.262-.092 3.21-.292l-3.793-7.002c-9.686-.137-8.5-10.378-21.881-10.503-13.541.125-12.148 10.635-22.174 10.503-9.915.132-8.521-10.378-22.173-10.503-13.443.125-12.05 10.635-21.881 10.503-10.11.132-8.714-10.378-22.173-10.503-6.024.125-9.092 2.14-11.378 4.376v-7.294c3.415-2.999 5.446-6.773 11.378-6.71 9.657-.063 8.798 10.447 22.173 10.503 13.098-.056 12.24-10.566 21.881-10.503 9.852-.063 8.993 10.447 22.173 10.503 13.293-.056 12.434-10.566 22.174-10.503 7.689-.063 8.848 6.34 15.462 9.044l-9.044-15.17c-1.622-.685-3.723-1.1-6.418-1.168-13.541.068-12.148 10.578-22.174 10.503-9.915.075-8.521-10.435-22.173-10.503-13.443.068-12.05 10.578-21.881 10.503-10.11.075-8.714-10.435-22.173-10.503-6.024.068-9.092 2.085-11.378 4.377v-59.81h-5.835c3.669-.186 7.22-1.911 9.336-5.251 3.812-5.126 2.53-12.39-2.626-16.046-5.384-3.723-12.647-2.442-16.338 2.917-3.69 5.18-2.41 12.445 2.918 16.046 1.9 1.46 4.135 2.143 6.418 2.334h-43.471L54.955 275.583l111.45-.583v-3.501c3.415-2.885 5.446-6.66 11.378-6.71 9.657.05 8.798 10.56 22.173 10.502 13.098.058 12.24-10.452 21.881-10.503 9.852.05 8.993 10.56 22.173 10.503 13.293.058 12.434-10.452 22.174-10.503 9.851.05 8.982 10.56 22.464 10.503 5.442.058 8.537-1.754 11.087-3.792l-3.793-6.419z"/><path style="fill:#000;fill-rule:nonzero;stroke:none" d="M240.218 214.023c-.338-.308.618-.773.875-1.167 4.196-5.968 2.74-14.22-3.209-18.38-6.025-4.226-14.277-2.77-18.38 3.21-.358.391-.602.781-.875 1.166l-48.14-33.843c.278-.23.576-.614.876-.875 4.153-6.1 2.698-14.352-3.21-18.672-6.067-4.066-14.319-2.61-18.38 3.5-.401.261-.644.652-.875 1.168l-13.13-11.087 10.504-15.17s1.228-2.587 4.96-.876c3.829 1.476 6.07 1.887 10.795.875l20.714-4.084s9.426-2.395 19.84 4.96l21.297 14.879s5.35 2.796 5.252 9.044l-.584 21.881 24.507 22.757s5.084 4.26 1.75 9.044c-3.42 4.861-7.001 9.92-7.001 9.92s-3.485 4.55-7.586 1.75z"/><path style="fill:#fff;fill-rule:nonzero;stroke:none" d="M233.8 200.311c-2.798-2.023-6.64-1.347-8.461 1.459-2.081 2.768-1.404 6.61 1.459 8.46 2.712 2.051 6.552 1.374 8.46-1.458 1.995-2.741 1.317-6.582-1.458-8.46zM164.07 151.297c-2.838-1.864-6.68-1.187-8.752 1.459-1.83 2.928-1.154 6.768 1.75 8.752 2.67 1.92 6.512 1.242 8.462-1.459a6.408 6.408 0 0 0-1.46-8.752zM224.755 148.38l-.583 19.255-27.133-18.964 9.336-13.129 18.38 12.837zM192.663 125.914l-21.59 4.377 23.34 16.63 9.336-13.421-11.086-7.586z"/></svg>