<svg xmlns="http://www.w3.org/2000/svg" width="240.583" height="212.57" xml:space="preserve"><defs><clipPath id="a"><path d="M0 170.12h192.47V.06H0v170.06z"/></clipPath></defs><g clip-path="url(#a)" transform="matrix(1.25 0 0 -1.25 -.005 212.645)"><path d="M179.65 0c7.063 0 12.821 5.762 12.821 12.82 0 2.164-.574 4.465-1.727 6.34l-83.41 144.62c-2.309 4.035-6.629 6.336-11.098 6.336-4.607 0-8.787-2.301-11.091-6.336L1.735 19.16C.435 17 .004 15.269.004 12.82.004 5.762 5.624 0 12.684 0h166.97" style="fill:#ec1d24;fill-rule:evenodd"/></g><path d="M172.3 17H20.03l76.204 131.94L172.3 17" style="fill:#fff;fill-rule:evenodd" transform="matrix(1.25 0 0 -1.25 -.005 212.645)"/><path d="m147.67 48.254-20.027-20.02-21.461 21.461V22.758H91.918v35.148s-1.441 7.492-4.182 10.086L75.205 80.668v20.023h20.024l52.441-52.437" style="fill:#000;fill-rule:evenodd" transform="matrix(1.25 0 0 -1.25 -.005 212.645)"/></svg>