<svg xmlns="http://www.w3.org/2000/svg" width="360.268" height="318.2" xml:space="preserve"><path style="fill:#ec1d24;fill-opacity:1;fill-rule:evenodd;stroke:none" d="M23.978 318.1c-8.586 0-16.457-4.522-20.688-11.906-4.253-7.374-4.253-16.48 0-23.875L159.446 11.975A23.766 23.766 0 0 1 180.04.1h.187a23.766 23.766 0 0 1 20.594 11.875l156.157 270.344c4.253 7.396 4.253 16.501 0 23.875-4.231 7.384-12.102 11.906-20.688 11.906z"/><path style="fill:#fff;fill-opacity:1;fill-rule:evenodd;stroke:none" d="M37.755 286.283h284.758L180.133 39.807z"/><path style="fill:#000;fill-rule:nonzero;stroke:none" d="M238.778 229.185c-32.956.068-37.727.184-41.721 0-5.096-.084-11.164-.209-17.214-.292 6.289-8.679 27.425-12.545 27.425-12.545l-16.922-2.918s-20.913 3.35-25.383 14.88c-14.818-.823-29.825-2.199-40.555-5.252-2.299-.671-7.186-1.368-7.294-5.252.108-3.795 2.087-6.704 19.548-13.712l-16.922-2.918s-21.076 4.457-21.007 16.339c-.068 7.854 8.942 9.047 15.172 11.378 14.006 4.896 33.576 7.992 51.933 9.628 4.12 7.72 14.68 13.354 15.464 13.713 2.53 1.218 12.885 3.779 12.837 11.087.048 5.472-6.448 9.115-10.503 11.962h25.675s5.238-6.356 5.251-12.254c-.013-7.96-8.157-14.812-19.84-19.84-1.862-.874-6.342-1.766-10.211-3.209 5.84.199 11.212.326 15.755.292 11.84.034 60.824-3.225 60.686 14.588.138 6.684-8.124 14.416-12.254 20.423h26.55s3.526-17.06 3.501-21.007c.025-5.398.219-25.023-39.97-25.091z"/><path style="fill:#000;fill-opacity:1;fill-rule:nonzero;stroke:none" d="M160.34 116.746c-3.097-.545-10.924-.246-14.046 8.9l-7.469 21.721s-6.509-.815-7.718 6.114l-3.5 20.054s-.96 3.667 2.44 6.57l-2.721 15.59s1.746 3.754 6.756 4.644c5.032.862 7.56-2.26 7.56-2.26l2.494-14.29s19.938 4.558 28.618 6.025c8.664 1.56 28.967 4.026 28.967 4.026l-2.494 14.29s1.321 3.793 6.347 4.687c5.016.859 7.93-2.082 7.93-2.082l2.721-15.59c4.182-1.58 4.522-5.355 4.522-5.355l3.5-20.054c1.209-6.929-5.191-8.366-5.191-8.366l.33-22.968c.16-9.662-7.102-12.595-10.2-13.13l-24.424-4.263zm15.438 9.959 7.754 1.353 7.754 1.354c1.29.23 14.544 3.514 15.219 3.677 4.012 1.204 8.208 4.462 8.327 10.254l-.178 6.915s.074 6.053-6.09 4.983c-4.868-.855-22.602-5.032-28.705-6.138-6.116-1.027-24.217-3.104-29.086-3.948-6.163-1.081-4.043-6.752-4.043-6.752l2.176-6.566c2.073-5.41 7.124-7.054 11.308-6.827.69.075 14.273 1.475 15.564 1.695z"/></svg>