<?xml version="1.0" encoding="UTF-8" standalone="no"?>
<svg
   width="681"
   height="602.12"
   fill-rule="evenodd"
   version="1.1"
   id="svg12"
   sodipodi:docname="UK_traffic_sign_500.svg"
   inkscape:version="1.1.1 (3bf5ae0d25, 2021-09-20)"
   xmlns:inkscape="http://www.inkscape.org/namespaces/inkscape"
   xmlns:sodipodi="http://sodipodi.sourceforge.net/DTD/sodipodi-0.dtd"
   xmlns="http://www.w3.org/2000/svg"
   xmlns:svg="http://www.w3.org/2000/svg">
  <defs
     id="defs16" />
  <sodipodi:namedview
     id="namedview14"
     pagecolor="#ffffff"
     bordercolor="#111111"
     borderopacity="1"
     inkscape:pageshadow="0"
     inkscape:pageopacity="0"
     inkscape:pagecheckerboard="1"
     showgrid="false"
     inkscape:zoom="0.59705707"
     inkscape:cx="272.16829"
     inkscape:cy="379.36072"
     inkscape:window-width="1920"
     inkscape:window-height="1057"
     inkscape:window-x="-8"
     inkscape:window-y="-8"
     inkscape:window-maximized="1"
     inkscape:current-layer="svg12" />
  <path
     d="M46.019,601.088 7.048,533.588 301.529,23.532 379.471,23.532 673.952,533.588 634.981,601.088"
     fill="#e31017"
     stroke="none"
     id="path2" />
  <circle
     cx="340.5"
     cy="46.032"
     r="45"
     fill="#e31017"
     stroke="none"
     id="circle4" />
  <circle
     cx="634.981"
     cy="556.088"
     r="45"
     fill="#e31017"
     stroke="none"
     id="circle6" />
  <circle
     cx="46.019"
     cy="556.088"
     r="45"
     fill="#e31017"
     stroke="none"
     id="circle8" />
  <path
     d="M72,541.088 340.5,76.032 609,541.088"
     fill="#fff"
     stroke="none"
     id="path10" />
  <path
     d="m 234.20046,345.35836 h -6.58986 v -9.88479 H 208.5 V 521.088 h 19.1106 V 353.92518 h 6.80952 l 34.26728,24.16284 h 5.27189 c 35.89497,-0.0395 43.34592,32.24132 111.58832,32.29032 24.78228,-0.0489 34.71539,-7.4986 48.98465,-7.46852 24.53185,-0.0301 46.78802,12.30108 46.78802,12.30108 L 494.5,374.1341 c 0,0 -33.16677,-26.07608 -88.74348,-26.13979 -3.63979,0.0638 -11.47076,1.20813 -16.25499,1.31797 -47.55683,-0.10988 -22.53293,-36.5935 -115.54224,-36.68357"
     style="fill:#000000;fill-opacity:1;fill-rule:evenodd;stroke:none;stroke-width:0.219662"
     id="path16"
     sodipodi:nodetypes="ccccccccccccccccc" />
  <path
     d="m 235.95776,349.53194 33.38862,23.50384 3.95392,-54.25652 z"
     style="fill:#ffffff;fill-opacity:1;fill-rule:evenodd;stroke:none;stroke-width:0.219662"
     id="path18" />
</svg>
