<svg xmlns="http://www.w3.org/2000/svg" xml:space="preserve" height="600" width="680"><path style="fill:#e31837;fill-rule:evenodd;stroke-width:.9996568;fill-opacity:1" d="M635.029 600c16.276 0 31.025-8.623 39.18-22.868 7.629-13.71 7.629-30.974 0-44.707L378.661 22.29C370.66 8.493 355.9 0 339.923 0a44.741 44.741 0 0 0-38.72 22.29L6.162 532.425c-8.125 13.734-8.125 30.999 0 44.707C14.304 591.377 29.066 600 45.342 600z"/><path style="fill:#fff;fill-rule:evenodd;stroke-width:.9996568" d="M71.292 540.04h537.806L339.93 74.69 71.292 540.04"/><path style="opacity:1;fill:#000;fill-opacity:1;stroke:none;stroke-width:1.91522324;stroke-linecap:square;stroke-linejoin:miter;stroke-miterlimit:4;stroke-dasharray:none;stroke-opacity:1" d="M208.879 341.736 105.934 520.041h468.523L208.879 341.736z"/><path style="fill:#000;fill-rule:evenodd;stroke-width:.9996568" d="m284.966 269.057 13.742 6.098-37.153 75.702-14.744-7.107 25.452-52.332-12.223-6.098 6.095-12.2 2.042 1.016c3.574 1.52 9.673 4.571 16.789-5.078M344.496 314.781c8.137 4.063 13.737 12.715 4.58 32.005-9.658 19.81-19.85 22.346-28.998 17.785-9.16-4.063-13.74-13.709-3.56-33.52 9.656-19.312 19.838-19.823 27.979-16.269m6.622-14.217c11.188 5.083 28.999 21.835 13.23 54.35-16.293 33.037-39.195 29.98-51.39 23.889-11.696-5.594-28.5-21.849-12.208-54.873 15.769-32.507 39.674-28.445 50.368-23.366M412.673 335.624c3.56 2.025 6.113 6.091 2.044 14.73-4.58 9.134-9.16 10.154-13.233 8.115-4.069-2.025-6.608-6.091-2.027-15.24 4.566-8.623 9.659-9.131 13.215-7.604m3.052-6.088c5.089 2.025 13.244 9.643 6.11 24.88-7.63 14.715-18.305 13.71-23.398 10.665-5.615-2.536-13.244-10.168-6.11-24.882 7.643-15.265 18.32-13.212 23.398-10.663M430.996 395.554c3.56 2.042 6.11 5.593 2.042 14.743-4.069 9.149-9.161 10.168-13.245 8.13-4.068-2.025-6.099-6.614-1.518-15.24 4.566-9.146 9.16-9.146 12.72-7.633m3.048-6.584c5.093 2.535 13.23 10.139 6.113 24.882-7.628 15.236-17.81 13.723-23.41 11.187-5.588-2.536-13.216-10.168-6.1-25.405 7.629-14.743 18.832-13.212 23.397-10.665M363.84 401.652l-3.063-1.531 98.72-51.8 9.66 5.068-98.709 51.306-3.048-1.516-3.56-1.527"/></svg>