<svg xmlns="http://www.w3.org/2000/svg" width="900.4" height="900.4" viewBox="-50 -30 90.04 90.04"><path style="fill:#ec1d24;fill-opacity:1;stroke:none" d="M-4.98 60.02c-24.853 0-45-20.147-45-45s20.147-45 45-45 45 20.147 45 45-20.147 45-45 45z"/><path d="M-4.98 51.02c-19.882 0-36-16.118-36-36s16.118-36 36-36 36 16.118 36 36-16.118 36-36 36z" style="fill:#fff;fill-opacity:1;stroke:none"/><path style="fill:#000;fill-rule:nonzero;stroke:none" d="M15.698 11.726c-1.542 0-3.012.306-4.35.868L6.874 4.797l.85-2.338C9.954 2.242 10.76.191 10.76-.157c0-.348-.414-.348-.414-.348H.67c-.216 0-.928.182-.928.945 0 .762.812.894.812.894l4.242.934-1.028 2.827H-16.79l.412-1.535s.176-.574.176-.817c0-1.152-.854-2.013-1.215-2.207-.071-.039-.312-.146-.312-.47 0-.322.188-.593.6-.593h4.285v-2.85h-5.39s-2.828.265-2.828 3.16c0 1.691.84 2.076 1.503 2.473.22.133.42.685.33.995-.051.18-1.367 5.118-2.454 9.198a11.222 11.222 0 0 0-3.974-.723c-6.211 0-11.247 5.035-11.247 11.247 0 6.211 5.036 11.247 11.247 11.247 6.212 0 11.247-5.036 11.247-11.247 0-3.776-1.861-7.118-4.716-9.158l.373-1.39 13.061 9.125a4.71 4.71 0 0 0 5.83 5.939l.698 1.52h-1.2v1.525H.978a1.191 1.191 0 0 0 2.016 0h1.312v-1.525H2.342l-.98-2.085a4.715 4.715 0 0 0 2.03-2.907l1.074.016C5.008 29.74 9.85 34.22 15.698 34.22c6.211 0 11.247-5.036 11.247-11.247 0-6.212-5.036-11.247-11.247-11.247z"/><path style="fill:#fff;fill-opacity:1;fill-rule:nonzero;stroke:none" d="M-1.202 20.02a2.952 2.952 0 1 1 0 5.905 2.952 2.952 0 0 1 0-5.905zM-1.018 18.267a4.7 4.7 0 0 0-1.594.211l-.7-1.486h1.281v-1.525h-1.312a1.19 1.19 0 0 0-2.015 0h-1.345v1.525h2.019l.929 2.023c-.11.071-.218.148-.322.228L-17.979 9.53l.434-1.618h20.29l-3.763 10.355zM8.899 14.013 5.613 8.267 1.635 19.213a4.712 4.712 0 0 1 1.763 2.75h1.098a11.233 11.233 0 0 1 4.403-7.95zM10.55 16.948c-1.462 1.257-2.49 3.01-2.738 5.023h5.632l-2.894-5.023z"/><path style="fill:#fff;fill-opacity:1;fill-rule:nonzero;stroke:none" d="m13.022 15.532 3.935 6.828s.19.315.19.654c0 1.003-1.026 1.003-1.515 1.003l-7.797.015c.525 3.879 3.84 6.884 7.863 6.884a7.944 7.944 0 0 0 0-15.886c-.95 0-1.83.196-2.675.502zM-20.068 17.33l-.685 2.555c-.869 3.226-4.183 4.22-4.86 4.22-.73 0-1.172-.486-1.172-1.17 0-.686.553-.884.752-1.039 2.518-1.966 2.916-4.065 2.916-4.065l.577-2.166a7.944 7.944 0 1 0 2.472 1.665z"/></svg>