<svg width="683" height="604" xmlns="http://www.w3.org/2000/svg"><path style="fill:#e31837;fill-opacity:1;stroke:none;stroke-width:1px;stroke-linecap:butt;stroke-linejoin:miter;stroke-opacity:1" d="m-849.211 874.813 294.448-510h77.943l294.448 510-38.97 67.5H-810.24z" transform="translate(857.291 -340.313)"/><path style="fill:#fff;stroke:none;stroke-width:50;stroke-linecap:square;stop-color:#000" transform="matrix(1.02277 0 0 1.02277 915.892 306.822)" d="M-299.114 229.943H-824.1l262.493-454.65z"/><path style="fill:#e31837;fill-opacity:1;stroke:none;stroke-width:50;stroke-linecap:square;stop-color:#000" transform="rotate(-150 383.052 -285.012)" d="M298.032-593.318a45 45 0 0 1-22.5 38.97 45 45 0 0 1-45 0l22.5-38.97z"/><path style="fill:#e31837;fill-opacity:1;stroke:none;stroke-width:50;stroke-linecap:square;stop-color:#000" transform="rotate(-30 -206.386 -1769.884)" d="M-595.345 666.424a45 45 0 0 1-22.5 38.971 45 45 0 0 1-45 0l22.5-38.97z"/><path style="fill:#e31837;fill-opacity:1;stroke:none;stroke-width:50;stroke-linecap:square;stop-color:#000" transform="scale(-1 1) rotate(-30 -1063.678 1429.571)" d="M298.032 1182.216a45 45 0 0 1-22.5 38.97 45 45 0 0 1-45 0l22.5-38.97z"/><path style="fill:#000;stroke:none;stroke-width:50;stroke-linecap:square;stop-color:#000" d="M57.675 2401.622v14h-10v24h10v66h-10v24h10v24h38v-24h24v24h38v-24h24v24h38v-24h24v24h38v-24h24v24h38v-24h10v-24h-10v-66h10v-24h-10v-14l-19-24-19 24v14h-24v-14l-19-24-19 24v14h-24v-14l-19-24-19 24v14h-24v-14l-19-24-19 24v14h-24v-14l-19-24zm38 38h24v66h-24zm62 0h24v66h-24zm62 0h24v66h-24zm62 0h24v66h-24z" transform="translate(140.825 -2031.622)"/></svg>