<?xml version="1.0" encoding="UTF-8" standalone="no"?>
<svg
   width="681"
   height="602.12"
   fill-rule="evenodd"
   version="1.1"
   id="svg12"
   sodipodi:docname="UK_traffic_sign_500.svg"
   inkscape:version="1.1.1 (3bf5ae0d25, 2021-09-20)"
   xmlns:inkscape="http://www.inkscape.org/namespaces/inkscape"
   xmlns:sodipodi="http://sodipodi.sourceforge.net/DTD/sodipodi-0.dtd"
   xmlns="http://www.w3.org/2000/svg"
   xmlns:svg="http://www.w3.org/2000/svg">
  <defs
     id="defs16" />
  <sodipodi:namedview
     id="namedview14"
     pagecolor="#ffffff"
     bordercolor="#111111"
     borderopacity="1"
     inkscape:pageshadow="0"
     inkscape:pageopacity="0"
     inkscape:pagecheckerboard="1"
     showgrid="false"
     inkscape:zoom="1.1941141"
     inkscape:cx="275.09933"
     inkscape:cy="288.49838"
     inkscape:window-width="1920"
     inkscape:window-height="1057"
     inkscape:window-x="-8"
     inkscape:window-y="-8"
     inkscape:window-maximized="1"
     inkscape:current-layer="svg12" />
  <path
     d="M46.019,601.088 7.048,533.588 301.529,23.532 379.471,23.532 673.952,533.588 634.981,601.088"
     fill="#e31017"
     stroke="none"
     id="path2" />
  <circle
     cx="340.5"
     cy="46.032"
     r="45"
     fill="#e31017"
     stroke="none"
     id="circle4" />
  <circle
     cx="634.981"
     cy="556.088"
     r="45"
     fill="#e31017"
     stroke="none"
     id="circle6" />
  <circle
     cx="46.019"
     cy="556.088"
     r="45"
     fill="#e31017"
     stroke="none"
     id="circle8" />
  <path
     d="M72,541.088 340.5,76.032 609,541.088"
     fill="#fff"
     stroke="none"
     id="path10" />
  <path
     id="path16"
     style="fill:#000000;fill-opacity:1;fill-rule:evenodd;stroke:none;stroke-width:0.220264"
     d="m 353.29688,146.088 c -15.13876,-0.0616 -27.43188,12.23321 -27.53321,27.3125 0.10127,6.38327 2.20673,12.19618 5.72656,16.74023 0.62114,0.80177 3.88669,6.1876 -3.30273,7.04883 -7.16961,0.77093 -27.88966,1.83006 -40.08789,14.53711 -24.88546,25.85903 -41.68425,56.49559 -45.81641,100 -1.54184,0.61013 -6.43671,2.40282 -6.38672,7.70899 -0.0501,5.46254 10.06664,17.04905 24.44922,16.96093 3.45595,0.088 8.29841,-2.15568 8.3711,-7.48828 -0.0727,-2.86564 -0.0745,-4.82415 -0.88282,-7.04883 -0.82379,-2.3436 -1.3115,-8.54425 -1.32031,-18.72265 0.008,-10.38107 10.12323,-33.54898 24.44922,-43.39258 0,0 11.66707,93.20309 -85.46289,180.61719 0,0 15.17326,27.63233 15.63867,28.63476 3.2326,6.39449 9.82847,8.6099 13.2168,9.25 1.57379,0.35199 12.25845,1.49562 12.99414,1.54297 0.73348,0.11514 4.32476,0.76672 4.40625,-1.76367 -0.0814,-2.69141 -1.07714,-3.28203 -1.98242,-3.74414 -2.61894,-1.55307 -6.04666,-2.93326 -7.70899,-9.4707 0,0 -4.26,-16.15173 -4.40625,-18.28125 0,0 46.48459,-29.60704 80.39649,-100.66211 0,0 48.07747,55.31101 67.84179,150.2207 l 52.42383,-22.9082 c 0,0 1.97142,-1.14788 1.98242,-3.08203 -0.0116,-1.73635 -2.09367,-2.59497 -3.52539,-2.86524 -1.25992,-0.21938 -30.38438,-3.15429 -30.83593,-3.08203 -0.28193,-0.0722 -1.75267,-0.31897 -1.76368,-1.76367 0.0116,-20.71079 -8.2629,-54.98205 -14.97656,-74.22852 -1.53084,-4.11235 -3.0014,-8.27357 -4.62695,-11.01367 -22.94714,-35.87664 -30.94562,-62.2922 -19.82227,-105.50586 0,0 20.83912,48.28335 76.43164,53.52344 0,0 1.79946,2.47009 4.84571,2.42383 7.11013,0.0463 9.43546,-18.9835 9.4707,-21.14649 -0.0352,-5.42511 -4.80825,-5.66707 -4.8457,-5.72656 -0.94273,0.0595 -2.90033,-0.12421 -4.625,2.64453 0,0 -42.06397,-12.09919 -53.96485,-53.96484 -4.95154,-17.11673 -15.27393,-32.50202 -26.87304,-42.07031 -1.9163,-1.69383 -6.39589,-6.08193 5.9e-4,-9.03126 9.32598,-4.39208 15.58963,-13.92586 15.63808,-24.89062 -0.0484,-15.07929 -12.34157,-27.37418 -27.5332,-27.3125 z"
     sodipodi:nodetypes="cccccccccccccccccccccccccccccccccccccccc" />
  <path
     id="rect184"
     style="fill:#000000;fill-rule:evenodd;stroke:none;stroke-width:4.66436"
     d="m 159.25,436.088 v 10 h 25 v -10 z m 75,0 v 10 h 25 v -10 z m 37.5,0 v 10 h 25 v -10 z m 37.5,0 v 10 h 25 v -10 z m 37.5,0 v 10 h 25 v -10 z m 75,0 v 10 h 25 v -10 z m 37.5,0 v 10 h 25 v -10 z m 37.5,0 v 10 h 25 v -10 z m -375,80 v 10 h 25 v -10 z m 37.5,0 v 10 h 25 v -10 z m 37.5,0 v 10 h 25 v -10 z m 37.5,0 v 10 h 25 v -10 z m 37.5,0 v 10 h 25 v -10 z m 37.5,0 v 10 h 25 v -10 z m 37.5,0 v 10 h 25 v -10 z m 37.5,0 v 10 h 25 v -10 z m 37.5,0 v 10 h 25 v -10 z m 37.5,0 v 10 h 25 v -10 z m 37.5,0 v 10 h 25 v -10 z m 37.5,0 v 10 h 25 v -10 z" />
</svg>
