<svg width="681" height="602.12" fill-rule="evenodd" xmlns="http://www.w3.org/2000/svg"><path d="m46.019 601.088-38.971-67.5L301.529 23.532h77.942l294.481 510.056-38.971 67.5" fill="#e31017"/><circle cx="340.5" cy="46.032" r="45" fill="#e31017"/><circle cx="634.981" cy="556.088" r="45" fill="#e31017"/><circle cx="46.019" cy="556.088" r="45" fill="#e31017"/><path d="M72 541.088 340.5 76.032 609 541.088" fill="#fff"/><path d="m421.76 521.088-1.972-8.102s-3.657-13.237-8.759-21.46c-3.035-5.144-5.912-7.227-5.912-7.227s-2.617-2.487-3.066-3.285c-.508-.876-2.42-2.91-3.066-3.285-.79-.341-20.147-20.584-20.147-20.584s-1.45-1.76-2.19-2.19c-.696-.526-3.087-3.277-3.503-3.942-.3-.531-1.855-1.607-2.409-2.19-.642-.613-2.196-2.765-2.628-3.723-.525-.956-6.983-9.326-10.511-12.044.725-3.897 8.313-17.85-11.387-36.351 0 0-6.802-17.692-7.446-24.745-.12-1.358-.718-4.227-1.095-4.818-.339-.604-1.537-4.67-1.314-5.694.257-1.13-.341-3.52-.875-4.38-.662-.814-8.436-19.47-8.54-20.365-.134-.777-.253-1.975-.658-2.628-.552-.543-1.868-4.01-1.97-5.912-.137-1.925-.855-6.11-1.753-7.227-1.013-1.274-2.45-6.177-1.532-9.854.757-3.736 1.832-13.303 1.751-14.672.081-1.502-1.592-9.153-1.751-9.854-.32-.497-5.223-16.52-5.475-17.957-.226-1.432-2.617-7.41-3.504-8.54-1.027-1.264-3.418-5.449-3.941-6.57-.434-1.27-2.228-4.38-3.504-5.912-1.115-1.577-6.138-7.674-7.884-11.825-2.165-5.355-4.863-14.088-4.598-19.49.127-2.429-1.883-13.174-1.883-13.174l-183.597 318M478.022 412.927c-1.531-.054-2.857-.007-3.707.201-1.846.36-7.44 1.878-8.54 1.752-1.134-.192-3.046.446-5.036 1.096-1.838.625-5.026 2.38-5.694 3.722-.606 1.208-6.667 8.7-8.103 9.854-1.435 1.08-2.87 2.514-3.504 3.504-.642.924-1.279 2.04-1.97 3.066-3.312 4.981-5.027 7.17-6.788 15.987-.333 1.642-.174 4.511-.877 5.912-.571 1.47.002 7.381 1.533 10.949.447 1.044 3.795 8.537 11.387 14.453 7.395 5.883 20.15 14.651 22.117 15.766 5.646 2.984 7.72 3.955 15.987 2.191 5.65-1.166 6.606-1.876 12.7-1.314 2.565.13 8.9 1.865 11.606-1.971 1.106-1.614 4.934-6.079 8.76-8.979 3.828-2.84 5.103-4.753 6.789-7.226 4.384-6.63 6.289-7.822 5.912-17.08-.265-2.927-1.22-11.378-1.314-12.483.094-1.127-.701-5.75-1.75-7.226-.865-1.394-3.738-8.25-4.162-9.635-.533-1.166-3.082-4.995-3.504-5.695-.6-1.344-5.983-7.683-9.198-8.758-2.179-.584-4.41-1.702-4.816-2.41-.232-.886-.87-1.524-2.191-1.752-1.231-.09-7.767-2.482-9.416-2.19-1.542.345-2.976.027-4.16-.218-1.024-.295-7.468-1.356-12.061-1.516zM404.94 432.71c-.931.022-1.89.337-2.67 1.223-1.723 2.12-5.548 5.946-6.131 7.883-.694 1.89-2.29 6.992-.22 10.73 4.086 7.625 7.455 10.888 13.359 10.072 2.11-.418 4.344-1.054 5.474-.875 1.102.139 3.811-.659 5.035-1.533 1.008-1.04 5.314-4.227 6.133-6.13.776-1.923 1.252-4.634-.877-6.571-2.017-1.89-5.045-6.514-5.693-7.445-.629-.982-1.105-2.895-2.627-3.285-1.666-.568-8.76-3.286-8.76-3.286-.674-.354-1.826-.81-3.023-.783z" style="fill:#000;fill-opacity:1;fill-rule:evenodd;stroke:none;stroke-width:.218983"/><path style="fill:#000;fill-opacity:1;fill-rule:evenodd;stroke:none;stroke-width:.218983" d="M380.137 376.993c-2.371.072-6.564.67-7.869 1.536-1.377.921-2.173 1.24-2.846 3.722-.604 2.302-2.198 8.202-2.408 9.637-.427 1.435-1.703 4.305-.22 7.226 1.385 3.138 7.605 10.153 8.76 10.731 1.076.699 3.629 2.452 6.35.437 2.699-1.811 6.047-3.726 7.227-4.38 1.483-.867 7.478-6.553 5.912-12.48-1.033-3.606-2.15-9.824-4.379-11.827-2.233-2.144-5.743-4.694-9.636-4.598-.251-.012-.552-.014-.89-.004zM467.46 359.292c-.588.013-1.22.072-1.903.186-9.046 1.649-18.294 4.899-23.432 10.511-1.399 1.652-3.311 5-3.066 7.883.072 2.855-.407 3.493 0 5.475.232 1.844.232 5.672.219 6.789.013 1.115-.147 5.101 3.285 7.008 3.582 1.92 5.15 2.588 6.35 3.722 3.035 2.395 3.535 2.81 7.666 3.504 2.163.274 13.961 1.07 15.328.875 1.504-.124 4.532-.602 5.912-3.066 1.171-2.32 3.404-4.71 4.162-5.475.836-.83 4.824-6.729 3.941-10.29-1.031-3.773-2.946-11.108-3.066-12.264-.197-1.076-.676-3.309-2.19-4.16-1.355-1.06-5.341-3.931-6.789-7.446-.477-1.184-2.307-3.342-6.418-3.252zM378.881 292.134c-.349-.028-.719.069-1.138.334-1.113.887-3.504 2.003-3.723 2.629-.418.648-1.215 1.607-1.97 2.19-.842.372-2.913 1.488-3.505 2.408-.683.994-1.958 2.588-3.064 3.285-1.126.898-2.722 2.332-3.504 3.504-.812 1.062-2.087 2.816-3.285 3.504-1.034.906-1.194 2.02-1.97 3.064-.818.87-2.094 2.625-3.724 4.38-1.559 1.753-4.11 6.535-2.408 11.388 1.487 5.032 4.357 13.483 4.598 15.548.396 2.08 1.674 7.023 2.629 9.198.959 1.97 1.755 7.87 6.568 10.73 7.288 4.402 23.952 15.985 33.067 2.627 4.465-6.613 5.749-8.48 10.293-11.387 2.21-1.434 11.137-7.813 12.482-9.197 1.207-1.485 2.162-2.283 1.094-4.6-1.163-2.148-4.671-8.844-5.475-12.92a3950.582 3950.582 0 0 0-4.16-21.46c.022-.614-.459-1.21-1.096-1.752-.797-.414-6.296-3.405-7.224-4.16-.986-.918-8.16-3.907-10.73-3.942-2.692.035-3.65-.324-4.82-.219-1.219-.105-2.894-.106-3.94-1.095-.868-.922-2.423-2.198-3.286-3.065-.603-.547-1.127-.945-1.709-.992zM333.756 299.802c-.516.016-.978.074-1.342.111-.943-.1-.826.137-1.314 1.096-.707.955-2.74 5.38-3.066 6.13-.392.923-1.108 2.836-.22 3.942 1.026 1.047 4.016 4.037 4.382 4.819.35.89.95 2.926 2.408 1.533 1.649-1.24 4.398-3.39 4.816-4.16.539-.666 1.376-2.82 1.315-4.162.061-1.288-.177-6.428-.219-7.006-.197-.38-.438-1.693-1.97-1.533-.491.175-.618.438-1.971-.22-.949-.486-1.958-.577-2.819-.55zM337.235 257.763c-.343-.01-.762.028-1.317.105-2.056.21-5.644 2.723-6.57 3.504-.628.771-1.585 1.608-1.752 3.067-.31 1.65-1.627 8.108-1.533 9.853-.094 1.842.862 5.43 2.19 6.57 1.302 1.251 3.815 4.004 4.38 5.038.63.878 3.381 2.791 5.694.656 2.47-1.932 5.458-5.397 6.35-6.131.783-.942 1.741-1.78 2.41-2.629.527-1.064 1.125-1.9 1.97-2.846.828-.727 1.785-2.88 1.97-3.722.053-.832.053-2.508-.218-3.504-.447-.916-.565-2.35-1.533-2.848-1.185-.46-4.892-3.33-5.694-4.379-.632-.865-1.709-1.463-2.41-1.533-.843-.239-1.81-.286-2.627-.656-.386-.367-.74-.527-1.31-.545zM320.616 238.657c-.676-.013-1.407.131-1.78.598-1.025 1.196-1.118 1.962-3.941 1.97-2.212-.007-5.19-.605-5.475 1.315-.431 1.908-.312 4.777 1.096 6.79 1.224 2.051 2.537 4.084 3.064 5.034.668.964 1.029 1.681 2.41 2.41 1.251.947 4.478 2.978 6.35 2.19 1.956-.885 3.989-2.32 4.6-3.066.585-.929 1.303-1.408 1.752-1.971.506-.392 2.418-4.935 1.531-6.35-.786-1.456-3.777-6.48-4.16-6.789-.732-.806-.93-1.723-1.97-1.533-.875.05-1.71-.19-2.409-.437a4.027 4.027 0 0 0-1.068-.16z"/></svg>