<svg xmlns="http://www.w3.org/2000/svg" width="360.268" height="318.2" xml:space="preserve"><path style="fill:#ec1d24;fill-opacity:1;fill-rule:evenodd;stroke:none" d="M23.978 318.1c-8.586 0-16.457-4.522-20.688-11.906-4.253-7.374-4.253-16.48 0-23.875L159.446 11.975A23.766 23.766 0 0 1 180.04.1h.187a23.766 23.766 0 0 1 20.594 11.875l156.157 270.344c4.253 7.396 4.253 16.501 0 23.875-4.231 7.384-12.102 11.906-20.688 11.906z"/><path style="fill:#fff;fill-opacity:1;fill-rule:evenodd;stroke:none" d="M37.755 286.283h284.758L180.133 39.807z"/><path style="fill:#000;fill-rule:nonzero;stroke:none" d="M142.475 276.083v-66.23c-.049-14.523 8.216-27.085 20.423-33.26l49.891-18.381 10.212-22.174-22.174-10.503-51.35 18.964c-24.62 11.424-41.71 36.377-41.722 65.355v66.23h34.72z"/></svg>