<?xml version="1.0" encoding="UTF-8" standalone="no"?>
<svg
   width="681"
   height="602.12"
   fill-rule="evenodd"
   version="1.1"
   id="svg12"
   sodipodi:docname="7777.svg"
   inkscape:version="1.1.1 (3bf5ae0d25, 2021-09-20)"
   xmlns:inkscape="http://www.inkscape.org/namespaces/inkscape"
   xmlns:sodipodi="http://sodipodi.sourceforge.net/DTD/sodipodi-0.dtd"
   xmlns="http://www.w3.org/2000/svg"
   xmlns:svg="http://www.w3.org/2000/svg">
  <defs
     id="defs16" />
  <sodipodi:namedview
     id="namedview14"
     pagecolor="#ffffff"
     bordercolor="#111111"
     borderopacity="1"
     inkscape:pageshadow="0"
     inkscape:pageopacity="0"
     inkscape:pagecheckerboard="1"
     showgrid="false"
     inkscape:zoom="1.1941141"
     inkscape:cx="262.53772"
     inkscape:cy="301.06"
     inkscape:window-width="1920"
     inkscape:window-height="1057"
     inkscape:window-x="-8"
     inkscape:window-y="-8"
     inkscape:window-maximized="1"
     inkscape:current-layer="svg12" />
  <path
     d="M46.019,601.088 7.048,533.588 301.529,23.532 379.471,23.532 673.952,533.588 634.981,601.088"
     fill="#e31017"
     stroke="none"
     id="path2" />
  <circle
     cx="340.5"
     cy="46.032"
     r="45"
     fill="#e31017"
     stroke="none"
     id="circle4" />
  <circle
     cx="634.981"
     cy="556.088"
     r="45"
     fill="#e31017"
     stroke="none"
     id="circle6" />
  <circle
     cx="46.019"
     cy="556.088"
     r="45"
     fill="#e31017"
     stroke="none"
     id="circle8" />
  <path
     d="M72,541.088 340.5,76.032 609,541.088"
     fill="#fff"
     stroke="none"
     id="path10" />
  <path
     d="m 421.75931,521.088 -1.97086,-8.10243 c 0,0 -3.65703,-13.2365 -8.75936,-21.46044 -3.03512,-5.1435 -5.91257,-7.22649 -5.91257,-7.22649 0,0 -2.61686,-2.48655 -3.06577,-3.28475 -0.50806,-0.87594 -2.41979,-2.9092 -3.06579,-3.28477 -0.79053,-0.3414 -20.14656,-20.58451 -20.14656,-20.58451 0,0 -1.44966,-1.75955 -2.18983,-2.18986 -0.69637,-0.52597 -3.08768,-3.27709 -3.50376,-3.94172 -0.3,-0.53123 -1.85479,-1.60732 -2.40882,-2.18983 -0.64162,-0.61338 -2.1964,-2.76556 -2.62781,-3.72273 -0.52555,-0.95629 -6.98341,-9.32653 -10.51124,-12.04413 0.72483,-3.89726 8.31264,-17.85072 -11.38718,-36.35138 0,0 -6.80166,-17.69174 -7.44547,-24.74523 -0.12038,-1.3577 -0.71826,-4.22638 -1.09491,-4.81764 -0.33943,-0.60441 -1.53727,-4.67093 -1.3139,-5.6936 0.2562,-1.12995 -0.34163,-3.52126 -0.87595,-4.37969 -0.66132,-0.81462 -8.43527,-19.46986 -8.54039,-20.36553 -0.13352,-0.7774 -0.25182,-1.97523 -0.65696,-2.62782 -0.55184,-0.54307 -1.86793,-4.0096 -1.97085,-5.91257 -0.13583,-1.92488 -0.85403,-6.10967 -1.75186,-7.22648 -1.01391,-1.27449 -2.45044,-6.17754 -1.53291,-9.85428 0.7577,-3.73586 1.83291,-13.3033 1.75189,-14.67195 0.081,-1.50224 -1.59202,-9.15354 -1.75189,-9.85429 -0.31971,-0.4971 -5.22277,-16.52016 -5.4746,-17.9567 -0.22554,-1.43216 -2.61684,-7.41043 -3.50373,-8.54039 -1.02705,-1.26352 -3.41836,-5.44831 -3.94172,-6.56953 -0.4336,-1.2701 -2.22707,-4.37968 -3.50376,-5.91257 -1.11462,-1.57669 -6.13812,-7.67321 -7.88344,-11.82514 -2.16574,-5.35416 -4.86363,-14.08726 -4.59866,-19.4896 C 292.2476,213.83342 290.238,203.088 290.238,203.088 l -183.597,318"
     style="fill:#000000;fill-opacity:1;fill-rule:evenodd;stroke:none;stroke-width:0.218983"
     id="path16"
     sodipodi:nodetypes="cccccccccccccccccccccccccccccccc" />
  <path
     id="path18"
     style="fill:#000000;fill-opacity:1;fill-rule:evenodd;stroke:none;stroke-width:0.218983"
     d="m 478.02186,412.92698 c -1.53097,-0.0535 -2.85682,-0.007 -3.70703,0.20118 -1.84604,0.36023 -7.43975,1.87766 -8.53906,1.75195 -1.13433,-0.19249 -3.04654,0.44554 -5.03711,1.0957 -1.83728,0.62521 -5.02547,2.37962 -5.69336,3.72266 -0.60662,1.2079 -6.667,8.70032 -8.10352,9.85351 -1.43436,1.07958 -2.86885,2.51409 -3.5039,3.50391 -0.6416,0.9239 -1.27871,2.04068 -1.97071,3.06641 -3.31105,4.98103 -5.02648,7.17046 -6.78711,15.98632 -0.33285,1.64239 -0.174,4.5117 -0.87695,5.91211 -0.57154,1.46961 0.002,7.38131 1.5332,10.94922 0.44672,1.04367 3.79456,8.53704 11.38672,14.45313 7.3951,5.88256 20.15072,14.65099 22.11719,15.76562 5.64541,2.98453 7.71968,3.95531 15.98633,2.19141 5.64979,-1.16589 6.60683,-1.87639 12.70117,-1.31445 2.5643,0.13088 8.89883,1.86501 11.60547,-1.97071 1.10589,-1.61414 4.93408,-6.07872 8.75976,-8.97851 3.82782,-2.84 5.10289,-4.75357 6.78907,-7.22656 4.38406,-6.6293 6.28874,-7.82207 5.9121,-17.08008 -0.26497,-2.92714 -1.22029,-11.37809 -1.31445,-12.48242 0.0941,-1.12734 -0.70106,-5.75107 -1.75,-7.22657 -0.86496,-1.39427 -3.73728,-8.24991 -4.16211,-9.63476 -0.53212,-1.16588 -3.08127,-4.99479 -3.5039,-5.69532 -0.60003,-1.34391 -5.98259,-7.6826 -9.19727,-8.75781 -2.1789,-0.58425 -4.41128,-1.70195 -4.81641,-2.41015 -0.23212,-0.88623 -0.87092,-1.52356 -2.1914,-1.75196 -1.23068,-0.0907 -7.76707,-2.48202 -9.41602,-2.18945 -1.54165,0.34468 -2.97543,0.0266 -4.16015,-0.21875 -1.0232,-0.29448 -7.46763,-1.35516 -12.06055,-1.51563 z" />
  <path
     id="path20"
     style="fill:#000000;fill-opacity:1;fill-rule:evenodd;stroke:none;stroke-width:0.218983"
     d="m 404.93983,432.71019 c -0.93114,0.0216 -1.88911,0.33683 -2.66992,1.22265 -1.7234,2.12065 -5.54837,5.94612 -6.13086,7.88282 -0.6942,1.8905 -2.29011,6.99241 -0.22071,10.73046 4.08624,7.62502 7.45556,10.88755 13.35938,10.07227 2.111,-0.41827 4.34466,-1.05459 5.47461,-0.875 1.1015,0.1386 3.81104,-0.65901 5.03515,-1.5332 1.00734,-1.03929 5.31381,-4.2268 6.13282,-6.13086 0.77521,-1.92201 1.25158,-4.63362 -0.87696,-6.57031 -2.01684,-1.8905 -5.04519,-6.51376 -5.69336,-7.44532 -0.62849,-0.98192 -1.105,-2.89515 -2.62695,-3.28515 -1.66646,-0.56719 -8.75976,-3.28516 -8.75976,-3.28516 -0.67379,-0.35465 -1.82627,-0.81093 -3.02344,-0.7832 z" />
  <path
     id="path22"
     style="fill:#000000;fill-opacity:1;fill-rule:evenodd;stroke:none;stroke-width:0.218983"
     d="m 380.13709,376.99339 c -2.3714,0.0714 -6.56427,0.66907 -7.86914,1.53516 -1.3774,0.92192 -2.17342,1.24111 -2.8457,3.72265 -0.6044,2.30196 -2.19797,8.20216 -2.4082,9.63672 -0.42702,1.43544 -1.70324,4.30533 -0.22071,7.22656 1.38616,3.13761 7.60574,10.15301 8.75977,10.73047 1.07737,0.69881 3.62959,2.45195 6.35156,0.4375 2.69789,-1.81165 6.04623,-3.72653 7.22656,-4.38086 1.48253,-0.86652 7.47785,-6.55256 5.91211,-12.48047 -1.03359,-3.60469 -2.14964,-9.82357 -4.3789,-11.82617 -2.23363,-2.14387 -5.74318,-4.694 -9.63672,-4.59765 -0.25074,-0.012 -0.55185,-0.0141 -0.89063,-0.004 z" />
  <path
     id="path24"
     style="fill:#000000;fill-opacity:1;fill-rule:evenodd;stroke:none;stroke-width:0.218983"
     d="m 467.45936,359.29222 c -0.58719,0.0129 -1.21939,0.0714 -1.90234,0.18555 -9.04625,1.64895 -18.29426,4.89914 -23.43164,10.51171 -1.39932,1.65112 -3.31167,4.99879 -3.06641,7.88282 0.0722,2.85445 -0.4073,3.49258 0,5.47461 0.23213,1.84429 0.2319,5.6718 0.21875,6.78906 0.0132,1.11462 -0.14627,5.10112 3.28516,7.00781 3.58258,1.91962 5.14955,2.58832 6.3496,3.72266 3.03513,2.39437 3.536,2.80929 7.66602,3.5039 2.16358,0.27374 13.96167,1.0701 15.32812,0.875 1.50442,-0.12401 4.53251,-0.60282 5.91211,-3.0664 1.17157,-2.31991 3.40443,-4.71079 4.16211,-5.47461 0.83652,-0.83062 4.82393,-6.72903 3.94141,-10.29102 -1.03141,-3.77244 -2.94596,-11.10742 -3.06641,-12.26367 -0.19709,-1.0752 -0.67626,-3.3083 -2.18945,-4.16016 -1.3555,-1.05987 -5.34158,-3.93062 -6.78906,-7.44531 -0.47711,-1.18416 -2.30767,-3.34264 -6.41797,-3.25195 z" />
  <path
     id="path26"
     style="fill:#000000;fill-opacity:1;fill-rule:evenodd;stroke:none;stroke-width:0.218983"
     d="m 378.88123,292.13402 c -0.34879,-0.0284 -0.71904,0.0687 -1.13867,0.33398 -1.11246,0.88689 -3.50368,2.00262 -3.72265,2.62891 -0.41825,0.64822 -1.21522,1.60696 -1.97071,2.18945 -0.8409,0.37228 -2.91265,1.48847 -3.5039,2.4082 -0.68323,0.99419 -1.95859,2.58878 -3.06446,3.28516 -1.12558,0.89784 -2.72213,2.33235 -3.5039,3.5039 -0.81244,1.06208 -2.08733,2.81629 -3.28516,3.50391 -1.03362,0.90659 -1.19334,2.01989 -1.9707,3.06445 -0.81683,0.86939 -2.09341,2.6246 -3.72266,4.38086 -1.55916,1.75186 -4.1097,6.53404 -2.4082,11.38672 1.48692,5.03226 4.35679,13.48381 4.59766,15.54883 0.39635,2.08035 1.67413,7.02276 2.6289,9.19727 0.95915,1.97085 1.75511,7.87053 6.56836,10.73046 7.28781,4.40159 23.95228,15.98501 33.06641,2.62696 4.46508,-6.61331 5.74905,-8.4808 10.29297,-11.38672 2.20955,-1.43434 11.13786,-7.81328 12.48242,-9.19727 1.20662,-1.48471 2.16238,-2.28275 1.09375,-4.59961 -1.16282,-2.14824 -4.67094,-8.84461 -5.47461,-12.91992 -1.05551,-5.58628 -4.13824,-21.41059 -4.16016,-21.46094 0.0218,-0.61317 -0.45846,-1.20886 -1.0957,-1.75195 -0.7971,-0.4139 -6.29611,-3.40468 -7.22461,-4.16015 -0.98542,-0.91757 -8.15957,-3.90637 -10.73047,-3.94141 -2.69129,0.035 -3.64898,-0.32386 -4.81836,-0.21875 -1.21974,-0.10511 -2.89466,-0.1059 -3.9414,-1.0957 -0.86717,-0.92194 -2.42237,-2.19728 -3.28516,-3.06446 -0.60358,-0.54746 -1.12765,-0.94481 -1.70899,-0.99218 z" />
  <path
     id="path28"
     style="fill:#000000;fill-opacity:1;fill-rule:evenodd;stroke:none;stroke-width:0.218983"
     d="m 333.75623,299.80198 c -0.51622,0.016 -0.97801,0.0736 -1.34179,0.11133 -0.94383,-0.10068 -0.82614,0.1366 -1.31446,1.09571 -0.70733,0.95475 -2.74011,5.37974 -3.0664,6.13086 -0.39199,0.92192 -1.10784,2.83554 -0.21875,3.9414 1.02484,1.04675 4.01517,4.03659 4.38086,4.81836 0.35039,0.89126 0.94977,2.92592 2.4082,1.5332 1.64895,-1.23947 4.39816,-3.38933 4.81641,-4.16015 0.53869,-0.66572 1.37577,-2.81974 1.31445,-4.16211 0.0613,-1.28763 -0.17715,-6.42774 -0.21875,-7.00586 -0.19708,-0.37884 -0.43783,-1.69305 -1.9707,-1.5332 -0.49054,0.1752 -0.6174,0.43821 -1.97071,-0.21875 -0.94846,-0.48727 -1.95798,-0.57744 -2.81836,-0.55079 z" />
  <path
     id="path30"
     style="fill:#000000;fill-opacity:1;fill-rule:evenodd;stroke:none;stroke-width:0.218983"
     d="m 337.23475,257.76292 c -0.34263,-0.0108 -0.7621,0.0283 -1.31641,0.10547 -2.05626,0.21021 -5.644,2.72214 -6.57031,3.50391 -0.62849,0.77083 -1.58549,1.60797 -1.75195,3.0664 -0.31095,1.65114 -1.62736,8.10822 -1.5332,9.85352 -0.0941,1.84167 0.86239,5.42942 2.18945,6.57031 1.30295,1.25042 3.81587,4.00352 4.38086,5.03711 0.63067,0.87814 3.38089,2.79135 5.69336,0.65625 2.47014,-1.93143 5.45834,-5.39727 6.34961,-6.13086 0.78397,-0.94164 1.74224,-1.77926 2.41015,-2.62891 0.52774,-1.06427 1.12545,-1.89968 1.97071,-2.8457 0.82778,-0.72701 1.78456,-2.87957 1.9707,-3.72265 0.0525,-0.83215 0.0527,-2.50754 -0.21875,-3.50391 -0.44671,-0.91537 -0.56527,-2.35057 -1.5332,-2.84766 -1.1847,-0.45988 -4.89189,-3.32998 -5.69336,-4.3789 -0.63287,-0.865 -1.70941,-1.46314 -2.41016,-1.53321 -0.84308,-0.2387 -1.81014,-0.28616 -2.62695,-0.65625 -0.38597,-0.36679 -0.7395,-0.52692 -1.31055,-0.54492 z" />
  <path
     id="path32"
     style="fill:#000000;fill-opacity:1;fill-rule:evenodd;stroke:none;stroke-width:0.218983"
     d="m 320.61561,238.65745 c -0.67594,-0.0136 -1.40702,0.13096 -1.7793,0.59766 -1.02485,1.19566 -1.11866,1.96194 -3.9414,1.9707 -2.21174,-0.008 -5.18993,-0.60604 -5.47461,1.31446 -0.4314,1.90735 -0.31236,4.77658 1.0957,6.78906 1.22414,2.05188 2.5367,4.08477 3.06445,5.03515 0.66792,0.96353 1.02836,1.68094 2.41016,2.41016 1.25039,0.94601 4.47729,2.9778 6.34961,2.18945 1.95553,-0.88468 3.98865,-2.31967 4.59961,-3.0664 0.58468,-0.92851 1.30303,-1.40794 1.75195,-1.97071 0.50585,-0.39199 2.41812,-4.93498 1.53125,-6.3496 -0.78616,-1.45626 -3.77693,-6.48031 -4.16015,-6.78907 -0.7314,-0.80587 -0.93054,-1.72372 -1.97071,-1.5332 -0.87374,0.0504 -1.70963,-0.19005 -2.4082,-0.4375 -0.27592,-0.0862 -0.6628,-0.152 -1.06836,-0.16016 z" />
</svg>
