<svg xmlns="http://www.w3.org/2000/svg" width="360.268" height="318.2" xml:space="preserve"><path style="fill:#ec1d24;fill-opacity:1;fill-rule:evenodd;stroke:none" d="M23.978 318.1c-8.586 0-16.457-4.522-20.688-11.906-4.253-7.374-4.253-16.48 0-23.875L159.446 11.975A23.766 23.766 0 0 1 180.04.1h.187a23.766 23.766 0 0 1 20.594 11.875L356.978 282.32c4.253 7.396 4.253 16.501 0 23.875-4.231 7.384-12.102 11.906-20.688 11.906z"/><path style="fill:#fff;fill-opacity:1;fill-rule:evenodd;stroke:none" d="M322.513 286.283H37.755L180.134 39.807z"/><path style="fill:#000;fill-rule:nonzero;stroke:none" d="M205.955 202.544c2.076 3.378 3.266 7.11 3.21 11.379v61.56h23.924v-61.56c-.1-8.669-2.575-16.815-7.002-23.633L215 175.41a21.349 21.349 0 0 1-3.21-11.086v-53.1h-23.632v52.808c-.087 8.855 2.385 17.001 6.71 23.924l11.087 14.588z"/><path style="fill:#000;fill-opacity:1;stroke:none" d="M172.113 111.223h-23.924v164.26h23.924z"/></svg>