<?xml version="1.0"?>
<svg xmlns="http://www.w3.org/2000/svg" width="681" height="602.12" fill-rule="evenodd">
<path d="M46.019,601.088 7.048,533.588 301.529,23.532 379.471,23.532 673.952,533.588 634.981,601.088" fill="#e31017" stroke="none"/>
<circle cx="340.5" cy="46.032" r="45" fill="#e31017" stroke="none"/>
<circle cx="634.981" cy="556.088" r="45" fill="#e31017" stroke="none"/>
<circle cx="46.019" cy="556.088" r="45" fill="#e31017" stroke="none"/>
<path d="M72,541.088 340.5,76.032 609,541.088" fill="#fff" stroke="none"/>
<path d="M236.5,344.421 414.833,344.421 381.5,311.088 431.5,311.088 481.5,361.088 431.5,411.088 381.5,411.088 414.833,377.755 236.5,377.755" fill="#000" stroke="none"/>
<path d="M381.5,454.421 203.167,454.421 236.5,421.088 186.5,421.088 136.5,471.088 186.5,521.088 236.5,521.088 203.167,487.755 381.5,487.755" fill="#000" stroke="none"/>
</svg>