<svg xmlns="http://www.w3.org/2000/svg" width="900.4" height="900.4" viewBox="-50 -30 90.04 90.04"><path style="fill:#ec1d24;fill-opacity:1;stroke:none" d="M-4.98 60.02c-24.853 0-45-20.147-45-45s20.147-45 45-45 45 20.147 45 45-20.147 45-45 45z"/><path d="M-4.98 51.02c-19.882 0-36-16.118-36-36s16.118-36 36-36 36 16.118 36 36-16.118 36-36 36z" style="fill:#fff;fill-opacity:1;stroke:none"/><path d="M10.775-4.479a7.572 7.572 0 0 1 4.702 6.93H14.24c.015 3.566-2.85 6.432-6.352 6.434a6.36 6.36 0 0 1-5.609-3.3H-8.857s-3.101.202-3.134-3.135c.033-2.168-.972-4.134-2.558-5.444l-.33.578c1.367 1.194 2.243 2.944 2.228 4.866.016 3.567-2.85 6.433-6.352 6.435a6.418 6.418 0 0 1-6.434-6.435c0-3.503 2.866-6.368 6.434-6.351a5.616 5.616 0 0 1 2.227.412l.33-.577a5.725 5.725 0 0 0-2.557-.495c-.107-.035-.18-.034-.247 0v-2.64h1.567s3.018.126 4.702-2.722c.506-.917 2.722-4.454 2.722-4.454s.15-.276.33-.248c.14.1.12.257.082.33l-1.237 5.692c-.026.153-.146.68.247.907.421.276.828-.059.908-.165l1.897-1.402 1.65-2.97s.205-.407 0-.412c-.346.005-1.531-.055-1.568-1.402v-1.567h-.495a.367.367 0 0 1 0-.248c-.03-1.33 1.07-2.43 2.393-2.392 1.388-.038 2.488 1.061 2.474 2.392a2.23 2.23 0 0 1-.495 1.485v.99h.495l3.135 1.32 3.052 3.3s.864.63.825 2.391h6.021s1.353-.068 1.32 1.897z" style="fill:#000;fill-rule:nonzero;stroke:none"/><path d="M-16.198-.107a3.86 3.86 0 0 1 .99 2.557c-.001 2.146-1.715 3.86-3.795 3.878A3.894 3.894 0 0 1-22.88 2.45c.016-2.081 1.73-3.795 3.877-3.794.279 0 .582.037.908.083l-.825 1.32c-.024-.014-.07-.015-.083 0-1.38-.015-2.472 1.077-2.475 2.392a2.464 2.464 0 0 0 2.475 2.474c1.313-.004 2.405-1.096 2.392-2.474a2.202 2.202 0 0 0-.412-1.32l.825-1.238zM7.558-1.344c.117.003.207 0 .33 0 2.08 0 3.795 1.713 3.795 3.794 0 2.146-1.714 3.86-3.795 3.878A3.895 3.895 0 0 1 4.011 2.45 3.817 3.817 0 0 1 5.496-.52L6.073.884c-.418.397-.656.97-.66 1.567a2.464 2.464 0 0 0 2.475 2.475c1.314-.004 2.406-1.096 2.392-2.475.014-1.23-.946-2.269-2.144-2.392l-.578-1.402zM1.62 1.213C1.791-.193 2.635-1.336 3.598-2.25c.117-.165.178-.56-.083-.578-.282.019-2.474 0-2.474 0v4.042s.005.32.247.33c.237-.01.285-.272.33-.33zM-3.33-6.376s-1.147-.469-1.567-1.98l-5.197 2.97 5.114 1.65 1.65-2.64z" style="fill:#fff;fill-rule:nonzero;stroke:none"/><path d="M4.81 11.26c1.26.01 4.264.657 4.867 4.372l1.402 8.912s2.584.165 2.557 2.89v8.002s.153 1.518-1.32 2.392V44.1s-.967 1.305-2.968 1.32c-2.005-.015-2.808-1.401-2.808-1.401v-5.696s-8.039.415-11.52.414c-3.481.002-11.52-.414-11.52-.414v5.696s-.803 1.386-2.808 1.401c-2.002-.015-2.969-1.32-2.969-1.32v-6.272c-1.472-.874-1.32-2.392-1.32-2.392v-8.002c-.026-2.725 2.558-2.89 2.558-2.89l1.402-8.912c.603-3.715 3.607-4.362 4.868-4.372h9.789z" style="fill:#000;fill-rule:nonzero;stroke:none"/><path style="fill:#fff;fill-rule:nonzero;stroke:none" d="M-18.893 26.453a2.637 2.637 0 0 1 2.636 2.642 2.632 2.632 0 0 1-2.636 2.636 2.636 2.636 0 0 1-2.642-2.636 2.642 2.642 0 0 1 2.642-2.642zM-1.909 14.077c.486.022 5.836.398 6.104.413 1.637.196 3.486 1.172 3.96 3.462l.329 2.641s.469 2.328-1.98 2.31c-1.937.018-8.98-.394-11.484-.414-2.504.02-9.547.432-11.484.414-2.45.018-1.98-2.31-1.98-2.31l.329-2.64c.474-2.29 2.322-3.267 3.96-3.463.268-.015 5.618-.392 6.104-.413H-1.91zM8.933 26.453a2.637 2.637 0 0 0-2.636 2.642 2.632 2.632 0 0 0 2.636 2.636 2.636 2.636 0 0 0 2.642-2.636 2.642 2.642 0 0 0-2.642-2.642zM-5.604 28.751c-2.13.009-7.88.108-8.916.25v1.238H4.56V29c-1.036-.142-6.787-.24-8.916-.25h-1.248z"/><path style="fill:#fff;fill-opacity:1;stroke:none" d="M-14.52 33.252H4.56v-1.568h-19.08z"/><path style="fill:#fff;fill-rule:nonzero;stroke:none" d="M-5.604 36.184c-2.13-.009-7.88-.108-8.916-.25v-1.238H4.56v1.238c-1.036.142-6.787.24-8.916.25h-1.248z"/></svg>