<svg xmlns="http://www.w3.org/2000/svg" width="360.268" height="318.2" xml:space="preserve"><path style="fill:#ec1d24;fill-opacity:1;fill-rule:evenodd;stroke:none" d="M23.978 318.1c-8.586 0-16.457-4.522-20.688-11.906-4.253-7.374-4.253-16.48 0-23.875L159.446 11.975A23.766 23.766 0 0 1 180.04.1h.187a23.766 23.766 0 0 1 20.594 11.875l156.157 270.344c4.253 7.396 4.253 16.501 0 23.875-4.231 7.384-12.102 11.906-20.688 11.906z"/><path style="fill:#fff;fill-opacity:1;fill-rule:evenodd;stroke:none" d="M37.755 286.283h284.758L180.133 39.807z"/><path style="fill:#000;fill-rule:nonzero;stroke:none" d="M182.404 104.145c-1.231.061-1.99.004-2.042 6.71.052 6.47 1.167 11.088 1.167 11.088-.765.34-7.47 1.973-11.379 1.458-.174-1.06-1.166-6.365-1.167-7.002.119-.763.876-5.72-1.167-5.836-1.63.115-1.747 3.829-1.75 6.127.003 3.377.12 4.66 0 5.253-3.496-1.993-4.779-4.967-5.836-4.96-1.274-.007-1.392.81-1.459 1.458.067.402 4.383 6.7 7.586 8.462-.054.571-.054 2.786 0 3.209-8.51-.073-12.709-10.453-14.588-10.503-1.036.05-2.028.517-2.042 1.75.014 2.657 6.37 9.514 8.753 11.087 1.386.848 1.233.8 2.625.875 1.415.143 2.547.59 3.21 1.167 13.312 14.951 20.092 23.018 34.72 23.05 1.556-.032 3.54-.324 4.376-.584-.312 1.134-8.125 15.656-9.628 17.505-1.239-.217-3.688-.508-4.669-.583-5.959.075-6.774 1.882-12.837 1.75-7.875.132-23.68-5.583-38.804-5.543-10.612-.04-21.3 7.075-24.8 11.67-1.011 1.12-2.82 3.102-2.918 8.461.098 1.814-.31 9.687 6.128 8.753 1.425 4.216 5.683 12.348 10.503 15.464 1.195.807 3.004 4.306 2.918 6.418.086 6.226-4.405 5.76-4.377 10.211-.028 3.654 3.12 4.705 4.668 4.96 1.865-.013 5.043 2.427 5.835 4.377.84 1.897 4.28 6.973 6.42 8.752 1.943 1.835 5.384 8.542 5.834 9.629.147.708-.033.534.584.583.57.313.803.224 1.167.875.277.398.743.982 1.167 1.167.335.398.568.66.292.876-.015.368-.424 3.225 0 4.084.217.25 5.844 3.603 6.419 3.793.067-.278 1.167-1.167 1.167-1.167l2.042 1.167s.561-2.931-1.75-5.835c-.455-.511-.925-.77-.876-1.459-.049-1.595-4.89-8.894-6.419-10.211-1.842-1.536-4.283-4.994-4.668-7.878.832.292 11.009 6.416 11.379 6.71.504.29 1.146.842 1.167 1.46.157 1.077.304 2.701 2.334 2.333 1.29-.208 2.847.231 4.085 2.043.326.534.436.632.291 1.167-.053.195-2.386 4.863-2.626 5.251-.052.135-.373.542 0 .876.772 1.334 2.293 1.91 3.21 4.084.704 1.065 1.5 2.326 1.75 4.669-.114.653.002 2.897 1.46 2.917 1.575-.02 1.779-.632 2.042-.875.145.155.554.389 1.167.292.437.097 1.545-.31 1.458-1.75.087-1.418-.526-2.176-.875-2.627-.176-.715-1.021-3.894-.875-7.002-.146-3.249 1.01-15.942 8.17-25.967 2.733.23 11.294-.821 15.754-4.96 2.661-2.232 14.012-8.396 16.922-9.336 1.606-.248 4.562-1.96 4.668-4.96-.106-2.283-1.286-3.604-2.334-4.084-1.272-.613-10.369-4.889-13.42-5.543-.137-2.39 1.99-5.1 4.667-6.127.95-.528 2.093-.727 2.626-2.918.657-1.886.734-5.152 6.71-12.254 2.823-3.433 4.21-8.973 4.085-11.378 1.609.437 4.141.057 6.127-1.168 1.52-1.053 2.484-1.565 3.793-1.458.605.133 3.52.483 4.668.291 1.068.075 1.943.075 3.21-.875 1.182-1.033 2.999-4.091 3.21-4.668.13-.447.13-.564.29-.875.423-.272.597-.914.584-1.46.013-.62-.57-1.67-1.458-2.041-5.064-1.612-6.24-2.075-10.212-5.836-1.328-1.099-3.605-2.775-6.127-3.209-2.452-.56-3.506-.99-5.543-2.042-.613-.495-1.138-.787-1.167-1.75.029-.904.379-1.078 1.458-1.46 4.597-1.41 6.52-3.89 9.045-7.877.372-.723.606-2.414-.875-2.334-1.202-.08-1.26.68-1.75 1.167-.21.444-1.667 1.962-2.335 2.334.783-1.053.901-3.541.875-4.668.026-.974-.324-1.673-1.167-1.75-.635.077-1.178.31-1.167 1.458-.011.684.182 4.763-2.334 5.252.185-.53.34-2.239.292-3.21.048-.818-.808-5.872-2.334-5.835-1.429-.037-1.467.935-1.459 1.459-.008.487.886 2.47.875 3.793.01 4.16-4.097 6.53-6.127 6.418-1.482.111-5.098-1.17-4.96-2.042-.138-2.084 4.294-3.599 4.377-9.044-.083-8.551-6.185-13.644-7.002-13.713-1.556.069-1.362 1.04-1.46 1.459.098 2.108 4.53 3.664 4.669 11.087-.139 1.674-1.849 5.405-4.668 5.543-6.55-.138-18.04-14.171-18.09-32.678.05-2.856-1.172-2.856-1.458-2.917z"/><path style="fill:#fff;fill-rule:nonzero;stroke:none" d="M171.609 128.07c-.057.22 3.888 15.499 9.92 15.463 1.451.036 2.15-1.248 2.042-2.334.108-2.15-3.991-5.24-4.085-9.92.094-.786.734-.948 1.167-.875.695-.073 5.885 6.4 6.71 10.795 1.147 5.596 1.207 9.426 9.629 9.336 1.792.09 5.407-.202 5.543-1.167-.136-.76-.294-.755-.583-1.167-8.759-6.428-15.116-13.798-17.798-18.673-.816-1.074-2.988-2.853-5.543-2.042-1.229.22-5.66.804-7.002.584zM171.9 238.938c-.64-.084-3.44.093-3.5-1.167-.057-1.423.876-.724.875-1.75.118-1.19-.64-.84-.584-2.042.06-1.364 1.518-2.004 2.626-2.626.875-.545 1.808-.779 2.626-.876.057-.602 1.75-9.582 2.042-10.211.173-.772.639-3.338-2.042-3.21-10.602-.128-19.278-3.306-21.007-4.084-.57-.475-3.603-1.117-3.793 1.459-.267 7.48-3.727 11.588-9.336 14.004-1.263.448-2.312 1.499-1.167 2.918 2.654 3.069 7.866 7.017 15.171 10.211 3.22 1.606 14.007 8.196 14.588 9.045.643-2.016 3.093-10.995 3.502-11.67zM182.112 230.477s1.782.292 2.042.292c.285-.662 1.528-1.866 1.751-2.042.36.215 2.499.603 4.376 0 4.487-1.722 12.08-5.46 16.047-7.294.672-.44.93-.423.876-1.167.21-.499-.295-.927-1.751-.875-2.88.061-6.202-.542-9.628-2.335-2.757-1.255-6.176.3-7.294 1.46-3.064 3.986-5.84 8.747-6.419 11.961z"/></svg>