<svg xmlns="http://www.w3.org/2000/svg" width="68mm" height="25mm" viewBox="0 0 68 25"><g transform="translate(-.5 -271.5)"><rect style="opacity:1;fill:#000;fill-opacity:1;fill-rule:nonzero;stroke:none;stroke-width:14.77345657;stroke-linecap:square;stroke-linejoin:round;stroke-miterlimit:4;stroke-dasharray:none;stroke-opacity:1;paint-order:stroke fill markers" width="68" height="25" x=".5" y="271.5" rx="3" ry="3"/><rect ry="1.5" rx="1.5" y="273" x="2" height="22" width="65" style="opacity:1;fill:#fff;fill-opacity:1;fill-rule:nonzero;stroke:none;stroke-width:13.54957581;stroke-linecap:square;stroke-linejoin:round;stroke-miterlimit:4;stroke-dasharray:none;stroke-opacity:1;paint-order:stroke fill markers"/></g><path d="m29.658 260.139 2.818 1.627-3.9 1.045-.537 2.629 7.377-1.977 18.968 10.952 1.977 7.376 2.008-1.78-1.045-3.9 2.818 1.628 1.2-2.078-2.818-1.628 3.9-1.045.537-2.628-7.377 1.976-18.968-10.951-1.977-7.377-2.008 1.78 1.045 3.9-2.818-1.628z" style="opacity:1;fill:#000;fill-opacity:1;fill-rule:nonzero;stroke:none;stroke-width:1.09755707;stroke-linecap:square;stroke-linejoin:round;stroke-miterlimit:4;stroke-dasharray:none;stroke-opacity:1;paint-order:stroke fill markers" transform="translate(9.365 -132.104) scale(.53977)"/><path style="opacity:1;fill:#000;fill-opacity:1;fill-rule:nonzero;stroke:none;stroke-width:1.09755707;stroke-linecap:square;stroke-linejoin:round;stroke-miterlimit:4;stroke-dasharray:none;stroke-opacity:1;paint-order:stroke fill markers" d="M44.3 250.3v3.254l-2.855-2.855-2.545.849 5.4 5.4v21.903l-5.4 5.4 2.545.849 2.855-2.855v3.255h2.4v-3.255l2.855 2.855 2.545-.849-5.4-5.4v-21.903l5.4-5.4-2.545-.849-2.855 2.855V250.3z" transform="translate(9.365 -132.104) scale(.53977)"/><path style="opacity:1;fill:#000;fill-opacity:1;fill-rule:nonzero;stroke:none;stroke-width:1.09755707;stroke-linecap:square;stroke-linejoin:round;stroke-miterlimit:4;stroke-dasharray:none;stroke-opacity:1;paint-order:stroke fill markers" d="m30.858 277.739 2.818-1.627-1.045 3.9 2.008 1.78 1.977-7.377 18.968-10.952 7.377 1.977-.538-2.63-3.9-1.044 2.82-1.627-1.2-2.079-2.82 1.628 1.046-3.9-2.008-1.78-1.977 7.377-18.968 10.951-7.377-1.976.538 2.628 3.9 1.045-2.82 1.628z" transform="translate(9.365 -132.104) scale(.53977)"/></svg>