<svg xmlns="http://www.w3.org/2000/svg" width="69mm" height="26mm" viewBox="0 0 69 26"><g transform="translate(0 -271)"><rect style="opacity:1;fill:#000;fill-opacity:1;fill-rule:nonzero;stroke:none;stroke-width:14.77345657;stroke-linecap:square;stroke-linejoin:round;stroke-miterlimit:4;stroke-dasharray:none;stroke-opacity:1;paint-order:stroke fill markers" width="68" height="25" x=".5" y="271.5" rx="3" ry="3"/><rect ry="1.5" rx="1.5" y="273" x="2" height="22" width="65" style="opacity:1;fill:#fff;fill-opacity:1;fill-rule:nonzero;stroke:none;stroke-width:13.54957581;stroke-linecap:square;stroke-linejoin:round;stroke-miterlimit:4;stroke-dasharray:none;stroke-opacity:1;paint-order:stroke fill markers"/><path style="fill:#000;stroke-width:.16306673" d="M15.587 289.991v-1.009l2.61-3.465c1.434-1.906 2.682-3.658 2.771-3.894.09-.235.163-.704.163-1.041 0-1.704-2.476-1.984-3.192-.36l-.295.668h-2.246l.114-.53c.232-1.073.62-1.774 1.323-2.393.877-.772 1.967-1.076 3.342-.932 2.186.228 3.285 1.414 3.285 3.543 0 1.508-.455 2.4-2.808 5.507-1.083 1.43-1.969 2.644-1.969 2.698 0 .053 1.1.097 2.446.097h2.446V291h-7.99zm13.86-5.921v-6.93H31.726l.044 4.235.043 4.235 1.763-2.278 1.762-2.28h2.449l-.326.45c-.18.246-.845 1.07-1.479 1.83-.634.76-1.152 1.434-1.152 1.498 0 .064.77 1.45 1.712 3.08.942 1.63 1.712 2.994 1.712 3.033 0 .039-.567.05-1.261.023l-1.262-.048-1.143-2.075c-.63-1.141-1.203-2.08-1.276-2.087-.072-.006-.457.385-.856.87-.717.87-.724.892-.724 2.127V291h-2.283zm10.274 1.956v-4.973h2.283v1.272l.54-.54c1.266-1.266 3.422-1.073 4.49.402l.46.633.284-.482c.485-.821 1.44-1.335 2.508-1.35 1.256-.015 2.089.428 2.725 1.452l.489.788.051 3.886.052 3.886h-2.141l-.001-2.976c0-1.637-.077-3.248-.169-3.58-.362-1.302-1.993-1.743-2.941-.795l-.477.477V291h-2.26l-.052-3.438-.052-3.438-.533-.476c-.756-.675-1.82-.675-2.497.001l-.476.477V291H39.72z"/><path d="m11.25 279.725-2.137-.375V293H6.638v-13.65l-2.138.375L7.875 275zM64.5 279.725l-2.138-.375V293h-2.475v-13.65l-2.137.375L61.125 275z" style="fill:#000;fill-opacity:1;fill-rule:nonzero;stroke:none;stroke-width:.02829201"/></g></svg>