<svg xmlns="http://www.w3.org/2000/svg" width="69mm" height="26mm" viewBox="0 0 69 26"><g transform="translate(0 -271)"><rect ry="3" rx="3" y="271.5" x=".5" height="25" width="68" style="opacity:1;fill:#000;fill-opacity:1;fill-rule:nonzero;stroke:none;stroke-width:14.77345657;stroke-linecap:square;stroke-linejoin:round;stroke-miterlimit:4;stroke-dasharray:none;stroke-opacity:1;paint-order:stroke fill markers"/><rect style="opacity:1;fill:#fff;fill-opacity:1;fill-rule:nonzero;stroke:none;stroke-width:13.54957581;stroke-linecap:square;stroke-linejoin:round;stroke-miterlimit:4;stroke-dasharray:none;stroke-opacity:1;paint-order:stroke fill markers" width="65" height="22" x="2" y="273" rx="1.5" ry="1.5"/><path d="m13.287 272.505-.795 4.534h41.372v5.25H12.492l.795 4.534-10.023-7.159z" style="fill:#000;fill-opacity:1;fill-rule:nonzero;stroke:none;stroke-width:.06001336" transform="matrix(-1.00457 0 0 1.00457 67.78 5.866)"/><path d="m16.585 286.823-.796-4.534v-5.25l.796-4.534-10.023 7.16z" style="fill:#000;fill-opacity:1;fill-rule:nonzero;stroke:none;stroke-width:.06001336" transform="translate(-2.092 5.866) scale(1.00457)"/><path style="fill:none;stroke:#000;stroke-width:1.56500006;stroke-linecap:butt;stroke-linejoin:miter;stroke-miterlimit:4;stroke-dasharray:none;stroke-opacity:1" d="M34.282 272.978V295"/><path style="fill:#000;stroke-width:.08739688" d="M38.529 281.952c-.832-.273-1.407-.937-1.5-1.73l-.029-.247h.567c.56 0 .57.004.708.297.19.403.394.533.834.533.267 0 .441-.06.617-.21.23-.199.247-.261.276-1.01.033-.863-.06-1.234-.368-1.449-.356-.25-1.073-.075-1.28.31-.078.146-.183.174-.658.174h-.565V274.513h3.933v1.136h-2.709v1.49l.258-.133c.145-.076.482-.134.772-.134.735 0 1.188.258 1.539.876.266.47.271.5.271 1.659 0 .984-.027 1.23-.163 1.486-.23.43-.483.689-.867.886-.367.187-1.294.286-1.636.173zm6.03-2.676v-2.666h1.224v.682l.29-.29c.678-.678 1.834-.575 2.407.216l.246.34.152-.26c.26-.44.772-.715 1.344-.722.673-.01 1.12.229 1.46.778l.263.422.027 2.082.028 2.083h-1.148v-1.595c0-.877-.041-1.74-.09-1.918-.194-.698-1.069-.934-1.577-.426l-.255.255v3.684H47.719l-.028-1.842-.029-1.843-.285-.255c-.406-.362-.976-.362-1.338 0l-.256.256v3.684H44.56zM18.029 281.952c-.832-.273-1.407-.937-1.5-1.73l-.029-.247h.567c.56 0 .57.004.708.297.19.403.394.533.834.533.267 0 .441-.06.617-.21.23-.199.247-.261.276-1.01.033-.863-.06-1.234-.368-1.449-.356-.25-1.073-.075-1.28.31-.078.146-.183.174-.658.174h-.565V274.513h3.933v1.136h-2.709v1.49l.258-.133c.145-.076.482-.134.772-.134.735 0 1.188.258 1.539.876.266.47.271.5.271 1.659 0 .984-.027 1.23-.163 1.486-.23.43-.483.689-.867.886-.367.187-1.294.286-1.636.173zm6.03-2.676v-2.666h1.224v.682l.29-.29c.678-.678 1.834-.575 2.407.216l.246.34.152-.26c.26-.44.772-.715 1.344-.722.673-.01 1.12.229 1.46.778l.263.422.027 2.082.028 2.083h-1.148v-1.595c0-.877-.041-1.74-.09-1.918-.194-.698-1.069-.934-1.577-.426l-.255.255v3.684H27.219l-.028-1.842-.029-1.843-.285-.255c-.406-.362-.976-.362-1.338 0l-.256.256v3.684H24.06z"/></g></svg>