<svg xmlns="http://www.w3.org/2000/svg" width="68mm" height="68mm" viewBox="0 0 68 68"><g transform="matrix(1.12583 0 0 1.12583 261.567 -365.383)"><rect ry="3.8" rx="3.8" y="324.546" x="-232.333" height="60.4" width="60.4" style="opacity:1;fill:#000;fill-opacity:1;fill-rule:nonzero;stroke:none;stroke-width:.50057405;stroke-linecap:square;stroke-linejoin:round;stroke-miterlimit:4;stroke-dasharray:none;stroke-opacity:1;paint-order:stroke fill markers"/><rect ry="3.6" rx="3.6" style="opacity:1;fill:#000;fill-opacity:1;fill-rule:nonzero;stroke:none;stroke-width:.49725902;stroke-linecap:square;stroke-linejoin:round;stroke-miterlimit:4;stroke-dasharray:none;stroke-opacity:1;paint-order:stroke fill markers" width="60" height="60" x="-232.133" y="324.746"/><rect ry="2.1" rx="2.1" y="326.246" x="-230.633" height="57" width="57" style="opacity:1;fill:#fff;fill-opacity:1;fill-rule:nonzero;stroke:none;stroke-width:.47239608;stroke-linecap:square;stroke-linejoin:round;stroke-miterlimit:4;stroke-dasharray:none;stroke-opacity:1;paint-order:stroke fill markers"/><path style="fill:#000;fill-opacity:1;fill-rule:nonzero;stroke:none" d="M280.406 420.404V320.396c0-22.086 17.903-40 40-40h99.992v-80h-99.992c-66.281 0-120.008 53.731-120.008 120v100.008M60.406 260.404h119.996v-40H60.406zM220.402 180.404h40v-120h-40z" transform="matrix(0 .1357 .1357 0 -234.757 322.123)"/></g></svg>