<?xml version="1.0" encoding="UTF-8" standalone="no"?>
<!-- Created with Inkscape (http://www.inkscape.org/) -->

<svg
   xmlns:dc="http://purl.org/dc/elements/1.1/"
   xmlns:cc="http://creativecommons.org/ns#"
   xmlns:rdf="http://www.w3.org/1999/02/22-rdf-syntax-ns#"
   xmlns:svg="http://www.w3.org/2000/svg"
   xmlns="http://www.w3.org/2000/svg"
   xmlns:sodipodi="http://sodipodi.sourceforge.net/DTD/sodipodi-0.dtd"
   xmlns:inkscape="http://www.inkscape.org/namespaces/inkscape"
   width="68mm"
   height="25mm"
   viewBox="0 0 68.000001 25"
   version="1.1"
   id="svg825"
   inkscape:version="0.92.3 (2405546, 2018-03-11)"
   sodipodi:docname="Vienna Convention road sign H9-V1-1.svg">
  <defs
     id="defs819" />
  <sodipodi:namedview
     id="base"
     pagecolor="#ffffff"
     bordercolor="#666666"
     borderopacity="1.0"
     inkscape:pageopacity="0.0"
     inkscape:pageshadow="2"
     inkscape:zoom="0.9319375"
     inkscape:cx="129.53704"
     inkscape:cy="9.5548255"
     inkscape:document-units="mm"
     inkscape:current-layer="layer1"
     showgrid="false"
     fit-margin-top="0"
     fit-margin-left="0"
     fit-margin-right="0"
     fit-margin-bottom="0"
     showborder="true"
     inkscape:window-width="1366"
     inkscape:window-height="705"
     inkscape:window-x="-8"
     inkscape:window-y="-8"
     inkscape:window-maximized="1" />
  <metadata
     id="metadata822">
    <rdf:RDF>
      <cc:Work
         rdf:about="">
        <dc:format>image/svg+xml</dc:format>
        <dc:type
           rdf:resource="http://purl.org/dc/dcmitype/StillImage" />
        <dc:title></dc:title>
      </cc:Work>
    </rdf:RDF>
  </metadata>
  <g
     inkscape:label="Layer 1"
     inkscape:groupmode="layer"
     id="layer1"
     transform="translate(233.10693,-311.71694)">
    <g
       transform="translate(-233.60693,40.216936)"
       id="layer1-4"
       inkscape:label="Layer 1">
      <rect
         style="opacity:1;fill:#000000;fill-opacity:1;fill-rule:nonzero;stroke:none;stroke-width:14.77345657;stroke-linecap:square;stroke-linejoin:round;stroke-miterlimit:4;stroke-dasharray:none;stroke-opacity:1;paint-order:stroke fill markers"
         id="rect922"
         width="68"
         height="25"
         x="0.5"
         y="271.5"
         rx="3"
         ry="3" />
      <rect
         ry="1.5"
         rx="1.5000002"
         y="273"
         x="2"
         height="22"
         width="65"
         id="rect924"
         style="opacity:1;fill:#ffffff;fill-opacity:1;fill-rule:nonzero;stroke:none;stroke-width:13.54957581;stroke-linecap:square;stroke-linejoin:round;stroke-miterlimit:4;stroke-dasharray:none;stroke-opacity:1;paint-order:stroke fill markers" />
    </g>
    <g
       transform="matrix(0.53976751,0,0,0.53976751,-226.28792,183.8936)"
       id="layer1-9"
       inkscape:label="Layer 1">
      <g
         id="g4847"
         transform="translate(4.7176809,-7.9297189)">
        <path
           sodipodi:nodetypes="ccccccccccccccccccccc"
           inkscape:connector-curvature="0"
           id="path848"
           d="m 29.657863,260.13876 2.818549,1.62729 -3.899462,1.04487 -0.53795,2.62879 7.376797,-1.9766 18.968519,10.95148 1.976607,7.37679 2.00763,-1.78027 -1.044851,-3.89947 2.818549,1.62729 1.199925,-2.07833 -2.818549,-1.62729 3.899456,-1.04486 0.537955,-2.6288 -7.376797,1.9766 -18.968519,-10.95148 -1.976607,-7.37679 -2.007635,1.78028 1.044857,3.89946 -2.818549,-1.62729 z"
           style="opacity:1;fill:#000000;fill-opacity:1;fill-rule:nonzero;stroke:none;stroke-width:1.09755707;stroke-linecap:square;stroke-linejoin:round;stroke-miterlimit:4;stroke-dasharray:none;stroke-opacity:1;paint-order:stroke fill markers" />
        <path
           style="opacity:1;fill:#000000;fill-opacity:1;fill-rule:nonzero;stroke:none;stroke-width:1.09755707;stroke-linecap:square;stroke-linejoin:round;stroke-miterlimit:4;stroke-dasharray:none;stroke-opacity:1;paint-order:stroke fill markers"
           d="m 44.300094,250.29951 v 3.25458 l -2.85461,-2.8546 -2.54558,0.84852 5.40019,5.40019 v 21.90296 l -5.40019,5.40019 2.54558,0.84852 2.85461,-2.8546 v 3.25458 h 2.39985 v -3.25458 l 2.8546,2.8546 2.54559,-0.84852 -5.40019,-5.40019 V 256.9482 l 5.40019,-5.40019 -2.54559,-0.84852 -2.8546,2.8546 v -3.25458 z"
           id="rect897"
           inkscape:connector-curvature="0"
           sodipodi:nodetypes="ccccccccccccccccccccc" />
        <path
           style="opacity:1;fill:#000000;fill-opacity:1;fill-rule:nonzero;stroke:none;stroke-width:1.09755707;stroke-linecap:square;stroke-linejoin:round;stroke-miterlimit:4;stroke-dasharray:none;stroke-opacity:1;paint-order:stroke fill markers"
           d="m 30.857787,277.73893 2.818549,-1.62729 -1.044846,3.89947 2.007623,1.78027 1.976613,-7.37679 18.968519,-10.95148 7.376791,1.9766 -0.537944,-2.62879 -3.899466,-1.04487 2.818549,-1.62729 -1.199924,-2.07833 -2.818549,1.62729 1.044853,-3.89946 -2.00763,-1.78028 -1.976613,7.37679 -18.968519,10.95148 -7.376791,-1.9766 0.53795,2.6288 3.89946,1.04486 -2.818549,1.62729 z"
           id="path850"
           inkscape:connector-curvature="0"
           sodipodi:nodetypes="ccccccccccccccccccccc" />
      </g>
    </g>
  </g>
</svg>
