<svg xmlns="http://www.w3.org/2000/svg" width="69mm" height="26mm" viewBox="0 0 69 26"><g transform="translate(0 -271)"><rect ry="3" rx="3" y="271.5" x=".5" height="25" width="68" style="opacity:1;fill:#000;fill-opacity:1;fill-rule:nonzero;stroke:none;stroke-width:14.77345657;stroke-linecap:square;stroke-linejoin:round;stroke-miterlimit:4;stroke-dasharray:none;stroke-opacity:1;paint-order:stroke fill markers"/><rect style="opacity:1;fill:#fff;fill-opacity:1;fill-rule:nonzero;stroke:none;stroke-width:13.54957581;stroke-linecap:square;stroke-linejoin:round;stroke-miterlimit:4;stroke-dasharray:none;stroke-opacity:1;paint-order:stroke fill markers" width="65" height="22" x="2" y="273" rx="1.5" ry="1.5"/><path style="fill:#000;fill-opacity:1;fill-rule:nonzero;stroke:none;stroke-width:.13112296" d="M29.275 287.055v-6.11c0-2.456-1.799-3.945-3.984-3.945s-3.964 1.489-3.964 3.944v6.111c0 2.456 1.78 3.945 3.964 3.945 2.185 0 3.984-1.489 3.984-3.945zm-1.973-.058c0 1.334-.754 2.244-2.011 2.244-1.257 0-1.991-.91-1.991-2.244v-5.994c0-1.334.734-2.243 1.99-2.243 1.258 0 2.012.909 2.012 2.243zM38.798 287.055v-6.11c0-2.456-1.798-3.945-3.983-3.945s-3.964 1.489-3.964 3.944v6.111c0 2.456 1.779 3.945 3.964 3.945s3.983-1.489 3.983-3.945zm-1.972-.058c0 1.334-.754 2.244-2.01 2.244-1.258 0-1.993-.91-1.993-2.244v-5.994c0-1.334.735-2.243 1.992-2.243 1.257 0 2.011.909 2.011 2.243zM56.7 291v-6.266c0-1.102-.29-2.03-1.045-2.765-.58-.56-1.47-.89-2.475-.89-1.296 0-2.282.465-3.074 1.432-.62-.948-1.567-1.431-2.785-1.431-.986 0-1.953.387-2.61 1.102v-.986h-1.934V291h1.972v-5.975c0-1.509.928-2.185 2.03-2.185 1.103 0 1.973.657 1.973 2.185V291h1.972v-6.072c0-1.412.967-2.088 2.03-2.088 1.103 0 1.973.657 1.973 2.185V291zM12.3 290.884h7.785v-1.956H14.87l4.39-5.503c.55-.678.825-1.477.825-2.397 0-.537-.102-1.042-.306-1.515a3.6 3.6 0 0 0-.844-1.246 3.547 3.547 0 0 0-1.266-.844 4.014 4.014 0 0 0-1.572-.307c-.499 0-.978.103-1.438.307-.46.192-.87.467-1.228.825-.345.358-.62.78-.824 1.265a3.823 3.823 0 0 0-.307 1.534h1.956c.051-.6.262-1.08.633-1.438.37-.358.824-.537 1.361-.537.562 0 1.016.198 1.362.595.345.383.517.83.517 1.342 0 .23-.038.454-.114.671a2.104 2.104 0 0 1-.384.69l-5.331 6.673z"/></g></svg>