<svg xmlns="http://www.w3.org/2000/svg" width="69mm" height="26mm" viewBox="0 0 69 26"><g transform="translate(0 -271)"><rect ry="3" rx="3" y="271.5" x=".5" height="25" width="68" style="opacity:1;fill:#000;fill-opacity:1;fill-rule:nonzero;stroke:none;stroke-width:14.77345657;stroke-linecap:square;stroke-linejoin:round;stroke-miterlimit:4;stroke-dasharray:none;stroke-opacity:1;paint-order:stroke fill markers"/><rect style="opacity:1;fill:#fff;fill-opacity:1;fill-rule:nonzero;stroke:none;stroke-width:13.54957581;stroke-linecap:square;stroke-linejoin:round;stroke-miterlimit:4;stroke-dasharray:none;stroke-opacity:1;paint-order:stroke fill markers" width="65" height="22" x="2" y="273" rx="1.5" ry="1.5"/><path style="fill:#000;fill-opacity:1;fill-rule:nonzero;stroke:none;stroke-width:.06001336" d="m15.023 277.018-.796 4.534H40v5.25H14.227l.796 4.534L5 284.176z" transform="translate(-.5)"/><path d="M49.222 288.23c-.713-.19-1.182-.566-1.539-1.235-.172-.322-.19-.616-.19-3.105 0-2.748 0-2.749.26-3.254.366-.712.978-1.076 1.92-1.144 1.275-.09 2.124.28 2.577 1.126.215.404.23.563.26 2.966.02 1.645-.009 2.702-.083 3-.267 1.081-.96 1.61-2.205 1.684-.382.024-.832.01-1-.04zm1.546-1.582.285-.245.031-2.347c.026-1.999.006-2.4-.134-2.695-.198-.416-.624-.62-1.128-.538-.855.14-.956.463-.956 3.07 0 2.734.098 2.99 1.139 2.998.36.006.547-.057.763-.243zm-6.58-1.941c0-1.93-.025-3.51-.055-3.51s-.282.116-.56.256l-.505.256.002-.739.002-.739.602-.33c.507-.279.707-.331 1.27-.331h.669v8.646H44.188zm12.206.407v-3.103h1.424v.794l.337-.337c.79-.79 2.135-.67 2.801.25l.286.395.178-.3c.303-.513.899-.833 1.564-.842.783-.01 1.303.267 1.7.906l.305.49.032 2.425.032 2.424h-1.335l-.002-1.856c0-1.021-.048-2.026-.105-2.234-.226-.812-1.244-1.087-1.835-.495l-.297.297v4.288H60.07l-.033-2.145-.033-2.144-.332-.297c-.472-.421-1.136-.421-1.558.002l-.297.297v4.288h-1.424z" style="fill:#000;stroke-width:.10172091" transform="translate(-.5)"/></g></svg>